<svg xmlns="http://www.w3.org/2000/svg" width="960" height="430" viewBox="0 0 960 430" role="img" aria-label="Composite score history">
<rect width="100%" height="100%" fill="#0b1020" rx="20"/>
<text x="70" y="32" fill="#f5f7fb" font-family="Inter, Arial, sans-serif" font-size="24" font-weight="700">Composite score history</text>
<text x="70" y="52" fill="#93a4c3" font-family="Inter, Arial, sans-serif" font-size="13">Trailing 61 sessions through 2025-10-14</text>
<line x1="70" x2="935" y1="375.00" y2="375.00" stroke="#27314e" stroke-width="1"/>
<text x="58" y="379.00" text-anchor="end" fill="#93a4c3" font-family="Inter, Arial, sans-serif" font-size="12">8</text>
<line x1="70" x2="935" y1="312.00" y2="312.00" stroke="#27314e" stroke-width="1"/>
<text x="58" y="316.00" text-anchor="end" fill="#93a4c3" font-family="Inter, Arial, sans-serif" font-size="12">13</text>
<line x1="70" x2="935" y1="249.00" y2="249.00" stroke="#27314e" stroke-width="1"/>
<text x="58" y="253.00" text-anchor="end" fill="#93a4c3" font-family="Inter, Arial, sans-serif" font-size="12">18</text>
<line x1="70" x2="935" y1="186.00" y2="186.00" stroke="#27314e" stroke-width="1"/>
<text x="58" y="190.00" text-anchor="end" fill="#93a4c3" font-family="Inter, Arial, sans-serif" font-size="12">24</text>
<line x1="70" x2="935" y1="123.00" y2="123.00" stroke="#27314e" stroke-width="1"/>
<text x="58" y="127.00" text-anchor="end" fill="#93a4c3" font-family="Inter, Arial, sans-serif" font-size="12">29</text>
<line x1="70" x2="935" y1="60.00" y2="60.00" stroke="#27314e" stroke-width="1"/>
<text x="58" y="64.00" text-anchor="end" fill="#93a4c3" font-family="Inter, Arial, sans-serif" font-size="12">34</text>
<text x="70.00" y="412" text-anchor="middle" fill="#93a4c3" font-family="Inter, Arial, sans-serif" font-size="12">2025-07-18</text>
<text x="502.50" y="412" text-anchor="middle" fill="#93a4c3" font-family="Inter, Arial, sans-serif" font-size="12">2025-08-29</text>
<text x="935.00" y="412" text-anchor="middle" fill="#93a4c3" font-family="Inter, Arial, sans-serif" font-size="12">2025-10-14</text>
<path d="M 70.00 270.92 L 84.42 274.55 L 98.83 285.18 L 113.25 322.83 L 127.67 296.06 L 142.08 318.71 L 156.50 298.94 L 170.92 289.56 L 185.33 224.13 L 199.75 216.25 L 214.17 60.00 L 228.58 205.24 L 243.00 195.11 L 257.42 269.42 L 271.83 299.94 L 286.25 291.18 L 300.67 245.15 L 315.08 373.62 L 329.50 369.00 L 343.92 351.61 L 358.33 338.85 L 372.75 340.72 L 387.17 252.15 L 401.58 190.60 L 416.00 140.69 L 430.42 282.93 L 444.83 247.40 L 459.25 268.29 L 473.67 289.31 L 488.08 346.73 L 502.50 290.93 L 516.92 234.76 L 531.33 264.04 L 545.75 321.58 L 560.17 300.07 L 574.58 349.48 L 589.00 372.75 L 603.42 366.87 L 617.83 375.00 L 632.25 352.86 L 646.67 348.98 L 661.08 346.98 L 675.50 336.47 L 689.92 280.55 L 704.33 337.72 L 718.75 302.32 L 733.17 323.33 L 747.58 301.32 L 762.00 229.88 L 776.42 268.04 L 790.83 270.79 L 805.25 290.31 L 819.67 353.36 L 834.08 373.12 L 848.50 334.09 L 862.92 351.36 L 877.33 310.45 L 891.75 322.33 L 906.17 286.43 L 920.58 68.26 L 935.00 153.20" fill="none" stroke="#69a7ff" stroke-width="4" stroke-linecap="round" stroke-linejoin="round"/>
<circle cx="935.00" cy="153.20" r="6" fill="#69a7ff"/>
</svg>