<svg xmlns="http://www.w3.org/2000/svg" width="960" height="430" viewBox="0 0 960 430" role="img" aria-label="Composite score history">
<rect width="100%" height="100%" fill="#0b1020" rx="20"/>
<text x="70" y="32" fill="#f5f7fb" font-family="Inter, Arial, sans-serif" font-size="24" font-weight="700">Composite score history</text>
<text x="70" y="52" fill="#93a4c3" font-family="Inter, Arial, sans-serif" font-size="13">Trailing 57 sessions through 2025-10-14</text>
<line x1="70" x2="935" y1="375.00" y2="375.00" stroke="#27314e" stroke-width="1"/>
<text x="58" y="379.00" text-anchor="end" fill="#93a4c3" font-family="Inter, Arial, sans-serif" font-size="12">8</text>
<line x1="70" x2="935" y1="312.00" y2="312.00" stroke="#27314e" stroke-width="1"/>
<text x="58" y="316.00" text-anchor="end" fill="#93a4c3" font-family="Inter, Arial, sans-serif" font-size="12">13</text>
<line x1="70" x2="935" y1="249.00" y2="249.00" stroke="#27314e" stroke-width="1"/>
<text x="58" y="253.00" text-anchor="end" fill="#93a4c3" font-family="Inter, Arial, sans-serif" font-size="12">18</text>
<line x1="70" x2="935" y1="186.00" y2="186.00" stroke="#27314e" stroke-width="1"/>
<text x="58" y="190.00" text-anchor="end" fill="#93a4c3" font-family="Inter, Arial, sans-serif" font-size="12">24</text>
<line x1="70" x2="935" y1="123.00" y2="123.00" stroke="#27314e" stroke-width="1"/>
<text x="58" y="127.00" text-anchor="end" fill="#93a4c3" font-family="Inter, Arial, sans-serif" font-size="12">29</text>
<line x1="70" x2="935" y1="60.00" y2="60.00" stroke="#27314e" stroke-width="1"/>
<text x="58" y="64.00" text-anchor="end" fill="#93a4c3" font-family="Inter, Arial, sans-serif" font-size="12">34</text>
<text x="70.00" y="412" text-anchor="middle" fill="#93a4c3" font-family="Inter, Arial, sans-serif" font-size="12">2025-07-24</text>
<text x="502.50" y="412" text-anchor="middle" fill="#93a4c3" font-family="Inter, Arial, sans-serif" font-size="12">2025-09-03</text>
<text x="935.00" y="412" text-anchor="middle" fill="#93a4c3" font-family="Inter, Arial, sans-serif" font-size="12">2025-10-14</text>
<path d="M 70.00 278.05 L 85.45 300.57 L 100.89 300.19 L 116.34 277.17 L 131.79 261.91 L 147.23 216.25 L 162.68 60.00 L 178.12 205.24 L 193.57 195.11 L 209.02 269.42 L 224.46 299.94 L 239.91 291.18 L 255.36 245.15 L 270.80 373.62 L 286.25 369.00 L 301.70 351.61 L 317.14 338.85 L 332.59 340.72 L 348.04 252.15 L 363.48 190.60 L 378.93 140.69 L 394.38 282.93 L 409.82 247.40 L 425.27 268.29 L 440.71 289.31 L 456.16 346.73 L 471.61 290.93 L 487.05 234.76 L 502.50 264.04 L 517.95 321.58 L 533.39 300.07 L 548.84 349.48 L 564.29 372.75 L 579.73 366.87 L 595.18 375.00 L 610.62 352.86 L 626.07 348.98 L 641.52 346.98 L 656.96 336.47 L 672.41 280.55 L 687.86 337.72 L 703.30 302.32 L 718.75 323.33 L 734.20 301.32 L 749.64 229.88 L 765.09 268.04 L 780.54 270.79 L 795.98 290.31 L 811.43 353.36 L 826.88 373.12 L 842.32 334.09 L 857.77 351.36 L 873.21 310.45 L 888.66 322.33 L 904.11 286.43 L 919.55 68.26 L 935.00 153.20" fill="none" stroke="#69a7ff" stroke-width="4" stroke-linecap="round" stroke-linejoin="round"/>
<circle cx="935.00" cy="153.20" r="6" fill="#69a7ff"/>
</svg>