<svg xmlns="http://www.w3.org/2000/svg" width="960" height="430" viewBox="0 0 960 430" role="img" aria-label="Composite score history">
<rect width="100%" height="100%" fill="#0b1020" rx="20"/>
<text x="70" y="32" fill="#f5f7fb" font-family="Inter, Arial, sans-serif" font-size="24" font-weight="700">Composite score history</text>
<text x="70" y="52" fill="#93a4c3" font-family="Inter, Arial, sans-serif" font-size="13">Trailing 74 sessions through 2026-02-19</text>
<line x1="70" x2="935" y1="375.00" y2="375.00" stroke="#27314e" stroke-width="1"/>
<text x="58" y="379.00" text-anchor="end" fill="#93a4c3" font-family="Inter, Arial, sans-serif" font-size="12">0</text>
<line x1="70" x2="935" y1="312.00" y2="312.00" stroke="#27314e" stroke-width="1"/>
<text x="58" y="316.00" text-anchor="end" fill="#93a4c3" font-family="Inter, Arial, sans-serif" font-size="12">8</text>
<line x1="70" x2="935" y1="249.00" y2="249.00" stroke="#27314e" stroke-width="1"/>
<text x="58" y="253.00" text-anchor="end" fill="#93a4c3" font-family="Inter, Arial, sans-serif" font-size="12">17</text>
<line x1="70" x2="935" y1="186.00" y2="186.00" stroke="#27314e" stroke-width="1"/>
<text x="58" y="190.00" text-anchor="end" fill="#93a4c3" font-family="Inter, Arial, sans-serif" font-size="12">25</text>
<line x1="70" x2="935" y1="123.00" y2="123.00" stroke="#27314e" stroke-width="1"/>
<text x="58" y="127.00" text-anchor="end" fill="#93a4c3" font-family="Inter, Arial, sans-serif" font-size="12">33</text>
<line x1="70" x2="935" y1="60.00" y2="60.00" stroke="#27314e" stroke-width="1"/>
<text x="58" y="64.00" text-anchor="end" fill="#93a4c3" font-family="Inter, Arial, sans-serif" font-size="12">41</text>
<text x="70.00" y="412" text-anchor="middle" fill="#93a4c3" font-family="Inter, Arial, sans-serif" font-size="12">2025-10-31</text>
<text x="508.42" y="412" text-anchor="middle" fill="#93a4c3" font-family="Inter, Arial, sans-serif" font-size="12">2025-12-26</text>
<text x="935.00" y="412" text-anchor="middle" fill="#93a4c3" font-family="Inter, Arial, sans-serif" font-size="12">2026-02-19</text>
<path d="M 70.00 267.18 L 81.85 267.10 L 93.70 212.05 L 105.55 225.77 L 117.40 178.65 L 129.25 190.93 L 141.10 255.59 L 152.95 294.63 L 164.79 209.53 L 176.64 237.06 L 188.49 167.36 L 200.34 60.00 L 212.19 70.45 L 224.04 66.18 L 235.89 146.17 L 247.74 277.24 L 259.59 326.96 L 271.44 337.79 L 283.29 375.00 L 295.14 333.06 L 306.99 308.20 L 318.84 290.89 L 330.68 264.74 L 342.53 247.28 L 354.38 278.92 L 366.23 241.33 L 378.08 272.67 L 389.93 307.67 L 401.78 264.05 L 413.63 273.13 L 425.48 273.58 L 437.33 183.07 L 449.18 209.46 L 461.03 304.77 L 472.88 329.32 L 484.73 342.21 L 496.58 374.85 L 508.42 360.82 L 520.27 332.91 L 532.12 310.11 L 543.97 254.37 L 555.82 241.41 L 567.67 250.25 L 579.52 274.96 L 591.37 271.37 L 603.22 287.00 L 615.07 289.90 L 626.92 256.43 L 638.77 234.08 L 650.62 237.06 L 662.47 246.21 L 674.32 211.90 L 686.16 84.17 L 698.01 172.78 L 709.86 214.11 L 721.71 200.15 L 733.56 248.88 L 745.41 293.33 L 757.26 261.99 L 769.11 228.59 L 780.96 226.46 L 792.81 237.44 L 804.66 170.49 L 816.51 173.85 L 828.36 111.24 L 840.21 253.00 L 852.05 248.65 L 863.90 271.37 L 875.75 276.02 L 887.60 258.10 L 899.45 183.61 L 911.30 172.93 L 923.15 205.34 L 935.00 191.99" fill="none" stroke="#69a7ff" stroke-width="4" stroke-linecap="round" stroke-linejoin="round"/>
<circle cx="935.00" cy="191.99" r="6" fill="#69a7ff"/>
</svg>