<svg xmlns="http://www.w3.org/2000/svg" width="960" height="430" viewBox="0 0 960 430" role="img" aria-label="Composite score history">
<rect width="100%" height="100%" fill="#0b1020" rx="20"/>
<text x="70" y="32" fill="#f5f7fb" font-family="Inter, Arial, sans-serif" font-size="24" font-weight="700">Composite score history</text>
<text x="70" y="52" fill="#93a4c3" font-family="Inter, Arial, sans-serif" font-size="13">Trailing 76 sessions through 2026-02-19</text>
<line x1="70" x2="935" y1="375.00" y2="375.00" stroke="#27314e" stroke-width="1"/>
<text x="58" y="379.00" text-anchor="end" fill="#93a4c3" font-family="Inter, Arial, sans-serif" font-size="12">0</text>
<line x1="70" x2="935" y1="312.00" y2="312.00" stroke="#27314e" stroke-width="1"/>
<text x="58" y="316.00" text-anchor="end" fill="#93a4c3" font-family="Inter, Arial, sans-serif" font-size="12">8</text>
<line x1="70" x2="935" y1="249.00" y2="249.00" stroke="#27314e" stroke-width="1"/>
<text x="58" y="253.00" text-anchor="end" fill="#93a4c3" font-family="Inter, Arial, sans-serif" font-size="12">17</text>
<line x1="70" x2="935" y1="186.00" y2="186.00" stroke="#27314e" stroke-width="1"/>
<text x="58" y="190.00" text-anchor="end" fill="#93a4c3" font-family="Inter, Arial, sans-serif" font-size="12">25</text>
<line x1="70" x2="935" y1="123.00" y2="123.00" stroke="#27314e" stroke-width="1"/>
<text x="58" y="127.00" text-anchor="end" fill="#93a4c3" font-family="Inter, Arial, sans-serif" font-size="12">33</text>
<line x1="70" x2="935" y1="60.00" y2="60.00" stroke="#27314e" stroke-width="1"/>
<text x="58" y="64.00" text-anchor="end" fill="#93a4c3" font-family="Inter, Arial, sans-serif" font-size="12">41</text>
<text x="70.00" y="412" text-anchor="middle" fill="#93a4c3" font-family="Inter, Arial, sans-serif" font-size="12">2025-10-29</text>
<text x="508.27" y="412" text-anchor="middle" fill="#93a4c3" font-family="Inter, Arial, sans-serif" font-size="12">2025-12-24</text>
<text x="935.00" y="412" text-anchor="middle" fill="#93a4c3" font-family="Inter, Arial, sans-serif" font-size="12">2026-02-19</text>
<path d="M 70.00 274.19 L 81.53 224.40 L 93.07 221.05 L 104.60 226.15 L 116.13 176.90 L 127.67 183.68 L 139.20 184.67 L 150.73 190.93 L 162.27 255.59 L 173.80 294.63 L 185.33 209.53 L 196.87 237.06 L 208.40 167.36 L 219.93 60.00 L 231.47 70.45 L 243.00 66.18 L 254.53 146.17 L 266.07 277.24 L 277.60 326.96 L 289.13 337.79 L 300.67 375.00 L 312.20 333.06 L 323.73 308.20 L 335.27 290.89 L 346.80 264.74 L 358.33 247.28 L 369.87 278.92 L 381.40 241.33 L 392.93 272.67 L 404.47 307.67 L 416.00 264.05 L 427.53 273.13 L 439.07 273.58 L 450.60 183.07 L 462.13 209.46 L 473.67 304.77 L 485.20 329.32 L 496.73 342.21 L 508.27 374.85 L 519.80 360.82 L 531.33 332.91 L 542.87 310.11 L 554.40 254.37 L 565.93 241.41 L 577.47 250.25 L 589.00 274.96 L 600.53 271.37 L 612.07 287.00 L 623.60 289.90 L 635.13 256.43 L 646.67 234.08 L 658.20 237.06 L 669.73 246.21 L 681.27 211.90 L 692.80 84.17 L 704.33 172.78 L 715.87 214.11 L 727.40 200.15 L 738.93 248.88 L 750.47 293.33 L 762.00 261.99 L 773.53 228.59 L 785.07 226.46 L 796.60 237.44 L 808.13 170.49 L 819.67 173.85 L 831.20 111.24 L 842.73 253.00 L 854.27 248.65 L 865.80 271.37 L 877.33 276.02 L 888.87 258.10 L 900.40 183.61 L 911.93 172.93 L 923.47 205.34 L 935.00 191.99" fill="none" stroke="#69a7ff" stroke-width="4" stroke-linecap="round" stroke-linejoin="round"/>
<circle cx="935.00" cy="191.99" r="6" fill="#69a7ff"/>
</svg>