<svg xmlns="http://www.w3.org/2000/svg" width="960" height="430" viewBox="0 0 960 430" role="img" aria-label="Composite score history">
<rect width="100%" height="100%" fill="#0b1020" rx="20"/>
<text x="70" y="32" fill="#f5f7fb" font-family="Inter, Arial, sans-serif" font-size="24" font-weight="700">Composite score history</text>
<text x="70" y="52" fill="#93a4c3" font-family="Inter, Arial, sans-serif" font-size="13">Trailing 81 sessions through 2026-02-19</text>
<line x1="70" x2="935" y1="375.00" y2="375.00" stroke="#27314e" stroke-width="1"/>
<text x="58" y="379.00" text-anchor="end" fill="#93a4c3" font-family="Inter, Arial, sans-serif" font-size="12">0</text>
<line x1="70" x2="935" y1="312.00" y2="312.00" stroke="#27314e" stroke-width="1"/>
<text x="58" y="316.00" text-anchor="end" fill="#93a4c3" font-family="Inter, Arial, sans-serif" font-size="12">8</text>
<line x1="70" x2="935" y1="249.00" y2="249.00" stroke="#27314e" stroke-width="1"/>
<text x="58" y="253.00" text-anchor="end" fill="#93a4c3" font-family="Inter, Arial, sans-serif" font-size="12">17</text>
<line x1="70" x2="935" y1="186.00" y2="186.00" stroke="#27314e" stroke-width="1"/>
<text x="58" y="190.00" text-anchor="end" fill="#93a4c3" font-family="Inter, Arial, sans-serif" font-size="12">25</text>
<line x1="70" x2="935" y1="123.00" y2="123.00" stroke="#27314e" stroke-width="1"/>
<text x="58" y="127.00" text-anchor="end" fill="#93a4c3" font-family="Inter, Arial, sans-serif" font-size="12">33</text>
<line x1="70" x2="935" y1="60.00" y2="60.00" stroke="#27314e" stroke-width="1"/>
<text x="58" y="64.00" text-anchor="end" fill="#93a4c3" font-family="Inter, Arial, sans-serif" font-size="12">41</text>
<text x="70.00" y="412" text-anchor="middle" fill="#93a4c3" font-family="Inter, Arial, sans-serif" font-size="12">2025-10-22</text>
<text x="502.50" y="412" text-anchor="middle" fill="#93a4c3" font-family="Inter, Arial, sans-serif" font-size="12">2025-12-19</text>
<text x="935.00" y="412" text-anchor="middle" fill="#93a4c3" font-family="Inter, Arial, sans-serif" font-size="12">2026-02-19</text>
<path d="M 70.00 277.24 L 80.81 235.61 L 91.62 266.11 L 102.44 308.13 L 113.25 317.43 L 124.06 266.80 L 134.88 256.12 L 145.69 236.53 L 156.50 192.98 L 167.31 135.80 L 178.12 183.68 L 188.94 184.67 L 199.75 190.93 L 210.56 255.59 L 221.38 294.63 L 232.19 209.53 L 243.00 237.06 L 253.81 167.36 L 264.62 60.00 L 275.44 70.45 L 286.25 66.18 L 297.06 146.17 L 307.88 277.24 L 318.69 326.96 L 329.50 337.79 L 340.31 375.00 L 351.12 333.06 L 361.94 308.20 L 372.75 290.89 L 383.56 264.74 L 394.38 247.28 L 405.19 278.92 L 416.00 241.33 L 426.81 272.67 L 437.62 307.67 L 448.44 264.05 L 459.25 273.13 L 470.06 273.58 L 480.88 183.07 L 491.69 209.46 L 502.50 304.77 L 513.31 329.32 L 524.12 342.21 L 534.94 374.85 L 545.75 360.82 L 556.56 332.91 L 567.38 310.11 L 578.19 254.37 L 589.00 241.41 L 599.81 250.25 L 610.62 274.96 L 621.44 271.37 L 632.25 287.00 L 643.06 289.90 L 653.88 256.43 L 664.69 234.08 L 675.50 237.06 L 686.31 246.21 L 697.12 211.90 L 707.94 84.17 L 718.75 172.78 L 729.56 214.11 L 740.38 200.15 L 751.19 248.88 L 762.00 293.33 L 772.81 261.99 L 783.62 228.59 L 794.44 226.46 L 805.25 237.44 L 816.06 170.49 L 826.88 173.85 L 837.69 111.24 L 848.50 253.00 L 859.31 248.65 L 870.12 271.37 L 880.94 276.02 L 891.75 258.10 L 902.56 183.61 L 913.38 172.93 L 924.19 205.34 L 935.00 191.99" fill="none" stroke="#69a7ff" stroke-width="4" stroke-linecap="round" stroke-linejoin="round"/>
<circle cx="935.00" cy="191.99" r="6" fill="#69a7ff"/>
</svg>