<svg xmlns="http://www.w3.org/2000/svg" width="960" height="430" viewBox="0 0 960 430" role="img" aria-label="Composite score history">
<rect width="100%" height="100%" fill="#0b1020" rx="20"/>
<text x="70" y="32" fill="#f5f7fb" font-family="Inter, Arial, sans-serif" font-size="24" font-weight="700">Composite score history</text>
<text x="70" y="52" fill="#93a4c3" font-family="Inter, Arial, sans-serif" font-size="13">Trailing 86 sessions through 2026-02-19</text>
<line x1="70" x2="935" y1="375.00" y2="375.00" stroke="#27314e" stroke-width="1"/>
<text x="58" y="379.00" text-anchor="end" fill="#93a4c3" font-family="Inter, Arial, sans-serif" font-size="12">0</text>
<line x1="70" x2="935" y1="312.00" y2="312.00" stroke="#27314e" stroke-width="1"/>
<text x="58" y="316.00" text-anchor="end" fill="#93a4c3" font-family="Inter, Arial, sans-serif" font-size="12">8</text>
<line x1="70" x2="935" y1="249.00" y2="249.00" stroke="#27314e" stroke-width="1"/>
<text x="58" y="253.00" text-anchor="end" fill="#93a4c3" font-family="Inter, Arial, sans-serif" font-size="12">17</text>
<line x1="70" x2="935" y1="186.00" y2="186.00" stroke="#27314e" stroke-width="1"/>
<text x="58" y="190.00" text-anchor="end" fill="#93a4c3" font-family="Inter, Arial, sans-serif" font-size="12">25</text>
<line x1="70" x2="935" y1="123.00" y2="123.00" stroke="#27314e" stroke-width="1"/>
<text x="58" y="127.00" text-anchor="end" fill="#93a4c3" font-family="Inter, Arial, sans-serif" font-size="12">33</text>
<line x1="70" x2="935" y1="60.00" y2="60.00" stroke="#27314e" stroke-width="1"/>
<text x="58" y="64.00" text-anchor="end" fill="#93a4c3" font-family="Inter, Arial, sans-serif" font-size="12">41</text>
<text x="70.00" y="412" text-anchor="middle" fill="#93a4c3" font-family="Inter, Arial, sans-serif" font-size="12">2025-10-15</text>
<text x="507.59" y="412" text-anchor="middle" fill="#93a4c3" font-family="Inter, Arial, sans-serif" font-size="12">2025-12-17</text>
<text x="935.00" y="412" text-anchor="middle" fill="#93a4c3" font-family="Inter, Arial, sans-serif" font-size="12">2026-02-19</text>
<path d="M 70.00 261.69 L 80.18 186.43 L 90.35 262.45 L 100.53 301.72 L 110.71 302.10 L 120.88 285.33 L 131.06 232.33 L 141.24 267.94 L 151.41 285.48 L 161.59 299.36 L 171.76 266.80 L 181.94 256.12 L 192.12 236.53 L 202.29 192.98 L 212.47 135.80 L 222.65 183.68 L 232.82 184.67 L 243.00 190.93 L 253.18 255.59 L 263.35 294.63 L 273.53 209.53 L 283.71 237.06 L 293.88 167.36 L 304.06 60.00 L 314.24 70.45 L 324.41 66.18 L 334.59 146.17 L 344.76 277.24 L 354.94 326.96 L 365.12 337.79 L 375.29 375.00 L 385.47 333.06 L 395.65 308.20 L 405.82 290.89 L 416.00 264.74 L 426.18 247.28 L 436.35 278.92 L 446.53 241.33 L 456.71 272.67 L 466.88 307.67 L 477.06 264.05 L 487.24 273.13 L 497.41 273.58 L 507.59 183.07 L 517.76 209.46 L 527.94 304.77 L 538.12 329.32 L 548.29 342.21 L 558.47 374.85 L 568.65 360.82 L 578.82 332.91 L 589.00 310.11 L 599.18 254.37 L 609.35 241.41 L 619.53 250.25 L 629.71 274.96 L 639.88 271.37 L 650.06 287.00 L 660.24 289.90 L 670.41 256.43 L 680.59 234.08 L 690.76 237.06 L 700.94 246.21 L 711.12 211.90 L 721.29 84.17 L 731.47 172.78 L 741.65 214.11 L 751.82 200.15 L 762.00 248.88 L 772.18 293.33 L 782.35 261.99 L 792.53 228.59 L 802.71 226.46 L 812.88 237.44 L 823.06 170.49 L 833.24 173.85 L 843.41 111.24 L 853.59 253.00 L 863.76 248.65 L 873.94 271.37 L 884.12 276.02 L 894.29 258.10 L 904.47 183.61 L 914.65 172.93 L 924.82 205.34 L 935.00 191.99" fill="none" stroke="#69a7ff" stroke-width="4" stroke-linecap="round" stroke-linejoin="round"/>
<circle cx="935.00" cy="191.99" r="6" fill="#69a7ff"/>
</svg>