<svg xmlns="http://www.w3.org/2000/svg" width="960" height="430" viewBox="0 0 960 430" role="img" aria-label="Composite score history">
<rect width="100%" height="100%" fill="#0b1020" rx="20"/>
<text x="70" y="32" fill="#f5f7fb" font-family="Inter, Arial, sans-serif" font-size="24" font-weight="700">Composite score history</text>
<text x="70" y="52" fill="#93a4c3" font-family="Inter, Arial, sans-serif" font-size="13">Trailing 90 sessions through 2026-02-19</text>
<line x1="70" x2="935" y1="375.00" y2="375.00" stroke="#27314e" stroke-width="1"/>
<text x="58" y="379.00" text-anchor="end" fill="#93a4c3" font-family="Inter, Arial, sans-serif" font-size="12">0</text>
<line x1="70" x2="935" y1="312.00" y2="312.00" stroke="#27314e" stroke-width="1"/>
<text x="58" y="316.00" text-anchor="end" fill="#93a4c3" font-family="Inter, Arial, sans-serif" font-size="12">8</text>
<line x1="70" x2="935" y1="249.00" y2="249.00" stroke="#27314e" stroke-width="1"/>
<text x="58" y="253.00" text-anchor="end" fill="#93a4c3" font-family="Inter, Arial, sans-serif" font-size="12">17</text>
<line x1="70" x2="935" y1="186.00" y2="186.00" stroke="#27314e" stroke-width="1"/>
<text x="58" y="190.00" text-anchor="end" fill="#93a4c3" font-family="Inter, Arial, sans-serif" font-size="12">25</text>
<line x1="70" x2="935" y1="123.00" y2="123.00" stroke="#27314e" stroke-width="1"/>
<text x="58" y="127.00" text-anchor="end" fill="#93a4c3" font-family="Inter, Arial, sans-serif" font-size="12">33</text>
<line x1="70" x2="935" y1="60.00" y2="60.00" stroke="#27314e" stroke-width="1"/>
<text x="58" y="64.00" text-anchor="end" fill="#93a4c3" font-family="Inter, Arial, sans-serif" font-size="12">41</text>
<text x="70.00" y="412" text-anchor="middle" fill="#93a4c3" font-family="Inter, Arial, sans-serif" font-size="12">2025-10-08</text>
<text x="507.36" y="412" text-anchor="middle" fill="#93a4c3" font-family="Inter, Arial, sans-serif" font-size="12">2025-12-15</text>
<text x="935.00" y="412" text-anchor="middle" fill="#93a4c3" font-family="Inter, Arial, sans-serif" font-size="12">2026-02-19</text>
<path d="M 70.00 275.95 L 79.72 256.66 L 89.44 100.57 L 99.16 167.75 L 108.88 183.99 L 118.60 109.03 L 128.31 196.19 L 138.03 336.57 L 147.75 309.88 L 157.47 285.33 L 167.19 232.33 L 176.91 267.94 L 186.63 285.48 L 196.35 299.36 L 206.07 266.80 L 215.79 256.12 L 225.51 236.53 L 235.22 192.98 L 244.94 135.80 L 254.66 183.68 L 264.38 184.67 L 274.10 190.93 L 283.82 255.59 L 293.54 294.63 L 303.26 209.53 L 312.98 237.06 L 322.70 167.36 L 332.42 60.00 L 342.13 70.45 L 351.85 66.18 L 361.57 146.17 L 371.29 277.24 L 381.01 326.96 L 390.73 337.79 L 400.45 375.00 L 410.17 333.06 L 419.89 308.20 L 429.61 290.89 L 439.33 264.74 L 449.04 247.28 L 458.76 278.92 L 468.48 241.33 L 478.20 272.67 L 487.92 307.67 L 497.64 264.05 L 507.36 273.13 L 517.08 273.58 L 526.80 183.07 L 536.52 209.46 L 546.24 304.77 L 555.96 329.32 L 565.67 342.21 L 575.39 374.85 L 585.11 360.82 L 594.83 332.91 L 604.55 310.11 L 614.27 254.37 L 623.99 241.41 L 633.71 250.25 L 643.43 274.96 L 653.15 271.37 L 662.87 287.00 L 672.58 289.90 L 682.30 256.43 L 692.02 234.08 L 701.74 237.06 L 711.46 246.21 L 721.18 211.90 L 730.90 84.17 L 740.62 172.78 L 750.34 214.11 L 760.06 200.15 L 769.78 248.88 L 779.49 293.33 L 789.21 261.99 L 798.93 228.59 L 808.65 226.46 L 818.37 237.44 L 828.09 170.49 L 837.81 173.85 L 847.53 111.24 L 857.25 253.00 L 866.97 248.65 L 876.69 271.37 L 886.40 276.02 L 896.12 258.10 L 905.84 183.61 L 915.56 172.93 L 925.28 205.34 L 935.00 191.99" fill="none" stroke="#69a7ff" stroke-width="4" stroke-linecap="round" stroke-linejoin="round"/>
<circle cx="935.00" cy="191.99" r="6" fill="#69a7ff"/>
</svg>