<svg xmlns="http://www.w3.org/2000/svg" width="960" height="430" viewBox="0 0 960 430" role="img" aria-label="Composite score history">
<rect width="100%" height="100%" fill="#0b1020" rx="20"/>
<text x="70" y="32" fill="#f5f7fb" font-family="Inter, Arial, sans-serif" font-size="24" font-weight="700">Composite score history</text>
<text x="70" y="52" fill="#93a4c3" font-family="Inter, Arial, sans-serif" font-size="13">Trailing 82 sessions through 2026-02-19</text>
<line x1="70" x2="935" y1="375.00" y2="375.00" stroke="#27314e" stroke-width="1"/>
<text x="58" y="379.00" text-anchor="end" fill="#93a4c3" font-family="Inter, Arial, sans-serif" font-size="12">0</text>
<line x1="70" x2="935" y1="312.00" y2="312.00" stroke="#27314e" stroke-width="1"/>
<text x="58" y="316.00" text-anchor="end" fill="#93a4c3" font-family="Inter, Arial, sans-serif" font-size="12">8</text>
<line x1="70" x2="935" y1="249.00" y2="249.00" stroke="#27314e" stroke-width="1"/>
<text x="58" y="253.00" text-anchor="end" fill="#93a4c3" font-family="Inter, Arial, sans-serif" font-size="12">17</text>
<line x1="70" x2="935" y1="186.00" y2="186.00" stroke="#27314e" stroke-width="1"/>
<text x="58" y="190.00" text-anchor="end" fill="#93a4c3" font-family="Inter, Arial, sans-serif" font-size="12">25</text>
<line x1="70" x2="935" y1="123.00" y2="123.00" stroke="#27314e" stroke-width="1"/>
<text x="58" y="127.00" text-anchor="end" fill="#93a4c3" font-family="Inter, Arial, sans-serif" font-size="12">33</text>
<line x1="70" x2="935" y1="60.00" y2="60.00" stroke="#27314e" stroke-width="1"/>
<text x="58" y="64.00" text-anchor="end" fill="#93a4c3" font-family="Inter, Arial, sans-serif" font-size="12">41</text>
<text x="70.00" y="412" text-anchor="middle" fill="#93a4c3" font-family="Inter, Arial, sans-serif" font-size="12">2025-10-21</text>
<text x="507.84" y="412" text-anchor="middle" fill="#93a4c3" font-family="Inter, Arial, sans-serif" font-size="12">2025-12-19</text>
<text x="935.00" y="412" text-anchor="middle" fill="#93a4c3" font-family="Inter, Arial, sans-serif" font-size="12">2026-02-19</text>
<path d="M 70.00 283.73 L 80.68 244.07 L 91.36 217.77 L 102.04 248.19 L 112.72 290.05 L 123.40 299.36 L 134.07 266.80 L 144.75 256.12 L 155.43 236.53 L 166.11 192.98 L 176.79 135.80 L 187.47 183.68 L 198.15 184.67 L 208.83 190.93 L 219.51 255.59 L 230.19 294.63 L 240.86 209.53 L 251.54 237.06 L 262.22 167.36 L 272.90 60.00 L 283.58 70.45 L 294.26 66.18 L 304.94 146.17 L 315.62 277.24 L 326.30 326.96 L 336.98 337.79 L 347.65 375.00 L 358.33 333.06 L 369.01 308.20 L 379.69 290.89 L 390.37 264.74 L 401.05 247.28 L 411.73 278.92 L 422.41 241.33 L 433.09 272.67 L 443.77 307.67 L 454.44 264.05 L 465.12 273.13 L 475.80 273.58 L 486.48 183.07 L 497.16 209.46 L 507.84 304.77 L 518.52 329.32 L 529.20 342.21 L 539.88 374.85 L 550.56 360.82 L 561.23 332.91 L 571.91 310.11 L 582.59 254.37 L 593.27 241.41 L 603.95 250.25 L 614.63 274.96 L 625.31 271.37 L 635.99 287.00 L 646.67 289.90 L 657.35 256.43 L 668.02 234.08 L 678.70 237.06 L 689.38 246.21 L 700.06 211.90 L 710.74 84.17 L 721.42 172.78 L 732.10 214.11 L 742.78 200.15 L 753.46 248.88 L 764.14 293.33 L 774.81 261.99 L 785.49 228.59 L 796.17 226.46 L 806.85 237.44 L 817.53 170.49 L 828.21 173.85 L 838.89 111.24 L 849.57 253.00 L 860.25 248.65 L 870.93 271.37 L 881.60 276.02 L 892.28 258.10 L 902.96 183.61 L 913.64 172.93 L 924.32 205.34 L 935.00 191.99" fill="none" stroke="#69a7ff" stroke-width="4" stroke-linecap="round" stroke-linejoin="round"/>
<circle cx="935.00" cy="191.99" r="6" fill="#69a7ff"/>
</svg>