<svg xmlns="http://www.w3.org/2000/svg" width="960" height="430" viewBox="0 0 960 430" role="img" aria-label="Composite score history">
<rect width="100%" height="100%" fill="#0b1020" rx="20"/>
<text x="70" y="32" fill="#f5f7fb" font-family="Inter, Arial, sans-serif" font-size="24" font-weight="700">Composite score history</text>
<text x="70" y="52" fill="#93a4c3" font-family="Inter, Arial, sans-serif" font-size="13">Trailing 77 sessions through 2026-02-19</text>
<line x1="70" x2="935" y1="375.00" y2="375.00" stroke="#27314e" stroke-width="1"/>
<text x="58" y="379.00" text-anchor="end" fill="#93a4c3" font-family="Inter, Arial, sans-serif" font-size="12">0</text>
<line x1="70" x2="935" y1="312.00" y2="312.00" stroke="#27314e" stroke-width="1"/>
<text x="58" y="316.00" text-anchor="end" fill="#93a4c3" font-family="Inter, Arial, sans-serif" font-size="12">8</text>
<line x1="70" x2="935" y1="249.00" y2="249.00" stroke="#27314e" stroke-width="1"/>
<text x="58" y="253.00" text-anchor="end" fill="#93a4c3" font-family="Inter, Arial, sans-serif" font-size="12">17</text>
<line x1="70" x2="935" y1="186.00" y2="186.00" stroke="#27314e" stroke-width="1"/>
<text x="58" y="190.00" text-anchor="end" fill="#93a4c3" font-family="Inter, Arial, sans-serif" font-size="12">25</text>
<line x1="70" x2="935" y1="123.00" y2="123.00" stroke="#27314e" stroke-width="1"/>
<text x="58" y="127.00" text-anchor="end" fill="#93a4c3" font-family="Inter, Arial, sans-serif" font-size="12">33</text>
<line x1="70" x2="935" y1="60.00" y2="60.00" stroke="#27314e" stroke-width="1"/>
<text x="58" y="64.00" text-anchor="end" fill="#93a4c3" font-family="Inter, Arial, sans-serif" font-size="12">41</text>
<text x="70.00" y="412" text-anchor="middle" fill="#93a4c3" font-family="Inter, Arial, sans-serif" font-size="12">2025-10-28</text>
<text x="502.50" y="412" text-anchor="middle" fill="#93a4c3" font-family="Inter, Arial, sans-serif" font-size="12">2025-12-23</text>
<text x="935.00" y="412" text-anchor="middle" fill="#93a4c3" font-family="Inter, Arial, sans-serif" font-size="12">2026-02-19</text>
<path d="M 70.00 284.34 L 81.38 229.97 L 92.76 180.25 L 104.14 176.97 L 115.53 182.00 L 126.91 135.80 L 138.29 183.68 L 149.67 184.67 L 161.05 190.93 L 172.43 255.59 L 183.82 294.63 L 195.20 209.53 L 206.58 237.06 L 217.96 167.36 L 229.34 60.00 L 240.72 70.45 L 252.11 66.18 L 263.49 146.17 L 274.87 277.24 L 286.25 326.96 L 297.63 337.79 L 309.01 375.00 L 320.39 333.06 L 331.78 308.20 L 343.16 290.89 L 354.54 264.74 L 365.92 247.28 L 377.30 278.92 L 388.68 241.33 L 400.07 272.67 L 411.45 307.67 L 422.83 264.05 L 434.21 273.13 L 445.59 273.58 L 456.97 183.07 L 468.36 209.46 L 479.74 304.77 L 491.12 329.32 L 502.50 342.21 L 513.88 374.85 L 525.26 360.82 L 536.64 332.91 L 548.03 310.11 L 559.41 254.37 L 570.79 241.41 L 582.17 250.25 L 593.55 274.96 L 604.93 271.37 L 616.32 287.00 L 627.70 289.90 L 639.08 256.43 L 650.46 234.08 L 661.84 237.06 L 673.22 246.21 L 684.61 211.90 L 695.99 84.17 L 707.37 172.78 L 718.75 214.11 L 730.13 200.15 L 741.51 248.88 L 752.89 293.33 L 764.28 261.99 L 775.66 228.59 L 787.04 226.46 L 798.42 237.44 L 809.80 170.49 L 821.18 173.85 L 832.57 111.24 L 843.95 253.00 L 855.33 248.65 L 866.71 271.37 L 878.09 276.02 L 889.47 258.10 L 900.86 183.61 L 912.24 172.93 L 923.62 205.34 L 935.00 191.99" fill="none" stroke="#69a7ff" stroke-width="4" stroke-linecap="round" stroke-linejoin="round"/>
<circle cx="935.00" cy="191.99" r="6" fill="#69a7ff"/>
</svg>