<svg xmlns="http://www.w3.org/2000/svg" width="960" height="430" viewBox="0 0 960 430" role="img" aria-label="Composite score history">
<rect width="100%" height="100%" fill="#0b1020" rx="20"/>
<text x="70" y="32" fill="#f5f7fb" font-family="Inter, Arial, sans-serif" font-size="24" font-weight="700">Composite score history</text>
<text x="70" y="52" fill="#93a4c3" font-family="Inter, Arial, sans-serif" font-size="13">Trailing 89 sessions through 2026-02-24</text>
<line x1="70" x2="935" y1="375.00" y2="375.00" stroke="#27314e" stroke-width="1"/>
<text x="58" y="379.00" text-anchor="end" fill="#93a4c3" font-family="Inter, Arial, sans-serif" font-size="12">0</text>
<line x1="70" x2="935" y1="312.00" y2="312.00" stroke="#27314e" stroke-width="1"/>
<text x="58" y="316.00" text-anchor="end" fill="#93a4c3" font-family="Inter, Arial, sans-serif" font-size="12">8</text>
<line x1="70" x2="935" y1="249.00" y2="249.00" stroke="#27314e" stroke-width="1"/>
<text x="58" y="253.00" text-anchor="end" fill="#93a4c3" font-family="Inter, Arial, sans-serif" font-size="12">17</text>
<line x1="70" x2="935" y1="186.00" y2="186.00" stroke="#27314e" stroke-width="1"/>
<text x="58" y="190.00" text-anchor="end" fill="#93a4c3" font-family="Inter, Arial, sans-serif" font-size="12">25</text>
<line x1="70" x2="935" y1="123.00" y2="123.00" stroke="#27314e" stroke-width="1"/>
<text x="58" y="127.00" text-anchor="end" fill="#93a4c3" font-family="Inter, Arial, sans-serif" font-size="12">33</text>
<line x1="70" x2="935" y1="60.00" y2="60.00" stroke="#27314e" stroke-width="1"/>
<text x="58" y="64.00" text-anchor="end" fill="#93a4c3" font-family="Inter, Arial, sans-serif" font-size="12">41</text>
<text x="70.00" y="412" text-anchor="middle" fill="#93a4c3" font-family="Inter, Arial, sans-serif" font-size="12">2025-10-15</text>
<text x="502.50" y="412" text-anchor="middle" fill="#93a4c3" font-family="Inter, Arial, sans-serif" font-size="12">2025-12-18</text>
<text x="935.00" y="412" text-anchor="middle" fill="#93a4c3" font-family="Inter, Arial, sans-serif" font-size="12">2026-02-24</text>
<path d="M 70.00 261.69 L 79.83 186.43 L 89.66 262.45 L 99.49 301.72 L 109.32 302.10 L 119.15 285.33 L 128.98 232.33 L 138.81 267.94 L 148.64 285.48 L 158.47 299.36 L 168.30 266.80 L 178.12 256.12 L 187.95 236.53 L 197.78 192.98 L 207.61 135.80 L 217.44 183.68 L 227.27 184.67 L 237.10 190.93 L 246.93 255.59 L 256.76 294.63 L 266.59 209.53 L 276.42 237.06 L 286.25 167.36 L 296.08 60.00 L 305.91 70.45 L 315.74 66.18 L 325.57 146.17 L 335.40 277.24 L 345.23 326.96 L 355.06 337.79 L 364.89 375.00 L 374.72 333.06 L 384.55 308.20 L 394.38 290.89 L 404.20 264.74 L 414.03 247.28 L 423.86 278.92 L 433.69 241.33 L 443.52 272.67 L 453.35 307.67 L 463.18 264.05 L 473.01 273.13 L 482.84 273.58 L 492.67 183.07 L 502.50 209.46 L 512.33 304.77 L 522.16 329.32 L 531.99 342.21 L 541.82 374.85 L 551.65 360.82 L 561.48 332.91 L 571.31 310.11 L 581.14 254.37 L 590.97 241.41 L 600.80 250.25 L 610.62 274.96 L 620.45 271.37 L 630.28 287.00 L 640.11 289.90 L 649.94 256.43 L 659.77 234.08 L 669.60 237.06 L 679.43 246.21 L 689.26 211.90 L 699.09 84.17 L 708.92 172.78 L 718.75 214.11 L 728.58 200.15 L 738.41 248.88 L 748.24 293.33 L 758.07 261.99 L 767.90 228.59 L 777.73 226.46 L 787.56 237.44 L 797.39 170.49 L 807.22 173.85 L 817.05 111.24 L 826.88 253.00 L 836.70 248.65 L 846.53 271.37 L 856.36 276.02 L 866.19 258.10 L 876.02 183.61 L 885.85 172.93 L 895.68 205.34 L 905.51 191.99 L 915.34 278.62 L 925.17 243.46 L 935.00 272.82" fill="none" stroke="#69a7ff" stroke-width="4" stroke-linecap="round" stroke-linejoin="round"/>
<circle cx="935.00" cy="272.82" r="6" fill="#69a7ff"/>
</svg>