<svg xmlns="http://www.w3.org/2000/svg" width="960" height="430" viewBox="0 0 960 430" role="img" aria-label="Composite score history">
<rect width="100%" height="100%" fill="#0b1020" rx="20"/>
<text x="70" y="32" fill="#f5f7fb" font-family="Inter, Arial, sans-serif" font-size="24" font-weight="700">Composite score history</text>
<text x="70" y="52" fill="#93a4c3" font-family="Inter, Arial, sans-serif" font-size="13">Trailing 79 sessions through 2026-02-24</text>
<line x1="70" x2="935" y1="375.00" y2="375.00" stroke="#27314e" stroke-width="1"/>
<text x="58" y="379.00" text-anchor="end" fill="#93a4c3" font-family="Inter, Arial, sans-serif" font-size="12">0</text>
<line x1="70" x2="935" y1="312.00" y2="312.00" stroke="#27314e" stroke-width="1"/>
<text x="58" y="316.00" text-anchor="end" fill="#93a4c3" font-family="Inter, Arial, sans-serif" font-size="12">8</text>
<line x1="70" x2="935" y1="249.00" y2="249.00" stroke="#27314e" stroke-width="1"/>
<text x="58" y="253.00" text-anchor="end" fill="#93a4c3" font-family="Inter, Arial, sans-serif" font-size="12">17</text>
<line x1="70" x2="935" y1="186.00" y2="186.00" stroke="#27314e" stroke-width="1"/>
<text x="58" y="190.00" text-anchor="end" fill="#93a4c3" font-family="Inter, Arial, sans-serif" font-size="12">25</text>
<line x1="70" x2="935" y1="123.00" y2="123.00" stroke="#27314e" stroke-width="1"/>
<text x="58" y="127.00" text-anchor="end" fill="#93a4c3" font-family="Inter, Arial, sans-serif" font-size="12">33</text>
<line x1="70" x2="935" y1="60.00" y2="60.00" stroke="#27314e" stroke-width="1"/>
<text x="58" y="64.00" text-anchor="end" fill="#93a4c3" font-family="Inter, Arial, sans-serif" font-size="12">41</text>
<text x="70.00" y="412" text-anchor="middle" fill="#93a4c3" font-family="Inter, Arial, sans-serif" font-size="12">2025-10-29</text>
<text x="502.50" y="412" text-anchor="middle" fill="#93a4c3" font-family="Inter, Arial, sans-serif" font-size="12">2025-12-26</text>
<text x="935.00" y="412" text-anchor="middle" fill="#93a4c3" font-family="Inter, Arial, sans-serif" font-size="12">2026-02-24</text>
<path d="M 70.00 274.19 L 81.09 224.40 L 92.18 221.05 L 103.27 226.15 L 114.36 176.90 L 125.45 183.68 L 136.54 184.67 L 147.63 190.93 L 158.72 255.59 L 169.81 294.63 L 180.90 209.53 L 191.99 237.06 L 203.08 167.36 L 214.17 60.00 L 225.26 70.45 L 236.35 66.18 L 247.44 146.17 L 258.53 277.24 L 269.62 326.96 L 280.71 337.79 L 291.79 375.00 L 302.88 333.06 L 313.97 308.20 L 325.06 290.89 L 336.15 264.74 L 347.24 247.28 L 358.33 278.92 L 369.42 241.33 L 380.51 272.67 L 391.60 307.67 L 402.69 264.05 L 413.78 273.13 L 424.87 273.58 L 435.96 183.07 L 447.05 209.46 L 458.14 304.77 L 469.23 329.32 L 480.32 342.21 L 491.41 374.85 L 502.50 360.82 L 513.59 332.91 L 524.68 310.11 L 535.77 254.37 L 546.86 241.41 L 557.95 250.25 L 569.04 274.96 L 580.13 271.37 L 591.22 287.00 L 602.31 289.90 L 613.40 256.43 L 624.49 234.08 L 635.58 237.06 L 646.67 246.21 L 657.76 211.90 L 668.85 84.17 L 679.94 172.78 L 691.03 214.11 L 702.12 200.15 L 713.21 248.88 L 724.29 293.33 L 735.38 261.99 L 746.47 228.59 L 757.56 226.46 L 768.65 237.44 L 779.74 170.49 L 790.83 173.85 L 801.92 111.24 L 813.01 253.00 L 824.10 248.65 L 835.19 271.37 L 846.28 276.02 L 857.37 258.10 L 868.46 183.61 L 879.55 172.93 L 890.64 205.34 L 901.73 191.99 L 912.82 278.62 L 923.91 243.46 L 935.00 272.82" fill="none" stroke="#69a7ff" stroke-width="4" stroke-linecap="round" stroke-linejoin="round"/>
<circle cx="935.00" cy="272.82" r="6" fill="#69a7ff"/>
</svg>