<svg xmlns="http://www.w3.org/2000/svg" width="960" height="430" viewBox="0 0 960 430" role="img" aria-label="Composite score history">
<rect width="100%" height="100%" fill="#0b1020" rx="20"/>
<text x="70" y="32" fill="#f5f7fb" font-family="Inter, Arial, sans-serif" font-size="24" font-weight="700">Composite score history</text>
<text x="70" y="52" fill="#93a4c3" font-family="Inter, Arial, sans-serif" font-size="13">Trailing 88 sessions through 2025-12-01</text>
<line x1="70" x2="935" y1="375.00" y2="375.00" stroke="#27314e" stroke-width="1"/>
<text x="58" y="379.00" text-anchor="end" fill="#93a4c3" font-family="Inter, Arial, sans-serif" font-size="12">0</text>
<line x1="70" x2="935" y1="312.00" y2="312.00" stroke="#27314e" stroke-width="1"/>
<text x="58" y="316.00" text-anchor="end" fill="#93a4c3" font-family="Inter, Arial, sans-serif" font-size="12">8</text>
<line x1="70" x2="935" y1="249.00" y2="249.00" stroke="#27314e" stroke-width="1"/>
<text x="58" y="253.00" text-anchor="end" fill="#93a4c3" font-family="Inter, Arial, sans-serif" font-size="12">17</text>
<line x1="70" x2="935" y1="186.00" y2="186.00" stroke="#27314e" stroke-width="1"/>
<text x="58" y="190.00" text-anchor="end" fill="#93a4c3" font-family="Inter, Arial, sans-serif" font-size="12">25</text>
<line x1="70" x2="935" y1="123.00" y2="123.00" stroke="#27314e" stroke-width="1"/>
<text x="58" y="127.00" text-anchor="end" fill="#93a4c3" font-family="Inter, Arial, sans-serif" font-size="12">33</text>
<line x1="70" x2="935" y1="60.00" y2="60.00" stroke="#27314e" stroke-width="1"/>
<text x="58" y="64.00" text-anchor="end" fill="#93a4c3" font-family="Inter, Arial, sans-serif" font-size="12">41</text>
<text x="70.00" y="412" text-anchor="middle" fill="#93a4c3" font-family="Inter, Arial, sans-serif" font-size="12">2025-07-25</text>
<text x="507.47" y="412" text-anchor="middle" fill="#93a4c3" font-family="Inter, Arial, sans-serif" font-size="12">2025-09-26</text>
<text x="935.00" y="412" text-anchor="middle" fill="#93a4c3" font-family="Inter, Arial, sans-serif" font-size="12">2025-12-01</text>
<path d="M 70.00 257.95 L 79.94 257.04 L 89.89 231.34 L 99.83 219.83 L 109.77 195.88 L 119.71 118.94 L 129.66 207.47 L 139.60 201.30 L 149.54 246.59 L 159.48 265.20 L 169.43 259.86 L 179.37 231.80 L 189.31 310.11 L 199.25 307.29 L 209.20 296.69 L 219.14 288.91 L 229.08 290.05 L 239.02 236.07 L 248.97 198.55 L 258.91 168.13 L 268.85 254.83 L 278.79 233.17 L 288.74 245.90 L 298.68 258.71 L 308.62 293.71 L 318.56 259.71 L 328.51 225.47 L 338.45 243.31 L 348.39 278.39 L 358.33 265.27 L 368.28 295.39 L 378.22 309.58 L 388.16 305.99 L 398.10 310.95 L 408.05 297.45 L 417.99 295.09 L 427.93 293.87 L 437.87 287.46 L 447.82 253.38 L 457.76 288.22 L 467.70 266.64 L 477.64 279.46 L 487.59 266.03 L 497.53 222.49 L 507.47 245.75 L 517.41 247.43 L 527.36 259.32 L 537.30 297.76 L 547.24 309.80 L 557.18 286.01 L 567.13 296.54 L 577.07 271.60 L 587.01 278.85 L 596.95 256.96 L 606.90 123.98 L 616.84 175.75 L 626.78 212.66 L 636.72 109.03 L 646.67 196.19 L 656.61 336.57 L 666.55 309.88 L 676.49 285.33 L 686.44 232.33 L 696.38 267.94 L 706.32 285.48 L 716.26 299.36 L 726.21 266.80 L 736.15 256.12 L 746.09 236.53 L 756.03 192.98 L 765.98 135.80 L 775.92 183.68 L 785.86 184.67 L 795.80 190.93 L 805.75 255.59 L 815.69 294.63 L 825.63 209.53 L 835.57 237.06 L 845.52 167.36 L 855.46 60.00 L 865.40 70.45 L 875.34 66.18 L 885.29 146.17 L 895.23 277.24 L 905.17 326.96 L 915.11 337.79 L 925.06 375.00 L 935.00 333.06" fill="none" stroke="#69a7ff" stroke-width="4" stroke-linecap="round" stroke-linejoin="round"/>
<circle cx="935.00" cy="333.06" r="6" fill="#69a7ff"/>
</svg>