<svg xmlns="http://www.w3.org/2000/svg" width="960" height="430" viewBox="0 0 960 430" role="img" aria-label="Composite score history">
<rect width="100%" height="100%" fill="#0b1020" rx="20"/>
<text x="70" y="32" fill="#f5f7fb" font-family="Inter, Arial, sans-serif" font-size="24" font-weight="700">Composite score history</text>
<text x="70" y="52" fill="#93a4c3" font-family="Inter, Arial, sans-serif" font-size="13">Trailing 74 sessions through 2025-12-01</text>
<line x1="70" x2="935" y1="375.00" y2="375.00" stroke="#27314e" stroke-width="1"/>
<text x="58" y="379.00" text-anchor="end" fill="#93a4c3" font-family="Inter, Arial, sans-serif" font-size="12">0</text>
<line x1="70" x2="935" y1="312.00" y2="312.00" stroke="#27314e" stroke-width="1"/>
<text x="58" y="316.00" text-anchor="end" fill="#93a4c3" font-family="Inter, Arial, sans-serif" font-size="12">8</text>
<line x1="70" x2="935" y1="249.00" y2="249.00" stroke="#27314e" stroke-width="1"/>
<text x="58" y="253.00" text-anchor="end" fill="#93a4c3" font-family="Inter, Arial, sans-serif" font-size="12">17</text>
<line x1="70" x2="935" y1="186.00" y2="186.00" stroke="#27314e" stroke-width="1"/>
<text x="58" y="190.00" text-anchor="end" fill="#93a4c3" font-family="Inter, Arial, sans-serif" font-size="12">25</text>
<line x1="70" x2="935" y1="123.00" y2="123.00" stroke="#27314e" stroke-width="1"/>
<text x="58" y="127.00" text-anchor="end" fill="#93a4c3" font-family="Inter, Arial, sans-serif" font-size="12">33</text>
<line x1="70" x2="935" y1="60.00" y2="60.00" stroke="#27314e" stroke-width="1"/>
<text x="58" y="64.00" text-anchor="end" fill="#93a4c3" font-family="Inter, Arial, sans-serif" font-size="12">41</text>
<text x="70.00" y="412" text-anchor="middle" fill="#93a4c3" font-family="Inter, Arial, sans-serif" font-size="12">2025-08-14</text>
<text x="508.42" y="412" text-anchor="middle" fill="#93a4c3" font-family="Inter, Arial, sans-serif" font-size="12">2025-10-07</text>
<text x="935.00" y="412" text-anchor="middle" fill="#93a4c3" font-family="Inter, Arial, sans-serif" font-size="12">2025-12-01</text>
<path d="M 70.00 271.75 L 81.85 254.98 L 93.70 248.73 L 105.55 229.51 L 117.40 221.20 L 129.25 168.13 L 141.10 254.83 L 152.95 233.17 L 164.79 245.90 L 176.64 258.71 L 188.49 293.71 L 200.34 259.71 L 212.19 225.47 L 224.04 243.31 L 235.89 278.39 L 247.74 265.27 L 259.59 295.39 L 271.44 309.58 L 283.29 305.99 L 295.14 310.95 L 306.99 297.45 L 318.84 295.09 L 330.68 293.87 L 342.53 287.46 L 354.38 253.38 L 366.23 288.22 L 378.08 266.64 L 389.93 279.46 L 401.78 266.03 L 413.63 222.49 L 425.48 245.75 L 437.33 247.43 L 449.18 259.32 L 461.03 297.76 L 472.88 309.80 L 484.73 286.01 L 496.58 296.54 L 508.42 271.60 L 520.27 278.85 L 532.12 256.96 L 543.97 123.98 L 555.82 175.75 L 567.67 212.66 L 579.52 109.03 L 591.37 196.19 L 603.22 336.57 L 615.07 309.88 L 626.92 285.33 L 638.77 232.33 L 650.62 267.94 L 662.47 285.48 L 674.32 299.36 L 686.16 266.80 L 698.01 256.12 L 709.86 236.53 L 721.71 192.98 L 733.56 135.80 L 745.41 183.68 L 757.26 184.67 L 769.11 190.93 L 780.96 255.59 L 792.81 294.63 L 804.66 209.53 L 816.51 237.06 L 828.36 167.36 L 840.21 60.00 L 852.05 70.45 L 863.90 66.18 L 875.75 146.17 L 887.60 277.24 L 899.45 326.96 L 911.30 337.79 L 923.15 375.00 L 935.00 333.06" fill="none" stroke="#69a7ff" stroke-width="4" stroke-linecap="round" stroke-linejoin="round"/>
<circle cx="935.00" cy="333.06" r="6" fill="#69a7ff"/>
</svg>