<svg xmlns="http://www.w3.org/2000/svg" width="960" height="430" viewBox="0 0 960 430" role="img" aria-label="Composite score history">
<rect width="100%" height="100%" fill="#0b1020" rx="20"/>
<text x="70" y="32" fill="#f5f7fb" font-family="Inter, Arial, sans-serif" font-size="24" font-weight="700">Composite score history</text>
<text x="70" y="52" fill="#93a4c3" font-family="Inter, Arial, sans-serif" font-size="13">Trailing 75 sessions through 2025-12-01</text>
<line x1="70" x2="935" y1="375.00" y2="375.00" stroke="#27314e" stroke-width="1"/>
<text x="58" y="379.00" text-anchor="end" fill="#93a4c3" font-family="Inter, Arial, sans-serif" font-size="12">0</text>
<line x1="70" x2="935" y1="312.00" y2="312.00" stroke="#27314e" stroke-width="1"/>
<text x="58" y="316.00" text-anchor="end" fill="#93a4c3" font-family="Inter, Arial, sans-serif" font-size="12">8</text>
<line x1="70" x2="935" y1="249.00" y2="249.00" stroke="#27314e" stroke-width="1"/>
<text x="58" y="253.00" text-anchor="end" fill="#93a4c3" font-family="Inter, Arial, sans-serif" font-size="12">17</text>
<line x1="70" x2="935" y1="186.00" y2="186.00" stroke="#27314e" stroke-width="1"/>
<text x="58" y="190.00" text-anchor="end" fill="#93a4c3" font-family="Inter, Arial, sans-serif" font-size="12">25</text>
<line x1="70" x2="935" y1="123.00" y2="123.00" stroke="#27314e" stroke-width="1"/>
<text x="58" y="127.00" text-anchor="end" fill="#93a4c3" font-family="Inter, Arial, sans-serif" font-size="12">33</text>
<line x1="70" x2="935" y1="60.00" y2="60.00" stroke="#27314e" stroke-width="1"/>
<text x="58" y="64.00" text-anchor="end" fill="#93a4c3" font-family="Inter, Arial, sans-serif" font-size="12">41</text>
<text x="70.00" y="412" text-anchor="middle" fill="#93a4c3" font-family="Inter, Arial, sans-serif" font-size="12">2025-08-13</text>
<text x="502.50" y="412" text-anchor="middle" fill="#93a4c3" font-family="Inter, Arial, sans-serif" font-size="12">2025-10-06</text>
<text x="935.00" y="412" text-anchor="middle" fill="#93a4c3" font-family="Inter, Arial, sans-serif" font-size="12">2025-12-01</text>
<path d="M 70.00 278.46 L 81.69 244.76 L 93.38 232.33 L 105.07 226.15 L 116.76 206.86 L 128.45 198.55 L 140.14 168.13 L 151.82 254.83 L 163.51 233.17 L 175.20 245.90 L 186.89 258.71 L 198.58 293.71 L 210.27 259.71 L 221.96 225.47 L 233.65 243.31 L 245.34 278.39 L 257.03 265.27 L 268.72 295.39 L 280.41 309.58 L 292.09 305.99 L 303.78 310.95 L 315.47 297.45 L 327.16 295.09 L 338.85 293.87 L 350.54 287.46 L 362.23 253.38 L 373.92 288.22 L 385.61 266.64 L 397.30 279.46 L 408.99 266.03 L 420.68 222.49 L 432.36 245.75 L 444.05 247.43 L 455.74 259.32 L 467.43 297.76 L 479.12 309.80 L 490.81 286.01 L 502.50 296.54 L 514.19 271.60 L 525.88 278.85 L 537.57 256.96 L 549.26 123.98 L 560.95 175.75 L 572.64 212.66 L 584.32 109.03 L 596.01 196.19 L 607.70 336.57 L 619.39 309.88 L 631.08 285.33 L 642.77 232.33 L 654.46 267.94 L 666.15 285.48 L 677.84 299.36 L 689.53 266.80 L 701.22 256.12 L 712.91 236.53 L 724.59 192.98 L 736.28 135.80 L 747.97 183.68 L 759.66 184.67 L 771.35 190.93 L 783.04 255.59 L 794.73 294.63 L 806.42 209.53 L 818.11 237.06 L 829.80 167.36 L 841.49 60.00 L 853.18 70.45 L 864.86 66.18 L 876.55 146.17 L 888.24 277.24 L 899.93 326.96 L 911.62 337.79 L 923.31 375.00 L 935.00 333.06" fill="none" stroke="#69a7ff" stroke-width="4" stroke-linecap="round" stroke-linejoin="round"/>
<circle cx="935.00" cy="333.06" r="6" fill="#69a7ff"/>
</svg>