<svg xmlns="http://www.w3.org/2000/svg" width="960" height="430" viewBox="0 0 960 430" role="img" aria-label="Composite score history">
<rect width="100%" height="100%" fill="#0b1020" rx="20"/>
<text x="70" y="32" fill="#f5f7fb" font-family="Inter, Arial, sans-serif" font-size="24" font-weight="700">Composite score history</text>
<text x="70" y="52" fill="#93a4c3" font-family="Inter, Arial, sans-serif" font-size="13">Trailing 86 sessions through 2025-12-01</text>
<line x1="70" x2="935" y1="375.00" y2="375.00" stroke="#27314e" stroke-width="1"/>
<text x="58" y="379.00" text-anchor="end" fill="#93a4c3" font-family="Inter, Arial, sans-serif" font-size="12">0</text>
<line x1="70" x2="935" y1="312.00" y2="312.00" stroke="#27314e" stroke-width="1"/>
<text x="58" y="316.00" text-anchor="end" fill="#93a4c3" font-family="Inter, Arial, sans-serif" font-size="12">8</text>
<line x1="70" x2="935" y1="249.00" y2="249.00" stroke="#27314e" stroke-width="1"/>
<text x="58" y="253.00" text-anchor="end" fill="#93a4c3" font-family="Inter, Arial, sans-serif" font-size="12">17</text>
<line x1="70" x2="935" y1="186.00" y2="186.00" stroke="#27314e" stroke-width="1"/>
<text x="58" y="190.00" text-anchor="end" fill="#93a4c3" font-family="Inter, Arial, sans-serif" font-size="12">25</text>
<line x1="70" x2="935" y1="123.00" y2="123.00" stroke="#27314e" stroke-width="1"/>
<text x="58" y="127.00" text-anchor="end" fill="#93a4c3" font-family="Inter, Arial, sans-serif" font-size="12">33</text>
<line x1="70" x2="935" y1="60.00" y2="60.00" stroke="#27314e" stroke-width="1"/>
<text x="58" y="64.00" text-anchor="end" fill="#93a4c3" font-family="Inter, Arial, sans-serif" font-size="12">41</text>
<text x="70.00" y="412" text-anchor="middle" fill="#93a4c3" font-family="Inter, Arial, sans-serif" font-size="12">2025-07-29</text>
<text x="507.59" y="412" text-anchor="middle" fill="#93a4c3" font-family="Inter, Arial, sans-serif" font-size="12">2025-09-29</text>
<text x="935.00" y="412" text-anchor="middle" fill="#93a4c3" font-family="Inter, Arial, sans-serif" font-size="12">2025-12-01</text>
<path d="M 70.00 253.30 L 80.18 222.95 L 90.35 198.70 L 100.53 136.86 L 110.71 225.47 L 120.88 201.30 L 131.06 246.59 L 141.24 265.20 L 151.41 259.86 L 161.59 231.80 L 171.76 310.11 L 181.94 307.29 L 192.12 296.69 L 202.29 288.91 L 212.47 290.05 L 222.65 236.07 L 232.82 198.55 L 243.00 168.13 L 253.18 254.83 L 263.35 233.17 L 273.53 245.90 L 283.71 258.71 L 293.88 293.71 L 304.06 259.71 L 314.24 225.47 L 324.41 243.31 L 334.59 278.39 L 344.76 265.27 L 354.94 295.39 L 365.12 309.58 L 375.29 305.99 L 385.47 310.95 L 395.65 297.45 L 405.82 295.09 L 416.00 293.87 L 426.18 287.46 L 436.35 253.38 L 446.53 288.22 L 456.71 266.64 L 466.88 279.46 L 477.06 266.03 L 487.24 222.49 L 497.41 245.75 L 507.59 247.43 L 517.76 259.32 L 527.94 297.76 L 538.12 309.80 L 548.29 286.01 L 558.47 296.54 L 568.65 271.60 L 578.82 278.85 L 589.00 256.96 L 599.18 123.98 L 609.35 175.75 L 619.53 212.66 L 629.71 109.03 L 639.88 196.19 L 650.06 336.57 L 660.24 309.88 L 670.41 285.33 L 680.59 232.33 L 690.76 267.94 L 700.94 285.48 L 711.12 299.36 L 721.29 266.80 L 731.47 256.12 L 741.65 236.53 L 751.82 192.98 L 762.00 135.80 L 772.18 183.68 L 782.35 184.67 L 792.53 190.93 L 802.71 255.59 L 812.88 294.63 L 823.06 209.53 L 833.24 237.06 L 843.41 167.36 L 853.59 60.00 L 863.76 70.45 L 873.94 66.18 L 884.12 146.17 L 894.29 277.24 L 904.47 326.96 L 914.65 337.79 L 924.82 375.00 L 935.00 333.06" fill="none" stroke="#69a7ff" stroke-width="4" stroke-linecap="round" stroke-linejoin="round"/>
<circle cx="935.00" cy="333.06" r="6" fill="#69a7ff"/>
</svg>