<svg xmlns="http://www.w3.org/2000/svg" width="960" height="430" viewBox="0 0 960 430" role="img" aria-label="Composite score history">
<rect width="100%" height="100%" fill="#0b1020" rx="20"/>
<text x="70" y="32" fill="#f5f7fb" font-family="Inter, Arial, sans-serif" font-size="24" font-weight="700">Composite score history</text>
<text x="70" y="52" fill="#93a4c3" font-family="Inter, Arial, sans-serif" font-size="13">Trailing 83 sessions through 2025-12-01</text>
<line x1="70" x2="935" y1="375.00" y2="375.00" stroke="#27314e" stroke-width="1"/>
<text x="58" y="379.00" text-anchor="end" fill="#93a4c3" font-family="Inter, Arial, sans-serif" font-size="12">0</text>
<line x1="70" x2="935" y1="312.00" y2="312.00" stroke="#27314e" stroke-width="1"/>
<text x="58" y="316.00" text-anchor="end" fill="#93a4c3" font-family="Inter, Arial, sans-serif" font-size="12">8</text>
<line x1="70" x2="935" y1="249.00" y2="249.00" stroke="#27314e" stroke-width="1"/>
<text x="58" y="253.00" text-anchor="end" fill="#93a4c3" font-family="Inter, Arial, sans-serif" font-size="12">17</text>
<line x1="70" x2="935" y1="186.00" y2="186.00" stroke="#27314e" stroke-width="1"/>
<text x="58" y="190.00" text-anchor="end" fill="#93a4c3" font-family="Inter, Arial, sans-serif" font-size="12">25</text>
<line x1="70" x2="935" y1="123.00" y2="123.00" stroke="#27314e" stroke-width="1"/>
<text x="58" y="127.00" text-anchor="end" fill="#93a4c3" font-family="Inter, Arial, sans-serif" font-size="12">33</text>
<line x1="70" x2="935" y1="60.00" y2="60.00" stroke="#27314e" stroke-width="1"/>
<text x="58" y="64.00" text-anchor="end" fill="#93a4c3" font-family="Inter, Arial, sans-serif" font-size="12">41</text>
<text x="70.00" y="412" text-anchor="middle" fill="#93a4c3" font-family="Inter, Arial, sans-serif" font-size="12">2025-08-01</text>
<text x="502.50" y="412" text-anchor="middle" fill="#93a4c3" font-family="Inter, Arial, sans-serif" font-size="12">2025-09-30</text>
<text x="935.00" y="412" text-anchor="middle" fill="#93a4c3" font-family="Inter, Arial, sans-serif" font-size="12">2025-12-01</text>
<path d="M 70.00 247.81 L 80.55 277.63 L 91.10 255.66 L 101.65 291.58 L 112.20 275.57 L 122.74 259.86 L 133.29 231.80 L 143.84 310.11 L 154.39 307.29 L 164.94 296.69 L 175.49 288.91 L 186.04 290.05 L 196.59 236.07 L 207.13 198.55 L 217.68 168.13 L 228.23 254.83 L 238.78 233.17 L 249.33 245.90 L 259.88 258.71 L 270.43 293.71 L 280.98 259.71 L 291.52 225.47 L 302.07 243.31 L 312.62 278.39 L 323.17 265.27 L 333.72 295.39 L 344.27 309.58 L 354.82 305.99 L 365.37 310.95 L 375.91 297.45 L 386.46 295.09 L 397.01 293.87 L 407.56 287.46 L 418.11 253.38 L 428.66 288.22 L 439.21 266.64 L 449.76 279.46 L 460.30 266.03 L 470.85 222.49 L 481.40 245.75 L 491.95 247.43 L 502.50 259.32 L 513.05 297.76 L 523.60 309.80 L 534.15 286.01 L 544.70 296.54 L 555.24 271.60 L 565.79 278.85 L 576.34 256.96 L 586.89 123.98 L 597.44 175.75 L 607.99 212.66 L 618.54 109.03 L 629.09 196.19 L 639.63 336.57 L 650.18 309.88 L 660.73 285.33 L 671.28 232.33 L 681.83 267.94 L 692.38 285.48 L 702.93 299.36 L 713.48 266.80 L 724.02 256.12 L 734.57 236.53 L 745.12 192.98 L 755.67 135.80 L 766.22 183.68 L 776.77 184.67 L 787.32 190.93 L 797.87 255.59 L 808.41 294.63 L 818.96 209.53 L 829.51 237.06 L 840.06 167.36 L 850.61 60.00 L 861.16 70.45 L 871.71 66.18 L 882.26 146.17 L 892.80 277.24 L 903.35 326.96 L 913.90 337.79 L 924.45 375.00 L 935.00 333.06" fill="none" stroke="#69a7ff" stroke-width="4" stroke-linecap="round" stroke-linejoin="round"/>
<circle cx="935.00" cy="333.06" r="6" fill="#69a7ff"/>
</svg>