<svg xmlns="http://www.w3.org/2000/svg" width="960" height="430" viewBox="0 0 960 430" role="img" aria-label="Composite score history">
<rect width="100%" height="100%" fill="#0b1020" rx="20"/>
<text x="70" y="32" fill="#f5f7fb" font-family="Inter, Arial, sans-serif" font-size="24" font-weight="700">Composite score history</text>
<text x="70" y="52" fill="#93a4c3" font-family="Inter, Arial, sans-serif" font-size="13">Trailing 82 sessions through 2025-12-01</text>
<line x1="70" x2="935" y1="375.00" y2="375.00" stroke="#27314e" stroke-width="1"/>
<text x="58" y="379.00" text-anchor="end" fill="#93a4c3" font-family="Inter, Arial, sans-serif" font-size="12">0</text>
<line x1="70" x2="935" y1="312.00" y2="312.00" stroke="#27314e" stroke-width="1"/>
<text x="58" y="316.00" text-anchor="end" fill="#93a4c3" font-family="Inter, Arial, sans-serif" font-size="12">8</text>
<line x1="70" x2="935" y1="249.00" y2="249.00" stroke="#27314e" stroke-width="1"/>
<text x="58" y="253.00" text-anchor="end" fill="#93a4c3" font-family="Inter, Arial, sans-serif" font-size="12">17</text>
<line x1="70" x2="935" y1="186.00" y2="186.00" stroke="#27314e" stroke-width="1"/>
<text x="58" y="190.00" text-anchor="end" fill="#93a4c3" font-family="Inter, Arial, sans-serif" font-size="12">25</text>
<line x1="70" x2="935" y1="123.00" y2="123.00" stroke="#27314e" stroke-width="1"/>
<text x="58" y="127.00" text-anchor="end" fill="#93a4c3" font-family="Inter, Arial, sans-serif" font-size="12">33</text>
<line x1="70" x2="935" y1="60.00" y2="60.00" stroke="#27314e" stroke-width="1"/>
<text x="58" y="64.00" text-anchor="end" fill="#93a4c3" font-family="Inter, Arial, sans-serif" font-size="12">41</text>
<text x="70.00" y="412" text-anchor="middle" fill="#93a4c3" font-family="Inter, Arial, sans-serif" font-size="12">2025-08-04</text>
<text x="507.84" y="412" text-anchor="middle" fill="#93a4c3" font-family="Inter, Arial, sans-serif" font-size="12">2025-10-01</text>
<text x="935.00" y="412" text-anchor="middle" fill="#93a4c3" font-family="Inter, Arial, sans-serif" font-size="12">2025-12-01</text>
<path d="M 70.00 261.00 L 80.68 227.53 L 91.36 271.07 L 102.04 258.87 L 112.72 242.93 L 123.40 231.80 L 134.07 310.11 L 144.75 307.29 L 155.43 296.69 L 166.11 288.91 L 176.79 290.05 L 187.47 236.07 L 198.15 198.55 L 208.83 168.13 L 219.51 254.83 L 230.19 233.17 L 240.86 245.90 L 251.54 258.71 L 262.22 293.71 L 272.90 259.71 L 283.58 225.47 L 294.26 243.31 L 304.94 278.39 L 315.62 265.27 L 326.30 295.39 L 336.98 309.58 L 347.65 305.99 L 358.33 310.95 L 369.01 297.45 L 379.69 295.09 L 390.37 293.87 L 401.05 287.46 L 411.73 253.38 L 422.41 288.22 L 433.09 266.64 L 443.77 279.46 L 454.44 266.03 L 465.12 222.49 L 475.80 245.75 L 486.48 247.43 L 497.16 259.32 L 507.84 297.76 L 518.52 309.80 L 529.20 286.01 L 539.88 296.54 L 550.56 271.60 L 561.23 278.85 L 571.91 256.96 L 582.59 123.98 L 593.27 175.75 L 603.95 212.66 L 614.63 109.03 L 625.31 196.19 L 635.99 336.57 L 646.67 309.88 L 657.35 285.33 L 668.02 232.33 L 678.70 267.94 L 689.38 285.48 L 700.06 299.36 L 710.74 266.80 L 721.42 256.12 L 732.10 236.53 L 742.78 192.98 L 753.46 135.80 L 764.14 183.68 L 774.81 184.67 L 785.49 190.93 L 796.17 255.59 L 806.85 294.63 L 817.53 209.53 L 828.21 237.06 L 838.89 167.36 L 849.57 60.00 L 860.25 70.45 L 870.93 66.18 L 881.60 146.17 L 892.28 277.24 L 902.96 326.96 L 913.64 337.79 L 924.32 375.00 L 935.00 333.06" fill="none" stroke="#69a7ff" stroke-width="4" stroke-linecap="round" stroke-linejoin="round"/>
<circle cx="935.00" cy="333.06" r="6" fill="#69a7ff"/>
</svg>