<svg xmlns="http://www.w3.org/2000/svg" width="960" height="430" viewBox="0 0 960 430" role="img" aria-label="Composite score history">
<rect width="100%" height="100%" fill="#0b1020" rx="20"/>
<text x="70" y="32" fill="#f5f7fb" font-family="Inter, Arial, sans-serif" font-size="24" font-weight="700">Composite score history</text>
<text x="70" y="52" fill="#93a4c3" font-family="Inter, Arial, sans-serif" font-size="13">Trailing 90 sessions through 2025-12-01</text>
<line x1="70" x2="935" y1="375.00" y2="375.00" stroke="#27314e" stroke-width="1"/>
<text x="58" y="379.00" text-anchor="end" fill="#93a4c3" font-family="Inter, Arial, sans-serif" font-size="12">11</text>
<line x1="70" x2="935" y1="312.00" y2="312.00" stroke="#27314e" stroke-width="1"/>
<text x="58" y="316.00" text-anchor="end" fill="#93a4c3" font-family="Inter, Arial, sans-serif" font-size="12">17</text>
<line x1="70" x2="935" y1="249.00" y2="249.00" stroke="#27314e" stroke-width="1"/>
<text x="58" y="253.00" text-anchor="end" fill="#93a4c3" font-family="Inter, Arial, sans-serif" font-size="12">23</text>
<line x1="70" x2="935" y1="186.00" y2="186.00" stroke="#27314e" stroke-width="1"/>
<text x="58" y="190.00" text-anchor="end" fill="#93a4c3" font-family="Inter, Arial, sans-serif" font-size="12">29</text>
<line x1="70" x2="935" y1="123.00" y2="123.00" stroke="#27314e" stroke-width="1"/>
<text x="58" y="127.00" text-anchor="end" fill="#93a4c3" font-family="Inter, Arial, sans-serif" font-size="12">35</text>
<line x1="70" x2="935" y1="60.00" y2="60.00" stroke="#27314e" stroke-width="1"/>
<text x="58" y="64.00" text-anchor="end" fill="#93a4c3" font-family="Inter, Arial, sans-serif" font-size="12">41</text>
<text x="70.00" y="412" text-anchor="middle" fill="#93a4c3" font-family="Inter, Arial, sans-serif" font-size="12">2025-07-23</text>
<text x="507.36" y="412" text-anchor="middle" fill="#93a4c3" font-family="Inter, Arial, sans-serif" font-size="12">2025-09-25</text>
<text x="935.00" y="412" text-anchor="middle" fill="#93a4c3" font-family="Inter, Arial, sans-serif" font-size="12">2025-12-01</text>
<path d="M 70.00 331.24 L 79.72 319.68 L 89.44 315.55 L 99.16 302.44 L 108.88 304.09 L 118.60 273.54 L 128.31 268.69 L 138.03 139.89 L 147.75 259.61 L 157.47 251.25 L 167.19 312.56 L 176.91 337.43 L 186.63 267.97 L 196.35 274.78 L 206.07 338.46 L 215.79 345.38 L 225.51 328.04 L 235.22 345.48 L 244.94 340.73 L 254.66 298.31 L 264.38 247.53 L 274.10 206.35 L 283.82 316.89 L 293.54 294.39 L 303.26 289.64 L 312.98 294.39 L 322.70 322.98 L 332.42 330.31 L 342.13 283.97 L 351.85 308.12 L 361.57 347.44 L 371.29 337.84 L 381.01 364.68 L 390.73 358.80 L 400.45 359.42 L 410.17 365.81 L 419.89 340.53 L 429.61 330.52 L 439.33 339.29 L 449.04 340.84 L 458.76 304.30 L 468.48 337.53 L 478.20 309.15 L 487.92 337.53 L 497.64 324.22 L 507.36 279.94 L 517.08 311.42 L 526.80 313.69 L 536.52 317.51 L 546.24 353.43 L 555.96 354.87 L 565.67 337.95 L 575.39 349.51 L 585.11 336.30 L 594.83 339.81 L 604.55 318.96 L 614.27 146.59 L 623.99 216.57 L 633.71 266.63 L 643.43 126.36 L 653.15 244.33 L 662.87 362.41 L 672.58 362.82 L 682.30 354.05 L 692.02 250.73 L 701.74 292.12 L 711.46 311.63 L 721.18 324.32 L 730.90 266.22 L 740.62 293.36 L 750.34 280.56 L 760.06 240.00 L 769.78 162.59 L 779.49 227.41 L 789.21 228.75 L 798.93 237.21 L 808.65 324.74 L 818.37 347.34 L 828.09 262.40 L 837.81 294.39 L 847.53 205.32 L 857.25 60.00 L 866.97 74.14 L 876.69 68.36 L 886.40 176.63 L 896.12 341.35 L 905.84 363.44 L 915.56 369.74 L 925.28 375.00 L 935.00 347.65" fill="none" stroke="#69a7ff" stroke-width="4" stroke-linecap="round" stroke-linejoin="round"/>
<circle cx="935.00" cy="347.65" r="6" fill="#69a7ff"/>
<text x="927.00" y="335.65" text-anchor="end" fill="#f5f7fb" font-family="Inter, Arial, sans-serif" font-size="12" font-weight="600">13.44</text>
</svg>