<svg xmlns="http://www.w3.org/2000/svg" width="960" height="430" viewBox="0 0 960 430" role="img" aria-label="Composite score history">
<rect width="100%" height="100%" fill="#0b1020" rx="20"/>
<text x="70" y="32" fill="#f5f7fb" font-family="Inter, Arial, sans-serif" font-size="24" font-weight="700">Composite score history</text>
<text x="70" y="52" fill="#93a4c3" font-family="Inter, Arial, sans-serif" font-size="13">Trailing 52 sessions through 2025-12-01</text>
<line x1="70" x2="935" y1="375.00" y2="375.00" stroke="#27314e" stroke-width="1"/>
<text x="58" y="379.00" text-anchor="end" fill="#93a4c3" font-family="Inter, Arial, sans-serif" font-size="12">0</text>
<line x1="70" x2="935" y1="312.00" y2="312.00" stroke="#27314e" stroke-width="1"/>
<text x="58" y="316.00" text-anchor="end" fill="#93a4c3" font-family="Inter, Arial, sans-serif" font-size="12">8</text>
<line x1="70" x2="935" y1="249.00" y2="249.00" stroke="#27314e" stroke-width="1"/>
<text x="58" y="253.00" text-anchor="end" fill="#93a4c3" font-family="Inter, Arial, sans-serif" font-size="12">17</text>
<line x1="70" x2="935" y1="186.00" y2="186.00" stroke="#27314e" stroke-width="1"/>
<text x="58" y="190.00" text-anchor="end" fill="#93a4c3" font-family="Inter, Arial, sans-serif" font-size="12">25</text>
<line x1="70" x2="935" y1="123.00" y2="123.00" stroke="#27314e" stroke-width="1"/>
<text x="58" y="127.00" text-anchor="end" fill="#93a4c3" font-family="Inter, Arial, sans-serif" font-size="12">33</text>
<line x1="70" x2="935" y1="60.00" y2="60.00" stroke="#27314e" stroke-width="1"/>
<text x="58" y="64.00" text-anchor="end" fill="#93a4c3" font-family="Inter, Arial, sans-serif" font-size="12">41</text>
<text x="70.00" y="412" text-anchor="middle" fill="#93a4c3" font-family="Inter, Arial, sans-serif" font-size="12">2025-09-16</text>
<text x="510.98" y="412" text-anchor="middle" fill="#93a4c3" font-family="Inter, Arial, sans-serif" font-size="12">2025-10-23</text>
<text x="935.00" y="412" text-anchor="middle" fill="#93a4c3" font-family="Inter, Arial, sans-serif" font-size="12">2025-12-01</text>
<path d="M 70.00 275.72 L 86.96 267.25 L 103.92 255.59 L 120.88 271.37 L 137.84 266.72 L 154.80 279.46 L 171.76 266.03 L 188.73 222.49 L 205.69 245.75 L 222.65 247.43 L 239.61 259.32 L 256.57 297.76 L 273.53 309.80 L 290.49 286.01 L 307.45 296.54 L 324.41 271.60 L 341.37 278.85 L 358.33 256.96 L 375.29 123.98 L 392.25 175.75 L 409.22 212.66 L 426.18 109.03 L 443.14 196.19 L 460.10 336.57 L 477.06 309.88 L 494.02 285.33 L 510.98 232.33 L 527.94 267.94 L 544.90 285.48 L 561.86 299.36 L 578.82 266.80 L 595.78 256.12 L 612.75 236.53 L 629.71 192.98 L 646.67 135.80 L 663.63 183.68 L 680.59 184.67 L 697.55 190.93 L 714.51 255.59 L 731.47 294.63 L 748.43 209.53 L 765.39 237.06 L 782.35 167.36 L 799.31 60.00 L 816.27 70.45 L 833.24 66.18 L 850.20 146.17 L 867.16 277.24 L 884.12 326.96 L 901.08 337.79 L 918.04 375.00 L 935.00 333.06" fill="none" stroke="#69a7ff" stroke-width="4" stroke-linecap="round" stroke-linejoin="round"/>
<circle cx="935.00" cy="333.06" r="6" fill="#69a7ff"/>
</svg>