<svg xmlns="http://www.w3.org/2000/svg" width="960" height="430" viewBox="0 0 960 430" role="img" aria-label="Composite score history">
<rect width="100%" height="100%" fill="#0b1020" rx="20"/>
<text x="70" y="32" fill="#f5f7fb" font-family="Inter, Arial, sans-serif" font-size="24" font-weight="700">Composite score history</text>
<text x="70" y="52" fill="#93a4c3" font-family="Inter, Arial, sans-serif" font-size="13">Trailing 58 sessions through 2025-12-01</text>
<line x1="70" x2="935" y1="375.00" y2="375.00" stroke="#27314e" stroke-width="1"/>
<text x="58" y="379.00" text-anchor="end" fill="#93a4c3" font-family="Inter, Arial, sans-serif" font-size="12">0</text>
<line x1="70" x2="935" y1="312.00" y2="312.00" stroke="#27314e" stroke-width="1"/>
<text x="58" y="316.00" text-anchor="end" fill="#93a4c3" font-family="Inter, Arial, sans-serif" font-size="12">8</text>
<line x1="70" x2="935" y1="249.00" y2="249.00" stroke="#27314e" stroke-width="1"/>
<text x="58" y="253.00" text-anchor="end" fill="#93a4c3" font-family="Inter, Arial, sans-serif" font-size="12">17</text>
<line x1="70" x2="935" y1="186.00" y2="186.00" stroke="#27314e" stroke-width="1"/>
<text x="58" y="190.00" text-anchor="end" fill="#93a4c3" font-family="Inter, Arial, sans-serif" font-size="12">25</text>
<line x1="70" x2="935" y1="123.00" y2="123.00" stroke="#27314e" stroke-width="1"/>
<text x="58" y="127.00" text-anchor="end" fill="#93a4c3" font-family="Inter, Arial, sans-serif" font-size="12">33</text>
<line x1="70" x2="935" y1="60.00" y2="60.00" stroke="#27314e" stroke-width="1"/>
<text x="58" y="64.00" text-anchor="end" fill="#93a4c3" font-family="Inter, Arial, sans-serif" font-size="12">41</text>
<text x="70.00" y="412" text-anchor="middle" fill="#93a4c3" font-family="Inter, Arial, sans-serif" font-size="12">2025-09-08</text>
<text x="510.09" y="412" text-anchor="middle" fill="#93a4c3" font-family="Inter, Arial, sans-serif" font-size="12">2025-10-20</text>
<text x="935.00" y="412" text-anchor="middle" fill="#93a4c3" font-family="Inter, Arial, sans-serif" font-size="12">2025-12-01</text>
<path d="M 70.00 285.10 L 85.18 262.98 L 100.35 275.03 L 115.53 303.86 L 130.70 283.50 L 145.88 295.09 L 161.05 293.87 L 176.23 287.46 L 191.40 253.38 L 206.58 288.22 L 221.75 266.64 L 236.93 279.46 L 252.11 266.03 L 267.28 222.49 L 282.46 245.75 L 297.63 247.43 L 312.81 259.32 L 327.98 297.76 L 343.16 309.80 L 358.33 286.01 L 373.51 296.54 L 388.68 271.60 L 403.86 278.85 L 419.04 256.96 L 434.21 123.98 L 449.39 175.75 L 464.56 212.66 L 479.74 109.03 L 494.91 196.19 L 510.09 336.57 L 525.26 309.88 L 540.44 285.33 L 555.61 232.33 L 570.79 267.94 L 585.96 285.48 L 601.14 299.36 L 616.32 266.80 L 631.49 256.12 L 646.67 236.53 L 661.84 192.98 L 677.02 135.80 L 692.19 183.68 L 707.37 184.67 L 722.54 190.93 L 737.72 255.59 L 752.89 294.63 L 768.07 209.53 L 783.25 237.06 L 798.42 167.36 L 813.60 60.00 L 828.77 70.45 L 843.95 66.18 L 859.12 146.17 L 874.30 277.24 L 889.47 326.96 L 904.65 337.79 L 919.82 375.00 L 935.00 333.06" fill="none" stroke="#69a7ff" stroke-width="4" stroke-linecap="round" stroke-linejoin="round"/>
<circle cx="935.00" cy="333.06" r="6" fill="#69a7ff"/>
</svg>