<svg xmlns="http://www.w3.org/2000/svg" width="960" height="430" viewBox="0 0 960 430" role="img" aria-label="Composite score history">
<rect width="100%" height="100%" fill="#0b1020" rx="20"/>
<text x="70" y="32" fill="#f5f7fb" font-family="Inter, Arial, sans-serif" font-size="24" font-weight="700">Composite score history</text>
<text x="70" y="52" fill="#93a4c3" font-family="Inter, Arial, sans-serif" font-size="13">Trailing 85 sessions through 2025-12-01</text>
<line x1="70" x2="935" y1="375.00" y2="375.00" stroke="#27314e" stroke-width="1"/>
<text x="58" y="379.00" text-anchor="end" fill="#93a4c3" font-family="Inter, Arial, sans-serif" font-size="12">0</text>
<line x1="70" x2="935" y1="312.00" y2="312.00" stroke="#27314e" stroke-width="1"/>
<text x="58" y="316.00" text-anchor="end" fill="#93a4c3" font-family="Inter, Arial, sans-serif" font-size="12">8</text>
<line x1="70" x2="935" y1="249.00" y2="249.00" stroke="#27314e" stroke-width="1"/>
<text x="58" y="253.00" text-anchor="end" fill="#93a4c3" font-family="Inter, Arial, sans-serif" font-size="12">17</text>
<line x1="70" x2="935" y1="186.00" y2="186.00" stroke="#27314e" stroke-width="1"/>
<text x="58" y="190.00" text-anchor="end" fill="#93a4c3" font-family="Inter, Arial, sans-serif" font-size="12">25</text>
<line x1="70" x2="935" y1="123.00" y2="123.00" stroke="#27314e" stroke-width="1"/>
<text x="58" y="127.00" text-anchor="end" fill="#93a4c3" font-family="Inter, Arial, sans-serif" font-size="12">33</text>
<line x1="70" x2="935" y1="60.00" y2="60.00" stroke="#27314e" stroke-width="1"/>
<text x="58" y="64.00" text-anchor="end" fill="#93a4c3" font-family="Inter, Arial, sans-serif" font-size="12">41</text>
<text x="70.00" y="412" text-anchor="middle" fill="#93a4c3" font-family="Inter, Arial, sans-serif" font-size="12">2025-07-30</text>
<text x="502.50" y="412" text-anchor="middle" fill="#93a4c3" font-family="Inter, Arial, sans-serif" font-size="12">2025-09-29</text>
<text x="935.00" y="412" text-anchor="middle" fill="#93a4c3" font-family="Inter, Arial, sans-serif" font-size="12">2025-12-01</text>
<path d="M 70.00 252.08 L 80.30 224.25 L 90.60 137.93 L 100.89 226.69 L 111.19 202.44 L 121.49 246.59 L 131.79 265.20 L 142.08 259.86 L 152.38 231.80 L 162.68 310.11 L 172.98 307.29 L 183.27 296.69 L 193.57 288.91 L 203.87 290.05 L 214.17 236.07 L 224.46 198.55 L 234.76 168.13 L 245.06 254.83 L 255.36 233.17 L 265.65 245.90 L 275.95 258.71 L 286.25 293.71 L 296.55 259.71 L 306.85 225.47 L 317.14 243.31 L 327.44 278.39 L 337.74 265.27 L 348.04 295.39 L 358.33 309.58 L 368.63 305.99 L 378.93 310.95 L 389.23 297.45 L 399.52 295.09 L 409.82 293.87 L 420.12 287.46 L 430.42 253.38 L 440.71 288.22 L 451.01 266.64 L 461.31 279.46 L 471.61 266.03 L 481.90 222.49 L 492.20 245.75 L 502.50 247.43 L 512.80 259.32 L 523.10 297.76 L 533.39 309.80 L 543.69 286.01 L 553.99 296.54 L 564.29 271.60 L 574.58 278.85 L 584.88 256.96 L 595.18 123.98 L 605.48 175.75 L 615.77 212.66 L 626.07 109.03 L 636.37 196.19 L 646.67 336.57 L 656.96 309.88 L 667.26 285.33 L 677.56 232.33 L 687.86 267.94 L 698.15 285.48 L 708.45 299.36 L 718.75 266.80 L 729.05 256.12 L 739.35 236.53 L 749.64 192.98 L 759.94 135.80 L 770.24 183.68 L 780.54 184.67 L 790.83 190.93 L 801.13 255.59 L 811.43 294.63 L 821.73 209.53 L 832.02 237.06 L 842.32 167.36 L 852.62 60.00 L 862.92 70.45 L 873.21 66.18 L 883.51 146.17 L 893.81 277.24 L 904.11 326.96 L 914.40 337.79 L 924.70 375.00 L 935.00 333.06" fill="none" stroke="#69a7ff" stroke-width="4" stroke-linecap="round" stroke-linejoin="round"/>
<circle cx="935.00" cy="333.06" r="6" fill="#69a7ff"/>
</svg>