<svg xmlns="http://www.w3.org/2000/svg" width="960" height="430" viewBox="0 0 960 430">
<rect width="100%" height="100%" fill="#0b1020" rx="20"/>
<text x="70" y="32" fill="#f5f7fb" font-size="24" font-family="Inter, Arial, sans-serif" font-weight="700">Composite score history</text>
<text x="70" y="52" fill="#93a4c3" font-size="13" font-family="Inter, Arial, sans-serif">Trailing 90 sessions through 2025-12-01</text>
<line x1="70" x2="935" y1="375.00" y2="375.00" stroke="#27314e" stroke-width="1"/>
<text x="58" y="379.00" text-anchor="end" fill="#93a4c3" font-size="12" font-family="Inter, Arial, sans-serif">0</text>
<line x1="70" x2="935" y1="312.00" y2="312.00" stroke="#27314e" stroke-width="1"/>
<text x="58" y="316.00" text-anchor="end" fill="#93a4c3" font-size="12" font-family="Inter, Arial, sans-serif">8</text>
<line x1="70" x2="935" y1="249.00" y2="249.00" stroke="#27314e" stroke-width="1"/>
<text x="58" y="253.00" text-anchor="end" fill="#93a4c3" font-size="12" font-family="Inter, Arial, sans-serif">17</text>
<line x1="70" x2="935" y1="186.00" y2="186.00" stroke="#27314e" stroke-width="1"/>
<text x="58" y="190.00" text-anchor="end" fill="#93a4c3" font-size="12" font-family="Inter, Arial, sans-serif">25</text>
<line x1="70" x2="935" y1="123.00" y2="123.00" stroke="#27314e" stroke-width="1"/>
<text x="58" y="127.00" text-anchor="end" fill="#93a4c3" font-size="12" font-family="Inter, Arial, sans-serif">33</text>
<line x1="70" x2="935" y1="60.00" y2="60.00" stroke="#27314e" stroke-width="1"/>
<text x="58" y="64.00" text-anchor="end" fill="#93a4c3" font-size="12" font-family="Inter, Arial, sans-serif">41</text>
<text x="70.00" y="412" text-anchor="middle" fill="#93a4c3" font-size="12" font-family="Inter, Arial, sans-serif">2025-07-23</text>
<text x="507.36" y="412" text-anchor="middle" fill="#93a4c3" font-size="12" font-family="Inter, Arial, sans-serif">2025-09-25</text>
<text x="935.00" y="412" text-anchor="middle" fill="#93a4c3" font-size="12" font-family="Inter, Arial, sans-serif">2025-12-01</text>
<path d="M 70.00 279.00 L 79.72 271.83 L 89.44 276.63 L 99.16 264.59 L 108.88 258.87 L 118.60 218.99 L 128.31 214.18 L 138.03 118.94 L 147.75 207.47 L 157.47 201.30 L 167.19 246.59 L 176.91 265.20 L 186.63 259.86 L 196.35 231.80 L 206.07 310.11 L 215.79 307.29 L 225.51 296.69 L 235.22 288.91 L 244.94 290.05 L 254.66 236.07 L 264.38 198.55 L 274.10 168.13 L 283.82 254.83 L 293.54 233.17 L 303.26 245.90 L 312.98 258.71 L 322.70 293.71 L 332.42 259.71 L 342.13 225.47 L 351.85 243.31 L 361.57 278.39 L 371.29 265.27 L 381.01 295.39 L 390.73 309.58 L 400.45 305.99 L 410.17 310.95 L 419.89 297.45 L 429.61 295.09 L 439.33 293.87 L 449.04 287.46 L 458.76 253.38 L 468.48 288.22 L 478.20 266.64 L 487.92 279.46 L 497.64 266.03 L 507.36 222.49 L 517.08 245.75 L 526.80 247.43 L 536.52 259.32 L 546.24 297.76 L 555.96 309.80 L 565.67 286.01 L 575.39 296.54 L 585.11 271.60 L 594.83 278.85 L 604.55 256.96 L 614.27 123.98 L 623.99 175.75 L 633.71 212.66 L 643.43 109.03 L 653.15 196.19 L 662.87 336.57 L 672.58 309.88 L 682.30 285.33 L 692.02 232.33 L 701.74 267.94 L 711.46 285.48 L 721.18 299.36 L 730.90 266.80 L 740.62 256.12 L 750.34 236.53 L 760.06 192.98 L 769.78 135.80 L 779.49 183.68 L 789.21 184.67 L 798.93 190.93 L 808.65 255.59 L 818.37 294.63 L 828.09 209.53 L 837.81 237.06 L 847.53 167.36 L 857.25 60.00 L 866.97 70.45 L 876.69 66.18 L 886.40 146.17 L 896.12 277.24 L 905.84 326.96 L 915.56 337.79 L 925.28 375.00 L 935.00 333.06" fill="none" stroke="#69a7ff" stroke-width="4" stroke-linecap="round" stroke-linejoin="round"/>
<circle cx="935.00" cy="333.06" r="6" fill="#69a7ff"/>
</svg>