<svg xmlns="http://www.w3.org/2000/svg" width="960" height="430" viewBox="0 0 960 430" role="img" aria-label="Composite score history">
<rect width="100%" height="100%" fill="#0b1020" rx="20"/>
<text x="70" y="32" fill="#f5f7fb" font-family="Inter, Arial, sans-serif" font-size="24" font-weight="700">Composite score history</text>
<text x="70" y="52" fill="#93a4c3" font-family="Inter, Arial, sans-serif" font-size="13">Trailing 62 sessions through 2025-12-01</text>
<line x1="70" x2="935" y1="375.00" y2="375.00" stroke="#27314e" stroke-width="1"/>
<text x="58" y="379.00" text-anchor="end" fill="#93a4c3" font-family="Inter, Arial, sans-serif" font-size="12">0</text>
<line x1="70" x2="935" y1="312.00" y2="312.00" stroke="#27314e" stroke-width="1"/>
<text x="58" y="316.00" text-anchor="end" fill="#93a4c3" font-family="Inter, Arial, sans-serif" font-size="12">8</text>
<line x1="70" x2="935" y1="249.00" y2="249.00" stroke="#27314e" stroke-width="1"/>
<text x="58" y="253.00" text-anchor="end" fill="#93a4c3" font-family="Inter, Arial, sans-serif" font-size="12">17</text>
<line x1="70" x2="935" y1="186.00" y2="186.00" stroke="#27314e" stroke-width="1"/>
<text x="58" y="190.00" text-anchor="end" fill="#93a4c3" font-family="Inter, Arial, sans-serif" font-size="12">25</text>
<line x1="70" x2="935" y1="123.00" y2="123.00" stroke="#27314e" stroke-width="1"/>
<text x="58" y="127.00" text-anchor="end" fill="#93a4c3" font-family="Inter, Arial, sans-serif" font-size="12">33</text>
<line x1="70" x2="935" y1="60.00" y2="60.00" stroke="#27314e" stroke-width="1"/>
<text x="58" y="64.00" text-anchor="end" fill="#93a4c3" font-family="Inter, Arial, sans-serif" font-size="12">41</text>
<text x="70.00" y="412" text-anchor="middle" fill="#93a4c3" font-family="Inter, Arial, sans-serif" font-size="12">2025-09-02</text>
<text x="509.59" y="412" text-anchor="middle" fill="#93a4c3" font-family="Inter, Arial, sans-serif" font-size="12">2025-10-16</text>
<text x="935.00" y="412" text-anchor="middle" fill="#93a4c3" font-family="Inter, Arial, sans-serif" font-size="12">2025-12-01</text>
<path d="M 70.00 256.58 L 84.18 275.87 L 98.36 301.26 L 112.54 302.18 L 126.72 308.81 L 140.90 309.58 L 155.08 305.99 L 169.26 310.95 L 183.44 297.45 L 197.62 295.09 L 211.80 293.87 L 225.98 287.46 L 240.16 253.38 L 254.34 288.22 L 268.52 266.64 L 282.70 279.46 L 296.89 266.03 L 311.07 222.49 L 325.25 245.75 L 339.43 247.43 L 353.61 259.32 L 367.79 297.76 L 381.97 309.80 L 396.15 286.01 L 410.33 296.54 L 424.51 271.60 L 438.69 278.85 L 452.87 256.96 L 467.05 123.98 L 481.23 175.75 L 495.41 212.66 L 509.59 109.03 L 523.77 196.19 L 537.95 336.57 L 552.13 309.88 L 566.31 285.33 L 580.49 232.33 L 594.67 267.94 L 608.85 285.48 L 623.03 299.36 L 637.21 266.80 L 651.39 256.12 L 665.57 236.53 L 679.75 192.98 L 693.93 135.80 L 708.11 183.68 L 722.30 184.67 L 736.48 190.93 L 750.66 255.59 L 764.84 294.63 L 779.02 209.53 L 793.20 237.06 L 807.38 167.36 L 821.56 60.00 L 835.74 70.45 L 849.92 66.18 L 864.10 146.17 L 878.28 277.24 L 892.46 326.96 L 906.64 337.79 L 920.82 375.00 L 935.00 333.06" fill="none" stroke="#69a7ff" stroke-width="4" stroke-linecap="round" stroke-linejoin="round"/>
<circle cx="935.00" cy="333.06" r="6" fill="#69a7ff"/>
</svg>