<svg xmlns="http://www.w3.org/2000/svg" width="960" height="430" viewBox="0 0 960 430" role="img" aria-label="Composite score history">
<rect width="100%" height="100%" fill="#0b1020" rx="20"/>
<text x="70" y="32" fill="#f5f7fb" font-family="Inter, Arial, sans-serif" font-size="24" font-weight="700">Composite score history</text>
<text x="70" y="52" fill="#93a4c3" font-family="Inter, Arial, sans-serif" font-size="13">Trailing 79 sessions through 2026-02-18</text>
<line x1="70" x2="935" y1="375.00" y2="375.00" stroke="#27314e" stroke-width="1"/>
<text x="58" y="379.00" text-anchor="end" fill="#93a4c3" font-family="Inter, Arial, sans-serif" font-size="12">0</text>
<line x1="70" x2="935" y1="312.00" y2="312.00" stroke="#27314e" stroke-width="1"/>
<text x="58" y="316.00" text-anchor="end" fill="#93a4c3" font-family="Inter, Arial, sans-serif" font-size="12">8</text>
<line x1="70" x2="935" y1="249.00" y2="249.00" stroke="#27314e" stroke-width="1"/>
<text x="58" y="253.00" text-anchor="end" fill="#93a4c3" font-family="Inter, Arial, sans-serif" font-size="12">17</text>
<line x1="70" x2="935" y1="186.00" y2="186.00" stroke="#27314e" stroke-width="1"/>
<text x="58" y="190.00" text-anchor="end" fill="#93a4c3" font-family="Inter, Arial, sans-serif" font-size="12">25</text>
<line x1="70" x2="935" y1="123.00" y2="123.00" stroke="#27314e" stroke-width="1"/>
<text x="58" y="127.00" text-anchor="end" fill="#93a4c3" font-family="Inter, Arial, sans-serif" font-size="12">33</text>
<line x1="70" x2="935" y1="60.00" y2="60.00" stroke="#27314e" stroke-width="1"/>
<text x="58" y="64.00" text-anchor="end" fill="#93a4c3" font-family="Inter, Arial, sans-serif" font-size="12">41</text>
<text x="70.00" y="412" text-anchor="middle" fill="#93a4c3" font-family="Inter, Arial, sans-serif" font-size="12">2025-10-23</text>
<text x="502.50" y="412" text-anchor="middle" fill="#93a4c3" font-family="Inter, Arial, sans-serif" font-size="12">2025-12-19</text>
<text x="935.00" y="412" text-anchor="middle" fill="#93a4c3" font-family="Inter, Arial, sans-serif" font-size="12">2026-02-18</text>
<path d="M 70.00 271.83 L 81.09 294.55 L 92.18 324.98 L 103.27 327.42 L 114.36 283.65 L 125.45 256.12 L 136.54 236.53 L 147.63 192.98 L 158.72 135.80 L 169.81 183.68 L 180.90 184.67 L 191.99 190.93 L 203.08 255.59 L 214.17 294.63 L 225.26 209.53 L 236.35 237.06 L 247.44 167.36 L 258.53 60.00 L 269.62 70.45 L 280.71 66.18 L 291.79 146.17 L 302.88 277.24 L 313.97 326.96 L 325.06 337.79 L 336.15 375.00 L 347.24 333.06 L 358.33 308.20 L 369.42 290.89 L 380.51 264.74 L 391.60 247.28 L 402.69 278.92 L 413.78 241.33 L 424.87 272.67 L 435.96 307.67 L 447.05 264.05 L 458.14 273.13 L 469.23 273.58 L 480.32 183.07 L 491.41 209.46 L 502.50 304.77 L 513.59 329.32 L 524.68 342.21 L 535.77 374.85 L 546.86 360.82 L 557.95 332.91 L 569.04 310.11 L 580.13 254.37 L 591.22 241.41 L 602.31 250.25 L 613.40 274.96 L 624.49 271.37 L 635.58 287.00 L 646.67 289.90 L 657.76 256.43 L 668.85 234.08 L 679.94 237.06 L 691.03 246.21 L 702.12 211.90 L 713.21 84.17 L 724.29 172.78 L 735.38 214.11 L 746.47 200.15 L 757.56 248.88 L 768.65 293.33 L 779.74 261.99 L 790.83 228.59 L 801.92 226.46 L 813.01 237.44 L 824.10 170.49 L 835.19 173.85 L 846.28 111.24 L 857.37 253.00 L 868.46 248.65 L 879.55 271.37 L 890.64 276.02 L 901.73 258.10 L 912.82 183.61 L 923.91 172.93 L 935.00 205.34" fill="none" stroke="#69a7ff" stroke-width="4" stroke-linecap="round" stroke-linejoin="round"/>
<circle cx="935.00" cy="205.34" r="6" fill="#69a7ff"/>
</svg>