<svg xmlns="http://www.w3.org/2000/svg" width="960" height="430" viewBox="0 0 960 430" role="img" aria-label="Composite score history">
<rect width="100%" height="100%" fill="#0b1020" rx="20"/>
<text x="70" y="32" fill="#f5f7fb" font-family="Inter, Arial, sans-serif" font-size="24" font-weight="700">Composite score history</text>
<text x="70" y="52" fill="#93a4c3" font-family="Inter, Arial, sans-serif" font-size="13">Trailing 75 sessions through 2026-02-18</text>
<line x1="70" x2="935" y1="375.00" y2="375.00" stroke="#27314e" stroke-width="1"/>
<text x="58" y="379.00" text-anchor="end" fill="#93a4c3" font-family="Inter, Arial, sans-serif" font-size="12">0</text>
<line x1="70" x2="935" y1="312.00" y2="312.00" stroke="#27314e" stroke-width="1"/>
<text x="58" y="316.00" text-anchor="end" fill="#93a4c3" font-family="Inter, Arial, sans-serif" font-size="12">8</text>
<line x1="70" x2="935" y1="249.00" y2="249.00" stroke="#27314e" stroke-width="1"/>
<text x="58" y="253.00" text-anchor="end" fill="#93a4c3" font-family="Inter, Arial, sans-serif" font-size="12">17</text>
<line x1="70" x2="935" y1="186.00" y2="186.00" stroke="#27314e" stroke-width="1"/>
<text x="58" y="190.00" text-anchor="end" fill="#93a4c3" font-family="Inter, Arial, sans-serif" font-size="12">25</text>
<line x1="70" x2="935" y1="123.00" y2="123.00" stroke="#27314e" stroke-width="1"/>
<text x="58" y="127.00" text-anchor="end" fill="#93a4c3" font-family="Inter, Arial, sans-serif" font-size="12">33</text>
<line x1="70" x2="935" y1="60.00" y2="60.00" stroke="#27314e" stroke-width="1"/>
<text x="58" y="64.00" text-anchor="end" fill="#93a4c3" font-family="Inter, Arial, sans-serif" font-size="12">41</text>
<text x="70.00" y="412" text-anchor="middle" fill="#93a4c3" font-family="Inter, Arial, sans-serif" font-size="12">2025-10-29</text>
<text x="502.50" y="412" text-anchor="middle" fill="#93a4c3" font-family="Inter, Arial, sans-serif" font-size="12">2025-12-23</text>
<text x="935.00" y="412" text-anchor="middle" fill="#93a4c3" font-family="Inter, Arial, sans-serif" font-size="12">2026-02-18</text>
<path d="M 70.00 274.19 L 81.69 224.40 L 93.38 221.05 L 105.07 226.15 L 116.76 176.90 L 128.45 183.68 L 140.14 184.67 L 151.82 190.93 L 163.51 255.59 L 175.20 294.63 L 186.89 209.53 L 198.58 237.06 L 210.27 167.36 L 221.96 60.00 L 233.65 70.45 L 245.34 66.18 L 257.03 146.17 L 268.72 277.24 L 280.41 326.96 L 292.09 337.79 L 303.78 375.00 L 315.47 333.06 L 327.16 308.20 L 338.85 290.89 L 350.54 264.74 L 362.23 247.28 L 373.92 278.92 L 385.61 241.33 L 397.30 272.67 L 408.99 307.67 L 420.68 264.05 L 432.36 273.13 L 444.05 273.58 L 455.74 183.07 L 467.43 209.46 L 479.12 304.77 L 490.81 329.32 L 502.50 342.21 L 514.19 374.85 L 525.88 360.82 L 537.57 332.91 L 549.26 310.11 L 560.95 254.37 L 572.64 241.41 L 584.32 250.25 L 596.01 274.96 L 607.70 271.37 L 619.39 287.00 L 631.08 289.90 L 642.77 256.43 L 654.46 234.08 L 666.15 237.06 L 677.84 246.21 L 689.53 211.90 L 701.22 84.17 L 712.91 172.78 L 724.59 214.11 L 736.28 200.15 L 747.97 248.88 L 759.66 293.33 L 771.35 261.99 L 783.04 228.59 L 794.73 226.46 L 806.42 237.44 L 818.11 170.49 L 829.80 173.85 L 841.49 111.24 L 853.18 253.00 L 864.86 248.65 L 876.55 271.37 L 888.24 276.02 L 899.93 258.10 L 911.62 183.61 L 923.31 172.93 L 935.00 205.34" fill="none" stroke="#69a7ff" stroke-width="4" stroke-linecap="round" stroke-linejoin="round"/>
<circle cx="935.00" cy="205.34" r="6" fill="#69a7ff"/>
</svg>