<svg xmlns="http://www.w3.org/2000/svg" width="960" height="430" viewBox="0 0 960 430" role="img" aria-label="Composite score history">
<rect width="100%" height="100%" fill="#0b1020" rx="20"/>
<text x="70" y="32" fill="#f5f7fb" font-family="Inter, Arial, sans-serif" font-size="24" font-weight="700">Composite score history</text>
<text x="70" y="52" fill="#93a4c3" font-family="Inter, Arial, sans-serif" font-size="13">Trailing 80 sessions through 2026-02-18</text>
<line x1="70" x2="935" y1="375.00" y2="375.00" stroke="#27314e" stroke-width="1"/>
<text x="58" y="379.00" text-anchor="end" fill="#93a4c3" font-family="Inter, Arial, sans-serif" font-size="12">0</text>
<line x1="70" x2="935" y1="312.00" y2="312.00" stroke="#27314e" stroke-width="1"/>
<text x="58" y="316.00" text-anchor="end" fill="#93a4c3" font-family="Inter, Arial, sans-serif" font-size="12">8</text>
<line x1="70" x2="935" y1="249.00" y2="249.00" stroke="#27314e" stroke-width="1"/>
<text x="58" y="253.00" text-anchor="end" fill="#93a4c3" font-family="Inter, Arial, sans-serif" font-size="12">17</text>
<line x1="70" x2="935" y1="186.00" y2="186.00" stroke="#27314e" stroke-width="1"/>
<text x="58" y="190.00" text-anchor="end" fill="#93a4c3" font-family="Inter, Arial, sans-serif" font-size="12">25</text>
<line x1="70" x2="935" y1="123.00" y2="123.00" stroke="#27314e" stroke-width="1"/>
<text x="58" y="127.00" text-anchor="end" fill="#93a4c3" font-family="Inter, Arial, sans-serif" font-size="12">33</text>
<line x1="70" x2="935" y1="60.00" y2="60.00" stroke="#27314e" stroke-width="1"/>
<text x="58" y="64.00" text-anchor="end" fill="#93a4c3" font-family="Inter, Arial, sans-serif" font-size="12">41</text>
<text x="70.00" y="412" text-anchor="middle" fill="#93a4c3" font-family="Inter, Arial, sans-serif" font-size="12">2025-10-22</text>
<text x="507.97" y="412" text-anchor="middle" fill="#93a4c3" font-family="Inter, Arial, sans-serif" font-size="12">2025-12-19</text>
<text x="935.00" y="412" text-anchor="middle" fill="#93a4c3" font-family="Inter, Arial, sans-serif" font-size="12">2026-02-18</text>
<path d="M 70.00 277.24 L 80.95 235.61 L 91.90 266.11 L 102.85 308.13 L 113.80 317.43 L 124.75 266.80 L 135.70 256.12 L 146.65 236.53 L 157.59 192.98 L 168.54 135.80 L 179.49 183.68 L 190.44 184.67 L 201.39 190.93 L 212.34 255.59 L 223.29 294.63 L 234.24 209.53 L 245.19 237.06 L 256.14 167.36 L 267.09 60.00 L 278.04 70.45 L 288.99 66.18 L 299.94 146.17 L 310.89 277.24 L 321.84 326.96 L 332.78 337.79 L 343.73 375.00 L 354.68 333.06 L 365.63 308.20 L 376.58 290.89 L 387.53 264.74 L 398.48 247.28 L 409.43 278.92 L 420.38 241.33 L 431.33 272.67 L 442.28 307.67 L 453.23 264.05 L 464.18 273.13 L 475.13 273.58 L 486.08 183.07 L 497.03 209.46 L 507.97 304.77 L 518.92 329.32 L 529.87 342.21 L 540.82 374.85 L 551.77 360.82 L 562.72 332.91 L 573.67 310.11 L 584.62 254.37 L 595.57 241.41 L 606.52 250.25 L 617.47 274.96 L 628.42 271.37 L 639.37 287.00 L 650.32 289.90 L 661.27 256.43 L 672.22 234.08 L 683.16 237.06 L 694.11 246.21 L 705.06 211.90 L 716.01 84.17 L 726.96 172.78 L 737.91 214.11 L 748.86 200.15 L 759.81 248.88 L 770.76 293.33 L 781.71 261.99 L 792.66 228.59 L 803.61 226.46 L 814.56 237.44 L 825.51 170.49 L 836.46 173.85 L 847.41 111.24 L 858.35 253.00 L 869.30 248.65 L 880.25 271.37 L 891.20 276.02 L 902.15 258.10 L 913.10 183.61 L 924.05 172.93 L 935.00 205.34" fill="none" stroke="#69a7ff" stroke-width="4" stroke-linecap="round" stroke-linejoin="round"/>
<circle cx="935.00" cy="205.34" r="6" fill="#69a7ff"/>
</svg>