<svg xmlns="http://www.w3.org/2000/svg" width="960" height="430" viewBox="0 0 960 430" role="img" aria-label="Composite score history">
<rect width="100%" height="100%" fill="#0b1020" rx="20"/>
<text x="70" y="32" fill="#f5f7fb" font-family="Inter, Arial, sans-serif" font-size="24" font-weight="700">Composite score history</text>
<text x="70" y="52" fill="#93a4c3" font-family="Inter, Arial, sans-serif" font-size="13">Trailing 90 sessions through 2026-02-18</text>
<line x1="70" x2="935" y1="375.00" y2="375.00" stroke="#27314e" stroke-width="1"/>
<text x="58" y="379.00" text-anchor="end" fill="#93a4c3" font-family="Inter, Arial, sans-serif" font-size="12">8</text>
<line x1="70" x2="935" y1="312.00" y2="312.00" stroke="#27314e" stroke-width="1"/>
<text x="58" y="316.00" text-anchor="end" fill="#93a4c3" font-family="Inter, Arial, sans-serif" font-size="12">14</text>
<line x1="70" x2="935" y1="249.00" y2="249.00" stroke="#27314e" stroke-width="1"/>
<text x="58" y="253.00" text-anchor="end" fill="#93a4c3" font-family="Inter, Arial, sans-serif" font-size="12">21</text>
<line x1="70" x2="935" y1="186.00" y2="186.00" stroke="#27314e" stroke-width="1"/>
<text x="58" y="190.00" text-anchor="end" fill="#93a4c3" font-family="Inter, Arial, sans-serif" font-size="12">28</text>
<line x1="70" x2="935" y1="123.00" y2="123.00" stroke="#27314e" stroke-width="1"/>
<text x="58" y="127.00" text-anchor="end" fill="#93a4c3" font-family="Inter, Arial, sans-serif" font-size="12">35</text>
<line x1="70" x2="935" y1="60.00" y2="60.00" stroke="#27314e" stroke-width="1"/>
<text x="58" y="64.00" text-anchor="end" fill="#93a4c3" font-family="Inter, Arial, sans-serif" font-size="12">41</text>
<text x="70.00" y="412" text-anchor="middle" fill="#93a4c3" font-family="Inter, Arial, sans-serif" font-size="12">2025-10-07</text>
<text x="507.36" y="412" text-anchor="middle" fill="#93a4c3" font-family="Inter, Arial, sans-serif" font-size="12">2025-12-12</text>
<text x="935.00" y="412" text-anchor="middle" fill="#93a4c3" font-family="Inter, Arial, sans-serif" font-size="12">2026-02-18</text>
<path d="M 70.00 310.00 L 79.72 313.18 L 89.44 294.31 L 99.16 138.35 L 108.88 201.67 L 118.60 246.96 L 128.31 120.05 L 138.03 226.79 L 147.75 333.63 L 157.47 334.00 L 167.19 326.06 L 176.91 232.58 L 186.63 270.03 L 196.35 287.68 L 206.07 299.17 L 215.79 246.59 L 225.51 271.15 L 235.22 259.57 L 244.94 222.87 L 254.66 152.83 L 264.38 211.48 L 274.10 212.69 L 283.82 220.35 L 293.54 299.54 L 303.26 319.99 L 312.98 243.14 L 322.70 272.09 L 332.42 191.49 L 342.13 60.00 L 351.85 72.79 L 361.57 67.56 L 371.29 165.53 L 381.01 314.58 L 390.73 334.56 L 400.45 340.26 L 410.17 345.02 L 419.89 320.27 L 429.61 320.74 L 439.33 313.92 L 449.04 295.53 L 458.76 282.08 L 468.48 316.54 L 478.20 278.25 L 487.92 307.85 L 497.64 348.38 L 507.36 309.91 L 517.08 321.02 L 526.80 321.58 L 536.52 210.64 L 546.24 243.04 L 555.96 357.44 L 565.67 368.56 L 575.39 368.09 L 585.11 372.48 L 594.83 375.00 L 604.55 369.96 L 614.27 360.24 L 623.99 298.05 L 633.71 282.17 L 643.43 293.00 L 653.15 310.00 L 662.87 310.47 L 672.58 312.15 L 682.30 304.77 L 692.02 275.07 L 701.74 266.86 L 711.46 274.89 L 721.18 280.30 L 730.90 246.03 L 740.62 89.60 L 750.34 198.12 L 760.06 248.74 L 769.78 231.65 L 779.49 287.87 L 789.21 283.39 L 798.93 272.65 L 808.65 247.71 L 818.37 256.02 L 828.09 268.54 L 837.81 195.32 L 847.53 199.43 L 857.25 122.76 L 866.97 296.37 L 876.69 291.04 L 886.40 310.75 L 896.12 304.58 L 905.84 290.86 L 915.56 211.29 L 925.28 198.31 L 935.00 238.00" fill="none" stroke="#69a7ff" stroke-width="4" stroke-linecap="round" stroke-linejoin="round"/>
<circle cx="935.00" cy="238.00" r="6" fill="#69a7ff"/>
<text x="927.00" y="226.00" text-anchor="end" fill="#f5f7fb" font-family="Inter, Arial, sans-serif" font-size="12" font-weight="600">22.25</text>
</svg>