<svg xmlns="http://www.w3.org/2000/svg" width="960" height="430" viewBox="0 0 960 430" role="img" aria-label="Composite score history">
<rect width="100%" height="100%" fill="#0b1020" rx="20"/>
<text x="70" y="32" fill="#f5f7fb" font-family="Inter, Arial, sans-serif" font-size="24" font-weight="700">Composite score history</text>
<text x="70" y="52" fill="#93a4c3" font-family="Inter, Arial, sans-serif" font-size="13">Trailing 71 sessions through 2025-12-02</text>
<line x1="70" x2="935" y1="375.00" y2="375.00" stroke="#27314e" stroke-width="1"/>
<text x="58" y="379.00" text-anchor="end" fill="#93a4c3" font-family="Inter, Arial, sans-serif" font-size="12">0</text>
<line x1="70" x2="935" y1="312.00" y2="312.00" stroke="#27314e" stroke-width="1"/>
<text x="58" y="316.00" text-anchor="end" fill="#93a4c3" font-family="Inter, Arial, sans-serif" font-size="12">8</text>
<line x1="70" x2="935" y1="249.00" y2="249.00" stroke="#27314e" stroke-width="1"/>
<text x="58" y="253.00" text-anchor="end" fill="#93a4c3" font-family="Inter, Arial, sans-serif" font-size="12">17</text>
<line x1="70" x2="935" y1="186.00" y2="186.00" stroke="#27314e" stroke-width="1"/>
<text x="58" y="190.00" text-anchor="end" fill="#93a4c3" font-family="Inter, Arial, sans-serif" font-size="12">25</text>
<line x1="70" x2="935" y1="123.00" y2="123.00" stroke="#27314e" stroke-width="1"/>
<text x="58" y="127.00" text-anchor="end" fill="#93a4c3" font-family="Inter, Arial, sans-serif" font-size="12">33</text>
<line x1="70" x2="935" y1="60.00" y2="60.00" stroke="#27314e" stroke-width="1"/>
<text x="58" y="64.00" text-anchor="end" fill="#93a4c3" font-family="Inter, Arial, sans-serif" font-size="12">41</text>
<text x="70.00" y="412" text-anchor="middle" fill="#93a4c3" font-family="Inter, Arial, sans-serif" font-size="12">2025-08-20</text>
<text x="502.50" y="412" text-anchor="middle" fill="#93a4c3" font-family="Inter, Arial, sans-serif" font-size="12">2025-10-09</text>
<text x="935.00" y="412" text-anchor="middle" fill="#93a4c3" font-family="Inter, Arial, sans-serif" font-size="12">2025-12-02</text>
<path d="M 70.00 270.23 L 82.36 205.57 L 94.71 263.37 L 107.07 244.30 L 119.43 254.37 L 131.79 258.71 L 144.14 293.71 L 156.50 259.71 L 168.86 225.47 L 181.21 243.31 L 193.57 278.39 L 205.93 265.27 L 218.29 295.39 L 230.64 309.58 L 243.00 305.99 L 255.36 310.95 L 267.71 297.45 L 280.07 295.09 L 292.43 293.87 L 304.79 287.46 L 317.14 253.38 L 329.50 288.22 L 341.86 266.64 L 354.21 279.46 L 366.57 266.03 L 378.93 222.49 L 391.29 245.75 L 403.64 247.43 L 416.00 259.32 L 428.36 297.76 L 440.71 309.80 L 453.07 286.01 L 465.43 296.54 L 477.79 271.60 L 490.14 278.85 L 502.50 256.96 L 514.86 123.98 L 527.21 175.75 L 539.57 212.66 L 551.93 109.03 L 564.29 196.19 L 576.64 336.57 L 589.00 309.88 L 601.36 285.33 L 613.71 232.33 L 626.07 267.94 L 638.43 285.48 L 650.79 299.36 L 663.14 266.80 L 675.50 256.12 L 687.86 236.53 L 700.21 192.98 L 712.57 135.80 L 724.93 183.68 L 737.29 184.67 L 749.64 190.93 L 762.00 255.59 L 774.36 294.63 L 786.71 209.53 L 799.07 237.06 L 811.43 167.36 L 823.79 60.00 L 836.14 70.45 L 848.50 66.18 L 860.86 146.17 L 873.21 277.24 L 885.57 326.96 L 897.93 337.79 L 910.29 375.00 L 922.64 333.06 L 935.00 308.20" fill="none" stroke="#69a7ff" stroke-width="4" stroke-linecap="round" stroke-linejoin="round"/>
<circle cx="935.00" cy="308.20" r="6" fill="#69a7ff"/>
</svg>