<svg xmlns="http://www.w3.org/2000/svg" width="960" height="430" viewBox="0 0 960 430" role="img" aria-label="Composite score history">
<rect width="100%" height="100%" fill="#0b1020" rx="20"/>
<text x="70" y="32" fill="#f5f7fb" font-family="Inter, Arial, sans-serif" font-size="24" font-weight="700">Composite score history</text>
<text x="70" y="52" fill="#93a4c3" font-family="Inter, Arial, sans-serif" font-size="13">Trailing 80 sessions through 2025-12-02</text>
<line x1="70" x2="935" y1="375.00" y2="375.00" stroke="#27314e" stroke-width="1"/>
<text x="58" y="379.00" text-anchor="end" fill="#93a4c3" font-family="Inter, Arial, sans-serif" font-size="12">0</text>
<line x1="70" x2="935" y1="312.00" y2="312.00" stroke="#27314e" stroke-width="1"/>
<text x="58" y="316.00" text-anchor="end" fill="#93a4c3" font-family="Inter, Arial, sans-serif" font-size="12">8</text>
<line x1="70" x2="935" y1="249.00" y2="249.00" stroke="#27314e" stroke-width="1"/>
<text x="58" y="253.00" text-anchor="end" fill="#93a4c3" font-family="Inter, Arial, sans-serif" font-size="12">17</text>
<line x1="70" x2="935" y1="186.00" y2="186.00" stroke="#27314e" stroke-width="1"/>
<text x="58" y="190.00" text-anchor="end" fill="#93a4c3" font-family="Inter, Arial, sans-serif" font-size="12">25</text>
<line x1="70" x2="935" y1="123.00" y2="123.00" stroke="#27314e" stroke-width="1"/>
<text x="58" y="127.00" text-anchor="end" fill="#93a4c3" font-family="Inter, Arial, sans-serif" font-size="12">33</text>
<line x1="70" x2="935" y1="60.00" y2="60.00" stroke="#27314e" stroke-width="1"/>
<text x="58" y="64.00" text-anchor="end" fill="#93a4c3" font-family="Inter, Arial, sans-serif" font-size="12">41</text>
<text x="70.00" y="412" text-anchor="middle" fill="#93a4c3" font-family="Inter, Arial, sans-serif" font-size="12">2025-08-07</text>
<text x="507.97" y="412" text-anchor="middle" fill="#93a4c3" font-family="Inter, Arial, sans-serif" font-size="12">2025-10-03</text>
<text x="935.00" y="412" text-anchor="middle" fill="#93a4c3" font-family="Inter, Arial, sans-serif" font-size="12">2025-12-02</text>
<path d="M 70.00 264.97 L 80.95 249.03 L 91.90 237.90 L 102.85 297.53 L 113.80 312.70 L 124.75 296.69 L 135.70 288.91 L 146.65 290.05 L 157.59 236.07 L 168.54 198.55 L 179.49 168.13 L 190.44 254.83 L 201.39 233.17 L 212.34 245.90 L 223.29 258.71 L 234.24 293.71 L 245.19 259.71 L 256.14 225.47 L 267.09 243.31 L 278.04 278.39 L 288.99 265.27 L 299.94 295.39 L 310.89 309.58 L 321.84 305.99 L 332.78 310.95 L 343.73 297.45 L 354.68 295.09 L 365.63 293.87 L 376.58 287.46 L 387.53 253.38 L 398.48 288.22 L 409.43 266.64 L 420.38 279.46 L 431.33 266.03 L 442.28 222.49 L 453.23 245.75 L 464.18 247.43 L 475.13 259.32 L 486.08 297.76 L 497.03 309.80 L 507.97 286.01 L 518.92 296.54 L 529.87 271.60 L 540.82 278.85 L 551.77 256.96 L 562.72 123.98 L 573.67 175.75 L 584.62 212.66 L 595.57 109.03 L 606.52 196.19 L 617.47 336.57 L 628.42 309.88 L 639.37 285.33 L 650.32 232.33 L 661.27 267.94 L 672.22 285.48 L 683.16 299.36 L 694.11 266.80 L 705.06 256.12 L 716.01 236.53 L 726.96 192.98 L 737.91 135.80 L 748.86 183.68 L 759.81 184.67 L 770.76 190.93 L 781.71 255.59 L 792.66 294.63 L 803.61 209.53 L 814.56 237.06 L 825.51 167.36 L 836.46 60.00 L 847.41 70.45 L 858.35 66.18 L 869.30 146.17 L 880.25 277.24 L 891.20 326.96 L 902.15 337.79 L 913.10 375.00 L 924.05 333.06 L 935.00 308.20" fill="none" stroke="#69a7ff" stroke-width="4" stroke-linecap="round" stroke-linejoin="round"/>
<circle cx="935.00" cy="308.20" r="6" fill="#69a7ff"/>
</svg>