<svg xmlns="http://www.w3.org/2000/svg" width="960" height="430" viewBox="0 0 960 430" role="img" aria-label="Composite score history">
<rect width="100%" height="100%" fill="#0b1020" rx="20"/>
<text x="70" y="32" fill="#f5f7fb" font-family="Inter, Arial, sans-serif" font-size="24" font-weight="700">Composite score history</text>
<text x="70" y="52" fill="#93a4c3" font-family="Inter, Arial, sans-serif" font-size="13">Trailing 70 sessions through 2025-12-02</text>
<line x1="70" x2="935" y1="375.00" y2="375.00" stroke="#27314e" stroke-width="1"/>
<text x="58" y="379.00" text-anchor="end" fill="#93a4c3" font-family="Inter, Arial, sans-serif" font-size="12">0</text>
<line x1="70" x2="935" y1="312.00" y2="312.00" stroke="#27314e" stroke-width="1"/>
<text x="58" y="316.00" text-anchor="end" fill="#93a4c3" font-family="Inter, Arial, sans-serif" font-size="12">8</text>
<line x1="70" x2="935" y1="249.00" y2="249.00" stroke="#27314e" stroke-width="1"/>
<text x="58" y="253.00" text-anchor="end" fill="#93a4c3" font-family="Inter, Arial, sans-serif" font-size="12">17</text>
<line x1="70" x2="935" y1="186.00" y2="186.00" stroke="#27314e" stroke-width="1"/>
<text x="58" y="190.00" text-anchor="end" fill="#93a4c3" font-family="Inter, Arial, sans-serif" font-size="12">25</text>
<line x1="70" x2="935" y1="123.00" y2="123.00" stroke="#27314e" stroke-width="1"/>
<text x="58" y="127.00" text-anchor="end" fill="#93a4c3" font-family="Inter, Arial, sans-serif" font-size="12">33</text>
<line x1="70" x2="935" y1="60.00" y2="60.00" stroke="#27314e" stroke-width="1"/>
<text x="58" y="64.00" text-anchor="end" fill="#93a4c3" font-family="Inter, Arial, sans-serif" font-size="12">41</text>
<text x="70.00" y="412" text-anchor="middle" fill="#93a4c3" font-family="Inter, Arial, sans-serif" font-size="12">2025-08-21</text>
<text x="508.77" y="412" text-anchor="middle" fill="#93a4c3" font-family="Inter, Arial, sans-serif" font-size="12">2025-10-10</text>
<text x="935.00" y="412" text-anchor="middle" fill="#93a4c3" font-family="Inter, Arial, sans-serif" font-size="12">2025-12-02</text>
<path d="M 70.00 257.80 L 82.54 286.32 L 95.07 267.25 L 107.61 277.40 L 120.14 281.74 L 132.68 293.71 L 145.22 259.71 L 157.75 225.47 L 170.29 243.31 L 182.83 278.39 L 195.36 265.27 L 207.90 295.39 L 220.43 309.58 L 232.97 305.99 L 245.51 310.95 L 258.04 297.45 L 270.58 295.09 L 283.12 293.87 L 295.65 287.46 L 308.19 253.38 L 320.72 288.22 L 333.26 266.64 L 345.80 279.46 L 358.33 266.03 L 370.87 222.49 L 383.41 245.75 L 395.94 247.43 L 408.48 259.32 L 421.01 297.76 L 433.55 309.80 L 446.09 286.01 L 458.62 296.54 L 471.16 271.60 L 483.70 278.85 L 496.23 256.96 L 508.77 123.98 L 521.30 175.75 L 533.84 212.66 L 546.38 109.03 L 558.91 196.19 L 571.45 336.57 L 583.99 309.88 L 596.52 285.33 L 609.06 232.33 L 621.59 267.94 L 634.13 285.48 L 646.67 299.36 L 659.20 266.80 L 671.74 256.12 L 684.28 236.53 L 696.81 192.98 L 709.35 135.80 L 721.88 183.68 L 734.42 184.67 L 746.96 190.93 L 759.49 255.59 L 772.03 294.63 L 784.57 209.53 L 797.10 237.06 L 809.64 167.36 L 822.17 60.00 L 834.71 70.45 L 847.25 66.18 L 859.78 146.17 L 872.32 277.24 L 884.86 326.96 L 897.39 337.79 L 909.93 375.00 L 922.46 333.06 L 935.00 308.20" fill="none" stroke="#69a7ff" stroke-width="4" stroke-linecap="round" stroke-linejoin="round"/>
<circle cx="935.00" cy="308.20" r="6" fill="#69a7ff"/>
</svg>