<svg xmlns="http://www.w3.org/2000/svg" width="960" height="430" viewBox="0 0 960 430" role="img" aria-label="Composite score history">
<rect width="100%" height="100%" fill="#0b1020" rx="20"/>
<text x="70" y="32" fill="#f5f7fb" font-family="Inter, Arial, sans-serif" font-size="24" font-weight="700">Composite score history</text>
<text x="70" y="52" fill="#93a4c3" font-family="Inter, Arial, sans-serif" font-size="13">Trailing 83 sessions through 2025-12-02</text>
<line x1="70" x2="935" y1="375.00" y2="375.00" stroke="#27314e" stroke-width="1"/>
<text x="58" y="379.00" text-anchor="end" fill="#93a4c3" font-family="Inter, Arial, sans-serif" font-size="12">0</text>
<line x1="70" x2="935" y1="312.00" y2="312.00" stroke="#27314e" stroke-width="1"/>
<text x="58" y="316.00" text-anchor="end" fill="#93a4c3" font-family="Inter, Arial, sans-serif" font-size="12">8</text>
<line x1="70" x2="935" y1="249.00" y2="249.00" stroke="#27314e" stroke-width="1"/>
<text x="58" y="253.00" text-anchor="end" fill="#93a4c3" font-family="Inter, Arial, sans-serif" font-size="12">17</text>
<line x1="70" x2="935" y1="186.00" y2="186.00" stroke="#27314e" stroke-width="1"/>
<text x="58" y="190.00" text-anchor="end" fill="#93a4c3" font-family="Inter, Arial, sans-serif" font-size="12">25</text>
<line x1="70" x2="935" y1="123.00" y2="123.00" stroke="#27314e" stroke-width="1"/>
<text x="58" y="127.00" text-anchor="end" fill="#93a4c3" font-family="Inter, Arial, sans-serif" font-size="12">33</text>
<line x1="70" x2="935" y1="60.00" y2="60.00" stroke="#27314e" stroke-width="1"/>
<text x="58" y="64.00" text-anchor="end" fill="#93a4c3" font-family="Inter, Arial, sans-serif" font-size="12">41</text>
<text x="70.00" y="412" text-anchor="middle" fill="#93a4c3" font-family="Inter, Arial, sans-serif" font-size="12">2025-08-04</text>
<text x="502.50" y="412" text-anchor="middle" fill="#93a4c3" font-family="Inter, Arial, sans-serif" font-size="12">2025-10-01</text>
<text x="935.00" y="412" text-anchor="middle" fill="#93a4c3" font-family="Inter, Arial, sans-serif" font-size="12">2025-12-02</text>
<path d="M 70.00 261.00 L 80.55 227.53 L 91.10 271.07 L 101.65 258.87 L 112.20 242.93 L 122.74 231.80 L 133.29 310.11 L 143.84 307.29 L 154.39 296.69 L 164.94 288.91 L 175.49 290.05 L 186.04 236.07 L 196.59 198.55 L 207.13 168.13 L 217.68 254.83 L 228.23 233.17 L 238.78 245.90 L 249.33 258.71 L 259.88 293.71 L 270.43 259.71 L 280.98 225.47 L 291.52 243.31 L 302.07 278.39 L 312.62 265.27 L 323.17 295.39 L 333.72 309.58 L 344.27 305.99 L 354.82 310.95 L 365.37 297.45 L 375.91 295.09 L 386.46 293.87 L 397.01 287.46 L 407.56 253.38 L 418.11 288.22 L 428.66 266.64 L 439.21 279.46 L 449.76 266.03 L 460.30 222.49 L 470.85 245.75 L 481.40 247.43 L 491.95 259.32 L 502.50 297.76 L 513.05 309.80 L 523.60 286.01 L 534.15 296.54 L 544.70 271.60 L 555.24 278.85 L 565.79 256.96 L 576.34 123.98 L 586.89 175.75 L 597.44 212.66 L 607.99 109.03 L 618.54 196.19 L 629.09 336.57 L 639.63 309.88 L 650.18 285.33 L 660.73 232.33 L 671.28 267.94 L 681.83 285.48 L 692.38 299.36 L 702.93 266.80 L 713.48 256.12 L 724.02 236.53 L 734.57 192.98 L 745.12 135.80 L 755.67 183.68 L 766.22 184.67 L 776.77 190.93 L 787.32 255.59 L 797.87 294.63 L 808.41 209.53 L 818.96 237.06 L 829.51 167.36 L 840.06 60.00 L 850.61 70.45 L 861.16 66.18 L 871.71 146.17 L 882.26 277.24 L 892.80 326.96 L 903.35 337.79 L 913.90 375.00 L 924.45 333.06 L 935.00 308.20" fill="none" stroke="#69a7ff" stroke-width="4" stroke-linecap="round" stroke-linejoin="round"/>
<circle cx="935.00" cy="308.20" r="6" fill="#69a7ff"/>
</svg>