<svg xmlns="http://www.w3.org/2000/svg" width="960" height="430" viewBox="0 0 960 430" role="img" aria-label="Composite score history">
<rect width="100%" height="100%" fill="#0b1020" rx="20"/>
<text x="70" y="32" fill="#f5f7fb" font-family="Inter, Arial, sans-serif" font-size="24" font-weight="700">Composite score history</text>
<text x="70" y="52" fill="#93a4c3" font-family="Inter, Arial, sans-serif" font-size="13">Trailing 88 sessions through 2025-12-02</text>
<line x1="70" x2="935" y1="375.00" y2="375.00" stroke="#27314e" stroke-width="1"/>
<text x="58" y="379.00" text-anchor="end" fill="#93a4c3" font-family="Inter, Arial, sans-serif" font-size="12">0</text>
<line x1="70" x2="935" y1="312.00" y2="312.00" stroke="#27314e" stroke-width="1"/>
<text x="58" y="316.00" text-anchor="end" fill="#93a4c3" font-family="Inter, Arial, sans-serif" font-size="12">8</text>
<line x1="70" x2="935" y1="249.00" y2="249.00" stroke="#27314e" stroke-width="1"/>
<text x="58" y="253.00" text-anchor="end" fill="#93a4c3" font-family="Inter, Arial, sans-serif" font-size="12">17</text>
<line x1="70" x2="935" y1="186.00" y2="186.00" stroke="#27314e" stroke-width="1"/>
<text x="58" y="190.00" text-anchor="end" fill="#93a4c3" font-family="Inter, Arial, sans-serif" font-size="12">25</text>
<line x1="70" x2="935" y1="123.00" y2="123.00" stroke="#27314e" stroke-width="1"/>
<text x="58" y="127.00" text-anchor="end" fill="#93a4c3" font-family="Inter, Arial, sans-serif" font-size="12">33</text>
<line x1="70" x2="935" y1="60.00" y2="60.00" stroke="#27314e" stroke-width="1"/>
<text x="58" y="64.00" text-anchor="end" fill="#93a4c3" font-family="Inter, Arial, sans-serif" font-size="12">41</text>
<text x="70.00" y="412" text-anchor="middle" fill="#93a4c3" font-family="Inter, Arial, sans-serif" font-size="12">2025-07-28</text>
<text x="507.47" y="412" text-anchor="middle" fill="#93a4c3" font-family="Inter, Arial, sans-serif" font-size="12">2025-09-29</text>
<text x="935.00" y="412" text-anchor="middle" fill="#93a4c3" font-family="Inter, Arial, sans-serif" font-size="12">2025-12-02</text>
<path d="M 70.00 257.42 L 79.94 231.42 L 89.89 219.90 L 99.83 195.88 L 109.77 119.02 L 119.71 207.47 L 129.66 201.30 L 139.60 246.59 L 149.54 265.20 L 159.48 259.86 L 169.43 231.80 L 179.37 310.11 L 189.31 307.29 L 199.25 296.69 L 209.20 288.91 L 219.14 290.05 L 229.08 236.07 L 239.02 198.55 L 248.97 168.13 L 258.91 254.83 L 268.85 233.17 L 278.79 245.90 L 288.74 258.71 L 298.68 293.71 L 308.62 259.71 L 318.56 225.47 L 328.51 243.31 L 338.45 278.39 L 348.39 265.27 L 358.33 295.39 L 368.28 309.58 L 378.22 305.99 L 388.16 310.95 L 398.10 297.45 L 408.05 295.09 L 417.99 293.87 L 427.93 287.46 L 437.87 253.38 L 447.82 288.22 L 457.76 266.64 L 467.70 279.46 L 477.64 266.03 L 487.59 222.49 L 497.53 245.75 L 507.47 247.43 L 517.41 259.32 L 527.36 297.76 L 537.30 309.80 L 547.24 286.01 L 557.18 296.54 L 567.13 271.60 L 577.07 278.85 L 587.01 256.96 L 596.95 123.98 L 606.90 175.75 L 616.84 212.66 L 626.78 109.03 L 636.72 196.19 L 646.67 336.57 L 656.61 309.88 L 666.55 285.33 L 676.49 232.33 L 686.44 267.94 L 696.38 285.48 L 706.32 299.36 L 716.26 266.80 L 726.21 256.12 L 736.15 236.53 L 746.09 192.98 L 756.03 135.80 L 765.98 183.68 L 775.92 184.67 L 785.86 190.93 L 795.80 255.59 L 805.75 294.63 L 815.69 209.53 L 825.63 237.06 L 835.57 167.36 L 845.52 60.00 L 855.46 70.45 L 865.40 66.18 L 875.34 146.17 L 885.29 277.24 L 895.23 326.96 L 905.17 337.79 L 915.11 375.00 L 925.06 333.06 L 935.00 308.20" fill="none" stroke="#69a7ff" stroke-width="4" stroke-linecap="round" stroke-linejoin="round"/>
<circle cx="935.00" cy="308.20" r="6" fill="#69a7ff"/>
</svg>