<svg xmlns="http://www.w3.org/2000/svg" width="960" height="430" viewBox="0 0 960 430" role="img" aria-label="Composite score history">
<rect width="100%" height="100%" fill="#0b1020" rx="20"/>
<text x="70" y="32" fill="#f5f7fb" font-family="Inter, Arial, sans-serif" font-size="24" font-weight="700">Composite score history</text>
<text x="70" y="52" fill="#93a4c3" font-family="Inter, Arial, sans-serif" font-size="13">Trailing 62 sessions through 2025-12-02</text>
<line x1="70" x2="935" y1="375.00" y2="375.00" stroke="#27314e" stroke-width="1"/>
<text x="58" y="379.00" text-anchor="end" fill="#93a4c3" font-family="Inter, Arial, sans-serif" font-size="12">0</text>
<line x1="70" x2="935" y1="312.00" y2="312.00" stroke="#27314e" stroke-width="1"/>
<text x="58" y="316.00" text-anchor="end" fill="#93a4c3" font-family="Inter, Arial, sans-serif" font-size="12">8</text>
<line x1="70" x2="935" y1="249.00" y2="249.00" stroke="#27314e" stroke-width="1"/>
<text x="58" y="253.00" text-anchor="end" fill="#93a4c3" font-family="Inter, Arial, sans-serif" font-size="12">17</text>
<line x1="70" x2="935" y1="186.00" y2="186.00" stroke="#27314e" stroke-width="1"/>
<text x="58" y="190.00" text-anchor="end" fill="#93a4c3" font-family="Inter, Arial, sans-serif" font-size="12">25</text>
<line x1="70" x2="935" y1="123.00" y2="123.00" stroke="#27314e" stroke-width="1"/>
<text x="58" y="127.00" text-anchor="end" fill="#93a4c3" font-family="Inter, Arial, sans-serif" font-size="12">33</text>
<line x1="70" x2="935" y1="60.00" y2="60.00" stroke="#27314e" stroke-width="1"/>
<text x="58" y="64.00" text-anchor="end" fill="#93a4c3" font-family="Inter, Arial, sans-serif" font-size="12">41</text>
<text x="70.00" y="412" text-anchor="middle" fill="#93a4c3" font-family="Inter, Arial, sans-serif" font-size="12">2025-09-03</text>
<text x="509.59" y="412" text-anchor="middle" fill="#93a4c3" font-family="Inter, Arial, sans-serif" font-size="12">2025-10-17</text>
<text x="935.00" y="412" text-anchor="middle" fill="#93a4c3" font-family="Inter, Arial, sans-serif" font-size="12">2025-12-02</text>
<path d="M 70.00 266.11 L 84.18 291.43 L 98.36 292.42 L 112.54 298.98 L 126.72 299.74 L 140.90 305.99 L 155.08 310.95 L 169.26 297.45 L 183.44 295.09 L 197.62 293.87 L 211.80 287.46 L 225.98 253.38 L 240.16 288.22 L 254.34 266.64 L 268.52 279.46 L 282.70 266.03 L 296.89 222.49 L 311.07 245.75 L 325.25 247.43 L 339.43 259.32 L 353.61 297.76 L 367.79 309.80 L 381.97 286.01 L 396.15 296.54 L 410.33 271.60 L 424.51 278.85 L 438.69 256.96 L 452.87 123.98 L 467.05 175.75 L 481.23 212.66 L 495.41 109.03 L 509.59 196.19 L 523.77 336.57 L 537.95 309.88 L 552.13 285.33 L 566.31 232.33 L 580.49 267.94 L 594.67 285.48 L 608.85 299.36 L 623.03 266.80 L 637.21 256.12 L 651.39 236.53 L 665.57 192.98 L 679.75 135.80 L 693.93 183.68 L 708.11 184.67 L 722.30 190.93 L 736.48 255.59 L 750.66 294.63 L 764.84 209.53 L 779.02 237.06 L 793.20 167.36 L 807.38 60.00 L 821.56 70.45 L 835.74 66.18 L 849.92 146.17 L 864.10 277.24 L 878.28 326.96 L 892.46 337.79 L 906.64 375.00 L 920.82 333.06 L 935.00 308.20" fill="none" stroke="#69a7ff" stroke-width="4" stroke-linecap="round" stroke-linejoin="round"/>
<circle cx="935.00" cy="308.20" r="6" fill="#69a7ff"/>
</svg>