<svg xmlns="http://www.w3.org/2000/svg" width="960" height="430" viewBox="0 0 960 430" role="img" aria-label="Composite score history">
<rect width="100%" height="100%" fill="#0b1020" rx="20"/>
<text x="70" y="32" fill="#f5f7fb" font-family="Inter, Arial, sans-serif" font-size="24" font-weight="700">Composite score history</text>
<text x="70" y="52" fill="#93a4c3" font-family="Inter, Arial, sans-serif" font-size="13">Trailing 90 sessions through 2026-02-25</text>
<line x1="70" x2="935" y1="375.00" y2="375.00" stroke="#27314e" stroke-width="1"/>
<text x="58" y="379.00" text-anchor="end" fill="#93a4c3" font-family="Inter, Arial, sans-serif" font-size="12">0</text>
<line x1="70" x2="935" y1="312.00" y2="312.00" stroke="#27314e" stroke-width="1"/>
<text x="58" y="316.00" text-anchor="end" fill="#93a4c3" font-family="Inter, Arial, sans-serif" font-size="12">8</text>
<line x1="70" x2="935" y1="249.00" y2="249.00" stroke="#27314e" stroke-width="1"/>
<text x="58" y="253.00" text-anchor="end" fill="#93a4c3" font-family="Inter, Arial, sans-serif" font-size="12">17</text>
<line x1="70" x2="935" y1="186.00" y2="186.00" stroke="#27314e" stroke-width="1"/>
<text x="58" y="190.00" text-anchor="end" fill="#93a4c3" font-family="Inter, Arial, sans-serif" font-size="12">25</text>
<line x1="70" x2="935" y1="123.00" y2="123.00" stroke="#27314e" stroke-width="1"/>
<text x="58" y="127.00" text-anchor="end" fill="#93a4c3" font-family="Inter, Arial, sans-serif" font-size="12">33</text>
<line x1="70" x2="935" y1="60.00" y2="60.00" stroke="#27314e" stroke-width="1"/>
<text x="58" y="64.00" text-anchor="end" fill="#93a4c3" font-family="Inter, Arial, sans-serif" font-size="12">41</text>
<text x="70.00" y="412" text-anchor="middle" fill="#93a4c3" font-family="Inter, Arial, sans-serif" font-size="12">2025-10-15</text>
<text x="507.36" y="412" text-anchor="middle" fill="#93a4c3" font-family="Inter, Arial, sans-serif" font-size="12">2025-12-19</text>
<text x="935.00" y="412" text-anchor="middle" fill="#93a4c3" font-family="Inter, Arial, sans-serif" font-size="12">2026-02-25</text>
<path d="M 70.00 212.66 L 79.72 109.03 L 89.44 196.19 L 99.16 336.57 L 108.88 309.88 L 118.60 285.33 L 128.31 232.33 L 138.03 267.94 L 147.75 285.48 L 157.47 299.36 L 167.19 266.80 L 176.91 256.12 L 186.63 236.53 L 196.35 192.98 L 206.07 135.80 L 215.79 183.68 L 225.51 184.67 L 235.22 190.93 L 244.94 255.59 L 254.66 294.63 L 264.38 209.53 L 274.10 237.06 L 283.82 167.36 L 293.54 60.00 L 303.26 70.45 L 312.98 66.18 L 322.70 146.17 L 332.42 277.24 L 342.13 326.96 L 351.85 337.79 L 361.57 375.00 L 371.29 333.06 L 381.01 308.20 L 390.73 290.89 L 400.45 264.74 L 410.17 247.28 L 419.89 278.92 L 429.61 241.33 L 439.33 272.67 L 449.04 307.67 L 458.76 264.05 L 468.48 273.13 L 478.20 273.58 L 487.92 183.07 L 497.64 209.46 L 507.36 304.77 L 517.08 329.32 L 526.80 342.21 L 536.52 374.85 L 546.24 360.82 L 555.96 332.91 L 565.67 310.11 L 575.39 254.37 L 585.11 241.41 L 594.83 250.25 L 604.55 274.96 L 614.27 271.37 L 623.99 287.00 L 633.71 289.90 L 643.43 256.43 L 653.15 234.08 L 662.87 237.06 L 672.58 246.21 L 682.30 211.90 L 692.02 84.17 L 701.74 172.78 L 711.46 214.11 L 721.18 200.15 L 730.90 248.88 L 740.62 293.33 L 750.34 261.99 L 760.06 228.59 L 769.78 226.46 L 779.49 237.44 L 789.21 170.49 L 798.93 173.85 L 808.65 111.24 L 818.37 253.00 L 828.09 248.65 L 837.81 271.37 L 847.53 276.02 L 857.25 258.10 L 866.97 183.61 L 876.69 172.93 L 886.40 205.34 L 896.12 191.99 L 905.84 278.62 L 915.56 243.46 L 925.28 272.82 L 935.00 287.61" fill="none" stroke="#69a7ff" stroke-width="4" stroke-linecap="round" stroke-linejoin="round"/>
<circle cx="935.00" cy="287.61" r="6" fill="#69a7ff"/>
</svg>