<svg xmlns="http://www.w3.org/2000/svg" width="960" height="430" viewBox="0 0 960 430" role="img" aria-label="Composite score history">
<rect width="100%" height="100%" fill="#0b1020" rx="20"/>
<text x="70" y="32" fill="#f5f7fb" font-family="Inter, Arial, sans-serif" font-size="24" font-weight="700">Composite score history</text>
<text x="70" y="52" fill="#93a4c3" font-family="Inter, Arial, sans-serif" font-size="13">Trailing 83 sessions through 2026-02-25</text>
<line x1="70" x2="935" y1="375.00" y2="375.00" stroke="#27314e" stroke-width="1"/>
<text x="58" y="379.00" text-anchor="end" fill="#93a4c3" font-family="Inter, Arial, sans-serif" font-size="12">0</text>
<line x1="70" x2="935" y1="312.00" y2="312.00" stroke="#27314e" stroke-width="1"/>
<text x="58" y="316.00" text-anchor="end" fill="#93a4c3" font-family="Inter, Arial, sans-serif" font-size="12">8</text>
<line x1="70" x2="935" y1="249.00" y2="249.00" stroke="#27314e" stroke-width="1"/>
<text x="58" y="253.00" text-anchor="end" fill="#93a4c3" font-family="Inter, Arial, sans-serif" font-size="12">17</text>
<line x1="70" x2="935" y1="186.00" y2="186.00" stroke="#27314e" stroke-width="1"/>
<text x="58" y="190.00" text-anchor="end" fill="#93a4c3" font-family="Inter, Arial, sans-serif" font-size="12">25</text>
<line x1="70" x2="935" y1="123.00" y2="123.00" stroke="#27314e" stroke-width="1"/>
<text x="58" y="127.00" text-anchor="end" fill="#93a4c3" font-family="Inter, Arial, sans-serif" font-size="12">33</text>
<line x1="70" x2="935" y1="60.00" y2="60.00" stroke="#27314e" stroke-width="1"/>
<text x="58" y="64.00" text-anchor="end" fill="#93a4c3" font-family="Inter, Arial, sans-serif" font-size="12">41</text>
<text x="70.00" y="412" text-anchor="middle" fill="#93a4c3" font-family="Inter, Arial, sans-serif" font-size="12">2025-10-24</text>
<text x="502.50" y="412" text-anchor="middle" fill="#93a4c3" font-family="Inter, Arial, sans-serif" font-size="12">2025-12-24</text>
<text x="935.00" y="412" text-anchor="middle" fill="#93a4c3" font-family="Inter, Arial, sans-serif" font-size="12">2026-02-25</text>
<path d="M 70.00 279.53 L 80.55 309.73 L 91.10 311.79 L 101.65 264.43 L 112.20 237.14 L 122.74 236.53 L 133.29 192.98 L 143.84 135.80 L 154.39 183.68 L 164.94 184.67 L 175.49 190.93 L 186.04 255.59 L 196.59 294.63 L 207.13 209.53 L 217.68 237.06 L 228.23 167.36 L 238.78 60.00 L 249.33 70.45 L 259.88 66.18 L 270.43 146.17 L 280.98 277.24 L 291.52 326.96 L 302.07 337.79 L 312.62 375.00 L 323.17 333.06 L 333.72 308.20 L 344.27 290.89 L 354.82 264.74 L 365.37 247.28 L 375.91 278.92 L 386.46 241.33 L 397.01 272.67 L 407.56 307.67 L 418.11 264.05 L 428.66 273.13 L 439.21 273.58 L 449.76 183.07 L 460.30 209.46 L 470.85 304.77 L 481.40 329.32 L 491.95 342.21 L 502.50 374.85 L 513.05 360.82 L 523.60 332.91 L 534.15 310.11 L 544.70 254.37 L 555.24 241.41 L 565.79 250.25 L 576.34 274.96 L 586.89 271.37 L 597.44 287.00 L 607.99 289.90 L 618.54 256.43 L 629.09 234.08 L 639.63 237.06 L 650.18 246.21 L 660.73 211.90 L 671.28 84.17 L 681.83 172.78 L 692.38 214.11 L 702.93 200.15 L 713.48 248.88 L 724.02 293.33 L 734.57 261.99 L 745.12 228.59 L 755.67 226.46 L 766.22 237.44 L 776.77 170.49 L 787.32 173.85 L 797.87 111.24 L 808.41 253.00 L 818.96 248.65 L 829.51 271.37 L 840.06 276.02 L 850.61 258.10 L 861.16 183.61 L 871.71 172.93 L 882.26 205.34 L 892.80 191.99 L 903.35 278.62 L 913.90 243.46 L 924.45 272.82 L 935.00 287.61" fill="none" stroke="#69a7ff" stroke-width="4" stroke-linecap="round" stroke-linejoin="round"/>
<circle cx="935.00" cy="287.61" r="6" fill="#69a7ff"/>
</svg>