<svg xmlns="http://www.w3.org/2000/svg" width="960" height="430" viewBox="0 0 960 430" role="img" aria-label="Composite score history">
<rect width="100%" height="100%" fill="#0b1020" rx="20"/>
<text x="70" y="32" fill="#f5f7fb" font-family="Inter, Arial, sans-serif" font-size="24" font-weight="700">Composite score history</text>
<text x="70" y="52" fill="#93a4c3" font-family="Inter, Arial, sans-serif" font-size="13">Trailing 46 sessions through 2025-12-04</text>
<line x1="70" x2="935" y1="375.00" y2="375.00" stroke="#27314e" stroke-width="1"/>
<text x="58" y="379.00" text-anchor="end" fill="#93a4c3" font-family="Inter, Arial, sans-serif" font-size="12">0</text>
<line x1="70" x2="935" y1="312.00" y2="312.00" stroke="#27314e" stroke-width="1"/>
<text x="58" y="316.00" text-anchor="end" fill="#93a4c3" font-family="Inter, Arial, sans-serif" font-size="12">8</text>
<line x1="70" x2="935" y1="249.00" y2="249.00" stroke="#27314e" stroke-width="1"/>
<text x="58" y="253.00" text-anchor="end" fill="#93a4c3" font-family="Inter, Arial, sans-serif" font-size="12">17</text>
<line x1="70" x2="935" y1="186.00" y2="186.00" stroke="#27314e" stroke-width="1"/>
<text x="58" y="190.00" text-anchor="end" fill="#93a4c3" font-family="Inter, Arial, sans-serif" font-size="12">25</text>
<line x1="70" x2="935" y1="123.00" y2="123.00" stroke="#27314e" stroke-width="1"/>
<text x="58" y="127.00" text-anchor="end" fill="#93a4c3" font-family="Inter, Arial, sans-serif" font-size="12">33</text>
<line x1="70" x2="935" y1="60.00" y2="60.00" stroke="#27314e" stroke-width="1"/>
<text x="58" y="64.00" text-anchor="end" fill="#93a4c3" font-family="Inter, Arial, sans-serif" font-size="12">41</text>
<text x="70.00" y="412" text-anchor="middle" fill="#93a4c3" font-family="Inter, Arial, sans-serif" font-size="12">2025-09-29</text>
<text x="512.11" y="412" text-anchor="middle" fill="#93a4c3" font-family="Inter, Arial, sans-serif" font-size="12">2025-10-31</text>
<text x="935.00" y="412" text-anchor="middle" fill="#93a4c3" font-family="Inter, Arial, sans-serif" font-size="12">2025-12-04</text>
<path d="M 70.00 272.14 L 89.22 274.42 L 108.44 290.66 L 127.67 289.75 L 146.89 286.93 L 166.11 296.54 L 185.33 271.60 L 204.56 278.85 L 223.78 256.96 L 243.00 123.98 L 262.22 175.75 L 281.44 212.66 L 300.67 109.03 L 319.89 196.19 L 339.11 336.57 L 358.33 309.88 L 377.56 285.33 L 396.78 232.33 L 416.00 267.94 L 435.22 285.48 L 454.44 299.36 L 473.67 266.80 L 492.89 256.12 L 512.11 236.53 L 531.33 192.98 L 550.56 135.80 L 569.78 183.68 L 589.00 184.67 L 608.22 190.93 L 627.44 255.59 L 646.67 294.63 L 665.89 209.53 L 685.11 237.06 L 704.33 167.36 L 723.56 60.00 L 742.78 70.45 L 762.00 66.18 L 781.22 146.17 L 800.44 277.24 L 819.67 326.96 L 838.89 337.79 L 858.11 375.00 L 877.33 333.06 L 896.56 308.20 L 915.78 290.89 L 935.00 264.74" fill="none" stroke="#69a7ff" stroke-width="4" stroke-linecap="round" stroke-linejoin="round"/>
<circle cx="935.00" cy="264.74" r="6" fill="#69a7ff"/>
</svg>