<svg xmlns="http://www.w3.org/2000/svg" width="960" height="430" viewBox="0 0 960 430" role="img" aria-label="Composite score history">
<rect width="100%" height="100%" fill="#0b1020" rx="20"/>
<text x="70" y="32" fill="#f5f7fb" font-family="Inter, Arial, sans-serif" font-size="24" font-weight="700">Composite score history</text>
<text x="70" y="52" fill="#93a4c3" font-family="Inter, Arial, sans-serif" font-size="13">Trailing 85 sessions through 2025-12-04</text>
<line x1="70" x2="935" y1="375.00" y2="375.00" stroke="#27314e" stroke-width="1"/>
<text x="58" y="379.00" text-anchor="end" fill="#93a4c3" font-family="Inter, Arial, sans-serif" font-size="12">0</text>
<line x1="70" x2="935" y1="312.00" y2="312.00" stroke="#27314e" stroke-width="1"/>
<text x="58" y="316.00" text-anchor="end" fill="#93a4c3" font-family="Inter, Arial, sans-serif" font-size="12">8</text>
<line x1="70" x2="935" y1="249.00" y2="249.00" stroke="#27314e" stroke-width="1"/>
<text x="58" y="253.00" text-anchor="end" fill="#93a4c3" font-family="Inter, Arial, sans-serif" font-size="12">17</text>
<line x1="70" x2="935" y1="186.00" y2="186.00" stroke="#27314e" stroke-width="1"/>
<text x="58" y="190.00" text-anchor="end" fill="#93a4c3" font-family="Inter, Arial, sans-serif" font-size="12">25</text>
<line x1="70" x2="935" y1="123.00" y2="123.00" stroke="#27314e" stroke-width="1"/>
<text x="58" y="127.00" text-anchor="end" fill="#93a4c3" font-family="Inter, Arial, sans-serif" font-size="12">33</text>
<line x1="70" x2="935" y1="60.00" y2="60.00" stroke="#27314e" stroke-width="1"/>
<text x="58" y="64.00" text-anchor="end" fill="#93a4c3" font-family="Inter, Arial, sans-serif" font-size="12">41</text>
<text x="70.00" y="412" text-anchor="middle" fill="#93a4c3" font-family="Inter, Arial, sans-serif" font-size="12">2025-08-04</text>
<text x="502.50" y="412" text-anchor="middle" fill="#93a4c3" font-family="Inter, Arial, sans-serif" font-size="12">2025-10-02</text>
<text x="935.00" y="412" text-anchor="middle" fill="#93a4c3" font-family="Inter, Arial, sans-serif" font-size="12">2025-12-04</text>
<path d="M 70.00 261.00 L 80.30 227.53 L 90.60 271.07 L 100.89 258.87 L 111.19 242.93 L 121.49 231.80 L 131.79 310.11 L 142.08 307.29 L 152.38 296.69 L 162.68 288.91 L 172.98 290.05 L 183.27 236.07 L 193.57 198.55 L 203.87 168.13 L 214.17 254.83 L 224.46 233.17 L 234.76 245.90 L 245.06 258.71 L 255.36 293.71 L 265.65 259.71 L 275.95 225.47 L 286.25 243.31 L 296.55 278.39 L 306.85 265.27 L 317.14 295.39 L 327.44 309.58 L 337.74 305.99 L 348.04 310.95 L 358.33 297.45 L 368.63 295.09 L 378.93 293.87 L 389.23 287.46 L 399.52 253.38 L 409.82 288.22 L 420.12 266.64 L 430.42 279.46 L 440.71 266.03 L 451.01 222.49 L 461.31 245.75 L 471.61 247.43 L 481.90 259.32 L 492.20 297.76 L 502.50 309.80 L 512.80 286.01 L 523.10 296.54 L 533.39 271.60 L 543.69 278.85 L 553.99 256.96 L 564.29 123.98 L 574.58 175.75 L 584.88 212.66 L 595.18 109.03 L 605.48 196.19 L 615.77 336.57 L 626.07 309.88 L 636.37 285.33 L 646.67 232.33 L 656.96 267.94 L 667.26 285.48 L 677.56 299.36 L 687.86 266.80 L 698.15 256.12 L 708.45 236.53 L 718.75 192.98 L 729.05 135.80 L 739.35 183.68 L 749.64 184.67 L 759.94 190.93 L 770.24 255.59 L 780.54 294.63 L 790.83 209.53 L 801.13 237.06 L 811.43 167.36 L 821.73 60.00 L 832.02 70.45 L 842.32 66.18 L 852.62 146.17 L 862.92 277.24 L 873.21 326.96 L 883.51 337.79 L 893.81 375.00 L 904.11 333.06 L 914.40 308.20 L 924.70 290.89 L 935.00 264.74" fill="none" stroke="#69a7ff" stroke-width="4" stroke-linecap="round" stroke-linejoin="round"/>
<circle cx="935.00" cy="264.74" r="6" fill="#69a7ff"/>
</svg>