<svg xmlns="http://www.w3.org/2000/svg" width="960" height="430" viewBox="0 0 960 430" role="img" aria-label="Composite score history">
<rect width="100%" height="100%" fill="#0b1020" rx="20"/>
<text x="70" y="32" fill="#f5f7fb" font-family="Inter, Arial, sans-serif" font-size="24" font-weight="700">Composite score history</text>
<text x="70" y="52" fill="#93a4c3" font-family="Inter, Arial, sans-serif" font-size="13">Trailing 79 sessions through 2025-12-04</text>
<line x1="70" x2="935" y1="375.00" y2="375.00" stroke="#27314e" stroke-width="1"/>
<text x="58" y="379.00" text-anchor="end" fill="#93a4c3" font-family="Inter, Arial, sans-serif" font-size="12">0</text>
<line x1="70" x2="935" y1="312.00" y2="312.00" stroke="#27314e" stroke-width="1"/>
<text x="58" y="316.00" text-anchor="end" fill="#93a4c3" font-family="Inter, Arial, sans-serif" font-size="12">8</text>
<line x1="70" x2="935" y1="249.00" y2="249.00" stroke="#27314e" stroke-width="1"/>
<text x="58" y="253.00" text-anchor="end" fill="#93a4c3" font-family="Inter, Arial, sans-serif" font-size="12">17</text>
<line x1="70" x2="935" y1="186.00" y2="186.00" stroke="#27314e" stroke-width="1"/>
<text x="58" y="190.00" text-anchor="end" fill="#93a4c3" font-family="Inter, Arial, sans-serif" font-size="12">25</text>
<line x1="70" x2="935" y1="123.00" y2="123.00" stroke="#27314e" stroke-width="1"/>
<text x="58" y="127.00" text-anchor="end" fill="#93a4c3" font-family="Inter, Arial, sans-serif" font-size="12">33</text>
<line x1="70" x2="935" y1="60.00" y2="60.00" stroke="#27314e" stroke-width="1"/>
<text x="58" y="64.00" text-anchor="end" fill="#93a4c3" font-family="Inter, Arial, sans-serif" font-size="12">41</text>
<text x="70.00" y="412" text-anchor="middle" fill="#93a4c3" font-family="Inter, Arial, sans-serif" font-size="12">2025-08-12</text>
<text x="502.50" y="412" text-anchor="middle" fill="#93a4c3" font-family="Inter, Arial, sans-serif" font-size="12">2025-10-07</text>
<text x="935.00" y="412" text-anchor="middle" fill="#93a4c3" font-family="Inter, Arial, sans-serif" font-size="12">2025-12-04</text>
<path d="M 70.00 273.36 L 81.09 284.56 L 92.18 271.68 L 103.27 260.39 L 114.36 254.37 L 125.45 236.07 L 136.54 198.55 L 147.63 168.13 L 158.72 254.83 L 169.81 233.17 L 180.90 245.90 L 191.99 258.71 L 203.08 293.71 L 214.17 259.71 L 225.26 225.47 L 236.35 243.31 L 247.44 278.39 L 258.53 265.27 L 269.62 295.39 L 280.71 309.58 L 291.79 305.99 L 302.88 310.95 L 313.97 297.45 L 325.06 295.09 L 336.15 293.87 L 347.24 287.46 L 358.33 253.38 L 369.42 288.22 L 380.51 266.64 L 391.60 279.46 L 402.69 266.03 L 413.78 222.49 L 424.87 245.75 L 435.96 247.43 L 447.05 259.32 L 458.14 297.76 L 469.23 309.80 L 480.32 286.01 L 491.41 296.54 L 502.50 271.60 L 513.59 278.85 L 524.68 256.96 L 535.77 123.98 L 546.86 175.75 L 557.95 212.66 L 569.04 109.03 L 580.13 196.19 L 591.22 336.57 L 602.31 309.88 L 613.40 285.33 L 624.49 232.33 L 635.58 267.94 L 646.67 285.48 L 657.76 299.36 L 668.85 266.80 L 679.94 256.12 L 691.03 236.53 L 702.12 192.98 L 713.21 135.80 L 724.29 183.68 L 735.38 184.67 L 746.47 190.93 L 757.56 255.59 L 768.65 294.63 L 779.74 209.53 L 790.83 237.06 L 801.92 167.36 L 813.01 60.00 L 824.10 70.45 L 835.19 66.18 L 846.28 146.17 L 857.37 277.24 L 868.46 326.96 L 879.55 337.79 L 890.64 375.00 L 901.73 333.06 L 912.82 308.20 L 923.91 290.89 L 935.00 264.74" fill="none" stroke="#69a7ff" stroke-width="4" stroke-linecap="round" stroke-linejoin="round"/>
<circle cx="935.00" cy="264.74" r="6" fill="#69a7ff"/>
</svg>