<svg xmlns="http://www.w3.org/2000/svg" width="960" height="430" viewBox="0 0 960 430" role="img" aria-label="Composite score history">
<rect width="100%" height="100%" fill="#0b1020" rx="20"/>
<text x="70" y="32" fill="#f5f7fb" font-family="Inter, Arial, sans-serif" font-size="24" font-weight="700">Composite score history</text>
<text x="70" y="52" fill="#93a4c3" font-family="Inter, Arial, sans-serif" font-size="13">Trailing 48 sessions through 2025-09-25</text>
<line x1="70" x2="935" y1="375.00" y2="375.00" stroke="#27314e" stroke-width="1"/>
<text x="58" y="379.00" text-anchor="end" fill="#93a4c3" font-family="Inter, Arial, sans-serif" font-size="12">8</text>
<line x1="70" x2="935" y1="312.00" y2="312.00" stroke="#27314e" stroke-width="1"/>
<text x="58" y="316.00" text-anchor="end" fill="#93a4c3" font-family="Inter, Arial, sans-serif" font-size="12">13</text>
<line x1="70" x2="935" y1="249.00" y2="249.00" stroke="#27314e" stroke-width="1"/>
<text x="58" y="253.00" text-anchor="end" fill="#93a4c3" font-family="Inter, Arial, sans-serif" font-size="12">18</text>
<line x1="70" x2="935" y1="186.00" y2="186.00" stroke="#27314e" stroke-width="1"/>
<text x="58" y="190.00" text-anchor="end" fill="#93a4c3" font-family="Inter, Arial, sans-serif" font-size="12">24</text>
<line x1="70" x2="935" y1="123.00" y2="123.00" stroke="#27314e" stroke-width="1"/>
<text x="58" y="127.00" text-anchor="end" fill="#93a4c3" font-family="Inter, Arial, sans-serif" font-size="12">29</text>
<line x1="70" x2="935" y1="60.00" y2="60.00" stroke="#27314e" stroke-width="1"/>
<text x="58" y="64.00" text-anchor="end" fill="#93a4c3" font-family="Inter, Arial, sans-serif" font-size="12">34</text>
<text x="70.00" y="412" text-anchor="middle" fill="#93a4c3" font-family="Inter, Arial, sans-serif" font-size="12">2025-07-21</text>
<text x="511.70" y="412" text-anchor="middle" fill="#93a4c3" font-family="Inter, Arial, sans-serif" font-size="12">2025-08-22</text>
<text x="935.00" y="412" text-anchor="middle" fill="#93a4c3" font-family="Inter, Arial, sans-serif" font-size="12">2025-09-25</text>
<path d="M 70.00 273.04 L 88.40 281.80 L 106.81 303.44 L 125.21 270.42 L 143.62 299.31 L 162.02 298.94 L 180.43 289.56 L 198.83 224.13 L 217.23 216.25 L 235.64 60.00 L 254.04 205.24 L 272.45 195.11 L 290.85 269.42 L 309.26 299.94 L 327.66 291.18 L 346.06 245.15 L 364.47 373.62 L 382.87 369.00 L 401.28 351.61 L 419.68 338.85 L 438.09 340.72 L 456.49 252.15 L 474.89 190.60 L 493.30 140.69 L 511.70 282.93 L 530.11 247.40 L 548.51 268.29 L 566.91 289.31 L 585.32 346.73 L 603.72 290.93 L 622.13 234.76 L 640.53 264.04 L 658.94 321.58 L 677.34 300.07 L 695.74 349.48 L 714.15 372.75 L 732.55 366.87 L 750.96 375.00 L 769.36 352.86 L 787.77 348.98 L 806.17 346.98 L 824.57 336.47 L 842.98 280.55 L 861.38 337.72 L 879.79 302.32 L 898.19 323.33 L 916.60 301.32 L 935.00 229.88" fill="none" stroke="#69a7ff" stroke-width="4" stroke-linecap="round" stroke-linejoin="round"/>
<circle cx="935.00" cy="229.88" r="6" fill="#69a7ff"/>
</svg>