<svg xmlns="http://www.w3.org/2000/svg" width="960" height="430" viewBox="0 0 960 430" role="img" aria-label="Composite score history">
<rect width="100%" height="100%" fill="#0b1020" rx="20"/>
<text x="70" y="32" fill="#f5f7fb" font-family="Inter, Arial, sans-serif" font-size="24" font-weight="700">Composite score history</text>
<text x="70" y="52" fill="#93a4c3" font-family="Inter, Arial, sans-serif" font-size="13">Trailing 52 sessions through 2025-09-25</text>
<line x1="70" x2="935" y1="375.00" y2="375.00" stroke="#27314e" stroke-width="1"/>
<text x="58" y="379.00" text-anchor="end" fill="#93a4c3" font-family="Inter, Arial, sans-serif" font-size="12">12</text>
<line x1="70" x2="935" y1="312.00" y2="312.00" stroke="#27314e" stroke-width="1"/>
<text x="58" y="316.00" text-anchor="end" fill="#93a4c3" font-family="Inter, Arial, sans-serif" font-size="12">16</text>
<line x1="70" x2="935" y1="249.00" y2="249.00" stroke="#27314e" stroke-width="1"/>
<text x="58" y="253.00" text-anchor="end" fill="#93a4c3" font-family="Inter, Arial, sans-serif" font-size="12">20</text>
<line x1="70" x2="935" y1="186.00" y2="186.00" stroke="#27314e" stroke-width="1"/>
<text x="58" y="190.00" text-anchor="end" fill="#93a4c3" font-family="Inter, Arial, sans-serif" font-size="12">25</text>
<line x1="70" x2="935" y1="123.00" y2="123.00" stroke="#27314e" stroke-width="1"/>
<text x="58" y="127.00" text-anchor="end" fill="#93a4c3" font-family="Inter, Arial, sans-serif" font-size="12">29</text>
<line x1="70" x2="935" y1="60.00" y2="60.00" stroke="#27314e" stroke-width="1"/>
<text x="58" y="64.00" text-anchor="end" fill="#93a4c3" font-family="Inter, Arial, sans-serif" font-size="12">34</text>
<text x="70.00" y="412" text-anchor="middle" fill="#93a4c3" font-family="Inter, Arial, sans-serif" font-size="12">2025-07-15</text>
<text x="510.98" y="412" text-anchor="middle" fill="#93a4c3" font-family="Inter, Arial, sans-serif" font-size="12">2025-08-20</text>
<text x="935.00" y="412" text-anchor="middle" fill="#93a4c3" font-family="Inter, Arial, sans-serif" font-size="12">2025-09-25</text>
<path d="M 70.00 289.52 L 86.96 289.23 L 103.92 255.85 L 120.88 288.08 L 137.84 297.72 L 154.80 312.69 L 171.76 326.79 L 188.73 310.68 L 205.69 304.92 L 222.65 286.64 L 239.61 288.95 L 256.57 246.35 L 273.53 239.59 L 290.49 60.00 L 307.45 226.93 L 324.41 215.27 L 341.37 300.75 L 358.33 335.43 L 375.29 238.58 L 392.25 248.08 L 409.22 336.87 L 426.18 346.51 L 443.14 322.33 L 460.10 346.65 L 477.06 340.03 L 494.02 280.89 L 510.98 210.09 L 527.94 152.67 L 544.90 306.79 L 561.86 275.42 L 578.82 268.80 L 595.78 275.42 L 612.75 315.28 L 629.71 325.50 L 646.67 260.89 L 663.63 294.56 L 680.59 349.39 L 697.55 336.00 L 714.51 373.42 L 731.47 365.21 L 748.43 366.08 L 765.39 375.00 L 782.35 339.74 L 799.31 325.79 L 816.27 338.02 L 833.24 340.18 L 850.20 289.23 L 867.16 335.57 L 884.12 296.00 L 901.08 335.57 L 918.04 317.01 L 935.00 255.27" fill="none" stroke="#69a7ff" stroke-width="4" stroke-linecap="round" stroke-linejoin="round"/>
<circle cx="935.00" cy="255.27" r="6" fill="#69a7ff"/>
<text x="927.00" y="243.27" text-anchor="end" fill="#f5f7fb" font-family="Inter, Arial, sans-serif" font-size="12" font-weight="600">20.00</text>
</svg>