<svg xmlns="http://www.w3.org/2000/svg" width="960" height="430" viewBox="0 0 960 430" role="img" aria-label="Composite score history">
<rect width="100%" height="100%" fill="#0b1020" rx="20"/>
<text x="70" y="32" fill="#f5f7fb" font-family="Inter, Arial, sans-serif" font-size="24" font-weight="700">Composite score history</text>
<text x="70" y="52" fill="#93a4c3" font-family="Inter, Arial, sans-serif" font-size="13">Last 90 common sessions</text>
<line x1="70" x2="935" y1="375.00" y2="375.00" stroke="#27314e" stroke-width="1"/>
<text x="58" y="379.00" text-anchor="end" fill="#93a4c3" font-family="Inter, Arial, sans-serif" font-size="12">6</text>
<line x1="70" x2="935" y1="312.00" y2="312.00" stroke="#27314e" stroke-width="1"/>
<text x="58" y="316.00" text-anchor="end" fill="#93a4c3" font-family="Inter, Arial, sans-serif" font-size="12">17</text>
<line x1="70" x2="935" y1="249.00" y2="249.00" stroke="#27314e" stroke-width="1"/>
<text x="58" y="253.00" text-anchor="end" fill="#93a4c3" font-family="Inter, Arial, sans-serif" font-size="12">27</text>
<line x1="70" x2="935" y1="186.00" y2="186.00" stroke="#27314e" stroke-width="1"/>
<text x="58" y="190.00" text-anchor="end" fill="#93a4c3" font-family="Inter, Arial, sans-serif" font-size="12">38</text>
<line x1="70" x2="935" y1="123.00" y2="123.00" stroke="#27314e" stroke-width="1"/>
<text x="58" y="127.00" text-anchor="end" fill="#93a4c3" font-family="Inter, Arial, sans-serif" font-size="12">49</text>
<line x1="70" x2="935" y1="60.00" y2="60.00" stroke="#27314e" stroke-width="1"/>
<text x="58" y="64.00" text-anchor="end" fill="#93a4c3" font-family="Inter, Arial, sans-serif" font-size="12">60</text>
<text x="70.00" y="412" text-anchor="middle" fill="#93a4c3" font-family="Inter, Arial, sans-serif" font-size="12">2026-01-20</text>
<text x="507.36" y="412" text-anchor="middle" fill="#93a4c3" font-family="Inter, Arial, sans-serif" font-size="12">2026-03-25</text>
<text x="935.00" y="412" text-anchor="middle" fill="#93a4c3" font-family="Inter, Arial, sans-serif" font-size="12">2026-05-28</text>
<path d="M 70.00 186.59 L 79.72 254.62 L 89.44 286.36 L 99.16 275.64 L 108.88 313.05 L 118.60 347.19 L 128.31 323.12 L 138.03 297.48 L 147.75 295.84 L 157.47 304.27 L 167.19 252.86 L 176.91 255.44 L 186.63 207.37 L 196.35 316.22 L 206.07 312.88 L 215.79 330.33 L 225.51 333.90 L 235.22 320.14 L 244.94 262.93 L 254.66 254.74 L 264.38 279.62 L 274.10 269.38 L 283.82 335.89 L 293.54 308.90 L 303.26 331.44 L 312.98 342.80 L 322.70 336.24 L 332.42 307.73 L 342.13 289.22 L 351.85 208.48 L 361.57 224.88 L 371.29 170.72 L 381.01 60.00 L 390.73 169.66 L 400.45 226.40 L 410.17 164.10 L 419.89 89.98 L 429.61 158.83 L 439.33 205.56 L 449.04 202.39 L 458.76 142.44 L 468.48 235.71 L 478.20 157.90 L 487.92 166.56 L 497.64 113.57 L 507.36 238.40 L 517.08 138.81 L 526.80 156.14 L 536.52 103.15 L 546.24 260.18 L 555.96 255.03 L 565.67 297.01 L 575.39 314.34 L 585.11 314.63 L 594.83 340.75 L 604.55 349.47 L 614.27 339.64 L 623.99 351.99 L 633.71 373.24 L 643.43 336.36 L 653.15 335.01 L 662.87 375.00 L 672.58 348.48 L 682.30 299.76 L 692.02 307.49 L 701.74 288.70 L 711.46 266.21 L 721.18 282.84 L 730.90 288.46 L 740.62 236.00 L 750.34 277.57 L 760.06 259.13 L 769.78 216.45 L 779.49 282.67 L 789.21 348.01 L 798.93 313.41 L 808.65 325.58 L 818.37 328.16 L 828.09 286.53 L 837.81 236.24 L 847.53 284.07 L 857.25 204.38 L 866.97 243.79 L 876.69 231.26 L 886.40 274.76 L 896.12 256.08 L 905.84 300.93 L 915.56 324.59 L 925.28 338.41 L 935.00 332.90" fill="none" stroke="#69a7ff" stroke-width="4" stroke-linecap="round" stroke-linejoin="round"/>
<circle cx="935.00" cy="332.90" r="6" fill="#69a7ff"/>
</svg>