<svg xmlns="http://www.w3.org/2000/svg" width="960" height="430" viewBox="0 0 960 430" role="img" aria-label="Composite score history">
<rect width="100%" height="100%" fill="#0b1020" rx="20"/>
<text x="70" y="32" fill="#f5f7fb" font-family="Inter, Arial, sans-serif" font-size="24" font-weight="700">Composite score history</text>
<text x="70" y="52" fill="#93a4c3" font-family="Inter, Arial, sans-serif" font-size="13">Last 90 common sessions</text>
<line x1="70" x2="935" y1="375.00" y2="375.00" stroke="#27314e" stroke-width="1"/>
<text x="58" y="379.00" text-anchor="end" fill="#93a4c3" font-family="Inter, Arial, sans-serif" font-size="12">6</text>
<line x1="70" x2="935" y1="312.00" y2="312.00" stroke="#27314e" stroke-width="1"/>
<text x="58" y="316.00" text-anchor="end" fill="#93a4c3" font-family="Inter, Arial, sans-serif" font-size="12">17</text>
<line x1="70" x2="935" y1="249.00" y2="249.00" stroke="#27314e" stroke-width="1"/>
<text x="58" y="253.00" text-anchor="end" fill="#93a4c3" font-family="Inter, Arial, sans-serif" font-size="12">27</text>
<line x1="70" x2="935" y1="186.00" y2="186.00" stroke="#27314e" stroke-width="1"/>
<text x="58" y="190.00" text-anchor="end" fill="#93a4c3" font-family="Inter, Arial, sans-serif" font-size="12">38</text>
<line x1="70" x2="935" y1="123.00" y2="123.00" stroke="#27314e" stroke-width="1"/>
<text x="58" y="127.00" text-anchor="end" fill="#93a4c3" font-family="Inter, Arial, sans-serif" font-size="12">49</text>
<line x1="70" x2="935" y1="60.00" y2="60.00" stroke="#27314e" stroke-width="1"/>
<text x="58" y="64.00" text-anchor="end" fill="#93a4c3" font-family="Inter, Arial, sans-serif" font-size="12">60</text>
<text x="70.00" y="412" text-anchor="middle" fill="#93a4c3" font-family="Inter, Arial, sans-serif" font-size="12">2026-01-28</text>
<text x="507.36" y="412" text-anchor="middle" fill="#93a4c3" font-family="Inter, Arial, sans-serif" font-size="12">2026-04-02</text>
<text x="935.00" y="412" text-anchor="middle" fill="#93a4c3" font-family="Inter, Arial, sans-serif" font-size="12">2026-06-05</text>
<path d="M 70.00 323.12 L 79.72 297.48 L 89.44 295.84 L 99.16 304.27 L 108.88 252.86 L 118.60 255.44 L 128.31 207.37 L 138.03 316.22 L 147.75 312.88 L 157.47 330.33 L 167.19 333.90 L 176.91 320.14 L 186.63 262.93 L 196.35 254.74 L 206.07 279.62 L 215.79 269.38 L 225.51 335.89 L 235.22 308.90 L 244.94 331.44 L 254.66 342.80 L 264.38 336.24 L 274.10 307.73 L 283.82 289.22 L 293.54 208.48 L 303.26 224.88 L 312.98 170.72 L 322.70 60.00 L 332.42 169.66 L 342.13 226.40 L 351.85 164.10 L 361.57 89.98 L 371.29 158.83 L 381.01 205.56 L 390.73 202.39 L 400.45 142.44 L 410.17 235.71 L 419.89 157.90 L 429.61 166.56 L 439.33 113.57 L 449.04 238.40 L 458.76 138.81 L 468.48 156.14 L 478.20 103.15 L 487.92 260.18 L 497.64 255.03 L 507.36 297.01 L 517.08 314.34 L 526.80 314.63 L 536.52 340.75 L 546.24 349.47 L 555.96 339.64 L 565.67 351.99 L 575.39 373.24 L 585.11 336.36 L 594.83 335.01 L 604.55 375.00 L 614.27 348.48 L 623.99 299.76 L 633.71 307.49 L 643.43 288.70 L 653.15 266.21 L 662.87 282.84 L 672.58 288.46 L 682.30 236.00 L 692.02 277.57 L 701.74 259.13 L 711.46 216.45 L 721.18 282.67 L 730.90 348.01 L 740.62 313.41 L 750.34 325.58 L 760.06 328.16 L 769.78 286.53 L 779.49 236.24 L 789.21 284.07 L 798.93 204.38 L 808.65 243.79 L 818.37 231.26 L 828.09 274.76 L 837.81 256.08 L 847.53 300.93 L 857.25 324.59 L 866.97 338.41 L 876.69 332.90 L 886.40 337.59 L 896.12 328.22 L 905.84 314.75 L 915.56 290.86 L 925.28 301.58 L 935.00 125.40" fill="none" stroke="#69a7ff" stroke-width="4" stroke-linecap="round" stroke-linejoin="round"/>
<circle cx="935.00" cy="125.40" r="6" fill="#69a7ff"/>
</svg>