<svg xmlns="http://www.w3.org/2000/svg" width="960" height="430" viewBox="0 0 960 430" role="img" aria-label="Composite score history">
<rect width="100%" height="100%" fill="#0b1020" rx="20"/>
<text x="70" y="32" fill="#f5f7fb" font-family="Inter, Arial, sans-serif" font-size="24" font-weight="700">Composite score history</text>
<text x="70" y="52" fill="#93a4c3" font-family="Inter, Arial, sans-serif" font-size="13">Last 90 common sessions</text>
<line x1="70" x2="935" y1="375.00" y2="375.00" stroke="#27314e" stroke-width="1"/>
<text x="58" y="379.00" text-anchor="end" fill="#93a4c3" font-family="Inter, Arial, sans-serif" font-size="12">6</text>
<line x1="70" x2="935" y1="312.00" y2="312.00" stroke="#27314e" stroke-width="1"/>
<text x="58" y="316.00" text-anchor="end" fill="#93a4c3" font-family="Inter, Arial, sans-serif" font-size="12">17</text>
<line x1="70" x2="935" y1="249.00" y2="249.00" stroke="#27314e" stroke-width="1"/>
<text x="58" y="253.00" text-anchor="end" fill="#93a4c3" font-family="Inter, Arial, sans-serif" font-size="12">27</text>
<line x1="70" x2="935" y1="186.00" y2="186.00" stroke="#27314e" stroke-width="1"/>
<text x="58" y="190.00" text-anchor="end" fill="#93a4c3" font-family="Inter, Arial, sans-serif" font-size="12">38</text>
<line x1="70" x2="935" y1="123.00" y2="123.00" stroke="#27314e" stroke-width="1"/>
<text x="58" y="127.00" text-anchor="end" fill="#93a4c3" font-family="Inter, Arial, sans-serif" font-size="12">49</text>
<line x1="70" x2="935" y1="60.00" y2="60.00" stroke="#27314e" stroke-width="1"/>
<text x="58" y="64.00" text-anchor="end" fill="#93a4c3" font-family="Inter, Arial, sans-serif" font-size="12">60</text>
<text x="70.00" y="412" text-anchor="middle" fill="#93a4c3" font-family="Inter, Arial, sans-serif" font-size="12">2026-01-15</text>
<text x="507.36" y="412" text-anchor="middle" fill="#93a4c3" font-family="Inter, Arial, sans-serif" font-size="12">2026-03-23</text>
<text x="935.00" y="412" text-anchor="middle" fill="#93a4c3" font-family="Inter, Arial, sans-serif" font-size="12">2026-05-26</text>
<path d="M 70.00 311.00 L 79.72 284.66 L 89.44 186.59 L 99.16 254.62 L 108.88 286.36 L 118.60 275.64 L 128.31 313.05 L 138.03 347.19 L 147.75 323.12 L 157.47 297.48 L 167.19 295.84 L 176.91 304.27 L 186.63 252.86 L 196.35 255.44 L 206.07 207.37 L 215.79 316.22 L 225.51 312.88 L 235.22 330.33 L 244.94 333.90 L 254.66 320.14 L 264.38 262.93 L 274.10 254.74 L 283.82 279.62 L 293.54 269.38 L 303.26 335.89 L 312.98 308.90 L 322.70 331.44 L 332.42 342.80 L 342.13 336.24 L 351.85 307.73 L 361.57 289.22 L 371.29 208.48 L 381.01 224.88 L 390.73 170.72 L 400.45 60.00 L 410.17 169.66 L 419.89 226.40 L 429.61 164.10 L 439.33 89.98 L 449.04 158.83 L 458.76 205.56 L 468.48 202.39 L 478.20 142.44 L 487.92 235.71 L 497.64 157.90 L 507.36 166.56 L 517.08 113.57 L 526.80 238.40 L 536.52 138.81 L 546.24 156.14 L 555.96 103.15 L 565.67 260.18 L 575.39 255.03 L 585.11 297.01 L 594.83 314.34 L 604.55 314.63 L 614.27 340.75 L 623.99 349.47 L 633.71 339.64 L 643.43 351.99 L 653.15 373.24 L 662.87 336.36 L 672.58 335.01 L 682.30 375.00 L 692.02 348.48 L 701.74 299.76 L 711.46 307.49 L 721.18 288.70 L 730.90 266.21 L 740.62 282.84 L 750.34 288.46 L 760.06 236.00 L 769.78 277.57 L 779.49 259.13 L 789.21 216.45 L 798.93 282.67 L 808.65 348.01 L 818.37 313.41 L 828.09 325.58 L 837.81 328.16 L 847.53 286.53 L 857.25 236.24 L 866.97 284.07 L 876.69 204.38 L 886.40 243.79 L 896.12 231.26 L 905.84 274.76 L 915.56 256.08 L 925.28 300.93 L 935.00 324.59" fill="none" stroke="#69a7ff" stroke-width="4" stroke-linecap="round" stroke-linejoin="round"/>
<circle cx="935.00" cy="324.59" r="6" fill="#69a7ff"/>
</svg>