<svg xmlns="http://www.w3.org/2000/svg" width="960" height="430" viewBox="0 0 960 430" role="img" aria-label="Composite score history">
<rect width="100%" height="100%" fill="#0b1020" rx="20"/>
<text x="70" y="32" fill="#f5f7fb" font-family="Inter, Arial, sans-serif" font-size="24" font-weight="700">Composite score history</text>
<text x="70" y="52" fill="#93a4c3" font-family="Inter, Arial, sans-serif" font-size="13">Last 90 common sessions</text>
<line x1="70" x2="935" y1="375.00" y2="375.00" stroke="#27314e" stroke-width="1"/>
<text x="58" y="379.00" text-anchor="end" fill="#93a4c3" font-family="Inter, Arial, sans-serif" font-size="12">0</text>
<line x1="70" x2="935" y1="312.00" y2="312.00" stroke="#27314e" stroke-width="1"/>
<text x="58" y="316.00" text-anchor="end" fill="#93a4c3" font-family="Inter, Arial, sans-serif" font-size="12">12</text>
<line x1="70" x2="935" y1="249.00" y2="249.00" stroke="#27314e" stroke-width="1"/>
<text x="58" y="253.00" text-anchor="end" fill="#93a4c3" font-family="Inter, Arial, sans-serif" font-size="12">24</text>
<line x1="70" x2="935" y1="186.00" y2="186.00" stroke="#27314e" stroke-width="1"/>
<text x="58" y="190.00" text-anchor="end" fill="#93a4c3" font-family="Inter, Arial, sans-serif" font-size="12">36</text>
<line x1="70" x2="935" y1="123.00" y2="123.00" stroke="#27314e" stroke-width="1"/>
<text x="58" y="127.00" text-anchor="end" fill="#93a4c3" font-family="Inter, Arial, sans-serif" font-size="12">48</text>
<line x1="70" x2="935" y1="60.00" y2="60.00" stroke="#27314e" stroke-width="1"/>
<text x="58" y="64.00" text-anchor="end" fill="#93a4c3" font-family="Inter, Arial, sans-serif" font-size="12">60</text>
<text x="70.00" y="412" text-anchor="middle" fill="#93a4c3" font-family="Inter, Arial, sans-serif" font-size="12">2025-12-17</text>
<text x="507.36" y="412" text-anchor="middle" fill="#93a4c3" font-family="Inter, Arial, sans-serif" font-size="12">2026-02-24</text>
<text x="935.00" y="412" text-anchor="middle" fill="#93a4c3" font-family="Inter, Arial, sans-serif" font-size="12">2026-04-28</text>
<path d="M 70.00 242.39 L 79.72 260.63 L 89.44 326.54 L 99.16 343.52 L 108.88 352.43 L 118.60 375.00 L 128.31 365.30 L 138.03 346.00 L 147.75 330.23 L 157.47 291.69 L 167.19 282.73 L 176.91 288.84 L 186.63 305.93 L 196.35 303.45 L 206.07 314.26 L 215.79 316.26 L 225.51 293.11 L 235.22 277.66 L 244.94 279.72 L 254.66 286.05 L 264.38 262.32 L 274.10 174.00 L 283.82 235.27 L 293.54 263.85 L 303.26 254.20 L 312.98 287.89 L 322.70 318.63 L 332.42 296.96 L 342.13 273.87 L 351.85 272.39 L 361.57 279.98 L 371.29 233.69 L 381.01 236.01 L 390.73 192.72 L 400.45 290.74 L 410.17 287.73 L 419.89 303.45 L 429.61 306.66 L 439.33 294.27 L 449.04 242.76 L 458.76 235.37 L 468.48 257.78 L 478.20 248.56 L 487.92 308.46 L 497.64 284.15 L 507.36 304.45 L 517.08 314.68 L 526.80 308.77 L 536.52 283.09 L 546.24 266.43 L 555.96 193.72 L 565.67 208.48 L 575.39 159.71 L 585.11 60.00 L 594.83 158.76 L 604.55 209.85 L 614.27 153.75 L 623.99 87.00 L 633.71 149.01 L 643.43 191.08 L 653.15 188.24 L 662.87 134.24 L 672.58 218.24 L 682.30 148.16 L 692.02 155.97 L 701.74 108.25 L 711.46 220.66 L 721.18 130.97 L 730.90 146.58 L 740.62 98.86 L 750.34 240.28 L 760.06 235.64 L 769.78 273.44 L 779.49 289.05 L 789.21 289.32 L 798.93 312.83 L 808.65 320.69 L 818.37 311.83 L 828.09 322.96 L 837.81 342.10 L 847.53 308.88 L 857.25 307.67 L 866.97 343.68 L 876.69 319.79 L 886.40 275.92 L 896.12 282.88 L 905.84 265.96 L 915.56 245.71 L 925.28 260.68 L 935.00 265.75" fill="none" stroke="#69a7ff" stroke-width="4" stroke-linecap="round" stroke-linejoin="round"/>
<circle cx="935.00" cy="265.75" r="6" fill="#69a7ff"/>
</svg>