<svg xmlns="http://www.w3.org/2000/svg" width="960" height="430" viewBox="0 0 960 430" role="img" aria-label="Composite score history">
<rect width="100%" height="100%" fill="#0b1020" rx="20"/>
<text x="70" y="32" fill="#f5f7fb" font-family="Inter, Arial, sans-serif" font-size="24" font-weight="700">Composite score history</text>
<text x="70" y="52" fill="#93a4c3" font-family="Inter, Arial, sans-serif" font-size="13">Last 90 common sessions</text>
<line x1="70" x2="935" y1="375.00" y2="375.00" stroke="#27314e" stroke-width="1"/>
<text x="58" y="379.00" text-anchor="end" fill="#93a4c3" font-family="Inter, Arial, sans-serif" font-size="12">6</text>
<line x1="70" x2="935" y1="312.00" y2="312.00" stroke="#27314e" stroke-width="1"/>
<text x="58" y="316.00" text-anchor="end" fill="#93a4c3" font-family="Inter, Arial, sans-serif" font-size="12">17</text>
<line x1="70" x2="935" y1="249.00" y2="249.00" stroke="#27314e" stroke-width="1"/>
<text x="58" y="253.00" text-anchor="end" fill="#93a4c3" font-family="Inter, Arial, sans-serif" font-size="12">27</text>
<line x1="70" x2="935" y1="186.00" y2="186.00" stroke="#27314e" stroke-width="1"/>
<text x="58" y="190.00" text-anchor="end" fill="#93a4c3" font-family="Inter, Arial, sans-serif" font-size="12">38</text>
<line x1="70" x2="935" y1="123.00" y2="123.00" stroke="#27314e" stroke-width="1"/>
<text x="58" y="127.00" text-anchor="end" fill="#93a4c3" font-family="Inter, Arial, sans-serif" font-size="12">49</text>
<line x1="70" x2="935" y1="60.00" y2="60.00" stroke="#27314e" stroke-width="1"/>
<text x="58" y="64.00" text-anchor="end" fill="#93a4c3" font-family="Inter, Arial, sans-serif" font-size="12">60</text>
<text x="70.00" y="412" text-anchor="middle" fill="#93a4c3" font-family="Inter, Arial, sans-serif" font-size="12">2026-01-21</text>
<text x="507.36" y="412" text-anchor="middle" fill="#93a4c3" font-family="Inter, Arial, sans-serif" font-size="12">2026-03-26</text>
<text x="935.00" y="412" text-anchor="middle" fill="#93a4c3" font-family="Inter, Arial, sans-serif" font-size="12">2026-05-29</text>
<path d="M 70.00 254.62 L 79.72 286.36 L 89.44 275.64 L 99.16 313.05 L 108.88 347.19 L 118.60 323.12 L 128.31 297.48 L 138.03 295.84 L 147.75 304.27 L 157.47 252.86 L 167.19 255.44 L 176.91 207.37 L 186.63 316.22 L 196.35 312.88 L 206.07 330.33 L 215.79 333.90 L 225.51 320.14 L 235.22 262.93 L 244.94 254.74 L 254.66 279.62 L 264.38 269.38 L 274.10 335.89 L 283.82 308.90 L 293.54 331.44 L 303.26 342.80 L 312.98 336.24 L 322.70 307.73 L 332.42 289.22 L 342.13 208.48 L 351.85 224.88 L 361.57 170.72 L 371.29 60.00 L 381.01 169.66 L 390.73 226.40 L 400.45 164.10 L 410.17 89.98 L 419.89 158.83 L 429.61 205.56 L 439.33 202.39 L 449.04 142.44 L 458.76 235.71 L 468.48 157.90 L 478.20 166.56 L 487.92 113.57 L 497.64 238.40 L 507.36 138.81 L 517.08 156.14 L 526.80 103.15 L 536.52 260.18 L 546.24 255.03 L 555.96 297.01 L 565.67 314.34 L 575.39 314.63 L 585.11 340.75 L 594.83 349.47 L 604.55 339.64 L 614.27 351.99 L 623.99 373.24 L 633.71 336.36 L 643.43 335.01 L 653.15 375.00 L 662.87 348.48 L 672.58 299.76 L 682.30 307.49 L 692.02 288.70 L 701.74 266.21 L 711.46 282.84 L 721.18 288.46 L 730.90 236.00 L 740.62 277.57 L 750.34 259.13 L 760.06 216.45 L 769.78 282.67 L 779.49 348.01 L 789.21 313.41 L 798.93 325.58 L 808.65 328.16 L 818.37 286.53 L 828.09 236.24 L 837.81 284.07 L 847.53 204.38 L 857.25 243.79 L 866.97 231.26 L 876.69 274.76 L 886.40 256.08 L 896.12 300.93 L 905.84 324.59 L 915.56 338.41 L 925.28 332.90 L 935.00 337.59" fill="none" stroke="#69a7ff" stroke-width="4" stroke-linecap="round" stroke-linejoin="round"/>
<circle cx="935.00" cy="337.59" r="6" fill="#69a7ff"/>
</svg>