<svg xmlns="http://www.w3.org/2000/svg" width="960" height="430" viewBox="0 0 960 430" role="img" aria-label="Composite score history">
<rect width="100%" height="100%" fill="#0b1020" rx="20"/>
<text x="70" y="32" fill="#f5f7fb" font-family="Inter, Arial, sans-serif" font-size="24" font-weight="700">Composite score history</text>
<text x="70" y="52" fill="#93a4c3" font-family="Inter, Arial, sans-serif" font-size="13">Last 90 common sessions</text>
<line x1="70" x2="935" y1="375.00" y2="375.00" stroke="#27314e" stroke-width="1"/>
<text x="58" y="379.00" text-anchor="end" fill="#93a4c3" font-family="Inter, Arial, sans-serif" font-size="12">6</text>
<line x1="70" x2="935" y1="312.00" y2="312.00" stroke="#27314e" stroke-width="1"/>
<text x="58" y="316.00" text-anchor="end" fill="#93a4c3" font-family="Inter, Arial, sans-serif" font-size="12">17</text>
<line x1="70" x2="935" y1="249.00" y2="249.00" stroke="#27314e" stroke-width="1"/>
<text x="58" y="253.00" text-anchor="end" fill="#93a4c3" font-family="Inter, Arial, sans-serif" font-size="12">27</text>
<line x1="70" x2="935" y1="186.00" y2="186.00" stroke="#27314e" stroke-width="1"/>
<text x="58" y="190.00" text-anchor="end" fill="#93a4c3" font-family="Inter, Arial, sans-serif" font-size="12">38</text>
<line x1="70" x2="935" y1="123.00" y2="123.00" stroke="#27314e" stroke-width="1"/>
<text x="58" y="127.00" text-anchor="end" fill="#93a4c3" font-family="Inter, Arial, sans-serif" font-size="12">49</text>
<line x1="70" x2="935" y1="60.00" y2="60.00" stroke="#27314e" stroke-width="1"/>
<text x="58" y="64.00" text-anchor="end" fill="#93a4c3" font-family="Inter, Arial, sans-serif" font-size="12">60</text>
<text x="70.00" y="412" text-anchor="middle" fill="#93a4c3" font-family="Inter, Arial, sans-serif" font-size="12">2026-02-09</text>
<text x="507.36" y="412" text-anchor="middle" fill="#93a4c3" font-family="Inter, Arial, sans-serif" font-size="12">2026-04-15</text>
<text x="935.00" y="412" text-anchor="middle" fill="#93a4c3" font-family="Inter, Arial, sans-serif" font-size="12">2026-06-17</text>
<path d="M 70.00 312.88 L 79.72 330.33 L 89.44 333.90 L 99.16 320.14 L 108.88 262.93 L 118.60 254.74 L 128.31 279.62 L 138.03 269.38 L 147.75 335.89 L 157.47 308.90 L 167.19 331.44 L 176.91 342.80 L 186.63 336.24 L 196.35 307.73 L 206.07 289.22 L 215.79 208.48 L 225.51 224.88 L 235.22 170.72 L 244.94 60.00 L 254.66 169.66 L 264.38 226.40 L 274.10 164.10 L 283.82 89.98 L 293.54 158.83 L 303.26 205.56 L 312.98 202.39 L 322.70 142.44 L 332.42 235.71 L 342.13 157.90 L 351.85 166.56 L 361.57 113.57 L 371.29 238.40 L 381.01 138.81 L 390.73 156.14 L 400.45 103.15 L 410.17 260.18 L 419.89 255.03 L 429.61 297.01 L 439.33 314.34 L 449.04 314.63 L 458.76 340.75 L 468.48 349.47 L 478.20 339.64 L 487.92 351.99 L 497.64 373.24 L 507.36 336.36 L 517.08 335.01 L 526.80 375.00 L 536.52 348.48 L 546.24 299.76 L 555.96 307.49 L 565.67 288.70 L 575.39 266.21 L 585.11 282.84 L 594.83 288.46 L 604.55 236.00 L 614.27 277.57 L 623.99 259.13 L 633.71 216.45 L 643.43 282.67 L 653.15 348.01 L 662.87 313.41 L 672.58 325.58 L 682.30 328.16 L 692.02 286.53 L 701.74 236.24 L 711.46 284.07 L 721.18 204.38 L 730.90 243.79 L 740.62 231.26 L 750.34 274.76 L 760.06 256.08 L 769.78 300.93 L 779.49 324.59 L 789.21 338.41 L 798.93 332.90 L 808.65 337.59 L 818.37 328.22 L 828.09 314.75 L 837.81 290.86 L 847.53 301.58 L 857.25 125.40 L 866.97 178.92 L 876.69 164.98 L 886.40 124.99 L 896.12 205.09 L 905.84 317.27 L 915.56 343.68 L 925.28 342.33 L 935.00 321.60" fill="none" stroke="#69a7ff" stroke-width="4" stroke-linecap="round" stroke-linejoin="round"/>
<circle cx="935.00" cy="321.60" r="6" fill="#69a7ff"/>
</svg>