<svg xmlns="http://www.w3.org/2000/svg" width="960" height="430" viewBox="0 0 960 430" role="img" aria-label="Composite score history">
<rect width="100%" height="100%" fill="#0b1020" rx="20"/>
<text x="70" y="32" fill="#f5f7fb" font-family="Inter, Arial, sans-serif" font-size="24" font-weight="700">Composite score history</text>
<text x="70" y="52" fill="#93a4c3" font-family="Inter, Arial, sans-serif" font-size="13">Last 90 common sessions</text>
<line x1="70" x2="935" y1="375.00" y2="375.00" stroke="#27314e" stroke-width="1"/>
<text x="58" y="379.00" text-anchor="end" fill="#93a4c3" font-family="Inter, Arial, sans-serif" font-size="12">6</text>
<line x1="70" x2="935" y1="312.00" y2="312.00" stroke="#27314e" stroke-width="1"/>
<text x="58" y="316.00" text-anchor="end" fill="#93a4c3" font-family="Inter, Arial, sans-serif" font-size="12">15</text>
<line x1="70" x2="935" y1="249.00" y2="249.00" stroke="#27314e" stroke-width="1"/>
<text x="58" y="253.00" text-anchor="end" fill="#93a4c3" font-family="Inter, Arial, sans-serif" font-size="12">25</text>
<line x1="70" x2="935" y1="186.00" y2="186.00" stroke="#27314e" stroke-width="1"/>
<text x="58" y="190.00" text-anchor="end" fill="#93a4c3" font-family="Inter, Arial, sans-serif" font-size="12">34</text>
<line x1="70" x2="935" y1="123.00" y2="123.00" stroke="#27314e" stroke-width="1"/>
<text x="58" y="127.00" text-anchor="end" fill="#93a4c3" font-family="Inter, Arial, sans-serif" font-size="12">43</text>
<line x1="70" x2="935" y1="60.00" y2="60.00" stroke="#27314e" stroke-width="1"/>
<text x="58" y="64.00" text-anchor="end" fill="#93a4c3" font-family="Inter, Arial, sans-serif" font-size="12">52</text>
<text x="70.00" y="412" text-anchor="middle" fill="#93a4c3" font-family="Inter, Arial, sans-serif" font-size="12">2026-03-13</text>
<text x="507.36" y="412" text-anchor="middle" fill="#93a4c3" font-family="Inter, Arial, sans-serif" font-size="12">2026-05-18</text>
<text x="935.00" y="412" text-anchor="middle" fill="#93a4c3" font-family="Inter, Arial, sans-serif" font-size="12">2026-07-22</text>
<path d="M 70.00 124.52 L 79.72 178.66 L 89.44 175.00 L 99.16 105.52 L 108.88 213.60 L 118.60 123.43 L 128.31 133.48 L 138.03 72.08 L 147.75 216.72 L 157.47 101.32 L 167.19 121.40 L 176.91 60.00 L 186.63 241.96 L 196.35 235.99 L 206.07 284.63 L 215.79 304.71 L 225.51 305.05 L 235.22 335.31 L 244.94 345.42 L 254.66 334.02 L 264.38 348.34 L 274.10 372.96 L 283.82 330.22 L 293.54 328.66 L 303.26 375.00 L 312.98 344.27 L 322.70 287.82 L 332.42 296.78 L 342.13 275.00 L 351.85 248.95 L 361.57 268.21 L 371.29 274.73 L 381.01 213.94 L 390.73 262.11 L 400.45 240.74 L 410.17 191.28 L 419.89 268.01 L 429.61 343.72 L 439.33 303.63 L 449.04 317.74 L 458.76 320.72 L 468.48 272.49 L 478.20 214.21 L 487.92 269.64 L 497.64 177.30 L 507.36 222.96 L 517.08 208.44 L 526.80 258.85 L 536.52 237.21 L 546.24 289.18 L 555.96 316.59 L 565.67 332.60 L 575.39 326.22 L 585.11 331.65 L 594.83 320.79 L 604.55 305.19 L 614.27 277.51 L 623.99 289.92 L 633.71 85.78 L 643.43 147.79 L 653.15 131.64 L 662.87 85.31 L 672.58 178.12 L 682.30 308.11 L 692.02 338.70 L 701.74 337.14 L 711.46 313.13 L 721.18 297.79 L 730.90 272.35 L 740.62 169.77 L 750.34 212.11 L 760.06 275.68 L 769.78 233.55 L 779.49 295.08 L 789.21 338.50 L 798.93 301.19 L 808.65 330.09 L 818.37 324.12 L 828.09 288.30 L 837.81 257.49 L 847.53 321.54 L 857.25 304.92 L 866.97 231.37 L 876.69 316.99 L 886.40 340.26 L 896.12 304.04 L 905.84 223.16 L 915.56 255.87 L 925.28 263.19 L 935.00 196.84" fill="none" stroke="#69a7ff" stroke-width="4" stroke-linecap="round" stroke-linejoin="round"/>
<circle cx="935.00" cy="196.84" r="6" fill="#69a7ff"/>
</svg>