<svg xmlns="http://www.w3.org/2000/svg" width="960" height="430" viewBox="0 0 960 430" role="img" aria-label="Composite score history">
<rect width="100%" height="100%" fill="#0b1020" rx="20"/>
<text x="70" y="32" fill="#f5f7fb" font-family="Inter, Arial, sans-serif" font-size="24" font-weight="700">Composite score history</text>
<text x="70" y="52" fill="#93a4c3" font-family="Inter, Arial, sans-serif" font-size="13">Last 90 common sessions</text>
<line x1="70" x2="935" y1="375.00" y2="375.00" stroke="#27314e" stroke-width="1"/>
<text x="58" y="379.00" text-anchor="end" fill="#93a4c3" font-family="Inter, Arial, sans-serif" font-size="12">0</text>
<line x1="70" x2="935" y1="312.00" y2="312.00" stroke="#27314e" stroke-width="1"/>
<text x="58" y="316.00" text-anchor="end" fill="#93a4c3" font-family="Inter, Arial, sans-serif" font-size="12">12</text>
<line x1="70" x2="935" y1="249.00" y2="249.00" stroke="#27314e" stroke-width="1"/>
<text x="58" y="253.00" text-anchor="end" fill="#93a4c3" font-family="Inter, Arial, sans-serif" font-size="12">24</text>
<line x1="70" x2="935" y1="186.00" y2="186.00" stroke="#27314e" stroke-width="1"/>
<text x="58" y="190.00" text-anchor="end" fill="#93a4c3" font-family="Inter, Arial, sans-serif" font-size="12">36</text>
<line x1="70" x2="935" y1="123.00" y2="123.00" stroke="#27314e" stroke-width="1"/>
<text x="58" y="127.00" text-anchor="end" fill="#93a4c3" font-family="Inter, Arial, sans-serif" font-size="12">48</text>
<line x1="70" x2="935" y1="60.00" y2="60.00" stroke="#27314e" stroke-width="1"/>
<text x="58" y="64.00" text-anchor="end" fill="#93a4c3" font-family="Inter, Arial, sans-serif" font-size="12">60</text>
<text x="70.00" y="412" text-anchor="middle" fill="#93a4c3" font-family="Inter, Arial, sans-serif" font-size="12">2025-12-03</text>
<text x="507.36" y="412" text-anchor="middle" fill="#93a4c3" font-family="Inter, Arial, sans-serif" font-size="12">2026-02-09</text>
<text x="935.00" y="412" text-anchor="middle" fill="#93a4c3" font-family="Inter, Arial, sans-serif" font-size="12">2026-04-14</text>
<path d="M 70.00 316.95 L 79.72 298.86 L 89.44 286.79 L 99.16 308.67 L 108.88 282.67 L 118.60 304.34 L 128.31 328.55 L 138.03 298.39 L 147.75 304.66 L 157.47 304.98 L 167.19 242.39 L 176.91 260.63 L 186.63 326.54 L 196.35 343.52 L 206.07 352.43 L 215.79 375.00 L 225.51 365.30 L 235.22 346.00 L 244.94 330.23 L 254.66 291.69 L 264.38 282.73 L 274.10 288.84 L 283.82 305.93 L 293.54 303.45 L 303.26 314.26 L 312.98 316.26 L 322.70 293.11 L 332.42 277.66 L 342.13 279.72 L 351.85 286.05 L 361.57 262.32 L 371.29 174.00 L 381.01 235.27 L 390.73 263.85 L 400.45 254.20 L 410.17 287.89 L 419.89 318.63 L 429.61 296.96 L 439.33 273.87 L 449.04 272.39 L 458.76 279.98 L 468.48 233.69 L 478.20 236.01 L 487.92 192.72 L 497.64 290.74 L 507.36 287.73 L 517.08 303.45 L 526.80 306.66 L 536.52 294.27 L 546.24 242.76 L 555.96 235.37 L 565.67 257.78 L 575.39 248.56 L 585.11 308.46 L 594.83 284.15 L 604.55 304.45 L 614.27 314.68 L 623.99 308.77 L 633.71 283.09 L 643.43 266.43 L 653.15 193.72 L 662.87 208.48 L 672.58 159.71 L 682.30 60.00 L 692.02 158.76 L 701.74 209.85 L 711.46 153.75 L 721.18 87.00 L 730.90 149.01 L 740.62 191.08 L 750.34 188.24 L 760.06 134.24 L 769.78 218.24 L 779.49 148.16 L 789.21 155.97 L 798.93 108.25 L 808.65 220.66 L 818.37 130.97 L 828.09 146.58 L 837.81 98.86 L 847.53 240.28 L 857.25 235.64 L 866.97 273.44 L 876.69 289.05 L 886.40 289.32 L 896.12 312.83 L 905.84 320.69 L 915.56 311.83 L 925.28 322.96 L 935.00 342.10" fill="none" stroke="#69a7ff" stroke-width="4" stroke-linecap="round" stroke-linejoin="round"/>
<circle cx="935.00" cy="342.10" r="6" fill="#69a7ff"/>
</svg>