<svg xmlns="http://www.w3.org/2000/svg" width="960" height="430" viewBox="0 0 960 430" role="img" aria-label="Composite score history">
<rect width="100%" height="100%" fill="#0b1020" rx="20"/>
<text x="70" y="32" fill="#f5f7fb" font-family="Inter, Arial, sans-serif" font-size="24" font-weight="700">Composite score history</text>
<text x="70" y="52" fill="#93a4c3" font-family="Inter, Arial, sans-serif" font-size="13">Trailing 90 sessions through 2026-03-04</text>
<line x1="70" x2="935" y1="375.00" y2="375.00" stroke="#27314e" stroke-width="1"/>
<text x="58" y="379.00" text-anchor="end" fill="#93a4c3" font-family="Inter, Arial, sans-serif" font-size="12">1</text>
<line x1="70" x2="935" y1="312.00" y2="312.00" stroke="#27314e" stroke-width="1"/>
<text x="58" y="316.00" text-anchor="end" fill="#93a4c3" font-family="Inter, Arial, sans-serif" font-size="12">8</text>
<line x1="70" x2="935" y1="249.00" y2="249.00" stroke="#27314e" stroke-width="1"/>
<text x="58" y="253.00" text-anchor="end" fill="#93a4c3" font-family="Inter, Arial, sans-serif" font-size="12">15</text>
<line x1="70" x2="935" y1="186.00" y2="186.00" stroke="#27314e" stroke-width="1"/>
<text x="58" y="190.00" text-anchor="end" fill="#93a4c3" font-family="Inter, Arial, sans-serif" font-size="12">21</text>
<line x1="70" x2="935" y1="123.00" y2="123.00" stroke="#27314e" stroke-width="1"/>
<text x="58" y="127.00" text-anchor="end" fill="#93a4c3" font-family="Inter, Arial, sans-serif" font-size="12">28</text>
<line x1="70" x2="935" y1="60.00" y2="60.00" stroke="#27314e" stroke-width="1"/>
<text x="58" y="64.00" text-anchor="end" fill="#93a4c3" font-family="Inter, Arial, sans-serif" font-size="12">35</text>
<text x="70.00" y="412" text-anchor="middle" fill="#93a4c3" font-family="Inter, Arial, sans-serif" font-size="12">2025-10-22</text>
<text x="507.36" y="412" text-anchor="middle" fill="#93a4c3" font-family="Inter, Arial, sans-serif" font-size="12">2025-12-29</text>
<text x="935.00" y="412" text-anchor="middle" fill="#93a4c3" font-family="Inter, Arial, sans-serif" font-size="12">2026-03-04</text>
<path d="M 70.00 338.46 L 79.72 129.90 L 89.44 206.82 L 99.16 234.36 L 108.88 265.00 L 118.60 160.72 L 128.31 228.74 L 138.03 224.90 L 147.75 161.47 L 157.47 105.25 L 167.19 208.04 L 176.91 239.24 L 186.63 244.30 L 196.35 328.43 L 206.07 346.24 L 215.79 270.44 L 225.51 268.19 L 235.22 184.71 L 244.94 85.20 L 254.66 86.89 L 264.38 88.11 L 274.10 181.15 L 283.82 324.78 L 293.54 338.74 L 303.26 348.48 L 312.98 354.48 L 322.70 320.00 L 332.42 305.95 L 342.13 276.71 L 351.85 246.08 L 361.57 218.34 L 371.29 312.51 L 381.01 230.24 L 390.73 276.62 L 400.45 365.16 L 410.17 326.65 L 419.89 332.84 L 429.61 326.00 L 439.33 216.75 L 449.04 247.29 L 458.76 364.79 L 468.48 370.69 L 478.20 371.25 L 487.92 375.00 L 497.64 374.06 L 507.36 369.75 L 517.08 357.29 L 526.80 289.08 L 536.52 261.91 L 546.24 252.54 L 555.96 260.32 L 565.67 274.93 L 575.39 279.24 L 585.11 255.35 L 594.83 204.38 L 604.55 208.13 L 614.27 231.84 L 623.99 230.52 L 633.71 199.42 L 643.43 60.00 L 653.15 159.03 L 662.87 186.58 L 672.58 180.02 L 682.30 283.09 L 692.02 272.50 L 701.74 260.79 L 711.46 222.65 L 721.18 252.82 L 730.90 261.54 L 740.62 179.65 L 750.34 232.96 L 760.06 158.19 L 769.78 337.05 L 779.49 330.50 L 789.21 344.17 L 798.93 345.21 L 808.65 322.62 L 818.37 234.27 L 828.09 218.81 L 837.81 255.54 L 847.53 250.48 L 857.25 325.62 L 866.97 289.55 L 876.69 319.91 L 886.40 343.24 L 896.12 338.27 L 905.84 301.92 L 915.56 206.63 L 925.28 72.56 L 935.00 109.10" fill="none" stroke="#69a7ff" stroke-width="4" stroke-linecap="round" stroke-linejoin="round"/>
<circle cx="935.00" cy="109.10" r="6" fill="#69a7ff"/>
<text x="927.00" y="97.10" text-anchor="end" fill="#f5f7fb" font-family="Inter, Arial, sans-serif" font-size="12" font-weight="600">29.50</text>
</svg>