<svg xmlns="http://www.w3.org/2000/svg" width="960" height="430" viewBox="0 0 960 430" role="img" aria-label="Composite score history">
<rect width="100%" height="100%" fill="#0b1020" rx="20"/>
<text x="70" y="32" fill="#f5f7fb" font-family="Inter, Arial, sans-serif" font-size="24" font-weight="700">Composite score history</text>
<text x="70" y="52" fill="#93a4c3" font-family="Inter, Arial, sans-serif" font-size="13">Trailing 82 sessions through 2026-03-04</text>
<line x1="70" x2="935" y1="375.00" y2="375.00" stroke="#27314e" stroke-width="1"/>
<text x="58" y="379.00" text-anchor="end" fill="#93a4c3" font-family="Inter, Arial, sans-serif" font-size="12">0</text>
<line x1="70" x2="935" y1="312.00" y2="312.00" stroke="#27314e" stroke-width="1"/>
<text x="58" y="316.00" text-anchor="end" fill="#93a4c3" font-family="Inter, Arial, sans-serif" font-size="12">8</text>
<line x1="70" x2="935" y1="249.00" y2="249.00" stroke="#27314e" stroke-width="1"/>
<text x="58" y="253.00" text-anchor="end" fill="#93a4c3" font-family="Inter, Arial, sans-serif" font-size="12">17</text>
<line x1="70" x2="935" y1="186.00" y2="186.00" stroke="#27314e" stroke-width="1"/>
<text x="58" y="190.00" text-anchor="end" fill="#93a4c3" font-family="Inter, Arial, sans-serif" font-size="12">25</text>
<line x1="70" x2="935" y1="123.00" y2="123.00" stroke="#27314e" stroke-width="1"/>
<text x="58" y="127.00" text-anchor="end" fill="#93a4c3" font-family="Inter, Arial, sans-serif" font-size="12">33</text>
<line x1="70" x2="935" y1="60.00" y2="60.00" stroke="#27314e" stroke-width="1"/>
<text x="58" y="64.00" text-anchor="end" fill="#93a4c3" font-family="Inter, Arial, sans-serif" font-size="12">41</text>
<text x="70.00" y="412" text-anchor="middle" fill="#93a4c3" font-family="Inter, Arial, sans-serif" font-size="12">2025-11-03</text>
<text x="507.84" y="412" text-anchor="middle" fill="#93a4c3" font-family="Inter, Arial, sans-serif" font-size="12">2026-01-05</text>
<text x="935.00" y="412" text-anchor="middle" fill="#93a4c3" font-family="Inter, Arial, sans-serif" font-size="12">2026-03-04</text>
<path d="M 70.00 267.64 L 80.68 203.58 L 91.36 217.39 L 102.04 170.26 L 112.72 182.61 L 123.40 255.59 L 134.07 294.63 L 144.75 209.53 L 155.43 237.06 L 166.11 167.36 L 176.79 60.00 L 187.47 70.45 L 198.15 66.18 L 208.83 146.17 L 219.51 277.24 L 230.19 326.96 L 240.86 337.79 L 251.54 375.00 L 262.22 333.06 L 272.90 308.20 L 283.58 290.89 L 294.26 264.74 L 304.94 247.28 L 315.62 278.92 L 326.30 241.33 L 336.98 272.67 L 347.65 307.67 L 358.33 264.05 L 369.01 273.13 L 379.69 273.58 L 390.37 183.07 L 401.05 209.46 L 411.73 304.77 L 422.41 329.32 L 433.09 342.21 L 443.77 374.85 L 454.44 360.82 L 465.12 332.91 L 475.80 310.11 L 486.48 254.37 L 497.16 241.41 L 507.84 250.25 L 518.52 274.96 L 529.20 271.37 L 539.88 287.00 L 550.56 289.90 L 561.23 256.43 L 571.91 234.08 L 582.59 237.06 L 593.27 246.21 L 603.95 211.90 L 614.63 84.17 L 625.31 172.78 L 635.99 214.11 L 646.67 200.15 L 657.35 248.88 L 668.02 293.33 L 678.70 261.99 L 689.38 228.59 L 700.06 226.46 L 710.74 237.44 L 721.42 170.49 L 732.10 173.85 L 742.78 111.24 L 753.46 253.00 L 764.14 248.65 L 774.81 271.37 L 785.49 276.02 L 796.17 258.10 L 806.85 183.61 L 817.53 172.93 L 828.21 205.34 L 838.89 191.99 L 849.57 278.62 L 860.25 243.46 L 870.93 272.82 L 881.60 287.61 L 892.28 279.07 L 902.96 241.94 L 913.64 217.84 L 924.32 112.69 L 935.00 134.04" fill="none" stroke="#69a7ff" stroke-width="4" stroke-linecap="round" stroke-linejoin="round"/>
<circle cx="935.00" cy="134.04" r="6" fill="#69a7ff"/>
</svg>