<svg xmlns="http://www.w3.org/2000/svg" width="960" height="430" viewBox="0 0 960 430" role="img" aria-label="Composite score history">
<rect width="100%" height="100%" fill="#0b1020" rx="20"/>
<text x="70" y="32" fill="#f5f7fb" font-family="Inter, Arial, sans-serif" font-size="24" font-weight="700">Composite score history</text>
<text x="70" y="52" fill="#93a4c3" font-family="Inter, Arial, sans-serif" font-size="13">Trailing 90 sessions through 2026-03-04</text>
<line x1="70" x2="935" y1="375.00" y2="375.00" stroke="#27314e" stroke-width="1"/>
<text x="58" y="379.00" text-anchor="end" fill="#93a4c3" font-family="Inter, Arial, sans-serif" font-size="12">0</text>
<line x1="70" x2="935" y1="312.00" y2="312.00" stroke="#27314e" stroke-width="1"/>
<text x="58" y="316.00" text-anchor="end" fill="#93a4c3" font-family="Inter, Arial, sans-serif" font-size="12">8</text>
<line x1="70" x2="935" y1="249.00" y2="249.00" stroke="#27314e" stroke-width="1"/>
<text x="58" y="253.00" text-anchor="end" fill="#93a4c3" font-family="Inter, Arial, sans-serif" font-size="12">17</text>
<line x1="70" x2="935" y1="186.00" y2="186.00" stroke="#27314e" stroke-width="1"/>
<text x="58" y="190.00" text-anchor="end" fill="#93a4c3" font-family="Inter, Arial, sans-serif" font-size="12">25</text>
<line x1="70" x2="935" y1="123.00" y2="123.00" stroke="#27314e" stroke-width="1"/>
<text x="58" y="127.00" text-anchor="end" fill="#93a4c3" font-family="Inter, Arial, sans-serif" font-size="12">33</text>
<line x1="70" x2="935" y1="60.00" y2="60.00" stroke="#27314e" stroke-width="1"/>
<text x="58" y="64.00" text-anchor="end" fill="#93a4c3" font-family="Inter, Arial, sans-serif" font-size="12">41</text>
<text x="70.00" y="412" text-anchor="middle" fill="#93a4c3" font-family="Inter, Arial, sans-serif" font-size="12">2025-10-22</text>
<text x="507.36" y="412" text-anchor="middle" fill="#93a4c3" font-family="Inter, Arial, sans-serif" font-size="12">2025-12-29</text>
<text x="935.00" y="412" text-anchor="middle" fill="#93a4c3" font-family="Inter, Arial, sans-serif" font-size="12">2026-03-04</text>
<path d="M 70.00 239.12 L 79.72 213.27 L 89.44 243.62 L 99.16 285.48 L 108.88 299.36 L 118.60 266.80 L 128.31 256.12 L 138.03 236.53 L 147.75 192.98 L 157.47 135.80 L 167.19 183.68 L 176.91 184.67 L 186.63 190.93 L 196.35 255.59 L 206.07 294.63 L 215.79 209.53 L 225.51 237.06 L 235.22 167.36 L 244.94 60.00 L 254.66 70.45 L 264.38 66.18 L 274.10 146.17 L 283.82 277.24 L 293.54 326.96 L 303.26 337.79 L 312.98 375.00 L 322.70 333.06 L 332.42 308.20 L 342.13 290.89 L 351.85 264.74 L 361.57 247.28 L 371.29 278.92 L 381.01 241.33 L 390.73 272.67 L 400.45 307.67 L 410.17 264.05 L 419.89 273.13 L 429.61 273.58 L 439.33 183.07 L 449.04 209.46 L 458.76 304.77 L 468.48 329.32 L 478.20 342.21 L 487.92 374.85 L 497.64 360.82 L 507.36 332.91 L 517.08 310.11 L 526.80 254.37 L 536.52 241.41 L 546.24 250.25 L 555.96 274.96 L 565.67 271.37 L 575.39 287.00 L 585.11 289.90 L 594.83 256.43 L 604.55 234.08 L 614.27 237.06 L 623.99 246.21 L 633.71 211.90 L 643.43 84.17 L 653.15 172.78 L 662.87 214.11 L 672.58 200.15 L 682.30 248.88 L 692.02 293.33 L 701.74 261.99 L 711.46 228.59 L 721.18 226.46 L 730.90 237.44 L 740.62 170.49 L 750.34 173.85 L 760.06 111.24 L 769.78 253.00 L 779.49 248.65 L 789.21 271.37 L 798.93 276.02 L 808.65 258.10 L 818.37 183.61 L 828.09 172.93 L 837.81 205.34 L 847.53 191.99 L 857.25 278.62 L 866.97 243.46 L 876.69 272.82 L 886.40 287.61 L 896.12 279.07 L 905.84 241.94 L 915.56 217.84 L 925.28 112.69 L 935.00 134.04" fill="none" stroke="#69a7ff" stroke-width="4" stroke-linecap="round" stroke-linejoin="round"/>
<circle cx="935.00" cy="134.04" r="6" fill="#69a7ff"/>
</svg>