<svg xmlns="http://www.w3.org/2000/svg" width="960" height="430" viewBox="0 0 960 430" role="img" aria-label="Composite score history">
<rect width="100%" height="100%" fill="#0b1020" rx="20"/>
<text x="70" y="32" fill="#f5f7fb" font-family="Inter, Arial, sans-serif" font-size="24" font-weight="700">Composite score history</text>
<text x="70" y="52" fill="#93a4c3" font-family="Inter, Arial, sans-serif" font-size="13">Trailing 79 sessions through 2026-03-04</text>
<line x1="70" x2="935" y1="375.00" y2="375.00" stroke="#27314e" stroke-width="1"/>
<text x="58" y="379.00" text-anchor="end" fill="#93a4c3" font-family="Inter, Arial, sans-serif" font-size="12">0</text>
<line x1="70" x2="935" y1="312.00" y2="312.00" stroke="#27314e" stroke-width="1"/>
<text x="58" y="316.00" text-anchor="end" fill="#93a4c3" font-family="Inter, Arial, sans-serif" font-size="12">8</text>
<line x1="70" x2="935" y1="249.00" y2="249.00" stroke="#27314e" stroke-width="1"/>
<text x="58" y="253.00" text-anchor="end" fill="#93a4c3" font-family="Inter, Arial, sans-serif" font-size="12">17</text>
<line x1="70" x2="935" y1="186.00" y2="186.00" stroke="#27314e" stroke-width="1"/>
<text x="58" y="190.00" text-anchor="end" fill="#93a4c3" font-family="Inter, Arial, sans-serif" font-size="12">25</text>
<line x1="70" x2="935" y1="123.00" y2="123.00" stroke="#27314e" stroke-width="1"/>
<text x="58" y="127.00" text-anchor="end" fill="#93a4c3" font-family="Inter, Arial, sans-serif" font-size="12">33</text>
<line x1="70" x2="935" y1="60.00" y2="60.00" stroke="#27314e" stroke-width="1"/>
<text x="58" y="64.00" text-anchor="end" fill="#93a4c3" font-family="Inter, Arial, sans-serif" font-size="12">41</text>
<text x="70.00" y="412" text-anchor="middle" fill="#93a4c3" font-family="Inter, Arial, sans-serif" font-size="12">2025-11-06</text>
<text x="502.50" y="412" text-anchor="middle" fill="#93a4c3" font-family="Inter, Arial, sans-serif" font-size="12">2026-01-06</text>
<text x="935.00" y="412" text-anchor="middle" fill="#93a4c3" font-family="Inter, Arial, sans-serif" font-size="12">2026-03-04</text>
<path d="M 70.00 260.16 L 81.09 267.18 L 92.18 294.48 L 103.27 309.27 L 114.36 255.05 L 125.45 237.06 L 136.54 167.36 L 147.63 60.00 L 158.72 70.45 L 169.81 66.18 L 180.90 146.17 L 191.99 277.24 L 203.08 326.96 L 214.17 337.79 L 225.26 375.00 L 236.35 333.06 L 247.44 308.20 L 258.53 290.89 L 269.62 264.74 L 280.71 247.28 L 291.79 278.92 L 302.88 241.33 L 313.97 272.67 L 325.06 307.67 L 336.15 264.05 L 347.24 273.13 L 358.33 273.58 L 369.42 183.07 L 380.51 209.46 L 391.60 304.77 L 402.69 329.32 L 413.78 342.21 L 424.87 374.85 L 435.96 360.82 L 447.05 332.91 L 458.14 310.11 L 469.23 254.37 L 480.32 241.41 L 491.41 250.25 L 502.50 274.96 L 513.59 271.37 L 524.68 287.00 L 535.77 289.90 L 546.86 256.43 L 557.95 234.08 L 569.04 237.06 L 580.13 246.21 L 591.22 211.90 L 602.31 84.17 L 613.40 172.78 L 624.49 214.11 L 635.58 200.15 L 646.67 248.88 L 657.76 293.33 L 668.85 261.99 L 679.94 228.59 L 691.03 226.46 L 702.12 237.44 L 713.21 170.49 L 724.29 173.85 L 735.38 111.24 L 746.47 253.00 L 757.56 248.65 L 768.65 271.37 L 779.74 276.02 L 790.83 258.10 L 801.92 183.61 L 813.01 172.93 L 824.10 205.34 L 835.19 191.99 L 846.28 278.62 L 857.37 243.46 L 868.46 272.82 L 879.55 287.61 L 890.64 279.07 L 901.73 241.94 L 912.82 217.84 L 923.91 112.69 L 935.00 134.04" fill="none" stroke="#69a7ff" stroke-width="4" stroke-linecap="round" stroke-linejoin="round"/>
<circle cx="935.00" cy="134.04" r="6" fill="#69a7ff"/>
</svg>