<svg xmlns="http://www.w3.org/2000/svg" width="960" height="430" viewBox="0 0 960 430">
<rect width="100%" height="100%" fill="#0b1020" rx="20"/>
<text x="248" y="32" fill="#f5f7fb" font-size="24" font-family="Inter, Arial, sans-serif" font-weight="700">Latest component scores</text>
<text x="248" y="52" fill="#93a4c3" font-size="13" font-family="Inter, Arial, sans-serif">How each factor contributed on 2026-03-06</text>
<line x1="248.00" x2="248.00" y1="60" y2="390" stroke="#27314e" stroke-width="1"/>
<text x="248.00" y="418" text-anchor="middle" fill="#93a4c3" font-size="12" font-family="Inter, Arial, sans-serif">0</text>
<line x1="385.40" x2="385.40" y1="60" y2="390" stroke="#27314e" stroke-width="1"/>
<text x="385.40" y="418" text-anchor="middle" fill="#93a4c3" font-size="12" font-family="Inter, Arial, sans-serif">20</text>
<line x1="522.80" x2="522.80" y1="60" y2="390" stroke="#27314e" stroke-width="1"/>
<text x="522.80" y="418" text-anchor="middle" fill="#93a4c3" font-size="12" font-family="Inter, Arial, sans-serif">40</text>
<line x1="660.20" x2="660.20" y1="60" y2="390" stroke="#27314e" stroke-width="1"/>
<text x="660.20" y="418" text-anchor="middle" fill="#93a4c3" font-size="12" font-family="Inter, Arial, sans-serif">60</text>
<line x1="797.60" x2="797.60" y1="60" y2="390" stroke="#27314e" stroke-width="1"/>
<text x="797.60" y="418" text-anchor="middle" fill="#93a4c3" font-size="12" font-family="Inter, Arial, sans-serif">80</text>
<line x1="935.00" x2="935.00" y1="60" y2="390" stroke="#27314e" stroke-width="1"/>
<text x="935.00" y="418" text-anchor="middle" fill="#93a4c3" font-size="12" font-family="Inter, Arial, sans-serif">100</text>
<text x="232" y="99.50" text-anchor="end" fill="#f5f7fb" font-size="14" font-family="Inter, Arial, sans-serif">VIX volatility pressure</text>
<rect x="248" y="60.00" width="687.00" height="69.00" rx="10" fill="#121933" stroke="#223154"/>
<rect x="248" y="60.00" width="613.77" height="69.00" rx="10" fill="#ff6a6a"/>
<text x="869.77" y="99.50" text-anchor="start" fill="#f5f7fb" font-size="13" font-family="Inter, Arial, sans-serif" font-weight="600">89.34</text>
<text x="232" y="186.50" text-anchor="end" fill="#f5f7fb" font-size="14" font-family="Inter, Arial, sans-serif">Inflation expectations pressure</text>
<rect x="248" y="147.00" width="687.00" height="69.00" rx="10" fill="#121933" stroke="#223154"/>
<rect x="248" y="147.00" width="450.67" height="69.00" rx="10" fill="#ff6a6a"/>
<text x="706.67" y="186.50" text-anchor="start" fill="#f5f7fb" font-size="13" font-family="Inter, Arial, sans-serif" font-weight="600">65.60</text>
<text x="232" y="273.50" text-anchor="end" fill="#f5f7fb" font-size="14" font-family="Inter, Arial, sans-serif">2Y Treasury rate pressure</text>
<rect x="248" y="234.00" width="687.00" height="69.00" rx="10" fill="#121933" stroke="#223154"/>
<rect x="248" y="234.00" width="300.43" height="69.00" rx="10" fill="#f5c451"/>
<text x="556.43" y="273.50" text-anchor="start" fill="#f5f7fb" font-size="13" font-family="Inter, Arial, sans-serif" font-weight="600">43.73</text>
<text x="232" y="360.50" text-anchor="end" fill="#f5f7fb" font-size="14" font-family="Inter, Arial, sans-serif">S&amp;P 500 equity signal</text>
<rect x="248" y="321.00" width="687.00" height="69.00" rx="10" fill="#121933" stroke="#223154"/>
<rect x="248" y="321.00" width="277.34" height="69.00" rx="10" fill="#f5c451"/>
<text x="533.34" y="360.50" text-anchor="start" fill="#f5f7fb" font-size="13" font-family="Inter, Arial, sans-serif" font-weight="600">40.37</text>
</svg>