<svg xmlns="http://www.w3.org/2000/svg" width="960" height="430" viewBox="0 0 960 430" role="img" aria-label="Composite score history">
<rect width="100%" height="100%" fill="#0b1020" rx="20"/>
<text x="70" y="32" fill="#f5f7fb" font-family="Inter, Arial, sans-serif" font-size="24" font-weight="700">Composite score history</text>
<text x="70" y="52" fill="#93a4c3" font-family="Inter, Arial, sans-serif" font-size="13">Trailing 89 sessions through 2026-03-06</text>
<line x1="70" x2="935" y1="375.00" y2="375.00" stroke="#27314e" stroke-width="1"/>
<text x="58" y="379.00" text-anchor="end" fill="#93a4c3" font-family="Inter, Arial, sans-serif" font-size="12">0</text>
<line x1="70" x2="935" y1="312.00" y2="312.00" stroke="#27314e" stroke-width="1"/>
<text x="58" y="316.00" text-anchor="end" fill="#93a4c3" font-family="Inter, Arial, sans-serif" font-size="12">12</text>
<line x1="70" x2="935" y1="249.00" y2="249.00" stroke="#27314e" stroke-width="1"/>
<text x="58" y="253.00" text-anchor="end" fill="#93a4c3" font-family="Inter, Arial, sans-serif" font-size="12">24</text>
<line x1="70" x2="935" y1="186.00" y2="186.00" stroke="#27314e" stroke-width="1"/>
<text x="58" y="190.00" text-anchor="end" fill="#93a4c3" font-family="Inter, Arial, sans-serif" font-size="12">36</text>
<line x1="70" x2="935" y1="123.00" y2="123.00" stroke="#27314e" stroke-width="1"/>
<text x="58" y="127.00" text-anchor="end" fill="#93a4c3" font-family="Inter, Arial, sans-serif" font-size="12">48</text>
<line x1="70" x2="935" y1="60.00" y2="60.00" stroke="#27314e" stroke-width="1"/>
<text x="58" y="64.00" text-anchor="end" fill="#93a4c3" font-family="Inter, Arial, sans-serif" font-size="12">60</text>
<text x="70.00" y="412" text-anchor="middle" fill="#93a4c3" font-family="Inter, Arial, sans-serif" font-size="12">2025-10-27</text>
<text x="502.50" y="412" text-anchor="middle" fill="#93a4c3" font-family="Inter, Arial, sans-serif" font-size="12">2025-12-31</text>
<text x="935.00" y="412" text-anchor="middle" fill="#93a4c3" font-family="Inter, Arial, sans-serif" font-size="12">2026-03-06</text>
<path d="M 70.00 313.70 L 79.83 312.22 L 89.66 279.49 L 99.49 248.02 L 109.32 245.70 L 119.15 249.18 L 128.98 209.65 L 138.81 242.75 L 148.64 243.43 L 158.47 247.76 L 168.30 292.45 L 178.12 319.44 L 187.95 260.62 L 197.78 279.65 L 207.61 231.47 L 217.44 157.25 L 227.27 164.47 L 237.10 161.52 L 246.93 216.81 L 256.76 307.42 L 266.59 341.79 L 276.42 349.28 L 286.25 375.00 L 296.08 346.01 L 305.91 328.83 L 315.74 316.86 L 325.57 298.78 L 335.40 286.71 L 345.23 308.58 L 355.06 282.60 L 364.89 304.26 L 374.72 328.46 L 384.55 298.31 L 394.38 304.58 L 404.20 304.89 L 414.03 242.33 L 423.86 260.56 L 433.69 326.45 L 443.52 343.43 L 453.35 352.33 L 463.18 374.89 L 473.01 365.20 L 482.84 345.90 L 492.67 330.14 L 502.50 291.61 L 512.33 282.65 L 522.16 288.77 L 531.99 305.84 L 541.82 303.37 L 551.65 314.17 L 561.48 316.17 L 571.31 293.03 L 581.14 277.59 L 590.97 279.65 L 600.80 285.97 L 610.62 262.25 L 620.45 173.96 L 630.28 235.21 L 640.11 263.78 L 649.94 254.13 L 659.77 287.82 L 669.60 318.55 L 679.43 296.88 L 689.26 273.80 L 699.09 272.32 L 708.92 279.91 L 718.75 233.63 L 728.58 235.95 L 738.41 192.67 L 748.24 290.66 L 758.07 287.66 L 767.90 303.37 L 777.73 306.58 L 787.56 294.19 L 797.39 242.70 L 807.22 235.32 L 817.05 257.72 L 826.88 248.49 L 836.70 308.37 L 846.53 284.07 L 856.36 304.37 L 866.19 314.59 L 876.02 308.69 L 885.85 283.02 L 895.68 266.36 L 905.51 193.67 L 915.34 208.43 L 925.17 159.68 L 935.00 60.00" fill="none" stroke="#69a7ff" stroke-width="4" stroke-linecap="round" stroke-linejoin="round"/>
<circle cx="935.00" cy="60.00" r="6" fill="#69a7ff"/>
</svg>