<svg xmlns="http://www.w3.org/2000/svg" width="960" height="430" viewBox="0 0 960 430" role="img" aria-label="Composite score history">
<rect width="100%" height="100%" fill="#0b1020" rx="20"/>
<text x="70" y="32" fill="#f5f7fb" font-family="Inter, Arial, sans-serif" font-size="24" font-weight="700">Composite score history</text>
<text x="70" y="52" fill="#93a4c3" font-family="Inter, Arial, sans-serif" font-size="13">Trailing 84 sessions through 2026-03-06</text>
<line x1="70" x2="935" y1="375.00" y2="375.00" stroke="#27314e" stroke-width="1"/>
<text x="58" y="379.00" text-anchor="end" fill="#93a4c3" font-family="Inter, Arial, sans-serif" font-size="12">0</text>
<line x1="70" x2="935" y1="312.00" y2="312.00" stroke="#27314e" stroke-width="1"/>
<text x="58" y="316.00" text-anchor="end" fill="#93a4c3" font-family="Inter, Arial, sans-serif" font-size="12">12</text>
<line x1="70" x2="935" y1="249.00" y2="249.00" stroke="#27314e" stroke-width="1"/>
<text x="58" y="253.00" text-anchor="end" fill="#93a4c3" font-family="Inter, Arial, sans-serif" font-size="12">24</text>
<line x1="70" x2="935" y1="186.00" y2="186.00" stroke="#27314e" stroke-width="1"/>
<text x="58" y="190.00" text-anchor="end" fill="#93a4c3" font-family="Inter, Arial, sans-serif" font-size="12">36</text>
<line x1="70" x2="935" y1="123.00" y2="123.00" stroke="#27314e" stroke-width="1"/>
<text x="58" y="127.00" text-anchor="end" fill="#93a4c3" font-family="Inter, Arial, sans-serif" font-size="12">48</text>
<line x1="70" x2="935" y1="60.00" y2="60.00" stroke="#27314e" stroke-width="1"/>
<text x="58" y="64.00" text-anchor="end" fill="#93a4c3" font-family="Inter, Arial, sans-serif" font-size="12">60</text>
<text x="70.00" y="412" text-anchor="middle" fill="#93a4c3" font-family="Inter, Arial, sans-serif" font-size="12">2025-11-03</text>
<text x="507.71" y="412" text-anchor="middle" fill="#93a4c3" font-family="Inter, Arial, sans-serif" font-size="12">2026-01-06</text>
<text x="935.00" y="412" text-anchor="middle" fill="#93a4c3" font-family="Inter, Arial, sans-serif" font-size="12">2026-03-06</text>
<path d="M 70.00 300.78 L 80.42 256.51 L 90.84 266.05 L 101.27 233.47 L 111.69 242.01 L 122.11 292.45 L 132.53 319.44 L 142.95 260.62 L 153.37 279.65 L 163.80 231.47 L 174.22 157.25 L 184.64 164.47 L 195.06 161.52 L 205.48 216.81 L 215.90 307.42 L 226.33 341.79 L 236.75 349.28 L 247.17 375.00 L 257.59 346.01 L 268.01 328.83 L 278.43 316.86 L 288.86 298.78 L 299.28 286.71 L 309.70 308.58 L 320.12 282.60 L 330.54 304.26 L 340.96 328.46 L 351.39 298.31 L 361.81 304.58 L 372.23 304.89 L 382.65 242.33 L 393.07 260.56 L 403.49 326.45 L 413.92 343.43 L 424.34 352.33 L 434.76 374.89 L 445.18 365.20 L 455.60 345.90 L 466.02 330.14 L 476.45 291.61 L 486.87 282.65 L 497.29 288.77 L 507.71 305.84 L 518.13 303.37 L 528.55 314.17 L 538.98 316.17 L 549.40 293.03 L 559.82 277.59 L 570.24 279.65 L 580.66 285.97 L 591.08 262.25 L 601.51 173.96 L 611.93 235.21 L 622.35 263.78 L 632.77 254.13 L 643.19 287.82 L 653.61 318.55 L 664.04 296.88 L 674.46 273.80 L 684.88 272.32 L 695.30 279.91 L 705.72 233.63 L 716.14 235.95 L 726.57 192.67 L 736.99 290.66 L 747.41 287.66 L 757.83 303.37 L 768.25 306.58 L 778.67 294.19 L 789.10 242.70 L 799.52 235.32 L 809.94 257.72 L 820.36 248.49 L 830.78 308.37 L 841.20 284.07 L 851.63 304.37 L 862.05 314.59 L 872.47 308.69 L 882.89 283.02 L 893.31 266.36 L 903.73 193.67 L 914.16 208.43 L 924.58 159.68 L 935.00 60.00" fill="none" stroke="#69a7ff" stroke-width="4" stroke-linecap="round" stroke-linejoin="round"/>
<circle cx="935.00" cy="60.00" r="6" fill="#69a7ff"/>
</svg>