<svg xmlns="http://www.w3.org/2000/svg" width="960" height="430" viewBox="0 0 960 430" role="img" aria-label="Composite score history">
<rect width="100%" height="100%" fill="#0b1020" rx="20"/>
<text x="70" y="32" fill="#f5f7fb" font-family="Inter, Arial, sans-serif" font-size="24" font-weight="700">Composite score history</text>
<text x="70" y="52" fill="#93a4c3" font-family="Inter, Arial, sans-serif" font-size="13">Trailing 85 sessions through 2026-03-06</text>
<line x1="70" x2="935" y1="375.00" y2="375.00" stroke="#27314e" stroke-width="1"/>
<text x="58" y="379.00" text-anchor="end" fill="#93a4c3" font-family="Inter, Arial, sans-serif" font-size="12">0</text>
<line x1="70" x2="935" y1="312.00" y2="312.00" stroke="#27314e" stroke-width="1"/>
<text x="58" y="316.00" text-anchor="end" fill="#93a4c3" font-family="Inter, Arial, sans-serif" font-size="12">12</text>
<line x1="70" x2="935" y1="249.00" y2="249.00" stroke="#27314e" stroke-width="1"/>
<text x="58" y="253.00" text-anchor="end" fill="#93a4c3" font-family="Inter, Arial, sans-serif" font-size="12">24</text>
<line x1="70" x2="935" y1="186.00" y2="186.00" stroke="#27314e" stroke-width="1"/>
<text x="58" y="190.00" text-anchor="end" fill="#93a4c3" font-family="Inter, Arial, sans-serif" font-size="12">36</text>
<line x1="70" x2="935" y1="123.00" y2="123.00" stroke="#27314e" stroke-width="1"/>
<text x="58" y="127.00" text-anchor="end" fill="#93a4c3" font-family="Inter, Arial, sans-serif" font-size="12">48</text>
<line x1="70" x2="935" y1="60.00" y2="60.00" stroke="#27314e" stroke-width="1"/>
<text x="58" y="64.00" text-anchor="end" fill="#93a4c3" font-family="Inter, Arial, sans-serif" font-size="12">60</text>
<text x="70.00" y="412" text-anchor="middle" fill="#93a4c3" font-family="Inter, Arial, sans-serif" font-size="12">2025-10-31</text>
<text x="502.50" y="412" text-anchor="middle" fill="#93a4c3" font-family="Inter, Arial, sans-serif" font-size="12">2026-01-05</text>
<text x="935.00" y="412" text-anchor="middle" fill="#93a4c3" font-family="Inter, Arial, sans-serif" font-size="12">2026-03-06</text>
<path d="M 70.00 300.47 L 80.30 300.41 L 90.60 262.36 L 100.89 271.84 L 111.19 239.27 L 121.49 247.76 L 131.79 292.45 L 142.08 319.44 L 152.38 260.62 L 162.68 279.65 L 172.98 231.47 L 183.27 157.25 L 193.57 164.47 L 203.87 161.52 L 214.17 216.81 L 224.46 307.42 L 234.76 341.79 L 245.06 349.28 L 255.36 375.00 L 265.65 346.01 L 275.95 328.83 L 286.25 316.86 L 296.55 298.78 L 306.85 286.71 L 317.14 308.58 L 327.44 282.60 L 337.74 304.26 L 348.04 328.46 L 358.33 298.31 L 368.63 304.58 L 378.93 304.89 L 389.23 242.33 L 399.52 260.56 L 409.82 326.45 L 420.12 343.43 L 430.42 352.33 L 440.71 374.89 L 451.01 365.20 L 461.31 345.90 L 471.61 330.14 L 481.90 291.61 L 492.20 282.65 L 502.50 288.77 L 512.80 305.84 L 523.10 303.37 L 533.39 314.17 L 543.69 316.17 L 553.99 293.03 L 564.29 277.59 L 574.58 279.65 L 584.88 285.97 L 595.18 262.25 L 605.48 173.96 L 615.77 235.21 L 626.07 263.78 L 636.37 254.13 L 646.67 287.82 L 656.96 318.55 L 667.26 296.88 L 677.56 273.80 L 687.86 272.32 L 698.15 279.91 L 708.45 233.63 L 718.75 235.95 L 729.05 192.67 L 739.35 290.66 L 749.64 287.66 L 759.94 303.37 L 770.24 306.58 L 780.54 294.19 L 790.83 242.70 L 801.13 235.32 L 811.43 257.72 L 821.73 248.49 L 832.02 308.37 L 842.32 284.07 L 852.62 304.37 L 862.92 314.59 L 873.21 308.69 L 883.51 283.02 L 893.81 266.36 L 904.11 193.67 L 914.40 208.43 L 924.70 159.68 L 935.00 60.00" fill="none" stroke="#69a7ff" stroke-width="4" stroke-linecap="round" stroke-linejoin="round"/>
<circle cx="935.00" cy="60.00" r="6" fill="#69a7ff"/>
</svg>