<svg xmlns="http://www.w3.org/2000/svg" width="960" height="430" viewBox="0 0 960 430" role="img" aria-label="Composite score history">
<rect width="100%" height="100%" fill="#0b1020" rx="20"/>
<text x="70" y="32" fill="#f5f7fb" font-family="Inter, Arial, sans-serif" font-size="24" font-weight="700">Composite score history</text>
<text x="70" y="52" fill="#93a4c3" font-family="Inter, Arial, sans-serif" font-size="13">Trailing 51 sessions through 2025-09-24</text>
<line x1="70" x2="935" y1="375.00" y2="375.00" stroke="#27314e" stroke-width="1"/>
<text x="58" y="379.00" text-anchor="end" fill="#93a4c3" font-family="Inter, Arial, sans-serif" font-size="12">2</text>
<line x1="70" x2="935" y1="312.00" y2="312.00" stroke="#27314e" stroke-width="1"/>
<text x="58" y="316.00" text-anchor="end" fill="#93a4c3" font-family="Inter, Arial, sans-serif" font-size="12">6</text>
<line x1="70" x2="935" y1="249.00" y2="249.00" stroke="#27314e" stroke-width="1"/>
<text x="58" y="253.00" text-anchor="end" fill="#93a4c3" font-family="Inter, Arial, sans-serif" font-size="12">11</text>
<line x1="70" x2="935" y1="186.00" y2="186.00" stroke="#27314e" stroke-width="1"/>
<text x="58" y="190.00" text-anchor="end" fill="#93a4c3" font-family="Inter, Arial, sans-serif" font-size="12">15</text>
<line x1="70" x2="935" y1="123.00" y2="123.00" stroke="#27314e" stroke-width="1"/>
<text x="58" y="127.00" text-anchor="end" fill="#93a4c3" font-family="Inter, Arial, sans-serif" font-size="12">19</text>
<line x1="70" x2="935" y1="60.00" y2="60.00" stroke="#27314e" stroke-width="1"/>
<text x="58" y="64.00" text-anchor="end" fill="#93a4c3" font-family="Inter, Arial, sans-serif" font-size="12">23</text>
<text x="70.00" y="412" text-anchor="middle" fill="#93a4c3" font-family="Inter, Arial, sans-serif" font-size="12">2025-07-15</text>
<text x="502.50" y="412" text-anchor="middle" fill="#93a4c3" font-family="Inter, Arial, sans-serif" font-size="12">2025-08-19</text>
<text x="935.00" y="412" text-anchor="middle" fill="#93a4c3" font-family="Inter, Arial, sans-serif" font-size="12">2025-09-24</text>
<path d="M 70.00 344.85 L 87.30 328.81 L 104.60 261.68 L 121.90 318.56 L 139.20 334.46 L 156.50 354.80 L 173.80 367.57 L 191.10 367.28 L 208.40 327.92 L 225.70 282.33 L 243.00 297.48 L 260.30 201.39 L 277.60 261.24 L 294.90 60.00 L 312.20 238.96 L 329.50 229.90 L 346.80 312.92 L 364.10 353.91 L 381.40 117.48 L 398.70 160.84 L 416.00 337.57 L 433.30 340.40 L 450.60 306.83 L 467.90 370.69 L 485.20 357.03 L 502.50 269.41 L 519.80 161.88 L 537.10 123.27 L 554.40 269.11 L 571.70 232.87 L 589.00 171.83 L 606.30 187.72 L 623.60 285.30 L 640.90 344.11 L 658.20 286.63 L 675.50 312.03 L 692.80 362.08 L 710.10 335.94 L 727.40 370.40 L 744.70 371.29 L 762.00 367.72 L 779.30 375.00 L 796.60 300.15 L 813.90 281.58 L 831.20 338.02 L 848.50 321.24 L 865.80 220.10 L 883.10 323.61 L 900.40 231.09 L 917.70 319.60 L 935.00 277.72" fill="none" stroke="#69a7ff" stroke-width="4" stroke-linecap="round" stroke-linejoin="round"/>
<circle cx="935.00" cy="277.72" r="6" fill="#69a7ff"/>
<text x="927.00" y="265.72" text-anchor="end" fill="#f5f7fb" font-family="Inter, Arial, sans-serif" font-size="12" font-weight="600">8.61</text>
</svg>