<svg xmlns="http://www.w3.org/2000/svg" width="960" height="430" viewBox="0 0 960 430" role="img" aria-label="Composite score history">
<rect width="100%" height="100%" fill="#0b1020" rx="20"/>
<text x="70" y="32" fill="#f5f7fb" font-family="Inter, Arial, sans-serif" font-size="24" font-weight="700">Composite score history</text>
<text x="70" y="52" fill="#93a4c3" font-family="Inter, Arial, sans-serif" font-size="13">Trailing 40 sessions through 2025-09-24</text>
<line x1="70" x2="935" y1="375.00" y2="375.00" stroke="#27314e" stroke-width="1"/>
<text x="58" y="379.00" text-anchor="end" fill="#93a4c3" font-family="Inter, Arial, sans-serif" font-size="12">8</text>
<line x1="70" x2="935" y1="312.00" y2="312.00" stroke="#27314e" stroke-width="1"/>
<text x="58" y="316.00" text-anchor="end" fill="#93a4c3" font-family="Inter, Arial, sans-serif" font-size="12">13</text>
<line x1="70" x2="935" y1="249.00" y2="249.00" stroke="#27314e" stroke-width="1"/>
<text x="58" y="253.00" text-anchor="end" fill="#93a4c3" font-family="Inter, Arial, sans-serif" font-size="12">17</text>
<line x1="70" x2="935" y1="186.00" y2="186.00" stroke="#27314e" stroke-width="1"/>
<text x="58" y="190.00" text-anchor="end" fill="#93a4c3" font-family="Inter, Arial, sans-serif" font-size="12">22</text>
<line x1="70" x2="935" y1="123.00" y2="123.00" stroke="#27314e" stroke-width="1"/>
<text x="58" y="127.00" text-anchor="end" fill="#93a4c3" font-family="Inter, Arial, sans-serif" font-size="12">27</text>
<line x1="70" x2="935" y1="60.00" y2="60.00" stroke="#27314e" stroke-width="1"/>
<text x="58" y="64.00" text-anchor="end" fill="#93a4c3" font-family="Inter, Arial, sans-serif" font-size="12">31</text>
<text x="70.00" y="412" text-anchor="middle" fill="#93a4c3" font-family="Inter, Arial, sans-serif" font-size="12">2025-07-30</text>
<text x="513.59" y="412" text-anchor="middle" fill="#93a4c3" font-family="Inter, Arial, sans-serif" font-size="12">2025-08-27</text>
<text x="935.00" y="412" text-anchor="middle" fill="#93a4c3" font-family="Inter, Arial, sans-serif" font-size="12">2025-09-24</text>
<path d="M 70.00 267.83 L 92.18 217.15 L 114.36 60.00 L 136.54 221.60 L 158.72 177.45 L 180.90 257.83 L 203.08 291.70 L 225.26 281.99 L 247.44 230.90 L 269.62 373.47 L 291.79 368.34 L 313.97 349.04 L 336.15 334.88 L 358.33 336.96 L 380.51 238.67 L 402.69 170.37 L 424.87 114.98 L 447.05 272.82 L 469.23 233.40 L 491.41 256.58 L 513.59 279.90 L 535.77 343.62 L 557.95 281.71 L 580.13 219.37 L 602.31 251.86 L 624.49 315.72 L 646.67 291.84 L 668.85 346.68 L 691.03 372.50 L 713.21 365.98 L 735.38 375.00 L 757.56 350.43 L 779.74 346.12 L 801.92 343.90 L 824.10 332.24 L 846.28 270.19 L 868.46 333.63 L 890.64 294.34 L 912.82 317.66 L 935.00 293.23" fill="none" stroke="#69a7ff" stroke-width="4" stroke-linecap="round" stroke-linejoin="round"/>
<circle cx="935.00" cy="293.23" r="6" fill="#69a7ff"/>
</svg>