<svg xmlns="http://www.w3.org/2000/svg" width="960" height="430" viewBox="0 0 960 430">
<rect width="100%" height="100%" fill="#0b1020" rx="20"/>
<text x="70" y="32" fill="#f5f7fb" font-size="24" font-family="Inter, Arial, sans-serif" font-weight="700">Composite score history</text>
<text x="70" y="52" fill="#93a4c3" font-size="13" font-family="Inter, Arial, sans-serif">Trailing 49 sessions through 2025-09-24</text>
<line x1="70" x2="935" y1="375.00" y2="375.00" stroke="#27314e" stroke-width="1"/>
<text x="58" y="379.00" text-anchor="end" fill="#93a4c3" font-size="12" font-family="Inter, Arial, sans-serif">8</text>
<line x1="70" x2="935" y1="312.00" y2="312.00" stroke="#27314e" stroke-width="1"/>
<text x="58" y="316.00" text-anchor="end" fill="#93a4c3" font-size="12" font-family="Inter, Arial, sans-serif">13</text>
<line x1="70" x2="935" y1="249.00" y2="249.00" stroke="#27314e" stroke-width="1"/>
<text x="58" y="253.00" text-anchor="end" fill="#93a4c3" font-size="12" font-family="Inter, Arial, sans-serif">18</text>
<line x1="70" x2="935" y1="186.00" y2="186.00" stroke="#27314e" stroke-width="1"/>
<text x="58" y="190.00" text-anchor="end" fill="#93a4c3" font-size="12" font-family="Inter, Arial, sans-serif">24</text>
<line x1="70" x2="935" y1="123.00" y2="123.00" stroke="#27314e" stroke-width="1"/>
<text x="58" y="127.00" text-anchor="end" fill="#93a4c3" font-size="12" font-family="Inter, Arial, sans-serif">29</text>
<line x1="70" x2="935" y1="60.00" y2="60.00" stroke="#27314e" stroke-width="1"/>
<text x="58" y="64.00" text-anchor="end" fill="#93a4c3" font-size="12" font-family="Inter, Arial, sans-serif">34</text>
<text x="70.00" y="412" text-anchor="middle" fill="#93a4c3" font-size="12" font-family="Inter, Arial, sans-serif">2025-07-17</text>
<text x="502.50" y="412" text-anchor="middle" fill="#93a4c3" font-size="12" font-family="Inter, Arial, sans-serif">2025-08-20</text>
<text x="935.00" y="412" text-anchor="middle" fill="#93a4c3" font-size="12" font-family="Inter, Arial, sans-serif">2025-09-24</text>
<path d="M 70.00 261.66 L 88.02 270.29 L 106.04 275.55 L 124.06 285.93 L 142.08 322.58 L 160.10 310.82 L 178.12 318.71 L 196.15 298.94 L 214.17 289.56 L 232.19 224.13 L 250.21 216.25 L 268.23 60.00 L 286.25 205.24 L 304.27 195.11 L 322.29 269.42 L 340.31 299.94 L 358.33 291.18 L 376.35 245.15 L 394.38 373.62 L 412.40 369.00 L 430.42 351.61 L 448.44 338.85 L 466.46 340.72 L 484.48 252.15 L 502.50 190.60 L 520.52 140.69 L 538.54 282.93 L 556.56 247.40 L 574.58 268.29 L 592.60 289.31 L 610.62 346.73 L 628.65 290.93 L 646.67 234.76 L 664.69 264.04 L 682.71 321.58 L 700.73 300.07 L 718.75 349.48 L 736.77 372.75 L 754.79 366.87 L 772.81 375.00 L 790.83 352.86 L 808.85 348.98 L 826.88 346.98 L 844.90 336.47 L 862.92 280.55 L 880.94 337.72 L 898.96 302.32 L 916.98 323.33 L 935.00 301.32" fill="none" stroke="#69a7ff" stroke-width="4" stroke-linecap="round" stroke-linejoin="round"/>
<circle cx="935.00" cy="301.32" r="6" fill="#69a7ff"/>
</svg>