<svg xmlns="http://www.w3.org/2000/svg" width="960" height="430" viewBox="0 0 960 430" role="img" aria-label="Composite score history">
<rect width="100%" height="100%" fill="#0b1020" rx="20"/>
<text x="70" y="32" fill="#f5f7fb" font-family="Inter, Arial, sans-serif" font-size="24" font-weight="700">Composite score history</text>
<text x="70" y="52" fill="#93a4c3" font-family="Inter, Arial, sans-serif" font-size="13">Trailing 49 sessions through 2025-09-24</text>
<line x1="70" x2="935" y1="375.00" y2="375.00" stroke="#27314e" stroke-width="1"/>
<text x="58" y="379.00" text-anchor="end" fill="#93a4c3" font-family="Inter, Arial, sans-serif" font-size="12">12</text>
<line x1="70" x2="935" y1="312.00" y2="312.00" stroke="#27314e" stroke-width="1"/>
<text x="58" y="316.00" text-anchor="end" fill="#93a4c3" font-family="Inter, Arial, sans-serif" font-size="12">16</text>
<line x1="70" x2="935" y1="249.00" y2="249.00" stroke="#27314e" stroke-width="1"/>
<text x="58" y="253.00" text-anchor="end" fill="#93a4c3" font-family="Inter, Arial, sans-serif" font-size="12">20</text>
<line x1="70" x2="935" y1="186.00" y2="186.00" stroke="#27314e" stroke-width="1"/>
<text x="58" y="190.00" text-anchor="end" fill="#93a4c3" font-family="Inter, Arial, sans-serif" font-size="12">25</text>
<line x1="70" x2="935" y1="123.00" y2="123.00" stroke="#27314e" stroke-width="1"/>
<text x="58" y="127.00" text-anchor="end" fill="#93a4c3" font-family="Inter, Arial, sans-serif" font-size="12">29</text>
<line x1="70" x2="935" y1="60.00" y2="60.00" stroke="#27314e" stroke-width="1"/>
<text x="58" y="64.00" text-anchor="end" fill="#93a4c3" font-family="Inter, Arial, sans-serif" font-size="12">34</text>
<text x="70.00" y="412" text-anchor="middle" fill="#93a4c3" font-family="Inter, Arial, sans-serif" font-size="12">2025-07-17</text>
<text x="502.50" y="412" text-anchor="middle" fill="#93a4c3" font-family="Inter, Arial, sans-serif" font-size="12">2025-08-20</text>
<text x="935.00" y="412" text-anchor="middle" fill="#93a4c3" font-family="Inter, Arial, sans-serif" font-size="12">2025-09-24</text>
<path d="M 70.00 291.83 L 88.02 301.75 L 106.04 303.05 L 124.06 312.69 L 142.08 326.79 L 160.10 310.68 L 178.12 304.92 L 196.15 286.64 L 214.17 288.95 L 232.19 246.35 L 250.21 239.59 L 268.23 60.00 L 286.25 226.93 L 304.27 215.27 L 322.29 300.75 L 340.31 335.43 L 358.33 238.58 L 376.35 248.08 L 394.38 336.87 L 412.40 346.51 L 430.42 322.33 L 448.44 346.65 L 466.46 340.03 L 484.48 280.89 L 502.50 210.09 L 520.52 152.67 L 538.54 306.79 L 556.56 275.42 L 574.58 268.80 L 592.60 275.42 L 610.62 315.28 L 628.65 325.50 L 646.67 260.89 L 664.69 294.56 L 682.71 349.39 L 700.73 336.00 L 718.75 373.42 L 736.77 365.21 L 754.79 366.08 L 772.81 375.00 L 790.83 339.74 L 808.85 325.79 L 826.88 338.02 L 844.90 340.18 L 862.92 289.23 L 880.94 335.57 L 898.96 296.00 L 916.98 335.57 L 935.00 317.01" fill="none" stroke="#69a7ff" stroke-width="4" stroke-linecap="round" stroke-linejoin="round"/>
<circle cx="935.00" cy="317.01" r="6" fill="#69a7ff"/>
<text x="927.00" y="305.01" text-anchor="end" fill="#f5f7fb" font-family="Inter, Arial, sans-serif" font-size="12" font-weight="600">15.71</text>
</svg>