<svg xmlns="http://www.w3.org/2000/svg" width="960" height="430" viewBox="0 0 960 430" role="img" aria-label="Composite score history">
<rect width="100%" height="100%" fill="#0b1020" rx="20"/>
<text x="70" y="32" fill="#f5f7fb" font-family="Inter, Arial, sans-serif" font-size="24" font-weight="700">Composite score history</text>
<text x="70" y="52" fill="#93a4c3" font-family="Inter, Arial, sans-serif" font-size="13">Trailing 71 sessions through 2026-02-09</text>
<line x1="70" x2="935" y1="375.00" y2="375.00" stroke="#27314e" stroke-width="1"/>
<text x="58" y="379.00" text-anchor="end" fill="#93a4c3" font-family="Inter, Arial, sans-serif" font-size="12">0</text>
<line x1="70" x2="935" y1="312.00" y2="312.00" stroke="#27314e" stroke-width="1"/>
<text x="58" y="316.00" text-anchor="end" fill="#93a4c3" font-family="Inter, Arial, sans-serif" font-size="12">8</text>
<line x1="70" x2="935" y1="249.00" y2="249.00" stroke="#27314e" stroke-width="1"/>
<text x="58" y="253.00" text-anchor="end" fill="#93a4c3" font-family="Inter, Arial, sans-serif" font-size="12">17</text>
<line x1="70" x2="935" y1="186.00" y2="186.00" stroke="#27314e" stroke-width="1"/>
<text x="58" y="190.00" text-anchor="end" fill="#93a4c3" font-family="Inter, Arial, sans-serif" font-size="12">25</text>
<line x1="70" x2="935" y1="123.00" y2="123.00" stroke="#27314e" stroke-width="1"/>
<text x="58" y="127.00" text-anchor="end" fill="#93a4c3" font-family="Inter, Arial, sans-serif" font-size="12">33</text>
<line x1="70" x2="935" y1="60.00" y2="60.00" stroke="#27314e" stroke-width="1"/>
<text x="58" y="64.00" text-anchor="end" fill="#93a4c3" font-family="Inter, Arial, sans-serif" font-size="12">41</text>
<text x="70.00" y="412" text-anchor="middle" fill="#93a4c3" font-family="Inter, Arial, sans-serif" font-size="12">2025-10-27</text>
<text x="502.50" y="412" text-anchor="middle" fill="#93a4c3" font-family="Inter, Arial, sans-serif" font-size="12">2025-12-17</text>
<text x="935.00" y="412" text-anchor="middle" fill="#93a4c3" font-family="Inter, Arial, sans-serif" font-size="12">2026-02-09</text>
<path d="M 70.00 286.32 L 82.36 284.18 L 94.71 236.83 L 107.07 191.31 L 119.43 187.95 L 131.79 192.98 L 144.14 135.80 L 156.50 183.68 L 168.86 184.67 L 181.21 190.93 L 193.57 255.59 L 205.93 294.63 L 218.29 209.53 L 230.64 237.06 L 243.00 167.36 L 255.36 60.00 L 267.71 70.45 L 280.07 66.18 L 292.43 146.17 L 304.79 277.24 L 317.14 326.96 L 329.50 337.79 L 341.86 375.00 L 354.21 333.06 L 366.57 308.20 L 378.93 290.89 L 391.29 264.74 L 403.64 247.28 L 416.00 278.92 L 428.36 241.33 L 440.71 272.67 L 453.07 307.67 L 465.43 264.05 L 477.79 273.13 L 490.14 273.58 L 502.50 183.07 L 514.86 209.46 L 527.21 304.77 L 539.57 329.32 L 551.93 342.21 L 564.29 374.85 L 576.64 360.82 L 589.00 332.91 L 601.36 310.11 L 613.71 254.37 L 626.07 241.41 L 638.43 250.25 L 650.79 274.96 L 663.14 271.37 L 675.50 287.00 L 687.86 289.90 L 700.21 256.43 L 712.57 234.08 L 724.93 237.06 L 737.29 246.21 L 749.64 211.90 L 762.00 84.17 L 774.36 172.78 L 786.71 214.11 L 799.07 200.15 L 811.43 248.88 L 823.79 293.33 L 836.14 261.99 L 848.50 228.59 L 860.86 226.46 L 873.21 237.44 L 885.57 170.49 L 897.93 173.85 L 910.29 111.24 L 922.64 253.00 L 935.00 248.65" fill="none" stroke="#69a7ff" stroke-width="4" stroke-linecap="round" stroke-linejoin="round"/>
<circle cx="935.00" cy="248.65" r="6" fill="#69a7ff"/>
</svg>