<svg xmlns="http://www.w3.org/2000/svg" width="960" height="430" viewBox="0 0 960 430" role="img" aria-label="Composite score history">
<rect width="100%" height="100%" fill="#0b1020" rx="20"/>
<text x="70" y="32" fill="#f5f7fb" font-family="Inter, Arial, sans-serif" font-size="24" font-weight="700">Composite score history</text>
<text x="70" y="52" fill="#93a4c3" font-family="Inter, Arial, sans-serif" font-size="13">Trailing 67 sessions through 2026-02-09</text>
<line x1="70" x2="935" y1="375.00" y2="375.00" stroke="#27314e" stroke-width="1"/>
<text x="58" y="379.00" text-anchor="end" fill="#93a4c3" font-family="Inter, Arial, sans-serif" font-size="12">0</text>
<line x1="70" x2="935" y1="312.00" y2="312.00" stroke="#27314e" stroke-width="1"/>
<text x="58" y="316.00" text-anchor="end" fill="#93a4c3" font-family="Inter, Arial, sans-serif" font-size="12">8</text>
<line x1="70" x2="935" y1="249.00" y2="249.00" stroke="#27314e" stroke-width="1"/>
<text x="58" y="253.00" text-anchor="end" fill="#93a4c3" font-family="Inter, Arial, sans-serif" font-size="12">17</text>
<line x1="70" x2="935" y1="186.00" y2="186.00" stroke="#27314e" stroke-width="1"/>
<text x="58" y="190.00" text-anchor="end" fill="#93a4c3" font-family="Inter, Arial, sans-serif" font-size="12">25</text>
<line x1="70" x2="935" y1="123.00" y2="123.00" stroke="#27314e" stroke-width="1"/>
<text x="58" y="127.00" text-anchor="end" fill="#93a4c3" font-family="Inter, Arial, sans-serif" font-size="12">33</text>
<line x1="70" x2="935" y1="60.00" y2="60.00" stroke="#27314e" stroke-width="1"/>
<text x="58" y="64.00" text-anchor="end" fill="#93a4c3" font-family="Inter, Arial, sans-serif" font-size="12">41</text>
<text x="70.00" y="412" text-anchor="middle" fill="#93a4c3" font-family="Inter, Arial, sans-serif" font-size="12">2025-10-31</text>
<text x="502.50" y="412" text-anchor="middle" fill="#93a4c3" font-family="Inter, Arial, sans-serif" font-size="12">2025-12-19</text>
<text x="935.00" y="412" text-anchor="middle" fill="#93a4c3" font-family="Inter, Arial, sans-serif" font-size="12">2026-02-09</text>
<path d="M 70.00 267.18 L 83.11 267.10 L 96.21 212.05 L 109.32 225.77 L 122.42 178.65 L 135.53 190.93 L 148.64 255.59 L 161.74 294.63 L 174.85 209.53 L 187.95 237.06 L 201.06 167.36 L 214.17 60.00 L 227.27 70.45 L 240.38 66.18 L 253.48 146.17 L 266.59 277.24 L 279.70 326.96 L 292.80 337.79 L 305.91 375.00 L 319.02 333.06 L 332.12 308.20 L 345.23 290.89 L 358.33 264.74 L 371.44 247.28 L 384.55 278.92 L 397.65 241.33 L 410.76 272.67 L 423.86 307.67 L 436.97 264.05 L 450.08 273.13 L 463.18 273.58 L 476.29 183.07 L 489.39 209.46 L 502.50 304.77 L 515.61 329.32 L 528.71 342.21 L 541.82 374.85 L 554.92 360.82 L 568.03 332.91 L 581.14 310.11 L 594.24 254.37 L 607.35 241.41 L 620.45 250.25 L 633.56 274.96 L 646.67 271.37 L 659.77 287.00 L 672.88 289.90 L 685.98 256.43 L 699.09 234.08 L 712.20 237.06 L 725.30 246.21 L 738.41 211.90 L 751.52 84.17 L 764.62 172.78 L 777.73 214.11 L 790.83 200.15 L 803.94 248.88 L 817.05 293.33 L 830.15 261.99 L 843.26 228.59 L 856.36 226.46 L 869.47 237.44 L 882.58 170.49 L 895.68 173.85 L 908.79 111.24 L 921.89 253.00 L 935.00 248.65" fill="none" stroke="#69a7ff" stroke-width="4" stroke-linecap="round" stroke-linejoin="round"/>
<circle cx="935.00" cy="248.65" r="6" fill="#69a7ff"/>
</svg>