<svg xmlns="http://www.w3.org/2000/svg" width="960" height="430" viewBox="0 0 960 430" role="img" aria-label="Composite score history">
<rect width="100%" height="100%" fill="#0b1020" rx="20"/>
<text x="70" y="32" fill="#f5f7fb" font-family="Inter, Arial, sans-serif" font-size="24" font-weight="700">Composite score history</text>
<text x="70" y="52" fill="#93a4c3" font-family="Inter, Arial, sans-serif" font-size="13">Trailing 73 sessions through 2026-02-09</text>
<line x1="70" x2="935" y1="375.00" y2="375.00" stroke="#27314e" stroke-width="1"/>
<text x="58" y="379.00" text-anchor="end" fill="#93a4c3" font-family="Inter, Arial, sans-serif" font-size="12">0</text>
<line x1="70" x2="935" y1="312.00" y2="312.00" stroke="#27314e" stroke-width="1"/>
<text x="58" y="316.00" text-anchor="end" fill="#93a4c3" font-family="Inter, Arial, sans-serif" font-size="12">8</text>
<line x1="70" x2="935" y1="249.00" y2="249.00" stroke="#27314e" stroke-width="1"/>
<text x="58" y="253.00" text-anchor="end" fill="#93a4c3" font-family="Inter, Arial, sans-serif" font-size="12">17</text>
<line x1="70" x2="935" y1="186.00" y2="186.00" stroke="#27314e" stroke-width="1"/>
<text x="58" y="190.00" text-anchor="end" fill="#93a4c3" font-family="Inter, Arial, sans-serif" font-size="12">25</text>
<line x1="70" x2="935" y1="123.00" y2="123.00" stroke="#27314e" stroke-width="1"/>
<text x="58" y="127.00" text-anchor="end" fill="#93a4c3" font-family="Inter, Arial, sans-serif" font-size="12">33</text>
<line x1="70" x2="935" y1="60.00" y2="60.00" stroke="#27314e" stroke-width="1"/>
<text x="58" y="64.00" text-anchor="end" fill="#93a4c3" font-family="Inter, Arial, sans-serif" font-size="12">41</text>
<text x="70.00" y="412" text-anchor="middle" fill="#93a4c3" font-family="Inter, Arial, sans-serif" font-size="12">2025-10-23</text>
<text x="502.50" y="412" text-anchor="middle" fill="#93a4c3" font-family="Inter, Arial, sans-serif" font-size="12">2025-12-16</text>
<text x="935.00" y="412" text-anchor="middle" fill="#93a4c3" font-family="Inter, Arial, sans-serif" font-size="12">2026-02-09</text>
<path d="M 70.00 271.83 L 82.01 294.55 L 94.03 324.98 L 106.04 327.42 L 118.06 283.65 L 130.07 256.12 L 142.08 236.53 L 154.10 192.98 L 166.11 135.80 L 178.12 183.68 L 190.14 184.67 L 202.15 190.93 L 214.17 255.59 L 226.18 294.63 L 238.19 209.53 L 250.21 237.06 L 262.22 167.36 L 274.24 60.00 L 286.25 70.45 L 298.26 66.18 L 310.28 146.17 L 322.29 277.24 L 334.31 326.96 L 346.32 337.79 L 358.33 375.00 L 370.35 333.06 L 382.36 308.20 L 394.38 290.89 L 406.39 264.74 L 418.40 247.28 L 430.42 278.92 L 442.43 241.33 L 454.44 272.67 L 466.46 307.67 L 478.47 264.05 L 490.49 273.13 L 502.50 273.58 L 514.51 183.07 L 526.53 209.46 L 538.54 304.77 L 550.56 329.32 L 562.57 342.21 L 574.58 374.85 L 586.60 360.82 L 598.61 332.91 L 610.62 310.11 L 622.64 254.37 L 634.65 241.41 L 646.67 250.25 L 658.68 274.96 L 670.69 271.37 L 682.71 287.00 L 694.72 289.90 L 706.74 256.43 L 718.75 234.08 L 730.76 237.06 L 742.78 246.21 L 754.79 211.90 L 766.81 84.17 L 778.82 172.78 L 790.83 214.11 L 802.85 200.15 L 814.86 248.88 L 826.88 293.33 L 838.89 261.99 L 850.90 228.59 L 862.92 226.46 L 874.93 237.44 L 886.94 170.49 L 898.96 173.85 L 910.97 111.24 L 922.99 253.00 L 935.00 248.65" fill="none" stroke="#69a7ff" stroke-width="4" stroke-linecap="round" stroke-linejoin="round"/>
<circle cx="935.00" cy="248.65" r="6" fill="#69a7ff"/>
</svg>