<svg xmlns="http://www.w3.org/2000/svg" width="960" height="430" viewBox="0 0 960 430" role="img" aria-label="Composite score history">
<rect width="100%" height="100%" fill="#0b1020" rx="20"/>
<text x="70" y="32" fill="#f5f7fb" font-family="Inter, Arial, sans-serif" font-size="24" font-weight="700">Composite score history</text>
<text x="70" y="52" fill="#93a4c3" font-family="Inter, Arial, sans-serif" font-size="13">Trailing 78 sessions through 2026-02-09</text>
<line x1="70" x2="935" y1="375.00" y2="375.00" stroke="#27314e" stroke-width="1"/>
<text x="58" y="379.00" text-anchor="end" fill="#93a4c3" font-family="Inter, Arial, sans-serif" font-size="12">0</text>
<line x1="70" x2="935" y1="312.00" y2="312.00" stroke="#27314e" stroke-width="1"/>
<text x="58" y="316.00" text-anchor="end" fill="#93a4c3" font-family="Inter, Arial, sans-serif" font-size="12">8</text>
<line x1="70" x2="935" y1="249.00" y2="249.00" stroke="#27314e" stroke-width="1"/>
<text x="58" y="253.00" text-anchor="end" fill="#93a4c3" font-family="Inter, Arial, sans-serif" font-size="12">17</text>
<line x1="70" x2="935" y1="186.00" y2="186.00" stroke="#27314e" stroke-width="1"/>
<text x="58" y="190.00" text-anchor="end" fill="#93a4c3" font-family="Inter, Arial, sans-serif" font-size="12">25</text>
<line x1="70" x2="935" y1="123.00" y2="123.00" stroke="#27314e" stroke-width="1"/>
<text x="58" y="127.00" text-anchor="end" fill="#93a4c3" font-family="Inter, Arial, sans-serif" font-size="12">33</text>
<line x1="70" x2="935" y1="60.00" y2="60.00" stroke="#27314e" stroke-width="1"/>
<text x="58" y="64.00" text-anchor="end" fill="#93a4c3" font-family="Inter, Arial, sans-serif" font-size="12">41</text>
<text x="70.00" y="412" text-anchor="middle" fill="#93a4c3" font-family="Inter, Arial, sans-serif" font-size="12">2025-10-16</text>
<text x="508.12" y="412" text-anchor="middle" fill="#93a4c3" font-family="Inter, Arial, sans-serif" font-size="12">2025-12-12</text>
<text x="935.00" y="412" text-anchor="middle" fill="#93a4c3" font-family="Inter, Arial, sans-serif" font-size="12">2026-02-09</text>
<path d="M 70.00 243.77 L 81.23 262.30 L 92.47 298.67 L 103.70 298.29 L 114.94 273.81 L 126.17 232.33 L 137.40 267.94 L 148.64 285.48 L 159.87 299.36 L 171.10 266.80 L 182.34 256.12 L 193.57 236.53 L 204.81 192.98 L 216.04 135.80 L 227.27 183.68 L 238.51 184.67 L 249.74 190.93 L 260.97 255.59 L 272.21 294.63 L 283.44 209.53 L 294.68 237.06 L 305.91 167.36 L 317.14 60.00 L 328.38 70.45 L 339.61 66.18 L 350.84 146.17 L 362.08 277.24 L 373.31 326.96 L 384.55 337.79 L 395.78 375.00 L 407.01 333.06 L 418.25 308.20 L 429.48 290.89 L 440.71 264.74 L 451.95 247.28 L 463.18 278.92 L 474.42 241.33 L 485.65 272.67 L 496.88 307.67 L 508.12 264.05 L 519.35 273.13 L 530.58 273.58 L 541.82 183.07 L 553.05 209.46 L 564.29 304.77 L 575.52 329.32 L 586.75 342.21 L 597.99 374.85 L 609.22 360.82 L 620.45 332.91 L 631.69 310.11 L 642.92 254.37 L 654.16 241.41 L 665.39 250.25 L 676.62 274.96 L 687.86 271.37 L 699.09 287.00 L 710.32 289.90 L 721.56 256.43 L 732.79 234.08 L 744.03 237.06 L 755.26 246.21 L 766.49 211.90 L 777.73 84.17 L 788.96 172.78 L 800.19 214.11 L 811.43 200.15 L 822.66 248.88 L 833.90 293.33 L 845.13 261.99 L 856.36 228.59 L 867.60 226.46 L 878.83 237.44 L 890.06 170.49 L 901.30 173.85 L 912.53 111.24 L 923.77 253.00 L 935.00 248.65" fill="none" stroke="#69a7ff" stroke-width="4" stroke-linecap="round" stroke-linejoin="round"/>
<circle cx="935.00" cy="248.65" r="6" fill="#69a7ff"/>
</svg>