<svg xmlns="http://www.w3.org/2000/svg" width="960" height="430" viewBox="0 0 960 430" role="img" aria-label="Composite score history">
<rect width="100%" height="100%" fill="#0b1020" rx="20"/>
<text x="70" y="32" fill="#f5f7fb" font-family="Inter, Arial, sans-serif" font-size="24" font-weight="700">Composite score history</text>
<text x="70" y="52" fill="#93a4c3" font-family="Inter, Arial, sans-serif" font-size="13">Trailing 89 sessions through 2026-02-09</text>
<line x1="70" x2="935" y1="375.00" y2="375.00" stroke="#27314e" stroke-width="1"/>
<text x="58" y="379.00" text-anchor="end" fill="#93a4c3" font-family="Inter, Arial, sans-serif" font-size="12">0</text>
<line x1="70" x2="935" y1="312.00" y2="312.00" stroke="#27314e" stroke-width="1"/>
<text x="58" y="316.00" text-anchor="end" fill="#93a4c3" font-family="Inter, Arial, sans-serif" font-size="12">8</text>
<line x1="70" x2="935" y1="249.00" y2="249.00" stroke="#27314e" stroke-width="1"/>
<text x="58" y="253.00" text-anchor="end" fill="#93a4c3" font-family="Inter, Arial, sans-serif" font-size="12">17</text>
<line x1="70" x2="935" y1="186.00" y2="186.00" stroke="#27314e" stroke-width="1"/>
<text x="58" y="190.00" text-anchor="end" fill="#93a4c3" font-family="Inter, Arial, sans-serif" font-size="12">25</text>
<line x1="70" x2="935" y1="123.00" y2="123.00" stroke="#27314e" stroke-width="1"/>
<text x="58" y="127.00" text-anchor="end" fill="#93a4c3" font-family="Inter, Arial, sans-serif" font-size="12">33</text>
<line x1="70" x2="935" y1="60.00" y2="60.00" stroke="#27314e" stroke-width="1"/>
<text x="58" y="64.00" text-anchor="end" fill="#93a4c3" font-family="Inter, Arial, sans-serif" font-size="12">41</text>
<text x="70.00" y="412" text-anchor="middle" fill="#93a4c3" font-family="Inter, Arial, sans-serif" font-size="12">2025-09-30</text>
<text x="502.50" y="412" text-anchor="middle" fill="#93a4c3" font-family="Inter, Arial, sans-serif" font-size="12">2025-12-04</text>
<text x="935.00" y="412" text-anchor="middle" fill="#93a4c3" font-family="Inter, Arial, sans-serif" font-size="12">2026-02-09</text>
<path d="M 70.00 271.60 L 79.83 283.95 L 89.66 283.04 L 99.49 280.22 L 109.32 289.83 L 119.15 271.60 L 128.98 278.85 L 138.81 256.96 L 148.64 123.98 L 158.47 175.75 L 168.30 212.66 L 178.12 109.03 L 187.95 196.19 L 197.78 336.57 L 207.61 309.88 L 217.44 285.33 L 227.27 232.33 L 237.10 267.94 L 246.93 285.48 L 256.76 299.36 L 266.59 266.80 L 276.42 256.12 L 286.25 236.53 L 296.08 192.98 L 305.91 135.80 L 315.74 183.68 L 325.57 184.67 L 335.40 190.93 L 345.23 255.59 L 355.06 294.63 L 364.89 209.53 L 374.72 237.06 L 384.55 167.36 L 394.38 60.00 L 404.20 70.45 L 414.03 66.18 L 423.86 146.17 L 433.69 277.24 L 443.52 326.96 L 453.35 337.79 L 463.18 375.00 L 473.01 333.06 L 482.84 308.20 L 492.67 290.89 L 502.50 264.74 L 512.33 247.28 L 522.16 278.92 L 531.99 241.33 L 541.82 272.67 L 551.65 307.67 L 561.48 264.05 L 571.31 273.13 L 581.14 273.58 L 590.97 183.07 L 600.80 209.46 L 610.62 304.77 L 620.45 329.32 L 630.28 342.21 L 640.11 374.85 L 649.94 360.82 L 659.77 332.91 L 669.60 310.11 L 679.43 254.37 L 689.26 241.41 L 699.09 250.25 L 708.92 274.96 L 718.75 271.37 L 728.58 287.00 L 738.41 289.90 L 748.24 256.43 L 758.07 234.08 L 767.90 237.06 L 777.73 246.21 L 787.56 211.90 L 797.39 84.17 L 807.22 172.78 L 817.05 214.11 L 826.88 200.15 L 836.70 248.88 L 846.53 293.33 L 856.36 261.99 L 866.19 228.59 L 876.02 226.46 L 885.85 237.44 L 895.68 170.49 L 905.51 173.85 L 915.34 111.24 L 925.17 253.00 L 935.00 248.65" fill="none" stroke="#69a7ff" stroke-width="4" stroke-linecap="round" stroke-linejoin="round"/>
<circle cx="935.00" cy="248.65" r="6" fill="#69a7ff"/>
</svg>