<svg xmlns="http://www.w3.org/2000/svg" width="960" height="430" viewBox="0 0 960 430" role="img" aria-label="Composite score history">
<rect width="100%" height="100%" fill="#0b1020" rx="20"/>
<text x="70" y="32" fill="#f5f7fb" font-family="Inter, Arial, sans-serif" font-size="24" font-weight="700">Composite score history</text>
<text x="70" y="52" fill="#93a4c3" font-family="Inter, Arial, sans-serif" font-size="13">Trailing 76 sessions through 2025-12-10</text>
<line x1="70" x2="935" y1="375.00" y2="375.00" stroke="#27314e" stroke-width="1"/>
<text x="58" y="379.00" text-anchor="end" fill="#93a4c3" font-family="Inter, Arial, sans-serif" font-size="12">0</text>
<line x1="70" x2="935" y1="312.00" y2="312.00" stroke="#27314e" stroke-width="1"/>
<text x="58" y="316.00" text-anchor="end" fill="#93a4c3" font-family="Inter, Arial, sans-serif" font-size="12">8</text>
<line x1="70" x2="935" y1="249.00" y2="249.00" stroke="#27314e" stroke-width="1"/>
<text x="58" y="253.00" text-anchor="end" fill="#93a4c3" font-family="Inter, Arial, sans-serif" font-size="12">17</text>
<line x1="70" x2="935" y1="186.00" y2="186.00" stroke="#27314e" stroke-width="1"/>
<text x="58" y="190.00" text-anchor="end" fill="#93a4c3" font-family="Inter, Arial, sans-serif" font-size="12">25</text>
<line x1="70" x2="935" y1="123.00" y2="123.00" stroke="#27314e" stroke-width="1"/>
<text x="58" y="127.00" text-anchor="end" fill="#93a4c3" font-family="Inter, Arial, sans-serif" font-size="12">33</text>
<line x1="70" x2="935" y1="60.00" y2="60.00" stroke="#27314e" stroke-width="1"/>
<text x="58" y="64.00" text-anchor="end" fill="#93a4c3" font-family="Inter, Arial, sans-serif" font-size="12">41</text>
<text x="70.00" y="412" text-anchor="middle" fill="#93a4c3" font-family="Inter, Arial, sans-serif" font-size="12">2025-08-21</text>
<text x="508.27" y="412" text-anchor="middle" fill="#93a4c3" font-family="Inter, Arial, sans-serif" font-size="12">2025-10-16</text>
<text x="935.00" y="412" text-anchor="middle" fill="#93a4c3" font-family="Inter, Arial, sans-serif" font-size="12">2025-12-10</text>
<path d="M 70.00 257.80 L 81.53 286.32 L 93.07 267.25 L 104.60 277.40 L 116.13 281.74 L 127.67 293.71 L 139.20 259.71 L 150.73 225.47 L 162.27 243.31 L 173.80 278.39 L 185.33 265.27 L 196.87 295.39 L 208.40 309.58 L 219.93 305.99 L 231.47 310.95 L 243.00 297.45 L 254.53 295.09 L 266.07 293.87 L 277.60 287.46 L 289.13 253.38 L 300.67 288.22 L 312.20 266.64 L 323.73 279.46 L 335.27 266.03 L 346.80 222.49 L 358.33 245.75 L 369.87 247.43 L 381.40 259.32 L 392.93 297.76 L 404.47 309.80 L 416.00 286.01 L 427.53 296.54 L 439.07 271.60 L 450.60 278.85 L 462.13 256.96 L 473.67 123.98 L 485.20 175.75 L 496.73 212.66 L 508.27 109.03 L 519.80 196.19 L 531.33 336.57 L 542.87 309.88 L 554.40 285.33 L 565.93 232.33 L 577.47 267.94 L 589.00 285.48 L 600.53 299.36 L 612.07 266.80 L 623.60 256.12 L 635.13 236.53 L 646.67 192.98 L 658.20 135.80 L 669.73 183.68 L 681.27 184.67 L 692.80 190.93 L 704.33 255.59 L 715.87 294.63 L 727.40 209.53 L 738.93 237.06 L 750.47 167.36 L 762.00 60.00 L 773.53 70.45 L 785.07 66.18 L 796.60 146.17 L 808.13 277.24 L 819.67 326.96 L 831.20 337.79 L 842.73 375.00 L 854.27 333.06 L 865.80 308.20 L 877.33 290.89 L 888.87 264.74 L 900.40 247.28 L 911.93 278.92 L 923.47 241.33 L 935.00 272.67" fill="none" stroke="#69a7ff" stroke-width="4" stroke-linecap="round" stroke-linejoin="round"/>
<circle cx="935.00" cy="272.67" r="6" fill="#69a7ff"/>
</svg>