<svg xmlns="http://www.w3.org/2000/svg" width="960" height="430" viewBox="0 0 960 430" role="img" aria-label="Composite score history">
<rect width="100%" height="100%" fill="#0b1020" rx="20"/>
<text x="70" y="32" fill="#f5f7fb" font-family="Inter, Arial, sans-serif" font-size="24" font-weight="700">Composite score history</text>
<text x="70" y="52" fill="#93a4c3" font-family="Inter, Arial, sans-serif" font-size="13">Trailing 54 sessions through 2025-12-10</text>
<line x1="70" x2="935" y1="375.00" y2="375.00" stroke="#27314e" stroke-width="1"/>
<text x="58" y="379.00" text-anchor="end" fill="#93a4c3" font-family="Inter, Arial, sans-serif" font-size="12">0</text>
<line x1="70" x2="935" y1="312.00" y2="312.00" stroke="#27314e" stroke-width="1"/>
<text x="58" y="316.00" text-anchor="end" fill="#93a4c3" font-family="Inter, Arial, sans-serif" font-size="12">8</text>
<line x1="70" x2="935" y1="249.00" y2="249.00" stroke="#27314e" stroke-width="1"/>
<text x="58" y="253.00" text-anchor="end" fill="#93a4c3" font-family="Inter, Arial, sans-serif" font-size="12">17</text>
<line x1="70" x2="935" y1="186.00" y2="186.00" stroke="#27314e" stroke-width="1"/>
<text x="58" y="190.00" text-anchor="end" fill="#93a4c3" font-family="Inter, Arial, sans-serif" font-size="12">25</text>
<line x1="70" x2="935" y1="123.00" y2="123.00" stroke="#27314e" stroke-width="1"/>
<text x="58" y="127.00" text-anchor="end" fill="#93a4c3" font-family="Inter, Arial, sans-serif" font-size="12">33</text>
<line x1="70" x2="935" y1="60.00" y2="60.00" stroke="#27314e" stroke-width="1"/>
<text x="58" y="64.00" text-anchor="end" fill="#93a4c3" font-family="Inter, Arial, sans-serif" font-size="12">41</text>
<text x="70.00" y="412" text-anchor="middle" fill="#93a4c3" font-family="Inter, Arial, sans-serif" font-size="12">2025-09-23</text>
<text x="510.66" y="412" text-anchor="middle" fill="#93a4c3" font-family="Inter, Arial, sans-serif" font-size="12">2025-10-31</text>
<text x="935.00" y="412" text-anchor="middle" fill="#93a4c3" font-family="Inter, Arial, sans-serif" font-size="12">2025-12-10</text>
<path d="M 70.00 273.13 L 86.32 250.71 L 102.64 202.75 L 118.96 237.75 L 135.28 242.93 L 151.60 259.32 L 167.92 297.76 L 184.25 309.80 L 200.57 286.01 L 216.89 296.54 L 233.21 271.60 L 249.53 278.85 L 265.85 256.96 L 282.17 123.98 L 298.49 175.75 L 314.81 212.66 L 331.13 109.03 L 347.45 196.19 L 363.77 336.57 L 380.09 309.88 L 396.42 285.33 L 412.74 232.33 L 429.06 267.94 L 445.38 285.48 L 461.70 299.36 L 478.02 266.80 L 494.34 256.12 L 510.66 236.53 L 526.98 192.98 L 543.30 135.80 L 559.62 183.68 L 575.94 184.67 L 592.26 190.93 L 608.58 255.59 L 624.91 294.63 L 641.23 209.53 L 657.55 237.06 L 673.87 167.36 L 690.19 60.00 L 706.51 70.45 L 722.83 66.18 L 739.15 146.17 L 755.47 277.24 L 771.79 326.96 L 788.11 337.79 L 804.43 375.00 L 820.75 333.06 L 837.08 308.20 L 853.40 290.89 L 869.72 264.74 L 886.04 247.28 L 902.36 278.92 L 918.68 241.33 L 935.00 272.67" fill="none" stroke="#69a7ff" stroke-width="4" stroke-linecap="round" stroke-linejoin="round"/>
<circle cx="935.00" cy="272.67" r="6" fill="#69a7ff"/>
</svg>