<svg xmlns="http://www.w3.org/2000/svg" width="960" height="430" viewBox="0 0 960 430" role="img" aria-label="Composite score history">
<rect width="100%" height="100%" fill="#0b1020" rx="20"/>
<text x="70" y="32" fill="#f5f7fb" font-family="Inter, Arial, sans-serif" font-size="24" font-weight="700">Composite score history</text>
<text x="70" y="52" fill="#93a4c3" font-family="Inter, Arial, sans-serif" font-size="13">Trailing 53 sessions through 2025-12-10</text>
<line x1="70" x2="935" y1="375.00" y2="375.00" stroke="#27314e" stroke-width="1"/>
<text x="58" y="379.00" text-anchor="end" fill="#93a4c3" font-family="Inter, Arial, sans-serif" font-size="12">0</text>
<line x1="70" x2="935" y1="312.00" y2="312.00" stroke="#27314e" stroke-width="1"/>
<text x="58" y="316.00" text-anchor="end" fill="#93a4c3" font-family="Inter, Arial, sans-serif" font-size="12">8</text>
<line x1="70" x2="935" y1="249.00" y2="249.00" stroke="#27314e" stroke-width="1"/>
<text x="58" y="253.00" text-anchor="end" fill="#93a4c3" font-family="Inter, Arial, sans-serif" font-size="12">17</text>
<line x1="70" x2="935" y1="186.00" y2="186.00" stroke="#27314e" stroke-width="1"/>
<text x="58" y="190.00" text-anchor="end" fill="#93a4c3" font-family="Inter, Arial, sans-serif" font-size="12">25</text>
<line x1="70" x2="935" y1="123.00" y2="123.00" stroke="#27314e" stroke-width="1"/>
<text x="58" y="127.00" text-anchor="end" fill="#93a4c3" font-family="Inter, Arial, sans-serif" font-size="12">33</text>
<line x1="70" x2="935" y1="60.00" y2="60.00" stroke="#27314e" stroke-width="1"/>
<text x="58" y="64.00" text-anchor="end" fill="#93a4c3" font-family="Inter, Arial, sans-serif" font-size="12">41</text>
<text x="70.00" y="412" text-anchor="middle" fill="#93a4c3" font-family="Inter, Arial, sans-serif" font-size="12">2025-09-24</text>
<text x="502.50" y="412" text-anchor="middle" fill="#93a4c3" font-family="Inter, Arial, sans-serif" font-size="12">2025-10-31</text>
<text x="935.00" y="412" text-anchor="middle" fill="#93a4c3" font-family="Inter, Arial, sans-serif" font-size="12">2025-12-10</text>
<path d="M 70.00 273.74 L 86.63 222.49 L 103.27 259.17 L 119.90 260.54 L 136.54 276.25 L 153.17 297.76 L 169.81 309.80 L 186.44 286.01 L 203.08 296.54 L 219.71 271.60 L 236.35 278.85 L 252.98 256.96 L 269.62 123.98 L 286.25 175.75 L 302.88 212.66 L 319.52 109.03 L 336.15 196.19 L 352.79 336.57 L 369.42 309.88 L 386.06 285.33 L 402.69 232.33 L 419.33 267.94 L 435.96 285.48 L 452.60 299.36 L 469.23 266.80 L 485.87 256.12 L 502.50 236.53 L 519.13 192.98 L 535.77 135.80 L 552.40 183.68 L 569.04 184.67 L 585.67 190.93 L 602.31 255.59 L 618.94 294.63 L 635.58 209.53 L 652.21 237.06 L 668.85 167.36 L 685.48 60.00 L 702.12 70.45 L 718.75 66.18 L 735.38 146.17 L 752.02 277.24 L 768.65 326.96 L 785.29 337.79 L 801.92 375.00 L 818.56 333.06 L 835.19 308.20 L 851.83 290.89 L 868.46 264.74 L 885.10 247.28 L 901.73 278.92 L 918.37 241.33 L 935.00 272.67" fill="none" stroke="#69a7ff" stroke-width="4" stroke-linecap="round" stroke-linejoin="round"/>
<circle cx="935.00" cy="272.67" r="6" fill="#69a7ff"/>
</svg>