<svg xmlns="http://www.w3.org/2000/svg" width="960" height="430" viewBox="0 0 960 430" role="img" aria-label="Composite score history">
<rect width="100%" height="100%" fill="#0b1020" rx="20"/>
<text x="70" y="32" fill="#f5f7fb" font-family="Inter, Arial, sans-serif" font-size="24" font-weight="700">Composite score history</text>
<text x="70" y="52" fill="#93a4c3" font-family="Inter, Arial, sans-serif" font-size="13">Trailing 67 sessions through 2025-12-10</text>
<line x1="70" x2="935" y1="375.00" y2="375.00" stroke="#27314e" stroke-width="1"/>
<text x="58" y="379.00" text-anchor="end" fill="#93a4c3" font-family="Inter, Arial, sans-serif" font-size="12">0</text>
<line x1="70" x2="935" y1="312.00" y2="312.00" stroke="#27314e" stroke-width="1"/>
<text x="58" y="316.00" text-anchor="end" fill="#93a4c3" font-family="Inter, Arial, sans-serif" font-size="12">8</text>
<line x1="70" x2="935" y1="249.00" y2="249.00" stroke="#27314e" stroke-width="1"/>
<text x="58" y="253.00" text-anchor="end" fill="#93a4c3" font-family="Inter, Arial, sans-serif" font-size="12">17</text>
<line x1="70" x2="935" y1="186.00" y2="186.00" stroke="#27314e" stroke-width="1"/>
<text x="58" y="190.00" text-anchor="end" fill="#93a4c3" font-family="Inter, Arial, sans-serif" font-size="12">25</text>
<line x1="70" x2="935" y1="123.00" y2="123.00" stroke="#27314e" stroke-width="1"/>
<text x="58" y="127.00" text-anchor="end" fill="#93a4c3" font-family="Inter, Arial, sans-serif" font-size="12">33</text>
<line x1="70" x2="935" y1="60.00" y2="60.00" stroke="#27314e" stroke-width="1"/>
<text x="58" y="64.00" text-anchor="end" fill="#93a4c3" font-family="Inter, Arial, sans-serif" font-size="12">41</text>
<text x="70.00" y="412" text-anchor="middle" fill="#93a4c3" font-family="Inter, Arial, sans-serif" font-size="12">2025-09-04</text>
<text x="502.50" y="412" text-anchor="middle" fill="#93a4c3" font-family="Inter, Arial, sans-serif" font-size="12">2025-10-22</text>
<text x="935.00" y="412" text-anchor="middle" fill="#93a4c3" font-family="Inter, Arial, sans-serif" font-size="12">2025-12-10</text>
<path d="M 70.00 275.57 L 83.11 270.53 L 96.21 281.06 L 109.32 283.80 L 122.42 289.67 L 135.53 310.95 L 148.64 297.45 L 161.74 295.09 L 174.85 293.87 L 187.95 287.46 L 201.06 253.38 L 214.17 288.22 L 227.27 266.64 L 240.38 279.46 L 253.48 266.03 L 266.59 222.49 L 279.70 245.75 L 292.80 247.43 L 305.91 259.32 L 319.02 297.76 L 332.12 309.80 L 345.23 286.01 L 358.33 296.54 L 371.44 271.60 L 384.55 278.85 L 397.65 256.96 L 410.76 123.98 L 423.86 175.75 L 436.97 212.66 L 450.08 109.03 L 463.18 196.19 L 476.29 336.57 L 489.39 309.88 L 502.50 285.33 L 515.61 232.33 L 528.71 267.94 L 541.82 285.48 L 554.92 299.36 L 568.03 266.80 L 581.14 256.12 L 594.24 236.53 L 607.35 192.98 L 620.45 135.80 L 633.56 183.68 L 646.67 184.67 L 659.77 190.93 L 672.88 255.59 L 685.98 294.63 L 699.09 209.53 L 712.20 237.06 L 725.30 167.36 L 738.41 60.00 L 751.52 70.45 L 764.62 66.18 L 777.73 146.17 L 790.83 277.24 L 803.94 326.96 L 817.05 337.79 L 830.15 375.00 L 843.26 333.06 L 856.36 308.20 L 869.47 290.89 L 882.58 264.74 L 895.68 247.28 L 908.79 278.92 L 921.89 241.33 L 935.00 272.67" fill="none" stroke="#69a7ff" stroke-width="4" stroke-linecap="round" stroke-linejoin="round"/>
<circle cx="935.00" cy="272.67" r="6" fill="#69a7ff"/>
</svg>