<svg xmlns="http://www.w3.org/2000/svg" width="960" height="430" viewBox="0 0 960 430" role="img" aria-label="Composite score history">
<rect width="100%" height="100%" fill="#0b1020" rx="20"/>
<text x="70" y="32" fill="#f5f7fb" font-family="Inter, Arial, sans-serif" font-size="24" font-weight="700">Composite score history</text>
<text x="70" y="52" fill="#93a4c3" font-family="Inter, Arial, sans-serif" font-size="13">Trailing 74 sessions through 2025-12-10</text>
<line x1="70" x2="935" y1="375.00" y2="375.00" stroke="#27314e" stroke-width="1"/>
<text x="58" y="379.00" text-anchor="end" fill="#93a4c3" font-family="Inter, Arial, sans-serif" font-size="12">0</text>
<line x1="70" x2="935" y1="312.00" y2="312.00" stroke="#27314e" stroke-width="1"/>
<text x="58" y="316.00" text-anchor="end" fill="#93a4c3" font-family="Inter, Arial, sans-serif" font-size="12">8</text>
<line x1="70" x2="935" y1="249.00" y2="249.00" stroke="#27314e" stroke-width="1"/>
<text x="58" y="253.00" text-anchor="end" fill="#93a4c3" font-family="Inter, Arial, sans-serif" font-size="12">17</text>
<line x1="70" x2="935" y1="186.00" y2="186.00" stroke="#27314e" stroke-width="1"/>
<text x="58" y="190.00" text-anchor="end" fill="#93a4c3" font-family="Inter, Arial, sans-serif" font-size="12">25</text>
<line x1="70" x2="935" y1="123.00" y2="123.00" stroke="#27314e" stroke-width="1"/>
<text x="58" y="127.00" text-anchor="end" fill="#93a4c3" font-family="Inter, Arial, sans-serif" font-size="12">33</text>
<line x1="70" x2="935" y1="60.00" y2="60.00" stroke="#27314e" stroke-width="1"/>
<text x="58" y="64.00" text-anchor="end" fill="#93a4c3" font-family="Inter, Arial, sans-serif" font-size="12">41</text>
<text x="70.00" y="412" text-anchor="middle" fill="#93a4c3" font-family="Inter, Arial, sans-serif" font-size="12">2025-08-25</text>
<text x="508.42" y="412" text-anchor="middle" fill="#93a4c3" font-family="Inter, Arial, sans-serif" font-size="12">2025-10-17</text>
<text x="935.00" y="412" text-anchor="middle" fill="#93a4c3" font-family="Inter, Arial, sans-serif" font-size="12">2025-12-10</text>
<path d="M 70.00 265.65 L 81.85 275.64 L 93.70 279.53 L 105.55 291.88 L 117.40 273.89 L 129.25 225.47 L 141.10 243.31 L 152.95 278.39 L 164.79 265.27 L 176.64 295.39 L 188.49 309.58 L 200.34 305.99 L 212.19 310.95 L 224.04 297.45 L 235.89 295.09 L 247.74 293.87 L 259.59 287.46 L 271.44 253.38 L 283.29 288.22 L 295.14 266.64 L 306.99 279.46 L 318.84 266.03 L 330.68 222.49 L 342.53 245.75 L 354.38 247.43 L 366.23 259.32 L 378.08 297.76 L 389.93 309.80 L 401.78 286.01 L 413.63 296.54 L 425.48 271.60 L 437.33 278.85 L 449.18 256.96 L 461.03 123.98 L 472.88 175.75 L 484.73 212.66 L 496.58 109.03 L 508.42 196.19 L 520.27 336.57 L 532.12 309.88 L 543.97 285.33 L 555.82 232.33 L 567.67 267.94 L 579.52 285.48 L 591.37 299.36 L 603.22 266.80 L 615.07 256.12 L 626.92 236.53 L 638.77 192.98 L 650.62 135.80 L 662.47 183.68 L 674.32 184.67 L 686.16 190.93 L 698.01 255.59 L 709.86 294.63 L 721.71 209.53 L 733.56 237.06 L 745.41 167.36 L 757.26 60.00 L 769.11 70.45 L 780.96 66.18 L 792.81 146.17 L 804.66 277.24 L 816.51 326.96 L 828.36 337.79 L 840.21 375.00 L 852.05 333.06 L 863.90 308.20 L 875.75 290.89 L 887.60 264.74 L 899.45 247.28 L 911.30 278.92 L 923.15 241.33 L 935.00 272.67" fill="none" stroke="#69a7ff" stroke-width="4" stroke-linecap="round" stroke-linejoin="round"/>
<circle cx="935.00" cy="272.67" r="6" fill="#69a7ff"/>
</svg>