<svg xmlns="http://www.w3.org/2000/svg" width="960" height="430" viewBox="0 0 960 430" role="img" aria-label="Composite score history">
<rect width="100%" height="100%" fill="#0b1020" rx="20"/>
<text x="70" y="32" fill="#f5f7fb" font-family="Inter, Arial, sans-serif" font-size="24" font-weight="700">Composite score history</text>
<text x="70" y="52" fill="#93a4c3" font-family="Inter, Arial, sans-serif" font-size="13">Trailing 90 sessions through 2026-01-20</text>
<line x1="70" x2="935" y1="375.00" y2="375.00" stroke="#27314e" stroke-width="1"/>
<text x="58" y="379.00" text-anchor="end" fill="#93a4c3" font-family="Inter, Arial, sans-serif" font-size="12">0</text>
<line x1="70" x2="935" y1="312.00" y2="312.00" stroke="#27314e" stroke-width="1"/>
<text x="58" y="316.00" text-anchor="end" fill="#93a4c3" font-family="Inter, Arial, sans-serif" font-size="12">8</text>
<line x1="70" x2="935" y1="249.00" y2="249.00" stroke="#27314e" stroke-width="1"/>
<text x="58" y="253.00" text-anchor="end" fill="#93a4c3" font-family="Inter, Arial, sans-serif" font-size="12">17</text>
<line x1="70" x2="935" y1="186.00" y2="186.00" stroke="#27314e" stroke-width="1"/>
<text x="58" y="190.00" text-anchor="end" fill="#93a4c3" font-family="Inter, Arial, sans-serif" font-size="12">25</text>
<line x1="70" x2="935" y1="123.00" y2="123.00" stroke="#27314e" stroke-width="1"/>
<text x="58" y="127.00" text-anchor="end" fill="#93a4c3" font-family="Inter, Arial, sans-serif" font-size="12">33</text>
<line x1="70" x2="935" y1="60.00" y2="60.00" stroke="#27314e" stroke-width="1"/>
<text x="58" y="64.00" text-anchor="end" fill="#93a4c3" font-family="Inter, Arial, sans-serif" font-size="12">41</text>
<text x="70.00" y="412" text-anchor="middle" fill="#93a4c3" font-family="Inter, Arial, sans-serif" font-size="12">2025-09-09</text>
<text x="507.36" y="412" text-anchor="middle" fill="#93a4c3" font-family="Inter, Arial, sans-serif" font-size="12">2025-11-13</text>
<text x="935.00" y="412" text-anchor="middle" fill="#93a4c3" font-family="Inter, Arial, sans-serif" font-size="12">2026-01-20</text>
<path d="M 70.00 299.74 L 79.72 305.99 L 89.44 310.95 L 99.16 297.45 L 108.88 295.09 L 118.60 293.87 L 128.31 287.46 L 138.03 253.38 L 147.75 288.22 L 157.47 266.64 L 167.19 279.46 L 176.91 266.03 L 186.63 222.49 L 196.35 245.75 L 206.07 247.43 L 215.79 259.32 L 225.51 297.76 L 235.22 309.80 L 244.94 286.01 L 254.66 296.54 L 264.38 271.60 L 274.10 278.85 L 283.82 256.96 L 293.54 123.98 L 303.26 175.75 L 312.98 212.66 L 322.70 109.03 L 332.42 196.19 L 342.13 336.57 L 351.85 309.88 L 361.57 285.33 L 371.29 232.33 L 381.01 267.94 L 390.73 285.48 L 400.45 299.36 L 410.17 266.80 L 419.89 256.12 L 429.61 236.53 L 439.33 192.98 L 449.04 135.80 L 458.76 183.68 L 468.48 184.67 L 478.20 190.93 L 487.92 255.59 L 497.64 294.63 L 507.36 209.53 L 517.08 237.06 L 526.80 167.36 L 536.52 60.00 L 546.24 70.45 L 555.96 66.18 L 565.67 146.17 L 575.39 277.24 L 585.11 326.96 L 594.83 337.79 L 604.55 375.00 L 614.27 333.06 L 623.99 308.20 L 633.71 290.89 L 643.43 264.74 L 653.15 247.28 L 662.87 278.92 L 672.58 241.33 L 682.30 272.67 L 692.02 307.67 L 701.74 264.05 L 711.46 273.13 L 721.18 273.58 L 730.90 183.07 L 740.62 209.46 L 750.34 304.77 L 760.06 329.32 L 769.78 342.21 L 779.49 374.85 L 789.21 360.82 L 798.93 332.91 L 808.65 310.11 L 818.37 254.37 L 828.09 241.41 L 837.81 250.25 L 847.53 274.96 L 857.25 271.37 L 866.97 287.00 L 876.69 289.90 L 886.40 256.43 L 896.12 234.08 L 905.84 237.06 L 915.56 246.21 L 925.28 211.90 L 935.00 84.17" fill="none" stroke="#69a7ff" stroke-width="4" stroke-linecap="round" stroke-linejoin="round"/>
<circle cx="935.00" cy="84.17" r="6" fill="#69a7ff"/>
</svg>