<svg xmlns="http://www.w3.org/2000/svg" width="960" height="430" viewBox="0 0 960 430" role="img" aria-label="Composite score history">
<rect width="100%" height="100%" fill="#0b1020" rx="20"/>
<text x="70" y="32" fill="#f5f7fb" font-family="Inter, Arial, sans-serif" font-size="24" font-weight="700">Composite score history</text>
<text x="70" y="52" fill="#93a4c3" font-family="Inter, Arial, sans-serif" font-size="13">Trailing 68 sessions through 2026-01-20</text>
<line x1="70" x2="935" y1="375.00" y2="375.00" stroke="#27314e" stroke-width="1"/>
<text x="58" y="379.00" text-anchor="end" fill="#93a4c3" font-family="Inter, Arial, sans-serif" font-size="12">0</text>
<line x1="70" x2="935" y1="312.00" y2="312.00" stroke="#27314e" stroke-width="1"/>
<text x="58" y="316.00" text-anchor="end" fill="#93a4c3" font-family="Inter, Arial, sans-serif" font-size="12">8</text>
<line x1="70" x2="935" y1="249.00" y2="249.00" stroke="#27314e" stroke-width="1"/>
<text x="58" y="253.00" text-anchor="end" fill="#93a4c3" font-family="Inter, Arial, sans-serif" font-size="12">17</text>
<line x1="70" x2="935" y1="186.00" y2="186.00" stroke="#27314e" stroke-width="1"/>
<text x="58" y="190.00" text-anchor="end" fill="#93a4c3" font-family="Inter, Arial, sans-serif" font-size="12">25</text>
<line x1="70" x2="935" y1="123.00" y2="123.00" stroke="#27314e" stroke-width="1"/>
<text x="58" y="127.00" text-anchor="end" fill="#93a4c3" font-family="Inter, Arial, sans-serif" font-size="12">33</text>
<line x1="70" x2="935" y1="60.00" y2="60.00" stroke="#27314e" stroke-width="1"/>
<text x="58" y="64.00" text-anchor="end" fill="#93a4c3" font-family="Inter, Arial, sans-serif" font-size="12">41</text>
<text x="70.00" y="412" text-anchor="middle" fill="#93a4c3" font-family="Inter, Arial, sans-serif" font-size="12">2025-10-09</text>
<text x="508.96" y="412" text-anchor="middle" fill="#93a4c3" font-family="Inter, Arial, sans-serif" font-size="12">2025-12-01</text>
<text x="935.00" y="412" text-anchor="middle" fill="#93a4c3" font-family="Inter, Arial, sans-serif" font-size="12">2026-01-20</text>
<path d="M 70.00 274.19 L 82.91 111.78 L 95.82 179.03 L 108.73 195.35 L 121.64 120.24 L 134.55 196.19 L 147.46 336.57 L 160.37 309.88 L 173.28 285.33 L 186.19 232.33 L 199.10 267.94 L 212.01 285.48 L 224.93 299.36 L 237.84 266.80 L 250.75 256.12 L 263.66 236.53 L 276.57 192.98 L 289.48 135.80 L 302.39 183.68 L 315.30 184.67 L 328.21 190.93 L 341.12 255.59 L 354.03 294.63 L 366.94 209.53 L 379.85 237.06 L 392.76 167.36 L 405.67 60.00 L 418.58 70.45 L 431.49 66.18 L 444.40 146.17 L 457.31 277.24 L 470.22 326.96 L 483.13 337.79 L 496.04 375.00 L 508.96 333.06 L 521.87 308.20 L 534.78 290.89 L 547.69 264.74 L 560.60 247.28 L 573.51 278.92 L 586.42 241.33 L 599.33 272.67 L 612.24 307.67 L 625.15 264.05 L 638.06 273.13 L 650.97 273.58 L 663.88 183.07 L 676.79 209.46 L 689.70 304.77 L 702.61 329.32 L 715.52 342.21 L 728.43 374.85 L 741.34 360.82 L 754.25 332.91 L 767.16 310.11 L 780.07 254.37 L 792.99 241.41 L 805.90 250.25 L 818.81 274.96 L 831.72 271.37 L 844.63 287.00 L 857.54 289.90 L 870.45 256.43 L 883.36 234.08 L 896.27 237.06 L 909.18 246.21 L 922.09 211.90 L 935.00 84.17" fill="none" stroke="#69a7ff" stroke-width="4" stroke-linecap="round" stroke-linejoin="round"/>
<circle cx="935.00" cy="84.17" r="6" fill="#69a7ff"/>
</svg>