<svg xmlns="http://www.w3.org/2000/svg" width="960" height="430" viewBox="0 0 960 430" role="img" aria-label="Composite score history">
<rect width="100%" height="100%" fill="#0b1020" rx="20"/>
<text x="70" y="32" fill="#f5f7fb" font-family="Inter, Arial, sans-serif" font-size="24" font-weight="700">Composite score history</text>
<text x="70" y="52" fill="#93a4c3" font-family="Inter, Arial, sans-serif" font-size="13">Trailing 81 sessions through 2026-01-20</text>
<line x1="70" x2="935" y1="375.00" y2="375.00" stroke="#27314e" stroke-width="1"/>
<text x="58" y="379.00" text-anchor="end" fill="#93a4c3" font-family="Inter, Arial, sans-serif" font-size="12">0</text>
<line x1="70" x2="935" y1="312.00" y2="312.00" stroke="#27314e" stroke-width="1"/>
<text x="58" y="316.00" text-anchor="end" fill="#93a4c3" font-family="Inter, Arial, sans-serif" font-size="12">8</text>
<line x1="70" x2="935" y1="249.00" y2="249.00" stroke="#27314e" stroke-width="1"/>
<text x="58" y="253.00" text-anchor="end" fill="#93a4c3" font-family="Inter, Arial, sans-serif" font-size="12">17</text>
<line x1="70" x2="935" y1="186.00" y2="186.00" stroke="#27314e" stroke-width="1"/>
<text x="58" y="190.00" text-anchor="end" fill="#93a4c3" font-family="Inter, Arial, sans-serif" font-size="12">25</text>
<line x1="70" x2="935" y1="123.00" y2="123.00" stroke="#27314e" stroke-width="1"/>
<text x="58" y="127.00" text-anchor="end" fill="#93a4c3" font-family="Inter, Arial, sans-serif" font-size="12">33</text>
<line x1="70" x2="935" y1="60.00" y2="60.00" stroke="#27314e" stroke-width="1"/>
<text x="58" y="64.00" text-anchor="end" fill="#93a4c3" font-family="Inter, Arial, sans-serif" font-size="12">41</text>
<text x="70.00" y="412" text-anchor="middle" fill="#93a4c3" font-family="Inter, Arial, sans-serif" font-size="12">2025-09-22</text>
<text x="502.50" y="412" text-anchor="middle" fill="#93a4c3" font-family="Inter, Arial, sans-serif" font-size="12">2025-11-19</text>
<text x="935.00" y="412" text-anchor="middle" fill="#93a4c3" font-family="Inter, Arial, sans-serif" font-size="12">2026-01-20</text>
<path d="M 70.00 272.14 L 80.81 248.27 L 91.62 241.41 L 102.44 202.52 L 113.25 241.25 L 124.06 247.43 L 134.88 259.32 L 145.69 297.76 L 156.50 309.80 L 167.31 286.01 L 178.12 296.54 L 188.94 271.60 L 199.75 278.85 L 210.56 256.96 L 221.38 123.98 L 232.19 175.75 L 243.00 212.66 L 253.81 109.03 L 264.62 196.19 L 275.44 336.57 L 286.25 309.88 L 297.06 285.33 L 307.88 232.33 L 318.69 267.94 L 329.50 285.48 L 340.31 299.36 L 351.12 266.80 L 361.94 256.12 L 372.75 236.53 L 383.56 192.98 L 394.38 135.80 L 405.19 183.68 L 416.00 184.67 L 426.81 190.93 L 437.62 255.59 L 448.44 294.63 L 459.25 209.53 L 470.06 237.06 L 480.88 167.36 L 491.69 60.00 L 502.50 70.45 L 513.31 66.18 L 524.12 146.17 L 534.94 277.24 L 545.75 326.96 L 556.56 337.79 L 567.38 375.00 L 578.19 333.06 L 589.00 308.20 L 599.81 290.89 L 610.62 264.74 L 621.44 247.28 L 632.25 278.92 L 643.06 241.33 L 653.88 272.67 L 664.69 307.67 L 675.50 264.05 L 686.31 273.13 L 697.12 273.58 L 707.94 183.07 L 718.75 209.46 L 729.56 304.77 L 740.38 329.32 L 751.19 342.21 L 762.00 374.85 L 772.81 360.82 L 783.62 332.91 L 794.44 310.11 L 805.25 254.37 L 816.06 241.41 L 826.88 250.25 L 837.69 274.96 L 848.50 271.37 L 859.31 287.00 L 870.12 289.90 L 880.94 256.43 L 891.75 234.08 L 902.56 237.06 L 913.38 246.21 L 924.19 211.90 L 935.00 84.17" fill="none" stroke="#69a7ff" stroke-width="4" stroke-linecap="round" stroke-linejoin="round"/>
<circle cx="935.00" cy="84.17" r="6" fill="#69a7ff"/>
</svg>