<svg xmlns="http://www.w3.org/2000/svg" width="960" height="430" viewBox="0 0 960 430" role="img" aria-label="Composite score history">
<rect width="100%" height="100%" fill="#0b1020" rx="20"/>
<text x="70" y="32" fill="#f5f7fb" font-family="Inter, Arial, sans-serif" font-size="24" font-weight="700">Composite score history</text>
<text x="70" y="52" fill="#93a4c3" font-family="Inter, Arial, sans-serif" font-size="13">Trailing 90 sessions through 2026-01-20</text>
<line x1="70" x2="935" y1="375.00" y2="375.00" stroke="#27314e" stroke-width="1"/>
<text x="58" y="379.00" text-anchor="end" fill="#93a4c3" font-family="Inter, Arial, sans-serif" font-size="12">8</text>
<line x1="70" x2="935" y1="312.00" y2="312.00" stroke="#27314e" stroke-width="1"/>
<text x="58" y="316.00" text-anchor="end" fill="#93a4c3" font-family="Inter, Arial, sans-serif" font-size="12">14</text>
<line x1="70" x2="935" y1="249.00" y2="249.00" stroke="#27314e" stroke-width="1"/>
<text x="58" y="253.00" text-anchor="end" fill="#93a4c3" font-family="Inter, Arial, sans-serif" font-size="12">21</text>
<line x1="70" x2="935" y1="186.00" y2="186.00" stroke="#27314e" stroke-width="1"/>
<text x="58" y="190.00" text-anchor="end" fill="#93a4c3" font-family="Inter, Arial, sans-serif" font-size="12">28</text>
<line x1="70" x2="935" y1="123.00" y2="123.00" stroke="#27314e" stroke-width="1"/>
<text x="58" y="127.00" text-anchor="end" fill="#93a4c3" font-family="Inter, Arial, sans-serif" font-size="12">35</text>
<line x1="70" x2="935" y1="60.00" y2="60.00" stroke="#27314e" stroke-width="1"/>
<text x="58" y="64.00" text-anchor="end" fill="#93a4c3" font-family="Inter, Arial, sans-serif" font-size="12">41</text>
<text x="70.00" y="412" text-anchor="middle" fill="#93a4c3" font-family="Inter, Arial, sans-serif" font-size="12">2025-09-09</text>
<text x="507.36" y="412" text-anchor="middle" fill="#93a4c3" font-family="Inter, Arial, sans-serif" font-size="12">2025-11-13</text>
<text x="935.00" y="412" text-anchor="middle" fill="#93a4c3" font-family="Inter, Arial, sans-serif" font-size="12">2026-01-20</text>
<path d="M 70.00 330.36 L 79.72 330.92 L 89.44 336.71 L 99.16 313.83 L 108.88 304.77 L 118.60 312.71 L 128.31 314.11 L 138.03 281.05 L 147.75 311.12 L 157.47 285.44 L 167.19 311.12 L 176.91 299.08 L 186.63 259.01 L 196.35 287.49 L 206.07 289.55 L 215.79 293.00 L 225.51 325.50 L 235.22 326.81 L 244.94 311.50 L 254.66 321.96 L 264.38 310.00 L 274.10 313.18 L 283.82 294.31 L 293.54 138.35 L 303.26 201.67 L 312.98 246.96 L 322.70 120.05 L 332.42 226.79 L 342.13 333.63 L 351.85 334.00 L 361.57 326.06 L 371.29 232.58 L 381.01 270.03 L 390.73 287.68 L 400.45 299.17 L 410.17 246.59 L 419.89 271.15 L 429.61 259.57 L 439.33 222.87 L 449.04 152.83 L 458.76 211.48 L 468.48 212.69 L 478.20 220.35 L 487.92 299.54 L 497.64 319.99 L 507.36 243.14 L 517.08 272.09 L 526.80 191.49 L 536.52 60.00 L 546.24 72.79 L 555.96 67.56 L 565.67 165.53 L 575.39 314.58 L 585.11 334.56 L 594.83 340.26 L 604.55 345.02 L 614.27 320.27 L 623.99 320.74 L 633.71 313.92 L 643.43 295.53 L 653.15 282.08 L 662.87 316.54 L 672.58 278.25 L 682.30 307.85 L 692.02 348.38 L 701.74 309.91 L 711.46 321.02 L 721.18 321.58 L 730.90 210.64 L 740.62 243.04 L 750.34 357.44 L 760.06 368.56 L 769.78 368.09 L 779.49 372.48 L 789.21 375.00 L 798.93 369.96 L 808.65 360.24 L 818.37 298.05 L 828.09 282.17 L 837.81 293.00 L 847.53 310.00 L 857.25 310.47 L 866.97 312.15 L 876.69 304.77 L 886.40 275.07 L 896.12 266.86 L 905.84 274.89 L 915.56 280.30 L 925.28 246.03 L 935.00 89.60" fill="none" stroke="#69a7ff" stroke-width="4" stroke-linecap="round" stroke-linejoin="round"/>
<circle cx="935.00" cy="89.60" r="6" fill="#69a7ff"/>
<text x="927.00" y="77.60" text-anchor="end" fill="#f5f7fb" font-family="Inter, Arial, sans-serif" font-size="12" font-weight="600">38.14</text>
</svg>