<svg xmlns="http://www.w3.org/2000/svg" width="960" height="430" viewBox="0 0 960 430" role="img" aria-label="Composite score history">
<rect width="100%" height="100%" fill="#0b1020" rx="20"/>
<text x="70" y="32" fill="#f5f7fb" font-family="Inter, Arial, sans-serif" font-size="24" font-weight="700">Composite score history</text>
<text x="70" y="52" fill="#93a4c3" font-family="Inter, Arial, sans-serif" font-size="13">Trailing 63 sessions through 2026-01-20</text>
<line x1="70" x2="935" y1="375.00" y2="375.00" stroke="#27314e" stroke-width="1"/>
<text x="58" y="379.00" text-anchor="end" fill="#93a4c3" font-family="Inter, Arial, sans-serif" font-size="12">0</text>
<line x1="70" x2="935" y1="312.00" y2="312.00" stroke="#27314e" stroke-width="1"/>
<text x="58" y="316.00" text-anchor="end" fill="#93a4c3" font-family="Inter, Arial, sans-serif" font-size="12">8</text>
<line x1="70" x2="935" y1="249.00" y2="249.00" stroke="#27314e" stroke-width="1"/>
<text x="58" y="253.00" text-anchor="end" fill="#93a4c3" font-family="Inter, Arial, sans-serif" font-size="12">17</text>
<line x1="70" x2="935" y1="186.00" y2="186.00" stroke="#27314e" stroke-width="1"/>
<text x="58" y="190.00" text-anchor="end" fill="#93a4c3" font-family="Inter, Arial, sans-serif" font-size="12">25</text>
<line x1="70" x2="935" y1="123.00" y2="123.00" stroke="#27314e" stroke-width="1"/>
<text x="58" y="127.00" text-anchor="end" fill="#93a4c3" font-family="Inter, Arial, sans-serif" font-size="12">33</text>
<line x1="70" x2="935" y1="60.00" y2="60.00" stroke="#27314e" stroke-width="1"/>
<text x="58" y="64.00" text-anchor="end" fill="#93a4c3" font-family="Inter, Arial, sans-serif" font-size="12">41</text>
<text x="70.00" y="412" text-anchor="middle" fill="#93a4c3" font-family="Inter, Arial, sans-serif" font-size="12">2025-10-17</text>
<text x="502.50" y="412" text-anchor="middle" fill="#93a4c3" font-family="Inter, Arial, sans-serif" font-size="12">2025-12-03</text>
<text x="935.00" y="412" text-anchor="middle" fill="#93a4c3" font-family="Inter, Arial, sans-serif" font-size="12">2026-01-20</text>
<path d="M 70.00 267.48 L 83.95 303.78 L 97.90 300.35 L 111.85 275.87 L 125.81 237.44 L 139.76 267.94 L 153.71 285.48 L 167.66 299.36 L 181.61 266.80 L 195.56 256.12 L 209.52 236.53 L 223.47 192.98 L 237.42 135.80 L 251.37 183.68 L 265.32 184.67 L 279.27 190.93 L 293.23 255.59 L 307.18 294.63 L 321.13 209.53 L 335.08 237.06 L 349.03 167.36 L 362.98 60.00 L 376.94 70.45 L 390.89 66.18 L 404.84 146.17 L 418.79 277.24 L 432.74 326.96 L 446.69 337.79 L 460.65 375.00 L 474.60 333.06 L 488.55 308.20 L 502.50 290.89 L 516.45 264.74 L 530.40 247.28 L 544.35 278.92 L 558.31 241.33 L 572.26 272.67 L 586.21 307.67 L 600.16 264.05 L 614.11 273.13 L 628.06 273.58 L 642.02 183.07 L 655.97 209.46 L 669.92 304.77 L 683.87 329.32 L 697.82 342.21 L 711.77 374.85 L 725.73 360.82 L 739.68 332.91 L 753.63 310.11 L 767.58 254.37 L 781.53 241.41 L 795.48 250.25 L 809.44 274.96 L 823.39 271.37 L 837.34 287.00 L 851.29 289.90 L 865.24 256.43 L 879.19 234.08 L 893.15 237.06 L 907.10 246.21 L 921.05 211.90 L 935.00 84.17" fill="none" stroke="#69a7ff" stroke-width="4" stroke-linecap="round" stroke-linejoin="round"/>
<circle cx="935.00" cy="84.17" r="6" fill="#69a7ff"/>
</svg>