<svg xmlns="http://www.w3.org/2000/svg" width="960" height="430" viewBox="0 0 960 430" role="img" aria-label="Composite score history">
<rect width="100%" height="100%" fill="#0b1020" rx="20"/>
<text x="70" y="32" fill="#f5f7fb" font-family="Inter, Arial, sans-serif" font-size="24" font-weight="700">Composite score history</text>
<text x="70" y="52" fill="#93a4c3" font-family="Inter, Arial, sans-serif" font-size="13">Trailing 89 sessions through 2026-01-20</text>
<line x1="70" x2="935" y1="375.00" y2="375.00" stroke="#27314e" stroke-width="1"/>
<text x="58" y="379.00" text-anchor="end" fill="#93a4c3" font-family="Inter, Arial, sans-serif" font-size="12">0</text>
<line x1="70" x2="935" y1="312.00" y2="312.00" stroke="#27314e" stroke-width="1"/>
<text x="58" y="316.00" text-anchor="end" fill="#93a4c3" font-family="Inter, Arial, sans-serif" font-size="12">8</text>
<line x1="70" x2="935" y1="249.00" y2="249.00" stroke="#27314e" stroke-width="1"/>
<text x="58" y="253.00" text-anchor="end" fill="#93a4c3" font-family="Inter, Arial, sans-serif" font-size="12">17</text>
<line x1="70" x2="935" y1="186.00" y2="186.00" stroke="#27314e" stroke-width="1"/>
<text x="58" y="190.00" text-anchor="end" fill="#93a4c3" font-family="Inter, Arial, sans-serif" font-size="12">25</text>
<line x1="70" x2="935" y1="123.00" y2="123.00" stroke="#27314e" stroke-width="1"/>
<text x="58" y="127.00" text-anchor="end" fill="#93a4c3" font-family="Inter, Arial, sans-serif" font-size="12">33</text>
<line x1="70" x2="935" y1="60.00" y2="60.00" stroke="#27314e" stroke-width="1"/>
<text x="58" y="64.00" text-anchor="end" fill="#93a4c3" font-family="Inter, Arial, sans-serif" font-size="12">41</text>
<text x="70.00" y="412" text-anchor="middle" fill="#93a4c3" font-family="Inter, Arial, sans-serif" font-size="12">2025-09-10</text>
<text x="502.50" y="412" text-anchor="middle" fill="#93a4c3" font-family="Inter, Arial, sans-serif" font-size="12">2025-11-13</text>
<text x="935.00" y="412" text-anchor="middle" fill="#93a4c3" font-family="Inter, Arial, sans-serif" font-size="12">2026-01-20</text>
<path d="M 70.00 281.21 L 79.83 302.10 L 89.66 287.84 L 99.49 301.11 L 109.32 286.47 L 119.15 287.46 L 128.98 253.38 L 138.81 288.22 L 148.64 266.64 L 158.47 279.46 L 168.30 266.03 L 178.12 222.49 L 187.95 245.75 L 197.78 247.43 L 207.61 259.32 L 217.44 297.76 L 227.27 309.80 L 237.10 286.01 L 246.93 296.54 L 256.76 271.60 L 266.59 278.85 L 276.42 256.96 L 286.25 123.98 L 296.08 175.75 L 305.91 212.66 L 315.74 109.03 L 325.57 196.19 L 335.40 336.57 L 345.23 309.88 L 355.06 285.33 L 364.89 232.33 L 374.72 267.94 L 384.55 285.48 L 394.38 299.36 L 404.20 266.80 L 414.03 256.12 L 423.86 236.53 L 433.69 192.98 L 443.52 135.80 L 453.35 183.68 L 463.18 184.67 L 473.01 190.93 L 482.84 255.59 L 492.67 294.63 L 502.50 209.53 L 512.33 237.06 L 522.16 167.36 L 531.99 60.00 L 541.82 70.45 L 551.65 66.18 L 561.48 146.17 L 571.31 277.24 L 581.14 326.96 L 590.97 337.79 L 600.80 375.00 L 610.62 333.06 L 620.45 308.20 L 630.28 290.89 L 640.11 264.74 L 649.94 247.28 L 659.77 278.92 L 669.60 241.33 L 679.43 272.67 L 689.26 307.67 L 699.09 264.05 L 708.92 273.13 L 718.75 273.58 L 728.58 183.07 L 738.41 209.46 L 748.24 304.77 L 758.07 329.32 L 767.90 342.21 L 777.73 374.85 L 787.56 360.82 L 797.39 332.91 L 807.22 310.11 L 817.05 254.37 L 826.88 241.41 L 836.70 250.25 L 846.53 274.96 L 856.36 271.37 L 866.19 287.00 L 876.02 289.90 L 885.85 256.43 L 895.68 234.08 L 905.51 237.06 L 915.34 246.21 L 925.17 211.90 L 935.00 84.17" fill="none" stroke="#69a7ff" stroke-width="4" stroke-linecap="round" stroke-linejoin="round"/>
<circle cx="935.00" cy="84.17" r="6" fill="#69a7ff"/>
</svg>