<svg xmlns="http://www.w3.org/2000/svg" width="960" height="430" viewBox="0 0 960 430" role="img" aria-label="Composite score history">
<rect width="100%" height="100%" fill="#0b1020" rx="20"/>
<text x="70" y="32" fill="#f5f7fb" font-family="Inter, Arial, sans-serif" font-size="24" font-weight="700">Composite score history</text>
<text x="70" y="52" fill="#93a4c3" font-family="Inter, Arial, sans-serif" font-size="13">Trailing 52 sessions through 2026-01-20</text>
<line x1="70" x2="935" y1="375.00" y2="375.00" stroke="#27314e" stroke-width="1"/>
<text x="58" y="379.00" text-anchor="end" fill="#93a4c3" font-family="Inter, Arial, sans-serif" font-size="12">0</text>
<line x1="70" x2="935" y1="312.00" y2="312.00" stroke="#27314e" stroke-width="1"/>
<text x="58" y="316.00" text-anchor="end" fill="#93a4c3" font-family="Inter, Arial, sans-serif" font-size="12">8</text>
<line x1="70" x2="935" y1="249.00" y2="249.00" stroke="#27314e" stroke-width="1"/>
<text x="58" y="253.00" text-anchor="end" fill="#93a4c3" font-family="Inter, Arial, sans-serif" font-size="12">17</text>
<line x1="70" x2="935" y1="186.00" y2="186.00" stroke="#27314e" stroke-width="1"/>
<text x="58" y="190.00" text-anchor="end" fill="#93a4c3" font-family="Inter, Arial, sans-serif" font-size="12">25</text>
<line x1="70" x2="935" y1="123.00" y2="123.00" stroke="#27314e" stroke-width="1"/>
<text x="58" y="127.00" text-anchor="end" fill="#93a4c3" font-family="Inter, Arial, sans-serif" font-size="12">33</text>
<line x1="70" x2="935" y1="60.00" y2="60.00" stroke="#27314e" stroke-width="1"/>
<text x="58" y="64.00" text-anchor="end" fill="#93a4c3" font-family="Inter, Arial, sans-serif" font-size="12">41</text>
<text x="70.00" y="412" text-anchor="middle" fill="#93a4c3" font-family="Inter, Arial, sans-serif" font-size="12">2025-11-03</text>
<text x="510.98" y="412" text-anchor="middle" fill="#93a4c3" font-family="Inter, Arial, sans-serif" font-size="12">2025-12-11</text>
<text x="935.00" y="412" text-anchor="middle" fill="#93a4c3" font-family="Inter, Arial, sans-serif" font-size="12">2026-01-20</text>
<path d="M 70.00 267.64 L 86.96 203.58 L 103.92 217.39 L 120.88 170.26 L 137.84 182.61 L 154.80 255.59 L 171.76 294.63 L 188.73 209.53 L 205.69 237.06 L 222.65 167.36 L 239.61 60.00 L 256.57 70.45 L 273.53 66.18 L 290.49 146.17 L 307.45 277.24 L 324.41 326.96 L 341.37 337.79 L 358.33 375.00 L 375.29 333.06 L 392.25 308.20 L 409.22 290.89 L 426.18 264.74 L 443.14 247.28 L 460.10 278.92 L 477.06 241.33 L 494.02 272.67 L 510.98 307.67 L 527.94 264.05 L 544.90 273.13 L 561.86 273.58 L 578.82 183.07 L 595.78 209.46 L 612.75 304.77 L 629.71 329.32 L 646.67 342.21 L 663.63 374.85 L 680.59 360.82 L 697.55 332.91 L 714.51 310.11 L 731.47 254.37 L 748.43 241.41 L 765.39 250.25 L 782.35 274.96 L 799.31 271.37 L 816.27 287.00 L 833.24 289.90 L 850.20 256.43 L 867.16 234.08 L 884.12 237.06 L 901.08 246.21 L 918.04 211.90 L 935.00 84.17" fill="none" stroke="#69a7ff" stroke-width="4" stroke-linecap="round" stroke-linejoin="round"/>
<circle cx="935.00" cy="84.17" r="6" fill="#69a7ff"/>
</svg>