<svg xmlns="http://www.w3.org/2000/svg" width="960" height="430" viewBox="0 0 960 430" role="img" aria-label="Composite score history">
<rect width="100%" height="100%" fill="#0b1020" rx="20"/>
<text x="70" y="32" fill="#f5f7fb" font-family="Inter, Arial, sans-serif" font-size="24" font-weight="700">Composite score history</text>
<text x="70" y="52" fill="#93a4c3" font-family="Inter, Arial, sans-serif" font-size="13">Trailing 58 sessions through 2025-10-17</text>
<line x1="70" x2="935" y1="375.00" y2="375.00" stroke="#27314e" stroke-width="1"/>
<text x="58" y="379.00" text-anchor="end" fill="#93a4c3" font-family="Inter, Arial, sans-serif" font-size="12">8</text>
<line x1="70" x2="935" y1="312.00" y2="312.00" stroke="#27314e" stroke-width="1"/>
<text x="58" y="316.00" text-anchor="end" fill="#93a4c3" font-family="Inter, Arial, sans-serif" font-size="12">14</text>
<line x1="70" x2="935" y1="249.00" y2="249.00" stroke="#27314e" stroke-width="1"/>
<text x="58" y="253.00" text-anchor="end" fill="#93a4c3" font-family="Inter, Arial, sans-serif" font-size="12">19</text>
<line x1="70" x2="935" y1="186.00" y2="186.00" stroke="#27314e" stroke-width="1"/>
<text x="58" y="190.00" text-anchor="end" fill="#93a4c3" font-family="Inter, Arial, sans-serif" font-size="12">24</text>
<line x1="70" x2="935" y1="123.00" y2="123.00" stroke="#27314e" stroke-width="1"/>
<text x="58" y="127.00" text-anchor="end" fill="#93a4c3" font-family="Inter, Arial, sans-serif" font-size="12">30</text>
<line x1="70" x2="935" y1="60.00" y2="60.00" stroke="#27314e" stroke-width="1"/>
<text x="58" y="64.00" text-anchor="end" fill="#93a4c3" font-family="Inter, Arial, sans-serif" font-size="12">35</text>
<text x="70.00" y="412" text-anchor="middle" fill="#93a4c3" font-family="Inter, Arial, sans-serif" font-size="12">2025-07-28</text>
<text x="510.09" y="412" text-anchor="middle" fill="#93a4c3" font-family="Inter, Arial, sans-serif" font-size="12">2025-09-08</text>
<text x="935.00" y="412" text-anchor="middle" fill="#93a4c3" font-family="Inter, Arial, sans-serif" font-size="12">2025-10-17</text>
<path d="M 70.00 291.49 L 85.18 250.93 L 100.35 232.96 L 115.53 195.49 L 130.70 75.58 L 145.88 213.57 L 161.05 203.94 L 176.23 274.60 L 191.40 303.63 L 206.58 295.30 L 221.75 251.52 L 236.93 373.69 L 252.11 369.29 L 267.28 352.75 L 282.46 340.62 L 297.63 342.41 L 312.81 258.18 L 327.98 199.66 L 343.16 152.19 L 358.33 287.45 L 373.51 253.66 L 388.68 273.53 L 403.86 293.51 L 419.04 348.12 L 434.21 295.06 L 449.39 241.65 L 464.56 269.48 L 479.74 324.21 L 494.91 303.74 L 510.09 350.73 L 525.26 372.86 L 540.44 367.27 L 555.61 375.00 L 570.79 353.94 L 585.96 350.26 L 601.14 348.35 L 616.32 338.36 L 631.49 285.19 L 646.67 339.55 L 661.84 305.89 L 677.02 325.87 L 692.19 304.93 L 707.37 237.01 L 722.54 273.29 L 737.72 275.91 L 752.89 294.47 L 768.07 354.42 L 783.25 373.22 L 798.42 336.10 L 813.60 352.52 L 828.77 313.62 L 843.95 324.92 L 859.12 290.78 L 874.30 83.32 L 889.47 164.09 L 904.65 221.66 L 919.82 60.00 L 935.00 195.97" fill="none" stroke="#69a7ff" stroke-width="4" stroke-linecap="round" stroke-linejoin="round"/>
<circle cx="935.00" cy="195.97" r="6" fill="#69a7ff"/>
</svg>