<svg xmlns="http://www.w3.org/2000/svg" width="960" height="430" viewBox="0 0 960 430" role="img" aria-label="Composite score history">
<rect width="100%" height="100%" fill="#0b1020" rx="20"/>
<text x="70" y="32" fill="#f5f7fb" font-family="Inter, Arial, sans-serif" font-size="24" font-weight="700">Composite score history</text>
<text x="70" y="52" fill="#93a4c3" font-family="Inter, Arial, sans-serif" font-size="13">Trailing 22 sessions through 2025-10-17</text>
<line x1="70" x2="935" y1="375.00" y2="375.00" stroke="#27314e" stroke-width="1"/>
<text x="58" y="379.00" text-anchor="end" fill="#93a4c3" font-family="Inter, Arial, sans-serif" font-size="12">9</text>
<line x1="70" x2="935" y1="312.00" y2="312.00" stroke="#27314e" stroke-width="1"/>
<text x="58" y="316.00" text-anchor="end" fill="#93a4c3" font-family="Inter, Arial, sans-serif" font-size="12">14</text>
<line x1="70" x2="935" y1="249.00" y2="249.00" stroke="#27314e" stroke-width="1"/>
<text x="58" y="253.00" text-anchor="end" fill="#93a4c3" font-family="Inter, Arial, sans-serif" font-size="12">19</text>
<line x1="70" x2="935" y1="186.00" y2="186.00" stroke="#27314e" stroke-width="1"/>
<text x="58" y="190.00" text-anchor="end" fill="#93a4c3" font-family="Inter, Arial, sans-serif" font-size="12">24</text>
<line x1="70" x2="935" y1="123.00" y2="123.00" stroke="#27314e" stroke-width="1"/>
<text x="58" y="127.00" text-anchor="end" fill="#93a4c3" font-family="Inter, Arial, sans-serif" font-size="12">30</text>
<line x1="70" x2="935" y1="60.00" y2="60.00" stroke="#27314e" stroke-width="1"/>
<text x="58" y="64.00" text-anchor="end" fill="#93a4c3" font-family="Inter, Arial, sans-serif" font-size="12">35</text>
<text x="70.00" y="412" text-anchor="middle" fill="#93a4c3" font-family="Inter, Arial, sans-serif" font-size="12">2025-09-17</text>
<text x="523.10" y="412" text-anchor="middle" fill="#93a4c3" font-family="Inter, Arial, sans-serif" font-size="12">2025-10-02</text>
<text x="935.00" y="412" text-anchor="middle" fill="#93a4c3" font-family="Inter, Arial, sans-serif" font-size="12">2025-10-17</text>
<path d="M 70.00 324.75 L 111.19 303.58 L 152.38 328.34 L 193.57 311.00 L 234.76 327.98 L 275.95 306.33 L 317.14 238.02 L 358.33 274.51 L 399.52 277.14 L 440.71 295.80 L 481.90 356.10 L 523.10 375.00 L 564.29 337.67 L 605.48 354.18 L 646.67 315.06 L 687.86 326.43 L 729.05 292.09 L 770.24 83.45 L 811.43 164.68 L 852.62 222.58 L 893.81 60.00 L 935.00 196.74" fill="none" stroke="#69a7ff" stroke-width="4" stroke-linecap="round" stroke-linejoin="round"/>
<circle cx="935.00" cy="196.74" r="6" fill="#69a7ff"/>
</svg>