<svg xmlns="http://www.w3.org/2000/svg" width="960" height="430" viewBox="0 0 960 430" role="img" aria-label="Composite score history">
<rect width="100%" height="100%" fill="#0b1020" rx="20"/>
<text x="70" y="32" fill="#f5f7fb" font-family="Inter, Arial, sans-serif" font-size="24" font-weight="700">Composite score history</text>
<text x="70" y="52" fill="#93a4c3" font-family="Inter, Arial, sans-serif" font-size="13">Trailing 62 sessions through 2025-10-17</text>
<line x1="70" x2="935" y1="375.00" y2="375.00" stroke="#27314e" stroke-width="1"/>
<text x="58" y="379.00" text-anchor="end" fill="#93a4c3" font-family="Inter, Arial, sans-serif" font-size="12">8</text>
<line x1="70" x2="935" y1="312.00" y2="312.00" stroke="#27314e" stroke-width="1"/>
<text x="58" y="316.00" text-anchor="end" fill="#93a4c3" font-family="Inter, Arial, sans-serif" font-size="12">14</text>
<line x1="70" x2="935" y1="249.00" y2="249.00" stroke="#27314e" stroke-width="1"/>
<text x="58" y="253.00" text-anchor="end" fill="#93a4c3" font-family="Inter, Arial, sans-serif" font-size="12">19</text>
<line x1="70" x2="935" y1="186.00" y2="186.00" stroke="#27314e" stroke-width="1"/>
<text x="58" y="190.00" text-anchor="end" fill="#93a4c3" font-family="Inter, Arial, sans-serif" font-size="12">24</text>
<line x1="70" x2="935" y1="123.00" y2="123.00" stroke="#27314e" stroke-width="1"/>
<text x="58" y="127.00" text-anchor="end" fill="#93a4c3" font-family="Inter, Arial, sans-serif" font-size="12">30</text>
<line x1="70" x2="935" y1="60.00" y2="60.00" stroke="#27314e" stroke-width="1"/>
<text x="58" y="64.00" text-anchor="end" fill="#93a4c3" font-family="Inter, Arial, sans-serif" font-size="12">35</text>
<text x="70.00" y="412" text-anchor="middle" fill="#93a4c3" font-family="Inter, Arial, sans-serif" font-size="12">2025-07-22</text>
<text x="509.59" y="412" text-anchor="middle" fill="#93a4c3" font-family="Inter, Arial, sans-serif" font-size="12">2025-09-04</text>
<text x="935.00" y="412" text-anchor="middle" fill="#93a4c3" font-family="Inter, Arial, sans-serif" font-size="12">2025-10-17</text>
<path d="M 70.00 284.47 L 84.18 295.54 L 98.36 252.24 L 112.54 291.49 L 126.72 291.13 L 140.90 293.75 L 155.08 231.54 L 169.26 224.04 L 183.44 75.46 L 197.62 213.57 L 211.80 203.94 L 225.98 274.60 L 240.16 303.63 L 254.34 295.30 L 268.52 251.52 L 282.70 373.69 L 296.89 369.29 L 311.07 352.75 L 325.25 340.62 L 339.43 342.41 L 353.61 258.18 L 367.79 199.66 L 381.97 152.19 L 396.15 287.45 L 410.33 253.66 L 424.51 273.53 L 438.69 293.51 L 452.87 348.12 L 467.05 295.06 L 481.23 241.65 L 495.41 269.48 L 509.59 324.21 L 523.77 303.74 L 537.95 350.73 L 552.13 372.86 L 566.31 367.27 L 580.49 375.00 L 594.67 353.94 L 608.85 350.26 L 623.03 348.35 L 637.21 338.36 L 651.39 285.19 L 665.57 339.55 L 679.75 305.89 L 693.93 325.87 L 708.11 304.93 L 722.30 237.01 L 736.48 273.29 L 750.66 275.91 L 764.84 294.47 L 779.02 354.42 L 793.20 373.22 L 807.38 336.10 L 821.56 352.52 L 835.74 313.62 L 849.92 324.92 L 864.10 290.78 L 878.28 83.32 L 892.46 164.09 L 906.64 221.66 L 920.82 60.00 L 935.00 195.97" fill="none" stroke="#69a7ff" stroke-width="4" stroke-linecap="round" stroke-linejoin="round"/>
<circle cx="935.00" cy="195.97" r="6" fill="#69a7ff"/>
</svg>