<svg xmlns="http://www.w3.org/2000/svg" width="960" height="430" viewBox="0 0 960 430" role="img" aria-label="Composite score history">
<rect width="100%" height="100%" fill="#0b1020" rx="20"/>
<text x="70" y="32" fill="#f5f7fb" font-family="Inter, Arial, sans-serif" font-size="24" font-weight="700">Composite score history</text>
<text x="70" y="52" fill="#93a4c3" font-family="Inter, Arial, sans-serif" font-size="13">Trailing 64 sessions through 2025-10-17</text>
<line x1="70" x2="935" y1="375.00" y2="375.00" stroke="#27314e" stroke-width="1"/>
<text x="58" y="379.00" text-anchor="end" fill="#93a4c3" font-family="Inter, Arial, sans-serif" font-size="12">8</text>
<line x1="70" x2="935" y1="312.00" y2="312.00" stroke="#27314e" stroke-width="1"/>
<text x="58" y="316.00" text-anchor="end" fill="#93a4c3" font-family="Inter, Arial, sans-serif" font-size="12">14</text>
<line x1="70" x2="935" y1="249.00" y2="249.00" stroke="#27314e" stroke-width="1"/>
<text x="58" y="253.00" text-anchor="end" fill="#93a4c3" font-family="Inter, Arial, sans-serif" font-size="12">19</text>
<line x1="70" x2="935" y1="186.00" y2="186.00" stroke="#27314e" stroke-width="1"/>
<text x="58" y="190.00" text-anchor="end" fill="#93a4c3" font-family="Inter, Arial, sans-serif" font-size="12">24</text>
<line x1="70" x2="935" y1="123.00" y2="123.00" stroke="#27314e" stroke-width="1"/>
<text x="58" y="127.00" text-anchor="end" fill="#93a4c3" font-family="Inter, Arial, sans-serif" font-size="12">30</text>
<line x1="70" x2="935" y1="60.00" y2="60.00" stroke="#27314e" stroke-width="1"/>
<text x="58" y="64.00" text-anchor="end" fill="#93a4c3" font-family="Inter, Arial, sans-serif" font-size="12">35</text>
<text x="70.00" y="412" text-anchor="middle" fill="#93a4c3" font-family="Inter, Arial, sans-serif" font-size="12">2025-07-18</text>
<text x="509.37" y="412" text-anchor="middle" fill="#93a4c3" font-family="Inter, Arial, sans-serif" font-size="12">2025-09-03</text>
<text x="935.00" y="412" text-anchor="middle" fill="#93a4c3" font-family="Inter, Arial, sans-serif" font-size="12">2025-10-17</text>
<path d="M 70.00 276.03 L 83.73 279.48 L 97.46 289.59 L 111.19 325.39 L 124.92 299.94 L 138.65 321.47 L 152.38 302.67 L 166.11 293.75 L 179.84 231.54 L 193.57 224.04 L 207.30 75.46 L 221.03 213.57 L 234.76 203.94 L 248.49 274.60 L 262.22 303.63 L 275.95 295.30 L 289.68 251.52 L 303.41 373.69 L 317.14 369.29 L 330.87 352.75 L 344.60 340.62 L 358.33 342.41 L 372.06 258.18 L 385.79 199.66 L 399.52 152.19 L 413.25 287.45 L 426.98 253.66 L 440.71 273.53 L 454.44 293.51 L 468.17 348.12 L 481.90 295.06 L 495.63 241.65 L 509.37 269.48 L 523.10 324.21 L 536.83 303.74 L 550.56 350.73 L 564.29 372.86 L 578.02 367.27 L 591.75 375.00 L 605.48 353.94 L 619.21 350.26 L 632.94 348.35 L 646.67 338.36 L 660.40 285.19 L 674.13 339.55 L 687.86 305.89 L 701.59 325.87 L 715.32 304.93 L 729.05 237.01 L 742.78 273.29 L 756.51 275.91 L 770.24 294.47 L 783.97 354.42 L 797.70 373.22 L 811.43 336.10 L 825.16 352.52 L 838.89 313.62 L 852.62 324.92 L 866.35 290.78 L 880.08 83.32 L 893.81 164.09 L 907.54 221.66 L 921.27 60.00 L 935.00 195.97" fill="none" stroke="#69a7ff" stroke-width="4" stroke-linecap="round" stroke-linejoin="round"/>
<circle cx="935.00" cy="195.97" r="6" fill="#69a7ff"/>
</svg>