<svg xmlns="http://www.w3.org/2000/svg" width="960" height="430" viewBox="0 0 960 430" role="img" aria-label="Composite score history">
<rect width="100%" height="100%" fill="#0b1020" rx="20"/>
<text x="70" y="32" fill="#f5f7fb" font-family="Inter, Arial, sans-serif" font-size="24" font-weight="700">Composite score history</text>
<text x="70" y="52" fill="#93a4c3" font-family="Inter, Arial, sans-serif" font-size="13">Trailing 80 sessions through 2026-02-20</text>
<line x1="70" x2="935" y1="375.00" y2="375.00" stroke="#27314e" stroke-width="1"/>
<text x="58" y="379.00" text-anchor="end" fill="#93a4c3" font-family="Inter, Arial, sans-serif" font-size="12">0</text>
<line x1="70" x2="935" y1="312.00" y2="312.00" stroke="#27314e" stroke-width="1"/>
<text x="58" y="316.00" text-anchor="end" fill="#93a4c3" font-family="Inter, Arial, sans-serif" font-size="12">8</text>
<line x1="70" x2="935" y1="249.00" y2="249.00" stroke="#27314e" stroke-width="1"/>
<text x="58" y="253.00" text-anchor="end" fill="#93a4c3" font-family="Inter, Arial, sans-serif" font-size="12">17</text>
<line x1="70" x2="935" y1="186.00" y2="186.00" stroke="#27314e" stroke-width="1"/>
<text x="58" y="190.00" text-anchor="end" fill="#93a4c3" font-family="Inter, Arial, sans-serif" font-size="12">25</text>
<line x1="70" x2="935" y1="123.00" y2="123.00" stroke="#27314e" stroke-width="1"/>
<text x="58" y="127.00" text-anchor="end" fill="#93a4c3" font-family="Inter, Arial, sans-serif" font-size="12">33</text>
<line x1="70" x2="935" y1="60.00" y2="60.00" stroke="#27314e" stroke-width="1"/>
<text x="58" y="64.00" text-anchor="end" fill="#93a4c3" font-family="Inter, Arial, sans-serif" font-size="12">41</text>
<text x="70.00" y="412" text-anchor="middle" fill="#93a4c3" font-family="Inter, Arial, sans-serif" font-size="12">2025-10-24</text>
<text x="507.97" y="412" text-anchor="middle" fill="#93a4c3" font-family="Inter, Arial, sans-serif" font-size="12">2025-12-23</text>
<text x="935.00" y="412" text-anchor="middle" fill="#93a4c3" font-family="Inter, Arial, sans-serif" font-size="12">2026-02-20</text>
<path d="M 70.00 279.53 L 80.95 309.73 L 91.90 311.79 L 102.85 264.43 L 113.80 237.14 L 124.75 236.53 L 135.70 192.98 L 146.65 135.80 L 157.59 183.68 L 168.54 184.67 L 179.49 190.93 L 190.44 255.59 L 201.39 294.63 L 212.34 209.53 L 223.29 237.06 L 234.24 167.36 L 245.19 60.00 L 256.14 70.45 L 267.09 66.18 L 278.04 146.17 L 288.99 277.24 L 299.94 326.96 L 310.89 337.79 L 321.84 375.00 L 332.78 333.06 L 343.73 308.20 L 354.68 290.89 L 365.63 264.74 L 376.58 247.28 L 387.53 278.92 L 398.48 241.33 L 409.43 272.67 L 420.38 307.67 L 431.33 264.05 L 442.28 273.13 L 453.23 273.58 L 464.18 183.07 L 475.13 209.46 L 486.08 304.77 L 497.03 329.32 L 507.97 342.21 L 518.92 374.85 L 529.87 360.82 L 540.82 332.91 L 551.77 310.11 L 562.72 254.37 L 573.67 241.41 L 584.62 250.25 L 595.57 274.96 L 606.52 271.37 L 617.47 287.00 L 628.42 289.90 L 639.37 256.43 L 650.32 234.08 L 661.27 237.06 L 672.22 246.21 L 683.16 211.90 L 694.11 84.17 L 705.06 172.78 L 716.01 214.11 L 726.96 200.15 L 737.91 248.88 L 748.86 293.33 L 759.81 261.99 L 770.76 228.59 L 781.71 226.46 L 792.66 237.44 L 803.61 170.49 L 814.56 173.85 L 825.51 111.24 L 836.46 253.00 L 847.41 248.65 L 858.35 271.37 L 869.30 276.02 L 880.25 258.10 L 891.20 183.61 L 902.15 172.93 L 913.10 205.34 L 924.05 191.99 L 935.00 278.62" fill="none" stroke="#69a7ff" stroke-width="4" stroke-linecap="round" stroke-linejoin="round"/>
<circle cx="935.00" cy="278.62" r="6" fill="#69a7ff"/>
</svg>