<svg xmlns="http://www.w3.org/2000/svg" width="960" height="430" viewBox="0 0 960 430" role="img" aria-label="Composite score history">
<rect width="100%" height="100%" fill="#0b1020" rx="20"/>
<text x="70" y="32" fill="#f5f7fb" font-family="Inter, Arial, sans-serif" font-size="24" font-weight="700">Composite score history</text>
<text x="70" y="52" fill="#93a4c3" font-family="Inter, Arial, sans-serif" font-size="13">Trailing 79 sessions through 2026-02-20</text>
<line x1="70" x2="935" y1="375.00" y2="375.00" stroke="#27314e" stroke-width="1"/>
<text x="58" y="379.00" text-anchor="end" fill="#93a4c3" font-family="Inter, Arial, sans-serif" font-size="12">0</text>
<line x1="70" x2="935" y1="312.00" y2="312.00" stroke="#27314e" stroke-width="1"/>
<text x="58" y="316.00" text-anchor="end" fill="#93a4c3" font-family="Inter, Arial, sans-serif" font-size="12">8</text>
<line x1="70" x2="935" y1="249.00" y2="249.00" stroke="#27314e" stroke-width="1"/>
<text x="58" y="253.00" text-anchor="end" fill="#93a4c3" font-family="Inter, Arial, sans-serif" font-size="12">17</text>
<line x1="70" x2="935" y1="186.00" y2="186.00" stroke="#27314e" stroke-width="1"/>
<text x="58" y="190.00" text-anchor="end" fill="#93a4c3" font-family="Inter, Arial, sans-serif" font-size="12">25</text>
<line x1="70" x2="935" y1="123.00" y2="123.00" stroke="#27314e" stroke-width="1"/>
<text x="58" y="127.00" text-anchor="end" fill="#93a4c3" font-family="Inter, Arial, sans-serif" font-size="12">33</text>
<line x1="70" x2="935" y1="60.00" y2="60.00" stroke="#27314e" stroke-width="1"/>
<text x="58" y="64.00" text-anchor="end" fill="#93a4c3" font-family="Inter, Arial, sans-serif" font-size="12">41</text>
<text x="70.00" y="412" text-anchor="middle" fill="#93a4c3" font-family="Inter, Arial, sans-serif" font-size="12">2025-10-27</text>
<text x="502.50" y="412" text-anchor="middle" fill="#93a4c3" font-family="Inter, Arial, sans-serif" font-size="12">2025-12-23</text>
<text x="935.00" y="412" text-anchor="middle" fill="#93a4c3" font-family="Inter, Arial, sans-serif" font-size="12">2026-02-20</text>
<path d="M 70.00 286.32 L 81.09 284.18 L 92.18 236.83 L 103.27 191.31 L 114.36 187.95 L 125.45 192.98 L 136.54 135.80 L 147.63 183.68 L 158.72 184.67 L 169.81 190.93 L 180.90 255.59 L 191.99 294.63 L 203.08 209.53 L 214.17 237.06 L 225.26 167.36 L 236.35 60.00 L 247.44 70.45 L 258.53 66.18 L 269.62 146.17 L 280.71 277.24 L 291.79 326.96 L 302.88 337.79 L 313.97 375.00 L 325.06 333.06 L 336.15 308.20 L 347.24 290.89 L 358.33 264.74 L 369.42 247.28 L 380.51 278.92 L 391.60 241.33 L 402.69 272.67 L 413.78 307.67 L 424.87 264.05 L 435.96 273.13 L 447.05 273.58 L 458.14 183.07 L 469.23 209.46 L 480.32 304.77 L 491.41 329.32 L 502.50 342.21 L 513.59 374.85 L 524.68 360.82 L 535.77 332.91 L 546.86 310.11 L 557.95 254.37 L 569.04 241.41 L 580.13 250.25 L 591.22 274.96 L 602.31 271.37 L 613.40 287.00 L 624.49 289.90 L 635.58 256.43 L 646.67 234.08 L 657.76 237.06 L 668.85 246.21 L 679.94 211.90 L 691.03 84.17 L 702.12 172.78 L 713.21 214.11 L 724.29 200.15 L 735.38 248.88 L 746.47 293.33 L 757.56 261.99 L 768.65 228.59 L 779.74 226.46 L 790.83 237.44 L 801.92 170.49 L 813.01 173.85 L 824.10 111.24 L 835.19 253.00 L 846.28 248.65 L 857.37 271.37 L 868.46 276.02 L 879.55 258.10 L 890.64 183.61 L 901.73 172.93 L 912.82 205.34 L 923.91 191.99 L 935.00 278.62" fill="none" stroke="#69a7ff" stroke-width="4" stroke-linecap="round" stroke-linejoin="round"/>
<circle cx="935.00" cy="278.62" r="6" fill="#69a7ff"/>
</svg>