<svg xmlns="http://www.w3.org/2000/svg" width="960" height="430" viewBox="0 0 960 430" role="img" aria-label="Composite score history">
<rect width="100%" height="100%" fill="#0b1020" rx="20"/>
<text x="70" y="32" fill="#f5f7fb" font-family="Inter, Arial, sans-serif" font-size="24" font-weight="700">Composite score history</text>
<text x="70" y="52" fill="#93a4c3" font-family="Inter, Arial, sans-serif" font-size="13">Trailing 89 sessions through 2026-02-20</text>
<line x1="70" x2="935" y1="375.00" y2="375.00" stroke="#27314e" stroke-width="1"/>
<text x="58" y="379.00" text-anchor="end" fill="#93a4c3" font-family="Inter, Arial, sans-serif" font-size="12">0</text>
<line x1="70" x2="935" y1="312.00" y2="312.00" stroke="#27314e" stroke-width="1"/>
<text x="58" y="316.00" text-anchor="end" fill="#93a4c3" font-family="Inter, Arial, sans-serif" font-size="12">8</text>
<line x1="70" x2="935" y1="249.00" y2="249.00" stroke="#27314e" stroke-width="1"/>
<text x="58" y="253.00" text-anchor="end" fill="#93a4c3" font-family="Inter, Arial, sans-serif" font-size="12">17</text>
<line x1="70" x2="935" y1="186.00" y2="186.00" stroke="#27314e" stroke-width="1"/>
<text x="58" y="190.00" text-anchor="end" fill="#93a4c3" font-family="Inter, Arial, sans-serif" font-size="12">25</text>
<line x1="70" x2="935" y1="123.00" y2="123.00" stroke="#27314e" stroke-width="1"/>
<text x="58" y="127.00" text-anchor="end" fill="#93a4c3" font-family="Inter, Arial, sans-serif" font-size="12">33</text>
<line x1="70" x2="935" y1="60.00" y2="60.00" stroke="#27314e" stroke-width="1"/>
<text x="58" y="64.00" text-anchor="end" fill="#93a4c3" font-family="Inter, Arial, sans-serif" font-size="12">41</text>
<text x="70.00" y="412" text-anchor="middle" fill="#93a4c3" font-family="Inter, Arial, sans-serif" font-size="12">2025-10-10</text>
<text x="502.50" y="412" text-anchor="middle" fill="#93a4c3" font-family="Inter, Arial, sans-serif" font-size="12">2025-12-16</text>
<text x="935.00" y="412" text-anchor="middle" fill="#93a4c3" font-family="Inter, Arial, sans-serif" font-size="12">2026-02-20</text>
<path d="M 70.00 252.46 L 79.83 288.45 L 89.66 296.15 L 99.49 239.96 L 109.32 299.97 L 119.15 336.57 L 128.98 309.88 L 138.81 285.33 L 148.64 232.33 L 158.47 267.94 L 168.30 285.48 L 178.12 299.36 L 187.95 266.80 L 197.78 256.12 L 207.61 236.53 L 217.44 192.98 L 227.27 135.80 L 237.10 183.68 L 246.93 184.67 L 256.76 190.93 L 266.59 255.59 L 276.42 294.63 L 286.25 209.53 L 296.08 237.06 L 305.91 167.36 L 315.74 60.00 L 325.57 70.45 L 335.40 66.18 L 345.23 146.17 L 355.06 277.24 L 364.89 326.96 L 374.72 337.79 L 384.55 375.00 L 394.38 333.06 L 404.20 308.20 L 414.03 290.89 L 423.86 264.74 L 433.69 247.28 L 443.52 278.92 L 453.35 241.33 L 463.18 272.67 L 473.01 307.67 L 482.84 264.05 L 492.67 273.13 L 502.50 273.58 L 512.33 183.07 L 522.16 209.46 L 531.99 304.77 L 541.82 329.32 L 551.65 342.21 L 561.48 374.85 L 571.31 360.82 L 581.14 332.91 L 590.97 310.11 L 600.80 254.37 L 610.62 241.41 L 620.45 250.25 L 630.28 274.96 L 640.11 271.37 L 649.94 287.00 L 659.77 289.90 L 669.60 256.43 L 679.43 234.08 L 689.26 237.06 L 699.09 246.21 L 708.92 211.90 L 718.75 84.17 L 728.58 172.78 L 738.41 214.11 L 748.24 200.15 L 758.07 248.88 L 767.90 293.33 L 777.73 261.99 L 787.56 228.59 L 797.39 226.46 L 807.22 237.44 L 817.05 170.49 L 826.88 173.85 L 836.70 111.24 L 846.53 253.00 L 856.36 248.65 L 866.19 271.37 L 876.02 276.02 L 885.85 258.10 L 895.68 183.61 L 905.51 172.93 L 915.34 205.34 L 925.17 191.99 L 935.00 278.62" fill="none" stroke="#69a7ff" stroke-width="4" stroke-linecap="round" stroke-linejoin="round"/>
<circle cx="935.00" cy="278.62" r="6" fill="#69a7ff"/>
</svg>