<svg xmlns="http://www.w3.org/2000/svg" width="960" height="430" viewBox="0 0 960 430" role="img" aria-label="Composite score history">
<rect width="100%" height="100%" fill="#0b1020" rx="20"/>
<text x="70" y="32" fill="#f5f7fb" font-family="Inter, Arial, sans-serif" font-size="24" font-weight="700">Composite score history</text>
<text x="70" y="52" fill="#93a4c3" font-family="Inter, Arial, sans-serif" font-size="13">Trailing 86 sessions through 2026-02-20</text>
<line x1="70" x2="935" y1="375.00" y2="375.00" stroke="#27314e" stroke-width="1"/>
<text x="58" y="379.00" text-anchor="end" fill="#93a4c3" font-family="Inter, Arial, sans-serif" font-size="12">0</text>
<line x1="70" x2="935" y1="312.00" y2="312.00" stroke="#27314e" stroke-width="1"/>
<text x="58" y="316.00" text-anchor="end" fill="#93a4c3" font-family="Inter, Arial, sans-serif" font-size="12">8</text>
<line x1="70" x2="935" y1="249.00" y2="249.00" stroke="#27314e" stroke-width="1"/>
<text x="58" y="253.00" text-anchor="end" fill="#93a4c3" font-family="Inter, Arial, sans-serif" font-size="12">17</text>
<line x1="70" x2="935" y1="186.00" y2="186.00" stroke="#27314e" stroke-width="1"/>
<text x="58" y="190.00" text-anchor="end" fill="#93a4c3" font-family="Inter, Arial, sans-serif" font-size="12">25</text>
<line x1="70" x2="935" y1="123.00" y2="123.00" stroke="#27314e" stroke-width="1"/>
<text x="58" y="127.00" text-anchor="end" fill="#93a4c3" font-family="Inter, Arial, sans-serif" font-size="12">33</text>
<line x1="70" x2="935" y1="60.00" y2="60.00" stroke="#27314e" stroke-width="1"/>
<text x="58" y="64.00" text-anchor="end" fill="#93a4c3" font-family="Inter, Arial, sans-serif" font-size="12">41</text>
<text x="70.00" y="412" text-anchor="middle" fill="#93a4c3" font-family="Inter, Arial, sans-serif" font-size="12">2025-10-16</text>
<text x="507.59" y="412" text-anchor="middle" fill="#93a4c3" font-family="Inter, Arial, sans-serif" font-size="12">2025-12-18</text>
<text x="935.00" y="412" text-anchor="middle" fill="#93a4c3" font-family="Inter, Arial, sans-serif" font-size="12">2026-02-20</text>
<path d="M 70.00 243.77 L 80.18 262.30 L 90.35 298.67 L 100.53 298.29 L 110.71 273.81 L 120.88 232.33 L 131.06 267.94 L 141.24 285.48 L 151.41 299.36 L 161.59 266.80 L 171.76 256.12 L 181.94 236.53 L 192.12 192.98 L 202.29 135.80 L 212.47 183.68 L 222.65 184.67 L 232.82 190.93 L 243.00 255.59 L 253.18 294.63 L 263.35 209.53 L 273.53 237.06 L 283.71 167.36 L 293.88 60.00 L 304.06 70.45 L 314.24 66.18 L 324.41 146.17 L 334.59 277.24 L 344.76 326.96 L 354.94 337.79 L 365.12 375.00 L 375.29 333.06 L 385.47 308.20 L 395.65 290.89 L 405.82 264.74 L 416.00 247.28 L 426.18 278.92 L 436.35 241.33 L 446.53 272.67 L 456.71 307.67 L 466.88 264.05 L 477.06 273.13 L 487.24 273.58 L 497.41 183.07 L 507.59 209.46 L 517.76 304.77 L 527.94 329.32 L 538.12 342.21 L 548.29 374.85 L 558.47 360.82 L 568.65 332.91 L 578.82 310.11 L 589.00 254.37 L 599.18 241.41 L 609.35 250.25 L 619.53 274.96 L 629.71 271.37 L 639.88 287.00 L 650.06 289.90 L 660.24 256.43 L 670.41 234.08 L 680.59 237.06 L 690.76 246.21 L 700.94 211.90 L 711.12 84.17 L 721.29 172.78 L 731.47 214.11 L 741.65 200.15 L 751.82 248.88 L 762.00 293.33 L 772.18 261.99 L 782.35 228.59 L 792.53 226.46 L 802.71 237.44 L 812.88 170.49 L 823.06 173.85 L 833.24 111.24 L 843.41 253.00 L 853.59 248.65 L 863.76 271.37 L 873.94 276.02 L 884.12 258.10 L 894.29 183.61 L 904.47 172.93 L 914.65 205.34 L 924.82 191.99 L 935.00 278.62" fill="none" stroke="#69a7ff" stroke-width="4" stroke-linecap="round" stroke-linejoin="round"/>
<circle cx="935.00" cy="278.62" r="6" fill="#69a7ff"/>
</svg>