<svg xmlns="http://www.w3.org/2000/svg" width="960" height="430" viewBox="0 0 960 430" role="img" aria-label="Composite score history">
<rect width="100%" height="100%" fill="#0b1020" rx="20"/>
<text x="70" y="32" fill="#f5f7fb" font-family="Inter, Arial, sans-serif" font-size="24" font-weight="700">Composite score history</text>
<text x="70" y="52" fill="#93a4c3" font-family="Inter, Arial, sans-serif" font-size="13">Trailing 73 sessions through 2026-02-20</text>
<line x1="70" x2="935" y1="375.00" y2="375.00" stroke="#27314e" stroke-width="1"/>
<text x="58" y="379.00" text-anchor="end" fill="#93a4c3" font-family="Inter, Arial, sans-serif" font-size="12">0</text>
<line x1="70" x2="935" y1="312.00" y2="312.00" stroke="#27314e" stroke-width="1"/>
<text x="58" y="316.00" text-anchor="end" fill="#93a4c3" font-family="Inter, Arial, sans-serif" font-size="12">8</text>
<line x1="70" x2="935" y1="249.00" y2="249.00" stroke="#27314e" stroke-width="1"/>
<text x="58" y="253.00" text-anchor="end" fill="#93a4c3" font-family="Inter, Arial, sans-serif" font-size="12">17</text>
<line x1="70" x2="935" y1="186.00" y2="186.00" stroke="#27314e" stroke-width="1"/>
<text x="58" y="190.00" text-anchor="end" fill="#93a4c3" font-family="Inter, Arial, sans-serif" font-size="12">25</text>
<line x1="70" x2="935" y1="123.00" y2="123.00" stroke="#27314e" stroke-width="1"/>
<text x="58" y="127.00" text-anchor="end" fill="#93a4c3" font-family="Inter, Arial, sans-serif" font-size="12">33</text>
<line x1="70" x2="935" y1="60.00" y2="60.00" stroke="#27314e" stroke-width="1"/>
<text x="58" y="64.00" text-anchor="end" fill="#93a4c3" font-family="Inter, Arial, sans-serif" font-size="12">41</text>
<text x="70.00" y="412" text-anchor="middle" fill="#93a4c3" font-family="Inter, Arial, sans-serif" font-size="12">2025-11-04</text>
<text x="502.50" y="412" text-anchor="middle" fill="#93a4c3" font-family="Inter, Arial, sans-serif" font-size="12">2025-12-29</text>
<text x="935.00" y="412" text-anchor="middle" fill="#93a4c3" font-family="Inter, Arial, sans-serif" font-size="12">2026-02-20</text>
<path d="M 70.00 261.46 L 82.01 251.39 L 94.03 227.76 L 106.04 240.11 L 118.06 286.70 L 130.07 294.63 L 142.08 209.53 L 154.10 237.06 L 166.11 167.36 L 178.12 60.00 L 190.14 70.45 L 202.15 66.18 L 214.17 146.17 L 226.18 277.24 L 238.19 326.96 L 250.21 337.79 L 262.22 375.00 L 274.24 333.06 L 286.25 308.20 L 298.26 290.89 L 310.28 264.74 L 322.29 247.28 L 334.31 278.92 L 346.32 241.33 L 358.33 272.67 L 370.35 307.67 L 382.36 264.05 L 394.38 273.13 L 406.39 273.58 L 418.40 183.07 L 430.42 209.46 L 442.43 304.77 L 454.44 329.32 L 466.46 342.21 L 478.47 374.85 L 490.49 360.82 L 502.50 332.91 L 514.51 310.11 L 526.53 254.37 L 538.54 241.41 L 550.56 250.25 L 562.57 274.96 L 574.58 271.37 L 586.60 287.00 L 598.61 289.90 L 610.62 256.43 L 622.64 234.08 L 634.65 237.06 L 646.67 246.21 L 658.68 211.90 L 670.69 84.17 L 682.71 172.78 L 694.72 214.11 L 706.74 200.15 L 718.75 248.88 L 730.76 293.33 L 742.78 261.99 L 754.79 228.59 L 766.81 226.46 L 778.82 237.44 L 790.83 170.49 L 802.85 173.85 L 814.86 111.24 L 826.88 253.00 L 838.89 248.65 L 850.90 271.37 L 862.92 276.02 L 874.93 258.10 L 886.94 183.61 L 898.96 172.93 L 910.97 205.34 L 922.99 191.99 L 935.00 278.62" fill="none" stroke="#69a7ff" stroke-width="4" stroke-linecap="round" stroke-linejoin="round"/>
<circle cx="935.00" cy="278.62" r="6" fill="#69a7ff"/>
</svg>