<svg xmlns="http://www.w3.org/2000/svg" width="960" height="430" viewBox="0 0 960 430" role="img" aria-label="Composite score history">
<rect width="100%" height="100%" fill="#0b1020" rx="20"/>
<text x="70" y="32" fill="#f5f7fb" font-family="Inter, Arial, sans-serif" font-size="24" font-weight="700">Composite score history</text>
<text x="70" y="52" fill="#93a4c3" font-family="Inter, Arial, sans-serif" font-size="13">Trailing 69 sessions through 2025-12-05</text>
<line x1="70" x2="935" y1="375.00" y2="375.00" stroke="#27314e" stroke-width="1"/>
<text x="58" y="379.00" text-anchor="end" fill="#93a4c3" font-family="Inter, Arial, sans-serif" font-size="12">0</text>
<line x1="70" x2="935" y1="312.00" y2="312.00" stroke="#27314e" stroke-width="1"/>
<text x="58" y="316.00" text-anchor="end" fill="#93a4c3" font-family="Inter, Arial, sans-serif" font-size="12">8</text>
<line x1="70" x2="935" y1="249.00" y2="249.00" stroke="#27314e" stroke-width="1"/>
<text x="58" y="253.00" text-anchor="end" fill="#93a4c3" font-family="Inter, Arial, sans-serif" font-size="12">17</text>
<line x1="70" x2="935" y1="186.00" y2="186.00" stroke="#27314e" stroke-width="1"/>
<text x="58" y="190.00" text-anchor="end" fill="#93a4c3" font-family="Inter, Arial, sans-serif" font-size="12">25</text>
<line x1="70" x2="935" y1="123.00" y2="123.00" stroke="#27314e" stroke-width="1"/>
<text x="58" y="127.00" text-anchor="end" fill="#93a4c3" font-family="Inter, Arial, sans-serif" font-size="12">33</text>
<line x1="70" x2="935" y1="60.00" y2="60.00" stroke="#27314e" stroke-width="1"/>
<text x="58" y="64.00" text-anchor="end" fill="#93a4c3" font-family="Inter, Arial, sans-serif" font-size="12">41</text>
<text x="70.00" y="412" text-anchor="middle" fill="#93a4c3" font-family="Inter, Arial, sans-serif" font-size="12">2025-08-27</text>
<text x="502.50" y="412" text-anchor="middle" fill="#93a4c3" font-family="Inter, Arial, sans-serif" font-size="12">2025-10-16</text>
<text x="935.00" y="412" text-anchor="middle" fill="#93a4c3" font-family="Inter, Arial, sans-serif" font-size="12">2025-12-05</text>
<path d="M 70.00 271.30 L 82.72 270.23 L 95.44 255.66 L 108.16 179.87 L 120.88 229.81 L 133.60 278.39 L 146.32 265.27 L 159.04 295.39 L 171.76 309.58 L 184.49 305.99 L 197.21 310.95 L 209.93 297.45 L 222.65 295.09 L 235.37 293.87 L 248.09 287.46 L 260.81 253.38 L 273.53 288.22 L 286.25 266.64 L 298.97 279.46 L 311.69 266.03 L 324.41 222.49 L 337.13 245.75 L 349.85 247.43 L 362.57 259.32 L 375.29 297.76 L 388.01 309.80 L 400.74 286.01 L 413.46 296.54 L 426.18 271.60 L 438.90 278.85 L 451.62 256.96 L 464.34 123.98 L 477.06 175.75 L 489.78 212.66 L 502.50 109.03 L 515.22 196.19 L 527.94 336.57 L 540.66 309.88 L 553.38 285.33 L 566.10 232.33 L 578.82 267.94 L 591.54 285.48 L 604.26 299.36 L 616.99 266.80 L 629.71 256.12 L 642.43 236.53 L 655.15 192.98 L 667.87 135.80 L 680.59 183.68 L 693.31 184.67 L 706.03 190.93 L 718.75 255.59 L 731.47 294.63 L 744.19 209.53 L 756.91 237.06 L 769.63 167.36 L 782.35 60.00 L 795.07 70.45 L 807.79 66.18 L 820.51 146.17 L 833.24 277.24 L 845.96 326.96 L 858.68 337.79 L 871.40 375.00 L 884.12 333.06 L 896.84 308.20 L 909.56 290.89 L 922.28 264.74 L 935.00 247.28" fill="none" stroke="#69a7ff" stroke-width="4" stroke-linecap="round" stroke-linejoin="round"/>
<circle cx="935.00" cy="247.28" r="6" fill="#69a7ff"/>
</svg>