<svg xmlns="http://www.w3.org/2000/svg" width="960" height="430" viewBox="0 0 960 430" role="img" aria-label="Composite score history">
<rect width="100%" height="100%" fill="#0b1020" rx="20"/>
<text x="70" y="32" fill="#f5f7fb" font-family="Inter, Arial, sans-serif" font-size="24" font-weight="700">Composite score history</text>
<text x="70" y="52" fill="#93a4c3" font-family="Inter, Arial, sans-serif" font-size="13">Trailing 78 sessions through 2025-12-05</text>
<line x1="70" x2="935" y1="375.00" y2="375.00" stroke="#27314e" stroke-width="1"/>
<text x="58" y="379.00" text-anchor="end" fill="#93a4c3" font-family="Inter, Arial, sans-serif" font-size="12">0</text>
<line x1="70" x2="935" y1="312.00" y2="312.00" stroke="#27314e" stroke-width="1"/>
<text x="58" y="316.00" text-anchor="end" fill="#93a4c3" font-family="Inter, Arial, sans-serif" font-size="12">8</text>
<line x1="70" x2="935" y1="249.00" y2="249.00" stroke="#27314e" stroke-width="1"/>
<text x="58" y="253.00" text-anchor="end" fill="#93a4c3" font-family="Inter, Arial, sans-serif" font-size="12">17</text>
<line x1="70" x2="935" y1="186.00" y2="186.00" stroke="#27314e" stroke-width="1"/>
<text x="58" y="190.00" text-anchor="end" fill="#93a4c3" font-family="Inter, Arial, sans-serif" font-size="12">25</text>
<line x1="70" x2="935" y1="123.00" y2="123.00" stroke="#27314e" stroke-width="1"/>
<text x="58" y="127.00" text-anchor="end" fill="#93a4c3" font-family="Inter, Arial, sans-serif" font-size="12">33</text>
<line x1="70" x2="935" y1="60.00" y2="60.00" stroke="#27314e" stroke-width="1"/>
<text x="58" y="64.00" text-anchor="end" fill="#93a4c3" font-family="Inter, Arial, sans-serif" font-size="12">41</text>
<text x="70.00" y="412" text-anchor="middle" fill="#93a4c3" font-family="Inter, Arial, sans-serif" font-size="12">2025-08-14</text>
<text x="508.12" y="412" text-anchor="middle" fill="#93a4c3" font-family="Inter, Arial, sans-serif" font-size="12">2025-10-09</text>
<text x="935.00" y="412" text-anchor="middle" fill="#93a4c3" font-family="Inter, Arial, sans-serif" font-size="12">2025-12-05</text>
<path d="M 70.00 271.75 L 81.23 254.98 L 92.47 248.73 L 103.70 229.51 L 114.94 221.20 L 126.17 168.13 L 137.40 254.83 L 148.64 233.17 L 159.87 245.90 L 171.10 258.71 L 182.34 293.71 L 193.57 259.71 L 204.81 225.47 L 216.04 243.31 L 227.27 278.39 L 238.51 265.27 L 249.74 295.39 L 260.97 309.58 L 272.21 305.99 L 283.44 310.95 L 294.68 297.45 L 305.91 295.09 L 317.14 293.87 L 328.38 287.46 L 339.61 253.38 L 350.84 288.22 L 362.08 266.64 L 373.31 279.46 L 384.55 266.03 L 395.78 222.49 L 407.01 245.75 L 418.25 247.43 L 429.48 259.32 L 440.71 297.76 L 451.95 309.80 L 463.18 286.01 L 474.42 296.54 L 485.65 271.60 L 496.88 278.85 L 508.12 256.96 L 519.35 123.98 L 530.58 175.75 L 541.82 212.66 L 553.05 109.03 L 564.29 196.19 L 575.52 336.57 L 586.75 309.88 L 597.99 285.33 L 609.22 232.33 L 620.45 267.94 L 631.69 285.48 L 642.92 299.36 L 654.16 266.80 L 665.39 256.12 L 676.62 236.53 L 687.86 192.98 L 699.09 135.80 L 710.32 183.68 L 721.56 184.67 L 732.79 190.93 L 744.03 255.59 L 755.26 294.63 L 766.49 209.53 L 777.73 237.06 L 788.96 167.36 L 800.19 60.00 L 811.43 70.45 L 822.66 66.18 L 833.90 146.17 L 845.13 277.24 L 856.36 326.96 L 867.60 337.79 L 878.83 375.00 L 890.06 333.06 L 901.30 308.20 L 912.53 290.89 L 923.77 264.74 L 935.00 247.28" fill="none" stroke="#69a7ff" stroke-width="4" stroke-linecap="round" stroke-linejoin="round"/>
<circle cx="935.00" cy="247.28" r="6" fill="#69a7ff"/>
</svg>