<svg xmlns="http://www.w3.org/2000/svg" width="960" height="430" viewBox="0 0 960 430" role="img" aria-label="Composite score history">
<rect width="100%" height="100%" fill="#0b1020" rx="20"/>
<text x="70" y="32" fill="#f5f7fb" font-family="Inter, Arial, sans-serif" font-size="24" font-weight="700">Composite score history</text>
<text x="70" y="52" fill="#93a4c3" font-family="Inter, Arial, sans-serif" font-size="13">Trailing 83 sessions through 2025-12-05</text>
<line x1="70" x2="935" y1="375.00" y2="375.00" stroke="#27314e" stroke-width="1"/>
<text x="58" y="379.00" text-anchor="end" fill="#93a4c3" font-family="Inter, Arial, sans-serif" font-size="12">0</text>
<line x1="70" x2="935" y1="312.00" y2="312.00" stroke="#27314e" stroke-width="1"/>
<text x="58" y="316.00" text-anchor="end" fill="#93a4c3" font-family="Inter, Arial, sans-serif" font-size="12">8</text>
<line x1="70" x2="935" y1="249.00" y2="249.00" stroke="#27314e" stroke-width="1"/>
<text x="58" y="253.00" text-anchor="end" fill="#93a4c3" font-family="Inter, Arial, sans-serif" font-size="12">17</text>
<line x1="70" x2="935" y1="186.00" y2="186.00" stroke="#27314e" stroke-width="1"/>
<text x="58" y="190.00" text-anchor="end" fill="#93a4c3" font-family="Inter, Arial, sans-serif" font-size="12">25</text>
<line x1="70" x2="935" y1="123.00" y2="123.00" stroke="#27314e" stroke-width="1"/>
<text x="58" y="127.00" text-anchor="end" fill="#93a4c3" font-family="Inter, Arial, sans-serif" font-size="12">33</text>
<line x1="70" x2="935" y1="60.00" y2="60.00" stroke="#27314e" stroke-width="1"/>
<text x="58" y="64.00" text-anchor="end" fill="#93a4c3" font-family="Inter, Arial, sans-serif" font-size="12">41</text>
<text x="70.00" y="412" text-anchor="middle" fill="#93a4c3" font-family="Inter, Arial, sans-serif" font-size="12">2025-08-07</text>
<text x="502.50" y="412" text-anchor="middle" fill="#93a4c3" font-family="Inter, Arial, sans-serif" font-size="12">2025-10-06</text>
<text x="935.00" y="412" text-anchor="middle" fill="#93a4c3" font-family="Inter, Arial, sans-serif" font-size="12">2025-12-05</text>
<path d="M 70.00 264.97 L 80.55 249.03 L 91.10 237.90 L 101.65 297.53 L 112.20 312.70 L 122.74 296.69 L 133.29 288.91 L 143.84 290.05 L 154.39 236.07 L 164.94 198.55 L 175.49 168.13 L 186.04 254.83 L 196.59 233.17 L 207.13 245.90 L 217.68 258.71 L 228.23 293.71 L 238.78 259.71 L 249.33 225.47 L 259.88 243.31 L 270.43 278.39 L 280.98 265.27 L 291.52 295.39 L 302.07 309.58 L 312.62 305.99 L 323.17 310.95 L 333.72 297.45 L 344.27 295.09 L 354.82 293.87 L 365.37 287.46 L 375.91 253.38 L 386.46 288.22 L 397.01 266.64 L 407.56 279.46 L 418.11 266.03 L 428.66 222.49 L 439.21 245.75 L 449.76 247.43 L 460.30 259.32 L 470.85 297.76 L 481.40 309.80 L 491.95 286.01 L 502.50 296.54 L 513.05 271.60 L 523.60 278.85 L 534.15 256.96 L 544.70 123.98 L 555.24 175.75 L 565.79 212.66 L 576.34 109.03 L 586.89 196.19 L 597.44 336.57 L 607.99 309.88 L 618.54 285.33 L 629.09 232.33 L 639.63 267.94 L 650.18 285.48 L 660.73 299.36 L 671.28 266.80 L 681.83 256.12 L 692.38 236.53 L 702.93 192.98 L 713.48 135.80 L 724.02 183.68 L 734.57 184.67 L 745.12 190.93 L 755.67 255.59 L 766.22 294.63 L 776.77 209.53 L 787.32 237.06 L 797.87 167.36 L 808.41 60.00 L 818.96 70.45 L 829.51 66.18 L 840.06 146.17 L 850.61 277.24 L 861.16 326.96 L 871.71 337.79 L 882.26 375.00 L 892.80 333.06 L 903.35 308.20 L 913.90 290.89 L 924.45 264.74 L 935.00 247.28" fill="none" stroke="#69a7ff" stroke-width="4" stroke-linecap="round" stroke-linejoin="round"/>
<circle cx="935.00" cy="247.28" r="6" fill="#69a7ff"/>
</svg>