<svg xmlns="http://www.w3.org/2000/svg" width="960" height="430" viewBox="0 0 960 430" role="img" aria-label="Composite score history">
<rect width="100%" height="100%" fill="#0b1020" rx="20"/>
<text x="70" y="32" fill="#f5f7fb" font-family="Inter, Arial, sans-serif" font-size="24" font-weight="700">Composite score history</text>
<text x="70" y="52" fill="#93a4c3" font-family="Inter, Arial, sans-serif" font-size="13">Trailing 52 sessions through 2025-12-05</text>
<line x1="70" x2="935" y1="375.00" y2="375.00" stroke="#27314e" stroke-width="1"/>
<text x="58" y="379.00" text-anchor="end" fill="#93a4c3" font-family="Inter, Arial, sans-serif" font-size="12">0</text>
<line x1="70" x2="935" y1="312.00" y2="312.00" stroke="#27314e" stroke-width="1"/>
<text x="58" y="316.00" text-anchor="end" fill="#93a4c3" font-family="Inter, Arial, sans-serif" font-size="12">8</text>
<line x1="70" x2="935" y1="249.00" y2="249.00" stroke="#27314e" stroke-width="1"/>
<text x="58" y="253.00" text-anchor="end" fill="#93a4c3" font-family="Inter, Arial, sans-serif" font-size="12">17</text>
<line x1="70" x2="935" y1="186.00" y2="186.00" stroke="#27314e" stroke-width="1"/>
<text x="58" y="190.00" text-anchor="end" fill="#93a4c3" font-family="Inter, Arial, sans-serif" font-size="12">25</text>
<line x1="70" x2="935" y1="123.00" y2="123.00" stroke="#27314e" stroke-width="1"/>
<text x="58" y="127.00" text-anchor="end" fill="#93a4c3" font-family="Inter, Arial, sans-serif" font-size="12">33</text>
<line x1="70" x2="935" y1="60.00" y2="60.00" stroke="#27314e" stroke-width="1"/>
<text x="58" y="64.00" text-anchor="end" fill="#93a4c3" font-family="Inter, Arial, sans-serif" font-size="12">41</text>
<text x="70.00" y="412" text-anchor="middle" fill="#93a4c3" font-family="Inter, Arial, sans-serif" font-size="12">2025-09-22</text>
<text x="510.98" y="412" text-anchor="middle" fill="#93a4c3" font-family="Inter, Arial, sans-serif" font-size="12">2025-10-29</text>
<text x="935.00" y="412" text-anchor="middle" fill="#93a4c3" font-family="Inter, Arial, sans-serif" font-size="12">2025-12-05</text>
<path d="M 70.00 272.14 L 86.96 248.27 L 103.92 241.41 L 120.88 202.52 L 137.84 241.25 L 154.80 247.43 L 171.76 259.32 L 188.73 297.76 L 205.69 309.80 L 222.65 286.01 L 239.61 296.54 L 256.57 271.60 L 273.53 278.85 L 290.49 256.96 L 307.45 123.98 L 324.41 175.75 L 341.37 212.66 L 358.33 109.03 L 375.29 196.19 L 392.25 336.57 L 409.22 309.88 L 426.18 285.33 L 443.14 232.33 L 460.10 267.94 L 477.06 285.48 L 494.02 299.36 L 510.98 266.80 L 527.94 256.12 L 544.90 236.53 L 561.86 192.98 L 578.82 135.80 L 595.78 183.68 L 612.75 184.67 L 629.71 190.93 L 646.67 255.59 L 663.63 294.63 L 680.59 209.53 L 697.55 237.06 L 714.51 167.36 L 731.47 60.00 L 748.43 70.45 L 765.39 66.18 L 782.35 146.17 L 799.31 277.24 L 816.27 326.96 L 833.24 337.79 L 850.20 375.00 L 867.16 333.06 L 884.12 308.20 L 901.08 290.89 L 918.04 264.74 L 935.00 247.28" fill="none" stroke="#69a7ff" stroke-width="4" stroke-linecap="round" stroke-linejoin="round"/>
<circle cx="935.00" cy="247.28" r="6" fill="#69a7ff"/>
</svg>