<svg xmlns="http://www.w3.org/2000/svg" width="960" height="430" viewBox="0 0 960 430" role="img" aria-label="Composite score history">
<rect width="100%" height="100%" fill="#0b1020" rx="20"/>
<text x="70" y="32" fill="#f5f7fb" font-family="Inter, Arial, sans-serif" font-size="24" font-weight="700">Composite score history</text>
<text x="70" y="52" fill="#93a4c3" font-family="Inter, Arial, sans-serif" font-size="13">Trailing 88 sessions through 2025-12-05</text>
<line x1="70" x2="935" y1="375.00" y2="375.00" stroke="#27314e" stroke-width="1"/>
<text x="58" y="379.00" text-anchor="end" fill="#93a4c3" font-family="Inter, Arial, sans-serif" font-size="12">0</text>
<line x1="70" x2="935" y1="312.00" y2="312.00" stroke="#27314e" stroke-width="1"/>
<text x="58" y="316.00" text-anchor="end" fill="#93a4c3" font-family="Inter, Arial, sans-serif" font-size="12">8</text>
<line x1="70" x2="935" y1="249.00" y2="249.00" stroke="#27314e" stroke-width="1"/>
<text x="58" y="253.00" text-anchor="end" fill="#93a4c3" font-family="Inter, Arial, sans-serif" font-size="12">17</text>
<line x1="70" x2="935" y1="186.00" y2="186.00" stroke="#27314e" stroke-width="1"/>
<text x="58" y="190.00" text-anchor="end" fill="#93a4c3" font-family="Inter, Arial, sans-serif" font-size="12">25</text>
<line x1="70" x2="935" y1="123.00" y2="123.00" stroke="#27314e" stroke-width="1"/>
<text x="58" y="127.00" text-anchor="end" fill="#93a4c3" font-family="Inter, Arial, sans-serif" font-size="12">33</text>
<line x1="70" x2="935" y1="60.00" y2="60.00" stroke="#27314e" stroke-width="1"/>
<text x="58" y="64.00" text-anchor="end" fill="#93a4c3" font-family="Inter, Arial, sans-serif" font-size="12">41</text>
<text x="70.00" y="412" text-anchor="middle" fill="#93a4c3" font-family="Inter, Arial, sans-serif" font-size="12">2025-07-31</text>
<text x="507.47" y="412" text-anchor="middle" fill="#93a4c3" font-family="Inter, Arial, sans-serif" font-size="12">2025-10-02</text>
<text x="935.00" y="412" text-anchor="middle" fill="#93a4c3" font-family="Inter, Arial, sans-serif" font-size="12">2025-12-05</text>
<path d="M 70.00 247.20 L 79.94 160.73 L 89.89 249.56 L 99.83 225.32 L 109.77 267.86 L 119.71 265.20 L 129.66 259.86 L 139.60 231.80 L 149.54 310.11 L 159.48 307.29 L 169.43 296.69 L 179.37 288.91 L 189.31 290.05 L 199.25 236.07 L 209.20 198.55 L 219.14 168.13 L 229.08 254.83 L 239.02 233.17 L 248.97 245.90 L 258.91 258.71 L 268.85 293.71 L 278.79 259.71 L 288.74 225.47 L 298.68 243.31 L 308.62 278.39 L 318.56 265.27 L 328.51 295.39 L 338.45 309.58 L 348.39 305.99 L 358.33 310.95 L 368.28 297.45 L 378.22 295.09 L 388.16 293.87 L 398.10 287.46 L 408.05 253.38 L 417.99 288.22 L 427.93 266.64 L 437.87 279.46 L 447.82 266.03 L 457.76 222.49 L 467.70 245.75 L 477.64 247.43 L 487.59 259.32 L 497.53 297.76 L 507.47 309.80 L 517.41 286.01 L 527.36 296.54 L 537.30 271.60 L 547.24 278.85 L 557.18 256.96 L 567.13 123.98 L 577.07 175.75 L 587.01 212.66 L 596.95 109.03 L 606.90 196.19 L 616.84 336.57 L 626.78 309.88 L 636.72 285.33 L 646.67 232.33 L 656.61 267.94 L 666.55 285.48 L 676.49 299.36 L 686.44 266.80 L 696.38 256.12 L 706.32 236.53 L 716.26 192.98 L 726.21 135.80 L 736.15 183.68 L 746.09 184.67 L 756.03 190.93 L 765.98 255.59 L 775.92 294.63 L 785.86 209.53 L 795.80 237.06 L 805.75 167.36 L 815.69 60.00 L 825.63 70.45 L 835.57 66.18 L 845.52 146.17 L 855.46 277.24 L 865.40 326.96 L 875.34 337.79 L 885.29 375.00 L 895.23 333.06 L 905.17 308.20 L 915.11 290.89 L 925.06 264.74 L 935.00 247.28" fill="none" stroke="#69a7ff" stroke-width="4" stroke-linecap="round" stroke-linejoin="round"/>
<circle cx="935.00" cy="247.28" r="6" fill="#69a7ff"/>
</svg>