<svg xmlns="http://www.w3.org/2000/svg" width="960" height="430" viewBox="0 0 960 430" role="img" aria-label="Composite score history">
<rect width="100%" height="100%" fill="#0b1020" rx="20"/>
<text x="70" y="32" fill="#f5f7fb" font-family="Inter, Arial, sans-serif" font-size="24" font-weight="700">Composite score history</text>
<text x="70" y="52" fill="#93a4c3" font-family="Inter, Arial, sans-serif" font-size="13">Trailing 54 sessions through 2025-12-05</text>
<line x1="70" x2="935" y1="375.00" y2="375.00" stroke="#27314e" stroke-width="1"/>
<text x="58" y="379.00" text-anchor="end" fill="#93a4c3" font-family="Inter, Arial, sans-serif" font-size="12">0</text>
<line x1="70" x2="935" y1="312.00" y2="312.00" stroke="#27314e" stroke-width="1"/>
<text x="58" y="316.00" text-anchor="end" fill="#93a4c3" font-family="Inter, Arial, sans-serif" font-size="12">8</text>
<line x1="70" x2="935" y1="249.00" y2="249.00" stroke="#27314e" stroke-width="1"/>
<text x="58" y="253.00" text-anchor="end" fill="#93a4c3" font-family="Inter, Arial, sans-serif" font-size="12">17</text>
<line x1="70" x2="935" y1="186.00" y2="186.00" stroke="#27314e" stroke-width="1"/>
<text x="58" y="190.00" text-anchor="end" fill="#93a4c3" font-family="Inter, Arial, sans-serif" font-size="12">25</text>
<line x1="70" x2="935" y1="123.00" y2="123.00" stroke="#27314e" stroke-width="1"/>
<text x="58" y="127.00" text-anchor="end" fill="#93a4c3" font-family="Inter, Arial, sans-serif" font-size="12">33</text>
<line x1="70" x2="935" y1="60.00" y2="60.00" stroke="#27314e" stroke-width="1"/>
<text x="58" y="64.00" text-anchor="end" fill="#93a4c3" font-family="Inter, Arial, sans-serif" font-size="12">41</text>
<text x="70.00" y="412" text-anchor="middle" fill="#93a4c3" font-family="Inter, Arial, sans-serif" font-size="12">2025-09-18</text>
<text x="510.66" y="412" text-anchor="middle" fill="#93a4c3" font-family="Inter, Arial, sans-serif" font-size="12">2025-10-28</text>
<text x="935.00" y="412" text-anchor="middle" fill="#93a4c3" font-family="Inter, Arial, sans-serif" font-size="12">2025-12-05</text>
<path d="M 70.00 274.27 L 86.32 286.17 L 102.64 274.88 L 118.96 273.58 L 135.28 272.06 L 151.60 222.49 L 167.92 245.75 L 184.25 247.43 L 200.57 259.32 L 216.89 297.76 L 233.21 309.80 L 249.53 286.01 L 265.85 296.54 L 282.17 271.60 L 298.49 278.85 L 314.81 256.96 L 331.13 123.98 L 347.45 175.75 L 363.77 212.66 L 380.09 109.03 L 396.42 196.19 L 412.74 336.57 L 429.06 309.88 L 445.38 285.33 L 461.70 232.33 L 478.02 267.94 L 494.34 285.48 L 510.66 299.36 L 526.98 266.80 L 543.30 256.12 L 559.62 236.53 L 575.94 192.98 L 592.26 135.80 L 608.58 183.68 L 624.91 184.67 L 641.23 190.93 L 657.55 255.59 L 673.87 294.63 L 690.19 209.53 L 706.51 237.06 L 722.83 167.36 L 739.15 60.00 L 755.47 70.45 L 771.79 66.18 L 788.11 146.17 L 804.43 277.24 L 820.75 326.96 L 837.08 337.79 L 853.40 375.00 L 869.72 333.06 L 886.04 308.20 L 902.36 290.89 L 918.68 264.74 L 935.00 247.28" fill="none" stroke="#69a7ff" stroke-width="4" stroke-linecap="round" stroke-linejoin="round"/>
<circle cx="935.00" cy="247.28" r="6" fill="#69a7ff"/>
</svg>