<svg xmlns="http://www.w3.org/2000/svg" width="960" height="430" viewBox="0 0 960 430" role="img" aria-label="Composite score history">
<rect width="100%" height="100%" fill="#0b1020" rx="20"/>
<text x="70" y="32" fill="#f5f7fb" font-family="Inter, Arial, sans-serif" font-size="24" font-weight="700">Composite score history</text>
<text x="70" y="52" fill="#93a4c3" font-family="Inter, Arial, sans-serif" font-size="13">Trailing 72 sessions through 2025-12-05</text>
<line x1="70" x2="935" y1="375.00" y2="375.00" stroke="#27314e" stroke-width="1"/>
<text x="58" y="379.00" text-anchor="end" fill="#93a4c3" font-family="Inter, Arial, sans-serif" font-size="12">0</text>
<line x1="70" x2="935" y1="312.00" y2="312.00" stroke="#27314e" stroke-width="1"/>
<text x="58" y="316.00" text-anchor="end" fill="#93a4c3" font-family="Inter, Arial, sans-serif" font-size="12">8</text>
<line x1="70" x2="935" y1="249.00" y2="249.00" stroke="#27314e" stroke-width="1"/>
<text x="58" y="253.00" text-anchor="end" fill="#93a4c3" font-family="Inter, Arial, sans-serif" font-size="12">17</text>
<line x1="70" x2="935" y1="186.00" y2="186.00" stroke="#27314e" stroke-width="1"/>
<text x="58" y="190.00" text-anchor="end" fill="#93a4c3" font-family="Inter, Arial, sans-serif" font-size="12">25</text>
<line x1="70" x2="935" y1="123.00" y2="123.00" stroke="#27314e" stroke-width="1"/>
<text x="58" y="127.00" text-anchor="end" fill="#93a4c3" font-family="Inter, Arial, sans-serif" font-size="12">33</text>
<line x1="70" x2="935" y1="60.00" y2="60.00" stroke="#27314e" stroke-width="1"/>
<text x="58" y="64.00" text-anchor="end" fill="#93a4c3" font-family="Inter, Arial, sans-serif" font-size="12">41</text>
<text x="70.00" y="412" text-anchor="middle" fill="#93a4c3" font-family="Inter, Arial, sans-serif" font-size="12">2025-08-22</text>
<text x="508.59" y="412" text-anchor="middle" fill="#93a4c3" font-family="Inter, Arial, sans-serif" font-size="12">2025-10-15</text>
<text x="935.00" y="412" text-anchor="middle" fill="#93a4c3" font-family="Inter, Arial, sans-serif" font-size="12">2025-12-05</text>
<path d="M 70.00 272.67 L 82.18 226.23 L 94.37 260.54 L 106.55 263.44 L 118.73 278.31 L 130.92 259.71 L 143.10 225.47 L 155.28 243.31 L 167.46 278.39 L 179.65 265.27 L 191.83 295.39 L 204.01 309.58 L 216.20 305.99 L 228.38 310.95 L 240.56 297.45 L 252.75 295.09 L 264.93 293.87 L 277.11 287.46 L 289.30 253.38 L 301.48 288.22 L 313.66 266.64 L 325.85 279.46 L 338.03 266.03 L 350.21 222.49 L 362.39 245.75 L 374.58 247.43 L 386.76 259.32 L 398.94 297.76 L 411.13 309.80 L 423.31 286.01 L 435.49 296.54 L 447.68 271.60 L 459.86 278.85 L 472.04 256.96 L 484.23 123.98 L 496.41 175.75 L 508.59 212.66 L 520.77 109.03 L 532.96 196.19 L 545.14 336.57 L 557.32 309.88 L 569.51 285.33 L 581.69 232.33 L 593.87 267.94 L 606.06 285.48 L 618.24 299.36 L 630.42 266.80 L 642.61 256.12 L 654.79 236.53 L 666.97 192.98 L 679.15 135.80 L 691.34 183.68 L 703.52 184.67 L 715.70 190.93 L 727.89 255.59 L 740.07 294.63 L 752.25 209.53 L 764.44 237.06 L 776.62 167.36 L 788.80 60.00 L 800.99 70.45 L 813.17 66.18 L 825.35 146.17 L 837.54 277.24 L 849.72 326.96 L 861.90 337.79 L 874.08 375.00 L 886.27 333.06 L 898.45 308.20 L 910.63 290.89 L 922.82 264.74 L 935.00 247.28" fill="none" stroke="#69a7ff" stroke-width="4" stroke-linecap="round" stroke-linejoin="round"/>
<circle cx="935.00" cy="247.28" r="6" fill="#69a7ff"/>
</svg>