<svg xmlns="http://www.w3.org/2000/svg" width="960" height="430" viewBox="0 0 960 430" role="img" aria-label="Composite score history">
<rect width="100%" height="100%" fill="#0b1020" rx="20"/>
<text x="70" y="32" fill="#f5f7fb" font-family="Inter, Arial, sans-serif" font-size="24" font-weight="700">Composite score history</text>
<text x="70" y="52" fill="#93a4c3" font-family="Inter, Arial, sans-serif" font-size="13">Trailing 82 sessions through 2025-12-05</text>
<line x1="70" x2="935" y1="375.00" y2="375.00" stroke="#27314e" stroke-width="1"/>
<text x="58" y="379.00" text-anchor="end" fill="#93a4c3" font-family="Inter, Arial, sans-serif" font-size="12">0</text>
<line x1="70" x2="935" y1="312.00" y2="312.00" stroke="#27314e" stroke-width="1"/>
<text x="58" y="316.00" text-anchor="end" fill="#93a4c3" font-family="Inter, Arial, sans-serif" font-size="12">8</text>
<line x1="70" x2="935" y1="249.00" y2="249.00" stroke="#27314e" stroke-width="1"/>
<text x="58" y="253.00" text-anchor="end" fill="#93a4c3" font-family="Inter, Arial, sans-serif" font-size="12">17</text>
<line x1="70" x2="935" y1="186.00" y2="186.00" stroke="#27314e" stroke-width="1"/>
<text x="58" y="190.00" text-anchor="end" fill="#93a4c3" font-family="Inter, Arial, sans-serif" font-size="12">25</text>
<line x1="70" x2="935" y1="123.00" y2="123.00" stroke="#27314e" stroke-width="1"/>
<text x="58" y="127.00" text-anchor="end" fill="#93a4c3" font-family="Inter, Arial, sans-serif" font-size="12">33</text>
<line x1="70" x2="935" y1="60.00" y2="60.00" stroke="#27314e" stroke-width="1"/>
<text x="58" y="64.00" text-anchor="end" fill="#93a4c3" font-family="Inter, Arial, sans-serif" font-size="12">41</text>
<text x="70.00" y="412" text-anchor="middle" fill="#93a4c3" font-family="Inter, Arial, sans-serif" font-size="12">2025-08-08</text>
<text x="507.84" y="412" text-anchor="middle" fill="#93a4c3" font-family="Inter, Arial, sans-serif" font-size="12">2025-10-07</text>
<text x="935.00" y="412" text-anchor="middle" fill="#93a4c3" font-family="Inter, Arial, sans-serif" font-size="12">2025-12-05</text>
<path d="M 70.00 265.42 L 80.68 241.71 L 91.36 290.21 L 102.04 301.49 L 112.72 295.39 L 123.40 288.91 L 134.07 290.05 L 144.75 236.07 L 155.43 198.55 L 166.11 168.13 L 176.79 254.83 L 187.47 233.17 L 198.15 245.90 L 208.83 258.71 L 219.51 293.71 L 230.19 259.71 L 240.86 225.47 L 251.54 243.31 L 262.22 278.39 L 272.90 265.27 L 283.58 295.39 L 294.26 309.58 L 304.94 305.99 L 315.62 310.95 L 326.30 297.45 L 336.98 295.09 L 347.65 293.87 L 358.33 287.46 L 369.01 253.38 L 379.69 288.22 L 390.37 266.64 L 401.05 279.46 L 411.73 266.03 L 422.41 222.49 L 433.09 245.75 L 443.77 247.43 L 454.44 259.32 L 465.12 297.76 L 475.80 309.80 L 486.48 286.01 L 497.16 296.54 L 507.84 271.60 L 518.52 278.85 L 529.20 256.96 L 539.88 123.98 L 550.56 175.75 L 561.23 212.66 L 571.91 109.03 L 582.59 196.19 L 593.27 336.57 L 603.95 309.88 L 614.63 285.33 L 625.31 232.33 L 635.99 267.94 L 646.67 285.48 L 657.35 299.36 L 668.02 266.80 L 678.70 256.12 L 689.38 236.53 L 700.06 192.98 L 710.74 135.80 L 721.42 183.68 L 732.10 184.67 L 742.78 190.93 L 753.46 255.59 L 764.14 294.63 L 774.81 209.53 L 785.49 237.06 L 796.17 167.36 L 806.85 60.00 L 817.53 70.45 L 828.21 66.18 L 838.89 146.17 L 849.57 277.24 L 860.25 326.96 L 870.93 337.79 L 881.60 375.00 L 892.28 333.06 L 902.96 308.20 L 913.64 290.89 L 924.32 264.74 L 935.00 247.28" fill="none" stroke="#69a7ff" stroke-width="4" stroke-linecap="round" stroke-linejoin="round"/>
<circle cx="935.00" cy="247.28" r="6" fill="#69a7ff"/>
</svg>