<svg xmlns="http://www.w3.org/2000/svg" width="960" height="430" viewBox="0 0 960 430">
<rect width="100%" height="100%" fill="#0b1020" rx="20"/>
<text x="70" y="32" fill="#f5f7fb" font-size="24" font-family="Inter, Arial, sans-serif" font-weight="700">Composite score history</text>
<text x="70" y="52" fill="#93a4c3" font-size="13" font-family="Inter, Arial, sans-serif">Trailing 90 sessions through 2025-12-05</text>
<line x1="70" x2="935" y1="375.00" y2="375.00" stroke="#27314e" stroke-width="1"/>
<text x="58" y="379.00" text-anchor="end" fill="#93a4c3" font-size="12" font-family="Inter, Arial, sans-serif">0</text>
<line x1="70" x2="935" y1="312.00" y2="312.00" stroke="#27314e" stroke-width="1"/>
<text x="58" y="316.00" text-anchor="end" fill="#93a4c3" font-size="12" font-family="Inter, Arial, sans-serif">8</text>
<line x1="70" x2="935" y1="249.00" y2="249.00" stroke="#27314e" stroke-width="1"/>
<text x="58" y="253.00" text-anchor="end" fill="#93a4c3" font-size="12" font-family="Inter, Arial, sans-serif">17</text>
<line x1="70" x2="935" y1="186.00" y2="186.00" stroke="#27314e" stroke-width="1"/>
<text x="58" y="190.00" text-anchor="end" fill="#93a4c3" font-size="12" font-family="Inter, Arial, sans-serif">25</text>
<line x1="70" x2="935" y1="123.00" y2="123.00" stroke="#27314e" stroke-width="1"/>
<text x="58" y="127.00" text-anchor="end" fill="#93a4c3" font-size="12" font-family="Inter, Arial, sans-serif">33</text>
<line x1="70" x2="935" y1="60.00" y2="60.00" stroke="#27314e" stroke-width="1"/>
<text x="58" y="64.00" text-anchor="end" fill="#93a4c3" font-size="12" font-family="Inter, Arial, sans-serif">41</text>
<text x="70.00" y="412" text-anchor="middle" fill="#93a4c3" font-size="12" font-family="Inter, Arial, sans-serif">2025-07-29</text>
<text x="507.36" y="412" text-anchor="middle" fill="#93a4c3" font-size="12" font-family="Inter, Arial, sans-serif">2025-10-01</text>
<text x="935.00" y="412" text-anchor="middle" fill="#93a4c3" font-size="12" font-family="Inter, Arial, sans-serif">2025-12-05</text>
<path d="M 70.00 258.87 L 79.72 218.99 L 89.44 214.18 L 99.16 118.94 L 108.88 207.47 L 118.60 201.30 L 128.31 246.59 L 138.03 265.20 L 147.75 259.86 L 157.47 231.80 L 167.19 310.11 L 176.91 307.29 L 186.63 296.69 L 196.35 288.91 L 206.07 290.05 L 215.79 236.07 L 225.51 198.55 L 235.22 168.13 L 244.94 254.83 L 254.66 233.17 L 264.38 245.90 L 274.10 258.71 L 283.82 293.71 L 293.54 259.71 L 303.26 225.47 L 312.98 243.31 L 322.70 278.39 L 332.42 265.27 L 342.13 295.39 L 351.85 309.58 L 361.57 305.99 L 371.29 310.95 L 381.01 297.45 L 390.73 295.09 L 400.45 293.87 L 410.17 287.46 L 419.89 253.38 L 429.61 288.22 L 439.33 266.64 L 449.04 279.46 L 458.76 266.03 L 468.48 222.49 L 478.20 245.75 L 487.92 247.43 L 497.64 259.32 L 507.36 297.76 L 517.08 309.80 L 526.80 286.01 L 536.52 296.54 L 546.24 271.60 L 555.96 278.85 L 565.67 256.96 L 575.39 123.98 L 585.11 175.75 L 594.83 212.66 L 604.55 109.03 L 614.27 196.19 L 623.99 336.57 L 633.71 309.88 L 643.43 285.33 L 653.15 232.33 L 662.87 267.94 L 672.58 285.48 L 682.30 299.36 L 692.02 266.80 L 701.74 256.12 L 711.46 236.53 L 721.18 192.98 L 730.90 135.80 L 740.62 183.68 L 750.34 184.67 L 760.06 190.93 L 769.78 255.59 L 779.49 294.63 L 789.21 209.53 L 798.93 237.06 L 808.65 167.36 L 818.37 60.00 L 828.09 70.45 L 837.81 66.18 L 847.53 146.17 L 857.25 277.24 L 866.97 326.96 L 876.69 337.79 L 886.40 375.00 L 896.12 333.06 L 905.84 308.20 L 915.56 290.89 L 925.28 264.74 L 935.00 247.28" fill="none" stroke="#69a7ff" stroke-width="4" stroke-linecap="round" stroke-linejoin="round"/>
<circle cx="935.00" cy="247.28" r="6" fill="#69a7ff"/>
</svg>