<svg xmlns="http://www.w3.org/2000/svg" width="960" height="430" viewBox="0 0 960 430" role="img" aria-label="Composite score history">
<rect width="100%" height="100%" fill="#0b1020" rx="20"/>
<text x="70" y="32" fill="#f5f7fb" font-family="Inter, Arial, sans-serif" font-size="24" font-weight="700">Composite score history</text>
<text x="70" y="52" fill="#93a4c3" font-family="Inter, Arial, sans-serif" font-size="13">Trailing 83 sessions through 2025-12-12</text>
<line x1="70" x2="935" y1="375.00" y2="375.00" stroke="#27314e" stroke-width="1"/>
<text x="58" y="379.00" text-anchor="end" fill="#93a4c3" font-family="Inter, Arial, sans-serif" font-size="12">0</text>
<line x1="70" x2="935" y1="312.00" y2="312.00" stroke="#27314e" stroke-width="1"/>
<text x="58" y="316.00" text-anchor="end" fill="#93a4c3" font-family="Inter, Arial, sans-serif" font-size="12">8</text>
<line x1="70" x2="935" y1="249.00" y2="249.00" stroke="#27314e" stroke-width="1"/>
<text x="58" y="253.00" text-anchor="end" fill="#93a4c3" font-family="Inter, Arial, sans-serif" font-size="12">17</text>
<line x1="70" x2="935" y1="186.00" y2="186.00" stroke="#27314e" stroke-width="1"/>
<text x="58" y="190.00" text-anchor="end" fill="#93a4c3" font-family="Inter, Arial, sans-serif" font-size="12">25</text>
<line x1="70" x2="935" y1="123.00" y2="123.00" stroke="#27314e" stroke-width="1"/>
<text x="58" y="127.00" text-anchor="end" fill="#93a4c3" font-family="Inter, Arial, sans-serif" font-size="12">33</text>
<line x1="70" x2="935" y1="60.00" y2="60.00" stroke="#27314e" stroke-width="1"/>
<text x="58" y="64.00" text-anchor="end" fill="#93a4c3" font-family="Inter, Arial, sans-serif" font-size="12">41</text>
<text x="70.00" y="412" text-anchor="middle" fill="#93a4c3" font-family="Inter, Arial, sans-serif" font-size="12">2025-08-14</text>
<text x="502.50" y="412" text-anchor="middle" fill="#93a4c3" font-family="Inter, Arial, sans-serif" font-size="12">2025-10-14</text>
<text x="935.00" y="412" text-anchor="middle" fill="#93a4c3" font-family="Inter, Arial, sans-serif" font-size="12">2025-12-12</text>
<path d="M 70.00 271.75 L 80.55 254.98 L 91.10 248.73 L 101.65 229.51 L 112.20 221.20 L 122.74 168.13 L 133.29 254.83 L 143.84 233.17 L 154.39 245.90 L 164.94 258.71 L 175.49 293.71 L 186.04 259.71 L 196.59 225.47 L 207.13 243.31 L 217.68 278.39 L 228.23 265.27 L 238.78 295.39 L 249.33 309.58 L 259.88 305.99 L 270.43 310.95 L 280.98 297.45 L 291.52 295.09 L 302.07 293.87 L 312.62 287.46 L 323.17 253.38 L 333.72 288.22 L 344.27 266.64 L 354.82 279.46 L 365.37 266.03 L 375.91 222.49 L 386.46 245.75 L 397.01 247.43 L 407.56 259.32 L 418.11 297.76 L 428.66 309.80 L 439.21 286.01 L 449.76 296.54 L 460.30 271.60 L 470.85 278.85 L 481.40 256.96 L 491.95 123.98 L 502.50 175.75 L 513.05 212.66 L 523.60 109.03 L 534.15 196.19 L 544.70 336.57 L 555.24 309.88 L 565.79 285.33 L 576.34 232.33 L 586.89 267.94 L 597.44 285.48 L 607.99 299.36 L 618.54 266.80 L 629.09 256.12 L 639.63 236.53 L 650.18 192.98 L 660.73 135.80 L 671.28 183.68 L 681.83 184.67 L 692.38 190.93 L 702.93 255.59 L 713.48 294.63 L 724.02 209.53 L 734.57 237.06 L 745.12 167.36 L 755.67 60.00 L 766.22 70.45 L 776.77 66.18 L 787.32 146.17 L 797.87 277.24 L 808.41 326.96 L 818.96 337.79 L 829.51 375.00 L 840.06 333.06 L 850.61 308.20 L 861.16 290.89 L 871.71 264.74 L 882.26 247.28 L 892.80 278.92 L 903.35 241.33 L 913.90 272.67 L 924.45 307.67 L 935.00 264.05" fill="none" stroke="#69a7ff" stroke-width="4" stroke-linecap="round" stroke-linejoin="round"/>
<circle cx="935.00" cy="264.05" r="6" fill="#69a7ff"/>
</svg>