<svg xmlns="http://www.w3.org/2000/svg" width="960" height="430" viewBox="0 0 960 430" role="img" aria-label="Composite score history">
<rect width="100%" height="100%" fill="#0b1020" rx="20"/>
<text x="70" y="32" fill="#f5f7fb" font-family="Inter, Arial, sans-serif" font-size="24" font-weight="700">Composite score history</text>
<text x="70" y="52" fill="#93a4c3" font-family="Inter, Arial, sans-serif" font-size="13">Trailing 75 sessions through 2025-12-12</text>
<line x1="70" x2="935" y1="375.00" y2="375.00" stroke="#27314e" stroke-width="1"/>
<text x="58" y="379.00" text-anchor="end" fill="#93a4c3" font-family="Inter, Arial, sans-serif" font-size="12">0</text>
<line x1="70" x2="935" y1="312.00" y2="312.00" stroke="#27314e" stroke-width="1"/>
<text x="58" y="316.00" text-anchor="end" fill="#93a4c3" font-family="Inter, Arial, sans-serif" font-size="12">8</text>
<line x1="70" x2="935" y1="249.00" y2="249.00" stroke="#27314e" stroke-width="1"/>
<text x="58" y="253.00" text-anchor="end" fill="#93a4c3" font-family="Inter, Arial, sans-serif" font-size="12">17</text>
<line x1="70" x2="935" y1="186.00" y2="186.00" stroke="#27314e" stroke-width="1"/>
<text x="58" y="190.00" text-anchor="end" fill="#93a4c3" font-family="Inter, Arial, sans-serif" font-size="12">25</text>
<line x1="70" x2="935" y1="123.00" y2="123.00" stroke="#27314e" stroke-width="1"/>
<text x="58" y="127.00" text-anchor="end" fill="#93a4c3" font-family="Inter, Arial, sans-serif" font-size="12">33</text>
<line x1="70" x2="935" y1="60.00" y2="60.00" stroke="#27314e" stroke-width="1"/>
<text x="58" y="64.00" text-anchor="end" fill="#93a4c3" font-family="Inter, Arial, sans-serif" font-size="12">41</text>
<text x="70.00" y="412" text-anchor="middle" fill="#93a4c3" font-family="Inter, Arial, sans-serif" font-size="12">2025-08-26</text>
<text x="502.50" y="412" text-anchor="middle" fill="#93a4c3" font-family="Inter, Arial, sans-serif" font-size="12">2025-10-20</text>
<text x="935.00" y="412" text-anchor="middle" fill="#93a4c3" font-family="Inter, Arial, sans-serif" font-size="12">2025-12-12</text>
<path d="M 70.00 271.60 L 81.69 274.19 L 93.38 280.90 L 105.07 263.14 L 116.76 193.37 L 128.45 243.31 L 140.14 278.39 L 151.82 265.27 L 163.51 295.39 L 175.20 309.58 L 186.89 305.99 L 198.58 310.95 L 210.27 297.45 L 221.96 295.09 L 233.65 293.87 L 245.34 287.46 L 257.03 253.38 L 268.72 288.22 L 280.41 266.64 L 292.09 279.46 L 303.78 266.03 L 315.47 222.49 L 327.16 245.75 L 338.85 247.43 L 350.54 259.32 L 362.23 297.76 L 373.92 309.80 L 385.61 286.01 L 397.30 296.54 L 408.99 271.60 L 420.68 278.85 L 432.36 256.96 L 444.05 123.98 L 455.74 175.75 L 467.43 212.66 L 479.12 109.03 L 490.81 196.19 L 502.50 336.57 L 514.19 309.88 L 525.88 285.33 L 537.57 232.33 L 549.26 267.94 L 560.95 285.48 L 572.64 299.36 L 584.32 266.80 L 596.01 256.12 L 607.70 236.53 L 619.39 192.98 L 631.08 135.80 L 642.77 183.68 L 654.46 184.67 L 666.15 190.93 L 677.84 255.59 L 689.53 294.63 L 701.22 209.53 L 712.91 237.06 L 724.59 167.36 L 736.28 60.00 L 747.97 70.45 L 759.66 66.18 L 771.35 146.17 L 783.04 277.24 L 794.73 326.96 L 806.42 337.79 L 818.11 375.00 L 829.80 333.06 L 841.49 308.20 L 853.18 290.89 L 864.86 264.74 L 876.55 247.28 L 888.24 278.92 L 899.93 241.33 L 911.62 272.67 L 923.31 307.67 L 935.00 264.05" fill="none" stroke="#69a7ff" stroke-width="4" stroke-linecap="round" stroke-linejoin="round"/>
<circle cx="935.00" cy="264.05" r="6" fill="#69a7ff"/>
</svg>