<svg xmlns="http://www.w3.org/2000/svg" width="960" height="430" viewBox="0 0 960 430" role="img" aria-label="Composite score history">
<rect width="100%" height="100%" fill="#0b1020" rx="20"/>
<text x="70" y="32" fill="#f5f7fb" font-family="Inter, Arial, sans-serif" font-size="24" font-weight="700">Composite score history</text>
<text x="70" y="52" fill="#93a4c3" font-family="Inter, Arial, sans-serif" font-size="13">Trailing 66 sessions through 2025-12-12</text>
<line x1="70" x2="935" y1="375.00" y2="375.00" stroke="#27314e" stroke-width="1"/>
<text x="58" y="379.00" text-anchor="end" fill="#93a4c3" font-family="Inter, Arial, sans-serif" font-size="12">0</text>
<line x1="70" x2="935" y1="312.00" y2="312.00" stroke="#27314e" stroke-width="1"/>
<text x="58" y="316.00" text-anchor="end" fill="#93a4c3" font-family="Inter, Arial, sans-serif" font-size="12">8</text>
<line x1="70" x2="935" y1="249.00" y2="249.00" stroke="#27314e" stroke-width="1"/>
<text x="58" y="253.00" text-anchor="end" fill="#93a4c3" font-family="Inter, Arial, sans-serif" font-size="12">17</text>
<line x1="70" x2="935" y1="186.00" y2="186.00" stroke="#27314e" stroke-width="1"/>
<text x="58" y="190.00" text-anchor="end" fill="#93a4c3" font-family="Inter, Arial, sans-serif" font-size="12">25</text>
<line x1="70" x2="935" y1="123.00" y2="123.00" stroke="#27314e" stroke-width="1"/>
<text x="58" y="127.00" text-anchor="end" fill="#93a4c3" font-family="Inter, Arial, sans-serif" font-size="12">33</text>
<line x1="70" x2="935" y1="60.00" y2="60.00" stroke="#27314e" stroke-width="1"/>
<text x="58" y="64.00" text-anchor="end" fill="#93a4c3" font-family="Inter, Arial, sans-serif" font-size="12">41</text>
<text x="70.00" y="412" text-anchor="middle" fill="#93a4c3" font-family="Inter, Arial, sans-serif" font-size="12">2025-09-09</text>
<text x="509.15" y="412" text-anchor="middle" fill="#93a4c3" font-family="Inter, Arial, sans-serif" font-size="12">2025-10-27</text>
<text x="935.00" y="412" text-anchor="middle" fill="#93a4c3" font-family="Inter, Arial, sans-serif" font-size="12">2025-12-12</text>
<path d="M 70.00 280.75 L 83.31 284.72 L 96.62 307.82 L 109.92 297.37 L 123.23 304.62 L 136.54 293.87 L 149.85 287.46 L 163.15 253.38 L 176.46 288.22 L 189.77 266.64 L 203.08 279.46 L 216.38 266.03 L 229.69 222.49 L 243.00 245.75 L 256.31 247.43 L 269.62 259.32 L 282.92 297.76 L 296.23 309.80 L 309.54 286.01 L 322.85 296.54 L 336.15 271.60 L 349.46 278.85 L 362.77 256.96 L 376.08 123.98 L 389.38 175.75 L 402.69 212.66 L 416.00 109.03 L 429.31 196.19 L 442.62 336.57 L 455.92 309.88 L 469.23 285.33 L 482.54 232.33 L 495.85 267.94 L 509.15 285.48 L 522.46 299.36 L 535.77 266.80 L 549.08 256.12 L 562.38 236.53 L 575.69 192.98 L 589.00 135.80 L 602.31 183.68 L 615.62 184.67 L 628.92 190.93 L 642.23 255.59 L 655.54 294.63 L 668.85 209.53 L 682.15 237.06 L 695.46 167.36 L 708.77 60.00 L 722.08 70.45 L 735.38 66.18 L 748.69 146.17 L 762.00 277.24 L 775.31 326.96 L 788.62 337.79 L 801.92 375.00 L 815.23 333.06 L 828.54 308.20 L 841.85 290.89 L 855.15 264.74 L 868.46 247.28 L 881.77 278.92 L 895.08 241.33 L 908.38 272.67 L 921.69 307.67 L 935.00 264.05" fill="none" stroke="#69a7ff" stroke-width="4" stroke-linecap="round" stroke-linejoin="round"/>
<circle cx="935.00" cy="264.05" r="6" fill="#69a7ff"/>
</svg>