<svg xmlns="http://www.w3.org/2000/svg" width="960" height="430" viewBox="0 0 960 430" role="img" aria-label="Composite score history">
<rect width="100%" height="100%" fill="#0b1020" rx="20"/>
<text x="70" y="32" fill="#f5f7fb" font-family="Inter, Arial, sans-serif" font-size="24" font-weight="700">Composite score history</text>
<text x="70" y="52" fill="#93a4c3" font-family="Inter, Arial, sans-serif" font-size="13">Trailing 90 sessions through 2026-03-26</text>
<line x1="70" x2="935" y1="375.00" y2="375.00" stroke="#27314e" stroke-width="1"/>
<text x="58" y="379.00" text-anchor="end" fill="#93a4c3" font-family="Inter, Arial, sans-serif" font-size="12">0</text>
<line x1="70" x2="935" y1="312.00" y2="312.00" stroke="#27314e" stroke-width="1"/>
<text x="58" y="316.00" text-anchor="end" fill="#93a4c3" font-family="Inter, Arial, sans-serif" font-size="12">12</text>
<line x1="70" x2="935" y1="249.00" y2="249.00" stroke="#27314e" stroke-width="1"/>
<text x="58" y="253.00" text-anchor="end" fill="#93a4c3" font-family="Inter, Arial, sans-serif" font-size="12">24</text>
<line x1="70" x2="935" y1="186.00" y2="186.00" stroke="#27314e" stroke-width="1"/>
<text x="58" y="190.00" text-anchor="end" fill="#93a4c3" font-family="Inter, Arial, sans-serif" font-size="12">36</text>
<line x1="70" x2="935" y1="123.00" y2="123.00" stroke="#27314e" stroke-width="1"/>
<text x="58" y="127.00" text-anchor="end" fill="#93a4c3" font-family="Inter, Arial, sans-serif" font-size="12">48</text>
<line x1="70" x2="935" y1="60.00" y2="60.00" stroke="#27314e" stroke-width="1"/>
<text x="58" y="64.00" text-anchor="end" fill="#93a4c3" font-family="Inter, Arial, sans-serif" font-size="12">60</text>
<text x="70.00" y="412" text-anchor="middle" fill="#93a4c3" font-family="Inter, Arial, sans-serif" font-size="12">2025-11-14</text>
<text x="507.36" y="412" text-anchor="middle" fill="#93a4c3" font-family="Inter, Arial, sans-serif" font-size="12">2026-01-22</text>
<text x="935.00" y="412" text-anchor="middle" fill="#93a4c3" font-family="Inter, Arial, sans-serif" font-size="12">2026-03-26</text>
<path d="M 70.00 279.65 L 79.72 231.47 L 89.44 157.25 L 99.16 164.47 L 108.88 161.52 L 118.60 216.81 L 128.31 307.42 L 138.03 341.79 L 147.75 349.28 L 157.47 375.00 L 167.19 346.01 L 176.91 328.83 L 186.63 316.86 L 196.35 298.78 L 206.07 286.71 L 215.79 308.58 L 225.51 282.60 L 235.22 304.26 L 244.94 328.46 L 254.66 298.31 L 264.38 304.58 L 274.10 304.89 L 283.82 242.33 L 293.54 260.56 L 303.26 326.45 L 312.98 343.43 L 322.70 352.33 L 332.42 374.89 L 342.13 365.20 L 351.85 345.90 L 361.57 330.14 L 371.29 291.61 L 381.01 282.65 L 390.73 288.77 L 400.45 305.84 L 410.17 303.37 L 419.89 314.17 L 429.61 316.17 L 439.33 293.03 L 449.04 277.59 L 458.76 279.65 L 468.48 285.97 L 478.20 262.25 L 487.92 173.96 L 497.64 235.21 L 507.36 263.78 L 517.08 254.13 L 526.80 287.82 L 536.52 318.55 L 546.24 296.88 L 555.96 273.80 L 565.67 272.32 L 575.39 279.91 L 585.11 233.63 L 594.83 235.95 L 604.55 192.67 L 614.27 290.66 L 623.99 287.66 L 633.71 303.37 L 643.43 306.58 L 653.15 294.19 L 662.87 242.70 L 672.58 235.32 L 682.30 257.72 L 692.02 248.49 L 701.74 308.37 L 711.46 284.07 L 721.18 304.37 L 730.90 314.59 L 740.62 308.69 L 750.34 283.02 L 760.06 266.36 L 769.78 193.67 L 779.49 208.43 L 789.21 159.68 L 798.93 60.00 L 808.65 158.73 L 818.37 209.80 L 828.09 153.72 L 837.81 86.99 L 847.53 148.98 L 857.25 191.04 L 866.97 188.19 L 876.69 134.22 L 886.40 218.19 L 896.12 148.13 L 905.84 155.93 L 915.56 108.23 L 925.28 220.61 L 935.00 130.95" fill="none" stroke="#69a7ff" stroke-width="4" stroke-linecap="round" stroke-linejoin="round"/>
<circle cx="935.00" cy="130.95" r="6" fill="#69a7ff"/>
</svg>