<svg xmlns="http://www.w3.org/2000/svg" width="960" height="430" viewBox="0 0 960 430" role="img" aria-label="Composite score history">
<rect width="100%" height="100%" fill="#0b1020" rx="20"/>
<text x="70" y="32" fill="#f5f7fb" font-family="Inter, Arial, sans-serif" font-size="24" font-weight="700">Composite score history</text>
<text x="70" y="52" fill="#93a4c3" font-family="Inter, Arial, sans-serif" font-size="13">Trailing 90 sessions through 2026-03-26</text>
<line x1="70" x2="935" y1="375.00" y2="375.00" stroke="#27314e" stroke-width="1"/>
<text x="58" y="379.00" text-anchor="end" fill="#93a4c3" font-family="Inter, Arial, sans-serif" font-size="12">8</text>
<line x1="70" x2="935" y1="312.00" y2="312.00" stroke="#27314e" stroke-width="1"/>
<text x="58" y="316.00" text-anchor="end" fill="#93a4c3" font-family="Inter, Arial, sans-serif" font-size="12">18</text>
<line x1="70" x2="935" y1="249.00" y2="249.00" stroke="#27314e" stroke-width="1"/>
<text x="58" y="253.00" text-anchor="end" fill="#93a4c3" font-family="Inter, Arial, sans-serif" font-size="12">28</text>
<line x1="70" x2="935" y1="186.00" y2="186.00" stroke="#27314e" stroke-width="1"/>
<text x="58" y="190.00" text-anchor="end" fill="#93a4c3" font-family="Inter, Arial, sans-serif" font-size="12">39</text>
<line x1="70" x2="935" y1="123.00" y2="123.00" stroke="#27314e" stroke-width="1"/>
<text x="58" y="127.00" text-anchor="end" fill="#93a4c3" font-family="Inter, Arial, sans-serif" font-size="12">49</text>
<line x1="70" x2="935" y1="60.00" y2="60.00" stroke="#27314e" stroke-width="1"/>
<text x="58" y="64.00" text-anchor="end" fill="#93a4c3" font-family="Inter, Arial, sans-serif" font-size="12">60</text>
<text x="70.00" y="412" text-anchor="middle" fill="#93a4c3" font-family="Inter, Arial, sans-serif" font-size="12">2025-11-14</text>
<text x="507.36" y="412" text-anchor="middle" fill="#93a4c3" font-family="Inter, Arial, sans-serif" font-size="12">2026-01-22</text>
<text x="935.00" y="412" text-anchor="middle" fill="#93a4c3" font-family="Inter, Arial, sans-serif" font-size="12">2026-03-26</text>
<path d="M 70.00 308.47 L 79.72 256.38 L 89.44 171.38 L 99.16 179.65 L 108.88 176.27 L 118.60 239.59 L 128.31 335.94 L 138.03 348.86 L 147.75 352.54 L 157.47 355.62 L 167.19 339.62 L 176.91 339.93 L 186.63 335.52 L 196.35 323.63 L 206.07 314.93 L 215.79 337.21 L 225.51 312.46 L 235.22 331.60 L 244.94 357.80 L 254.66 332.92 L 264.38 340.11 L 274.10 340.47 L 283.82 268.75 L 293.54 289.70 L 303.26 363.65 L 312.98 370.83 L 322.70 370.53 L 332.42 373.37 L 342.13 375.00 L 351.85 371.74 L 361.57 365.46 L 371.29 325.26 L 381.01 314.99 L 390.73 322.00 L 400.45 332.98 L 410.17 333.29 L 419.89 334.37 L 429.61 329.60 L 439.33 310.41 L 449.04 305.09 L 458.76 310.29 L 468.48 313.79 L 478.20 291.63 L 487.92 190.52 L 497.64 260.66 L 507.36 293.38 L 517.08 282.34 L 526.80 318.68 L 536.52 315.78 L 546.24 308.84 L 555.96 292.72 L 565.67 298.09 L 575.39 306.18 L 585.11 258.85 L 594.83 261.51 L 604.55 211.95 L 614.27 324.17 L 623.99 320.73 L 633.71 333.47 L 643.43 329.48 L 653.15 320.61 L 662.87 269.17 L 672.58 260.78 L 682.30 286.44 L 692.02 275.88 L 701.74 327.49 L 711.46 316.26 L 721.18 329.54 L 730.90 337.39 L 740.62 334.49 L 750.34 315.42 L 760.06 286.62 L 769.78 213.09 L 779.49 230.06 L 789.21 174.22 L 798.93 60.00 L 808.65 173.07 L 818.37 231.57 L 828.09 167.33 L 837.81 90.91 L 847.53 161.90 L 857.25 210.07 L 866.97 206.81 L 876.69 145.00 L 886.40 241.16 L 896.12 160.94 L 905.84 169.87 L 915.56 115.24 L 925.28 243.94 L 935.00 141.26" fill="none" stroke="#69a7ff" stroke-width="4" stroke-linecap="round" stroke-linejoin="round"/>
<circle cx="935.00" cy="141.26" r="6" fill="#69a7ff"/>
<text x="927.00" y="129.26" text-anchor="end" fill="#f5f7fb" font-family="Inter, Arial, sans-serif" font-size="12" font-weight="600">46.30</text>
</svg>