<svg xmlns="http://www.w3.org/2000/svg" width="960" height="430" viewBox="0 0 960 430" role="img" aria-label="Composite score history">
<rect width="100%" height="100%" fill="#0b1020" rx="20"/>
<text x="70" y="32" fill="#f5f7fb" font-family="Inter, Arial, sans-serif" font-size="24" font-weight="700">Composite score history</text>
<text x="70" y="52" fill="#93a4c3" font-family="Inter, Arial, sans-serif" font-size="13">Trailing 89 sessions through 2026-02-11</text>
<line x1="70" x2="935" y1="375.00" y2="375.00" stroke="#27314e" stroke-width="1"/>
<text x="58" y="379.00" text-anchor="end" fill="#93a4c3" font-family="Inter, Arial, sans-serif" font-size="12">0</text>
<line x1="70" x2="935" y1="312.00" y2="312.00" stroke="#27314e" stroke-width="1"/>
<text x="58" y="316.00" text-anchor="end" fill="#93a4c3" font-family="Inter, Arial, sans-serif" font-size="12">8</text>
<line x1="70" x2="935" y1="249.00" y2="249.00" stroke="#27314e" stroke-width="1"/>
<text x="58" y="253.00" text-anchor="end" fill="#93a4c3" font-family="Inter, Arial, sans-serif" font-size="12">17</text>
<line x1="70" x2="935" y1="186.00" y2="186.00" stroke="#27314e" stroke-width="1"/>
<text x="58" y="190.00" text-anchor="end" fill="#93a4c3" font-family="Inter, Arial, sans-serif" font-size="12">25</text>
<line x1="70" x2="935" y1="123.00" y2="123.00" stroke="#27314e" stroke-width="1"/>
<text x="58" y="127.00" text-anchor="end" fill="#93a4c3" font-family="Inter, Arial, sans-serif" font-size="12">33</text>
<line x1="70" x2="935" y1="60.00" y2="60.00" stroke="#27314e" stroke-width="1"/>
<text x="58" y="64.00" text-anchor="end" fill="#93a4c3" font-family="Inter, Arial, sans-serif" font-size="12">41</text>
<text x="70.00" y="412" text-anchor="middle" fill="#93a4c3" font-family="Inter, Arial, sans-serif" font-size="12">2025-10-02</text>
<text x="502.50" y="412" text-anchor="middle" fill="#93a4c3" font-family="Inter, Arial, sans-serif" font-size="12">2025-12-08</text>
<text x="935.00" y="412" text-anchor="middle" fill="#93a4c3" font-family="Inter, Arial, sans-serif" font-size="12">2026-02-11</text>
<path d="M 70.00 277.85 L 79.83 262.07 L 89.66 263.67 L 99.49 252.46 L 109.32 270.08 L 119.15 256.96 L 128.98 123.98 L 138.81 175.75 L 148.64 212.66 L 158.47 109.03 L 168.30 196.19 L 178.12 336.57 L 187.95 309.88 L 197.78 285.33 L 207.61 232.33 L 217.44 267.94 L 227.27 285.48 L 237.10 299.36 L 246.93 266.80 L 256.76 256.12 L 266.59 236.53 L 276.42 192.98 L 286.25 135.80 L 296.08 183.68 L 305.91 184.67 L 315.74 190.93 L 325.57 255.59 L 335.40 294.63 L 345.23 209.53 L 355.06 237.06 L 364.89 167.36 L 374.72 60.00 L 384.55 70.45 L 394.38 66.18 L 404.20 146.17 L 414.03 277.24 L 423.86 326.96 L 433.69 337.79 L 443.52 375.00 L 453.35 333.06 L 463.18 308.20 L 473.01 290.89 L 482.84 264.74 L 492.67 247.28 L 502.50 278.92 L 512.33 241.33 L 522.16 272.67 L 531.99 307.67 L 541.82 264.05 L 551.65 273.13 L 561.48 273.58 L 571.31 183.07 L 581.14 209.46 L 590.97 304.77 L 600.80 329.32 L 610.62 342.21 L 620.45 374.85 L 630.28 360.82 L 640.11 332.91 L 649.94 310.11 L 659.77 254.37 L 669.60 241.41 L 679.43 250.25 L 689.26 274.96 L 699.09 271.37 L 708.92 287.00 L 718.75 289.90 L 728.58 256.43 L 738.41 234.08 L 748.24 237.06 L 758.07 246.21 L 767.90 211.90 L 777.73 84.17 L 787.56 172.78 L 797.39 214.11 L 807.22 200.15 L 817.05 248.88 L 826.88 293.33 L 836.70 261.99 L 846.53 228.59 L 856.36 226.46 L 866.19 237.44 L 876.02 170.49 L 885.85 173.85 L 895.68 111.24 L 905.51 253.00 L 915.34 248.65 L 925.17 271.37 L 935.00 276.02" fill="none" stroke="#69a7ff" stroke-width="4" stroke-linecap="round" stroke-linejoin="round"/>
<circle cx="935.00" cy="276.02" r="6" fill="#69a7ff"/>
</svg>