<svg xmlns="http://www.w3.org/2000/svg" width="960" height="430" viewBox="0 0 960 430" role="img" aria-label="Composite score history">
<rect width="100%" height="100%" fill="#0b1020" rx="20"/>
<text x="70" y="32" fill="#f5f7fb" font-family="Inter, Arial, sans-serif" font-size="24" font-weight="700">Composite score history</text>
<text x="70" y="52" fill="#93a4c3" font-family="Inter, Arial, sans-serif" font-size="13">Trailing 75 sessions through 2026-02-11</text>
<line x1="70" x2="935" y1="375.00" y2="375.00" stroke="#27314e" stroke-width="1"/>
<text x="58" y="379.00" text-anchor="end" fill="#93a4c3" font-family="Inter, Arial, sans-serif" font-size="12">0</text>
<line x1="70" x2="935" y1="312.00" y2="312.00" stroke="#27314e" stroke-width="1"/>
<text x="58" y="316.00" text-anchor="end" fill="#93a4c3" font-family="Inter, Arial, sans-serif" font-size="12">8</text>
<line x1="70" x2="935" y1="249.00" y2="249.00" stroke="#27314e" stroke-width="1"/>
<text x="58" y="253.00" text-anchor="end" fill="#93a4c3" font-family="Inter, Arial, sans-serif" font-size="12">17</text>
<line x1="70" x2="935" y1="186.00" y2="186.00" stroke="#27314e" stroke-width="1"/>
<text x="58" y="190.00" text-anchor="end" fill="#93a4c3" font-family="Inter, Arial, sans-serif" font-size="12">25</text>
<line x1="70" x2="935" y1="123.00" y2="123.00" stroke="#27314e" stroke-width="1"/>
<text x="58" y="127.00" text-anchor="end" fill="#93a4c3" font-family="Inter, Arial, sans-serif" font-size="12">33</text>
<line x1="70" x2="935" y1="60.00" y2="60.00" stroke="#27314e" stroke-width="1"/>
<text x="58" y="64.00" text-anchor="end" fill="#93a4c3" font-family="Inter, Arial, sans-serif" font-size="12">41</text>
<text x="70.00" y="412" text-anchor="middle" fill="#93a4c3" font-family="Inter, Arial, sans-serif" font-size="12">2025-10-23</text>
<text x="502.50" y="412" text-anchor="middle" fill="#93a4c3" font-family="Inter, Arial, sans-serif" font-size="12">2025-12-17</text>
<text x="935.00" y="412" text-anchor="middle" fill="#93a4c3" font-family="Inter, Arial, sans-serif" font-size="12">2026-02-11</text>
<path d="M 70.00 271.83 L 81.69 294.55 L 93.38 324.98 L 105.07 327.42 L 116.76 283.65 L 128.45 256.12 L 140.14 236.53 L 151.82 192.98 L 163.51 135.80 L 175.20 183.68 L 186.89 184.67 L 198.58 190.93 L 210.27 255.59 L 221.96 294.63 L 233.65 209.53 L 245.34 237.06 L 257.03 167.36 L 268.72 60.00 L 280.41 70.45 L 292.09 66.18 L 303.78 146.17 L 315.47 277.24 L 327.16 326.96 L 338.85 337.79 L 350.54 375.00 L 362.23 333.06 L 373.92 308.20 L 385.61 290.89 L 397.30 264.74 L 408.99 247.28 L 420.68 278.92 L 432.36 241.33 L 444.05 272.67 L 455.74 307.67 L 467.43 264.05 L 479.12 273.13 L 490.81 273.58 L 502.50 183.07 L 514.19 209.46 L 525.88 304.77 L 537.57 329.32 L 549.26 342.21 L 560.95 374.85 L 572.64 360.82 L 584.32 332.91 L 596.01 310.11 L 607.70 254.37 L 619.39 241.41 L 631.08 250.25 L 642.77 274.96 L 654.46 271.37 L 666.15 287.00 L 677.84 289.90 L 689.53 256.43 L 701.22 234.08 L 712.91 237.06 L 724.59 246.21 L 736.28 211.90 L 747.97 84.17 L 759.66 172.78 L 771.35 214.11 L 783.04 200.15 L 794.73 248.88 L 806.42 293.33 L 818.11 261.99 L 829.80 228.59 L 841.49 226.46 L 853.18 237.44 L 864.86 170.49 L 876.55 173.85 L 888.24 111.24 L 899.93 253.00 L 911.62 248.65 L 923.31 271.37 L 935.00 276.02" fill="none" stroke="#69a7ff" stroke-width="4" stroke-linecap="round" stroke-linejoin="round"/>
<circle cx="935.00" cy="276.02" r="6" fill="#69a7ff"/>
</svg>