<svg xmlns="http://www.w3.org/2000/svg" width="960" height="430" viewBox="0 0 960 430" role="img" aria-label="Composite score history">
<rect width="100%" height="100%" fill="#0b1020" rx="20"/>
<text x="70" y="32" fill="#f5f7fb" font-family="Inter, Arial, sans-serif" font-size="24" font-weight="700">Composite score history</text>
<text x="70" y="52" fill="#93a4c3" font-family="Inter, Arial, sans-serif" font-size="13">Trailing 73 sessions through 2026-02-11</text>
<line x1="70" x2="935" y1="375.00" y2="375.00" stroke="#27314e" stroke-width="1"/>
<text x="58" y="379.00" text-anchor="end" fill="#93a4c3" font-family="Inter, Arial, sans-serif" font-size="12">0</text>
<line x1="70" x2="935" y1="312.00" y2="312.00" stroke="#27314e" stroke-width="1"/>
<text x="58" y="316.00" text-anchor="end" fill="#93a4c3" font-family="Inter, Arial, sans-serif" font-size="12">8</text>
<line x1="70" x2="935" y1="249.00" y2="249.00" stroke="#27314e" stroke-width="1"/>
<text x="58" y="253.00" text-anchor="end" fill="#93a4c3" font-family="Inter, Arial, sans-serif" font-size="12">17</text>
<line x1="70" x2="935" y1="186.00" y2="186.00" stroke="#27314e" stroke-width="1"/>
<text x="58" y="190.00" text-anchor="end" fill="#93a4c3" font-family="Inter, Arial, sans-serif" font-size="12">25</text>
<line x1="70" x2="935" y1="123.00" y2="123.00" stroke="#27314e" stroke-width="1"/>
<text x="58" y="127.00" text-anchor="end" fill="#93a4c3" font-family="Inter, Arial, sans-serif" font-size="12">33</text>
<line x1="70" x2="935" y1="60.00" y2="60.00" stroke="#27314e" stroke-width="1"/>
<text x="58" y="64.00" text-anchor="end" fill="#93a4c3" font-family="Inter, Arial, sans-serif" font-size="12">41</text>
<text x="70.00" y="412" text-anchor="middle" fill="#93a4c3" font-family="Inter, Arial, sans-serif" font-size="12">2025-10-27</text>
<text x="502.50" y="412" text-anchor="middle" fill="#93a4c3" font-family="Inter, Arial, sans-serif" font-size="12">2025-12-18</text>
<text x="935.00" y="412" text-anchor="middle" fill="#93a4c3" font-family="Inter, Arial, sans-serif" font-size="12">2026-02-11</text>
<path d="M 70.00 286.32 L 82.01 284.18 L 94.03 236.83 L 106.04 191.31 L 118.06 187.95 L 130.07 192.98 L 142.08 135.80 L 154.10 183.68 L 166.11 184.67 L 178.12 190.93 L 190.14 255.59 L 202.15 294.63 L 214.17 209.53 L 226.18 237.06 L 238.19 167.36 L 250.21 60.00 L 262.22 70.45 L 274.24 66.18 L 286.25 146.17 L 298.26 277.24 L 310.28 326.96 L 322.29 337.79 L 334.31 375.00 L 346.32 333.06 L 358.33 308.20 L 370.35 290.89 L 382.36 264.74 L 394.38 247.28 L 406.39 278.92 L 418.40 241.33 L 430.42 272.67 L 442.43 307.67 L 454.44 264.05 L 466.46 273.13 L 478.47 273.58 L 490.49 183.07 L 502.50 209.46 L 514.51 304.77 L 526.53 329.32 L 538.54 342.21 L 550.56 374.85 L 562.57 360.82 L 574.58 332.91 L 586.60 310.11 L 598.61 254.37 L 610.62 241.41 L 622.64 250.25 L 634.65 274.96 L 646.67 271.37 L 658.68 287.00 L 670.69 289.90 L 682.71 256.43 L 694.72 234.08 L 706.74 237.06 L 718.75 246.21 L 730.76 211.90 L 742.78 84.17 L 754.79 172.78 L 766.81 214.11 L 778.82 200.15 L 790.83 248.88 L 802.85 293.33 L 814.86 261.99 L 826.88 228.59 L 838.89 226.46 L 850.90 237.44 L 862.92 170.49 L 874.93 173.85 L 886.94 111.24 L 898.96 253.00 L 910.97 248.65 L 922.99 271.37 L 935.00 276.02" fill="none" stroke="#69a7ff" stroke-width="4" stroke-linecap="round" stroke-linejoin="round"/>
<circle cx="935.00" cy="276.02" r="6" fill="#69a7ff"/>
</svg>