<svg xmlns="http://www.w3.org/2000/svg" width="960" height="430" viewBox="0 0 960 430" role="img" aria-label="Composite score history">
<rect width="100%" height="100%" fill="#0b1020" rx="20"/>
<text x="70" y="32" fill="#f5f7fb" font-family="Inter, Arial, sans-serif" font-size="24" font-weight="700">Composite score history</text>
<text x="70" y="52" fill="#93a4c3" font-family="Inter, Arial, sans-serif" font-size="13">Trailing 90 sessions through 2025-11-28</text>
<line x1="70" x2="935" y1="375.00" y2="375.00" stroke="#27314e" stroke-width="1"/>
<text x="58" y="379.00" text-anchor="end" fill="#93a4c3" font-family="Inter, Arial, sans-serif" font-size="12">11</text>
<line x1="70" x2="935" y1="312.00" y2="312.00" stroke="#27314e" stroke-width="1"/>
<text x="58" y="316.00" text-anchor="end" fill="#93a4c3" font-family="Inter, Arial, sans-serif" font-size="12">17</text>
<line x1="70" x2="935" y1="249.00" y2="249.00" stroke="#27314e" stroke-width="1"/>
<text x="58" y="253.00" text-anchor="end" fill="#93a4c3" font-family="Inter, Arial, sans-serif" font-size="12">23</text>
<line x1="70" x2="935" y1="186.00" y2="186.00" stroke="#27314e" stroke-width="1"/>
<text x="58" y="190.00" text-anchor="end" fill="#93a4c3" font-family="Inter, Arial, sans-serif" font-size="12">29</text>
<line x1="70" x2="935" y1="123.00" y2="123.00" stroke="#27314e" stroke-width="1"/>
<text x="58" y="127.00" text-anchor="end" fill="#93a4c3" font-family="Inter, Arial, sans-serif" font-size="12">35</text>
<line x1="70" x2="935" y1="60.00" y2="60.00" stroke="#27314e" stroke-width="1"/>
<text x="58" y="64.00" text-anchor="end" fill="#93a4c3" font-family="Inter, Arial, sans-serif" font-size="12">41</text>
<text x="70.00" y="412" text-anchor="middle" fill="#93a4c3" font-family="Inter, Arial, sans-serif" font-size="12">2025-07-22</text>
<text x="507.36" y="412" text-anchor="middle" fill="#93a4c3" font-family="Inter, Arial, sans-serif" font-size="12">2025-09-24</text>
<text x="935.00" y="412" text-anchor="middle" fill="#93a4c3" font-family="Inter, Arial, sans-serif" font-size="12">2025-11-28</text>
<path d="M 70.00 321.12 L 79.72 331.24 L 89.44 319.68 L 99.16 315.55 L 108.88 302.44 L 118.60 304.09 L 128.31 273.54 L 138.03 268.69 L 147.75 139.89 L 157.47 259.61 L 167.19 251.25 L 176.91 312.56 L 186.63 337.43 L 196.35 267.97 L 206.07 274.78 L 215.79 338.46 L 225.51 345.38 L 235.22 328.04 L 244.94 345.48 L 254.66 340.73 L 264.38 298.31 L 274.10 247.53 L 283.82 206.35 L 293.54 316.89 L 303.26 294.39 L 312.98 289.64 L 322.70 294.39 L 332.42 322.98 L 342.13 330.31 L 351.85 283.97 L 361.57 308.12 L 371.29 347.44 L 381.01 337.84 L 390.73 364.68 L 400.45 358.80 L 410.17 359.42 L 419.89 365.81 L 429.61 340.53 L 439.33 330.52 L 449.04 339.29 L 458.76 340.84 L 468.48 304.30 L 478.20 337.53 L 487.92 309.15 L 497.64 337.53 L 507.36 324.22 L 517.08 279.94 L 526.80 311.42 L 536.52 313.69 L 546.24 317.51 L 555.96 353.43 L 565.67 354.87 L 575.39 337.95 L 585.11 349.51 L 594.83 336.30 L 604.55 339.81 L 614.27 318.96 L 623.99 146.59 L 633.71 216.57 L 643.43 266.63 L 653.15 126.36 L 662.87 244.33 L 672.58 362.41 L 682.30 362.82 L 692.02 354.05 L 701.74 250.73 L 711.46 292.12 L 721.18 311.63 L 730.90 324.32 L 740.62 266.22 L 750.34 293.36 L 760.06 280.56 L 769.78 240.00 L 779.49 162.59 L 789.21 227.41 L 798.93 228.75 L 808.65 237.21 L 818.37 324.74 L 828.09 347.34 L 837.81 262.40 L 847.53 294.39 L 857.25 205.32 L 866.97 60.00 L 876.69 74.14 L 886.40 68.36 L 896.12 176.63 L 905.84 341.35 L 915.56 363.44 L 925.28 369.74 L 935.00 375.00" fill="none" stroke="#69a7ff" stroke-width="4" stroke-linecap="round" stroke-linejoin="round"/>
<circle cx="935.00" cy="375.00" r="6" fill="#69a7ff"/>
<text x="927.00" y="363.00" text-anchor="end" fill="#f5f7fb" font-family="Inter, Arial, sans-serif" font-size="12" font-weight="600">10.79</text>
</svg>