<svg xmlns="http://www.w3.org/2000/svg" width="960" height="430" viewBox="0 0 960 430" role="img" aria-label="Composite score history">
<rect width="100%" height="100%" fill="#0b1020" rx="20"/>
<text x="70" y="32" fill="#f5f7fb" font-family="Inter, Arial, sans-serif" font-size="24" font-weight="700">Composite score history</text>
<text x="70" y="52" fill="#93a4c3" font-family="Inter, Arial, sans-serif" font-size="13">Trailing 76 sessions through 2025-11-28</text>
<line x1="70" x2="935" y1="375.00" y2="375.00" stroke="#27314e" stroke-width="1"/>
<text x="58" y="379.00" text-anchor="end" fill="#93a4c3" font-family="Inter, Arial, sans-serif" font-size="12">0</text>
<line x1="70" x2="935" y1="312.00" y2="312.00" stroke="#27314e" stroke-width="1"/>
<text x="58" y="316.00" text-anchor="end" fill="#93a4c3" font-family="Inter, Arial, sans-serif" font-size="12">8</text>
<line x1="70" x2="935" y1="249.00" y2="249.00" stroke="#27314e" stroke-width="1"/>
<text x="58" y="253.00" text-anchor="end" fill="#93a4c3" font-family="Inter, Arial, sans-serif" font-size="12">17</text>
<line x1="70" x2="935" y1="186.00" y2="186.00" stroke="#27314e" stroke-width="1"/>
<text x="58" y="190.00" text-anchor="end" fill="#93a4c3" font-family="Inter, Arial, sans-serif" font-size="12">25</text>
<line x1="70" x2="935" y1="123.00" y2="123.00" stroke="#27314e" stroke-width="1"/>
<text x="58" y="127.00" text-anchor="end" fill="#93a4c3" font-family="Inter, Arial, sans-serif" font-size="12">33</text>
<line x1="70" x2="935" y1="60.00" y2="60.00" stroke="#27314e" stroke-width="1"/>
<text x="58" y="64.00" text-anchor="end" fill="#93a4c3" font-family="Inter, Arial, sans-serif" font-size="12">41</text>
<text x="70.00" y="412" text-anchor="middle" fill="#93a4c3" font-family="Inter, Arial, sans-serif" font-size="12">2025-08-11</text>
<text x="508.27" y="412" text-anchor="middle" fill="#93a4c3" font-family="Inter, Arial, sans-serif" font-size="12">2025-10-03</text>
<text x="935.00" y="412" text-anchor="middle" fill="#93a4c3" font-family="Inter, Arial, sans-serif" font-size="12">2025-11-28</text>
<path d="M 70.00 259.10 L 81.53 295.01 L 93.07 306.30 L 104.60 300.27 L 116.13 293.79 L 127.67 290.05 L 139.20 236.07 L 150.73 198.55 L 162.27 168.13 L 173.80 254.83 L 185.33 233.17 L 196.87 245.90 L 208.40 258.71 L 219.93 293.71 L 231.47 259.71 L 243.00 225.47 L 254.53 243.31 L 266.07 278.39 L 277.60 265.27 L 289.13 295.39 L 300.67 309.58 L 312.20 305.99 L 323.73 310.95 L 335.27 297.45 L 346.80 295.09 L 358.33 293.87 L 369.87 287.46 L 381.40 253.38 L 392.93 288.22 L 404.47 266.64 L 416.00 279.46 L 427.53 266.03 L 439.07 222.49 L 450.60 245.75 L 462.13 247.43 L 473.67 259.32 L 485.20 297.76 L 496.73 309.80 L 508.27 286.01 L 519.80 296.54 L 531.33 271.60 L 542.87 278.85 L 554.40 256.96 L 565.93 123.98 L 577.47 175.75 L 589.00 212.66 L 600.53 109.03 L 612.07 196.19 L 623.60 336.57 L 635.13 309.88 L 646.67 285.33 L 658.20 232.33 L 669.73 267.94 L 681.27 285.48 L 692.80 299.36 L 704.33 266.80 L 715.87 256.12 L 727.40 236.53 L 738.93 192.98 L 750.47 135.80 L 762.00 183.68 L 773.53 184.67 L 785.07 190.93 L 796.60 255.59 L 808.13 294.63 L 819.67 209.53 L 831.20 237.06 L 842.73 167.36 L 854.27 60.00 L 865.80 70.45 L 877.33 66.18 L 888.87 146.17 L 900.40 277.24 L 911.93 326.96 L 923.47 337.79 L 935.00 375.00" fill="none" stroke="#69a7ff" stroke-width="4" stroke-linecap="round" stroke-linejoin="round"/>
<circle cx="935.00" cy="375.00" r="6" fill="#69a7ff"/>
</svg>