<svg xmlns="http://www.w3.org/2000/svg" width="960" height="430" viewBox="0 0 960 430" role="img" aria-label="Composite score history">
<rect width="100%" height="100%" fill="#0b1020" rx="20"/>
<text x="70" y="32" fill="#f5f7fb" font-family="Inter, Arial, sans-serif" font-size="24" font-weight="700">Composite score history</text>
<text x="70" y="52" fill="#93a4c3" font-family="Inter, Arial, sans-serif" font-size="13">Trailing 77 sessions through 2025-11-28</text>
<line x1="70" x2="935" y1="375.00" y2="375.00" stroke="#27314e" stroke-width="1"/>
<text x="58" y="379.00" text-anchor="end" fill="#93a4c3" font-family="Inter, Arial, sans-serif" font-size="12">0</text>
<line x1="70" x2="935" y1="312.00" y2="312.00" stroke="#27314e" stroke-width="1"/>
<text x="58" y="316.00" text-anchor="end" fill="#93a4c3" font-family="Inter, Arial, sans-serif" font-size="12">8</text>
<line x1="70" x2="935" y1="249.00" y2="249.00" stroke="#27314e" stroke-width="1"/>
<text x="58" y="253.00" text-anchor="end" fill="#93a4c3" font-family="Inter, Arial, sans-serif" font-size="12">17</text>
<line x1="70" x2="935" y1="186.00" y2="186.00" stroke="#27314e" stroke-width="1"/>
<text x="58" y="190.00" text-anchor="end" fill="#93a4c3" font-family="Inter, Arial, sans-serif" font-size="12">25</text>
<line x1="70" x2="935" y1="123.00" y2="123.00" stroke="#27314e" stroke-width="1"/>
<text x="58" y="127.00" text-anchor="end" fill="#93a4c3" font-family="Inter, Arial, sans-serif" font-size="12">33</text>
<line x1="70" x2="935" y1="60.00" y2="60.00" stroke="#27314e" stroke-width="1"/>
<text x="58" y="64.00" text-anchor="end" fill="#93a4c3" font-family="Inter, Arial, sans-serif" font-size="12">41</text>
<text x="70.00" y="412" text-anchor="middle" fill="#93a4c3" font-family="Inter, Arial, sans-serif" font-size="12">2025-08-08</text>
<text x="502.50" y="412" text-anchor="middle" fill="#93a4c3" font-family="Inter, Arial, sans-serif" font-size="12">2025-10-02</text>
<text x="935.00" y="412" text-anchor="middle" fill="#93a4c3" font-family="Inter, Arial, sans-serif" font-size="12">2025-11-28</text>
<path d="M 70.00 265.42 L 81.38 241.71 L 92.76 290.21 L 104.14 301.49 L 115.53 295.39 L 126.91 288.91 L 138.29 290.05 L 149.67 236.07 L 161.05 198.55 L 172.43 168.13 L 183.82 254.83 L 195.20 233.17 L 206.58 245.90 L 217.96 258.71 L 229.34 293.71 L 240.72 259.71 L 252.11 225.47 L 263.49 243.31 L 274.87 278.39 L 286.25 265.27 L 297.63 295.39 L 309.01 309.58 L 320.39 305.99 L 331.78 310.95 L 343.16 297.45 L 354.54 295.09 L 365.92 293.87 L 377.30 287.46 L 388.68 253.38 L 400.07 288.22 L 411.45 266.64 L 422.83 279.46 L 434.21 266.03 L 445.59 222.49 L 456.97 245.75 L 468.36 247.43 L 479.74 259.32 L 491.12 297.76 L 502.50 309.80 L 513.88 286.01 L 525.26 296.54 L 536.64 271.60 L 548.03 278.85 L 559.41 256.96 L 570.79 123.98 L 582.17 175.75 L 593.55 212.66 L 604.93 109.03 L 616.32 196.19 L 627.70 336.57 L 639.08 309.88 L 650.46 285.33 L 661.84 232.33 L 673.22 267.94 L 684.61 285.48 L 695.99 299.36 L 707.37 266.80 L 718.75 256.12 L 730.13 236.53 L 741.51 192.98 L 752.89 135.80 L 764.28 183.68 L 775.66 184.67 L 787.04 190.93 L 798.42 255.59 L 809.80 294.63 L 821.18 209.53 L 832.57 237.06 L 843.95 167.36 L 855.33 60.00 L 866.71 70.45 L 878.09 66.18 L 889.47 146.17 L 900.86 277.24 L 912.24 326.96 L 923.62 337.79 L 935.00 375.00" fill="none" stroke="#69a7ff" stroke-width="4" stroke-linecap="round" stroke-linejoin="round"/>
<circle cx="935.00" cy="375.00" r="6" fill="#69a7ff"/>
</svg>