<svg xmlns="http://www.w3.org/2000/svg" width="960" height="430" viewBox="0 0 960 430" role="img" aria-label="Composite score history">
<rect width="100%" height="100%" fill="#0b1020" rx="20"/>
<text x="70" y="32" fill="#f5f7fb" font-family="Inter, Arial, sans-serif" font-size="24" font-weight="700">Composite score history</text>
<text x="70" y="52" fill="#93a4c3" font-family="Inter, Arial, sans-serif" font-size="13">Trailing 68 sessions through 2025-11-28</text>
<line x1="70" x2="935" y1="375.00" y2="375.00" stroke="#27314e" stroke-width="1"/>
<text x="58" y="379.00" text-anchor="end" fill="#93a4c3" font-family="Inter, Arial, sans-serif" font-size="12">0</text>
<line x1="70" x2="935" y1="312.00" y2="312.00" stroke="#27314e" stroke-width="1"/>
<text x="58" y="316.00" text-anchor="end" fill="#93a4c3" font-family="Inter, Arial, sans-serif" font-size="12">8</text>
<line x1="70" x2="935" y1="249.00" y2="249.00" stroke="#27314e" stroke-width="1"/>
<text x="58" y="253.00" text-anchor="end" fill="#93a4c3" font-family="Inter, Arial, sans-serif" font-size="12">17</text>
<line x1="70" x2="935" y1="186.00" y2="186.00" stroke="#27314e" stroke-width="1"/>
<text x="58" y="190.00" text-anchor="end" fill="#93a4c3" font-family="Inter, Arial, sans-serif" font-size="12">25</text>
<line x1="70" x2="935" y1="123.00" y2="123.00" stroke="#27314e" stroke-width="1"/>
<text x="58" y="127.00" text-anchor="end" fill="#93a4c3" font-family="Inter, Arial, sans-serif" font-size="12">33</text>
<line x1="70" x2="935" y1="60.00" y2="60.00" stroke="#27314e" stroke-width="1"/>
<text x="58" y="64.00" text-anchor="end" fill="#93a4c3" font-family="Inter, Arial, sans-serif" font-size="12">41</text>
<text x="70.00" y="412" text-anchor="middle" fill="#93a4c3" font-family="Inter, Arial, sans-serif" font-size="12">2025-08-21</text>
<text x="508.96" y="412" text-anchor="middle" fill="#93a4c3" font-family="Inter, Arial, sans-serif" font-size="12">2025-10-09</text>
<text x="935.00" y="412" text-anchor="middle" fill="#93a4c3" font-family="Inter, Arial, sans-serif" font-size="12">2025-11-28</text>
<path d="M 70.00 257.80 L 82.91 286.32 L 95.82 267.25 L 108.73 277.40 L 121.64 281.74 L 134.55 293.71 L 147.46 259.71 L 160.37 225.47 L 173.28 243.31 L 186.19 278.39 L 199.10 265.27 L 212.01 295.39 L 224.93 309.58 L 237.84 305.99 L 250.75 310.95 L 263.66 297.45 L 276.57 295.09 L 289.48 293.87 L 302.39 287.46 L 315.30 253.38 L 328.21 288.22 L 341.12 266.64 L 354.03 279.46 L 366.94 266.03 L 379.85 222.49 L 392.76 245.75 L 405.67 247.43 L 418.58 259.32 L 431.49 297.76 L 444.40 309.80 L 457.31 286.01 L 470.22 296.54 L 483.13 271.60 L 496.04 278.85 L 508.96 256.96 L 521.87 123.98 L 534.78 175.75 L 547.69 212.66 L 560.60 109.03 L 573.51 196.19 L 586.42 336.57 L 599.33 309.88 L 612.24 285.33 L 625.15 232.33 L 638.06 267.94 L 650.97 285.48 L 663.88 299.36 L 676.79 266.80 L 689.70 256.12 L 702.61 236.53 L 715.52 192.98 L 728.43 135.80 L 741.34 183.68 L 754.25 184.67 L 767.16 190.93 L 780.07 255.59 L 792.99 294.63 L 805.90 209.53 L 818.81 237.06 L 831.72 167.36 L 844.63 60.00 L 857.54 70.45 L 870.45 66.18 L 883.36 146.17 L 896.27 277.24 L 909.18 326.96 L 922.09 337.79 L 935.00 375.00" fill="none" stroke="#69a7ff" stroke-width="4" stroke-linecap="round" stroke-linejoin="round"/>
<circle cx="935.00" cy="375.00" r="6" fill="#69a7ff"/>
</svg>