<svg xmlns="http://www.w3.org/2000/svg" width="960" height="430" viewBox="0 0 960 430" role="img" aria-label="Composite score history">
<rect width="100%" height="100%" fill="#0b1020" rx="20"/>
<text x="70" y="32" fill="#f5f7fb" font-family="Inter, Arial, sans-serif" font-size="24" font-weight="700">Composite score history</text>
<text x="70" y="52" fill="#93a4c3" font-family="Inter, Arial, sans-serif" font-size="13">Trailing 69 sessions through 2025-11-28</text>
<line x1="70" x2="935" y1="375.00" y2="375.00" stroke="#27314e" stroke-width="1"/>
<text x="58" y="379.00" text-anchor="end" fill="#93a4c3" font-family="Inter, Arial, sans-serif" font-size="12">0</text>
<line x1="70" x2="935" y1="312.00" y2="312.00" stroke="#27314e" stroke-width="1"/>
<text x="58" y="316.00" text-anchor="end" fill="#93a4c3" font-family="Inter, Arial, sans-serif" font-size="12">8</text>
<line x1="70" x2="935" y1="249.00" y2="249.00" stroke="#27314e" stroke-width="1"/>
<text x="58" y="253.00" text-anchor="end" fill="#93a4c3" font-family="Inter, Arial, sans-serif" font-size="12">17</text>
<line x1="70" x2="935" y1="186.00" y2="186.00" stroke="#27314e" stroke-width="1"/>
<text x="58" y="190.00" text-anchor="end" fill="#93a4c3" font-family="Inter, Arial, sans-serif" font-size="12">25</text>
<line x1="70" x2="935" y1="123.00" y2="123.00" stroke="#27314e" stroke-width="1"/>
<text x="58" y="127.00" text-anchor="end" fill="#93a4c3" font-family="Inter, Arial, sans-serif" font-size="12">33</text>
<line x1="70" x2="935" y1="60.00" y2="60.00" stroke="#27314e" stroke-width="1"/>
<text x="58" y="64.00" text-anchor="end" fill="#93a4c3" font-family="Inter, Arial, sans-serif" font-size="12">41</text>
<text x="70.00" y="412" text-anchor="middle" fill="#93a4c3" font-family="Inter, Arial, sans-serif" font-size="12">2025-08-20</text>
<text x="502.50" y="412" text-anchor="middle" fill="#93a4c3" font-family="Inter, Arial, sans-serif" font-size="12">2025-10-08</text>
<text x="935.00" y="412" text-anchor="middle" fill="#93a4c3" font-family="Inter, Arial, sans-serif" font-size="12">2025-11-28</text>
<path d="M 70.00 270.23 L 82.72 205.57 L 95.44 263.37 L 108.16 244.30 L 120.88 254.37 L 133.60 258.71 L 146.32 293.71 L 159.04 259.71 L 171.76 225.47 L 184.49 243.31 L 197.21 278.39 L 209.93 265.27 L 222.65 295.39 L 235.37 309.58 L 248.09 305.99 L 260.81 310.95 L 273.53 297.45 L 286.25 295.09 L 298.97 293.87 L 311.69 287.46 L 324.41 253.38 L 337.13 288.22 L 349.85 266.64 L 362.57 279.46 L 375.29 266.03 L 388.01 222.49 L 400.74 245.75 L 413.46 247.43 L 426.18 259.32 L 438.90 297.76 L 451.62 309.80 L 464.34 286.01 L 477.06 296.54 L 489.78 271.60 L 502.50 278.85 L 515.22 256.96 L 527.94 123.98 L 540.66 175.75 L 553.38 212.66 L 566.10 109.03 L 578.82 196.19 L 591.54 336.57 L 604.26 309.88 L 616.99 285.33 L 629.71 232.33 L 642.43 267.94 L 655.15 285.48 L 667.87 299.36 L 680.59 266.80 L 693.31 256.12 L 706.03 236.53 L 718.75 192.98 L 731.47 135.80 L 744.19 183.68 L 756.91 184.67 L 769.63 190.93 L 782.35 255.59 L 795.07 294.63 L 807.79 209.53 L 820.51 237.06 L 833.24 167.36 L 845.96 60.00 L 858.68 70.45 L 871.40 66.18 L 884.12 146.17 L 896.84 277.24 L 909.56 326.96 L 922.28 337.79 L 935.00 375.00" fill="none" stroke="#69a7ff" stroke-width="4" stroke-linecap="round" stroke-linejoin="round"/>
<circle cx="935.00" cy="375.00" r="6" fill="#69a7ff"/>
</svg>