<svg xmlns="http://www.w3.org/2000/svg" width="960" height="430" viewBox="0 0 960 430" role="img" aria-label="Composite score history">
<rect width="100%" height="100%" fill="#0b1020" rx="20"/>
<text x="70" y="32" fill="#f5f7fb" font-family="Inter, Arial, sans-serif" font-size="24" font-weight="700">Composite score history</text>
<text x="70" y="52" fill="#93a4c3" font-family="Inter, Arial, sans-serif" font-size="13">Trailing 85 sessions through 2025-11-28</text>
<line x1="70" x2="935" y1="375.00" y2="375.00" stroke="#27314e" stroke-width="1"/>
<text x="58" y="379.00" text-anchor="end" fill="#93a4c3" font-family="Inter, Arial, sans-serif" font-size="12">0</text>
<line x1="70" x2="935" y1="312.00" y2="312.00" stroke="#27314e" stroke-width="1"/>
<text x="58" y="316.00" text-anchor="end" fill="#93a4c3" font-family="Inter, Arial, sans-serif" font-size="12">8</text>
<line x1="70" x2="935" y1="249.00" y2="249.00" stroke="#27314e" stroke-width="1"/>
<text x="58" y="253.00" text-anchor="end" fill="#93a4c3" font-family="Inter, Arial, sans-serif" font-size="12">17</text>
<line x1="70" x2="935" y1="186.00" y2="186.00" stroke="#27314e" stroke-width="1"/>
<text x="58" y="190.00" text-anchor="end" fill="#93a4c3" font-family="Inter, Arial, sans-serif" font-size="12">25</text>
<line x1="70" x2="935" y1="123.00" y2="123.00" stroke="#27314e" stroke-width="1"/>
<text x="58" y="127.00" text-anchor="end" fill="#93a4c3" font-family="Inter, Arial, sans-serif" font-size="12">33</text>
<line x1="70" x2="935" y1="60.00" y2="60.00" stroke="#27314e" stroke-width="1"/>
<text x="58" y="64.00" text-anchor="end" fill="#93a4c3" font-family="Inter, Arial, sans-serif" font-size="12">41</text>
<text x="70.00" y="412" text-anchor="middle" fill="#93a4c3" font-family="Inter, Arial, sans-serif" font-size="12">2025-07-29</text>
<text x="502.50" y="412" text-anchor="middle" fill="#93a4c3" font-family="Inter, Arial, sans-serif" font-size="12">2025-09-26</text>
<text x="935.00" y="412" text-anchor="middle" fill="#93a4c3" font-family="Inter, Arial, sans-serif" font-size="12">2025-11-28</text>
<path d="M 70.00 253.30 L 80.30 222.95 L 90.60 198.70 L 100.89 136.86 L 111.19 225.47 L 121.49 201.30 L 131.79 246.59 L 142.08 265.20 L 152.38 259.86 L 162.68 231.80 L 172.98 310.11 L 183.27 307.29 L 193.57 296.69 L 203.87 288.91 L 214.17 290.05 L 224.46 236.07 L 234.76 198.55 L 245.06 168.13 L 255.36 254.83 L 265.65 233.17 L 275.95 245.90 L 286.25 258.71 L 296.55 293.71 L 306.85 259.71 L 317.14 225.47 L 327.44 243.31 L 337.74 278.39 L 348.04 265.27 L 358.33 295.39 L 368.63 309.58 L 378.93 305.99 L 389.23 310.95 L 399.52 297.45 L 409.82 295.09 L 420.12 293.87 L 430.42 287.46 L 440.71 253.38 L 451.01 288.22 L 461.31 266.64 L 471.61 279.46 L 481.90 266.03 L 492.20 222.49 L 502.50 245.75 L 512.80 247.43 L 523.10 259.32 L 533.39 297.76 L 543.69 309.80 L 553.99 286.01 L 564.29 296.54 L 574.58 271.60 L 584.88 278.85 L 595.18 256.96 L 605.48 123.98 L 615.77 175.75 L 626.07 212.66 L 636.37 109.03 L 646.67 196.19 L 656.96 336.57 L 667.26 309.88 L 677.56 285.33 L 687.86 232.33 L 698.15 267.94 L 708.45 285.48 L 718.75 299.36 L 729.05 266.80 L 739.35 256.12 L 749.64 236.53 L 759.94 192.98 L 770.24 135.80 L 780.54 183.68 L 790.83 184.67 L 801.13 190.93 L 811.43 255.59 L 821.73 294.63 L 832.02 209.53 L 842.32 237.06 L 852.62 167.36 L 862.92 60.00 L 873.21 70.45 L 883.51 66.18 L 893.81 146.17 L 904.11 277.24 L 914.40 326.96 L 924.70 337.79 L 935.00 375.00" fill="none" stroke="#69a7ff" stroke-width="4" stroke-linecap="round" stroke-linejoin="round"/>
<circle cx="935.00" cy="375.00" r="6" fill="#69a7ff"/>
</svg>