<svg xmlns="http://www.w3.org/2000/svg" width="960" height="430" viewBox="0 0 960 430" role="img" aria-label="Composite score history">
<rect width="100%" height="100%" fill="#0b1020" rx="20"/>
<text x="70" y="32" fill="#f5f7fb" font-family="Inter, Arial, sans-serif" font-size="24" font-weight="700">Composite score history</text>
<text x="70" y="52" fill="#93a4c3" font-family="Inter, Arial, sans-serif" font-size="13">Trailing 79 sessions through 2025-11-28</text>
<line x1="70" x2="935" y1="375.00" y2="375.00" stroke="#27314e" stroke-width="1"/>
<text x="58" y="379.00" text-anchor="end" fill="#93a4c3" font-family="Inter, Arial, sans-serif" font-size="12">0</text>
<line x1="70" x2="935" y1="312.00" y2="312.00" stroke="#27314e" stroke-width="1"/>
<text x="58" y="316.00" text-anchor="end" fill="#93a4c3" font-family="Inter, Arial, sans-serif" font-size="12">8</text>
<line x1="70" x2="935" y1="249.00" y2="249.00" stroke="#27314e" stroke-width="1"/>
<text x="58" y="253.00" text-anchor="end" fill="#93a4c3" font-family="Inter, Arial, sans-serif" font-size="12">17</text>
<line x1="70" x2="935" y1="186.00" y2="186.00" stroke="#27314e" stroke-width="1"/>
<text x="58" y="190.00" text-anchor="end" fill="#93a4c3" font-family="Inter, Arial, sans-serif" font-size="12">25</text>
<line x1="70" x2="935" y1="123.00" y2="123.00" stroke="#27314e" stroke-width="1"/>
<text x="58" y="127.00" text-anchor="end" fill="#93a4c3" font-family="Inter, Arial, sans-serif" font-size="12">33</text>
<line x1="70" x2="935" y1="60.00" y2="60.00" stroke="#27314e" stroke-width="1"/>
<text x="58" y="64.00" text-anchor="end" fill="#93a4c3" font-family="Inter, Arial, sans-serif" font-size="12">41</text>
<text x="70.00" y="412" text-anchor="middle" fill="#93a4c3" font-family="Inter, Arial, sans-serif" font-size="12">2025-08-06</text>
<text x="502.50" y="412" text-anchor="middle" fill="#93a4c3" font-family="Inter, Arial, sans-serif" font-size="12">2025-10-01</text>
<text x="935.00" y="412" text-anchor="middle" fill="#93a4c3" font-family="Inter, Arial, sans-serif" font-size="12">2025-11-28</text>
<path d="M 70.00 266.49 L 81.09 249.03 L 92.18 234.54 L 103.27 223.41 L 114.36 283.04 L 125.45 307.29 L 136.54 296.69 L 147.63 288.91 L 158.72 290.05 L 169.81 236.07 L 180.90 198.55 L 191.99 168.13 L 203.08 254.83 L 214.17 233.17 L 225.26 245.90 L 236.35 258.71 L 247.44 293.71 L 258.53 259.71 L 269.62 225.47 L 280.71 243.31 L 291.79 278.39 L 302.88 265.27 L 313.97 295.39 L 325.06 309.58 L 336.15 305.99 L 347.24 310.95 L 358.33 297.45 L 369.42 295.09 L 380.51 293.87 L 391.60 287.46 L 402.69 253.38 L 413.78 288.22 L 424.87 266.64 L 435.96 279.46 L 447.05 266.03 L 458.14 222.49 L 469.23 245.75 L 480.32 247.43 L 491.41 259.32 L 502.50 297.76 L 513.59 309.80 L 524.68 286.01 L 535.77 296.54 L 546.86 271.60 L 557.95 278.85 L 569.04 256.96 L 580.13 123.98 L 591.22 175.75 L 602.31 212.66 L 613.40 109.03 L 624.49 196.19 L 635.58 336.57 L 646.67 309.88 L 657.76 285.33 L 668.85 232.33 L 679.94 267.94 L 691.03 285.48 L 702.12 299.36 L 713.21 266.80 L 724.29 256.12 L 735.38 236.53 L 746.47 192.98 L 757.56 135.80 L 768.65 183.68 L 779.74 184.67 L 790.83 190.93 L 801.92 255.59 L 813.01 294.63 L 824.10 209.53 L 835.19 237.06 L 846.28 167.36 L 857.37 60.00 L 868.46 70.45 L 879.55 66.18 L 890.64 146.17 L 901.73 277.24 L 912.82 326.96 L 923.91 337.79 L 935.00 375.00" fill="none" stroke="#69a7ff" stroke-width="4" stroke-linecap="round" stroke-linejoin="round"/>
<circle cx="935.00" cy="375.00" r="6" fill="#69a7ff"/>
</svg>