<svg xmlns="http://www.w3.org/2000/svg" width="960" height="430" viewBox="0 0 960 430" role="img" aria-label="Composite score history">
<rect width="100%" height="100%" fill="#0b1020" rx="20"/>
<text x="70" y="32" fill="#f5f7fb" font-family="Inter, Arial, sans-serif" font-size="24" font-weight="700">Composite score history</text>
<text x="70" y="52" fill="#93a4c3" font-family="Inter, Arial, sans-serif" font-size="13">Trailing 68 sessions through 2025-11-25</text>
<line x1="70" x2="935" y1="375.00" y2="375.00" stroke="#27314e" stroke-width="1"/>
<text x="58" y="379.00" text-anchor="end" fill="#93a4c3" font-family="Inter, Arial, sans-serif" font-size="12">5</text>
<line x1="70" x2="935" y1="312.00" y2="312.00" stroke="#27314e" stroke-width="1"/>
<text x="58" y="316.00" text-anchor="end" fill="#93a4c3" font-family="Inter, Arial, sans-serif" font-size="12">12</text>
<line x1="70" x2="935" y1="249.00" y2="249.00" stroke="#27314e" stroke-width="1"/>
<text x="58" y="253.00" text-anchor="end" fill="#93a4c3" font-family="Inter, Arial, sans-serif" font-size="12">20</text>
<line x1="70" x2="935" y1="186.00" y2="186.00" stroke="#27314e" stroke-width="1"/>
<text x="58" y="190.00" text-anchor="end" fill="#93a4c3" font-family="Inter, Arial, sans-serif" font-size="12">27</text>
<line x1="70" x2="935" y1="123.00" y2="123.00" stroke="#27314e" stroke-width="1"/>
<text x="58" y="127.00" text-anchor="end" fill="#93a4c3" font-family="Inter, Arial, sans-serif" font-size="12">34</text>
<line x1="70" x2="935" y1="60.00" y2="60.00" stroke="#27314e" stroke-width="1"/>
<text x="58" y="64.00" text-anchor="end" fill="#93a4c3" font-family="Inter, Arial, sans-serif" font-size="12">41</text>
<text x="70.00" y="412" text-anchor="middle" fill="#93a4c3" font-family="Inter, Arial, sans-serif" font-size="12">2025-08-19</text>
<text x="508.96" y="412" text-anchor="middle" fill="#93a4c3" font-family="Inter, Arial, sans-serif" font-size="12">2025-10-07</text>
<text x="935.00" y="412" text-anchor="middle" fill="#93a4c3" font-family="Inter, Arial, sans-serif" font-size="12">2025-11-25</text>
<path d="M 70.00 300.92 L 82.91 283.55 L 95.82 213.46 L 108.73 281.90 L 121.64 260.27 L 134.55 271.74 L 147.46 286.33 L 160.37 326.19 L 173.28 287.46 L 186.19 248.46 L 199.10 268.78 L 212.01 308.73 L 224.93 293.80 L 237.84 328.10 L 250.75 344.26 L 263.66 340.17 L 276.57 345.82 L 289.48 330.45 L 302.39 327.75 L 315.30 326.36 L 328.21 319.07 L 341.12 280.25 L 354.03 319.94 L 366.94 295.36 L 379.85 309.95 L 392.76 294.67 L 405.67 245.07 L 418.58 271.56 L 431.49 273.47 L 444.40 287.02 L 457.31 330.79 L 470.22 344.52 L 483.13 317.42 L 496.04 329.40 L 508.96 301.00 L 521.87 309.26 L 534.78 284.33 L 547.69 132.87 L 560.60 191.84 L 573.51 233.87 L 586.42 115.84 L 599.33 215.11 L 612.24 375.00 L 625.15 344.60 L 638.06 316.64 L 650.97 256.28 L 663.88 296.84 L 676.79 316.81 L 689.70 332.62 L 702.61 295.53 L 715.52 283.37 L 728.43 261.05 L 741.34 211.46 L 754.25 146.33 L 767.16 200.87 L 780.07 202.00 L 792.99 209.12 L 805.90 282.77 L 818.81 327.23 L 831.72 230.31 L 844.63 261.66 L 857.54 182.28 L 870.45 60.00 L 883.36 71.90 L 896.27 67.03 L 909.18 158.14 L 922.09 307.43 L 935.00 364.06" fill="none" stroke="#69a7ff" stroke-width="4" stroke-linecap="round" stroke-linejoin="round"/>
<circle cx="935.00" cy="364.06" r="6" fill="#69a7ff"/>
</svg>