<svg xmlns="http://www.w3.org/2000/svg" width="960" height="430" viewBox="0 0 960 430" role="img" aria-label="Composite score history">
<rect width="100%" height="100%" fill="#0b1020" rx="20"/>
<text x="70" y="32" fill="#f5f7fb" font-family="Inter, Arial, sans-serif" font-size="24" font-weight="700">Composite score history</text>
<text x="70" y="52" fill="#93a4c3" font-family="Inter, Arial, sans-serif" font-size="13">Trailing 78 sessions through 2025-11-25</text>
<line x1="70" x2="935" y1="375.00" y2="375.00" stroke="#27314e" stroke-width="1"/>
<text x="58" y="379.00" text-anchor="end" fill="#93a4c3" font-family="Inter, Arial, sans-serif" font-size="12">5</text>
<line x1="70" x2="935" y1="312.00" y2="312.00" stroke="#27314e" stroke-width="1"/>
<text x="58" y="316.00" text-anchor="end" fill="#93a4c3" font-family="Inter, Arial, sans-serif" font-size="12">12</text>
<line x1="70" x2="935" y1="249.00" y2="249.00" stroke="#27314e" stroke-width="1"/>
<text x="58" y="253.00" text-anchor="end" fill="#93a4c3" font-family="Inter, Arial, sans-serif" font-size="12">20</text>
<line x1="70" x2="935" y1="186.00" y2="186.00" stroke="#27314e" stroke-width="1"/>
<text x="58" y="190.00" text-anchor="end" fill="#93a4c3" font-family="Inter, Arial, sans-serif" font-size="12">27</text>
<line x1="70" x2="935" y1="123.00" y2="123.00" stroke="#27314e" stroke-width="1"/>
<text x="58" y="127.00" text-anchor="end" fill="#93a4c3" font-family="Inter, Arial, sans-serif" font-size="12">34</text>
<line x1="70" x2="935" y1="60.00" y2="60.00" stroke="#27314e" stroke-width="1"/>
<text x="58" y="64.00" text-anchor="end" fill="#93a4c3" font-family="Inter, Arial, sans-serif" font-size="12">41</text>
<text x="70.00" y="412" text-anchor="middle" fill="#93a4c3" font-family="Inter, Arial, sans-serif" font-size="12">2025-08-05</text>
<text x="508.12" y="412" text-anchor="middle" fill="#93a4c3" font-family="Inter, Arial, sans-serif" font-size="12">2025-09-30</text>
<text x="935.00" y="412" text-anchor="middle" fill="#93a4c3" font-family="Inter, Arial, sans-serif" font-size="12">2025-11-25</text>
<path d="M 70.00 285.02 L 81.23 310.99 L 92.47 307.52 L 103.70 289.54 L 114.94 276.77 L 126.17 344.86 L 137.40 341.65 L 148.64 329.58 L 159.87 320.72 L 171.10 322.02 L 182.34 260.53 L 193.57 217.80 L 204.81 183.15 L 216.04 281.90 L 227.27 257.23 L 238.51 271.74 L 249.74 286.33 L 260.97 326.19 L 272.21 287.46 L 283.44 248.46 L 294.68 268.78 L 305.91 308.73 L 317.14 293.80 L 328.38 328.10 L 339.61 344.26 L 350.84 340.17 L 362.08 345.82 L 373.31 330.45 L 384.55 327.75 L 395.78 326.36 L 407.01 319.07 L 418.25 280.25 L 429.48 319.94 L 440.71 295.36 L 451.95 309.95 L 463.18 294.67 L 474.42 245.07 L 485.65 271.56 L 496.88 273.47 L 508.12 287.02 L 519.35 330.79 L 530.58 344.52 L 541.82 317.42 L 553.05 329.40 L 564.29 301.00 L 575.52 309.26 L 586.75 284.33 L 597.99 132.87 L 609.22 191.84 L 620.45 233.87 L 631.69 115.84 L 642.92 215.11 L 654.16 375.00 L 665.39 344.60 L 676.62 316.64 L 687.86 256.28 L 699.09 296.84 L 710.32 316.81 L 721.56 332.62 L 732.79 295.53 L 744.03 283.37 L 755.26 261.05 L 766.49 211.46 L 777.73 146.33 L 788.96 200.87 L 800.19 202.00 L 811.43 209.12 L 822.66 282.77 L 833.90 327.23 L 845.13 230.31 L 856.36 261.66 L 867.60 182.28 L 878.83 60.00 L 890.06 71.90 L 901.30 67.03 L 912.53 158.14 L 923.77 307.43 L 935.00 364.06" fill="none" stroke="#69a7ff" stroke-width="4" stroke-linecap="round" stroke-linejoin="round"/>
<circle cx="935.00" cy="364.06" r="6" fill="#69a7ff"/>
</svg>