<svg xmlns="http://www.w3.org/2000/svg" width="960" height="430" viewBox="0 0 960 430" role="img" aria-label="Composite score history">
<rect width="100%" height="100%" fill="#0b1020" rx="20"/>
<text x="70" y="32" fill="#f5f7fb" font-family="Inter, Arial, sans-serif" font-size="24" font-weight="700">Composite score history</text>
<text x="70" y="52" fill="#93a4c3" font-family="Inter, Arial, sans-serif" font-size="13">Trailing 85 sessions through 2025-11-25</text>
<line x1="70" x2="935" y1="375.00" y2="375.00" stroke="#27314e" stroke-width="1"/>
<text x="58" y="379.00" text-anchor="end" fill="#93a4c3" font-family="Inter, Arial, sans-serif" font-size="12">5</text>
<line x1="70" x2="935" y1="312.00" y2="312.00" stroke="#27314e" stroke-width="1"/>
<text x="58" y="316.00" text-anchor="end" fill="#93a4c3" font-family="Inter, Arial, sans-serif" font-size="12">12</text>
<line x1="70" x2="935" y1="249.00" y2="249.00" stroke="#27314e" stroke-width="1"/>
<text x="58" y="253.00" text-anchor="end" fill="#93a4c3" font-family="Inter, Arial, sans-serif" font-size="12">20</text>
<line x1="70" x2="935" y1="186.00" y2="186.00" stroke="#27314e" stroke-width="1"/>
<text x="58" y="190.00" text-anchor="end" fill="#93a4c3" font-family="Inter, Arial, sans-serif" font-size="12">27</text>
<line x1="70" x2="935" y1="123.00" y2="123.00" stroke="#27314e" stroke-width="1"/>
<text x="58" y="127.00" text-anchor="end" fill="#93a4c3" font-family="Inter, Arial, sans-serif" font-size="12">34</text>
<line x1="70" x2="935" y1="60.00" y2="60.00" stroke="#27314e" stroke-width="1"/>
<text x="58" y="64.00" text-anchor="end" fill="#93a4c3" font-family="Inter, Arial, sans-serif" font-size="12">41</text>
<text x="70.00" y="412" text-anchor="middle" fill="#93a4c3" font-family="Inter, Arial, sans-serif" font-size="12">2025-07-25</text>
<text x="502.50" y="412" text-anchor="middle" fill="#93a4c3" font-family="Inter, Arial, sans-serif" font-size="12">2025-09-24</text>
<text x="935.00" y="412" text-anchor="middle" fill="#93a4c3" font-family="Inter, Arial, sans-serif" font-size="12">2025-11-25</text>
<path d="M 70.00 285.46 L 80.30 284.42 L 90.60 255.15 L 100.89 242.03 L 111.19 214.76 L 121.49 127.13 L 131.79 227.97 L 142.08 220.93 L 152.38 272.52 L 162.68 293.71 L 172.98 287.63 L 183.27 255.67 L 193.57 344.86 L 203.87 341.65 L 214.17 329.58 L 224.46 320.72 L 234.76 322.02 L 245.06 260.53 L 255.36 217.80 L 265.65 183.15 L 275.95 281.90 L 286.25 257.23 L 296.55 271.74 L 306.85 286.33 L 317.14 326.19 L 327.44 287.46 L 337.74 248.46 L 348.04 268.78 L 358.33 308.73 L 368.63 293.80 L 378.93 328.10 L 389.23 344.26 L 399.52 340.17 L 409.82 345.82 L 420.12 330.45 L 430.42 327.75 L 440.71 326.36 L 451.01 319.07 L 461.31 280.25 L 471.61 319.94 L 481.90 295.36 L 492.20 309.95 L 502.50 294.67 L 512.80 245.07 L 523.10 271.56 L 533.39 273.47 L 543.69 287.02 L 553.99 330.79 L 564.29 344.52 L 574.58 317.42 L 584.88 329.40 L 595.18 301.00 L 605.48 309.26 L 615.77 284.33 L 626.07 132.87 L 636.37 191.84 L 646.67 233.87 L 656.96 115.84 L 667.26 215.11 L 677.56 375.00 L 687.86 344.60 L 698.15 316.64 L 708.45 256.28 L 718.75 296.84 L 729.05 316.81 L 739.35 332.62 L 749.64 295.53 L 759.94 283.37 L 770.24 261.05 L 780.54 211.46 L 790.83 146.33 L 801.13 200.87 L 811.43 202.00 L 821.73 209.12 L 832.02 282.77 L 842.32 327.23 L 852.62 230.31 L 862.92 261.66 L 873.21 182.28 L 883.51 60.00 L 893.81 71.90 L 904.11 67.03 L 914.40 158.14 L 924.70 307.43 L 935.00 364.06" fill="none" stroke="#69a7ff" stroke-width="4" stroke-linecap="round" stroke-linejoin="round"/>
<circle cx="935.00" cy="364.06" r="6" fill="#69a7ff"/>
</svg>