<svg xmlns="http://www.w3.org/2000/svg" width="960" height="430" viewBox="0 0 960 430" role="img" aria-label="Composite score history">
<rect width="100%" height="100%" fill="#0b1020" rx="20"/>
<text x="70" y="32" fill="#f5f7fb" font-family="Inter, Arial, sans-serif" font-size="24" font-weight="700">Composite score history</text>
<text x="70" y="52" fill="#93a4c3" font-family="Inter, Arial, sans-serif" font-size="13">Trailing 57 sessions through 2025-11-25</text>
<line x1="70" x2="935" y1="375.00" y2="375.00" stroke="#27314e" stroke-width="1"/>
<text x="58" y="379.00" text-anchor="end" fill="#93a4c3" font-family="Inter, Arial, sans-serif" font-size="12">5</text>
<line x1="70" x2="935" y1="312.00" y2="312.00" stroke="#27314e" stroke-width="1"/>
<text x="58" y="316.00" text-anchor="end" fill="#93a4c3" font-family="Inter, Arial, sans-serif" font-size="12">12</text>
<line x1="70" x2="935" y1="249.00" y2="249.00" stroke="#27314e" stroke-width="1"/>
<text x="58" y="253.00" text-anchor="end" fill="#93a4c3" font-family="Inter, Arial, sans-serif" font-size="12">20</text>
<line x1="70" x2="935" y1="186.00" y2="186.00" stroke="#27314e" stroke-width="1"/>
<text x="58" y="190.00" text-anchor="end" fill="#93a4c3" font-family="Inter, Arial, sans-serif" font-size="12">27</text>
<line x1="70" x2="935" y1="123.00" y2="123.00" stroke="#27314e" stroke-width="1"/>
<text x="58" y="127.00" text-anchor="end" fill="#93a4c3" font-family="Inter, Arial, sans-serif" font-size="12">34</text>
<line x1="70" x2="935" y1="60.00" y2="60.00" stroke="#27314e" stroke-width="1"/>
<text x="58" y="64.00" text-anchor="end" fill="#93a4c3" font-family="Inter, Arial, sans-serif" font-size="12">41</text>
<text x="70.00" y="412" text-anchor="middle" fill="#93a4c3" font-family="Inter, Arial, sans-serif" font-size="12">2025-09-04</text>
<text x="502.50" y="412" text-anchor="middle" fill="#93a4c3" font-family="Inter, Arial, sans-serif" font-size="12">2025-10-15</text>
<text x="935.00" y="412" text-anchor="middle" fill="#93a4c3" font-family="Inter, Arial, sans-serif" font-size="12">2025-11-25</text>
<path d="M 70.00 305.52 L 85.45 299.79 L 100.89 311.77 L 116.34 314.90 L 131.79 321.59 L 147.23 345.82 L 162.68 330.45 L 178.12 327.75 L 193.57 326.36 L 209.02 319.07 L 224.46 280.25 L 239.91 319.94 L 255.36 295.36 L 270.80 309.95 L 286.25 294.67 L 301.70 245.07 L 317.14 271.56 L 332.59 273.47 L 348.04 287.02 L 363.48 330.79 L 378.93 344.52 L 394.38 317.42 L 409.82 329.40 L 425.27 301.00 L 440.71 309.26 L 456.16 284.33 L 471.61 132.87 L 487.05 191.84 L 502.50 233.87 L 517.95 115.84 L 533.39 215.11 L 548.84 375.00 L 564.29 344.60 L 579.73 316.64 L 595.18 256.28 L 610.62 296.84 L 626.07 316.81 L 641.52 332.62 L 656.96 295.53 L 672.41 283.37 L 687.86 261.05 L 703.30 211.46 L 718.75 146.33 L 734.20 200.87 L 749.64 202.00 L 765.09 209.12 L 780.54 282.77 L 795.98 327.23 L 811.43 230.31 L 826.88 261.66 L 842.32 182.28 L 857.77 60.00 L 873.21 71.90 L 888.66 67.03 L 904.11 158.14 L 919.55 307.43 L 935.00 364.06" fill="none" stroke="#69a7ff" stroke-width="4" stroke-linecap="round" stroke-linejoin="round"/>
<circle cx="935.00" cy="364.06" r="6" fill="#69a7ff"/>
</svg>