<svg xmlns="http://www.w3.org/2000/svg" width="960" height="430" viewBox="0 0 960 430" role="img" aria-label="Composite score history">
<rect width="100%" height="100%" fill="#0b1020" rx="20"/>
<text x="70" y="32" fill="#f5f7fb" font-family="Inter, Arial, sans-serif" font-size="24" font-weight="700">Composite score history</text>
<text x="70" y="52" fill="#93a4c3" font-family="Inter, Arial, sans-serif" font-size="13">Trailing 83 sessions through 2025-11-25</text>
<line x1="70" x2="935" y1="375.00" y2="375.00" stroke="#27314e" stroke-width="1"/>
<text x="58" y="379.00" text-anchor="end" fill="#93a4c3" font-family="Inter, Arial, sans-serif" font-size="12">5</text>
<line x1="70" x2="935" y1="312.00" y2="312.00" stroke="#27314e" stroke-width="1"/>
<text x="58" y="316.00" text-anchor="end" fill="#93a4c3" font-family="Inter, Arial, sans-serif" font-size="12">12</text>
<line x1="70" x2="935" y1="249.00" y2="249.00" stroke="#27314e" stroke-width="1"/>
<text x="58" y="253.00" text-anchor="end" fill="#93a4c3" font-family="Inter, Arial, sans-serif" font-size="12">20</text>
<line x1="70" x2="935" y1="186.00" y2="186.00" stroke="#27314e" stroke-width="1"/>
<text x="58" y="190.00" text-anchor="end" fill="#93a4c3" font-family="Inter, Arial, sans-serif" font-size="12">27</text>
<line x1="70" x2="935" y1="123.00" y2="123.00" stroke="#27314e" stroke-width="1"/>
<text x="58" y="127.00" text-anchor="end" fill="#93a4c3" font-family="Inter, Arial, sans-serif" font-size="12">34</text>
<line x1="70" x2="935" y1="60.00" y2="60.00" stroke="#27314e" stroke-width="1"/>
<text x="58" y="64.00" text-anchor="end" fill="#93a4c3" font-family="Inter, Arial, sans-serif" font-size="12">41</text>
<text x="70.00" y="412" text-anchor="middle" fill="#93a4c3" font-family="Inter, Arial, sans-serif" font-size="12">2025-07-29</text>
<text x="502.50" y="412" text-anchor="middle" fill="#93a4c3" font-family="Inter, Arial, sans-serif" font-size="12">2025-09-25</text>
<text x="935.00" y="412" text-anchor="middle" fill="#93a4c3" font-family="Inter, Arial, sans-serif" font-size="12">2025-11-25</text>
<path d="M 70.00 280.16 L 80.55 245.60 L 91.10 217.98 L 101.65 147.54 L 112.20 248.46 L 122.74 220.93 L 133.29 272.52 L 143.84 293.71 L 154.39 287.63 L 164.94 255.67 L 175.49 344.86 L 186.04 341.65 L 196.59 329.58 L 207.13 320.72 L 217.68 322.02 L 228.23 260.53 L 238.78 217.80 L 249.33 183.15 L 259.88 281.90 L 270.43 257.23 L 280.98 271.74 L 291.52 286.33 L 302.07 326.19 L 312.62 287.46 L 323.17 248.46 L 333.72 268.78 L 344.27 308.73 L 354.82 293.80 L 365.37 328.10 L 375.91 344.26 L 386.46 340.17 L 397.01 345.82 L 407.56 330.45 L 418.11 327.75 L 428.66 326.36 L 439.21 319.07 L 449.76 280.25 L 460.30 319.94 L 470.85 295.36 L 481.40 309.95 L 491.95 294.67 L 502.50 245.07 L 513.05 271.56 L 523.60 273.47 L 534.15 287.02 L 544.70 330.79 L 555.24 344.52 L 565.79 317.42 L 576.34 329.40 L 586.89 301.00 L 597.44 309.26 L 607.99 284.33 L 618.54 132.87 L 629.09 191.84 L 639.63 233.87 L 650.18 115.84 L 660.73 215.11 L 671.28 375.00 L 681.83 344.60 L 692.38 316.64 L 702.93 256.28 L 713.48 296.84 L 724.02 316.81 L 734.57 332.62 L 745.12 295.53 L 755.67 283.37 L 766.22 261.05 L 776.77 211.46 L 787.32 146.33 L 797.87 200.87 L 808.41 202.00 L 818.96 209.12 L 829.51 282.77 L 840.06 327.23 L 850.61 230.31 L 861.16 261.66 L 871.71 182.28 L 882.26 60.00 L 892.80 71.90 L 903.35 67.03 L 913.90 158.14 L 924.45 307.43 L 935.00 364.06" fill="none" stroke="#69a7ff" stroke-width="4" stroke-linecap="round" stroke-linejoin="round"/>
<circle cx="935.00" cy="364.06" r="6" fill="#69a7ff"/>
</svg>