<svg xmlns="http://www.w3.org/2000/svg" width="960" height="430" viewBox="0 0 960 430" role="img" aria-label="Composite score history">
<rect width="100%" height="100%" fill="#0b1020" rx="20"/>
<text x="70" y="32" fill="#f5f7fb" font-family="Inter, Arial, sans-serif" font-size="24" font-weight="700">Composite score history</text>
<text x="70" y="52" fill="#93a4c3" font-family="Inter, Arial, sans-serif" font-size="13">Trailing 84 sessions through 2025-11-25</text>
<line x1="70" x2="935" y1="375.00" y2="375.00" stroke="#27314e" stroke-width="1"/>
<text x="58" y="379.00" text-anchor="end" fill="#93a4c3" font-family="Inter, Arial, sans-serif" font-size="12">5</text>
<line x1="70" x2="935" y1="312.00" y2="312.00" stroke="#27314e" stroke-width="1"/>
<text x="58" y="316.00" text-anchor="end" fill="#93a4c3" font-family="Inter, Arial, sans-serif" font-size="12">12</text>
<line x1="70" x2="935" y1="249.00" y2="249.00" stroke="#27314e" stroke-width="1"/>
<text x="58" y="253.00" text-anchor="end" fill="#93a4c3" font-family="Inter, Arial, sans-serif" font-size="12">20</text>
<line x1="70" x2="935" y1="186.00" y2="186.00" stroke="#27314e" stroke-width="1"/>
<text x="58" y="190.00" text-anchor="end" fill="#93a4c3" font-family="Inter, Arial, sans-serif" font-size="12">27</text>
<line x1="70" x2="935" y1="123.00" y2="123.00" stroke="#27314e" stroke-width="1"/>
<text x="58" y="127.00" text-anchor="end" fill="#93a4c3" font-family="Inter, Arial, sans-serif" font-size="12">34</text>
<line x1="70" x2="935" y1="60.00" y2="60.00" stroke="#27314e" stroke-width="1"/>
<text x="58" y="64.00" text-anchor="end" fill="#93a4c3" font-family="Inter, Arial, sans-serif" font-size="12">41</text>
<text x="70.00" y="412" text-anchor="middle" fill="#93a4c3" font-family="Inter, Arial, sans-serif" font-size="12">2025-07-28</text>
<text x="507.71" y="412" text-anchor="middle" fill="#93a4c3" font-family="Inter, Arial, sans-serif" font-size="12">2025-09-25</text>
<text x="935.00" y="412" text-anchor="middle" fill="#93a4c3" font-family="Inter, Arial, sans-serif" font-size="12">2025-11-25</text>
<path d="M 70.00 284.85 L 80.42 255.24 L 90.84 242.12 L 101.27 214.76 L 111.69 127.22 L 122.11 227.97 L 132.53 220.93 L 142.95 272.52 L 153.37 293.71 L 163.80 287.63 L 174.22 255.67 L 184.64 344.86 L 195.06 341.65 L 205.48 329.58 L 215.90 320.72 L 226.33 322.02 L 236.75 260.53 L 247.17 217.80 L 257.59 183.15 L 268.01 281.90 L 278.43 257.23 L 288.86 271.74 L 299.28 286.33 L 309.70 326.19 L 320.12 287.46 L 330.54 248.46 L 340.96 268.78 L 351.39 308.73 L 361.81 293.80 L 372.23 328.10 L 382.65 344.26 L 393.07 340.17 L 403.49 345.82 L 413.92 330.45 L 424.34 327.75 L 434.76 326.36 L 445.18 319.07 L 455.60 280.25 L 466.02 319.94 L 476.45 295.36 L 486.87 309.95 L 497.29 294.67 L 507.71 245.07 L 518.13 271.56 L 528.55 273.47 L 538.98 287.02 L 549.40 330.79 L 559.82 344.52 L 570.24 317.42 L 580.66 329.40 L 591.08 301.00 L 601.51 309.26 L 611.93 284.33 L 622.35 132.87 L 632.77 191.84 L 643.19 233.87 L 653.61 115.84 L 664.04 215.11 L 674.46 375.00 L 684.88 344.60 L 695.30 316.64 L 705.72 256.28 L 716.14 296.84 L 726.57 316.81 L 736.99 332.62 L 747.41 295.53 L 757.83 283.37 L 768.25 261.05 L 778.67 211.46 L 789.10 146.33 L 799.52 200.87 L 809.94 202.00 L 820.36 209.12 L 830.78 282.77 L 841.20 327.23 L 851.63 230.31 L 862.05 261.66 L 872.47 182.28 L 882.89 60.00 L 893.31 71.90 L 903.73 67.03 L 914.16 158.14 L 924.58 307.43 L 935.00 364.06" fill="none" stroke="#69a7ff" stroke-width="4" stroke-linecap="round" stroke-linejoin="round"/>
<circle cx="935.00" cy="364.06" r="6" fill="#69a7ff"/>
</svg>