<svg xmlns="http://www.w3.org/2000/svg" width="960" height="430" viewBox="0 0 960 430" role="img" aria-label="Composite score history">
<rect width="100%" height="100%" fill="#0b1020" rx="20"/>
<text x="70" y="32" fill="#f5f7fb" font-family="Inter, Arial, sans-serif" font-size="24" font-weight="700">Composite score history</text>
<text x="70" y="52" fill="#93a4c3" font-family="Inter, Arial, sans-serif" font-size="13">Trailing 75 sessions through 2025-11-25</text>
<line x1="70" x2="935" y1="375.00" y2="375.00" stroke="#27314e" stroke-width="1"/>
<text x="58" y="379.00" text-anchor="end" fill="#93a4c3" font-family="Inter, Arial, sans-serif" font-size="12">5</text>
<line x1="70" x2="935" y1="312.00" y2="312.00" stroke="#27314e" stroke-width="1"/>
<text x="58" y="316.00" text-anchor="end" fill="#93a4c3" font-family="Inter, Arial, sans-serif" font-size="12">12</text>
<line x1="70" x2="935" y1="249.00" y2="249.00" stroke="#27314e" stroke-width="1"/>
<text x="58" y="253.00" text-anchor="end" fill="#93a4c3" font-family="Inter, Arial, sans-serif" font-size="12">20</text>
<line x1="70" x2="935" y1="186.00" y2="186.00" stroke="#27314e" stroke-width="1"/>
<text x="58" y="190.00" text-anchor="end" fill="#93a4c3" font-family="Inter, Arial, sans-serif" font-size="12">27</text>
<line x1="70" x2="935" y1="123.00" y2="123.00" stroke="#27314e" stroke-width="1"/>
<text x="58" y="127.00" text-anchor="end" fill="#93a4c3" font-family="Inter, Arial, sans-serif" font-size="12">34</text>
<line x1="70" x2="935" y1="60.00" y2="60.00" stroke="#27314e" stroke-width="1"/>
<text x="58" y="64.00" text-anchor="end" fill="#93a4c3" font-family="Inter, Arial, sans-serif" font-size="12">41</text>
<text x="70.00" y="412" text-anchor="middle" fill="#93a4c3" font-family="Inter, Arial, sans-serif" font-size="12">2025-08-08</text>
<text x="502.50" y="412" text-anchor="middle" fill="#93a4c3" font-family="Inter, Arial, sans-serif" font-size="12">2025-10-01</text>
<text x="935.00" y="412" text-anchor="middle" fill="#93a4c3" font-family="Inter, Arial, sans-serif" font-size="12">2025-11-25</text>
<path d="M 70.00 293.97 L 81.69 266.96 L 93.38 322.20 L 105.07 335.05 L 116.76 328.10 L 128.45 320.72 L 140.14 322.02 L 151.82 260.53 L 163.51 217.80 L 175.20 183.15 L 186.89 281.90 L 198.58 257.23 L 210.27 271.74 L 221.96 286.33 L 233.65 326.19 L 245.34 287.46 L 257.03 248.46 L 268.72 268.78 L 280.41 308.73 L 292.09 293.80 L 303.78 328.10 L 315.47 344.26 L 327.16 340.17 L 338.85 345.82 L 350.54 330.45 L 362.23 327.75 L 373.92 326.36 L 385.61 319.07 L 397.30 280.25 L 408.99 319.94 L 420.68 295.36 L 432.36 309.95 L 444.05 294.67 L 455.74 245.07 L 467.43 271.56 L 479.12 273.47 L 490.81 287.02 L 502.50 330.79 L 514.19 344.52 L 525.88 317.42 L 537.57 329.40 L 549.26 301.00 L 560.95 309.26 L 572.64 284.33 L 584.32 132.87 L 596.01 191.84 L 607.70 233.87 L 619.39 115.84 L 631.08 215.11 L 642.77 375.00 L 654.46 344.60 L 666.15 316.64 L 677.84 256.28 L 689.53 296.84 L 701.22 316.81 L 712.91 332.62 L 724.59 295.53 L 736.28 283.37 L 747.97 261.05 L 759.66 211.46 L 771.35 146.33 L 783.04 200.87 L 794.73 202.00 L 806.42 209.12 L 818.11 282.77 L 829.80 327.23 L 841.49 230.31 L 853.18 261.66 L 864.86 182.28 L 876.55 60.00 L 888.24 71.90 L 899.93 67.03 L 911.62 158.14 L 923.31 307.43 L 935.00 364.06" fill="none" stroke="#69a7ff" stroke-width="4" stroke-linecap="round" stroke-linejoin="round"/>
<circle cx="935.00" cy="364.06" r="6" fill="#69a7ff"/>
</svg>