<svg xmlns="http://www.w3.org/2000/svg" width="960" height="430" viewBox="0 0 960 430" role="img" aria-label="Composite score history">
<rect width="100%" height="100%" fill="#0b1020" rx="20"/>
<text x="70" y="32" fill="#f5f7fb" font-family="Inter, Arial, sans-serif" font-size="24" font-weight="700">Composite score history</text>
<text x="70" y="52" fill="#93a4c3" font-family="Inter, Arial, sans-serif" font-size="13">Trailing 56 sessions through 2025-11-25</text>
<line x1="70" x2="935" y1="375.00" y2="375.00" stroke="#27314e" stroke-width="1"/>
<text x="58" y="379.00" text-anchor="end" fill="#93a4c3" font-family="Inter, Arial, sans-serif" font-size="12">5</text>
<line x1="70" x2="935" y1="312.00" y2="312.00" stroke="#27314e" stroke-width="1"/>
<text x="58" y="316.00" text-anchor="end" fill="#93a4c3" font-family="Inter, Arial, sans-serif" font-size="12">12</text>
<line x1="70" x2="935" y1="249.00" y2="249.00" stroke="#27314e" stroke-width="1"/>
<text x="58" y="253.00" text-anchor="end" fill="#93a4c3" font-family="Inter, Arial, sans-serif" font-size="12">20</text>
<line x1="70" x2="935" y1="186.00" y2="186.00" stroke="#27314e" stroke-width="1"/>
<text x="58" y="190.00" text-anchor="end" fill="#93a4c3" font-family="Inter, Arial, sans-serif" font-size="12">27</text>
<line x1="70" x2="935" y1="123.00" y2="123.00" stroke="#27314e" stroke-width="1"/>
<text x="58" y="127.00" text-anchor="end" fill="#93a4c3" font-family="Inter, Arial, sans-serif" font-size="12">34</text>
<line x1="70" x2="935" y1="60.00" y2="60.00" stroke="#27314e" stroke-width="1"/>
<text x="58" y="64.00" text-anchor="end" fill="#93a4c3" font-family="Inter, Arial, sans-serif" font-size="12">41</text>
<text x="70.00" y="412" text-anchor="middle" fill="#93a4c3" font-family="Inter, Arial, sans-serif" font-size="12">2025-09-05</text>
<text x="510.36" y="412" text-anchor="middle" fill="#93a4c3" font-family="Inter, Arial, sans-serif" font-size="12">2025-10-16</text>
<text x="935.00" y="412" text-anchor="middle" fill="#93a4c3" font-family="Inter, Arial, sans-serif" font-size="12">2025-11-25</text>
<path d="M 70.00 313.51 L 85.73 320.98 L 101.45 307.08 L 117.18 317.07 L 132.91 349.38 L 148.64 330.45 L 164.36 327.75 L 180.09 326.36 L 195.82 319.07 L 211.55 280.25 L 227.27 319.94 L 243.00 295.36 L 258.73 309.95 L 274.45 294.67 L 290.18 245.07 L 305.91 271.56 L 321.64 273.47 L 337.36 287.02 L 353.09 330.79 L 368.82 344.52 L 384.55 317.42 L 400.27 329.40 L 416.00 301.00 L 431.73 309.26 L 447.45 284.33 L 463.18 132.87 L 478.91 191.84 L 494.64 233.87 L 510.36 115.84 L 526.09 215.11 L 541.82 375.00 L 557.55 344.60 L 573.27 316.64 L 589.00 256.28 L 604.73 296.84 L 620.45 316.81 L 636.18 332.62 L 651.91 295.53 L 667.64 283.37 L 683.36 261.05 L 699.09 211.46 L 714.82 146.33 L 730.55 200.87 L 746.27 202.00 L 762.00 209.12 L 777.73 282.77 L 793.45 327.23 L 809.18 230.31 L 824.91 261.66 L 840.64 182.28 L 856.36 60.00 L 872.09 71.90 L 887.82 67.03 L 903.55 158.14 L 919.27 307.43 L 935.00 364.06" fill="none" stroke="#69a7ff" stroke-width="4" stroke-linecap="round" stroke-linejoin="round"/>
<circle cx="935.00" cy="364.06" r="6" fill="#69a7ff"/>
</svg>