<svg xmlns="http://www.w3.org/2000/svg" width="960" height="430" viewBox="0 0 960 430" role="img" aria-label="Composite score history">
<rect width="100%" height="100%" fill="#0b1020" rx="20"/>
<text x="70" y="32" fill="#f5f7fb" font-family="Inter, Arial, sans-serif" font-size="24" font-weight="700">Composite score history</text>
<text x="70" y="52" fill="#93a4c3" font-family="Inter, Arial, sans-serif" font-size="13">Trailing 62 sessions through 2025-11-25</text>
<line x1="70" x2="935" y1="375.00" y2="375.00" stroke="#27314e" stroke-width="1"/>
<text x="58" y="379.00" text-anchor="end" fill="#93a4c3" font-family="Inter, Arial, sans-serif" font-size="12">5</text>
<line x1="70" x2="935" y1="312.00" y2="312.00" stroke="#27314e" stroke-width="1"/>
<text x="58" y="316.00" text-anchor="end" fill="#93a4c3" font-family="Inter, Arial, sans-serif" font-size="12">12</text>
<line x1="70" x2="935" y1="249.00" y2="249.00" stroke="#27314e" stroke-width="1"/>
<text x="58" y="253.00" text-anchor="end" fill="#93a4c3" font-family="Inter, Arial, sans-serif" font-size="12">20</text>
<line x1="70" x2="935" y1="186.00" y2="186.00" stroke="#27314e" stroke-width="1"/>
<text x="58" y="190.00" text-anchor="end" fill="#93a4c3" font-family="Inter, Arial, sans-serif" font-size="12">27</text>
<line x1="70" x2="935" y1="123.00" y2="123.00" stroke="#27314e" stroke-width="1"/>
<text x="58" y="127.00" text-anchor="end" fill="#93a4c3" font-family="Inter, Arial, sans-serif" font-size="12">34</text>
<line x1="70" x2="935" y1="60.00" y2="60.00" stroke="#27314e" stroke-width="1"/>
<text x="58" y="64.00" text-anchor="end" fill="#93a4c3" font-family="Inter, Arial, sans-serif" font-size="12">41</text>
<text x="70.00" y="412" text-anchor="middle" fill="#93a4c3" font-family="Inter, Arial, sans-serif" font-size="12">2025-08-27</text>
<text x="509.59" y="412" text-anchor="middle" fill="#93a4c3" font-family="Inter, Arial, sans-serif" font-size="12">2025-10-10</text>
<text x="935.00" y="412" text-anchor="middle" fill="#93a4c3" font-family="Inter, Arial, sans-serif" font-size="12">2025-11-25</text>
<path d="M 70.00 300.66 L 84.18 299.44 L 98.36 282.85 L 112.54 196.53 L 126.72 253.41 L 140.90 308.73 L 155.08 293.80 L 169.26 328.10 L 183.44 344.26 L 197.62 340.17 L 211.80 345.82 L 225.98 330.45 L 240.16 327.75 L 254.34 326.36 L 268.52 319.07 L 282.70 280.25 L 296.89 319.94 L 311.07 295.36 L 325.25 309.95 L 339.43 294.67 L 353.61 245.07 L 367.79 271.56 L 381.97 273.47 L 396.15 287.02 L 410.33 330.79 L 424.51 344.52 L 438.69 317.42 L 452.87 329.40 L 467.05 301.00 L 481.23 309.26 L 495.41 284.33 L 509.59 132.87 L 523.77 191.84 L 537.95 233.87 L 552.13 115.84 L 566.31 215.11 L 580.49 375.00 L 594.67 344.60 L 608.85 316.64 L 623.03 256.28 L 637.21 296.84 L 651.39 316.81 L 665.57 332.62 L 679.75 295.53 L 693.93 283.37 L 708.11 261.05 L 722.30 211.46 L 736.48 146.33 L 750.66 200.87 L 764.84 202.00 L 779.02 209.12 L 793.20 282.77 L 807.38 327.23 L 821.56 230.31 L 835.74 261.66 L 849.92 182.28 L 864.10 60.00 L 878.28 71.90 L 892.46 67.03 L 906.64 158.14 L 920.82 307.43 L 935.00 364.06" fill="none" stroke="#69a7ff" stroke-width="4" stroke-linecap="round" stroke-linejoin="round"/>
<circle cx="935.00" cy="364.06" r="6" fill="#69a7ff"/>
</svg>