<svg xmlns="http://www.w3.org/2000/svg" width="960" height="430" viewBox="0 0 960 430" role="img" aria-label="Composite score history">
<rect width="100%" height="100%" fill="#0b1020" rx="20"/>
<text x="70" y="32" fill="#f5f7fb" font-family="Inter, Arial, sans-serif" font-size="24" font-weight="700">Composite score history</text>
<text x="70" y="52" fill="#93a4c3" font-family="Inter, Arial, sans-serif" font-size="13">Trailing 76 sessions through 2025-11-25</text>
<line x1="70" x2="935" y1="375.00" y2="375.00" stroke="#27314e" stroke-width="1"/>
<text x="58" y="379.00" text-anchor="end" fill="#93a4c3" font-family="Inter, Arial, sans-serif" font-size="12">5</text>
<line x1="70" x2="935" y1="312.00" y2="312.00" stroke="#27314e" stroke-width="1"/>
<text x="58" y="316.00" text-anchor="end" fill="#93a4c3" font-family="Inter, Arial, sans-serif" font-size="12">12</text>
<line x1="70" x2="935" y1="249.00" y2="249.00" stroke="#27314e" stroke-width="1"/>
<text x="58" y="253.00" text-anchor="end" fill="#93a4c3" font-family="Inter, Arial, sans-serif" font-size="12">20</text>
<line x1="70" x2="935" y1="186.00" y2="186.00" stroke="#27314e" stroke-width="1"/>
<text x="58" y="190.00" text-anchor="end" fill="#93a4c3" font-family="Inter, Arial, sans-serif" font-size="12">27</text>
<line x1="70" x2="935" y1="123.00" y2="123.00" stroke="#27314e" stroke-width="1"/>
<text x="58" y="127.00" text-anchor="end" fill="#93a4c3" font-family="Inter, Arial, sans-serif" font-size="12">34</text>
<line x1="70" x2="935" y1="60.00" y2="60.00" stroke="#27314e" stroke-width="1"/>
<text x="58" y="64.00" text-anchor="end" fill="#93a4c3" font-family="Inter, Arial, sans-serif" font-size="12">41</text>
<text x="70.00" y="412" text-anchor="middle" fill="#93a4c3" font-family="Inter, Arial, sans-serif" font-size="12">2025-08-07</text>
<text x="508.27" y="412" text-anchor="middle" fill="#93a4c3" font-family="Inter, Arial, sans-serif" font-size="12">2025-10-01</text>
<text x="935.00" y="412" text-anchor="middle" fill="#93a4c3" font-family="Inter, Arial, sans-serif" font-size="12">2025-11-25</text>
<path d="M 70.00 293.45 L 81.53 275.30 L 93.07 262.62 L 104.60 330.53 L 116.13 347.82 L 127.67 329.58 L 139.20 320.72 L 150.73 322.02 L 162.27 260.53 L 173.80 217.80 L 185.33 183.15 L 196.87 281.90 L 208.40 257.23 L 219.93 271.74 L 231.47 286.33 L 243.00 326.19 L 254.53 287.46 L 266.07 248.46 L 277.60 268.78 L 289.13 308.73 L 300.67 293.80 L 312.20 328.10 L 323.73 344.26 L 335.27 340.17 L 346.80 345.82 L 358.33 330.45 L 369.87 327.75 L 381.40 326.36 L 392.93 319.07 L 404.47 280.25 L 416.00 319.94 L 427.53 295.36 L 439.07 309.95 L 450.60 294.67 L 462.13 245.07 L 473.67 271.56 L 485.20 273.47 L 496.73 287.02 L 508.27 330.79 L 519.80 344.52 L 531.33 317.42 L 542.87 329.40 L 554.40 301.00 L 565.93 309.26 L 577.47 284.33 L 589.00 132.87 L 600.53 191.84 L 612.07 233.87 L 623.60 115.84 L 635.13 215.11 L 646.67 375.00 L 658.20 344.60 L 669.73 316.64 L 681.27 256.28 L 692.80 296.84 L 704.33 316.81 L 715.87 332.62 L 727.40 295.53 L 738.93 283.37 L 750.47 261.05 L 762.00 211.46 L 773.53 146.33 L 785.07 200.87 L 796.60 202.00 L 808.13 209.12 L 819.67 282.77 L 831.20 327.23 L 842.73 230.31 L 854.27 261.66 L 865.80 182.28 L 877.33 60.00 L 888.87 71.90 L 900.40 67.03 L 911.93 158.14 L 923.47 307.43 L 935.00 364.06" fill="none" stroke="#69a7ff" stroke-width="4" stroke-linecap="round" stroke-linejoin="round"/>
<circle cx="935.00" cy="364.06" r="6" fill="#69a7ff"/>
</svg>