<svg xmlns="http://www.w3.org/2000/svg" width="960" height="430" viewBox="0 0 960 430" role="img" aria-label="Composite score history">
<rect width="100%" height="100%" fill="#0b1020" rx="20"/>
<text x="70" y="32" fill="#f5f7fb" font-family="Inter, Arial, sans-serif" font-size="24" font-weight="700">Composite score history</text>
<text x="70" y="52" fill="#93a4c3" font-family="Inter, Arial, sans-serif" font-size="13">Trailing 45 sessions through 2025-11-21</text>
<line x1="70" x2="935" y1="375.00" y2="375.00" stroke="#27314e" stroke-width="1"/>
<text x="58" y="379.00" text-anchor="end" fill="#93a4c3" font-family="Inter, Arial, sans-serif" font-size="12">5</text>
<line x1="70" x2="935" y1="312.00" y2="312.00" stroke="#27314e" stroke-width="1"/>
<text x="58" y="316.00" text-anchor="end" fill="#93a4c3" font-family="Inter, Arial, sans-serif" font-size="12">12</text>
<line x1="70" x2="935" y1="249.00" y2="249.00" stroke="#27314e" stroke-width="1"/>
<text x="58" y="253.00" text-anchor="end" fill="#93a4c3" font-family="Inter, Arial, sans-serif" font-size="12">20</text>
<line x1="70" x2="935" y1="186.00" y2="186.00" stroke="#27314e" stroke-width="1"/>
<text x="58" y="190.00" text-anchor="end" fill="#93a4c3" font-family="Inter, Arial, sans-serif" font-size="12">27</text>
<line x1="70" x2="935" y1="123.00" y2="123.00" stroke="#27314e" stroke-width="1"/>
<text x="58" y="127.00" text-anchor="end" fill="#93a4c3" font-family="Inter, Arial, sans-serif" font-size="12">34</text>
<line x1="70" x2="935" y1="60.00" y2="60.00" stroke="#27314e" stroke-width="1"/>
<text x="58" y="64.00" text-anchor="end" fill="#93a4c3" font-family="Inter, Arial, sans-serif" font-size="12">41</text>
<text x="70.00" y="412" text-anchor="middle" fill="#93a4c3" font-family="Inter, Arial, sans-serif" font-size="12">2025-09-18</text>
<text x="502.50" y="412" text-anchor="middle" fill="#93a4c3" font-family="Inter, Arial, sans-serif" font-size="12">2025-10-21</text>
<text x="935.00" y="412" text-anchor="middle" fill="#93a4c3" font-family="Inter, Arial, sans-serif" font-size="12">2025-11-21</text>
<path d="M 70.00 304.04 L 89.66 317.59 L 109.32 304.74 L 128.98 303.26 L 148.64 301.53 L 168.30 245.07 L 187.95 271.56 L 207.61 273.47 L 227.27 287.02 L 246.93 330.79 L 266.59 344.52 L 286.25 317.42 L 305.91 329.40 L 325.57 301.00 L 345.23 309.26 L 364.89 284.33 L 384.55 132.87 L 404.20 191.84 L 423.86 233.87 L 443.52 115.84 L 463.18 215.11 L 482.84 375.00 L 502.50 344.60 L 522.16 316.64 L 541.82 256.28 L 561.48 296.84 L 581.14 316.81 L 600.80 332.62 L 620.45 295.53 L 640.11 283.37 L 659.77 261.05 L 679.43 211.46 L 699.09 146.33 L 718.75 200.87 L 738.41 202.00 L 758.07 209.12 L 777.73 282.77 L 797.39 327.23 L 817.05 230.31 L 836.70 261.66 L 856.36 182.28 L 876.02 60.00 L 895.68 71.90 L 915.34 67.03 L 935.00 158.14" fill="none" stroke="#69a7ff" stroke-width="4" stroke-linecap="round" stroke-linejoin="round"/>
<circle cx="935.00" cy="158.14" r="6" fill="#69a7ff"/>
</svg>