<svg xmlns="http://www.w3.org/2000/svg" width="960" height="430" viewBox="0 0 960 430" role="img" aria-label="Composite score history">
<rect width="100%" height="100%" fill="#0b1020" rx="20"/>
<text x="70" y="32" fill="#f5f7fb" font-family="Inter, Arial, sans-serif" font-size="24" font-weight="700">Composite score history</text>
<text x="70" y="52" fill="#93a4c3" font-family="Inter, Arial, sans-serif" font-size="13">Trailing 85 sessions through 2025-11-21</text>
<line x1="70" x2="935" y1="375.00" y2="375.00" stroke="#27314e" stroke-width="1"/>
<text x="58" y="379.00" text-anchor="end" fill="#93a4c3" font-family="Inter, Arial, sans-serif" font-size="12">5</text>
<line x1="70" x2="935" y1="312.00" y2="312.00" stroke="#27314e" stroke-width="1"/>
<text x="58" y="316.00" text-anchor="end" fill="#93a4c3" font-family="Inter, Arial, sans-serif" font-size="12">12</text>
<line x1="70" x2="935" y1="249.00" y2="249.00" stroke="#27314e" stroke-width="1"/>
<text x="58" y="253.00" text-anchor="end" fill="#93a4c3" font-family="Inter, Arial, sans-serif" font-size="12">20</text>
<line x1="70" x2="935" y1="186.00" y2="186.00" stroke="#27314e" stroke-width="1"/>
<text x="58" y="190.00" text-anchor="end" fill="#93a4c3" font-family="Inter, Arial, sans-serif" font-size="12">27</text>
<line x1="70" x2="935" y1="123.00" y2="123.00" stroke="#27314e" stroke-width="1"/>
<text x="58" y="127.00" text-anchor="end" fill="#93a4c3" font-family="Inter, Arial, sans-serif" font-size="12">34</text>
<line x1="70" x2="935" y1="60.00" y2="60.00" stroke="#27314e" stroke-width="1"/>
<text x="58" y="64.00" text-anchor="end" fill="#93a4c3" font-family="Inter, Arial, sans-serif" font-size="12">41</text>
<text x="70.00" y="412" text-anchor="middle" fill="#93a4c3" font-family="Inter, Arial, sans-serif" font-size="12">2025-07-23</text>
<text x="502.50" y="412" text-anchor="middle" fill="#93a4c3" font-family="Inter, Arial, sans-serif" font-size="12">2025-09-22</text>
<text x="935.00" y="412" text-anchor="middle" fill="#93a4c3" font-family="Inter, Arial, sans-serif" font-size="12">2025-11-21</text>
<path d="M 70.00 288.24 L 80.30 243.42 L 90.60 272.17 L 100.89 271.91 L 111.19 261.92 L 121.49 241.08 L 131.79 235.61 L 142.08 127.13 L 152.38 227.97 L 162.68 220.93 L 172.98 272.52 L 183.27 293.71 L 193.57 287.63 L 203.87 255.67 L 214.17 344.86 L 224.46 341.65 L 234.76 329.58 L 245.06 320.72 L 255.36 322.02 L 265.65 260.53 L 275.95 217.80 L 286.25 183.15 L 296.55 281.90 L 306.85 257.23 L 317.14 271.74 L 327.44 286.33 L 337.74 326.19 L 348.04 287.46 L 358.33 248.46 L 368.63 268.78 L 378.93 308.73 L 389.23 293.80 L 399.52 328.10 L 409.82 344.26 L 420.12 340.17 L 430.42 345.82 L 440.71 330.45 L 451.01 327.75 L 461.31 326.36 L 471.61 319.07 L 481.90 280.25 L 492.20 319.94 L 502.50 295.36 L 512.80 309.95 L 523.10 294.67 L 533.39 245.07 L 543.69 271.56 L 553.99 273.47 L 564.29 287.02 L 574.58 330.79 L 584.88 344.52 L 595.18 317.42 L 605.48 329.40 L 615.77 301.00 L 626.07 309.26 L 636.37 284.33 L 646.67 132.87 L 656.96 191.84 L 667.26 233.87 L 677.56 115.84 L 687.86 215.11 L 698.15 375.00 L 708.45 344.60 L 718.75 316.64 L 729.05 256.28 L 739.35 296.84 L 749.64 316.81 L 759.94 332.62 L 770.24 295.53 L 780.54 283.37 L 790.83 261.05 L 801.13 211.46 L 811.43 146.33 L 821.73 200.87 L 832.02 202.00 L 842.32 209.12 L 852.62 282.77 L 862.92 327.23 L 873.21 230.31 L 883.51 261.66 L 893.81 182.28 L 904.11 60.00 L 914.40 71.90 L 924.70 67.03 L 935.00 158.14" fill="none" stroke="#69a7ff" stroke-width="4" stroke-linecap="round" stroke-linejoin="round"/>
<circle cx="935.00" cy="158.14" r="6" fill="#69a7ff"/>
</svg>