<svg xmlns="http://www.w3.org/2000/svg" width="960" height="430" viewBox="0 0 960 430" role="img" aria-label="Composite score history">
<rect width="100%" height="100%" fill="#0b1020" rx="20"/>
<text x="70" y="32" fill="#f5f7fb" font-family="Inter, Arial, sans-serif" font-size="24" font-weight="700">Composite score history</text>
<text x="70" y="52" fill="#93a4c3" font-family="Inter, Arial, sans-serif" font-size="13">Trailing 71 sessions through 2025-11-21</text>
<line x1="70" x2="935" y1="375.00" y2="375.00" stroke="#27314e" stroke-width="1"/>
<text x="58" y="379.00" text-anchor="end" fill="#93a4c3" font-family="Inter, Arial, sans-serif" font-size="12">5</text>
<line x1="70" x2="935" y1="312.00" y2="312.00" stroke="#27314e" stroke-width="1"/>
<text x="58" y="316.00" text-anchor="end" fill="#93a4c3" font-family="Inter, Arial, sans-serif" font-size="12">12</text>
<line x1="70" x2="935" y1="249.00" y2="249.00" stroke="#27314e" stroke-width="1"/>
<text x="58" y="253.00" text-anchor="end" fill="#93a4c3" font-family="Inter, Arial, sans-serif" font-size="12">20</text>
<line x1="70" x2="935" y1="186.00" y2="186.00" stroke="#27314e" stroke-width="1"/>
<text x="58" y="190.00" text-anchor="end" fill="#93a4c3" font-family="Inter, Arial, sans-serif" font-size="12">27</text>
<line x1="70" x2="935" y1="123.00" y2="123.00" stroke="#27314e" stroke-width="1"/>
<text x="58" y="127.00" text-anchor="end" fill="#93a4c3" font-family="Inter, Arial, sans-serif" font-size="12">34</text>
<line x1="70" x2="935" y1="60.00" y2="60.00" stroke="#27314e" stroke-width="1"/>
<text x="58" y="64.00" text-anchor="end" fill="#93a4c3" font-family="Inter, Arial, sans-serif" font-size="12">41</text>
<text x="70.00" y="412" text-anchor="middle" fill="#93a4c3" font-family="Inter, Arial, sans-serif" font-size="12">2025-08-12</text>
<text x="502.50" y="412" text-anchor="middle" fill="#93a4c3" font-family="Inter, Arial, sans-serif" font-size="12">2025-10-01</text>
<text x="935.00" y="412" text-anchor="middle" fill="#93a4c3" font-family="Inter, Arial, sans-serif" font-size="12">2025-11-21</text>
<path d="M 70.00 303.00 L 82.36 315.77 L 94.71 301.09 L 107.07 288.24 L 119.43 281.38 L 131.79 260.53 L 144.14 217.80 L 156.50 183.15 L 168.86 281.90 L 181.21 257.23 L 193.57 271.74 L 205.93 286.33 L 218.29 326.19 L 230.64 287.46 L 243.00 248.46 L 255.36 268.78 L 267.71 308.73 L 280.07 293.80 L 292.43 328.10 L 304.79 344.26 L 317.14 340.17 L 329.50 345.82 L 341.86 330.45 L 354.21 327.75 L 366.57 326.36 L 378.93 319.07 L 391.29 280.25 L 403.64 319.94 L 416.00 295.36 L 428.36 309.95 L 440.71 294.67 L 453.07 245.07 L 465.43 271.56 L 477.79 273.47 L 490.14 287.02 L 502.50 330.79 L 514.86 344.52 L 527.21 317.42 L 539.57 329.40 L 551.93 301.00 L 564.29 309.26 L 576.64 284.33 L 589.00 132.87 L 601.36 191.84 L 613.71 233.87 L 626.07 115.84 L 638.43 215.11 L 650.79 375.00 L 663.14 344.60 L 675.50 316.64 L 687.86 256.28 L 700.21 296.84 L 712.57 316.81 L 724.93 332.62 L 737.29 295.53 L 749.64 283.37 L 762.00 261.05 L 774.36 211.46 L 786.71 146.33 L 799.07 200.87 L 811.43 202.00 L 823.79 209.12 L 836.14 282.77 L 848.50 327.23 L 860.86 230.31 L 873.21 261.66 L 885.57 182.28 L 897.93 60.00 L 910.29 71.90 L 922.64 67.03 L 935.00 158.14" fill="none" stroke="#69a7ff" stroke-width="4" stroke-linecap="round" stroke-linejoin="round"/>
<circle cx="935.00" cy="158.14" r="6" fill="#69a7ff"/>
</svg>