<svg xmlns="http://www.w3.org/2000/svg" width="960" height="430" viewBox="0 0 960 430" role="img" aria-label="Composite score history">
<rect width="100%" height="100%" fill="#0b1020" rx="20"/>
<text x="70" y="32" fill="#f5f7fb" font-family="Inter, Arial, sans-serif" font-size="24" font-weight="700">Composite score history</text>
<text x="70" y="52" fill="#93a4c3" font-family="Inter, Arial, sans-serif" font-size="13">Trailing 74 sessions through 2025-11-21</text>
<line x1="70" x2="935" y1="375.00" y2="375.00" stroke="#27314e" stroke-width="1"/>
<text x="58" y="379.00" text-anchor="end" fill="#93a4c3" font-family="Inter, Arial, sans-serif" font-size="12">5</text>
<line x1="70" x2="935" y1="312.00" y2="312.00" stroke="#27314e" stroke-width="1"/>
<text x="58" y="316.00" text-anchor="end" fill="#93a4c3" font-family="Inter, Arial, sans-serif" font-size="12">12</text>
<line x1="70" x2="935" y1="249.00" y2="249.00" stroke="#27314e" stroke-width="1"/>
<text x="58" y="253.00" text-anchor="end" fill="#93a4c3" font-family="Inter, Arial, sans-serif" font-size="12">20</text>
<line x1="70" x2="935" y1="186.00" y2="186.00" stroke="#27314e" stroke-width="1"/>
<text x="58" y="190.00" text-anchor="end" fill="#93a4c3" font-family="Inter, Arial, sans-serif" font-size="12">27</text>
<line x1="70" x2="935" y1="123.00" y2="123.00" stroke="#27314e" stroke-width="1"/>
<text x="58" y="127.00" text-anchor="end" fill="#93a4c3" font-family="Inter, Arial, sans-serif" font-size="12">34</text>
<line x1="70" x2="935" y1="60.00" y2="60.00" stroke="#27314e" stroke-width="1"/>
<text x="58" y="64.00" text-anchor="end" fill="#93a4c3" font-family="Inter, Arial, sans-serif" font-size="12">41</text>
<text x="70.00" y="412" text-anchor="middle" fill="#93a4c3" font-family="Inter, Arial, sans-serif" font-size="12">2025-08-07</text>
<text x="508.42" y="412" text-anchor="middle" fill="#93a4c3" font-family="Inter, Arial, sans-serif" font-size="12">2025-09-30</text>
<text x="935.00" y="412" text-anchor="middle" fill="#93a4c3" font-family="Inter, Arial, sans-serif" font-size="12">2025-11-21</text>
<path d="M 70.00 293.45 L 81.85 275.30 L 93.70 262.62 L 105.55 330.53 L 117.40 347.82 L 129.25 329.58 L 141.10 320.72 L 152.95 322.02 L 164.79 260.53 L 176.64 217.80 L 188.49 183.15 L 200.34 281.90 L 212.19 257.23 L 224.04 271.74 L 235.89 286.33 L 247.74 326.19 L 259.59 287.46 L 271.44 248.46 L 283.29 268.78 L 295.14 308.73 L 306.99 293.80 L 318.84 328.10 L 330.68 344.26 L 342.53 340.17 L 354.38 345.82 L 366.23 330.45 L 378.08 327.75 L 389.93 326.36 L 401.78 319.07 L 413.63 280.25 L 425.48 319.94 L 437.33 295.36 L 449.18 309.95 L 461.03 294.67 L 472.88 245.07 L 484.73 271.56 L 496.58 273.47 L 508.42 287.02 L 520.27 330.79 L 532.12 344.52 L 543.97 317.42 L 555.82 329.40 L 567.67 301.00 L 579.52 309.26 L 591.37 284.33 L 603.22 132.87 L 615.07 191.84 L 626.92 233.87 L 638.77 115.84 L 650.62 215.11 L 662.47 375.00 L 674.32 344.60 L 686.16 316.64 L 698.01 256.28 L 709.86 296.84 L 721.71 316.81 L 733.56 332.62 L 745.41 295.53 L 757.26 283.37 L 769.11 261.05 L 780.96 211.46 L 792.81 146.33 L 804.66 200.87 L 816.51 202.00 L 828.36 209.12 L 840.21 282.77 L 852.05 327.23 L 863.90 230.31 L 875.75 261.66 L 887.60 182.28 L 899.45 60.00 L 911.30 71.90 L 923.15 67.03 L 935.00 158.14" fill="none" stroke="#69a7ff" stroke-width="4" stroke-linecap="round" stroke-linejoin="round"/>
<circle cx="935.00" cy="158.14" r="6" fill="#69a7ff"/>
</svg>