<svg xmlns="http://www.w3.org/2000/svg" width="960" height="430" viewBox="0 0 960 430" role="img" aria-label="Composite score history">
<rect width="100%" height="100%" fill="#0b1020" rx="20"/>
<text x="70" y="32" fill="#f5f7fb" font-family="Inter, Arial, sans-serif" font-size="24" font-weight="700">Composite score history</text>
<text x="70" y="52" fill="#93a4c3" font-family="Inter, Arial, sans-serif" font-size="13">Trailing 83 sessions through 2025-11-21</text>
<line x1="70" x2="935" y1="375.00" y2="375.00" stroke="#27314e" stroke-width="1"/>
<text x="58" y="379.00" text-anchor="end" fill="#93a4c3" font-family="Inter, Arial, sans-serif" font-size="12">5</text>
<line x1="70" x2="935" y1="312.00" y2="312.00" stroke="#27314e" stroke-width="1"/>
<text x="58" y="316.00" text-anchor="end" fill="#93a4c3" font-family="Inter, Arial, sans-serif" font-size="12">12</text>
<line x1="70" x2="935" y1="249.00" y2="249.00" stroke="#27314e" stroke-width="1"/>
<text x="58" y="253.00" text-anchor="end" fill="#93a4c3" font-family="Inter, Arial, sans-serif" font-size="12">20</text>
<line x1="70" x2="935" y1="186.00" y2="186.00" stroke="#27314e" stroke-width="1"/>
<text x="58" y="190.00" text-anchor="end" fill="#93a4c3" font-family="Inter, Arial, sans-serif" font-size="12">27</text>
<line x1="70" x2="935" y1="123.00" y2="123.00" stroke="#27314e" stroke-width="1"/>
<text x="58" y="127.00" text-anchor="end" fill="#93a4c3" font-family="Inter, Arial, sans-serif" font-size="12">34</text>
<line x1="70" x2="935" y1="60.00" y2="60.00" stroke="#27314e" stroke-width="1"/>
<text x="58" y="64.00" text-anchor="end" fill="#93a4c3" font-family="Inter, Arial, sans-serif" font-size="12">41</text>
<text x="70.00" y="412" text-anchor="middle" fill="#93a4c3" font-family="Inter, Arial, sans-serif" font-size="12">2025-07-25</text>
<text x="502.50" y="412" text-anchor="middle" fill="#93a4c3" font-family="Inter, Arial, sans-serif" font-size="12">2025-09-23</text>
<text x="935.00" y="412" text-anchor="middle" fill="#93a4c3" font-family="Inter, Arial, sans-serif" font-size="12">2025-11-21</text>
<path d="M 70.00 285.46 L 80.55 284.42 L 91.10 255.15 L 101.65 242.03 L 112.20 214.76 L 122.74 127.13 L 133.29 227.97 L 143.84 220.93 L 154.39 272.52 L 164.94 293.71 L 175.49 287.63 L 186.04 255.67 L 196.59 344.86 L 207.13 341.65 L 217.68 329.58 L 228.23 320.72 L 238.78 322.02 L 249.33 260.53 L 259.88 217.80 L 270.43 183.15 L 280.98 281.90 L 291.52 257.23 L 302.07 271.74 L 312.62 286.33 L 323.17 326.19 L 333.72 287.46 L 344.27 248.46 L 354.82 268.78 L 365.37 308.73 L 375.91 293.80 L 386.46 328.10 L 397.01 344.26 L 407.56 340.17 L 418.11 345.82 L 428.66 330.45 L 439.21 327.75 L 449.76 326.36 L 460.30 319.07 L 470.85 280.25 L 481.40 319.94 L 491.95 295.36 L 502.50 309.95 L 513.05 294.67 L 523.60 245.07 L 534.15 271.56 L 544.70 273.47 L 555.24 287.02 L 565.79 330.79 L 576.34 344.52 L 586.89 317.42 L 597.44 329.40 L 607.99 301.00 L 618.54 309.26 L 629.09 284.33 L 639.63 132.87 L 650.18 191.84 L 660.73 233.87 L 671.28 115.84 L 681.83 215.11 L 692.38 375.00 L 702.93 344.60 L 713.48 316.64 L 724.02 256.28 L 734.57 296.84 L 745.12 316.81 L 755.67 332.62 L 766.22 295.53 L 776.77 283.37 L 787.32 261.05 L 797.87 211.46 L 808.41 146.33 L 818.96 200.87 L 829.51 202.00 L 840.06 209.12 L 850.61 282.77 L 861.16 327.23 L 871.71 230.31 L 882.26 261.66 L 892.80 182.28 L 903.35 60.00 L 913.90 71.90 L 924.45 67.03 L 935.00 158.14" fill="none" stroke="#69a7ff" stroke-width="4" stroke-linecap="round" stroke-linejoin="round"/>
<circle cx="935.00" cy="158.14" r="6" fill="#69a7ff"/>
</svg>