<svg xmlns="http://www.w3.org/2000/svg" width="960" height="430" viewBox="0 0 960 430" role="img" aria-label="Composite score history">
<rect width="100%" height="100%" fill="#0b1020" rx="20"/>
<text x="70" y="32" fill="#f5f7fb" font-family="Inter, Arial, sans-serif" font-size="24" font-weight="700">Composite score history</text>
<text x="70" y="52" fill="#93a4c3" font-family="Inter, Arial, sans-serif" font-size="13">Trailing 89 sessions through 2025-11-21</text>
<line x1="70" x2="935" y1="375.00" y2="375.00" stroke="#27314e" stroke-width="1"/>
<text x="58" y="379.00" text-anchor="end" fill="#93a4c3" font-family="Inter, Arial, sans-serif" font-size="12">12</text>
<line x1="70" x2="935" y1="312.00" y2="312.00" stroke="#27314e" stroke-width="1"/>
<text x="58" y="316.00" text-anchor="end" fill="#93a4c3" font-family="Inter, Arial, sans-serif" font-size="12">18</text>
<line x1="70" x2="935" y1="249.00" y2="249.00" stroke="#27314e" stroke-width="1"/>
<text x="58" y="253.00" text-anchor="end" fill="#93a4c3" font-family="Inter, Arial, sans-serif" font-size="12">24</text>
<line x1="70" x2="935" y1="186.00" y2="186.00" stroke="#27314e" stroke-width="1"/>
<text x="58" y="190.00" text-anchor="end" fill="#93a4c3" font-family="Inter, Arial, sans-serif" font-size="12">29</text>
<line x1="70" x2="935" y1="123.00" y2="123.00" stroke="#27314e" stroke-width="1"/>
<text x="58" y="127.00" text-anchor="end" fill="#93a4c3" font-family="Inter, Arial, sans-serif" font-size="12">35</text>
<line x1="70" x2="935" y1="60.00" y2="60.00" stroke="#27314e" stroke-width="1"/>
<text x="58" y="64.00" text-anchor="end" fill="#93a4c3" font-family="Inter, Arial, sans-serif" font-size="12">41</text>
<text x="70.00" y="412" text-anchor="middle" fill="#93a4c3" font-family="Inter, Arial, sans-serif" font-size="12">2025-07-17</text>
<text x="502.50" y="412" text-anchor="middle" fill="#93a4c3" font-family="Inter, Arial, sans-serif" font-size="12">2025-09-18</text>
<text x="935.00" y="412" text-anchor="middle" fill="#93a4c3" font-family="Inter, Arial, sans-serif" font-size="12">2025-11-21</text>
<path d="M 70.00 313.55 L 79.83 320.89 L 89.66 321.84 L 99.49 328.97 L 109.32 339.39 L 119.15 327.48 L 128.98 323.23 L 138.81 309.72 L 148.64 311.43 L 158.47 279.96 L 168.30 274.96 L 178.12 142.28 L 187.95 265.61 L 197.78 256.99 L 207.61 320.14 L 217.44 345.76 L 227.27 274.22 L 237.10 281.23 L 246.93 346.83 L 256.76 353.95 L 266.59 336.09 L 276.42 354.06 L 286.25 349.17 L 296.08 305.47 L 305.91 253.17 L 315.74 210.75 L 325.57 324.61 L 335.40 301.43 L 345.23 296.54 L 355.06 301.43 L 364.89 330.88 L 374.72 338.43 L 384.55 290.70 L 394.38 315.57 L 404.20 356.08 L 414.03 346.19 L 423.86 373.83 L 433.69 367.77 L 443.52 368.41 L 453.35 375.00 L 463.18 348.95 L 473.01 338.64 L 482.84 347.68 L 492.67 349.27 L 502.50 311.64 L 512.33 345.87 L 522.16 316.64 L 531.99 345.87 L 541.82 332.16 L 551.65 286.55 L 561.48 318.97 L 571.31 321.31 L 581.14 325.25 L 590.97 362.24 L 600.80 363.73 L 610.62 346.30 L 620.45 358.20 L 630.28 344.60 L 640.11 348.21 L 649.94 326.73 L 659.77 149.20 L 669.60 221.27 L 679.43 272.83 L 689.26 128.36 L 699.09 249.87 L 708.92 371.49 L 718.75 371.92 L 728.58 362.88 L 738.41 256.46 L 748.24 299.09 L 758.07 319.19 L 767.90 332.26 L 777.73 272.41 L 787.56 300.37 L 797.39 287.19 L 807.22 245.41 L 817.05 165.67 L 826.88 232.44 L 836.70 233.82 L 846.53 242.54 L 856.36 332.69 L 866.19 355.97 L 876.02 268.48 L 885.85 301.43 L 895.68 209.69 L 905.51 60.00 L 915.34 74.56 L 925.17 68.61 L 935.00 180.13" fill="none" stroke="#69a7ff" stroke-width="4" stroke-linecap="round" stroke-linejoin="round"/>
<circle cx="935.00" cy="180.13" r="6" fill="#69a7ff"/>
<text x="927.00" y="168.13" text-anchor="end" fill="#f5f7fb" font-family="Inter, Arial, sans-serif" font-size="12" font-weight="600">30.01</text>
</svg>