<svg xmlns="http://www.w3.org/2000/svg" width="960" height="430" viewBox="0 0 960 430" role="img" aria-label="Composite score history">
<rect width="100%" height="100%" fill="#0b1020" rx="20"/>
<text x="70" y="32" fill="#f5f7fb" font-family="Inter, Arial, sans-serif" font-size="24" font-weight="700">Composite score history</text>
<text x="70" y="52" fill="#93a4c3" font-family="Inter, Arial, sans-serif" font-size="13">Trailing 73 sessions through 2025-11-21</text>
<line x1="70" x2="935" y1="375.00" y2="375.00" stroke="#27314e" stroke-width="1"/>
<text x="58" y="379.00" text-anchor="end" fill="#93a4c3" font-family="Inter, Arial, sans-serif" font-size="12">5</text>
<line x1="70" x2="935" y1="312.00" y2="312.00" stroke="#27314e" stroke-width="1"/>
<text x="58" y="316.00" text-anchor="end" fill="#93a4c3" font-family="Inter, Arial, sans-serif" font-size="12">12</text>
<line x1="70" x2="935" y1="249.00" y2="249.00" stroke="#27314e" stroke-width="1"/>
<text x="58" y="253.00" text-anchor="end" fill="#93a4c3" font-family="Inter, Arial, sans-serif" font-size="12">20</text>
<line x1="70" x2="935" y1="186.00" y2="186.00" stroke="#27314e" stroke-width="1"/>
<text x="58" y="190.00" text-anchor="end" fill="#93a4c3" font-family="Inter, Arial, sans-serif" font-size="12">27</text>
<line x1="70" x2="935" y1="123.00" y2="123.00" stroke="#27314e" stroke-width="1"/>
<text x="58" y="127.00" text-anchor="end" fill="#93a4c3" font-family="Inter, Arial, sans-serif" font-size="12">34</text>
<line x1="70" x2="935" y1="60.00" y2="60.00" stroke="#27314e" stroke-width="1"/>
<text x="58" y="64.00" text-anchor="end" fill="#93a4c3" font-family="Inter, Arial, sans-serif" font-size="12">41</text>
<text x="70.00" y="412" text-anchor="middle" fill="#93a4c3" font-family="Inter, Arial, sans-serif" font-size="12">2025-08-08</text>
<text x="502.50" y="412" text-anchor="middle" fill="#93a4c3" font-family="Inter, Arial, sans-serif" font-size="12">2025-09-30</text>
<text x="935.00" y="412" text-anchor="middle" fill="#93a4c3" font-family="Inter, Arial, sans-serif" font-size="12">2025-11-21</text>
<path d="M 70.00 293.97 L 82.01 266.96 L 94.03 322.20 L 106.04 335.05 L 118.06 328.10 L 130.07 320.72 L 142.08 322.02 L 154.10 260.53 L 166.11 217.80 L 178.12 183.15 L 190.14 281.90 L 202.15 257.23 L 214.17 271.74 L 226.18 286.33 L 238.19 326.19 L 250.21 287.46 L 262.22 248.46 L 274.24 268.78 L 286.25 308.73 L 298.26 293.80 L 310.28 328.10 L 322.29 344.26 L 334.31 340.17 L 346.32 345.82 L 358.33 330.45 L 370.35 327.75 L 382.36 326.36 L 394.38 319.07 L 406.39 280.25 L 418.40 319.94 L 430.42 295.36 L 442.43 309.95 L 454.44 294.67 L 466.46 245.07 L 478.47 271.56 L 490.49 273.47 L 502.50 287.02 L 514.51 330.79 L 526.53 344.52 L 538.54 317.42 L 550.56 329.40 L 562.57 301.00 L 574.58 309.26 L 586.60 284.33 L 598.61 132.87 L 610.62 191.84 L 622.64 233.87 L 634.65 115.84 L 646.67 215.11 L 658.68 375.00 L 670.69 344.60 L 682.71 316.64 L 694.72 256.28 L 706.74 296.84 L 718.75 316.81 L 730.76 332.62 L 742.78 295.53 L 754.79 283.37 L 766.81 261.05 L 778.82 211.46 L 790.83 146.33 L 802.85 200.87 L 814.86 202.00 L 826.88 209.12 L 838.89 282.77 L 850.90 327.23 L 862.92 230.31 L 874.93 261.66 L 886.94 182.28 L 898.96 60.00 L 910.97 71.90 L 922.99 67.03 L 935.00 158.14" fill="none" stroke="#69a7ff" stroke-width="4" stroke-linecap="round" stroke-linejoin="round"/>
<circle cx="935.00" cy="158.14" r="6" fill="#69a7ff"/>
</svg>