<svg xmlns="http://www.w3.org/2000/svg" width="960" height="430" viewBox="0 0 960 430" role="img" aria-label="Composite score history">
<rect width="100%" height="100%" fill="#0b1020" rx="20"/>
<text x="70" y="32" fill="#f5f7fb" font-family="Inter, Arial, sans-serif" font-size="24" font-weight="700">Composite score history</text>
<text x="70" y="52" fill="#93a4c3" font-family="Inter, Arial, sans-serif" font-size="13">Trailing 61 sessions through 2025-11-21</text>
<line x1="70" x2="935" y1="375.00" y2="375.00" stroke="#27314e" stroke-width="1"/>
<text x="58" y="379.00" text-anchor="end" fill="#93a4c3" font-family="Inter, Arial, sans-serif" font-size="12">5</text>
<line x1="70" x2="935" y1="312.00" y2="312.00" stroke="#27314e" stroke-width="1"/>
<text x="58" y="316.00" text-anchor="end" fill="#93a4c3" font-family="Inter, Arial, sans-serif" font-size="12">12</text>
<line x1="70" x2="935" y1="249.00" y2="249.00" stroke="#27314e" stroke-width="1"/>
<text x="58" y="253.00" text-anchor="end" fill="#93a4c3" font-family="Inter, Arial, sans-serif" font-size="12">20</text>
<line x1="70" x2="935" y1="186.00" y2="186.00" stroke="#27314e" stroke-width="1"/>
<text x="58" y="190.00" text-anchor="end" fill="#93a4c3" font-family="Inter, Arial, sans-serif" font-size="12">27</text>
<line x1="70" x2="935" y1="123.00" y2="123.00" stroke="#27314e" stroke-width="1"/>
<text x="58" y="127.00" text-anchor="end" fill="#93a4c3" font-family="Inter, Arial, sans-serif" font-size="12">34</text>
<line x1="70" x2="935" y1="60.00" y2="60.00" stroke="#27314e" stroke-width="1"/>
<text x="58" y="64.00" text-anchor="end" fill="#93a4c3" font-family="Inter, Arial, sans-serif" font-size="12">41</text>
<text x="70.00" y="412" text-anchor="middle" fill="#93a4c3" font-family="Inter, Arial, sans-serif" font-size="12">2025-08-26</text>
<text x="502.50" y="412" text-anchor="middle" fill="#93a4c3" font-family="Inter, Arial, sans-serif" font-size="12">2025-10-08</text>
<text x="935.00" y="412" text-anchor="middle" fill="#93a4c3" font-family="Inter, Arial, sans-serif" font-size="12">2025-11-21</text>
<path d="M 70.00 301.00 L 84.42 303.96 L 98.83 311.60 L 113.25 291.36 L 127.67 211.90 L 142.08 268.78 L 156.50 308.73 L 170.92 293.80 L 185.33 328.10 L 199.75 344.26 L 214.17 340.17 L 228.58 345.82 L 243.00 330.45 L 257.42 327.75 L 271.83 326.36 L 286.25 319.07 L 300.67 280.25 L 315.08 319.94 L 329.50 295.36 L 343.92 309.95 L 358.33 294.67 L 372.75 245.07 L 387.17 271.56 L 401.58 273.47 L 416.00 287.02 L 430.42 330.79 L 444.83 344.52 L 459.25 317.42 L 473.67 329.40 L 488.08 301.00 L 502.50 309.26 L 516.92 284.33 L 531.33 132.87 L 545.75 191.84 L 560.17 233.87 L 574.58 115.84 L 589.00 215.11 L 603.42 375.00 L 617.83 344.60 L 632.25 316.64 L 646.67 256.28 L 661.08 296.84 L 675.50 316.81 L 689.92 332.62 L 704.33 295.53 L 718.75 283.37 L 733.17 261.05 L 747.58 211.46 L 762.00 146.33 L 776.42 200.87 L 790.83 202.00 L 805.25 209.12 L 819.67 282.77 L 834.08 327.23 L 848.50 230.31 L 862.92 261.66 L 877.33 182.28 L 891.75 60.00 L 906.17 71.90 L 920.58 67.03 L 935.00 158.14" fill="none" stroke="#69a7ff" stroke-width="4" stroke-linecap="round" stroke-linejoin="round"/>
<circle cx="935.00" cy="158.14" r="6" fill="#69a7ff"/>
</svg>