<svg xmlns="http://www.w3.org/2000/svg" width="960" height="430" viewBox="0 0 960 430" role="img" aria-label="Composite score history">
<rect width="100%" height="100%" fill="#0b1020" rx="20"/>
<text x="70" y="32" fill="#f5f7fb" font-family="Inter, Arial, sans-serif" font-size="24" font-weight="700">Composite score history</text>
<text x="70" y="52" fill="#93a4c3" font-family="Inter, Arial, sans-serif" font-size="13">Trailing 70 sessions through 2026-02-13</text>
<line x1="70" x2="935" y1="375.00" y2="375.00" stroke="#27314e" stroke-width="1"/>
<text x="58" y="379.00" text-anchor="end" fill="#93a4c3" font-family="Inter, Arial, sans-serif" font-size="12">0</text>
<line x1="70" x2="935" y1="312.00" y2="312.00" stroke="#27314e" stroke-width="1"/>
<text x="58" y="316.00" text-anchor="end" fill="#93a4c3" font-family="Inter, Arial, sans-serif" font-size="12">8</text>
<line x1="70" x2="935" y1="249.00" y2="249.00" stroke="#27314e" stroke-width="1"/>
<text x="58" y="253.00" text-anchor="end" fill="#93a4c3" font-family="Inter, Arial, sans-serif" font-size="12">17</text>
<line x1="70" x2="935" y1="186.00" y2="186.00" stroke="#27314e" stroke-width="1"/>
<text x="58" y="190.00" text-anchor="end" fill="#93a4c3" font-family="Inter, Arial, sans-serif" font-size="12">25</text>
<line x1="70" x2="935" y1="123.00" y2="123.00" stroke="#27314e" stroke-width="1"/>
<text x="58" y="127.00" text-anchor="end" fill="#93a4c3" font-family="Inter, Arial, sans-serif" font-size="12">33</text>
<line x1="70" x2="935" y1="60.00" y2="60.00" stroke="#27314e" stroke-width="1"/>
<text x="58" y="64.00" text-anchor="end" fill="#93a4c3" font-family="Inter, Arial, sans-serif" font-size="12">41</text>
<text x="70.00" y="412" text-anchor="middle" fill="#93a4c3" font-family="Inter, Arial, sans-serif" font-size="12">2025-11-03</text>
<text x="508.77" y="412" text-anchor="middle" fill="#93a4c3" font-family="Inter, Arial, sans-serif" font-size="12">2025-12-24</text>
<text x="935.00" y="412" text-anchor="middle" fill="#93a4c3" font-family="Inter, Arial, sans-serif" font-size="12">2026-02-13</text>
<path d="M 70.00 267.64 L 82.54 203.58 L 95.07 217.39 L 107.61 170.26 L 120.14 182.61 L 132.68 255.59 L 145.22 294.63 L 157.75 209.53 L 170.29 237.06 L 182.83 167.36 L 195.36 60.00 L 207.90 70.45 L 220.43 66.18 L 232.97 146.17 L 245.51 277.24 L 258.04 326.96 L 270.58 337.79 L 283.12 375.00 L 295.65 333.06 L 308.19 308.20 L 320.72 290.89 L 333.26 264.74 L 345.80 247.28 L 358.33 278.92 L 370.87 241.33 L 383.41 272.67 L 395.94 307.67 L 408.48 264.05 L 421.01 273.13 L 433.55 273.58 L 446.09 183.07 L 458.62 209.46 L 471.16 304.77 L 483.70 329.32 L 496.23 342.21 L 508.77 374.85 L 521.30 360.82 L 533.84 332.91 L 546.38 310.11 L 558.91 254.37 L 571.45 241.41 L 583.99 250.25 L 596.52 274.96 L 609.06 271.37 L 621.59 287.00 L 634.13 289.90 L 646.67 256.43 L 659.20 234.08 L 671.74 237.06 L 684.28 246.21 L 696.81 211.90 L 709.35 84.17 L 721.88 172.78 L 734.42 214.11 L 746.96 200.15 L 759.49 248.88 L 772.03 293.33 L 784.57 261.99 L 797.10 228.59 L 809.64 226.46 L 822.17 237.44 L 834.71 170.49 L 847.25 173.85 L 859.78 111.24 L 872.32 253.00 L 884.86 248.65 L 897.39 271.37 L 909.93 276.02 L 922.46 258.10 L 935.00 183.61" fill="none" stroke="#69a7ff" stroke-width="4" stroke-linecap="round" stroke-linejoin="round"/>
<circle cx="935.00" cy="183.61" r="6" fill="#69a7ff"/>
</svg>