<svg xmlns="http://www.w3.org/2000/svg" width="960" height="430" viewBox="0 0 960 430" role="img" aria-label="Composite score history">
<rect width="100%" height="100%" fill="#0b1020" rx="20"/>
<text x="70" y="32" fill="#f5f7fb" font-family="Inter, Arial, sans-serif" font-size="24" font-weight="700">Composite score history</text>
<text x="70" y="52" fill="#93a4c3" font-family="Inter, Arial, sans-serif" font-size="13">Trailing 90 sessions through 2026-02-13</text>
<line x1="70" x2="935" y1="375.00" y2="375.00" stroke="#27314e" stroke-width="1"/>
<text x="58" y="379.00" text-anchor="end" fill="#93a4c3" font-family="Inter, Arial, sans-serif" font-size="12">0</text>
<line x1="70" x2="935" y1="312.00" y2="312.00" stroke="#27314e" stroke-width="1"/>
<text x="58" y="316.00" text-anchor="end" fill="#93a4c3" font-family="Inter, Arial, sans-serif" font-size="12">8</text>
<line x1="70" x2="935" y1="249.00" y2="249.00" stroke="#27314e" stroke-width="1"/>
<text x="58" y="253.00" text-anchor="end" fill="#93a4c3" font-family="Inter, Arial, sans-serif" font-size="12">17</text>
<line x1="70" x2="935" y1="186.00" y2="186.00" stroke="#27314e" stroke-width="1"/>
<text x="58" y="190.00" text-anchor="end" fill="#93a4c3" font-family="Inter, Arial, sans-serif" font-size="12">25</text>
<line x1="70" x2="935" y1="123.00" y2="123.00" stroke="#27314e" stroke-width="1"/>
<text x="58" y="127.00" text-anchor="end" fill="#93a4c3" font-family="Inter, Arial, sans-serif" font-size="12">33</text>
<line x1="70" x2="935" y1="60.00" y2="60.00" stroke="#27314e" stroke-width="1"/>
<text x="58" y="64.00" text-anchor="end" fill="#93a4c3" font-family="Inter, Arial, sans-serif" font-size="12">41</text>
<text x="70.00" y="412" text-anchor="middle" fill="#93a4c3" font-family="Inter, Arial, sans-serif" font-size="12">2025-10-03</text>
<text x="507.36" y="412" text-anchor="middle" fill="#93a4c3" font-family="Inter, Arial, sans-serif" font-size="12">2025-12-10</text>
<text x="935.00" y="412" text-anchor="middle" fill="#93a4c3" font-family="Inter, Arial, sans-serif" font-size="12">2026-02-13</text>
<path d="M 70.00 262.07 L 79.72 263.67 L 89.44 252.46 L 99.16 270.08 L 108.88 256.96 L 118.60 123.98 L 128.31 175.75 L 138.03 212.66 L 147.75 109.03 L 157.47 196.19 L 167.19 336.57 L 176.91 309.88 L 186.63 285.33 L 196.35 232.33 L 206.07 267.94 L 215.79 285.48 L 225.51 299.36 L 235.22 266.80 L 244.94 256.12 L 254.66 236.53 L 264.38 192.98 L 274.10 135.80 L 283.82 183.68 L 293.54 184.67 L 303.26 190.93 L 312.98 255.59 L 322.70 294.63 L 332.42 209.53 L 342.13 237.06 L 351.85 167.36 L 361.57 60.00 L 371.29 70.45 L 381.01 66.18 L 390.73 146.17 L 400.45 277.24 L 410.17 326.96 L 419.89 337.79 L 429.61 375.00 L 439.33 333.06 L 449.04 308.20 L 458.76 290.89 L 468.48 264.74 L 478.20 247.28 L 487.92 278.92 L 497.64 241.33 L 507.36 272.67 L 517.08 307.67 L 526.80 264.05 L 536.52 273.13 L 546.24 273.58 L 555.96 183.07 L 565.67 209.46 L 575.39 304.77 L 585.11 329.32 L 594.83 342.21 L 604.55 374.85 L 614.27 360.82 L 623.99 332.91 L 633.71 310.11 L 643.43 254.37 L 653.15 241.41 L 662.87 250.25 L 672.58 274.96 L 682.30 271.37 L 692.02 287.00 L 701.74 289.90 L 711.46 256.43 L 721.18 234.08 L 730.90 237.06 L 740.62 246.21 L 750.34 211.90 L 760.06 84.17 L 769.78 172.78 L 779.49 214.11 L 789.21 200.15 L 798.93 248.88 L 808.65 293.33 L 818.37 261.99 L 828.09 228.59 L 837.81 226.46 L 847.53 237.44 L 857.25 170.49 L 866.97 173.85 L 876.69 111.24 L 886.40 253.00 L 896.12 248.65 L 905.84 271.37 L 915.56 276.02 L 925.28 258.10 L 935.00 183.61" fill="none" stroke="#69a7ff" stroke-width="4" stroke-linecap="round" stroke-linejoin="round"/>
<circle cx="935.00" cy="183.61" r="6" fill="#69a7ff"/>
</svg>