<svg xmlns="http://www.w3.org/2000/svg" width="960" height="430" viewBox="0 0 960 430" role="img" aria-label="Composite score history">
<rect width="100%" height="100%" fill="#0b1020" rx="20"/>
<text x="70" y="32" fill="#f5f7fb" font-family="Inter, Arial, sans-serif" font-size="24" font-weight="700">Composite score history</text>
<text x="70" y="52" fill="#93a4c3" font-family="Inter, Arial, sans-serif" font-size="13">Trailing 71 sessions through 2026-02-13</text>
<line x1="70" x2="935" y1="375.00" y2="375.00" stroke="#27314e" stroke-width="1"/>
<text x="58" y="379.00" text-anchor="end" fill="#93a4c3" font-family="Inter, Arial, sans-serif" font-size="12">0</text>
<line x1="70" x2="935" y1="312.00" y2="312.00" stroke="#27314e" stroke-width="1"/>
<text x="58" y="316.00" text-anchor="end" fill="#93a4c3" font-family="Inter, Arial, sans-serif" font-size="12">8</text>
<line x1="70" x2="935" y1="249.00" y2="249.00" stroke="#27314e" stroke-width="1"/>
<text x="58" y="253.00" text-anchor="end" fill="#93a4c3" font-family="Inter, Arial, sans-serif" font-size="12">17</text>
<line x1="70" x2="935" y1="186.00" y2="186.00" stroke="#27314e" stroke-width="1"/>
<text x="58" y="190.00" text-anchor="end" fill="#93a4c3" font-family="Inter, Arial, sans-serif" font-size="12">25</text>
<line x1="70" x2="935" y1="123.00" y2="123.00" stroke="#27314e" stroke-width="1"/>
<text x="58" y="127.00" text-anchor="end" fill="#93a4c3" font-family="Inter, Arial, sans-serif" font-size="12">33</text>
<line x1="70" x2="935" y1="60.00" y2="60.00" stroke="#27314e" stroke-width="1"/>
<text x="58" y="64.00" text-anchor="end" fill="#93a4c3" font-family="Inter, Arial, sans-serif" font-size="12">41</text>
<text x="70.00" y="412" text-anchor="middle" fill="#93a4c3" font-family="Inter, Arial, sans-serif" font-size="12">2025-10-31</text>
<text x="502.50" y="412" text-anchor="middle" fill="#93a4c3" font-family="Inter, Arial, sans-serif" font-size="12">2025-12-23</text>
<text x="935.00" y="412" text-anchor="middle" fill="#93a4c3" font-family="Inter, Arial, sans-serif" font-size="12">2026-02-13</text>
<path d="M 70.00 267.18 L 82.36 267.10 L 94.71 212.05 L 107.07 225.77 L 119.43 178.65 L 131.79 190.93 L 144.14 255.59 L 156.50 294.63 L 168.86 209.53 L 181.21 237.06 L 193.57 167.36 L 205.93 60.00 L 218.29 70.45 L 230.64 66.18 L 243.00 146.17 L 255.36 277.24 L 267.71 326.96 L 280.07 337.79 L 292.43 375.00 L 304.79 333.06 L 317.14 308.20 L 329.50 290.89 L 341.86 264.74 L 354.21 247.28 L 366.57 278.92 L 378.93 241.33 L 391.29 272.67 L 403.64 307.67 L 416.00 264.05 L 428.36 273.13 L 440.71 273.58 L 453.07 183.07 L 465.43 209.46 L 477.79 304.77 L 490.14 329.32 L 502.50 342.21 L 514.86 374.85 L 527.21 360.82 L 539.57 332.91 L 551.93 310.11 L 564.29 254.37 L 576.64 241.41 L 589.00 250.25 L 601.36 274.96 L 613.71 271.37 L 626.07 287.00 L 638.43 289.90 L 650.79 256.43 L 663.14 234.08 L 675.50 237.06 L 687.86 246.21 L 700.21 211.90 L 712.57 84.17 L 724.93 172.78 L 737.29 214.11 L 749.64 200.15 L 762.00 248.88 L 774.36 293.33 L 786.71 261.99 L 799.07 228.59 L 811.43 226.46 L 823.79 237.44 L 836.14 170.49 L 848.50 173.85 L 860.86 111.24 L 873.21 253.00 L 885.57 248.65 L 897.93 271.37 L 910.29 276.02 L 922.64 258.10 L 935.00 183.61" fill="none" stroke="#69a7ff" stroke-width="4" stroke-linecap="round" stroke-linejoin="round"/>
<circle cx="935.00" cy="183.61" r="6" fill="#69a7ff"/>
</svg>