<svg xmlns="http://www.w3.org/2000/svg" width="960" height="430" viewBox="0 0 960 430" role="img" aria-label="Composite score history">
<rect width="100%" height="100%" fill="#0b1020" rx="20"/>
<text x="70" y="32" fill="#f5f7fb" font-family="Inter, Arial, sans-serif" font-size="24" font-weight="700">Composite score history</text>
<text x="70" y="52" fill="#93a4c3" font-family="Inter, Arial, sans-serif" font-size="13">Trailing 90 sessions through 2026-02-13</text>
<line x1="70" x2="935" y1="375.00" y2="375.00" stroke="#27314e" stroke-width="1"/>
<text x="58" y="379.00" text-anchor="end" fill="#93a4c3" font-family="Inter, Arial, sans-serif" font-size="12">8</text>
<line x1="70" x2="935" y1="312.00" y2="312.00" stroke="#27314e" stroke-width="1"/>
<text x="58" y="316.00" text-anchor="end" fill="#93a4c3" font-family="Inter, Arial, sans-serif" font-size="12">14</text>
<line x1="70" x2="935" y1="249.00" y2="249.00" stroke="#27314e" stroke-width="1"/>
<text x="58" y="253.00" text-anchor="end" fill="#93a4c3" font-family="Inter, Arial, sans-serif" font-size="12">21</text>
<line x1="70" x2="935" y1="186.00" y2="186.00" stroke="#27314e" stroke-width="1"/>
<text x="58" y="190.00" text-anchor="end" fill="#93a4c3" font-family="Inter, Arial, sans-serif" font-size="12">28</text>
<line x1="70" x2="935" y1="123.00" y2="123.00" stroke="#27314e" stroke-width="1"/>
<text x="58" y="127.00" text-anchor="end" fill="#93a4c3" font-family="Inter, Arial, sans-serif" font-size="12">35</text>
<line x1="70" x2="935" y1="60.00" y2="60.00" stroke="#27314e" stroke-width="1"/>
<text x="58" y="64.00" text-anchor="end" fill="#93a4c3" font-family="Inter, Arial, sans-serif" font-size="12">41</text>
<text x="70.00" y="412" text-anchor="middle" fill="#93a4c3" font-family="Inter, Arial, sans-serif" font-size="12">2025-10-03</text>
<text x="507.36" y="412" text-anchor="middle" fill="#93a4c3" font-family="Inter, Arial, sans-serif" font-size="12">2025-12-10</text>
<text x="935.00" y="412" text-anchor="middle" fill="#93a4c3" font-family="Inter, Arial, sans-serif" font-size="12">2026-02-13</text>
<path d="M 70.00 311.50 L 79.72 321.96 L 89.44 310.00 L 99.16 313.18 L 108.88 294.31 L 118.60 138.35 L 128.31 201.67 L 138.03 246.96 L 147.75 120.05 L 157.47 226.79 L 167.19 333.63 L 176.91 334.00 L 186.63 326.06 L 196.35 232.58 L 206.07 270.03 L 215.79 287.68 L 225.51 299.17 L 235.22 246.59 L 244.94 271.15 L 254.66 259.57 L 264.38 222.87 L 274.10 152.83 L 283.82 211.48 L 293.54 212.69 L 303.26 220.35 L 312.98 299.54 L 322.70 319.99 L 332.42 243.14 L 342.13 272.09 L 351.85 191.49 L 361.57 60.00 L 371.29 72.79 L 381.01 67.56 L 390.73 165.53 L 400.45 314.58 L 410.17 334.56 L 419.89 340.26 L 429.61 345.02 L 439.33 320.27 L 449.04 320.74 L 458.76 313.92 L 468.48 295.53 L 478.20 282.08 L 487.92 316.54 L 497.64 278.25 L 507.36 307.85 L 517.08 348.38 L 526.80 309.91 L 536.52 321.02 L 546.24 321.58 L 555.96 210.64 L 565.67 243.04 L 575.39 357.44 L 585.11 368.56 L 594.83 368.09 L 604.55 372.48 L 614.27 375.00 L 623.99 369.96 L 633.71 360.24 L 643.43 298.05 L 653.15 282.17 L 662.87 293.00 L 672.58 310.00 L 682.30 310.47 L 692.02 312.15 L 701.74 304.77 L 711.46 275.07 L 721.18 266.86 L 730.90 274.89 L 740.62 280.30 L 750.34 246.03 L 760.06 89.60 L 769.78 198.12 L 779.49 248.74 L 789.21 231.65 L 798.93 287.87 L 808.65 283.39 L 818.37 272.65 L 828.09 247.71 L 837.81 256.02 L 847.53 268.54 L 857.25 195.32 L 866.97 199.43 L 876.69 122.76 L 886.40 296.37 L 896.12 291.04 L 905.84 310.75 L 915.56 304.58 L 925.28 290.86 L 935.00 211.29" fill="none" stroke="#69a7ff" stroke-width="4" stroke-linecap="round" stroke-linejoin="round"/>
<circle cx="935.00" cy="211.29" r="6" fill="#69a7ff"/>
<text x="927.00" y="199.29" text-anchor="end" fill="#f5f7fb" font-family="Inter, Arial, sans-serif" font-size="12" font-weight="600">25.11</text>
</svg>