<svg xmlns="http://www.w3.org/2000/svg" width="960" height="430" viewBox="0 0 960 430" role="img" aria-label="Composite score history">
<rect width="100%" height="100%" fill="#0b1020" rx="20"/>
<text x="70" y="32" fill="#f5f7fb" font-family="Inter, Arial, sans-serif" font-size="24" font-weight="700">Composite score history</text>
<text x="70" y="52" fill="#93a4c3" font-family="Inter, Arial, sans-serif" font-size="13">Trailing 36 sessions through 2025-09-03</text>
<line x1="70" x2="935" y1="375.00" y2="375.00" stroke="#27314e" stroke-width="1"/>
<text x="58" y="379.00" text-anchor="end" fill="#93a4c3" font-family="Inter, Arial, sans-serif" font-size="12">2</text>
<line x1="70" x2="935" y1="312.00" y2="312.00" stroke="#27314e" stroke-width="1"/>
<text x="58" y="316.00" text-anchor="end" fill="#93a4c3" font-family="Inter, Arial, sans-serif" font-size="12">7</text>
<line x1="70" x2="935" y1="249.00" y2="249.00" stroke="#27314e" stroke-width="1"/>
<text x="58" y="253.00" text-anchor="end" fill="#93a4c3" font-family="Inter, Arial, sans-serif" font-size="12">11</text>
<line x1="70" x2="935" y1="186.00" y2="186.00" stroke="#27314e" stroke-width="1"/>
<text x="58" y="190.00" text-anchor="end" fill="#93a4c3" font-family="Inter, Arial, sans-serif" font-size="12">15</text>
<line x1="70" x2="935" y1="123.00" y2="123.00" stroke="#27314e" stroke-width="1"/>
<text x="58" y="127.00" text-anchor="end" fill="#93a4c3" font-family="Inter, Arial, sans-serif" font-size="12">19</text>
<line x1="70" x2="935" y1="60.00" y2="60.00" stroke="#27314e" stroke-width="1"/>
<text x="58" y="64.00" text-anchor="end" fill="#93a4c3" font-family="Inter, Arial, sans-serif" font-size="12">23</text>
<text x="70.00" y="412" text-anchor="middle" fill="#93a4c3" font-family="Inter, Arial, sans-serif" font-size="12">2025-07-15</text>
<text x="514.86" y="412" text-anchor="middle" fill="#93a4c3" font-family="Inter, Arial, sans-serif" font-size="12">2025-08-08</text>
<text x="935.00" y="412" text-anchor="middle" fill="#93a4c3" font-family="Inter, Arial, sans-serif" font-size="12">2025-09-03</text>
<path d="M 70.00 348.80 L 94.71 332.54 L 119.43 264.48 L 144.14 322.15 L 168.86 338.26 L 193.57 358.89 L 218.29 371.84 L 243.00 371.54 L 267.71 331.63 L 292.43 285.41 L 317.14 300.77 L 341.86 203.35 L 366.57 264.03 L 391.29 60.00 L 416.00 241.44 L 440.71 232.26 L 465.43 316.43 L 490.14 357.99 L 514.86 118.27 L 539.57 162.24 L 564.29 341.42 L 589.00 344.28 L 613.71 310.25 L 638.43 375.00 L 663.14 361.15 L 687.86 272.31 L 712.57 163.29 L 737.29 124.14 L 762.00 272.01 L 786.71 235.27 L 811.43 173.38 L 836.14 189.49 L 860.86 288.42 L 885.57 348.05 L 910.29 289.78 L 935.00 315.52" fill="none" stroke="#69a7ff" stroke-width="4" stroke-linecap="round" stroke-linejoin="round"/>
<circle cx="935.00" cy="315.52" r="6" fill="#69a7ff"/>
<text x="927.00" y="303.52" text-anchor="end" fill="#f5f7fb" font-family="Inter, Arial, sans-serif" font-size="12" font-weight="600">6.30</text>
</svg>