<svg xmlns="http://www.w3.org/2000/svg" width="960" height="430" viewBox="0 0 960 430" role="img" aria-label="Composite score history">
<rect width="100%" height="100%" fill="#0b1020" rx="20"/>
<text x="70" y="32" fill="#f5f7fb" font-family="Inter, Arial, sans-serif" font-size="24" font-weight="700">Composite score history</text>
<text x="70" y="52" fill="#93a4c3" font-family="Inter, Arial, sans-serif" font-size="13">Trailing 90 sessions through 2026-03-13</text>
<line x1="70" x2="935" y1="375.00" y2="375.00" stroke="#27314e" stroke-width="1"/>
<text x="58" y="379.00" text-anchor="end" fill="#93a4c3" font-family="Inter, Arial, sans-serif" font-size="12">0</text>
<line x1="70" x2="935" y1="312.00" y2="312.00" stroke="#27314e" stroke-width="1"/>
<text x="58" y="316.00" text-anchor="end" fill="#93a4c3" font-family="Inter, Arial, sans-serif" font-size="12">12</text>
<line x1="70" x2="935" y1="249.00" y2="249.00" stroke="#27314e" stroke-width="1"/>
<text x="58" y="253.00" text-anchor="end" fill="#93a4c3" font-family="Inter, Arial, sans-serif" font-size="12">24</text>
<line x1="70" x2="935" y1="186.00" y2="186.00" stroke="#27314e" stroke-width="1"/>
<text x="58" y="190.00" text-anchor="end" fill="#93a4c3" font-family="Inter, Arial, sans-serif" font-size="12">36</text>
<line x1="70" x2="935" y1="123.00" y2="123.00" stroke="#27314e" stroke-width="1"/>
<text x="58" y="127.00" text-anchor="end" fill="#93a4c3" font-family="Inter, Arial, sans-serif" font-size="12">48</text>
<line x1="70" x2="935" y1="60.00" y2="60.00" stroke="#27314e" stroke-width="1"/>
<text x="58" y="64.00" text-anchor="end" fill="#93a4c3" font-family="Inter, Arial, sans-serif" font-size="12">60</text>
<text x="70.00" y="412" text-anchor="middle" fill="#93a4c3" font-family="Inter, Arial, sans-serif" font-size="12">2025-10-31</text>
<text x="507.36" y="412" text-anchor="middle" fill="#93a4c3" font-family="Inter, Arial, sans-serif" font-size="12">2026-01-08</text>
<text x="935.00" y="412" text-anchor="middle" fill="#93a4c3" font-family="Inter, Arial, sans-serif" font-size="12">2026-03-13</text>
<path d="M 70.00 296.04 L 79.72 297.30 L 89.44 266.57 L 99.16 275.53 L 108.88 243.43 L 118.60 247.76 L 128.31 292.45 L 138.03 319.44 L 147.75 260.62 L 157.47 279.65 L 167.19 231.47 L 176.91 157.25 L 186.63 164.47 L 196.35 161.52 L 206.07 216.81 L 215.79 307.42 L 225.51 341.79 L 235.22 349.28 L 244.94 375.00 L 254.66 346.01 L 264.38 328.83 L 274.10 316.86 L 283.82 298.78 L 293.54 286.71 L 303.26 308.58 L 312.98 282.60 L 322.70 304.26 L 332.42 328.46 L 342.13 298.31 L 351.85 304.58 L 361.57 304.89 L 371.29 242.33 L 381.01 260.56 L 390.73 326.45 L 400.45 343.43 L 410.17 352.33 L 419.89 374.89 L 429.61 365.20 L 439.33 345.90 L 449.04 330.14 L 458.76 291.61 L 468.48 282.65 L 478.20 288.77 L 487.92 305.84 L 497.64 303.37 L 507.36 314.17 L 517.08 316.17 L 526.80 293.03 L 536.52 277.59 L 546.24 279.65 L 555.96 285.97 L 565.67 262.25 L 575.39 173.96 L 585.11 235.21 L 594.83 263.78 L 604.55 254.13 L 614.27 287.82 L 623.99 318.55 L 633.71 296.88 L 643.43 273.80 L 653.15 272.32 L 662.87 279.91 L 672.58 233.63 L 682.30 235.95 L 692.02 192.67 L 701.74 290.66 L 711.46 287.66 L 721.18 303.37 L 730.90 306.58 L 740.62 294.19 L 750.34 242.70 L 760.06 235.32 L 769.78 257.72 L 779.49 248.49 L 789.21 308.37 L 798.93 284.07 L 808.65 304.37 L 818.37 314.59 L 828.09 308.69 L 837.81 283.02 L 847.53 266.36 L 857.25 193.67 L 866.97 208.43 L 876.69 159.68 L 886.40 60.00 L 896.12 158.73 L 905.84 209.80 L 915.56 153.72 L 925.28 86.99 L 935.00 148.98" fill="none" stroke="#69a7ff" stroke-width="4" stroke-linecap="round" stroke-linejoin="round"/>
<circle cx="935.00" cy="148.98" r="6" fill="#69a7ff"/>
</svg>