<svg xmlns="http://www.w3.org/2000/svg" width="960" height="430" viewBox="0 0 960 430" role="img" aria-label="Composite score history">
<rect width="100%" height="100%" fill="#0b1020" rx="20"/>
<text x="70" y="32" fill="#f5f7fb" font-family="Inter, Arial, sans-serif" font-size="24" font-weight="700">Composite score history</text>
<text x="70" y="52" fill="#93a4c3" font-family="Inter, Arial, sans-serif" font-size="13">Trailing 87 sessions through 2026-03-13</text>
<line x1="70" x2="935" y1="375.00" y2="375.00" stroke="#27314e" stroke-width="1"/>
<text x="58" y="379.00" text-anchor="end" fill="#93a4c3" font-family="Inter, Arial, sans-serif" font-size="12">0</text>
<line x1="70" x2="935" y1="312.00" y2="312.00" stroke="#27314e" stroke-width="1"/>
<text x="58" y="316.00" text-anchor="end" fill="#93a4c3" font-family="Inter, Arial, sans-serif" font-size="12">12</text>
<line x1="70" x2="935" y1="249.00" y2="249.00" stroke="#27314e" stroke-width="1"/>
<text x="58" y="253.00" text-anchor="end" fill="#93a4c3" font-family="Inter, Arial, sans-serif" font-size="12">24</text>
<line x1="70" x2="935" y1="186.00" y2="186.00" stroke="#27314e" stroke-width="1"/>
<text x="58" y="190.00" text-anchor="end" fill="#93a4c3" font-family="Inter, Arial, sans-serif" font-size="12">36</text>
<line x1="70" x2="935" y1="123.00" y2="123.00" stroke="#27314e" stroke-width="1"/>
<text x="58" y="127.00" text-anchor="end" fill="#93a4c3" font-family="Inter, Arial, sans-serif" font-size="12">48</text>
<line x1="70" x2="935" y1="60.00" y2="60.00" stroke="#27314e" stroke-width="1"/>
<text x="58" y="64.00" text-anchor="end" fill="#93a4c3" font-family="Inter, Arial, sans-serif" font-size="12">60</text>
<text x="70.00" y="412" text-anchor="middle" fill="#93a4c3" font-family="Inter, Arial, sans-serif" font-size="12">2025-11-05</text>
<text x="502.50" y="412" text-anchor="middle" fill="#93a4c3" font-family="Inter, Arial, sans-serif" font-size="12">2026-01-09</text>
<text x="935.00" y="412" text-anchor="middle" fill="#93a4c3" font-family="Inter, Arial, sans-serif" font-size="12">2026-03-13</text>
<path d="M 70.00 297.94 L 80.06 258.83 L 90.12 267.36 L 100.17 309.11 L 110.23 314.59 L 120.29 260.62 L 130.35 279.65 L 140.41 231.47 L 150.47 157.25 L 160.52 164.47 L 170.58 161.52 L 180.64 216.81 L 190.70 307.42 L 200.76 341.79 L 210.81 349.28 L 220.87 375.00 L 230.93 346.01 L 240.99 328.83 L 251.05 316.86 L 261.10 298.78 L 271.16 286.71 L 281.22 308.58 L 291.28 282.60 L 301.34 304.26 L 311.40 328.46 L 321.45 298.31 L 331.51 304.58 L 341.57 304.89 L 351.63 242.33 L 361.69 260.56 L 371.74 326.45 L 381.80 343.43 L 391.86 352.33 L 401.92 374.89 L 411.98 365.20 L 422.03 345.90 L 432.09 330.14 L 442.15 291.61 L 452.21 282.65 L 462.27 288.77 L 472.33 305.84 L 482.38 303.37 L 492.44 314.17 L 502.50 316.17 L 512.56 293.03 L 522.62 277.59 L 532.67 279.65 L 542.73 285.97 L 552.79 262.25 L 562.85 173.96 L 572.91 235.21 L 582.97 263.78 L 593.02 254.13 L 603.08 287.82 L 613.14 318.55 L 623.20 296.88 L 633.26 273.80 L 643.31 272.32 L 653.37 279.91 L 663.43 233.63 L 673.49 235.95 L 683.55 192.67 L 693.60 290.66 L 703.66 287.66 L 713.72 303.37 L 723.78 306.58 L 733.84 294.19 L 743.90 242.70 L 753.95 235.32 L 764.01 257.72 L 774.07 248.49 L 784.13 308.37 L 794.19 284.07 L 804.24 304.37 L 814.30 314.59 L 824.36 308.69 L 834.42 283.02 L 844.48 266.36 L 854.53 193.67 L 864.59 208.43 L 874.65 159.68 L 884.71 60.00 L 894.77 158.73 L 904.83 209.80 L 914.88 153.72 L 924.94 86.99 L 935.00 148.98" fill="none" stroke="#69a7ff" stroke-width="4" stroke-linecap="round" stroke-linejoin="round"/>
<circle cx="935.00" cy="148.98" r="6" fill="#69a7ff"/>
</svg>