<svg xmlns="http://www.w3.org/2000/svg" width="960" height="430" viewBox="0 0 960 430" role="img" aria-label="Composite score history">
<rect width="100%" height="100%" fill="#0b1020" rx="20"/>
<text x="70" y="32" fill="#f5f7fb" font-family="Inter, Arial, sans-serif" font-size="24" font-weight="700">Composite score history</text>
<text x="70" y="52" fill="#93a4c3" font-family="Inter, Arial, sans-serif" font-size="13">Trailing 81 sessions through 2026-02-26</text>
<line x1="70" x2="935" y1="375.00" y2="375.00" stroke="#27314e" stroke-width="1"/>
<text x="58" y="379.00" text-anchor="end" fill="#93a4c3" font-family="Inter, Arial, sans-serif" font-size="12">0</text>
<line x1="70" x2="935" y1="312.00" y2="312.00" stroke="#27314e" stroke-width="1"/>
<text x="58" y="316.00" text-anchor="end" fill="#93a4c3" font-family="Inter, Arial, sans-serif" font-size="12">8</text>
<line x1="70" x2="935" y1="249.00" y2="249.00" stroke="#27314e" stroke-width="1"/>
<text x="58" y="253.00" text-anchor="end" fill="#93a4c3" font-family="Inter, Arial, sans-serif" font-size="12">17</text>
<line x1="70" x2="935" y1="186.00" y2="186.00" stroke="#27314e" stroke-width="1"/>
<text x="58" y="190.00" text-anchor="end" fill="#93a4c3" font-family="Inter, Arial, sans-serif" font-size="12">25</text>
<line x1="70" x2="935" y1="123.00" y2="123.00" stroke="#27314e" stroke-width="1"/>
<text x="58" y="127.00" text-anchor="end" fill="#93a4c3" font-family="Inter, Arial, sans-serif" font-size="12">33</text>
<line x1="70" x2="935" y1="60.00" y2="60.00" stroke="#27314e" stroke-width="1"/>
<text x="58" y="64.00" text-anchor="end" fill="#93a4c3" font-family="Inter, Arial, sans-serif" font-size="12">41</text>
<text x="70.00" y="412" text-anchor="middle" fill="#93a4c3" font-family="Inter, Arial, sans-serif" font-size="12">2025-10-29</text>
<text x="502.50" y="412" text-anchor="middle" fill="#93a4c3" font-family="Inter, Arial, sans-serif" font-size="12">2025-12-29</text>
<text x="935.00" y="412" text-anchor="middle" fill="#93a4c3" font-family="Inter, Arial, sans-serif" font-size="12">2026-02-26</text>
<path d="M 70.00 274.19 L 80.81 224.40 L 91.62 221.05 L 102.44 226.15 L 113.25 176.90 L 124.06 183.68 L 134.88 184.67 L 145.69 190.93 L 156.50 255.59 L 167.31 294.63 L 178.12 209.53 L 188.94 237.06 L 199.75 167.36 L 210.56 60.00 L 221.38 70.45 L 232.19 66.18 L 243.00 146.17 L 253.81 277.24 L 264.62 326.96 L 275.44 337.79 L 286.25 375.00 L 297.06 333.06 L 307.88 308.20 L 318.69 290.89 L 329.50 264.74 L 340.31 247.28 L 351.12 278.92 L 361.94 241.33 L 372.75 272.67 L 383.56 307.67 L 394.38 264.05 L 405.19 273.13 L 416.00 273.58 L 426.81 183.07 L 437.62 209.46 L 448.44 304.77 L 459.25 329.32 L 470.06 342.21 L 480.88 374.85 L 491.69 360.82 L 502.50 332.91 L 513.31 310.11 L 524.12 254.37 L 534.94 241.41 L 545.75 250.25 L 556.56 274.96 L 567.38 271.37 L 578.19 287.00 L 589.00 289.90 L 599.81 256.43 L 610.62 234.08 L 621.44 237.06 L 632.25 246.21 L 643.06 211.90 L 653.88 84.17 L 664.69 172.78 L 675.50 214.11 L 686.31 200.15 L 697.12 248.88 L 707.94 293.33 L 718.75 261.99 L 729.56 228.59 L 740.38 226.46 L 751.19 237.44 L 762.00 170.49 L 772.81 173.85 L 783.62 111.24 L 794.44 253.00 L 805.25 248.65 L 816.06 271.37 L 826.88 276.02 L 837.69 258.10 L 848.50 183.61 L 859.31 172.93 L 870.12 205.34 L 880.94 191.99 L 891.75 278.62 L 902.56 243.46 L 913.38 272.82 L 924.19 287.61 L 935.00 279.07" fill="none" stroke="#69a7ff" stroke-width="4" stroke-linecap="round" stroke-linejoin="round"/>
<circle cx="935.00" cy="279.07" r="6" fill="#69a7ff"/>
</svg>