<svg xmlns="http://www.w3.org/2000/svg" width="960" height="430" viewBox="0 0 960 430" role="img" aria-label="Composite score history">
<rect width="100%" height="100%" fill="#0b1020" rx="20"/>
<text x="70" y="32" fill="#f5f7fb" font-family="Inter, Arial, sans-serif" font-size="24" font-weight="700">Composite score history</text>
<text x="70" y="52" fill="#93a4c3" font-family="Inter, Arial, sans-serif" font-size="13">Trailing 84 sessions through 2026-02-26</text>
<line x1="70" x2="935" y1="375.00" y2="375.00" stroke="#27314e" stroke-width="1"/>
<text x="58" y="379.00" text-anchor="end" fill="#93a4c3" font-family="Inter, Arial, sans-serif" font-size="12">0</text>
<line x1="70" x2="935" y1="312.00" y2="312.00" stroke="#27314e" stroke-width="1"/>
<text x="58" y="316.00" text-anchor="end" fill="#93a4c3" font-family="Inter, Arial, sans-serif" font-size="12">8</text>
<line x1="70" x2="935" y1="249.00" y2="249.00" stroke="#27314e" stroke-width="1"/>
<text x="58" y="253.00" text-anchor="end" fill="#93a4c3" font-family="Inter, Arial, sans-serif" font-size="12">17</text>
<line x1="70" x2="935" y1="186.00" y2="186.00" stroke="#27314e" stroke-width="1"/>
<text x="58" y="190.00" text-anchor="end" fill="#93a4c3" font-family="Inter, Arial, sans-serif" font-size="12">25</text>
<line x1="70" x2="935" y1="123.00" y2="123.00" stroke="#27314e" stroke-width="1"/>
<text x="58" y="127.00" text-anchor="end" fill="#93a4c3" font-family="Inter, Arial, sans-serif" font-size="12">33</text>
<line x1="70" x2="935" y1="60.00" y2="60.00" stroke="#27314e" stroke-width="1"/>
<text x="58" y="64.00" text-anchor="end" fill="#93a4c3" font-family="Inter, Arial, sans-serif" font-size="12">41</text>
<text x="70.00" y="412" text-anchor="middle" fill="#93a4c3" font-family="Inter, Arial, sans-serif" font-size="12">2025-10-24</text>
<text x="507.71" y="412" text-anchor="middle" fill="#93a4c3" font-family="Inter, Arial, sans-serif" font-size="12">2025-12-26</text>
<text x="935.00" y="412" text-anchor="middle" fill="#93a4c3" font-family="Inter, Arial, sans-serif" font-size="12">2026-02-26</text>
<path d="M 70.00 279.53 L 80.42 309.73 L 90.84 311.79 L 101.27 264.43 L 111.69 237.14 L 122.11 236.53 L 132.53 192.98 L 142.95 135.80 L 153.37 183.68 L 163.80 184.67 L 174.22 190.93 L 184.64 255.59 L 195.06 294.63 L 205.48 209.53 L 215.90 237.06 L 226.33 167.36 L 236.75 60.00 L 247.17 70.45 L 257.59 66.18 L 268.01 146.17 L 278.43 277.24 L 288.86 326.96 L 299.28 337.79 L 309.70 375.00 L 320.12 333.06 L 330.54 308.20 L 340.96 290.89 L 351.39 264.74 L 361.81 247.28 L 372.23 278.92 L 382.65 241.33 L 393.07 272.67 L 403.49 307.67 L 413.92 264.05 L 424.34 273.13 L 434.76 273.58 L 445.18 183.07 L 455.60 209.46 L 466.02 304.77 L 476.45 329.32 L 486.87 342.21 L 497.29 374.85 L 507.71 360.82 L 518.13 332.91 L 528.55 310.11 L 538.98 254.37 L 549.40 241.41 L 559.82 250.25 L 570.24 274.96 L 580.66 271.37 L 591.08 287.00 L 601.51 289.90 L 611.93 256.43 L 622.35 234.08 L 632.77 237.06 L 643.19 246.21 L 653.61 211.90 L 664.04 84.17 L 674.46 172.78 L 684.88 214.11 L 695.30 200.15 L 705.72 248.88 L 716.14 293.33 L 726.57 261.99 L 736.99 228.59 L 747.41 226.46 L 757.83 237.44 L 768.25 170.49 L 778.67 173.85 L 789.10 111.24 L 799.52 253.00 L 809.94 248.65 L 820.36 271.37 L 830.78 276.02 L 841.20 258.10 L 851.63 183.61 L 862.05 172.93 L 872.47 205.34 L 882.89 191.99 L 893.31 278.62 L 903.73 243.46 L 914.16 272.82 L 924.58 287.61 L 935.00 279.07" fill="none" stroke="#69a7ff" stroke-width="4" stroke-linecap="round" stroke-linejoin="round"/>
<circle cx="935.00" cy="279.07" r="6" fill="#69a7ff"/>
</svg>