<svg xmlns="http://www.w3.org/2000/svg" width="960" height="430" viewBox="0 0 960 430" role="img" aria-label="Composite score history">
<rect width="100%" height="100%" fill="#0b1020" rx="20"/>
<text x="70" y="32" fill="#f5f7fb" font-family="Inter, Arial, sans-serif" font-size="24" font-weight="700">Composite score history</text>
<text x="70" y="52" fill="#93a4c3" font-family="Inter, Arial, sans-serif" font-size="13">Trailing 85 sessions through 2026-02-26</text>
<line x1="70" x2="935" y1="375.00" y2="375.00" stroke="#27314e" stroke-width="1"/>
<text x="58" y="379.00" text-anchor="end" fill="#93a4c3" font-family="Inter, Arial, sans-serif" font-size="12">0</text>
<line x1="70" x2="935" y1="312.00" y2="312.00" stroke="#27314e" stroke-width="1"/>
<text x="58" y="316.00" text-anchor="end" fill="#93a4c3" font-family="Inter, Arial, sans-serif" font-size="12">8</text>
<line x1="70" x2="935" y1="249.00" y2="249.00" stroke="#27314e" stroke-width="1"/>
<text x="58" y="253.00" text-anchor="end" fill="#93a4c3" font-family="Inter, Arial, sans-serif" font-size="12">17</text>
<line x1="70" x2="935" y1="186.00" y2="186.00" stroke="#27314e" stroke-width="1"/>
<text x="58" y="190.00" text-anchor="end" fill="#93a4c3" font-family="Inter, Arial, sans-serif" font-size="12">25</text>
<line x1="70" x2="935" y1="123.00" y2="123.00" stroke="#27314e" stroke-width="1"/>
<text x="58" y="127.00" text-anchor="end" fill="#93a4c3" font-family="Inter, Arial, sans-serif" font-size="12">33</text>
<line x1="70" x2="935" y1="60.00" y2="60.00" stroke="#27314e" stroke-width="1"/>
<text x="58" y="64.00" text-anchor="end" fill="#93a4c3" font-family="Inter, Arial, sans-serif" font-size="12">41</text>
<text x="70.00" y="412" text-anchor="middle" fill="#93a4c3" font-family="Inter, Arial, sans-serif" font-size="12">2025-10-23</text>
<text x="502.50" y="412" text-anchor="middle" fill="#93a4c3" font-family="Inter, Arial, sans-serif" font-size="12">2025-12-24</text>
<text x="935.00" y="412" text-anchor="middle" fill="#93a4c3" font-family="Inter, Arial, sans-serif" font-size="12">2026-02-26</text>
<path d="M 70.00 271.83 L 80.30 294.55 L 90.60 324.98 L 100.89 327.42 L 111.19 283.65 L 121.49 256.12 L 131.79 236.53 L 142.08 192.98 L 152.38 135.80 L 162.68 183.68 L 172.98 184.67 L 183.27 190.93 L 193.57 255.59 L 203.87 294.63 L 214.17 209.53 L 224.46 237.06 L 234.76 167.36 L 245.06 60.00 L 255.36 70.45 L 265.65 66.18 L 275.95 146.17 L 286.25 277.24 L 296.55 326.96 L 306.85 337.79 L 317.14 375.00 L 327.44 333.06 L 337.74 308.20 L 348.04 290.89 L 358.33 264.74 L 368.63 247.28 L 378.93 278.92 L 389.23 241.33 L 399.52 272.67 L 409.82 307.67 L 420.12 264.05 L 430.42 273.13 L 440.71 273.58 L 451.01 183.07 L 461.31 209.46 L 471.61 304.77 L 481.90 329.32 L 492.20 342.21 L 502.50 374.85 L 512.80 360.82 L 523.10 332.91 L 533.39 310.11 L 543.69 254.37 L 553.99 241.41 L 564.29 250.25 L 574.58 274.96 L 584.88 271.37 L 595.18 287.00 L 605.48 289.90 L 615.77 256.43 L 626.07 234.08 L 636.37 237.06 L 646.67 246.21 L 656.96 211.90 L 667.26 84.17 L 677.56 172.78 L 687.86 214.11 L 698.15 200.15 L 708.45 248.88 L 718.75 293.33 L 729.05 261.99 L 739.35 228.59 L 749.64 226.46 L 759.94 237.44 L 770.24 170.49 L 780.54 173.85 L 790.83 111.24 L 801.13 253.00 L 811.43 248.65 L 821.73 271.37 L 832.02 276.02 L 842.32 258.10 L 852.62 183.61 L 862.92 172.93 L 873.21 205.34 L 883.51 191.99 L 893.81 278.62 L 904.11 243.46 L 914.40 272.82 L 924.70 287.61 L 935.00 279.07" fill="none" stroke="#69a7ff" stroke-width="4" stroke-linecap="round" stroke-linejoin="round"/>
<circle cx="935.00" cy="279.07" r="6" fill="#69a7ff"/>
</svg>