<svg xmlns="http://www.w3.org/2000/svg" width="960" height="430" viewBox="0 0 960 430" role="img" aria-label="Composite score history">
<rect width="100%" height="100%" fill="#0b1020" rx="20"/>
<text x="70" y="32" fill="#f5f7fb" font-family="Inter, Arial, sans-serif" font-size="24" font-weight="700">Composite score history</text>
<text x="70" y="52" fill="#93a4c3" font-family="Inter, Arial, sans-serif" font-size="13">Trailing 89 sessions through 2026-02-26</text>
<line x1="70" x2="935" y1="375.00" y2="375.00" stroke="#27314e" stroke-width="1"/>
<text x="58" y="379.00" text-anchor="end" fill="#93a4c3" font-family="Inter, Arial, sans-serif" font-size="12">0</text>
<line x1="70" x2="935" y1="312.00" y2="312.00" stroke="#27314e" stroke-width="1"/>
<text x="58" y="316.00" text-anchor="end" fill="#93a4c3" font-family="Inter, Arial, sans-serif" font-size="12">8</text>
<line x1="70" x2="935" y1="249.00" y2="249.00" stroke="#27314e" stroke-width="1"/>
<text x="58" y="253.00" text-anchor="end" fill="#93a4c3" font-family="Inter, Arial, sans-serif" font-size="12">17</text>
<line x1="70" x2="935" y1="186.00" y2="186.00" stroke="#27314e" stroke-width="1"/>
<text x="58" y="190.00" text-anchor="end" fill="#93a4c3" font-family="Inter, Arial, sans-serif" font-size="12">25</text>
<line x1="70" x2="935" y1="123.00" y2="123.00" stroke="#27314e" stroke-width="1"/>
<text x="58" y="127.00" text-anchor="end" fill="#93a4c3" font-family="Inter, Arial, sans-serif" font-size="12">33</text>
<line x1="70" x2="935" y1="60.00" y2="60.00" stroke="#27314e" stroke-width="1"/>
<text x="58" y="64.00" text-anchor="end" fill="#93a4c3" font-family="Inter, Arial, sans-serif" font-size="12">41</text>
<text x="70.00" y="412" text-anchor="middle" fill="#93a4c3" font-family="Inter, Arial, sans-serif" font-size="12">2025-10-17</text>
<text x="502.50" y="412" text-anchor="middle" fill="#93a4c3" font-family="Inter, Arial, sans-serif" font-size="12">2025-12-22</text>
<text x="935.00" y="412" text-anchor="middle" fill="#93a4c3" font-family="Inter, Arial, sans-serif" font-size="12">2026-02-26</text>
<path d="M 70.00 267.48 L 79.83 303.78 L 89.66 300.35 L 99.49 275.87 L 109.32 237.44 L 119.15 267.94 L 128.98 285.48 L 138.81 299.36 L 148.64 266.80 L 158.47 256.12 L 168.30 236.53 L 178.12 192.98 L 187.95 135.80 L 197.78 183.68 L 207.61 184.67 L 217.44 190.93 L 227.27 255.59 L 237.10 294.63 L 246.93 209.53 L 256.76 237.06 L 266.59 167.36 L 276.42 60.00 L 286.25 70.45 L 296.08 66.18 L 305.91 146.17 L 315.74 277.24 L 325.57 326.96 L 335.40 337.79 L 345.23 375.00 L 355.06 333.06 L 364.89 308.20 L 374.72 290.89 L 384.55 264.74 L 394.38 247.28 L 404.20 278.92 L 414.03 241.33 L 423.86 272.67 L 433.69 307.67 L 443.52 264.05 L 453.35 273.13 L 463.18 273.58 L 473.01 183.07 L 482.84 209.46 L 492.67 304.77 L 502.50 329.32 L 512.33 342.21 L 522.16 374.85 L 531.99 360.82 L 541.82 332.91 L 551.65 310.11 L 561.48 254.37 L 571.31 241.41 L 581.14 250.25 L 590.97 274.96 L 600.80 271.37 L 610.62 287.00 L 620.45 289.90 L 630.28 256.43 L 640.11 234.08 L 649.94 237.06 L 659.77 246.21 L 669.60 211.90 L 679.43 84.17 L 689.26 172.78 L 699.09 214.11 L 708.92 200.15 L 718.75 248.88 L 728.58 293.33 L 738.41 261.99 L 748.24 228.59 L 758.07 226.46 L 767.90 237.44 L 777.73 170.49 L 787.56 173.85 L 797.39 111.24 L 807.22 253.00 L 817.05 248.65 L 826.88 271.37 L 836.70 276.02 L 846.53 258.10 L 856.36 183.61 L 866.19 172.93 L 876.02 205.34 L 885.85 191.99 L 895.68 278.62 L 905.51 243.46 L 915.34 272.82 L 925.17 287.61 L 935.00 279.07" fill="none" stroke="#69a7ff" stroke-width="4" stroke-linecap="round" stroke-linejoin="round"/>
<circle cx="935.00" cy="279.07" r="6" fill="#69a7ff"/>
</svg>