<svg xmlns="http://www.w3.org/2000/svg" width="960" height="430" viewBox="0 0 960 430" role="img" aria-label="Composite score history">
<rect width="100%" height="100%" fill="#0b1020" rx="20"/>
<text x="70" y="32" fill="#f5f7fb" font-family="Inter, Arial, sans-serif" font-size="24" font-weight="700">Composite score history</text>
<text x="70" y="52" fill="#93a4c3" font-family="Inter, Arial, sans-serif" font-size="13">Trailing 84 sessions through 2026-02-10</text>
<line x1="70" x2="935" y1="375.00" y2="375.00" stroke="#27314e" stroke-width="1"/>
<text x="58" y="379.00" text-anchor="end" fill="#93a4c3" font-family="Inter, Arial, sans-serif" font-size="12">0</text>
<line x1="70" x2="935" y1="312.00" y2="312.00" stroke="#27314e" stroke-width="1"/>
<text x="58" y="316.00" text-anchor="end" fill="#93a4c3" font-family="Inter, Arial, sans-serif" font-size="12">8</text>
<line x1="70" x2="935" y1="249.00" y2="249.00" stroke="#27314e" stroke-width="1"/>
<text x="58" y="253.00" text-anchor="end" fill="#93a4c3" font-family="Inter, Arial, sans-serif" font-size="12">17</text>
<line x1="70" x2="935" y1="186.00" y2="186.00" stroke="#27314e" stroke-width="1"/>
<text x="58" y="190.00" text-anchor="end" fill="#93a4c3" font-family="Inter, Arial, sans-serif" font-size="12">25</text>
<line x1="70" x2="935" y1="123.00" y2="123.00" stroke="#27314e" stroke-width="1"/>
<text x="58" y="127.00" text-anchor="end" fill="#93a4c3" font-family="Inter, Arial, sans-serif" font-size="12">33</text>
<line x1="70" x2="935" y1="60.00" y2="60.00" stroke="#27314e" stroke-width="1"/>
<text x="58" y="64.00" text-anchor="end" fill="#93a4c3" font-family="Inter, Arial, sans-serif" font-size="12">41</text>
<text x="70.00" y="412" text-anchor="middle" fill="#93a4c3" font-family="Inter, Arial, sans-serif" font-size="12">2025-10-08</text>
<text x="507.71" y="412" text-anchor="middle" fill="#93a4c3" font-family="Inter, Arial, sans-serif" font-size="12">2025-12-10</text>
<text x="935.00" y="412" text-anchor="middle" fill="#93a4c3" font-family="Inter, Arial, sans-serif" font-size="12">2026-02-10</text>
<path d="M 70.00 275.95 L 80.42 256.66 L 90.84 100.57 L 101.27 167.75 L 111.69 183.99 L 122.11 109.03 L 132.53 196.19 L 142.95 336.57 L 153.37 309.88 L 163.80 285.33 L 174.22 232.33 L 184.64 267.94 L 195.06 285.48 L 205.48 299.36 L 215.90 266.80 L 226.33 256.12 L 236.75 236.53 L 247.17 192.98 L 257.59 135.80 L 268.01 183.68 L 278.43 184.67 L 288.86 190.93 L 299.28 255.59 L 309.70 294.63 L 320.12 209.53 L 330.54 237.06 L 340.96 167.36 L 351.39 60.00 L 361.81 70.45 L 372.23 66.18 L 382.65 146.17 L 393.07 277.24 L 403.49 326.96 L 413.92 337.79 L 424.34 375.00 L 434.76 333.06 L 445.18 308.20 L 455.60 290.89 L 466.02 264.74 L 476.45 247.28 L 486.87 278.92 L 497.29 241.33 L 507.71 272.67 L 518.13 307.67 L 528.55 264.05 L 538.98 273.13 L 549.40 273.58 L 559.82 183.07 L 570.24 209.46 L 580.66 304.77 L 591.08 329.32 L 601.51 342.21 L 611.93 374.85 L 622.35 360.82 L 632.77 332.91 L 643.19 310.11 L 653.61 254.37 L 664.04 241.41 L 674.46 250.25 L 684.88 274.96 L 695.30 271.37 L 705.72 287.00 L 716.14 289.90 L 726.57 256.43 L 736.99 234.08 L 747.41 237.06 L 757.83 246.21 L 768.25 211.90 L 778.67 84.17 L 789.10 172.78 L 799.52 214.11 L 809.94 200.15 L 820.36 248.88 L 830.78 293.33 L 841.20 261.99 L 851.63 228.59 L 862.05 226.46 L 872.47 237.44 L 882.89 170.49 L 893.31 173.85 L 903.73 111.24 L 914.16 253.00 L 924.58 248.65 L 935.00 271.37" fill="none" stroke="#69a7ff" stroke-width="4" stroke-linecap="round" stroke-linejoin="round"/>
<circle cx="935.00" cy="271.37" r="6" fill="#69a7ff"/>
</svg>