<svg xmlns="http://www.w3.org/2000/svg" width="960" height="430" viewBox="0 0 960 430" role="img" aria-label="Composite score history">
<rect width="100%" height="100%" fill="#0b1020" rx="20"/>
<text x="70" y="32" fill="#f5f7fb" font-family="Inter, Arial, sans-serif" font-size="24" font-weight="700">Composite score history</text>
<text x="70" y="52" fill="#93a4c3" font-family="Inter, Arial, sans-serif" font-size="13">Trailing 85 sessions through 2026-02-10</text>
<line x1="70" x2="935" y1="375.00" y2="375.00" stroke="#27314e" stroke-width="1"/>
<text x="58" y="379.00" text-anchor="end" fill="#93a4c3" font-family="Inter, Arial, sans-serif" font-size="12">0</text>
<line x1="70" x2="935" y1="312.00" y2="312.00" stroke="#27314e" stroke-width="1"/>
<text x="58" y="316.00" text-anchor="end" fill="#93a4c3" font-family="Inter, Arial, sans-serif" font-size="12">8</text>
<line x1="70" x2="935" y1="249.00" y2="249.00" stroke="#27314e" stroke-width="1"/>
<text x="58" y="253.00" text-anchor="end" fill="#93a4c3" font-family="Inter, Arial, sans-serif" font-size="12">17</text>
<line x1="70" x2="935" y1="186.00" y2="186.00" stroke="#27314e" stroke-width="1"/>
<text x="58" y="190.00" text-anchor="end" fill="#93a4c3" font-family="Inter, Arial, sans-serif" font-size="12">25</text>
<line x1="70" x2="935" y1="123.00" y2="123.00" stroke="#27314e" stroke-width="1"/>
<text x="58" y="127.00" text-anchor="end" fill="#93a4c3" font-family="Inter, Arial, sans-serif" font-size="12">33</text>
<line x1="70" x2="935" y1="60.00" y2="60.00" stroke="#27314e" stroke-width="1"/>
<text x="58" y="64.00" text-anchor="end" fill="#93a4c3" font-family="Inter, Arial, sans-serif" font-size="12">41</text>
<text x="70.00" y="412" text-anchor="middle" fill="#93a4c3" font-family="Inter, Arial, sans-serif" font-size="12">2025-10-07</text>
<text x="502.50" y="412" text-anchor="middle" fill="#93a4c3" font-family="Inter, Arial, sans-serif" font-size="12">2025-12-09</text>
<text x="935.00" y="412" text-anchor="middle" fill="#93a4c3" font-family="Inter, Arial, sans-serif" font-size="12">2026-02-10</text>
<path d="M 70.00 270.99 L 80.30 284.03 L 90.60 270.84 L 100.89 128.86 L 111.19 196.34 L 121.49 212.66 L 131.79 109.03 L 142.08 196.19 L 152.38 336.57 L 162.68 309.88 L 172.98 285.33 L 183.27 232.33 L 193.57 267.94 L 203.87 285.48 L 214.17 299.36 L 224.46 266.80 L 234.76 256.12 L 245.06 236.53 L 255.36 192.98 L 265.65 135.80 L 275.95 183.68 L 286.25 184.67 L 296.55 190.93 L 306.85 255.59 L 317.14 294.63 L 327.44 209.53 L 337.74 237.06 L 348.04 167.36 L 358.33 60.00 L 368.63 70.45 L 378.93 66.18 L 389.23 146.17 L 399.52 277.24 L 409.82 326.96 L 420.12 337.79 L 430.42 375.00 L 440.71 333.06 L 451.01 308.20 L 461.31 290.89 L 471.61 264.74 L 481.90 247.28 L 492.20 278.92 L 502.50 241.33 L 512.80 272.67 L 523.10 307.67 L 533.39 264.05 L 543.69 273.13 L 553.99 273.58 L 564.29 183.07 L 574.58 209.46 L 584.88 304.77 L 595.18 329.32 L 605.48 342.21 L 615.77 374.85 L 626.07 360.82 L 636.37 332.91 L 646.67 310.11 L 656.96 254.37 L 667.26 241.41 L 677.56 250.25 L 687.86 274.96 L 698.15 271.37 L 708.45 287.00 L 718.75 289.90 L 729.05 256.43 L 739.35 234.08 L 749.64 237.06 L 759.94 246.21 L 770.24 211.90 L 780.54 84.17 L 790.83 172.78 L 801.13 214.11 L 811.43 200.15 L 821.73 248.88 L 832.02 293.33 L 842.32 261.99 L 852.62 228.59 L 862.92 226.46 L 873.21 237.44 L 883.51 170.49 L 893.81 173.85 L 904.11 111.24 L 914.40 253.00 L 924.70 248.65 L 935.00 271.37" fill="none" stroke="#69a7ff" stroke-width="4" stroke-linecap="round" stroke-linejoin="round"/>
<circle cx="935.00" cy="271.37" r="6" fill="#69a7ff"/>
</svg>