<svg xmlns="http://www.w3.org/2000/svg" width="960" height="430" viewBox="0 0 960 430" role="img" aria-label="Composite score history">
<rect width="100%" height="100%" fill="#0b1020" rx="20"/>
<text x="70" y="32" fill="#f5f7fb" font-family="Inter, Arial, sans-serif" font-size="24" font-weight="700">Composite score history</text>
<text x="70" y="52" fill="#93a4c3" font-family="Inter, Arial, sans-serif" font-size="13">Trailing 64 sessions through 2026-02-10</text>
<line x1="70" x2="935" y1="375.00" y2="375.00" stroke="#27314e" stroke-width="1"/>
<text x="58" y="379.00" text-anchor="end" fill="#93a4c3" font-family="Inter, Arial, sans-serif" font-size="12">0</text>
<line x1="70" x2="935" y1="312.00" y2="312.00" stroke="#27314e" stroke-width="1"/>
<text x="58" y="316.00" text-anchor="end" fill="#93a4c3" font-family="Inter, Arial, sans-serif" font-size="12">8</text>
<line x1="70" x2="935" y1="249.00" y2="249.00" stroke="#27314e" stroke-width="1"/>
<text x="58" y="253.00" text-anchor="end" fill="#93a4c3" font-family="Inter, Arial, sans-serif" font-size="12">17</text>
<line x1="70" x2="935" y1="186.00" y2="186.00" stroke="#27314e" stroke-width="1"/>
<text x="58" y="190.00" text-anchor="end" fill="#93a4c3" font-family="Inter, Arial, sans-serif" font-size="12">25</text>
<line x1="70" x2="935" y1="123.00" y2="123.00" stroke="#27314e" stroke-width="1"/>
<text x="58" y="127.00" text-anchor="end" fill="#93a4c3" font-family="Inter, Arial, sans-serif" font-size="12">33</text>
<line x1="70" x2="935" y1="60.00" y2="60.00" stroke="#27314e" stroke-width="1"/>
<text x="58" y="64.00" text-anchor="end" fill="#93a4c3" font-family="Inter, Arial, sans-serif" font-size="12">41</text>
<text x="70.00" y="412" text-anchor="middle" fill="#93a4c3" font-family="Inter, Arial, sans-serif" font-size="12">2025-11-06</text>
<text x="509.37" y="412" text-anchor="middle" fill="#93a4c3" font-family="Inter, Arial, sans-serif" font-size="12">2025-12-24</text>
<text x="935.00" y="412" text-anchor="middle" fill="#93a4c3" font-family="Inter, Arial, sans-serif" font-size="12">2026-02-10</text>
<path d="M 70.00 260.16 L 83.73 267.18 L 97.46 294.48 L 111.19 309.27 L 124.92 255.05 L 138.65 237.06 L 152.38 167.36 L 166.11 60.00 L 179.84 70.45 L 193.57 66.18 L 207.30 146.17 L 221.03 277.24 L 234.76 326.96 L 248.49 337.79 L 262.22 375.00 L 275.95 333.06 L 289.68 308.20 L 303.41 290.89 L 317.14 264.74 L 330.87 247.28 L 344.60 278.92 L 358.33 241.33 L 372.06 272.67 L 385.79 307.67 L 399.52 264.05 L 413.25 273.13 L 426.98 273.58 L 440.71 183.07 L 454.44 209.46 L 468.17 304.77 L 481.90 329.32 L 495.63 342.21 L 509.37 374.85 L 523.10 360.82 L 536.83 332.91 L 550.56 310.11 L 564.29 254.37 L 578.02 241.41 L 591.75 250.25 L 605.48 274.96 L 619.21 271.37 L 632.94 287.00 L 646.67 289.90 L 660.40 256.43 L 674.13 234.08 L 687.86 237.06 L 701.59 246.21 L 715.32 211.90 L 729.05 84.17 L 742.78 172.78 L 756.51 214.11 L 770.24 200.15 L 783.97 248.88 L 797.70 293.33 L 811.43 261.99 L 825.16 228.59 L 838.89 226.46 L 852.62 237.44 L 866.35 170.49 L 880.08 173.85 L 893.81 111.24 L 907.54 253.00 L 921.27 248.65 L 935.00 271.37" fill="none" stroke="#69a7ff" stroke-width="4" stroke-linecap="round" stroke-linejoin="round"/>
<circle cx="935.00" cy="271.37" r="6" fill="#69a7ff"/>
</svg>