<svg xmlns="http://www.w3.org/2000/svg" width="960" height="430" viewBox="0 0 960 430" role="img" aria-label="Composite score history">
<rect width="100%" height="100%" fill="#0b1020" rx="20"/>
<text x="70" y="32" fill="#f5f7fb" font-family="Inter, Arial, sans-serif" font-size="24" font-weight="700">Composite score history</text>
<text x="70" y="52" fill="#93a4c3" font-family="Inter, Arial, sans-serif" font-size="13">Trailing 71 sessions through 2026-02-10</text>
<line x1="70" x2="935" y1="375.00" y2="375.00" stroke="#27314e" stroke-width="1"/>
<text x="58" y="379.00" text-anchor="end" fill="#93a4c3" font-family="Inter, Arial, sans-serif" font-size="12">0</text>
<line x1="70" x2="935" y1="312.00" y2="312.00" stroke="#27314e" stroke-width="1"/>
<text x="58" y="316.00" text-anchor="end" fill="#93a4c3" font-family="Inter, Arial, sans-serif" font-size="12">8</text>
<line x1="70" x2="935" y1="249.00" y2="249.00" stroke="#27314e" stroke-width="1"/>
<text x="58" y="253.00" text-anchor="end" fill="#93a4c3" font-family="Inter, Arial, sans-serif" font-size="12">17</text>
<line x1="70" x2="935" y1="186.00" y2="186.00" stroke="#27314e" stroke-width="1"/>
<text x="58" y="190.00" text-anchor="end" fill="#93a4c3" font-family="Inter, Arial, sans-serif" font-size="12">25</text>
<line x1="70" x2="935" y1="123.00" y2="123.00" stroke="#27314e" stroke-width="1"/>
<text x="58" y="127.00" text-anchor="end" fill="#93a4c3" font-family="Inter, Arial, sans-serif" font-size="12">33</text>
<line x1="70" x2="935" y1="60.00" y2="60.00" stroke="#27314e" stroke-width="1"/>
<text x="58" y="64.00" text-anchor="end" fill="#93a4c3" font-family="Inter, Arial, sans-serif" font-size="12">41</text>
<text x="70.00" y="412" text-anchor="middle" fill="#93a4c3" font-family="Inter, Arial, sans-serif" font-size="12">2025-10-28</text>
<text x="502.50" y="412" text-anchor="middle" fill="#93a4c3" font-family="Inter, Arial, sans-serif" font-size="12">2025-12-18</text>
<text x="935.00" y="412" text-anchor="middle" fill="#93a4c3" font-family="Inter, Arial, sans-serif" font-size="12">2026-02-10</text>
<path d="M 70.00 284.34 L 82.36 229.97 L 94.71 180.25 L 107.07 176.97 L 119.43 182.00 L 131.79 135.80 L 144.14 183.68 L 156.50 184.67 L 168.86 190.93 L 181.21 255.59 L 193.57 294.63 L 205.93 209.53 L 218.29 237.06 L 230.64 167.36 L 243.00 60.00 L 255.36 70.45 L 267.71 66.18 L 280.07 146.17 L 292.43 277.24 L 304.79 326.96 L 317.14 337.79 L 329.50 375.00 L 341.86 333.06 L 354.21 308.20 L 366.57 290.89 L 378.93 264.74 L 391.29 247.28 L 403.64 278.92 L 416.00 241.33 L 428.36 272.67 L 440.71 307.67 L 453.07 264.05 L 465.43 273.13 L 477.79 273.58 L 490.14 183.07 L 502.50 209.46 L 514.86 304.77 L 527.21 329.32 L 539.57 342.21 L 551.93 374.85 L 564.29 360.82 L 576.64 332.91 L 589.00 310.11 L 601.36 254.37 L 613.71 241.41 L 626.07 250.25 L 638.43 274.96 L 650.79 271.37 L 663.14 287.00 L 675.50 289.90 L 687.86 256.43 L 700.21 234.08 L 712.57 237.06 L 724.93 246.21 L 737.29 211.90 L 749.64 84.17 L 762.00 172.78 L 774.36 214.11 L 786.71 200.15 L 799.07 248.88 L 811.43 293.33 L 823.79 261.99 L 836.14 228.59 L 848.50 226.46 L 860.86 237.44 L 873.21 170.49 L 885.57 173.85 L 897.93 111.24 L 910.29 253.00 L 922.64 248.65 L 935.00 271.37" fill="none" stroke="#69a7ff" stroke-width="4" stroke-linecap="round" stroke-linejoin="round"/>
<circle cx="935.00" cy="271.37" r="6" fill="#69a7ff"/>
</svg>