<svg xmlns="http://www.w3.org/2000/svg" width="960" height="430" viewBox="0 0 960 430" role="img" aria-label="Composite score history">
<rect width="100%" height="100%" fill="#0b1020" rx="20"/>
<text x="70" y="32" fill="#f5f7fb" font-family="Inter, Arial, sans-serif" font-size="24" font-weight="700">Composite score history</text>
<text x="70" y="52" fill="#93a4c3" font-family="Inter, Arial, sans-serif" font-size="13">Trailing 74 sessions through 2026-02-10</text>
<line x1="70" x2="935" y1="375.00" y2="375.00" stroke="#27314e" stroke-width="1"/>
<text x="58" y="379.00" text-anchor="end" fill="#93a4c3" font-family="Inter, Arial, sans-serif" font-size="12">0</text>
<line x1="70" x2="935" y1="312.00" y2="312.00" stroke="#27314e" stroke-width="1"/>
<text x="58" y="316.00" text-anchor="end" fill="#93a4c3" font-family="Inter, Arial, sans-serif" font-size="12">8</text>
<line x1="70" x2="935" y1="249.00" y2="249.00" stroke="#27314e" stroke-width="1"/>
<text x="58" y="253.00" text-anchor="end" fill="#93a4c3" font-family="Inter, Arial, sans-serif" font-size="12">17</text>
<line x1="70" x2="935" y1="186.00" y2="186.00" stroke="#27314e" stroke-width="1"/>
<text x="58" y="190.00" text-anchor="end" fill="#93a4c3" font-family="Inter, Arial, sans-serif" font-size="12">25</text>
<line x1="70" x2="935" y1="123.00" y2="123.00" stroke="#27314e" stroke-width="1"/>
<text x="58" y="127.00" text-anchor="end" fill="#93a4c3" font-family="Inter, Arial, sans-serif" font-size="12">33</text>
<line x1="70" x2="935" y1="60.00" y2="60.00" stroke="#27314e" stroke-width="1"/>
<text x="58" y="64.00" text-anchor="end" fill="#93a4c3" font-family="Inter, Arial, sans-serif" font-size="12">41</text>
<text x="70.00" y="412" text-anchor="middle" fill="#93a4c3" font-family="Inter, Arial, sans-serif" font-size="12">2025-10-23</text>
<text x="508.42" y="412" text-anchor="middle" fill="#93a4c3" font-family="Inter, Arial, sans-serif" font-size="12">2025-12-17</text>
<text x="935.00" y="412" text-anchor="middle" fill="#93a4c3" font-family="Inter, Arial, sans-serif" font-size="12">2026-02-10</text>
<path d="M 70.00 271.83 L 81.85 294.55 L 93.70 324.98 L 105.55 327.42 L 117.40 283.65 L 129.25 256.12 L 141.10 236.53 L 152.95 192.98 L 164.79 135.80 L 176.64 183.68 L 188.49 184.67 L 200.34 190.93 L 212.19 255.59 L 224.04 294.63 L 235.89 209.53 L 247.74 237.06 L 259.59 167.36 L 271.44 60.00 L 283.29 70.45 L 295.14 66.18 L 306.99 146.17 L 318.84 277.24 L 330.68 326.96 L 342.53 337.79 L 354.38 375.00 L 366.23 333.06 L 378.08 308.20 L 389.93 290.89 L 401.78 264.74 L 413.63 247.28 L 425.48 278.92 L 437.33 241.33 L 449.18 272.67 L 461.03 307.67 L 472.88 264.05 L 484.73 273.13 L 496.58 273.58 L 508.42 183.07 L 520.27 209.46 L 532.12 304.77 L 543.97 329.32 L 555.82 342.21 L 567.67 374.85 L 579.52 360.82 L 591.37 332.91 L 603.22 310.11 L 615.07 254.37 L 626.92 241.41 L 638.77 250.25 L 650.62 274.96 L 662.47 271.37 L 674.32 287.00 L 686.16 289.90 L 698.01 256.43 L 709.86 234.08 L 721.71 237.06 L 733.56 246.21 L 745.41 211.90 L 757.26 84.17 L 769.11 172.78 L 780.96 214.11 L 792.81 200.15 L 804.66 248.88 L 816.51 293.33 L 828.36 261.99 L 840.21 228.59 L 852.05 226.46 L 863.90 237.44 L 875.75 170.49 L 887.60 173.85 L 899.45 111.24 L 911.30 253.00 L 923.15 248.65 L 935.00 271.37" fill="none" stroke="#69a7ff" stroke-width="4" stroke-linecap="round" stroke-linejoin="round"/>
<circle cx="935.00" cy="271.37" r="6" fill="#69a7ff"/>
</svg>