<svg xmlns="http://www.w3.org/2000/svg" width="960" height="430" viewBox="0 0 960 430" role="img" aria-label="Composite score history">
<rect width="100%" height="100%" fill="#0b1020" rx="20"/>
<text x="70" y="32" fill="#f5f7fb" font-family="Inter, Arial, sans-serif" font-size="24" font-weight="700">Composite score history</text>
<text x="70" y="52" fill="#93a4c3" font-family="Inter, Arial, sans-serif" font-size="13">Trailing 55 sessions through 2025-09-30</text>
<line x1="70" x2="935" y1="375.00" y2="375.00" stroke="#27314e" stroke-width="1"/>
<text x="58" y="379.00" text-anchor="end" fill="#93a4c3" font-family="Inter, Arial, sans-serif" font-size="12">2</text>
<line x1="70" x2="935" y1="312.00" y2="312.00" stroke="#27314e" stroke-width="1"/>
<text x="58" y="316.00" text-anchor="end" fill="#93a4c3" font-family="Inter, Arial, sans-serif" font-size="12">6</text>
<line x1="70" x2="935" y1="249.00" y2="249.00" stroke="#27314e" stroke-width="1"/>
<text x="58" y="253.00" text-anchor="end" fill="#93a4c3" font-family="Inter, Arial, sans-serif" font-size="12">11</text>
<line x1="70" x2="935" y1="186.00" y2="186.00" stroke="#27314e" stroke-width="1"/>
<text x="58" y="190.00" text-anchor="end" fill="#93a4c3" font-family="Inter, Arial, sans-serif" font-size="12">15</text>
<line x1="70" x2="935" y1="123.00" y2="123.00" stroke="#27314e" stroke-width="1"/>
<text x="58" y="127.00" text-anchor="end" fill="#93a4c3" font-family="Inter, Arial, sans-serif" font-size="12">19</text>
<line x1="70" x2="935" y1="60.00" y2="60.00" stroke="#27314e" stroke-width="1"/>
<text x="58" y="64.00" text-anchor="end" fill="#93a4c3" font-family="Inter, Arial, sans-serif" font-size="12">23</text>
<text x="70.00" y="412" text-anchor="middle" fill="#93a4c3" font-family="Inter, Arial, sans-serif" font-size="12">2025-07-15</text>
<text x="502.50" y="412" text-anchor="middle" fill="#93a4c3" font-family="Inter, Arial, sans-serif" font-size="12">2025-08-21</text>
<text x="935.00" y="412" text-anchor="middle" fill="#93a4c3" font-family="Inter, Arial, sans-serif" font-size="12">2025-09-30</text>
<path d="M 70.00 344.85 L 86.02 328.81 L 102.04 261.68 L 118.06 318.56 L 134.07 334.46 L 150.09 354.80 L 166.11 367.57 L 182.13 367.28 L 198.15 327.92 L 214.17 282.33 L 230.19 297.48 L 246.20 201.39 L 262.22 261.24 L 278.24 60.00 L 294.26 238.96 L 310.28 229.90 L 326.30 312.92 L 342.31 353.91 L 358.33 117.48 L 374.35 160.84 L 390.37 337.57 L 406.39 340.40 L 422.41 306.83 L 438.43 370.69 L 454.44 357.03 L 470.46 269.41 L 486.48 161.88 L 502.50 123.27 L 518.52 269.11 L 534.54 232.87 L 550.56 171.83 L 566.57 187.72 L 582.59 285.30 L 598.61 344.11 L 614.63 286.63 L 630.65 312.03 L 646.67 362.08 L 662.69 335.94 L 678.70 370.40 L 694.72 371.29 L 710.74 367.72 L 726.76 375.00 L 742.78 300.15 L 758.80 281.58 L 774.81 338.02 L 790.83 321.24 L 806.85 220.10 L 822.87 323.61 L 838.89 231.09 L 854.91 319.60 L 870.93 277.72 L 886.94 203.17 L 902.96 256.34 L 918.98 293.02 L 935.00 253.22" fill="none" stroke="#69a7ff" stroke-width="4" stroke-linecap="round" stroke-linejoin="round"/>
<circle cx="935.00" cy="253.22" r="6" fill="#69a7ff"/>
<text x="927.00" y="241.22" text-anchor="end" fill="#f5f7fb" font-family="Inter, Arial, sans-serif" font-size="12" font-weight="600">10.26</text>
</svg>