<svg xmlns="http://www.w3.org/2000/svg" width="960" height="430" viewBox="0 0 960 430" role="img" aria-label="Composite score history">
<rect width="100%" height="100%" fill="#0b1020" rx="20"/>
<text x="70" y="32" fill="#f5f7fb" font-family="Inter, Arial, sans-serif" font-size="24" font-weight="700">Composite score history</text>
<text x="70" y="52" fill="#93a4c3" font-family="Inter, Arial, sans-serif" font-size="13">Trailing 52 sessions through 2025-09-30</text>
<line x1="70" x2="935" y1="375.00" y2="375.00" stroke="#27314e" stroke-width="1"/>
<text x="58" y="379.00" text-anchor="end" fill="#93a4c3" font-family="Inter, Arial, sans-serif" font-size="12">8</text>
<line x1="70" x2="935" y1="312.00" y2="312.00" stroke="#27314e" stroke-width="1"/>
<text x="58" y="316.00" text-anchor="end" fill="#93a4c3" font-family="Inter, Arial, sans-serif" font-size="12">13</text>
<line x1="70" x2="935" y1="249.00" y2="249.00" stroke="#27314e" stroke-width="1"/>
<text x="58" y="253.00" text-anchor="end" fill="#93a4c3" font-family="Inter, Arial, sans-serif" font-size="12">18</text>
<line x1="70" x2="935" y1="186.00" y2="186.00" stroke="#27314e" stroke-width="1"/>
<text x="58" y="190.00" text-anchor="end" fill="#93a4c3" font-family="Inter, Arial, sans-serif" font-size="12">24</text>
<line x1="70" x2="935" y1="123.00" y2="123.00" stroke="#27314e" stroke-width="1"/>
<text x="58" y="127.00" text-anchor="end" fill="#93a4c3" font-family="Inter, Arial, sans-serif" font-size="12">29</text>
<line x1="70" x2="935" y1="60.00" y2="60.00" stroke="#27314e" stroke-width="1"/>
<text x="58" y="64.00" text-anchor="end" fill="#93a4c3" font-family="Inter, Arial, sans-serif" font-size="12">34</text>
<text x="70.00" y="412" text-anchor="middle" fill="#93a4c3" font-family="Inter, Arial, sans-serif" font-size="12">2025-07-18</text>
<text x="510.98" y="412" text-anchor="middle" fill="#93a4c3" font-family="Inter, Arial, sans-serif" font-size="12">2025-08-25</text>
<text x="935.00" y="412" text-anchor="middle" fill="#93a4c3" font-family="Inter, Arial, sans-serif" font-size="12">2025-09-30</text>
<path d="M 70.00 270.92 L 86.96 274.55 L 103.92 285.18 L 120.88 322.83 L 137.84 296.06 L 154.80 318.71 L 171.76 298.94 L 188.73 289.56 L 205.69 224.13 L 222.65 216.25 L 239.61 60.00 L 256.57 205.24 L 273.53 195.11 L 290.49 269.42 L 307.45 299.94 L 324.41 291.18 L 341.37 245.15 L 358.33 373.62 L 375.29 369.00 L 392.25 351.61 L 409.22 338.85 L 426.18 340.72 L 443.14 252.15 L 460.10 190.60 L 477.06 140.69 L 494.02 282.93 L 510.98 247.40 L 527.94 268.29 L 544.90 289.31 L 561.86 346.73 L 578.82 290.93 L 595.78 234.76 L 612.75 264.04 L 629.71 321.58 L 646.67 300.07 L 663.63 349.48 L 680.59 372.75 L 697.55 366.87 L 714.51 375.00 L 731.47 352.86 L 748.43 348.98 L 765.39 346.98 L 782.35 336.47 L 799.31 280.55 L 816.27 337.72 L 833.24 302.32 L 850.20 323.33 L 867.16 301.32 L 884.12 229.88 L 901.08 268.04 L 918.04 270.79 L 935.00 290.31" fill="none" stroke="#69a7ff" stroke-width="4" stroke-linecap="round" stroke-linejoin="round"/>
<circle cx="935.00" cy="290.31" r="6" fill="#69a7ff"/>
</svg>