<svg xmlns="http://www.w3.org/2000/svg" width="960" height="430" viewBox="0 0 960 430" role="img" aria-label="Composite score history">
<rect width="100%" height="100%" fill="#0b1020" rx="20"/>
<text x="70" y="32" fill="#f5f7fb" font-family="Inter, Arial, sans-serif" font-size="24" font-weight="700">Composite score history</text>
<text x="70" y="52" fill="#93a4c3" font-family="Inter, Arial, sans-serif" font-size="13">Trailing 48 sessions through 2025-09-30</text>
<line x1="70" x2="935" y1="375.00" y2="375.00" stroke="#27314e" stroke-width="1"/>
<text x="58" y="379.00" text-anchor="end" fill="#93a4c3" font-family="Inter, Arial, sans-serif" font-size="12">8</text>
<line x1="70" x2="935" y1="312.00" y2="312.00" stroke="#27314e" stroke-width="1"/>
<text x="58" y="316.00" text-anchor="end" fill="#93a4c3" font-family="Inter, Arial, sans-serif" font-size="12">13</text>
<line x1="70" x2="935" y1="249.00" y2="249.00" stroke="#27314e" stroke-width="1"/>
<text x="58" y="253.00" text-anchor="end" fill="#93a4c3" font-family="Inter, Arial, sans-serif" font-size="12">18</text>
<line x1="70" x2="935" y1="186.00" y2="186.00" stroke="#27314e" stroke-width="1"/>
<text x="58" y="190.00" text-anchor="end" fill="#93a4c3" font-family="Inter, Arial, sans-serif" font-size="12">24</text>
<line x1="70" x2="935" y1="123.00" y2="123.00" stroke="#27314e" stroke-width="1"/>
<text x="58" y="127.00" text-anchor="end" fill="#93a4c3" font-family="Inter, Arial, sans-serif" font-size="12">29</text>
<line x1="70" x2="935" y1="60.00" y2="60.00" stroke="#27314e" stroke-width="1"/>
<text x="58" y="64.00" text-anchor="end" fill="#93a4c3" font-family="Inter, Arial, sans-serif" font-size="12">34</text>
<text x="70.00" y="412" text-anchor="middle" fill="#93a4c3" font-family="Inter, Arial, sans-serif" font-size="12">2025-07-24</text>
<text x="511.70" y="412" text-anchor="middle" fill="#93a4c3" font-family="Inter, Arial, sans-serif" font-size="12">2025-08-27</text>
<text x="935.00" y="412" text-anchor="middle" fill="#93a4c3" font-family="Inter, Arial, sans-serif" font-size="12">2025-09-30</text>
<path d="M 70.00 278.05 L 88.40 300.57 L 106.81 300.19 L 125.21 277.17 L 143.62 261.91 L 162.02 216.25 L 180.43 60.00 L 198.83 205.24 L 217.23 195.11 L 235.64 269.42 L 254.04 299.94 L 272.45 291.18 L 290.85 245.15 L 309.26 373.62 L 327.66 369.00 L 346.06 351.61 L 364.47 338.85 L 382.87 340.72 L 401.28 252.15 L 419.68 190.60 L 438.09 140.69 L 456.49 282.93 L 474.89 247.40 L 493.30 268.29 L 511.70 289.31 L 530.11 346.73 L 548.51 290.93 L 566.91 234.76 L 585.32 264.04 L 603.72 321.58 L 622.13 300.07 L 640.53 349.48 L 658.94 372.75 L 677.34 366.87 L 695.74 375.00 L 714.15 352.86 L 732.55 348.98 L 750.96 346.98 L 769.36 336.47 L 787.77 280.55 L 806.17 337.72 L 824.57 302.32 L 842.98 323.33 L 861.38 301.32 L 879.79 229.88 L 898.19 268.04 L 916.60 270.79 L 935.00 290.31" fill="none" stroke="#69a7ff" stroke-width="4" stroke-linecap="round" stroke-linejoin="round"/>
<circle cx="935.00" cy="290.31" r="6" fill="#69a7ff"/>
</svg>