<svg xmlns="http://www.w3.org/2000/svg" width="960" height="430" viewBox="0 0 960 430" role="img" aria-label="Composite score history">
<rect width="100%" height="100%" fill="#0b1020" rx="20"/>
<text x="70" y="32" fill="#f5f7fb" font-family="Inter, Arial, sans-serif" font-size="24" font-weight="700">Composite score history</text>
<text x="70" y="52" fill="#93a4c3" font-family="Inter, Arial, sans-serif" font-size="13">Trailing 53 sessions through 2025-09-30</text>
<line x1="70" x2="935" y1="375.00" y2="375.00" stroke="#27314e" stroke-width="1"/>
<text x="58" y="379.00" text-anchor="end" fill="#93a4c3" font-family="Inter, Arial, sans-serif" font-size="12">12</text>
<line x1="70" x2="935" y1="312.00" y2="312.00" stroke="#27314e" stroke-width="1"/>
<text x="58" y="316.00" text-anchor="end" fill="#93a4c3" font-family="Inter, Arial, sans-serif" font-size="12">16</text>
<line x1="70" x2="935" y1="249.00" y2="249.00" stroke="#27314e" stroke-width="1"/>
<text x="58" y="253.00" text-anchor="end" fill="#93a4c3" font-family="Inter, Arial, sans-serif" font-size="12">20</text>
<line x1="70" x2="935" y1="186.00" y2="186.00" stroke="#27314e" stroke-width="1"/>
<text x="58" y="190.00" text-anchor="end" fill="#93a4c3" font-family="Inter, Arial, sans-serif" font-size="12">25</text>
<line x1="70" x2="935" y1="123.00" y2="123.00" stroke="#27314e" stroke-width="1"/>
<text x="58" y="127.00" text-anchor="end" fill="#93a4c3" font-family="Inter, Arial, sans-serif" font-size="12">29</text>
<line x1="70" x2="935" y1="60.00" y2="60.00" stroke="#27314e" stroke-width="1"/>
<text x="58" y="64.00" text-anchor="end" fill="#93a4c3" font-family="Inter, Arial, sans-serif" font-size="12">34</text>
<text x="70.00" y="412" text-anchor="middle" fill="#93a4c3" font-family="Inter, Arial, sans-serif" font-size="12">2025-07-17</text>
<text x="502.50" y="412" text-anchor="middle" fill="#93a4c3" font-family="Inter, Arial, sans-serif" font-size="12">2025-08-22</text>
<text x="935.00" y="412" text-anchor="middle" fill="#93a4c3" font-family="Inter, Arial, sans-serif" font-size="12">2025-09-30</text>
<path d="M 70.00 291.83 L 86.63 301.75 L 103.27 303.05 L 119.90 312.69 L 136.54 326.79 L 153.17 310.68 L 169.81 304.92 L 186.44 286.64 L 203.08 288.95 L 219.71 246.35 L 236.35 239.59 L 252.98 60.00 L 269.62 226.93 L 286.25 215.27 L 302.88 300.75 L 319.52 335.43 L 336.15 238.58 L 352.79 248.08 L 369.42 336.87 L 386.06 346.51 L 402.69 322.33 L 419.33 346.65 L 435.96 340.03 L 452.60 280.89 L 469.23 210.09 L 485.87 152.67 L 502.50 306.79 L 519.13 275.42 L 535.77 268.80 L 552.40 275.42 L 569.04 315.28 L 585.67 325.50 L 602.31 260.89 L 618.94 294.56 L 635.58 349.39 L 652.21 336.00 L 668.85 373.42 L 685.48 365.21 L 702.12 366.08 L 718.75 375.00 L 735.38 339.74 L 752.02 325.79 L 768.65 338.02 L 785.29 340.18 L 801.92 289.23 L 818.56 335.57 L 835.19 296.00 L 851.83 335.57 L 868.46 317.01 L 885.10 255.27 L 901.73 299.16 L 918.37 302.33 L 935.00 307.65" fill="none" stroke="#69a7ff" stroke-width="4" stroke-linecap="round" stroke-linejoin="round"/>
<circle cx="935.00" cy="307.65" r="6" fill="#69a7ff"/>
<text x="927.00" y="295.65" text-anchor="end" fill="#f5f7fb" font-family="Inter, Arial, sans-serif" font-size="12" font-weight="600">16.36</text>
</svg>