<svg xmlns="http://www.w3.org/2000/svg" width="960" height="430" viewBox="0 0 960 430" role="img" aria-label="Composite score history">
<rect width="100%" height="100%" fill="#0b1020" rx="20"/>
<text x="70" y="32" fill="#f5f7fb" font-family="Inter, Arial, sans-serif" font-size="24" font-weight="700">Composite score history</text>
<text x="70" y="52" fill="#93a4c3" font-family="Inter, Arial, sans-serif" font-size="13">Trailing 49 sessions through 2025-09-30</text>
<line x1="70" x2="935" y1="375.00" y2="375.00" stroke="#27314e" stroke-width="1"/>
<text x="58" y="379.00" text-anchor="end" fill="#93a4c3" font-family="Inter, Arial, sans-serif" font-size="12">8</text>
<line x1="70" x2="935" y1="312.00" y2="312.00" stroke="#27314e" stroke-width="1"/>
<text x="58" y="316.00" text-anchor="end" fill="#93a4c3" font-family="Inter, Arial, sans-serif" font-size="12">13</text>
<line x1="70" x2="935" y1="249.00" y2="249.00" stroke="#27314e" stroke-width="1"/>
<text x="58" y="253.00" text-anchor="end" fill="#93a4c3" font-family="Inter, Arial, sans-serif" font-size="12">18</text>
<line x1="70" x2="935" y1="186.00" y2="186.00" stroke="#27314e" stroke-width="1"/>
<text x="58" y="190.00" text-anchor="end" fill="#93a4c3" font-family="Inter, Arial, sans-serif" font-size="12">24</text>
<line x1="70" x2="935" y1="123.00" y2="123.00" stroke="#27314e" stroke-width="1"/>
<text x="58" y="127.00" text-anchor="end" fill="#93a4c3" font-family="Inter, Arial, sans-serif" font-size="12">29</text>
<line x1="70" x2="935" y1="60.00" y2="60.00" stroke="#27314e" stroke-width="1"/>
<text x="58" y="64.00" text-anchor="end" fill="#93a4c3" font-family="Inter, Arial, sans-serif" font-size="12">34</text>
<text x="70.00" y="412" text-anchor="middle" fill="#93a4c3" font-family="Inter, Arial, sans-serif" font-size="12">2025-07-23</text>
<text x="502.50" y="412" text-anchor="middle" fill="#93a4c3" font-family="Inter, Arial, sans-serif" font-size="12">2025-08-26</text>
<text x="935.00" y="412" text-anchor="middle" fill="#93a4c3" font-family="Inter, Arial, sans-serif" font-size="12">2025-09-30</text>
<path d="M 70.00 292.06 L 88.02 227.51 L 106.04 268.92 L 124.06 268.54 L 142.08 254.15 L 160.10 224.13 L 178.12 216.25 L 196.15 60.00 L 214.17 205.24 L 232.19 195.11 L 250.21 269.42 L 268.23 299.94 L 286.25 291.18 L 304.27 245.15 L 322.29 373.62 L 340.31 369.00 L 358.33 351.61 L 376.35 338.85 L 394.38 340.72 L 412.40 252.15 L 430.42 190.60 L 448.44 140.69 L 466.46 282.93 L 484.48 247.40 L 502.50 268.29 L 520.52 289.31 L 538.54 346.73 L 556.56 290.93 L 574.58 234.76 L 592.60 264.04 L 610.62 321.58 L 628.65 300.07 L 646.67 349.48 L 664.69 372.75 L 682.71 366.87 L 700.73 375.00 L 718.75 352.86 L 736.77 348.98 L 754.79 346.98 L 772.81 336.47 L 790.83 280.55 L 808.85 337.72 L 826.88 302.32 L 844.90 323.33 L 862.92 301.32 L 880.94 229.88 L 898.96 268.04 L 916.98 270.79 L 935.00 290.31" fill="none" stroke="#69a7ff" stroke-width="4" stroke-linecap="round" stroke-linejoin="round"/>
<circle cx="935.00" cy="290.31" r="6" fill="#69a7ff"/>
</svg>