<svg xmlns="http://www.w3.org/2000/svg" width="960" height="430" viewBox="0 0 960 430" role="img" aria-label="Composite score history">
<rect width="100%" height="100%" fill="#0b1020" rx="20"/>
<text x="70" y="32" fill="#f5f7fb" font-family="Inter, Arial, sans-serif" font-size="24" font-weight="700">Composite score history</text>
<text x="70" y="52" fill="#93a4c3" font-family="Inter, Arial, sans-serif" font-size="13">Trailing 49 sessions through 2025-11-07</text>
<line x1="70" x2="935" y1="375.00" y2="375.00" stroke="#27314e" stroke-width="1"/>
<text x="58" y="379.00" text-anchor="end" fill="#93a4c3" font-family="Inter, Arial, sans-serif" font-size="12">5</text>
<line x1="70" x2="935" y1="312.00" y2="312.00" stroke="#27314e" stroke-width="1"/>
<text x="58" y="316.00" text-anchor="end" fill="#93a4c3" font-family="Inter, Arial, sans-serif" font-size="12">11</text>
<line x1="70" x2="935" y1="249.00" y2="249.00" stroke="#27314e" stroke-width="1"/>
<text x="58" y="253.00" text-anchor="end" fill="#93a4c3" font-family="Inter, Arial, sans-serif" font-size="12">17</text>
<line x1="70" x2="935" y1="186.00" y2="186.00" stroke="#27314e" stroke-width="1"/>
<text x="58" y="190.00" text-anchor="end" fill="#93a4c3" font-family="Inter, Arial, sans-serif" font-size="12">23</text>
<line x1="70" x2="935" y1="123.00" y2="123.00" stroke="#27314e" stroke-width="1"/>
<text x="58" y="127.00" text-anchor="end" fill="#93a4c3" font-family="Inter, Arial, sans-serif" font-size="12">29</text>
<line x1="70" x2="935" y1="60.00" y2="60.00" stroke="#27314e" stroke-width="1"/>
<text x="58" y="64.00" text-anchor="end" fill="#93a4c3" font-family="Inter, Arial, sans-serif" font-size="12">35</text>
<text x="70.00" y="412" text-anchor="middle" fill="#93a4c3" font-family="Inter, Arial, sans-serif" font-size="12">2025-08-29</text>
<text x="502.50" y="412" text-anchor="middle" fill="#93a4c3" font-family="Inter, Arial, sans-serif" font-size="12">2025-10-03</text>
<text x="935.00" y="412" text-anchor="middle" fill="#93a4c3" font-family="Inter, Arial, sans-serif" font-size="12">2025-11-07</text>
<path d="M 70.00 285.27 L 88.02 174.96 L 106.04 249.49 L 124.06 307.65 L 142.08 308.92 L 160.10 318.00 L 178.12 337.63 L 196.15 332.67 L 214.17 339.53 L 232.19 320.85 L 250.21 317.57 L 268.23 315.88 L 286.25 307.02 L 304.27 259.83 L 322.29 308.07 L 340.31 278.20 L 358.33 295.93 L 376.35 277.35 L 394.38 217.08 L 412.40 249.27 L 430.42 251.60 L 448.44 268.06 L 466.46 321.27 L 484.48 337.95 L 502.50 305.01 L 520.52 319.58 L 538.54 285.06 L 556.56 295.09 L 574.58 264.79 L 592.60 80.69 L 610.62 152.37 L 628.65 203.46 L 646.67 60.00 L 664.69 180.66 L 682.71 375.00 L 700.73 338.05 L 718.75 304.06 L 736.77 230.70 L 754.79 279.99 L 772.81 304.27 L 790.83 323.49 L 808.85 278.41 L 826.88 263.63 L 844.90 236.50 L 862.92 176.22 L 880.94 97.05 L 898.96 163.35 L 916.98 164.72 L 935.00 173.37" fill="none" stroke="#69a7ff" stroke-width="4" stroke-linecap="round" stroke-linejoin="round"/>
<circle cx="935.00" cy="173.37" r="6" fill="#69a7ff"/>
</svg>