<svg xmlns="http://www.w3.org/2000/svg" width="960" height="430" viewBox="0 0 960 430" role="img" aria-label="Composite score history">
<rect width="100%" height="100%" fill="#0b1020" rx="20"/>
<text x="70" y="32" fill="#f5f7fb" font-family="Inter, Arial, sans-serif" font-size="24" font-weight="700">Composite score history</text>
<text x="70" y="52" fill="#93a4c3" font-family="Inter, Arial, sans-serif" font-size="13">Trailing 80 sessions through 2025-11-07</text>
<line x1="70" x2="935" y1="375.00" y2="375.00" stroke="#27314e" stroke-width="1"/>
<text x="58" y="379.00" text-anchor="end" fill="#93a4c3" font-family="Inter, Arial, sans-serif" font-size="12">12</text>
<line x1="70" x2="935" y1="312.00" y2="312.00" stroke="#27314e" stroke-width="1"/>
<text x="58" y="316.00" text-anchor="end" fill="#93a4c3" font-family="Inter, Arial, sans-serif" font-size="12">16</text>
<line x1="70" x2="935" y1="249.00" y2="249.00" stroke="#27314e" stroke-width="1"/>
<text x="58" y="253.00" text-anchor="end" fill="#93a4c3" font-family="Inter, Arial, sans-serif" font-size="12">21</text>
<line x1="70" x2="935" y1="186.00" y2="186.00" stroke="#27314e" stroke-width="1"/>
<text x="58" y="190.00" text-anchor="end" fill="#93a4c3" font-family="Inter, Arial, sans-serif" font-size="12">26</text>
<line x1="70" x2="935" y1="123.00" y2="123.00" stroke="#27314e" stroke-width="1"/>
<text x="58" y="127.00" text-anchor="end" fill="#93a4c3" font-family="Inter, Arial, sans-serif" font-size="12">30</text>
<line x1="70" x2="935" y1="60.00" y2="60.00" stroke="#27314e" stroke-width="1"/>
<text x="58" y="64.00" text-anchor="end" fill="#93a4c3" font-family="Inter, Arial, sans-serif" font-size="12">35</text>
<text x="70.00" y="412" text-anchor="middle" fill="#93a4c3" font-family="Inter, Arial, sans-serif" font-size="12">2025-07-17</text>
<text x="507.97" y="412" text-anchor="middle" fill="#93a4c3" font-family="Inter, Arial, sans-serif" font-size="12">2025-09-12</text>
<text x="935.00" y="412" text-anchor="middle" fill="#93a4c3" font-family="Inter, Arial, sans-serif" font-size="12">2025-11-07</text>
<path d="M 70.00 296.52 L 80.95 305.89 L 91.90 307.11 L 102.85 316.21 L 113.80 329.52 L 124.75 314.31 L 135.70 308.88 L 146.65 291.63 L 157.59 293.81 L 168.54 253.62 L 179.49 247.23 L 190.44 77.79 L 201.39 235.29 L 212.34 224.29 L 223.29 304.94 L 234.24 337.66 L 245.19 246.28 L 256.14 255.25 L 267.09 339.02 L 278.04 348.12 L 288.99 325.31 L 299.94 348.25 L 310.89 342.01 L 321.84 286.20 L 332.78 219.40 L 343.73 165.23 L 354.68 310.64 L 365.63 281.04 L 376.58 274.80 L 387.53 281.04 L 398.48 318.65 L 409.43 328.29 L 420.38 267.33 L 431.33 299.10 L 442.28 350.83 L 453.23 338.20 L 464.18 373.51 L 475.13 365.77 L 486.08 366.58 L 497.03 375.00 L 507.97 341.73 L 518.92 328.56 L 529.87 340.11 L 540.82 342.14 L 551.77 294.08 L 562.72 337.80 L 573.67 300.46 L 584.62 337.80 L 595.57 320.28 L 606.52 262.03 L 617.47 303.45 L 628.42 306.43 L 639.37 311.46 L 650.32 358.71 L 661.27 360.61 L 672.22 338.34 L 683.16 353.55 L 694.11 336.17 L 705.06 340.78 L 716.01 313.36 L 726.96 86.61 L 737.91 178.67 L 748.86 244.52 L 759.81 60.00 L 770.76 215.19 L 781.71 370.52 L 792.66 371.06 L 803.61 359.52 L 814.56 223.61 L 825.51 278.06 L 836.46 303.72 L 847.41 320.42 L 858.35 243.98 L 869.30 279.69 L 880.25 262.85 L 891.20 209.49 L 902.15 107.66 L 913.10 192.92 L 924.05 194.69 L 935.00 205.82" fill="none" stroke="#69a7ff" stroke-width="4" stroke-linecap="round" stroke-linejoin="round"/>
<circle cx="935.00" cy="205.82" r="6" fill="#69a7ff"/>
<text x="927.00" y="193.82" text-anchor="end" fill="#f5f7fb" font-family="Inter, Arial, sans-serif" font-size="12" font-weight="600">24.14</text>
</svg>