<svg xmlns="http://www.w3.org/2000/svg" width="960" height="430" viewBox="0 0 960 430" role="img" aria-label="Composite score history">
<rect width="100%" height="100%" fill="#0b1020" rx="20"/>
<text x="70" y="32" fill="#f5f7fb" font-family="Inter, Arial, sans-serif" font-size="24" font-weight="700">Composite score history</text>
<text x="70" y="52" fill="#93a4c3" font-family="Inter, Arial, sans-serif" font-size="13">Trailing 72 sessions through 2025-11-07</text>
<line x1="70" x2="935" y1="375.00" y2="375.00" stroke="#27314e" stroke-width="1"/>
<text x="58" y="379.00" text-anchor="end" fill="#93a4c3" font-family="Inter, Arial, sans-serif" font-size="12">5</text>
<line x1="70" x2="935" y1="312.00" y2="312.00" stroke="#27314e" stroke-width="1"/>
<text x="58" y="316.00" text-anchor="end" fill="#93a4c3" font-family="Inter, Arial, sans-serif" font-size="12">11</text>
<line x1="70" x2="935" y1="249.00" y2="249.00" stroke="#27314e" stroke-width="1"/>
<text x="58" y="253.00" text-anchor="end" fill="#93a4c3" font-family="Inter, Arial, sans-serif" font-size="12">17</text>
<line x1="70" x2="935" y1="186.00" y2="186.00" stroke="#27314e" stroke-width="1"/>
<text x="58" y="190.00" text-anchor="end" fill="#93a4c3" font-family="Inter, Arial, sans-serif" font-size="12">23</text>
<line x1="70" x2="935" y1="123.00" y2="123.00" stroke="#27314e" stroke-width="1"/>
<text x="58" y="127.00" text-anchor="end" fill="#93a4c3" font-family="Inter, Arial, sans-serif" font-size="12">29</text>
<line x1="70" x2="935" y1="60.00" y2="60.00" stroke="#27314e" stroke-width="1"/>
<text x="58" y="64.00" text-anchor="end" fill="#93a4c3" font-family="Inter, Arial, sans-serif" font-size="12">35</text>
<text x="70.00" y="412" text-anchor="middle" fill="#93a4c3" font-family="Inter, Arial, sans-serif" font-size="12">2025-07-29</text>
<text x="508.59" y="412" text-anchor="middle" fill="#93a4c3" font-family="Inter, Arial, sans-serif" font-size="12">2025-09-18</text>
<text x="935.00" y="412" text-anchor="middle" fill="#93a4c3" font-family="Inter, Arial, sans-serif" font-size="12">2025-11-07</text>
<path d="M 70.00 259.73 L 82.18 217.71 L 94.37 184.14 L 106.55 98.53 L 118.73 221.19 L 130.92 187.73 L 143.10 250.44 L 155.28 276.19 L 167.46 268.80 L 179.65 229.96 L 191.83 338.37 L 204.01 334.46 L 216.20 319.79 L 228.38 309.02 L 240.56 310.61 L 252.75 235.87 L 264.93 183.93 L 277.11 141.81 L 289.30 261.84 L 301.48 231.86 L 313.66 249.49 L 325.85 267.22 L 338.03 315.67 L 350.21 268.59 L 362.39 221.19 L 374.58 245.90 L 386.76 294.46 L 398.94 276.30 L 411.13 318.00 L 423.31 337.63 L 435.49 332.67 L 447.68 339.53 L 459.86 320.85 L 472.04 317.57 L 484.23 315.88 L 496.41 307.02 L 508.59 259.83 L 520.77 308.07 L 532.96 278.20 L 545.14 295.93 L 557.32 277.35 L 569.51 217.08 L 581.69 249.27 L 593.87 251.60 L 606.06 268.06 L 618.24 321.27 L 630.42 337.95 L 642.61 305.01 L 654.79 319.58 L 666.97 285.06 L 679.15 295.09 L 691.34 264.79 L 703.52 80.69 L 715.70 152.37 L 727.89 203.46 L 740.07 60.00 L 752.25 180.66 L 764.44 375.00 L 776.62 338.05 L 788.80 304.06 L 800.99 230.70 L 813.17 279.99 L 825.35 304.27 L 837.54 323.49 L 849.72 278.41 L 861.90 263.63 L 874.08 236.50 L 886.27 176.22 L 898.45 97.05 L 910.63 163.35 L 922.82 164.72 L 935.00 173.37" fill="none" stroke="#69a7ff" stroke-width="4" stroke-linecap="round" stroke-linejoin="round"/>
<circle cx="935.00" cy="173.37" r="6" fill="#69a7ff"/>
</svg>