<svg xmlns="http://www.w3.org/2000/svg" width="960" height="430" viewBox="0 0 960 430" role="img" aria-label="Composite score history">
<rect width="100%" height="100%" fill="#0b1020" rx="20"/>
<text x="70" y="32" fill="#f5f7fb" font-family="Inter, Arial, sans-serif" font-size="24" font-weight="700">Composite score history</text>
<text x="70" y="52" fill="#93a4c3" font-family="Inter, Arial, sans-serif" font-size="13">Trailing 50 sessions through 2025-11-07</text>
<line x1="70" x2="935" y1="375.00" y2="375.00" stroke="#27314e" stroke-width="1"/>
<text x="58" y="379.00" text-anchor="end" fill="#93a4c3" font-family="Inter, Arial, sans-serif" font-size="12">5</text>
<line x1="70" x2="935" y1="312.00" y2="312.00" stroke="#27314e" stroke-width="1"/>
<text x="58" y="316.00" text-anchor="end" fill="#93a4c3" font-family="Inter, Arial, sans-serif" font-size="12">11</text>
<line x1="70" x2="935" y1="249.00" y2="249.00" stroke="#27314e" stroke-width="1"/>
<text x="58" y="253.00" text-anchor="end" fill="#93a4c3" font-family="Inter, Arial, sans-serif" font-size="12">17</text>
<line x1="70" x2="935" y1="186.00" y2="186.00" stroke="#27314e" stroke-width="1"/>
<text x="58" y="190.00" text-anchor="end" fill="#93a4c3" font-family="Inter, Arial, sans-serif" font-size="12">23</text>
<line x1="70" x2="935" y1="123.00" y2="123.00" stroke="#27314e" stroke-width="1"/>
<text x="58" y="127.00" text-anchor="end" fill="#93a4c3" font-family="Inter, Arial, sans-serif" font-size="12">29</text>
<line x1="70" x2="935" y1="60.00" y2="60.00" stroke="#27314e" stroke-width="1"/>
<text x="58" y="64.00" text-anchor="end" fill="#93a4c3" font-family="Inter, Arial, sans-serif" font-size="12">35</text>
<text x="70.00" y="412" text-anchor="middle" fill="#93a4c3" font-family="Inter, Arial, sans-serif" font-size="12">2025-08-28</text>
<text x="511.33" y="412" text-anchor="middle" fill="#93a4c3" font-family="Inter, Arial, sans-serif" font-size="12">2025-10-03</text>
<text x="935.00" y="412" text-anchor="middle" fill="#93a4c3" font-family="Inter, Arial, sans-serif" font-size="12">2025-11-07</text>
<path d="M 70.00 287.49 L 87.65 242.31 L 105.31 150.15 L 122.96 214.97 L 140.61 282.00 L 158.27 276.30 L 175.92 318.00 L 193.57 337.63 L 211.22 332.67 L 228.88 339.53 L 246.53 320.85 L 264.18 317.57 L 281.84 315.88 L 299.49 307.02 L 317.14 259.83 L 334.80 308.07 L 352.45 278.20 L 370.10 295.93 L 387.76 277.35 L 405.41 217.08 L 423.06 249.27 L 440.71 251.60 L 458.37 268.06 L 476.02 321.27 L 493.67 337.95 L 511.33 305.01 L 528.98 319.58 L 546.63 285.06 L 564.29 295.09 L 581.94 264.79 L 599.59 80.69 L 617.24 152.37 L 634.90 203.46 L 652.55 60.00 L 670.20 180.66 L 687.86 375.00 L 705.51 338.05 L 723.16 304.06 L 740.82 230.70 L 758.47 279.99 L 776.12 304.27 L 793.78 323.49 L 811.43 278.41 L 829.08 263.63 L 846.73 236.50 L 864.39 176.22 L 882.04 97.05 L 899.69 163.35 L 917.35 164.72 L 935.00 173.37" fill="none" stroke="#69a7ff" stroke-width="4" stroke-linecap="round" stroke-linejoin="round"/>
<circle cx="935.00" cy="173.37" r="6" fill="#69a7ff"/>
</svg>