<svg xmlns="http://www.w3.org/2000/svg" width="960" height="430" viewBox="0 0 960 430" role="img" aria-label="Composite score history">
<rect width="100%" height="100%" fill="#0b1020" rx="20"/>
<text x="70" y="32" fill="#f5f7fb" font-family="Inter, Arial, sans-serif" font-size="24" font-weight="700">Composite score history</text>
<text x="70" y="52" fill="#93a4c3" font-family="Inter, Arial, sans-serif" font-size="13">Trailing 73 sessions through 2025-11-07</text>
<line x1="70" x2="935" y1="375.00" y2="375.00" stroke="#27314e" stroke-width="1"/>
<text x="58" y="379.00" text-anchor="end" fill="#93a4c3" font-family="Inter, Arial, sans-serif" font-size="12">5</text>
<line x1="70" x2="935" y1="312.00" y2="312.00" stroke="#27314e" stroke-width="1"/>
<text x="58" y="316.00" text-anchor="end" fill="#93a4c3" font-family="Inter, Arial, sans-serif" font-size="12">11</text>
<line x1="70" x2="935" y1="249.00" y2="249.00" stroke="#27314e" stroke-width="1"/>
<text x="58" y="253.00" text-anchor="end" fill="#93a4c3" font-family="Inter, Arial, sans-serif" font-size="12">17</text>
<line x1="70" x2="935" y1="186.00" y2="186.00" stroke="#27314e" stroke-width="1"/>
<text x="58" y="190.00" text-anchor="end" fill="#93a4c3" font-family="Inter, Arial, sans-serif" font-size="12">23</text>
<line x1="70" x2="935" y1="123.00" y2="123.00" stroke="#27314e" stroke-width="1"/>
<text x="58" y="127.00" text-anchor="end" fill="#93a4c3" font-family="Inter, Arial, sans-serif" font-size="12">29</text>
<line x1="70" x2="935" y1="60.00" y2="60.00" stroke="#27314e" stroke-width="1"/>
<text x="58" y="64.00" text-anchor="end" fill="#93a4c3" font-family="Inter, Arial, sans-serif" font-size="12">35</text>
<text x="70.00" y="412" text-anchor="middle" fill="#93a4c3" font-family="Inter, Arial, sans-serif" font-size="12">2025-07-28</text>
<text x="502.50" y="412" text-anchor="middle" fill="#93a4c3" font-family="Inter, Arial, sans-serif" font-size="12">2025-09-17</text>
<text x="935.00" y="412" text-anchor="middle" fill="#93a4c3" font-family="Inter, Arial, sans-serif" font-size="12">2025-11-07</text>
<path d="M 70.00 265.43 L 82.01 229.43 L 94.03 213.49 L 106.04 180.24 L 118.06 73.83 L 130.07 196.28 L 142.08 187.73 L 154.10 250.44 L 166.11 276.19 L 178.12 268.80 L 190.14 229.96 L 202.15 338.37 L 214.17 334.46 L 226.18 319.79 L 238.19 309.02 L 250.21 310.61 L 262.22 235.87 L 274.24 183.93 L 286.25 141.81 L 298.26 261.84 L 310.28 231.86 L 322.29 249.49 L 334.31 267.22 L 346.32 315.67 L 358.33 268.59 L 370.35 221.19 L 382.36 245.90 L 394.38 294.46 L 406.39 276.30 L 418.40 318.00 L 430.42 337.63 L 442.43 332.67 L 454.44 339.53 L 466.46 320.85 L 478.47 317.57 L 490.49 315.88 L 502.50 307.02 L 514.51 259.83 L 526.53 308.07 L 538.54 278.20 L 550.56 295.93 L 562.57 277.35 L 574.58 217.08 L 586.60 249.27 L 598.61 251.60 L 610.62 268.06 L 622.64 321.27 L 634.65 337.95 L 646.67 305.01 L 658.68 319.58 L 670.69 285.06 L 682.71 295.09 L 694.72 264.79 L 706.74 80.69 L 718.75 152.37 L 730.76 203.46 L 742.78 60.00 L 754.79 180.66 L 766.81 375.00 L 778.82 338.05 L 790.83 304.06 L 802.85 230.70 L 814.86 279.99 L 826.88 304.27 L 838.89 323.49 L 850.90 278.41 L 862.92 263.63 L 874.93 236.50 L 886.94 176.22 L 898.96 97.05 L 910.97 163.35 L 922.99 164.72 L 935.00 173.37" fill="none" stroke="#69a7ff" stroke-width="4" stroke-linecap="round" stroke-linejoin="round"/>
<circle cx="935.00" cy="173.37" r="6" fill="#69a7ff"/>
</svg>