<svg xmlns="http://www.w3.org/2000/svg" width="960" height="430" viewBox="0 0 960 430" role="img" aria-label="Composite score history">
<rect width="100%" height="100%" fill="#0b1020" rx="20"/>
<text x="70" y="32" fill="#f5f7fb" font-family="Inter, Arial, sans-serif" font-size="24" font-weight="700">Composite score history</text>
<text x="70" y="52" fill="#93a4c3" font-family="Inter, Arial, sans-serif" font-size="13">Trailing 80 sessions through 2025-11-07</text>
<line x1="70" x2="935" y1="375.00" y2="375.00" stroke="#27314e" stroke-width="1"/>
<text x="58" y="379.00" text-anchor="end" fill="#93a4c3" font-family="Inter, Arial, sans-serif" font-size="12">5</text>
<line x1="70" x2="935" y1="312.00" y2="312.00" stroke="#27314e" stroke-width="1"/>
<text x="58" y="316.00" text-anchor="end" fill="#93a4c3" font-family="Inter, Arial, sans-serif" font-size="12">11</text>
<line x1="70" x2="935" y1="249.00" y2="249.00" stroke="#27314e" stroke-width="1"/>
<text x="58" y="253.00" text-anchor="end" fill="#93a4c3" font-family="Inter, Arial, sans-serif" font-size="12">17</text>
<line x1="70" x2="935" y1="186.00" y2="186.00" stroke="#27314e" stroke-width="1"/>
<text x="58" y="190.00" text-anchor="end" fill="#93a4c3" font-family="Inter, Arial, sans-serif" font-size="12">23</text>
<line x1="70" x2="935" y1="123.00" y2="123.00" stroke="#27314e" stroke-width="1"/>
<text x="58" y="127.00" text-anchor="end" fill="#93a4c3" font-family="Inter, Arial, sans-serif" font-size="12">29</text>
<line x1="70" x2="935" y1="60.00" y2="60.00" stroke="#27314e" stroke-width="1"/>
<text x="58" y="64.00" text-anchor="end" fill="#93a4c3" font-family="Inter, Arial, sans-serif" font-size="12">35</text>
<text x="70.00" y="412" text-anchor="middle" fill="#93a4c3" font-family="Inter, Arial, sans-serif" font-size="12">2025-07-17</text>
<text x="507.97" y="412" text-anchor="middle" fill="#93a4c3" font-family="Inter, Arial, sans-serif" font-size="12">2025-09-12</text>
<text x="935.00" y="412" text-anchor="middle" fill="#93a4c3" font-family="Inter, Arial, sans-serif" font-size="12">2025-11-07</text>
<path d="M 70.00 243.89 L 80.95 251.17 L 91.90 255.61 L 102.85 264.37 L 113.80 295.30 L 124.75 285.38 L 135.70 292.03 L 146.65 275.35 L 157.59 267.43 L 168.54 212.22 L 179.49 205.57 L 190.44 73.72 L 201.39 196.28 L 212.34 187.73 L 223.29 250.44 L 234.24 276.19 L 245.19 268.80 L 256.14 229.96 L 267.09 338.37 L 278.04 334.46 L 288.99 319.79 L 299.94 309.02 L 310.89 310.61 L 321.84 235.87 L 332.78 183.93 L 343.73 141.81 L 354.68 261.84 L 365.63 231.86 L 376.58 249.49 L 387.53 267.22 L 398.48 315.67 L 409.43 268.59 L 420.38 221.19 L 431.33 245.90 L 442.28 294.46 L 453.23 276.30 L 464.18 318.00 L 475.13 337.63 L 486.08 332.67 L 497.03 339.53 L 507.97 320.85 L 518.92 317.57 L 529.87 315.88 L 540.82 307.02 L 551.77 259.83 L 562.72 308.07 L 573.67 278.20 L 584.62 295.93 L 595.57 277.35 L 606.52 217.08 L 617.47 249.27 L 628.42 251.60 L 639.37 268.06 L 650.32 321.27 L 661.27 337.95 L 672.22 305.01 L 683.16 319.58 L 694.11 285.06 L 705.06 295.09 L 716.01 264.79 L 726.96 80.69 L 737.91 152.37 L 748.86 203.46 L 759.81 60.00 L 770.76 180.66 L 781.71 375.00 L 792.66 338.05 L 803.61 304.06 L 814.56 230.70 L 825.51 279.99 L 836.46 304.27 L 847.41 323.49 L 858.35 278.41 L 869.30 263.63 L 880.25 236.50 L 891.20 176.22 L 902.15 97.05 L 913.10 163.35 L 924.05 164.72 L 935.00 173.37" fill="none" stroke="#69a7ff" stroke-width="4" stroke-linecap="round" stroke-linejoin="round"/>
<circle cx="935.00" cy="173.37" r="6" fill="#69a7ff"/>
</svg>