<svg xmlns="http://www.w3.org/2000/svg" width="960" height="430" viewBox="0 0 960 430" role="img" aria-label="Composite score history">
<rect width="100%" height="100%" fill="#0b1020" rx="20"/>
<text x="70" y="32" fill="#f5f7fb" font-family="Inter, Arial, sans-serif" font-size="24" font-weight="700">Composite score history</text>
<text x="70" y="52" fill="#93a4c3" font-family="Inter, Arial, sans-serif" font-size="13">Trailing 68 sessions through 2025-11-07</text>
<line x1="70" x2="935" y1="375.00" y2="375.00" stroke="#27314e" stroke-width="1"/>
<text x="58" y="379.00" text-anchor="end" fill="#93a4c3" font-family="Inter, Arial, sans-serif" font-size="12">5</text>
<line x1="70" x2="935" y1="312.00" y2="312.00" stroke="#27314e" stroke-width="1"/>
<text x="58" y="316.00" text-anchor="end" fill="#93a4c3" font-family="Inter, Arial, sans-serif" font-size="12">11</text>
<line x1="70" x2="935" y1="249.00" y2="249.00" stroke="#27314e" stroke-width="1"/>
<text x="58" y="253.00" text-anchor="end" fill="#93a4c3" font-family="Inter, Arial, sans-serif" font-size="12">17</text>
<line x1="70" x2="935" y1="186.00" y2="186.00" stroke="#27314e" stroke-width="1"/>
<text x="58" y="190.00" text-anchor="end" fill="#93a4c3" font-family="Inter, Arial, sans-serif" font-size="12">23</text>
<line x1="70" x2="935" y1="123.00" y2="123.00" stroke="#27314e" stroke-width="1"/>
<text x="58" y="127.00" text-anchor="end" fill="#93a4c3" font-family="Inter, Arial, sans-serif" font-size="12">29</text>
<line x1="70" x2="935" y1="60.00" y2="60.00" stroke="#27314e" stroke-width="1"/>
<text x="58" y="64.00" text-anchor="end" fill="#93a4c3" font-family="Inter, Arial, sans-serif" font-size="12">35</text>
<text x="70.00" y="412" text-anchor="middle" fill="#93a4c3" font-family="Inter, Arial, sans-serif" font-size="12">2025-08-04</text>
<text x="508.96" y="412" text-anchor="middle" fill="#93a4c3" font-family="Inter, Arial, sans-serif" font-size="12">2025-09-22</text>
<text x="935.00" y="412" text-anchor="middle" fill="#93a4c3" font-family="Inter, Arial, sans-serif" font-size="12">2025-11-07</text>
<path d="M 70.00 270.39 L 82.91 224.04 L 95.82 284.32 L 108.73 267.43 L 121.64 245.37 L 134.55 229.96 L 147.46 338.37 L 160.37 334.46 L 173.28 319.79 L 186.19 309.02 L 199.10 310.61 L 212.01 235.87 L 224.93 183.93 L 237.84 141.81 L 250.75 261.84 L 263.66 231.86 L 276.57 249.49 L 289.48 267.22 L 302.39 315.67 L 315.30 268.59 L 328.21 221.19 L 341.12 245.90 L 354.03 294.46 L 366.94 276.30 L 379.85 318.00 L 392.76 337.63 L 405.67 332.67 L 418.58 339.53 L 431.49 320.85 L 444.40 317.57 L 457.31 315.88 L 470.22 307.02 L 483.13 259.83 L 496.04 308.07 L 508.96 278.20 L 521.87 295.93 L 534.78 277.35 L 547.69 217.08 L 560.60 249.27 L 573.51 251.60 L 586.42 268.06 L 599.33 321.27 L 612.24 337.95 L 625.15 305.01 L 638.06 319.58 L 650.97 285.06 L 663.88 295.09 L 676.79 264.79 L 689.70 80.69 L 702.61 152.37 L 715.52 203.46 L 728.43 60.00 L 741.34 180.66 L 754.25 375.00 L 767.16 338.05 L 780.07 304.06 L 792.99 230.70 L 805.90 279.99 L 818.81 304.27 L 831.72 323.49 L 844.63 278.41 L 857.54 263.63 L 870.45 236.50 L 883.36 176.22 L 896.27 97.05 L 909.18 163.35 L 922.09 164.72 L 935.00 173.37" fill="none" stroke="#69a7ff" stroke-width="4" stroke-linecap="round" stroke-linejoin="round"/>
<circle cx="935.00" cy="173.37" r="6" fill="#69a7ff"/>
</svg>