<svg xmlns="http://www.w3.org/2000/svg" width="960" height="430" viewBox="0 0 960 430" role="img" aria-label="Composite score history">
<rect width="100%" height="100%" fill="#0b1020" rx="20"/>
<text x="70" y="32" fill="#f5f7fb" font-family="Inter, Arial, sans-serif" font-size="24" font-weight="700">Composite score history</text>
<text x="70" y="52" fill="#93a4c3" font-family="Inter, Arial, sans-serif" font-size="13">Trailing 60 sessions through 2025-11-07</text>
<line x1="70" x2="935" y1="375.00" y2="375.00" stroke="#27314e" stroke-width="1"/>
<text x="58" y="379.00" text-anchor="end" fill="#93a4c3" font-family="Inter, Arial, sans-serif" font-size="12">5</text>
<line x1="70" x2="935" y1="312.00" y2="312.00" stroke="#27314e" stroke-width="1"/>
<text x="58" y="316.00" text-anchor="end" fill="#93a4c3" font-family="Inter, Arial, sans-serif" font-size="12">11</text>
<line x1="70" x2="935" y1="249.00" y2="249.00" stroke="#27314e" stroke-width="1"/>
<text x="58" y="253.00" text-anchor="end" fill="#93a4c3" font-family="Inter, Arial, sans-serif" font-size="12">17</text>
<line x1="70" x2="935" y1="186.00" y2="186.00" stroke="#27314e" stroke-width="1"/>
<text x="58" y="190.00" text-anchor="end" fill="#93a4c3" font-family="Inter, Arial, sans-serif" font-size="12">23</text>
<line x1="70" x2="935" y1="123.00" y2="123.00" stroke="#27314e" stroke-width="1"/>
<text x="58" y="127.00" text-anchor="end" fill="#93a4c3" font-family="Inter, Arial, sans-serif" font-size="12">29</text>
<line x1="70" x2="935" y1="60.00" y2="60.00" stroke="#27314e" stroke-width="1"/>
<text x="58" y="64.00" text-anchor="end" fill="#93a4c3" font-family="Inter, Arial, sans-serif" font-size="12">35</text>
<text x="70.00" y="412" text-anchor="middle" fill="#93a4c3" font-family="Inter, Arial, sans-serif" font-size="12">2025-08-14</text>
<text x="509.83" y="412" text-anchor="middle" fill="#93a4c3" font-family="Inter, Arial, sans-serif" font-size="12">2025-09-26</text>
<text x="935.00" y="412" text-anchor="middle" fill="#93a4c3" font-family="Inter, Arial, sans-serif" font-size="12">2025-11-07</text>
<path d="M 70.00 285.27 L 84.66 262.05 L 99.32 253.39 L 113.98 226.79 L 128.64 215.28 L 143.31 141.81 L 157.97 261.84 L 172.63 231.86 L 187.29 249.49 L 201.95 267.22 L 216.61 315.67 L 231.27 268.59 L 245.93 221.19 L 260.59 245.90 L 275.25 294.46 L 289.92 276.30 L 304.58 318.00 L 319.24 337.63 L 333.90 332.67 L 348.56 339.53 L 363.22 320.85 L 377.88 317.57 L 392.54 315.88 L 407.20 307.02 L 421.86 259.83 L 436.53 308.07 L 451.19 278.20 L 465.85 295.93 L 480.51 277.35 L 495.17 217.08 L 509.83 249.27 L 524.49 251.60 L 539.15 268.06 L 553.81 321.27 L 568.47 337.95 L 583.14 305.01 L 597.80 319.58 L 612.46 285.06 L 627.12 295.09 L 641.78 264.79 L 656.44 80.69 L 671.10 152.37 L 685.76 203.46 L 700.42 60.00 L 715.08 180.66 L 729.75 375.00 L 744.41 338.05 L 759.07 304.06 L 773.73 230.70 L 788.39 279.99 L 803.05 304.27 L 817.71 323.49 L 832.37 278.41 L 847.03 263.63 L 861.69 236.50 L 876.36 176.22 L 891.02 97.05 L 905.68 163.35 L 920.34 164.72 L 935.00 173.37" fill="none" stroke="#69a7ff" stroke-width="4" stroke-linecap="round" stroke-linejoin="round"/>
<circle cx="935.00" cy="173.37" r="6" fill="#69a7ff"/>
</svg>