<svg xmlns="http://www.w3.org/2000/svg" width="960" height="430" viewBox="0 0 960 430" role="img" aria-label="Composite score history">
<rect width="100%" height="100%" fill="#0b1020" rx="20"/>
<text x="70" y="32" fill="#f5f7fb" font-family="Inter, Arial, sans-serif" font-size="24" font-weight="700">Composite score history</text>
<text x="70" y="52" fill="#93a4c3" font-family="Inter, Arial, sans-serif" font-size="13">Trailing 75 sessions through 2025-11-07</text>
<line x1="70" x2="935" y1="375.00" y2="375.00" stroke="#27314e" stroke-width="1"/>
<text x="58" y="379.00" text-anchor="end" fill="#93a4c3" font-family="Inter, Arial, sans-serif" font-size="12">5</text>
<line x1="70" x2="935" y1="312.00" y2="312.00" stroke="#27314e" stroke-width="1"/>
<text x="58" y="316.00" text-anchor="end" fill="#93a4c3" font-family="Inter, Arial, sans-serif" font-size="12">11</text>
<line x1="70" x2="935" y1="249.00" y2="249.00" stroke="#27314e" stroke-width="1"/>
<text x="58" y="253.00" text-anchor="end" fill="#93a4c3" font-family="Inter, Arial, sans-serif" font-size="12">17</text>
<line x1="70" x2="935" y1="186.00" y2="186.00" stroke="#27314e" stroke-width="1"/>
<text x="58" y="190.00" text-anchor="end" fill="#93a4c3" font-family="Inter, Arial, sans-serif" font-size="12">23</text>
<line x1="70" x2="935" y1="123.00" y2="123.00" stroke="#27314e" stroke-width="1"/>
<text x="58" y="127.00" text-anchor="end" fill="#93a4c3" font-family="Inter, Arial, sans-serif" font-size="12">29</text>
<line x1="70" x2="935" y1="60.00" y2="60.00" stroke="#27314e" stroke-width="1"/>
<text x="58" y="64.00" text-anchor="end" fill="#93a4c3" font-family="Inter, Arial, sans-serif" font-size="12">35</text>
<text x="70.00" y="412" text-anchor="middle" fill="#93a4c3" font-family="Inter, Arial, sans-serif" font-size="12">2025-07-24</text>
<text x="502.50" y="412" text-anchor="middle" fill="#93a4c3" font-family="Inter, Arial, sans-serif" font-size="12">2025-09-16</text>
<text x="935.00" y="412" text-anchor="middle" fill="#93a4c3" font-family="Inter, Arial, sans-serif" font-size="12">2025-11-07</text>
<path d="M 70.00 257.72 L 81.69 276.72 L 93.38 276.40 L 105.07 256.98 L 116.76 244.10 L 128.45 205.57 L 140.14 73.72 L 151.82 196.28 L 163.51 187.73 L 175.20 250.44 L 186.89 276.19 L 198.58 268.80 L 210.27 229.96 L 221.96 338.37 L 233.65 334.46 L 245.34 319.79 L 257.03 309.02 L 268.72 310.61 L 280.41 235.87 L 292.09 183.93 L 303.78 141.81 L 315.47 261.84 L 327.16 231.86 L 338.85 249.49 L 350.54 267.22 L 362.23 315.67 L 373.92 268.59 L 385.61 221.19 L 397.30 245.90 L 408.99 294.46 L 420.68 276.30 L 432.36 318.00 L 444.05 337.63 L 455.74 332.67 L 467.43 339.53 L 479.12 320.85 L 490.81 317.57 L 502.50 315.88 L 514.19 307.02 L 525.88 259.83 L 537.57 308.07 L 549.26 278.20 L 560.95 295.93 L 572.64 277.35 L 584.32 217.08 L 596.01 249.27 L 607.70 251.60 L 619.39 268.06 L 631.08 321.27 L 642.77 337.95 L 654.46 305.01 L 666.15 319.58 L 677.84 285.06 L 689.53 295.09 L 701.22 264.79 L 712.91 80.69 L 724.59 152.37 L 736.28 203.46 L 747.97 60.00 L 759.66 180.66 L 771.35 375.00 L 783.04 338.05 L 794.73 304.06 L 806.42 230.70 L 818.11 279.99 L 829.80 304.27 L 841.49 323.49 L 853.18 278.41 L 864.86 263.63 L 876.55 236.50 L 888.24 176.22 L 899.93 97.05 L 911.62 163.35 L 923.31 164.72 L 935.00 173.37" fill="none" stroke="#69a7ff" stroke-width="4" stroke-linecap="round" stroke-linejoin="round"/>
<circle cx="935.00" cy="173.37" r="6" fill="#69a7ff"/>
</svg>