<svg xmlns="http://www.w3.org/2000/svg" width="960" height="430" viewBox="0 0 960 430" role="img" aria-label="Composite score history">
<rect width="100%" height="100%" fill="#0b1020" rx="20"/>
<text x="70" y="32" fill="#f5f7fb" font-family="Inter, Arial, sans-serif" font-size="24" font-weight="700">Composite score history</text>
<text x="70" y="52" fill="#93a4c3" font-family="Inter, Arial, sans-serif" font-size="13">Trailing 68 sessions through 2025-11-17</text>
<line x1="70" x2="935" y1="375.00" y2="375.00" stroke="#27314e" stroke-width="1"/>
<text x="58" y="379.00" text-anchor="end" fill="#93a4c3" font-family="Inter, Arial, sans-serif" font-size="12">5</text>
<line x1="70" x2="935" y1="312.00" y2="312.00" stroke="#27314e" stroke-width="1"/>
<text x="58" y="316.00" text-anchor="end" fill="#93a4c3" font-family="Inter, Arial, sans-serif" font-size="12">11</text>
<line x1="70" x2="935" y1="249.00" y2="249.00" stroke="#27314e" stroke-width="1"/>
<text x="58" y="253.00" text-anchor="end" fill="#93a4c3" font-family="Inter, Arial, sans-serif" font-size="12">17</text>
<line x1="70" x2="935" y1="186.00" y2="186.00" stroke="#27314e" stroke-width="1"/>
<text x="58" y="190.00" text-anchor="end" fill="#93a4c3" font-family="Inter, Arial, sans-serif" font-size="12">23</text>
<line x1="70" x2="935" y1="123.00" y2="123.00" stroke="#27314e" stroke-width="1"/>
<text x="58" y="127.00" text-anchor="end" fill="#93a4c3" font-family="Inter, Arial, sans-serif" font-size="12">29</text>
<line x1="70" x2="935" y1="60.00" y2="60.00" stroke="#27314e" stroke-width="1"/>
<text x="58" y="64.00" text-anchor="end" fill="#93a4c3" font-family="Inter, Arial, sans-serif" font-size="12">35</text>
<text x="70.00" y="412" text-anchor="middle" fill="#93a4c3" font-family="Inter, Arial, sans-serif" font-size="12">2025-08-11</text>
<text x="508.96" y="412" text-anchor="middle" fill="#93a4c3" font-family="Inter, Arial, sans-serif" font-size="12">2025-09-29</text>
<text x="935.00" y="412" text-anchor="middle" fill="#93a4c3" font-family="Inter, Arial, sans-serif" font-size="12">2025-11-17</text>
<path d="M 70.00 267.75 L 82.91 317.47 L 95.82 333.09 L 108.73 324.75 L 121.64 315.78 L 134.55 310.61 L 147.46 235.87 L 160.37 183.93 L 173.28 141.81 L 186.19 261.84 L 199.10 231.86 L 212.01 249.49 L 224.93 267.22 L 237.84 315.67 L 250.75 268.59 L 263.66 221.19 L 276.57 245.90 L 289.48 294.46 L 302.39 276.30 L 315.30 318.00 L 328.21 337.63 L 341.12 332.67 L 354.03 339.53 L 366.94 320.85 L 379.85 317.57 L 392.76 315.88 L 405.67 307.02 L 418.58 259.83 L 431.49 308.07 L 444.40 278.20 L 457.31 295.93 L 470.22 277.35 L 483.13 217.08 L 496.04 249.27 L 508.96 251.60 L 521.87 268.06 L 534.78 321.27 L 547.69 337.95 L 560.60 305.01 L 573.51 319.58 L 586.42 285.06 L 599.33 295.09 L 612.24 264.79 L 625.15 80.69 L 638.06 152.37 L 650.97 203.46 L 663.88 60.00 L 676.79 180.66 L 689.70 375.00 L 702.61 338.05 L 715.52 304.06 L 728.43 230.70 L 741.34 279.99 L 754.25 304.27 L 767.16 323.49 L 780.07 278.41 L 792.99 263.63 L 805.90 236.50 L 818.81 176.22 L 831.72 97.05 L 844.63 163.35 L 857.54 164.72 L 870.45 173.37 L 883.36 262.89 L 896.27 316.94 L 909.18 199.13 L 922.09 237.24 L 935.00 140.76" fill="none" stroke="#69a7ff" stroke-width="4" stroke-linecap="round" stroke-linejoin="round"/>
<circle cx="935.00" cy="140.76" r="6" fill="#69a7ff"/>
</svg>