<svg xmlns="http://www.w3.org/2000/svg" width="960" height="430" viewBox="0 0 960 430" role="img" aria-label="Composite score history">
<rect width="100%" height="100%" fill="#0b1020" rx="20"/>
<text x="70" y="32" fill="#f5f7fb" font-family="Inter, Arial, sans-serif" font-size="24" font-weight="700">Composite score history</text>
<text x="70" y="52" fill="#93a4c3" font-family="Inter, Arial, sans-serif" font-size="13">Trailing 78 sessions through 2025-11-17</text>
<line x1="70" x2="935" y1="375.00" y2="375.00" stroke="#27314e" stroke-width="1"/>
<text x="58" y="379.00" text-anchor="end" fill="#93a4c3" font-family="Inter, Arial, sans-serif" font-size="12">5</text>
<line x1="70" x2="935" y1="312.00" y2="312.00" stroke="#27314e" stroke-width="1"/>
<text x="58" y="316.00" text-anchor="end" fill="#93a4c3" font-family="Inter, Arial, sans-serif" font-size="12">11</text>
<line x1="70" x2="935" y1="249.00" y2="249.00" stroke="#27314e" stroke-width="1"/>
<text x="58" y="253.00" text-anchor="end" fill="#93a4c3" font-family="Inter, Arial, sans-serif" font-size="12">17</text>
<line x1="70" x2="935" y1="186.00" y2="186.00" stroke="#27314e" stroke-width="1"/>
<text x="58" y="190.00" text-anchor="end" fill="#93a4c3" font-family="Inter, Arial, sans-serif" font-size="12">23</text>
<line x1="70" x2="935" y1="123.00" y2="123.00" stroke="#27314e" stroke-width="1"/>
<text x="58" y="127.00" text-anchor="end" fill="#93a4c3" font-family="Inter, Arial, sans-serif" font-size="12">29</text>
<line x1="70" x2="935" y1="60.00" y2="60.00" stroke="#27314e" stroke-width="1"/>
<text x="58" y="64.00" text-anchor="end" fill="#93a4c3" font-family="Inter, Arial, sans-serif" font-size="12">35</text>
<text x="70.00" y="412" text-anchor="middle" fill="#93a4c3" font-family="Inter, Arial, sans-serif" font-size="12">2025-07-28</text>
<text x="508.12" y="412" text-anchor="middle" fill="#93a4c3" font-family="Inter, Arial, sans-serif" font-size="12">2025-09-22</text>
<text x="935.00" y="412" text-anchor="middle" fill="#93a4c3" font-family="Inter, Arial, sans-serif" font-size="12">2025-11-17</text>
<path d="M 70.00 265.43 L 81.23 229.43 L 92.47 213.49 L 103.70 180.24 L 114.94 73.83 L 126.17 196.28 L 137.40 187.73 L 148.64 250.44 L 159.87 276.19 L 171.10 268.80 L 182.34 229.96 L 193.57 338.37 L 204.81 334.46 L 216.04 319.79 L 227.27 309.02 L 238.51 310.61 L 249.74 235.87 L 260.97 183.93 L 272.21 141.81 L 283.44 261.84 L 294.68 231.86 L 305.91 249.49 L 317.14 267.22 L 328.38 315.67 L 339.61 268.59 L 350.84 221.19 L 362.08 245.90 L 373.31 294.46 L 384.55 276.30 L 395.78 318.00 L 407.01 337.63 L 418.25 332.67 L 429.48 339.53 L 440.71 320.85 L 451.95 317.57 L 463.18 315.88 L 474.42 307.02 L 485.65 259.83 L 496.88 308.07 L 508.12 278.20 L 519.35 295.93 L 530.58 277.35 L 541.82 217.08 L 553.05 249.27 L 564.29 251.60 L 575.52 268.06 L 586.75 321.27 L 597.99 337.95 L 609.22 305.01 L 620.45 319.58 L 631.69 285.06 L 642.92 295.09 L 654.16 264.79 L 665.39 80.69 L 676.62 152.37 L 687.86 203.46 L 699.09 60.00 L 710.32 180.66 L 721.56 375.00 L 732.79 338.05 L 744.03 304.06 L 755.26 230.70 L 766.49 279.99 L 777.73 304.27 L 788.96 323.49 L 800.19 278.41 L 811.43 263.63 L 822.66 236.50 L 833.90 176.22 L 845.13 97.05 L 856.36 163.35 L 867.60 164.72 L 878.83 173.37 L 890.06 262.89 L 901.30 316.94 L 912.53 199.13 L 923.77 237.24 L 935.00 140.76" fill="none" stroke="#69a7ff" stroke-width="4" stroke-linecap="round" stroke-linejoin="round"/>
<circle cx="935.00" cy="140.76" r="6" fill="#69a7ff"/>
</svg>