<svg xmlns="http://www.w3.org/2000/svg" width="960" height="430" viewBox="0 0 960 430" role="img" aria-label="Composite score history">
<rect width="100%" height="100%" fill="#0b1020" rx="20"/>
<text x="70" y="32" fill="#f5f7fb" font-family="Inter, Arial, sans-serif" font-size="24" font-weight="700">Composite score history</text>
<text x="70" y="52" fill="#93a4c3" font-family="Inter, Arial, sans-serif" font-size="13">Trailing 70 sessions through 2025-11-17</text>
<line x1="70" x2="935" y1="375.00" y2="375.00" stroke="#27314e" stroke-width="1"/>
<text x="58" y="379.00" text-anchor="end" fill="#93a4c3" font-family="Inter, Arial, sans-serif" font-size="12">5</text>
<line x1="70" x2="935" y1="312.00" y2="312.00" stroke="#27314e" stroke-width="1"/>
<text x="58" y="316.00" text-anchor="end" fill="#93a4c3" font-family="Inter, Arial, sans-serif" font-size="12">11</text>
<line x1="70" x2="935" y1="249.00" y2="249.00" stroke="#27314e" stroke-width="1"/>
<text x="58" y="253.00" text-anchor="end" fill="#93a4c3" font-family="Inter, Arial, sans-serif" font-size="12">17</text>
<line x1="70" x2="935" y1="186.00" y2="186.00" stroke="#27314e" stroke-width="1"/>
<text x="58" y="190.00" text-anchor="end" fill="#93a4c3" font-family="Inter, Arial, sans-serif" font-size="12">23</text>
<line x1="70" x2="935" y1="123.00" y2="123.00" stroke="#27314e" stroke-width="1"/>
<text x="58" y="127.00" text-anchor="end" fill="#93a4c3" font-family="Inter, Arial, sans-serif" font-size="12">29</text>
<line x1="70" x2="935" y1="60.00" y2="60.00" stroke="#27314e" stroke-width="1"/>
<text x="58" y="64.00" text-anchor="end" fill="#93a4c3" font-family="Inter, Arial, sans-serif" font-size="12">35</text>
<text x="70.00" y="412" text-anchor="middle" fill="#93a4c3" font-family="Inter, Arial, sans-serif" font-size="12">2025-08-07</text>
<text x="508.77" y="412" text-anchor="middle" fill="#93a4c3" font-family="Inter, Arial, sans-serif" font-size="12">2025-09-26</text>
<text x="935.00" y="412" text-anchor="middle" fill="#93a4c3" font-family="Inter, Arial, sans-serif" font-size="12">2025-11-17</text>
<path d="M 70.00 275.88 L 82.54 253.81 L 95.07 238.40 L 107.61 320.95 L 120.14 341.96 L 132.68 319.79 L 145.22 309.02 L 157.75 310.61 L 170.29 235.87 L 182.83 183.93 L 195.36 141.81 L 207.90 261.84 L 220.43 231.86 L 232.97 249.49 L 245.51 267.22 L 258.04 315.67 L 270.58 268.59 L 283.12 221.19 L 295.65 245.90 L 308.19 294.46 L 320.72 276.30 L 333.26 318.00 L 345.80 337.63 L 358.33 332.67 L 370.87 339.53 L 383.41 320.85 L 395.94 317.57 L 408.48 315.88 L 421.01 307.02 L 433.55 259.83 L 446.09 308.07 L 458.62 278.20 L 471.16 295.93 L 483.70 277.35 L 496.23 217.08 L 508.77 249.27 L 521.30 251.60 L 533.84 268.06 L 546.38 321.27 L 558.91 337.95 L 571.45 305.01 L 583.99 319.58 L 596.52 285.06 L 609.06 295.09 L 621.59 264.79 L 634.13 80.69 L 646.67 152.37 L 659.20 203.46 L 671.74 60.00 L 684.28 180.66 L 696.81 375.00 L 709.35 338.05 L 721.88 304.06 L 734.42 230.70 L 746.96 279.99 L 759.49 304.27 L 772.03 323.49 L 784.57 278.41 L 797.10 263.63 L 809.64 236.50 L 822.17 176.22 L 834.71 97.05 L 847.25 163.35 L 859.78 164.72 L 872.32 173.37 L 884.86 262.89 L 897.39 316.94 L 909.93 199.13 L 922.46 237.24 L 935.00 140.76" fill="none" stroke="#69a7ff" stroke-width="4" stroke-linecap="round" stroke-linejoin="round"/>
<circle cx="935.00" cy="140.76" r="6" fill="#69a7ff"/>
</svg>