<svg xmlns="http://www.w3.org/2000/svg" width="960" height="430" viewBox="0 0 960 430" role="img" aria-label="Composite score history">
<rect width="100%" height="100%" fill="#0b1020" rx="20"/>
<text x="70" y="32" fill="#f5f7fb" font-family="Inter, Arial, sans-serif" font-size="24" font-weight="700">Composite score history</text>
<text x="70" y="52" fill="#93a4c3" font-family="Inter, Arial, sans-serif" font-size="13">Trailing 81 sessions through 2025-11-17</text>
<line x1="70" x2="935" y1="375.00" y2="375.00" stroke="#27314e" stroke-width="1"/>
<text x="58" y="379.00" text-anchor="end" fill="#93a4c3" font-family="Inter, Arial, sans-serif" font-size="12">5</text>
<line x1="70" x2="935" y1="312.00" y2="312.00" stroke="#27314e" stroke-width="1"/>
<text x="58" y="316.00" text-anchor="end" fill="#93a4c3" font-family="Inter, Arial, sans-serif" font-size="12">11</text>
<line x1="70" x2="935" y1="249.00" y2="249.00" stroke="#27314e" stroke-width="1"/>
<text x="58" y="253.00" text-anchor="end" fill="#93a4c3" font-family="Inter, Arial, sans-serif" font-size="12">17</text>
<line x1="70" x2="935" y1="186.00" y2="186.00" stroke="#27314e" stroke-width="1"/>
<text x="58" y="190.00" text-anchor="end" fill="#93a4c3" font-family="Inter, Arial, sans-serif" font-size="12">23</text>
<line x1="70" x2="935" y1="123.00" y2="123.00" stroke="#27314e" stroke-width="1"/>
<text x="58" y="127.00" text-anchor="end" fill="#93a4c3" font-family="Inter, Arial, sans-serif" font-size="12">29</text>
<line x1="70" x2="935" y1="60.00" y2="60.00" stroke="#27314e" stroke-width="1"/>
<text x="58" y="64.00" text-anchor="end" fill="#93a4c3" font-family="Inter, Arial, sans-serif" font-size="12">35</text>
<text x="70.00" y="412" text-anchor="middle" fill="#93a4c3" font-family="Inter, Arial, sans-serif" font-size="12">2025-07-23</text>
<text x="502.50" y="412" text-anchor="middle" fill="#93a4c3" font-family="Inter, Arial, sans-serif" font-size="12">2025-09-18</text>
<text x="935.00" y="412" text-anchor="middle" fill="#93a4c3" font-family="Inter, Arial, sans-serif" font-size="12">2025-11-17</text>
<path d="M 70.00 269.54 L 80.81 215.07 L 91.62 250.01 L 102.44 249.70 L 113.25 237.56 L 124.06 212.22 L 134.88 205.57 L 145.69 73.72 L 156.50 196.28 L 167.31 187.73 L 178.12 250.44 L 188.94 276.19 L 199.75 268.80 L 210.56 229.96 L 221.38 338.37 L 232.19 334.46 L 243.00 319.79 L 253.81 309.02 L 264.62 310.61 L 275.44 235.87 L 286.25 183.93 L 297.06 141.81 L 307.88 261.84 L 318.69 231.86 L 329.50 249.49 L 340.31 267.22 L 351.12 315.67 L 361.94 268.59 L 372.75 221.19 L 383.56 245.90 L 394.38 294.46 L 405.19 276.30 L 416.00 318.00 L 426.81 337.63 L 437.62 332.67 L 448.44 339.53 L 459.25 320.85 L 470.06 317.57 L 480.88 315.88 L 491.69 307.02 L 502.50 259.83 L 513.31 308.07 L 524.12 278.20 L 534.94 295.93 L 545.75 277.35 L 556.56 217.08 L 567.38 249.27 L 578.19 251.60 L 589.00 268.06 L 599.81 321.27 L 610.62 337.95 L 621.44 305.01 L 632.25 319.58 L 643.06 285.06 L 653.88 295.09 L 664.69 264.79 L 675.50 80.69 L 686.31 152.37 L 697.12 203.46 L 707.94 60.00 L 718.75 180.66 L 729.56 375.00 L 740.38 338.05 L 751.19 304.06 L 762.00 230.70 L 772.81 279.99 L 783.62 304.27 L 794.44 323.49 L 805.25 278.41 L 816.06 263.63 L 826.88 236.50 L 837.69 176.22 L 848.50 97.05 L 859.31 163.35 L 870.12 164.72 L 880.94 173.37 L 891.75 262.89 L 902.56 316.94 L 913.38 199.13 L 924.19 237.24 L 935.00 140.76" fill="none" stroke="#69a7ff" stroke-width="4" stroke-linecap="round" stroke-linejoin="round"/>
<circle cx="935.00" cy="140.76" r="6" fill="#69a7ff"/>
</svg>