<svg xmlns="http://www.w3.org/2000/svg" width="960" height="430" viewBox="0 0 960 430" role="img" aria-label="Composite score history">
<rect width="100%" height="100%" fill="#0b1020" rx="20"/>
<text x="70" y="32" fill="#f5f7fb" font-family="Inter, Arial, sans-serif" font-size="24" font-weight="700">Composite score history</text>
<text x="70" y="52" fill="#93a4c3" font-family="Inter, Arial, sans-serif" font-size="13">Trailing 46 sessions through 2025-11-17</text>
<line x1="70" x2="935" y1="375.00" y2="375.00" stroke="#27314e" stroke-width="1"/>
<text x="58" y="379.00" text-anchor="end" fill="#93a4c3" font-family="Inter, Arial, sans-serif" font-size="12">5</text>
<line x1="70" x2="935" y1="312.00" y2="312.00" stroke="#27314e" stroke-width="1"/>
<text x="58" y="316.00" text-anchor="end" fill="#93a4c3" font-family="Inter, Arial, sans-serif" font-size="12">11</text>
<line x1="70" x2="935" y1="249.00" y2="249.00" stroke="#27314e" stroke-width="1"/>
<text x="58" y="253.00" text-anchor="end" fill="#93a4c3" font-family="Inter, Arial, sans-serif" font-size="12">17</text>
<line x1="70" x2="935" y1="186.00" y2="186.00" stroke="#27314e" stroke-width="1"/>
<text x="58" y="190.00" text-anchor="end" fill="#93a4c3" font-family="Inter, Arial, sans-serif" font-size="12">23</text>
<line x1="70" x2="935" y1="123.00" y2="123.00" stroke="#27314e" stroke-width="1"/>
<text x="58" y="127.00" text-anchor="end" fill="#93a4c3" font-family="Inter, Arial, sans-serif" font-size="12">29</text>
<line x1="70" x2="935" y1="60.00" y2="60.00" stroke="#27314e" stroke-width="1"/>
<text x="58" y="64.00" text-anchor="end" fill="#93a4c3" font-family="Inter, Arial, sans-serif" font-size="12">35</text>
<text x="70.00" y="412" text-anchor="middle" fill="#93a4c3" font-family="Inter, Arial, sans-serif" font-size="12">2025-09-11</text>
<text x="512.11" y="412" text-anchor="middle" fill="#93a4c3" font-family="Inter, Arial, sans-serif" font-size="12">2025-10-15</text>
<text x="935.00" y="412" text-anchor="middle" fill="#93a4c3" font-family="Inter, Arial, sans-serif" font-size="12">2025-11-17</text>
<path d="M 70.00 304.91 L 89.22 274.93 L 108.44 288.65 L 127.67 276.93 L 146.89 278.20 L 166.11 259.83 L 185.33 308.07 L 204.56 278.20 L 223.78 295.93 L 243.00 277.35 L 262.22 217.08 L 281.44 249.27 L 300.67 251.60 L 319.89 268.06 L 339.11 321.27 L 358.33 337.95 L 377.56 305.01 L 396.78 319.58 L 416.00 285.06 L 435.22 295.09 L 454.44 264.79 L 473.67 80.69 L 492.89 152.37 L 512.11 203.46 L 531.33 60.00 L 550.56 180.66 L 569.78 375.00 L 589.00 338.05 L 608.22 304.06 L 627.44 230.70 L 646.67 279.99 L 665.89 304.27 L 685.11 323.49 L 704.33 278.41 L 723.56 263.63 L 742.78 236.50 L 762.00 176.22 L 781.22 97.05 L 800.44 163.35 L 819.67 164.72 L 838.89 173.37 L 858.11 262.89 L 877.33 316.94 L 896.56 199.13 L 915.78 237.24 L 935.00 140.76" fill="none" stroke="#69a7ff" stroke-width="4" stroke-linecap="round" stroke-linejoin="round"/>
<circle cx="935.00" cy="140.76" r="6" fill="#69a7ff"/>
</svg>