<svg xmlns="http://www.w3.org/2000/svg" width="960" height="430" viewBox="0 0 960 430" role="img" aria-label="Composite score history">
<rect width="100%" height="100%" fill="#0b1020" rx="20"/>
<text x="70" y="32" fill="#f5f7fb" font-family="Inter, Arial, sans-serif" font-size="24" font-weight="700">Composite score history</text>
<text x="70" y="52" fill="#93a4c3" font-family="Inter, Arial, sans-serif" font-size="13">Trailing 53 sessions through 2025-11-17</text>
<line x1="70" x2="935" y1="375.00" y2="375.00" stroke="#27314e" stroke-width="1"/>
<text x="58" y="379.00" text-anchor="end" fill="#93a4c3" font-family="Inter, Arial, sans-serif" font-size="12">5</text>
<line x1="70" x2="935" y1="312.00" y2="312.00" stroke="#27314e" stroke-width="1"/>
<text x="58" y="316.00" text-anchor="end" fill="#93a4c3" font-family="Inter, Arial, sans-serif" font-size="12">11</text>
<line x1="70" x2="935" y1="249.00" y2="249.00" stroke="#27314e" stroke-width="1"/>
<text x="58" y="253.00" text-anchor="end" fill="#93a4c3" font-family="Inter, Arial, sans-serif" font-size="12">17</text>
<line x1="70" x2="935" y1="186.00" y2="186.00" stroke="#27314e" stroke-width="1"/>
<text x="58" y="190.00" text-anchor="end" fill="#93a4c3" font-family="Inter, Arial, sans-serif" font-size="12">23</text>
<line x1="70" x2="935" y1="123.00" y2="123.00" stroke="#27314e" stroke-width="1"/>
<text x="58" y="127.00" text-anchor="end" fill="#93a4c3" font-family="Inter, Arial, sans-serif" font-size="12">29</text>
<line x1="70" x2="935" y1="60.00" y2="60.00" stroke="#27314e" stroke-width="1"/>
<text x="58" y="64.00" text-anchor="end" fill="#93a4c3" font-family="Inter, Arial, sans-serif" font-size="12">35</text>
<text x="70.00" y="412" text-anchor="middle" fill="#93a4c3" font-family="Inter, Arial, sans-serif" font-size="12">2025-09-02</text>
<text x="502.50" y="412" text-anchor="middle" fill="#93a4c3" font-family="Inter, Arial, sans-serif" font-size="12">2025-10-08</text>
<text x="935.00" y="412" text-anchor="middle" fill="#93a4c3" font-family="Inter, Arial, sans-serif" font-size="12">2025-11-17</text>
<path d="M 70.00 264.26 L 86.63 290.97 L 103.27 326.12 L 119.90 327.39 L 136.54 336.58 L 153.17 337.63 L 169.81 332.67 L 186.44 339.53 L 203.08 320.85 L 219.71 317.57 L 236.35 315.88 L 252.98 307.02 L 269.62 259.83 L 286.25 308.07 L 302.88 278.20 L 319.52 295.93 L 336.15 277.35 L 352.79 217.08 L 369.42 249.27 L 386.06 251.60 L 402.69 268.06 L 419.33 321.27 L 435.96 337.95 L 452.60 305.01 L 469.23 319.58 L 485.87 285.06 L 502.50 295.09 L 519.13 264.79 L 535.77 80.69 L 552.40 152.37 L 569.04 203.46 L 585.67 60.00 L 602.31 180.66 L 618.94 375.00 L 635.58 338.05 L 652.21 304.06 L 668.85 230.70 L 685.48 279.99 L 702.12 304.27 L 718.75 323.49 L 735.38 278.41 L 752.02 263.63 L 768.65 236.50 L 785.29 176.22 L 801.92 97.05 L 818.56 163.35 L 835.19 164.72 L 851.83 173.37 L 868.46 262.89 L 885.10 316.94 L 901.73 199.13 L 918.37 237.24 L 935.00 140.76" fill="none" stroke="#69a7ff" stroke-width="4" stroke-linecap="round" stroke-linejoin="round"/>
<circle cx="935.00" cy="140.76" r="6" fill="#69a7ff"/>
</svg>