<svg xmlns="http://www.w3.org/2000/svg" width="960" height="430" viewBox="0 0 960 430" role="img" aria-label="Composite score history">
<rect width="100%" height="100%" fill="#0b1020" rx="20"/>
<text x="70" y="32" fill="#f5f7fb" font-family="Inter, Arial, sans-serif" font-size="24" font-weight="700">Composite score history</text>
<text x="70" y="52" fill="#93a4c3" font-family="Inter, Arial, sans-serif" font-size="13">Trailing 59 sessions through 2025-11-17</text>
<line x1="70" x2="935" y1="375.00" y2="375.00" stroke="#27314e" stroke-width="1"/>
<text x="58" y="379.00" text-anchor="end" fill="#93a4c3" font-family="Inter, Arial, sans-serif" font-size="12">5</text>
<line x1="70" x2="935" y1="312.00" y2="312.00" stroke="#27314e" stroke-width="1"/>
<text x="58" y="316.00" text-anchor="end" fill="#93a4c3" font-family="Inter, Arial, sans-serif" font-size="12">11</text>
<line x1="70" x2="935" y1="249.00" y2="249.00" stroke="#27314e" stroke-width="1"/>
<text x="58" y="253.00" text-anchor="end" fill="#93a4c3" font-family="Inter, Arial, sans-serif" font-size="12">17</text>
<line x1="70" x2="935" y1="186.00" y2="186.00" stroke="#27314e" stroke-width="1"/>
<text x="58" y="190.00" text-anchor="end" fill="#93a4c3" font-family="Inter, Arial, sans-serif" font-size="12">23</text>
<line x1="70" x2="935" y1="123.00" y2="123.00" stroke="#27314e" stroke-width="1"/>
<text x="58" y="127.00" text-anchor="end" fill="#93a4c3" font-family="Inter, Arial, sans-serif" font-size="12">29</text>
<line x1="70" x2="935" y1="60.00" y2="60.00" stroke="#27314e" stroke-width="1"/>
<text x="58" y="64.00" text-anchor="end" fill="#93a4c3" font-family="Inter, Arial, sans-serif" font-size="12">35</text>
<text x="70.00" y="412" text-anchor="middle" fill="#93a4c3" font-family="Inter, Arial, sans-serif" font-size="12">2025-08-22</text>
<text x="502.50" y="412" text-anchor="middle" fill="#93a4c3" font-family="Inter, Arial, sans-serif" font-size="12">2025-10-03</text>
<text x="935.00" y="412" text-anchor="middle" fill="#93a4c3" font-family="Inter, Arial, sans-serif" font-size="12">2025-11-17</text>
<path d="M 70.00 286.54 L 84.91 222.25 L 99.83 269.75 L 114.74 273.77 L 129.66 294.35 L 144.57 268.59 L 159.48 221.19 L 174.40 245.90 L 189.31 294.46 L 204.22 276.30 L 219.14 318.00 L 234.05 337.63 L 248.97 332.67 L 263.88 339.53 L 278.79 320.85 L 293.71 317.57 L 308.62 315.88 L 323.53 307.02 L 338.45 259.83 L 353.36 308.07 L 368.28 278.20 L 383.19 295.93 L 398.10 277.35 L 413.02 217.08 L 427.93 249.27 L 442.84 251.60 L 457.76 268.06 L 472.67 321.27 L 487.59 337.95 L 502.50 305.01 L 517.41 319.58 L 532.33 285.06 L 547.24 295.09 L 562.16 264.79 L 577.07 80.69 L 591.98 152.37 L 606.90 203.46 L 621.81 60.00 L 636.72 180.66 L 651.64 375.00 L 666.55 338.05 L 681.47 304.06 L 696.38 230.70 L 711.29 279.99 L 726.21 304.27 L 741.12 323.49 L 756.03 278.41 L 770.95 263.63 L 785.86 236.50 L 800.78 176.22 L 815.69 97.05 L 830.60 163.35 L 845.52 164.72 L 860.43 173.37 L 875.34 262.89 L 890.26 316.94 L 905.17 199.13 L 920.09 237.24 L 935.00 140.76" fill="none" stroke="#69a7ff" stroke-width="4" stroke-linecap="round" stroke-linejoin="round"/>
<circle cx="935.00" cy="140.76" r="6" fill="#69a7ff"/>
</svg>