<svg xmlns="http://www.w3.org/2000/svg" width="960" height="430" viewBox="0 0 960 430" role="img" aria-label="Composite score history">
<rect width="100%" height="100%" fill="#0b1020" rx="20"/>
<text x="70" y="32" fill="#f5f7fb" font-family="Inter, Arial, sans-serif" font-size="24" font-weight="700">Composite score history</text>
<text x="70" y="52" fill="#93a4c3" font-family="Inter, Arial, sans-serif" font-size="13">Trailing 64 sessions through 2026-02-04</text>
<line x1="70" x2="935" y1="375.00" y2="375.00" stroke="#27314e" stroke-width="1"/>
<text x="58" y="379.00" text-anchor="end" fill="#93a4c3" font-family="Inter, Arial, sans-serif" font-size="12">0</text>
<line x1="70" x2="935" y1="312.00" y2="312.00" stroke="#27314e" stroke-width="1"/>
<text x="58" y="316.00" text-anchor="end" fill="#93a4c3" font-family="Inter, Arial, sans-serif" font-size="12">8</text>
<line x1="70" x2="935" y1="249.00" y2="249.00" stroke="#27314e" stroke-width="1"/>
<text x="58" y="253.00" text-anchor="end" fill="#93a4c3" font-family="Inter, Arial, sans-serif" font-size="12">17</text>
<line x1="70" x2="935" y1="186.00" y2="186.00" stroke="#27314e" stroke-width="1"/>
<text x="58" y="190.00" text-anchor="end" fill="#93a4c3" font-family="Inter, Arial, sans-serif" font-size="12">25</text>
<line x1="70" x2="935" y1="123.00" y2="123.00" stroke="#27314e" stroke-width="1"/>
<text x="58" y="127.00" text-anchor="end" fill="#93a4c3" font-family="Inter, Arial, sans-serif" font-size="12">33</text>
<line x1="70" x2="935" y1="60.00" y2="60.00" stroke="#27314e" stroke-width="1"/>
<text x="58" y="64.00" text-anchor="end" fill="#93a4c3" font-family="Inter, Arial, sans-serif" font-size="12">41</text>
<text x="70.00" y="412" text-anchor="middle" fill="#93a4c3" font-family="Inter, Arial, sans-serif" font-size="12">2025-10-31</text>
<text x="509.37" y="412" text-anchor="middle" fill="#93a4c3" font-family="Inter, Arial, sans-serif" font-size="12">2025-12-18</text>
<text x="935.00" y="412" text-anchor="middle" fill="#93a4c3" font-family="Inter, Arial, sans-serif" font-size="12">2026-02-04</text>
<path d="M 70.00 267.18 L 83.73 267.10 L 97.46 212.05 L 111.19 225.77 L 124.92 178.65 L 138.65 190.93 L 152.38 255.59 L 166.11 294.63 L 179.84 209.53 L 193.57 237.06 L 207.30 167.36 L 221.03 60.00 L 234.76 70.45 L 248.49 66.18 L 262.22 146.17 L 275.95 277.24 L 289.68 326.96 L 303.41 337.79 L 317.14 375.00 L 330.87 333.06 L 344.60 308.20 L 358.33 290.89 L 372.06 264.74 L 385.79 247.28 L 399.52 278.92 L 413.25 241.33 L 426.98 272.67 L 440.71 307.67 L 454.44 264.05 L 468.17 273.13 L 481.90 273.58 L 495.63 183.07 L 509.37 209.46 L 523.10 304.77 L 536.83 329.32 L 550.56 342.21 L 564.29 374.85 L 578.02 360.82 L 591.75 332.91 L 605.48 310.11 L 619.21 254.37 L 632.94 241.41 L 646.67 250.25 L 660.40 274.96 L 674.13 271.37 L 687.86 287.00 L 701.59 289.90 L 715.32 256.43 L 729.05 234.08 L 742.78 237.06 L 756.51 246.21 L 770.24 211.90 L 783.97 84.17 L 797.70 172.78 L 811.43 214.11 L 825.16 200.15 L 838.89 248.88 L 852.62 293.33 L 866.35 261.99 L 880.08 228.59 L 893.81 226.46 L 907.54 237.44 L 921.27 170.49 L 935.00 173.85" fill="none" stroke="#69a7ff" stroke-width="4" stroke-linecap="round" stroke-linejoin="round"/>
<circle cx="935.00" cy="173.85" r="6" fill="#69a7ff"/>
</svg>