<svg xmlns="http://www.w3.org/2000/svg" width="960" height="430" viewBox="0 0 960 430" role="img" aria-label="Composite score history">
<rect width="100%" height="100%" fill="#0b1020" rx="20"/>
<text x="70" y="32" fill="#f5f7fb" font-family="Inter, Arial, sans-serif" font-size="24" font-weight="700">Composite score history</text>
<text x="70" y="52" fill="#93a4c3" font-family="Inter, Arial, sans-serif" font-size="13">Trailing 90 sessions through 2026-02-04</text>
<line x1="70" x2="935" y1="375.00" y2="375.00" stroke="#27314e" stroke-width="1"/>
<text x="58" y="379.00" text-anchor="end" fill="#93a4c3" font-family="Inter, Arial, sans-serif" font-size="12">8</text>
<line x1="70" x2="935" y1="312.00" y2="312.00" stroke="#27314e" stroke-width="1"/>
<text x="58" y="316.00" text-anchor="end" fill="#93a4c3" font-family="Inter, Arial, sans-serif" font-size="12">14</text>
<line x1="70" x2="935" y1="249.00" y2="249.00" stroke="#27314e" stroke-width="1"/>
<text x="58" y="253.00" text-anchor="end" fill="#93a4c3" font-family="Inter, Arial, sans-serif" font-size="12">21</text>
<line x1="70" x2="935" y1="186.00" y2="186.00" stroke="#27314e" stroke-width="1"/>
<text x="58" y="190.00" text-anchor="end" fill="#93a4c3" font-family="Inter, Arial, sans-serif" font-size="12">28</text>
<line x1="70" x2="935" y1="123.00" y2="123.00" stroke="#27314e" stroke-width="1"/>
<text x="58" y="127.00" text-anchor="end" fill="#93a4c3" font-family="Inter, Arial, sans-serif" font-size="12">35</text>
<line x1="70" x2="935" y1="60.00" y2="60.00" stroke="#27314e" stroke-width="1"/>
<text x="58" y="64.00" text-anchor="end" fill="#93a4c3" font-family="Inter, Arial, sans-serif" font-size="12">41</text>
<text x="70.00" y="412" text-anchor="middle" fill="#93a4c3" font-family="Inter, Arial, sans-serif" font-size="12">2025-09-24</text>
<text x="507.36" y="412" text-anchor="middle" fill="#93a4c3" font-family="Inter, Arial, sans-serif" font-size="12">2025-12-01</text>
<text x="935.00" y="412" text-anchor="middle" fill="#93a4c3" font-family="Inter, Arial, sans-serif" font-size="12">2026-02-04</text>
<path d="M 70.00 299.08 L 79.72 259.01 L 89.44 287.49 L 99.16 289.55 L 108.88 293.00 L 118.60 325.50 L 128.31 326.81 L 138.03 311.50 L 147.75 321.96 L 157.47 310.00 L 167.19 313.18 L 176.91 294.31 L 186.63 138.35 L 196.35 201.67 L 206.07 246.96 L 215.79 120.05 L 225.51 226.79 L 235.22 333.63 L 244.94 334.00 L 254.66 326.06 L 264.38 232.58 L 274.10 270.03 L 283.82 287.68 L 293.54 299.17 L 303.26 246.59 L 312.98 271.15 L 322.70 259.57 L 332.42 222.87 L 342.13 152.83 L 351.85 211.48 L 361.57 212.69 L 371.29 220.35 L 381.01 299.54 L 390.73 319.99 L 400.45 243.14 L 410.17 272.09 L 419.89 191.49 L 429.61 60.00 L 439.33 72.79 L 449.04 67.56 L 458.76 165.53 L 468.48 314.58 L 478.20 334.56 L 487.92 340.26 L 497.64 345.02 L 507.36 320.27 L 517.08 320.74 L 526.80 313.92 L 536.52 295.53 L 546.24 282.08 L 555.96 316.54 L 565.67 278.25 L 575.39 307.85 L 585.11 348.38 L 594.83 309.91 L 604.55 321.02 L 614.27 321.58 L 623.99 210.64 L 633.71 243.04 L 643.43 357.44 L 653.15 368.56 L 662.87 368.09 L 672.58 372.48 L 682.30 375.00 L 692.02 369.96 L 701.74 360.24 L 711.46 298.05 L 721.18 282.17 L 730.90 293.00 L 740.62 310.00 L 750.34 310.47 L 760.06 312.15 L 769.78 304.77 L 779.49 275.07 L 789.21 266.86 L 798.93 274.89 L 808.65 280.30 L 818.37 246.03 L 828.09 89.60 L 837.81 198.12 L 847.53 248.74 L 857.25 231.65 L 866.97 287.87 L 876.69 283.39 L 886.40 272.65 L 896.12 247.71 L 905.84 256.02 L 915.56 268.54 L 925.28 195.32 L 935.00 199.43" fill="none" stroke="#69a7ff" stroke-width="4" stroke-linecap="round" stroke-linejoin="round"/>
<circle cx="935.00" cy="199.43" r="6" fill="#69a7ff"/>
<text x="927.00" y="187.43" text-anchor="end" fill="#f5f7fb" font-family="Inter, Arial, sans-serif" font-size="12" font-weight="600">26.38</text>
</svg>