<svg xmlns="http://www.w3.org/2000/svg" width="960" height="430" viewBox="0 0 960 430" role="img" aria-label="Composite score history">
<rect width="100%" height="100%" fill="#0b1020" rx="20"/>
<text x="70" y="32" fill="#f5f7fb" font-family="Inter, Arial, sans-serif" font-size="24" font-weight="700">Composite score history</text>
<text x="70" y="52" fill="#93a4c3" font-family="Inter, Arial, sans-serif" font-size="13">Trailing 79 sessions through 2026-02-04</text>
<line x1="70" x2="935" y1="375.00" y2="375.00" stroke="#27314e" stroke-width="1"/>
<text x="58" y="379.00" text-anchor="end" fill="#93a4c3" font-family="Inter, Arial, sans-serif" font-size="12">0</text>
<line x1="70" x2="935" y1="312.00" y2="312.00" stroke="#27314e" stroke-width="1"/>
<text x="58" y="316.00" text-anchor="end" fill="#93a4c3" font-family="Inter, Arial, sans-serif" font-size="12">8</text>
<line x1="70" x2="935" y1="249.00" y2="249.00" stroke="#27314e" stroke-width="1"/>
<text x="58" y="253.00" text-anchor="end" fill="#93a4c3" font-family="Inter, Arial, sans-serif" font-size="12">17</text>
<line x1="70" x2="935" y1="186.00" y2="186.00" stroke="#27314e" stroke-width="1"/>
<text x="58" y="190.00" text-anchor="end" fill="#93a4c3" font-family="Inter, Arial, sans-serif" font-size="12">25</text>
<line x1="70" x2="935" y1="123.00" y2="123.00" stroke="#27314e" stroke-width="1"/>
<text x="58" y="127.00" text-anchor="end" fill="#93a4c3" font-family="Inter, Arial, sans-serif" font-size="12">33</text>
<line x1="70" x2="935" y1="60.00" y2="60.00" stroke="#27314e" stroke-width="1"/>
<text x="58" y="64.00" text-anchor="end" fill="#93a4c3" font-family="Inter, Arial, sans-serif" font-size="12">41</text>
<text x="70.00" y="412" text-anchor="middle" fill="#93a4c3" font-family="Inter, Arial, sans-serif" font-size="12">2025-10-09</text>
<text x="502.50" y="412" text-anchor="middle" fill="#93a4c3" font-family="Inter, Arial, sans-serif" font-size="12">2025-12-08</text>
<text x="935.00" y="412" text-anchor="middle" fill="#93a4c3" font-family="Inter, Arial, sans-serif" font-size="12">2026-02-04</text>
<path d="M 70.00 274.19 L 81.09 111.78 L 92.18 179.03 L 103.27 195.35 L 114.36 120.24 L 125.45 196.19 L 136.54 336.57 L 147.63 309.88 L 158.72 285.33 L 169.81 232.33 L 180.90 267.94 L 191.99 285.48 L 203.08 299.36 L 214.17 266.80 L 225.26 256.12 L 236.35 236.53 L 247.44 192.98 L 258.53 135.80 L 269.62 183.68 L 280.71 184.67 L 291.79 190.93 L 302.88 255.59 L 313.97 294.63 L 325.06 209.53 L 336.15 237.06 L 347.24 167.36 L 358.33 60.00 L 369.42 70.45 L 380.51 66.18 L 391.60 146.17 L 402.69 277.24 L 413.78 326.96 L 424.87 337.79 L 435.96 375.00 L 447.05 333.06 L 458.14 308.20 L 469.23 290.89 L 480.32 264.74 L 491.41 247.28 L 502.50 278.92 L 513.59 241.33 L 524.68 272.67 L 535.77 307.67 L 546.86 264.05 L 557.95 273.13 L 569.04 273.58 L 580.13 183.07 L 591.22 209.46 L 602.31 304.77 L 613.40 329.32 L 624.49 342.21 L 635.58 374.85 L 646.67 360.82 L 657.76 332.91 L 668.85 310.11 L 679.94 254.37 L 691.03 241.41 L 702.12 250.25 L 713.21 274.96 L 724.29 271.37 L 735.38 287.00 L 746.47 289.90 L 757.56 256.43 L 768.65 234.08 L 779.74 237.06 L 790.83 246.21 L 801.92 211.90 L 813.01 84.17 L 824.10 172.78 L 835.19 214.11 L 846.28 200.15 L 857.37 248.88 L 868.46 293.33 L 879.55 261.99 L 890.64 228.59 L 901.73 226.46 L 912.82 237.44 L 923.91 170.49 L 935.00 173.85" fill="none" stroke="#69a7ff" stroke-width="4" stroke-linecap="round" stroke-linejoin="round"/>
<circle cx="935.00" cy="173.85" r="6" fill="#69a7ff"/>
</svg>