<svg xmlns="http://www.w3.org/2000/svg" width="960" height="430" viewBox="0 0 960 430" role="img" aria-label="Composite score history">
<rect width="100%" height="100%" fill="#0b1020" rx="20"/>
<text x="70" y="32" fill="#f5f7fb" font-family="Inter, Arial, sans-serif" font-size="24" font-weight="700">Composite score history</text>
<text x="70" y="52" fill="#93a4c3" font-family="Inter, Arial, sans-serif" font-size="13">Trailing 89 sessions through 2026-02-04</text>
<line x1="70" x2="935" y1="375.00" y2="375.00" stroke="#27314e" stroke-width="1"/>
<text x="58" y="379.00" text-anchor="end" fill="#93a4c3" font-family="Inter, Arial, sans-serif" font-size="12">0</text>
<line x1="70" x2="935" y1="312.00" y2="312.00" stroke="#27314e" stroke-width="1"/>
<text x="58" y="316.00" text-anchor="end" fill="#93a4c3" font-family="Inter, Arial, sans-serif" font-size="12">8</text>
<line x1="70" x2="935" y1="249.00" y2="249.00" stroke="#27314e" stroke-width="1"/>
<text x="58" y="253.00" text-anchor="end" fill="#93a4c3" font-family="Inter, Arial, sans-serif" font-size="12">17</text>
<line x1="70" x2="935" y1="186.00" y2="186.00" stroke="#27314e" stroke-width="1"/>
<text x="58" y="190.00" text-anchor="end" fill="#93a4c3" font-family="Inter, Arial, sans-serif" font-size="12">25</text>
<line x1="70" x2="935" y1="123.00" y2="123.00" stroke="#27314e" stroke-width="1"/>
<text x="58" y="127.00" text-anchor="end" fill="#93a4c3" font-family="Inter, Arial, sans-serif" font-size="12">33</text>
<line x1="70" x2="935" y1="60.00" y2="60.00" stroke="#27314e" stroke-width="1"/>
<text x="58" y="64.00" text-anchor="end" fill="#93a4c3" font-family="Inter, Arial, sans-serif" font-size="12">41</text>
<text x="70.00" y="412" text-anchor="middle" fill="#93a4c3" font-family="Inter, Arial, sans-serif" font-size="12">2025-09-25</text>
<text x="502.50" y="412" text-anchor="middle" fill="#93a4c3" font-family="Inter, Arial, sans-serif" font-size="12">2025-12-01</text>
<text x="935.00" y="412" text-anchor="middle" fill="#93a4c3" font-family="Inter, Arial, sans-serif" font-size="12">2026-02-04</text>
<path d="M 70.00 266.95 L 79.83 287.08 L 89.66 288.45 L 99.49 295.77 L 109.32 308.28 L 119.15 309.80 L 128.98 286.01 L 138.81 296.54 L 148.64 271.60 L 158.47 278.85 L 168.30 256.96 L 178.12 123.98 L 187.95 175.75 L 197.78 212.66 L 207.61 109.03 L 217.44 196.19 L 227.27 336.57 L 237.10 309.88 L 246.93 285.33 L 256.76 232.33 L 266.59 267.94 L 276.42 285.48 L 286.25 299.36 L 296.08 266.80 L 305.91 256.12 L 315.74 236.53 L 325.57 192.98 L 335.40 135.80 L 345.23 183.68 L 355.06 184.67 L 364.89 190.93 L 374.72 255.59 L 384.55 294.63 L 394.38 209.53 L 404.20 237.06 L 414.03 167.36 L 423.86 60.00 L 433.69 70.45 L 443.52 66.18 L 453.35 146.17 L 463.18 277.24 L 473.01 326.96 L 482.84 337.79 L 492.67 375.00 L 502.50 333.06 L 512.33 308.20 L 522.16 290.89 L 531.99 264.74 L 541.82 247.28 L 551.65 278.92 L 561.48 241.33 L 571.31 272.67 L 581.14 307.67 L 590.97 264.05 L 600.80 273.13 L 610.62 273.58 L 620.45 183.07 L 630.28 209.46 L 640.11 304.77 L 649.94 329.32 L 659.77 342.21 L 669.60 374.85 L 679.43 360.82 L 689.26 332.91 L 699.09 310.11 L 708.92 254.37 L 718.75 241.41 L 728.58 250.25 L 738.41 274.96 L 748.24 271.37 L 758.07 287.00 L 767.90 289.90 L 777.73 256.43 L 787.56 234.08 L 797.39 237.06 L 807.22 246.21 L 817.05 211.90 L 826.88 84.17 L 836.70 172.78 L 846.53 214.11 L 856.36 200.15 L 866.19 248.88 L 876.02 293.33 L 885.85 261.99 L 895.68 228.59 L 905.51 226.46 L 915.34 237.44 L 925.17 170.49 L 935.00 173.85" fill="none" stroke="#69a7ff" stroke-width="4" stroke-linecap="round" stroke-linejoin="round"/>
<circle cx="935.00" cy="173.85" r="6" fill="#69a7ff"/>
</svg>