<svg xmlns="http://www.w3.org/2000/svg" width="960" height="430" viewBox="0 0 960 430" role="img" aria-label="Composite score history">
<rect width="100%" height="100%" fill="#0b1020" rx="20"/>
<text x="70" y="32" fill="#f5f7fb" font-family="Inter, Arial, sans-serif" font-size="24" font-weight="700">Composite score history</text>
<text x="70" y="52" fill="#93a4c3" font-family="Inter, Arial, sans-serif" font-size="13">Trailing 60 sessions through 2026-02-04</text>
<line x1="70" x2="935" y1="375.00" y2="375.00" stroke="#27314e" stroke-width="1"/>
<text x="58" y="379.00" text-anchor="end" fill="#93a4c3" font-family="Inter, Arial, sans-serif" font-size="12">0</text>
<line x1="70" x2="935" y1="312.00" y2="312.00" stroke="#27314e" stroke-width="1"/>
<text x="58" y="316.00" text-anchor="end" fill="#93a4c3" font-family="Inter, Arial, sans-serif" font-size="12">8</text>
<line x1="70" x2="935" y1="249.00" y2="249.00" stroke="#27314e" stroke-width="1"/>
<text x="58" y="253.00" text-anchor="end" fill="#93a4c3" font-family="Inter, Arial, sans-serif" font-size="12">17</text>
<line x1="70" x2="935" y1="186.00" y2="186.00" stroke="#27314e" stroke-width="1"/>
<text x="58" y="190.00" text-anchor="end" fill="#93a4c3" font-family="Inter, Arial, sans-serif" font-size="12">25</text>
<line x1="70" x2="935" y1="123.00" y2="123.00" stroke="#27314e" stroke-width="1"/>
<text x="58" y="127.00" text-anchor="end" fill="#93a4c3" font-family="Inter, Arial, sans-serif" font-size="12">33</text>
<line x1="70" x2="935" y1="60.00" y2="60.00" stroke="#27314e" stroke-width="1"/>
<text x="58" y="64.00" text-anchor="end" fill="#93a4c3" font-family="Inter, Arial, sans-serif" font-size="12">41</text>
<text x="70.00" y="412" text-anchor="middle" fill="#93a4c3" font-family="Inter, Arial, sans-serif" font-size="12">2025-11-06</text>
<text x="509.83" y="412" text-anchor="middle" fill="#93a4c3" font-family="Inter, Arial, sans-serif" font-size="12">2025-12-22</text>
<text x="935.00" y="412" text-anchor="middle" fill="#93a4c3" font-family="Inter, Arial, sans-serif" font-size="12">2026-02-04</text>
<path d="M 70.00 260.16 L 84.66 267.18 L 99.32 294.48 L 113.98 309.27 L 128.64 255.05 L 143.31 237.06 L 157.97 167.36 L 172.63 60.00 L 187.29 70.45 L 201.95 66.18 L 216.61 146.17 L 231.27 277.24 L 245.93 326.96 L 260.59 337.79 L 275.25 375.00 L 289.92 333.06 L 304.58 308.20 L 319.24 290.89 L 333.90 264.74 L 348.56 247.28 L 363.22 278.92 L 377.88 241.33 L 392.54 272.67 L 407.20 307.67 L 421.86 264.05 L 436.53 273.13 L 451.19 273.58 L 465.85 183.07 L 480.51 209.46 L 495.17 304.77 L 509.83 329.32 L 524.49 342.21 L 539.15 374.85 L 553.81 360.82 L 568.47 332.91 L 583.14 310.11 L 597.80 254.37 L 612.46 241.41 L 627.12 250.25 L 641.78 274.96 L 656.44 271.37 L 671.10 287.00 L 685.76 289.90 L 700.42 256.43 L 715.08 234.08 L 729.75 237.06 L 744.41 246.21 L 759.07 211.90 L 773.73 84.17 L 788.39 172.78 L 803.05 214.11 L 817.71 200.15 L 832.37 248.88 L 847.03 293.33 L 861.69 261.99 L 876.36 228.59 L 891.02 226.46 L 905.68 237.44 L 920.34 170.49 L 935.00 173.85" fill="none" stroke="#69a7ff" stroke-width="4" stroke-linecap="round" stroke-linejoin="round"/>
<circle cx="935.00" cy="173.85" r="6" fill="#69a7ff"/>
</svg>