<svg xmlns="http://www.w3.org/2000/svg" width="960" height="430" viewBox="0 0 960 430" role="img" aria-label="Composite score history">
<rect width="100%" height="100%" fill="#0b1020" rx="20"/>
<text x="70" y="32" fill="#f5f7fb" font-family="Inter, Arial, sans-serif" font-size="24" font-weight="700">Composite score history</text>
<text x="70" y="52" fill="#93a4c3" font-family="Inter, Arial, sans-serif" font-size="13">Trailing 84 sessions through 2026-02-04</text>
<line x1="70" x2="935" y1="375.00" y2="375.00" stroke="#27314e" stroke-width="1"/>
<text x="58" y="379.00" text-anchor="end" fill="#93a4c3" font-family="Inter, Arial, sans-serif" font-size="12">0</text>
<line x1="70" x2="935" y1="312.00" y2="312.00" stroke="#27314e" stroke-width="1"/>
<text x="58" y="316.00" text-anchor="end" fill="#93a4c3" font-family="Inter, Arial, sans-serif" font-size="12">8</text>
<line x1="70" x2="935" y1="249.00" y2="249.00" stroke="#27314e" stroke-width="1"/>
<text x="58" y="253.00" text-anchor="end" fill="#93a4c3" font-family="Inter, Arial, sans-serif" font-size="12">17</text>
<line x1="70" x2="935" y1="186.00" y2="186.00" stroke="#27314e" stroke-width="1"/>
<text x="58" y="190.00" text-anchor="end" fill="#93a4c3" font-family="Inter, Arial, sans-serif" font-size="12">25</text>
<line x1="70" x2="935" y1="123.00" y2="123.00" stroke="#27314e" stroke-width="1"/>
<text x="58" y="127.00" text-anchor="end" fill="#93a4c3" font-family="Inter, Arial, sans-serif" font-size="12">33</text>
<line x1="70" x2="935" y1="60.00" y2="60.00" stroke="#27314e" stroke-width="1"/>
<text x="58" y="64.00" text-anchor="end" fill="#93a4c3" font-family="Inter, Arial, sans-serif" font-size="12">41</text>
<text x="70.00" y="412" text-anchor="middle" fill="#93a4c3" font-family="Inter, Arial, sans-serif" font-size="12">2025-10-02</text>
<text x="507.71" y="412" text-anchor="middle" fill="#93a4c3" font-family="Inter, Arial, sans-serif" font-size="12">2025-12-04</text>
<text x="935.00" y="412" text-anchor="middle" fill="#93a4c3" font-family="Inter, Arial, sans-serif" font-size="12">2026-02-04</text>
<path d="M 70.00 277.85 L 80.42 262.07 L 90.84 263.67 L 101.27 252.46 L 111.69 270.08 L 122.11 256.96 L 132.53 123.98 L 142.95 175.75 L 153.37 212.66 L 163.80 109.03 L 174.22 196.19 L 184.64 336.57 L 195.06 309.88 L 205.48 285.33 L 215.90 232.33 L 226.33 267.94 L 236.75 285.48 L 247.17 299.36 L 257.59 266.80 L 268.01 256.12 L 278.43 236.53 L 288.86 192.98 L 299.28 135.80 L 309.70 183.68 L 320.12 184.67 L 330.54 190.93 L 340.96 255.59 L 351.39 294.63 L 361.81 209.53 L 372.23 237.06 L 382.65 167.36 L 393.07 60.00 L 403.49 70.45 L 413.92 66.18 L 424.34 146.17 L 434.76 277.24 L 445.18 326.96 L 455.60 337.79 L 466.02 375.00 L 476.45 333.06 L 486.87 308.20 L 497.29 290.89 L 507.71 264.74 L 518.13 247.28 L 528.55 278.92 L 538.98 241.33 L 549.40 272.67 L 559.82 307.67 L 570.24 264.05 L 580.66 273.13 L 591.08 273.58 L 601.51 183.07 L 611.93 209.46 L 622.35 304.77 L 632.77 329.32 L 643.19 342.21 L 653.61 374.85 L 664.04 360.82 L 674.46 332.91 L 684.88 310.11 L 695.30 254.37 L 705.72 241.41 L 716.14 250.25 L 726.57 274.96 L 736.99 271.37 L 747.41 287.00 L 757.83 289.90 L 768.25 256.43 L 778.67 234.08 L 789.10 237.06 L 799.52 246.21 L 809.94 211.90 L 820.36 84.17 L 830.78 172.78 L 841.20 214.11 L 851.63 200.15 L 862.05 248.88 L 872.47 293.33 L 882.89 261.99 L 893.31 228.59 L 903.73 226.46 L 914.16 237.44 L 924.58 170.49 L 935.00 173.85" fill="none" stroke="#69a7ff" stroke-width="4" stroke-linecap="round" stroke-linejoin="round"/>
<circle cx="935.00" cy="173.85" r="6" fill="#69a7ff"/>
</svg>