<svg xmlns="http://www.w3.org/2000/svg" width="960" height="430" viewBox="0 0 960 430" role="img" aria-label="Composite score history">
<rect width="100%" height="100%" fill="#0b1020" rx="20"/>
<text x="70" y="32" fill="#f5f7fb" font-family="Inter, Arial, sans-serif" font-size="24" font-weight="700">Composite score history</text>
<text x="70" y="52" fill="#93a4c3" font-family="Inter, Arial, sans-serif" font-size="13">Trailing 42 sessions through 2025-09-29</text>
<line x1="70" x2="935" y1="375.00" y2="375.00" stroke="#27314e" stroke-width="1"/>
<text x="58" y="379.00" text-anchor="end" fill="#93a4c3" font-family="Inter, Arial, sans-serif" font-size="12">8</text>
<line x1="70" x2="935" y1="312.00" y2="312.00" stroke="#27314e" stroke-width="1"/>
<text x="58" y="316.00" text-anchor="end" fill="#93a4c3" font-family="Inter, Arial, sans-serif" font-size="12">12</text>
<line x1="70" x2="935" y1="249.00" y2="249.00" stroke="#27314e" stroke-width="1"/>
<text x="58" y="253.00" text-anchor="end" fill="#93a4c3" font-family="Inter, Arial, sans-serif" font-size="12">16</text>
<line x1="70" x2="935" y1="186.00" y2="186.00" stroke="#27314e" stroke-width="1"/>
<text x="58" y="190.00" text-anchor="end" fill="#93a4c3" font-family="Inter, Arial, sans-serif" font-size="12">20</text>
<line x1="70" x2="935" y1="123.00" y2="123.00" stroke="#27314e" stroke-width="1"/>
<text x="58" y="127.00" text-anchor="end" fill="#93a4c3" font-family="Inter, Arial, sans-serif" font-size="12">24</text>
<line x1="70" x2="935" y1="60.00" y2="60.00" stroke="#27314e" stroke-width="1"/>
<text x="58" y="64.00" text-anchor="end" fill="#93a4c3" font-family="Inter, Arial, sans-serif" font-size="12">28</text>
<text x="70.00" y="412" text-anchor="middle" fill="#93a4c3" font-family="Inter, Arial, sans-serif" font-size="12">2025-07-31</text>
<text x="513.05" y="412" text-anchor="middle" fill="#93a4c3" font-family="Inter, Arial, sans-serif" font-size="12">2025-08-29</text>
<text x="935.00" y="412" text-anchor="middle" fill="#93a4c3" font-family="Inter, Arial, sans-serif" font-size="12">2025-09-29</text>
<path d="M 70.00 241.32 L 91.10 60.00 L 112.20 246.28 L 133.29 195.43 L 154.39 284.66 L 175.49 279.06 L 196.59 267.87 L 217.68 209.03 L 238.78 373.24 L 259.88 367.32 L 280.98 345.10 L 302.07 328.79 L 323.17 331.19 L 344.27 217.98 L 365.37 139.31 L 386.46 75.51 L 407.56 257.31 L 428.66 211.90 L 449.76 238.61 L 470.85 265.47 L 491.95 338.86 L 513.05 267.55 L 534.15 195.75 L 555.24 233.17 L 576.34 306.72 L 597.44 279.22 L 618.54 342.38 L 639.63 372.12 L 660.73 364.61 L 681.83 375.00 L 702.93 346.70 L 724.02 341.74 L 745.12 339.18 L 766.22 325.75 L 787.32 254.28 L 808.41 327.35 L 829.51 282.10 L 850.61 308.96 L 871.71 280.82 L 892.80 189.52 L 913.90 238.29 L 935.00 241.80" fill="none" stroke="#69a7ff" stroke-width="4" stroke-linecap="round" stroke-linejoin="round"/>
<circle cx="935.00" cy="241.80" r="6" fill="#69a7ff"/>
</svg>