<svg xmlns="http://www.w3.org/2000/svg" width="960" height="430" viewBox="0 0 960 430" role="img" aria-label="Composite score history">
<rect width="100%" height="100%" fill="#0b1020" rx="20"/>
<text x="70" y="32" fill="#f5f7fb" font-family="Inter, Arial, sans-serif" font-size="24" font-weight="700">Composite score history</text>
<text x="70" y="52" fill="#93a4c3" font-family="Inter, Arial, sans-serif" font-size="13">Trailing 81 sessions through 2026-01-15</text>
<line x1="70" x2="935" y1="375.00" y2="375.00" stroke="#27314e" stroke-width="1"/>
<text x="58" y="379.00" text-anchor="end" fill="#93a4c3" font-family="Inter, Arial, sans-serif" font-size="12">0</text>
<line x1="70" x2="935" y1="312.00" y2="312.00" stroke="#27314e" stroke-width="1"/>
<text x="58" y="316.00" text-anchor="end" fill="#93a4c3" font-family="Inter, Arial, sans-serif" font-size="12">8</text>
<line x1="70" x2="935" y1="249.00" y2="249.00" stroke="#27314e" stroke-width="1"/>
<text x="58" y="253.00" text-anchor="end" fill="#93a4c3" font-family="Inter, Arial, sans-serif" font-size="12">17</text>
<line x1="70" x2="935" y1="186.00" y2="186.00" stroke="#27314e" stroke-width="1"/>
<text x="58" y="190.00" text-anchor="end" fill="#93a4c3" font-family="Inter, Arial, sans-serif" font-size="12">25</text>
<line x1="70" x2="935" y1="123.00" y2="123.00" stroke="#27314e" stroke-width="1"/>
<text x="58" y="127.00" text-anchor="end" fill="#93a4c3" font-family="Inter, Arial, sans-serif" font-size="12">33</text>
<line x1="70" x2="935" y1="60.00" y2="60.00" stroke="#27314e" stroke-width="1"/>
<text x="58" y="64.00" text-anchor="end" fill="#93a4c3" font-family="Inter, Arial, sans-serif" font-size="12">41</text>
<text x="70.00" y="412" text-anchor="middle" fill="#93a4c3" font-family="Inter, Arial, sans-serif" font-size="12">2025-09-18</text>
<text x="502.50" y="412" text-anchor="middle" fill="#93a4c3" font-family="Inter, Arial, sans-serif" font-size="12">2025-11-17</text>
<text x="935.00" y="412" text-anchor="middle" fill="#93a4c3" font-family="Inter, Arial, sans-serif" font-size="12">2026-01-15</text>
<path d="M 70.00 274.27 L 80.81 286.17 L 91.62 274.88 L 102.44 273.58 L 113.25 272.06 L 124.06 222.49 L 134.88 245.75 L 145.69 247.43 L 156.50 259.32 L 167.31 297.76 L 178.12 309.80 L 188.94 286.01 L 199.75 296.54 L 210.56 271.60 L 221.38 278.85 L 232.19 256.96 L 243.00 123.98 L 253.81 175.75 L 264.62 212.66 L 275.44 109.03 L 286.25 196.19 L 297.06 336.57 L 307.88 309.88 L 318.69 285.33 L 329.50 232.33 L 340.31 267.94 L 351.12 285.48 L 361.94 299.36 L 372.75 266.80 L 383.56 256.12 L 394.38 236.53 L 405.19 192.98 L 416.00 135.80 L 426.81 183.68 L 437.62 184.67 L 448.44 190.93 L 459.25 255.59 L 470.06 294.63 L 480.88 209.53 L 491.69 237.06 L 502.50 167.36 L 513.31 60.00 L 524.12 70.45 L 534.94 66.18 L 545.75 146.17 L 556.56 277.24 L 567.38 326.96 L 578.19 337.79 L 589.00 375.00 L 599.81 333.06 L 610.62 308.20 L 621.44 290.89 L 632.25 264.74 L 643.06 247.28 L 653.88 278.92 L 664.69 241.33 L 675.50 272.67 L 686.31 307.67 L 697.12 264.05 L 707.94 273.13 L 718.75 273.58 L 729.56 183.07 L 740.38 209.46 L 751.19 304.77 L 762.00 329.32 L 772.81 342.21 L 783.62 374.85 L 794.44 360.82 L 805.25 332.91 L 816.06 310.11 L 826.88 254.37 L 837.69 241.41 L 848.50 250.25 L 859.31 274.96 L 870.12 271.37 L 880.94 287.00 L 891.75 289.90 L 902.56 256.43 L 913.38 234.08 L 924.19 237.06 L 935.00 246.21" fill="none" stroke="#69a7ff" stroke-width="4" stroke-linecap="round" stroke-linejoin="round"/>
<circle cx="935.00" cy="246.21" r="6" fill="#69a7ff"/>
</svg>