<svg xmlns="http://www.w3.org/2000/svg" width="960" height="430" viewBox="0 0 960 430" role="img" aria-label="Composite score history">
<rect width="100%" height="100%" fill="#0b1020" rx="20"/>
<text x="70" y="32" fill="#f5f7fb" font-family="Inter, Arial, sans-serif" font-size="24" font-weight="700">Composite score history</text>
<text x="70" y="52" fill="#93a4c3" font-family="Inter, Arial, sans-serif" font-size="13">Trailing 61 sessions through 2026-01-15</text>
<line x1="70" x2="935" y1="375.00" y2="375.00" stroke="#27314e" stroke-width="1"/>
<text x="58" y="379.00" text-anchor="end" fill="#93a4c3" font-family="Inter, Arial, sans-serif" font-size="12">0</text>
<line x1="70" x2="935" y1="312.00" y2="312.00" stroke="#27314e" stroke-width="1"/>
<text x="58" y="316.00" text-anchor="end" fill="#93a4c3" font-family="Inter, Arial, sans-serif" font-size="12">8</text>
<line x1="70" x2="935" y1="249.00" y2="249.00" stroke="#27314e" stroke-width="1"/>
<text x="58" y="253.00" text-anchor="end" fill="#93a4c3" font-family="Inter, Arial, sans-serif" font-size="12">17</text>
<line x1="70" x2="935" y1="186.00" y2="186.00" stroke="#27314e" stroke-width="1"/>
<text x="58" y="190.00" text-anchor="end" fill="#93a4c3" font-family="Inter, Arial, sans-serif" font-size="12">25</text>
<line x1="70" x2="935" y1="123.00" y2="123.00" stroke="#27314e" stroke-width="1"/>
<text x="58" y="127.00" text-anchor="end" fill="#93a4c3" font-family="Inter, Arial, sans-serif" font-size="12">33</text>
<line x1="70" x2="935" y1="60.00" y2="60.00" stroke="#27314e" stroke-width="1"/>
<text x="58" y="64.00" text-anchor="end" fill="#93a4c3" font-family="Inter, Arial, sans-serif" font-size="12">41</text>
<text x="70.00" y="412" text-anchor="middle" fill="#93a4c3" font-family="Inter, Arial, sans-serif" font-size="12">2025-10-17</text>
<text x="502.50" y="412" text-anchor="middle" fill="#93a4c3" font-family="Inter, Arial, sans-serif" font-size="12">2025-12-02</text>
<text x="935.00" y="412" text-anchor="middle" fill="#93a4c3" font-family="Inter, Arial, sans-serif" font-size="12">2026-01-15</text>
<path d="M 70.00 267.48 L 84.42 303.78 L 98.83 300.35 L 113.25 275.87 L 127.67 237.44 L 142.08 267.94 L 156.50 285.48 L 170.92 299.36 L 185.33 266.80 L 199.75 256.12 L 214.17 236.53 L 228.58 192.98 L 243.00 135.80 L 257.42 183.68 L 271.83 184.67 L 286.25 190.93 L 300.67 255.59 L 315.08 294.63 L 329.50 209.53 L 343.92 237.06 L 358.33 167.36 L 372.75 60.00 L 387.17 70.45 L 401.58 66.18 L 416.00 146.17 L 430.42 277.24 L 444.83 326.96 L 459.25 337.79 L 473.67 375.00 L 488.08 333.06 L 502.50 308.20 L 516.92 290.89 L 531.33 264.74 L 545.75 247.28 L 560.17 278.92 L 574.58 241.33 L 589.00 272.67 L 603.42 307.67 L 617.83 264.05 L 632.25 273.13 L 646.67 273.58 L 661.08 183.07 L 675.50 209.46 L 689.92 304.77 L 704.33 329.32 L 718.75 342.21 L 733.17 374.85 L 747.58 360.82 L 762.00 332.91 L 776.42 310.11 L 790.83 254.37 L 805.25 241.41 L 819.67 250.25 L 834.08 274.96 L 848.50 271.37 L 862.92 287.00 L 877.33 289.90 L 891.75 256.43 L 906.17 234.08 L 920.58 237.06 L 935.00 246.21" fill="none" stroke="#69a7ff" stroke-width="4" stroke-linecap="round" stroke-linejoin="round"/>
<circle cx="935.00" cy="246.21" r="6" fill="#69a7ff"/>
</svg>