<svg xmlns="http://www.w3.org/2000/svg" width="960" height="430" viewBox="0 0 960 430" role="img" aria-label="Composite score history">
<rect width="100%" height="100%" fill="#0b1020" rx="20"/>
<text x="70" y="32" fill="#f5f7fb" font-family="Inter, Arial, sans-serif" font-size="24" font-weight="700">Composite score history</text>
<text x="70" y="52" fill="#93a4c3" font-family="Inter, Arial, sans-serif" font-size="13">Trailing 88 sessions through 2026-01-15</text>
<line x1="70" x2="935" y1="375.00" y2="375.00" stroke="#27314e" stroke-width="1"/>
<text x="58" y="379.00" text-anchor="end" fill="#93a4c3" font-family="Inter, Arial, sans-serif" font-size="12">0</text>
<line x1="70" x2="935" y1="312.00" y2="312.00" stroke="#27314e" stroke-width="1"/>
<text x="58" y="316.00" text-anchor="end" fill="#93a4c3" font-family="Inter, Arial, sans-serif" font-size="12">8</text>
<line x1="70" x2="935" y1="249.00" y2="249.00" stroke="#27314e" stroke-width="1"/>
<text x="58" y="253.00" text-anchor="end" fill="#93a4c3" font-family="Inter, Arial, sans-serif" font-size="12">17</text>
<line x1="70" x2="935" y1="186.00" y2="186.00" stroke="#27314e" stroke-width="1"/>
<text x="58" y="190.00" text-anchor="end" fill="#93a4c3" font-family="Inter, Arial, sans-serif" font-size="12">25</text>
<line x1="70" x2="935" y1="123.00" y2="123.00" stroke="#27314e" stroke-width="1"/>
<text x="58" y="127.00" text-anchor="end" fill="#93a4c3" font-family="Inter, Arial, sans-serif" font-size="12">33</text>
<line x1="70" x2="935" y1="60.00" y2="60.00" stroke="#27314e" stroke-width="1"/>
<text x="58" y="64.00" text-anchor="end" fill="#93a4c3" font-family="Inter, Arial, sans-serif" font-size="12">41</text>
<text x="70.00" y="412" text-anchor="middle" fill="#93a4c3" font-family="Inter, Arial, sans-serif" font-size="12">2025-09-09</text>
<text x="507.47" y="412" text-anchor="middle" fill="#93a4c3" font-family="Inter, Arial, sans-serif" font-size="12">2025-11-12</text>
<text x="935.00" y="412" text-anchor="middle" fill="#93a4c3" font-family="Inter, Arial, sans-serif" font-size="12">2026-01-15</text>
<path d="M 70.00 280.75 L 79.94 284.72 L 89.89 307.82 L 99.83 297.37 L 109.77 304.62 L 119.71 293.87 L 129.66 287.46 L 139.60 253.38 L 149.54 288.22 L 159.48 266.64 L 169.43 279.46 L 179.37 266.03 L 189.31 222.49 L 199.25 245.75 L 209.20 247.43 L 219.14 259.32 L 229.08 297.76 L 239.02 309.80 L 248.97 286.01 L 258.91 296.54 L 268.85 271.60 L 278.79 278.85 L 288.74 256.96 L 298.68 123.98 L 308.62 175.75 L 318.56 212.66 L 328.51 109.03 L 338.45 196.19 L 348.39 336.57 L 358.33 309.88 L 368.28 285.33 L 378.22 232.33 L 388.16 267.94 L 398.10 285.48 L 408.05 299.36 L 417.99 266.80 L 427.93 256.12 L 437.87 236.53 L 447.82 192.98 L 457.76 135.80 L 467.70 183.68 L 477.64 184.67 L 487.59 190.93 L 497.53 255.59 L 507.47 294.63 L 517.41 209.53 L 527.36 237.06 L 537.30 167.36 L 547.24 60.00 L 557.18 70.45 L 567.13 66.18 L 577.07 146.17 L 587.01 277.24 L 596.95 326.96 L 606.90 337.79 L 616.84 375.00 L 626.78 333.06 L 636.72 308.20 L 646.67 290.89 L 656.61 264.74 L 666.55 247.28 L 676.49 278.92 L 686.44 241.33 L 696.38 272.67 L 706.32 307.67 L 716.26 264.05 L 726.21 273.13 L 736.15 273.58 L 746.09 183.07 L 756.03 209.46 L 765.98 304.77 L 775.92 329.32 L 785.86 342.21 L 795.80 374.85 L 805.75 360.82 L 815.69 332.91 L 825.63 310.11 L 835.57 254.37 L 845.52 241.41 L 855.46 250.25 L 865.40 274.96 L 875.34 271.37 L 885.29 287.00 L 895.23 289.90 L 905.17 256.43 L 915.11 234.08 L 925.06 237.06 L 935.00 246.21" fill="none" stroke="#69a7ff" stroke-width="4" stroke-linecap="round" stroke-linejoin="round"/>
<circle cx="935.00" cy="246.21" r="6" fill="#69a7ff"/>
</svg>