<svg xmlns="http://www.w3.org/2000/svg" width="960" height="430" viewBox="0 0 960 430" role="img" aria-label="Composite score history">
<rect width="100%" height="100%" fill="#0b1020" rx="20"/>
<text x="70" y="32" fill="#f5f7fb" font-family="Inter, Arial, sans-serif" font-size="24" font-weight="700">Composite score history</text>
<text x="70" y="52" fill="#93a4c3" font-family="Inter, Arial, sans-serif" font-size="13">Trailing 72 sessions through 2026-01-15</text>
<line x1="70" x2="935" y1="375.00" y2="375.00" stroke="#27314e" stroke-width="1"/>
<text x="58" y="379.00" text-anchor="end" fill="#93a4c3" font-family="Inter, Arial, sans-serif" font-size="12">0</text>
<line x1="70" x2="935" y1="312.00" y2="312.00" stroke="#27314e" stroke-width="1"/>
<text x="58" y="316.00" text-anchor="end" fill="#93a4c3" font-family="Inter, Arial, sans-serif" font-size="12">8</text>
<line x1="70" x2="935" y1="249.00" y2="249.00" stroke="#27314e" stroke-width="1"/>
<text x="58" y="253.00" text-anchor="end" fill="#93a4c3" font-family="Inter, Arial, sans-serif" font-size="12">17</text>
<line x1="70" x2="935" y1="186.00" y2="186.00" stroke="#27314e" stroke-width="1"/>
<text x="58" y="190.00" text-anchor="end" fill="#93a4c3" font-family="Inter, Arial, sans-serif" font-size="12">25</text>
<line x1="70" x2="935" y1="123.00" y2="123.00" stroke="#27314e" stroke-width="1"/>
<text x="58" y="127.00" text-anchor="end" fill="#93a4c3" font-family="Inter, Arial, sans-serif" font-size="12">33</text>
<line x1="70" x2="935" y1="60.00" y2="60.00" stroke="#27314e" stroke-width="1"/>
<text x="58" y="64.00" text-anchor="end" fill="#93a4c3" font-family="Inter, Arial, sans-serif" font-size="12">41</text>
<text x="70.00" y="412" text-anchor="middle" fill="#93a4c3" font-family="Inter, Arial, sans-serif" font-size="12">2025-10-01</text>
<text x="508.59" y="412" text-anchor="middle" fill="#93a4c3" font-family="Inter, Arial, sans-serif" font-size="12">2025-11-24</text>
<text x="935.00" y="412" text-anchor="middle" fill="#93a4c3" font-family="Inter, Arial, sans-serif" font-size="12">2026-01-15</text>
<path d="M 70.00 277.55 L 82.18 276.63 L 94.37 264.66 L 106.55 268.09 L 118.73 259.10 L 130.92 278.85 L 143.10 256.96 L 155.28 123.98 L 167.46 175.75 L 179.65 212.66 L 191.83 109.03 L 204.01 196.19 L 216.20 336.57 L 228.38 309.88 L 240.56 285.33 L 252.75 232.33 L 264.93 267.94 L 277.11 285.48 L 289.30 299.36 L 301.48 266.80 L 313.66 256.12 L 325.85 236.53 L 338.03 192.98 L 350.21 135.80 L 362.39 183.68 L 374.58 184.67 L 386.76 190.93 L 398.94 255.59 L 411.13 294.63 L 423.31 209.53 L 435.49 237.06 L 447.68 167.36 L 459.86 60.00 L 472.04 70.45 L 484.23 66.18 L 496.41 146.17 L 508.59 277.24 L 520.77 326.96 L 532.96 337.79 L 545.14 375.00 L 557.32 333.06 L 569.51 308.20 L 581.69 290.89 L 593.87 264.74 L 606.06 247.28 L 618.24 278.92 L 630.42 241.33 L 642.61 272.67 L 654.79 307.67 L 666.97 264.05 L 679.15 273.13 L 691.34 273.58 L 703.52 183.07 L 715.70 209.46 L 727.89 304.77 L 740.07 329.32 L 752.25 342.21 L 764.44 374.85 L 776.62 360.82 L 788.80 332.91 L 800.99 310.11 L 813.17 254.37 L 825.35 241.41 L 837.54 250.25 L 849.72 274.96 L 861.90 271.37 L 874.08 287.00 L 886.27 289.90 L 898.45 256.43 L 910.63 234.08 L 922.82 237.06 L 935.00 246.21" fill="none" stroke="#69a7ff" stroke-width="4" stroke-linecap="round" stroke-linejoin="round"/>
<circle cx="935.00" cy="246.21" r="6" fill="#69a7ff"/>
</svg>