<svg xmlns="http://www.w3.org/2000/svg" width="960" height="430" viewBox="0 0 960 430" role="img" aria-label="Composite score history">
<rect width="100%" height="100%" fill="#0b1020" rx="20"/>
<text x="70" y="32" fill="#f5f7fb" font-family="Inter, Arial, sans-serif" font-size="24" font-weight="700">Composite score history</text>
<text x="70" y="52" fill="#93a4c3" font-family="Inter, Arial, sans-serif" font-size="13">Trailing 47 sessions through 2026-01-15</text>
<line x1="70" x2="935" y1="375.00" y2="375.00" stroke="#27314e" stroke-width="1"/>
<text x="58" y="379.00" text-anchor="end" fill="#93a4c3" font-family="Inter, Arial, sans-serif" font-size="12">0</text>
<line x1="70" x2="935" y1="312.00" y2="312.00" stroke="#27314e" stroke-width="1"/>
<text x="58" y="316.00" text-anchor="end" fill="#93a4c3" font-family="Inter, Arial, sans-serif" font-size="12">8</text>
<line x1="70" x2="935" y1="249.00" y2="249.00" stroke="#27314e" stroke-width="1"/>
<text x="58" y="253.00" text-anchor="end" fill="#93a4c3" font-family="Inter, Arial, sans-serif" font-size="12">17</text>
<line x1="70" x2="935" y1="186.00" y2="186.00" stroke="#27314e" stroke-width="1"/>
<text x="58" y="190.00" text-anchor="end" fill="#93a4c3" font-family="Inter, Arial, sans-serif" font-size="12">25</text>
<line x1="70" x2="935" y1="123.00" y2="123.00" stroke="#27314e" stroke-width="1"/>
<text x="58" y="127.00" text-anchor="end" fill="#93a4c3" font-family="Inter, Arial, sans-serif" font-size="12">33</text>
<line x1="70" x2="935" y1="60.00" y2="60.00" stroke="#27314e" stroke-width="1"/>
<text x="58" y="64.00" text-anchor="end" fill="#93a4c3" font-family="Inter, Arial, sans-serif" font-size="12">41</text>
<text x="70.00" y="412" text-anchor="middle" fill="#93a4c3" font-family="Inter, Arial, sans-serif" font-size="12">2025-11-06</text>
<text x="502.50" y="412" text-anchor="middle" fill="#93a4c3" font-family="Inter, Arial, sans-serif" font-size="12">2025-12-11</text>
<text x="935.00" y="412" text-anchor="middle" fill="#93a4c3" font-family="Inter, Arial, sans-serif" font-size="12">2026-01-15</text>
<path d="M 70.00 260.16 L 88.80 267.18 L 107.61 294.48 L 126.41 309.27 L 145.22 255.05 L 164.02 237.06 L 182.83 167.36 L 201.63 60.00 L 220.43 70.45 L 239.24 66.18 L 258.04 146.17 L 276.85 277.24 L 295.65 326.96 L 314.46 337.79 L 333.26 375.00 L 352.07 333.06 L 370.87 308.20 L 389.67 290.89 L 408.48 264.74 L 427.28 247.28 L 446.09 278.92 L 464.89 241.33 L 483.70 272.67 L 502.50 307.67 L 521.30 264.05 L 540.11 273.13 L 558.91 273.58 L 577.72 183.07 L 596.52 209.46 L 615.33 304.77 L 634.13 329.32 L 652.93 342.21 L 671.74 374.85 L 690.54 360.82 L 709.35 332.91 L 728.15 310.11 L 746.96 254.37 L 765.76 241.41 L 784.57 250.25 L 803.37 274.96 L 822.17 271.37 L 840.98 287.00 L 859.78 289.90 L 878.59 256.43 L 897.39 234.08 L 916.20 237.06 L 935.00 246.21" fill="none" stroke="#69a7ff" stroke-width="4" stroke-linecap="round" stroke-linejoin="round"/>
<circle cx="935.00" cy="246.21" r="6" fill="#69a7ff"/>
</svg>