<svg xmlns="http://www.w3.org/2000/svg" width="960" height="430" viewBox="0 0 960 430" role="img" aria-label="Composite score history">
<rect width="100%" height="100%" fill="#0b1020" rx="20"/>
<text x="70" y="32" fill="#f5f7fb" font-family="Inter, Arial, sans-serif" font-size="24" font-weight="700">Composite score history</text>
<text x="70" y="52" fill="#93a4c3" font-family="Inter, Arial, sans-serif" font-size="13">Trailing 83 sessions through 2026-01-15</text>
<line x1="70" x2="935" y1="375.00" y2="375.00" stroke="#27314e" stroke-width="1"/>
<text x="58" y="379.00" text-anchor="end" fill="#93a4c3" font-family="Inter, Arial, sans-serif" font-size="12">0</text>
<line x1="70" x2="935" y1="312.00" y2="312.00" stroke="#27314e" stroke-width="1"/>
<text x="58" y="316.00" text-anchor="end" fill="#93a4c3" font-family="Inter, Arial, sans-serif" font-size="12">8</text>
<line x1="70" x2="935" y1="249.00" y2="249.00" stroke="#27314e" stroke-width="1"/>
<text x="58" y="253.00" text-anchor="end" fill="#93a4c3" font-family="Inter, Arial, sans-serif" font-size="12">17</text>
<line x1="70" x2="935" y1="186.00" y2="186.00" stroke="#27314e" stroke-width="1"/>
<text x="58" y="190.00" text-anchor="end" fill="#93a4c3" font-family="Inter, Arial, sans-serif" font-size="12">25</text>
<line x1="70" x2="935" y1="123.00" y2="123.00" stroke="#27314e" stroke-width="1"/>
<text x="58" y="127.00" text-anchor="end" fill="#93a4c3" font-family="Inter, Arial, sans-serif" font-size="12">33</text>
<line x1="70" x2="935" y1="60.00" y2="60.00" stroke="#27314e" stroke-width="1"/>
<text x="58" y="64.00" text-anchor="end" fill="#93a4c3" font-family="Inter, Arial, sans-serif" font-size="12">41</text>
<text x="70.00" y="412" text-anchor="middle" fill="#93a4c3" font-family="Inter, Arial, sans-serif" font-size="12">2025-09-16</text>
<text x="502.50" y="412" text-anchor="middle" fill="#93a4c3" font-family="Inter, Arial, sans-serif" font-size="12">2025-11-14</text>
<text x="935.00" y="412" text-anchor="middle" fill="#93a4c3" font-family="Inter, Arial, sans-serif" font-size="12">2026-01-15</text>
<path d="M 70.00 275.72 L 80.55 267.25 L 91.10 255.59 L 101.65 271.37 L 112.20 266.72 L 122.74 279.46 L 133.29 266.03 L 143.84 222.49 L 154.39 245.75 L 164.94 247.43 L 175.49 259.32 L 186.04 297.76 L 196.59 309.80 L 207.13 286.01 L 217.68 296.54 L 228.23 271.60 L 238.78 278.85 L 249.33 256.96 L 259.88 123.98 L 270.43 175.75 L 280.98 212.66 L 291.52 109.03 L 302.07 196.19 L 312.62 336.57 L 323.17 309.88 L 333.72 285.33 L 344.27 232.33 L 354.82 267.94 L 365.37 285.48 L 375.91 299.36 L 386.46 266.80 L 397.01 256.12 L 407.56 236.53 L 418.11 192.98 L 428.66 135.80 L 439.21 183.68 L 449.76 184.67 L 460.30 190.93 L 470.85 255.59 L 481.40 294.63 L 491.95 209.53 L 502.50 237.06 L 513.05 167.36 L 523.60 60.00 L 534.15 70.45 L 544.70 66.18 L 555.24 146.17 L 565.79 277.24 L 576.34 326.96 L 586.89 337.79 L 597.44 375.00 L 607.99 333.06 L 618.54 308.20 L 629.09 290.89 L 639.63 264.74 L 650.18 247.28 L 660.73 278.92 L 671.28 241.33 L 681.83 272.67 L 692.38 307.67 L 702.93 264.05 L 713.48 273.13 L 724.02 273.58 L 734.57 183.07 L 745.12 209.46 L 755.67 304.77 L 766.22 329.32 L 776.77 342.21 L 787.32 374.85 L 797.87 360.82 L 808.41 332.91 L 818.96 310.11 L 829.51 254.37 L 840.06 241.41 L 850.61 250.25 L 861.16 274.96 L 871.71 271.37 L 882.26 287.00 L 892.80 289.90 L 903.35 256.43 L 913.90 234.08 L 924.45 237.06 L 935.00 246.21" fill="none" stroke="#69a7ff" stroke-width="4" stroke-linecap="round" stroke-linejoin="round"/>
<circle cx="935.00" cy="246.21" r="6" fill="#69a7ff"/>
</svg>