<svg xmlns="http://www.w3.org/2000/svg" width="960" height="430" viewBox="0 0 960 430" role="img" aria-label="Composite score history">
<rect width="100%" height="100%" fill="#0b1020" rx="20"/>
<text x="70" y="32" fill="#f5f7fb" font-family="Inter, Arial, sans-serif" font-size="24" font-weight="700">Composite score history</text>
<text x="70" y="52" fill="#93a4c3" font-family="Inter, Arial, sans-serif" font-size="13">Trailing 74 sessions through 2026-01-15</text>
<line x1="70" x2="935" y1="375.00" y2="375.00" stroke="#27314e" stroke-width="1"/>
<text x="58" y="379.00" text-anchor="end" fill="#93a4c3" font-family="Inter, Arial, sans-serif" font-size="12">0</text>
<line x1="70" x2="935" y1="312.00" y2="312.00" stroke="#27314e" stroke-width="1"/>
<text x="58" y="316.00" text-anchor="end" fill="#93a4c3" font-family="Inter, Arial, sans-serif" font-size="12">8</text>
<line x1="70" x2="935" y1="249.00" y2="249.00" stroke="#27314e" stroke-width="1"/>
<text x="58" y="253.00" text-anchor="end" fill="#93a4c3" font-family="Inter, Arial, sans-serif" font-size="12">17</text>
<line x1="70" x2="935" y1="186.00" y2="186.00" stroke="#27314e" stroke-width="1"/>
<text x="58" y="190.00" text-anchor="end" fill="#93a4c3" font-family="Inter, Arial, sans-serif" font-size="12">25</text>
<line x1="70" x2="935" y1="123.00" y2="123.00" stroke="#27314e" stroke-width="1"/>
<text x="58" y="127.00" text-anchor="end" fill="#93a4c3" font-family="Inter, Arial, sans-serif" font-size="12">33</text>
<line x1="70" x2="935" y1="60.00" y2="60.00" stroke="#27314e" stroke-width="1"/>
<text x="58" y="64.00" text-anchor="end" fill="#93a4c3" font-family="Inter, Arial, sans-serif" font-size="12">41</text>
<text x="70.00" y="412" text-anchor="middle" fill="#93a4c3" font-family="Inter, Arial, sans-serif" font-size="12">2025-09-29</text>
<text x="508.42" y="412" text-anchor="middle" fill="#93a4c3" font-family="Inter, Arial, sans-serif" font-size="12">2025-11-21</text>
<text x="935.00" y="412" text-anchor="middle" fill="#93a4c3" font-family="Inter, Arial, sans-serif" font-size="12">2026-01-15</text>
<path d="M 70.00 272.14 L 81.85 274.42 L 93.70 290.66 L 105.55 289.75 L 117.40 286.93 L 129.25 296.54 L 141.10 271.60 L 152.95 278.85 L 164.79 256.96 L 176.64 123.98 L 188.49 175.75 L 200.34 212.66 L 212.19 109.03 L 224.04 196.19 L 235.89 336.57 L 247.74 309.88 L 259.59 285.33 L 271.44 232.33 L 283.29 267.94 L 295.14 285.48 L 306.99 299.36 L 318.84 266.80 L 330.68 256.12 L 342.53 236.53 L 354.38 192.98 L 366.23 135.80 L 378.08 183.68 L 389.93 184.67 L 401.78 190.93 L 413.63 255.59 L 425.48 294.63 L 437.33 209.53 L 449.18 237.06 L 461.03 167.36 L 472.88 60.00 L 484.73 70.45 L 496.58 66.18 L 508.42 146.17 L 520.27 277.24 L 532.12 326.96 L 543.97 337.79 L 555.82 375.00 L 567.67 333.06 L 579.52 308.20 L 591.37 290.89 L 603.22 264.74 L 615.07 247.28 L 626.92 278.92 L 638.77 241.33 L 650.62 272.67 L 662.47 307.67 L 674.32 264.05 L 686.16 273.13 L 698.01 273.58 L 709.86 183.07 L 721.71 209.46 L 733.56 304.77 L 745.41 329.32 L 757.26 342.21 L 769.11 374.85 L 780.96 360.82 L 792.81 332.91 L 804.66 310.11 L 816.51 254.37 L 828.36 241.41 L 840.21 250.25 L 852.05 274.96 L 863.90 271.37 L 875.75 287.00 L 887.60 289.90 L 899.45 256.43 L 911.30 234.08 L 923.15 237.06 L 935.00 246.21" fill="none" stroke="#69a7ff" stroke-width="4" stroke-linecap="round" stroke-linejoin="round"/>
<circle cx="935.00" cy="246.21" r="6" fill="#69a7ff"/>
</svg>