<svg xmlns="http://www.w3.org/2000/svg" width="960" height="430" viewBox="0 0 960 430" role="img" aria-label="Composite score history">
<rect width="100%" height="100%" fill="#0b1020" rx="20"/>
<text x="70" y="32" fill="#f5f7fb" font-family="Inter, Arial, sans-serif" font-size="24" font-weight="700">Composite score history</text>
<text x="70" y="52" fill="#93a4c3" font-family="Inter, Arial, sans-serif" font-size="13">Trailing 79 sessions through 2026-02-27</text>
<line x1="70" x2="935" y1="375.00" y2="375.00" stroke="#27314e" stroke-width="1"/>
<text x="58" y="379.00" text-anchor="end" fill="#93a4c3" font-family="Inter, Arial, sans-serif" font-size="12">0</text>
<line x1="70" x2="935" y1="312.00" y2="312.00" stroke="#27314e" stroke-width="1"/>
<text x="58" y="316.00" text-anchor="end" fill="#93a4c3" font-family="Inter, Arial, sans-serif" font-size="12">8</text>
<line x1="70" x2="935" y1="249.00" y2="249.00" stroke="#27314e" stroke-width="1"/>
<text x="58" y="253.00" text-anchor="end" fill="#93a4c3" font-family="Inter, Arial, sans-serif" font-size="12">17</text>
<line x1="70" x2="935" y1="186.00" y2="186.00" stroke="#27314e" stroke-width="1"/>
<text x="58" y="190.00" text-anchor="end" fill="#93a4c3" font-family="Inter, Arial, sans-serif" font-size="12">25</text>
<line x1="70" x2="935" y1="123.00" y2="123.00" stroke="#27314e" stroke-width="1"/>
<text x="58" y="127.00" text-anchor="end" fill="#93a4c3" font-family="Inter, Arial, sans-serif" font-size="12">33</text>
<line x1="70" x2="935" y1="60.00" y2="60.00" stroke="#27314e" stroke-width="1"/>
<text x="58" y="64.00" text-anchor="end" fill="#93a4c3" font-family="Inter, Arial, sans-serif" font-size="12">41</text>
<text x="70.00" y="412" text-anchor="middle" fill="#93a4c3" font-family="Inter, Arial, sans-serif" font-size="12">2025-11-03</text>
<text x="502.50" y="412" text-anchor="middle" fill="#93a4c3" font-family="Inter, Arial, sans-serif" font-size="12">2025-12-31</text>
<text x="935.00" y="412" text-anchor="middle" fill="#93a4c3" font-family="Inter, Arial, sans-serif" font-size="12">2026-02-27</text>
<path d="M 70.00 267.64 L 81.09 203.58 L 92.18 217.39 L 103.27 170.26 L 114.36 182.61 L 125.45 255.59 L 136.54 294.63 L 147.63 209.53 L 158.72 237.06 L 169.81 167.36 L 180.90 60.00 L 191.99 70.45 L 203.08 66.18 L 214.17 146.17 L 225.26 277.24 L 236.35 326.96 L 247.44 337.79 L 258.53 375.00 L 269.62 333.06 L 280.71 308.20 L 291.79 290.89 L 302.88 264.74 L 313.97 247.28 L 325.06 278.92 L 336.15 241.33 L 347.24 272.67 L 358.33 307.67 L 369.42 264.05 L 380.51 273.13 L 391.60 273.58 L 402.69 183.07 L 413.78 209.46 L 424.87 304.77 L 435.96 329.32 L 447.05 342.21 L 458.14 374.85 L 469.23 360.82 L 480.32 332.91 L 491.41 310.11 L 502.50 254.37 L 513.59 241.41 L 524.68 250.25 L 535.77 274.96 L 546.86 271.37 L 557.95 287.00 L 569.04 289.90 L 580.13 256.43 L 591.22 234.08 L 602.31 237.06 L 613.40 246.21 L 624.49 211.90 L 635.58 84.17 L 646.67 172.78 L 657.76 214.11 L 668.85 200.15 L 679.94 248.88 L 691.03 293.33 L 702.12 261.99 L 713.21 228.59 L 724.29 226.46 L 735.38 237.44 L 746.47 170.49 L 757.56 173.85 L 768.65 111.24 L 779.74 253.00 L 790.83 248.65 L 801.92 271.37 L 813.01 276.02 L 824.10 258.10 L 835.19 183.61 L 846.28 172.93 L 857.37 205.34 L 868.46 191.99 L 879.55 278.62 L 890.64 243.46 L 901.73 272.82 L 912.82 287.61 L 923.91 279.07 L 935.00 241.94" fill="none" stroke="#69a7ff" stroke-width="4" stroke-linecap="round" stroke-linejoin="round"/>
<circle cx="935.00" cy="241.94" r="6" fill="#69a7ff"/>
</svg>