<svg xmlns="http://www.w3.org/2000/svg" width="960" height="430" viewBox="0 0 960 430" role="img" aria-label="Composite score history">
<rect width="100%" height="100%" fill="#0b1020" rx="20"/>
<text x="70" y="32" fill="#f5f7fb" font-family="Inter, Arial, sans-serif" font-size="24" font-weight="700">Composite score history</text>
<text x="70" y="52" fill="#93a4c3" font-family="Inter, Arial, sans-serif" font-size="13">Trailing 81 sessions through 2026-02-27</text>
<line x1="70" x2="935" y1="375.00" y2="375.00" stroke="#27314e" stroke-width="1"/>
<text x="58" y="379.00" text-anchor="end" fill="#93a4c3" font-family="Inter, Arial, sans-serif" font-size="12">0</text>
<line x1="70" x2="935" y1="312.00" y2="312.00" stroke="#27314e" stroke-width="1"/>
<text x="58" y="316.00" text-anchor="end" fill="#93a4c3" font-family="Inter, Arial, sans-serif" font-size="12">8</text>
<line x1="70" x2="935" y1="249.00" y2="249.00" stroke="#27314e" stroke-width="1"/>
<text x="58" y="253.00" text-anchor="end" fill="#93a4c3" font-family="Inter, Arial, sans-serif" font-size="12">17</text>
<line x1="70" x2="935" y1="186.00" y2="186.00" stroke="#27314e" stroke-width="1"/>
<text x="58" y="190.00" text-anchor="end" fill="#93a4c3" font-family="Inter, Arial, sans-serif" font-size="12">25</text>
<line x1="70" x2="935" y1="123.00" y2="123.00" stroke="#27314e" stroke-width="1"/>
<text x="58" y="127.00" text-anchor="end" fill="#93a4c3" font-family="Inter, Arial, sans-serif" font-size="12">33</text>
<line x1="70" x2="935" y1="60.00" y2="60.00" stroke="#27314e" stroke-width="1"/>
<text x="58" y="64.00" text-anchor="end" fill="#93a4c3" font-family="Inter, Arial, sans-serif" font-size="12">41</text>
<text x="70.00" y="412" text-anchor="middle" fill="#93a4c3" font-family="Inter, Arial, sans-serif" font-size="12">2025-10-30</text>
<text x="502.50" y="412" text-anchor="middle" fill="#93a4c3" font-family="Inter, Arial, sans-serif" font-size="12">2025-12-30</text>
<text x="935.00" y="412" text-anchor="middle" fill="#93a4c3" font-family="Inter, Arial, sans-serif" font-size="12">2026-02-27</text>
<path d="M 70.00 272.06 L 80.81 260.77 L 91.62 262.60 L 102.44 218.15 L 113.25 231.11 L 124.06 184.67 L 134.88 190.93 L 145.69 255.59 L 156.50 294.63 L 167.31 209.53 L 178.12 237.06 L 188.94 167.36 L 199.75 60.00 L 210.56 70.45 L 221.38 66.18 L 232.19 146.17 L 243.00 277.24 L 253.81 326.96 L 264.62 337.79 L 275.44 375.00 L 286.25 333.06 L 297.06 308.20 L 307.88 290.89 L 318.69 264.74 L 329.50 247.28 L 340.31 278.92 L 351.12 241.33 L 361.94 272.67 L 372.75 307.67 L 383.56 264.05 L 394.38 273.13 L 405.19 273.58 L 416.00 183.07 L 426.81 209.46 L 437.62 304.77 L 448.44 329.32 L 459.25 342.21 L 470.06 374.85 L 480.88 360.82 L 491.69 332.91 L 502.50 310.11 L 513.31 254.37 L 524.12 241.41 L 534.94 250.25 L 545.75 274.96 L 556.56 271.37 L 567.38 287.00 L 578.19 289.90 L 589.00 256.43 L 599.81 234.08 L 610.62 237.06 L 621.44 246.21 L 632.25 211.90 L 643.06 84.17 L 653.88 172.78 L 664.69 214.11 L 675.50 200.15 L 686.31 248.88 L 697.12 293.33 L 707.94 261.99 L 718.75 228.59 L 729.56 226.46 L 740.38 237.44 L 751.19 170.49 L 762.00 173.85 L 772.81 111.24 L 783.62 253.00 L 794.44 248.65 L 805.25 271.37 L 816.06 276.02 L 826.88 258.10 L 837.69 183.61 L 848.50 172.93 L 859.31 205.34 L 870.12 191.99 L 880.94 278.62 L 891.75 243.46 L 902.56 272.82 L 913.38 287.61 L 924.19 279.07 L 935.00 241.94" fill="none" stroke="#69a7ff" stroke-width="4" stroke-linecap="round" stroke-linejoin="round"/>
<circle cx="935.00" cy="241.94" r="6" fill="#69a7ff"/>
</svg>