<svg xmlns="http://www.w3.org/2000/svg" width="960" height="430" viewBox="0 0 960 430" role="img" aria-label="Composite score history">
<rect width="100%" height="100%" fill="#0b1020" rx="20"/>
<text x="70" y="32" fill="#f5f7fb" font-family="Inter, Arial, sans-serif" font-size="24" font-weight="700">Composite score history</text>
<text x="70" y="52" fill="#93a4c3" font-family="Inter, Arial, sans-serif" font-size="13">Trailing 88 sessions through 2026-02-27</text>
<line x1="70" x2="935" y1="375.00" y2="375.00" stroke="#27314e" stroke-width="1"/>
<text x="58" y="379.00" text-anchor="end" fill="#93a4c3" font-family="Inter, Arial, sans-serif" font-size="12">0</text>
<line x1="70" x2="935" y1="312.00" y2="312.00" stroke="#27314e" stroke-width="1"/>
<text x="58" y="316.00" text-anchor="end" fill="#93a4c3" font-family="Inter, Arial, sans-serif" font-size="12">8</text>
<line x1="70" x2="935" y1="249.00" y2="249.00" stroke="#27314e" stroke-width="1"/>
<text x="58" y="253.00" text-anchor="end" fill="#93a4c3" font-family="Inter, Arial, sans-serif" font-size="12">17</text>
<line x1="70" x2="935" y1="186.00" y2="186.00" stroke="#27314e" stroke-width="1"/>
<text x="58" y="190.00" text-anchor="end" fill="#93a4c3" font-family="Inter, Arial, sans-serif" font-size="12">25</text>
<line x1="70" x2="935" y1="123.00" y2="123.00" stroke="#27314e" stroke-width="1"/>
<text x="58" y="127.00" text-anchor="end" fill="#93a4c3" font-family="Inter, Arial, sans-serif" font-size="12">33</text>
<line x1="70" x2="935" y1="60.00" y2="60.00" stroke="#27314e" stroke-width="1"/>
<text x="58" y="64.00" text-anchor="end" fill="#93a4c3" font-family="Inter, Arial, sans-serif" font-size="12">41</text>
<text x="70.00" y="412" text-anchor="middle" fill="#93a4c3" font-family="Inter, Arial, sans-serif" font-size="12">2025-10-21</text>
<text x="507.47" y="412" text-anchor="middle" fill="#93a4c3" font-family="Inter, Arial, sans-serif" font-size="12">2025-12-24</text>
<text x="935.00" y="412" text-anchor="middle" fill="#93a4c3" font-family="Inter, Arial, sans-serif" font-size="12">2026-02-27</text>
<path d="M 70.00 283.73 L 79.94 244.07 L 89.89 217.77 L 99.83 248.19 L 109.77 290.05 L 119.71 299.36 L 129.66 266.80 L 139.60 256.12 L 149.54 236.53 L 159.48 192.98 L 169.43 135.80 L 179.37 183.68 L 189.31 184.67 L 199.25 190.93 L 209.20 255.59 L 219.14 294.63 L 229.08 209.53 L 239.02 237.06 L 248.97 167.36 L 258.91 60.00 L 268.85 70.45 L 278.79 66.18 L 288.74 146.17 L 298.68 277.24 L 308.62 326.96 L 318.56 337.79 L 328.51 375.00 L 338.45 333.06 L 348.39 308.20 L 358.33 290.89 L 368.28 264.74 L 378.22 247.28 L 388.16 278.92 L 398.10 241.33 L 408.05 272.67 L 417.99 307.67 L 427.93 264.05 L 437.87 273.13 L 447.82 273.58 L 457.76 183.07 L 467.70 209.46 L 477.64 304.77 L 487.59 329.32 L 497.53 342.21 L 507.47 374.85 L 517.41 360.82 L 527.36 332.91 L 537.30 310.11 L 547.24 254.37 L 557.18 241.41 L 567.13 250.25 L 577.07 274.96 L 587.01 271.37 L 596.95 287.00 L 606.90 289.90 L 616.84 256.43 L 626.78 234.08 L 636.72 237.06 L 646.67 246.21 L 656.61 211.90 L 666.55 84.17 L 676.49 172.78 L 686.44 214.11 L 696.38 200.15 L 706.32 248.88 L 716.26 293.33 L 726.21 261.99 L 736.15 228.59 L 746.09 226.46 L 756.03 237.44 L 765.98 170.49 L 775.92 173.85 L 785.86 111.24 L 795.80 253.00 L 805.75 248.65 L 815.69 271.37 L 825.63 276.02 L 835.57 258.10 L 845.52 183.61 L 855.46 172.93 L 865.40 205.34 L 875.34 191.99 L 885.29 278.62 L 895.23 243.46 L 905.17 272.82 L 915.11 287.61 L 925.06 279.07 L 935.00 241.94" fill="none" stroke="#69a7ff" stroke-width="4" stroke-linecap="round" stroke-linejoin="round"/>
<circle cx="935.00" cy="241.94" r="6" fill="#69a7ff"/>
</svg>