<svg xmlns="http://www.w3.org/2000/svg" width="960" height="430" viewBox="0 0 960 430" role="img" aria-label="Composite score history">
<rect width="100%" height="100%" fill="#0b1020" rx="20"/>
<text x="70" y="32" fill="#f5f7fb" font-family="Inter, Arial, sans-serif" font-size="24" font-weight="700">Composite score history</text>
<text x="70" y="52" fill="#93a4c3" font-family="Inter, Arial, sans-serif" font-size="13">Trailing 85 sessions through 2026-02-27</text>
<line x1="70" x2="935" y1="375.00" y2="375.00" stroke="#27314e" stroke-width="1"/>
<text x="58" y="379.00" text-anchor="end" fill="#93a4c3" font-family="Inter, Arial, sans-serif" font-size="12">0</text>
<line x1="70" x2="935" y1="312.00" y2="312.00" stroke="#27314e" stroke-width="1"/>
<text x="58" y="316.00" text-anchor="end" fill="#93a4c3" font-family="Inter, Arial, sans-serif" font-size="12">8</text>
<line x1="70" x2="935" y1="249.00" y2="249.00" stroke="#27314e" stroke-width="1"/>
<text x="58" y="253.00" text-anchor="end" fill="#93a4c3" font-family="Inter, Arial, sans-serif" font-size="12">17</text>
<line x1="70" x2="935" y1="186.00" y2="186.00" stroke="#27314e" stroke-width="1"/>
<text x="58" y="190.00" text-anchor="end" fill="#93a4c3" font-family="Inter, Arial, sans-serif" font-size="12">25</text>
<line x1="70" x2="935" y1="123.00" y2="123.00" stroke="#27314e" stroke-width="1"/>
<text x="58" y="127.00" text-anchor="end" fill="#93a4c3" font-family="Inter, Arial, sans-serif" font-size="12">33</text>
<line x1="70" x2="935" y1="60.00" y2="60.00" stroke="#27314e" stroke-width="1"/>
<text x="58" y="64.00" text-anchor="end" fill="#93a4c3" font-family="Inter, Arial, sans-serif" font-size="12">41</text>
<text x="70.00" y="412" text-anchor="middle" fill="#93a4c3" font-family="Inter, Arial, sans-serif" font-size="12">2025-10-24</text>
<text x="502.50" y="412" text-anchor="middle" fill="#93a4c3" font-family="Inter, Arial, sans-serif" font-size="12">2025-12-26</text>
<text x="935.00" y="412" text-anchor="middle" fill="#93a4c3" font-family="Inter, Arial, sans-serif" font-size="12">2026-02-27</text>
<path d="M 70.00 279.53 L 80.30 309.73 L 90.60 311.79 L 100.89 264.43 L 111.19 237.14 L 121.49 236.53 L 131.79 192.98 L 142.08 135.80 L 152.38 183.68 L 162.68 184.67 L 172.98 190.93 L 183.27 255.59 L 193.57 294.63 L 203.87 209.53 L 214.17 237.06 L 224.46 167.36 L 234.76 60.00 L 245.06 70.45 L 255.36 66.18 L 265.65 146.17 L 275.95 277.24 L 286.25 326.96 L 296.55 337.79 L 306.85 375.00 L 317.14 333.06 L 327.44 308.20 L 337.74 290.89 L 348.04 264.74 L 358.33 247.28 L 368.63 278.92 L 378.93 241.33 L 389.23 272.67 L 399.52 307.67 L 409.82 264.05 L 420.12 273.13 L 430.42 273.58 L 440.71 183.07 L 451.01 209.46 L 461.31 304.77 L 471.61 329.32 L 481.90 342.21 L 492.20 374.85 L 502.50 360.82 L 512.80 332.91 L 523.10 310.11 L 533.39 254.37 L 543.69 241.41 L 553.99 250.25 L 564.29 274.96 L 574.58 271.37 L 584.88 287.00 L 595.18 289.90 L 605.48 256.43 L 615.77 234.08 L 626.07 237.06 L 636.37 246.21 L 646.67 211.90 L 656.96 84.17 L 667.26 172.78 L 677.56 214.11 L 687.86 200.15 L 698.15 248.88 L 708.45 293.33 L 718.75 261.99 L 729.05 228.59 L 739.35 226.46 L 749.64 237.44 L 759.94 170.49 L 770.24 173.85 L 780.54 111.24 L 790.83 253.00 L 801.13 248.65 L 811.43 271.37 L 821.73 276.02 L 832.02 258.10 L 842.32 183.61 L 852.62 172.93 L 862.92 205.34 L 873.21 191.99 L 883.51 278.62 L 893.81 243.46 L 904.11 272.82 L 914.40 287.61 L 924.70 279.07 L 935.00 241.94" fill="none" stroke="#69a7ff" stroke-width="4" stroke-linecap="round" stroke-linejoin="round"/>
<circle cx="935.00" cy="241.94" r="6" fill="#69a7ff"/>
</svg>