<svg xmlns="http://www.w3.org/2000/svg" width="960" height="430" viewBox="0 0 960 430" role="img" aria-label="Composite score history">
<rect width="100%" height="100%" fill="#0b1020" rx="20"/>
<text x="70" y="32" fill="#f5f7fb" font-family="Inter, Arial, sans-serif" font-size="24" font-weight="700">Composite score history</text>
<text x="70" y="52" fill="#93a4c3" font-family="Inter, Arial, sans-serif" font-size="13">Trailing 87 sessions through 2026-02-27</text>
<line x1="70" x2="935" y1="375.00" y2="375.00" stroke="#27314e" stroke-width="1"/>
<text x="58" y="379.00" text-anchor="end" fill="#93a4c3" font-family="Inter, Arial, sans-serif" font-size="12">0</text>
<line x1="70" x2="935" y1="312.00" y2="312.00" stroke="#27314e" stroke-width="1"/>
<text x="58" y="316.00" text-anchor="end" fill="#93a4c3" font-family="Inter, Arial, sans-serif" font-size="12">8</text>
<line x1="70" x2="935" y1="249.00" y2="249.00" stroke="#27314e" stroke-width="1"/>
<text x="58" y="253.00" text-anchor="end" fill="#93a4c3" font-family="Inter, Arial, sans-serif" font-size="12">17</text>
<line x1="70" x2="935" y1="186.00" y2="186.00" stroke="#27314e" stroke-width="1"/>
<text x="58" y="190.00" text-anchor="end" fill="#93a4c3" font-family="Inter, Arial, sans-serif" font-size="12">25</text>
<line x1="70" x2="935" y1="123.00" y2="123.00" stroke="#27314e" stroke-width="1"/>
<text x="58" y="127.00" text-anchor="end" fill="#93a4c3" font-family="Inter, Arial, sans-serif" font-size="12">33</text>
<line x1="70" x2="935" y1="60.00" y2="60.00" stroke="#27314e" stroke-width="1"/>
<text x="58" y="64.00" text-anchor="end" fill="#93a4c3" font-family="Inter, Arial, sans-serif" font-size="12">41</text>
<text x="70.00" y="412" text-anchor="middle" fill="#93a4c3" font-family="Inter, Arial, sans-serif" font-size="12">2025-10-22</text>
<text x="502.50" y="412" text-anchor="middle" fill="#93a4c3" font-family="Inter, Arial, sans-serif" font-size="12">2025-12-24</text>
<text x="935.00" y="412" text-anchor="middle" fill="#93a4c3" font-family="Inter, Arial, sans-serif" font-size="12">2026-02-27</text>
<path d="M 70.00 277.24 L 80.06 235.61 L 90.12 266.11 L 100.17 308.13 L 110.23 317.43 L 120.29 266.80 L 130.35 256.12 L 140.41 236.53 L 150.47 192.98 L 160.52 135.80 L 170.58 183.68 L 180.64 184.67 L 190.70 190.93 L 200.76 255.59 L 210.81 294.63 L 220.87 209.53 L 230.93 237.06 L 240.99 167.36 L 251.05 60.00 L 261.10 70.45 L 271.16 66.18 L 281.22 146.17 L 291.28 277.24 L 301.34 326.96 L 311.40 337.79 L 321.45 375.00 L 331.51 333.06 L 341.57 308.20 L 351.63 290.89 L 361.69 264.74 L 371.74 247.28 L 381.80 278.92 L 391.86 241.33 L 401.92 272.67 L 411.98 307.67 L 422.03 264.05 L 432.09 273.13 L 442.15 273.58 L 452.21 183.07 L 462.27 209.46 L 472.33 304.77 L 482.38 329.32 L 492.44 342.21 L 502.50 374.85 L 512.56 360.82 L 522.62 332.91 L 532.67 310.11 L 542.73 254.37 L 552.79 241.41 L 562.85 250.25 L 572.91 274.96 L 582.97 271.37 L 593.02 287.00 L 603.08 289.90 L 613.14 256.43 L 623.20 234.08 L 633.26 237.06 L 643.31 246.21 L 653.37 211.90 L 663.43 84.17 L 673.49 172.78 L 683.55 214.11 L 693.60 200.15 L 703.66 248.88 L 713.72 293.33 L 723.78 261.99 L 733.84 228.59 L 743.90 226.46 L 753.95 237.44 L 764.01 170.49 L 774.07 173.85 L 784.13 111.24 L 794.19 253.00 L 804.24 248.65 L 814.30 271.37 L 824.36 276.02 L 834.42 258.10 L 844.48 183.61 L 854.53 172.93 L 864.59 205.34 L 874.65 191.99 L 884.71 278.62 L 894.77 243.46 L 904.83 272.82 L 914.88 287.61 L 924.94 279.07 L 935.00 241.94" fill="none" stroke="#69a7ff" stroke-width="4" stroke-linecap="round" stroke-linejoin="round"/>
<circle cx="935.00" cy="241.94" r="6" fill="#69a7ff"/>
</svg>