<svg xmlns="http://www.w3.org/2000/svg" width="960" height="430" viewBox="0 0 960 430" role="img" aria-label="Composite score history">
<rect width="100%" height="100%" fill="#0b1020" rx="20"/>
<text x="70" y="32" fill="#f5f7fb" font-family="Inter, Arial, sans-serif" font-size="24" font-weight="700">Composite score history</text>
<text x="70" y="52" fill="#93a4c3" font-family="Inter, Arial, sans-serif" font-size="13">Trailing 63 sessions through 2025-12-18</text>
<line x1="70" x2="935" y1="375.00" y2="375.00" stroke="#27314e" stroke-width="1"/>
<text x="58" y="379.00" text-anchor="end" fill="#93a4c3" font-family="Inter, Arial, sans-serif" font-size="12">0</text>
<line x1="70" x2="935" y1="312.00" y2="312.00" stroke="#27314e" stroke-width="1"/>
<text x="58" y="316.00" text-anchor="end" fill="#93a4c3" font-family="Inter, Arial, sans-serif" font-size="12">8</text>
<line x1="70" x2="935" y1="249.00" y2="249.00" stroke="#27314e" stroke-width="1"/>
<text x="58" y="253.00" text-anchor="end" fill="#93a4c3" font-family="Inter, Arial, sans-serif" font-size="12">17</text>
<line x1="70" x2="935" y1="186.00" y2="186.00" stroke="#27314e" stroke-width="1"/>
<text x="58" y="190.00" text-anchor="end" fill="#93a4c3" font-family="Inter, Arial, sans-serif" font-size="12">25</text>
<line x1="70" x2="935" y1="123.00" y2="123.00" stroke="#27314e" stroke-width="1"/>
<text x="58" y="127.00" text-anchor="end" fill="#93a4c3" font-family="Inter, Arial, sans-serif" font-size="12">33</text>
<line x1="70" x2="935" y1="60.00" y2="60.00" stroke="#27314e" stroke-width="1"/>
<text x="58" y="64.00" text-anchor="end" fill="#93a4c3" font-family="Inter, Arial, sans-serif" font-size="12">41</text>
<text x="70.00" y="412" text-anchor="middle" fill="#93a4c3" font-family="Inter, Arial, sans-serif" font-size="12">2025-09-18</text>
<text x="502.50" y="412" text-anchor="middle" fill="#93a4c3" font-family="Inter, Arial, sans-serif" font-size="12">2025-11-03</text>
<text x="935.00" y="412" text-anchor="middle" fill="#93a4c3" font-family="Inter, Arial, sans-serif" font-size="12">2025-12-18</text>
<path d="M 70.00 274.27 L 83.95 286.17 L 97.90 274.88 L 111.85 273.58 L 125.81 272.06 L 139.76 222.49 L 153.71 245.75 L 167.66 247.43 L 181.61 259.32 L 195.56 297.76 L 209.52 309.80 L 223.47 286.01 L 237.42 296.54 L 251.37 271.60 L 265.32 278.85 L 279.27 256.96 L 293.23 123.98 L 307.18 175.75 L 321.13 212.66 L 335.08 109.03 L 349.03 196.19 L 362.98 336.57 L 376.94 309.88 L 390.89 285.33 L 404.84 232.33 L 418.79 267.94 L 432.74 285.48 L 446.69 299.36 L 460.65 266.80 L 474.60 256.12 L 488.55 236.53 L 502.50 192.98 L 516.45 135.80 L 530.40 183.68 L 544.35 184.67 L 558.31 190.93 L 572.26 255.59 L 586.21 294.63 L 600.16 209.53 L 614.11 237.06 L 628.06 167.36 L 642.02 60.00 L 655.97 70.45 L 669.92 66.18 L 683.87 146.17 L 697.82 277.24 L 711.77 326.96 L 725.73 337.79 L 739.68 375.00 L 753.63 333.06 L 767.58 308.20 L 781.53 290.89 L 795.48 264.74 L 809.44 247.28 L 823.39 278.92 L 837.34 241.33 L 851.29 272.67 L 865.24 307.67 L 879.19 264.05 L 893.15 273.13 L 907.10 273.58 L 921.05 183.07 L 935.00 209.46" fill="none" stroke="#69a7ff" stroke-width="4" stroke-linecap="round" stroke-linejoin="round"/>
<circle cx="935.00" cy="209.46" r="6" fill="#69a7ff"/>
</svg>