<svg xmlns="http://www.w3.org/2000/svg" width="960" height="430" viewBox="0 0 960 430" role="img" aria-label="Composite score history">
<rect width="100%" height="100%" fill="#0b1020" rx="20"/>
<text x="70" y="32" fill="#f5f7fb" font-family="Inter, Arial, sans-serif" font-size="24" font-weight="700">Composite score history</text>
<text x="70" y="52" fill="#93a4c3" font-family="Inter, Arial, sans-serif" font-size="13">Trailing 55 sessions through 2025-12-18</text>
<line x1="70" x2="935" y1="375.00" y2="375.00" stroke="#27314e" stroke-width="1"/>
<text x="58" y="379.00" text-anchor="end" fill="#93a4c3" font-family="Inter, Arial, sans-serif" font-size="12">0</text>
<line x1="70" x2="935" y1="312.00" y2="312.00" stroke="#27314e" stroke-width="1"/>
<text x="58" y="316.00" text-anchor="end" fill="#93a4c3" font-family="Inter, Arial, sans-serif" font-size="12">8</text>
<line x1="70" x2="935" y1="249.00" y2="249.00" stroke="#27314e" stroke-width="1"/>
<text x="58" y="253.00" text-anchor="end" fill="#93a4c3" font-family="Inter, Arial, sans-serif" font-size="12">17</text>
<line x1="70" x2="935" y1="186.00" y2="186.00" stroke="#27314e" stroke-width="1"/>
<text x="58" y="190.00" text-anchor="end" fill="#93a4c3" font-family="Inter, Arial, sans-serif" font-size="12">25</text>
<line x1="70" x2="935" y1="123.00" y2="123.00" stroke="#27314e" stroke-width="1"/>
<text x="58" y="127.00" text-anchor="end" fill="#93a4c3" font-family="Inter, Arial, sans-serif" font-size="12">33</text>
<line x1="70" x2="935" y1="60.00" y2="60.00" stroke="#27314e" stroke-width="1"/>
<text x="58" y="64.00" text-anchor="end" fill="#93a4c3" font-family="Inter, Arial, sans-serif" font-size="12">41</text>
<text x="70.00" y="412" text-anchor="middle" fill="#93a4c3" font-family="Inter, Arial, sans-serif" font-size="12">2025-09-30</text>
<text x="502.50" y="412" text-anchor="middle" fill="#93a4c3" font-family="Inter, Arial, sans-serif" font-size="12">2025-11-07</text>
<text x="935.00" y="412" text-anchor="middle" fill="#93a4c3" font-family="Inter, Arial, sans-serif" font-size="12">2025-12-18</text>
<path d="M 70.00 271.60 L 86.02 283.95 L 102.04 283.04 L 118.06 280.22 L 134.07 289.83 L 150.09 271.60 L 166.11 278.85 L 182.13 256.96 L 198.15 123.98 L 214.17 175.75 L 230.19 212.66 L 246.20 109.03 L 262.22 196.19 L 278.24 336.57 L 294.26 309.88 L 310.28 285.33 L 326.30 232.33 L 342.31 267.94 L 358.33 285.48 L 374.35 299.36 L 390.37 266.80 L 406.39 256.12 L 422.41 236.53 L 438.43 192.98 L 454.44 135.80 L 470.46 183.68 L 486.48 184.67 L 502.50 190.93 L 518.52 255.59 L 534.54 294.63 L 550.56 209.53 L 566.57 237.06 L 582.59 167.36 L 598.61 60.00 L 614.63 70.45 L 630.65 66.18 L 646.67 146.17 L 662.69 277.24 L 678.70 326.96 L 694.72 337.79 L 710.74 375.00 L 726.76 333.06 L 742.78 308.20 L 758.80 290.89 L 774.81 264.74 L 790.83 247.28 L 806.85 278.92 L 822.87 241.33 L 838.89 272.67 L 854.91 307.67 L 870.93 264.05 L 886.94 273.13 L 902.96 273.58 L 918.98 183.07 L 935.00 209.46" fill="none" stroke="#69a7ff" stroke-width="4" stroke-linecap="round" stroke-linejoin="round"/>
<circle cx="935.00" cy="209.46" r="6" fill="#69a7ff"/>
</svg>