<svg xmlns="http://www.w3.org/2000/svg" width="960" height="430" viewBox="0 0 960 430" role="img" aria-label="Composite score history">
<rect width="100%" height="100%" fill="#0b1020" rx="20"/>
<text x="70" y="32" fill="#f5f7fb" font-family="Inter, Arial, sans-serif" font-size="24" font-weight="700">Composite score history</text>
<text x="70" y="52" fill="#93a4c3" font-family="Inter, Arial, sans-serif" font-size="13">Trailing 69 sessions through 2025-12-18</text>
<line x1="70" x2="935" y1="375.00" y2="375.00" stroke="#27314e" stroke-width="1"/>
<text x="58" y="379.00" text-anchor="end" fill="#93a4c3" font-family="Inter, Arial, sans-serif" font-size="12">0</text>
<line x1="70" x2="935" y1="312.00" y2="312.00" stroke="#27314e" stroke-width="1"/>
<text x="58" y="316.00" text-anchor="end" fill="#93a4c3" font-family="Inter, Arial, sans-serif" font-size="12">8</text>
<line x1="70" x2="935" y1="249.00" y2="249.00" stroke="#27314e" stroke-width="1"/>
<text x="58" y="253.00" text-anchor="end" fill="#93a4c3" font-family="Inter, Arial, sans-serif" font-size="12">17</text>
<line x1="70" x2="935" y1="186.00" y2="186.00" stroke="#27314e" stroke-width="1"/>
<text x="58" y="190.00" text-anchor="end" fill="#93a4c3" font-family="Inter, Arial, sans-serif" font-size="12">25</text>
<line x1="70" x2="935" y1="123.00" y2="123.00" stroke="#27314e" stroke-width="1"/>
<text x="58" y="127.00" text-anchor="end" fill="#93a4c3" font-family="Inter, Arial, sans-serif" font-size="12">33</text>
<line x1="70" x2="935" y1="60.00" y2="60.00" stroke="#27314e" stroke-width="1"/>
<text x="58" y="64.00" text-anchor="end" fill="#93a4c3" font-family="Inter, Arial, sans-serif" font-size="12">41</text>
<text x="70.00" y="412" text-anchor="middle" fill="#93a4c3" font-family="Inter, Arial, sans-serif" font-size="12">2025-09-10</text>
<text x="502.50" y="412" text-anchor="middle" fill="#93a4c3" font-family="Inter, Arial, sans-serif" font-size="12">2025-10-29</text>
<text x="935.00" y="412" text-anchor="middle" fill="#93a4c3" font-family="Inter, Arial, sans-serif" font-size="12">2025-12-18</text>
<path d="M 70.00 281.21 L 82.72 302.10 L 95.44 287.84 L 108.16 301.11 L 120.88 286.47 L 133.60 287.46 L 146.32 253.38 L 159.04 288.22 L 171.76 266.64 L 184.49 279.46 L 197.21 266.03 L 209.93 222.49 L 222.65 245.75 L 235.37 247.43 L 248.09 259.32 L 260.81 297.76 L 273.53 309.80 L 286.25 286.01 L 298.97 296.54 L 311.69 271.60 L 324.41 278.85 L 337.13 256.96 L 349.85 123.98 L 362.57 175.75 L 375.29 212.66 L 388.01 109.03 L 400.74 196.19 L 413.46 336.57 L 426.18 309.88 L 438.90 285.33 L 451.62 232.33 L 464.34 267.94 L 477.06 285.48 L 489.78 299.36 L 502.50 266.80 L 515.22 256.12 L 527.94 236.53 L 540.66 192.98 L 553.38 135.80 L 566.10 183.68 L 578.82 184.67 L 591.54 190.93 L 604.26 255.59 L 616.99 294.63 L 629.71 209.53 L 642.43 237.06 L 655.15 167.36 L 667.87 60.00 L 680.59 70.45 L 693.31 66.18 L 706.03 146.17 L 718.75 277.24 L 731.47 326.96 L 744.19 337.79 L 756.91 375.00 L 769.63 333.06 L 782.35 308.20 L 795.07 290.89 L 807.79 264.74 L 820.51 247.28 L 833.24 278.92 L 845.96 241.33 L 858.68 272.67 L 871.40 307.67 L 884.12 264.05 L 896.84 273.13 L 909.56 273.58 L 922.28 183.07 L 935.00 209.46" fill="none" stroke="#69a7ff" stroke-width="4" stroke-linecap="round" stroke-linejoin="round"/>
<circle cx="935.00" cy="209.46" r="6" fill="#69a7ff"/>
</svg>