<svg xmlns="http://www.w3.org/2000/svg" width="960" height="430" viewBox="0 0 960 430" role="img" aria-label="Composite score history">
<rect width="100%" height="100%" fill="#0b1020" rx="20"/>
<text x="70" y="32" fill="#f5f7fb" font-family="Inter, Arial, sans-serif" font-size="24" font-weight="700">Composite score history</text>
<text x="70" y="52" fill="#93a4c3" font-family="Inter, Arial, sans-serif" font-size="13">Trailing 88 sessions through 2025-12-16</text>
<line x1="70" x2="935" y1="375.00" y2="375.00" stroke="#27314e" stroke-width="1"/>
<text x="58" y="379.00" text-anchor="end" fill="#93a4c3" font-family="Inter, Arial, sans-serif" font-size="12">0</text>
<line x1="70" x2="935" y1="312.00" y2="312.00" stroke="#27314e" stroke-width="1"/>
<text x="58" y="316.00" text-anchor="end" fill="#93a4c3" font-family="Inter, Arial, sans-serif" font-size="12">8</text>
<line x1="70" x2="935" y1="249.00" y2="249.00" stroke="#27314e" stroke-width="1"/>
<text x="58" y="253.00" text-anchor="end" fill="#93a4c3" font-family="Inter, Arial, sans-serif" font-size="12">17</text>
<line x1="70" x2="935" y1="186.00" y2="186.00" stroke="#27314e" stroke-width="1"/>
<text x="58" y="190.00" text-anchor="end" fill="#93a4c3" font-family="Inter, Arial, sans-serif" font-size="12">25</text>
<line x1="70" x2="935" y1="123.00" y2="123.00" stroke="#27314e" stroke-width="1"/>
<text x="58" y="127.00" text-anchor="end" fill="#93a4c3" font-family="Inter, Arial, sans-serif" font-size="12">33</text>
<line x1="70" x2="935" y1="60.00" y2="60.00" stroke="#27314e" stroke-width="1"/>
<text x="58" y="64.00" text-anchor="end" fill="#93a4c3" font-family="Inter, Arial, sans-serif" font-size="12">41</text>
<text x="70.00" y="412" text-anchor="middle" fill="#93a4c3" font-family="Inter, Arial, sans-serif" font-size="12">2025-08-11</text>
<text x="507.47" y="412" text-anchor="middle" fill="#93a4c3" font-family="Inter, Arial, sans-serif" font-size="12">2025-10-14</text>
<text x="935.00" y="412" text-anchor="middle" fill="#93a4c3" font-family="Inter, Arial, sans-serif" font-size="12">2025-12-16</text>
<path d="M 70.00 259.10 L 79.94 295.01 L 89.89 306.30 L 99.83 300.27 L 109.77 293.79 L 119.71 290.05 L 129.66 236.07 L 139.60 198.55 L 149.54 168.13 L 159.48 254.83 L 169.43 233.17 L 179.37 245.90 L 189.31 258.71 L 199.25 293.71 L 209.20 259.71 L 219.14 225.47 L 229.08 243.31 L 239.02 278.39 L 248.97 265.27 L 258.91 295.39 L 268.85 309.58 L 278.79 305.99 L 288.74 310.95 L 298.68 297.45 L 308.62 295.09 L 318.56 293.87 L 328.51 287.46 L 338.45 253.38 L 348.39 288.22 L 358.33 266.64 L 368.28 279.46 L 378.22 266.03 L 388.16 222.49 L 398.10 245.75 L 408.05 247.43 L 417.99 259.32 L 427.93 297.76 L 437.87 309.80 L 447.82 286.01 L 457.76 296.54 L 467.70 271.60 L 477.64 278.85 L 487.59 256.96 L 497.53 123.98 L 507.47 175.75 L 517.41 212.66 L 527.36 109.03 L 537.30 196.19 L 547.24 336.57 L 557.18 309.88 L 567.13 285.33 L 577.07 232.33 L 587.01 267.94 L 596.95 285.48 L 606.90 299.36 L 616.84 266.80 L 626.78 256.12 L 636.72 236.53 L 646.67 192.98 L 656.61 135.80 L 666.55 183.68 L 676.49 184.67 L 686.44 190.93 L 696.38 255.59 L 706.32 294.63 L 716.26 209.53 L 726.21 237.06 L 736.15 167.36 L 746.09 60.00 L 756.03 70.45 L 765.98 66.18 L 775.92 146.17 L 785.86 277.24 L 795.80 326.96 L 805.75 337.79 L 815.69 375.00 L 825.63 333.06 L 835.57 308.20 L 845.52 290.89 L 855.46 264.74 L 865.40 247.28 L 875.34 278.92 L 885.29 241.33 L 895.23 272.67 L 905.17 307.67 L 915.11 264.05 L 925.06 273.13 L 935.00 273.58" fill="none" stroke="#69a7ff" stroke-width="4" stroke-linecap="round" stroke-linejoin="round"/>
<circle cx="935.00" cy="273.58" r="6" fill="#69a7ff"/>
</svg>