<svg xmlns="http://www.w3.org/2000/svg" width="960" height="430" viewBox="0 0 960 430" role="img" aria-label="Composite score history">
<rect width="100%" height="100%" fill="#0b1020" rx="20"/>
<text x="70" y="32" fill="#f5f7fb" font-family="Inter, Arial, sans-serif" font-size="24" font-weight="700">Composite score history</text>
<text x="70" y="52" fill="#93a4c3" font-family="Inter, Arial, sans-serif" font-size="13">Trailing 52 sessions through 2025-12-16</text>
<line x1="70" x2="935" y1="375.00" y2="375.00" stroke="#27314e" stroke-width="1"/>
<text x="58" y="379.00" text-anchor="end" fill="#93a4c3" font-family="Inter, Arial, sans-serif" font-size="12">0</text>
<line x1="70" x2="935" y1="312.00" y2="312.00" stroke="#27314e" stroke-width="1"/>
<text x="58" y="316.00" text-anchor="end" fill="#93a4c3" font-family="Inter, Arial, sans-serif" font-size="12">8</text>
<line x1="70" x2="935" y1="249.00" y2="249.00" stroke="#27314e" stroke-width="1"/>
<text x="58" y="253.00" text-anchor="end" fill="#93a4c3" font-family="Inter, Arial, sans-serif" font-size="12">17</text>
<line x1="70" x2="935" y1="186.00" y2="186.00" stroke="#27314e" stroke-width="1"/>
<text x="58" y="190.00" text-anchor="end" fill="#93a4c3" font-family="Inter, Arial, sans-serif" font-size="12">25</text>
<line x1="70" x2="935" y1="123.00" y2="123.00" stroke="#27314e" stroke-width="1"/>
<text x="58" y="127.00" text-anchor="end" fill="#93a4c3" font-family="Inter, Arial, sans-serif" font-size="12">33</text>
<line x1="70" x2="935" y1="60.00" y2="60.00" stroke="#27314e" stroke-width="1"/>
<text x="58" y="64.00" text-anchor="end" fill="#93a4c3" font-family="Inter, Arial, sans-serif" font-size="12">41</text>
<text x="70.00" y="412" text-anchor="middle" fill="#93a4c3" font-family="Inter, Arial, sans-serif" font-size="12">2025-10-01</text>
<text x="510.98" y="412" text-anchor="middle" fill="#93a4c3" font-family="Inter, Arial, sans-serif" font-size="12">2025-11-07</text>
<text x="935.00" y="412" text-anchor="middle" fill="#93a4c3" font-family="Inter, Arial, sans-serif" font-size="12">2025-12-16</text>
<path d="M 70.00 277.55 L 86.96 276.63 L 103.92 264.66 L 120.88 268.09 L 137.84 259.10 L 154.80 278.85 L 171.76 256.96 L 188.73 123.98 L 205.69 175.75 L 222.65 212.66 L 239.61 109.03 L 256.57 196.19 L 273.53 336.57 L 290.49 309.88 L 307.45 285.33 L 324.41 232.33 L 341.37 267.94 L 358.33 285.48 L 375.29 299.36 L 392.25 266.80 L 409.22 256.12 L 426.18 236.53 L 443.14 192.98 L 460.10 135.80 L 477.06 183.68 L 494.02 184.67 L 510.98 190.93 L 527.94 255.59 L 544.90 294.63 L 561.86 209.53 L 578.82 237.06 L 595.78 167.36 L 612.75 60.00 L 629.71 70.45 L 646.67 66.18 L 663.63 146.17 L 680.59 277.24 L 697.55 326.96 L 714.51 337.79 L 731.47 375.00 L 748.43 333.06 L 765.39 308.20 L 782.35 290.89 L 799.31 264.74 L 816.27 247.28 L 833.24 278.92 L 850.20 241.33 L 867.16 272.67 L 884.12 307.67 L 901.08 264.05 L 918.04 273.13 L 935.00 273.58" fill="none" stroke="#69a7ff" stroke-width="4" stroke-linecap="round" stroke-linejoin="round"/>
<circle cx="935.00" cy="273.58" r="6" fill="#69a7ff"/>
</svg>