<svg xmlns="http://www.w3.org/2000/svg" width="960" height="430" viewBox="0 0 960 430" role="img" aria-label="Composite score history">
<rect width="100%" height="100%" fill="#0b1020" rx="20"/>
<text x="70" y="32" fill="#f5f7fb" font-family="Inter, Arial, sans-serif" font-size="24" font-weight="700">Composite score history</text>
<text x="70" y="52" fill="#93a4c3" font-family="Inter, Arial, sans-serif" font-size="13">Trailing 75 sessions through 2025-12-16</text>
<line x1="70" x2="935" y1="375.00" y2="375.00" stroke="#27314e" stroke-width="1"/>
<text x="58" y="379.00" text-anchor="end" fill="#93a4c3" font-family="Inter, Arial, sans-serif" font-size="12">0</text>
<line x1="70" x2="935" y1="312.00" y2="312.00" stroke="#27314e" stroke-width="1"/>
<text x="58" y="316.00" text-anchor="end" fill="#93a4c3" font-family="Inter, Arial, sans-serif" font-size="12">8</text>
<line x1="70" x2="935" y1="249.00" y2="249.00" stroke="#27314e" stroke-width="1"/>
<text x="58" y="253.00" text-anchor="end" fill="#93a4c3" font-family="Inter, Arial, sans-serif" font-size="12">17</text>
<line x1="70" x2="935" y1="186.00" y2="186.00" stroke="#27314e" stroke-width="1"/>
<text x="58" y="190.00" text-anchor="end" fill="#93a4c3" font-family="Inter, Arial, sans-serif" font-size="12">25</text>
<line x1="70" x2="935" y1="123.00" y2="123.00" stroke="#27314e" stroke-width="1"/>
<text x="58" y="127.00" text-anchor="end" fill="#93a4c3" font-family="Inter, Arial, sans-serif" font-size="12">33</text>
<line x1="70" x2="935" y1="60.00" y2="60.00" stroke="#27314e" stroke-width="1"/>
<text x="58" y="64.00" text-anchor="end" fill="#93a4c3" font-family="Inter, Arial, sans-serif" font-size="12">41</text>
<text x="70.00" y="412" text-anchor="middle" fill="#93a4c3" font-family="Inter, Arial, sans-serif" font-size="12">2025-08-28</text>
<text x="502.50" y="412" text-anchor="middle" fill="#93a4c3" font-family="Inter, Arial, sans-serif" font-size="12">2025-10-22</text>
<text x="935.00" y="412" text-anchor="middle" fill="#93a4c3" font-family="Inter, Arial, sans-serif" font-size="12">2025-12-16</text>
<path d="M 70.00 273.36 L 81.69 240.72 L 93.38 174.15 L 105.07 220.97 L 116.76 269.39 L 128.45 265.27 L 140.14 295.39 L 151.82 309.58 L 163.51 305.99 L 175.20 310.95 L 186.89 297.45 L 198.58 295.09 L 210.27 293.87 L 221.96 287.46 L 233.65 253.38 L 245.34 288.22 L 257.03 266.64 L 268.72 279.46 L 280.41 266.03 L 292.09 222.49 L 303.78 245.75 L 315.47 247.43 L 327.16 259.32 L 338.85 297.76 L 350.54 309.80 L 362.23 286.01 L 373.92 296.54 L 385.61 271.60 L 397.30 278.85 L 408.99 256.96 L 420.68 123.98 L 432.36 175.75 L 444.05 212.66 L 455.74 109.03 L 467.43 196.19 L 479.12 336.57 L 490.81 309.88 L 502.50 285.33 L 514.19 232.33 L 525.88 267.94 L 537.57 285.48 L 549.26 299.36 L 560.95 266.80 L 572.64 256.12 L 584.32 236.53 L 596.01 192.98 L 607.70 135.80 L 619.39 183.68 L 631.08 184.67 L 642.77 190.93 L 654.46 255.59 L 666.15 294.63 L 677.84 209.53 L 689.53 237.06 L 701.22 167.36 L 712.91 60.00 L 724.59 70.45 L 736.28 66.18 L 747.97 146.17 L 759.66 277.24 L 771.35 326.96 L 783.04 337.79 L 794.73 375.00 L 806.42 333.06 L 818.11 308.20 L 829.80 290.89 L 841.49 264.74 L 853.18 247.28 L 864.86 278.92 L 876.55 241.33 L 888.24 272.67 L 899.93 307.67 L 911.62 264.05 L 923.31 273.13 L 935.00 273.58" fill="none" stroke="#69a7ff" stroke-width="4" stroke-linecap="round" stroke-linejoin="round"/>
<circle cx="935.00" cy="273.58" r="6" fill="#69a7ff"/>
</svg>