<svg xmlns="http://www.w3.org/2000/svg" width="960" height="430" viewBox="0 0 960 430" role="img" aria-label="Composite score history">
<rect width="100%" height="100%" fill="#0b1020" rx="20"/>
<text x="70" y="32" fill="#f5f7fb" font-family="Inter, Arial, sans-serif" font-size="24" font-weight="700">Composite score history</text>
<text x="70" y="52" fill="#93a4c3" font-family="Inter, Arial, sans-serif" font-size="13">Trailing 90 sessions through 2026-03-27</text>
<line x1="70" x2="935" y1="375.00" y2="375.00" stroke="#27314e" stroke-width="1"/>
<text x="58" y="379.00" text-anchor="end" fill="#93a4c3" font-family="Inter, Arial, sans-serif" font-size="12">1</text>
<line x1="70" x2="935" y1="312.00" y2="312.00" stroke="#27314e" stroke-width="1"/>
<text x="58" y="316.00" text-anchor="end" fill="#93a4c3" font-family="Inter, Arial, sans-serif" font-size="12">15</text>
<line x1="70" x2="935" y1="249.00" y2="249.00" stroke="#27314e" stroke-width="1"/>
<text x="58" y="253.00" text-anchor="end" fill="#93a4c3" font-family="Inter, Arial, sans-serif" font-size="12">29</text>
<line x1="70" x2="935" y1="186.00" y2="186.00" stroke="#27314e" stroke-width="1"/>
<text x="58" y="190.00" text-anchor="end" fill="#93a4c3" font-family="Inter, Arial, sans-serif" font-size="12">43</text>
<line x1="70" x2="935" y1="123.00" y2="123.00" stroke="#27314e" stroke-width="1"/>
<text x="58" y="127.00" text-anchor="end" fill="#93a4c3" font-family="Inter, Arial, sans-serif" font-size="12">57</text>
<line x1="70" x2="935" y1="60.00" y2="60.00" stroke="#27314e" stroke-width="1"/>
<text x="58" y="64.00" text-anchor="end" fill="#93a4c3" font-family="Inter, Arial, sans-serif" font-size="12">70</text>
<text x="70.00" y="412" text-anchor="middle" fill="#93a4c3" font-family="Inter, Arial, sans-serif" font-size="12">2025-11-17</text>
<text x="507.36" y="412" text-anchor="middle" fill="#93a4c3" font-family="Inter, Arial, sans-serif" font-size="12">2026-01-23</text>
<text x="935.00" y="412" text-anchor="middle" fill="#93a4c3" font-family="Inter, Arial, sans-serif" font-size="12">2026-03-27</text>
<path d="M 70.00 282.70 L 79.72 234.43 L 89.44 235.25 L 99.16 235.84 L 108.88 280.97 L 118.60 350.64 L 128.31 357.41 L 138.03 362.14 L 147.75 365.05 L 157.47 348.32 L 167.19 341.50 L 176.91 327.33 L 186.63 312.46 L 196.35 299.01 L 206.07 344.69 L 215.79 304.78 L 225.51 327.28 L 235.22 370.23 L 244.94 351.55 L 254.66 354.55 L 264.38 351.23 L 274.10 298.24 L 283.82 313.05 L 293.54 370.05 L 303.26 372.91 L 312.98 373.18 L 322.70 375.00 L 332.42 374.55 L 342.13 372.45 L 351.85 366.41 L 361.57 333.32 L 371.29 320.14 L 381.01 315.60 L 390.73 319.37 L 400.45 326.46 L 410.17 328.55 L 419.89 316.96 L 429.61 292.24 L 439.33 294.06 L 449.04 305.56 L 458.76 304.92 L 468.48 289.83 L 478.20 222.20 L 487.92 270.24 L 497.64 283.60 L 507.36 280.42 L 517.08 330.42 L 526.80 325.28 L 536.52 319.60 L 546.24 301.10 L 555.96 315.74 L 565.67 319.96 L 575.39 280.24 L 585.11 306.10 L 594.83 269.83 L 604.55 356.59 L 614.27 353.41 L 623.99 360.05 L 633.71 360.55 L 643.43 349.59 L 653.15 306.74 L 662.87 299.24 L 672.58 317.05 L 682.30 314.60 L 692.02 351.05 L 701.74 333.55 L 711.46 348.28 L 721.18 359.59 L 730.90 357.18 L 740.62 339.55 L 750.34 293.33 L 760.06 228.29 L 769.78 246.02 L 779.49 178.30 L 789.21 60.00 L 798.93 190.12 L 808.65 250.84 L 818.37 180.07 L 828.09 105.04 L 837.81 185.53 L 847.53 242.06 L 857.25 221.20 L 866.97 180.53 L 876.69 302.24 L 886.40 206.39 L 896.12 211.57 L 905.84 154.85 L 915.56 285.38 L 925.28 190.57 L 935.00 247.97" fill="none" stroke="#69a7ff" stroke-width="4" stroke-linecap="round" stroke-linejoin="round"/>
<circle cx="935.00" cy="247.97" r="6" fill="#69a7ff"/>
<text x="927.00" y="235.97" text-anchor="end" fill="#f5f7fb" font-family="Inter, Arial, sans-serif" font-size="12" font-weight="600">29.07</text>
</svg>