<svg xmlns="http://www.w3.org/2000/svg" width="960" height="430" viewBox="0 0 960 430" role="img" aria-label="Composite score history">
<rect width="100%" height="100%" fill="#0b1020" rx="20"/>
<text x="70" y="32" fill="#f5f7fb" font-family="Inter, Arial, sans-serif" font-size="24" font-weight="700">Composite score history</text>
<text x="70" y="52" fill="#93a4c3" font-family="Inter, Arial, sans-serif" font-size="13">Trailing 84 sessions through 2026-03-10</text>
<line x1="70" x2="935" y1="375.00" y2="375.00" stroke="#27314e" stroke-width="1"/>
<text x="58" y="379.00" text-anchor="end" fill="#93a4c3" font-family="Inter, Arial, sans-serif" font-size="12">0</text>
<line x1="70" x2="935" y1="312.00" y2="312.00" stroke="#27314e" stroke-width="1"/>
<text x="58" y="316.00" text-anchor="end" fill="#93a4c3" font-family="Inter, Arial, sans-serif" font-size="12">12</text>
<line x1="70" x2="935" y1="249.00" y2="249.00" stroke="#27314e" stroke-width="1"/>
<text x="58" y="253.00" text-anchor="end" fill="#93a4c3" font-family="Inter, Arial, sans-serif" font-size="12">24</text>
<line x1="70" x2="935" y1="186.00" y2="186.00" stroke="#27314e" stroke-width="1"/>
<text x="58" y="190.00" text-anchor="end" fill="#93a4c3" font-family="Inter, Arial, sans-serif" font-size="12">36</text>
<line x1="70" x2="935" y1="123.00" y2="123.00" stroke="#27314e" stroke-width="1"/>
<text x="58" y="127.00" text-anchor="end" fill="#93a4c3" font-family="Inter, Arial, sans-serif" font-size="12">48</text>
<line x1="70" x2="935" y1="60.00" y2="60.00" stroke="#27314e" stroke-width="1"/>
<text x="58" y="64.00" text-anchor="end" fill="#93a4c3" font-family="Inter, Arial, sans-serif" font-size="12">60</text>
<text x="70.00" y="412" text-anchor="middle" fill="#93a4c3" font-family="Inter, Arial, sans-serif" font-size="12">2025-11-05</text>
<text x="507.71" y="412" text-anchor="middle" fill="#93a4c3" font-family="Inter, Arial, sans-serif" font-size="12">2026-01-08</text>
<text x="935.00" y="412" text-anchor="middle" fill="#93a4c3" font-family="Inter, Arial, sans-serif" font-size="12">2026-03-10</text>
<path d="M 70.00 297.94 L 80.42 258.83 L 90.84 267.36 L 101.27 309.11 L 111.69 314.59 L 122.11 260.62 L 132.53 279.65 L 142.95 231.47 L 153.37 157.25 L 163.80 164.47 L 174.22 161.52 L 184.64 216.81 L 195.06 307.42 L 205.48 341.79 L 215.90 349.28 L 226.33 375.00 L 236.75 346.01 L 247.17 328.83 L 257.59 316.86 L 268.01 298.78 L 278.43 286.71 L 288.86 308.58 L 299.28 282.60 L 309.70 304.26 L 320.12 328.46 L 330.54 298.31 L 340.96 304.58 L 351.39 304.89 L 361.81 242.33 L 372.23 260.56 L 382.65 326.45 L 393.07 343.43 L 403.49 352.33 L 413.92 374.89 L 424.34 365.20 L 434.76 345.90 L 445.18 330.14 L 455.60 291.61 L 466.02 282.65 L 476.45 288.77 L 486.87 305.84 L 497.29 303.37 L 507.71 314.17 L 518.13 316.17 L 528.55 293.03 L 538.98 277.59 L 549.40 279.65 L 559.82 285.97 L 570.24 262.25 L 580.66 173.96 L 591.08 235.21 L 601.51 263.78 L 611.93 254.13 L 622.35 287.82 L 632.77 318.55 L 643.19 296.88 L 653.61 273.80 L 664.04 272.32 L 674.46 279.91 L 684.88 233.63 L 695.30 235.95 L 705.72 192.67 L 716.14 290.66 L 726.57 287.66 L 736.99 303.37 L 747.41 306.58 L 757.83 294.19 L 768.25 242.70 L 778.67 235.32 L 789.10 257.72 L 799.52 248.49 L 809.94 308.37 L 820.36 284.07 L 830.78 304.37 L 841.20 314.59 L 851.63 308.69 L 862.05 283.02 L 872.47 266.36 L 882.89 193.67 L 893.31 208.43 L 903.73 159.68 L 914.16 60.00 L 924.58 158.73 L 935.00 209.80" fill="none" stroke="#69a7ff" stroke-width="4" stroke-linecap="round" stroke-linejoin="round"/>
<circle cx="935.00" cy="209.80" r="6" fill="#69a7ff"/>
</svg>