<svg xmlns="http://www.w3.org/2000/svg" width="960" height="430" viewBox="0 0 960 430" role="img" aria-label="Composite score history">
<rect width="100%" height="100%" fill="#0b1020" rx="20"/>
<text x="70" y="32" fill="#f5f7fb" font-family="Inter, Arial, sans-serif" font-size="24" font-weight="700">Composite score history</text>
<text x="70" y="52" fill="#93a4c3" font-family="Inter, Arial, sans-serif" font-size="13">Trailing 86 sessions through 2026-03-10</text>
<line x1="70" x2="935" y1="375.00" y2="375.00" stroke="#27314e" stroke-width="1"/>
<text x="58" y="379.00" text-anchor="end" fill="#93a4c3" font-family="Inter, Arial, sans-serif" font-size="12">0</text>
<line x1="70" x2="935" y1="312.00" y2="312.00" stroke="#27314e" stroke-width="1"/>
<text x="58" y="316.00" text-anchor="end" fill="#93a4c3" font-family="Inter, Arial, sans-serif" font-size="12">12</text>
<line x1="70" x2="935" y1="249.00" y2="249.00" stroke="#27314e" stroke-width="1"/>
<text x="58" y="253.00" text-anchor="end" fill="#93a4c3" font-family="Inter, Arial, sans-serif" font-size="12">24</text>
<line x1="70" x2="935" y1="186.00" y2="186.00" stroke="#27314e" stroke-width="1"/>
<text x="58" y="190.00" text-anchor="end" fill="#93a4c3" font-family="Inter, Arial, sans-serif" font-size="12">36</text>
<line x1="70" x2="935" y1="123.00" y2="123.00" stroke="#27314e" stroke-width="1"/>
<text x="58" y="127.00" text-anchor="end" fill="#93a4c3" font-family="Inter, Arial, sans-serif" font-size="12">48</text>
<line x1="70" x2="935" y1="60.00" y2="60.00" stroke="#27314e" stroke-width="1"/>
<text x="58" y="64.00" text-anchor="end" fill="#93a4c3" font-family="Inter, Arial, sans-serif" font-size="12">60</text>
<text x="70.00" y="412" text-anchor="middle" fill="#93a4c3" font-family="Inter, Arial, sans-serif" font-size="12">2025-11-03</text>
<text x="507.59" y="412" text-anchor="middle" fill="#93a4c3" font-family="Inter, Arial, sans-serif" font-size="12">2026-01-07</text>
<text x="935.00" y="412" text-anchor="middle" fill="#93a4c3" font-family="Inter, Arial, sans-serif" font-size="12">2026-03-10</text>
<path d="M 70.00 300.78 L 80.18 256.51 L 90.35 266.05 L 100.53 233.47 L 110.71 242.01 L 120.88 292.45 L 131.06 319.44 L 141.24 260.62 L 151.41 279.65 L 161.59 231.47 L 171.76 157.25 L 181.94 164.47 L 192.12 161.52 L 202.29 216.81 L 212.47 307.42 L 222.65 341.79 L 232.82 349.28 L 243.00 375.00 L 253.18 346.01 L 263.35 328.83 L 273.53 316.86 L 283.71 298.78 L 293.88 286.71 L 304.06 308.58 L 314.24 282.60 L 324.41 304.26 L 334.59 328.46 L 344.76 298.31 L 354.94 304.58 L 365.12 304.89 L 375.29 242.33 L 385.47 260.56 L 395.65 326.45 L 405.82 343.43 L 416.00 352.33 L 426.18 374.89 L 436.35 365.20 L 446.53 345.90 L 456.71 330.14 L 466.88 291.61 L 477.06 282.65 L 487.24 288.77 L 497.41 305.84 L 507.59 303.37 L 517.76 314.17 L 527.94 316.17 L 538.12 293.03 L 548.29 277.59 L 558.47 279.65 L 568.65 285.97 L 578.82 262.25 L 589.00 173.96 L 599.18 235.21 L 609.35 263.78 L 619.53 254.13 L 629.71 287.82 L 639.88 318.55 L 650.06 296.88 L 660.24 273.80 L 670.41 272.32 L 680.59 279.91 L 690.76 233.63 L 700.94 235.95 L 711.12 192.67 L 721.29 290.66 L 731.47 287.66 L 741.65 303.37 L 751.82 306.58 L 762.00 294.19 L 772.18 242.70 L 782.35 235.32 L 792.53 257.72 L 802.71 248.49 L 812.88 308.37 L 823.06 284.07 L 833.24 304.37 L 843.41 314.59 L 853.59 308.69 L 863.76 283.02 L 873.94 266.36 L 884.12 193.67 L 894.29 208.43 L 904.47 159.68 L 914.65 60.00 L 924.82 158.73 L 935.00 209.80" fill="none" stroke="#69a7ff" stroke-width="4" stroke-linecap="round" stroke-linejoin="round"/>
<circle cx="935.00" cy="209.80" r="6" fill="#69a7ff"/>
</svg>