<svg xmlns="http://www.w3.org/2000/svg" width="960" height="430" viewBox="0 0 960 430" role="img" aria-label="Composite score history">
<rect width="100%" height="100%" fill="#0b1020" rx="20"/>
<text x="70" y="32" fill="#f5f7fb" font-family="Inter, Arial, sans-serif" font-size="24" font-weight="700">Composite score history</text>
<text x="70" y="52" fill="#93a4c3" font-family="Inter, Arial, sans-serif" font-size="13">Trailing 87 sessions through 2026-03-10</text>
<line x1="70" x2="935" y1="375.00" y2="375.00" stroke="#27314e" stroke-width="1"/>
<text x="58" y="379.00" text-anchor="end" fill="#93a4c3" font-family="Inter, Arial, sans-serif" font-size="12">0</text>
<line x1="70" x2="935" y1="312.00" y2="312.00" stroke="#27314e" stroke-width="1"/>
<text x="58" y="316.00" text-anchor="end" fill="#93a4c3" font-family="Inter, Arial, sans-serif" font-size="12">12</text>
<line x1="70" x2="935" y1="249.00" y2="249.00" stroke="#27314e" stroke-width="1"/>
<text x="58" y="253.00" text-anchor="end" fill="#93a4c3" font-family="Inter, Arial, sans-serif" font-size="12">24</text>
<line x1="70" x2="935" y1="186.00" y2="186.00" stroke="#27314e" stroke-width="1"/>
<text x="58" y="190.00" text-anchor="end" fill="#93a4c3" font-family="Inter, Arial, sans-serif" font-size="12">36</text>
<line x1="70" x2="935" y1="123.00" y2="123.00" stroke="#27314e" stroke-width="1"/>
<text x="58" y="127.00" text-anchor="end" fill="#93a4c3" font-family="Inter, Arial, sans-serif" font-size="12">48</text>
<line x1="70" x2="935" y1="60.00" y2="60.00" stroke="#27314e" stroke-width="1"/>
<text x="58" y="64.00" text-anchor="end" fill="#93a4c3" font-family="Inter, Arial, sans-serif" font-size="12">60</text>
<text x="70.00" y="412" text-anchor="middle" fill="#93a4c3" font-family="Inter, Arial, sans-serif" font-size="12">2025-10-31</text>
<text x="502.50" y="412" text-anchor="middle" fill="#93a4c3" font-family="Inter, Arial, sans-serif" font-size="12">2026-01-06</text>
<text x="935.00" y="412" text-anchor="middle" fill="#93a4c3" font-family="Inter, Arial, sans-serif" font-size="12">2026-03-10</text>
<path d="M 70.00 300.47 L 80.06 300.41 L 90.12 262.36 L 100.17 271.84 L 110.23 239.27 L 120.29 247.76 L 130.35 292.45 L 140.41 319.44 L 150.47 260.62 L 160.52 279.65 L 170.58 231.47 L 180.64 157.25 L 190.70 164.47 L 200.76 161.52 L 210.81 216.81 L 220.87 307.42 L 230.93 341.79 L 240.99 349.28 L 251.05 375.00 L 261.10 346.01 L 271.16 328.83 L 281.22 316.86 L 291.28 298.78 L 301.34 286.71 L 311.40 308.58 L 321.45 282.60 L 331.51 304.26 L 341.57 328.46 L 351.63 298.31 L 361.69 304.58 L 371.74 304.89 L 381.80 242.33 L 391.86 260.56 L 401.92 326.45 L 411.98 343.43 L 422.03 352.33 L 432.09 374.89 L 442.15 365.20 L 452.21 345.90 L 462.27 330.14 L 472.33 291.61 L 482.38 282.65 L 492.44 288.77 L 502.50 305.84 L 512.56 303.37 L 522.62 314.17 L 532.67 316.17 L 542.73 293.03 L 552.79 277.59 L 562.85 279.65 L 572.91 285.97 L 582.97 262.25 L 593.02 173.96 L 603.08 235.21 L 613.14 263.78 L 623.20 254.13 L 633.26 287.82 L 643.31 318.55 L 653.37 296.88 L 663.43 273.80 L 673.49 272.32 L 683.55 279.91 L 693.60 233.63 L 703.66 235.95 L 713.72 192.67 L 723.78 290.66 L 733.84 287.66 L 743.90 303.37 L 753.95 306.58 L 764.01 294.19 L 774.07 242.70 L 784.13 235.32 L 794.19 257.72 L 804.24 248.49 L 814.30 308.37 L 824.36 284.07 L 834.42 304.37 L 844.48 314.59 L 854.53 308.69 L 864.59 283.02 L 874.65 266.36 L 884.71 193.67 L 894.77 208.43 L 904.83 159.68 L 914.88 60.00 L 924.94 158.73 L 935.00 209.80" fill="none" stroke="#69a7ff" stroke-width="4" stroke-linecap="round" stroke-linejoin="round"/>
<circle cx="935.00" cy="209.80" r="6" fill="#69a7ff"/>
</svg>