<svg xmlns="http://www.w3.org/2000/svg" width="960" height="430" viewBox="0 0 960 430" role="img" aria-label="Composite score history">
<rect width="100%" height="100%" fill="#0b1020" rx="20"/>
<text x="70" y="32" fill="#f5f7fb" font-family="Inter, Arial, sans-serif" font-size="24" font-weight="700">Composite score history</text>
<text x="70" y="52" fill="#93a4c3" font-family="Inter, Arial, sans-serif" font-size="13">Trailing 90 sessions through 2026-05-14</text>
<line x1="70" x2="935" y1="375.00" y2="375.00" stroke="#27314e" stroke-width="1"/>
<text x="58" y="379.00" text-anchor="end" fill="#93a4c3" font-family="Inter, Arial, sans-serif" font-size="12">6</text>
<line x1="70" x2="935" y1="312.00" y2="312.00" stroke="#27314e" stroke-width="1"/>
<text x="58" y="316.00" text-anchor="end" fill="#93a4c3" font-family="Inter, Arial, sans-serif" font-size="12">17</text>
<line x1="70" x2="935" y1="249.00" y2="249.00" stroke="#27314e" stroke-width="1"/>
<text x="58" y="253.00" text-anchor="end" fill="#93a4c3" font-family="Inter, Arial, sans-serif" font-size="12">27</text>
<line x1="70" x2="935" y1="186.00" y2="186.00" stroke="#27314e" stroke-width="1"/>
<text x="58" y="190.00" text-anchor="end" fill="#93a4c3" font-family="Inter, Arial, sans-serif" font-size="12">38</text>
<line x1="70" x2="935" y1="123.00" y2="123.00" stroke="#27314e" stroke-width="1"/>
<text x="58" y="127.00" text-anchor="end" fill="#93a4c3" font-family="Inter, Arial, sans-serif" font-size="12">49</text>
<line x1="70" x2="935" y1="60.00" y2="60.00" stroke="#27314e" stroke-width="1"/>
<text x="58" y="64.00" text-anchor="end" fill="#93a4c3" font-family="Inter, Arial, sans-serif" font-size="12">60</text>
<text x="70.00" y="412" text-anchor="middle" fill="#93a4c3" font-family="Inter, Arial, sans-serif" font-size="12">2026-01-06</text>
<text x="507.36" y="412" text-anchor="middle" fill="#93a4c3" font-family="Inter, Arial, sans-serif" font-size="12">2026-03-12</text>
<text x="935.00" y="412" text-anchor="middle" fill="#93a4c3" font-family="Inter, Arial, sans-serif" font-size="12">2026-05-14</text>
<path d="M 70.00 333.08 L 79.72 330.33 L 89.44 342.33 L 99.16 344.55 L 108.88 318.85 L 118.60 301.70 L 128.31 303.98 L 138.03 311.00 L 147.75 284.66 L 157.47 186.59 L 167.19 254.62 L 176.91 286.36 L 186.63 275.64 L 196.35 313.05 L 206.07 347.19 L 215.79 323.12 L 225.51 297.48 L 235.22 295.84 L 244.94 304.27 L 254.66 252.86 L 264.38 255.44 L 274.10 207.37 L 283.82 316.22 L 293.54 312.88 L 303.26 330.33 L 312.98 333.90 L 322.70 320.14 L 332.42 262.93 L 342.13 254.74 L 351.85 279.62 L 361.57 269.38 L 371.29 335.89 L 381.01 308.90 L 390.73 331.44 L 400.45 342.80 L 410.17 336.24 L 419.89 307.73 L 429.61 289.22 L 439.33 208.48 L 449.04 224.88 L 458.76 170.72 L 468.48 60.00 L 478.20 169.66 L 487.92 226.40 L 497.64 164.10 L 507.36 89.98 L 517.08 158.83 L 526.80 205.56 L 536.52 202.39 L 546.24 142.44 L 555.96 235.71 L 565.67 157.90 L 575.39 166.56 L 585.11 113.57 L 594.83 238.40 L 604.55 138.81 L 614.27 156.14 L 623.99 103.15 L 633.71 260.18 L 643.43 255.03 L 653.15 297.01 L 662.87 314.34 L 672.58 314.63 L 682.30 340.75 L 692.02 349.47 L 701.74 339.64 L 711.46 351.99 L 721.18 373.24 L 730.90 336.36 L 740.62 335.01 L 750.34 375.00 L 760.06 348.48 L 769.78 299.76 L 779.49 307.49 L 789.21 288.70 L 798.93 266.21 L 808.65 282.84 L 818.37 288.46 L 828.09 236.00 L 837.81 277.57 L 847.53 259.13 L 857.25 216.45 L 866.97 282.67 L 876.69 348.01 L 886.40 313.41 L 896.12 325.58 L 905.84 328.16 L 915.56 286.53 L 925.28 236.24 L 935.00 284.07" fill="none" stroke="#69a7ff" stroke-width="4" stroke-linecap="round" stroke-linejoin="round"/>
<circle cx="935.00" cy="284.07" r="6" fill="#69a7ff"/>
</svg>