<svg xmlns="http://www.w3.org/2000/svg" width="960" height="430" viewBox="0 0 960 430" role="img" aria-label="Composite score history">
<rect width="100%" height="100%" fill="#0b1020" rx="20"/>
<text x="70" y="32" fill="#f5f7fb" font-family="Inter, Arial, sans-serif" font-size="24" font-weight="700">Composite score history</text>
<text x="70" y="52" fill="#93a4c3" font-family="Inter, Arial, sans-serif" font-size="13">Trailing 87 sessions through 2026-01-02</text>
<line x1="70" x2="935" y1="375.00" y2="375.00" stroke="#27314e" stroke-width="1"/>
<text x="58" y="379.00" text-anchor="end" fill="#93a4c3" font-family="Inter, Arial, sans-serif" font-size="12">0</text>
<line x1="70" x2="935" y1="312.00" y2="312.00" stroke="#27314e" stroke-width="1"/>
<text x="58" y="316.00" text-anchor="end" fill="#93a4c3" font-family="Inter, Arial, sans-serif" font-size="12">8</text>
<line x1="70" x2="935" y1="249.00" y2="249.00" stroke="#27314e" stroke-width="1"/>
<text x="58" y="253.00" text-anchor="end" fill="#93a4c3" font-family="Inter, Arial, sans-serif" font-size="12">17</text>
<line x1="70" x2="935" y1="186.00" y2="186.00" stroke="#27314e" stroke-width="1"/>
<text x="58" y="190.00" text-anchor="end" fill="#93a4c3" font-family="Inter, Arial, sans-serif" font-size="12">25</text>
<line x1="70" x2="935" y1="123.00" y2="123.00" stroke="#27314e" stroke-width="1"/>
<text x="58" y="127.00" text-anchor="end" fill="#93a4c3" font-family="Inter, Arial, sans-serif" font-size="12">33</text>
<line x1="70" x2="935" y1="60.00" y2="60.00" stroke="#27314e" stroke-width="1"/>
<text x="58" y="64.00" text-anchor="end" fill="#93a4c3" font-family="Inter, Arial, sans-serif" font-size="12">41</text>
<text x="70.00" y="412" text-anchor="middle" fill="#93a4c3" font-family="Inter, Arial, sans-serif" font-size="12">2025-08-27</text>
<text x="502.50" y="412" text-anchor="middle" fill="#93a4c3" font-family="Inter, Arial, sans-serif" font-size="12">2025-10-29</text>
<text x="935.00" y="412" text-anchor="middle" fill="#93a4c3" font-family="Inter, Arial, sans-serif" font-size="12">2026-01-02</text>
<path d="M 70.00 271.30 L 80.06 270.23 L 90.12 255.66 L 100.17 179.87 L 110.23 229.81 L 120.29 278.39 L 130.35 265.27 L 140.41 295.39 L 150.47 309.58 L 160.52 305.99 L 170.58 310.95 L 180.64 297.45 L 190.70 295.09 L 200.76 293.87 L 210.81 287.46 L 220.87 253.38 L 230.93 288.22 L 240.99 266.64 L 251.05 279.46 L 261.10 266.03 L 271.16 222.49 L 281.22 245.75 L 291.28 247.43 L 301.34 259.32 L 311.40 297.76 L 321.45 309.80 L 331.51 286.01 L 341.57 296.54 L 351.63 271.60 L 361.69 278.85 L 371.74 256.96 L 381.80 123.98 L 391.86 175.75 L 401.92 212.66 L 411.98 109.03 L 422.03 196.19 L 432.09 336.57 L 442.15 309.88 L 452.21 285.33 L 462.27 232.33 L 472.33 267.94 L 482.38 285.48 L 492.44 299.36 L 502.50 266.80 L 512.56 256.12 L 522.62 236.53 L 532.67 192.98 L 542.73 135.80 L 552.79 183.68 L 562.85 184.67 L 572.91 190.93 L 582.97 255.59 L 593.02 294.63 L 603.08 209.53 L 613.14 237.06 L 623.20 167.36 L 633.26 60.00 L 643.31 70.45 L 653.37 66.18 L 663.43 146.17 L 673.49 277.24 L 683.55 326.96 L 693.60 337.79 L 703.66 375.00 L 713.72 333.06 L 723.78 308.20 L 733.84 290.89 L 743.90 264.74 L 753.95 247.28 L 764.01 278.92 L 774.07 241.33 L 784.13 272.67 L 794.19 307.67 L 804.24 264.05 L 814.30 273.13 L 824.36 273.58 L 834.42 183.07 L 844.48 209.46 L 854.53 304.77 L 864.59 329.32 L 874.65 342.21 L 884.71 374.85 L 894.77 360.82 L 904.83 332.91 L 914.88 310.11 L 924.94 254.37 L 935.00 241.41" fill="none" stroke="#69a7ff" stroke-width="4" stroke-linecap="round" stroke-linejoin="round"/>
<circle cx="935.00" cy="241.41" r="6" fill="#69a7ff"/>
</svg>