<svg xmlns="http://www.w3.org/2000/svg" width="960" height="430" viewBox="0 0 960 430" role="img" aria-label="Composite score history">
<rect width="100%" height="100%" fill="#0b1020" rx="20"/>
<text x="70" y="32" fill="#f5f7fb" font-family="Inter, Arial, sans-serif" font-size="24" font-weight="700">Composite score history</text>
<text x="70" y="52" fill="#93a4c3" font-family="Inter, Arial, sans-serif" font-size="13">Trailing 49 sessions through 2026-01-02</text>
<line x1="70" x2="935" y1="375.00" y2="375.00" stroke="#27314e" stroke-width="1"/>
<text x="58" y="379.00" text-anchor="end" fill="#93a4c3" font-family="Inter, Arial, sans-serif" font-size="12">0</text>
<line x1="70" x2="935" y1="312.00" y2="312.00" stroke="#27314e" stroke-width="1"/>
<text x="58" y="316.00" text-anchor="end" fill="#93a4c3" font-family="Inter, Arial, sans-serif" font-size="12">8</text>
<line x1="70" x2="935" y1="249.00" y2="249.00" stroke="#27314e" stroke-width="1"/>
<text x="58" y="253.00" text-anchor="end" fill="#93a4c3" font-family="Inter, Arial, sans-serif" font-size="12">17</text>
<line x1="70" x2="935" y1="186.00" y2="186.00" stroke="#27314e" stroke-width="1"/>
<text x="58" y="190.00" text-anchor="end" fill="#93a4c3" font-family="Inter, Arial, sans-serif" font-size="12">25</text>
<line x1="70" x2="935" y1="123.00" y2="123.00" stroke="#27314e" stroke-width="1"/>
<text x="58" y="127.00" text-anchor="end" fill="#93a4c3" font-family="Inter, Arial, sans-serif" font-size="12">33</text>
<line x1="70" x2="935" y1="60.00" y2="60.00" stroke="#27314e" stroke-width="1"/>
<text x="58" y="64.00" text-anchor="end" fill="#93a4c3" font-family="Inter, Arial, sans-serif" font-size="12">41</text>
<text x="70.00" y="412" text-anchor="middle" fill="#93a4c3" font-family="Inter, Arial, sans-serif" font-size="12">2025-10-22</text>
<text x="502.50" y="412" text-anchor="middle" fill="#93a4c3" font-family="Inter, Arial, sans-serif" font-size="12">2025-11-26</text>
<text x="935.00" y="412" text-anchor="middle" fill="#93a4c3" font-family="Inter, Arial, sans-serif" font-size="12">2026-01-02</text>
<path d="M 70.00 277.24 L 88.02 235.61 L 106.04 266.11 L 124.06 308.13 L 142.08 317.43 L 160.10 266.80 L 178.12 256.12 L 196.15 236.53 L 214.17 192.98 L 232.19 135.80 L 250.21 183.68 L 268.23 184.67 L 286.25 190.93 L 304.27 255.59 L 322.29 294.63 L 340.31 209.53 L 358.33 237.06 L 376.35 167.36 L 394.38 60.00 L 412.40 70.45 L 430.42 66.18 L 448.44 146.17 L 466.46 277.24 L 484.48 326.96 L 502.50 337.79 L 520.52 375.00 L 538.54 333.06 L 556.56 308.20 L 574.58 290.89 L 592.60 264.74 L 610.62 247.28 L 628.65 278.92 L 646.67 241.33 L 664.69 272.67 L 682.71 307.67 L 700.73 264.05 L 718.75 273.13 L 736.77 273.58 L 754.79 183.07 L 772.81 209.46 L 790.83 304.77 L 808.85 329.32 L 826.88 342.21 L 844.90 374.85 L 862.92 360.82 L 880.94 332.91 L 898.96 310.11 L 916.98 254.37 L 935.00 241.41" fill="none" stroke="#69a7ff" stroke-width="4" stroke-linecap="round" stroke-linejoin="round"/>
<circle cx="935.00" cy="241.41" r="6" fill="#69a7ff"/>
</svg>