<svg xmlns="http://www.w3.org/2000/svg" width="960" height="430" viewBox="0 0 960 430" role="img" aria-label="Composite score history">
<rect width="100%" height="100%" fill="#0b1020" rx="20"/>
<text x="70" y="32" fill="#f5f7fb" font-family="Inter, Arial, sans-serif" font-size="24" font-weight="700">Composite score history</text>
<text x="70" y="52" fill="#93a4c3" font-family="Inter, Arial, sans-serif" font-size="13">Trailing 82 sessions through 2026-01-02</text>
<line x1="70" x2="935" y1="375.00" y2="375.00" stroke="#27314e" stroke-width="1"/>
<text x="58" y="379.00" text-anchor="end" fill="#93a4c3" font-family="Inter, Arial, sans-serif" font-size="12">0</text>
<line x1="70" x2="935" y1="312.00" y2="312.00" stroke="#27314e" stroke-width="1"/>
<text x="58" y="316.00" text-anchor="end" fill="#93a4c3" font-family="Inter, Arial, sans-serif" font-size="12">8</text>
<line x1="70" x2="935" y1="249.00" y2="249.00" stroke="#27314e" stroke-width="1"/>
<text x="58" y="253.00" text-anchor="end" fill="#93a4c3" font-family="Inter, Arial, sans-serif" font-size="12">17</text>
<line x1="70" x2="935" y1="186.00" y2="186.00" stroke="#27314e" stroke-width="1"/>
<text x="58" y="190.00" text-anchor="end" fill="#93a4c3" font-family="Inter, Arial, sans-serif" font-size="12">25</text>
<line x1="70" x2="935" y1="123.00" y2="123.00" stroke="#27314e" stroke-width="1"/>
<text x="58" y="127.00" text-anchor="end" fill="#93a4c3" font-family="Inter, Arial, sans-serif" font-size="12">33</text>
<line x1="70" x2="935" y1="60.00" y2="60.00" stroke="#27314e" stroke-width="1"/>
<text x="58" y="64.00" text-anchor="end" fill="#93a4c3" font-family="Inter, Arial, sans-serif" font-size="12">41</text>
<text x="70.00" y="412" text-anchor="middle" fill="#93a4c3" font-family="Inter, Arial, sans-serif" font-size="12">2025-09-04</text>
<text x="507.84" y="412" text-anchor="middle" fill="#93a4c3" font-family="Inter, Arial, sans-serif" font-size="12">2025-11-03</text>
<text x="935.00" y="412" text-anchor="middle" fill="#93a4c3" font-family="Inter, Arial, sans-serif" font-size="12">2026-01-02</text>
<path d="M 70.00 275.57 L 80.68 270.53 L 91.36 281.06 L 102.04 283.80 L 112.72 289.67 L 123.40 310.95 L 134.07 297.45 L 144.75 295.09 L 155.43 293.87 L 166.11 287.46 L 176.79 253.38 L 187.47 288.22 L 198.15 266.64 L 208.83 279.46 L 219.51 266.03 L 230.19 222.49 L 240.86 245.75 L 251.54 247.43 L 262.22 259.32 L 272.90 297.76 L 283.58 309.80 L 294.26 286.01 L 304.94 296.54 L 315.62 271.60 L 326.30 278.85 L 336.98 256.96 L 347.65 123.98 L 358.33 175.75 L 369.01 212.66 L 379.69 109.03 L 390.37 196.19 L 401.05 336.57 L 411.73 309.88 L 422.41 285.33 L 433.09 232.33 L 443.77 267.94 L 454.44 285.48 L 465.12 299.36 L 475.80 266.80 L 486.48 256.12 L 497.16 236.53 L 507.84 192.98 L 518.52 135.80 L 529.20 183.68 L 539.88 184.67 L 550.56 190.93 L 561.23 255.59 L 571.91 294.63 L 582.59 209.53 L 593.27 237.06 L 603.95 167.36 L 614.63 60.00 L 625.31 70.45 L 635.99 66.18 L 646.67 146.17 L 657.35 277.24 L 668.02 326.96 L 678.70 337.79 L 689.38 375.00 L 700.06 333.06 L 710.74 308.20 L 721.42 290.89 L 732.10 264.74 L 742.78 247.28 L 753.46 278.92 L 764.14 241.33 L 774.81 272.67 L 785.49 307.67 L 796.17 264.05 L 806.85 273.13 L 817.53 273.58 L 828.21 183.07 L 838.89 209.46 L 849.57 304.77 L 860.25 329.32 L 870.93 342.21 L 881.60 374.85 L 892.28 360.82 L 902.96 332.91 L 913.64 310.11 L 924.32 254.37 L 935.00 241.41" fill="none" stroke="#69a7ff" stroke-width="4" stroke-linecap="round" stroke-linejoin="round"/>
<circle cx="935.00" cy="241.41" r="6" fill="#69a7ff"/>
</svg>