<svg xmlns="http://www.w3.org/2000/svg" width="960" height="430" viewBox="0 0 960 430" role="img" aria-label="Composite score history">
<rect width="100%" height="100%" fill="#0b1020" rx="20"/>
<text x="70" y="32" fill="#f5f7fb" font-family="Inter, Arial, sans-serif" font-size="24" font-weight="700">Composite score history</text>
<text x="70" y="52" fill="#93a4c3" font-family="Inter, Arial, sans-serif" font-size="13">Trailing 81 sessions through 2026-01-02</text>
<line x1="70" x2="935" y1="375.00" y2="375.00" stroke="#27314e" stroke-width="1"/>
<text x="58" y="379.00" text-anchor="end" fill="#93a4c3" font-family="Inter, Arial, sans-serif" font-size="12">0</text>
<line x1="70" x2="935" y1="312.00" y2="312.00" stroke="#27314e" stroke-width="1"/>
<text x="58" y="316.00" text-anchor="end" fill="#93a4c3" font-family="Inter, Arial, sans-serif" font-size="12">8</text>
<line x1="70" x2="935" y1="249.00" y2="249.00" stroke="#27314e" stroke-width="1"/>
<text x="58" y="253.00" text-anchor="end" fill="#93a4c3" font-family="Inter, Arial, sans-serif" font-size="12">17</text>
<line x1="70" x2="935" y1="186.00" y2="186.00" stroke="#27314e" stroke-width="1"/>
<text x="58" y="190.00" text-anchor="end" fill="#93a4c3" font-family="Inter, Arial, sans-serif" font-size="12">25</text>
<line x1="70" x2="935" y1="123.00" y2="123.00" stroke="#27314e" stroke-width="1"/>
<text x="58" y="127.00" text-anchor="end" fill="#93a4c3" font-family="Inter, Arial, sans-serif" font-size="12">33</text>
<line x1="70" x2="935" y1="60.00" y2="60.00" stroke="#27314e" stroke-width="1"/>
<text x="58" y="64.00" text-anchor="end" fill="#93a4c3" font-family="Inter, Arial, sans-serif" font-size="12">41</text>
<text x="70.00" y="412" text-anchor="middle" fill="#93a4c3" font-family="Inter, Arial, sans-serif" font-size="12">2025-09-05</text>
<text x="502.50" y="412" text-anchor="middle" fill="#93a4c3" font-family="Inter, Arial, sans-serif" font-size="12">2025-11-03</text>
<text x="935.00" y="412" text-anchor="middle" fill="#93a4c3" font-family="Inter, Arial, sans-serif" font-size="12">2026-01-02</text>
<path d="M 70.00 282.58 L 80.81 289.14 L 91.62 276.94 L 102.44 285.71 L 113.25 314.07 L 124.06 297.45 L 134.88 295.09 L 145.69 293.87 L 156.50 287.46 L 167.31 253.38 L 178.12 288.22 L 188.94 266.64 L 199.75 279.46 L 210.56 266.03 L 221.38 222.49 L 232.19 245.75 L 243.00 247.43 L 253.81 259.32 L 264.62 297.76 L 275.44 309.80 L 286.25 286.01 L 297.06 296.54 L 307.88 271.60 L 318.69 278.85 L 329.50 256.96 L 340.31 123.98 L 351.12 175.75 L 361.94 212.66 L 372.75 109.03 L 383.56 196.19 L 394.38 336.57 L 405.19 309.88 L 416.00 285.33 L 426.81 232.33 L 437.62 267.94 L 448.44 285.48 L 459.25 299.36 L 470.06 266.80 L 480.88 256.12 L 491.69 236.53 L 502.50 192.98 L 513.31 135.80 L 524.12 183.68 L 534.94 184.67 L 545.75 190.93 L 556.56 255.59 L 567.38 294.63 L 578.19 209.53 L 589.00 237.06 L 599.81 167.36 L 610.62 60.00 L 621.44 70.45 L 632.25 66.18 L 643.06 146.17 L 653.88 277.24 L 664.69 326.96 L 675.50 337.79 L 686.31 375.00 L 697.12 333.06 L 707.94 308.20 L 718.75 290.89 L 729.56 264.74 L 740.38 247.28 L 751.19 278.92 L 762.00 241.33 L 772.81 272.67 L 783.62 307.67 L 794.44 264.05 L 805.25 273.13 L 816.06 273.58 L 826.88 183.07 L 837.69 209.46 L 848.50 304.77 L 859.31 329.32 L 870.12 342.21 L 880.94 374.85 L 891.75 360.82 L 902.56 332.91 L 913.38 310.11 L 924.19 254.37 L 935.00 241.41" fill="none" stroke="#69a7ff" stroke-width="4" stroke-linecap="round" stroke-linejoin="round"/>
<circle cx="935.00" cy="241.41" r="6" fill="#69a7ff"/>
</svg>