<svg xmlns="http://www.w3.org/2000/svg" width="960" height="430" viewBox="0 0 960 430" role="img" aria-label="Composite score history">
<rect width="100%" height="100%" fill="#0b1020" rx="20"/>
<text x="70" y="32" fill="#f5f7fb" font-family="Inter, Arial, sans-serif" font-size="24" font-weight="700">Composite score history</text>
<text x="70" y="52" fill="#93a4c3" font-family="Inter, Arial, sans-serif" font-size="13">Trailing 86 sessions through 2026-01-02</text>
<line x1="70" x2="935" y1="375.00" y2="375.00" stroke="#27314e" stroke-width="1"/>
<text x="58" y="379.00" text-anchor="end" fill="#93a4c3" font-family="Inter, Arial, sans-serif" font-size="12">0</text>
<line x1="70" x2="935" y1="312.00" y2="312.00" stroke="#27314e" stroke-width="1"/>
<text x="58" y="316.00" text-anchor="end" fill="#93a4c3" font-family="Inter, Arial, sans-serif" font-size="12">8</text>
<line x1="70" x2="935" y1="249.00" y2="249.00" stroke="#27314e" stroke-width="1"/>
<text x="58" y="253.00" text-anchor="end" fill="#93a4c3" font-family="Inter, Arial, sans-serif" font-size="12">17</text>
<line x1="70" x2="935" y1="186.00" y2="186.00" stroke="#27314e" stroke-width="1"/>
<text x="58" y="190.00" text-anchor="end" fill="#93a4c3" font-family="Inter, Arial, sans-serif" font-size="12">25</text>
<line x1="70" x2="935" y1="123.00" y2="123.00" stroke="#27314e" stroke-width="1"/>
<text x="58" y="127.00" text-anchor="end" fill="#93a4c3" font-family="Inter, Arial, sans-serif" font-size="12">33</text>
<line x1="70" x2="935" y1="60.00" y2="60.00" stroke="#27314e" stroke-width="1"/>
<text x="58" y="64.00" text-anchor="end" fill="#93a4c3" font-family="Inter, Arial, sans-serif" font-size="12">41</text>
<text x="70.00" y="412" text-anchor="middle" fill="#93a4c3" font-family="Inter, Arial, sans-serif" font-size="12">2025-08-28</text>
<text x="507.59" y="412" text-anchor="middle" fill="#93a4c3" font-family="Inter, Arial, sans-serif" font-size="12">2025-10-30</text>
<text x="935.00" y="412" text-anchor="middle" fill="#93a4c3" font-family="Inter, Arial, sans-serif" font-size="12">2026-01-02</text>
<path d="M 70.00 273.36 L 80.18 240.72 L 90.35 174.15 L 100.53 220.97 L 110.71 269.39 L 120.88 265.27 L 131.06 295.39 L 141.24 309.58 L 151.41 305.99 L 161.59 310.95 L 171.76 297.45 L 181.94 295.09 L 192.12 293.87 L 202.29 287.46 L 212.47 253.38 L 222.65 288.22 L 232.82 266.64 L 243.00 279.46 L 253.18 266.03 L 263.35 222.49 L 273.53 245.75 L 283.71 247.43 L 293.88 259.32 L 304.06 297.76 L 314.24 309.80 L 324.41 286.01 L 334.59 296.54 L 344.76 271.60 L 354.94 278.85 L 365.12 256.96 L 375.29 123.98 L 385.47 175.75 L 395.65 212.66 L 405.82 109.03 L 416.00 196.19 L 426.18 336.57 L 436.35 309.88 L 446.53 285.33 L 456.71 232.33 L 466.88 267.94 L 477.06 285.48 L 487.24 299.36 L 497.41 266.80 L 507.59 256.12 L 517.76 236.53 L 527.94 192.98 L 538.12 135.80 L 548.29 183.68 L 558.47 184.67 L 568.65 190.93 L 578.82 255.59 L 589.00 294.63 L 599.18 209.53 L 609.35 237.06 L 619.53 167.36 L 629.71 60.00 L 639.88 70.45 L 650.06 66.18 L 660.24 146.17 L 670.41 277.24 L 680.59 326.96 L 690.76 337.79 L 700.94 375.00 L 711.12 333.06 L 721.29 308.20 L 731.47 290.89 L 741.65 264.74 L 751.82 247.28 L 762.00 278.92 L 772.18 241.33 L 782.35 272.67 L 792.53 307.67 L 802.71 264.05 L 812.88 273.13 L 823.06 273.58 L 833.24 183.07 L 843.41 209.46 L 853.59 304.77 L 863.76 329.32 L 873.94 342.21 L 884.12 374.85 L 894.29 360.82 L 904.47 332.91 L 914.65 310.11 L 924.82 254.37 L 935.00 241.41" fill="none" stroke="#69a7ff" stroke-width="4" stroke-linecap="round" stroke-linejoin="round"/>
<circle cx="935.00" cy="241.41" r="6" fill="#69a7ff"/>
</svg>