<svg xmlns="http://www.w3.org/2000/svg" width="960" height="430" viewBox="0 0 960 430" role="img" aria-label="Composite score history">
<rect width="100%" height="100%" fill="#0b1020" rx="20"/>
<text x="70" y="32" fill="#f5f7fb" font-family="Inter, Arial, sans-serif" font-size="24" font-weight="700">Composite score history</text>
<text x="70" y="52" fill="#93a4c3" font-family="Inter, Arial, sans-serif" font-size="13">Trailing 74 sessions through 2026-01-02</text>
<line x1="70" x2="935" y1="375.00" y2="375.00" stroke="#27314e" stroke-width="1"/>
<text x="58" y="379.00" text-anchor="end" fill="#93a4c3" font-family="Inter, Arial, sans-serif" font-size="12">0</text>
<line x1="70" x2="935" y1="312.00" y2="312.00" stroke="#27314e" stroke-width="1"/>
<text x="58" y="316.00" text-anchor="end" fill="#93a4c3" font-family="Inter, Arial, sans-serif" font-size="12">8</text>
<line x1="70" x2="935" y1="249.00" y2="249.00" stroke="#27314e" stroke-width="1"/>
<text x="58" y="253.00" text-anchor="end" fill="#93a4c3" font-family="Inter, Arial, sans-serif" font-size="12">17</text>
<line x1="70" x2="935" y1="186.00" y2="186.00" stroke="#27314e" stroke-width="1"/>
<text x="58" y="190.00" text-anchor="end" fill="#93a4c3" font-family="Inter, Arial, sans-serif" font-size="12">25</text>
<line x1="70" x2="935" y1="123.00" y2="123.00" stroke="#27314e" stroke-width="1"/>
<text x="58" y="127.00" text-anchor="end" fill="#93a4c3" font-family="Inter, Arial, sans-serif" font-size="12">33</text>
<line x1="70" x2="935" y1="60.00" y2="60.00" stroke="#27314e" stroke-width="1"/>
<text x="58" y="64.00" text-anchor="end" fill="#93a4c3" font-family="Inter, Arial, sans-serif" font-size="12">41</text>
<text x="70.00" y="412" text-anchor="middle" fill="#93a4c3" font-family="Inter, Arial, sans-serif" font-size="12">2025-09-16</text>
<text x="508.42" y="412" text-anchor="middle" fill="#93a4c3" font-family="Inter, Arial, sans-serif" font-size="12">2025-11-07</text>
<text x="935.00" y="412" text-anchor="middle" fill="#93a4c3" font-family="Inter, Arial, sans-serif" font-size="12">2026-01-02</text>
<path d="M 70.00 275.72 L 81.85 267.25 L 93.70 255.59 L 105.55 271.37 L 117.40 266.72 L 129.25 279.46 L 141.10 266.03 L 152.95 222.49 L 164.79 245.75 L 176.64 247.43 L 188.49 259.32 L 200.34 297.76 L 212.19 309.80 L 224.04 286.01 L 235.89 296.54 L 247.74 271.60 L 259.59 278.85 L 271.44 256.96 L 283.29 123.98 L 295.14 175.75 L 306.99 212.66 L 318.84 109.03 L 330.68 196.19 L 342.53 336.57 L 354.38 309.88 L 366.23 285.33 L 378.08 232.33 L 389.93 267.94 L 401.78 285.48 L 413.63 299.36 L 425.48 266.80 L 437.33 256.12 L 449.18 236.53 L 461.03 192.98 L 472.88 135.80 L 484.73 183.68 L 496.58 184.67 L 508.42 190.93 L 520.27 255.59 L 532.12 294.63 L 543.97 209.53 L 555.82 237.06 L 567.67 167.36 L 579.52 60.00 L 591.37 70.45 L 603.22 66.18 L 615.07 146.17 L 626.92 277.24 L 638.77 326.96 L 650.62 337.79 L 662.47 375.00 L 674.32 333.06 L 686.16 308.20 L 698.01 290.89 L 709.86 264.74 L 721.71 247.28 L 733.56 278.92 L 745.41 241.33 L 757.26 272.67 L 769.11 307.67 L 780.96 264.05 L 792.81 273.13 L 804.66 273.58 L 816.51 183.07 L 828.36 209.46 L 840.21 304.77 L 852.05 329.32 L 863.90 342.21 L 875.75 374.85 L 887.60 360.82 L 899.45 332.91 L 911.30 310.11 L 923.15 254.37 L 935.00 241.41" fill="none" stroke="#69a7ff" stroke-width="4" stroke-linecap="round" stroke-linejoin="round"/>
<circle cx="935.00" cy="241.41" r="6" fill="#69a7ff"/>
</svg>