<svg xmlns="http://www.w3.org/2000/svg" width="960" height="430" viewBox="0 0 960 430" role="img" aria-label="Composite score history">
<rect width="100%" height="100%" fill="#0b1020" rx="20"/>
<text x="70" y="32" fill="#f5f7fb" font-family="Inter, Arial, sans-serif" font-size="24" font-weight="700">Composite score history</text>
<text x="70" y="52" fill="#93a4c3" font-family="Inter, Arial, sans-serif" font-size="13">Trailing 80 sessions through 2026-01-02</text>
<line x1="70" x2="935" y1="375.00" y2="375.00" stroke="#27314e" stroke-width="1"/>
<text x="58" y="379.00" text-anchor="end" fill="#93a4c3" font-family="Inter, Arial, sans-serif" font-size="12">0</text>
<line x1="70" x2="935" y1="312.00" y2="312.00" stroke="#27314e" stroke-width="1"/>
<text x="58" y="316.00" text-anchor="end" fill="#93a4c3" font-family="Inter, Arial, sans-serif" font-size="12">8</text>
<line x1="70" x2="935" y1="249.00" y2="249.00" stroke="#27314e" stroke-width="1"/>
<text x="58" y="253.00" text-anchor="end" fill="#93a4c3" font-family="Inter, Arial, sans-serif" font-size="12">17</text>
<line x1="70" x2="935" y1="186.00" y2="186.00" stroke="#27314e" stroke-width="1"/>
<text x="58" y="190.00" text-anchor="end" fill="#93a4c3" font-family="Inter, Arial, sans-serif" font-size="12">25</text>
<line x1="70" x2="935" y1="123.00" y2="123.00" stroke="#27314e" stroke-width="1"/>
<text x="58" y="127.00" text-anchor="end" fill="#93a4c3" font-family="Inter, Arial, sans-serif" font-size="12">33</text>
<line x1="70" x2="935" y1="60.00" y2="60.00" stroke="#27314e" stroke-width="1"/>
<text x="58" y="64.00" text-anchor="end" fill="#93a4c3" font-family="Inter, Arial, sans-serif" font-size="12">41</text>
<text x="70.00" y="412" text-anchor="middle" fill="#93a4c3" font-family="Inter, Arial, sans-serif" font-size="12">2025-09-08</text>
<text x="507.97" y="412" text-anchor="middle" fill="#93a4c3" font-family="Inter, Arial, sans-serif" font-size="12">2025-11-04</text>
<text x="935.00" y="412" text-anchor="middle" fill="#93a4c3" font-family="Inter, Arial, sans-serif" font-size="12">2026-01-02</text>
<path d="M 70.00 285.10 L 80.95 262.98 L 91.90 275.03 L 102.85 303.86 L 113.80 283.50 L 124.75 295.09 L 135.70 293.87 L 146.65 287.46 L 157.59 253.38 L 168.54 288.22 L 179.49 266.64 L 190.44 279.46 L 201.39 266.03 L 212.34 222.49 L 223.29 245.75 L 234.24 247.43 L 245.19 259.32 L 256.14 297.76 L 267.09 309.80 L 278.04 286.01 L 288.99 296.54 L 299.94 271.60 L 310.89 278.85 L 321.84 256.96 L 332.78 123.98 L 343.73 175.75 L 354.68 212.66 L 365.63 109.03 L 376.58 196.19 L 387.53 336.57 L 398.48 309.88 L 409.43 285.33 L 420.38 232.33 L 431.33 267.94 L 442.28 285.48 L 453.23 299.36 L 464.18 266.80 L 475.13 256.12 L 486.08 236.53 L 497.03 192.98 L 507.97 135.80 L 518.92 183.68 L 529.87 184.67 L 540.82 190.93 L 551.77 255.59 L 562.72 294.63 L 573.67 209.53 L 584.62 237.06 L 595.57 167.36 L 606.52 60.00 L 617.47 70.45 L 628.42 66.18 L 639.37 146.17 L 650.32 277.24 L 661.27 326.96 L 672.22 337.79 L 683.16 375.00 L 694.11 333.06 L 705.06 308.20 L 716.01 290.89 L 726.96 264.74 L 737.91 247.28 L 748.86 278.92 L 759.81 241.33 L 770.76 272.67 L 781.71 307.67 L 792.66 264.05 L 803.61 273.13 L 814.56 273.58 L 825.51 183.07 L 836.46 209.46 L 847.41 304.77 L 858.35 329.32 L 869.30 342.21 L 880.25 374.85 L 891.20 360.82 L 902.15 332.91 L 913.10 310.11 L 924.05 254.37 L 935.00 241.41" fill="none" stroke="#69a7ff" stroke-width="4" stroke-linecap="round" stroke-linejoin="round"/>
<circle cx="935.00" cy="241.41" r="6" fill="#69a7ff"/>
</svg>