<svg xmlns="http://www.w3.org/2000/svg" width="960" height="430" viewBox="0 0 960 430" role="img" aria-label="Composite score history">
<rect width="100%" height="100%" fill="#0b1020" rx="20"/>
<text x="70" y="32" fill="#f5f7fb" font-family="Inter, Arial, sans-serif" font-size="24" font-weight="700">Composite score history</text>
<text x="70" y="52" fill="#93a4c3" font-family="Inter, Arial, sans-serif" font-size="13">Trailing 56 sessions through 2026-01-02</text>
<line x1="70" x2="935" y1="375.00" y2="375.00" stroke="#27314e" stroke-width="1"/>
<text x="58" y="379.00" text-anchor="end" fill="#93a4c3" font-family="Inter, Arial, sans-serif" font-size="12">0</text>
<line x1="70" x2="935" y1="312.00" y2="312.00" stroke="#27314e" stroke-width="1"/>
<text x="58" y="316.00" text-anchor="end" fill="#93a4c3" font-family="Inter, Arial, sans-serif" font-size="12">8</text>
<line x1="70" x2="935" y1="249.00" y2="249.00" stroke="#27314e" stroke-width="1"/>
<text x="58" y="253.00" text-anchor="end" fill="#93a4c3" font-family="Inter, Arial, sans-serif" font-size="12">17</text>
<line x1="70" x2="935" y1="186.00" y2="186.00" stroke="#27314e" stroke-width="1"/>
<text x="58" y="190.00" text-anchor="end" fill="#93a4c3" font-family="Inter, Arial, sans-serif" font-size="12">25</text>
<line x1="70" x2="935" y1="123.00" y2="123.00" stroke="#27314e" stroke-width="1"/>
<text x="58" y="127.00" text-anchor="end" fill="#93a4c3" font-family="Inter, Arial, sans-serif" font-size="12">33</text>
<line x1="70" x2="935" y1="60.00" y2="60.00" stroke="#27314e" stroke-width="1"/>
<text x="58" y="64.00" text-anchor="end" fill="#93a4c3" font-family="Inter, Arial, sans-serif" font-size="12">41</text>
<text x="70.00" y="412" text-anchor="middle" fill="#93a4c3" font-family="Inter, Arial, sans-serif" font-size="12">2025-10-10</text>
<text x="510.36" y="412" text-anchor="middle" fill="#93a4c3" font-family="Inter, Arial, sans-serif" font-size="12">2025-11-21</text>
<text x="935.00" y="412" text-anchor="middle" fill="#93a4c3" font-family="Inter, Arial, sans-serif" font-size="12">2026-01-02</text>
<path d="M 70.00 252.46 L 85.73 288.45 L 101.45 296.15 L 117.18 239.96 L 132.91 299.97 L 148.64 336.57 L 164.36 309.88 L 180.09 285.33 L 195.82 232.33 L 211.55 267.94 L 227.27 285.48 L 243.00 299.36 L 258.73 266.80 L 274.45 256.12 L 290.18 236.53 L 305.91 192.98 L 321.64 135.80 L 337.36 183.68 L 353.09 184.67 L 368.82 190.93 L 384.55 255.59 L 400.27 294.63 L 416.00 209.53 L 431.73 237.06 L 447.45 167.36 L 463.18 60.00 L 478.91 70.45 L 494.64 66.18 L 510.36 146.17 L 526.09 277.24 L 541.82 326.96 L 557.55 337.79 L 573.27 375.00 L 589.00 333.06 L 604.73 308.20 L 620.45 290.89 L 636.18 264.74 L 651.91 247.28 L 667.64 278.92 L 683.36 241.33 L 699.09 272.67 L 714.82 307.67 L 730.55 264.05 L 746.27 273.13 L 762.00 273.58 L 777.73 183.07 L 793.45 209.46 L 809.18 304.77 L 824.91 329.32 L 840.64 342.21 L 856.36 374.85 L 872.09 360.82 L 887.82 332.91 L 903.55 310.11 L 919.27 254.37 L 935.00 241.41" fill="none" stroke="#69a7ff" stroke-width="4" stroke-linecap="round" stroke-linejoin="round"/>
<circle cx="935.00" cy="241.41" r="6" fill="#69a7ff"/>
</svg>