<svg xmlns="http://www.w3.org/2000/svg" width="960" height="430" viewBox="0 0 960 430" role="img" aria-label="Composite score history">
<rect width="100%" height="100%" fill="#0b1020" rx="20"/>
<text x="70" y="32" fill="#f5f7fb" font-family="Inter, Arial, sans-serif" font-size="24" font-weight="700">Composite score history</text>
<text x="70" y="52" fill="#93a4c3" font-family="Inter, Arial, sans-serif" font-size="13">Trailing 53 sessions through 2025-10-07</text>
<line x1="70" x2="935" y1="375.00" y2="375.00" stroke="#27314e" stroke-width="1"/>
<text x="58" y="379.00" text-anchor="end" fill="#93a4c3" font-family="Inter, Arial, sans-serif" font-size="12">8</text>
<line x1="70" x2="935" y1="312.00" y2="312.00" stroke="#27314e" stroke-width="1"/>
<text x="58" y="316.00" text-anchor="end" fill="#93a4c3" font-family="Inter, Arial, sans-serif" font-size="12">13</text>
<line x1="70" x2="935" y1="249.00" y2="249.00" stroke="#27314e" stroke-width="1"/>
<text x="58" y="253.00" text-anchor="end" fill="#93a4c3" font-family="Inter, Arial, sans-serif" font-size="12">18</text>
<line x1="70" x2="935" y1="186.00" y2="186.00" stroke="#27314e" stroke-width="1"/>
<text x="58" y="190.00" text-anchor="end" fill="#93a4c3" font-family="Inter, Arial, sans-serif" font-size="12">24</text>
<line x1="70" x2="935" y1="123.00" y2="123.00" stroke="#27314e" stroke-width="1"/>
<text x="58" y="127.00" text-anchor="end" fill="#93a4c3" font-family="Inter, Arial, sans-serif" font-size="12">29</text>
<line x1="70" x2="935" y1="60.00" y2="60.00" stroke="#27314e" stroke-width="1"/>
<text x="58" y="64.00" text-anchor="end" fill="#93a4c3" font-family="Inter, Arial, sans-serif" font-size="12">34</text>
<text x="70.00" y="412" text-anchor="middle" fill="#93a4c3" font-family="Inter, Arial, sans-serif" font-size="12">2025-07-24</text>
<text x="502.50" y="412" text-anchor="middle" fill="#93a4c3" font-family="Inter, Arial, sans-serif" font-size="12">2025-08-29</text>
<text x="935.00" y="412" text-anchor="middle" fill="#93a4c3" font-family="Inter, Arial, sans-serif" font-size="12">2025-10-07</text>
<path d="M 70.00 278.05 L 86.63 300.57 L 103.27 300.19 L 119.90 277.17 L 136.54 261.91 L 153.17 216.25 L 169.81 60.00 L 186.44 205.24 L 203.08 195.11 L 219.71 269.42 L 236.35 299.94 L 252.98 291.18 L 269.62 245.15 L 286.25 373.62 L 302.88 369.00 L 319.52 351.61 L 336.15 338.85 L 352.79 340.72 L 369.42 252.15 L 386.06 190.60 L 402.69 140.69 L 419.33 282.93 L 435.96 247.40 L 452.60 268.29 L 469.23 289.31 L 485.87 346.73 L 502.50 290.93 L 519.13 234.76 L 535.77 264.04 L 552.40 321.58 L 569.04 300.07 L 585.67 349.48 L 602.31 372.75 L 618.94 366.87 L 635.58 375.00 L 652.21 352.86 L 668.85 348.98 L 685.48 346.98 L 702.12 336.47 L 718.75 280.55 L 735.38 337.72 L 752.02 302.32 L 768.65 323.33 L 785.29 301.32 L 801.92 229.88 L 818.56 268.04 L 835.19 270.79 L 851.83 290.31 L 868.46 353.36 L 885.10 373.12 L 901.73 334.09 L 918.37 351.36 L 935.00 310.45" fill="none" stroke="#69a7ff" stroke-width="4" stroke-linecap="round" stroke-linejoin="round"/>
<circle cx="935.00" cy="310.45" r="6" fill="#69a7ff"/>
</svg>