<svg xmlns="http://www.w3.org/2000/svg" width="960" height="430" viewBox="0 0 960 430" role="img" aria-label="Composite score history">
<rect width="100%" height="100%" fill="#0b1020" rx="20"/>
<text x="70" y="32" fill="#f5f7fb" font-family="Inter, Arial, sans-serif" font-size="24" font-weight="700">Composite score history</text>
<text x="70" y="52" fill="#93a4c3" font-family="Inter, Arial, sans-serif" font-size="13">Trailing 52 sessions through 2025-10-07</text>
<line x1="70" x2="935" y1="375.00" y2="375.00" stroke="#27314e" stroke-width="1"/>
<text x="58" y="379.00" text-anchor="end" fill="#93a4c3" font-family="Inter, Arial, sans-serif" font-size="12">8</text>
<line x1="70" x2="935" y1="312.00" y2="312.00" stroke="#27314e" stroke-width="1"/>
<text x="58" y="316.00" text-anchor="end" fill="#93a4c3" font-family="Inter, Arial, sans-serif" font-size="12">13</text>
<line x1="70" x2="935" y1="249.00" y2="249.00" stroke="#27314e" stroke-width="1"/>
<text x="58" y="253.00" text-anchor="end" fill="#93a4c3" font-family="Inter, Arial, sans-serif" font-size="12">18</text>
<line x1="70" x2="935" y1="186.00" y2="186.00" stroke="#27314e" stroke-width="1"/>
<text x="58" y="190.00" text-anchor="end" fill="#93a4c3" font-family="Inter, Arial, sans-serif" font-size="12">24</text>
<line x1="70" x2="935" y1="123.00" y2="123.00" stroke="#27314e" stroke-width="1"/>
<text x="58" y="127.00" text-anchor="end" fill="#93a4c3" font-family="Inter, Arial, sans-serif" font-size="12">29</text>
<line x1="70" x2="935" y1="60.00" y2="60.00" stroke="#27314e" stroke-width="1"/>
<text x="58" y="64.00" text-anchor="end" fill="#93a4c3" font-family="Inter, Arial, sans-serif" font-size="12">34</text>
<text x="70.00" y="412" text-anchor="middle" fill="#93a4c3" font-family="Inter, Arial, sans-serif" font-size="12">2025-07-25</text>
<text x="510.98" y="412" text-anchor="middle" fill="#93a4c3" font-family="Inter, Arial, sans-serif" font-size="12">2025-09-02</text>
<text x="935.00" y="412" text-anchor="middle" fill="#93a4c3" font-family="Inter, Arial, sans-serif" font-size="12">2025-10-07</text>
<path d="M 70.00 288.06 L 86.96 286.55 L 103.92 244.40 L 120.88 225.51 L 137.84 186.23 L 154.80 60.00 L 171.76 205.24 L 188.73 195.11 L 205.69 269.42 L 222.65 299.94 L 239.61 291.18 L 256.57 245.15 L 273.53 373.62 L 290.49 369.00 L 307.45 351.61 L 324.41 338.85 L 341.37 340.72 L 358.33 252.15 L 375.29 190.60 L 392.25 140.69 L 409.22 282.93 L 426.18 247.40 L 443.14 268.29 L 460.10 289.31 L 477.06 346.73 L 494.02 290.93 L 510.98 234.76 L 527.94 264.04 L 544.90 321.58 L 561.86 300.07 L 578.82 349.48 L 595.78 372.75 L 612.75 366.87 L 629.71 375.00 L 646.67 352.86 L 663.63 348.98 L 680.59 346.98 L 697.55 336.47 L 714.51 280.55 L 731.47 337.72 L 748.43 302.32 L 765.39 323.33 L 782.35 301.32 L 799.31 229.88 L 816.27 268.04 L 833.24 270.79 L 850.20 290.31 L 867.16 353.36 L 884.12 373.12 L 901.08 334.09 L 918.04 351.36 L 935.00 310.45" fill="none" stroke="#69a7ff" stroke-width="4" stroke-linecap="round" stroke-linejoin="round"/>
<circle cx="935.00" cy="310.45" r="6" fill="#69a7ff"/>
</svg>