<svg xmlns="http://www.w3.org/2000/svg" width="960" height="430" viewBox="0 0 960 430" role="img" aria-label="Composite score history">
<rect width="100%" height="100%" fill="#0b1020" rx="20"/>
<text x="70" y="32" fill="#f5f7fb" font-family="Inter, Arial, sans-serif" font-size="24" font-weight="700">Composite score history</text>
<text x="70" y="52" fill="#93a4c3" font-family="Inter, Arial, sans-serif" font-size="13">Trailing 55 sessions through 2025-10-07</text>
<line x1="70" x2="935" y1="375.00" y2="375.00" stroke="#27314e" stroke-width="1"/>
<text x="58" y="379.00" text-anchor="end" fill="#93a4c3" font-family="Inter, Arial, sans-serif" font-size="12">8</text>
<line x1="70" x2="935" y1="312.00" y2="312.00" stroke="#27314e" stroke-width="1"/>
<text x="58" y="316.00" text-anchor="end" fill="#93a4c3" font-family="Inter, Arial, sans-serif" font-size="12">13</text>
<line x1="70" x2="935" y1="249.00" y2="249.00" stroke="#27314e" stroke-width="1"/>
<text x="58" y="253.00" text-anchor="end" fill="#93a4c3" font-family="Inter, Arial, sans-serif" font-size="12">18</text>
<line x1="70" x2="935" y1="186.00" y2="186.00" stroke="#27314e" stroke-width="1"/>
<text x="58" y="190.00" text-anchor="end" fill="#93a4c3" font-family="Inter, Arial, sans-serif" font-size="12">24</text>
<line x1="70" x2="935" y1="123.00" y2="123.00" stroke="#27314e" stroke-width="1"/>
<text x="58" y="127.00" text-anchor="end" fill="#93a4c3" font-family="Inter, Arial, sans-serif" font-size="12">29</text>
<line x1="70" x2="935" y1="60.00" y2="60.00" stroke="#27314e" stroke-width="1"/>
<text x="58" y="64.00" text-anchor="end" fill="#93a4c3" font-family="Inter, Arial, sans-serif" font-size="12">34</text>
<text x="70.00" y="412" text-anchor="middle" fill="#93a4c3" font-family="Inter, Arial, sans-serif" font-size="12">2025-07-22</text>
<text x="502.50" y="412" text-anchor="middle" fill="#93a4c3" font-family="Inter, Arial, sans-serif" font-size="12">2025-08-28</text>
<text x="935.00" y="412" text-anchor="middle" fill="#93a4c3" font-family="Inter, Arial, sans-serif" font-size="12">2025-10-07</text>
<path d="M 70.00 279.80 L 86.02 291.43 L 102.04 245.90 L 118.06 287.18 L 134.07 286.81 L 150.09 289.56 L 166.11 224.13 L 182.13 216.25 L 198.15 60.00 L 214.17 205.24 L 230.19 195.11 L 246.20 269.42 L 262.22 299.94 L 278.24 291.18 L 294.26 245.15 L 310.28 373.62 L 326.30 369.00 L 342.31 351.61 L 358.33 338.85 L 374.35 340.72 L 390.37 252.15 L 406.39 190.60 L 422.41 140.69 L 438.43 282.93 L 454.44 247.40 L 470.46 268.29 L 486.48 289.31 L 502.50 346.73 L 518.52 290.93 L 534.54 234.76 L 550.56 264.04 L 566.57 321.58 L 582.59 300.07 L 598.61 349.48 L 614.63 372.75 L 630.65 366.87 L 646.67 375.00 L 662.69 352.86 L 678.70 348.98 L 694.72 346.98 L 710.74 336.47 L 726.76 280.55 L 742.78 337.72 L 758.80 302.32 L 774.81 323.33 L 790.83 301.32 L 806.85 229.88 L 822.87 268.04 L 838.89 270.79 L 854.91 290.31 L 870.93 353.36 L 886.94 373.12 L 902.96 334.09 L 918.98 351.36 L 935.00 310.45" fill="none" stroke="#69a7ff" stroke-width="4" stroke-linecap="round" stroke-linejoin="round"/>
<circle cx="935.00" cy="310.45" r="6" fill="#69a7ff"/>
</svg>