<svg xmlns="http://www.w3.org/2000/svg" width="960" height="430" viewBox="0 0 960 430" role="img" aria-label="Composite score history">
<rect width="100%" height="100%" fill="#0b1020" rx="20"/>
<text x="70" y="32" fill="#f5f7fb" font-family="Inter, Arial, sans-serif" font-size="24" font-weight="700">Composite score history</text>
<text x="70" y="52" fill="#93a4c3" font-family="Inter, Arial, sans-serif" font-size="13">Trailing 60 sessions through 2025-11-03</text>
<line x1="70" x2="935" y1="375.00" y2="375.00" stroke="#27314e" stroke-width="1"/>
<text x="58" y="379.00" text-anchor="end" fill="#93a4c3" font-family="Inter, Arial, sans-serif" font-size="12">5</text>
<line x1="70" x2="935" y1="312.00" y2="312.00" stroke="#27314e" stroke-width="1"/>
<text x="58" y="316.00" text-anchor="end" fill="#93a4c3" font-family="Inter, Arial, sans-serif" font-size="12">11</text>
<line x1="70" x2="935" y1="249.00" y2="249.00" stroke="#27314e" stroke-width="1"/>
<text x="58" y="253.00" text-anchor="end" fill="#93a4c3" font-family="Inter, Arial, sans-serif" font-size="12">17</text>
<line x1="70" x2="935" y1="186.00" y2="186.00" stroke="#27314e" stroke-width="1"/>
<text x="58" y="190.00" text-anchor="end" fill="#93a4c3" font-family="Inter, Arial, sans-serif" font-size="12">23</text>
<line x1="70" x2="935" y1="123.00" y2="123.00" stroke="#27314e" stroke-width="1"/>
<text x="58" y="127.00" text-anchor="end" fill="#93a4c3" font-family="Inter, Arial, sans-serif" font-size="12">29</text>
<line x1="70" x2="935" y1="60.00" y2="60.00" stroke="#27314e" stroke-width="1"/>
<text x="58" y="64.00" text-anchor="end" fill="#93a4c3" font-family="Inter, Arial, sans-serif" font-size="12">35</text>
<text x="70.00" y="412" text-anchor="middle" fill="#93a4c3" font-family="Inter, Arial, sans-serif" font-size="12">2025-08-08</text>
<text x="509.83" y="412" text-anchor="middle" fill="#93a4c3" font-family="Inter, Arial, sans-serif" font-size="12">2025-09-22</text>
<text x="935.00" y="412" text-anchor="middle" fill="#93a4c3" font-family="Inter, Arial, sans-serif" font-size="12">2025-11-03</text>
<path d="M 70.00 276.51 L 84.66 243.68 L 99.32 310.82 L 113.98 326.44 L 128.64 318.00 L 143.31 309.02 L 157.97 310.61 L 172.63 235.87 L 187.29 183.93 L 201.95 141.81 L 216.61 261.84 L 231.27 231.86 L 245.93 249.49 L 260.59 267.22 L 275.25 315.67 L 289.92 268.59 L 304.58 221.19 L 319.24 245.90 L 333.90 294.46 L 348.56 276.30 L 363.22 318.00 L 377.88 337.63 L 392.54 332.67 L 407.20 339.53 L 421.86 320.85 L 436.53 317.57 L 451.19 315.88 L 465.85 307.02 L 480.51 259.83 L 495.17 308.07 L 509.83 278.20 L 524.49 295.93 L 539.15 277.35 L 553.81 217.08 L 568.47 249.27 L 583.14 251.60 L 597.80 268.06 L 612.46 321.27 L 627.12 337.95 L 641.78 305.01 L 656.44 319.58 L 671.10 285.06 L 685.76 295.09 L 700.42 264.79 L 715.08 80.69 L 729.75 152.37 L 744.41 203.46 L 759.07 60.00 L 773.73 180.66 L 788.39 375.00 L 803.05 338.05 L 817.71 304.06 L 832.37 230.70 L 847.03 279.99 L 861.69 304.27 L 876.36 323.49 L 891.02 278.41 L 905.68 263.63 L 920.34 236.50 L 935.00 176.22" fill="none" stroke="#69a7ff" stroke-width="4" stroke-linecap="round" stroke-linejoin="round"/>
<circle cx="935.00" cy="176.22" r="6" fill="#69a7ff"/>
</svg>