<svg xmlns="http://www.w3.org/2000/svg" width="960" height="430" viewBox="0 0 960 430" role="img" aria-label="Composite score history">
<rect width="100%" height="100%" fill="#0b1020" rx="20"/>
<text x="70" y="32" fill="#f5f7fb" font-family="Inter, Arial, sans-serif" font-size="24" font-weight="700">Composite score history</text>
<text x="70" y="52" fill="#93a4c3" font-family="Inter, Arial, sans-serif" font-size="13">Trailing 77 sessions through 2025-11-03</text>
<line x1="70" x2="935" y1="375.00" y2="375.00" stroke="#27314e" stroke-width="1"/>
<text x="58" y="379.00" text-anchor="end" fill="#93a4c3" font-family="Inter, Arial, sans-serif" font-size="12">12</text>
<line x1="70" x2="935" y1="312.00" y2="312.00" stroke="#27314e" stroke-width="1"/>
<text x="58" y="316.00" text-anchor="end" fill="#93a4c3" font-family="Inter, Arial, sans-serif" font-size="12">16</text>
<line x1="70" x2="935" y1="249.00" y2="249.00" stroke="#27314e" stroke-width="1"/>
<text x="58" y="253.00" text-anchor="end" fill="#93a4c3" font-family="Inter, Arial, sans-serif" font-size="12">21</text>
<line x1="70" x2="935" y1="186.00" y2="186.00" stroke="#27314e" stroke-width="1"/>
<text x="58" y="190.00" text-anchor="end" fill="#93a4c3" font-family="Inter, Arial, sans-serif" font-size="12">26</text>
<line x1="70" x2="935" y1="123.00" y2="123.00" stroke="#27314e" stroke-width="1"/>
<text x="58" y="127.00" text-anchor="end" fill="#93a4c3" font-family="Inter, Arial, sans-serif" font-size="12">30</text>
<line x1="70" x2="935" y1="60.00" y2="60.00" stroke="#27314e" stroke-width="1"/>
<text x="58" y="64.00" text-anchor="end" fill="#93a4c3" font-family="Inter, Arial, sans-serif" font-size="12">35</text>
<text x="70.00" y="412" text-anchor="middle" fill="#93a4c3" font-family="Inter, Arial, sans-serif" font-size="12">2025-07-16</text>
<text x="502.50" y="412" text-anchor="middle" fill="#93a4c3" font-family="Inter, Arial, sans-serif" font-size="12">2025-09-09</text>
<text x="935.00" y="412" text-anchor="middle" fill="#93a4c3" font-family="Inter, Arial, sans-serif" font-size="12">2025-11-03</text>
<path d="M 70.00 300.87 L 81.38 253.07 L 92.76 299.78 L 104.14 308.88 L 115.53 316.21 L 126.91 329.52 L 138.29 314.31 L 149.67 308.88 L 161.05 291.63 L 172.43 293.81 L 183.82 253.62 L 195.20 247.23 L 206.58 77.79 L 217.96 235.29 L 229.34 224.29 L 240.72 304.94 L 252.11 337.66 L 263.49 246.28 L 274.87 255.25 L 286.25 339.02 L 297.63 348.12 L 309.01 325.31 L 320.39 348.25 L 331.78 342.01 L 343.16 286.20 L 354.54 219.40 L 365.92 165.23 L 377.30 310.64 L 388.68 281.04 L 400.07 274.80 L 411.45 281.04 L 422.83 318.65 L 434.21 328.29 L 445.59 267.33 L 456.97 299.10 L 468.36 350.83 L 479.74 338.20 L 491.12 373.51 L 502.50 365.77 L 513.88 366.58 L 525.26 375.00 L 536.64 341.73 L 548.03 328.56 L 559.41 340.11 L 570.79 342.14 L 582.17 294.08 L 593.55 337.80 L 604.93 300.46 L 616.32 337.80 L 627.70 320.28 L 639.08 262.03 L 650.46 303.45 L 661.84 306.43 L 673.22 311.46 L 684.61 358.71 L 695.99 360.61 L 707.37 338.34 L 718.75 353.55 L 730.13 336.17 L 741.51 340.78 L 752.89 313.36 L 764.28 86.61 L 775.66 178.67 L 787.04 244.52 L 798.42 60.00 L 809.80 215.19 L 821.18 370.52 L 832.57 371.06 L 843.95 359.52 L 855.33 223.61 L 866.71 278.06 L 878.09 303.72 L 889.47 320.42 L 900.86 243.98 L 912.24 279.69 L 923.62 262.85 L 935.00 209.49" fill="none" stroke="#69a7ff" stroke-width="4" stroke-linecap="round" stroke-linejoin="round"/>
<circle cx="935.00" cy="209.49" r="6" fill="#69a7ff"/>
<text x="927.00" y="197.49" text-anchor="end" fill="#f5f7fb" font-family="Inter, Arial, sans-serif" font-size="12" font-weight="600">23.87</text>
</svg>