<svg xmlns="http://www.w3.org/2000/svg" width="960" height="430" viewBox="0 0 960 430" role="img" aria-label="Composite score history">
<rect width="100%" height="100%" fill="#0b1020" rx="20"/>
<text x="70" y="32" fill="#f5f7fb" font-family="Inter, Arial, sans-serif" font-size="24" font-weight="700">Composite score history</text>
<text x="70" y="52" fill="#93a4c3" font-family="Inter, Arial, sans-serif" font-size="13">Trailing 78 sessions through 2025-11-03</text>
<line x1="70" x2="935" y1="375.00" y2="375.00" stroke="#27314e" stroke-width="1"/>
<text x="58" y="379.00" text-anchor="end" fill="#93a4c3" font-family="Inter, Arial, sans-serif" font-size="12">12</text>
<line x1="70" x2="935" y1="312.00" y2="312.00" stroke="#27314e" stroke-width="1"/>
<text x="58" y="316.00" text-anchor="end" fill="#93a4c3" font-family="Inter, Arial, sans-serif" font-size="12">16</text>
<line x1="70" x2="935" y1="249.00" y2="249.00" stroke="#27314e" stroke-width="1"/>
<text x="58" y="253.00" text-anchor="end" fill="#93a4c3" font-family="Inter, Arial, sans-serif" font-size="12">21</text>
<line x1="70" x2="935" y1="186.00" y2="186.00" stroke="#27314e" stroke-width="1"/>
<text x="58" y="190.00" text-anchor="end" fill="#93a4c3" font-family="Inter, Arial, sans-serif" font-size="12">26</text>
<line x1="70" x2="935" y1="123.00" y2="123.00" stroke="#27314e" stroke-width="1"/>
<text x="58" y="127.00" text-anchor="end" fill="#93a4c3" font-family="Inter, Arial, sans-serif" font-size="12">30</text>
<line x1="70" x2="935" y1="60.00" y2="60.00" stroke="#27314e" stroke-width="1"/>
<text x="58" y="64.00" text-anchor="end" fill="#93a4c3" font-family="Inter, Arial, sans-serif" font-size="12">35</text>
<text x="70.00" y="412" text-anchor="middle" fill="#93a4c3" font-family="Inter, Arial, sans-serif" font-size="12">2025-07-15</text>
<text x="508.12" y="412" text-anchor="middle" fill="#93a4c3" font-family="Inter, Arial, sans-serif" font-size="12">2025-09-09</text>
<text x="935.00" y="412" text-anchor="middle" fill="#93a4c3" font-family="Inter, Arial, sans-serif" font-size="12">2025-11-03</text>
<path d="M 70.00 294.35 L 81.23 294.08 L 92.47 262.58 L 103.70 292.99 L 114.94 302.09 L 126.17 316.21 L 137.40 329.52 L 148.64 314.31 L 159.87 308.88 L 171.10 291.63 L 182.34 293.81 L 193.57 253.62 L 204.81 247.23 L 216.04 77.79 L 227.27 235.29 L 238.51 224.29 L 249.74 304.94 L 260.97 337.66 L 272.21 246.28 L 283.44 255.25 L 294.68 339.02 L 305.91 348.12 L 317.14 325.31 L 328.38 348.25 L 339.61 342.01 L 350.84 286.20 L 362.08 219.40 L 373.31 165.23 L 384.55 310.64 L 395.78 281.04 L 407.01 274.80 L 418.25 281.04 L 429.48 318.65 L 440.71 328.29 L 451.95 267.33 L 463.18 299.10 L 474.42 350.83 L 485.65 338.20 L 496.88 373.51 L 508.12 365.77 L 519.35 366.58 L 530.58 375.00 L 541.82 341.73 L 553.05 328.56 L 564.29 340.11 L 575.52 342.14 L 586.75 294.08 L 597.99 337.80 L 609.22 300.46 L 620.45 337.80 L 631.69 320.28 L 642.92 262.03 L 654.16 303.45 L 665.39 306.43 L 676.62 311.46 L 687.86 358.71 L 699.09 360.61 L 710.32 338.34 L 721.56 353.55 L 732.79 336.17 L 744.03 340.78 L 755.26 313.36 L 766.49 86.61 L 777.73 178.67 L 788.96 244.52 L 800.19 60.00 L 811.43 215.19 L 822.66 370.52 L 833.90 371.06 L 845.13 359.52 L 856.36 223.61 L 867.60 278.06 L 878.83 303.72 L 890.06 320.42 L 901.30 243.98 L 912.53 279.69 L 923.77 262.85 L 935.00 209.49" fill="none" stroke="#69a7ff" stroke-width="4" stroke-linecap="round" stroke-linejoin="round"/>
<circle cx="935.00" cy="209.49" r="6" fill="#69a7ff"/>
<text x="927.00" y="197.49" text-anchor="end" fill="#f5f7fb" font-family="Inter, Arial, sans-serif" font-size="12" font-weight="600">23.87</text>
</svg>