<svg xmlns="http://www.w3.org/2000/svg" width="960" height="430" viewBox="0 0 960 430" role="img" aria-label="Composite score history">
<rect width="100%" height="100%" fill="#0b1020" rx="20"/>
<text x="70" y="32" fill="#f5f7fb" font-family="Inter, Arial, sans-serif" font-size="24" font-weight="700">Composite score history</text>
<text x="70" y="52" fill="#93a4c3" font-family="Inter, Arial, sans-serif" font-size="13">Trailing 56 sessions through 2025-11-03</text>
<line x1="70" x2="935" y1="375.00" y2="375.00" stroke="#27314e" stroke-width="1"/>
<text x="58" y="379.00" text-anchor="end" fill="#93a4c3" font-family="Inter, Arial, sans-serif" font-size="12">5</text>
<line x1="70" x2="935" y1="312.00" y2="312.00" stroke="#27314e" stroke-width="1"/>
<text x="58" y="316.00" text-anchor="end" fill="#93a4c3" font-family="Inter, Arial, sans-serif" font-size="12">11</text>
<line x1="70" x2="935" y1="249.00" y2="249.00" stroke="#27314e" stroke-width="1"/>
<text x="58" y="253.00" text-anchor="end" fill="#93a4c3" font-family="Inter, Arial, sans-serif" font-size="12">17</text>
<line x1="70" x2="935" y1="186.00" y2="186.00" stroke="#27314e" stroke-width="1"/>
<text x="58" y="190.00" text-anchor="end" fill="#93a4c3" font-family="Inter, Arial, sans-serif" font-size="12">23</text>
<line x1="70" x2="935" y1="123.00" y2="123.00" stroke="#27314e" stroke-width="1"/>
<text x="58" y="127.00" text-anchor="end" fill="#93a4c3" font-family="Inter, Arial, sans-serif" font-size="12">29</text>
<line x1="70" x2="935" y1="60.00" y2="60.00" stroke="#27314e" stroke-width="1"/>
<text x="58" y="64.00" text-anchor="end" fill="#93a4c3" font-family="Inter, Arial, sans-serif" font-size="12">35</text>
<text x="70.00" y="412" text-anchor="middle" fill="#93a4c3" font-family="Inter, Arial, sans-serif" font-size="12">2025-08-14</text>
<text x="510.36" y="412" text-anchor="middle" fill="#93a4c3" font-family="Inter, Arial, sans-serif" font-size="12">2025-09-24</text>
<text x="935.00" y="412" text-anchor="middle" fill="#93a4c3" font-family="Inter, Arial, sans-serif" font-size="12">2025-11-03</text>
<path d="M 70.00 285.27 L 85.73 262.05 L 101.45 253.39 L 117.18 226.79 L 132.91 215.28 L 148.64 141.81 L 164.36 261.84 L 180.09 231.86 L 195.82 249.49 L 211.55 267.22 L 227.27 315.67 L 243.00 268.59 L 258.73 221.19 L 274.45 245.90 L 290.18 294.46 L 305.91 276.30 L 321.64 318.00 L 337.36 337.63 L 353.09 332.67 L 368.82 339.53 L 384.55 320.85 L 400.27 317.57 L 416.00 315.88 L 431.73 307.02 L 447.45 259.83 L 463.18 308.07 L 478.91 278.20 L 494.64 295.93 L 510.36 277.35 L 526.09 217.08 L 541.82 249.27 L 557.55 251.60 L 573.27 268.06 L 589.00 321.27 L 604.73 337.95 L 620.45 305.01 L 636.18 319.58 L 651.91 285.06 L 667.64 295.09 L 683.36 264.79 L 699.09 80.69 L 714.82 152.37 L 730.55 203.46 L 746.27 60.00 L 762.00 180.66 L 777.73 375.00 L 793.45 338.05 L 809.18 304.06 L 824.91 230.70 L 840.64 279.99 L 856.36 304.27 L 872.09 323.49 L 887.82 278.41 L 903.55 263.63 L 919.27 236.50 L 935.00 176.22" fill="none" stroke="#69a7ff" stroke-width="4" stroke-linecap="round" stroke-linejoin="round"/>
<circle cx="935.00" cy="176.22" r="6" fill="#69a7ff"/>
</svg>