<svg xmlns="http://www.w3.org/2000/svg" width="960" height="430" viewBox="0 0 960 430" role="img" aria-label="Composite score history">
<rect width="100%" height="100%" fill="#0b1020" rx="20"/>
<text x="70" y="32" fill="#f5f7fb" font-family="Inter, Arial, sans-serif" font-size="24" font-weight="700">Composite score history</text>
<text x="70" y="52" fill="#93a4c3" font-family="Inter, Arial, sans-serif" font-size="13">Trailing 74 sessions through 2025-11-03</text>
<line x1="70" x2="935" y1="375.00" y2="375.00" stroke="#27314e" stroke-width="1"/>
<text x="58" y="379.00" text-anchor="end" fill="#93a4c3" font-family="Inter, Arial, sans-serif" font-size="12">5</text>
<line x1="70" x2="935" y1="312.00" y2="312.00" stroke="#27314e" stroke-width="1"/>
<text x="58" y="316.00" text-anchor="end" fill="#93a4c3" font-family="Inter, Arial, sans-serif" font-size="12">11</text>
<line x1="70" x2="935" y1="249.00" y2="249.00" stroke="#27314e" stroke-width="1"/>
<text x="58" y="253.00" text-anchor="end" fill="#93a4c3" font-family="Inter, Arial, sans-serif" font-size="12">17</text>
<line x1="70" x2="935" y1="186.00" y2="186.00" stroke="#27314e" stroke-width="1"/>
<text x="58" y="190.00" text-anchor="end" fill="#93a4c3" font-family="Inter, Arial, sans-serif" font-size="12">23</text>
<line x1="70" x2="935" y1="123.00" y2="123.00" stroke="#27314e" stroke-width="1"/>
<text x="58" y="127.00" text-anchor="end" fill="#93a4c3" font-family="Inter, Arial, sans-serif" font-size="12">29</text>
<line x1="70" x2="935" y1="60.00" y2="60.00" stroke="#27314e" stroke-width="1"/>
<text x="58" y="64.00" text-anchor="end" fill="#93a4c3" font-family="Inter, Arial, sans-serif" font-size="12">35</text>
<text x="70.00" y="412" text-anchor="middle" fill="#93a4c3" font-family="Inter, Arial, sans-serif" font-size="12">2025-07-21</text>
<text x="508.42" y="412" text-anchor="middle" fill="#93a4c3" font-family="Inter, Arial, sans-serif" font-size="12">2025-09-11</text>
<text x="935.00" y="412" text-anchor="middle" fill="#93a4c3" font-family="Inter, Arial, sans-serif" font-size="12">2025-11-03</text>
<path d="M 70.00 253.50 L 81.85 260.89 L 93.70 279.15 L 105.55 251.28 L 117.40 275.67 L 129.25 275.35 L 141.10 267.43 L 152.95 212.22 L 164.79 205.57 L 176.64 73.72 L 188.49 196.28 L 200.34 187.73 L 212.19 250.44 L 224.04 276.19 L 235.89 268.80 L 247.74 229.96 L 259.59 338.37 L 271.44 334.46 L 283.29 319.79 L 295.14 309.02 L 306.99 310.61 L 318.84 235.87 L 330.68 183.93 L 342.53 141.81 L 354.38 261.84 L 366.23 231.86 L 378.08 249.49 L 389.93 267.22 L 401.78 315.67 L 413.63 268.59 L 425.48 221.19 L 437.33 245.90 L 449.18 294.46 L 461.03 276.30 L 472.88 318.00 L 484.73 337.63 L 496.58 332.67 L 508.42 339.53 L 520.27 320.85 L 532.12 317.57 L 543.97 315.88 L 555.82 307.02 L 567.67 259.83 L 579.52 308.07 L 591.37 278.20 L 603.22 295.93 L 615.07 277.35 L 626.92 217.08 L 638.77 249.27 L 650.62 251.60 L 662.47 268.06 L 674.32 321.27 L 686.16 337.95 L 698.01 305.01 L 709.86 319.58 L 721.71 285.06 L 733.56 295.09 L 745.41 264.79 L 757.26 80.69 L 769.11 152.37 L 780.96 203.46 L 792.81 60.00 L 804.66 180.66 L 816.51 375.00 L 828.36 338.05 L 840.21 304.06 L 852.05 230.70 L 863.90 279.99 L 875.75 304.27 L 887.60 323.49 L 899.45 278.41 L 911.30 263.63 L 923.15 236.50 L 935.00 176.22" fill="none" stroke="#69a7ff" stroke-width="4" stroke-linecap="round" stroke-linejoin="round"/>
<circle cx="935.00" cy="176.22" r="6" fill="#69a7ff"/>
</svg>