<svg xmlns="http://www.w3.org/2000/svg" width="960" height="430" viewBox="0 0 960 430" role="img" aria-label="Composite score history">
<rect width="100%" height="100%" fill="#0b1020" rx="20"/>
<text x="70" y="32" fill="#f5f7fb" font-family="Inter, Arial, sans-serif" font-size="24" font-weight="700">Composite score history</text>
<text x="70" y="52" fill="#93a4c3" font-family="Inter, Arial, sans-serif" font-size="13">Trailing 49 sessions through 2025-11-03</text>
<line x1="70" x2="935" y1="375.00" y2="375.00" stroke="#27314e" stroke-width="1"/>
<text x="58" y="379.00" text-anchor="end" fill="#93a4c3" font-family="Inter, Arial, sans-serif" font-size="12">5</text>
<line x1="70" x2="935" y1="312.00" y2="312.00" stroke="#27314e" stroke-width="1"/>
<text x="58" y="316.00" text-anchor="end" fill="#93a4c3" font-family="Inter, Arial, sans-serif" font-size="12">11</text>
<line x1="70" x2="935" y1="249.00" y2="249.00" stroke="#27314e" stroke-width="1"/>
<text x="58" y="253.00" text-anchor="end" fill="#93a4c3" font-family="Inter, Arial, sans-serif" font-size="12">17</text>
<line x1="70" x2="935" y1="186.00" y2="186.00" stroke="#27314e" stroke-width="1"/>
<text x="58" y="190.00" text-anchor="end" fill="#93a4c3" font-family="Inter, Arial, sans-serif" font-size="12">23</text>
<line x1="70" x2="935" y1="123.00" y2="123.00" stroke="#27314e" stroke-width="1"/>
<text x="58" y="127.00" text-anchor="end" fill="#93a4c3" font-family="Inter, Arial, sans-serif" font-size="12">29</text>
<line x1="70" x2="935" y1="60.00" y2="60.00" stroke="#27314e" stroke-width="1"/>
<text x="58" y="64.00" text-anchor="end" fill="#93a4c3" font-family="Inter, Arial, sans-serif" font-size="12">35</text>
<text x="70.00" y="412" text-anchor="middle" fill="#93a4c3" font-family="Inter, Arial, sans-serif" font-size="12">2025-08-25</text>
<text x="502.50" y="412" text-anchor="middle" fill="#93a4c3" font-family="Inter, Arial, sans-serif" font-size="12">2025-09-29</text>
<text x="935.00" y="412" text-anchor="middle" fill="#93a4c3" font-family="Inter, Arial, sans-serif" font-size="12">2025-11-03</text>
<path d="M 70.00 276.83 L 88.02 290.66 L 106.04 296.04 L 124.06 313.14 L 142.08 288.23 L 160.10 221.19 L 178.12 245.90 L 196.15 294.46 L 214.17 276.30 L 232.19 318.00 L 250.21 337.63 L 268.23 332.67 L 286.25 339.53 L 304.27 320.85 L 322.29 317.57 L 340.31 315.88 L 358.33 307.02 L 376.35 259.83 L 394.38 308.07 L 412.40 278.20 L 430.42 295.93 L 448.44 277.35 L 466.46 217.08 L 484.48 249.27 L 502.50 251.60 L 520.52 268.06 L 538.54 321.27 L 556.56 337.95 L 574.58 305.01 L 592.60 319.58 L 610.62 285.06 L 628.65 295.09 L 646.67 264.79 L 664.69 80.69 L 682.71 152.37 L 700.73 203.46 L 718.75 60.00 L 736.77 180.66 L 754.79 375.00 L 772.81 338.05 L 790.83 304.06 L 808.85 230.70 L 826.88 279.99 L 844.90 304.27 L 862.92 323.49 L 880.94 278.41 L 898.96 263.63 L 916.98 236.50 L 935.00 176.22" fill="none" stroke="#69a7ff" stroke-width="4" stroke-linecap="round" stroke-linejoin="round"/>
<circle cx="935.00" cy="176.22" r="6" fill="#69a7ff"/>
</svg>