<svg xmlns="http://www.w3.org/2000/svg" width="960" height="430" viewBox="0 0 960 430" role="img" aria-label="Composite score history">
<rect width="100%" height="100%" fill="#0b1020" rx="20"/>
<text x="70" y="32" fill="#f5f7fb" font-family="Inter, Arial, sans-serif" font-size="24" font-weight="700">Composite score history</text>
<text x="70" y="52" fill="#93a4c3" font-family="Inter, Arial, sans-serif" font-size="13">Trailing 90 sessions through 2026-05-05</text>
<line x1="70" x2="935" y1="375.00" y2="375.00" stroke="#27314e" stroke-width="1"/>
<text x="58" y="379.00" text-anchor="end" fill="#93a4c3" font-family="Inter, Arial, sans-serif" font-size="12">0</text>
<line x1="70" x2="935" y1="312.00" y2="312.00" stroke="#27314e" stroke-width="1"/>
<text x="58" y="316.00" text-anchor="end" fill="#93a4c3" font-family="Inter, Arial, sans-serif" font-size="12">12</text>
<line x1="70" x2="935" y1="249.00" y2="249.00" stroke="#27314e" stroke-width="1"/>
<text x="58" y="253.00" text-anchor="end" fill="#93a4c3" font-family="Inter, Arial, sans-serif" font-size="12">24</text>
<line x1="70" x2="935" y1="186.00" y2="186.00" stroke="#27314e" stroke-width="1"/>
<text x="58" y="190.00" text-anchor="end" fill="#93a4c3" font-family="Inter, Arial, sans-serif" font-size="12">36</text>
<line x1="70" x2="935" y1="123.00" y2="123.00" stroke="#27314e" stroke-width="1"/>
<text x="58" y="127.00" text-anchor="end" fill="#93a4c3" font-family="Inter, Arial, sans-serif" font-size="12">48</text>
<line x1="70" x2="935" y1="60.00" y2="60.00" stroke="#27314e" stroke-width="1"/>
<text x="58" y="64.00" text-anchor="end" fill="#93a4c3" font-family="Inter, Arial, sans-serif" font-size="12">60</text>
<text x="70.00" y="412" text-anchor="middle" fill="#93a4c3" font-family="Inter, Arial, sans-serif" font-size="12">2025-12-24</text>
<text x="507.36" y="412" text-anchor="middle" fill="#93a4c3" font-family="Inter, Arial, sans-serif" font-size="12">2026-03-03</text>
<text x="935.00" y="412" text-anchor="middle" fill="#93a4c3" font-family="Inter, Arial, sans-serif" font-size="12">2026-05-05</text>
<path d="M 70.00 375.00 L 79.72 365.30 L 89.44 346.00 L 99.16 330.23 L 108.88 291.69 L 118.60 282.73 L 128.31 288.84 L 138.03 305.93 L 147.75 303.45 L 157.47 314.26 L 167.19 316.26 L 176.91 293.11 L 186.63 277.66 L 196.35 279.72 L 206.07 286.05 L 215.79 262.32 L 225.51 174.00 L 235.22 235.27 L 244.94 263.85 L 254.66 254.20 L 264.38 287.89 L 274.10 318.63 L 283.82 296.96 L 293.54 273.87 L 303.26 272.39 L 312.98 279.98 L 322.70 233.69 L 332.42 236.01 L 342.13 192.72 L 351.85 290.74 L 361.57 287.73 L 371.29 303.45 L 381.01 306.66 L 390.73 294.27 L 400.45 242.76 L 410.17 235.37 L 419.89 257.78 L 429.61 248.56 L 439.33 308.46 L 449.04 284.15 L 458.76 304.45 L 468.48 314.68 L 478.20 308.77 L 487.92 283.09 L 497.64 266.43 L 507.36 193.72 L 517.08 208.48 L 526.80 159.71 L 536.52 60.00 L 546.24 158.76 L 555.96 209.85 L 565.67 153.75 L 575.39 87.00 L 585.11 149.01 L 594.83 191.08 L 604.55 188.24 L 614.27 134.24 L 623.99 218.24 L 633.71 148.16 L 643.43 155.97 L 653.15 108.25 L 662.87 220.66 L 672.58 130.97 L 682.30 146.58 L 692.02 98.86 L 701.74 240.28 L 711.46 235.64 L 721.18 273.44 L 730.90 289.05 L 740.62 289.32 L 750.34 312.83 L 760.06 320.69 L 769.78 311.83 L 779.49 322.96 L 789.21 342.10 L 798.93 308.88 L 808.65 307.67 L 818.37 343.68 L 828.09 319.79 L 837.81 275.92 L 847.53 282.88 L 857.25 265.96 L 866.97 245.71 L 876.69 260.68 L 886.40 265.75 L 896.12 218.50 L 905.84 255.94 L 915.56 239.33 L 925.28 200.89 L 935.00 260.53" fill="none" stroke="#69a7ff" stroke-width="4" stroke-linecap="round" stroke-linejoin="round"/>
<circle cx="935.00" cy="260.53" r="6" fill="#69a7ff"/>
</svg>