<svg xmlns="http://www.w3.org/2000/svg" width="960" height="430" viewBox="0 0 960 430" role="img" aria-label="Composite score history">
<rect width="100%" height="100%" fill="#0b1020" rx="20"/>
<text x="70" y="32" fill="#f5f7fb" font-family="Inter, Arial, sans-serif" font-size="24" font-weight="700">Composite score history</text>
<text x="70" y="52" fill="#93a4c3" font-family="Inter, Arial, sans-serif" font-size="13">Trailing 40 sessions through 2025-10-15</text>
<line x1="70" x2="935" y1="375.00" y2="375.00" stroke="#27314e" stroke-width="1"/>
<text x="58" y="379.00" text-anchor="end" fill="#93a4c3" font-family="Inter, Arial, sans-serif" font-size="12">8</text>
<line x1="70" x2="935" y1="312.00" y2="312.00" stroke="#27314e" stroke-width="1"/>
<text x="58" y="316.00" text-anchor="end" fill="#93a4c3" font-family="Inter, Arial, sans-serif" font-size="12">13</text>
<line x1="70" x2="935" y1="249.00" y2="249.00" stroke="#27314e" stroke-width="1"/>
<text x="58" y="253.00" text-anchor="end" fill="#93a4c3" font-family="Inter, Arial, sans-serif" font-size="12">18</text>
<line x1="70" x2="935" y1="186.00" y2="186.00" stroke="#27314e" stroke-width="1"/>
<text x="58" y="190.00" text-anchor="end" fill="#93a4c3" font-family="Inter, Arial, sans-serif" font-size="12">23</text>
<line x1="70" x2="935" y1="123.00" y2="123.00" stroke="#27314e" stroke-width="1"/>
<text x="58" y="127.00" text-anchor="end" fill="#93a4c3" font-family="Inter, Arial, sans-serif" font-size="12">28</text>
<line x1="70" x2="935" y1="60.00" y2="60.00" stroke="#27314e" stroke-width="1"/>
<text x="58" y="64.00" text-anchor="end" fill="#93a4c3" font-family="Inter, Arial, sans-serif" font-size="12">33</text>
<text x="70.00" y="412" text-anchor="middle" fill="#93a4c3" font-family="Inter, Arial, sans-serif" font-size="12">2025-08-19</text>
<text x="513.59" y="412" text-anchor="middle" fill="#93a4c3" font-family="Inter, Arial, sans-serif" font-size="12">2025-09-17</text>
<text x="935.00" y="412" text-anchor="middle" fill="#93a4c3" font-family="Inter, Arial, sans-serif" font-size="12">2025-10-15</text>
<path d="M 70.00 308.58 L 92.18 282.89 L 114.36 179.22 L 136.54 280.45 L 158.72 248.46 L 180.90 265.42 L 203.08 287.00 L 225.26 345.97 L 247.44 288.67 L 269.62 230.99 L 291.79 261.05 L 313.97 320.14 L 336.15 298.05 L 358.33 348.79 L 380.51 372.69 L 402.69 366.65 L 424.87 375.00 L 447.05 352.26 L 469.23 348.28 L 491.41 346.22 L 513.59 335.43 L 535.77 278.01 L 557.95 336.72 L 580.13 300.36 L 602.31 321.94 L 624.49 299.33 L 646.67 225.98 L 668.85 265.16 L 691.03 267.99 L 713.21 288.03 L 735.38 352.78 L 757.56 373.07 L 779.74 332.99 L 801.92 350.72 L 824.10 308.71 L 846.28 320.92 L 868.46 284.05 L 890.64 60.00 L 912.82 147.23 L 935.00 209.41" fill="none" stroke="#69a7ff" stroke-width="4" stroke-linecap="round" stroke-linejoin="round"/>
<circle cx="935.00" cy="209.41" r="6" fill="#69a7ff"/>
</svg>