<svg xmlns="http://www.w3.org/2000/svg" width="960" height="430" viewBox="0 0 960 430" role="img" aria-label="Composite score history">
<rect width="100%" height="100%" fill="#0b1020" rx="20"/>
<text x="70" y="32" fill="#f5f7fb" font-family="Inter, Arial, sans-serif" font-size="24" font-weight="700">Composite score history</text>
<text x="70" y="52" fill="#93a4c3" font-family="Inter, Arial, sans-serif" font-size="13">Trailing 59 sessions through 2026-01-30</text>
<line x1="70" x2="935" y1="375.00" y2="375.00" stroke="#27314e" stroke-width="1"/>
<text x="58" y="379.00" text-anchor="end" fill="#93a4c3" font-family="Inter, Arial, sans-serif" font-size="12">0</text>
<line x1="70" x2="935" y1="312.00" y2="312.00" stroke="#27314e" stroke-width="1"/>
<text x="58" y="316.00" text-anchor="end" fill="#93a4c3" font-family="Inter, Arial, sans-serif" font-size="12">8</text>
<line x1="70" x2="935" y1="249.00" y2="249.00" stroke="#27314e" stroke-width="1"/>
<text x="58" y="253.00" text-anchor="end" fill="#93a4c3" font-family="Inter, Arial, sans-serif" font-size="12">17</text>
<line x1="70" x2="935" y1="186.00" y2="186.00" stroke="#27314e" stroke-width="1"/>
<text x="58" y="190.00" text-anchor="end" fill="#93a4c3" font-family="Inter, Arial, sans-serif" font-size="12">25</text>
<line x1="70" x2="935" y1="123.00" y2="123.00" stroke="#27314e" stroke-width="1"/>
<text x="58" y="127.00" text-anchor="end" fill="#93a4c3" font-family="Inter, Arial, sans-serif" font-size="12">33</text>
<line x1="70" x2="935" y1="60.00" y2="60.00" stroke="#27314e" stroke-width="1"/>
<text x="58" y="64.00" text-anchor="end" fill="#93a4c3" font-family="Inter, Arial, sans-serif" font-size="12">41</text>
<text x="70.00" y="412" text-anchor="middle" fill="#93a4c3" font-family="Inter, Arial, sans-serif" font-size="12">2025-11-04</text>
<text x="502.50" y="412" text-anchor="middle" fill="#93a4c3" font-family="Inter, Arial, sans-serif" font-size="12">2025-12-17</text>
<text x="935.00" y="412" text-anchor="middle" fill="#93a4c3" font-family="Inter, Arial, sans-serif" font-size="12">2026-01-30</text>
<path d="M 70.00 261.46 L 84.91 251.39 L 99.83 227.76 L 114.74 240.11 L 129.66 286.70 L 144.57 294.63 L 159.48 209.53 L 174.40 237.06 L 189.31 167.36 L 204.22 60.00 L 219.14 70.45 L 234.05 66.18 L 248.97 146.17 L 263.88 277.24 L 278.79 326.96 L 293.71 337.79 L 308.62 375.00 L 323.53 333.06 L 338.45 308.20 L 353.36 290.89 L 368.28 264.74 L 383.19 247.28 L 398.10 278.92 L 413.02 241.33 L 427.93 272.67 L 442.84 307.67 L 457.76 264.05 L 472.67 273.13 L 487.59 273.58 L 502.50 183.07 L 517.41 209.46 L 532.33 304.77 L 547.24 329.32 L 562.16 342.21 L 577.07 374.85 L 591.98 360.82 L 606.90 332.91 L 621.81 310.11 L 636.72 254.37 L 651.64 241.41 L 666.55 250.25 L 681.47 274.96 L 696.38 271.37 L 711.29 287.00 L 726.21 289.90 L 741.12 256.43 L 756.03 234.08 L 770.95 237.06 L 785.86 246.21 L 800.78 211.90 L 815.69 84.17 L 830.60 172.78 L 845.52 214.11 L 860.43 200.15 L 875.34 248.88 L 890.26 293.33 L 905.17 261.99 L 920.09 228.59 L 935.00 226.46" fill="none" stroke="#69a7ff" stroke-width="4" stroke-linecap="round" stroke-linejoin="round"/>
<circle cx="935.00" cy="226.46" r="6" fill="#69a7ff"/>
</svg>