<svg xmlns="http://www.w3.org/2000/svg" width="960" height="430" viewBox="0 0 960 430" role="img" aria-label="Composite score history">
<rect width="100%" height="100%" fill="#0b1020" rx="20"/>
<text x="70" y="32" fill="#f5f7fb" font-family="Inter, Arial, sans-serif" font-size="24" font-weight="700">Composite score history</text>
<text x="70" y="52" fill="#93a4c3" font-family="Inter, Arial, sans-serif" font-size="13">Trailing 75 sessions through 2026-01-30</text>
<line x1="70" x2="935" y1="375.00" y2="375.00" stroke="#27314e" stroke-width="1"/>
<text x="58" y="379.00" text-anchor="end" fill="#93a4c3" font-family="Inter, Arial, sans-serif" font-size="12">0</text>
<line x1="70" x2="935" y1="312.00" y2="312.00" stroke="#27314e" stroke-width="1"/>
<text x="58" y="316.00" text-anchor="end" fill="#93a4c3" font-family="Inter, Arial, sans-serif" font-size="12">8</text>
<line x1="70" x2="935" y1="249.00" y2="249.00" stroke="#27314e" stroke-width="1"/>
<text x="58" y="253.00" text-anchor="end" fill="#93a4c3" font-family="Inter, Arial, sans-serif" font-size="12">17</text>
<line x1="70" x2="935" y1="186.00" y2="186.00" stroke="#27314e" stroke-width="1"/>
<text x="58" y="190.00" text-anchor="end" fill="#93a4c3" font-family="Inter, Arial, sans-serif" font-size="12">25</text>
<line x1="70" x2="935" y1="123.00" y2="123.00" stroke="#27314e" stroke-width="1"/>
<text x="58" y="127.00" text-anchor="end" fill="#93a4c3" font-family="Inter, Arial, sans-serif" font-size="12">33</text>
<line x1="70" x2="935" y1="60.00" y2="60.00" stroke="#27314e" stroke-width="1"/>
<text x="58" y="64.00" text-anchor="end" fill="#93a4c3" font-family="Inter, Arial, sans-serif" font-size="12">41</text>
<text x="70.00" y="412" text-anchor="middle" fill="#93a4c3" font-family="Inter, Arial, sans-serif" font-size="12">2025-10-10</text>
<text x="502.50" y="412" text-anchor="middle" fill="#93a4c3" font-family="Inter, Arial, sans-serif" font-size="12">2025-12-05</text>
<text x="935.00" y="412" text-anchor="middle" fill="#93a4c3" font-family="Inter, Arial, sans-serif" font-size="12">2026-01-30</text>
<path d="M 70.00 252.46 L 81.69 288.45 L 93.38 296.15 L 105.07 239.96 L 116.76 299.97 L 128.45 336.57 L 140.14 309.88 L 151.82 285.33 L 163.51 232.33 L 175.20 267.94 L 186.89 285.48 L 198.58 299.36 L 210.27 266.80 L 221.96 256.12 L 233.65 236.53 L 245.34 192.98 L 257.03 135.80 L 268.72 183.68 L 280.41 184.67 L 292.09 190.93 L 303.78 255.59 L 315.47 294.63 L 327.16 209.53 L 338.85 237.06 L 350.54 167.36 L 362.23 60.00 L 373.92 70.45 L 385.61 66.18 L 397.30 146.17 L 408.99 277.24 L 420.68 326.96 L 432.36 337.79 L 444.05 375.00 L 455.74 333.06 L 467.43 308.20 L 479.12 290.89 L 490.81 264.74 L 502.50 247.28 L 514.19 278.92 L 525.88 241.33 L 537.57 272.67 L 549.26 307.67 L 560.95 264.05 L 572.64 273.13 L 584.32 273.58 L 596.01 183.07 L 607.70 209.46 L 619.39 304.77 L 631.08 329.32 L 642.77 342.21 L 654.46 374.85 L 666.15 360.82 L 677.84 332.91 L 689.53 310.11 L 701.22 254.37 L 712.91 241.41 L 724.59 250.25 L 736.28 274.96 L 747.97 271.37 L 759.66 287.00 L 771.35 289.90 L 783.04 256.43 L 794.73 234.08 L 806.42 237.06 L 818.11 246.21 L 829.80 211.90 L 841.49 84.17 L 853.18 172.78 L 864.86 214.11 L 876.55 200.15 L 888.24 248.88 L 899.93 293.33 L 911.62 261.99 L 923.31 228.59 L 935.00 226.46" fill="none" stroke="#69a7ff" stroke-width="4" stroke-linecap="round" stroke-linejoin="round"/>
<circle cx="935.00" cy="226.46" r="6" fill="#69a7ff"/>
</svg>