<svg xmlns="http://www.w3.org/2000/svg" width="960" height="430" viewBox="0 0 960 430" role="img" aria-label="Composite score history">
<rect width="100%" height="100%" fill="#0b1020" rx="20"/>
<text x="70" y="32" fill="#f5f7fb" font-family="Inter, Arial, sans-serif" font-size="24" font-weight="700">Composite score history</text>
<text x="70" y="52" fill="#93a4c3" font-family="Inter, Arial, sans-serif" font-size="13">Trailing 90 sessions through 2026-01-30</text>
<line x1="70" x2="935" y1="375.00" y2="375.00" stroke="#27314e" stroke-width="1"/>
<text x="58" y="379.00" text-anchor="end" fill="#93a4c3" font-family="Inter, Arial, sans-serif" font-size="12">0</text>
<line x1="70" x2="935" y1="312.00" y2="312.00" stroke="#27314e" stroke-width="1"/>
<text x="58" y="316.00" text-anchor="end" fill="#93a4c3" font-family="Inter, Arial, sans-serif" font-size="12">8</text>
<line x1="70" x2="935" y1="249.00" y2="249.00" stroke="#27314e" stroke-width="1"/>
<text x="58" y="253.00" text-anchor="end" fill="#93a4c3" font-family="Inter, Arial, sans-serif" font-size="12">17</text>
<line x1="70" x2="935" y1="186.00" y2="186.00" stroke="#27314e" stroke-width="1"/>
<text x="58" y="190.00" text-anchor="end" fill="#93a4c3" font-family="Inter, Arial, sans-serif" font-size="12">25</text>
<line x1="70" x2="935" y1="123.00" y2="123.00" stroke="#27314e" stroke-width="1"/>
<text x="58" y="127.00" text-anchor="end" fill="#93a4c3" font-family="Inter, Arial, sans-serif" font-size="12">33</text>
<line x1="70" x2="935" y1="60.00" y2="60.00" stroke="#27314e" stroke-width="1"/>
<text x="58" y="64.00" text-anchor="end" fill="#93a4c3" font-family="Inter, Arial, sans-serif" font-size="12">41</text>
<text x="70.00" y="412" text-anchor="middle" fill="#93a4c3" font-family="Inter, Arial, sans-serif" font-size="12">2025-09-19</text>
<text x="507.36" y="412" text-anchor="middle" fill="#93a4c3" font-family="Inter, Arial, sans-serif" font-size="12">2025-11-25</text>
<text x="935.00" y="412" text-anchor="middle" fill="#93a4c3" font-family="Inter, Arial, sans-serif" font-size="12">2026-01-30</text>
<path d="M 70.00 288.22 L 79.72 266.64 L 89.44 279.46 L 99.16 266.03 L 108.88 222.49 L 118.60 245.75 L 128.31 247.43 L 138.03 259.32 L 147.75 297.76 L 157.47 309.80 L 167.19 286.01 L 176.91 296.54 L 186.63 271.60 L 196.35 278.85 L 206.07 256.96 L 215.79 123.98 L 225.51 175.75 L 235.22 212.66 L 244.94 109.03 L 254.66 196.19 L 264.38 336.57 L 274.10 309.88 L 283.82 285.33 L 293.54 232.33 L 303.26 267.94 L 312.98 285.48 L 322.70 299.36 L 332.42 266.80 L 342.13 256.12 L 351.85 236.53 L 361.57 192.98 L 371.29 135.80 L 381.01 183.68 L 390.73 184.67 L 400.45 190.93 L 410.17 255.59 L 419.89 294.63 L 429.61 209.53 L 439.33 237.06 L 449.04 167.36 L 458.76 60.00 L 468.48 70.45 L 478.20 66.18 L 487.92 146.17 L 497.64 277.24 L 507.36 326.96 L 517.08 337.79 L 526.80 375.00 L 536.52 333.06 L 546.24 308.20 L 555.96 290.89 L 565.67 264.74 L 575.39 247.28 L 585.11 278.92 L 594.83 241.33 L 604.55 272.67 L 614.27 307.67 L 623.99 264.05 L 633.71 273.13 L 643.43 273.58 L 653.15 183.07 L 662.87 209.46 L 672.58 304.77 L 682.30 329.32 L 692.02 342.21 L 701.74 374.85 L 711.46 360.82 L 721.18 332.91 L 730.90 310.11 L 740.62 254.37 L 750.34 241.41 L 760.06 250.25 L 769.78 274.96 L 779.49 271.37 L 789.21 287.00 L 798.93 289.90 L 808.65 256.43 L 818.37 234.08 L 828.09 237.06 L 837.81 246.21 L 847.53 211.90 L 857.25 84.17 L 866.97 172.78 L 876.69 214.11 L 886.40 200.15 L 896.12 248.88 L 905.84 293.33 L 915.56 261.99 L 925.28 228.59 L 935.00 226.46" fill="none" stroke="#69a7ff" stroke-width="4" stroke-linecap="round" stroke-linejoin="round"/>
<circle cx="935.00" cy="226.46" r="6" fill="#69a7ff"/>
</svg>