<svg xmlns="http://www.w3.org/2000/svg" width="960" height="430" viewBox="0 0 960 430" role="img" aria-label="Composite score history">
<rect width="100%" height="100%" fill="#0b1020" rx="20"/>
<text x="70" y="32" fill="#f5f7fb" font-family="Inter, Arial, sans-serif" font-size="24" font-weight="700">Composite score history</text>
<text x="70" y="52" fill="#93a4c3" font-family="Inter, Arial, sans-serif" font-size="13">Trailing 83 sessions through 2026-01-30</text>
<line x1="70" x2="935" y1="375.00" y2="375.00" stroke="#27314e" stroke-width="1"/>
<text x="58" y="379.00" text-anchor="end" fill="#93a4c3" font-family="Inter, Arial, sans-serif" font-size="12">0</text>
<line x1="70" x2="935" y1="312.00" y2="312.00" stroke="#27314e" stroke-width="1"/>
<text x="58" y="316.00" text-anchor="end" fill="#93a4c3" font-family="Inter, Arial, sans-serif" font-size="12">8</text>
<line x1="70" x2="935" y1="249.00" y2="249.00" stroke="#27314e" stroke-width="1"/>
<text x="58" y="253.00" text-anchor="end" fill="#93a4c3" font-family="Inter, Arial, sans-serif" font-size="12">17</text>
<line x1="70" x2="935" y1="186.00" y2="186.00" stroke="#27314e" stroke-width="1"/>
<text x="58" y="190.00" text-anchor="end" fill="#93a4c3" font-family="Inter, Arial, sans-serif" font-size="12">25</text>
<line x1="70" x2="935" y1="123.00" y2="123.00" stroke="#27314e" stroke-width="1"/>
<text x="58" y="127.00" text-anchor="end" fill="#93a4c3" font-family="Inter, Arial, sans-serif" font-size="12">33</text>
<line x1="70" x2="935" y1="60.00" y2="60.00" stroke="#27314e" stroke-width="1"/>
<text x="58" y="64.00" text-anchor="end" fill="#93a4c3" font-family="Inter, Arial, sans-serif" font-size="12">41</text>
<text x="70.00" y="412" text-anchor="middle" fill="#93a4c3" font-family="Inter, Arial, sans-serif" font-size="12">2025-09-30</text>
<text x="502.50" y="412" text-anchor="middle" fill="#93a4c3" font-family="Inter, Arial, sans-serif" font-size="12">2025-12-01</text>
<text x="935.00" y="412" text-anchor="middle" fill="#93a4c3" font-family="Inter, Arial, sans-serif" font-size="12">2026-01-30</text>
<path d="M 70.00 271.60 L 80.55 283.95 L 91.10 283.04 L 101.65 280.22 L 112.20 289.83 L 122.74 271.60 L 133.29 278.85 L 143.84 256.96 L 154.39 123.98 L 164.94 175.75 L 175.49 212.66 L 186.04 109.03 L 196.59 196.19 L 207.13 336.57 L 217.68 309.88 L 228.23 285.33 L 238.78 232.33 L 249.33 267.94 L 259.88 285.48 L 270.43 299.36 L 280.98 266.80 L 291.52 256.12 L 302.07 236.53 L 312.62 192.98 L 323.17 135.80 L 333.72 183.68 L 344.27 184.67 L 354.82 190.93 L 365.37 255.59 L 375.91 294.63 L 386.46 209.53 L 397.01 237.06 L 407.56 167.36 L 418.11 60.00 L 428.66 70.45 L 439.21 66.18 L 449.76 146.17 L 460.30 277.24 L 470.85 326.96 L 481.40 337.79 L 491.95 375.00 L 502.50 333.06 L 513.05 308.20 L 523.60 290.89 L 534.15 264.74 L 544.70 247.28 L 555.24 278.92 L 565.79 241.33 L 576.34 272.67 L 586.89 307.67 L 597.44 264.05 L 607.99 273.13 L 618.54 273.58 L 629.09 183.07 L 639.63 209.46 L 650.18 304.77 L 660.73 329.32 L 671.28 342.21 L 681.83 374.85 L 692.38 360.82 L 702.93 332.91 L 713.48 310.11 L 724.02 254.37 L 734.57 241.41 L 745.12 250.25 L 755.67 274.96 L 766.22 271.37 L 776.77 287.00 L 787.32 289.90 L 797.87 256.43 L 808.41 234.08 L 818.96 237.06 L 829.51 246.21 L 840.06 211.90 L 850.61 84.17 L 861.16 172.78 L 871.71 214.11 L 882.26 200.15 L 892.80 248.88 L 903.35 293.33 L 913.90 261.99 L 924.45 228.59 L 935.00 226.46" fill="none" stroke="#69a7ff" stroke-width="4" stroke-linecap="round" stroke-linejoin="round"/>
<circle cx="935.00" cy="226.46" r="6" fill="#69a7ff"/>
</svg>