<svg xmlns="http://www.w3.org/2000/svg" width="960" height="430" viewBox="0 0 960 430" role="img" aria-label="Composite score history">
<rect width="100%" height="100%" fill="#0b1020" rx="20"/>
<text x="70" y="32" fill="#f5f7fb" font-family="Inter, Arial, sans-serif" font-size="24" font-weight="700">Composite score history</text>
<text x="70" y="52" fill="#93a4c3" font-family="Inter, Arial, sans-serif" font-size="13">Trailing 68 sessions through 2026-01-30</text>
<line x1="70" x2="935" y1="375.00" y2="375.00" stroke="#27314e" stroke-width="1"/>
<text x="58" y="379.00" text-anchor="end" fill="#93a4c3" font-family="Inter, Arial, sans-serif" font-size="12">0</text>
<line x1="70" x2="935" y1="312.00" y2="312.00" stroke="#27314e" stroke-width="1"/>
<text x="58" y="316.00" text-anchor="end" fill="#93a4c3" font-family="Inter, Arial, sans-serif" font-size="12">8</text>
<line x1="70" x2="935" y1="249.00" y2="249.00" stroke="#27314e" stroke-width="1"/>
<text x="58" y="253.00" text-anchor="end" fill="#93a4c3" font-family="Inter, Arial, sans-serif" font-size="12">17</text>
<line x1="70" x2="935" y1="186.00" y2="186.00" stroke="#27314e" stroke-width="1"/>
<text x="58" y="190.00" text-anchor="end" fill="#93a4c3" font-family="Inter, Arial, sans-serif" font-size="12">25</text>
<line x1="70" x2="935" y1="123.00" y2="123.00" stroke="#27314e" stroke-width="1"/>
<text x="58" y="127.00" text-anchor="end" fill="#93a4c3" font-family="Inter, Arial, sans-serif" font-size="12">33</text>
<line x1="70" x2="935" y1="60.00" y2="60.00" stroke="#27314e" stroke-width="1"/>
<text x="58" y="64.00" text-anchor="end" fill="#93a4c3" font-family="Inter, Arial, sans-serif" font-size="12">41</text>
<text x="70.00" y="412" text-anchor="middle" fill="#93a4c3" font-family="Inter, Arial, sans-serif" font-size="12">2025-10-22</text>
<text x="508.96" y="412" text-anchor="middle" fill="#93a4c3" font-family="Inter, Arial, sans-serif" font-size="12">2025-12-11</text>
<text x="935.00" y="412" text-anchor="middle" fill="#93a4c3" font-family="Inter, Arial, sans-serif" font-size="12">2026-01-30</text>
<path d="M 70.00 277.24 L 82.91 235.61 L 95.82 266.11 L 108.73 308.13 L 121.64 317.43 L 134.55 266.80 L 147.46 256.12 L 160.37 236.53 L 173.28 192.98 L 186.19 135.80 L 199.10 183.68 L 212.01 184.67 L 224.93 190.93 L 237.84 255.59 L 250.75 294.63 L 263.66 209.53 L 276.57 237.06 L 289.48 167.36 L 302.39 60.00 L 315.30 70.45 L 328.21 66.18 L 341.12 146.17 L 354.03 277.24 L 366.94 326.96 L 379.85 337.79 L 392.76 375.00 L 405.67 333.06 L 418.58 308.20 L 431.49 290.89 L 444.40 264.74 L 457.31 247.28 L 470.22 278.92 L 483.13 241.33 L 496.04 272.67 L 508.96 307.67 L 521.87 264.05 L 534.78 273.13 L 547.69 273.58 L 560.60 183.07 L 573.51 209.46 L 586.42 304.77 L 599.33 329.32 L 612.24 342.21 L 625.15 374.85 L 638.06 360.82 L 650.97 332.91 L 663.88 310.11 L 676.79 254.37 L 689.70 241.41 L 702.61 250.25 L 715.52 274.96 L 728.43 271.37 L 741.34 287.00 L 754.25 289.90 L 767.16 256.43 L 780.07 234.08 L 792.99 237.06 L 805.90 246.21 L 818.81 211.90 L 831.72 84.17 L 844.63 172.78 L 857.54 214.11 L 870.45 200.15 L 883.36 248.88 L 896.27 293.33 L 909.18 261.99 L 922.09 228.59 L 935.00 226.46" fill="none" stroke="#69a7ff" stroke-width="4" stroke-linecap="round" stroke-linejoin="round"/>
<circle cx="935.00" cy="226.46" r="6" fill="#69a7ff"/>
</svg>