<svg xmlns="http://www.w3.org/2000/svg" width="960" height="430" viewBox="0 0 960 430" role="img" aria-label="Composite score history">
<rect width="100%" height="100%" fill="#0b1020" rx="20"/>
<text x="70" y="32" fill="#f5f7fb" font-family="Inter, Arial, sans-serif" font-size="24" font-weight="700">Composite score history</text>
<text x="70" y="52" fill="#93a4c3" font-family="Inter, Arial, sans-serif" font-size="13">Trailing 78 sessions through 2026-01-30</text>
<line x1="70" x2="935" y1="375.00" y2="375.00" stroke="#27314e" stroke-width="1"/>
<text x="58" y="379.00" text-anchor="end" fill="#93a4c3" font-family="Inter, Arial, sans-serif" font-size="12">0</text>
<line x1="70" x2="935" y1="312.00" y2="312.00" stroke="#27314e" stroke-width="1"/>
<text x="58" y="316.00" text-anchor="end" fill="#93a4c3" font-family="Inter, Arial, sans-serif" font-size="12">8</text>
<line x1="70" x2="935" y1="249.00" y2="249.00" stroke="#27314e" stroke-width="1"/>
<text x="58" y="253.00" text-anchor="end" fill="#93a4c3" font-family="Inter, Arial, sans-serif" font-size="12">17</text>
<line x1="70" x2="935" y1="186.00" y2="186.00" stroke="#27314e" stroke-width="1"/>
<text x="58" y="190.00" text-anchor="end" fill="#93a4c3" font-family="Inter, Arial, sans-serif" font-size="12">25</text>
<line x1="70" x2="935" y1="123.00" y2="123.00" stroke="#27314e" stroke-width="1"/>
<text x="58" y="127.00" text-anchor="end" fill="#93a4c3" font-family="Inter, Arial, sans-serif" font-size="12">33</text>
<line x1="70" x2="935" y1="60.00" y2="60.00" stroke="#27314e" stroke-width="1"/>
<text x="58" y="64.00" text-anchor="end" fill="#93a4c3" font-family="Inter, Arial, sans-serif" font-size="12">41</text>
<text x="70.00" y="412" text-anchor="middle" fill="#93a4c3" font-family="Inter, Arial, sans-serif" font-size="12">2025-10-07</text>
<text x="508.12" y="412" text-anchor="middle" fill="#93a4c3" font-family="Inter, Arial, sans-serif" font-size="12">2025-12-04</text>
<text x="935.00" y="412" text-anchor="middle" fill="#93a4c3" font-family="Inter, Arial, sans-serif" font-size="12">2026-01-30</text>
<path d="M 70.00 270.99 L 81.23 284.03 L 92.47 270.84 L 103.70 128.86 L 114.94 196.34 L 126.17 212.66 L 137.40 109.03 L 148.64 196.19 L 159.87 336.57 L 171.10 309.88 L 182.34 285.33 L 193.57 232.33 L 204.81 267.94 L 216.04 285.48 L 227.27 299.36 L 238.51 266.80 L 249.74 256.12 L 260.97 236.53 L 272.21 192.98 L 283.44 135.80 L 294.68 183.68 L 305.91 184.67 L 317.14 190.93 L 328.38 255.59 L 339.61 294.63 L 350.84 209.53 L 362.08 237.06 L 373.31 167.36 L 384.55 60.00 L 395.78 70.45 L 407.01 66.18 L 418.25 146.17 L 429.48 277.24 L 440.71 326.96 L 451.95 337.79 L 463.18 375.00 L 474.42 333.06 L 485.65 308.20 L 496.88 290.89 L 508.12 264.74 L 519.35 247.28 L 530.58 278.92 L 541.82 241.33 L 553.05 272.67 L 564.29 307.67 L 575.52 264.05 L 586.75 273.13 L 597.99 273.58 L 609.22 183.07 L 620.45 209.46 L 631.69 304.77 L 642.92 329.32 L 654.16 342.21 L 665.39 374.85 L 676.62 360.82 L 687.86 332.91 L 699.09 310.11 L 710.32 254.37 L 721.56 241.41 L 732.79 250.25 L 744.03 274.96 L 755.26 271.37 L 766.49 287.00 L 777.73 289.90 L 788.96 256.43 L 800.19 234.08 L 811.43 237.06 L 822.66 246.21 L 833.90 211.90 L 845.13 84.17 L 856.36 172.78 L 867.60 214.11 L 878.83 200.15 L 890.06 248.88 L 901.30 293.33 L 912.53 261.99 L 923.77 228.59 L 935.00 226.46" fill="none" stroke="#69a7ff" stroke-width="4" stroke-linecap="round" stroke-linejoin="round"/>
<circle cx="935.00" cy="226.46" r="6" fill="#69a7ff"/>
</svg>