<svg xmlns="http://www.w3.org/2000/svg" width="960" height="430" viewBox="0 0 960 430" role="img" aria-label="Composite score history">
<rect width="100%" height="100%" fill="#0b1020" rx="20"/>
<text x="70" y="32" fill="#f5f7fb" font-family="Inter, Arial, sans-serif" font-size="24" font-weight="700">Composite score history</text>
<text x="70" y="52" fill="#93a4c3" font-family="Inter, Arial, sans-serif" font-size="13">Trailing 52 sessions through 2025-11-12</text>
<line x1="70" x2="935" y1="375.00" y2="375.00" stroke="#27314e" stroke-width="1"/>
<text x="58" y="379.00" text-anchor="end" fill="#93a4c3" font-family="Inter, Arial, sans-serif" font-size="12">5</text>
<line x1="70" x2="935" y1="312.00" y2="312.00" stroke="#27314e" stroke-width="1"/>
<text x="58" y="316.00" text-anchor="end" fill="#93a4c3" font-family="Inter, Arial, sans-serif" font-size="12">11</text>
<line x1="70" x2="935" y1="249.00" y2="249.00" stroke="#27314e" stroke-width="1"/>
<text x="58" y="253.00" text-anchor="end" fill="#93a4c3" font-family="Inter, Arial, sans-serif" font-size="12">17</text>
<line x1="70" x2="935" y1="186.00" y2="186.00" stroke="#27314e" stroke-width="1"/>
<text x="58" y="190.00" text-anchor="end" fill="#93a4c3" font-family="Inter, Arial, sans-serif" font-size="12">23</text>
<line x1="70" x2="935" y1="123.00" y2="123.00" stroke="#27314e" stroke-width="1"/>
<text x="58" y="127.00" text-anchor="end" fill="#93a4c3" font-family="Inter, Arial, sans-serif" font-size="12">29</text>
<line x1="70" x2="935" y1="60.00" y2="60.00" stroke="#27314e" stroke-width="1"/>
<text x="58" y="64.00" text-anchor="end" fill="#93a4c3" font-family="Inter, Arial, sans-serif" font-size="12">35</text>
<text x="70.00" y="412" text-anchor="middle" fill="#93a4c3" font-family="Inter, Arial, sans-serif" font-size="12">2025-08-28</text>
<text x="510.98" y="412" text-anchor="middle" fill="#93a4c3" font-family="Inter, Arial, sans-serif" font-size="12">2025-10-06</text>
<text x="935.00" y="412" text-anchor="middle" fill="#93a4c3" font-family="Inter, Arial, sans-serif" font-size="12">2025-11-12</text>
<path d="M 70.00 287.49 L 86.96 242.31 L 103.92 150.15 L 120.88 214.97 L 137.84 282.00 L 154.80 276.30 L 171.76 318.00 L 188.73 337.63 L 205.69 332.67 L 222.65 339.53 L 239.61 320.85 L 256.57 317.57 L 273.53 315.88 L 290.49 307.02 L 307.45 259.83 L 324.41 308.07 L 341.37 278.20 L 358.33 295.93 L 375.29 277.35 L 392.25 217.08 L 409.22 249.27 L 426.18 251.60 L 443.14 268.06 L 460.10 321.27 L 477.06 337.95 L 494.02 305.01 L 510.98 319.58 L 527.94 285.06 L 544.90 295.09 L 561.86 264.79 L 578.82 80.69 L 595.78 152.37 L 612.75 203.46 L 629.71 60.00 L 646.67 180.66 L 663.63 375.00 L 680.59 338.05 L 697.55 304.06 L 714.51 230.70 L 731.47 279.99 L 748.43 304.27 L 765.39 323.49 L 782.35 278.41 L 799.31 263.63 L 816.27 236.50 L 833.24 176.22 L 850.20 97.05 L 867.16 163.35 L 884.12 164.72 L 901.08 173.37 L 918.04 262.89 L 935.00 316.94" fill="none" stroke="#69a7ff" stroke-width="4" stroke-linecap="round" stroke-linejoin="round"/>
<circle cx="935.00" cy="316.94" r="6" fill="#69a7ff"/>
</svg>