<svg xmlns="http://www.w3.org/2000/svg" width="960" height="430" viewBox="0 0 960 430" role="img" aria-label="Composite score history">
<rect width="100%" height="100%" fill="#0b1020" rx="20"/>
<text x="70" y="32" fill="#f5f7fb" font-family="Inter, Arial, sans-serif" font-size="24" font-weight="700">Composite score history</text>
<text x="70" y="52" fill="#93a4c3" font-family="Inter, Arial, sans-serif" font-size="13">Trailing 76 sessions through 2025-11-12</text>
<line x1="70" x2="935" y1="375.00" y2="375.00" stroke="#27314e" stroke-width="1"/>
<text x="58" y="379.00" text-anchor="end" fill="#93a4c3" font-family="Inter, Arial, sans-serif" font-size="12">5</text>
<line x1="70" x2="935" y1="312.00" y2="312.00" stroke="#27314e" stroke-width="1"/>
<text x="58" y="316.00" text-anchor="end" fill="#93a4c3" font-family="Inter, Arial, sans-serif" font-size="12">11</text>
<line x1="70" x2="935" y1="249.00" y2="249.00" stroke="#27314e" stroke-width="1"/>
<text x="58" y="253.00" text-anchor="end" fill="#93a4c3" font-family="Inter, Arial, sans-serif" font-size="12">17</text>
<line x1="70" x2="935" y1="186.00" y2="186.00" stroke="#27314e" stroke-width="1"/>
<text x="58" y="190.00" text-anchor="end" fill="#93a4c3" font-family="Inter, Arial, sans-serif" font-size="12">23</text>
<line x1="70" x2="935" y1="123.00" y2="123.00" stroke="#27314e" stroke-width="1"/>
<text x="58" y="127.00" text-anchor="end" fill="#93a4c3" font-family="Inter, Arial, sans-serif" font-size="12">29</text>
<line x1="70" x2="935" y1="60.00" y2="60.00" stroke="#27314e" stroke-width="1"/>
<text x="58" y="64.00" text-anchor="end" fill="#93a4c3" font-family="Inter, Arial, sans-serif" font-size="12">35</text>
<text x="70.00" y="412" text-anchor="middle" fill="#93a4c3" font-family="Inter, Arial, sans-serif" font-size="12">2025-07-25</text>
<text x="508.27" y="412" text-anchor="middle" fill="#93a4c3" font-family="Inter, Arial, sans-serif" font-size="12">2025-09-18</text>
<text x="935.00" y="412" text-anchor="middle" fill="#93a4c3" font-family="Inter, Arial, sans-serif" font-size="12">2025-11-12</text>
<path d="M 70.00 266.16 L 81.53 264.90 L 93.07 229.32 L 104.60 213.38 L 116.13 180.24 L 127.67 73.72 L 139.20 196.28 L 150.73 187.73 L 162.27 250.44 L 173.80 276.19 L 185.33 268.80 L 196.87 229.96 L 208.40 338.37 L 219.93 334.46 L 231.47 319.79 L 243.00 309.02 L 254.53 310.61 L 266.07 235.87 L 277.60 183.93 L 289.13 141.81 L 300.67 261.84 L 312.20 231.86 L 323.73 249.49 L 335.27 267.22 L 346.80 315.67 L 358.33 268.59 L 369.87 221.19 L 381.40 245.90 L 392.93 294.46 L 404.47 276.30 L 416.00 318.00 L 427.53 337.63 L 439.07 332.67 L 450.60 339.53 L 462.13 320.85 L 473.67 317.57 L 485.20 315.88 L 496.73 307.02 L 508.27 259.83 L 519.80 308.07 L 531.33 278.20 L 542.87 295.93 L 554.40 277.35 L 565.93 217.08 L 577.47 249.27 L 589.00 251.60 L 600.53 268.06 L 612.07 321.27 L 623.60 337.95 L 635.13 305.01 L 646.67 319.58 L 658.20 285.06 L 669.73 295.09 L 681.27 264.79 L 692.80 80.69 L 704.33 152.37 L 715.87 203.46 L 727.40 60.00 L 738.93 180.66 L 750.47 375.00 L 762.00 338.05 L 773.53 304.06 L 785.07 230.70 L 796.60 279.99 L 808.13 304.27 L 819.67 323.49 L 831.20 278.41 L 842.73 263.63 L 854.27 236.50 L 865.80 176.22 L 877.33 97.05 L 888.87 163.35 L 900.40 164.72 L 911.93 173.37 L 923.47 262.89 L 935.00 316.94" fill="none" stroke="#69a7ff" stroke-width="4" stroke-linecap="round" stroke-linejoin="round"/>
<circle cx="935.00" cy="316.94" r="6" fill="#69a7ff"/>
</svg>