<svg xmlns="http://www.w3.org/2000/svg" width="960" height="430" viewBox="0 0 960 430" role="img" aria-label="Composite score history">
<rect width="100%" height="100%" fill="#0b1020" rx="20"/>
<text x="70" y="32" fill="#f5f7fb" font-family="Inter, Arial, sans-serif" font-size="24" font-weight="700">Composite score history</text>
<text x="70" y="52" fill="#93a4c3" font-family="Inter, Arial, sans-serif" font-size="13">Trailing 84 sessions through 2025-11-12</text>
<line x1="70" x2="935" y1="375.00" y2="375.00" stroke="#27314e" stroke-width="1"/>
<text x="58" y="379.00" text-anchor="end" fill="#93a4c3" font-family="Inter, Arial, sans-serif" font-size="12">2</text>
<line x1="70" x2="935" y1="312.00" y2="312.00" stroke="#27314e" stroke-width="1"/>
<text x="58" y="316.00" text-anchor="end" fill="#93a4c3" font-family="Inter, Arial, sans-serif" font-size="12">8</text>
<line x1="70" x2="935" y1="249.00" y2="249.00" stroke="#27314e" stroke-width="1"/>
<text x="58" y="253.00" text-anchor="end" fill="#93a4c3" font-family="Inter, Arial, sans-serif" font-size="12">13</text>
<line x1="70" x2="935" y1="186.00" y2="186.00" stroke="#27314e" stroke-width="1"/>
<text x="58" y="190.00" text-anchor="end" fill="#93a4c3" font-family="Inter, Arial, sans-serif" font-size="12">19</text>
<line x1="70" x2="935" y1="123.00" y2="123.00" stroke="#27314e" stroke-width="1"/>
<text x="58" y="127.00" text-anchor="end" fill="#93a4c3" font-family="Inter, Arial, sans-serif" font-size="12">24</text>
<line x1="70" x2="935" y1="60.00" y2="60.00" stroke="#27314e" stroke-width="1"/>
<text x="58" y="64.00" text-anchor="end" fill="#93a4c3" font-family="Inter, Arial, sans-serif" font-size="12">30</text>
<text x="70.00" y="412" text-anchor="middle" fill="#93a4c3" font-family="Inter, Arial, sans-serif" font-size="12">2025-07-15</text>
<text x="507.71" y="412" text-anchor="middle" fill="#93a4c3" font-family="Inter, Arial, sans-serif" font-size="12">2025-09-12</text>
<text x="935.00" y="412" text-anchor="middle" fill="#93a4c3" font-family="Inter, Arial, sans-serif" font-size="12">2025-11-12</text>
<path d="M 70.00 352.04 L 80.42 339.82 L 90.84 288.70 L 101.27 332.02 L 111.69 344.12 L 122.11 359.62 L 132.53 369.34 L 142.95 369.12 L 153.37 339.15 L 163.80 304.42 L 174.22 315.96 L 184.64 242.78 L 195.06 288.36 L 205.48 135.10 L 215.90 271.39 L 226.33 264.50 L 236.75 327.72 L 247.17 358.94 L 257.59 178.87 L 268.01 211.90 L 278.43 346.50 L 288.86 348.65 L 299.28 323.08 L 309.70 371.72 L 320.12 361.31 L 330.54 294.58 L 340.96 212.69 L 351.39 183.29 L 361.81 294.36 L 372.23 266.76 L 382.65 220.27 L 393.07 232.37 L 403.49 306.68 L 413.92 351.47 L 424.34 307.70 L 434.76 327.04 L 445.18 365.16 L 455.60 345.25 L 466.02 371.49 L 476.45 372.17 L 486.87 369.46 L 497.29 375.00 L 507.71 317.99 L 518.13 303.86 L 528.55 346.84 L 538.98 334.06 L 549.40 257.03 L 559.82 335.87 L 570.24 265.40 L 580.66 332.81 L 591.08 300.92 L 601.51 244.14 L 611.93 284.63 L 622.35 312.57 L 632.77 282.25 L 643.19 360.18 L 653.61 358.49 L 664.04 343.90 L 674.46 358.03 L 684.88 342.99 L 695.30 327.27 L 705.72 275.35 L 716.14 124.58 L 726.57 194.94 L 736.99 251.26 L 747.41 83.87 L 757.83 216.88 L 768.25 344.69 L 778.67 347.74 L 789.10 341.52 L 799.52 89.75 L 809.94 182.61 L 820.36 215.86 L 830.78 252.85 L 841.20 126.96 L 851.63 209.07 L 862.05 204.44 L 872.47 127.86 L 882.89 60.00 L 893.31 184.08 L 903.73 221.74 L 914.16 227.85 L 924.58 329.42 L 935.00 350.91" fill="none" stroke="#69a7ff" stroke-width="4" stroke-linecap="round" stroke-linejoin="round"/>
<circle cx="935.00" cy="350.91" r="6" fill="#69a7ff"/>
<text x="927.00" y="338.91" text-anchor="end" fill="#f5f7fb" font-family="Inter, Arial, sans-serif" font-size="12" font-weight="600">4.19</text>
</svg>