<svg xmlns="http://www.w3.org/2000/svg" width="960" height="430" viewBox="0 0 960 430" role="img" aria-label="Composite score history">
<rect width="100%" height="100%" fill="#0b1020" rx="20"/>
<text x="70" y="32" fill="#f5f7fb" font-family="Inter, Arial, sans-serif" font-size="24" font-weight="700">Composite score history</text>
<text x="70" y="52" fill="#93a4c3" font-family="Inter, Arial, sans-serif" font-size="13">Trailing 61 sessions through 2025-11-12</text>
<line x1="70" x2="935" y1="375.00" y2="375.00" stroke="#27314e" stroke-width="1"/>
<text x="58" y="379.00" text-anchor="end" fill="#93a4c3" font-family="Inter, Arial, sans-serif" font-size="12">5</text>
<line x1="70" x2="935" y1="312.00" y2="312.00" stroke="#27314e" stroke-width="1"/>
<text x="58" y="316.00" text-anchor="end" fill="#93a4c3" font-family="Inter, Arial, sans-serif" font-size="12">11</text>
<line x1="70" x2="935" y1="249.00" y2="249.00" stroke="#27314e" stroke-width="1"/>
<text x="58" y="253.00" text-anchor="end" fill="#93a4c3" font-family="Inter, Arial, sans-serif" font-size="12">17</text>
<line x1="70" x2="935" y1="186.00" y2="186.00" stroke="#27314e" stroke-width="1"/>
<text x="58" y="190.00" text-anchor="end" fill="#93a4c3" font-family="Inter, Arial, sans-serif" font-size="12">23</text>
<line x1="70" x2="935" y1="123.00" y2="123.00" stroke="#27314e" stroke-width="1"/>
<text x="58" y="127.00" text-anchor="end" fill="#93a4c3" font-family="Inter, Arial, sans-serif" font-size="12">29</text>
<line x1="70" x2="935" y1="60.00" y2="60.00" stroke="#27314e" stroke-width="1"/>
<text x="58" y="64.00" text-anchor="end" fill="#93a4c3" font-family="Inter, Arial, sans-serif" font-size="12">35</text>
<text x="70.00" y="412" text-anchor="middle" fill="#93a4c3" font-family="Inter, Arial, sans-serif" font-size="12">2025-08-15</text>
<text x="502.50" y="412" text-anchor="middle" fill="#93a4c3" font-family="Inter, Arial, sans-serif" font-size="12">2025-09-29</text>
<text x="935.00" y="412" text-anchor="middle" fill="#93a4c3" font-family="Inter, Arial, sans-serif" font-size="12">2025-11-12</text>
<path d="M 70.00 284.11 L 84.42 274.50 L 98.83 248.75 L 113.25 233.02 L 127.67 158.49 L 142.08 261.84 L 156.50 231.86 L 170.92 249.49 L 185.33 267.22 L 199.75 315.67 L 214.17 268.59 L 228.58 221.19 L 243.00 245.90 L 257.42 294.46 L 271.83 276.30 L 286.25 318.00 L 300.67 337.63 L 315.08 332.67 L 329.50 339.53 L 343.92 320.85 L 358.33 317.57 L 372.75 315.88 L 387.17 307.02 L 401.58 259.83 L 416.00 308.07 L 430.42 278.20 L 444.83 295.93 L 459.25 277.35 L 473.67 217.08 L 488.08 249.27 L 502.50 251.60 L 516.92 268.06 L 531.33 321.27 L 545.75 337.95 L 560.17 305.01 L 574.58 319.58 L 589.00 285.06 L 603.42 295.09 L 617.83 264.79 L 632.25 80.69 L 646.67 152.37 L 661.08 203.46 L 675.50 60.00 L 689.92 180.66 L 704.33 375.00 L 718.75 338.05 L 733.17 304.06 L 747.58 230.70 L 762.00 279.99 L 776.42 304.27 L 790.83 323.49 L 805.25 278.41 L 819.67 263.63 L 834.08 236.50 L 848.50 176.22 L 862.92 97.05 L 877.33 163.35 L 891.75 164.72 L 906.17 173.37 L 920.58 262.89 L 935.00 316.94" fill="none" stroke="#69a7ff" stroke-width="4" stroke-linecap="round" stroke-linejoin="round"/>
<circle cx="935.00" cy="316.94" r="6" fill="#69a7ff"/>
</svg>