<svg xmlns="http://www.w3.org/2000/svg" width="960" height="430" viewBox="0 0 960 430" role="img" aria-label="Composite score history">
<rect width="100%" height="100%" fill="#0b1020" rx="20"/>
<text x="70" y="32" fill="#f5f7fb" font-family="Inter, Arial, sans-serif" font-size="24" font-weight="700">Composite score history</text>
<text x="70" y="52" fill="#93a4c3" font-family="Inter, Arial, sans-serif" font-size="13">Trailing 59 sessions through 2025-11-12</text>
<line x1="70" x2="935" y1="375.00" y2="375.00" stroke="#27314e" stroke-width="1"/>
<text x="58" y="379.00" text-anchor="end" fill="#93a4c3" font-family="Inter, Arial, sans-serif" font-size="12">5</text>
<line x1="70" x2="935" y1="312.00" y2="312.00" stroke="#27314e" stroke-width="1"/>
<text x="58" y="316.00" text-anchor="end" fill="#93a4c3" font-family="Inter, Arial, sans-serif" font-size="12">11</text>
<line x1="70" x2="935" y1="249.00" y2="249.00" stroke="#27314e" stroke-width="1"/>
<text x="58" y="253.00" text-anchor="end" fill="#93a4c3" font-family="Inter, Arial, sans-serif" font-size="12">17</text>
<line x1="70" x2="935" y1="186.00" y2="186.00" stroke="#27314e" stroke-width="1"/>
<text x="58" y="190.00" text-anchor="end" fill="#93a4c3" font-family="Inter, Arial, sans-serif" font-size="12">23</text>
<line x1="70" x2="935" y1="123.00" y2="123.00" stroke="#27314e" stroke-width="1"/>
<text x="58" y="127.00" text-anchor="end" fill="#93a4c3" font-family="Inter, Arial, sans-serif" font-size="12">29</text>
<line x1="70" x2="935" y1="60.00" y2="60.00" stroke="#27314e" stroke-width="1"/>
<text x="58" y="64.00" text-anchor="end" fill="#93a4c3" font-family="Inter, Arial, sans-serif" font-size="12">35</text>
<text x="70.00" y="412" text-anchor="middle" fill="#93a4c3" font-family="Inter, Arial, sans-serif" font-size="12">2025-08-19</text>
<text x="502.50" y="412" text-anchor="middle" fill="#93a4c3" font-family="Inter, Arial, sans-serif" font-size="12">2025-09-30</text>
<text x="935.00" y="412" text-anchor="middle" fill="#93a4c3" font-family="Inter, Arial, sans-serif" font-size="12">2025-11-12</text>
<path d="M 70.00 284.95 L 84.91 263.84 L 99.83 178.65 L 114.74 261.84 L 129.66 235.55 L 144.57 249.49 L 159.48 267.22 L 174.40 315.67 L 189.31 268.59 L 204.22 221.19 L 219.14 245.90 L 234.05 294.46 L 248.97 276.30 L 263.88 318.00 L 278.79 337.63 L 293.71 332.67 L 308.62 339.53 L 323.53 320.85 L 338.45 317.57 L 353.36 315.88 L 368.28 307.02 L 383.19 259.83 L 398.10 308.07 L 413.02 278.20 L 427.93 295.93 L 442.84 277.35 L 457.76 217.08 L 472.67 249.27 L 487.59 251.60 L 502.50 268.06 L 517.41 321.27 L 532.33 337.95 L 547.24 305.01 L 562.16 319.58 L 577.07 285.06 L 591.98 295.09 L 606.90 264.79 L 621.81 80.69 L 636.72 152.37 L 651.64 203.46 L 666.55 60.00 L 681.47 180.66 L 696.38 375.00 L 711.29 338.05 L 726.21 304.06 L 741.12 230.70 L 756.03 279.99 L 770.95 304.27 L 785.86 323.49 L 800.78 278.41 L 815.69 263.63 L 830.60 236.50 L 845.52 176.22 L 860.43 97.05 L 875.34 163.35 L 890.26 164.72 L 905.17 173.37 L 920.09 262.89 L 935.00 316.94" fill="none" stroke="#69a7ff" stroke-width="4" stroke-linecap="round" stroke-linejoin="round"/>
<circle cx="935.00" cy="316.94" r="6" fill="#69a7ff"/>
</svg>