<svg xmlns="http://www.w3.org/2000/svg" width="960" height="430" viewBox="0 0 960 430" role="img" aria-label="Composite score history">
<rect width="100%" height="100%" fill="#0b1020" rx="20"/>
<text x="70" y="32" fill="#f5f7fb" font-family="Inter, Arial, sans-serif" font-size="24" font-weight="700">Composite score history</text>
<text x="70" y="52" fill="#93a4c3" font-family="Inter, Arial, sans-serif" font-size="13">Trailing 68 sessions through 2025-11-12</text>
<line x1="70" x2="935" y1="375.00" y2="375.00" stroke="#27314e" stroke-width="1"/>
<text x="58" y="379.00" text-anchor="end" fill="#93a4c3" font-family="Inter, Arial, sans-serif" font-size="12">5</text>
<line x1="70" x2="935" y1="312.00" y2="312.00" stroke="#27314e" stroke-width="1"/>
<text x="58" y="316.00" text-anchor="end" fill="#93a4c3" font-family="Inter, Arial, sans-serif" font-size="12">11</text>
<line x1="70" x2="935" y1="249.00" y2="249.00" stroke="#27314e" stroke-width="1"/>
<text x="58" y="253.00" text-anchor="end" fill="#93a4c3" font-family="Inter, Arial, sans-serif" font-size="12">17</text>
<line x1="70" x2="935" y1="186.00" y2="186.00" stroke="#27314e" stroke-width="1"/>
<text x="58" y="190.00" text-anchor="end" fill="#93a4c3" font-family="Inter, Arial, sans-serif" font-size="12">23</text>
<line x1="70" x2="935" y1="123.00" y2="123.00" stroke="#27314e" stroke-width="1"/>
<text x="58" y="127.00" text-anchor="end" fill="#93a4c3" font-family="Inter, Arial, sans-serif" font-size="12">29</text>
<line x1="70" x2="935" y1="60.00" y2="60.00" stroke="#27314e" stroke-width="1"/>
<text x="58" y="64.00" text-anchor="end" fill="#93a4c3" font-family="Inter, Arial, sans-serif" font-size="12">35</text>
<text x="70.00" y="412" text-anchor="middle" fill="#93a4c3" font-family="Inter, Arial, sans-serif" font-size="12">2025-08-06</text>
<text x="508.96" y="412" text-anchor="middle" fill="#93a4c3" font-family="Inter, Arial, sans-serif" font-size="12">2025-09-24</text>
<text x="935.00" y="412" text-anchor="middle" fill="#93a4c3" font-family="Inter, Arial, sans-serif" font-size="12">2025-11-12</text>
<path d="M 70.00 277.99 L 82.91 253.81 L 95.82 233.76 L 108.73 218.34 L 121.64 300.89 L 134.55 334.46 L 147.46 319.79 L 160.37 309.02 L 173.28 310.61 L 186.19 235.87 L 199.10 183.93 L 212.01 141.81 L 224.93 261.84 L 237.84 231.86 L 250.75 249.49 L 263.66 267.22 L 276.57 315.67 L 289.48 268.59 L 302.39 221.19 L 315.30 245.90 L 328.21 294.46 L 341.12 276.30 L 354.03 318.00 L 366.94 337.63 L 379.85 332.67 L 392.76 339.53 L 405.67 320.85 L 418.58 317.57 L 431.49 315.88 L 444.40 307.02 L 457.31 259.83 L 470.22 308.07 L 483.13 278.20 L 496.04 295.93 L 508.96 277.35 L 521.87 217.08 L 534.78 249.27 L 547.69 251.60 L 560.60 268.06 L 573.51 321.27 L 586.42 337.95 L 599.33 305.01 L 612.24 319.58 L 625.15 285.06 L 638.06 295.09 L 650.97 264.79 L 663.88 80.69 L 676.79 152.37 L 689.70 203.46 L 702.61 60.00 L 715.52 180.66 L 728.43 375.00 L 741.34 338.05 L 754.25 304.06 L 767.16 230.70 L 780.07 279.99 L 792.99 304.27 L 805.90 323.49 L 818.81 278.41 L 831.72 263.63 L 844.63 236.50 L 857.54 176.22 L 870.45 97.05 L 883.36 163.35 L 896.27 164.72 L 909.18 173.37 L 922.09 262.89 L 935.00 316.94" fill="none" stroke="#69a7ff" stroke-width="4" stroke-linecap="round" stroke-linejoin="round"/>
<circle cx="935.00" cy="316.94" r="6" fill="#69a7ff"/>
</svg>