<svg xmlns="http://www.w3.org/2000/svg" width="960" height="430" viewBox="0 0 960 430" role="img" aria-label="Composite score history">
<rect width="100%" height="100%" fill="#0b1020" rx="20"/>
<text x="70" y="32" fill="#f5f7fb" font-family="Inter, Arial, sans-serif" font-size="24" font-weight="700">Composite score history</text>
<text x="70" y="52" fill="#93a4c3" font-family="Inter, Arial, sans-serif" font-size="13">Trailing 67 sessions through 2025-11-12</text>
<line x1="70" x2="935" y1="375.00" y2="375.00" stroke="#27314e" stroke-width="1"/>
<text x="58" y="379.00" text-anchor="end" fill="#93a4c3" font-family="Inter, Arial, sans-serif" font-size="12">5</text>
<line x1="70" x2="935" y1="312.00" y2="312.00" stroke="#27314e" stroke-width="1"/>
<text x="58" y="316.00" text-anchor="end" fill="#93a4c3" font-family="Inter, Arial, sans-serif" font-size="12">11</text>
<line x1="70" x2="935" y1="249.00" y2="249.00" stroke="#27314e" stroke-width="1"/>
<text x="58" y="253.00" text-anchor="end" fill="#93a4c3" font-family="Inter, Arial, sans-serif" font-size="12">17</text>
<line x1="70" x2="935" y1="186.00" y2="186.00" stroke="#27314e" stroke-width="1"/>
<text x="58" y="190.00" text-anchor="end" fill="#93a4c3" font-family="Inter, Arial, sans-serif" font-size="12">23</text>
<line x1="70" x2="935" y1="123.00" y2="123.00" stroke="#27314e" stroke-width="1"/>
<text x="58" y="127.00" text-anchor="end" fill="#93a4c3" font-family="Inter, Arial, sans-serif" font-size="12">29</text>
<line x1="70" x2="935" y1="60.00" y2="60.00" stroke="#27314e" stroke-width="1"/>
<text x="58" y="64.00" text-anchor="end" fill="#93a4c3" font-family="Inter, Arial, sans-serif" font-size="12">35</text>
<text x="70.00" y="412" text-anchor="middle" fill="#93a4c3" font-family="Inter, Arial, sans-serif" font-size="12">2025-08-07</text>
<text x="502.50" y="412" text-anchor="middle" fill="#93a4c3" font-family="Inter, Arial, sans-serif" font-size="12">2025-09-24</text>
<text x="935.00" y="412" text-anchor="middle" fill="#93a4c3" font-family="Inter, Arial, sans-serif" font-size="12">2025-11-12</text>
<path d="M 70.00 275.88 L 83.11 253.81 L 96.21 238.40 L 109.32 320.95 L 122.42 341.96 L 135.53 319.79 L 148.64 309.02 L 161.74 310.61 L 174.85 235.87 L 187.95 183.93 L 201.06 141.81 L 214.17 261.84 L 227.27 231.86 L 240.38 249.49 L 253.48 267.22 L 266.59 315.67 L 279.70 268.59 L 292.80 221.19 L 305.91 245.90 L 319.02 294.46 L 332.12 276.30 L 345.23 318.00 L 358.33 337.63 L 371.44 332.67 L 384.55 339.53 L 397.65 320.85 L 410.76 317.57 L 423.86 315.88 L 436.97 307.02 L 450.08 259.83 L 463.18 308.07 L 476.29 278.20 L 489.39 295.93 L 502.50 277.35 L 515.61 217.08 L 528.71 249.27 L 541.82 251.60 L 554.92 268.06 L 568.03 321.27 L 581.14 337.95 L 594.24 305.01 L 607.35 319.58 L 620.45 285.06 L 633.56 295.09 L 646.67 264.79 L 659.77 80.69 L 672.88 152.37 L 685.98 203.46 L 699.09 60.00 L 712.20 180.66 L 725.30 375.00 L 738.41 338.05 L 751.52 304.06 L 764.62 230.70 L 777.73 279.99 L 790.83 304.27 L 803.94 323.49 L 817.05 278.41 L 830.15 263.63 L 843.26 236.50 L 856.36 176.22 L 869.47 97.05 L 882.58 163.35 L 895.68 164.72 L 908.79 173.37 L 921.89 262.89 L 935.00 316.94" fill="none" stroke="#69a7ff" stroke-width="4" stroke-linecap="round" stroke-linejoin="round"/>
<circle cx="935.00" cy="316.94" r="6" fill="#69a7ff"/>
</svg>