<svg xmlns="http://www.w3.org/2000/svg" width="960" height="430" viewBox="0 0 960 430" role="img" aria-label="Composite score history">
<rect width="100%" height="100%" fill="#0b1020" rx="20"/>
<text x="70" y="32" fill="#f5f7fb" font-family="Inter, Arial, sans-serif" font-size="24" font-weight="700">Composite score history</text>
<text x="70" y="52" fill="#93a4c3" font-family="Inter, Arial, sans-serif" font-size="13">Trailing 76 sessions through 2025-12-09</text>
<line x1="70" x2="935" y1="375.00" y2="375.00" stroke="#27314e" stroke-width="1"/>
<text x="58" y="379.00" text-anchor="end" fill="#93a4c3" font-family="Inter, Arial, sans-serif" font-size="12">0</text>
<line x1="70" x2="935" y1="312.00" y2="312.00" stroke="#27314e" stroke-width="1"/>
<text x="58" y="316.00" text-anchor="end" fill="#93a4c3" font-family="Inter, Arial, sans-serif" font-size="12">8</text>
<line x1="70" x2="935" y1="249.00" y2="249.00" stroke="#27314e" stroke-width="1"/>
<text x="58" y="253.00" text-anchor="end" fill="#93a4c3" font-family="Inter, Arial, sans-serif" font-size="12">17</text>
<line x1="70" x2="935" y1="186.00" y2="186.00" stroke="#27314e" stroke-width="1"/>
<text x="58" y="190.00" text-anchor="end" fill="#93a4c3" font-family="Inter, Arial, sans-serif" font-size="12">25</text>
<line x1="70" x2="935" y1="123.00" y2="123.00" stroke="#27314e" stroke-width="1"/>
<text x="58" y="127.00" text-anchor="end" fill="#93a4c3" font-family="Inter, Arial, sans-serif" font-size="12">33</text>
<line x1="70" x2="935" y1="60.00" y2="60.00" stroke="#27314e" stroke-width="1"/>
<text x="58" y="64.00" text-anchor="end" fill="#93a4c3" font-family="Inter, Arial, sans-serif" font-size="12">41</text>
<text x="70.00" y="412" text-anchor="middle" fill="#93a4c3" font-family="Inter, Arial, sans-serif" font-size="12">2025-08-20</text>
<text x="508.27" y="412" text-anchor="middle" fill="#93a4c3" font-family="Inter, Arial, sans-serif" font-size="12">2025-10-15</text>
<text x="935.00" y="412" text-anchor="middle" fill="#93a4c3" font-family="Inter, Arial, sans-serif" font-size="12">2025-12-09</text>
<path d="M 70.00 270.23 L 81.53 205.57 L 93.07 263.37 L 104.60 244.30 L 116.13 254.37 L 127.67 258.71 L 139.20 293.71 L 150.73 259.71 L 162.27 225.47 L 173.80 243.31 L 185.33 278.39 L 196.87 265.27 L 208.40 295.39 L 219.93 309.58 L 231.47 305.99 L 243.00 310.95 L 254.53 297.45 L 266.07 295.09 L 277.60 293.87 L 289.13 287.46 L 300.67 253.38 L 312.20 288.22 L 323.73 266.64 L 335.27 279.46 L 346.80 266.03 L 358.33 222.49 L 369.87 245.75 L 381.40 247.43 L 392.93 259.32 L 404.47 297.76 L 416.00 309.80 L 427.53 286.01 L 439.07 296.54 L 450.60 271.60 L 462.13 278.85 L 473.67 256.96 L 485.20 123.98 L 496.73 175.75 L 508.27 212.66 L 519.80 109.03 L 531.33 196.19 L 542.87 336.57 L 554.40 309.88 L 565.93 285.33 L 577.47 232.33 L 589.00 267.94 L 600.53 285.48 L 612.07 299.36 L 623.60 266.80 L 635.13 256.12 L 646.67 236.53 L 658.20 192.98 L 669.73 135.80 L 681.27 183.68 L 692.80 184.67 L 704.33 190.93 L 715.87 255.59 L 727.40 294.63 L 738.93 209.53 L 750.47 237.06 L 762.00 167.36 L 773.53 60.00 L 785.07 70.45 L 796.60 66.18 L 808.13 146.17 L 819.67 277.24 L 831.20 326.96 L 842.73 337.79 L 854.27 375.00 L 865.80 333.06 L 877.33 308.20 L 888.87 290.89 L 900.40 264.74 L 911.93 247.28 L 923.47 278.92 L 935.00 241.33" fill="none" stroke="#69a7ff" stroke-width="4" stroke-linecap="round" stroke-linejoin="round"/>
<circle cx="935.00" cy="241.33" r="6" fill="#69a7ff"/>
</svg>