<svg xmlns="http://www.w3.org/2000/svg" width="960" height="430" viewBox="0 0 960 430" role="img" aria-label="Composite score history">
<rect width="100%" height="100%" fill="#0b1020" rx="20"/>
<text x="70" y="32" fill="#f5f7fb" font-family="Inter, Arial, sans-serif" font-size="24" font-weight="700">Composite score history</text>
<text x="70" y="52" fill="#93a4c3" font-family="Inter, Arial, sans-serif" font-size="13">Trailing 78 sessions through 2025-12-09</text>
<line x1="70" x2="935" y1="375.00" y2="375.00" stroke="#27314e" stroke-width="1"/>
<text x="58" y="379.00" text-anchor="end" fill="#93a4c3" font-family="Inter, Arial, sans-serif" font-size="12">0</text>
<line x1="70" x2="935" y1="312.00" y2="312.00" stroke="#27314e" stroke-width="1"/>
<text x="58" y="316.00" text-anchor="end" fill="#93a4c3" font-family="Inter, Arial, sans-serif" font-size="12">8</text>
<line x1="70" x2="935" y1="249.00" y2="249.00" stroke="#27314e" stroke-width="1"/>
<text x="58" y="253.00" text-anchor="end" fill="#93a4c3" font-family="Inter, Arial, sans-serif" font-size="12">17</text>
<line x1="70" x2="935" y1="186.00" y2="186.00" stroke="#27314e" stroke-width="1"/>
<text x="58" y="190.00" text-anchor="end" fill="#93a4c3" font-family="Inter, Arial, sans-serif" font-size="12">25</text>
<line x1="70" x2="935" y1="123.00" y2="123.00" stroke="#27314e" stroke-width="1"/>
<text x="58" y="127.00" text-anchor="end" fill="#93a4c3" font-family="Inter, Arial, sans-serif" font-size="12">33</text>
<line x1="70" x2="935" y1="60.00" y2="60.00" stroke="#27314e" stroke-width="1"/>
<text x="58" y="64.00" text-anchor="end" fill="#93a4c3" font-family="Inter, Arial, sans-serif" font-size="12">41</text>
<text x="70.00" y="412" text-anchor="middle" fill="#93a4c3" font-family="Inter, Arial, sans-serif" font-size="12">2025-08-18</text>
<text x="508.12" y="412" text-anchor="middle" fill="#93a4c3" font-family="Inter, Arial, sans-serif" font-size="12">2025-10-14</text>
<text x="935.00" y="412" text-anchor="middle" fill="#93a4c3" font-family="Inter, Arial, sans-serif" font-size="12">2025-12-09</text>
<path d="M 70.00 270.46 L 81.23 245.07 L 92.47 233.63 L 103.70 185.89 L 114.94 255.05 L 126.17 233.17 L 137.40 245.90 L 148.64 258.71 L 159.87 293.71 L 171.10 259.71 L 182.34 225.47 L 193.57 243.31 L 204.81 278.39 L 216.04 265.27 L 227.27 295.39 L 238.51 309.58 L 249.74 305.99 L 260.97 310.95 L 272.21 297.45 L 283.44 295.09 L 294.68 293.87 L 305.91 287.46 L 317.14 253.38 L 328.38 288.22 L 339.61 266.64 L 350.84 279.46 L 362.08 266.03 L 373.31 222.49 L 384.55 245.75 L 395.78 247.43 L 407.01 259.32 L 418.25 297.76 L 429.48 309.80 L 440.71 286.01 L 451.95 296.54 L 463.18 271.60 L 474.42 278.85 L 485.65 256.96 L 496.88 123.98 L 508.12 175.75 L 519.35 212.66 L 530.58 109.03 L 541.82 196.19 L 553.05 336.57 L 564.29 309.88 L 575.52 285.33 L 586.75 232.33 L 597.99 267.94 L 609.22 285.48 L 620.45 299.36 L 631.69 266.80 L 642.92 256.12 L 654.16 236.53 L 665.39 192.98 L 676.62 135.80 L 687.86 183.68 L 699.09 184.67 L 710.32 190.93 L 721.56 255.59 L 732.79 294.63 L 744.03 209.53 L 755.26 237.06 L 766.49 167.36 L 777.73 60.00 L 788.96 70.45 L 800.19 66.18 L 811.43 146.17 L 822.66 277.24 L 833.90 326.96 L 845.13 337.79 L 856.36 375.00 L 867.60 333.06 L 878.83 308.20 L 890.06 290.89 L 901.30 264.74 L 912.53 247.28 L 923.77 278.92 L 935.00 241.33" fill="none" stroke="#69a7ff" stroke-width="4" stroke-linecap="round" stroke-linejoin="round"/>
<circle cx="935.00" cy="241.33" r="6" fill="#69a7ff"/>
</svg>