<svg xmlns="http://www.w3.org/2000/svg" width="960" height="430" viewBox="0 0 960 430" role="img" aria-label="Composite score history">
<rect width="100%" height="100%" fill="#0b1020" rx="20"/>
<text x="70" y="32" fill="#f5f7fb" font-family="Inter, Arial, sans-serif" font-size="24" font-weight="700">Composite score history</text>
<text x="70" y="52" fill="#93a4c3" font-family="Inter, Arial, sans-serif" font-size="13">Trailing 73 sessions through 2025-12-09</text>
<line x1="70" x2="935" y1="375.00" y2="375.00" stroke="#27314e" stroke-width="1"/>
<text x="58" y="379.00" text-anchor="end" fill="#93a4c3" font-family="Inter, Arial, sans-serif" font-size="12">0</text>
<line x1="70" x2="935" y1="312.00" y2="312.00" stroke="#27314e" stroke-width="1"/>
<text x="58" y="316.00" text-anchor="end" fill="#93a4c3" font-family="Inter, Arial, sans-serif" font-size="12">8</text>
<line x1="70" x2="935" y1="249.00" y2="249.00" stroke="#27314e" stroke-width="1"/>
<text x="58" y="253.00" text-anchor="end" fill="#93a4c3" font-family="Inter, Arial, sans-serif" font-size="12">17</text>
<line x1="70" x2="935" y1="186.00" y2="186.00" stroke="#27314e" stroke-width="1"/>
<text x="58" y="190.00" text-anchor="end" fill="#93a4c3" font-family="Inter, Arial, sans-serif" font-size="12">25</text>
<line x1="70" x2="935" y1="123.00" y2="123.00" stroke="#27314e" stroke-width="1"/>
<text x="58" y="127.00" text-anchor="end" fill="#93a4c3" font-family="Inter, Arial, sans-serif" font-size="12">33</text>
<line x1="70" x2="935" y1="60.00" y2="60.00" stroke="#27314e" stroke-width="1"/>
<text x="58" y="64.00" text-anchor="end" fill="#93a4c3" font-family="Inter, Arial, sans-serif" font-size="12">41</text>
<text x="70.00" y="412" text-anchor="middle" fill="#93a4c3" font-family="Inter, Arial, sans-serif" font-size="12">2025-08-25</text>
<text x="502.50" y="412" text-anchor="middle" fill="#93a4c3" font-family="Inter, Arial, sans-serif" font-size="12">2025-10-16</text>
<text x="935.00" y="412" text-anchor="middle" fill="#93a4c3" font-family="Inter, Arial, sans-serif" font-size="12">2025-12-09</text>
<path d="M 70.00 265.65 L 82.01 275.64 L 94.03 279.53 L 106.04 291.88 L 118.06 273.89 L 130.07 225.47 L 142.08 243.31 L 154.10 278.39 L 166.11 265.27 L 178.12 295.39 L 190.14 309.58 L 202.15 305.99 L 214.17 310.95 L 226.18 297.45 L 238.19 295.09 L 250.21 293.87 L 262.22 287.46 L 274.24 253.38 L 286.25 288.22 L 298.26 266.64 L 310.28 279.46 L 322.29 266.03 L 334.31 222.49 L 346.32 245.75 L 358.33 247.43 L 370.35 259.32 L 382.36 297.76 L 394.38 309.80 L 406.39 286.01 L 418.40 296.54 L 430.42 271.60 L 442.43 278.85 L 454.44 256.96 L 466.46 123.98 L 478.47 175.75 L 490.49 212.66 L 502.50 109.03 L 514.51 196.19 L 526.53 336.57 L 538.54 309.88 L 550.56 285.33 L 562.57 232.33 L 574.58 267.94 L 586.60 285.48 L 598.61 299.36 L 610.62 266.80 L 622.64 256.12 L 634.65 236.53 L 646.67 192.98 L 658.68 135.80 L 670.69 183.68 L 682.71 184.67 L 694.72 190.93 L 706.74 255.59 L 718.75 294.63 L 730.76 209.53 L 742.78 237.06 L 754.79 167.36 L 766.81 60.00 L 778.82 70.45 L 790.83 66.18 L 802.85 146.17 L 814.86 277.24 L 826.88 326.96 L 838.89 337.79 L 850.90 375.00 L 862.92 333.06 L 874.93 308.20 L 886.94 290.89 L 898.96 264.74 L 910.97 247.28 L 922.99 278.92 L 935.00 241.33" fill="none" stroke="#69a7ff" stroke-width="4" stroke-linecap="round" stroke-linejoin="round"/>
<circle cx="935.00" cy="241.33" r="6" fill="#69a7ff"/>
</svg>