<svg xmlns="http://www.w3.org/2000/svg" width="960" height="430" viewBox="0 0 960 430" role="img" aria-label="Composite score history">
<rect width="100%" height="100%" fill="#0b1020" rx="20"/>
<text x="70" y="32" fill="#f5f7fb" font-family="Inter, Arial, sans-serif" font-size="24" font-weight="700">Composite score history</text>
<text x="70" y="52" fill="#93a4c3" font-family="Inter, Arial, sans-serif" font-size="13">Trailing 72 sessions through 2025-12-09</text>
<line x1="70" x2="935" y1="375.00" y2="375.00" stroke="#27314e" stroke-width="1"/>
<text x="58" y="379.00" text-anchor="end" fill="#93a4c3" font-family="Inter, Arial, sans-serif" font-size="12">0</text>
<line x1="70" x2="935" y1="312.00" y2="312.00" stroke="#27314e" stroke-width="1"/>
<text x="58" y="316.00" text-anchor="end" fill="#93a4c3" font-family="Inter, Arial, sans-serif" font-size="12">8</text>
<line x1="70" x2="935" y1="249.00" y2="249.00" stroke="#27314e" stroke-width="1"/>
<text x="58" y="253.00" text-anchor="end" fill="#93a4c3" font-family="Inter, Arial, sans-serif" font-size="12">17</text>
<line x1="70" x2="935" y1="186.00" y2="186.00" stroke="#27314e" stroke-width="1"/>
<text x="58" y="190.00" text-anchor="end" fill="#93a4c3" font-family="Inter, Arial, sans-serif" font-size="12">25</text>
<line x1="70" x2="935" y1="123.00" y2="123.00" stroke="#27314e" stroke-width="1"/>
<text x="58" y="127.00" text-anchor="end" fill="#93a4c3" font-family="Inter, Arial, sans-serif" font-size="12">33</text>
<line x1="70" x2="935" y1="60.00" y2="60.00" stroke="#27314e" stroke-width="1"/>
<text x="58" y="64.00" text-anchor="end" fill="#93a4c3" font-family="Inter, Arial, sans-serif" font-size="12">41</text>
<text x="70.00" y="412" text-anchor="middle" fill="#93a4c3" font-family="Inter, Arial, sans-serif" font-size="12">2025-08-26</text>
<text x="508.59" y="412" text-anchor="middle" fill="#93a4c3" font-family="Inter, Arial, sans-serif" font-size="12">2025-10-17</text>
<text x="935.00" y="412" text-anchor="middle" fill="#93a4c3" font-family="Inter, Arial, sans-serif" font-size="12">2025-12-09</text>
<path d="M 70.00 271.60 L 82.18 274.19 L 94.37 280.90 L 106.55 263.14 L 118.73 193.37 L 130.92 243.31 L 143.10 278.39 L 155.28 265.27 L 167.46 295.39 L 179.65 309.58 L 191.83 305.99 L 204.01 310.95 L 216.20 297.45 L 228.38 295.09 L 240.56 293.87 L 252.75 287.46 L 264.93 253.38 L 277.11 288.22 L 289.30 266.64 L 301.48 279.46 L 313.66 266.03 L 325.85 222.49 L 338.03 245.75 L 350.21 247.43 L 362.39 259.32 L 374.58 297.76 L 386.76 309.80 L 398.94 286.01 L 411.13 296.54 L 423.31 271.60 L 435.49 278.85 L 447.68 256.96 L 459.86 123.98 L 472.04 175.75 L 484.23 212.66 L 496.41 109.03 L 508.59 196.19 L 520.77 336.57 L 532.96 309.88 L 545.14 285.33 L 557.32 232.33 L 569.51 267.94 L 581.69 285.48 L 593.87 299.36 L 606.06 266.80 L 618.24 256.12 L 630.42 236.53 L 642.61 192.98 L 654.79 135.80 L 666.97 183.68 L 679.15 184.67 L 691.34 190.93 L 703.52 255.59 L 715.70 294.63 L 727.89 209.53 L 740.07 237.06 L 752.25 167.36 L 764.44 60.00 L 776.62 70.45 L 788.80 66.18 L 800.99 146.17 L 813.17 277.24 L 825.35 326.96 L 837.54 337.79 L 849.72 375.00 L 861.90 333.06 L 874.08 308.20 L 886.27 290.89 L 898.45 264.74 L 910.63 247.28 L 922.82 278.92 L 935.00 241.33" fill="none" stroke="#69a7ff" stroke-width="4" stroke-linecap="round" stroke-linejoin="round"/>
<circle cx="935.00" cy="241.33" r="6" fill="#69a7ff"/>
</svg>