<svg xmlns="http://www.w3.org/2000/svg" width="960" height="430" viewBox="0 0 960 430" role="img" aria-label="Composite score history">
<rect width="100%" height="100%" fill="#0b1020" rx="20"/>
<text x="70" y="32" fill="#f5f7fb" font-family="Inter, Arial, sans-serif" font-size="24" font-weight="700">Composite score history</text>
<text x="70" y="52" fill="#93a4c3" font-family="Inter, Arial, sans-serif" font-size="13">Trailing 83 sessions through 2025-12-09</text>
<line x1="70" x2="935" y1="375.00" y2="375.00" stroke="#27314e" stroke-width="1"/>
<text x="58" y="379.00" text-anchor="end" fill="#93a4c3" font-family="Inter, Arial, sans-serif" font-size="12">0</text>
<line x1="70" x2="935" y1="312.00" y2="312.00" stroke="#27314e" stroke-width="1"/>
<text x="58" y="316.00" text-anchor="end" fill="#93a4c3" font-family="Inter, Arial, sans-serif" font-size="12">8</text>
<line x1="70" x2="935" y1="249.00" y2="249.00" stroke="#27314e" stroke-width="1"/>
<text x="58" y="253.00" text-anchor="end" fill="#93a4c3" font-family="Inter, Arial, sans-serif" font-size="12">17</text>
<line x1="70" x2="935" y1="186.00" y2="186.00" stroke="#27314e" stroke-width="1"/>
<text x="58" y="190.00" text-anchor="end" fill="#93a4c3" font-family="Inter, Arial, sans-serif" font-size="12">25</text>
<line x1="70" x2="935" y1="123.00" y2="123.00" stroke="#27314e" stroke-width="1"/>
<text x="58" y="127.00" text-anchor="end" fill="#93a4c3" font-family="Inter, Arial, sans-serif" font-size="12">33</text>
<line x1="70" x2="935" y1="60.00" y2="60.00" stroke="#27314e" stroke-width="1"/>
<text x="58" y="64.00" text-anchor="end" fill="#93a4c3" font-family="Inter, Arial, sans-serif" font-size="12">41</text>
<text x="70.00" y="412" text-anchor="middle" fill="#93a4c3" font-family="Inter, Arial, sans-serif" font-size="12">2025-08-11</text>
<text x="502.50" y="412" text-anchor="middle" fill="#93a4c3" font-family="Inter, Arial, sans-serif" font-size="12">2025-10-08</text>
<text x="935.00" y="412" text-anchor="middle" fill="#93a4c3" font-family="Inter, Arial, sans-serif" font-size="12">2025-12-09</text>
<path d="M 70.00 259.10 L 80.55 295.01 L 91.10 306.30 L 101.65 300.27 L 112.20 293.79 L 122.74 290.05 L 133.29 236.07 L 143.84 198.55 L 154.39 168.13 L 164.94 254.83 L 175.49 233.17 L 186.04 245.90 L 196.59 258.71 L 207.13 293.71 L 217.68 259.71 L 228.23 225.47 L 238.78 243.31 L 249.33 278.39 L 259.88 265.27 L 270.43 295.39 L 280.98 309.58 L 291.52 305.99 L 302.07 310.95 L 312.62 297.45 L 323.17 295.09 L 333.72 293.87 L 344.27 287.46 L 354.82 253.38 L 365.37 288.22 L 375.91 266.64 L 386.46 279.46 L 397.01 266.03 L 407.56 222.49 L 418.11 245.75 L 428.66 247.43 L 439.21 259.32 L 449.76 297.76 L 460.30 309.80 L 470.85 286.01 L 481.40 296.54 L 491.95 271.60 L 502.50 278.85 L 513.05 256.96 L 523.60 123.98 L 534.15 175.75 L 544.70 212.66 L 555.24 109.03 L 565.79 196.19 L 576.34 336.57 L 586.89 309.88 L 597.44 285.33 L 607.99 232.33 L 618.54 267.94 L 629.09 285.48 L 639.63 299.36 L 650.18 266.80 L 660.73 256.12 L 671.28 236.53 L 681.83 192.98 L 692.38 135.80 L 702.93 183.68 L 713.48 184.67 L 724.02 190.93 L 734.57 255.59 L 745.12 294.63 L 755.67 209.53 L 766.22 237.06 L 776.77 167.36 L 787.32 60.00 L 797.87 70.45 L 808.41 66.18 L 818.96 146.17 L 829.51 277.24 L 840.06 326.96 L 850.61 337.79 L 861.16 375.00 L 871.71 333.06 L 882.26 308.20 L 892.80 290.89 L 903.35 264.74 L 913.90 247.28 L 924.45 278.92 L 935.00 241.33" fill="none" stroke="#69a7ff" stroke-width="4" stroke-linecap="round" stroke-linejoin="round"/>
<circle cx="935.00" cy="241.33" r="6" fill="#69a7ff"/>
</svg>