<svg xmlns="http://www.w3.org/2000/svg" width="960" height="430" viewBox="0 0 960 430" role="img" aria-label="Composite score history">
<rect width="100%" height="100%" fill="#0b1020" rx="20"/>
<text x="70" y="32" fill="#f5f7fb" font-family="Inter, Arial, sans-serif" font-size="24" font-weight="700">Composite score history</text>
<text x="70" y="52" fill="#93a4c3" font-family="Inter, Arial, sans-serif" font-size="13">Trailing 59 sessions through 2025-12-09</text>
<line x1="70" x2="935" y1="375.00" y2="375.00" stroke="#27314e" stroke-width="1"/>
<text x="58" y="379.00" text-anchor="end" fill="#93a4c3" font-family="Inter, Arial, sans-serif" font-size="12">0</text>
<line x1="70" x2="935" y1="312.00" y2="312.00" stroke="#27314e" stroke-width="1"/>
<text x="58" y="316.00" text-anchor="end" fill="#93a4c3" font-family="Inter, Arial, sans-serif" font-size="12">8</text>
<line x1="70" x2="935" y1="249.00" y2="249.00" stroke="#27314e" stroke-width="1"/>
<text x="58" y="253.00" text-anchor="end" fill="#93a4c3" font-family="Inter, Arial, sans-serif" font-size="12">17</text>
<line x1="70" x2="935" y1="186.00" y2="186.00" stroke="#27314e" stroke-width="1"/>
<text x="58" y="190.00" text-anchor="end" fill="#93a4c3" font-family="Inter, Arial, sans-serif" font-size="12">25</text>
<line x1="70" x2="935" y1="123.00" y2="123.00" stroke="#27314e" stroke-width="1"/>
<text x="58" y="127.00" text-anchor="end" fill="#93a4c3" font-family="Inter, Arial, sans-serif" font-size="12">33</text>
<line x1="70" x2="935" y1="60.00" y2="60.00" stroke="#27314e" stroke-width="1"/>
<text x="58" y="64.00" text-anchor="end" fill="#93a4c3" font-family="Inter, Arial, sans-serif" font-size="12">41</text>
<text x="70.00" y="412" text-anchor="middle" fill="#93a4c3" font-family="Inter, Arial, sans-serif" font-size="12">2025-09-15</text>
<text x="502.50" y="412" text-anchor="middle" fill="#93a4c3" font-family="Inter, Arial, sans-serif" font-size="12">2025-10-27</text>
<text x="935.00" y="412" text-anchor="middle" fill="#93a4c3" font-family="Inter, Arial, sans-serif" font-size="12">2025-12-09</text>
<path d="M 70.00 279.23 L 84.91 262.22 L 99.83 261.38 L 114.74 258.41 L 129.66 274.19 L 144.57 266.64 L 159.48 279.46 L 174.40 266.03 L 189.31 222.49 L 204.22 245.75 L 219.14 247.43 L 234.05 259.32 L 248.97 297.76 L 263.88 309.80 L 278.79 286.01 L 293.71 296.54 L 308.62 271.60 L 323.53 278.85 L 338.45 256.96 L 353.36 123.98 L 368.28 175.75 L 383.19 212.66 L 398.10 109.03 L 413.02 196.19 L 427.93 336.57 L 442.84 309.88 L 457.76 285.33 L 472.67 232.33 L 487.59 267.94 L 502.50 285.48 L 517.41 299.36 L 532.33 266.80 L 547.24 256.12 L 562.16 236.53 L 577.07 192.98 L 591.98 135.80 L 606.90 183.68 L 621.81 184.67 L 636.72 190.93 L 651.64 255.59 L 666.55 294.63 L 681.47 209.53 L 696.38 237.06 L 711.29 167.36 L 726.21 60.00 L 741.12 70.45 L 756.03 66.18 L 770.95 146.17 L 785.86 277.24 L 800.78 326.96 L 815.69 337.79 L 830.60 375.00 L 845.52 333.06 L 860.43 308.20 L 875.34 290.89 L 890.26 264.74 L 905.17 247.28 L 920.09 278.92 L 935.00 241.33" fill="none" stroke="#69a7ff" stroke-width="4" stroke-linecap="round" stroke-linejoin="round"/>
<circle cx="935.00" cy="241.33" r="6" fill="#69a7ff"/>
</svg>