<svg xmlns="http://www.w3.org/2000/svg" width="960" height="430" viewBox="0 0 960 430" role="img" aria-label="Composite score history">
<rect width="100%" height="100%" fill="#0b1020" rx="20"/>
<text x="70" y="32" fill="#f5f7fb" font-family="Inter, Arial, sans-serif" font-size="24" font-weight="700">Composite score history</text>
<text x="70" y="52" fill="#93a4c3" font-family="Inter, Arial, sans-serif" font-size="13">Trailing 89 sessions through 2025-12-09</text>
<line x1="70" x2="935" y1="375.00" y2="375.00" stroke="#27314e" stroke-width="1"/>
<text x="58" y="379.00" text-anchor="end" fill="#93a4c3" font-family="Inter, Arial, sans-serif" font-size="12">0</text>
<line x1="70" x2="935" y1="312.00" y2="312.00" stroke="#27314e" stroke-width="1"/>
<text x="58" y="316.00" text-anchor="end" fill="#93a4c3" font-family="Inter, Arial, sans-serif" font-size="12">8</text>
<line x1="70" x2="935" y1="249.00" y2="249.00" stroke="#27314e" stroke-width="1"/>
<text x="58" y="253.00" text-anchor="end" fill="#93a4c3" font-family="Inter, Arial, sans-serif" font-size="12">17</text>
<line x1="70" x2="935" y1="186.00" y2="186.00" stroke="#27314e" stroke-width="1"/>
<text x="58" y="190.00" text-anchor="end" fill="#93a4c3" font-family="Inter, Arial, sans-serif" font-size="12">25</text>
<line x1="70" x2="935" y1="123.00" y2="123.00" stroke="#27314e" stroke-width="1"/>
<text x="58" y="127.00" text-anchor="end" fill="#93a4c3" font-family="Inter, Arial, sans-serif" font-size="12">33</text>
<line x1="70" x2="935" y1="60.00" y2="60.00" stroke="#27314e" stroke-width="1"/>
<text x="58" y="64.00" text-anchor="end" fill="#93a4c3" font-family="Inter, Arial, sans-serif" font-size="12">41</text>
<text x="70.00" y="412" text-anchor="middle" fill="#93a4c3" font-family="Inter, Arial, sans-serif" font-size="12">2025-08-01</text>
<text x="502.50" y="412" text-anchor="middle" fill="#93a4c3" font-family="Inter, Arial, sans-serif" font-size="12">2025-10-03</text>
<text x="935.00" y="412" text-anchor="middle" fill="#93a4c3" font-family="Inter, Arial, sans-serif" font-size="12">2025-12-09</text>
<path d="M 70.00 247.81 L 79.83 277.63 L 89.66 255.66 L 99.49 291.58 L 109.32 275.57 L 119.15 259.86 L 128.98 231.80 L 138.81 310.11 L 148.64 307.29 L 158.47 296.69 L 168.30 288.91 L 178.12 290.05 L 187.95 236.07 L 197.78 198.55 L 207.61 168.13 L 217.44 254.83 L 227.27 233.17 L 237.10 245.90 L 246.93 258.71 L 256.76 293.71 L 266.59 259.71 L 276.42 225.47 L 286.25 243.31 L 296.08 278.39 L 305.91 265.27 L 315.74 295.39 L 325.57 309.58 L 335.40 305.99 L 345.23 310.95 L 355.06 297.45 L 364.89 295.09 L 374.72 293.87 L 384.55 287.46 L 394.38 253.38 L 404.20 288.22 L 414.03 266.64 L 423.86 279.46 L 433.69 266.03 L 443.52 222.49 L 453.35 245.75 L 463.18 247.43 L 473.01 259.32 L 482.84 297.76 L 492.67 309.80 L 502.50 286.01 L 512.33 296.54 L 522.16 271.60 L 531.99 278.85 L 541.82 256.96 L 551.65 123.98 L 561.48 175.75 L 571.31 212.66 L 581.14 109.03 L 590.97 196.19 L 600.80 336.57 L 610.62 309.88 L 620.45 285.33 L 630.28 232.33 L 640.11 267.94 L 649.94 285.48 L 659.77 299.36 L 669.60 266.80 L 679.43 256.12 L 689.26 236.53 L 699.09 192.98 L 708.92 135.80 L 718.75 183.68 L 728.58 184.67 L 738.41 190.93 L 748.24 255.59 L 758.07 294.63 L 767.90 209.53 L 777.73 237.06 L 787.56 167.36 L 797.39 60.00 L 807.22 70.45 L 817.05 66.18 L 826.88 146.17 L 836.70 277.24 L 846.53 326.96 L 856.36 337.79 L 866.19 375.00 L 876.02 333.06 L 885.85 308.20 L 895.68 290.89 L 905.51 264.74 L 915.34 247.28 L 925.17 278.92 L 935.00 241.33" fill="none" stroke="#69a7ff" stroke-width="4" stroke-linecap="round" stroke-linejoin="round"/>
<circle cx="935.00" cy="241.33" r="6" fill="#69a7ff"/>
</svg>