<svg xmlns="http://www.w3.org/2000/svg" width="960" height="430" viewBox="0 0 960 430" role="img" aria-label="Composite score history">
<rect width="100%" height="100%" fill="#0b1020" rx="20"/>
<text x="70" y="32" fill="#f5f7fb" font-family="Inter, Arial, sans-serif" font-size="24" font-weight="700">Composite score history</text>
<text x="70" y="52" fill="#93a4c3" font-family="Inter, Arial, sans-serif" font-size="13">Trailing 89 sessions through 2026-03-12</text>
<line x1="70" x2="935" y1="375.00" y2="375.00" stroke="#27314e" stroke-width="1"/>
<text x="58" y="379.00" text-anchor="end" fill="#93a4c3" font-family="Inter, Arial, sans-serif" font-size="12">0</text>
<line x1="70" x2="935" y1="312.00" y2="312.00" stroke="#27314e" stroke-width="1"/>
<text x="58" y="316.00" text-anchor="end" fill="#93a4c3" font-family="Inter, Arial, sans-serif" font-size="12">12</text>
<line x1="70" x2="935" y1="249.00" y2="249.00" stroke="#27314e" stroke-width="1"/>
<text x="58" y="253.00" text-anchor="end" fill="#93a4c3" font-family="Inter, Arial, sans-serif" font-size="12">24</text>
<line x1="70" x2="935" y1="186.00" y2="186.00" stroke="#27314e" stroke-width="1"/>
<text x="58" y="190.00" text-anchor="end" fill="#93a4c3" font-family="Inter, Arial, sans-serif" font-size="12">36</text>
<line x1="70" x2="935" y1="123.00" y2="123.00" stroke="#27314e" stroke-width="1"/>
<text x="58" y="127.00" text-anchor="end" fill="#93a4c3" font-family="Inter, Arial, sans-serif" font-size="12">48</text>
<line x1="70" x2="935" y1="60.00" y2="60.00" stroke="#27314e" stroke-width="1"/>
<text x="58" y="64.00" text-anchor="end" fill="#93a4c3" font-family="Inter, Arial, sans-serif" font-size="12">60</text>
<text x="70.00" y="412" text-anchor="middle" fill="#93a4c3" font-family="Inter, Arial, sans-serif" font-size="12">2025-10-31</text>
<text x="502.50" y="412" text-anchor="middle" fill="#93a4c3" font-family="Inter, Arial, sans-serif" font-size="12">2026-01-07</text>
<text x="935.00" y="412" text-anchor="middle" fill="#93a4c3" font-family="Inter, Arial, sans-serif" font-size="12">2026-03-12</text>
<path d="M 70.00 300.47 L 79.83 300.41 L 89.66 262.36 L 99.49 271.84 L 109.32 239.27 L 119.15 247.76 L 128.98 292.45 L 138.81 319.44 L 148.64 260.62 L 158.47 279.65 L 168.30 231.47 L 178.12 157.25 L 187.95 164.47 L 197.78 161.52 L 207.61 216.81 L 217.44 307.42 L 227.27 341.79 L 237.10 349.28 L 246.93 375.00 L 256.76 346.01 L 266.59 328.83 L 276.42 316.86 L 286.25 298.78 L 296.08 286.71 L 305.91 308.58 L 315.74 282.60 L 325.57 304.26 L 335.40 328.46 L 345.23 298.31 L 355.06 304.58 L 364.89 304.89 L 374.72 242.33 L 384.55 260.56 L 394.38 326.45 L 404.20 343.43 L 414.03 352.33 L 423.86 374.89 L 433.69 365.20 L 443.52 345.90 L 453.35 330.14 L 463.18 291.61 L 473.01 282.65 L 482.84 288.77 L 492.67 305.84 L 502.50 303.37 L 512.33 314.17 L 522.16 316.17 L 531.99 293.03 L 541.82 277.59 L 551.65 279.65 L 561.48 285.97 L 571.31 262.25 L 581.14 173.96 L 590.97 235.21 L 600.80 263.78 L 610.62 254.13 L 620.45 287.82 L 630.28 318.55 L 640.11 296.88 L 649.94 273.80 L 659.77 272.32 L 669.60 279.91 L 679.43 233.63 L 689.26 235.95 L 699.09 192.67 L 708.92 290.66 L 718.75 287.66 L 728.58 303.37 L 738.41 306.58 L 748.24 294.19 L 758.07 242.70 L 767.90 235.32 L 777.73 257.72 L 787.56 248.49 L 797.39 308.37 L 807.22 284.07 L 817.05 304.37 L 826.88 314.59 L 836.70 308.69 L 846.53 283.02 L 856.36 266.36 L 866.19 193.67 L 876.02 208.43 L 885.85 159.68 L 895.68 60.00 L 905.51 158.73 L 915.34 209.80 L 925.17 153.72 L 935.00 86.99" fill="none" stroke="#69a7ff" stroke-width="4" stroke-linecap="round" stroke-linejoin="round"/>
<circle cx="935.00" cy="86.99" r="6" fill="#69a7ff"/>
</svg>