<svg xmlns="http://www.w3.org/2000/svg" width="960" height="430" viewBox="0 0 960 430" role="img" aria-label="Composite score history">
<rect width="100%" height="100%" fill="#0b1020" rx="20"/>
<text x="70" y="32" fill="#f5f7fb" font-family="Inter, Arial, sans-serif" font-size="24" font-weight="700">Composite score history</text>
<text x="70" y="52" fill="#93a4c3" font-family="Inter, Arial, sans-serif" font-size="13">Trailing 85 sessions through 2026-03-12</text>
<line x1="70" x2="935" y1="375.00" y2="375.00" stroke="#27314e" stroke-width="1"/>
<text x="58" y="379.00" text-anchor="end" fill="#93a4c3" font-family="Inter, Arial, sans-serif" font-size="12">0</text>
<line x1="70" x2="935" y1="312.00" y2="312.00" stroke="#27314e" stroke-width="1"/>
<text x="58" y="316.00" text-anchor="end" fill="#93a4c3" font-family="Inter, Arial, sans-serif" font-size="12">12</text>
<line x1="70" x2="935" y1="249.00" y2="249.00" stroke="#27314e" stroke-width="1"/>
<text x="58" y="253.00" text-anchor="end" fill="#93a4c3" font-family="Inter, Arial, sans-serif" font-size="12">24</text>
<line x1="70" x2="935" y1="186.00" y2="186.00" stroke="#27314e" stroke-width="1"/>
<text x="58" y="190.00" text-anchor="end" fill="#93a4c3" font-family="Inter, Arial, sans-serif" font-size="12">36</text>
<line x1="70" x2="935" y1="123.00" y2="123.00" stroke="#27314e" stroke-width="1"/>
<text x="58" y="127.00" text-anchor="end" fill="#93a4c3" font-family="Inter, Arial, sans-serif" font-size="12">48</text>
<line x1="70" x2="935" y1="60.00" y2="60.00" stroke="#27314e" stroke-width="1"/>
<text x="58" y="64.00" text-anchor="end" fill="#93a4c3" font-family="Inter, Arial, sans-serif" font-size="12">60</text>
<text x="70.00" y="412" text-anchor="middle" fill="#93a4c3" font-family="Inter, Arial, sans-serif" font-size="12">2025-11-06</text>
<text x="502.50" y="412" text-anchor="middle" fill="#93a4c3" font-family="Inter, Arial, sans-serif" font-size="12">2026-01-09</text>
<text x="935.00" y="412" text-anchor="middle" fill="#93a4c3" font-family="Inter, Arial, sans-serif" font-size="12">2026-03-12</text>
<path d="M 70.00 295.62 L 80.30 300.47 L 90.60 319.34 L 100.89 329.56 L 111.19 292.09 L 121.49 279.65 L 131.79 231.47 L 142.08 157.25 L 152.38 164.47 L 162.68 161.52 L 172.98 216.81 L 183.27 307.42 L 193.57 341.79 L 203.87 349.28 L 214.17 375.00 L 224.46 346.01 L 234.76 328.83 L 245.06 316.86 L 255.36 298.78 L 265.65 286.71 L 275.95 308.58 L 286.25 282.60 L 296.55 304.26 L 306.85 328.46 L 317.14 298.31 L 327.44 304.58 L 337.74 304.89 L 348.04 242.33 L 358.33 260.56 L 368.63 326.45 L 378.93 343.43 L 389.23 352.33 L 399.52 374.89 L 409.82 365.20 L 420.12 345.90 L 430.42 330.14 L 440.71 291.61 L 451.01 282.65 L 461.31 288.77 L 471.61 305.84 L 481.90 303.37 L 492.20 314.17 L 502.50 316.17 L 512.80 293.03 L 523.10 277.59 L 533.39 279.65 L 543.69 285.97 L 553.99 262.25 L 564.29 173.96 L 574.58 235.21 L 584.88 263.78 L 595.18 254.13 L 605.48 287.82 L 615.77 318.55 L 626.07 296.88 L 636.37 273.80 L 646.67 272.32 L 656.96 279.91 L 667.26 233.63 L 677.56 235.95 L 687.86 192.67 L 698.15 290.66 L 708.45 287.66 L 718.75 303.37 L 729.05 306.58 L 739.35 294.19 L 749.64 242.70 L 759.94 235.32 L 770.24 257.72 L 780.54 248.49 L 790.83 308.37 L 801.13 284.07 L 811.43 304.37 L 821.73 314.59 L 832.02 308.69 L 842.32 283.02 L 852.62 266.36 L 862.92 193.67 L 873.21 208.43 L 883.51 159.68 L 893.81 60.00 L 904.11 158.73 L 914.40 209.80 L 924.70 153.72 L 935.00 86.99" fill="none" stroke="#69a7ff" stroke-width="4" stroke-linecap="round" stroke-linejoin="round"/>
<circle cx="935.00" cy="86.99" r="6" fill="#69a7ff"/>
</svg>