<svg xmlns="http://www.w3.org/2000/svg" width="960" height="430" viewBox="0 0 960 430" role="img" aria-label="Composite score history">
<rect width="100%" height="100%" fill="#0b1020" rx="20"/>
<text x="70" y="32" fill="#f5f7fb" font-family="Inter, Arial, sans-serif" font-size="24" font-weight="700">Composite score history</text>
<text x="70" y="52" fill="#93a4c3" font-family="Inter, Arial, sans-serif" font-size="13">Trailing 50 sessions through 2025-10-03</text>
<line x1="70" x2="935" y1="375.00" y2="375.00" stroke="#27314e" stroke-width="1"/>
<text x="58" y="379.00" text-anchor="end" fill="#93a4c3" font-family="Inter, Arial, sans-serif" font-size="12">8</text>
<line x1="70" x2="935" y1="312.00" y2="312.00" stroke="#27314e" stroke-width="1"/>
<text x="58" y="316.00" text-anchor="end" fill="#93a4c3" font-family="Inter, Arial, sans-serif" font-size="12">13</text>
<line x1="70" x2="935" y1="249.00" y2="249.00" stroke="#27314e" stroke-width="1"/>
<text x="58" y="253.00" text-anchor="end" fill="#93a4c3" font-family="Inter, Arial, sans-serif" font-size="12">18</text>
<line x1="70" x2="935" y1="186.00" y2="186.00" stroke="#27314e" stroke-width="1"/>
<text x="58" y="190.00" text-anchor="end" fill="#93a4c3" font-family="Inter, Arial, sans-serif" font-size="12">24</text>
<line x1="70" x2="935" y1="123.00" y2="123.00" stroke="#27314e" stroke-width="1"/>
<text x="58" y="127.00" text-anchor="end" fill="#93a4c3" font-family="Inter, Arial, sans-serif" font-size="12">29</text>
<line x1="70" x2="935" y1="60.00" y2="60.00" stroke="#27314e" stroke-width="1"/>
<text x="58" y="64.00" text-anchor="end" fill="#93a4c3" font-family="Inter, Arial, sans-serif" font-size="12">34</text>
<text x="70.00" y="412" text-anchor="middle" fill="#93a4c3" font-family="Inter, Arial, sans-serif" font-size="12">2025-07-25</text>
<text x="511.33" y="412" text-anchor="middle" fill="#93a4c3" font-family="Inter, Arial, sans-serif" font-size="12">2025-08-29</text>
<text x="935.00" y="412" text-anchor="middle" fill="#93a4c3" font-family="Inter, Arial, sans-serif" font-size="12">2025-10-03</text>
<path d="M 70.00 288.06 L 87.65 286.55 L 105.31 244.40 L 122.96 225.51 L 140.61 186.23 L 158.27 60.00 L 175.92 205.24 L 193.57 195.11 L 211.22 269.42 L 228.88 299.94 L 246.53 291.18 L 264.18 245.15 L 281.84 373.62 L 299.49 369.00 L 317.14 351.61 L 334.80 338.85 L 352.45 340.72 L 370.10 252.15 L 387.76 190.60 L 405.41 140.69 L 423.06 282.93 L 440.71 247.40 L 458.37 268.29 L 476.02 289.31 L 493.67 346.73 L 511.33 290.93 L 528.98 234.76 L 546.63 264.04 L 564.29 321.58 L 581.94 300.07 L 599.59 349.48 L 617.24 372.75 L 634.90 366.87 L 652.55 375.00 L 670.20 352.86 L 687.86 348.98 L 705.51 346.98 L 723.16 336.47 L 740.82 280.55 L 758.47 337.72 L 776.12 302.32 L 793.78 323.33 L 811.43 301.32 L 829.08 229.88 L 846.73 268.04 L 864.39 270.79 L 882.04 290.31 L 899.69 353.36 L 917.35 373.12 L 935.00 334.09" fill="none" stroke="#69a7ff" stroke-width="4" stroke-linecap="round" stroke-linejoin="round"/>
<circle cx="935.00" cy="334.09" r="6" fill="#69a7ff"/>
</svg>