<svg xmlns="http://www.w3.org/2000/svg" width="960" height="430" viewBox="0 0 960 430" role="img" aria-label="Composite score history">
<rect width="100%" height="100%" fill="#0b1020" rx="20"/>
<text x="70" y="32" fill="#f5f7fb" font-family="Inter, Arial, sans-serif" font-size="24" font-weight="700">Composite score history</text>
<text x="70" y="52" fill="#93a4c3" font-family="Inter, Arial, sans-serif" font-size="13">Trailing 58 sessions through 2025-10-03</text>
<line x1="70" x2="935" y1="375.00" y2="375.00" stroke="#27314e" stroke-width="1"/>
<text x="58" y="379.00" text-anchor="end" fill="#93a4c3" font-family="Inter, Arial, sans-serif" font-size="12">2</text>
<line x1="70" x2="935" y1="312.00" y2="312.00" stroke="#27314e" stroke-width="1"/>
<text x="58" y="316.00" text-anchor="end" fill="#93a4c3" font-family="Inter, Arial, sans-serif" font-size="12">6</text>
<line x1="70" x2="935" y1="249.00" y2="249.00" stroke="#27314e" stroke-width="1"/>
<text x="58" y="253.00" text-anchor="end" fill="#93a4c3" font-family="Inter, Arial, sans-serif" font-size="12">11</text>
<line x1="70" x2="935" y1="186.00" y2="186.00" stroke="#27314e" stroke-width="1"/>
<text x="58" y="190.00" text-anchor="end" fill="#93a4c3" font-family="Inter, Arial, sans-serif" font-size="12">15</text>
<line x1="70" x2="935" y1="123.00" y2="123.00" stroke="#27314e" stroke-width="1"/>
<text x="58" y="127.00" text-anchor="end" fill="#93a4c3" font-family="Inter, Arial, sans-serif" font-size="12">19</text>
<line x1="70" x2="935" y1="60.00" y2="60.00" stroke="#27314e" stroke-width="1"/>
<text x="58" y="64.00" text-anchor="end" fill="#93a4c3" font-family="Inter, Arial, sans-serif" font-size="12">23</text>
<text x="70.00" y="412" text-anchor="middle" fill="#93a4c3" font-family="Inter, Arial, sans-serif" font-size="12">2025-07-15</text>
<text x="510.09" y="412" text-anchor="middle" fill="#93a4c3" font-family="Inter, Arial, sans-serif" font-size="12">2025-08-25</text>
<text x="935.00" y="412" text-anchor="middle" fill="#93a4c3" font-family="Inter, Arial, sans-serif" font-size="12">2025-10-03</text>
<path d="M 70.00 344.85 L 85.18 328.81 L 100.35 261.68 L 115.53 318.56 L 130.70 334.46 L 145.88 354.80 L 161.05 367.57 L 176.23 367.28 L 191.40 327.92 L 206.58 282.33 L 221.75 297.48 L 236.93 201.39 L 252.11 261.24 L 267.28 60.00 L 282.46 238.96 L 297.63 229.90 L 312.81 312.92 L 327.98 353.91 L 343.16 117.48 L 358.33 160.84 L 373.51 337.57 L 388.68 340.40 L 403.86 306.83 L 419.04 370.69 L 434.21 357.03 L 449.39 269.41 L 464.56 161.88 L 479.74 123.27 L 494.91 269.11 L 510.09 232.87 L 525.26 171.83 L 540.44 187.72 L 555.61 285.30 L 570.79 344.11 L 585.96 286.63 L 601.14 312.03 L 616.32 362.08 L 631.49 335.94 L 646.67 370.40 L 661.84 371.29 L 677.02 367.72 L 692.19 375.00 L 707.37 300.15 L 722.54 281.58 L 737.72 338.02 L 752.89 321.24 L 768.07 220.10 L 783.25 323.61 L 798.42 231.09 L 813.60 319.60 L 828.77 277.72 L 843.95 203.17 L 859.12 256.34 L 874.30 293.02 L 889.47 253.22 L 904.65 355.54 L 919.82 353.32 L 935.00 334.16" fill="none" stroke="#69a7ff" stroke-width="4" stroke-linecap="round" stroke-linejoin="round"/>
<circle cx="935.00" cy="334.16" r="6" fill="#69a7ff"/>
<text x="927.00" y="322.16" text-anchor="end" fill="#f5f7fb" font-family="Inter, Arial, sans-serif" font-size="12" font-weight="600">4.81</text>
</svg>