<svg xmlns="http://www.w3.org/2000/svg" width="960" height="430" viewBox="0 0 960 430" role="img" aria-label="Composite score history">
<rect width="100%" height="100%" fill="#0b1020" rx="20"/>
<text x="70" y="32" fill="#f5f7fb" font-family="Inter, Arial, sans-serif" font-size="24" font-weight="700">Composite score history</text>
<text x="70" y="52" fill="#93a4c3" font-family="Inter, Arial, sans-serif" font-size="13">Trailing 49 sessions through 2025-12-26</text>
<line x1="70" x2="935" y1="375.00" y2="375.00" stroke="#27314e" stroke-width="1"/>
<text x="58" y="379.00" text-anchor="end" fill="#93a4c3" font-family="Inter, Arial, sans-serif" font-size="12">0</text>
<line x1="70" x2="935" y1="312.00" y2="312.00" stroke="#27314e" stroke-width="1"/>
<text x="58" y="316.00" text-anchor="end" fill="#93a4c3" font-family="Inter, Arial, sans-serif" font-size="12">8</text>
<line x1="70" x2="935" y1="249.00" y2="249.00" stroke="#27314e" stroke-width="1"/>
<text x="58" y="253.00" text-anchor="end" fill="#93a4c3" font-family="Inter, Arial, sans-serif" font-size="12">17</text>
<line x1="70" x2="935" y1="186.00" y2="186.00" stroke="#27314e" stroke-width="1"/>
<text x="58" y="190.00" text-anchor="end" fill="#93a4c3" font-family="Inter, Arial, sans-serif" font-size="12">25</text>
<line x1="70" x2="935" y1="123.00" y2="123.00" stroke="#27314e" stroke-width="1"/>
<text x="58" y="127.00" text-anchor="end" fill="#93a4c3" font-family="Inter, Arial, sans-serif" font-size="12">33</text>
<line x1="70" x2="935" y1="60.00" y2="60.00" stroke="#27314e" stroke-width="1"/>
<text x="58" y="64.00" text-anchor="end" fill="#93a4c3" font-family="Inter, Arial, sans-serif" font-size="12">41</text>
<text x="70.00" y="412" text-anchor="middle" fill="#93a4c3" font-family="Inter, Arial, sans-serif" font-size="12">2025-10-16</text>
<text x="502.50" y="412" text-anchor="middle" fill="#93a4c3" font-family="Inter, Arial, sans-serif" font-size="12">2025-11-20</text>
<text x="935.00" y="412" text-anchor="middle" fill="#93a4c3" font-family="Inter, Arial, sans-serif" font-size="12">2025-12-26</text>
<path d="M 70.00 243.77 L 88.02 262.30 L 106.04 298.67 L 124.06 298.29 L 142.08 273.81 L 160.10 232.33 L 178.12 267.94 L 196.15 285.48 L 214.17 299.36 L 232.19 266.80 L 250.21 256.12 L 268.23 236.53 L 286.25 192.98 L 304.27 135.80 L 322.29 183.68 L 340.31 184.67 L 358.33 190.93 L 376.35 255.59 L 394.38 294.63 L 412.40 209.53 L 430.42 237.06 L 448.44 167.36 L 466.46 60.00 L 484.48 70.45 L 502.50 66.18 L 520.52 146.17 L 538.54 277.24 L 556.56 326.96 L 574.58 337.79 L 592.60 375.00 L 610.62 333.06 L 628.65 308.20 L 646.67 290.89 L 664.69 264.74 L 682.71 247.28 L 700.73 278.92 L 718.75 241.33 L 736.77 272.67 L 754.79 307.67 L 772.81 264.05 L 790.83 273.13 L 808.85 273.58 L 826.88 183.07 L 844.90 209.46 L 862.92 304.77 L 880.94 329.32 L 898.96 342.21 L 916.98 374.85 L 935.00 360.82" fill="none" stroke="#69a7ff" stroke-width="4" stroke-linecap="round" stroke-linejoin="round"/>
<circle cx="935.00" cy="360.82" r="6" fill="#69a7ff"/>
</svg>