<svg xmlns="http://www.w3.org/2000/svg" width="960" height="430" viewBox="0 0 960 430" role="img" aria-label="Composite score history">
<rect width="100%" height="100%" fill="#0b1020" rx="20"/>
<text x="70" y="32" fill="#f5f7fb" font-family="Inter, Arial, sans-serif" font-size="24" font-weight="700">Composite score history</text>
<text x="70" y="52" fill="#93a4c3" font-family="Inter, Arial, sans-serif" font-size="13">Trailing 45 sessions through 2025-12-26</text>
<line x1="70" x2="935" y1="375.00" y2="375.00" stroke="#27314e" stroke-width="1"/>
<text x="58" y="379.00" text-anchor="end" fill="#93a4c3" font-family="Inter, Arial, sans-serif" font-size="12">0</text>
<line x1="70" x2="935" y1="312.00" y2="312.00" stroke="#27314e" stroke-width="1"/>
<text x="58" y="316.00" text-anchor="end" fill="#93a4c3" font-family="Inter, Arial, sans-serif" font-size="12">8</text>
<line x1="70" x2="935" y1="249.00" y2="249.00" stroke="#27314e" stroke-width="1"/>
<text x="58" y="253.00" text-anchor="end" fill="#93a4c3" font-family="Inter, Arial, sans-serif" font-size="12">17</text>
<line x1="70" x2="935" y1="186.00" y2="186.00" stroke="#27314e" stroke-width="1"/>
<text x="58" y="190.00" text-anchor="end" fill="#93a4c3" font-family="Inter, Arial, sans-serif" font-size="12">25</text>
<line x1="70" x2="935" y1="123.00" y2="123.00" stroke="#27314e" stroke-width="1"/>
<text x="58" y="127.00" text-anchor="end" fill="#93a4c3" font-family="Inter, Arial, sans-serif" font-size="12">33</text>
<line x1="70" x2="935" y1="60.00" y2="60.00" stroke="#27314e" stroke-width="1"/>
<text x="58" y="64.00" text-anchor="end" fill="#93a4c3" font-family="Inter, Arial, sans-serif" font-size="12">41</text>
<text x="70.00" y="412" text-anchor="middle" fill="#93a4c3" font-family="Inter, Arial, sans-serif" font-size="12">2025-10-22</text>
<text x="502.50" y="412" text-anchor="middle" fill="#93a4c3" font-family="Inter, Arial, sans-serif" font-size="12">2025-11-24</text>
<text x="935.00" y="412" text-anchor="middle" fill="#93a4c3" font-family="Inter, Arial, sans-serif" font-size="12">2025-12-26</text>
<path d="M 70.00 277.24 L 89.66 235.61 L 109.32 266.11 L 128.98 308.13 L 148.64 317.43 L 168.30 266.80 L 187.95 256.12 L 207.61 236.53 L 227.27 192.98 L 246.93 135.80 L 266.59 183.68 L 286.25 184.67 L 305.91 190.93 L 325.57 255.59 L 345.23 294.63 L 364.89 209.53 L 384.55 237.06 L 404.20 167.36 L 423.86 60.00 L 443.52 70.45 L 463.18 66.18 L 482.84 146.17 L 502.50 277.24 L 522.16 326.96 L 541.82 337.79 L 561.48 375.00 L 581.14 333.06 L 600.80 308.20 L 620.45 290.89 L 640.11 264.74 L 659.77 247.28 L 679.43 278.92 L 699.09 241.33 L 718.75 272.67 L 738.41 307.67 L 758.07 264.05 L 777.73 273.13 L 797.39 273.58 L 817.05 183.07 L 836.70 209.46 L 856.36 304.77 L 876.02 329.32 L 895.68 342.21 L 915.34 374.85 L 935.00 360.82" fill="none" stroke="#69a7ff" stroke-width="4" stroke-linecap="round" stroke-linejoin="round"/>
<circle cx="935.00" cy="360.82" r="6" fill="#69a7ff"/>
</svg>