<svg xmlns="http://www.w3.org/2000/svg" width="960" height="430" viewBox="0 0 960 430" role="img" aria-label="Composite score history">
<rect width="100%" height="100%" fill="#0b1020" rx="20"/>
<text x="70" y="32" fill="#f5f7fb" font-family="Inter, Arial, sans-serif" font-size="24" font-weight="700">Composite score history</text>
<text x="70" y="52" fill="#93a4c3" font-family="Inter, Arial, sans-serif" font-size="13">Trailing 75 sessions through 2025-12-26</text>
<line x1="70" x2="935" y1="375.00" y2="375.00" stroke="#27314e" stroke-width="1"/>
<text x="58" y="379.00" text-anchor="end" fill="#93a4c3" font-family="Inter, Arial, sans-serif" font-size="12">0</text>
<line x1="70" x2="935" y1="312.00" y2="312.00" stroke="#27314e" stroke-width="1"/>
<text x="58" y="316.00" text-anchor="end" fill="#93a4c3" font-family="Inter, Arial, sans-serif" font-size="12">8</text>
<line x1="70" x2="935" y1="249.00" y2="249.00" stroke="#27314e" stroke-width="1"/>
<text x="58" y="253.00" text-anchor="end" fill="#93a4c3" font-family="Inter, Arial, sans-serif" font-size="12">17</text>
<line x1="70" x2="935" y1="186.00" y2="186.00" stroke="#27314e" stroke-width="1"/>
<text x="58" y="190.00" text-anchor="end" fill="#93a4c3" font-family="Inter, Arial, sans-serif" font-size="12">25</text>
<line x1="70" x2="935" y1="123.00" y2="123.00" stroke="#27314e" stroke-width="1"/>
<text x="58" y="127.00" text-anchor="end" fill="#93a4c3" font-family="Inter, Arial, sans-serif" font-size="12">33</text>
<line x1="70" x2="935" y1="60.00" y2="60.00" stroke="#27314e" stroke-width="1"/>
<text x="58" y="64.00" text-anchor="end" fill="#93a4c3" font-family="Inter, Arial, sans-serif" font-size="12">41</text>
<text x="70.00" y="412" text-anchor="middle" fill="#93a4c3" font-family="Inter, Arial, sans-serif" font-size="12">2025-09-09</text>
<text x="502.50" y="412" text-anchor="middle" fill="#93a4c3" font-family="Inter, Arial, sans-serif" font-size="12">2025-10-31</text>
<text x="935.00" y="412" text-anchor="middle" fill="#93a4c3" font-family="Inter, Arial, sans-serif" font-size="12">2025-12-26</text>
<path d="M 70.00 280.75 L 81.69 284.72 L 93.38 307.82 L 105.07 297.37 L 116.76 304.62 L 128.45 293.87 L 140.14 287.46 L 151.82 253.38 L 163.51 288.22 L 175.20 266.64 L 186.89 279.46 L 198.58 266.03 L 210.27 222.49 L 221.96 245.75 L 233.65 247.43 L 245.34 259.32 L 257.03 297.76 L 268.72 309.80 L 280.41 286.01 L 292.09 296.54 L 303.78 271.60 L 315.47 278.85 L 327.16 256.96 L 338.85 123.98 L 350.54 175.75 L 362.23 212.66 L 373.92 109.03 L 385.61 196.19 L 397.30 336.57 L 408.99 309.88 L 420.68 285.33 L 432.36 232.33 L 444.05 267.94 L 455.74 285.48 L 467.43 299.36 L 479.12 266.80 L 490.81 256.12 L 502.50 236.53 L 514.19 192.98 L 525.88 135.80 L 537.57 183.68 L 549.26 184.67 L 560.95 190.93 L 572.64 255.59 L 584.32 294.63 L 596.01 209.53 L 607.70 237.06 L 619.39 167.36 L 631.08 60.00 L 642.77 70.45 L 654.46 66.18 L 666.15 146.17 L 677.84 277.24 L 689.53 326.96 L 701.22 337.79 L 712.91 375.00 L 724.59 333.06 L 736.28 308.20 L 747.97 290.89 L 759.66 264.74 L 771.35 247.28 L 783.04 278.92 L 794.73 241.33 L 806.42 272.67 L 818.11 307.67 L 829.80 264.05 L 841.49 273.13 L 853.18 273.58 L 864.86 183.07 L 876.55 209.46 L 888.24 304.77 L 899.93 329.32 L 911.62 342.21 L 923.31 374.85 L 935.00 360.82" fill="none" stroke="#69a7ff" stroke-width="4" stroke-linecap="round" stroke-linejoin="round"/>
<circle cx="935.00" cy="360.82" r="6" fill="#69a7ff"/>
</svg>