<svg xmlns="http://www.w3.org/2000/svg" width="960" height="430" viewBox="0 0 960 430" role="img" aria-label="Composite score history">
<rect width="100%" height="100%" fill="#0b1020" rx="20"/>
<text x="70" y="32" fill="#f5f7fb" font-family="Inter, Arial, sans-serif" font-size="24" font-weight="700">Composite score history</text>
<text x="70" y="52" fill="#93a4c3" font-family="Inter, Arial, sans-serif" font-size="13">Trailing 48 sessions through 2025-09-19</text>
<line x1="70" x2="935" y1="375.00" y2="375.00" stroke="#27314e" stroke-width="1"/>
<text x="58" y="379.00" text-anchor="end" fill="#93a4c3" font-family="Inter, Arial, sans-serif" font-size="12">2</text>
<line x1="70" x2="935" y1="312.00" y2="312.00" stroke="#27314e" stroke-width="1"/>
<text x="58" y="316.00" text-anchor="end" fill="#93a4c3" font-family="Inter, Arial, sans-serif" font-size="12">6</text>
<line x1="70" x2="935" y1="249.00" y2="249.00" stroke="#27314e" stroke-width="1"/>
<text x="58" y="253.00" text-anchor="end" fill="#93a4c3" font-family="Inter, Arial, sans-serif" font-size="12">11</text>
<line x1="70" x2="935" y1="186.00" y2="186.00" stroke="#27314e" stroke-width="1"/>
<text x="58" y="190.00" text-anchor="end" fill="#93a4c3" font-family="Inter, Arial, sans-serif" font-size="12">15</text>
<line x1="70" x2="935" y1="123.00" y2="123.00" stroke="#27314e" stroke-width="1"/>
<text x="58" y="127.00" text-anchor="end" fill="#93a4c3" font-family="Inter, Arial, sans-serif" font-size="12">19</text>
<line x1="70" x2="935" y1="60.00" y2="60.00" stroke="#27314e" stroke-width="1"/>
<text x="58" y="64.00" text-anchor="end" fill="#93a4c3" font-family="Inter, Arial, sans-serif" font-size="12">23</text>
<text x="70.00" y="412" text-anchor="middle" fill="#93a4c3" font-family="Inter, Arial, sans-serif" font-size="12">2025-07-15</text>
<text x="511.70" y="412" text-anchor="middle" fill="#93a4c3" font-family="Inter, Arial, sans-serif" font-size="12">2025-08-18</text>
<text x="935.00" y="412" text-anchor="middle" fill="#93a4c3" font-family="Inter, Arial, sans-serif" font-size="12">2025-09-19</text>
<path d="M 70.00 344.85 L 88.40 328.81 L 106.81 261.68 L 125.21 318.56 L 143.62 334.46 L 162.02 354.80 L 180.43 367.57 L 198.83 367.28 L 217.23 327.92 L 235.64 282.33 L 254.04 297.48 L 272.45 201.39 L 290.85 261.24 L 309.26 60.00 L 327.66 238.96 L 346.06 229.90 L 364.47 312.92 L 382.87 353.91 L 401.28 117.48 L 419.68 160.84 L 438.09 337.57 L 456.49 340.40 L 474.89 306.83 L 493.30 370.69 L 511.70 357.03 L 530.11 269.41 L 548.51 161.88 L 566.91 123.27 L 585.32 269.11 L 603.72 232.87 L 622.13 171.83 L 640.53 187.72 L 658.94 285.30 L 677.34 344.11 L 695.74 286.63 L 714.15 312.03 L 732.55 362.08 L 750.96 335.94 L 769.36 370.40 L 787.77 371.29 L 806.17 367.72 L 824.57 375.00 L 842.98 300.15 L 861.38 281.58 L 879.79 338.02 L 898.19 321.24 L 916.60 220.10 L 935.00 323.61" fill="none" stroke="#69a7ff" stroke-width="4" stroke-linecap="round" stroke-linejoin="round"/>
<circle cx="935.00" cy="323.61" r="6" fill="#69a7ff"/>
<text x="927.00" y="311.61" text-anchor="end" fill="#f5f7fb" font-family="Inter, Arial, sans-serif" font-size="12" font-weight="600">5.52</text>
</svg>