<svg xmlns="http://www.w3.org/2000/svg" width="960" height="430" viewBox="0 0 960 430" role="img" aria-label="Composite score history">
<rect width="100%" height="100%" fill="#0b1020" rx="20"/>
<text x="70" y="32" fill="#f5f7fb" font-family="Inter, Arial, sans-serif" font-size="24" font-weight="700">Composite score history</text>
<text x="70" y="52" fill="#93a4c3" font-family="Inter, Arial, sans-serif" font-size="13">Trailing 82 sessions through 2026-02-06</text>
<line x1="70" x2="935" y1="375.00" y2="375.00" stroke="#27314e" stroke-width="1"/>
<text x="58" y="379.00" text-anchor="end" fill="#93a4c3" font-family="Inter, Arial, sans-serif" font-size="12">0</text>
<line x1="70" x2="935" y1="312.00" y2="312.00" stroke="#27314e" stroke-width="1"/>
<text x="58" y="316.00" text-anchor="end" fill="#93a4c3" font-family="Inter, Arial, sans-serif" font-size="12">8</text>
<line x1="70" x2="935" y1="249.00" y2="249.00" stroke="#27314e" stroke-width="1"/>
<text x="58" y="253.00" text-anchor="end" fill="#93a4c3" font-family="Inter, Arial, sans-serif" font-size="12">17</text>
<line x1="70" x2="935" y1="186.00" y2="186.00" stroke="#27314e" stroke-width="1"/>
<text x="58" y="190.00" text-anchor="end" fill="#93a4c3" font-family="Inter, Arial, sans-serif" font-size="12">25</text>
<line x1="70" x2="935" y1="123.00" y2="123.00" stroke="#27314e" stroke-width="1"/>
<text x="58" y="127.00" text-anchor="end" fill="#93a4c3" font-family="Inter, Arial, sans-serif" font-size="12">33</text>
<line x1="70" x2="935" y1="60.00" y2="60.00" stroke="#27314e" stroke-width="1"/>
<text x="58" y="64.00" text-anchor="end" fill="#93a4c3" font-family="Inter, Arial, sans-serif" font-size="12">41</text>
<text x="70.00" y="412" text-anchor="middle" fill="#93a4c3" font-family="Inter, Arial, sans-serif" font-size="12">2025-10-08</text>
<text x="507.84" y="412" text-anchor="middle" fill="#93a4c3" font-family="Inter, Arial, sans-serif" font-size="12">2025-12-09</text>
<text x="935.00" y="412" text-anchor="middle" fill="#93a4c3" font-family="Inter, Arial, sans-serif" font-size="12">2026-02-06</text>
<path d="M 70.00 275.95 L 80.68 256.66 L 91.36 100.57 L 102.04 167.75 L 112.72 183.99 L 123.40 109.03 L 134.07 196.19 L 144.75 336.57 L 155.43 309.88 L 166.11 285.33 L 176.79 232.33 L 187.47 267.94 L 198.15 285.48 L 208.83 299.36 L 219.51 266.80 L 230.19 256.12 L 240.86 236.53 L 251.54 192.98 L 262.22 135.80 L 272.90 183.68 L 283.58 184.67 L 294.26 190.93 L 304.94 255.59 L 315.62 294.63 L 326.30 209.53 L 336.98 237.06 L 347.65 167.36 L 358.33 60.00 L 369.01 70.45 L 379.69 66.18 L 390.37 146.17 L 401.05 277.24 L 411.73 326.96 L 422.41 337.79 L 433.09 375.00 L 443.77 333.06 L 454.44 308.20 L 465.12 290.89 L 475.80 264.74 L 486.48 247.28 L 497.16 278.92 L 507.84 241.33 L 518.52 272.67 L 529.20 307.67 L 539.88 264.05 L 550.56 273.13 L 561.23 273.58 L 571.91 183.07 L 582.59 209.46 L 593.27 304.77 L 603.95 329.32 L 614.63 342.21 L 625.31 374.85 L 635.99 360.82 L 646.67 332.91 L 657.35 310.11 L 668.02 254.37 L 678.70 241.41 L 689.38 250.25 L 700.06 274.96 L 710.74 271.37 L 721.42 287.00 L 732.10 289.90 L 742.78 256.43 L 753.46 234.08 L 764.14 237.06 L 774.81 246.21 L 785.49 211.90 L 796.17 84.17 L 806.85 172.78 L 817.53 214.11 L 828.21 200.15 L 838.89 248.88 L 849.57 293.33 L 860.25 261.99 L 870.93 228.59 L 881.60 226.46 L 892.28 237.44 L 902.96 170.49 L 913.64 173.85 L 924.32 111.24 L 935.00 253.00" fill="none" stroke="#69a7ff" stroke-width="4" stroke-linecap="round" stroke-linejoin="round"/>
<circle cx="935.00" cy="253.00" r="6" fill="#69a7ff"/>
</svg>