<svg xmlns="http://www.w3.org/2000/svg" width="960" height="430" viewBox="0 0 960 430" role="img" aria-label="Composite score history">
<rect width="100%" height="100%" fill="#0b1020" rx="20"/>
<text x="70" y="32" fill="#f5f7fb" font-family="Inter, Arial, sans-serif" font-size="24" font-weight="700">Composite score history</text>
<text x="70" y="52" fill="#93a4c3" font-family="Inter, Arial, sans-serif" font-size="13">Trailing 83 sessions through 2026-02-06</text>
<line x1="70" x2="935" y1="375.00" y2="375.00" stroke="#27314e" stroke-width="1"/>
<text x="58" y="379.00" text-anchor="end" fill="#93a4c3" font-family="Inter, Arial, sans-serif" font-size="12">0</text>
<line x1="70" x2="935" y1="312.00" y2="312.00" stroke="#27314e" stroke-width="1"/>
<text x="58" y="316.00" text-anchor="end" fill="#93a4c3" font-family="Inter, Arial, sans-serif" font-size="12">8</text>
<line x1="70" x2="935" y1="249.00" y2="249.00" stroke="#27314e" stroke-width="1"/>
<text x="58" y="253.00" text-anchor="end" fill="#93a4c3" font-family="Inter, Arial, sans-serif" font-size="12">17</text>
<line x1="70" x2="935" y1="186.00" y2="186.00" stroke="#27314e" stroke-width="1"/>
<text x="58" y="190.00" text-anchor="end" fill="#93a4c3" font-family="Inter, Arial, sans-serif" font-size="12">25</text>
<line x1="70" x2="935" y1="123.00" y2="123.00" stroke="#27314e" stroke-width="1"/>
<text x="58" y="127.00" text-anchor="end" fill="#93a4c3" font-family="Inter, Arial, sans-serif" font-size="12">33</text>
<line x1="70" x2="935" y1="60.00" y2="60.00" stroke="#27314e" stroke-width="1"/>
<text x="58" y="64.00" text-anchor="end" fill="#93a4c3" font-family="Inter, Arial, sans-serif" font-size="12">41</text>
<text x="70.00" y="412" text-anchor="middle" fill="#93a4c3" font-family="Inter, Arial, sans-serif" font-size="12">2025-10-07</text>
<text x="502.50" y="412" text-anchor="middle" fill="#93a4c3" font-family="Inter, Arial, sans-serif" font-size="12">2025-12-08</text>
<text x="935.00" y="412" text-anchor="middle" fill="#93a4c3" font-family="Inter, Arial, sans-serif" font-size="12">2026-02-06</text>
<path d="M 70.00 270.99 L 80.55 284.03 L 91.10 270.84 L 101.65 128.86 L 112.20 196.34 L 122.74 212.66 L 133.29 109.03 L 143.84 196.19 L 154.39 336.57 L 164.94 309.88 L 175.49 285.33 L 186.04 232.33 L 196.59 267.94 L 207.13 285.48 L 217.68 299.36 L 228.23 266.80 L 238.78 256.12 L 249.33 236.53 L 259.88 192.98 L 270.43 135.80 L 280.98 183.68 L 291.52 184.67 L 302.07 190.93 L 312.62 255.59 L 323.17 294.63 L 333.72 209.53 L 344.27 237.06 L 354.82 167.36 L 365.37 60.00 L 375.91 70.45 L 386.46 66.18 L 397.01 146.17 L 407.56 277.24 L 418.11 326.96 L 428.66 337.79 L 439.21 375.00 L 449.76 333.06 L 460.30 308.20 L 470.85 290.89 L 481.40 264.74 L 491.95 247.28 L 502.50 278.92 L 513.05 241.33 L 523.60 272.67 L 534.15 307.67 L 544.70 264.05 L 555.24 273.13 L 565.79 273.58 L 576.34 183.07 L 586.89 209.46 L 597.44 304.77 L 607.99 329.32 L 618.54 342.21 L 629.09 374.85 L 639.63 360.82 L 650.18 332.91 L 660.73 310.11 L 671.28 254.37 L 681.83 241.41 L 692.38 250.25 L 702.93 274.96 L 713.48 271.37 L 724.02 287.00 L 734.57 289.90 L 745.12 256.43 L 755.67 234.08 L 766.22 237.06 L 776.77 246.21 L 787.32 211.90 L 797.87 84.17 L 808.41 172.78 L 818.96 214.11 L 829.51 200.15 L 840.06 248.88 L 850.61 293.33 L 861.16 261.99 L 871.71 228.59 L 882.26 226.46 L 892.80 237.44 L 903.35 170.49 L 913.90 173.85 L 924.45 111.24 L 935.00 253.00" fill="none" stroke="#69a7ff" stroke-width="4" stroke-linecap="round" stroke-linejoin="round"/>
<circle cx="935.00" cy="253.00" r="6" fill="#69a7ff"/>
</svg>