<svg xmlns="http://www.w3.org/2000/svg" width="960" height="430" viewBox="0 0 960 430" role="img" aria-label="Composite score history">
<rect width="100%" height="100%" fill="#0b1020" rx="20"/>
<text x="70" y="32" fill="#f5f7fb" font-family="Inter, Arial, sans-serif" font-size="24" font-weight="700">Composite score history</text>
<text x="70" y="52" fill="#93a4c3" font-family="Inter, Arial, sans-serif" font-size="13">Trailing 90 sessions through 2026-03-20</text>
<line x1="70" x2="935" y1="375.00" y2="375.00" stroke="#27314e" stroke-width="1"/>
<text x="58" y="379.00" text-anchor="end" fill="#93a4c3" font-family="Inter, Arial, sans-serif" font-size="12">8</text>
<line x1="70" x2="935" y1="312.00" y2="312.00" stroke="#27314e" stroke-width="1"/>
<text x="58" y="316.00" text-anchor="end" fill="#93a4c3" font-family="Inter, Arial, sans-serif" font-size="12">18</text>
<line x1="70" x2="935" y1="249.00" y2="249.00" stroke="#27314e" stroke-width="1"/>
<text x="58" y="253.00" text-anchor="end" fill="#93a4c3" font-family="Inter, Arial, sans-serif" font-size="12">28</text>
<line x1="70" x2="935" y1="186.00" y2="186.00" stroke="#27314e" stroke-width="1"/>
<text x="58" y="190.00" text-anchor="end" fill="#93a4c3" font-family="Inter, Arial, sans-serif" font-size="12">39</text>
<line x1="70" x2="935" y1="123.00" y2="123.00" stroke="#27314e" stroke-width="1"/>
<text x="58" y="127.00" text-anchor="end" fill="#93a4c3" font-family="Inter, Arial, sans-serif" font-size="12">49</text>
<line x1="70" x2="935" y1="60.00" y2="60.00" stroke="#27314e" stroke-width="1"/>
<text x="58" y="64.00" text-anchor="end" fill="#93a4c3" font-family="Inter, Arial, sans-serif" font-size="12">60</text>
<text x="70.00" y="412" text-anchor="middle" fill="#93a4c3" font-family="Inter, Arial, sans-serif" font-size="12">2025-11-07</text>
<text x="507.36" y="412" text-anchor="middle" fill="#93a4c3" font-family="Inter, Arial, sans-serif" font-size="12">2026-01-15</text>
<text x="935.00" y="412" text-anchor="middle" fill="#93a4c3" font-family="Inter, Arial, sans-serif" font-size="12">2026-03-20</text>
<path d="M 70.00 275.03 L 79.72 326.22 L 89.44 339.44 L 99.16 289.76 L 108.88 308.47 L 118.60 256.38 L 128.31 171.38 L 138.03 179.65 L 147.75 176.27 L 157.47 239.59 L 167.19 335.94 L 176.91 348.86 L 186.63 352.54 L 196.35 355.62 L 206.07 339.62 L 215.79 339.93 L 225.51 335.52 L 235.22 323.63 L 244.94 314.93 L 254.66 337.21 L 264.38 312.46 L 274.10 331.60 L 283.82 357.80 L 293.54 332.92 L 303.26 340.11 L 312.98 340.47 L 322.70 268.75 L 332.42 289.70 L 342.13 363.65 L 351.85 370.83 L 361.57 370.53 L 371.29 373.37 L 381.01 375.00 L 390.73 371.74 L 400.45 365.46 L 410.17 325.26 L 419.89 314.99 L 429.61 322.00 L 439.33 332.98 L 449.04 333.29 L 458.76 334.37 L 468.48 329.60 L 478.20 310.41 L 487.92 305.09 L 497.64 310.29 L 507.36 313.79 L 517.08 291.63 L 526.80 190.52 L 536.52 260.66 L 546.24 293.38 L 555.96 282.34 L 565.67 318.68 L 575.39 315.78 L 585.11 308.84 L 594.83 292.72 L 604.55 298.09 L 614.27 306.18 L 623.99 258.85 L 633.71 261.51 L 643.43 211.95 L 653.15 324.17 L 662.87 320.73 L 672.58 333.47 L 682.30 329.48 L 692.02 320.61 L 701.74 269.17 L 711.46 260.78 L 721.18 286.44 L 730.90 275.88 L 740.62 327.49 L 750.34 316.26 L 760.06 329.54 L 769.78 337.39 L 779.49 334.49 L 789.21 315.42 L 798.93 286.62 L 808.65 213.09 L 818.37 230.06 L 828.09 174.22 L 837.81 60.00 L 847.53 173.07 L 857.25 231.57 L 866.97 167.33 L 876.69 90.91 L 886.40 161.90 L 896.12 210.07 L 905.84 206.81 L 915.56 145.00 L 925.28 241.16 L 935.00 160.94" fill="none" stroke="#69a7ff" stroke-width="4" stroke-linecap="round" stroke-linejoin="round"/>
<circle cx="935.00" cy="160.94" r="6" fill="#69a7ff"/>
<text x="927.00" y="148.94" text-anchor="end" fill="#f5f7fb" font-family="Inter, Arial, sans-serif" font-size="12" font-weight="600">43.04</text>
</svg>