<svg xmlns="http://www.w3.org/2000/svg" width="960" height="430" viewBox="0 0 960 430" role="img" aria-label="Composite score history">
<rect width="100%" height="100%" fill="#0b1020" rx="20"/>
<text x="70" y="32" fill="#f5f7fb" font-family="Inter, Arial, sans-serif" font-size="24" font-weight="700">Composite score history</text>
<text x="70" y="52" fill="#93a4c3" font-family="Inter, Arial, sans-serif" font-size="13">Trailing 59 sessions through 2026-01-26</text>
<line x1="70" x2="935" y1="375.00" y2="375.00" stroke="#27314e" stroke-width="1"/>
<text x="58" y="379.00" text-anchor="end" fill="#93a4c3" font-family="Inter, Arial, sans-serif" font-size="12">0</text>
<line x1="70" x2="935" y1="312.00" y2="312.00" stroke="#27314e" stroke-width="1"/>
<text x="58" y="316.00" text-anchor="end" fill="#93a4c3" font-family="Inter, Arial, sans-serif" font-size="12">8</text>
<line x1="70" x2="935" y1="249.00" y2="249.00" stroke="#27314e" stroke-width="1"/>
<text x="58" y="253.00" text-anchor="end" fill="#93a4c3" font-family="Inter, Arial, sans-serif" font-size="12">17</text>
<line x1="70" x2="935" y1="186.00" y2="186.00" stroke="#27314e" stroke-width="1"/>
<text x="58" y="190.00" text-anchor="end" fill="#93a4c3" font-family="Inter, Arial, sans-serif" font-size="12">25</text>
<line x1="70" x2="935" y1="123.00" y2="123.00" stroke="#27314e" stroke-width="1"/>
<text x="58" y="127.00" text-anchor="end" fill="#93a4c3" font-family="Inter, Arial, sans-serif" font-size="12">33</text>
<line x1="70" x2="935" y1="60.00" y2="60.00" stroke="#27314e" stroke-width="1"/>
<text x="58" y="64.00" text-anchor="end" fill="#93a4c3" font-family="Inter, Arial, sans-serif" font-size="12">41</text>
<text x="70.00" y="412" text-anchor="middle" fill="#93a4c3" font-family="Inter, Arial, sans-serif" font-size="12">2025-10-29</text>
<text x="502.50" y="412" text-anchor="middle" fill="#93a4c3" font-family="Inter, Arial, sans-serif" font-size="12">2025-12-11</text>
<text x="935.00" y="412" text-anchor="middle" fill="#93a4c3" font-family="Inter, Arial, sans-serif" font-size="12">2026-01-26</text>
<path d="M 70.00 274.19 L 84.91 224.40 L 99.83 221.05 L 114.74 226.15 L 129.66 176.90 L 144.57 183.68 L 159.48 184.67 L 174.40 190.93 L 189.31 255.59 L 204.22 294.63 L 219.14 209.53 L 234.05 237.06 L 248.97 167.36 L 263.88 60.00 L 278.79 70.45 L 293.71 66.18 L 308.62 146.17 L 323.53 277.24 L 338.45 326.96 L 353.36 337.79 L 368.28 375.00 L 383.19 333.06 L 398.10 308.20 L 413.02 290.89 L 427.93 264.74 L 442.84 247.28 L 457.76 278.92 L 472.67 241.33 L 487.59 272.67 L 502.50 307.67 L 517.41 264.05 L 532.33 273.13 L 547.24 273.58 L 562.16 183.07 L 577.07 209.46 L 591.98 304.77 L 606.90 329.32 L 621.81 342.21 L 636.72 374.85 L 651.64 360.82 L 666.55 332.91 L 681.47 310.11 L 696.38 254.37 L 711.29 241.41 L 726.21 250.25 L 741.12 274.96 L 756.03 271.37 L 770.95 287.00 L 785.86 289.90 L 800.78 256.43 L 815.69 234.08 L 830.60 237.06 L 845.52 246.21 L 860.43 211.90 L 875.34 84.17 L 890.26 172.78 L 905.17 214.11 L 920.09 200.15 L 935.00 248.88" fill="none" stroke="#69a7ff" stroke-width="4" stroke-linecap="round" stroke-linejoin="round"/>
<circle cx="935.00" cy="248.88" r="6" fill="#69a7ff"/>
</svg>