<svg xmlns="http://www.w3.org/2000/svg" width="960" height="430" viewBox="0 0 960 430" role="img" aria-label="Composite score history">
<rect width="100%" height="100%" fill="#0b1020" rx="20"/>
<text x="70" y="32" fill="#f5f7fb" font-family="Inter, Arial, sans-serif" font-size="24" font-weight="700">Composite score history</text>
<text x="70" y="52" fill="#93a4c3" font-family="Inter, Arial, sans-serif" font-size="13">Trailing 80 sessions through 2026-01-26</text>
<line x1="70" x2="935" y1="375.00" y2="375.00" stroke="#27314e" stroke-width="1"/>
<text x="58" y="379.00" text-anchor="end" fill="#93a4c3" font-family="Inter, Arial, sans-serif" font-size="12">0</text>
<line x1="70" x2="935" y1="312.00" y2="312.00" stroke="#27314e" stroke-width="1"/>
<text x="58" y="316.00" text-anchor="end" fill="#93a4c3" font-family="Inter, Arial, sans-serif" font-size="12">8</text>
<line x1="70" x2="935" y1="249.00" y2="249.00" stroke="#27314e" stroke-width="1"/>
<text x="58" y="253.00" text-anchor="end" fill="#93a4c3" font-family="Inter, Arial, sans-serif" font-size="12">17</text>
<line x1="70" x2="935" y1="186.00" y2="186.00" stroke="#27314e" stroke-width="1"/>
<text x="58" y="190.00" text-anchor="end" fill="#93a4c3" font-family="Inter, Arial, sans-serif" font-size="12">25</text>
<line x1="70" x2="935" y1="123.00" y2="123.00" stroke="#27314e" stroke-width="1"/>
<text x="58" y="127.00" text-anchor="end" fill="#93a4c3" font-family="Inter, Arial, sans-serif" font-size="12">33</text>
<line x1="70" x2="935" y1="60.00" y2="60.00" stroke="#27314e" stroke-width="1"/>
<text x="58" y="64.00" text-anchor="end" fill="#93a4c3" font-family="Inter, Arial, sans-serif" font-size="12">41</text>
<text x="70.00" y="412" text-anchor="middle" fill="#93a4c3" font-family="Inter, Arial, sans-serif" font-size="12">2025-09-29</text>
<text x="507.97" y="412" text-anchor="middle" fill="#93a4c3" font-family="Inter, Arial, sans-serif" font-size="12">2025-11-26</text>
<text x="935.00" y="412" text-anchor="middle" fill="#93a4c3" font-family="Inter, Arial, sans-serif" font-size="12">2026-01-26</text>
<path d="M 70.00 272.14 L 80.95 274.42 L 91.90 290.66 L 102.85 289.75 L 113.80 286.93 L 124.75 296.54 L 135.70 271.60 L 146.65 278.85 L 157.59 256.96 L 168.54 123.98 L 179.49 175.75 L 190.44 212.66 L 201.39 109.03 L 212.34 196.19 L 223.29 336.57 L 234.24 309.88 L 245.19 285.33 L 256.14 232.33 L 267.09 267.94 L 278.04 285.48 L 288.99 299.36 L 299.94 266.80 L 310.89 256.12 L 321.84 236.53 L 332.78 192.98 L 343.73 135.80 L 354.68 183.68 L 365.63 184.67 L 376.58 190.93 L 387.53 255.59 L 398.48 294.63 L 409.43 209.53 L 420.38 237.06 L 431.33 167.36 L 442.28 60.00 L 453.23 70.45 L 464.18 66.18 L 475.13 146.17 L 486.08 277.24 L 497.03 326.96 L 507.97 337.79 L 518.92 375.00 L 529.87 333.06 L 540.82 308.20 L 551.77 290.89 L 562.72 264.74 L 573.67 247.28 L 584.62 278.92 L 595.57 241.33 L 606.52 272.67 L 617.47 307.67 L 628.42 264.05 L 639.37 273.13 L 650.32 273.58 L 661.27 183.07 L 672.22 209.46 L 683.16 304.77 L 694.11 329.32 L 705.06 342.21 L 716.01 374.85 L 726.96 360.82 L 737.91 332.91 L 748.86 310.11 L 759.81 254.37 L 770.76 241.41 L 781.71 250.25 L 792.66 274.96 L 803.61 271.37 L 814.56 287.00 L 825.51 289.90 L 836.46 256.43 L 847.41 234.08 L 858.35 237.06 L 869.30 246.21 L 880.25 211.90 L 891.20 84.17 L 902.15 172.78 L 913.10 214.11 L 924.05 200.15 L 935.00 248.88" fill="none" stroke="#69a7ff" stroke-width="4" stroke-linecap="round" stroke-linejoin="round"/>
<circle cx="935.00" cy="248.88" r="6" fill="#69a7ff"/>
</svg>