<svg xmlns="http://www.w3.org/2000/svg" width="960" height="430" viewBox="0 0 960 430" role="img" aria-label="Composite score history">
<rect width="100%" height="100%" fill="#0b1020" rx="20"/>
<text x="70" y="32" fill="#f5f7fb" font-family="Inter, Arial, sans-serif" font-size="24" font-weight="700">Composite score history</text>
<text x="70" y="52" fill="#93a4c3" font-family="Inter, Arial, sans-serif" font-size="13">Trailing 70 sessions through 2026-01-26</text>
<line x1="70" x2="935" y1="375.00" y2="375.00" stroke="#27314e" stroke-width="1"/>
<text x="58" y="379.00" text-anchor="end" fill="#93a4c3" font-family="Inter, Arial, sans-serif" font-size="12">0</text>
<line x1="70" x2="935" y1="312.00" y2="312.00" stroke="#27314e" stroke-width="1"/>
<text x="58" y="316.00" text-anchor="end" fill="#93a4c3" font-family="Inter, Arial, sans-serif" font-size="12">8</text>
<line x1="70" x2="935" y1="249.00" y2="249.00" stroke="#27314e" stroke-width="1"/>
<text x="58" y="253.00" text-anchor="end" fill="#93a4c3" font-family="Inter, Arial, sans-serif" font-size="12">17</text>
<line x1="70" x2="935" y1="186.00" y2="186.00" stroke="#27314e" stroke-width="1"/>
<text x="58" y="190.00" text-anchor="end" fill="#93a4c3" font-family="Inter, Arial, sans-serif" font-size="12">25</text>
<line x1="70" x2="935" y1="123.00" y2="123.00" stroke="#27314e" stroke-width="1"/>
<text x="58" y="127.00" text-anchor="end" fill="#93a4c3" font-family="Inter, Arial, sans-serif" font-size="12">33</text>
<line x1="70" x2="935" y1="60.00" y2="60.00" stroke="#27314e" stroke-width="1"/>
<text x="58" y="64.00" text-anchor="end" fill="#93a4c3" font-family="Inter, Arial, sans-serif" font-size="12">41</text>
<text x="70.00" y="412" text-anchor="middle" fill="#93a4c3" font-family="Inter, Arial, sans-serif" font-size="12">2025-10-14</text>
<text x="508.77" y="412" text-anchor="middle" fill="#93a4c3" font-family="Inter, Arial, sans-serif" font-size="12">2025-12-04</text>
<text x="935.00" y="412" text-anchor="middle" fill="#93a4c3" font-family="Inter, Arial, sans-serif" font-size="12">2026-01-26</text>
<path d="M 70.00 261.76 L 82.54 263.29 L 95.07 202.82 L 107.61 273.13 L 120.14 309.50 L 132.68 309.88 L 145.22 285.33 L 157.75 232.33 L 170.29 267.94 L 182.83 285.48 L 195.36 299.36 L 207.90 266.80 L 220.43 256.12 L 232.97 236.53 L 245.51 192.98 L 258.04 135.80 L 270.58 183.68 L 283.12 184.67 L 295.65 190.93 L 308.19 255.59 L 320.72 294.63 L 333.26 209.53 L 345.80 237.06 L 358.33 167.36 L 370.87 60.00 L 383.41 70.45 L 395.94 66.18 L 408.48 146.17 L 421.01 277.24 L 433.55 326.96 L 446.09 337.79 L 458.62 375.00 L 471.16 333.06 L 483.70 308.20 L 496.23 290.89 L 508.77 264.74 L 521.30 247.28 L 533.84 278.92 L 546.38 241.33 L 558.91 272.67 L 571.45 307.67 L 583.99 264.05 L 596.52 273.13 L 609.06 273.58 L 621.59 183.07 L 634.13 209.46 L 646.67 304.77 L 659.20 329.32 L 671.74 342.21 L 684.28 374.85 L 696.81 360.82 L 709.35 332.91 L 721.88 310.11 L 734.42 254.37 L 746.96 241.41 L 759.49 250.25 L 772.03 274.96 L 784.57 271.37 L 797.10 287.00 L 809.64 289.90 L 822.17 256.43 L 834.71 234.08 L 847.25 237.06 L 859.78 246.21 L 872.32 211.90 L 884.86 84.17 L 897.39 172.78 L 909.93 214.11 L 922.46 200.15 L 935.00 248.88" fill="none" stroke="#69a7ff" stroke-width="4" stroke-linecap="round" stroke-linejoin="round"/>
<circle cx="935.00" cy="248.88" r="6" fill="#69a7ff"/>
</svg>