<svg xmlns="http://www.w3.org/2000/svg" width="960" height="430" viewBox="0 0 960 430" role="img" aria-label="Composite score history">
<rect width="100%" height="100%" fill="#0b1020" rx="20"/>
<text x="70" y="32" fill="#f5f7fb" font-family="Inter, Arial, sans-serif" font-size="24" font-weight="700">Composite score history</text>
<text x="70" y="52" fill="#93a4c3" font-family="Inter, Arial, sans-serif" font-size="13">Trailing 90 sessions through 2026-01-26</text>
<line x1="70" x2="935" y1="375.00" y2="375.00" stroke="#27314e" stroke-width="1"/>
<text x="58" y="379.00" text-anchor="end" fill="#93a4c3" font-family="Inter, Arial, sans-serif" font-size="12">1</text>
<line x1="70" x2="935" y1="312.00" y2="312.00" stroke="#27314e" stroke-width="1"/>
<text x="58" y="316.00" text-anchor="end" fill="#93a4c3" font-family="Inter, Arial, sans-serif" font-size="12">8</text>
<line x1="70" x2="935" y1="249.00" y2="249.00" stroke="#27314e" stroke-width="1"/>
<text x="58" y="253.00" text-anchor="end" fill="#93a4c3" font-family="Inter, Arial, sans-serif" font-size="12">15</text>
<line x1="70" x2="935" y1="186.00" y2="186.00" stroke="#27314e" stroke-width="1"/>
<text x="58" y="190.00" text-anchor="end" fill="#93a4c3" font-family="Inter, Arial, sans-serif" font-size="12">21</text>
<line x1="70" x2="935" y1="123.00" y2="123.00" stroke="#27314e" stroke-width="1"/>
<text x="58" y="127.00" text-anchor="end" fill="#93a4c3" font-family="Inter, Arial, sans-serif" font-size="12">28</text>
<line x1="70" x2="935" y1="60.00" y2="60.00" stroke="#27314e" stroke-width="1"/>
<text x="58" y="64.00" text-anchor="end" fill="#93a4c3" font-family="Inter, Arial, sans-serif" font-size="12">35</text>
<text x="70.00" y="412" text-anchor="middle" fill="#93a4c3" font-family="Inter, Arial, sans-serif" font-size="12">2025-09-15</text>
<text x="507.36" y="412" text-anchor="middle" fill="#93a4c3" font-family="Inter, Arial, sans-serif" font-size="12">2025-11-19</text>
<text x="935.00" y="412" text-anchor="middle" fill="#93a4c3" font-family="Inter, Arial, sans-serif" font-size="12">2026-01-26</text>
<path d="M 70.00 307.26 L 79.72 342.86 L 89.44 332.28 L 99.16 268.47 L 108.88 333.77 L 118.60 275.40 L 128.31 331.24 L 138.03 304.82 L 147.75 257.79 L 157.47 291.33 L 167.19 314.47 L 176.91 289.36 L 186.63 353.92 L 196.35 352.51 L 206.07 340.43 L 215.79 352.14 L 225.51 339.68 L 235.22 326.65 L 244.94 283.65 L 254.66 158.75 L 264.38 217.03 L 274.10 263.69 L 283.82 125.02 L 293.54 235.21 L 303.26 341.08 L 312.98 343.61 L 322.70 338.46 L 332.42 129.90 L 342.13 206.82 L 351.85 234.36 L 361.57 265.00 L 371.29 160.72 L 381.01 228.74 L 390.73 224.90 L 400.45 161.47 L 410.17 105.25 L 419.89 208.04 L 429.61 239.24 L 439.33 244.30 L 449.04 328.43 L 458.76 346.24 L 468.48 270.44 L 478.20 268.19 L 487.92 184.71 L 497.64 85.20 L 507.36 86.89 L 517.08 88.11 L 526.80 181.15 L 536.52 324.78 L 546.24 338.74 L 555.96 348.48 L 565.67 354.48 L 575.39 320.00 L 585.11 305.95 L 594.83 276.71 L 604.55 246.08 L 614.27 218.34 L 623.99 312.51 L 633.71 230.24 L 643.43 276.62 L 653.15 365.16 L 662.87 326.65 L 672.58 332.84 L 682.30 326.00 L 692.02 216.75 L 701.74 247.29 L 711.46 364.79 L 721.18 370.69 L 730.90 371.25 L 740.62 375.00 L 750.34 374.06 L 760.06 369.75 L 769.78 357.29 L 779.49 289.08 L 789.21 261.91 L 798.93 252.54 L 808.65 260.32 L 818.37 274.93 L 828.09 279.24 L 837.81 255.35 L 847.53 204.38 L 857.25 208.13 L 866.97 231.84 L 876.69 230.52 L 886.40 199.42 L 896.12 60.00 L 905.84 159.03 L 915.56 186.58 L 925.28 180.02 L 935.00 283.09" fill="none" stroke="#69a7ff" stroke-width="4" stroke-linecap="round" stroke-linejoin="round"/>
<circle cx="935.00" cy="283.09" r="6" fill="#69a7ff"/>
<text x="927.00" y="271.09" text-anchor="end" fill="#f5f7fb" font-family="Inter, Arial, sans-serif" font-size="12" font-weight="600">10.93</text>
</svg>