<svg xmlns="http://www.w3.org/2000/svg" width="960" height="430" viewBox="0 0 960 430" role="img" aria-label="Composite score history">
<rect width="100%" height="100%" fill="#0b1020" rx="20"/>
<text x="70" y="32" fill="#f5f7fb" font-family="Inter, Arial, sans-serif" font-size="24" font-weight="700">Composite score history</text>
<text x="70" y="52" fill="#93a4c3" font-family="Inter, Arial, sans-serif" font-size="13">Trailing 75 sessions through 2026-01-26</text>
<line x1="70" x2="935" y1="375.00" y2="375.00" stroke="#27314e" stroke-width="1"/>
<text x="58" y="379.00" text-anchor="end" fill="#93a4c3" font-family="Inter, Arial, sans-serif" font-size="12">0</text>
<line x1="70" x2="935" y1="312.00" y2="312.00" stroke="#27314e" stroke-width="1"/>
<text x="58" y="316.00" text-anchor="end" fill="#93a4c3" font-family="Inter, Arial, sans-serif" font-size="12">8</text>
<line x1="70" x2="935" y1="249.00" y2="249.00" stroke="#27314e" stroke-width="1"/>
<text x="58" y="253.00" text-anchor="end" fill="#93a4c3" font-family="Inter, Arial, sans-serif" font-size="12">17</text>
<line x1="70" x2="935" y1="186.00" y2="186.00" stroke="#27314e" stroke-width="1"/>
<text x="58" y="190.00" text-anchor="end" fill="#93a4c3" font-family="Inter, Arial, sans-serif" font-size="12">25</text>
<line x1="70" x2="935" y1="123.00" y2="123.00" stroke="#27314e" stroke-width="1"/>
<text x="58" y="127.00" text-anchor="end" fill="#93a4c3" font-family="Inter, Arial, sans-serif" font-size="12">33</text>
<line x1="70" x2="935" y1="60.00" y2="60.00" stroke="#27314e" stroke-width="1"/>
<text x="58" y="64.00" text-anchor="end" fill="#93a4c3" font-family="Inter, Arial, sans-serif" font-size="12">41</text>
<text x="70.00" y="412" text-anchor="middle" fill="#93a4c3" font-family="Inter, Arial, sans-serif" font-size="12">2025-10-06</text>
<text x="502.50" y="412" text-anchor="middle" fill="#93a4c3" font-family="Inter, Arial, sans-serif" font-size="12">2025-12-01</text>
<text x="935.00" y="412" text-anchor="middle" fill="#93a4c3" font-family="Inter, Arial, sans-serif" font-size="12">2026-01-26</text>
<path d="M 70.00 275.72 L 81.69 246.44 L 93.38 275.95 L 105.07 267.03 L 116.76 108.42 L 128.45 175.75 L 140.14 212.66 L 151.82 109.03 L 163.51 196.19 L 175.20 336.57 L 186.89 309.88 L 198.58 285.33 L 210.27 232.33 L 221.96 267.94 L 233.65 285.48 L 245.34 299.36 L 257.03 266.80 L 268.72 256.12 L 280.41 236.53 L 292.09 192.98 L 303.78 135.80 L 315.47 183.68 L 327.16 184.67 L 338.85 190.93 L 350.54 255.59 L 362.23 294.63 L 373.92 209.53 L 385.61 237.06 L 397.30 167.36 L 408.99 60.00 L 420.68 70.45 L 432.36 66.18 L 444.05 146.17 L 455.74 277.24 L 467.43 326.96 L 479.12 337.79 L 490.81 375.00 L 502.50 333.06 L 514.19 308.20 L 525.88 290.89 L 537.57 264.74 L 549.26 247.28 L 560.95 278.92 L 572.64 241.33 L 584.32 272.67 L 596.01 307.67 L 607.70 264.05 L 619.39 273.13 L 631.08 273.58 L 642.77 183.07 L 654.46 209.46 L 666.15 304.77 L 677.84 329.32 L 689.53 342.21 L 701.22 374.85 L 712.91 360.82 L 724.59 332.91 L 736.28 310.11 L 747.97 254.37 L 759.66 241.41 L 771.35 250.25 L 783.04 274.96 L 794.73 271.37 L 806.42 287.00 L 818.11 289.90 L 829.80 256.43 L 841.49 234.08 L 853.18 237.06 L 864.86 246.21 L 876.55 211.90 L 888.24 84.17 L 899.93 172.78 L 911.62 214.11 L 923.31 200.15 L 935.00 248.88" fill="none" stroke="#69a7ff" stroke-width="4" stroke-linecap="round" stroke-linejoin="round"/>
<circle cx="935.00" cy="248.88" r="6" fill="#69a7ff"/>
</svg>