<svg xmlns="http://www.w3.org/2000/svg" width="960" height="430" viewBox="0 0 960 430" role="img" aria-label="Composite score history">
<rect width="100%" height="100%" fill="#0b1020" rx="20"/>
<text x="70" y="32" fill="#f5f7fb" font-family="Inter, Arial, sans-serif" font-size="24" font-weight="700">Composite score history</text>
<text x="70" y="52" fill="#93a4c3" font-family="Inter, Arial, sans-serif" font-size="13">Trailing 90 sessions through 2026-01-26</text>
<line x1="70" x2="935" y1="375.00" y2="375.00" stroke="#27314e" stroke-width="1"/>
<text x="58" y="379.00" text-anchor="end" fill="#93a4c3" font-family="Inter, Arial, sans-serif" font-size="12">8</text>
<line x1="70" x2="935" y1="312.00" y2="312.00" stroke="#27314e" stroke-width="1"/>
<text x="58" y="316.00" text-anchor="end" fill="#93a4c3" font-family="Inter, Arial, sans-serif" font-size="12">14</text>
<line x1="70" x2="935" y1="249.00" y2="249.00" stroke="#27314e" stroke-width="1"/>
<text x="58" y="253.00" text-anchor="end" fill="#93a4c3" font-family="Inter, Arial, sans-serif" font-size="12">21</text>
<line x1="70" x2="935" y1="186.00" y2="186.00" stroke="#27314e" stroke-width="1"/>
<text x="58" y="190.00" text-anchor="end" fill="#93a4c3" font-family="Inter, Arial, sans-serif" font-size="12">28</text>
<line x1="70" x2="935" y1="123.00" y2="123.00" stroke="#27314e" stroke-width="1"/>
<text x="58" y="127.00" text-anchor="end" fill="#93a4c3" font-family="Inter, Arial, sans-serif" font-size="12">35</text>
<line x1="70" x2="935" y1="60.00" y2="60.00" stroke="#27314e" stroke-width="1"/>
<text x="58" y="64.00" text-anchor="end" fill="#93a4c3" font-family="Inter, Arial, sans-serif" font-size="12">41</text>
<text x="70.00" y="412" text-anchor="middle" fill="#93a4c3" font-family="Inter, Arial, sans-serif" font-size="12">2025-09-15</text>
<text x="507.36" y="412" text-anchor="middle" fill="#93a4c3" font-family="Inter, Arial, sans-serif" font-size="12">2025-11-19</text>
<text x="935.00" y="412" text-anchor="middle" fill="#93a4c3" font-family="Inter, Arial, sans-serif" font-size="12">2026-01-26</text>
<path d="M 70.00 304.77 L 79.72 312.71 L 89.44 314.11 L 99.16 281.05 L 108.88 311.12 L 118.60 285.44 L 128.31 311.12 L 138.03 299.08 L 147.75 259.01 L 157.47 287.49 L 167.19 289.55 L 176.91 293.00 L 186.63 325.50 L 196.35 326.81 L 206.07 311.50 L 215.79 321.96 L 225.51 310.00 L 235.22 313.18 L 244.94 294.31 L 254.66 138.35 L 264.38 201.67 L 274.10 246.96 L 283.82 120.05 L 293.54 226.79 L 303.26 333.63 L 312.98 334.00 L 322.70 326.06 L 332.42 232.58 L 342.13 270.03 L 351.85 287.68 L 361.57 299.17 L 371.29 246.59 L 381.01 271.15 L 390.73 259.57 L 400.45 222.87 L 410.17 152.83 L 419.89 211.48 L 429.61 212.69 L 439.33 220.35 L 449.04 299.54 L 458.76 319.99 L 468.48 243.14 L 478.20 272.09 L 487.92 191.49 L 497.64 60.00 L 507.36 72.79 L 517.08 67.56 L 526.80 165.53 L 536.52 314.58 L 546.24 334.56 L 555.96 340.26 L 565.67 345.02 L 575.39 320.27 L 585.11 320.74 L 594.83 313.92 L 604.55 295.53 L 614.27 282.08 L 623.99 316.54 L 633.71 278.25 L 643.43 307.85 L 653.15 348.38 L 662.87 309.91 L 672.58 321.02 L 682.30 321.58 L 692.02 210.64 L 701.74 243.04 L 711.46 357.44 L 721.18 368.56 L 730.90 368.09 L 740.62 372.48 L 750.34 375.00 L 760.06 369.96 L 769.78 360.24 L 779.49 298.05 L 789.21 282.17 L 798.93 293.00 L 808.65 310.00 L 818.37 310.47 L 828.09 312.15 L 837.81 304.77 L 847.53 275.07 L 857.25 266.86 L 866.97 274.89 L 876.69 280.30 L 886.40 246.03 L 896.12 89.60 L 905.84 198.12 L 915.56 248.74 L 925.28 231.65 L 935.00 287.87" fill="none" stroke="#69a7ff" stroke-width="4" stroke-linecap="round" stroke-linejoin="round"/>
<circle cx="935.00" cy="287.87" r="6" fill="#69a7ff"/>
<text x="927.00" y="275.87" text-anchor="end" fill="#f5f7fb" font-family="Inter, Arial, sans-serif" font-size="12" font-weight="600">16.91</text>
</svg>