<svg xmlns="http://www.w3.org/2000/svg" width="960" height="430" viewBox="0 0 960 430" role="img" aria-label="Composite score history">
<rect width="100%" height="100%" fill="#0b1020" rx="20"/>
<text x="70" y="32" fill="#f5f7fb" font-family="Inter, Arial, sans-serif" font-size="24" font-weight="700">Composite score history</text>
<text x="70" y="52" fill="#93a4c3" font-family="Inter, Arial, sans-serif" font-size="13">Trailing 74 sessions through 2026-01-26</text>
<line x1="70" x2="935" y1="375.00" y2="375.00" stroke="#27314e" stroke-width="1"/>
<text x="58" y="379.00" text-anchor="end" fill="#93a4c3" font-family="Inter, Arial, sans-serif" font-size="12">0</text>
<line x1="70" x2="935" y1="312.00" y2="312.00" stroke="#27314e" stroke-width="1"/>
<text x="58" y="316.00" text-anchor="end" fill="#93a4c3" font-family="Inter, Arial, sans-serif" font-size="12">8</text>
<line x1="70" x2="935" y1="249.00" y2="249.00" stroke="#27314e" stroke-width="1"/>
<text x="58" y="253.00" text-anchor="end" fill="#93a4c3" font-family="Inter, Arial, sans-serif" font-size="12">17</text>
<line x1="70" x2="935" y1="186.00" y2="186.00" stroke="#27314e" stroke-width="1"/>
<text x="58" y="190.00" text-anchor="end" fill="#93a4c3" font-family="Inter, Arial, sans-serif" font-size="12">25</text>
<line x1="70" x2="935" y1="123.00" y2="123.00" stroke="#27314e" stroke-width="1"/>
<text x="58" y="127.00" text-anchor="end" fill="#93a4c3" font-family="Inter, Arial, sans-serif" font-size="12">33</text>
<line x1="70" x2="935" y1="60.00" y2="60.00" stroke="#27314e" stroke-width="1"/>
<text x="58" y="64.00" text-anchor="end" fill="#93a4c3" font-family="Inter, Arial, sans-serif" font-size="12">41</text>
<text x="70.00" y="412" text-anchor="middle" fill="#93a4c3" font-family="Inter, Arial, sans-serif" font-size="12">2025-10-07</text>
<text x="508.42" y="412" text-anchor="middle" fill="#93a4c3" font-family="Inter, Arial, sans-serif" font-size="12">2025-12-02</text>
<text x="935.00" y="412" text-anchor="middle" fill="#93a4c3" font-family="Inter, Arial, sans-serif" font-size="12">2026-01-26</text>
<path d="M 70.00 270.99 L 81.85 284.03 L 93.70 270.84 L 105.55 128.86 L 117.40 196.34 L 129.25 212.66 L 141.10 109.03 L 152.95 196.19 L 164.79 336.57 L 176.64 309.88 L 188.49 285.33 L 200.34 232.33 L 212.19 267.94 L 224.04 285.48 L 235.89 299.36 L 247.74 266.80 L 259.59 256.12 L 271.44 236.53 L 283.29 192.98 L 295.14 135.80 L 306.99 183.68 L 318.84 184.67 L 330.68 190.93 L 342.53 255.59 L 354.38 294.63 L 366.23 209.53 L 378.08 237.06 L 389.93 167.36 L 401.78 60.00 L 413.63 70.45 L 425.48 66.18 L 437.33 146.17 L 449.18 277.24 L 461.03 326.96 L 472.88 337.79 L 484.73 375.00 L 496.58 333.06 L 508.42 308.20 L 520.27 290.89 L 532.12 264.74 L 543.97 247.28 L 555.82 278.92 L 567.67 241.33 L 579.52 272.67 L 591.37 307.67 L 603.22 264.05 L 615.07 273.13 L 626.92 273.58 L 638.77 183.07 L 650.62 209.46 L 662.47 304.77 L 674.32 329.32 L 686.16 342.21 L 698.01 374.85 L 709.86 360.82 L 721.71 332.91 L 733.56 310.11 L 745.41 254.37 L 757.26 241.41 L 769.11 250.25 L 780.96 274.96 L 792.81 271.37 L 804.66 287.00 L 816.51 289.90 L 828.36 256.43 L 840.21 234.08 L 852.05 237.06 L 863.90 246.21 L 875.75 211.90 L 887.60 84.17 L 899.45 172.78 L 911.30 214.11 L 923.15 200.15 L 935.00 248.88" fill="none" stroke="#69a7ff" stroke-width="4" stroke-linecap="round" stroke-linejoin="round"/>
<circle cx="935.00" cy="248.88" r="6" fill="#69a7ff"/>
</svg>