<svg xmlns="http://www.w3.org/2000/svg" width="960" height="430" viewBox="0 0 960 430" role="img" aria-label="Composite score history">
<rect width="100%" height="100%" fill="#0b1020" rx="20"/>
<text x="70" y="32" fill="#f5f7fb" font-family="Inter, Arial, sans-serif" font-size="24" font-weight="700">Composite score history</text>
<text x="70" y="52" fill="#93a4c3" font-family="Inter, Arial, sans-serif" font-size="13">Trailing 69 sessions through 2026-01-26</text>
<line x1="70" x2="935" y1="375.00" y2="375.00" stroke="#27314e" stroke-width="1"/>
<text x="58" y="379.00" text-anchor="end" fill="#93a4c3" font-family="Inter, Arial, sans-serif" font-size="12">0</text>
<line x1="70" x2="935" y1="312.00" y2="312.00" stroke="#27314e" stroke-width="1"/>
<text x="58" y="316.00" text-anchor="end" fill="#93a4c3" font-family="Inter, Arial, sans-serif" font-size="12">8</text>
<line x1="70" x2="935" y1="249.00" y2="249.00" stroke="#27314e" stroke-width="1"/>
<text x="58" y="253.00" text-anchor="end" fill="#93a4c3" font-family="Inter, Arial, sans-serif" font-size="12">17</text>
<line x1="70" x2="935" y1="186.00" y2="186.00" stroke="#27314e" stroke-width="1"/>
<text x="58" y="190.00" text-anchor="end" fill="#93a4c3" font-family="Inter, Arial, sans-serif" font-size="12">25</text>
<line x1="70" x2="935" y1="123.00" y2="123.00" stroke="#27314e" stroke-width="1"/>
<text x="58" y="127.00" text-anchor="end" fill="#93a4c3" font-family="Inter, Arial, sans-serif" font-size="12">33</text>
<line x1="70" x2="935" y1="60.00" y2="60.00" stroke="#27314e" stroke-width="1"/>
<text x="58" y="64.00" text-anchor="end" fill="#93a4c3" font-family="Inter, Arial, sans-serif" font-size="12">41</text>
<text x="70.00" y="412" text-anchor="middle" fill="#93a4c3" font-family="Inter, Arial, sans-serif" font-size="12">2025-10-15</text>
<text x="502.50" y="412" text-anchor="middle" fill="#93a4c3" font-family="Inter, Arial, sans-serif" font-size="12">2025-12-04</text>
<text x="935.00" y="412" text-anchor="middle" fill="#93a4c3" font-family="Inter, Arial, sans-serif" font-size="12">2026-01-26</text>
<path d="M 70.00 261.69 L 82.72 186.43 L 95.44 262.45 L 108.16 301.72 L 120.88 302.10 L 133.60 285.33 L 146.32 232.33 L 159.04 267.94 L 171.76 285.48 L 184.49 299.36 L 197.21 266.80 L 209.93 256.12 L 222.65 236.53 L 235.37 192.98 L 248.09 135.80 L 260.81 183.68 L 273.53 184.67 L 286.25 190.93 L 298.97 255.59 L 311.69 294.63 L 324.41 209.53 L 337.13 237.06 L 349.85 167.36 L 362.57 60.00 L 375.29 70.45 L 388.01 66.18 L 400.74 146.17 L 413.46 277.24 L 426.18 326.96 L 438.90 337.79 L 451.62 375.00 L 464.34 333.06 L 477.06 308.20 L 489.78 290.89 L 502.50 264.74 L 515.22 247.28 L 527.94 278.92 L 540.66 241.33 L 553.38 272.67 L 566.10 307.67 L 578.82 264.05 L 591.54 273.13 L 604.26 273.58 L 616.99 183.07 L 629.71 209.46 L 642.43 304.77 L 655.15 329.32 L 667.87 342.21 L 680.59 374.85 L 693.31 360.82 L 706.03 332.91 L 718.75 310.11 L 731.47 254.37 L 744.19 241.41 L 756.91 250.25 L 769.63 274.96 L 782.35 271.37 L 795.07 287.00 L 807.79 289.90 L 820.51 256.43 L 833.24 234.08 L 845.96 237.06 L 858.68 246.21 L 871.40 211.90 L 884.12 84.17 L 896.84 172.78 L 909.56 214.11 L 922.28 200.15 L 935.00 248.88" fill="none" stroke="#69a7ff" stroke-width="4" stroke-linecap="round" stroke-linejoin="round"/>
<circle cx="935.00" cy="248.88" r="6" fill="#69a7ff"/>
</svg>