<svg xmlns="http://www.w3.org/2000/svg" width="960" height="430" viewBox="0 0 960 430" role="img" aria-label="Composite score history">
<rect width="100%" height="100%" fill="#0b1020" rx="20"/>
<text x="70" y="32" fill="#f5f7fb" font-family="Inter, Arial, sans-serif" font-size="24" font-weight="700">Composite score history</text>
<text x="70" y="52" fill="#93a4c3" font-family="Inter, Arial, sans-serif" font-size="13">Trailing 60 sessions through 2026-01-26</text>
<line x1="70" x2="935" y1="375.00" y2="375.00" stroke="#27314e" stroke-width="1"/>
<text x="58" y="379.00" text-anchor="end" fill="#93a4c3" font-family="Inter, Arial, sans-serif" font-size="12">0</text>
<line x1="70" x2="935" y1="312.00" y2="312.00" stroke="#27314e" stroke-width="1"/>
<text x="58" y="316.00" text-anchor="end" fill="#93a4c3" font-family="Inter, Arial, sans-serif" font-size="12">8</text>
<line x1="70" x2="935" y1="249.00" y2="249.00" stroke="#27314e" stroke-width="1"/>
<text x="58" y="253.00" text-anchor="end" fill="#93a4c3" font-family="Inter, Arial, sans-serif" font-size="12">17</text>
<line x1="70" x2="935" y1="186.00" y2="186.00" stroke="#27314e" stroke-width="1"/>
<text x="58" y="190.00" text-anchor="end" fill="#93a4c3" font-family="Inter, Arial, sans-serif" font-size="12">25</text>
<line x1="70" x2="935" y1="123.00" y2="123.00" stroke="#27314e" stroke-width="1"/>
<text x="58" y="127.00" text-anchor="end" fill="#93a4c3" font-family="Inter, Arial, sans-serif" font-size="12">33</text>
<line x1="70" x2="935" y1="60.00" y2="60.00" stroke="#27314e" stroke-width="1"/>
<text x="58" y="64.00" text-anchor="end" fill="#93a4c3" font-family="Inter, Arial, sans-serif" font-size="12">41</text>
<text x="70.00" y="412" text-anchor="middle" fill="#93a4c3" font-family="Inter, Arial, sans-serif" font-size="12">2025-10-28</text>
<text x="509.83" y="412" text-anchor="middle" fill="#93a4c3" font-family="Inter, Arial, sans-serif" font-size="12">2025-12-11</text>
<text x="935.00" y="412" text-anchor="middle" fill="#93a4c3" font-family="Inter, Arial, sans-serif" font-size="12">2026-01-26</text>
<path d="M 70.00 284.34 L 84.66 229.97 L 99.32 180.25 L 113.98 176.97 L 128.64 182.00 L 143.31 135.80 L 157.97 183.68 L 172.63 184.67 L 187.29 190.93 L 201.95 255.59 L 216.61 294.63 L 231.27 209.53 L 245.93 237.06 L 260.59 167.36 L 275.25 60.00 L 289.92 70.45 L 304.58 66.18 L 319.24 146.17 L 333.90 277.24 L 348.56 326.96 L 363.22 337.79 L 377.88 375.00 L 392.54 333.06 L 407.20 308.20 L 421.86 290.89 L 436.53 264.74 L 451.19 247.28 L 465.85 278.92 L 480.51 241.33 L 495.17 272.67 L 509.83 307.67 L 524.49 264.05 L 539.15 273.13 L 553.81 273.58 L 568.47 183.07 L 583.14 209.46 L 597.80 304.77 L 612.46 329.32 L 627.12 342.21 L 641.78 374.85 L 656.44 360.82 L 671.10 332.91 L 685.76 310.11 L 700.42 254.37 L 715.08 241.41 L 729.75 250.25 L 744.41 274.96 L 759.07 271.37 L 773.73 287.00 L 788.39 289.90 L 803.05 256.43 L 817.71 234.08 L 832.37 237.06 L 847.03 246.21 L 861.69 211.90 L 876.36 84.17 L 891.02 172.78 L 905.68 214.11 L 920.34 200.15 L 935.00 248.88" fill="none" stroke="#69a7ff" stroke-width="4" stroke-linecap="round" stroke-linejoin="round"/>
<circle cx="935.00" cy="248.88" r="6" fill="#69a7ff"/>
</svg>