<svg xmlns="http://www.w3.org/2000/svg" width="960" height="430" viewBox="0 0 960 430" role="img" aria-label="Composite score history">
<rect width="100%" height="100%" fill="#0b1020" rx="20"/>
<text x="70" y="32" fill="#f5f7fb" font-family="Inter, Arial, sans-serif" font-size="24" font-weight="700">Composite score history</text>
<text x="70" y="52" fill="#93a4c3" font-family="Inter, Arial, sans-serif" font-size="13">Trailing 90 sessions through 2025-12-31</text>
<line x1="70" x2="935" y1="375.00" y2="375.00" stroke="#27314e" stroke-width="1"/>
<text x="58" y="379.00" text-anchor="end" fill="#93a4c3" font-family="Inter, Arial, sans-serif" font-size="12">1</text>
<line x1="70" x2="935" y1="312.00" y2="312.00" stroke="#27314e" stroke-width="1"/>
<text x="58" y="316.00" text-anchor="end" fill="#93a4c3" font-family="Inter, Arial, sans-serif" font-size="12">7</text>
<line x1="70" x2="935" y1="249.00" y2="249.00" stroke="#27314e" stroke-width="1"/>
<text x="58" y="253.00" text-anchor="end" fill="#93a4c3" font-family="Inter, Arial, sans-serif" font-size="12">13</text>
<line x1="70" x2="935" y1="186.00" y2="186.00" stroke="#27314e" stroke-width="1"/>
<text x="58" y="190.00" text-anchor="end" fill="#93a4c3" font-family="Inter, Arial, sans-serif" font-size="12">20</text>
<line x1="70" x2="935" y1="123.00" y2="123.00" stroke="#27314e" stroke-width="1"/>
<text x="58" y="127.00" text-anchor="end" fill="#93a4c3" font-family="Inter, Arial, sans-serif" font-size="12">26</text>
<line x1="70" x2="935" y1="60.00" y2="60.00" stroke="#27314e" stroke-width="1"/>
<text x="58" y="64.00" text-anchor="end" fill="#93a4c3" font-family="Inter, Arial, sans-serif" font-size="12">32</text>
<text x="70.00" y="412" text-anchor="middle" fill="#93a4c3" font-family="Inter, Arial, sans-serif" font-size="12">2025-08-21</text>
<text x="507.36" y="412" text-anchor="middle" fill="#93a4c3" font-family="Inter, Arial, sans-serif" font-size="12">2025-10-27</text>
<text x="935.00" y="412" text-anchor="middle" fill="#93a4c3" font-family="Inter, Arial, sans-serif" font-size="12">2025-12-31</text>
<path d="M 70.00 192.80 L 79.72 292.81 L 89.44 267.96 L 99.16 226.11 L 108.88 237.00 L 118.60 303.91 L 128.31 344.24 L 138.03 304.83 L 147.75 322.25 L 157.47 356.57 L 167.19 338.64 L 176.91 362.27 L 186.63 362.88 L 196.35 360.44 L 206.07 365.43 L 215.79 314.10 L 225.51 301.37 L 235.22 340.07 L 244.94 328.56 L 254.66 259.20 L 264.38 330.19 L 274.10 266.74 L 283.82 327.44 L 293.54 298.72 L 303.26 247.59 L 312.98 284.05 L 322.70 309.21 L 332.42 281.92 L 342.13 352.09 L 351.85 350.56 L 361.57 337.42 L 371.29 350.15 L 381.01 336.61 L 390.73 322.45 L 400.45 275.70 L 410.17 139.95 L 419.89 203.29 L 429.61 254.01 L 439.33 103.28 L 449.04 223.05 L 458.76 338.13 L 468.48 340.88 L 478.20 335.28 L 487.92 108.58 L 497.64 192.19 L 507.36 222.13 L 517.08 255.44 L 526.80 142.09 L 536.52 216.02 L 546.24 211.85 L 555.96 142.90 L 565.67 81.79 L 575.39 193.52 L 585.11 227.43 L 594.83 232.93 L 604.55 324.38 L 614.27 343.73 L 623.99 261.34 L 633.71 258.90 L 643.43 168.16 L 653.15 60.00 L 662.87 61.83 L 672.58 63.16 L 682.30 164.29 L 692.02 320.41 L 701.74 335.59 L 711.46 346.18 L 721.18 352.70 L 730.90 315.22 L 740.62 299.94 L 750.34 268.17 L 760.06 234.86 L 769.78 204.72 L 779.49 307.07 L 789.21 217.65 L 798.93 268.06 L 808.65 364.31 L 818.37 322.45 L 828.09 329.17 L 837.81 321.74 L 847.53 202.99 L 857.25 236.19 L 866.97 363.90 L 876.69 370.32 L 886.40 370.93 L 896.12 375.00 L 905.84 373.98 L 915.56 369.30 L 925.28 355.75 L 935.00 281.61" fill="none" stroke="#69a7ff" stroke-width="4" stroke-linecap="round" stroke-linejoin="round"/>
<circle cx="935.00" cy="281.61" r="6" fill="#69a7ff"/>
<text x="927.00" y="269.61" text-anchor="end" fill="#f5f7fb" font-family="Inter, Arial, sans-serif" font-size="12" font-weight="600">10.29</text>
</svg>