<svg xmlns="http://www.w3.org/2000/svg" width="960" height="430" viewBox="0 0 960 430" role="img" aria-label="Composite score history">
<rect width="100%" height="100%" fill="#0b1020" rx="20"/>
<text x="70" y="32" fill="#f5f7fb" font-family="Inter, Arial, sans-serif" font-size="24" font-weight="700">Composite score history</text>
<text x="70" y="52" fill="#93a4c3" font-family="Inter, Arial, sans-serif" font-size="13">Trailing 55 sessions through 2025-12-31</text>
<line x1="70" x2="935" y1="375.00" y2="375.00" stroke="#27314e" stroke-width="1"/>
<text x="58" y="379.00" text-anchor="end" fill="#93a4c3" font-family="Inter, Arial, sans-serif" font-size="12">0</text>
<line x1="70" x2="935" y1="312.00" y2="312.00" stroke="#27314e" stroke-width="1"/>
<text x="58" y="316.00" text-anchor="end" fill="#93a4c3" font-family="Inter, Arial, sans-serif" font-size="12">8</text>
<line x1="70" x2="935" y1="249.00" y2="249.00" stroke="#27314e" stroke-width="1"/>
<text x="58" y="253.00" text-anchor="end" fill="#93a4c3" font-family="Inter, Arial, sans-serif" font-size="12">17</text>
<line x1="70" x2="935" y1="186.00" y2="186.00" stroke="#27314e" stroke-width="1"/>
<text x="58" y="190.00" text-anchor="end" fill="#93a4c3" font-family="Inter, Arial, sans-serif" font-size="12">25</text>
<line x1="70" x2="935" y1="123.00" y2="123.00" stroke="#27314e" stroke-width="1"/>
<text x="58" y="127.00" text-anchor="end" fill="#93a4c3" font-family="Inter, Arial, sans-serif" font-size="12">33</text>
<line x1="70" x2="935" y1="60.00" y2="60.00" stroke="#27314e" stroke-width="1"/>
<text x="58" y="64.00" text-anchor="end" fill="#93a4c3" font-family="Inter, Arial, sans-serif" font-size="12">41</text>
<text x="70.00" y="412" text-anchor="middle" fill="#93a4c3" font-family="Inter, Arial, sans-serif" font-size="12">2025-10-10</text>
<text x="502.50" y="412" text-anchor="middle" fill="#93a4c3" font-family="Inter, Arial, sans-serif" font-size="12">2025-11-20</text>
<text x="935.00" y="412" text-anchor="middle" fill="#93a4c3" font-family="Inter, Arial, sans-serif" font-size="12">2025-12-31</text>
<path d="M 70.00 252.46 L 86.02 288.45 L 102.04 296.15 L 118.06 239.96 L 134.07 299.97 L 150.09 336.57 L 166.11 309.88 L 182.13 285.33 L 198.15 232.33 L 214.17 267.94 L 230.19 285.48 L 246.20 299.36 L 262.22 266.80 L 278.24 256.12 L 294.26 236.53 L 310.28 192.98 L 326.30 135.80 L 342.31 183.68 L 358.33 184.67 L 374.35 190.93 L 390.37 255.59 L 406.39 294.63 L 422.41 209.53 L 438.43 237.06 L 454.44 167.36 L 470.46 60.00 L 486.48 70.45 L 502.50 66.18 L 518.52 146.17 L 534.54 277.24 L 550.56 326.96 L 566.57 337.79 L 582.59 375.00 L 598.61 333.06 L 614.63 308.20 L 630.65 290.89 L 646.67 264.74 L 662.69 247.28 L 678.70 278.92 L 694.72 241.33 L 710.74 272.67 L 726.76 307.67 L 742.78 264.05 L 758.80 273.13 L 774.81 273.58 L 790.83 183.07 L 806.85 209.46 L 822.87 304.77 L 838.89 329.32 L 854.91 342.21 L 870.93 374.85 L 886.94 360.82 L 902.96 332.91 L 918.98 310.11 L 935.00 254.37" fill="none" stroke="#69a7ff" stroke-width="4" stroke-linecap="round" stroke-linejoin="round"/>
<circle cx="935.00" cy="254.37" r="6" fill="#69a7ff"/>
</svg>