<svg xmlns="http://www.w3.org/2000/svg" width="960" height="430" viewBox="0 0 960 430" role="img" aria-label="Composite score history">
<rect width="100%" height="100%" fill="#0b1020" rx="20"/>
<text x="70" y="32" fill="#f5f7fb" font-family="Inter, Arial, sans-serif" font-size="24" font-weight="700">Composite score history</text>
<text x="70" y="52" fill="#93a4c3" font-family="Inter, Arial, sans-serif" font-size="13">Trailing 70 sessions through 2025-12-31</text>
<line x1="70" x2="935" y1="375.00" y2="375.00" stroke="#27314e" stroke-width="1"/>
<text x="58" y="379.00" text-anchor="end" fill="#93a4c3" font-family="Inter, Arial, sans-serif" font-size="12">0</text>
<line x1="70" x2="935" y1="312.00" y2="312.00" stroke="#27314e" stroke-width="1"/>
<text x="58" y="316.00" text-anchor="end" fill="#93a4c3" font-family="Inter, Arial, sans-serif" font-size="12">8</text>
<line x1="70" x2="935" y1="249.00" y2="249.00" stroke="#27314e" stroke-width="1"/>
<text x="58" y="253.00" text-anchor="end" fill="#93a4c3" font-family="Inter, Arial, sans-serif" font-size="12">17</text>
<line x1="70" x2="935" y1="186.00" y2="186.00" stroke="#27314e" stroke-width="1"/>
<text x="58" y="190.00" text-anchor="end" fill="#93a4c3" font-family="Inter, Arial, sans-serif" font-size="12">25</text>
<line x1="70" x2="935" y1="123.00" y2="123.00" stroke="#27314e" stroke-width="1"/>
<text x="58" y="127.00" text-anchor="end" fill="#93a4c3" font-family="Inter, Arial, sans-serif" font-size="12">33</text>
<line x1="70" x2="935" y1="60.00" y2="60.00" stroke="#27314e" stroke-width="1"/>
<text x="58" y="64.00" text-anchor="end" fill="#93a4c3" font-family="Inter, Arial, sans-serif" font-size="12">41</text>
<text x="70.00" y="412" text-anchor="middle" fill="#93a4c3" font-family="Inter, Arial, sans-serif" font-size="12">2025-09-19</text>
<text x="508.77" y="412" text-anchor="middle" fill="#93a4c3" font-family="Inter, Arial, sans-serif" font-size="12">2025-11-10</text>
<text x="935.00" y="412" text-anchor="middle" fill="#93a4c3" font-family="Inter, Arial, sans-serif" font-size="12">2025-12-31</text>
<path d="M 70.00 276.79 L 82.54 263.67 L 95.07 260.32 L 107.61 253.45 L 120.14 202.21 L 132.68 245.75 L 145.22 247.43 L 157.75 259.32 L 170.29 297.76 L 182.83 309.80 L 195.36 286.01 L 207.90 296.54 L 220.43 271.60 L 232.97 278.85 L 245.51 256.96 L 258.04 123.98 L 270.58 175.75 L 283.12 212.66 L 295.65 109.03 L 308.19 196.19 L 320.72 336.57 L 333.26 309.88 L 345.80 285.33 L 358.33 232.33 L 370.87 267.94 L 383.41 285.48 L 395.94 299.36 L 408.48 266.80 L 421.01 256.12 L 433.55 236.53 L 446.09 192.98 L 458.62 135.80 L 471.16 183.68 L 483.70 184.67 L 496.23 190.93 L 508.77 255.59 L 521.30 294.63 L 533.84 209.53 L 546.38 237.06 L 558.91 167.36 L 571.45 60.00 L 583.99 70.45 L 596.52 66.18 L 609.06 146.17 L 621.59 277.24 L 634.13 326.96 L 646.67 337.79 L 659.20 375.00 L 671.74 333.06 L 684.28 308.20 L 696.81 290.89 L 709.35 264.74 L 721.88 247.28 L 734.42 278.92 L 746.96 241.33 L 759.49 272.67 L 772.03 307.67 L 784.57 264.05 L 797.10 273.13 L 809.64 273.58 L 822.17 183.07 L 834.71 209.46 L 847.25 304.77 L 859.78 329.32 L 872.32 342.21 L 884.86 374.85 L 897.39 360.82 L 909.93 332.91 L 922.46 310.11 L 935.00 254.37" fill="none" stroke="#69a7ff" stroke-width="4" stroke-linecap="round" stroke-linejoin="round"/>
<circle cx="935.00" cy="254.37" r="6" fill="#69a7ff"/>
</svg>