<svg xmlns="http://www.w3.org/2000/svg" width="960" height="430" viewBox="0 0 960 430" role="img" aria-label="Composite score history">
<rect width="100%" height="100%" fill="#0b1020" rx="20"/>
<text x="70" y="32" fill="#f5f7fb" font-family="Inter, Arial, sans-serif" font-size="24" font-weight="700">Composite score history</text>
<text x="70" y="52" fill="#93a4c3" font-family="Inter, Arial, sans-serif" font-size="13">Trailing 71 sessions through 2025-12-31</text>
<line x1="70" x2="935" y1="375.00" y2="375.00" stroke="#27314e" stroke-width="1"/>
<text x="58" y="379.00" text-anchor="end" fill="#93a4c3" font-family="Inter, Arial, sans-serif" font-size="12">0</text>
<line x1="70" x2="935" y1="312.00" y2="312.00" stroke="#27314e" stroke-width="1"/>
<text x="58" y="316.00" text-anchor="end" fill="#93a4c3" font-family="Inter, Arial, sans-serif" font-size="12">8</text>
<line x1="70" x2="935" y1="249.00" y2="249.00" stroke="#27314e" stroke-width="1"/>
<text x="58" y="253.00" text-anchor="end" fill="#93a4c3" font-family="Inter, Arial, sans-serif" font-size="12">17</text>
<line x1="70" x2="935" y1="186.00" y2="186.00" stroke="#27314e" stroke-width="1"/>
<text x="58" y="190.00" text-anchor="end" fill="#93a4c3" font-family="Inter, Arial, sans-serif" font-size="12">25</text>
<line x1="70" x2="935" y1="123.00" y2="123.00" stroke="#27314e" stroke-width="1"/>
<text x="58" y="127.00" text-anchor="end" fill="#93a4c3" font-family="Inter, Arial, sans-serif" font-size="12">33</text>
<line x1="70" x2="935" y1="60.00" y2="60.00" stroke="#27314e" stroke-width="1"/>
<text x="58" y="64.00" text-anchor="end" fill="#93a4c3" font-family="Inter, Arial, sans-serif" font-size="12">41</text>
<text x="70.00" y="412" text-anchor="middle" fill="#93a4c3" font-family="Inter, Arial, sans-serif" font-size="12">2025-09-18</text>
<text x="502.50" y="412" text-anchor="middle" fill="#93a4c3" font-family="Inter, Arial, sans-serif" font-size="12">2025-11-07</text>
<text x="935.00" y="412" text-anchor="middle" fill="#93a4c3" font-family="Inter, Arial, sans-serif" font-size="12">2025-12-31</text>
<path d="M 70.00 274.27 L 82.36 286.17 L 94.71 274.88 L 107.07 273.58 L 119.43 272.06 L 131.79 222.49 L 144.14 245.75 L 156.50 247.43 L 168.86 259.32 L 181.21 297.76 L 193.57 309.80 L 205.93 286.01 L 218.29 296.54 L 230.64 271.60 L 243.00 278.85 L 255.36 256.96 L 267.71 123.98 L 280.07 175.75 L 292.43 212.66 L 304.79 109.03 L 317.14 196.19 L 329.50 336.57 L 341.86 309.88 L 354.21 285.33 L 366.57 232.33 L 378.93 267.94 L 391.29 285.48 L 403.64 299.36 L 416.00 266.80 L 428.36 256.12 L 440.71 236.53 L 453.07 192.98 L 465.43 135.80 L 477.79 183.68 L 490.14 184.67 L 502.50 190.93 L 514.86 255.59 L 527.21 294.63 L 539.57 209.53 L 551.93 237.06 L 564.29 167.36 L 576.64 60.00 L 589.00 70.45 L 601.36 66.18 L 613.71 146.17 L 626.07 277.24 L 638.43 326.96 L 650.79 337.79 L 663.14 375.00 L 675.50 333.06 L 687.86 308.20 L 700.21 290.89 L 712.57 264.74 L 724.93 247.28 L 737.29 278.92 L 749.64 241.33 L 762.00 272.67 L 774.36 307.67 L 786.71 264.05 L 799.07 273.13 L 811.43 273.58 L 823.79 183.07 L 836.14 209.46 L 848.50 304.77 L 860.86 329.32 L 873.21 342.21 L 885.57 374.85 L 897.93 360.82 L 910.29 332.91 L 922.64 310.11 L 935.00 254.37" fill="none" stroke="#69a7ff" stroke-width="4" stroke-linecap="round" stroke-linejoin="round"/>
<circle cx="935.00" cy="254.37" r="6" fill="#69a7ff"/>
</svg>