<svg xmlns="http://www.w3.org/2000/svg" width="960" height="430" viewBox="0 0 960 430" role="img" aria-label="Composite score history">
<rect width="100%" height="100%" fill="#0b1020" rx="20"/>
<text x="70" y="32" fill="#f5f7fb" font-family="Inter, Arial, sans-serif" font-size="24" font-weight="700">Composite score history</text>
<text x="70" y="52" fill="#93a4c3" font-family="Inter, Arial, sans-serif" font-size="13">Trailing 69 sessions through 2025-12-31</text>
<line x1="70" x2="935" y1="375.00" y2="375.00" stroke="#27314e" stroke-width="1"/>
<text x="58" y="379.00" text-anchor="end" fill="#93a4c3" font-family="Inter, Arial, sans-serif" font-size="12">0</text>
<line x1="70" x2="935" y1="312.00" y2="312.00" stroke="#27314e" stroke-width="1"/>
<text x="58" y="316.00" text-anchor="end" fill="#93a4c3" font-family="Inter, Arial, sans-serif" font-size="12">8</text>
<line x1="70" x2="935" y1="249.00" y2="249.00" stroke="#27314e" stroke-width="1"/>
<text x="58" y="253.00" text-anchor="end" fill="#93a4c3" font-family="Inter, Arial, sans-serif" font-size="12">17</text>
<line x1="70" x2="935" y1="186.00" y2="186.00" stroke="#27314e" stroke-width="1"/>
<text x="58" y="190.00" text-anchor="end" fill="#93a4c3" font-family="Inter, Arial, sans-serif" font-size="12">25</text>
<line x1="70" x2="935" y1="123.00" y2="123.00" stroke="#27314e" stroke-width="1"/>
<text x="58" y="127.00" text-anchor="end" fill="#93a4c3" font-family="Inter, Arial, sans-serif" font-size="12">33</text>
<line x1="70" x2="935" y1="60.00" y2="60.00" stroke="#27314e" stroke-width="1"/>
<text x="58" y="64.00" text-anchor="end" fill="#93a4c3" font-family="Inter, Arial, sans-serif" font-size="12">41</text>
<text x="70.00" y="412" text-anchor="middle" fill="#93a4c3" font-family="Inter, Arial, sans-serif" font-size="12">2025-09-22</text>
<text x="502.50" y="412" text-anchor="middle" fill="#93a4c3" font-family="Inter, Arial, sans-serif" font-size="12">2025-11-10</text>
<text x="935.00" y="412" text-anchor="middle" fill="#93a4c3" font-family="Inter, Arial, sans-serif" font-size="12">2025-12-31</text>
<path d="M 70.00 272.14 L 82.72 248.27 L 95.44 241.41 L 108.16 202.52 L 120.88 241.25 L 133.60 247.43 L 146.32 259.32 L 159.04 297.76 L 171.76 309.80 L 184.49 286.01 L 197.21 296.54 L 209.93 271.60 L 222.65 278.85 L 235.37 256.96 L 248.09 123.98 L 260.81 175.75 L 273.53 212.66 L 286.25 109.03 L 298.97 196.19 L 311.69 336.57 L 324.41 309.88 L 337.13 285.33 L 349.85 232.33 L 362.57 267.94 L 375.29 285.48 L 388.01 299.36 L 400.74 266.80 L 413.46 256.12 L 426.18 236.53 L 438.90 192.98 L 451.62 135.80 L 464.34 183.68 L 477.06 184.67 L 489.78 190.93 L 502.50 255.59 L 515.22 294.63 L 527.94 209.53 L 540.66 237.06 L 553.38 167.36 L 566.10 60.00 L 578.82 70.45 L 591.54 66.18 L 604.26 146.17 L 616.99 277.24 L 629.71 326.96 L 642.43 337.79 L 655.15 375.00 L 667.87 333.06 L 680.59 308.20 L 693.31 290.89 L 706.03 264.74 L 718.75 247.28 L 731.47 278.92 L 744.19 241.33 L 756.91 272.67 L 769.63 307.67 L 782.35 264.05 L 795.07 273.13 L 807.79 273.58 L 820.51 183.07 L 833.24 209.46 L 845.96 304.77 L 858.68 329.32 L 871.40 342.21 L 884.12 374.85 L 896.84 360.82 L 909.56 332.91 L 922.28 310.11 L 935.00 254.37" fill="none" stroke="#69a7ff" stroke-width="4" stroke-linecap="round" stroke-linejoin="round"/>
<circle cx="935.00" cy="254.37" r="6" fill="#69a7ff"/>
</svg>