<svg xmlns="http://www.w3.org/2000/svg" width="960" height="430" viewBox="0 0 960 430" role="img" aria-label="Composite score history">
<rect width="100%" height="100%" fill="#0b1020" rx="20"/>
<text x="70" y="32" fill="#f5f7fb" font-family="Inter, Arial, sans-serif" font-size="24" font-weight="700">Composite score history</text>
<text x="70" y="52" fill="#93a4c3" font-family="Inter, Arial, sans-serif" font-size="13">Trailing 72 sessions through 2025-12-31</text>
<line x1="70" x2="935" y1="375.00" y2="375.00" stroke="#27314e" stroke-width="1"/>
<text x="58" y="379.00" text-anchor="end" fill="#93a4c3" font-family="Inter, Arial, sans-serif" font-size="12">0</text>
<line x1="70" x2="935" y1="312.00" y2="312.00" stroke="#27314e" stroke-width="1"/>
<text x="58" y="316.00" text-anchor="end" fill="#93a4c3" font-family="Inter, Arial, sans-serif" font-size="12">8</text>
<line x1="70" x2="935" y1="249.00" y2="249.00" stroke="#27314e" stroke-width="1"/>
<text x="58" y="253.00" text-anchor="end" fill="#93a4c3" font-family="Inter, Arial, sans-serif" font-size="12">17</text>
<line x1="70" x2="935" y1="186.00" y2="186.00" stroke="#27314e" stroke-width="1"/>
<text x="58" y="190.00" text-anchor="end" fill="#93a4c3" font-family="Inter, Arial, sans-serif" font-size="12">25</text>
<line x1="70" x2="935" y1="123.00" y2="123.00" stroke="#27314e" stroke-width="1"/>
<text x="58" y="127.00" text-anchor="end" fill="#93a4c3" font-family="Inter, Arial, sans-serif" font-size="12">33</text>
<line x1="70" x2="935" y1="60.00" y2="60.00" stroke="#27314e" stroke-width="1"/>
<text x="58" y="64.00" text-anchor="end" fill="#93a4c3" font-family="Inter, Arial, sans-serif" font-size="12">41</text>
<text x="70.00" y="412" text-anchor="middle" fill="#93a4c3" font-family="Inter, Arial, sans-serif" font-size="12">2025-09-17</text>
<text x="508.59" y="412" text-anchor="middle" fill="#93a4c3" font-family="Inter, Arial, sans-serif" font-size="12">2025-11-07</text>
<text x="935.00" y="412" text-anchor="middle" fill="#93a4c3" font-family="Inter, Arial, sans-serif" font-size="12">2025-12-31</text>
<path d="M 70.00 277.78 L 82.18 264.28 L 94.37 280.07 L 106.55 269.01 L 118.73 279.84 L 130.92 266.03 L 143.10 222.49 L 155.28 245.75 L 167.46 247.43 L 179.65 259.32 L 191.83 297.76 L 204.01 309.80 L 216.20 286.01 L 228.38 296.54 L 240.56 271.60 L 252.75 278.85 L 264.93 256.96 L 277.11 123.98 L 289.30 175.75 L 301.48 212.66 L 313.66 109.03 L 325.85 196.19 L 338.03 336.57 L 350.21 309.88 L 362.39 285.33 L 374.58 232.33 L 386.76 267.94 L 398.94 285.48 L 411.13 299.36 L 423.31 266.80 L 435.49 256.12 L 447.68 236.53 L 459.86 192.98 L 472.04 135.80 L 484.23 183.68 L 496.41 184.67 L 508.59 190.93 L 520.77 255.59 L 532.96 294.63 L 545.14 209.53 L 557.32 237.06 L 569.51 167.36 L 581.69 60.00 L 593.87 70.45 L 606.06 66.18 L 618.24 146.17 L 630.42 277.24 L 642.61 326.96 L 654.79 337.79 L 666.97 375.00 L 679.15 333.06 L 691.34 308.20 L 703.52 290.89 L 715.70 264.74 L 727.89 247.28 L 740.07 278.92 L 752.25 241.33 L 764.44 272.67 L 776.62 307.67 L 788.80 264.05 L 800.99 273.13 L 813.17 273.58 L 825.35 183.07 L 837.54 209.46 L 849.72 304.77 L 861.90 329.32 L 874.08 342.21 L 886.27 374.85 L 898.45 360.82 L 910.63 332.91 L 922.82 310.11 L 935.00 254.37" fill="none" stroke="#69a7ff" stroke-width="4" stroke-linecap="round" stroke-linejoin="round"/>
<circle cx="935.00" cy="254.37" r="6" fill="#69a7ff"/>
</svg>