<svg xmlns="http://www.w3.org/2000/svg" width="960" height="430" viewBox="0 0 960 430" role="img" aria-label="Latest component scores">
<rect width="100%" height="100%" fill="#0b1020" rx="20"/>
<text x="170" y="32" fill="#f5f7fb" font-family="Inter, Arial, sans-serif" font-size="24" font-weight="700">Latest component scores</text>
<text x="170" y="52" fill="#93a4c3" font-family="Inter, Arial, sans-serif" font-size="13">How each factor contributed on 2026-03-24</text>
<line x1="170.00" x2="170.00" y1="60" y2="390" stroke="#27314e" stroke-width="1"/>
<text x="170.00" y="418" text-anchor="middle" fill="#93a4c3" font-family="Inter, Arial, sans-serif" font-size="12">0</text>
<line x1="323.00" x2="323.00" y1="60" y2="390" stroke="#27314e" stroke-width="1"/>
<text x="323.00" y="418" text-anchor="middle" fill="#93a4c3" font-family="Inter, Arial, sans-serif" font-size="12">20</text>
<line x1="476.00" x2="476.00" y1="60" y2="390" stroke="#27314e" stroke-width="1"/>
<text x="476.00" y="418" text-anchor="middle" fill="#93a4c3" font-family="Inter, Arial, sans-serif" font-size="12">40</text>
<line x1="629.00" x2="629.00" y1="60" y2="390" stroke="#27314e" stroke-width="1"/>
<text x="629.00" y="418" text-anchor="middle" fill="#93a4c3" font-family="Inter, Arial, sans-serif" font-size="12">60</text>
<line x1="782.00" x2="782.00" y1="60" y2="390" stroke="#27314e" stroke-width="1"/>
<text x="782.00" y="418" text-anchor="middle" fill="#93a4c3" font-family="Inter, Arial, sans-serif" font-size="12">80</text>
<line x1="935.00" x2="935.00" y1="60" y2="390" stroke="#27314e" stroke-width="1"/>
<text x="935.00" y="418" text-anchor="middle" fill="#93a4c3" font-family="Inter, Arial, sans-serif" font-size="12">100</text>
<text x="156" y="99.50" text-anchor="end" fill="#f5f7fb" font-family="Inter, Arial, sans-serif" font-size="14">S&amp;P 500 equity pressure</text>
<rect x="170" y="60.00" width="765.00" height="69.00" rx="10" fill="#121933" stroke="#223154"/>
<rect x="170" y="60.00" width="229.50" height="69.00" rx="10" fill="#f5c451"/>
<text x="407.50" y="99.50" fill="#f5f7fb" font-family="Inter, Arial, sans-serif" font-size="13" font-weight="600">30.00</text>
<text x="156" y="186.50" text-anchor="end" fill="#f5f7fb" font-family="Inter, Arial, sans-serif" font-size="14">2Y Treasury rate pressure</text>
<rect x="170" y="147.00" width="765.00" height="69.00" rx="10" fill="#121933" stroke="#223154"/>
<rect x="170" y="147.00" width="153.00" height="69.00" rx="10" fill="#3ad29f"/>
<text x="331.00" y="186.50" fill="#f5f7fb" font-family="Inter, Arial, sans-serif" font-size="13" font-weight="600">20.00</text>
<text x="156" y="273.50" text-anchor="end" fill="#f5f7fb" font-family="Inter, Arial, sans-serif" font-size="14">VIX volatility pressure</text>
<rect x="170" y="234.00" width="765.00" height="69.00" rx="10" fill="#121933" stroke="#223154"/>
<rect x="170" y="234.00" width="153.00" height="69.00" rx="10" fill="#3ad29f"/>
<text x="331.00" y="273.50" fill="#f5f7fb" font-family="Inter, Arial, sans-serif" font-size="13" font-weight="600">20.00</text>
<text x="156" y="360.50" text-anchor="end" fill="#f5f7fb" font-family="Inter, Arial, sans-serif" font-size="14">Inflation expectations pressure</text>
<rect x="170" y="321.00" width="765.00" height="69.00" rx="10" fill="#121933" stroke="#223154"/>
<rect x="170" y="321.00" width="76.50" height="69.00" rx="10" fill="#3ad29f"/>
<text x="254.50" y="360.50" fill="#f5f7fb" font-family="Inter, Arial, sans-serif" font-size="13" font-weight="600">10.00</text>
</svg>