<svg xmlns="http://www.w3.org/2000/svg" width="960" height="430" viewBox="0 0 960 430">
<rect width="100%" height="100%" fill="#0b1020" rx="20"/>
<text x="70" y="32" fill="#f5f7fb" font-size="24" font-family="Inter, Arial, sans-serif" font-weight="700">Composite score history</text>
<text x="70" y="52" fill="#93a4c3" font-size="13" font-family="Inter, Arial, sans-serif">Trailing 32 sessions through 2025-08-29</text>
<line x1="70" x2="935" y1="375.00" y2="375.00" stroke="#27314e" stroke-width="1"/>
<text x="58" y="379.00" text-anchor="end" fill="#93a4c3" font-size="12" font-family="Inter, Arial, sans-serif">9</text>
<line x1="70" x2="935" y1="312.00" y2="312.00" stroke="#27314e" stroke-width="1"/>
<text x="58" y="316.00" text-anchor="end" fill="#93a4c3" font-size="12" font-family="Inter, Arial, sans-serif">14</text>
<line x1="70" x2="935" y1="249.00" y2="249.00" stroke="#27314e" stroke-width="1"/>
<text x="58" y="253.00" text-anchor="end" fill="#93a4c3" font-size="12" font-family="Inter, Arial, sans-serif">19</text>
<line x1="70" x2="935" y1="186.00" y2="186.00" stroke="#27314e" stroke-width="1"/>
<text x="58" y="190.00" text-anchor="end" fill="#93a4c3" font-size="12" font-family="Inter, Arial, sans-serif">24</text>
<line x1="70" x2="935" y1="123.00" y2="123.00" stroke="#27314e" stroke-width="1"/>
<text x="58" y="127.00" text-anchor="end" fill="#93a4c3" font-size="12" font-family="Inter, Arial, sans-serif">29</text>
<line x1="70" x2="935" y1="60.00" y2="60.00" stroke="#27314e" stroke-width="1"/>
<text x="58" y="64.00" text-anchor="end" fill="#93a4c3" font-size="12" font-family="Inter, Arial, sans-serif">34</text>
<text x="70.00" y="412" text-anchor="middle" fill="#93a4c3" font-size="12" font-family="Inter, Arial, sans-serif">2025-07-17</text>
<text x="516.45" y="412" text-anchor="middle" fill="#93a4c3" font-size="12" font-family="Inter, Arial, sans-serif">2025-08-08</text>
<text x="935.00" y="412" text-anchor="middle" fill="#93a4c3" font-size="12" font-family="Inter, Arial, sans-serif">2025-08-29</text>
<path d="M 70.00 262.54 L 97.90 271.21 L 125.81 276.49 L 153.71 286.92 L 181.61 323.74 L 209.52 311.92 L 237.42 319.84 L 265.32 299.99 L 293.23 290.56 L 321.13 224.85 L 349.03 216.93 L 376.94 60.00 L 404.84 205.88 L 432.74 195.70 L 460.65 270.34 L 488.55 300.99 L 516.45 292.20 L 544.35 245.96 L 572.26 375.00 L 600.16 370.35 L 628.06 352.89 L 655.97 340.07 L 683.87 341.95 L 711.77 253.00 L 739.68 191.18 L 767.58 141.04 L 795.48 283.91 L 823.39 248.22 L 851.29 269.20 L 879.19 290.31 L 907.10 347.99 L 935.00 291.95" fill="none" stroke="#69a7ff" stroke-width="4" stroke-linecap="round" stroke-linejoin="round"/>
<circle cx="935.00" cy="291.95" r="6" fill="#69a7ff"/>
</svg>