<svg xmlns="http://www.w3.org/2000/svg" width="960" height="430" viewBox="0 0 960 430" role="img" aria-label="Composite score history">
<rect width="100%" height="100%" fill="#0b1020" rx="20"/>
<text x="70" y="32" fill="#f5f7fb" font-family="Inter, Arial, sans-serif" font-size="24" font-weight="700">Composite score history</text>
<text x="70" y="52" fill="#93a4c3" font-family="Inter, Arial, sans-serif" font-size="13">Trailing 49 sessions through 2025-10-08</text>
<line x1="70" x2="935" y1="375.00" y2="375.00" stroke="#27314e" stroke-width="1"/>
<text x="58" y="379.00" text-anchor="end" fill="#93a4c3" font-family="Inter, Arial, sans-serif" font-size="12">8</text>
<line x1="70" x2="935" y1="312.00" y2="312.00" stroke="#27314e" stroke-width="1"/>
<text x="58" y="316.00" text-anchor="end" fill="#93a4c3" font-family="Inter, Arial, sans-serif" font-size="12">12</text>
<line x1="70" x2="935" y1="249.00" y2="249.00" stroke="#27314e" stroke-width="1"/>
<text x="58" y="253.00" text-anchor="end" fill="#93a4c3" font-family="Inter, Arial, sans-serif" font-size="12">16</text>
<line x1="70" x2="935" y1="186.00" y2="186.00" stroke="#27314e" stroke-width="1"/>
<text x="58" y="190.00" text-anchor="end" fill="#93a4c3" font-family="Inter, Arial, sans-serif" font-size="12">20</text>
<line x1="70" x2="935" y1="123.00" y2="123.00" stroke="#27314e" stroke-width="1"/>
<text x="58" y="127.00" text-anchor="end" fill="#93a4c3" font-family="Inter, Arial, sans-serif" font-size="12">24</text>
<line x1="70" x2="935" y1="60.00" y2="60.00" stroke="#27314e" stroke-width="1"/>
<text x="58" y="64.00" text-anchor="end" fill="#93a4c3" font-family="Inter, Arial, sans-serif" font-size="12">28</text>
<text x="70.00" y="412" text-anchor="middle" fill="#93a4c3" font-family="Inter, Arial, sans-serif" font-size="12">2025-07-31</text>
<text x="502.50" y="412" text-anchor="middle" fill="#93a4c3" font-family="Inter, Arial, sans-serif" font-size="12">2025-09-04</text>
<text x="935.00" y="412" text-anchor="middle" fill="#93a4c3" font-family="Inter, Arial, sans-serif" font-size="12">2025-10-08</text>
<path d="M 70.00 241.32 L 88.02 60.00 L 106.04 246.28 L 124.06 195.43 L 142.08 284.66 L 160.10 279.06 L 178.12 267.87 L 196.15 209.03 L 214.17 373.24 L 232.19 367.32 L 250.21 345.10 L 268.23 328.79 L 286.25 331.19 L 304.27 217.98 L 322.29 139.31 L 340.31 75.51 L 358.33 257.31 L 376.35 211.90 L 394.38 238.61 L 412.40 265.47 L 430.42 338.86 L 448.44 267.55 L 466.46 195.75 L 484.48 233.17 L 502.50 306.72 L 520.52 279.22 L 538.54 342.38 L 556.56 372.12 L 574.58 364.61 L 592.60 375.00 L 610.62 346.70 L 628.65 341.74 L 646.67 339.18 L 664.69 325.75 L 682.71 254.28 L 700.73 327.35 L 718.75 282.10 L 736.77 308.96 L 754.79 280.82 L 772.81 189.52 L 790.83 238.29 L 808.85 241.80 L 826.88 266.75 L 844.90 347.34 L 862.92 372.60 L 880.94 322.71 L 898.96 344.78 L 916.98 292.49 L 935.00 307.68" fill="none" stroke="#69a7ff" stroke-width="4" stroke-linecap="round" stroke-linejoin="round"/>
<circle cx="935.00" cy="307.68" r="6" fill="#69a7ff"/>
</svg>