<svg xmlns="http://www.w3.org/2000/svg" width="960" height="430" viewBox="0 0 960 430" role="img" aria-label="Composite score history">
<rect width="100%" height="100%" fill="#0b1020" rx="20"/>
<text x="70" y="32" fill="#f5f7fb" font-family="Inter, Arial, sans-serif" font-size="24" font-weight="700">Composite score history</text>
<text x="70" y="52" fill="#93a4c3" font-family="Inter, Arial, sans-serif" font-size="13">Trailing 80 sessions through 2026-02-23</text>
<line x1="70" x2="935" y1="375.00" y2="375.00" stroke="#27314e" stroke-width="1"/>
<text x="58" y="379.00" text-anchor="end" fill="#93a4c3" font-family="Inter, Arial, sans-serif" font-size="12">0</text>
<line x1="70" x2="935" y1="312.00" y2="312.00" stroke="#27314e" stroke-width="1"/>
<text x="58" y="316.00" text-anchor="end" fill="#93a4c3" font-family="Inter, Arial, sans-serif" font-size="12">8</text>
<line x1="70" x2="935" y1="249.00" y2="249.00" stroke="#27314e" stroke-width="1"/>
<text x="58" y="253.00" text-anchor="end" fill="#93a4c3" font-family="Inter, Arial, sans-serif" font-size="12">17</text>
<line x1="70" x2="935" y1="186.00" y2="186.00" stroke="#27314e" stroke-width="1"/>
<text x="58" y="190.00" text-anchor="end" fill="#93a4c3" font-family="Inter, Arial, sans-serif" font-size="12">25</text>
<line x1="70" x2="935" y1="123.00" y2="123.00" stroke="#27314e" stroke-width="1"/>
<text x="58" y="127.00" text-anchor="end" fill="#93a4c3" font-family="Inter, Arial, sans-serif" font-size="12">33</text>
<line x1="70" x2="935" y1="60.00" y2="60.00" stroke="#27314e" stroke-width="1"/>
<text x="58" y="64.00" text-anchor="end" fill="#93a4c3" font-family="Inter, Arial, sans-serif" font-size="12">41</text>
<text x="70.00" y="412" text-anchor="middle" fill="#93a4c3" font-family="Inter, Arial, sans-serif" font-size="12">2025-10-27</text>
<text x="507.97" y="412" text-anchor="middle" fill="#93a4c3" font-family="Inter, Arial, sans-serif" font-size="12">2025-12-24</text>
<text x="935.00" y="412" text-anchor="middle" fill="#93a4c3" font-family="Inter, Arial, sans-serif" font-size="12">2026-02-23</text>
<path d="M 70.00 286.32 L 80.95 284.18 L 91.90 236.83 L 102.85 191.31 L 113.80 187.95 L 124.75 192.98 L 135.70 135.80 L 146.65 183.68 L 157.59 184.67 L 168.54 190.93 L 179.49 255.59 L 190.44 294.63 L 201.39 209.53 L 212.34 237.06 L 223.29 167.36 L 234.24 60.00 L 245.19 70.45 L 256.14 66.18 L 267.09 146.17 L 278.04 277.24 L 288.99 326.96 L 299.94 337.79 L 310.89 375.00 L 321.84 333.06 L 332.78 308.20 L 343.73 290.89 L 354.68 264.74 L 365.63 247.28 L 376.58 278.92 L 387.53 241.33 L 398.48 272.67 L 409.43 307.67 L 420.38 264.05 L 431.33 273.13 L 442.28 273.58 L 453.23 183.07 L 464.18 209.46 L 475.13 304.77 L 486.08 329.32 L 497.03 342.21 L 507.97 374.85 L 518.92 360.82 L 529.87 332.91 L 540.82 310.11 L 551.77 254.37 L 562.72 241.41 L 573.67 250.25 L 584.62 274.96 L 595.57 271.37 L 606.52 287.00 L 617.47 289.90 L 628.42 256.43 L 639.37 234.08 L 650.32 237.06 L 661.27 246.21 L 672.22 211.90 L 683.16 84.17 L 694.11 172.78 L 705.06 214.11 L 716.01 200.15 L 726.96 248.88 L 737.91 293.33 L 748.86 261.99 L 759.81 228.59 L 770.76 226.46 L 781.71 237.44 L 792.66 170.49 L 803.61 173.85 L 814.56 111.24 L 825.51 253.00 L 836.46 248.65 L 847.41 271.37 L 858.35 276.02 L 869.30 258.10 L 880.25 183.61 L 891.20 172.93 L 902.15 205.34 L 913.10 191.99 L 924.05 278.62 L 935.00 243.46" fill="none" stroke="#69a7ff" stroke-width="4" stroke-linecap="round" stroke-linejoin="round"/>
<circle cx="935.00" cy="243.46" r="6" fill="#69a7ff"/>
</svg>