<svg xmlns="http://www.w3.org/2000/svg" width="960" height="430" viewBox="0 0 960 430" role="img" aria-label="Composite score history">
<rect width="100%" height="100%" fill="#0b1020" rx="20"/>
<text x="70" y="32" fill="#f5f7fb" font-family="Inter, Arial, sans-serif" font-size="24" font-weight="700">Composite score history</text>
<text x="70" y="52" fill="#93a4c3" font-family="Inter, Arial, sans-serif" font-size="13">Trailing 77 sessions through 2026-02-23</text>
<line x1="70" x2="935" y1="375.00" y2="375.00" stroke="#27314e" stroke-width="1"/>
<text x="58" y="379.00" text-anchor="end" fill="#93a4c3" font-family="Inter, Arial, sans-serif" font-size="12">0</text>
<line x1="70" x2="935" y1="312.00" y2="312.00" stroke="#27314e" stroke-width="1"/>
<text x="58" y="316.00" text-anchor="end" fill="#93a4c3" font-family="Inter, Arial, sans-serif" font-size="12">8</text>
<line x1="70" x2="935" y1="249.00" y2="249.00" stroke="#27314e" stroke-width="1"/>
<text x="58" y="253.00" text-anchor="end" fill="#93a4c3" font-family="Inter, Arial, sans-serif" font-size="12">17</text>
<line x1="70" x2="935" y1="186.00" y2="186.00" stroke="#27314e" stroke-width="1"/>
<text x="58" y="190.00" text-anchor="end" fill="#93a4c3" font-family="Inter, Arial, sans-serif" font-size="12">25</text>
<line x1="70" x2="935" y1="123.00" y2="123.00" stroke="#27314e" stroke-width="1"/>
<text x="58" y="127.00" text-anchor="end" fill="#93a4c3" font-family="Inter, Arial, sans-serif" font-size="12">33</text>
<line x1="70" x2="935" y1="60.00" y2="60.00" stroke="#27314e" stroke-width="1"/>
<text x="58" y="64.00" text-anchor="end" fill="#93a4c3" font-family="Inter, Arial, sans-serif" font-size="12">41</text>
<text x="70.00" y="412" text-anchor="middle" fill="#93a4c3" font-family="Inter, Arial, sans-serif" font-size="12">2025-10-30</text>
<text x="502.50" y="412" text-anchor="middle" fill="#93a4c3" font-family="Inter, Arial, sans-serif" font-size="12">2025-12-26</text>
<text x="935.00" y="412" text-anchor="middle" fill="#93a4c3" font-family="Inter, Arial, sans-serif" font-size="12">2026-02-23</text>
<path d="M 70.00 272.06 L 81.38 260.77 L 92.76 262.60 L 104.14 218.15 L 115.53 231.11 L 126.91 184.67 L 138.29 190.93 L 149.67 255.59 L 161.05 294.63 L 172.43 209.53 L 183.82 237.06 L 195.20 167.36 L 206.58 60.00 L 217.96 70.45 L 229.34 66.18 L 240.72 146.17 L 252.11 277.24 L 263.49 326.96 L 274.87 337.79 L 286.25 375.00 L 297.63 333.06 L 309.01 308.20 L 320.39 290.89 L 331.78 264.74 L 343.16 247.28 L 354.54 278.92 L 365.92 241.33 L 377.30 272.67 L 388.68 307.67 L 400.07 264.05 L 411.45 273.13 L 422.83 273.58 L 434.21 183.07 L 445.59 209.46 L 456.97 304.77 L 468.36 329.32 L 479.74 342.21 L 491.12 374.85 L 502.50 360.82 L 513.88 332.91 L 525.26 310.11 L 536.64 254.37 L 548.03 241.41 L 559.41 250.25 L 570.79 274.96 L 582.17 271.37 L 593.55 287.00 L 604.93 289.90 L 616.32 256.43 L 627.70 234.08 L 639.08 237.06 L 650.46 246.21 L 661.84 211.90 L 673.22 84.17 L 684.61 172.78 L 695.99 214.11 L 707.37 200.15 L 718.75 248.88 L 730.13 293.33 L 741.51 261.99 L 752.89 228.59 L 764.28 226.46 L 775.66 237.44 L 787.04 170.49 L 798.42 173.85 L 809.80 111.24 L 821.18 253.00 L 832.57 248.65 L 843.95 271.37 L 855.33 276.02 L 866.71 258.10 L 878.09 183.61 L 889.47 172.93 L 900.86 205.34 L 912.24 191.99 L 923.62 278.62 L 935.00 243.46" fill="none" stroke="#69a7ff" stroke-width="4" stroke-linecap="round" stroke-linejoin="round"/>
<circle cx="935.00" cy="243.46" r="6" fill="#69a7ff"/>
</svg>