<svg xmlns="http://www.w3.org/2000/svg" width="960" height="430" viewBox="0 0 960 430" role="img" aria-label="Composite score history">
<rect width="100%" height="100%" fill="#0b1020" rx="20"/>
<text x="70" y="32" fill="#f5f7fb" font-family="Inter, Arial, sans-serif" font-size="24" font-weight="700">Composite score history</text>
<text x="70" y="52" fill="#93a4c3" font-family="Inter, Arial, sans-serif" font-size="13">Trailing 85 sessions through 2026-02-23</text>
<line x1="70" x2="935" y1="375.00" y2="375.00" stroke="#27314e" stroke-width="1"/>
<text x="58" y="379.00" text-anchor="end" fill="#93a4c3" font-family="Inter, Arial, sans-serif" font-size="12">0</text>
<line x1="70" x2="935" y1="312.00" y2="312.00" stroke="#27314e" stroke-width="1"/>
<text x="58" y="316.00" text-anchor="end" fill="#93a4c3" font-family="Inter, Arial, sans-serif" font-size="12">8</text>
<line x1="70" x2="935" y1="249.00" y2="249.00" stroke="#27314e" stroke-width="1"/>
<text x="58" y="253.00" text-anchor="end" fill="#93a4c3" font-family="Inter, Arial, sans-serif" font-size="12">17</text>
<line x1="70" x2="935" y1="186.00" y2="186.00" stroke="#27314e" stroke-width="1"/>
<text x="58" y="190.00" text-anchor="end" fill="#93a4c3" font-family="Inter, Arial, sans-serif" font-size="12">25</text>
<line x1="70" x2="935" y1="123.00" y2="123.00" stroke="#27314e" stroke-width="1"/>
<text x="58" y="127.00" text-anchor="end" fill="#93a4c3" font-family="Inter, Arial, sans-serif" font-size="12">33</text>
<line x1="70" x2="935" y1="60.00" y2="60.00" stroke="#27314e" stroke-width="1"/>
<text x="58" y="64.00" text-anchor="end" fill="#93a4c3" font-family="Inter, Arial, sans-serif" font-size="12">41</text>
<text x="70.00" y="412" text-anchor="middle" fill="#93a4c3" font-family="Inter, Arial, sans-serif" font-size="12">2025-10-20</text>
<text x="502.50" y="412" text-anchor="middle" fill="#93a4c3" font-family="Inter, Arial, sans-serif" font-size="12">2025-12-19</text>
<text x="935.00" y="412" text-anchor="middle" fill="#93a4c3" font-family="Inter, Arial, sans-serif" font-size="12">2026-02-23</text>
<path d="M 70.00 283.42 L 80.30 276.18 L 90.60 239.12 L 100.89 213.27 L 111.19 243.62 L 121.49 285.48 L 131.79 299.36 L 142.08 266.80 L 152.38 256.12 L 162.68 236.53 L 172.98 192.98 L 183.27 135.80 L 193.57 183.68 L 203.87 184.67 L 214.17 190.93 L 224.46 255.59 L 234.76 294.63 L 245.06 209.53 L 255.36 237.06 L 265.65 167.36 L 275.95 60.00 L 286.25 70.45 L 296.55 66.18 L 306.85 146.17 L 317.14 277.24 L 327.44 326.96 L 337.74 337.79 L 348.04 375.00 L 358.33 333.06 L 368.63 308.20 L 378.93 290.89 L 389.23 264.74 L 399.52 247.28 L 409.82 278.92 L 420.12 241.33 L 430.42 272.67 L 440.71 307.67 L 451.01 264.05 L 461.31 273.13 L 471.61 273.58 L 481.90 183.07 L 492.20 209.46 L 502.50 304.77 L 512.80 329.32 L 523.10 342.21 L 533.39 374.85 L 543.69 360.82 L 553.99 332.91 L 564.29 310.11 L 574.58 254.37 L 584.88 241.41 L 595.18 250.25 L 605.48 274.96 L 615.77 271.37 L 626.07 287.00 L 636.37 289.90 L 646.67 256.43 L 656.96 234.08 L 667.26 237.06 L 677.56 246.21 L 687.86 211.90 L 698.15 84.17 L 708.45 172.78 L 718.75 214.11 L 729.05 200.15 L 739.35 248.88 L 749.64 293.33 L 759.94 261.99 L 770.24 228.59 L 780.54 226.46 L 790.83 237.44 L 801.13 170.49 L 811.43 173.85 L 821.73 111.24 L 832.02 253.00 L 842.32 248.65 L 852.62 271.37 L 862.92 276.02 L 873.21 258.10 L 883.51 183.61 L 893.81 172.93 L 904.11 205.34 L 914.40 191.99 L 924.70 278.62 L 935.00 243.46" fill="none" stroke="#69a7ff" stroke-width="4" stroke-linecap="round" stroke-linejoin="round"/>
<circle cx="935.00" cy="243.46" r="6" fill="#69a7ff"/>
</svg>