<svg xmlns="http://www.w3.org/2000/svg" width="960" height="430" viewBox="0 0 960 430" role="img" aria-label="Composite score history">
<rect width="100%" height="100%" fill="#0b1020" rx="20"/>
<text x="70" y="32" fill="#f5f7fb" font-family="Inter, Arial, sans-serif" font-size="24" font-weight="700">Composite score history</text>
<text x="70" y="52" fill="#93a4c3" font-family="Inter, Arial, sans-serif" font-size="13">Trailing 79 sessions through 2026-02-23</text>
<line x1="70" x2="935" y1="375.00" y2="375.00" stroke="#27314e" stroke-width="1"/>
<text x="58" y="379.00" text-anchor="end" fill="#93a4c3" font-family="Inter, Arial, sans-serif" font-size="12">0</text>
<line x1="70" x2="935" y1="312.00" y2="312.00" stroke="#27314e" stroke-width="1"/>
<text x="58" y="316.00" text-anchor="end" fill="#93a4c3" font-family="Inter, Arial, sans-serif" font-size="12">8</text>
<line x1="70" x2="935" y1="249.00" y2="249.00" stroke="#27314e" stroke-width="1"/>
<text x="58" y="253.00" text-anchor="end" fill="#93a4c3" font-family="Inter, Arial, sans-serif" font-size="12">17</text>
<line x1="70" x2="935" y1="186.00" y2="186.00" stroke="#27314e" stroke-width="1"/>
<text x="58" y="190.00" text-anchor="end" fill="#93a4c3" font-family="Inter, Arial, sans-serif" font-size="12">25</text>
<line x1="70" x2="935" y1="123.00" y2="123.00" stroke="#27314e" stroke-width="1"/>
<text x="58" y="127.00" text-anchor="end" fill="#93a4c3" font-family="Inter, Arial, sans-serif" font-size="12">33</text>
<line x1="70" x2="935" y1="60.00" y2="60.00" stroke="#27314e" stroke-width="1"/>
<text x="58" y="64.00" text-anchor="end" fill="#93a4c3" font-family="Inter, Arial, sans-serif" font-size="12">41</text>
<text x="70.00" y="412" text-anchor="middle" fill="#93a4c3" font-family="Inter, Arial, sans-serif" font-size="12">2025-10-28</text>
<text x="502.50" y="412" text-anchor="middle" fill="#93a4c3" font-family="Inter, Arial, sans-serif" font-size="12">2025-12-24</text>
<text x="935.00" y="412" text-anchor="middle" fill="#93a4c3" font-family="Inter, Arial, sans-serif" font-size="12">2026-02-23</text>
<path d="M 70.00 284.34 L 81.09 229.97 L 92.18 180.25 L 103.27 176.97 L 114.36 182.00 L 125.45 135.80 L 136.54 183.68 L 147.63 184.67 L 158.72 190.93 L 169.81 255.59 L 180.90 294.63 L 191.99 209.53 L 203.08 237.06 L 214.17 167.36 L 225.26 60.00 L 236.35 70.45 L 247.44 66.18 L 258.53 146.17 L 269.62 277.24 L 280.71 326.96 L 291.79 337.79 L 302.88 375.00 L 313.97 333.06 L 325.06 308.20 L 336.15 290.89 L 347.24 264.74 L 358.33 247.28 L 369.42 278.92 L 380.51 241.33 L 391.60 272.67 L 402.69 307.67 L 413.78 264.05 L 424.87 273.13 L 435.96 273.58 L 447.05 183.07 L 458.14 209.46 L 469.23 304.77 L 480.32 329.32 L 491.41 342.21 L 502.50 374.85 L 513.59 360.82 L 524.68 332.91 L 535.77 310.11 L 546.86 254.37 L 557.95 241.41 L 569.04 250.25 L 580.13 274.96 L 591.22 271.37 L 602.31 287.00 L 613.40 289.90 L 624.49 256.43 L 635.58 234.08 L 646.67 237.06 L 657.76 246.21 L 668.85 211.90 L 679.94 84.17 L 691.03 172.78 L 702.12 214.11 L 713.21 200.15 L 724.29 248.88 L 735.38 293.33 L 746.47 261.99 L 757.56 228.59 L 768.65 226.46 L 779.74 237.44 L 790.83 170.49 L 801.92 173.85 L 813.01 111.24 L 824.10 253.00 L 835.19 248.65 L 846.28 271.37 L 857.37 276.02 L 868.46 258.10 L 879.55 183.61 L 890.64 172.93 L 901.73 205.34 L 912.82 191.99 L 923.91 278.62 L 935.00 243.46" fill="none" stroke="#69a7ff" stroke-width="4" stroke-linecap="round" stroke-linejoin="round"/>
<circle cx="935.00" cy="243.46" r="6" fill="#69a7ff"/>
</svg>