<svg xmlns="http://www.w3.org/2000/svg" width="960" height="430" viewBox="0 0 960 430" role="img" aria-label="Composite score history">
<rect width="100%" height="100%" fill="#0b1020" rx="20"/>
<text x="70" y="32" fill="#f5f7fb" font-family="Inter, Arial, sans-serif" font-size="24" font-weight="700">Composite score history</text>
<text x="70" y="52" fill="#93a4c3" font-family="Inter, Arial, sans-serif" font-size="13">Trailing 72 sessions through 2026-02-23</text>
<line x1="70" x2="935" y1="375.00" y2="375.00" stroke="#27314e" stroke-width="1"/>
<text x="58" y="379.00" text-anchor="end" fill="#93a4c3" font-family="Inter, Arial, sans-serif" font-size="12">0</text>
<line x1="70" x2="935" y1="312.00" y2="312.00" stroke="#27314e" stroke-width="1"/>
<text x="58" y="316.00" text-anchor="end" fill="#93a4c3" font-family="Inter, Arial, sans-serif" font-size="12">8</text>
<line x1="70" x2="935" y1="249.00" y2="249.00" stroke="#27314e" stroke-width="1"/>
<text x="58" y="253.00" text-anchor="end" fill="#93a4c3" font-family="Inter, Arial, sans-serif" font-size="12">17</text>
<line x1="70" x2="935" y1="186.00" y2="186.00" stroke="#27314e" stroke-width="1"/>
<text x="58" y="190.00" text-anchor="end" fill="#93a4c3" font-family="Inter, Arial, sans-serif" font-size="12">25</text>
<line x1="70" x2="935" y1="123.00" y2="123.00" stroke="#27314e" stroke-width="1"/>
<text x="58" y="127.00" text-anchor="end" fill="#93a4c3" font-family="Inter, Arial, sans-serif" font-size="12">33</text>
<line x1="70" x2="935" y1="60.00" y2="60.00" stroke="#27314e" stroke-width="1"/>
<text x="58" y="64.00" text-anchor="end" fill="#93a4c3" font-family="Inter, Arial, sans-serif" font-size="12">41</text>
<text x="70.00" y="412" text-anchor="middle" fill="#93a4c3" font-family="Inter, Arial, sans-serif" font-size="12">2025-11-06</text>
<text x="508.59" y="412" text-anchor="middle" fill="#93a4c3" font-family="Inter, Arial, sans-serif" font-size="12">2025-12-31</text>
<text x="935.00" y="412" text-anchor="middle" fill="#93a4c3" font-family="Inter, Arial, sans-serif" font-size="12">2026-02-23</text>
<path d="M 70.00 260.16 L 82.18 267.18 L 94.37 294.48 L 106.55 309.27 L 118.73 255.05 L 130.92 237.06 L 143.10 167.36 L 155.28 60.00 L 167.46 70.45 L 179.65 66.18 L 191.83 146.17 L 204.01 277.24 L 216.20 326.96 L 228.38 337.79 L 240.56 375.00 L 252.75 333.06 L 264.93 308.20 L 277.11 290.89 L 289.30 264.74 L 301.48 247.28 L 313.66 278.92 L 325.85 241.33 L 338.03 272.67 L 350.21 307.67 L 362.39 264.05 L 374.58 273.13 L 386.76 273.58 L 398.94 183.07 L 411.13 209.46 L 423.31 304.77 L 435.49 329.32 L 447.68 342.21 L 459.86 374.85 L 472.04 360.82 L 484.23 332.91 L 496.41 310.11 L 508.59 254.37 L 520.77 241.41 L 532.96 250.25 L 545.14 274.96 L 557.32 271.37 L 569.51 287.00 L 581.69 289.90 L 593.87 256.43 L 606.06 234.08 L 618.24 237.06 L 630.42 246.21 L 642.61 211.90 L 654.79 84.17 L 666.97 172.78 L 679.15 214.11 L 691.34 200.15 L 703.52 248.88 L 715.70 293.33 L 727.89 261.99 L 740.07 228.59 L 752.25 226.46 L 764.44 237.44 L 776.62 170.49 L 788.80 173.85 L 800.99 111.24 L 813.17 253.00 L 825.35 248.65 L 837.54 271.37 L 849.72 276.02 L 861.90 258.10 L 874.08 183.61 L 886.27 172.93 L 898.45 205.34 L 910.63 191.99 L 922.82 278.62 L 935.00 243.46" fill="none" stroke="#69a7ff" stroke-width="4" stroke-linecap="round" stroke-linejoin="round"/>
<circle cx="935.00" cy="243.46" r="6" fill="#69a7ff"/>
</svg>