<svg xmlns="http://www.w3.org/2000/svg" width="960" height="430" viewBox="0 0 960 430" role="img" aria-label="Composite score history">
<rect width="100%" height="100%" fill="#0b1020" rx="20"/>
<text x="70" y="32" fill="#f5f7fb" font-family="Inter, Arial, sans-serif" font-size="24" font-weight="700">Composite score history</text>
<text x="70" y="52" fill="#93a4c3" font-family="Inter, Arial, sans-serif" font-size="13">Trailing 74 sessions through 2026-01-09</text>
<line x1="70" x2="935" y1="375.00" y2="375.00" stroke="#27314e" stroke-width="1"/>
<text x="58" y="379.00" text-anchor="end" fill="#93a4c3" font-family="Inter, Arial, sans-serif" font-size="12">0</text>
<line x1="70" x2="935" y1="312.00" y2="312.00" stroke="#27314e" stroke-width="1"/>
<text x="58" y="316.00" text-anchor="end" fill="#93a4c3" font-family="Inter, Arial, sans-serif" font-size="12">8</text>
<line x1="70" x2="935" y1="249.00" y2="249.00" stroke="#27314e" stroke-width="1"/>
<text x="58" y="253.00" text-anchor="end" fill="#93a4c3" font-family="Inter, Arial, sans-serif" font-size="12">17</text>
<line x1="70" x2="935" y1="186.00" y2="186.00" stroke="#27314e" stroke-width="1"/>
<text x="58" y="190.00" text-anchor="end" fill="#93a4c3" font-family="Inter, Arial, sans-serif" font-size="12">25</text>
<line x1="70" x2="935" y1="123.00" y2="123.00" stroke="#27314e" stroke-width="1"/>
<text x="58" y="127.00" text-anchor="end" fill="#93a4c3" font-family="Inter, Arial, sans-serif" font-size="12">33</text>
<line x1="70" x2="935" y1="60.00" y2="60.00" stroke="#27314e" stroke-width="1"/>
<text x="58" y="64.00" text-anchor="end" fill="#93a4c3" font-family="Inter, Arial, sans-serif" font-size="12">41</text>
<text x="70.00" y="412" text-anchor="middle" fill="#93a4c3" font-family="Inter, Arial, sans-serif" font-size="12">2025-09-23</text>
<text x="508.42" y="412" text-anchor="middle" fill="#93a4c3" font-family="Inter, Arial, sans-serif" font-size="12">2025-11-17</text>
<text x="935.00" y="412" text-anchor="middle" fill="#93a4c3" font-family="Inter, Arial, sans-serif" font-size="12">2026-01-09</text>
<path d="M 70.00 273.13 L 81.85 250.71 L 93.70 202.75 L 105.55 237.75 L 117.40 242.93 L 129.25 259.32 L 141.10 297.76 L 152.95 309.80 L 164.79 286.01 L 176.64 296.54 L 188.49 271.60 L 200.34 278.85 L 212.19 256.96 L 224.04 123.98 L 235.89 175.75 L 247.74 212.66 L 259.59 109.03 L 271.44 196.19 L 283.29 336.57 L 295.14 309.88 L 306.99 285.33 L 318.84 232.33 L 330.68 267.94 L 342.53 285.48 L 354.38 299.36 L 366.23 266.80 L 378.08 256.12 L 389.93 236.53 L 401.78 192.98 L 413.63 135.80 L 425.48 183.68 L 437.33 184.67 L 449.18 190.93 L 461.03 255.59 L 472.88 294.63 L 484.73 209.53 L 496.58 237.06 L 508.42 167.36 L 520.27 60.00 L 532.12 70.45 L 543.97 66.18 L 555.82 146.17 L 567.67 277.24 L 579.52 326.96 L 591.37 337.79 L 603.22 375.00 L 615.07 333.06 L 626.92 308.20 L 638.77 290.89 L 650.62 264.74 L 662.47 247.28 L 674.32 278.92 L 686.16 241.33 L 698.01 272.67 L 709.86 307.67 L 721.71 264.05 L 733.56 273.13 L 745.41 273.58 L 757.26 183.07 L 769.11 209.46 L 780.96 304.77 L 792.81 329.32 L 804.66 342.21 L 816.51 374.85 L 828.36 360.82 L 840.21 332.91 L 852.05 310.11 L 863.90 254.37 L 875.75 241.41 L 887.60 250.25 L 899.45 274.96 L 911.30 271.37 L 923.15 287.00 L 935.00 289.90" fill="none" stroke="#69a7ff" stroke-width="4" stroke-linecap="round" stroke-linejoin="round"/>
<circle cx="935.00" cy="289.90" r="6" fill="#69a7ff"/>
</svg>