<svg xmlns="http://www.w3.org/2000/svg" width="960" height="430" viewBox="0 0 960 430" role="img" aria-label="Composite score history">
<rect width="100%" height="100%" fill="#0b1020" rx="20"/>
<text x="70" y="32" fill="#f5f7fb" font-family="Inter, Arial, sans-serif" font-size="24" font-weight="700">Composite score history</text>
<text x="70" y="52" fill="#93a4c3" font-family="Inter, Arial, sans-serif" font-size="13">Trailing 86 sessions through 2026-01-09</text>
<line x1="70" x2="935" y1="375.00" y2="375.00" stroke="#27314e" stroke-width="1"/>
<text x="58" y="379.00" text-anchor="end" fill="#93a4c3" font-family="Inter, Arial, sans-serif" font-size="12">0</text>
<line x1="70" x2="935" y1="312.00" y2="312.00" stroke="#27314e" stroke-width="1"/>
<text x="58" y="316.00" text-anchor="end" fill="#93a4c3" font-family="Inter, Arial, sans-serif" font-size="12">8</text>
<line x1="70" x2="935" y1="249.00" y2="249.00" stroke="#27314e" stroke-width="1"/>
<text x="58" y="253.00" text-anchor="end" fill="#93a4c3" font-family="Inter, Arial, sans-serif" font-size="12">17</text>
<line x1="70" x2="935" y1="186.00" y2="186.00" stroke="#27314e" stroke-width="1"/>
<text x="58" y="190.00" text-anchor="end" fill="#93a4c3" font-family="Inter, Arial, sans-serif" font-size="12">25</text>
<line x1="70" x2="935" y1="123.00" y2="123.00" stroke="#27314e" stroke-width="1"/>
<text x="58" y="127.00" text-anchor="end" fill="#93a4c3" font-family="Inter, Arial, sans-serif" font-size="12">33</text>
<line x1="70" x2="935" y1="60.00" y2="60.00" stroke="#27314e" stroke-width="1"/>
<text x="58" y="64.00" text-anchor="end" fill="#93a4c3" font-family="Inter, Arial, sans-serif" font-size="12">41</text>
<text x="70.00" y="412" text-anchor="middle" fill="#93a4c3" font-family="Inter, Arial, sans-serif" font-size="12">2025-09-05</text>
<text x="507.59" y="412" text-anchor="middle" fill="#93a4c3" font-family="Inter, Arial, sans-serif" font-size="12">2025-11-06</text>
<text x="935.00" y="412" text-anchor="middle" fill="#93a4c3" font-family="Inter, Arial, sans-serif" font-size="12">2026-01-09</text>
<path d="M 70.00 282.58 L 80.18 289.14 L 90.35 276.94 L 100.53 285.71 L 110.71 314.07 L 120.88 297.45 L 131.06 295.09 L 141.24 293.87 L 151.41 287.46 L 161.59 253.38 L 171.76 288.22 L 181.94 266.64 L 192.12 279.46 L 202.29 266.03 L 212.47 222.49 L 222.65 245.75 L 232.82 247.43 L 243.00 259.32 L 253.18 297.76 L 263.35 309.80 L 273.53 286.01 L 283.71 296.54 L 293.88 271.60 L 304.06 278.85 L 314.24 256.96 L 324.41 123.98 L 334.59 175.75 L 344.76 212.66 L 354.94 109.03 L 365.12 196.19 L 375.29 336.57 L 385.47 309.88 L 395.65 285.33 L 405.82 232.33 L 416.00 267.94 L 426.18 285.48 L 436.35 299.36 L 446.53 266.80 L 456.71 256.12 L 466.88 236.53 L 477.06 192.98 L 487.24 135.80 L 497.41 183.68 L 507.59 184.67 L 517.76 190.93 L 527.94 255.59 L 538.12 294.63 L 548.29 209.53 L 558.47 237.06 L 568.65 167.36 L 578.82 60.00 L 589.00 70.45 L 599.18 66.18 L 609.35 146.17 L 619.53 277.24 L 629.71 326.96 L 639.88 337.79 L 650.06 375.00 L 660.24 333.06 L 670.41 308.20 L 680.59 290.89 L 690.76 264.74 L 700.94 247.28 L 711.12 278.92 L 721.29 241.33 L 731.47 272.67 L 741.65 307.67 L 751.82 264.05 L 762.00 273.13 L 772.18 273.58 L 782.35 183.07 L 792.53 209.46 L 802.71 304.77 L 812.88 329.32 L 823.06 342.21 L 833.24 374.85 L 843.41 360.82 L 853.59 332.91 L 863.76 310.11 L 873.94 254.37 L 884.12 241.41 L 894.29 250.25 L 904.47 274.96 L 914.65 271.37 L 924.82 287.00 L 935.00 289.90" fill="none" stroke="#69a7ff" stroke-width="4" stroke-linecap="round" stroke-linejoin="round"/>
<circle cx="935.00" cy="289.90" r="6" fill="#69a7ff"/>
</svg>