<svg xmlns="http://www.w3.org/2000/svg" width="960" height="430" viewBox="0 0 960 430" role="img" aria-label="Composite score history">
<rect width="100%" height="100%" fill="#0b1020" rx="20"/>
<text x="70" y="32" fill="#f5f7fb" font-family="Inter, Arial, sans-serif" font-size="24" font-weight="700">Composite score history</text>
<text x="70" y="52" fill="#93a4c3" font-family="Inter, Arial, sans-serif" font-size="13">Trailing 73 sessions through 2026-01-09</text>
<line x1="70" x2="935" y1="375.00" y2="375.00" stroke="#27314e" stroke-width="1"/>
<text x="58" y="379.00" text-anchor="end" fill="#93a4c3" font-family="Inter, Arial, sans-serif" font-size="12">0</text>
<line x1="70" x2="935" y1="312.00" y2="312.00" stroke="#27314e" stroke-width="1"/>
<text x="58" y="316.00" text-anchor="end" fill="#93a4c3" font-family="Inter, Arial, sans-serif" font-size="12">8</text>
<line x1="70" x2="935" y1="249.00" y2="249.00" stroke="#27314e" stroke-width="1"/>
<text x="58" y="253.00" text-anchor="end" fill="#93a4c3" font-family="Inter, Arial, sans-serif" font-size="12">17</text>
<line x1="70" x2="935" y1="186.00" y2="186.00" stroke="#27314e" stroke-width="1"/>
<text x="58" y="190.00" text-anchor="end" fill="#93a4c3" font-family="Inter, Arial, sans-serif" font-size="12">25</text>
<line x1="70" x2="935" y1="123.00" y2="123.00" stroke="#27314e" stroke-width="1"/>
<text x="58" y="127.00" text-anchor="end" fill="#93a4c3" font-family="Inter, Arial, sans-serif" font-size="12">33</text>
<line x1="70" x2="935" y1="60.00" y2="60.00" stroke="#27314e" stroke-width="1"/>
<text x="58" y="64.00" text-anchor="end" fill="#93a4c3" font-family="Inter, Arial, sans-serif" font-size="12">41</text>
<text x="70.00" y="412" text-anchor="middle" fill="#93a4c3" font-family="Inter, Arial, sans-serif" font-size="12">2025-09-24</text>
<text x="502.50" y="412" text-anchor="middle" fill="#93a4c3" font-family="Inter, Arial, sans-serif" font-size="12">2025-11-17</text>
<text x="935.00" y="412" text-anchor="middle" fill="#93a4c3" font-family="Inter, Arial, sans-serif" font-size="12">2026-01-09</text>
<path d="M 70.00 273.74 L 82.01 222.49 L 94.03 259.17 L 106.04 260.54 L 118.06 276.25 L 130.07 297.76 L 142.08 309.80 L 154.10 286.01 L 166.11 296.54 L 178.12 271.60 L 190.14 278.85 L 202.15 256.96 L 214.17 123.98 L 226.18 175.75 L 238.19 212.66 L 250.21 109.03 L 262.22 196.19 L 274.24 336.57 L 286.25 309.88 L 298.26 285.33 L 310.28 232.33 L 322.29 267.94 L 334.31 285.48 L 346.32 299.36 L 358.33 266.80 L 370.35 256.12 L 382.36 236.53 L 394.38 192.98 L 406.39 135.80 L 418.40 183.68 L 430.42 184.67 L 442.43 190.93 L 454.44 255.59 L 466.46 294.63 L 478.47 209.53 L 490.49 237.06 L 502.50 167.36 L 514.51 60.00 L 526.53 70.45 L 538.54 66.18 L 550.56 146.17 L 562.57 277.24 L 574.58 326.96 L 586.60 337.79 L 598.61 375.00 L 610.62 333.06 L 622.64 308.20 L 634.65 290.89 L 646.67 264.74 L 658.68 247.28 L 670.69 278.92 L 682.71 241.33 L 694.72 272.67 L 706.74 307.67 L 718.75 264.05 L 730.76 273.13 L 742.78 273.58 L 754.79 183.07 L 766.81 209.46 L 778.82 304.77 L 790.83 329.32 L 802.85 342.21 L 814.86 374.85 L 826.88 360.82 L 838.89 332.91 L 850.90 310.11 L 862.92 254.37 L 874.93 241.41 L 886.94 250.25 L 898.96 274.96 L 910.97 271.37 L 922.99 287.00 L 935.00 289.90" fill="none" stroke="#69a7ff" stroke-width="4" stroke-linecap="round" stroke-linejoin="round"/>
<circle cx="935.00" cy="289.90" r="6" fill="#69a7ff"/>
</svg>