<svg xmlns="http://www.w3.org/2000/svg" width="960" height="430" viewBox="0 0 960 430" role="img" aria-label="Composite score history">
<rect width="100%" height="100%" fill="#0b1020" rx="20"/>
<text x="70" y="32" fill="#f5f7fb" font-family="Inter, Arial, sans-serif" font-size="24" font-weight="700">Composite score history</text>
<text x="70" y="52" fill="#93a4c3" font-family="Inter, Arial, sans-serif" font-size="13">Trailing 90 sessions through 2026-03-23</text>
<line x1="70" x2="935" y1="375.00" y2="375.00" stroke="#27314e" stroke-width="1"/>
<text x="58" y="379.00" text-anchor="end" fill="#93a4c3" font-family="Inter, Arial, sans-serif" font-size="12">8</text>
<line x1="70" x2="935" y1="312.00" y2="312.00" stroke="#27314e" stroke-width="1"/>
<text x="58" y="316.00" text-anchor="end" fill="#93a4c3" font-family="Inter, Arial, sans-serif" font-size="12">18</text>
<line x1="70" x2="935" y1="249.00" y2="249.00" stroke="#27314e" stroke-width="1"/>
<text x="58" y="253.00" text-anchor="end" fill="#93a4c3" font-family="Inter, Arial, sans-serif" font-size="12">28</text>
<line x1="70" x2="935" y1="186.00" y2="186.00" stroke="#27314e" stroke-width="1"/>
<text x="58" y="190.00" text-anchor="end" fill="#93a4c3" font-family="Inter, Arial, sans-serif" font-size="12">39</text>
<line x1="70" x2="935" y1="123.00" y2="123.00" stroke="#27314e" stroke-width="1"/>
<text x="58" y="127.00" text-anchor="end" fill="#93a4c3" font-family="Inter, Arial, sans-serif" font-size="12">49</text>
<line x1="70" x2="935" y1="60.00" y2="60.00" stroke="#27314e" stroke-width="1"/>
<text x="58" y="64.00" text-anchor="end" fill="#93a4c3" font-family="Inter, Arial, sans-serif" font-size="12">60</text>
<text x="70.00" y="412" text-anchor="middle" fill="#93a4c3" font-family="Inter, Arial, sans-serif" font-size="12">2025-11-10</text>
<text x="507.36" y="412" text-anchor="middle" fill="#93a4c3" font-family="Inter, Arial, sans-serif" font-size="12">2026-01-16</text>
<text x="935.00" y="412" text-anchor="middle" fill="#93a4c3" font-family="Inter, Arial, sans-serif" font-size="12">2026-03-23</text>
<path d="M 70.00 326.22 L 79.72 339.44 L 89.44 289.76 L 99.16 308.47 L 108.88 256.38 L 118.60 171.38 L 128.31 179.65 L 138.03 176.27 L 147.75 239.59 L 157.47 335.94 L 167.19 348.86 L 176.91 352.54 L 186.63 355.62 L 196.35 339.62 L 206.07 339.93 L 215.79 335.52 L 225.51 323.63 L 235.22 314.93 L 244.94 337.21 L 254.66 312.46 L 264.38 331.60 L 274.10 357.80 L 283.82 332.92 L 293.54 340.11 L 303.26 340.47 L 312.98 268.75 L 322.70 289.70 L 332.42 363.65 L 342.13 370.83 L 351.85 370.53 L 361.57 373.37 L 371.29 375.00 L 381.01 371.74 L 390.73 365.46 L 400.45 325.26 L 410.17 314.99 L 419.89 322.00 L 429.61 332.98 L 439.33 333.29 L 449.04 334.37 L 458.76 329.60 L 468.48 310.41 L 478.20 305.09 L 487.92 310.29 L 497.64 313.79 L 507.36 291.63 L 517.08 190.52 L 526.80 260.66 L 536.52 293.38 L 546.24 282.34 L 555.96 318.68 L 565.67 315.78 L 575.39 308.84 L 585.11 292.72 L 594.83 298.09 L 604.55 306.18 L 614.27 258.85 L 623.99 261.51 L 633.71 211.95 L 643.43 324.17 L 653.15 320.73 L 662.87 333.47 L 672.58 329.48 L 682.30 320.61 L 692.02 269.17 L 701.74 260.78 L 711.46 286.44 L 721.18 275.88 L 730.90 327.49 L 740.62 316.26 L 750.34 329.54 L 760.06 337.39 L 769.78 334.49 L 779.49 315.42 L 789.21 286.62 L 798.93 213.09 L 808.65 230.06 L 818.37 174.22 L 828.09 60.00 L 837.81 173.07 L 847.53 231.57 L 857.25 167.33 L 866.97 90.91 L 876.69 161.90 L 886.40 210.07 L 896.12 206.81 L 905.84 145.00 L 915.56 241.16 L 925.28 160.94 L 935.00 169.87" fill="none" stroke="#69a7ff" stroke-width="4" stroke-linecap="round" stroke-linejoin="round"/>
<circle cx="935.00" cy="169.87" r="6" fill="#69a7ff"/>
<text x="927.00" y="157.87" text-anchor="end" fill="#f5f7fb" font-family="Inter, Arial, sans-serif" font-size="12" font-weight="600">41.56</text>
</svg>