<svg xmlns="http://www.w3.org/2000/svg" width="960" height="430" viewBox="0 0 960 430" role="img" aria-label="Composite score history">
<rect width="100%" height="100%" fill="#0b1020" rx="20"/>
<text x="70" y="32" fill="#f5f7fb" font-family="Inter, Arial, sans-serif" font-size="24" font-weight="700">Composite score history</text>
<text x="70" y="52" fill="#93a4c3" font-family="Inter, Arial, sans-serif" font-size="13">Trailing 90 sessions through 2026-04-16</text>
<line x1="70" x2="935" y1="375.00" y2="375.00" stroke="#27314e" stroke-width="1"/>
<text x="58" y="379.00" text-anchor="end" fill="#93a4c3" font-family="Inter, Arial, sans-serif" font-size="12">0</text>
<line x1="70" x2="935" y1="312.00" y2="312.00" stroke="#27314e" stroke-width="1"/>
<text x="58" y="316.00" text-anchor="end" fill="#93a4c3" font-family="Inter, Arial, sans-serif" font-size="12">12</text>
<line x1="70" x2="935" y1="249.00" y2="249.00" stroke="#27314e" stroke-width="1"/>
<text x="58" y="253.00" text-anchor="end" fill="#93a4c3" font-family="Inter, Arial, sans-serif" font-size="12">24</text>
<line x1="70" x2="935" y1="186.00" y2="186.00" stroke="#27314e" stroke-width="1"/>
<text x="58" y="190.00" text-anchor="end" fill="#93a4c3" font-family="Inter, Arial, sans-serif" font-size="12">36</text>
<line x1="70" x2="935" y1="123.00" y2="123.00" stroke="#27314e" stroke-width="1"/>
<text x="58" y="127.00" text-anchor="end" fill="#93a4c3" font-family="Inter, Arial, sans-serif" font-size="12">48</text>
<line x1="70" x2="935" y1="60.00" y2="60.00" stroke="#27314e" stroke-width="1"/>
<text x="58" y="64.00" text-anchor="end" fill="#93a4c3" font-family="Inter, Arial, sans-serif" font-size="12">60</text>
<text x="70.00" y="412" text-anchor="middle" fill="#93a4c3" font-family="Inter, Arial, sans-serif" font-size="12">2025-12-05</text>
<text x="507.36" y="412" text-anchor="middle" fill="#93a4c3" font-family="Inter, Arial, sans-serif" font-size="12">2026-02-11</text>
<text x="935.00" y="412" text-anchor="middle" fill="#93a4c3" font-family="Inter, Arial, sans-serif" font-size="12">2026-04-16</text>
<path d="M 70.00 286.79 L 79.72 308.67 L 89.44 282.67 L 99.16 304.34 L 108.88 328.55 L 118.60 298.39 L 128.31 304.66 L 138.03 304.98 L 147.75 242.39 L 157.47 260.63 L 167.19 326.54 L 176.91 343.52 L 186.63 352.43 L 196.35 375.00 L 206.07 365.30 L 215.79 346.00 L 225.51 330.23 L 235.22 291.69 L 244.94 282.73 L 254.66 288.84 L 264.38 305.93 L 274.10 303.45 L 283.82 314.26 L 293.54 316.26 L 303.26 293.11 L 312.98 277.66 L 322.70 279.72 L 332.42 286.05 L 342.13 262.32 L 351.85 174.00 L 361.57 235.27 L 371.29 263.85 L 381.01 254.20 L 390.73 287.89 L 400.45 318.63 L 410.17 296.96 L 419.89 273.87 L 429.61 272.39 L 439.33 279.98 L 449.04 233.69 L 458.76 236.01 L 468.48 192.72 L 478.20 290.74 L 487.92 287.73 L 497.64 303.45 L 507.36 306.66 L 517.08 294.27 L 526.80 242.76 L 536.52 235.37 L 546.24 257.78 L 555.96 248.56 L 565.67 308.46 L 575.39 284.15 L 585.11 304.45 L 594.83 314.68 L 604.55 308.77 L 614.27 283.09 L 623.99 266.43 L 633.71 193.72 L 643.43 208.48 L 653.15 159.71 L 662.87 60.00 L 672.58 158.76 L 682.30 209.85 L 692.02 153.75 L 701.74 87.00 L 711.46 149.01 L 721.18 191.08 L 730.90 188.24 L 740.62 134.24 L 750.34 218.24 L 760.06 148.16 L 769.78 155.97 L 779.49 108.25 L 789.21 220.66 L 798.93 130.97 L 808.65 146.58 L 818.37 98.86 L 828.09 240.28 L 837.81 235.64 L 847.53 273.44 L 857.25 289.05 L 866.97 289.32 L 876.69 312.83 L 886.40 320.69 L 896.12 311.83 L 905.84 322.96 L 915.56 342.10 L 925.28 308.88 L 935.00 307.67" fill="none" stroke="#69a7ff" stroke-width="4" stroke-linecap="round" stroke-linejoin="round"/>
<circle cx="935.00" cy="307.67" r="6" fill="#69a7ff"/>
</svg>