<svg xmlns="http://www.w3.org/2000/svg" width="960" height="430" viewBox="0 0 960 430" role="img" aria-label="Composite score history">
<rect width="100%" height="100%" fill="#0b1020" rx="20"/>
<text x="70" y="32" fill="#f5f7fb" font-family="Inter, Arial, sans-serif" font-size="24" font-weight="700">Composite score history</text>
<text x="70" y="52" fill="#93a4c3" font-family="Inter, Arial, sans-serif" font-size="13">Trailing 90 sessions through 2026-01-29</text>
<line x1="70" x2="935" y1="375.00" y2="375.00" stroke="#27314e" stroke-width="1"/>
<text x="58" y="379.00" text-anchor="end" fill="#93a4c3" font-family="Inter, Arial, sans-serif" font-size="12">0</text>
<line x1="70" x2="935" y1="312.00" y2="312.00" stroke="#27314e" stroke-width="1"/>
<text x="58" y="316.00" text-anchor="end" fill="#93a4c3" font-family="Inter, Arial, sans-serif" font-size="12">8</text>
<line x1="70" x2="935" y1="249.00" y2="249.00" stroke="#27314e" stroke-width="1"/>
<text x="58" y="253.00" text-anchor="end" fill="#93a4c3" font-family="Inter, Arial, sans-serif" font-size="12">17</text>
<line x1="70" x2="935" y1="186.00" y2="186.00" stroke="#27314e" stroke-width="1"/>
<text x="58" y="190.00" text-anchor="end" fill="#93a4c3" font-family="Inter, Arial, sans-serif" font-size="12">25</text>
<line x1="70" x2="935" y1="123.00" y2="123.00" stroke="#27314e" stroke-width="1"/>
<text x="58" y="127.00" text-anchor="end" fill="#93a4c3" font-family="Inter, Arial, sans-serif" font-size="12">33</text>
<line x1="70" x2="935" y1="60.00" y2="60.00" stroke="#27314e" stroke-width="1"/>
<text x="58" y="64.00" text-anchor="end" fill="#93a4c3" font-family="Inter, Arial, sans-serif" font-size="12">41</text>
<text x="70.00" y="412" text-anchor="middle" fill="#93a4c3" font-family="Inter, Arial, sans-serif" font-size="12">2025-09-18</text>
<text x="507.36" y="412" text-anchor="middle" fill="#93a4c3" font-family="Inter, Arial, sans-serif" font-size="12">2025-11-24</text>
<text x="935.00" y="412" text-anchor="middle" fill="#93a4c3" font-family="Inter, Arial, sans-serif" font-size="12">2026-01-29</text>
<path d="M 70.00 258.41 L 79.72 274.19 L 89.44 266.64 L 99.16 279.46 L 108.88 266.03 L 118.60 222.49 L 128.31 245.75 L 138.03 247.43 L 147.75 259.32 L 157.47 297.76 L 167.19 309.80 L 176.91 286.01 L 186.63 296.54 L 196.35 271.60 L 206.07 278.85 L 215.79 256.96 L 225.51 123.98 L 235.22 175.75 L 244.94 212.66 L 254.66 109.03 L 264.38 196.19 L 274.10 336.57 L 283.82 309.88 L 293.54 285.33 L 303.26 232.33 L 312.98 267.94 L 322.70 285.48 L 332.42 299.36 L 342.13 266.80 L 351.85 256.12 L 361.57 236.53 L 371.29 192.98 L 381.01 135.80 L 390.73 183.68 L 400.45 184.67 L 410.17 190.93 L 419.89 255.59 L 429.61 294.63 L 439.33 209.53 L 449.04 237.06 L 458.76 167.36 L 468.48 60.00 L 478.20 70.45 L 487.92 66.18 L 497.64 146.17 L 507.36 277.24 L 517.08 326.96 L 526.80 337.79 L 536.52 375.00 L 546.24 333.06 L 555.96 308.20 L 565.67 290.89 L 575.39 264.74 L 585.11 247.28 L 594.83 278.92 L 604.55 241.33 L 614.27 272.67 L 623.99 307.67 L 633.71 264.05 L 643.43 273.13 L 653.15 273.58 L 662.87 183.07 L 672.58 209.46 L 682.30 304.77 L 692.02 329.32 L 701.74 342.21 L 711.46 374.85 L 721.18 360.82 L 730.90 332.91 L 740.62 310.11 L 750.34 254.37 L 760.06 241.41 L 769.78 250.25 L 779.49 274.96 L 789.21 271.37 L 798.93 287.00 L 808.65 289.90 L 818.37 256.43 L 828.09 234.08 L 837.81 237.06 L 847.53 246.21 L 857.25 211.90 L 866.97 84.17 L 876.69 172.78 L 886.40 214.11 L 896.12 200.15 L 905.84 248.88 L 915.56 293.33 L 925.28 261.99 L 935.00 228.59" fill="none" stroke="#69a7ff" stroke-width="4" stroke-linecap="round" stroke-linejoin="round"/>
<circle cx="935.00" cy="228.59" r="6" fill="#69a7ff"/>
</svg>