<svg xmlns="http://www.w3.org/2000/svg" width="960" height="430" viewBox="0 0 960 430" role="img" aria-label="Composite score history">
<rect width="100%" height="100%" fill="#0b1020" rx="20"/>
<text x="70" y="32" fill="#f5f7fb" font-family="Inter, Arial, sans-serif" font-size="24" font-weight="700">Composite score history</text>
<text x="70" y="52" fill="#93a4c3" font-family="Inter, Arial, sans-serif" font-size="13">Trailing 63 sessions through 2026-01-29</text>
<line x1="70" x2="935" y1="375.00" y2="375.00" stroke="#27314e" stroke-width="1"/>
<text x="58" y="379.00" text-anchor="end" fill="#93a4c3" font-family="Inter, Arial, sans-serif" font-size="12">0</text>
<line x1="70" x2="935" y1="312.00" y2="312.00" stroke="#27314e" stroke-width="1"/>
<text x="58" y="316.00" text-anchor="end" fill="#93a4c3" font-family="Inter, Arial, sans-serif" font-size="12">8</text>
<line x1="70" x2="935" y1="249.00" y2="249.00" stroke="#27314e" stroke-width="1"/>
<text x="58" y="253.00" text-anchor="end" fill="#93a4c3" font-family="Inter, Arial, sans-serif" font-size="12">17</text>
<line x1="70" x2="935" y1="186.00" y2="186.00" stroke="#27314e" stroke-width="1"/>
<text x="58" y="190.00" text-anchor="end" fill="#93a4c3" font-family="Inter, Arial, sans-serif" font-size="12">25</text>
<line x1="70" x2="935" y1="123.00" y2="123.00" stroke="#27314e" stroke-width="1"/>
<text x="58" y="127.00" text-anchor="end" fill="#93a4c3" font-family="Inter, Arial, sans-serif" font-size="12">33</text>
<line x1="70" x2="935" y1="60.00" y2="60.00" stroke="#27314e" stroke-width="1"/>
<text x="58" y="64.00" text-anchor="end" fill="#93a4c3" font-family="Inter, Arial, sans-serif" font-size="12">41</text>
<text x="70.00" y="412" text-anchor="middle" fill="#93a4c3" font-family="Inter, Arial, sans-serif" font-size="12">2025-10-28</text>
<text x="502.50" y="412" text-anchor="middle" fill="#93a4c3" font-family="Inter, Arial, sans-serif" font-size="12">2025-12-12</text>
<text x="935.00" y="412" text-anchor="middle" fill="#93a4c3" font-family="Inter, Arial, sans-serif" font-size="12">2026-01-29</text>
<path d="M 70.00 284.34 L 83.95 229.97 L 97.90 180.25 L 111.85 176.97 L 125.81 182.00 L 139.76 135.80 L 153.71 183.68 L 167.66 184.67 L 181.61 190.93 L 195.56 255.59 L 209.52 294.63 L 223.47 209.53 L 237.42 237.06 L 251.37 167.36 L 265.32 60.00 L 279.27 70.45 L 293.23 66.18 L 307.18 146.17 L 321.13 277.24 L 335.08 326.96 L 349.03 337.79 L 362.98 375.00 L 376.94 333.06 L 390.89 308.20 L 404.84 290.89 L 418.79 264.74 L 432.74 247.28 L 446.69 278.92 L 460.65 241.33 L 474.60 272.67 L 488.55 307.67 L 502.50 264.05 L 516.45 273.13 L 530.40 273.58 L 544.35 183.07 L 558.31 209.46 L 572.26 304.77 L 586.21 329.32 L 600.16 342.21 L 614.11 374.85 L 628.06 360.82 L 642.02 332.91 L 655.97 310.11 L 669.92 254.37 L 683.87 241.41 L 697.82 250.25 L 711.77 274.96 L 725.73 271.37 L 739.68 287.00 L 753.63 289.90 L 767.58 256.43 L 781.53 234.08 L 795.48 237.06 L 809.44 246.21 L 823.39 211.90 L 837.34 84.17 L 851.29 172.78 L 865.24 214.11 L 879.19 200.15 L 893.15 248.88 L 907.10 293.33 L 921.05 261.99 L 935.00 228.59" fill="none" stroke="#69a7ff" stroke-width="4" stroke-linecap="round" stroke-linejoin="round"/>
<circle cx="935.00" cy="228.59" r="6" fill="#69a7ff"/>
</svg>