<svg xmlns="http://www.w3.org/2000/svg" width="960" height="430" viewBox="0 0 960 430" role="img" aria-label="Composite score history">
<rect width="100%" height="100%" fill="#0b1020" rx="20"/>
<text x="70" y="32" fill="#f5f7fb" font-family="Inter, Arial, sans-serif" font-size="24" font-weight="700">Composite score history</text>
<text x="70" y="52" fill="#93a4c3" font-family="Inter, Arial, sans-serif" font-size="13">Trailing 64 sessions through 2026-01-29</text>
<line x1="70" x2="935" y1="375.00" y2="375.00" stroke="#27314e" stroke-width="1"/>
<text x="58" y="379.00" text-anchor="end" fill="#93a4c3" font-family="Inter, Arial, sans-serif" font-size="12">0</text>
<line x1="70" x2="935" y1="312.00" y2="312.00" stroke="#27314e" stroke-width="1"/>
<text x="58" y="316.00" text-anchor="end" fill="#93a4c3" font-family="Inter, Arial, sans-serif" font-size="12">8</text>
<line x1="70" x2="935" y1="249.00" y2="249.00" stroke="#27314e" stroke-width="1"/>
<text x="58" y="253.00" text-anchor="end" fill="#93a4c3" font-family="Inter, Arial, sans-serif" font-size="12">17</text>
<line x1="70" x2="935" y1="186.00" y2="186.00" stroke="#27314e" stroke-width="1"/>
<text x="58" y="190.00" text-anchor="end" fill="#93a4c3" font-family="Inter, Arial, sans-serif" font-size="12">25</text>
<line x1="70" x2="935" y1="123.00" y2="123.00" stroke="#27314e" stroke-width="1"/>
<text x="58" y="127.00" text-anchor="end" fill="#93a4c3" font-family="Inter, Arial, sans-serif" font-size="12">33</text>
<line x1="70" x2="935" y1="60.00" y2="60.00" stroke="#27314e" stroke-width="1"/>
<text x="58" y="64.00" text-anchor="end" fill="#93a4c3" font-family="Inter, Arial, sans-serif" font-size="12">41</text>
<text x="70.00" y="412" text-anchor="middle" fill="#93a4c3" font-family="Inter, Arial, sans-serif" font-size="12">2025-10-27</text>
<text x="509.37" y="412" text-anchor="middle" fill="#93a4c3" font-family="Inter, Arial, sans-serif" font-size="12">2025-12-12</text>
<text x="935.00" y="412" text-anchor="middle" fill="#93a4c3" font-family="Inter, Arial, sans-serif" font-size="12">2026-01-29</text>
<path d="M 70.00 286.32 L 83.73 284.18 L 97.46 236.83 L 111.19 191.31 L 124.92 187.95 L 138.65 192.98 L 152.38 135.80 L 166.11 183.68 L 179.84 184.67 L 193.57 190.93 L 207.30 255.59 L 221.03 294.63 L 234.76 209.53 L 248.49 237.06 L 262.22 167.36 L 275.95 60.00 L 289.68 70.45 L 303.41 66.18 L 317.14 146.17 L 330.87 277.24 L 344.60 326.96 L 358.33 337.79 L 372.06 375.00 L 385.79 333.06 L 399.52 308.20 L 413.25 290.89 L 426.98 264.74 L 440.71 247.28 L 454.44 278.92 L 468.17 241.33 L 481.90 272.67 L 495.63 307.67 L 509.37 264.05 L 523.10 273.13 L 536.83 273.58 L 550.56 183.07 L 564.29 209.46 L 578.02 304.77 L 591.75 329.32 L 605.48 342.21 L 619.21 374.85 L 632.94 360.82 L 646.67 332.91 L 660.40 310.11 L 674.13 254.37 L 687.86 241.41 L 701.59 250.25 L 715.32 274.96 L 729.05 271.37 L 742.78 287.00 L 756.51 289.90 L 770.24 256.43 L 783.97 234.08 L 797.70 237.06 L 811.43 246.21 L 825.16 211.90 L 838.89 84.17 L 852.62 172.78 L 866.35 214.11 L 880.08 200.15 L 893.81 248.88 L 907.54 293.33 L 921.27 261.99 L 935.00 228.59" fill="none" stroke="#69a7ff" stroke-width="4" stroke-linecap="round" stroke-linejoin="round"/>
<circle cx="935.00" cy="228.59" r="6" fill="#69a7ff"/>
</svg>