<svg xmlns="http://www.w3.org/2000/svg" width="960" height="430" viewBox="0 0 960 430" role="img" aria-label="Composite score history">
<rect width="100%" height="100%" fill="#0b1020" rx="20"/>
<text x="70" y="32" fill="#f5f7fb" font-family="Inter, Arial, sans-serif" font-size="24" font-weight="700">Composite score history</text>
<text x="70" y="52" fill="#93a4c3" font-family="Inter, Arial, sans-serif" font-size="13">Trailing 81 sessions through 2026-01-29</text>
<line x1="70" x2="935" y1="375.00" y2="375.00" stroke="#27314e" stroke-width="1"/>
<text x="58" y="379.00" text-anchor="end" fill="#93a4c3" font-family="Inter, Arial, sans-serif" font-size="12">0</text>
<line x1="70" x2="935" y1="312.00" y2="312.00" stroke="#27314e" stroke-width="1"/>
<text x="58" y="316.00" text-anchor="end" fill="#93a4c3" font-family="Inter, Arial, sans-serif" font-size="12">8</text>
<line x1="70" x2="935" y1="249.00" y2="249.00" stroke="#27314e" stroke-width="1"/>
<text x="58" y="253.00" text-anchor="end" fill="#93a4c3" font-family="Inter, Arial, sans-serif" font-size="12">17</text>
<line x1="70" x2="935" y1="186.00" y2="186.00" stroke="#27314e" stroke-width="1"/>
<text x="58" y="190.00" text-anchor="end" fill="#93a4c3" font-family="Inter, Arial, sans-serif" font-size="12">25</text>
<line x1="70" x2="935" y1="123.00" y2="123.00" stroke="#27314e" stroke-width="1"/>
<text x="58" y="127.00" text-anchor="end" fill="#93a4c3" font-family="Inter, Arial, sans-serif" font-size="12">33</text>
<line x1="70" x2="935" y1="60.00" y2="60.00" stroke="#27314e" stroke-width="1"/>
<text x="58" y="64.00" text-anchor="end" fill="#93a4c3" font-family="Inter, Arial, sans-serif" font-size="12">41</text>
<text x="70.00" y="412" text-anchor="middle" fill="#93a4c3" font-family="Inter, Arial, sans-serif" font-size="12">2025-10-01</text>
<text x="502.50" y="412" text-anchor="middle" fill="#93a4c3" font-family="Inter, Arial, sans-serif" font-size="12">2025-12-01</text>
<text x="935.00" y="412" text-anchor="middle" fill="#93a4c3" font-family="Inter, Arial, sans-serif" font-size="12">2026-01-29</text>
<path d="M 70.00 277.55 L 80.81 276.63 L 91.62 264.66 L 102.44 268.09 L 113.25 259.10 L 124.06 278.85 L 134.88 256.96 L 145.69 123.98 L 156.50 175.75 L 167.31 212.66 L 178.12 109.03 L 188.94 196.19 L 199.75 336.57 L 210.56 309.88 L 221.38 285.33 L 232.19 232.33 L 243.00 267.94 L 253.81 285.48 L 264.62 299.36 L 275.44 266.80 L 286.25 256.12 L 297.06 236.53 L 307.88 192.98 L 318.69 135.80 L 329.50 183.68 L 340.31 184.67 L 351.12 190.93 L 361.94 255.59 L 372.75 294.63 L 383.56 209.53 L 394.38 237.06 L 405.19 167.36 L 416.00 60.00 L 426.81 70.45 L 437.62 66.18 L 448.44 146.17 L 459.25 277.24 L 470.06 326.96 L 480.88 337.79 L 491.69 375.00 L 502.50 333.06 L 513.31 308.20 L 524.12 290.89 L 534.94 264.74 L 545.75 247.28 L 556.56 278.92 L 567.38 241.33 L 578.19 272.67 L 589.00 307.67 L 599.81 264.05 L 610.62 273.13 L 621.44 273.58 L 632.25 183.07 L 643.06 209.46 L 653.88 304.77 L 664.69 329.32 L 675.50 342.21 L 686.31 374.85 L 697.12 360.82 L 707.94 332.91 L 718.75 310.11 L 729.56 254.37 L 740.38 241.41 L 751.19 250.25 L 762.00 274.96 L 772.81 271.37 L 783.62 287.00 L 794.44 289.90 L 805.25 256.43 L 816.06 234.08 L 826.88 237.06 L 837.69 246.21 L 848.50 211.90 L 859.31 84.17 L 870.12 172.78 L 880.94 214.11 L 891.75 200.15 L 902.56 248.88 L 913.38 293.33 L 924.19 261.99 L 935.00 228.59" fill="none" stroke="#69a7ff" stroke-width="4" stroke-linecap="round" stroke-linejoin="round"/>
<circle cx="935.00" cy="228.59" r="6" fill="#69a7ff"/>
</svg>