<svg xmlns="http://www.w3.org/2000/svg" width="960" height="430" viewBox="0 0 960 430" role="img" aria-label="Composite score history">
<rect width="100%" height="100%" fill="#0b1020" rx="20"/>
<text x="70" y="32" fill="#f5f7fb" font-family="Inter, Arial, sans-serif" font-size="24" font-weight="700">Composite score history</text>
<text x="70" y="52" fill="#93a4c3" font-family="Inter, Arial, sans-serif" font-size="13">Trailing 89 sessions through 2026-01-29</text>
<line x1="70" x2="935" y1="375.00" y2="375.00" stroke="#27314e" stroke-width="1"/>
<text x="58" y="379.00" text-anchor="end" fill="#93a4c3" font-family="Inter, Arial, sans-serif" font-size="12">0</text>
<line x1="70" x2="935" y1="312.00" y2="312.00" stroke="#27314e" stroke-width="1"/>
<text x="58" y="316.00" text-anchor="end" fill="#93a4c3" font-family="Inter, Arial, sans-serif" font-size="12">8</text>
<line x1="70" x2="935" y1="249.00" y2="249.00" stroke="#27314e" stroke-width="1"/>
<text x="58" y="253.00" text-anchor="end" fill="#93a4c3" font-family="Inter, Arial, sans-serif" font-size="12">17</text>
<line x1="70" x2="935" y1="186.00" y2="186.00" stroke="#27314e" stroke-width="1"/>
<text x="58" y="190.00" text-anchor="end" fill="#93a4c3" font-family="Inter, Arial, sans-serif" font-size="12">25</text>
<line x1="70" x2="935" y1="123.00" y2="123.00" stroke="#27314e" stroke-width="1"/>
<text x="58" y="127.00" text-anchor="end" fill="#93a4c3" font-family="Inter, Arial, sans-serif" font-size="12">33</text>
<line x1="70" x2="935" y1="60.00" y2="60.00" stroke="#27314e" stroke-width="1"/>
<text x="58" y="64.00" text-anchor="end" fill="#93a4c3" font-family="Inter, Arial, sans-serif" font-size="12">41</text>
<text x="70.00" y="412" text-anchor="middle" fill="#93a4c3" font-family="Inter, Arial, sans-serif" font-size="12">2025-09-19</text>
<text x="502.50" y="412" text-anchor="middle" fill="#93a4c3" font-family="Inter, Arial, sans-serif" font-size="12">2025-11-24</text>
<text x="935.00" y="412" text-anchor="middle" fill="#93a4c3" font-family="Inter, Arial, sans-serif" font-size="12">2026-01-29</text>
<path d="M 70.00 276.79 L 79.83 263.67 L 89.66 260.32 L 99.49 253.45 L 109.32 202.21 L 119.15 245.75 L 128.98 247.43 L 138.81 259.32 L 148.64 297.76 L 158.47 309.80 L 168.30 286.01 L 178.12 296.54 L 187.95 271.60 L 197.78 278.85 L 207.61 256.96 L 217.44 123.98 L 227.27 175.75 L 237.10 212.66 L 246.93 109.03 L 256.76 196.19 L 266.59 336.57 L 276.42 309.88 L 286.25 285.33 L 296.08 232.33 L 305.91 267.94 L 315.74 285.48 L 325.57 299.36 L 335.40 266.80 L 345.23 256.12 L 355.06 236.53 L 364.89 192.98 L 374.72 135.80 L 384.55 183.68 L 394.38 184.67 L 404.20 190.93 L 414.03 255.59 L 423.86 294.63 L 433.69 209.53 L 443.52 237.06 L 453.35 167.36 L 463.18 60.00 L 473.01 70.45 L 482.84 66.18 L 492.67 146.17 L 502.50 277.24 L 512.33 326.96 L 522.16 337.79 L 531.99 375.00 L 541.82 333.06 L 551.65 308.20 L 561.48 290.89 L 571.31 264.74 L 581.14 247.28 L 590.97 278.92 L 600.80 241.33 L 610.62 272.67 L 620.45 307.67 L 630.28 264.05 L 640.11 273.13 L 649.94 273.58 L 659.77 183.07 L 669.60 209.46 L 679.43 304.77 L 689.26 329.32 L 699.09 342.21 L 708.92 374.85 L 718.75 360.82 L 728.58 332.91 L 738.41 310.11 L 748.24 254.37 L 758.07 241.41 L 767.90 250.25 L 777.73 274.96 L 787.56 271.37 L 797.39 287.00 L 807.22 289.90 L 817.05 256.43 L 826.88 234.08 L 836.70 237.06 L 846.53 246.21 L 856.36 211.90 L 866.19 84.17 L 876.02 172.78 L 885.85 214.11 L 895.68 200.15 L 905.51 248.88 L 915.34 293.33 L 925.17 261.99 L 935.00 228.59" fill="none" stroke="#69a7ff" stroke-width="4" stroke-linecap="round" stroke-linejoin="round"/>
<circle cx="935.00" cy="228.59" r="6" fill="#69a7ff"/>
</svg>