<svg xmlns="http://www.w3.org/2000/svg" width="960" height="430" viewBox="0 0 960 430" role="img" aria-label="Composite score history">
<rect width="100%" height="100%" fill="#0b1020" rx="20"/>
<text x="70" y="32" fill="#f5f7fb" font-family="Inter, Arial, sans-serif" font-size="24" font-weight="700">Composite score history</text>
<text x="70" y="52" fill="#93a4c3" font-family="Inter, Arial, sans-serif" font-size="13">Trailing 68 sessions through 2026-01-29</text>
<line x1="70" x2="935" y1="375.00" y2="375.00" stroke="#27314e" stroke-width="1"/>
<text x="58" y="379.00" text-anchor="end" fill="#93a4c3" font-family="Inter, Arial, sans-serif" font-size="12">0</text>
<line x1="70" x2="935" y1="312.00" y2="312.00" stroke="#27314e" stroke-width="1"/>
<text x="58" y="316.00" text-anchor="end" fill="#93a4c3" font-family="Inter, Arial, sans-serif" font-size="12">8</text>
<line x1="70" x2="935" y1="249.00" y2="249.00" stroke="#27314e" stroke-width="1"/>
<text x="58" y="253.00" text-anchor="end" fill="#93a4c3" font-family="Inter, Arial, sans-serif" font-size="12">17</text>
<line x1="70" x2="935" y1="186.00" y2="186.00" stroke="#27314e" stroke-width="1"/>
<text x="58" y="190.00" text-anchor="end" fill="#93a4c3" font-family="Inter, Arial, sans-serif" font-size="12">25</text>
<line x1="70" x2="935" y1="123.00" y2="123.00" stroke="#27314e" stroke-width="1"/>
<text x="58" y="127.00" text-anchor="end" fill="#93a4c3" font-family="Inter, Arial, sans-serif" font-size="12">33</text>
<line x1="70" x2="935" y1="60.00" y2="60.00" stroke="#27314e" stroke-width="1"/>
<text x="58" y="64.00" text-anchor="end" fill="#93a4c3" font-family="Inter, Arial, sans-serif" font-size="12">41</text>
<text x="70.00" y="412" text-anchor="middle" fill="#93a4c3" font-family="Inter, Arial, sans-serif" font-size="12">2025-10-21</text>
<text x="508.96" y="412" text-anchor="middle" fill="#93a4c3" font-family="Inter, Arial, sans-serif" font-size="12">2025-12-10</text>
<text x="935.00" y="412" text-anchor="middle" fill="#93a4c3" font-family="Inter, Arial, sans-serif" font-size="12">2026-01-29</text>
<path d="M 70.00 283.73 L 82.91 244.07 L 95.82 217.77 L 108.73 248.19 L 121.64 290.05 L 134.55 299.36 L 147.46 266.80 L 160.37 256.12 L 173.28 236.53 L 186.19 192.98 L 199.10 135.80 L 212.01 183.68 L 224.93 184.67 L 237.84 190.93 L 250.75 255.59 L 263.66 294.63 L 276.57 209.53 L 289.48 237.06 L 302.39 167.36 L 315.30 60.00 L 328.21 70.45 L 341.12 66.18 L 354.03 146.17 L 366.94 277.24 L 379.85 326.96 L 392.76 337.79 L 405.67 375.00 L 418.58 333.06 L 431.49 308.20 L 444.40 290.89 L 457.31 264.74 L 470.22 247.28 L 483.13 278.92 L 496.04 241.33 L 508.96 272.67 L 521.87 307.67 L 534.78 264.05 L 547.69 273.13 L 560.60 273.58 L 573.51 183.07 L 586.42 209.46 L 599.33 304.77 L 612.24 329.32 L 625.15 342.21 L 638.06 374.85 L 650.97 360.82 L 663.88 332.91 L 676.79 310.11 L 689.70 254.37 L 702.61 241.41 L 715.52 250.25 L 728.43 274.96 L 741.34 271.37 L 754.25 287.00 L 767.16 289.90 L 780.07 256.43 L 792.99 234.08 L 805.90 237.06 L 818.81 246.21 L 831.72 211.90 L 844.63 84.17 L 857.54 172.78 L 870.45 214.11 L 883.36 200.15 L 896.27 248.88 L 909.18 293.33 L 922.09 261.99 L 935.00 228.59" fill="none" stroke="#69a7ff" stroke-width="4" stroke-linecap="round" stroke-linejoin="round"/>
<circle cx="935.00" cy="228.59" r="6" fill="#69a7ff"/>
</svg>