<svg xmlns="http://www.w3.org/2000/svg" width="960" height="430" viewBox="0 0 960 430" role="img" aria-label="Composite score history">
<rect width="100%" height="100%" fill="#0b1020" rx="20"/>
<text x="70" y="32" fill="#f5f7fb" font-family="Inter, Arial, sans-serif" font-size="24" font-weight="700">Composite score history</text>
<text x="70" y="52" fill="#93a4c3" font-family="Inter, Arial, sans-serif" font-size="13">Trailing 66 sessions through 2026-01-29</text>
<line x1="70" x2="935" y1="375.00" y2="375.00" stroke="#27314e" stroke-width="1"/>
<text x="58" y="379.00" text-anchor="end" fill="#93a4c3" font-family="Inter, Arial, sans-serif" font-size="12">0</text>
<line x1="70" x2="935" y1="312.00" y2="312.00" stroke="#27314e" stroke-width="1"/>
<text x="58" y="316.00" text-anchor="end" fill="#93a4c3" font-family="Inter, Arial, sans-serif" font-size="12">8</text>
<line x1="70" x2="935" y1="249.00" y2="249.00" stroke="#27314e" stroke-width="1"/>
<text x="58" y="253.00" text-anchor="end" fill="#93a4c3" font-family="Inter, Arial, sans-serif" font-size="12">17</text>
<line x1="70" x2="935" y1="186.00" y2="186.00" stroke="#27314e" stroke-width="1"/>
<text x="58" y="190.00" text-anchor="end" fill="#93a4c3" font-family="Inter, Arial, sans-serif" font-size="12">25</text>
<line x1="70" x2="935" y1="123.00" y2="123.00" stroke="#27314e" stroke-width="1"/>
<text x="58" y="127.00" text-anchor="end" fill="#93a4c3" font-family="Inter, Arial, sans-serif" font-size="12">33</text>
<line x1="70" x2="935" y1="60.00" y2="60.00" stroke="#27314e" stroke-width="1"/>
<text x="58" y="64.00" text-anchor="end" fill="#93a4c3" font-family="Inter, Arial, sans-serif" font-size="12">41</text>
<text x="70.00" y="412" text-anchor="middle" fill="#93a4c3" font-family="Inter, Arial, sans-serif" font-size="12">2025-10-23</text>
<text x="509.15" y="412" text-anchor="middle" fill="#93a4c3" font-family="Inter, Arial, sans-serif" font-size="12">2025-12-11</text>
<text x="935.00" y="412" text-anchor="middle" fill="#93a4c3" font-family="Inter, Arial, sans-serif" font-size="12">2026-01-29</text>
<path d="M 70.00 271.83 L 83.31 294.55 L 96.62 324.98 L 109.92 327.42 L 123.23 283.65 L 136.54 256.12 L 149.85 236.53 L 163.15 192.98 L 176.46 135.80 L 189.77 183.68 L 203.08 184.67 L 216.38 190.93 L 229.69 255.59 L 243.00 294.63 L 256.31 209.53 L 269.62 237.06 L 282.92 167.36 L 296.23 60.00 L 309.54 70.45 L 322.85 66.18 L 336.15 146.17 L 349.46 277.24 L 362.77 326.96 L 376.08 337.79 L 389.38 375.00 L 402.69 333.06 L 416.00 308.20 L 429.31 290.89 L 442.62 264.74 L 455.92 247.28 L 469.23 278.92 L 482.54 241.33 L 495.85 272.67 L 509.15 307.67 L 522.46 264.05 L 535.77 273.13 L 549.08 273.58 L 562.38 183.07 L 575.69 209.46 L 589.00 304.77 L 602.31 329.32 L 615.62 342.21 L 628.92 374.85 L 642.23 360.82 L 655.54 332.91 L 668.85 310.11 L 682.15 254.37 L 695.46 241.41 L 708.77 250.25 L 722.08 274.96 L 735.38 271.37 L 748.69 287.00 L 762.00 289.90 L 775.31 256.43 L 788.62 234.08 L 801.92 237.06 L 815.23 246.21 L 828.54 211.90 L 841.85 84.17 L 855.15 172.78 L 868.46 214.11 L 881.77 200.15 L 895.08 248.88 L 908.38 293.33 L 921.69 261.99 L 935.00 228.59" fill="none" stroke="#69a7ff" stroke-width="4" stroke-linecap="round" stroke-linejoin="round"/>
<circle cx="935.00" cy="228.59" r="6" fill="#69a7ff"/>
</svg>