<svg xmlns="http://www.w3.org/2000/svg" width="960" height="430" viewBox="0 0 960 430" role="img" aria-label="Composite score history">
<rect width="100%" height="100%" fill="#0b1020" rx="20"/>
<text x="70" y="32" fill="#f5f7fb" font-family="Inter, Arial, sans-serif" font-size="24" font-weight="700">Composite score history</text>
<text x="70" y="52" fill="#93a4c3" font-family="Inter, Arial, sans-serif" font-size="13">Trailing 57 sessions through 2026-01-29</text>
<line x1="70" x2="935" y1="375.00" y2="375.00" stroke="#27314e" stroke-width="1"/>
<text x="58" y="379.00" text-anchor="end" fill="#93a4c3" font-family="Inter, Arial, sans-serif" font-size="12">0</text>
<line x1="70" x2="935" y1="312.00" y2="312.00" stroke="#27314e" stroke-width="1"/>
<text x="58" y="316.00" text-anchor="end" fill="#93a4c3" font-family="Inter, Arial, sans-serif" font-size="12">8</text>
<line x1="70" x2="935" y1="249.00" y2="249.00" stroke="#27314e" stroke-width="1"/>
<text x="58" y="253.00" text-anchor="end" fill="#93a4c3" font-family="Inter, Arial, sans-serif" font-size="12">17</text>
<line x1="70" x2="935" y1="186.00" y2="186.00" stroke="#27314e" stroke-width="1"/>
<text x="58" y="190.00" text-anchor="end" fill="#93a4c3" font-family="Inter, Arial, sans-serif" font-size="12">25</text>
<line x1="70" x2="935" y1="123.00" y2="123.00" stroke="#27314e" stroke-width="1"/>
<text x="58" y="127.00" text-anchor="end" fill="#93a4c3" font-family="Inter, Arial, sans-serif" font-size="12">33</text>
<line x1="70" x2="935" y1="60.00" y2="60.00" stroke="#27314e" stroke-width="1"/>
<text x="58" y="64.00" text-anchor="end" fill="#93a4c3" font-family="Inter, Arial, sans-serif" font-size="12">41</text>
<text x="70.00" y="412" text-anchor="middle" fill="#93a4c3" font-family="Inter, Arial, sans-serif" font-size="12">2025-11-05</text>
<text x="502.50" y="412" text-anchor="middle" fill="#93a4c3" font-family="Inter, Arial, sans-serif" font-size="12">2025-12-17</text>
<text x="935.00" y="412" text-anchor="middle" fill="#93a4c3" font-family="Inter, Arial, sans-serif" font-size="12">2026-01-29</text>
<path d="M 70.00 263.52 L 85.45 206.94 L 100.89 219.29 L 116.34 279.68 L 131.79 287.61 L 147.23 209.53 L 162.68 237.06 L 178.12 167.36 L 193.57 60.00 L 209.02 70.45 L 224.46 66.18 L 239.91 146.17 L 255.36 277.24 L 270.80 326.96 L 286.25 337.79 L 301.70 375.00 L 317.14 333.06 L 332.59 308.20 L 348.04 290.89 L 363.48 264.74 L 378.93 247.28 L 394.38 278.92 L 409.82 241.33 L 425.27 272.67 L 440.71 307.67 L 456.16 264.05 L 471.61 273.13 L 487.05 273.58 L 502.50 183.07 L 517.95 209.46 L 533.39 304.77 L 548.84 329.32 L 564.29 342.21 L 579.73 374.85 L 595.18 360.82 L 610.62 332.91 L 626.07 310.11 L 641.52 254.37 L 656.96 241.41 L 672.41 250.25 L 687.86 274.96 L 703.30 271.37 L 718.75 287.00 L 734.20 289.90 L 749.64 256.43 L 765.09 234.08 L 780.54 237.06 L 795.98 246.21 L 811.43 211.90 L 826.88 84.17 L 842.32 172.78 L 857.77 214.11 L 873.21 200.15 L 888.66 248.88 L 904.11 293.33 L 919.55 261.99 L 935.00 228.59" fill="none" stroke="#69a7ff" stroke-width="4" stroke-linecap="round" stroke-linejoin="round"/>
<circle cx="935.00" cy="228.59" r="6" fill="#69a7ff"/>
</svg>