<svg xmlns="http://www.w3.org/2000/svg" width="960" height="430" viewBox="0 0 960 430" role="img" aria-label="Composite score history">
<rect width="100%" height="100%" fill="#0b1020" rx="20"/>
<text x="70" y="32" fill="#f5f7fb" font-family="Inter, Arial, sans-serif" font-size="24" font-weight="700">Composite score history</text>
<text x="70" y="52" fill="#93a4c3" font-family="Inter, Arial, sans-serif" font-size="13">Trailing 83 sessions through 2026-01-29</text>
<line x1="70" x2="935" y1="375.00" y2="375.00" stroke="#27314e" stroke-width="1"/>
<text x="58" y="379.00" text-anchor="end" fill="#93a4c3" font-family="Inter, Arial, sans-serif" font-size="12">0</text>
<line x1="70" x2="935" y1="312.00" y2="312.00" stroke="#27314e" stroke-width="1"/>
<text x="58" y="316.00" text-anchor="end" fill="#93a4c3" font-family="Inter, Arial, sans-serif" font-size="12">8</text>
<line x1="70" x2="935" y1="249.00" y2="249.00" stroke="#27314e" stroke-width="1"/>
<text x="58" y="253.00" text-anchor="end" fill="#93a4c3" font-family="Inter, Arial, sans-serif" font-size="12">17</text>
<line x1="70" x2="935" y1="186.00" y2="186.00" stroke="#27314e" stroke-width="1"/>
<text x="58" y="190.00" text-anchor="end" fill="#93a4c3" font-family="Inter, Arial, sans-serif" font-size="12">25</text>
<line x1="70" x2="935" y1="123.00" y2="123.00" stroke="#27314e" stroke-width="1"/>
<text x="58" y="127.00" text-anchor="end" fill="#93a4c3" font-family="Inter, Arial, sans-serif" font-size="12">33</text>
<line x1="70" x2="935" y1="60.00" y2="60.00" stroke="#27314e" stroke-width="1"/>
<text x="58" y="64.00" text-anchor="end" fill="#93a4c3" font-family="Inter, Arial, sans-serif" font-size="12">41</text>
<text x="70.00" y="412" text-anchor="middle" fill="#93a4c3" font-family="Inter, Arial, sans-serif" font-size="12">2025-09-29</text>
<text x="502.50" y="412" text-anchor="middle" fill="#93a4c3" font-family="Inter, Arial, sans-serif" font-size="12">2025-11-28</text>
<text x="935.00" y="412" text-anchor="middle" fill="#93a4c3" font-family="Inter, Arial, sans-serif" font-size="12">2026-01-29</text>
<path d="M 70.00 272.14 L 80.55 274.42 L 91.10 290.66 L 101.65 289.75 L 112.20 286.93 L 122.74 296.54 L 133.29 271.60 L 143.84 278.85 L 154.39 256.96 L 164.94 123.98 L 175.49 175.75 L 186.04 212.66 L 196.59 109.03 L 207.13 196.19 L 217.68 336.57 L 228.23 309.88 L 238.78 285.33 L 249.33 232.33 L 259.88 267.94 L 270.43 285.48 L 280.98 299.36 L 291.52 266.80 L 302.07 256.12 L 312.62 236.53 L 323.17 192.98 L 333.72 135.80 L 344.27 183.68 L 354.82 184.67 L 365.37 190.93 L 375.91 255.59 L 386.46 294.63 L 397.01 209.53 L 407.56 237.06 L 418.11 167.36 L 428.66 60.00 L 439.21 70.45 L 449.76 66.18 L 460.30 146.17 L 470.85 277.24 L 481.40 326.96 L 491.95 337.79 L 502.50 375.00 L 513.05 333.06 L 523.60 308.20 L 534.15 290.89 L 544.70 264.74 L 555.24 247.28 L 565.79 278.92 L 576.34 241.33 L 586.89 272.67 L 597.44 307.67 L 607.99 264.05 L 618.54 273.13 L 629.09 273.58 L 639.63 183.07 L 650.18 209.46 L 660.73 304.77 L 671.28 329.32 L 681.83 342.21 L 692.38 374.85 L 702.93 360.82 L 713.48 332.91 L 724.02 310.11 L 734.57 254.37 L 745.12 241.41 L 755.67 250.25 L 766.22 274.96 L 776.77 271.37 L 787.32 287.00 L 797.87 289.90 L 808.41 256.43 L 818.96 234.08 L 829.51 237.06 L 840.06 246.21 L 850.61 211.90 L 861.16 84.17 L 871.71 172.78 L 882.26 214.11 L 892.80 200.15 L 903.35 248.88 L 913.90 293.33 L 924.45 261.99 L 935.00 228.59" fill="none" stroke="#69a7ff" stroke-width="4" stroke-linecap="round" stroke-linejoin="round"/>
<circle cx="935.00" cy="228.59" r="6" fill="#69a7ff"/>
</svg>