<svg xmlns="http://www.w3.org/2000/svg" width="960" height="430" viewBox="0 0 960 430" role="img" aria-label="Composite score history">
<rect width="100%" height="100%" fill="#0b1020" rx="20"/>
<text x="70" y="32" fill="#f5f7fb" font-family="Inter, Arial, sans-serif" font-size="24" font-weight="700">Composite score history</text>
<text x="70" y="52" fill="#93a4c3" font-family="Inter, Arial, sans-serif" font-size="13">Trailing 90 sessions through 2026-06-22</text>
<line x1="70" x2="935" y1="375.00" y2="375.00" stroke="#27314e" stroke-width="1"/>
<text x="58" y="379.00" text-anchor="end" fill="#93a4c3" font-family="Inter, Arial, sans-serif" font-size="12">6</text>
<line x1="70" x2="935" y1="312.00" y2="312.00" stroke="#27314e" stroke-width="1"/>
<text x="58" y="316.00" text-anchor="end" fill="#93a4c3" font-family="Inter, Arial, sans-serif" font-size="12">17</text>
<line x1="70" x2="935" y1="249.00" y2="249.00" stroke="#27314e" stroke-width="1"/>
<text x="58" y="253.00" text-anchor="end" fill="#93a4c3" font-family="Inter, Arial, sans-serif" font-size="12">27</text>
<line x1="70" x2="935" y1="186.00" y2="186.00" stroke="#27314e" stroke-width="1"/>
<text x="58" y="190.00" text-anchor="end" fill="#93a4c3" font-family="Inter, Arial, sans-serif" font-size="12">38</text>
<line x1="70" x2="935" y1="123.00" y2="123.00" stroke="#27314e" stroke-width="1"/>
<text x="58" y="127.00" text-anchor="end" fill="#93a4c3" font-family="Inter, Arial, sans-serif" font-size="12">49</text>
<line x1="70" x2="935" y1="60.00" y2="60.00" stroke="#27314e" stroke-width="1"/>
<text x="58" y="64.00" text-anchor="end" fill="#93a4c3" font-family="Inter, Arial, sans-serif" font-size="12">60</text>
<text x="70.00" y="412" text-anchor="middle" fill="#93a4c3" font-family="Inter, Arial, sans-serif" font-size="12">2026-02-11</text>
<text x="507.36" y="412" text-anchor="middle" fill="#93a4c3" font-family="Inter, Arial, sans-serif" font-size="12">2026-04-17</text>
<text x="935.00" y="412" text-anchor="middle" fill="#93a4c3" font-family="Inter, Arial, sans-serif" font-size="12">2026-06-22</text>
<path d="M 70.00 333.90 L 79.72 320.14 L 89.44 262.93 L 99.16 254.74 L 108.88 279.62 L 118.60 269.38 L 128.31 335.89 L 138.03 308.90 L 147.75 331.44 L 157.47 342.80 L 167.19 336.24 L 176.91 307.73 L 186.63 289.22 L 196.35 208.48 L 206.07 224.88 L 215.79 170.72 L 225.51 60.00 L 235.22 169.66 L 244.94 226.40 L 254.66 164.10 L 264.38 89.98 L 274.10 158.83 L 283.82 205.56 L 293.54 202.39 L 303.26 142.44 L 312.98 235.71 L 322.70 157.90 L 332.42 166.56 L 342.13 113.57 L 351.85 238.40 L 361.57 138.81 L 371.29 156.14 L 381.01 103.15 L 390.73 260.18 L 400.45 255.03 L 410.17 297.01 L 419.89 314.34 L 429.61 314.63 L 439.33 340.75 L 449.04 349.47 L 458.76 339.64 L 468.48 351.99 L 478.20 373.24 L 487.92 336.36 L 497.64 335.01 L 507.36 375.00 L 517.08 348.48 L 526.80 299.76 L 536.52 307.49 L 546.24 288.70 L 555.96 266.21 L 565.67 282.84 L 575.39 288.46 L 585.11 236.00 L 594.83 277.57 L 604.55 259.13 L 614.27 216.45 L 623.99 282.67 L 633.71 348.01 L 643.43 313.41 L 653.15 325.58 L 662.87 328.16 L 672.58 286.53 L 682.30 236.24 L 692.02 284.07 L 701.74 204.38 L 711.46 243.79 L 721.18 231.26 L 730.90 274.76 L 740.62 256.08 L 750.34 300.93 L 760.06 324.59 L 769.78 338.41 L 779.49 332.90 L 789.21 337.59 L 798.93 328.22 L 808.65 314.75 L 818.37 290.86 L 828.09 301.58 L 837.81 125.40 L 847.53 178.92 L 857.25 164.98 L 866.97 124.99 L 876.69 205.09 L 886.40 317.27 L 896.12 343.68 L 905.84 342.33 L 915.56 321.60 L 925.28 308.37 L 935.00 286.41" fill="none" stroke="#69a7ff" stroke-width="4" stroke-linecap="round" stroke-linejoin="round"/>
<circle cx="935.00" cy="286.41" r="6" fill="#69a7ff"/>
</svg>