<svg xmlns="http://www.w3.org/2000/svg" width="960" height="430" viewBox="0 0 960 430" role="img" aria-label="Composite score history">
<rect width="100%" height="100%" fill="#0b1020" rx="20"/>
<text x="70" y="32" fill="#f5f7fb" font-family="Inter, Arial, sans-serif" font-size="24" font-weight="700">Composite score history</text>
<text x="70" y="52" fill="#93a4c3" font-family="Inter, Arial, sans-serif" font-size="13">Trailing 43 sessions through 2025-09-12</text>
<line x1="70" x2="935" y1="375.00" y2="375.00" stroke="#27314e" stroke-width="1"/>
<text x="58" y="379.00" text-anchor="end" fill="#93a4c3" font-family="Inter, Arial, sans-serif" font-size="12">2</text>
<line x1="70" x2="935" y1="312.00" y2="312.00" stroke="#27314e" stroke-width="1"/>
<text x="58" y="316.00" text-anchor="end" fill="#93a4c3" font-family="Inter, Arial, sans-serif" font-size="12">6</text>
<line x1="70" x2="935" y1="249.00" y2="249.00" stroke="#27314e" stroke-width="1"/>
<text x="58" y="253.00" text-anchor="end" fill="#93a4c3" font-family="Inter, Arial, sans-serif" font-size="12">11</text>
<line x1="70" x2="935" y1="186.00" y2="186.00" stroke="#27314e" stroke-width="1"/>
<text x="58" y="190.00" text-anchor="end" fill="#93a4c3" font-family="Inter, Arial, sans-serif" font-size="12">15</text>
<line x1="70" x2="935" y1="123.00" y2="123.00" stroke="#27314e" stroke-width="1"/>
<text x="58" y="127.00" text-anchor="end" fill="#93a4c3" font-family="Inter, Arial, sans-serif" font-size="12">19</text>
<line x1="70" x2="935" y1="60.00" y2="60.00" stroke="#27314e" stroke-width="1"/>
<text x="58" y="64.00" text-anchor="end" fill="#93a4c3" font-family="Inter, Arial, sans-serif" font-size="12">23</text>
<text x="70.00" y="412" text-anchor="middle" fill="#93a4c3" font-family="Inter, Arial, sans-serif" font-size="12">2025-07-15</text>
<text x="502.50" y="412" text-anchor="middle" fill="#93a4c3" font-family="Inter, Arial, sans-serif" font-size="12">2025-08-13</text>
<text x="935.00" y="412" text-anchor="middle" fill="#93a4c3" font-family="Inter, Arial, sans-serif" font-size="12">2025-09-12</text>
<path d="M 70.00 344.85 L 90.60 328.81 L 111.19 261.68 L 131.79 318.56 L 152.38 334.46 L 172.98 354.80 L 193.57 367.57 L 214.17 367.28 L 234.76 327.92 L 255.36 282.33 L 275.95 297.48 L 296.55 201.39 L 317.14 261.24 L 337.74 60.00 L 358.33 238.96 L 378.93 229.90 L 399.52 312.92 L 420.12 353.91 L 440.71 117.48 L 461.31 160.84 L 481.90 337.57 L 502.50 340.40 L 523.10 306.83 L 543.69 370.69 L 564.29 357.03 L 584.88 269.41 L 605.48 161.88 L 626.07 123.27 L 646.67 269.11 L 667.26 232.87 L 687.86 171.83 L 708.45 187.72 L 729.05 285.30 L 749.64 344.11 L 770.24 286.63 L 790.83 312.03 L 811.43 362.08 L 832.02 335.94 L 852.62 370.40 L 873.21 371.29 L 893.81 367.72 L 914.40 375.00 L 935.00 300.15" fill="none" stroke="#69a7ff" stroke-width="4" stroke-linecap="round" stroke-linejoin="round"/>
<circle cx="935.00" cy="300.15" r="6" fill="#69a7ff"/>
<text x="927.00" y="288.15" text-anchor="end" fill="#f5f7fb" font-family="Inter, Arial, sans-serif" font-size="12" font-weight="600">7.10</text>
</svg>