<svg xmlns="http://www.w3.org/2000/svg" width="960" height="430" viewBox="0 0 960 430" role="img" aria-label="Composite score history">
<rect width="100%" height="100%" fill="#0b1020" rx="20"/>
<text x="70" y="32" fill="#f5f7fb" font-family="Inter, Arial, sans-serif" font-size="24" font-weight="700">Composite score history</text>
<text x="70" y="52" fill="#93a4c3" font-family="Inter, Arial, sans-serif" font-size="13">Trailing 67 sessions through 2025-10-21</text>
<line x1="70" x2="935" y1="375.00" y2="375.00" stroke="#27314e" stroke-width="1"/>
<text x="58" y="379.00" text-anchor="end" fill="#93a4c3" font-family="Inter, Arial, sans-serif" font-size="12">12</text>
<line x1="70" x2="935" y1="312.00" y2="312.00" stroke="#27314e" stroke-width="1"/>
<text x="58" y="316.00" text-anchor="end" fill="#93a4c3" font-family="Inter, Arial, sans-serif" font-size="12">16</text>
<line x1="70" x2="935" y1="249.00" y2="249.00" stroke="#27314e" stroke-width="1"/>
<text x="58" y="253.00" text-anchor="end" fill="#93a4c3" font-family="Inter, Arial, sans-serif" font-size="12">21</text>
<line x1="70" x2="935" y1="186.00" y2="186.00" stroke="#27314e" stroke-width="1"/>
<text x="58" y="190.00" text-anchor="end" fill="#93a4c3" font-family="Inter, Arial, sans-serif" font-size="12">26</text>
<line x1="70" x2="935" y1="123.00" y2="123.00" stroke="#27314e" stroke-width="1"/>
<text x="58" y="127.00" text-anchor="end" fill="#93a4c3" font-family="Inter, Arial, sans-serif" font-size="12">30</text>
<line x1="70" x2="935" y1="60.00" y2="60.00" stroke="#27314e" stroke-width="1"/>
<text x="58" y="64.00" text-anchor="end" fill="#93a4c3" font-family="Inter, Arial, sans-serif" font-size="12">35</text>
<text x="70.00" y="412" text-anchor="middle" fill="#93a4c3" font-family="Inter, Arial, sans-serif" font-size="12">2025-07-17</text>
<text x="502.50" y="412" text-anchor="middle" fill="#93a4c3" font-family="Inter, Arial, sans-serif" font-size="12">2025-09-03</text>
<text x="935.00" y="412" text-anchor="middle" fill="#93a4c3" font-family="Inter, Arial, sans-serif" font-size="12">2025-10-21</text>
<path d="M 70.00 296.52 L 83.11 305.89 L 96.21 307.11 L 109.32 316.21 L 122.42 329.52 L 135.53 314.31 L 148.64 308.88 L 161.74 291.63 L 174.85 293.81 L 187.95 253.62 L 201.06 247.23 L 214.17 77.79 L 227.27 235.29 L 240.38 224.29 L 253.48 304.94 L 266.59 337.66 L 279.70 246.28 L 292.80 255.25 L 305.91 339.02 L 319.02 348.12 L 332.12 325.31 L 345.23 348.25 L 358.33 342.01 L 371.44 286.20 L 384.55 219.40 L 397.65 165.23 L 410.76 310.64 L 423.86 281.04 L 436.97 274.80 L 450.08 281.04 L 463.18 318.65 L 476.29 328.29 L 489.39 267.33 L 502.50 299.10 L 515.61 350.83 L 528.71 338.20 L 541.82 373.51 L 554.92 365.77 L 568.03 366.58 L 581.14 375.00 L 594.24 341.73 L 607.35 328.56 L 620.45 340.11 L 633.56 342.14 L 646.67 294.08 L 659.77 337.80 L 672.88 300.46 L 685.98 337.80 L 699.09 320.28 L 712.20 262.03 L 725.30 303.45 L 738.41 306.43 L 751.52 311.46 L 764.62 358.71 L 777.73 360.61 L 790.83 338.34 L 803.94 353.55 L 817.05 336.17 L 830.15 340.78 L 843.26 313.36 L 856.36 86.61 L 869.47 178.67 L 882.58 244.52 L 895.68 60.00 L 908.79 215.19 L 921.89 370.52 L 935.00 371.06" fill="none" stroke="#69a7ff" stroke-width="4" stroke-linecap="round" stroke-linejoin="round"/>
<circle cx="935.00" cy="371.06" r="6" fill="#69a7ff"/>
<text x="927.00" y="359.06" text-anchor="end" fill="#f5f7fb" font-family="Inter, Arial, sans-serif" font-size="12" font-weight="600">11.97</text>
</svg>