<svg xmlns="http://www.w3.org/2000/svg" width="960" height="430" viewBox="0 0 960 430" role="img" aria-label="Composite score history">
<rect width="100%" height="100%" fill="#0b1020" rx="20"/>
<text x="70" y="32" fill="#f5f7fb" font-family="Inter, Arial, sans-serif" font-size="24" font-weight="700">Composite score history</text>
<text x="70" y="52" fill="#93a4c3" font-family="Inter, Arial, sans-serif" font-size="13">Trailing 52 sessions through 2025-10-09</text>
<line x1="70" x2="935" y1="375.00" y2="375.00" stroke="#27314e" stroke-width="1"/>
<text x="58" y="379.00" text-anchor="end" fill="#93a4c3" font-family="Inter, Arial, sans-serif" font-size="12">8</text>
<line x1="70" x2="935" y1="312.00" y2="312.00" stroke="#27314e" stroke-width="1"/>
<text x="58" y="316.00" text-anchor="end" fill="#93a4c3" font-family="Inter, Arial, sans-serif" font-size="12">13</text>
<line x1="70" x2="935" y1="249.00" y2="249.00" stroke="#27314e" stroke-width="1"/>
<text x="58" y="253.00" text-anchor="end" fill="#93a4c3" font-family="Inter, Arial, sans-serif" font-size="12">18</text>
<line x1="70" x2="935" y1="186.00" y2="186.00" stroke="#27314e" stroke-width="1"/>
<text x="58" y="190.00" text-anchor="end" fill="#93a4c3" font-family="Inter, Arial, sans-serif" font-size="12">22</text>
<line x1="70" x2="935" y1="123.00" y2="123.00" stroke="#27314e" stroke-width="1"/>
<text x="58" y="127.00" text-anchor="end" fill="#93a4c3" font-family="Inter, Arial, sans-serif" font-size="12">27</text>
<line x1="70" x2="935" y1="60.00" y2="60.00" stroke="#27314e" stroke-width="1"/>
<text x="58" y="64.00" text-anchor="end" fill="#93a4c3" font-family="Inter, Arial, sans-serif" font-size="12">31</text>
<text x="70.00" y="412" text-anchor="middle" fill="#93a4c3" font-family="Inter, Arial, sans-serif" font-size="12">2025-07-29</text>
<text x="510.98" y="412" text-anchor="middle" fill="#93a4c3" font-family="Inter, Arial, sans-serif" font-size="12">2025-09-04</text>
<text x="935.00" y="412" text-anchor="middle" fill="#93a4c3" font-family="Inter, Arial, sans-serif" font-size="12">2025-10-09</text>
<path d="M 70.00 270.69 L 86.96 215.78 L 103.92 171.90 L 120.88 60.00 L 137.84 220.33 L 154.80 176.59 L 171.76 258.55 L 188.73 292.21 L 205.69 282.56 L 222.65 231.78 L 239.61 373.48 L 256.57 368.38 L 273.53 349.20 L 290.49 335.12 L 307.45 337.19 L 324.41 239.51 L 341.37 171.62 L 358.33 116.57 L 375.29 273.45 L 392.25 234.26 L 409.22 257.31 L 426.18 280.49 L 443.14 343.82 L 460.10 282.28 L 477.06 220.33 L 494.02 252.61 L 510.98 316.08 L 527.94 292.35 L 544.90 346.85 L 561.86 372.52 L 578.82 366.03 L 595.78 375.00 L 612.75 350.58 L 629.71 346.30 L 646.67 344.09 L 663.63 332.50 L 680.59 270.83 L 697.55 333.88 L 714.51 294.84 L 731.47 318.02 L 748.43 293.73 L 765.39 214.95 L 782.35 257.03 L 799.31 260.07 L 816.27 281.59 L 833.24 351.13 L 850.20 372.93 L 867.16 329.88 L 884.12 348.92 L 901.08 303.80 L 918.04 316.91 L 935.00 277.31" fill="none" stroke="#69a7ff" stroke-width="4" stroke-linecap="round" stroke-linejoin="round"/>
<circle cx="935.00" cy="277.31" r="6" fill="#69a7ff"/>
</svg>