<svg xmlns="http://www.w3.org/2000/svg" width="960" height="430" viewBox="0 0 960 430" role="img" aria-label="Composite score history">
<rect width="100%" height="100%" fill="#0b1020" rx="20"/>
<text x="70" y="32" fill="#f5f7fb" font-family="Inter, Arial, sans-serif" font-size="24" font-weight="700">Composite score history</text>
<text x="70" y="52" fill="#93a4c3" font-family="Inter, Arial, sans-serif" font-size="13">Trailing 60 sessions through 2025-10-09</text>
<line x1="70" x2="935" y1="375.00" y2="375.00" stroke="#27314e" stroke-width="1"/>
<text x="58" y="379.00" text-anchor="end" fill="#93a4c3" font-family="Inter, Arial, sans-serif" font-size="12">12</text>
<line x1="70" x2="935" y1="312.00" y2="312.00" stroke="#27314e" stroke-width="1"/>
<text x="58" y="316.00" text-anchor="end" fill="#93a4c3" font-family="Inter, Arial, sans-serif" font-size="12">16</text>
<line x1="70" x2="935" y1="249.00" y2="249.00" stroke="#27314e" stroke-width="1"/>
<text x="58" y="253.00" text-anchor="end" fill="#93a4c3" font-family="Inter, Arial, sans-serif" font-size="12">20</text>
<line x1="70" x2="935" y1="186.00" y2="186.00" stroke="#27314e" stroke-width="1"/>
<text x="58" y="190.00" text-anchor="end" fill="#93a4c3" font-family="Inter, Arial, sans-serif" font-size="12">25</text>
<line x1="70" x2="935" y1="123.00" y2="123.00" stroke="#27314e" stroke-width="1"/>
<text x="58" y="127.00" text-anchor="end" fill="#93a4c3" font-family="Inter, Arial, sans-serif" font-size="12">29</text>
<line x1="70" x2="935" y1="60.00" y2="60.00" stroke="#27314e" stroke-width="1"/>
<text x="58" y="64.00" text-anchor="end" fill="#93a4c3" font-family="Inter, Arial, sans-serif" font-size="12">34</text>
<text x="70.00" y="412" text-anchor="middle" fill="#93a4c3" font-family="Inter, Arial, sans-serif" font-size="12">2025-07-17</text>
<text x="509.83" y="412" text-anchor="middle" fill="#93a4c3" font-family="Inter, Arial, sans-serif" font-size="12">2025-08-28</text>
<text x="935.00" y="412" text-anchor="middle" fill="#93a4c3" font-family="Inter, Arial, sans-serif" font-size="12">2025-10-09</text>
<path d="M 70.00 291.83 L 84.66 301.75 L 99.32 303.05 L 113.98 312.69 L 128.64 326.79 L 143.31 310.68 L 157.97 304.92 L 172.63 286.64 L 187.29 288.95 L 201.95 246.35 L 216.61 239.59 L 231.27 60.00 L 245.93 226.93 L 260.59 215.27 L 275.25 300.75 L 289.92 335.43 L 304.58 238.58 L 319.24 248.08 L 333.90 336.87 L 348.56 346.51 L 363.22 322.33 L 377.88 346.65 L 392.54 340.03 L 407.20 280.89 L 421.86 210.09 L 436.53 152.67 L 451.19 306.79 L 465.85 275.42 L 480.51 268.80 L 495.17 275.42 L 509.83 315.28 L 524.49 325.50 L 539.15 260.89 L 553.81 294.56 L 568.47 349.39 L 583.14 336.00 L 597.80 373.42 L 612.46 365.21 L 627.12 366.08 L 641.78 375.00 L 656.44 339.74 L 671.10 325.79 L 685.76 338.02 L 700.42 340.18 L 715.08 289.23 L 729.75 335.57 L 744.41 296.00 L 759.07 335.57 L 773.73 317.01 L 788.39 255.27 L 803.05 299.16 L 817.71 302.33 L 832.37 307.65 L 847.03 357.73 L 861.69 359.75 L 876.36 336.15 L 891.02 352.26 L 905.68 333.84 L 920.34 338.74 L 935.00 309.67" fill="none" stroke="#69a7ff" stroke-width="4" stroke-linecap="round" stroke-linejoin="round"/>
<circle cx="935.00" cy="309.67" r="6" fill="#69a7ff"/>
<text x="927.00" y="297.67" text-anchor="end" fill="#f5f7fb" font-family="Inter, Arial, sans-serif" font-size="12" font-weight="600">16.22</text>
</svg>