<svg xmlns="http://www.w3.org/2000/svg" width="960" height="430" viewBox="0 0 960 430" role="img" aria-label="Composite score history">
<rect width="100%" height="100%" fill="#0b1020" rx="20"/>
<text x="70" y="32" fill="#f5f7fb" font-family="Inter, Arial, sans-serif" font-size="24" font-weight="700">Composite score history</text>
<text x="70" y="52" fill="#93a4c3" font-family="Inter, Arial, sans-serif" font-size="13">Trailing 61 sessions through 2025-10-09</text>
<line x1="70" x2="935" y1="375.00" y2="375.00" stroke="#27314e" stroke-width="1"/>
<text x="58" y="379.00" text-anchor="end" fill="#93a4c3" font-family="Inter, Arial, sans-serif" font-size="12">12</text>
<line x1="70" x2="935" y1="312.00" y2="312.00" stroke="#27314e" stroke-width="1"/>
<text x="58" y="316.00" text-anchor="end" fill="#93a4c3" font-family="Inter, Arial, sans-serif" font-size="12">16</text>
<line x1="70" x2="935" y1="249.00" y2="249.00" stroke="#27314e" stroke-width="1"/>
<text x="58" y="253.00" text-anchor="end" fill="#93a4c3" font-family="Inter, Arial, sans-serif" font-size="12">20</text>
<line x1="70" x2="935" y1="186.00" y2="186.00" stroke="#27314e" stroke-width="1"/>
<text x="58" y="190.00" text-anchor="end" fill="#93a4c3" font-family="Inter, Arial, sans-serif" font-size="12">25</text>
<line x1="70" x2="935" y1="123.00" y2="123.00" stroke="#27314e" stroke-width="1"/>
<text x="58" y="127.00" text-anchor="end" fill="#93a4c3" font-family="Inter, Arial, sans-serif" font-size="12">29</text>
<line x1="70" x2="935" y1="60.00" y2="60.00" stroke="#27314e" stroke-width="1"/>
<text x="58" y="64.00" text-anchor="end" fill="#93a4c3" font-family="Inter, Arial, sans-serif" font-size="12">34</text>
<text x="70.00" y="412" text-anchor="middle" fill="#93a4c3" font-family="Inter, Arial, sans-serif" font-size="12">2025-07-16</text>
<text x="502.50" y="412" text-anchor="middle" fill="#93a4c3" font-family="Inter, Arial, sans-serif" font-size="12">2025-08-27</text>
<text x="935.00" y="412" text-anchor="middle" fill="#93a4c3" font-family="Inter, Arial, sans-serif" font-size="12">2025-10-09</text>
<path d="M 70.00 296.43 L 84.42 245.78 L 98.83 295.28 L 113.25 304.92 L 127.67 312.69 L 142.08 326.79 L 156.50 310.68 L 170.92 304.92 L 185.33 286.64 L 199.75 288.95 L 214.17 246.35 L 228.58 239.59 L 243.00 60.00 L 257.42 226.93 L 271.83 215.27 L 286.25 300.75 L 300.67 335.43 L 315.08 238.58 L 329.50 248.08 L 343.92 336.87 L 358.33 346.51 L 372.75 322.33 L 387.17 346.65 L 401.58 340.03 L 416.00 280.89 L 430.42 210.09 L 444.83 152.67 L 459.25 306.79 L 473.67 275.42 L 488.08 268.80 L 502.50 275.42 L 516.92 315.28 L 531.33 325.50 L 545.75 260.89 L 560.17 294.56 L 574.58 349.39 L 589.00 336.00 L 603.42 373.42 L 617.83 365.21 L 632.25 366.08 L 646.67 375.00 L 661.08 339.74 L 675.50 325.79 L 689.92 338.02 L 704.33 340.18 L 718.75 289.23 L 733.17 335.57 L 747.58 296.00 L 762.00 335.57 L 776.42 317.01 L 790.83 255.27 L 805.25 299.16 L 819.67 302.33 L 834.08 307.65 L 848.50 357.73 L 862.92 359.75 L 877.33 336.15 L 891.75 352.26 L 906.17 333.84 L 920.58 338.74 L 935.00 309.67" fill="none" stroke="#69a7ff" stroke-width="4" stroke-linecap="round" stroke-linejoin="round"/>
<circle cx="935.00" cy="309.67" r="6" fill="#69a7ff"/>
<text x="927.00" y="297.67" text-anchor="end" fill="#f5f7fb" font-family="Inter, Arial, sans-serif" font-size="12" font-weight="600">16.22</text>
</svg>