<svg xmlns="http://www.w3.org/2000/svg" width="960" height="430" viewBox="0 0 960 430" role="img" aria-label="Composite score history">
<rect width="100%" height="100%" fill="#0b1020" rx="20"/>
<text x="70" y="32" fill="#f5f7fb" font-family="Inter, Arial, sans-serif" font-size="24" font-weight="700">Composite score history</text>
<text x="70" y="52" fill="#93a4c3" font-family="Inter, Arial, sans-serif" font-size="13">Trailing 54 sessions through 2025-10-09</text>
<line x1="70" x2="935" y1="375.00" y2="375.00" stroke="#27314e" stroke-width="1"/>
<text x="58" y="379.00" text-anchor="end" fill="#93a4c3" font-family="Inter, Arial, sans-serif" font-size="12">8</text>
<line x1="70" x2="935" y1="312.00" y2="312.00" stroke="#27314e" stroke-width="1"/>
<text x="58" y="316.00" text-anchor="end" fill="#93a4c3" font-family="Inter, Arial, sans-serif" font-size="12">13</text>
<line x1="70" x2="935" y1="249.00" y2="249.00" stroke="#27314e" stroke-width="1"/>
<text x="58" y="253.00" text-anchor="end" fill="#93a4c3" font-family="Inter, Arial, sans-serif" font-size="12">18</text>
<line x1="70" x2="935" y1="186.00" y2="186.00" stroke="#27314e" stroke-width="1"/>
<text x="58" y="190.00" text-anchor="end" fill="#93a4c3" font-family="Inter, Arial, sans-serif" font-size="12">24</text>
<line x1="70" x2="935" y1="123.00" y2="123.00" stroke="#27314e" stroke-width="1"/>
<text x="58" y="127.00" text-anchor="end" fill="#93a4c3" font-family="Inter, Arial, sans-serif" font-size="12">29</text>
<line x1="70" x2="935" y1="60.00" y2="60.00" stroke="#27314e" stroke-width="1"/>
<text x="58" y="64.00" text-anchor="end" fill="#93a4c3" font-family="Inter, Arial, sans-serif" font-size="12">34</text>
<text x="70.00" y="412" text-anchor="middle" fill="#93a4c3" font-family="Inter, Arial, sans-serif" font-size="12">2025-07-25</text>
<text x="510.66" y="412" text-anchor="middle" fill="#93a4c3" font-family="Inter, Arial, sans-serif" font-size="12">2025-09-03</text>
<text x="935.00" y="412" text-anchor="middle" fill="#93a4c3" font-family="Inter, Arial, sans-serif" font-size="12">2025-10-09</text>
<path d="M 70.00 288.06 L 86.32 286.55 L 102.64 244.40 L 118.96 225.51 L 135.28 186.23 L 151.60 60.00 L 167.92 205.24 L 184.25 195.11 L 200.57 269.42 L 216.89 299.94 L 233.21 291.18 L 249.53 245.15 L 265.85 373.62 L 282.17 369.00 L 298.49 351.61 L 314.81 338.85 L 331.13 340.72 L 347.45 252.15 L 363.77 190.60 L 380.09 140.69 L 396.42 282.93 L 412.74 247.40 L 429.06 268.29 L 445.38 289.31 L 461.70 346.73 L 478.02 290.93 L 494.34 234.76 L 510.66 264.04 L 526.98 321.58 L 543.30 300.07 L 559.62 349.48 L 575.94 372.75 L 592.26 366.87 L 608.58 375.00 L 624.91 352.86 L 641.23 348.98 L 657.55 346.98 L 673.87 336.47 L 690.19 280.55 L 706.51 337.72 L 722.83 302.32 L 739.15 323.33 L 755.47 301.32 L 771.79 229.88 L 788.11 268.04 L 804.43 270.79 L 820.75 290.31 L 837.08 353.36 L 853.40 373.12 L 869.72 334.09 L 886.04 351.36 L 902.36 310.45 L 918.68 322.33 L 935.00 286.43" fill="none" stroke="#69a7ff" stroke-width="4" stroke-linecap="round" stroke-linejoin="round"/>
<circle cx="935.00" cy="286.43" r="6" fill="#69a7ff"/>
</svg>