<svg xmlns="http://www.w3.org/2000/svg" width="960" height="430" viewBox="0 0 960 430" role="img" aria-label="Composite score history">
<rect width="100%" height="100%" fill="#0b1020" rx="20"/>
<text x="70" y="32" fill="#f5f7fb" font-family="Inter, Arial, sans-serif" font-size="24" font-weight="700">Composite score history</text>
<text x="70" y="52" fill="#93a4c3" font-family="Inter, Arial, sans-serif" font-size="13">Trailing 50 sessions through 2025-10-30</text>
<line x1="70" x2="935" y1="375.00" y2="375.00" stroke="#27314e" stroke-width="1"/>
<text x="58" y="379.00" text-anchor="end" fill="#93a4c3" font-family="Inter, Arial, sans-serif" font-size="12">5</text>
<line x1="70" x2="935" y1="312.00" y2="312.00" stroke="#27314e" stroke-width="1"/>
<text x="58" y="316.00" text-anchor="end" fill="#93a4c3" font-family="Inter, Arial, sans-serif" font-size="12">11</text>
<line x1="70" x2="935" y1="249.00" y2="249.00" stroke="#27314e" stroke-width="1"/>
<text x="58" y="253.00" text-anchor="end" fill="#93a4c3" font-family="Inter, Arial, sans-serif" font-size="12">17</text>
<line x1="70" x2="935" y1="186.00" y2="186.00" stroke="#27314e" stroke-width="1"/>
<text x="58" y="190.00" text-anchor="end" fill="#93a4c3" font-family="Inter, Arial, sans-serif" font-size="12">23</text>
<line x1="70" x2="935" y1="123.00" y2="123.00" stroke="#27314e" stroke-width="1"/>
<text x="58" y="127.00" text-anchor="end" fill="#93a4c3" font-family="Inter, Arial, sans-serif" font-size="12">29</text>
<line x1="70" x2="935" y1="60.00" y2="60.00" stroke="#27314e" stroke-width="1"/>
<text x="58" y="64.00" text-anchor="end" fill="#93a4c3" font-family="Inter, Arial, sans-serif" font-size="12">35</text>
<text x="70.00" y="412" text-anchor="middle" fill="#93a4c3" font-family="Inter, Arial, sans-serif" font-size="12">2025-08-20</text>
<text x="511.33" y="412" text-anchor="middle" fill="#93a4c3" font-family="Inter, Arial, sans-serif" font-size="12">2025-09-25</text>
<text x="935.00" y="412" text-anchor="middle" fill="#93a4c3" font-family="Inter, Arial, sans-serif" font-size="12">2025-10-30</text>
<path d="M 70.00 283.16 L 87.65 193.64 L 105.31 273.66 L 122.96 247.27 L 140.61 261.20 L 158.27 267.22 L 175.92 315.67 L 193.57 268.59 L 211.22 221.19 L 228.88 245.90 L 246.53 294.46 L 264.18 276.30 L 281.84 318.00 L 299.49 337.63 L 317.14 332.67 L 334.80 339.53 L 352.45 320.85 L 370.10 317.57 L 387.76 315.88 L 405.41 307.02 L 423.06 259.83 L 440.71 308.07 L 458.37 278.20 L 476.02 295.93 L 493.67 277.35 L 511.33 217.08 L 528.98 249.27 L 546.63 251.60 L 564.29 268.06 L 581.94 321.27 L 599.59 337.95 L 617.24 305.01 L 634.90 319.58 L 652.55 285.06 L 670.20 295.09 L 687.86 264.79 L 705.51 80.69 L 723.16 152.37 L 740.82 203.46 L 758.47 60.00 L 776.12 180.66 L 793.78 375.00 L 811.43 338.05 L 829.08 304.06 L 846.73 230.70 L 864.39 279.99 L 882.04 304.27 L 899.69 323.49 L 917.35 278.41 L 935.00 263.63" fill="none" stroke="#69a7ff" stroke-width="4" stroke-linecap="round" stroke-linejoin="round"/>
<circle cx="935.00" cy="263.63" r="6" fill="#69a7ff"/>
</svg>