<svg xmlns="http://www.w3.org/2000/svg" width="960" height="430" viewBox="0 0 960 430" role="img" aria-label="Composite score history">
<rect width="100%" height="100%" fill="#0b1020" rx="20"/>
<text x="70" y="32" fill="#f5f7fb" font-family="Inter, Arial, sans-serif" font-size="24" font-weight="700">Composite score history</text>
<text x="70" y="52" fill="#93a4c3" font-family="Inter, Arial, sans-serif" font-size="13">Trailing 70 sessions through 2025-10-30</text>
<line x1="70" x2="935" y1="375.00" y2="375.00" stroke="#27314e" stroke-width="1"/>
<text x="58" y="379.00" text-anchor="end" fill="#93a4c3" font-family="Inter, Arial, sans-serif" font-size="12">5</text>
<line x1="70" x2="935" y1="312.00" y2="312.00" stroke="#27314e" stroke-width="1"/>
<text x="58" y="316.00" text-anchor="end" fill="#93a4c3" font-family="Inter, Arial, sans-serif" font-size="12">11</text>
<line x1="70" x2="935" y1="249.00" y2="249.00" stroke="#27314e" stroke-width="1"/>
<text x="58" y="253.00" text-anchor="end" fill="#93a4c3" font-family="Inter, Arial, sans-serif" font-size="12">17</text>
<line x1="70" x2="935" y1="186.00" y2="186.00" stroke="#27314e" stroke-width="1"/>
<text x="58" y="190.00" text-anchor="end" fill="#93a4c3" font-family="Inter, Arial, sans-serif" font-size="12">23</text>
<line x1="70" x2="935" y1="123.00" y2="123.00" stroke="#27314e" stroke-width="1"/>
<text x="58" y="127.00" text-anchor="end" fill="#93a4c3" font-family="Inter, Arial, sans-serif" font-size="12">29</text>
<line x1="70" x2="935" y1="60.00" y2="60.00" stroke="#27314e" stroke-width="1"/>
<text x="58" y="64.00" text-anchor="end" fill="#93a4c3" font-family="Inter, Arial, sans-serif" font-size="12">35</text>
<text x="70.00" y="412" text-anchor="middle" fill="#93a4c3" font-family="Inter, Arial, sans-serif" font-size="12">2025-07-23</text>
<text x="508.77" y="412" text-anchor="middle" fill="#93a4c3" font-family="Inter, Arial, sans-serif" font-size="12">2025-09-11</text>
<text x="935.00" y="412" text-anchor="middle" fill="#93a4c3" font-family="Inter, Arial, sans-serif" font-size="12">2025-10-30</text>
<path d="M 70.00 269.54 L 82.54 215.07 L 95.07 250.01 L 107.61 249.70 L 120.14 237.56 L 132.68 212.22 L 145.22 205.57 L 157.75 73.72 L 170.29 196.28 L 182.83 187.73 L 195.36 250.44 L 207.90 276.19 L 220.43 268.80 L 232.97 229.96 L 245.51 338.37 L 258.04 334.46 L 270.58 319.79 L 283.12 309.02 L 295.65 310.61 L 308.19 235.87 L 320.72 183.93 L 333.26 141.81 L 345.80 261.84 L 358.33 231.86 L 370.87 249.49 L 383.41 267.22 L 395.94 315.67 L 408.48 268.59 L 421.01 221.19 L 433.55 245.90 L 446.09 294.46 L 458.62 276.30 L 471.16 318.00 L 483.70 337.63 L 496.23 332.67 L 508.77 339.53 L 521.30 320.85 L 533.84 317.57 L 546.38 315.88 L 558.91 307.02 L 571.45 259.83 L 583.99 308.07 L 596.52 278.20 L 609.06 295.93 L 621.59 277.35 L 634.13 217.08 L 646.67 249.27 L 659.20 251.60 L 671.74 268.06 L 684.28 321.27 L 696.81 337.95 L 709.35 305.01 L 721.88 319.58 L 734.42 285.06 L 746.96 295.09 L 759.49 264.79 L 772.03 80.69 L 784.57 152.37 L 797.10 203.46 L 809.64 60.00 L 822.17 180.66 L 834.71 375.00 L 847.25 338.05 L 859.78 304.06 L 872.32 230.70 L 884.86 279.99 L 897.39 304.27 L 909.93 323.49 L 922.46 278.41 L 935.00 263.63" fill="none" stroke="#69a7ff" stroke-width="4" stroke-linecap="round" stroke-linejoin="round"/>
<circle cx="935.00" cy="263.63" r="6" fill="#69a7ff"/>
</svg>