<svg xmlns="http://www.w3.org/2000/svg" width="960" height="430" viewBox="0 0 960 430" role="img" aria-label="Composite score history">
<rect width="100%" height="100%" fill="#0b1020" rx="20"/>
<text x="70" y="32" fill="#f5f7fb" font-family="Inter, Arial, sans-serif" font-size="24" font-weight="700">Composite score history</text>
<text x="70" y="52" fill="#93a4c3" font-family="Inter, Arial, sans-serif" font-size="13">Trailing 72 sessions through 2025-10-30</text>
<line x1="70" x2="935" y1="375.00" y2="375.00" stroke="#27314e" stroke-width="1"/>
<text x="58" y="379.00" text-anchor="end" fill="#93a4c3" font-family="Inter, Arial, sans-serif" font-size="12">5</text>
<line x1="70" x2="935" y1="312.00" y2="312.00" stroke="#27314e" stroke-width="1"/>
<text x="58" y="316.00" text-anchor="end" fill="#93a4c3" font-family="Inter, Arial, sans-serif" font-size="12">11</text>
<line x1="70" x2="935" y1="249.00" y2="249.00" stroke="#27314e" stroke-width="1"/>
<text x="58" y="253.00" text-anchor="end" fill="#93a4c3" font-family="Inter, Arial, sans-serif" font-size="12">17</text>
<line x1="70" x2="935" y1="186.00" y2="186.00" stroke="#27314e" stroke-width="1"/>
<text x="58" y="190.00" text-anchor="end" fill="#93a4c3" font-family="Inter, Arial, sans-serif" font-size="12">23</text>
<line x1="70" x2="935" y1="123.00" y2="123.00" stroke="#27314e" stroke-width="1"/>
<text x="58" y="127.00" text-anchor="end" fill="#93a4c3" font-family="Inter, Arial, sans-serif" font-size="12">29</text>
<line x1="70" x2="935" y1="60.00" y2="60.00" stroke="#27314e" stroke-width="1"/>
<text x="58" y="64.00" text-anchor="end" fill="#93a4c3" font-family="Inter, Arial, sans-serif" font-size="12">35</text>
<text x="70.00" y="412" text-anchor="middle" fill="#93a4c3" font-family="Inter, Arial, sans-serif" font-size="12">2025-07-21</text>
<text x="508.59" y="412" text-anchor="middle" fill="#93a4c3" font-family="Inter, Arial, sans-serif" font-size="12">2025-09-10</text>
<text x="935.00" y="412" text-anchor="middle" fill="#93a4c3" font-family="Inter, Arial, sans-serif" font-size="12">2025-10-30</text>
<path d="M 70.00 253.50 L 82.18 260.89 L 94.37 279.15 L 106.55 251.28 L 118.73 275.67 L 130.92 275.35 L 143.10 267.43 L 155.28 212.22 L 167.46 205.57 L 179.65 73.72 L 191.83 196.28 L 204.01 187.73 L 216.20 250.44 L 228.38 276.19 L 240.56 268.80 L 252.75 229.96 L 264.93 338.37 L 277.11 334.46 L 289.30 319.79 L 301.48 309.02 L 313.66 310.61 L 325.85 235.87 L 338.03 183.93 L 350.21 141.81 L 362.39 261.84 L 374.58 231.86 L 386.76 249.49 L 398.94 267.22 L 411.13 315.67 L 423.31 268.59 L 435.49 221.19 L 447.68 245.90 L 459.86 294.46 L 472.04 276.30 L 484.23 318.00 L 496.41 337.63 L 508.59 332.67 L 520.77 339.53 L 532.96 320.85 L 545.14 317.57 L 557.32 315.88 L 569.51 307.02 L 581.69 259.83 L 593.87 308.07 L 606.06 278.20 L 618.24 295.93 L 630.42 277.35 L 642.61 217.08 L 654.79 249.27 L 666.97 251.60 L 679.15 268.06 L 691.34 321.27 L 703.52 337.95 L 715.70 305.01 L 727.89 319.58 L 740.07 285.06 L 752.25 295.09 L 764.44 264.79 L 776.62 80.69 L 788.80 152.37 L 800.99 203.46 L 813.17 60.00 L 825.35 180.66 L 837.54 375.00 L 849.72 338.05 L 861.90 304.06 L 874.08 230.70 L 886.27 279.99 L 898.45 304.27 L 910.63 323.49 L 922.82 278.41 L 935.00 263.63" fill="none" stroke="#69a7ff" stroke-width="4" stroke-linecap="round" stroke-linejoin="round"/>
<circle cx="935.00" cy="263.63" r="6" fill="#69a7ff"/>
</svg>