<svg xmlns="http://www.w3.org/2000/svg" width="960" height="430" viewBox="0 0 960 430" role="img" aria-label="Composite score history">
<rect width="100%" height="100%" fill="#0b1020" rx="20"/>
<text x="70" y="32" fill="#f5f7fb" font-family="Inter, Arial, sans-serif" font-size="24" font-weight="700">Composite score history</text>
<text x="70" y="52" fill="#93a4c3" font-family="Inter, Arial, sans-serif" font-size="13">Trailing 63 sessions through 2025-10-30</text>
<line x1="70" x2="935" y1="375.00" y2="375.00" stroke="#27314e" stroke-width="1"/>
<text x="58" y="379.00" text-anchor="end" fill="#93a4c3" font-family="Inter, Arial, sans-serif" font-size="12">5</text>
<line x1="70" x2="935" y1="312.00" y2="312.00" stroke="#27314e" stroke-width="1"/>
<text x="58" y="316.00" text-anchor="end" fill="#93a4c3" font-family="Inter, Arial, sans-serif" font-size="12">11</text>
<line x1="70" x2="935" y1="249.00" y2="249.00" stroke="#27314e" stroke-width="1"/>
<text x="58" y="253.00" text-anchor="end" fill="#93a4c3" font-family="Inter, Arial, sans-serif" font-size="12">17</text>
<line x1="70" x2="935" y1="186.00" y2="186.00" stroke="#27314e" stroke-width="1"/>
<text x="58" y="190.00" text-anchor="end" fill="#93a4c3" font-family="Inter, Arial, sans-serif" font-size="12">23</text>
<line x1="70" x2="935" y1="123.00" y2="123.00" stroke="#27314e" stroke-width="1"/>
<text x="58" y="127.00" text-anchor="end" fill="#93a4c3" font-family="Inter, Arial, sans-serif" font-size="12">29</text>
<line x1="70" x2="935" y1="60.00" y2="60.00" stroke="#27314e" stroke-width="1"/>
<text x="58" y="64.00" text-anchor="end" fill="#93a4c3" font-family="Inter, Arial, sans-serif" font-size="12">35</text>
<text x="70.00" y="412" text-anchor="middle" fill="#93a4c3" font-family="Inter, Arial, sans-serif" font-size="12">2025-08-01</text>
<text x="502.50" y="412" text-anchor="middle" fill="#93a4c3" font-family="Inter, Arial, sans-serif" font-size="12">2025-09-16</text>
<text x="935.00" y="412" text-anchor="middle" fill="#93a4c3" font-family="Inter, Arial, sans-serif" font-size="12">2025-10-30</text>
<path d="M 70.00 252.12 L 83.95 293.40 L 97.90 263.00 L 111.85 312.72 L 125.81 290.55 L 139.76 268.80 L 153.71 229.96 L 167.66 338.37 L 181.61 334.46 L 195.56 319.79 L 209.52 309.02 L 223.47 310.61 L 237.42 235.87 L 251.37 183.93 L 265.32 141.81 L 279.27 261.84 L 293.23 231.86 L 307.18 249.49 L 321.13 267.22 L 335.08 315.67 L 349.03 268.59 L 362.98 221.19 L 376.94 245.90 L 390.89 294.46 L 404.84 276.30 L 418.79 318.00 L 432.74 337.63 L 446.69 332.67 L 460.65 339.53 L 474.60 320.85 L 488.55 317.57 L 502.50 315.88 L 516.45 307.02 L 530.40 259.83 L 544.35 308.07 L 558.31 278.20 L 572.26 295.93 L 586.21 277.35 L 600.16 217.08 L 614.11 249.27 L 628.06 251.60 L 642.02 268.06 L 655.97 321.27 L 669.92 337.95 L 683.87 305.01 L 697.82 319.58 L 711.77 285.06 L 725.73 295.09 L 739.68 264.79 L 753.63 80.69 L 767.58 152.37 L 781.53 203.46 L 795.48 60.00 L 809.44 180.66 L 823.39 375.00 L 837.34 338.05 L 851.29 304.06 L 865.24 230.70 L 879.19 279.99 L 893.15 304.27 L 907.10 323.49 L 921.05 278.41 L 935.00 263.63" fill="none" stroke="#69a7ff" stroke-width="4" stroke-linecap="round" stroke-linejoin="round"/>
<circle cx="935.00" cy="263.63" r="6" fill="#69a7ff"/>
</svg>