<svg xmlns="http://www.w3.org/2000/svg" width="960" height="430" viewBox="0 0 960 430" role="img" aria-label="Composite score history">
<rect width="100%" height="100%" fill="#0b1020" rx="20"/>
<text x="70" y="32" fill="#f5f7fb" font-family="Inter, Arial, sans-serif" font-size="24" font-weight="700">Composite score history</text>
<text x="70" y="52" fill="#93a4c3" font-family="Inter, Arial, sans-serif" font-size="13">Trailing 58 sessions through 2025-10-30</text>
<line x1="70" x2="935" y1="375.00" y2="375.00" stroke="#27314e" stroke-width="1"/>
<text x="58" y="379.00" text-anchor="end" fill="#93a4c3" font-family="Inter, Arial, sans-serif" font-size="12">5</text>
<line x1="70" x2="935" y1="312.00" y2="312.00" stroke="#27314e" stroke-width="1"/>
<text x="58" y="316.00" text-anchor="end" fill="#93a4c3" font-family="Inter, Arial, sans-serif" font-size="12">11</text>
<line x1="70" x2="935" y1="249.00" y2="249.00" stroke="#27314e" stroke-width="1"/>
<text x="58" y="253.00" text-anchor="end" fill="#93a4c3" font-family="Inter, Arial, sans-serif" font-size="12">17</text>
<line x1="70" x2="935" y1="186.00" y2="186.00" stroke="#27314e" stroke-width="1"/>
<text x="58" y="190.00" text-anchor="end" fill="#93a4c3" font-family="Inter, Arial, sans-serif" font-size="12">23</text>
<line x1="70" x2="935" y1="123.00" y2="123.00" stroke="#27314e" stroke-width="1"/>
<text x="58" y="127.00" text-anchor="end" fill="#93a4c3" font-family="Inter, Arial, sans-serif" font-size="12">29</text>
<line x1="70" x2="935" y1="60.00" y2="60.00" stroke="#27314e" stroke-width="1"/>
<text x="58" y="64.00" text-anchor="end" fill="#93a4c3" font-family="Inter, Arial, sans-serif" font-size="12">35</text>
<text x="70.00" y="412" text-anchor="middle" fill="#93a4c3" font-family="Inter, Arial, sans-serif" font-size="12">2025-08-08</text>
<text x="510.09" y="412" text-anchor="middle" fill="#93a4c3" font-family="Inter, Arial, sans-serif" font-size="12">2025-09-19</text>
<text x="935.00" y="412" text-anchor="middle" fill="#93a4c3" font-family="Inter, Arial, sans-serif" font-size="12">2025-10-30</text>
<path d="M 70.00 276.51 L 85.18 243.68 L 100.35 310.82 L 115.53 326.44 L 130.70 318.00 L 145.88 309.02 L 161.05 310.61 L 176.23 235.87 L 191.40 183.93 L 206.58 141.81 L 221.75 261.84 L 236.93 231.86 L 252.11 249.49 L 267.28 267.22 L 282.46 315.67 L 297.63 268.59 L 312.81 221.19 L 327.98 245.90 L 343.16 294.46 L 358.33 276.30 L 373.51 318.00 L 388.68 337.63 L 403.86 332.67 L 419.04 339.53 L 434.21 320.85 L 449.39 317.57 L 464.56 315.88 L 479.74 307.02 L 494.91 259.83 L 510.09 308.07 L 525.26 278.20 L 540.44 295.93 L 555.61 277.35 L 570.79 217.08 L 585.96 249.27 L 601.14 251.60 L 616.32 268.06 L 631.49 321.27 L 646.67 337.95 L 661.84 305.01 L 677.02 319.58 L 692.19 285.06 L 707.37 295.09 L 722.54 264.79 L 737.72 80.69 L 752.89 152.37 L 768.07 203.46 L 783.25 60.00 L 798.42 180.66 L 813.60 375.00 L 828.77 338.05 L 843.95 304.06 L 859.12 230.70 L 874.30 279.99 L 889.47 304.27 L 904.65 323.49 L 919.82 278.41 L 935.00 263.63" fill="none" stroke="#69a7ff" stroke-width="4" stroke-linecap="round" stroke-linejoin="round"/>
<circle cx="935.00" cy="263.63" r="6" fill="#69a7ff"/>
</svg>