<svg xmlns="http://www.w3.org/2000/svg" width="960" height="430" viewBox="0 0 960 430" role="img" aria-label="Composite score history">
<rect width="100%" height="100%" fill="#0b1020" rx="20"/>
<text x="70" y="32" fill="#f5f7fb" font-family="Inter, Arial, sans-serif" font-size="24" font-weight="700">Composite score history</text>
<text x="70" y="52" fill="#93a4c3" font-family="Inter, Arial, sans-serif" font-size="13">Trailing 61 sessions through 2025-10-30</text>
<line x1="70" x2="935" y1="375.00" y2="375.00" stroke="#27314e" stroke-width="1"/>
<text x="58" y="379.00" text-anchor="end" fill="#93a4c3" font-family="Inter, Arial, sans-serif" font-size="12">5</text>
<line x1="70" x2="935" y1="312.00" y2="312.00" stroke="#27314e" stroke-width="1"/>
<text x="58" y="316.00" text-anchor="end" fill="#93a4c3" font-family="Inter, Arial, sans-serif" font-size="12">11</text>
<line x1="70" x2="935" y1="249.00" y2="249.00" stroke="#27314e" stroke-width="1"/>
<text x="58" y="253.00" text-anchor="end" fill="#93a4c3" font-family="Inter, Arial, sans-serif" font-size="12">17</text>
<line x1="70" x2="935" y1="186.00" y2="186.00" stroke="#27314e" stroke-width="1"/>
<text x="58" y="190.00" text-anchor="end" fill="#93a4c3" font-family="Inter, Arial, sans-serif" font-size="12">23</text>
<line x1="70" x2="935" y1="123.00" y2="123.00" stroke="#27314e" stroke-width="1"/>
<text x="58" y="127.00" text-anchor="end" fill="#93a4c3" font-family="Inter, Arial, sans-serif" font-size="12">29</text>
<line x1="70" x2="935" y1="60.00" y2="60.00" stroke="#27314e" stroke-width="1"/>
<text x="58" y="64.00" text-anchor="end" fill="#93a4c3" font-family="Inter, Arial, sans-serif" font-size="12">35</text>
<text x="70.00" y="412" text-anchor="middle" fill="#93a4c3" font-family="Inter, Arial, sans-serif" font-size="12">2025-08-05</text>
<text x="502.50" y="412" text-anchor="middle" fill="#93a4c3" font-family="Inter, Arial, sans-serif" font-size="12">2025-09-17</text>
<text x="935.00" y="412" text-anchor="middle" fill="#93a4c3" font-family="Inter, Arial, sans-serif" font-size="12">2025-10-30</text>
<path d="M 70.00 265.64 L 84.42 297.20 L 98.83 292.98 L 113.25 271.13 L 127.67 255.61 L 142.08 338.37 L 156.50 334.46 L 170.92 319.79 L 185.33 309.02 L 199.75 310.61 L 214.17 235.87 L 228.58 183.93 L 243.00 141.81 L 257.42 261.84 L 271.83 231.86 L 286.25 249.49 L 300.67 267.22 L 315.08 315.67 L 329.50 268.59 L 343.92 221.19 L 358.33 245.90 L 372.75 294.46 L 387.17 276.30 L 401.58 318.00 L 416.00 337.63 L 430.42 332.67 L 444.83 339.53 L 459.25 320.85 L 473.67 317.57 L 488.08 315.88 L 502.50 307.02 L 516.92 259.83 L 531.33 308.07 L 545.75 278.20 L 560.17 295.93 L 574.58 277.35 L 589.00 217.08 L 603.42 249.27 L 617.83 251.60 L 632.25 268.06 L 646.67 321.27 L 661.08 337.95 L 675.50 305.01 L 689.92 319.58 L 704.33 285.06 L 718.75 295.09 L 733.17 264.79 L 747.58 80.69 L 762.00 152.37 L 776.42 203.46 L 790.83 60.00 L 805.25 180.66 L 819.67 375.00 L 834.08 338.05 L 848.50 304.06 L 862.92 230.70 L 877.33 279.99 L 891.75 304.27 L 906.17 323.49 L 920.58 278.41 L 935.00 263.63" fill="none" stroke="#69a7ff" stroke-width="4" stroke-linecap="round" stroke-linejoin="round"/>
<circle cx="935.00" cy="263.63" r="6" fill="#69a7ff"/>
</svg>