<svg xmlns="http://www.w3.org/2000/svg" width="960" height="430" viewBox="0 0 960 430" role="img" aria-label="Composite score history">
<rect width="100%" height="100%" fill="#0b1020" rx="20"/>
<text x="70" y="32" fill="#f5f7fb" font-family="Inter, Arial, sans-serif" font-size="24" font-weight="700">Composite score history</text>
<text x="70" y="52" fill="#93a4c3" font-family="Inter, Arial, sans-serif" font-size="13">Trailing 85 sessions through 2026-01-05</text>
<line x1="70" x2="935" y1="375.00" y2="375.00" stroke="#27314e" stroke-width="1"/>
<text x="58" y="379.00" text-anchor="end" fill="#93a4c3" font-family="Inter, Arial, sans-serif" font-size="12">0</text>
<line x1="70" x2="935" y1="312.00" y2="312.00" stroke="#27314e" stroke-width="1"/>
<text x="58" y="316.00" text-anchor="end" fill="#93a4c3" font-family="Inter, Arial, sans-serif" font-size="12">8</text>
<line x1="70" x2="935" y1="249.00" y2="249.00" stroke="#27314e" stroke-width="1"/>
<text x="58" y="253.00" text-anchor="end" fill="#93a4c3" font-family="Inter, Arial, sans-serif" font-size="12">17</text>
<line x1="70" x2="935" y1="186.00" y2="186.00" stroke="#27314e" stroke-width="1"/>
<text x="58" y="190.00" text-anchor="end" fill="#93a4c3" font-family="Inter, Arial, sans-serif" font-size="12">25</text>
<line x1="70" x2="935" y1="123.00" y2="123.00" stroke="#27314e" stroke-width="1"/>
<text x="58" y="127.00" text-anchor="end" fill="#93a4c3" font-family="Inter, Arial, sans-serif" font-size="12">33</text>
<line x1="70" x2="935" y1="60.00" y2="60.00" stroke="#27314e" stroke-width="1"/>
<text x="58" y="64.00" text-anchor="end" fill="#93a4c3" font-family="Inter, Arial, sans-serif" font-size="12">41</text>
<text x="70.00" y="412" text-anchor="middle" fill="#93a4c3" font-family="Inter, Arial, sans-serif" font-size="12">2025-09-02</text>
<text x="502.50" y="412" text-anchor="middle" fill="#93a4c3" font-family="Inter, Arial, sans-serif" font-size="12">2025-10-31</text>
<text x="935.00" y="412" text-anchor="middle" fill="#93a4c3" font-family="Inter, Arial, sans-serif" font-size="12">2026-01-05</text>
<path d="M 70.00 256.58 L 80.30 275.87 L 90.60 301.26 L 100.89 302.18 L 111.19 308.81 L 121.49 309.58 L 131.79 305.99 L 142.08 310.95 L 152.38 297.45 L 162.68 295.09 L 172.98 293.87 L 183.27 287.46 L 193.57 253.38 L 203.87 288.22 L 214.17 266.64 L 224.46 279.46 L 234.76 266.03 L 245.06 222.49 L 255.36 245.75 L 265.65 247.43 L 275.95 259.32 L 286.25 297.76 L 296.55 309.80 L 306.85 286.01 L 317.14 296.54 L 327.44 271.60 L 337.74 278.85 L 348.04 256.96 L 358.33 123.98 L 368.63 175.75 L 378.93 212.66 L 389.23 109.03 L 399.52 196.19 L 409.82 336.57 L 420.12 309.88 L 430.42 285.33 L 440.71 232.33 L 451.01 267.94 L 461.31 285.48 L 471.61 299.36 L 481.90 266.80 L 492.20 256.12 L 502.50 236.53 L 512.80 192.98 L 523.10 135.80 L 533.39 183.68 L 543.69 184.67 L 553.99 190.93 L 564.29 255.59 L 574.58 294.63 L 584.88 209.53 L 595.18 237.06 L 605.48 167.36 L 615.77 60.00 L 626.07 70.45 L 636.37 66.18 L 646.67 146.17 L 656.96 277.24 L 667.26 326.96 L 677.56 337.79 L 687.86 375.00 L 698.15 333.06 L 708.45 308.20 L 718.75 290.89 L 729.05 264.74 L 739.35 247.28 L 749.64 278.92 L 759.94 241.33 L 770.24 272.67 L 780.54 307.67 L 790.83 264.05 L 801.13 273.13 L 811.43 273.58 L 821.73 183.07 L 832.02 209.46 L 842.32 304.77 L 852.62 329.32 L 862.92 342.21 L 873.21 374.85 L 883.51 360.82 L 893.81 332.91 L 904.11 310.11 L 914.40 254.37 L 924.70 241.41 L 935.00 250.25" fill="none" stroke="#69a7ff" stroke-width="4" stroke-linecap="round" stroke-linejoin="round"/>
<circle cx="935.00" cy="250.25" r="6" fill="#69a7ff"/>
</svg>