<svg xmlns="http://www.w3.org/2000/svg" width="960" height="430" viewBox="0 0 960 430" role="img" aria-label="Composite score history">
<rect width="100%" height="100%" fill="#0b1020" rx="20"/>
<text x="70" y="32" fill="#f5f7fb" font-family="Inter, Arial, sans-serif" font-size="24" font-weight="700">Composite score history</text>
<text x="70" y="52" fill="#93a4c3" font-family="Inter, Arial, sans-serif" font-size="13">Trailing 90 sessions through 2026-01-05</text>
<line x1="70" x2="935" y1="375.00" y2="375.00" stroke="#27314e" stroke-width="1"/>
<text x="58" y="379.00" text-anchor="end" fill="#93a4c3" font-family="Inter, Arial, sans-serif" font-size="12">8</text>
<line x1="70" x2="935" y1="312.00" y2="312.00" stroke="#27314e" stroke-width="1"/>
<text x="58" y="316.00" text-anchor="end" fill="#93a4c3" font-family="Inter, Arial, sans-serif" font-size="12">14</text>
<line x1="70" x2="935" y1="249.00" y2="249.00" stroke="#27314e" stroke-width="1"/>
<text x="58" y="253.00" text-anchor="end" fill="#93a4c3" font-family="Inter, Arial, sans-serif" font-size="12">21</text>
<line x1="70" x2="935" y1="186.00" y2="186.00" stroke="#27314e" stroke-width="1"/>
<text x="58" y="190.00" text-anchor="end" fill="#93a4c3" font-family="Inter, Arial, sans-serif" font-size="12">28</text>
<line x1="70" x2="935" y1="123.00" y2="123.00" stroke="#27314e" stroke-width="1"/>
<text x="58" y="127.00" text-anchor="end" fill="#93a4c3" font-family="Inter, Arial, sans-serif" font-size="12">35</text>
<line x1="70" x2="935" y1="60.00" y2="60.00" stroke="#27314e" stroke-width="1"/>
<text x="58" y="64.00" text-anchor="end" fill="#93a4c3" font-family="Inter, Arial, sans-serif" font-size="12">41</text>
<text x="70.00" y="412" text-anchor="middle" fill="#93a4c3" font-family="Inter, Arial, sans-serif" font-size="12">2025-08-25</text>
<text x="507.36" y="412" text-anchor="middle" fill="#93a4c3" font-family="Inter, Arial, sans-serif" font-size="12">2025-10-29</text>
<text x="935.00" y="412" text-anchor="middle" fill="#93a4c3" font-family="Inter, Arial, sans-serif" font-size="12">2026-01-05</text>
<path d="M 70.00 272.09 L 79.72 267.79 L 89.44 272.09 L 99.16 297.95 L 108.88 304.58 L 118.60 262.65 L 128.31 284.51 L 138.03 320.09 L 147.75 311.40 L 157.47 335.68 L 167.19 330.36 L 176.91 330.92 L 186.63 336.71 L 196.35 313.83 L 206.07 304.77 L 215.79 312.71 L 225.51 314.11 L 235.22 281.05 L 244.94 311.12 L 254.66 285.44 L 264.38 311.12 L 274.10 299.08 L 283.82 259.01 L 293.54 287.49 L 303.26 289.55 L 312.98 293.00 L 322.70 325.50 L 332.42 326.81 L 342.13 311.50 L 351.85 321.96 L 361.57 310.00 L 371.29 313.18 L 381.01 294.31 L 390.73 138.35 L 400.45 201.67 L 410.17 246.96 L 419.89 120.05 L 429.61 226.79 L 439.33 333.63 L 449.04 334.00 L 458.76 326.06 L 468.48 232.58 L 478.20 270.03 L 487.92 287.68 L 497.64 299.17 L 507.36 246.59 L 517.08 271.15 L 526.80 259.57 L 536.52 222.87 L 546.24 152.83 L 555.96 211.48 L 565.67 212.69 L 575.39 220.35 L 585.11 299.54 L 594.83 319.99 L 604.55 243.14 L 614.27 272.09 L 623.99 191.49 L 633.71 60.00 L 643.43 72.79 L 653.15 67.56 L 662.87 165.53 L 672.58 314.58 L 682.30 334.56 L 692.02 340.26 L 701.74 345.02 L 711.46 320.27 L 721.18 320.74 L 730.90 313.92 L 740.62 295.53 L 750.34 282.08 L 760.06 316.54 L 769.78 278.25 L 779.49 307.85 L 789.21 348.38 L 798.93 309.91 L 808.65 321.02 L 818.37 321.58 L 828.09 210.64 L 837.81 243.04 L 847.53 357.44 L 857.25 368.56 L 866.97 368.09 L 876.69 372.48 L 886.40 375.00 L 896.12 369.96 L 905.84 360.24 L 915.56 298.05 L 925.28 282.17 L 935.00 293.00" fill="none" stroke="#69a7ff" stroke-width="4" stroke-linecap="round" stroke-linejoin="round"/>
<circle cx="935.00" cy="293.00" r="6" fill="#69a7ff"/>
<text x="927.00" y="281.00" text-anchor="end" fill="#f5f7fb" font-family="Inter, Arial, sans-serif" font-size="12" font-weight="600">16.36</text>
</svg>