<svg xmlns="http://www.w3.org/2000/svg" width="960" height="430" viewBox="0 0 960 430" role="img" aria-label="Composite score history">
<rect width="100%" height="100%" fill="#0b1020" rx="20"/>
<text x="70" y="32" fill="#f5f7fb" font-family="Inter, Arial, sans-serif" font-size="24" font-weight="700">Composite score history</text>
<text x="70" y="52" fill="#93a4c3" font-family="Inter, Arial, sans-serif" font-size="13">Trailing 83 sessions through 2026-01-05</text>
<line x1="70" x2="935" y1="375.00" y2="375.00" stroke="#27314e" stroke-width="1"/>
<text x="58" y="379.00" text-anchor="end" fill="#93a4c3" font-family="Inter, Arial, sans-serif" font-size="12">0</text>
<line x1="70" x2="935" y1="312.00" y2="312.00" stroke="#27314e" stroke-width="1"/>
<text x="58" y="316.00" text-anchor="end" fill="#93a4c3" font-family="Inter, Arial, sans-serif" font-size="12">8</text>
<line x1="70" x2="935" y1="249.00" y2="249.00" stroke="#27314e" stroke-width="1"/>
<text x="58" y="253.00" text-anchor="end" fill="#93a4c3" font-family="Inter, Arial, sans-serif" font-size="12">17</text>
<line x1="70" x2="935" y1="186.00" y2="186.00" stroke="#27314e" stroke-width="1"/>
<text x="58" y="190.00" text-anchor="end" fill="#93a4c3" font-family="Inter, Arial, sans-serif" font-size="12">25</text>
<line x1="70" x2="935" y1="123.00" y2="123.00" stroke="#27314e" stroke-width="1"/>
<text x="58" y="127.00" text-anchor="end" fill="#93a4c3" font-family="Inter, Arial, sans-serif" font-size="12">33</text>
<line x1="70" x2="935" y1="60.00" y2="60.00" stroke="#27314e" stroke-width="1"/>
<text x="58" y="64.00" text-anchor="end" fill="#93a4c3" font-family="Inter, Arial, sans-serif" font-size="12">41</text>
<text x="70.00" y="412" text-anchor="middle" fill="#93a4c3" font-family="Inter, Arial, sans-serif" font-size="12">2025-09-04</text>
<text x="502.50" y="412" text-anchor="middle" fill="#93a4c3" font-family="Inter, Arial, sans-serif" font-size="12">2025-11-03</text>
<text x="935.00" y="412" text-anchor="middle" fill="#93a4c3" font-family="Inter, Arial, sans-serif" font-size="12">2026-01-05</text>
<path d="M 70.00 275.57 L 80.55 270.53 L 91.10 281.06 L 101.65 283.80 L 112.20 289.67 L 122.74 310.95 L 133.29 297.45 L 143.84 295.09 L 154.39 293.87 L 164.94 287.46 L 175.49 253.38 L 186.04 288.22 L 196.59 266.64 L 207.13 279.46 L 217.68 266.03 L 228.23 222.49 L 238.78 245.75 L 249.33 247.43 L 259.88 259.32 L 270.43 297.76 L 280.98 309.80 L 291.52 286.01 L 302.07 296.54 L 312.62 271.60 L 323.17 278.85 L 333.72 256.96 L 344.27 123.98 L 354.82 175.75 L 365.37 212.66 L 375.91 109.03 L 386.46 196.19 L 397.01 336.57 L 407.56 309.88 L 418.11 285.33 L 428.66 232.33 L 439.21 267.94 L 449.76 285.48 L 460.30 299.36 L 470.85 266.80 L 481.40 256.12 L 491.95 236.53 L 502.50 192.98 L 513.05 135.80 L 523.60 183.68 L 534.15 184.67 L 544.70 190.93 L 555.24 255.59 L 565.79 294.63 L 576.34 209.53 L 586.89 237.06 L 597.44 167.36 L 607.99 60.00 L 618.54 70.45 L 629.09 66.18 L 639.63 146.17 L 650.18 277.24 L 660.73 326.96 L 671.28 337.79 L 681.83 375.00 L 692.38 333.06 L 702.93 308.20 L 713.48 290.89 L 724.02 264.74 L 734.57 247.28 L 745.12 278.92 L 755.67 241.33 L 766.22 272.67 L 776.77 307.67 L 787.32 264.05 L 797.87 273.13 L 808.41 273.58 L 818.96 183.07 L 829.51 209.46 L 840.06 304.77 L 850.61 329.32 L 861.16 342.21 L 871.71 374.85 L 882.26 360.82 L 892.80 332.91 L 903.35 310.11 L 913.90 254.37 L 924.45 241.41 L 935.00 250.25" fill="none" stroke="#69a7ff" stroke-width="4" stroke-linecap="round" stroke-linejoin="round"/>
<circle cx="935.00" cy="250.25" r="6" fill="#69a7ff"/>
</svg>