<svg xmlns="http://www.w3.org/2000/svg" width="960" height="430" viewBox="0 0 960 430" role="img" aria-label="Composite score history">
<rect width="100%" height="100%" fill="#0b1020" rx="20"/>
<text x="70" y="32" fill="#f5f7fb" font-family="Inter, Arial, sans-serif" font-size="24" font-weight="700">Composite score history</text>
<text x="70" y="52" fill="#93a4c3" font-family="Inter, Arial, sans-serif" font-size="13">Trailing 69 sessions through 2026-01-05</text>
<line x1="70" x2="935" y1="375.00" y2="375.00" stroke="#27314e" stroke-width="1"/>
<text x="58" y="379.00" text-anchor="end" fill="#93a4c3" font-family="Inter, Arial, sans-serif" font-size="12">0</text>
<line x1="70" x2="935" y1="312.00" y2="312.00" stroke="#27314e" stroke-width="1"/>
<text x="58" y="316.00" text-anchor="end" fill="#93a4c3" font-family="Inter, Arial, sans-serif" font-size="12">8</text>
<line x1="70" x2="935" y1="249.00" y2="249.00" stroke="#27314e" stroke-width="1"/>
<text x="58" y="253.00" text-anchor="end" fill="#93a4c3" font-family="Inter, Arial, sans-serif" font-size="12">17</text>
<line x1="70" x2="935" y1="186.00" y2="186.00" stroke="#27314e" stroke-width="1"/>
<text x="58" y="190.00" text-anchor="end" fill="#93a4c3" font-family="Inter, Arial, sans-serif" font-size="12">25</text>
<line x1="70" x2="935" y1="123.00" y2="123.00" stroke="#27314e" stroke-width="1"/>
<text x="58" y="127.00" text-anchor="end" fill="#93a4c3" font-family="Inter, Arial, sans-serif" font-size="12">33</text>
<line x1="70" x2="935" y1="60.00" y2="60.00" stroke="#27314e" stroke-width="1"/>
<text x="58" y="64.00" text-anchor="end" fill="#93a4c3" font-family="Inter, Arial, sans-serif" font-size="12">41</text>
<text x="70.00" y="412" text-anchor="middle" fill="#93a4c3" font-family="Inter, Arial, sans-serif" font-size="12">2025-09-24</text>
<text x="502.50" y="412" text-anchor="middle" fill="#93a4c3" font-family="Inter, Arial, sans-serif" font-size="12">2025-11-13</text>
<text x="935.00" y="412" text-anchor="middle" fill="#93a4c3" font-family="Inter, Arial, sans-serif" font-size="12">2026-01-05</text>
<path d="M 70.00 273.74 L 82.72 222.49 L 95.44 259.17 L 108.16 260.54 L 120.88 276.25 L 133.60 297.76 L 146.32 309.80 L 159.04 286.01 L 171.76 296.54 L 184.49 271.60 L 197.21 278.85 L 209.93 256.96 L 222.65 123.98 L 235.37 175.75 L 248.09 212.66 L 260.81 109.03 L 273.53 196.19 L 286.25 336.57 L 298.97 309.88 L 311.69 285.33 L 324.41 232.33 L 337.13 267.94 L 349.85 285.48 L 362.57 299.36 L 375.29 266.80 L 388.01 256.12 L 400.74 236.53 L 413.46 192.98 L 426.18 135.80 L 438.90 183.68 L 451.62 184.67 L 464.34 190.93 L 477.06 255.59 L 489.78 294.63 L 502.50 209.53 L 515.22 237.06 L 527.94 167.36 L 540.66 60.00 L 553.38 70.45 L 566.10 66.18 L 578.82 146.17 L 591.54 277.24 L 604.26 326.96 L 616.99 337.79 L 629.71 375.00 L 642.43 333.06 L 655.15 308.20 L 667.87 290.89 L 680.59 264.74 L 693.31 247.28 L 706.03 278.92 L 718.75 241.33 L 731.47 272.67 L 744.19 307.67 L 756.91 264.05 L 769.63 273.13 L 782.35 273.58 L 795.07 183.07 L 807.79 209.46 L 820.51 304.77 L 833.24 329.32 L 845.96 342.21 L 858.68 374.85 L 871.40 360.82 L 884.12 332.91 L 896.84 310.11 L 909.56 254.37 L 922.28 241.41 L 935.00 250.25" fill="none" stroke="#69a7ff" stroke-width="4" stroke-linecap="round" stroke-linejoin="round"/>
<circle cx="935.00" cy="250.25" r="6" fill="#69a7ff"/>
</svg>