<svg xmlns="http://www.w3.org/2000/svg" width="960" height="430" viewBox="0 0 960 430" role="img" aria-label="Composite score history">
<rect width="100%" height="100%" fill="#0b1020" rx="20"/>
<text x="70" y="32" fill="#f5f7fb" font-family="Inter, Arial, sans-serif" font-size="24" font-weight="700">Composite score history</text>
<text x="70" y="52" fill="#93a4c3" font-family="Inter, Arial, sans-serif" font-size="13">Trailing 53 sessions through 2026-01-05</text>
<line x1="70" x2="935" y1="375.00" y2="375.00" stroke="#27314e" stroke-width="1"/>
<text x="58" y="379.00" text-anchor="end" fill="#93a4c3" font-family="Inter, Arial, sans-serif" font-size="12">0</text>
<line x1="70" x2="935" y1="312.00" y2="312.00" stroke="#27314e" stroke-width="1"/>
<text x="58" y="316.00" text-anchor="end" fill="#93a4c3" font-family="Inter, Arial, sans-serif" font-size="12">8</text>
<line x1="70" x2="935" y1="249.00" y2="249.00" stroke="#27314e" stroke-width="1"/>
<text x="58" y="253.00" text-anchor="end" fill="#93a4c3" font-family="Inter, Arial, sans-serif" font-size="12">17</text>
<line x1="70" x2="935" y1="186.00" y2="186.00" stroke="#27314e" stroke-width="1"/>
<text x="58" y="190.00" text-anchor="end" fill="#93a4c3" font-family="Inter, Arial, sans-serif" font-size="12">25</text>
<line x1="70" x2="935" y1="123.00" y2="123.00" stroke="#27314e" stroke-width="1"/>
<text x="58" y="127.00" text-anchor="end" fill="#93a4c3" font-family="Inter, Arial, sans-serif" font-size="12">33</text>
<line x1="70" x2="935" y1="60.00" y2="60.00" stroke="#27314e" stroke-width="1"/>
<text x="58" y="64.00" text-anchor="end" fill="#93a4c3" font-family="Inter, Arial, sans-serif" font-size="12">41</text>
<text x="70.00" y="412" text-anchor="middle" fill="#93a4c3" font-family="Inter, Arial, sans-serif" font-size="12">2025-10-17</text>
<text x="502.50" y="412" text-anchor="middle" fill="#93a4c3" font-family="Inter, Arial, sans-serif" font-size="12">2025-11-25</text>
<text x="935.00" y="412" text-anchor="middle" fill="#93a4c3" font-family="Inter, Arial, sans-serif" font-size="12">2026-01-05</text>
<path d="M 70.00 267.48 L 86.63 303.78 L 103.27 300.35 L 119.90 275.87 L 136.54 237.44 L 153.17 267.94 L 169.81 285.48 L 186.44 299.36 L 203.08 266.80 L 219.71 256.12 L 236.35 236.53 L 252.98 192.98 L 269.62 135.80 L 286.25 183.68 L 302.88 184.67 L 319.52 190.93 L 336.15 255.59 L 352.79 294.63 L 369.42 209.53 L 386.06 237.06 L 402.69 167.36 L 419.33 60.00 L 435.96 70.45 L 452.60 66.18 L 469.23 146.17 L 485.87 277.24 L 502.50 326.96 L 519.13 337.79 L 535.77 375.00 L 552.40 333.06 L 569.04 308.20 L 585.67 290.89 L 602.31 264.74 L 618.94 247.28 L 635.58 278.92 L 652.21 241.33 L 668.85 272.67 L 685.48 307.67 L 702.12 264.05 L 718.75 273.13 L 735.38 273.58 L 752.02 183.07 L 768.65 209.46 L 785.29 304.77 L 801.92 329.32 L 818.56 342.21 L 835.19 374.85 L 851.83 360.82 L 868.46 332.91 L 885.10 310.11 L 901.73 254.37 L 918.37 241.41 L 935.00 250.25" fill="none" stroke="#69a7ff" stroke-width="4" stroke-linecap="round" stroke-linejoin="round"/>
<circle cx="935.00" cy="250.25" r="6" fill="#69a7ff"/>
</svg>