<svg xmlns="http://www.w3.org/2000/svg" width="960" height="430" viewBox="0 0 960 430" role="img" aria-label="Composite score history">
<rect width="100%" height="100%" fill="#0b1020" rx="20"/>
<text x="70" y="32" fill="#f5f7fb" font-family="Inter, Arial, sans-serif" font-size="24" font-weight="700">Composite score history</text>
<text x="70" y="52" fill="#93a4c3" font-family="Inter, Arial, sans-serif" font-size="13">Trailing 88 sessions through 2026-01-05</text>
<line x1="70" x2="935" y1="375.00" y2="375.00" stroke="#27314e" stroke-width="1"/>
<text x="58" y="379.00" text-anchor="end" fill="#93a4c3" font-family="Inter, Arial, sans-serif" font-size="12">0</text>
<line x1="70" x2="935" y1="312.00" y2="312.00" stroke="#27314e" stroke-width="1"/>
<text x="58" y="316.00" text-anchor="end" fill="#93a4c3" font-family="Inter, Arial, sans-serif" font-size="12">8</text>
<line x1="70" x2="935" y1="249.00" y2="249.00" stroke="#27314e" stroke-width="1"/>
<text x="58" y="253.00" text-anchor="end" fill="#93a4c3" font-family="Inter, Arial, sans-serif" font-size="12">17</text>
<line x1="70" x2="935" y1="186.00" y2="186.00" stroke="#27314e" stroke-width="1"/>
<text x="58" y="190.00" text-anchor="end" fill="#93a4c3" font-family="Inter, Arial, sans-serif" font-size="12">25</text>
<line x1="70" x2="935" y1="123.00" y2="123.00" stroke="#27314e" stroke-width="1"/>
<text x="58" y="127.00" text-anchor="end" fill="#93a4c3" font-family="Inter, Arial, sans-serif" font-size="12">33</text>
<line x1="70" x2="935" y1="60.00" y2="60.00" stroke="#27314e" stroke-width="1"/>
<text x="58" y="64.00" text-anchor="end" fill="#93a4c3" font-family="Inter, Arial, sans-serif" font-size="12">41</text>
<text x="70.00" y="412" text-anchor="middle" fill="#93a4c3" font-family="Inter, Arial, sans-serif" font-size="12">2025-08-27</text>
<text x="507.47" y="412" text-anchor="middle" fill="#93a4c3" font-family="Inter, Arial, sans-serif" font-size="12">2025-10-30</text>
<text x="935.00" y="412" text-anchor="middle" fill="#93a4c3" font-family="Inter, Arial, sans-serif" font-size="12">2026-01-05</text>
<path d="M 70.00 271.30 L 79.94 270.23 L 89.89 255.66 L 99.83 179.87 L 109.77 229.81 L 119.71 278.39 L 129.66 265.27 L 139.60 295.39 L 149.54 309.58 L 159.48 305.99 L 169.43 310.95 L 179.37 297.45 L 189.31 295.09 L 199.25 293.87 L 209.20 287.46 L 219.14 253.38 L 229.08 288.22 L 239.02 266.64 L 248.97 279.46 L 258.91 266.03 L 268.85 222.49 L 278.79 245.75 L 288.74 247.43 L 298.68 259.32 L 308.62 297.76 L 318.56 309.80 L 328.51 286.01 L 338.45 296.54 L 348.39 271.60 L 358.33 278.85 L 368.28 256.96 L 378.22 123.98 L 388.16 175.75 L 398.10 212.66 L 408.05 109.03 L 417.99 196.19 L 427.93 336.57 L 437.87 309.88 L 447.82 285.33 L 457.76 232.33 L 467.70 267.94 L 477.64 285.48 L 487.59 299.36 L 497.53 266.80 L 507.47 256.12 L 517.41 236.53 L 527.36 192.98 L 537.30 135.80 L 547.24 183.68 L 557.18 184.67 L 567.13 190.93 L 577.07 255.59 L 587.01 294.63 L 596.95 209.53 L 606.90 237.06 L 616.84 167.36 L 626.78 60.00 L 636.72 70.45 L 646.67 66.18 L 656.61 146.17 L 666.55 277.24 L 676.49 326.96 L 686.44 337.79 L 696.38 375.00 L 706.32 333.06 L 716.26 308.20 L 726.21 290.89 L 736.15 264.74 L 746.09 247.28 L 756.03 278.92 L 765.98 241.33 L 775.92 272.67 L 785.86 307.67 L 795.80 264.05 L 805.75 273.13 L 815.69 273.58 L 825.63 183.07 L 835.57 209.46 L 845.52 304.77 L 855.46 329.32 L 865.40 342.21 L 875.34 374.85 L 885.29 360.82 L 895.23 332.91 L 905.17 310.11 L 915.11 254.37 L 925.06 241.41 L 935.00 250.25" fill="none" stroke="#69a7ff" stroke-width="4" stroke-linecap="round" stroke-linejoin="round"/>
<circle cx="935.00" cy="250.25" r="6" fill="#69a7ff"/>
</svg>