<svg xmlns="http://www.w3.org/2000/svg" width="960" height="430" viewBox="0 0 960 430" role="img" aria-label="Composite score history">
<rect width="100%" height="100%" fill="#0b1020" rx="20"/>
<text x="70" y="32" fill="#f5f7fb" font-family="Inter, Arial, sans-serif" font-size="24" font-weight="700">Composite score history</text>
<text x="70" y="52" fill="#93a4c3" font-family="Inter, Arial, sans-serif" font-size="13">Trailing 60 sessions through 2025-12-30</text>
<line x1="70" x2="935" y1="375.00" y2="375.00" stroke="#27314e" stroke-width="1"/>
<text x="58" y="379.00" text-anchor="end" fill="#93a4c3" font-family="Inter, Arial, sans-serif" font-size="12">0</text>
<line x1="70" x2="935" y1="312.00" y2="312.00" stroke="#27314e" stroke-width="1"/>
<text x="58" y="316.00" text-anchor="end" fill="#93a4c3" font-family="Inter, Arial, sans-serif" font-size="12">8</text>
<line x1="70" x2="935" y1="249.00" y2="249.00" stroke="#27314e" stroke-width="1"/>
<text x="58" y="253.00" text-anchor="end" fill="#93a4c3" font-family="Inter, Arial, sans-serif" font-size="12">17</text>
<line x1="70" x2="935" y1="186.00" y2="186.00" stroke="#27314e" stroke-width="1"/>
<text x="58" y="190.00" text-anchor="end" fill="#93a4c3" font-family="Inter, Arial, sans-serif" font-size="12">25</text>
<line x1="70" x2="935" y1="123.00" y2="123.00" stroke="#27314e" stroke-width="1"/>
<text x="58" y="127.00" text-anchor="end" fill="#93a4c3" font-family="Inter, Arial, sans-serif" font-size="12">33</text>
<line x1="70" x2="935" y1="60.00" y2="60.00" stroke="#27314e" stroke-width="1"/>
<text x="58" y="64.00" text-anchor="end" fill="#93a4c3" font-family="Inter, Arial, sans-serif" font-size="12">41</text>
<text x="70.00" y="412" text-anchor="middle" fill="#93a4c3" font-family="Inter, Arial, sans-serif" font-size="12">2025-10-02</text>
<text x="509.83" y="412" text-anchor="middle" fill="#93a4c3" font-family="Inter, Arial, sans-serif" font-size="12">2025-11-17</text>
<text x="935.00" y="412" text-anchor="middle" fill="#93a4c3" font-family="Inter, Arial, sans-serif" font-size="12">2025-12-30</text>
<path d="M 70.00 277.85 L 84.66 262.07 L 99.32 263.67 L 113.98 252.46 L 128.64 270.08 L 143.31 256.96 L 157.97 123.98 L 172.63 175.75 L 187.29 212.66 L 201.95 109.03 L 216.61 196.19 L 231.27 336.57 L 245.93 309.88 L 260.59 285.33 L 275.25 232.33 L 289.92 267.94 L 304.58 285.48 L 319.24 299.36 L 333.90 266.80 L 348.56 256.12 L 363.22 236.53 L 377.88 192.98 L 392.54 135.80 L 407.20 183.68 L 421.86 184.67 L 436.53 190.93 L 451.19 255.59 L 465.85 294.63 L 480.51 209.53 L 495.17 237.06 L 509.83 167.36 L 524.49 60.00 L 539.15 70.45 L 553.81 66.18 L 568.47 146.17 L 583.14 277.24 L 597.80 326.96 L 612.46 337.79 L 627.12 375.00 L 641.78 333.06 L 656.44 308.20 L 671.10 290.89 L 685.76 264.74 L 700.42 247.28 L 715.08 278.92 L 729.75 241.33 L 744.41 272.67 L 759.07 307.67 L 773.73 264.05 L 788.39 273.13 L 803.05 273.58 L 817.71 183.07 L 832.37 209.46 L 847.03 304.77 L 861.69 329.32 L 876.36 342.21 L 891.02 374.85 L 905.68 360.82 L 920.34 332.91 L 935.00 310.11" fill="none" stroke="#69a7ff" stroke-width="4" stroke-linecap="round" stroke-linejoin="round"/>
<circle cx="935.00" cy="310.11" r="6" fill="#69a7ff"/>
</svg>