<svg xmlns="http://www.w3.org/2000/svg" width="960" height="430" viewBox="0 0 960 430" role="img" aria-label="Composite score history">
<rect width="100%" height="100%" fill="#0b1020" rx="20"/>
<text x="70" y="32" fill="#f5f7fb" font-family="Inter, Arial, sans-serif" font-size="24" font-weight="700">Composite score history</text>
<text x="70" y="52" fill="#93a4c3" font-family="Inter, Arial, sans-serif" font-size="13">Trailing 79 sessions through 2025-12-17</text>
<line x1="70" x2="935" y1="375.00" y2="375.00" stroke="#27314e" stroke-width="1"/>
<text x="58" y="379.00" text-anchor="end" fill="#93a4c3" font-family="Inter, Arial, sans-serif" font-size="12">0</text>
<line x1="70" x2="935" y1="312.00" y2="312.00" stroke="#27314e" stroke-width="1"/>
<text x="58" y="316.00" text-anchor="end" fill="#93a4c3" font-family="Inter, Arial, sans-serif" font-size="12">8</text>
<line x1="70" x2="935" y1="249.00" y2="249.00" stroke="#27314e" stroke-width="1"/>
<text x="58" y="253.00" text-anchor="end" fill="#93a4c3" font-family="Inter, Arial, sans-serif" font-size="12">17</text>
<line x1="70" x2="935" y1="186.00" y2="186.00" stroke="#27314e" stroke-width="1"/>
<text x="58" y="190.00" text-anchor="end" fill="#93a4c3" font-family="Inter, Arial, sans-serif" font-size="12">25</text>
<line x1="70" x2="935" y1="123.00" y2="123.00" stroke="#27314e" stroke-width="1"/>
<text x="58" y="127.00" text-anchor="end" fill="#93a4c3" font-family="Inter, Arial, sans-serif" font-size="12">33</text>
<line x1="70" x2="935" y1="60.00" y2="60.00" stroke="#27314e" stroke-width="1"/>
<text x="58" y="64.00" text-anchor="end" fill="#93a4c3" font-family="Inter, Arial, sans-serif" font-size="12">41</text>
<text x="70.00" y="412" text-anchor="middle" fill="#93a4c3" font-family="Inter, Arial, sans-serif" font-size="12">2025-08-25</text>
<text x="502.50" y="412" text-anchor="middle" fill="#93a4c3" font-family="Inter, Arial, sans-serif" font-size="12">2025-10-21</text>
<text x="935.00" y="412" text-anchor="middle" fill="#93a4c3" font-family="Inter, Arial, sans-serif" font-size="12">2025-12-17</text>
<path d="M 70.00 265.65 L 81.09 275.64 L 92.18 279.53 L 103.27 291.88 L 114.36 273.89 L 125.45 225.47 L 136.54 243.31 L 147.63 278.39 L 158.72 265.27 L 169.81 295.39 L 180.90 309.58 L 191.99 305.99 L 203.08 310.95 L 214.17 297.45 L 225.26 295.09 L 236.35 293.87 L 247.44 287.46 L 258.53 253.38 L 269.62 288.22 L 280.71 266.64 L 291.79 279.46 L 302.88 266.03 L 313.97 222.49 L 325.06 245.75 L 336.15 247.43 L 347.24 259.32 L 358.33 297.76 L 369.42 309.80 L 380.51 286.01 L 391.60 296.54 L 402.69 271.60 L 413.78 278.85 L 424.87 256.96 L 435.96 123.98 L 447.05 175.75 L 458.14 212.66 L 469.23 109.03 L 480.32 196.19 L 491.41 336.57 L 502.50 309.88 L 513.59 285.33 L 524.68 232.33 L 535.77 267.94 L 546.86 285.48 L 557.95 299.36 L 569.04 266.80 L 580.13 256.12 L 591.22 236.53 L 602.31 192.98 L 613.40 135.80 L 624.49 183.68 L 635.58 184.67 L 646.67 190.93 L 657.76 255.59 L 668.85 294.63 L 679.94 209.53 L 691.03 237.06 L 702.12 167.36 L 713.21 60.00 L 724.29 70.45 L 735.38 66.18 L 746.47 146.17 L 757.56 277.24 L 768.65 326.96 L 779.74 337.79 L 790.83 375.00 L 801.92 333.06 L 813.01 308.20 L 824.10 290.89 L 835.19 264.74 L 846.28 247.28 L 857.37 278.92 L 868.46 241.33 L 879.55 272.67 L 890.64 307.67 L 901.73 264.05 L 912.82 273.13 L 923.91 273.58 L 935.00 183.07" fill="none" stroke="#69a7ff" stroke-width="4" stroke-linecap="round" stroke-linejoin="round"/>
<circle cx="935.00" cy="183.07" r="6" fill="#69a7ff"/>
</svg>