<svg xmlns="http://www.w3.org/2000/svg" width="960" height="430" viewBox="0 0 960 430" role="img" aria-label="Composite score history">
<rect width="100%" height="100%" fill="#0b1020" rx="20"/>
<text x="70" y="32" fill="#f5f7fb" font-family="Inter, Arial, sans-serif" font-size="24" font-weight="700">Composite score history</text>
<text x="70" y="52" fill="#93a4c3" font-family="Inter, Arial, sans-serif" font-size="13">Trailing 60 sessions through 2025-12-17</text>
<line x1="70" x2="935" y1="375.00" y2="375.00" stroke="#27314e" stroke-width="1"/>
<text x="58" y="379.00" text-anchor="end" fill="#93a4c3" font-family="Inter, Arial, sans-serif" font-size="12">0</text>
<line x1="70" x2="935" y1="312.00" y2="312.00" stroke="#27314e" stroke-width="1"/>
<text x="58" y="316.00" text-anchor="end" fill="#93a4c3" font-family="Inter, Arial, sans-serif" font-size="12">8</text>
<line x1="70" x2="935" y1="249.00" y2="249.00" stroke="#27314e" stroke-width="1"/>
<text x="58" y="253.00" text-anchor="end" fill="#93a4c3" font-family="Inter, Arial, sans-serif" font-size="12">17</text>
<line x1="70" x2="935" y1="186.00" y2="186.00" stroke="#27314e" stroke-width="1"/>
<text x="58" y="190.00" text-anchor="end" fill="#93a4c3" font-family="Inter, Arial, sans-serif" font-size="12">25</text>
<line x1="70" x2="935" y1="123.00" y2="123.00" stroke="#27314e" stroke-width="1"/>
<text x="58" y="127.00" text-anchor="end" fill="#93a4c3" font-family="Inter, Arial, sans-serif" font-size="12">33</text>
<line x1="70" x2="935" y1="60.00" y2="60.00" stroke="#27314e" stroke-width="1"/>
<text x="58" y="64.00" text-anchor="end" fill="#93a4c3" font-family="Inter, Arial, sans-serif" font-size="12">41</text>
<text x="70.00" y="412" text-anchor="middle" fill="#93a4c3" font-family="Inter, Arial, sans-serif" font-size="12">2025-09-22</text>
<text x="509.83" y="412" text-anchor="middle" fill="#93a4c3" font-family="Inter, Arial, sans-serif" font-size="12">2025-11-04</text>
<text x="935.00" y="412" text-anchor="middle" fill="#93a4c3" font-family="Inter, Arial, sans-serif" font-size="12">2025-12-17</text>
<path d="M 70.00 272.14 L 84.66 248.27 L 99.32 241.41 L 113.98 202.52 L 128.64 241.25 L 143.31 247.43 L 157.97 259.32 L 172.63 297.76 L 187.29 309.80 L 201.95 286.01 L 216.61 296.54 L 231.27 271.60 L 245.93 278.85 L 260.59 256.96 L 275.25 123.98 L 289.92 175.75 L 304.58 212.66 L 319.24 109.03 L 333.90 196.19 L 348.56 336.57 L 363.22 309.88 L 377.88 285.33 L 392.54 232.33 L 407.20 267.94 L 421.86 285.48 L 436.53 299.36 L 451.19 266.80 L 465.85 256.12 L 480.51 236.53 L 495.17 192.98 L 509.83 135.80 L 524.49 183.68 L 539.15 184.67 L 553.81 190.93 L 568.47 255.59 L 583.14 294.63 L 597.80 209.53 L 612.46 237.06 L 627.12 167.36 L 641.78 60.00 L 656.44 70.45 L 671.10 66.18 L 685.76 146.17 L 700.42 277.24 L 715.08 326.96 L 729.75 337.79 L 744.41 375.00 L 759.07 333.06 L 773.73 308.20 L 788.39 290.89 L 803.05 264.74 L 817.71 247.28 L 832.37 278.92 L 847.03 241.33 L 861.69 272.67 L 876.36 307.67 L 891.02 264.05 L 905.68 273.13 L 920.34 273.58 L 935.00 183.07" fill="none" stroke="#69a7ff" stroke-width="4" stroke-linecap="round" stroke-linejoin="round"/>
<circle cx="935.00" cy="183.07" r="6" fill="#69a7ff"/>
</svg>