<svg xmlns="http://www.w3.org/2000/svg" width="960" height="430" viewBox="0 0 960 430" role="img" aria-label="Composite score history">
<rect width="100%" height="100%" fill="#0b1020" rx="20"/>
<text x="70" y="32" fill="#f5f7fb" font-family="Inter, Arial, sans-serif" font-size="24" font-weight="700">Composite score history</text>
<text x="70" y="52" fill="#93a4c3" font-family="Inter, Arial, sans-serif" font-size="13">Trailing 88 sessions through 2025-12-17</text>
<line x1="70" x2="935" y1="375.00" y2="375.00" stroke="#27314e" stroke-width="1"/>
<text x="58" y="379.00" text-anchor="end" fill="#93a4c3" font-family="Inter, Arial, sans-serif" font-size="12">0</text>
<line x1="70" x2="935" y1="312.00" y2="312.00" stroke="#27314e" stroke-width="1"/>
<text x="58" y="316.00" text-anchor="end" fill="#93a4c3" font-family="Inter, Arial, sans-serif" font-size="12">8</text>
<line x1="70" x2="935" y1="249.00" y2="249.00" stroke="#27314e" stroke-width="1"/>
<text x="58" y="253.00" text-anchor="end" fill="#93a4c3" font-family="Inter, Arial, sans-serif" font-size="12">17</text>
<line x1="70" x2="935" y1="186.00" y2="186.00" stroke="#27314e" stroke-width="1"/>
<text x="58" y="190.00" text-anchor="end" fill="#93a4c3" font-family="Inter, Arial, sans-serif" font-size="12">25</text>
<line x1="70" x2="935" y1="123.00" y2="123.00" stroke="#27314e" stroke-width="1"/>
<text x="58" y="127.00" text-anchor="end" fill="#93a4c3" font-family="Inter, Arial, sans-serif" font-size="12">33</text>
<line x1="70" x2="935" y1="60.00" y2="60.00" stroke="#27314e" stroke-width="1"/>
<text x="58" y="64.00" text-anchor="end" fill="#93a4c3" font-family="Inter, Arial, sans-serif" font-size="12">41</text>
<text x="70.00" y="412" text-anchor="middle" fill="#93a4c3" font-family="Inter, Arial, sans-serif" font-size="12">2025-08-12</text>
<text x="507.47" y="412" text-anchor="middle" fill="#93a4c3" font-family="Inter, Arial, sans-serif" font-size="12">2025-10-15</text>
<text x="935.00" y="412" text-anchor="middle" fill="#93a4c3" font-family="Inter, Arial, sans-serif" font-size="12">2025-12-17</text>
<path d="M 70.00 273.36 L 79.94 284.56 L 89.89 271.68 L 99.83 260.39 L 109.77 254.37 L 119.71 236.07 L 129.66 198.55 L 139.60 168.13 L 149.54 254.83 L 159.48 233.17 L 169.43 245.90 L 179.37 258.71 L 189.31 293.71 L 199.25 259.71 L 209.20 225.47 L 219.14 243.31 L 229.08 278.39 L 239.02 265.27 L 248.97 295.39 L 258.91 309.58 L 268.85 305.99 L 278.79 310.95 L 288.74 297.45 L 298.68 295.09 L 308.62 293.87 L 318.56 287.46 L 328.51 253.38 L 338.45 288.22 L 348.39 266.64 L 358.33 279.46 L 368.28 266.03 L 378.22 222.49 L 388.16 245.75 L 398.10 247.43 L 408.05 259.32 L 417.99 297.76 L 427.93 309.80 L 437.87 286.01 L 447.82 296.54 L 457.76 271.60 L 467.70 278.85 L 477.64 256.96 L 487.59 123.98 L 497.53 175.75 L 507.47 212.66 L 517.41 109.03 L 527.36 196.19 L 537.30 336.57 L 547.24 309.88 L 557.18 285.33 L 567.13 232.33 L 577.07 267.94 L 587.01 285.48 L 596.95 299.36 L 606.90 266.80 L 616.84 256.12 L 626.78 236.53 L 636.72 192.98 L 646.67 135.80 L 656.61 183.68 L 666.55 184.67 L 676.49 190.93 L 686.44 255.59 L 696.38 294.63 L 706.32 209.53 L 716.26 237.06 L 726.21 167.36 L 736.15 60.00 L 746.09 70.45 L 756.03 66.18 L 765.98 146.17 L 775.92 277.24 L 785.86 326.96 L 795.80 337.79 L 805.75 375.00 L 815.69 333.06 L 825.63 308.20 L 835.57 290.89 L 845.52 264.74 L 855.46 247.28 L 865.40 278.92 L 875.34 241.33 L 885.29 272.67 L 895.23 307.67 L 905.17 264.05 L 915.11 273.13 L 925.06 273.58 L 935.00 183.07" fill="none" stroke="#69a7ff" stroke-width="4" stroke-linecap="round" stroke-linejoin="round"/>
<circle cx="935.00" cy="183.07" r="6" fill="#69a7ff"/>
</svg>