<svg xmlns="http://www.w3.org/2000/svg" width="960" height="430" viewBox="0 0 960 430" role="img" aria-label="Composite score history">
<rect width="100%" height="100%" fill="#0b1020" rx="20"/>
<text x="70" y="32" fill="#f5f7fb" font-family="Inter, Arial, sans-serif" font-size="24" font-weight="700">Composite score history</text>
<text x="70" y="52" fill="#93a4c3" font-family="Inter, Arial, sans-serif" font-size="13">Trailing 84 sessions through 2026-01-07</text>
<line x1="70" x2="935" y1="375.00" y2="375.00" stroke="#27314e" stroke-width="1"/>
<text x="58" y="379.00" text-anchor="end" fill="#93a4c3" font-family="Inter, Arial, sans-serif" font-size="12">0</text>
<line x1="70" x2="935" y1="312.00" y2="312.00" stroke="#27314e" stroke-width="1"/>
<text x="58" y="316.00" text-anchor="end" fill="#93a4c3" font-family="Inter, Arial, sans-serif" font-size="12">8</text>
<line x1="70" x2="935" y1="249.00" y2="249.00" stroke="#27314e" stroke-width="1"/>
<text x="58" y="253.00" text-anchor="end" fill="#93a4c3" font-family="Inter, Arial, sans-serif" font-size="12">17</text>
<line x1="70" x2="935" y1="186.00" y2="186.00" stroke="#27314e" stroke-width="1"/>
<text x="58" y="190.00" text-anchor="end" fill="#93a4c3" font-family="Inter, Arial, sans-serif" font-size="12">25</text>
<line x1="70" x2="935" y1="123.00" y2="123.00" stroke="#27314e" stroke-width="1"/>
<text x="58" y="127.00" text-anchor="end" fill="#93a4c3" font-family="Inter, Arial, sans-serif" font-size="12">33</text>
<line x1="70" x2="935" y1="60.00" y2="60.00" stroke="#27314e" stroke-width="1"/>
<text x="58" y="64.00" text-anchor="end" fill="#93a4c3" font-family="Inter, Arial, sans-serif" font-size="12">41</text>
<text x="70.00" y="412" text-anchor="middle" fill="#93a4c3" font-family="Inter, Arial, sans-serif" font-size="12">2025-09-05</text>
<text x="507.71" y="412" text-anchor="middle" fill="#93a4c3" font-family="Inter, Arial, sans-serif" font-size="12">2025-11-05</text>
<text x="935.00" y="412" text-anchor="middle" fill="#93a4c3" font-family="Inter, Arial, sans-serif" font-size="12">2026-01-07</text>
<path d="M 70.00 282.58 L 80.42 289.14 L 90.84 276.94 L 101.27 285.71 L 111.69 314.07 L 122.11 297.45 L 132.53 295.09 L 142.95 293.87 L 153.37 287.46 L 163.80 253.38 L 174.22 288.22 L 184.64 266.64 L 195.06 279.46 L 205.48 266.03 L 215.90 222.49 L 226.33 245.75 L 236.75 247.43 L 247.17 259.32 L 257.59 297.76 L 268.01 309.80 L 278.43 286.01 L 288.86 296.54 L 299.28 271.60 L 309.70 278.85 L 320.12 256.96 L 330.54 123.98 L 340.96 175.75 L 351.39 212.66 L 361.81 109.03 L 372.23 196.19 L 382.65 336.57 L 393.07 309.88 L 403.49 285.33 L 413.92 232.33 L 424.34 267.94 L 434.76 285.48 L 445.18 299.36 L 455.60 266.80 L 466.02 256.12 L 476.45 236.53 L 486.87 192.98 L 497.29 135.80 L 507.71 183.68 L 518.13 184.67 L 528.55 190.93 L 538.98 255.59 L 549.40 294.63 L 559.82 209.53 L 570.24 237.06 L 580.66 167.36 L 591.08 60.00 L 601.51 70.45 L 611.93 66.18 L 622.35 146.17 L 632.77 277.24 L 643.19 326.96 L 653.61 337.79 L 664.04 375.00 L 674.46 333.06 L 684.88 308.20 L 695.30 290.89 L 705.72 264.74 L 716.14 247.28 L 726.57 278.92 L 736.99 241.33 L 747.41 272.67 L 757.83 307.67 L 768.25 264.05 L 778.67 273.13 L 789.10 273.58 L 799.52 183.07 L 809.94 209.46 L 820.36 304.77 L 830.78 329.32 L 841.20 342.21 L 851.63 374.85 L 862.05 360.82 L 872.47 332.91 L 882.89 310.11 L 893.31 254.37 L 903.73 241.41 L 914.16 250.25 L 924.58 274.96 L 935.00 271.37" fill="none" stroke="#69a7ff" stroke-width="4" stroke-linecap="round" stroke-linejoin="round"/>
<circle cx="935.00" cy="271.37" r="6" fill="#69a7ff"/>
</svg>