<svg xmlns="http://www.w3.org/2000/svg" width="960" height="430" viewBox="0 0 960 430" role="img" aria-label="Composite score history">
<rect width="100%" height="100%" fill="#0b1020" rx="20"/>
<text x="70" y="32" fill="#f5f7fb" font-family="Inter, Arial, sans-serif" font-size="24" font-weight="700">Composite score history</text>
<text x="70" y="52" fill="#93a4c3" font-family="Inter, Arial, sans-serif" font-size="13">Trailing 77 sessions through 2026-01-07</text>
<line x1="70" x2="935" y1="375.00" y2="375.00" stroke="#27314e" stroke-width="1"/>
<text x="58" y="379.00" text-anchor="end" fill="#93a4c3" font-family="Inter, Arial, sans-serif" font-size="12">0</text>
<line x1="70" x2="935" y1="312.00" y2="312.00" stroke="#27314e" stroke-width="1"/>
<text x="58" y="316.00" text-anchor="end" fill="#93a4c3" font-family="Inter, Arial, sans-serif" font-size="12">8</text>
<line x1="70" x2="935" y1="249.00" y2="249.00" stroke="#27314e" stroke-width="1"/>
<text x="58" y="253.00" text-anchor="end" fill="#93a4c3" font-family="Inter, Arial, sans-serif" font-size="12">17</text>
<line x1="70" x2="935" y1="186.00" y2="186.00" stroke="#27314e" stroke-width="1"/>
<text x="58" y="190.00" text-anchor="end" fill="#93a4c3" font-family="Inter, Arial, sans-serif" font-size="12">25</text>
<line x1="70" x2="935" y1="123.00" y2="123.00" stroke="#27314e" stroke-width="1"/>
<text x="58" y="127.00" text-anchor="end" fill="#93a4c3" font-family="Inter, Arial, sans-serif" font-size="12">33</text>
<line x1="70" x2="935" y1="60.00" y2="60.00" stroke="#27314e" stroke-width="1"/>
<text x="58" y="64.00" text-anchor="end" fill="#93a4c3" font-family="Inter, Arial, sans-serif" font-size="12">41</text>
<text x="70.00" y="412" text-anchor="middle" fill="#93a4c3" font-family="Inter, Arial, sans-serif" font-size="12">2025-09-16</text>
<text x="502.50" y="412" text-anchor="middle" fill="#93a4c3" font-family="Inter, Arial, sans-serif" font-size="12">2025-11-10</text>
<text x="935.00" y="412" text-anchor="middle" fill="#93a4c3" font-family="Inter, Arial, sans-serif" font-size="12">2026-01-07</text>
<path d="M 70.00 275.72 L 81.38 267.25 L 92.76 255.59 L 104.14 271.37 L 115.53 266.72 L 126.91 279.46 L 138.29 266.03 L 149.67 222.49 L 161.05 245.75 L 172.43 247.43 L 183.82 259.32 L 195.20 297.76 L 206.58 309.80 L 217.96 286.01 L 229.34 296.54 L 240.72 271.60 L 252.11 278.85 L 263.49 256.96 L 274.87 123.98 L 286.25 175.75 L 297.63 212.66 L 309.01 109.03 L 320.39 196.19 L 331.78 336.57 L 343.16 309.88 L 354.54 285.33 L 365.92 232.33 L 377.30 267.94 L 388.68 285.48 L 400.07 299.36 L 411.45 266.80 L 422.83 256.12 L 434.21 236.53 L 445.59 192.98 L 456.97 135.80 L 468.36 183.68 L 479.74 184.67 L 491.12 190.93 L 502.50 255.59 L 513.88 294.63 L 525.26 209.53 L 536.64 237.06 L 548.03 167.36 L 559.41 60.00 L 570.79 70.45 L 582.17 66.18 L 593.55 146.17 L 604.93 277.24 L 616.32 326.96 L 627.70 337.79 L 639.08 375.00 L 650.46 333.06 L 661.84 308.20 L 673.22 290.89 L 684.61 264.74 L 695.99 247.28 L 707.37 278.92 L 718.75 241.33 L 730.13 272.67 L 741.51 307.67 L 752.89 264.05 L 764.28 273.13 L 775.66 273.58 L 787.04 183.07 L 798.42 209.46 L 809.80 304.77 L 821.18 329.32 L 832.57 342.21 L 843.95 374.85 L 855.33 360.82 L 866.71 332.91 L 878.09 310.11 L 889.47 254.37 L 900.86 241.41 L 912.24 250.25 L 923.62 274.96 L 935.00 271.37" fill="none" stroke="#69a7ff" stroke-width="4" stroke-linecap="round" stroke-linejoin="round"/>
<circle cx="935.00" cy="271.37" r="6" fill="#69a7ff"/>
</svg>