<svg xmlns="http://www.w3.org/2000/svg" width="960" height="430" viewBox="0 0 960 430" role="img" aria-label="Composite score history">
<rect width="100%" height="100%" fill="#0b1020" rx="20"/>
<text x="70" y="32" fill="#f5f7fb" font-family="Inter, Arial, sans-serif" font-size="24" font-weight="700">Composite score history</text>
<text x="70" y="52" fill="#93a4c3" font-family="Inter, Arial, sans-serif" font-size="13">Trailing 82 sessions through 2026-01-07</text>
<line x1="70" x2="935" y1="375.00" y2="375.00" stroke="#27314e" stroke-width="1"/>
<text x="58" y="379.00" text-anchor="end" fill="#93a4c3" font-family="Inter, Arial, sans-serif" font-size="12">0</text>
<line x1="70" x2="935" y1="312.00" y2="312.00" stroke="#27314e" stroke-width="1"/>
<text x="58" y="316.00" text-anchor="end" fill="#93a4c3" font-family="Inter, Arial, sans-serif" font-size="12">8</text>
<line x1="70" x2="935" y1="249.00" y2="249.00" stroke="#27314e" stroke-width="1"/>
<text x="58" y="253.00" text-anchor="end" fill="#93a4c3" font-family="Inter, Arial, sans-serif" font-size="12">17</text>
<line x1="70" x2="935" y1="186.00" y2="186.00" stroke="#27314e" stroke-width="1"/>
<text x="58" y="190.00" text-anchor="end" fill="#93a4c3" font-family="Inter, Arial, sans-serif" font-size="12">25</text>
<line x1="70" x2="935" y1="123.00" y2="123.00" stroke="#27314e" stroke-width="1"/>
<text x="58" y="127.00" text-anchor="end" fill="#93a4c3" font-family="Inter, Arial, sans-serif" font-size="12">33</text>
<line x1="70" x2="935" y1="60.00" y2="60.00" stroke="#27314e" stroke-width="1"/>
<text x="58" y="64.00" text-anchor="end" fill="#93a4c3" font-family="Inter, Arial, sans-serif" font-size="12">41</text>
<text x="70.00" y="412" text-anchor="middle" fill="#93a4c3" font-family="Inter, Arial, sans-serif" font-size="12">2025-09-09</text>
<text x="507.84" y="412" text-anchor="middle" fill="#93a4c3" font-family="Inter, Arial, sans-serif" font-size="12">2025-11-06</text>
<text x="935.00" y="412" text-anchor="middle" fill="#93a4c3" font-family="Inter, Arial, sans-serif" font-size="12">2026-01-07</text>
<path d="M 70.00 280.75 L 80.68 284.72 L 91.36 307.82 L 102.04 297.37 L 112.72 304.62 L 123.40 293.87 L 134.07 287.46 L 144.75 253.38 L 155.43 288.22 L 166.11 266.64 L 176.79 279.46 L 187.47 266.03 L 198.15 222.49 L 208.83 245.75 L 219.51 247.43 L 230.19 259.32 L 240.86 297.76 L 251.54 309.80 L 262.22 286.01 L 272.90 296.54 L 283.58 271.60 L 294.26 278.85 L 304.94 256.96 L 315.62 123.98 L 326.30 175.75 L 336.98 212.66 L 347.65 109.03 L 358.33 196.19 L 369.01 336.57 L 379.69 309.88 L 390.37 285.33 L 401.05 232.33 L 411.73 267.94 L 422.41 285.48 L 433.09 299.36 L 443.77 266.80 L 454.44 256.12 L 465.12 236.53 L 475.80 192.98 L 486.48 135.80 L 497.16 183.68 L 507.84 184.67 L 518.52 190.93 L 529.20 255.59 L 539.88 294.63 L 550.56 209.53 L 561.23 237.06 L 571.91 167.36 L 582.59 60.00 L 593.27 70.45 L 603.95 66.18 L 614.63 146.17 L 625.31 277.24 L 635.99 326.96 L 646.67 337.79 L 657.35 375.00 L 668.02 333.06 L 678.70 308.20 L 689.38 290.89 L 700.06 264.74 L 710.74 247.28 L 721.42 278.92 L 732.10 241.33 L 742.78 272.67 L 753.46 307.67 L 764.14 264.05 L 774.81 273.13 L 785.49 273.58 L 796.17 183.07 L 806.85 209.46 L 817.53 304.77 L 828.21 329.32 L 838.89 342.21 L 849.57 374.85 L 860.25 360.82 L 870.93 332.91 L 881.60 310.11 L 892.28 254.37 L 902.96 241.41 L 913.64 250.25 L 924.32 274.96 L 935.00 271.37" fill="none" stroke="#69a7ff" stroke-width="4" stroke-linecap="round" stroke-linejoin="round"/>
<circle cx="935.00" cy="271.37" r="6" fill="#69a7ff"/>
</svg>