<svg xmlns="http://www.w3.org/2000/svg" width="960" height="430" viewBox="0 0 960 430" role="img" aria-label="Composite score history">
<rect width="100%" height="100%" fill="#0b1020" rx="20"/>
<text x="70" y="32" fill="#f5f7fb" font-family="Inter, Arial, sans-serif" font-size="24" font-weight="700">Composite score history</text>
<text x="70" y="52" fill="#93a4c3" font-family="Inter, Arial, sans-serif" font-size="13">Trailing 75 sessions through 2026-01-07</text>
<line x1="70" x2="935" y1="375.00" y2="375.00" stroke="#27314e" stroke-width="1"/>
<text x="58" y="379.00" text-anchor="end" fill="#93a4c3" font-family="Inter, Arial, sans-serif" font-size="12">0</text>
<line x1="70" x2="935" y1="312.00" y2="312.00" stroke="#27314e" stroke-width="1"/>
<text x="58" y="316.00" text-anchor="end" fill="#93a4c3" font-family="Inter, Arial, sans-serif" font-size="12">8</text>
<line x1="70" x2="935" y1="249.00" y2="249.00" stroke="#27314e" stroke-width="1"/>
<text x="58" y="253.00" text-anchor="end" fill="#93a4c3" font-family="Inter, Arial, sans-serif" font-size="12">17</text>
<line x1="70" x2="935" y1="186.00" y2="186.00" stroke="#27314e" stroke-width="1"/>
<text x="58" y="190.00" text-anchor="end" fill="#93a4c3" font-family="Inter, Arial, sans-serif" font-size="12">25</text>
<line x1="70" x2="935" y1="123.00" y2="123.00" stroke="#27314e" stroke-width="1"/>
<text x="58" y="127.00" text-anchor="end" fill="#93a4c3" font-family="Inter, Arial, sans-serif" font-size="12">33</text>
<line x1="70" x2="935" y1="60.00" y2="60.00" stroke="#27314e" stroke-width="1"/>
<text x="58" y="64.00" text-anchor="end" fill="#93a4c3" font-family="Inter, Arial, sans-serif" font-size="12">41</text>
<text x="70.00" y="412" text-anchor="middle" fill="#93a4c3" font-family="Inter, Arial, sans-serif" font-size="12">2025-09-18</text>
<text x="502.50" y="412" text-anchor="middle" fill="#93a4c3" font-family="Inter, Arial, sans-serif" font-size="12">2025-11-12</text>
<text x="935.00" y="412" text-anchor="middle" fill="#93a4c3" font-family="Inter, Arial, sans-serif" font-size="12">2026-01-07</text>
<path d="M 70.00 274.27 L 81.69 286.17 L 93.38 274.88 L 105.07 273.58 L 116.76 272.06 L 128.45 222.49 L 140.14 245.75 L 151.82 247.43 L 163.51 259.32 L 175.20 297.76 L 186.89 309.80 L 198.58 286.01 L 210.27 296.54 L 221.96 271.60 L 233.65 278.85 L 245.34 256.96 L 257.03 123.98 L 268.72 175.75 L 280.41 212.66 L 292.09 109.03 L 303.78 196.19 L 315.47 336.57 L 327.16 309.88 L 338.85 285.33 L 350.54 232.33 L 362.23 267.94 L 373.92 285.48 L 385.61 299.36 L 397.30 266.80 L 408.99 256.12 L 420.68 236.53 L 432.36 192.98 L 444.05 135.80 L 455.74 183.68 L 467.43 184.67 L 479.12 190.93 L 490.81 255.59 L 502.50 294.63 L 514.19 209.53 L 525.88 237.06 L 537.57 167.36 L 549.26 60.00 L 560.95 70.45 L 572.64 66.18 L 584.32 146.17 L 596.01 277.24 L 607.70 326.96 L 619.39 337.79 L 631.08 375.00 L 642.77 333.06 L 654.46 308.20 L 666.15 290.89 L 677.84 264.74 L 689.53 247.28 L 701.22 278.92 L 712.91 241.33 L 724.59 272.67 L 736.28 307.67 L 747.97 264.05 L 759.66 273.13 L 771.35 273.58 L 783.04 183.07 L 794.73 209.46 L 806.42 304.77 L 818.11 329.32 L 829.80 342.21 L 841.49 374.85 L 853.18 360.82 L 864.86 332.91 L 876.55 310.11 L 888.24 254.37 L 899.93 241.41 L 911.62 250.25 L 923.31 274.96 L 935.00 271.37" fill="none" stroke="#69a7ff" stroke-width="4" stroke-linecap="round" stroke-linejoin="round"/>
<circle cx="935.00" cy="271.37" r="6" fill="#69a7ff"/>
</svg>