<svg xmlns="http://www.w3.org/2000/svg" width="960" height="430" viewBox="0 0 960 430" role="img" aria-label="Composite score history">
<rect width="100%" height="100%" fill="#0b1020" rx="20"/>
<text x="70" y="32" fill="#f5f7fb" font-family="Inter, Arial, sans-serif" font-size="24" font-weight="700">Composite score history</text>
<text x="70" y="52" fill="#93a4c3" font-family="Inter, Arial, sans-serif" font-size="13">Trailing 65 sessions through 2026-01-07</text>
<line x1="70" x2="935" y1="375.00" y2="375.00" stroke="#27314e" stroke-width="1"/>
<text x="58" y="379.00" text-anchor="end" fill="#93a4c3" font-family="Inter, Arial, sans-serif" font-size="12">0</text>
<line x1="70" x2="935" y1="312.00" y2="312.00" stroke="#27314e" stroke-width="1"/>
<text x="58" y="316.00" text-anchor="end" fill="#93a4c3" font-family="Inter, Arial, sans-serif" font-size="12">8</text>
<line x1="70" x2="935" y1="249.00" y2="249.00" stroke="#27314e" stroke-width="1"/>
<text x="58" y="253.00" text-anchor="end" fill="#93a4c3" font-family="Inter, Arial, sans-serif" font-size="12">17</text>
<line x1="70" x2="935" y1="186.00" y2="186.00" stroke="#27314e" stroke-width="1"/>
<text x="58" y="190.00" text-anchor="end" fill="#93a4c3" font-family="Inter, Arial, sans-serif" font-size="12">25</text>
<line x1="70" x2="935" y1="123.00" y2="123.00" stroke="#27314e" stroke-width="1"/>
<text x="58" y="127.00" text-anchor="end" fill="#93a4c3" font-family="Inter, Arial, sans-serif" font-size="12">33</text>
<line x1="70" x2="935" y1="60.00" y2="60.00" stroke="#27314e" stroke-width="1"/>
<text x="58" y="64.00" text-anchor="end" fill="#93a4c3" font-family="Inter, Arial, sans-serif" font-size="12">41</text>
<text x="70.00" y="412" text-anchor="middle" fill="#93a4c3" font-family="Inter, Arial, sans-serif" font-size="12">2025-10-02</text>
<text x="502.50" y="412" text-anchor="middle" fill="#93a4c3" font-family="Inter, Arial, sans-serif" font-size="12">2025-11-19</text>
<text x="935.00" y="412" text-anchor="middle" fill="#93a4c3" font-family="Inter, Arial, sans-serif" font-size="12">2026-01-07</text>
<path d="M 70.00 277.85 L 83.52 262.07 L 97.03 263.67 L 110.55 252.46 L 124.06 270.08 L 137.58 256.96 L 151.09 123.98 L 164.61 175.75 L 178.12 212.66 L 191.64 109.03 L 205.16 196.19 L 218.67 336.57 L 232.19 309.88 L 245.70 285.33 L 259.22 232.33 L 272.73 267.94 L 286.25 285.48 L 299.77 299.36 L 313.28 266.80 L 326.80 256.12 L 340.31 236.53 L 353.83 192.98 L 367.34 135.80 L 380.86 183.68 L 394.38 184.67 L 407.89 190.93 L 421.41 255.59 L 434.92 294.63 L 448.44 209.53 L 461.95 237.06 L 475.47 167.36 L 488.98 60.00 L 502.50 70.45 L 516.02 66.18 L 529.53 146.17 L 543.05 277.24 L 556.56 326.96 L 570.08 337.79 L 583.59 375.00 L 597.11 333.06 L 610.62 308.20 L 624.14 290.89 L 637.66 264.74 L 651.17 247.28 L 664.69 278.92 L 678.20 241.33 L 691.72 272.67 L 705.23 307.67 L 718.75 264.05 L 732.27 273.13 L 745.78 273.58 L 759.30 183.07 L 772.81 209.46 L 786.33 304.77 L 799.84 329.32 L 813.36 342.21 L 826.88 374.85 L 840.39 360.82 L 853.91 332.91 L 867.42 310.11 L 880.94 254.37 L 894.45 241.41 L 907.97 250.25 L 921.48 274.96 L 935.00 271.37" fill="none" stroke="#69a7ff" stroke-width="4" stroke-linecap="round" stroke-linejoin="round"/>
<circle cx="935.00" cy="271.37" r="6" fill="#69a7ff"/>
</svg>