<svg xmlns="http://www.w3.org/2000/svg" width="960" height="430" viewBox="0 0 960 430" role="img" aria-label="Composite score history">
<rect width="100%" height="100%" fill="#0b1020" rx="20"/>
<text x="70" y="32" fill="#f5f7fb" font-family="Inter, Arial, sans-serif" font-size="24" font-weight="700">Composite score history</text>
<text x="70" y="52" fill="#93a4c3" font-family="Inter, Arial, sans-serif" font-size="13">Trailing 44 sessions through 2025-09-17</text>
<line x1="70" x2="935" y1="375.00" y2="375.00" stroke="#27314e" stroke-width="1"/>
<text x="58" y="379.00" text-anchor="end" fill="#93a4c3" font-family="Inter, Arial, sans-serif" font-size="12">12</text>
<line x1="70" x2="935" y1="312.00" y2="312.00" stroke="#27314e" stroke-width="1"/>
<text x="58" y="316.00" text-anchor="end" fill="#93a4c3" font-family="Inter, Arial, sans-serif" font-size="12">16</text>
<line x1="70" x2="935" y1="249.00" y2="249.00" stroke="#27314e" stroke-width="1"/>
<text x="58" y="253.00" text-anchor="end" fill="#93a4c3" font-family="Inter, Arial, sans-serif" font-size="12">20</text>
<line x1="70" x2="935" y1="186.00" y2="186.00" stroke="#27314e" stroke-width="1"/>
<text x="58" y="190.00" text-anchor="end" fill="#93a4c3" font-family="Inter, Arial, sans-serif" font-size="12">25</text>
<line x1="70" x2="935" y1="123.00" y2="123.00" stroke="#27314e" stroke-width="1"/>
<text x="58" y="127.00" text-anchor="end" fill="#93a4c3" font-family="Inter, Arial, sans-serif" font-size="12">29</text>
<line x1="70" x2="935" y1="60.00" y2="60.00" stroke="#27314e" stroke-width="1"/>
<text x="58" y="64.00" text-anchor="end" fill="#93a4c3" font-family="Inter, Arial, sans-serif" font-size="12">34</text>
<text x="70.00" y="412" text-anchor="middle" fill="#93a4c3" font-family="Inter, Arial, sans-serif" font-size="12">2025-07-17</text>
<text x="512.56" y="412" text-anchor="middle" fill="#93a4c3" font-family="Inter, Arial, sans-serif" font-size="12">2025-08-18</text>
<text x="935.00" y="412" text-anchor="middle" fill="#93a4c3" font-family="Inter, Arial, sans-serif" font-size="12">2025-09-17</text>
<path d="M 70.00 291.83 L 90.12 301.75 L 110.23 303.05 L 130.35 312.69 L 150.47 326.79 L 170.58 310.68 L 190.70 304.92 L 210.81 286.64 L 230.93 288.95 L 251.05 246.35 L 271.16 239.59 L 291.28 60.00 L 311.40 226.93 L 331.51 215.27 L 351.63 300.75 L 371.74 335.43 L 391.86 238.58 L 411.98 248.08 L 432.09 336.87 L 452.21 346.51 L 472.33 322.33 L 492.44 346.65 L 512.56 340.03 L 532.67 280.89 L 552.79 210.09 L 572.91 152.67 L 593.02 306.79 L 613.14 275.42 L 633.26 268.80 L 653.37 275.42 L 673.49 315.28 L 693.60 325.50 L 713.72 260.89 L 733.84 294.56 L 753.95 349.39 L 774.07 336.00 L 794.19 373.42 L 814.30 365.21 L 834.42 366.08 L 854.53 375.00 L 874.65 339.74 L 894.77 325.79 L 914.88 338.02 L 935.00 340.18" fill="none" stroke="#69a7ff" stroke-width="4" stroke-linecap="round" stroke-linejoin="round"/>
<circle cx="935.00" cy="340.18" r="6" fill="#69a7ff"/>
<text x="927.00" y="328.18" text-anchor="end" fill="#f5f7fb" font-family="Inter, Arial, sans-serif" font-size="12" font-weight="600">14.10</text>
</svg>