<svg xmlns="http://www.w3.org/2000/svg" width="960" height="430" viewBox="0 0 960 430">
<rect width="100%" height="100%" fill="#0b1020" rx="20"/>
<text x="70" y="32" fill="#f5f7fb" font-size="24" font-family="Inter, Arial, sans-serif" font-weight="700">Composite score history</text>
<text x="70" y="52" fill="#93a4c3" font-size="13" font-family="Inter, Arial, sans-serif">Trailing 44 sessions through 2025-09-17</text>
<line x1="70" x2="935" y1="375.00" y2="375.00" stroke="#27314e" stroke-width="1"/>
<text x="58" y="379.00" text-anchor="end" fill="#93a4c3" font-size="12" font-family="Inter, Arial, sans-serif">8</text>
<line x1="70" x2="935" y1="312.00" y2="312.00" stroke="#27314e" stroke-width="1"/>
<text x="58" y="316.00" text-anchor="end" fill="#93a4c3" font-size="12" font-family="Inter, Arial, sans-serif">13</text>
<line x1="70" x2="935" y1="249.00" y2="249.00" stroke="#27314e" stroke-width="1"/>
<text x="58" y="253.00" text-anchor="end" fill="#93a4c3" font-size="12" font-family="Inter, Arial, sans-serif">18</text>
<line x1="70" x2="935" y1="186.00" y2="186.00" stroke="#27314e" stroke-width="1"/>
<text x="58" y="190.00" text-anchor="end" fill="#93a4c3" font-size="12" font-family="Inter, Arial, sans-serif">24</text>
<line x1="70" x2="935" y1="123.00" y2="123.00" stroke="#27314e" stroke-width="1"/>
<text x="58" y="127.00" text-anchor="end" fill="#93a4c3" font-size="12" font-family="Inter, Arial, sans-serif">29</text>
<line x1="70" x2="935" y1="60.00" y2="60.00" stroke="#27314e" stroke-width="1"/>
<text x="58" y="64.00" text-anchor="end" fill="#93a4c3" font-size="12" font-family="Inter, Arial, sans-serif">34</text>
<text x="70.00" y="412" text-anchor="middle" fill="#93a4c3" font-size="12" font-family="Inter, Arial, sans-serif">2025-07-17</text>
<text x="512.56" y="412" text-anchor="middle" fill="#93a4c3" font-size="12" font-family="Inter, Arial, sans-serif">2025-08-18</text>
<text x="935.00" y="412" text-anchor="middle" fill="#93a4c3" font-size="12" font-family="Inter, Arial, sans-serif">2025-09-17</text>
<path d="M 70.00 261.66 L 90.12 270.29 L 110.23 275.55 L 130.35 285.93 L 150.47 322.58 L 170.58 310.82 L 190.70 318.71 L 210.81 298.94 L 230.93 289.56 L 251.05 224.13 L 271.16 216.25 L 291.28 60.00 L 311.40 205.24 L 331.51 195.11 L 351.63 269.42 L 371.74 299.94 L 391.86 291.18 L 411.98 245.15 L 432.09 373.62 L 452.21 369.00 L 472.33 351.61 L 492.44 338.85 L 512.56 340.72 L 532.67 252.15 L 552.79 190.60 L 572.91 140.69 L 593.02 282.93 L 613.14 247.40 L 633.26 268.29 L 653.37 289.31 L 673.49 346.73 L 693.60 290.93 L 713.72 234.76 L 733.84 264.04 L 753.95 321.58 L 774.07 300.07 L 794.19 349.48 L 814.30 372.75 L 834.42 366.87 L 854.53 375.00 L 874.65 352.86 L 894.77 348.98 L 914.88 346.98 L 935.00 336.47" fill="none" stroke="#69a7ff" stroke-width="4" stroke-linecap="round" stroke-linejoin="round"/>
<circle cx="935.00" cy="336.47" r="6" fill="#69a7ff"/>
</svg>