<svg xmlns="http://www.w3.org/2000/svg" width="960" height="430" viewBox="0 0 960 430" role="img" aria-label="Composite score history">
<rect width="100%" height="100%" fill="#0b1020" rx="20"/>
<text x="70" y="32" fill="#f5f7fb" font-family="Inter, Arial, sans-serif" font-size="24" font-weight="700">Composite score history</text>
<text x="70" y="52" fill="#93a4c3" font-family="Inter, Arial, sans-serif" font-size="13">Trailing 53 sessions through 2025-10-16</text>
<line x1="70" x2="935" y1="375.00" y2="375.00" stroke="#27314e" stroke-width="1"/>
<text x="58" y="379.00" text-anchor="end" fill="#93a4c3" font-family="Inter, Arial, sans-serif" font-size="12">8</text>
<line x1="70" x2="935" y1="312.00" y2="312.00" stroke="#27314e" stroke-width="1"/>
<text x="58" y="316.00" text-anchor="end" fill="#93a4c3" font-family="Inter, Arial, sans-serif" font-size="12">14</text>
<line x1="70" x2="935" y1="249.00" y2="249.00" stroke="#27314e" stroke-width="1"/>
<text x="58" y="253.00" text-anchor="end" fill="#93a4c3" font-family="Inter, Arial, sans-serif" font-size="12">19</text>
<line x1="70" x2="935" y1="186.00" y2="186.00" stroke="#27314e" stroke-width="1"/>
<text x="58" y="190.00" text-anchor="end" fill="#93a4c3" font-family="Inter, Arial, sans-serif" font-size="12">24</text>
<line x1="70" x2="935" y1="123.00" y2="123.00" stroke="#27314e" stroke-width="1"/>
<text x="58" y="127.00" text-anchor="end" fill="#93a4c3" font-family="Inter, Arial, sans-serif" font-size="12">30</text>
<line x1="70" x2="935" y1="60.00" y2="60.00" stroke="#27314e" stroke-width="1"/>
<text x="58" y="64.00" text-anchor="end" fill="#93a4c3" font-family="Inter, Arial, sans-serif" font-size="12">35</text>
<text x="70.00" y="412" text-anchor="middle" fill="#93a4c3" font-family="Inter, Arial, sans-serif" font-size="12">2025-08-01</text>
<text x="502.50" y="412" text-anchor="middle" fill="#93a4c3" font-family="Inter, Arial, sans-serif" font-size="12">2025-09-09</text>
<text x="935.00" y="412" text-anchor="middle" fill="#93a4c3" font-family="Inter, Arial, sans-serif" font-size="12">2025-10-16</text>
<path d="M 70.00 276.50 L 86.63 323.02 L 103.27 288.76 L 119.90 344.78 L 136.54 319.80 L 153.17 295.30 L 169.81 251.52 L 186.44 373.69 L 203.08 369.29 L 219.71 352.75 L 236.35 340.62 L 252.98 342.41 L 269.62 258.18 L 286.25 199.66 L 302.88 152.19 L 319.52 287.45 L 336.15 253.66 L 352.79 273.53 L 369.42 293.51 L 386.06 348.12 L 402.69 295.06 L 419.33 241.65 L 435.96 269.48 L 452.60 324.21 L 469.23 303.74 L 485.87 350.73 L 502.50 372.86 L 519.13 367.27 L 535.77 375.00 L 552.40 353.94 L 569.04 350.26 L 585.67 348.35 L 602.31 338.36 L 618.94 285.19 L 635.58 339.55 L 652.21 305.89 L 668.85 325.87 L 685.48 304.93 L 702.12 237.01 L 718.75 273.29 L 735.38 275.91 L 752.02 294.47 L 768.65 354.42 L 785.29 373.22 L 801.92 336.10 L 818.56 352.52 L 835.19 313.62 L 851.83 324.92 L 868.46 290.78 L 885.10 83.32 L 901.73 164.09 L 918.37 221.66 L 935.00 60.00" fill="none" stroke="#69a7ff" stroke-width="4" stroke-linecap="round" stroke-linejoin="round"/>
<circle cx="935.00" cy="60.00" r="6" fill="#69a7ff"/>
</svg>