<svg xmlns="http://www.w3.org/2000/svg" width="960" height="430" viewBox="0 0 960 430" role="img" aria-label="Composite score history">
<rect width="100%" height="100%" fill="#0b1020" rx="20"/>
<text x="70" y="32" fill="#f5f7fb" font-family="Inter, Arial, sans-serif" font-size="24" font-weight="700">Composite score history</text>
<text x="70" y="52" fill="#93a4c3" font-family="Inter, Arial, sans-serif" font-size="13">Trailing 56 sessions through 2025-10-16</text>
<line x1="70" x2="935" y1="375.00" y2="375.00" stroke="#27314e" stroke-width="1"/>
<text x="58" y="379.00" text-anchor="end" fill="#93a4c3" font-family="Inter, Arial, sans-serif" font-size="12">8</text>
<line x1="70" x2="935" y1="312.00" y2="312.00" stroke="#27314e" stroke-width="1"/>
<text x="58" y="316.00" text-anchor="end" fill="#93a4c3" font-family="Inter, Arial, sans-serif" font-size="12">14</text>
<line x1="70" x2="935" y1="249.00" y2="249.00" stroke="#27314e" stroke-width="1"/>
<text x="58" y="253.00" text-anchor="end" fill="#93a4c3" font-family="Inter, Arial, sans-serif" font-size="12">19</text>
<line x1="70" x2="935" y1="186.00" y2="186.00" stroke="#27314e" stroke-width="1"/>
<text x="58" y="190.00" text-anchor="end" fill="#93a4c3" font-family="Inter, Arial, sans-serif" font-size="12">24</text>
<line x1="70" x2="935" y1="123.00" y2="123.00" stroke="#27314e" stroke-width="1"/>
<text x="58" y="127.00" text-anchor="end" fill="#93a4c3" font-family="Inter, Arial, sans-serif" font-size="12">30</text>
<line x1="70" x2="935" y1="60.00" y2="60.00" stroke="#27314e" stroke-width="1"/>
<text x="58" y="64.00" text-anchor="end" fill="#93a4c3" font-family="Inter, Arial, sans-serif" font-size="12">35</text>
<text x="70.00" y="412" text-anchor="middle" fill="#93a4c3" font-family="Inter, Arial, sans-serif" font-size="12">2025-07-29</text>
<text x="510.36" y="412" text-anchor="middle" fill="#93a4c3" font-family="Inter, Arial, sans-serif" font-size="12">2025-09-08</text>
<text x="935.00" y="412" text-anchor="middle" fill="#93a4c3" font-family="Inter, Arial, sans-serif" font-size="12">2025-10-16</text>
<path d="M 70.00 285.07 L 85.73 237.72 L 101.45 199.89 L 117.18 103.42 L 132.91 241.65 L 148.64 203.94 L 164.36 274.60 L 180.09 303.63 L 195.82 295.30 L 211.55 251.52 L 227.27 373.69 L 243.00 369.29 L 258.73 352.75 L 274.45 340.62 L 290.18 342.41 L 305.91 258.18 L 321.64 199.66 L 337.36 152.19 L 353.09 287.45 L 368.82 253.66 L 384.55 273.53 L 400.27 293.51 L 416.00 348.12 L 431.73 295.06 L 447.45 241.65 L 463.18 269.48 L 478.91 324.21 L 494.64 303.74 L 510.36 350.73 L 526.09 372.86 L 541.82 367.27 L 557.55 375.00 L 573.27 353.94 L 589.00 350.26 L 604.73 348.35 L 620.45 338.36 L 636.18 285.19 L 651.91 339.55 L 667.64 305.89 L 683.36 325.87 L 699.09 304.93 L 714.82 237.01 L 730.55 273.29 L 746.27 275.91 L 762.00 294.47 L 777.73 354.42 L 793.45 373.22 L 809.18 336.10 L 824.91 352.52 L 840.64 313.62 L 856.36 324.92 L 872.09 290.78 L 887.82 83.32 L 903.55 164.09 L 919.27 221.66 L 935.00 60.00" fill="none" stroke="#69a7ff" stroke-width="4" stroke-linecap="round" stroke-linejoin="round"/>
<circle cx="935.00" cy="60.00" r="6" fill="#69a7ff"/>
</svg>