<svg xmlns="http://www.w3.org/2000/svg" width="960" height="430" viewBox="0 0 960 430" role="img" aria-label="Composite score history">
<rect width="100%" height="100%" fill="#0b1020" rx="20"/>
<text x="70" y="32" fill="#f5f7fb" font-family="Inter, Arial, sans-serif" font-size="24" font-weight="700">Composite score history</text>
<text x="70" y="52" fill="#93a4c3" font-family="Inter, Arial, sans-serif" font-size="13">Trailing 63 sessions through 2025-10-16</text>
<line x1="70" x2="935" y1="375.00" y2="375.00" stroke="#27314e" stroke-width="1"/>
<text x="58" y="379.00" text-anchor="end" fill="#93a4c3" font-family="Inter, Arial, sans-serif" font-size="12">8</text>
<line x1="70" x2="935" y1="312.00" y2="312.00" stroke="#27314e" stroke-width="1"/>
<text x="58" y="316.00" text-anchor="end" fill="#93a4c3" font-family="Inter, Arial, sans-serif" font-size="12">14</text>
<line x1="70" x2="935" y1="249.00" y2="249.00" stroke="#27314e" stroke-width="1"/>
<text x="58" y="253.00" text-anchor="end" fill="#93a4c3" font-family="Inter, Arial, sans-serif" font-size="12">19</text>
<line x1="70" x2="935" y1="186.00" y2="186.00" stroke="#27314e" stroke-width="1"/>
<text x="58" y="190.00" text-anchor="end" fill="#93a4c3" font-family="Inter, Arial, sans-serif" font-size="12">24</text>
<line x1="70" x2="935" y1="123.00" y2="123.00" stroke="#27314e" stroke-width="1"/>
<text x="58" y="127.00" text-anchor="end" fill="#93a4c3" font-family="Inter, Arial, sans-serif" font-size="12">30</text>
<line x1="70" x2="935" y1="60.00" y2="60.00" stroke="#27314e" stroke-width="1"/>
<text x="58" y="64.00" text-anchor="end" fill="#93a4c3" font-family="Inter, Arial, sans-serif" font-size="12">35</text>
<text x="70.00" y="412" text-anchor="middle" fill="#93a4c3" font-family="Inter, Arial, sans-serif" font-size="12">2025-07-18</text>
<text x="502.50" y="412" text-anchor="middle" fill="#93a4c3" font-family="Inter, Arial, sans-serif" font-size="12">2025-09-02</text>
<text x="935.00" y="412" text-anchor="middle" fill="#93a4c3" font-family="Inter, Arial, sans-serif" font-size="12">2025-10-16</text>
<path d="M 70.00 276.03 L 83.95 279.48 L 97.90 289.59 L 111.85 325.39 L 125.81 299.94 L 139.76 321.47 L 153.71 302.67 L 167.66 293.75 L 181.61 231.54 L 195.56 224.04 L 209.52 75.46 L 223.47 213.57 L 237.42 203.94 L 251.37 274.60 L 265.32 303.63 L 279.27 295.30 L 293.23 251.52 L 307.18 373.69 L 321.13 369.29 L 335.08 352.75 L 349.03 340.62 L 362.98 342.41 L 376.94 258.18 L 390.89 199.66 L 404.84 152.19 L 418.79 287.45 L 432.74 253.66 L 446.69 273.53 L 460.65 293.51 L 474.60 348.12 L 488.55 295.06 L 502.50 241.65 L 516.45 269.48 L 530.40 324.21 L 544.35 303.74 L 558.31 350.73 L 572.26 372.86 L 586.21 367.27 L 600.16 375.00 L 614.11 353.94 L 628.06 350.26 L 642.02 348.35 L 655.97 338.36 L 669.92 285.19 L 683.87 339.55 L 697.82 305.89 L 711.77 325.87 L 725.73 304.93 L 739.68 237.01 L 753.63 273.29 L 767.58 275.91 L 781.53 294.47 L 795.48 354.42 L 809.44 373.22 L 823.39 336.10 L 837.34 352.52 L 851.29 313.62 L 865.24 324.92 L 879.19 290.78 L 893.15 83.32 L 907.10 164.09 L 921.05 221.66 L 935.00 60.00" fill="none" stroke="#69a7ff" stroke-width="4" stroke-linecap="round" stroke-linejoin="round"/>
<circle cx="935.00" cy="60.00" r="6" fill="#69a7ff"/>
</svg>