<svg xmlns="http://www.w3.org/2000/svg" width="960" height="430" viewBox="0 0 960 430" role="img" aria-label="Composite score history">
<rect width="100%" height="100%" fill="#0b1020" rx="20"/>
<text x="70" y="32" fill="#f5f7fb" font-family="Inter, Arial, sans-serif" font-size="24" font-weight="700">Composite score history</text>
<text x="70" y="52" fill="#93a4c3" font-family="Inter, Arial, sans-serif" font-size="13">Trailing 71 sessions through 2025-11-18</text>
<line x1="70" x2="935" y1="375.00" y2="375.00" stroke="#27314e" stroke-width="1"/>
<text x="58" y="379.00" text-anchor="end" fill="#93a4c3" font-family="Inter, Arial, sans-serif" font-size="12">5</text>
<line x1="70" x2="935" y1="312.00" y2="312.00" stroke="#27314e" stroke-width="1"/>
<text x="58" y="316.00" text-anchor="end" fill="#93a4c3" font-family="Inter, Arial, sans-serif" font-size="12">12</text>
<line x1="70" x2="935" y1="249.00" y2="249.00" stroke="#27314e" stroke-width="1"/>
<text x="58" y="253.00" text-anchor="end" fill="#93a4c3" font-family="Inter, Arial, sans-serif" font-size="12">20</text>
<line x1="70" x2="935" y1="186.00" y2="186.00" stroke="#27314e" stroke-width="1"/>
<text x="58" y="190.00" text-anchor="end" fill="#93a4c3" font-family="Inter, Arial, sans-serif" font-size="12">27</text>
<line x1="70" x2="935" y1="123.00" y2="123.00" stroke="#27314e" stroke-width="1"/>
<text x="58" y="127.00" text-anchor="end" fill="#93a4c3" font-family="Inter, Arial, sans-serif" font-size="12">34</text>
<line x1="70" x2="935" y1="60.00" y2="60.00" stroke="#27314e" stroke-width="1"/>
<text x="58" y="64.00" text-anchor="end" fill="#93a4c3" font-family="Inter, Arial, sans-serif" font-size="12">41</text>
<text x="70.00" y="412" text-anchor="middle" fill="#93a4c3" font-family="Inter, Arial, sans-serif" font-size="12">2025-08-07</text>
<text x="502.50" y="412" text-anchor="middle" fill="#93a4c3" font-family="Inter, Arial, sans-serif" font-size="12">2025-09-26</text>
<text x="935.00" y="412" text-anchor="middle" fill="#93a4c3" font-family="Inter, Arial, sans-serif" font-size="12">2025-11-18</text>
<path d="M 70.00 293.45 L 82.36 275.30 L 94.71 262.62 L 107.07 330.53 L 119.43 347.82 L 131.79 329.58 L 144.14 320.72 L 156.50 322.02 L 168.86 260.53 L 181.21 217.80 L 193.57 183.15 L 205.93 281.90 L 218.29 257.23 L 230.64 271.74 L 243.00 286.33 L 255.36 326.19 L 267.71 287.46 L 280.07 248.46 L 292.43 268.78 L 304.79 308.73 L 317.14 293.80 L 329.50 328.10 L 341.86 344.26 L 354.21 340.17 L 366.57 345.82 L 378.93 330.45 L 391.29 327.75 L 403.64 326.36 L 416.00 319.07 L 428.36 280.25 L 440.71 319.94 L 453.07 295.36 L 465.43 309.95 L 477.79 294.67 L 490.14 245.07 L 502.50 271.56 L 514.86 273.47 L 527.21 287.02 L 539.57 330.79 L 551.93 344.52 L 564.29 317.42 L 576.64 329.40 L 589.00 301.00 L 601.36 309.26 L 613.71 284.33 L 626.07 132.87 L 638.43 191.84 L 650.79 233.87 L 663.14 115.84 L 675.50 215.11 L 687.86 375.00 L 700.21 344.60 L 712.57 316.64 L 724.93 256.28 L 737.29 296.84 L 749.64 316.81 L 762.00 332.62 L 774.36 295.53 L 786.71 283.37 L 799.07 261.05 L 811.43 211.46 L 823.79 146.33 L 836.14 200.87 L 848.50 202.00 L 860.86 209.12 L 873.21 282.77 L 885.57 327.23 L 897.93 230.31 L 910.29 261.66 L 922.64 182.28 L 935.00 60.00" fill="none" stroke="#69a7ff" stroke-width="4" stroke-linecap="round" stroke-linejoin="round"/>
<circle cx="935.00" cy="60.00" r="6" fill="#69a7ff"/>
</svg>