<svg xmlns="http://www.w3.org/2000/svg" width="960" height="430" viewBox="0 0 960 430" role="img" aria-label="Composite score history">
<rect width="100%" height="100%" fill="#0b1020" rx="20"/>
<text x="70" y="32" fill="#f5f7fb" font-family="Inter, Arial, sans-serif" font-size="24" font-weight="700">Composite score history</text>
<text x="70" y="52" fill="#93a4c3" font-family="Inter, Arial, sans-serif" font-size="13">Trailing 76 sessions through 2025-11-18</text>
<line x1="70" x2="935" y1="375.00" y2="375.00" stroke="#27314e" stroke-width="1"/>
<text x="58" y="379.00" text-anchor="end" fill="#93a4c3" font-family="Inter, Arial, sans-serif" font-size="12">5</text>
<line x1="70" x2="935" y1="312.00" y2="312.00" stroke="#27314e" stroke-width="1"/>
<text x="58" y="316.00" text-anchor="end" fill="#93a4c3" font-family="Inter, Arial, sans-serif" font-size="12">12</text>
<line x1="70" x2="935" y1="249.00" y2="249.00" stroke="#27314e" stroke-width="1"/>
<text x="58" y="253.00" text-anchor="end" fill="#93a4c3" font-family="Inter, Arial, sans-serif" font-size="12">20</text>
<line x1="70" x2="935" y1="186.00" y2="186.00" stroke="#27314e" stroke-width="1"/>
<text x="58" y="190.00" text-anchor="end" fill="#93a4c3" font-family="Inter, Arial, sans-serif" font-size="12">27</text>
<line x1="70" x2="935" y1="123.00" y2="123.00" stroke="#27314e" stroke-width="1"/>
<text x="58" y="127.00" text-anchor="end" fill="#93a4c3" font-family="Inter, Arial, sans-serif" font-size="12">34</text>
<line x1="70" x2="935" y1="60.00" y2="60.00" stroke="#27314e" stroke-width="1"/>
<text x="58" y="64.00" text-anchor="end" fill="#93a4c3" font-family="Inter, Arial, sans-serif" font-size="12">41</text>
<text x="70.00" y="412" text-anchor="middle" fill="#93a4c3" font-family="Inter, Arial, sans-serif" font-size="12">2025-07-31</text>
<text x="508.27" y="412" text-anchor="middle" fill="#93a4c3" font-family="Inter, Arial, sans-serif" font-size="12">2025-09-24</text>
<text x="935.00" y="412" text-anchor="middle" fill="#93a4c3" font-family="Inter, Arial, sans-serif" font-size="12">2025-11-18</text>
<path d="M 70.00 273.21 L 81.53 174.73 L 93.07 275.91 L 104.60 248.29 L 116.13 296.75 L 127.67 293.71 L 139.20 287.63 L 150.73 255.67 L 162.27 344.86 L 173.80 341.65 L 185.33 329.58 L 196.87 320.72 L 208.40 322.02 L 219.93 260.53 L 231.47 217.80 L 243.00 183.15 L 254.53 281.90 L 266.07 257.23 L 277.60 271.74 L 289.13 286.33 L 300.67 326.19 L 312.20 287.46 L 323.73 248.46 L 335.27 268.78 L 346.80 308.73 L 358.33 293.80 L 369.87 328.10 L 381.40 344.26 L 392.93 340.17 L 404.47 345.82 L 416.00 330.45 L 427.53 327.75 L 439.07 326.36 L 450.60 319.07 L 462.13 280.25 L 473.67 319.94 L 485.20 295.36 L 496.73 309.95 L 508.27 294.67 L 519.80 245.07 L 531.33 271.56 L 542.87 273.47 L 554.40 287.02 L 565.93 330.79 L 577.47 344.52 L 589.00 317.42 L 600.53 329.40 L 612.07 301.00 L 623.60 309.26 L 635.13 284.33 L 646.67 132.87 L 658.20 191.84 L 669.73 233.87 L 681.27 115.84 L 692.80 215.11 L 704.33 375.00 L 715.87 344.60 L 727.40 316.64 L 738.93 256.28 L 750.47 296.84 L 762.00 316.81 L 773.53 332.62 L 785.07 295.53 L 796.60 283.37 L 808.13 261.05 L 819.67 211.46 L 831.20 146.33 L 842.73 200.87 L 854.27 202.00 L 865.80 209.12 L 877.33 282.77 L 888.87 327.23 L 900.40 230.31 L 911.93 261.66 L 923.47 182.28 L 935.00 60.00" fill="none" stroke="#69a7ff" stroke-width="4" stroke-linecap="round" stroke-linejoin="round"/>
<circle cx="935.00" cy="60.00" r="6" fill="#69a7ff"/>
</svg>