<svg xmlns="http://www.w3.org/2000/svg" width="960" height="430" viewBox="0 0 960 430" role="img" aria-label="Composite score history">
<rect width="100%" height="100%" fill="#0b1020" rx="20"/>
<text x="70" y="32" fill="#f5f7fb" font-family="Inter, Arial, sans-serif" font-size="24" font-weight="700">Composite score history</text>
<text x="70" y="52" fill="#93a4c3" font-family="Inter, Arial, sans-serif" font-size="13">Trailing 54 sessions through 2025-11-18</text>
<line x1="70" x2="935" y1="375.00" y2="375.00" stroke="#27314e" stroke-width="1"/>
<text x="58" y="379.00" text-anchor="end" fill="#93a4c3" font-family="Inter, Arial, sans-serif" font-size="12">5</text>
<line x1="70" x2="935" y1="312.00" y2="312.00" stroke="#27314e" stroke-width="1"/>
<text x="58" y="316.00" text-anchor="end" fill="#93a4c3" font-family="Inter, Arial, sans-serif" font-size="12">12</text>
<line x1="70" x2="935" y1="249.00" y2="249.00" stroke="#27314e" stroke-width="1"/>
<text x="58" y="253.00" text-anchor="end" fill="#93a4c3" font-family="Inter, Arial, sans-serif" font-size="12">20</text>
<line x1="70" x2="935" y1="186.00" y2="186.00" stroke="#27314e" stroke-width="1"/>
<text x="58" y="190.00" text-anchor="end" fill="#93a4c3" font-family="Inter, Arial, sans-serif" font-size="12">27</text>
<line x1="70" x2="935" y1="123.00" y2="123.00" stroke="#27314e" stroke-width="1"/>
<text x="58" y="127.00" text-anchor="end" fill="#93a4c3" font-family="Inter, Arial, sans-serif" font-size="12">34</text>
<line x1="70" x2="935" y1="60.00" y2="60.00" stroke="#27314e" stroke-width="1"/>
<text x="58" y="64.00" text-anchor="end" fill="#93a4c3" font-family="Inter, Arial, sans-serif" font-size="12">41</text>
<text x="70.00" y="412" text-anchor="middle" fill="#93a4c3" font-family="Inter, Arial, sans-serif" font-size="12">2025-09-02</text>
<text x="510.66" y="412" text-anchor="middle" fill="#93a4c3" font-family="Inter, Arial, sans-serif" font-size="12">2025-10-09</text>
<text x="935.00" y="412" text-anchor="middle" fill="#93a4c3" font-family="Inter, Arial, sans-serif" font-size="12">2025-11-18</text>
<path d="M 70.00 283.90 L 86.32 305.87 L 102.64 334.79 L 118.96 335.83 L 135.28 343.39 L 151.60 344.26 L 167.92 340.17 L 184.25 345.82 L 200.57 330.45 L 216.89 327.75 L 233.21 326.36 L 249.53 319.07 L 265.85 280.25 L 282.17 319.94 L 298.49 295.36 L 314.81 309.95 L 331.13 294.67 L 347.45 245.07 L 363.77 271.56 L 380.09 273.47 L 396.42 287.02 L 412.74 330.79 L 429.06 344.52 L 445.38 317.42 L 461.70 329.40 L 478.02 301.00 L 494.34 309.26 L 510.66 284.33 L 526.98 132.87 L 543.30 191.84 L 559.62 233.87 L 575.94 115.84 L 592.26 215.11 L 608.58 375.00 L 624.91 344.60 L 641.23 316.64 L 657.55 256.28 L 673.87 296.84 L 690.19 316.81 L 706.51 332.62 L 722.83 295.53 L 739.15 283.37 L 755.47 261.05 L 771.79 211.46 L 788.11 146.33 L 804.43 200.87 L 820.75 202.00 L 837.08 209.12 L 853.40 282.77 L 869.72 327.23 L 886.04 230.31 L 902.36 261.66 L 918.68 182.28 L 935.00 60.00" fill="none" stroke="#69a7ff" stroke-width="4" stroke-linecap="round" stroke-linejoin="round"/>
<circle cx="935.00" cy="60.00" r="6" fill="#69a7ff"/>
</svg>