<svg xmlns="http://www.w3.org/2000/svg" width="960" height="430" viewBox="0 0 960 430" role="img" aria-label="Composite score history">
<rect width="100%" height="100%" fill="#0b1020" rx="20"/>
<text x="70" y="32" fill="#f5f7fb" font-family="Inter, Arial, sans-serif" font-size="24" font-weight="700">Composite score history</text>
<text x="70" y="52" fill="#93a4c3" font-family="Inter, Arial, sans-serif" font-size="13">Trailing 65 sessions through 2025-11-18</text>
<line x1="70" x2="935" y1="375.00" y2="375.00" stroke="#27314e" stroke-width="1"/>
<text x="58" y="379.00" text-anchor="end" fill="#93a4c3" font-family="Inter, Arial, sans-serif" font-size="12">5</text>
<line x1="70" x2="935" y1="312.00" y2="312.00" stroke="#27314e" stroke-width="1"/>
<text x="58" y="316.00" text-anchor="end" fill="#93a4c3" font-family="Inter, Arial, sans-serif" font-size="12">12</text>
<line x1="70" x2="935" y1="249.00" y2="249.00" stroke="#27314e" stroke-width="1"/>
<text x="58" y="253.00" text-anchor="end" fill="#93a4c3" font-family="Inter, Arial, sans-serif" font-size="12">20</text>
<line x1="70" x2="935" y1="186.00" y2="186.00" stroke="#27314e" stroke-width="1"/>
<text x="58" y="190.00" text-anchor="end" fill="#93a4c3" font-family="Inter, Arial, sans-serif" font-size="12">27</text>
<line x1="70" x2="935" y1="123.00" y2="123.00" stroke="#27314e" stroke-width="1"/>
<text x="58" y="127.00" text-anchor="end" fill="#93a4c3" font-family="Inter, Arial, sans-serif" font-size="12">34</text>
<line x1="70" x2="935" y1="60.00" y2="60.00" stroke="#27314e" stroke-width="1"/>
<text x="58" y="64.00" text-anchor="end" fill="#93a4c3" font-family="Inter, Arial, sans-serif" font-size="12">41</text>
<text x="70.00" y="412" text-anchor="middle" fill="#93a4c3" font-family="Inter, Arial, sans-serif" font-size="12">2025-08-15</text>
<text x="502.50" y="412" text-anchor="middle" fill="#93a4c3" font-family="Inter, Arial, sans-serif" font-size="12">2025-10-01</text>
<text x="935.00" y="412" text-anchor="middle" fill="#93a4c3" font-family="Inter, Arial, sans-serif" font-size="12">2025-11-18</text>
<path d="M 70.00 300.22 L 83.52 292.32 L 97.03 271.13 L 110.55 258.19 L 124.06 196.87 L 137.58 281.90 L 151.09 257.23 L 164.61 271.74 L 178.12 286.33 L 191.64 326.19 L 205.16 287.46 L 218.67 248.46 L 232.19 268.78 L 245.70 308.73 L 259.22 293.80 L 272.73 328.10 L 286.25 344.26 L 299.77 340.17 L 313.28 345.82 L 326.80 330.45 L 340.31 327.75 L 353.83 326.36 L 367.34 319.07 L 380.86 280.25 L 394.38 319.94 L 407.89 295.36 L 421.41 309.95 L 434.92 294.67 L 448.44 245.07 L 461.95 271.56 L 475.47 273.47 L 488.98 287.02 L 502.50 330.79 L 516.02 344.52 L 529.53 317.42 L 543.05 329.40 L 556.56 301.00 L 570.08 309.26 L 583.59 284.33 L 597.11 132.87 L 610.62 191.84 L 624.14 233.87 L 637.66 115.84 L 651.17 215.11 L 664.69 375.00 L 678.20 344.60 L 691.72 316.64 L 705.23 256.28 L 718.75 296.84 L 732.27 316.81 L 745.78 332.62 L 759.30 295.53 L 772.81 283.37 L 786.33 261.05 L 799.84 211.46 L 813.36 146.33 L 826.88 200.87 L 840.39 202.00 L 853.91 209.12 L 867.42 282.77 L 880.94 327.23 L 894.45 230.31 L 907.97 261.66 L 921.48 182.28 L 935.00 60.00" fill="none" stroke="#69a7ff" stroke-width="4" stroke-linecap="round" stroke-linejoin="round"/>
<circle cx="935.00" cy="60.00" r="6" fill="#69a7ff"/>
</svg>