<svg xmlns="http://www.w3.org/2000/svg" width="960" height="430" viewBox="0 0 960 430" role="img" aria-label="Composite score history">
<rect width="100%" height="100%" fill="#0b1020" rx="20"/>
<text x="70" y="32" fill="#f5f7fb" font-family="Inter, Arial, sans-serif" font-size="24" font-weight="700">Composite score history</text>
<text x="70" y="52" fill="#93a4c3" font-family="Inter, Arial, sans-serif" font-size="13">Trailing 67 sessions through 2025-11-18</text>
<line x1="70" x2="935" y1="375.00" y2="375.00" stroke="#27314e" stroke-width="1"/>
<text x="58" y="379.00" text-anchor="end" fill="#93a4c3" font-family="Inter, Arial, sans-serif" font-size="12">5</text>
<line x1="70" x2="935" y1="312.00" y2="312.00" stroke="#27314e" stroke-width="1"/>
<text x="58" y="316.00" text-anchor="end" fill="#93a4c3" font-family="Inter, Arial, sans-serif" font-size="12">12</text>
<line x1="70" x2="935" y1="249.00" y2="249.00" stroke="#27314e" stroke-width="1"/>
<text x="58" y="253.00" text-anchor="end" fill="#93a4c3" font-family="Inter, Arial, sans-serif" font-size="12">20</text>
<line x1="70" x2="935" y1="186.00" y2="186.00" stroke="#27314e" stroke-width="1"/>
<text x="58" y="190.00" text-anchor="end" fill="#93a4c3" font-family="Inter, Arial, sans-serif" font-size="12">27</text>
<line x1="70" x2="935" y1="123.00" y2="123.00" stroke="#27314e" stroke-width="1"/>
<text x="58" y="127.00" text-anchor="end" fill="#93a4c3" font-family="Inter, Arial, sans-serif" font-size="12">34</text>
<line x1="70" x2="935" y1="60.00" y2="60.00" stroke="#27314e" stroke-width="1"/>
<text x="58" y="64.00" text-anchor="end" fill="#93a4c3" font-family="Inter, Arial, sans-serif" font-size="12">41</text>
<text x="70.00" y="412" text-anchor="middle" fill="#93a4c3" font-family="Inter, Arial, sans-serif" font-size="12">2025-08-13</text>
<text x="502.50" y="412" text-anchor="middle" fill="#93a4c3" font-family="Inter, Arial, sans-serif" font-size="12">2025-09-30</text>
<text x="935.00" y="412" text-anchor="middle" fill="#93a4c3" font-family="Inter, Arial, sans-serif" font-size="12">2025-11-18</text>
<path d="M 70.00 308.82 L 83.11 270.43 L 96.21 256.28 L 109.32 249.24 L 122.42 227.27 L 135.53 217.80 L 148.64 183.15 L 161.74 281.90 L 174.85 257.23 L 187.95 271.74 L 201.06 286.33 L 214.17 326.19 L 227.27 287.46 L 240.38 248.46 L 253.48 268.78 L 266.59 308.73 L 279.70 293.80 L 292.80 328.10 L 305.91 344.26 L 319.02 340.17 L 332.12 345.82 L 345.23 330.45 L 358.33 327.75 L 371.44 326.36 L 384.55 319.07 L 397.65 280.25 L 410.76 319.94 L 423.86 295.36 L 436.97 309.95 L 450.08 294.67 L 463.18 245.07 L 476.29 271.56 L 489.39 273.47 L 502.50 287.02 L 515.61 330.79 L 528.71 344.52 L 541.82 317.42 L 554.92 329.40 L 568.03 301.00 L 581.14 309.26 L 594.24 284.33 L 607.35 132.87 L 620.45 191.84 L 633.56 233.87 L 646.67 115.84 L 659.77 215.11 L 672.88 375.00 L 685.98 344.60 L 699.09 316.64 L 712.20 256.28 L 725.30 296.84 L 738.41 316.81 L 751.52 332.62 L 764.62 295.53 L 777.73 283.37 L 790.83 261.05 L 803.94 211.46 L 817.05 146.33 L 830.15 200.87 L 843.26 202.00 L 856.36 209.12 L 869.47 282.77 L 882.58 327.23 L 895.68 230.31 L 908.79 261.66 L 921.89 182.28 L 935.00 60.00" fill="none" stroke="#69a7ff" stroke-width="4" stroke-linecap="round" stroke-linejoin="round"/>
<circle cx="935.00" cy="60.00" r="6" fill="#69a7ff"/>
</svg>