<svg xmlns="http://www.w3.org/2000/svg" width="960" height="430" viewBox="0 0 960 430" role="img" aria-label="Composite score history">
<rect width="100%" height="100%" fill="#0b1020" rx="20"/>
<text x="70" y="32" fill="#f5f7fb" font-family="Inter, Arial, sans-serif" font-size="24" font-weight="700">Composite score history</text>
<text x="70" y="52" fill="#93a4c3" font-family="Inter, Arial, sans-serif" font-size="13">Trailing 75 sessions through 2026-02-17</text>
<line x1="70" x2="935" y1="375.00" y2="375.00" stroke="#27314e" stroke-width="1"/>
<text x="58" y="379.00" text-anchor="end" fill="#93a4c3" font-family="Inter, Arial, sans-serif" font-size="12">0</text>
<line x1="70" x2="935" y1="312.00" y2="312.00" stroke="#27314e" stroke-width="1"/>
<text x="58" y="316.00" text-anchor="end" fill="#93a4c3" font-family="Inter, Arial, sans-serif" font-size="12">8</text>
<line x1="70" x2="935" y1="249.00" y2="249.00" stroke="#27314e" stroke-width="1"/>
<text x="58" y="253.00" text-anchor="end" fill="#93a4c3" font-family="Inter, Arial, sans-serif" font-size="12">17</text>
<line x1="70" x2="935" y1="186.00" y2="186.00" stroke="#27314e" stroke-width="1"/>
<text x="58" y="190.00" text-anchor="end" fill="#93a4c3" font-family="Inter, Arial, sans-serif" font-size="12">25</text>
<line x1="70" x2="935" y1="123.00" y2="123.00" stroke="#27314e" stroke-width="1"/>
<text x="58" y="127.00" text-anchor="end" fill="#93a4c3" font-family="Inter, Arial, sans-serif" font-size="12">33</text>
<line x1="70" x2="935" y1="60.00" y2="60.00" stroke="#27314e" stroke-width="1"/>
<text x="58" y="64.00" text-anchor="end" fill="#93a4c3" font-family="Inter, Arial, sans-serif" font-size="12">41</text>
<text x="70.00" y="412" text-anchor="middle" fill="#93a4c3" font-family="Inter, Arial, sans-serif" font-size="12">2025-10-28</text>
<text x="502.50" y="412" text-anchor="middle" fill="#93a4c3" font-family="Inter, Arial, sans-serif" font-size="12">2025-12-22</text>
<text x="935.00" y="412" text-anchor="middle" fill="#93a4c3" font-family="Inter, Arial, sans-serif" font-size="12">2026-02-17</text>
<path d="M 70.00 284.34 L 81.69 229.97 L 93.38 180.25 L 105.07 176.97 L 116.76 182.00 L 128.45 135.80 L 140.14 183.68 L 151.82 184.67 L 163.51 190.93 L 175.20 255.59 L 186.89 294.63 L 198.58 209.53 L 210.27 237.06 L 221.96 167.36 L 233.65 60.00 L 245.34 70.45 L 257.03 66.18 L 268.72 146.17 L 280.41 277.24 L 292.09 326.96 L 303.78 337.79 L 315.47 375.00 L 327.16 333.06 L 338.85 308.20 L 350.54 290.89 L 362.23 264.74 L 373.92 247.28 L 385.61 278.92 L 397.30 241.33 L 408.99 272.67 L 420.68 307.67 L 432.36 264.05 L 444.05 273.13 L 455.74 273.58 L 467.43 183.07 L 479.12 209.46 L 490.81 304.77 L 502.50 329.32 L 514.19 342.21 L 525.88 374.85 L 537.57 360.82 L 549.26 332.91 L 560.95 310.11 L 572.64 254.37 L 584.32 241.41 L 596.01 250.25 L 607.70 274.96 L 619.39 271.37 L 631.08 287.00 L 642.77 289.90 L 654.46 256.43 L 666.15 234.08 L 677.84 237.06 L 689.53 246.21 L 701.22 211.90 L 712.91 84.17 L 724.59 172.78 L 736.28 214.11 L 747.97 200.15 L 759.66 248.88 L 771.35 293.33 L 783.04 261.99 L 794.73 228.59 L 806.42 226.46 L 818.11 237.44 L 829.80 170.49 L 841.49 173.85 L 853.18 111.24 L 864.86 253.00 L 876.55 248.65 L 888.24 271.37 L 899.93 276.02 L 911.62 258.10 L 923.31 183.61 L 935.00 172.93" fill="none" stroke="#69a7ff" stroke-width="4" stroke-linecap="round" stroke-linejoin="round"/>
<circle cx="935.00" cy="172.93" r="6" fill="#69a7ff"/>
</svg>