<svg xmlns="http://www.w3.org/2000/svg" width="960" height="430" viewBox="0 0 960 430" role="img" aria-label="Composite score history">
<rect width="100%" height="100%" fill="#0b1020" rx="20"/>
<text x="70" y="32" fill="#f5f7fb" font-family="Inter, Arial, sans-serif" font-size="24" font-weight="700">Composite score history</text>
<text x="70" y="52" fill="#93a4c3" font-family="Inter, Arial, sans-serif" font-size="13">Trailing 73 sessions through 2026-02-17</text>
<line x1="70" x2="935" y1="375.00" y2="375.00" stroke="#27314e" stroke-width="1"/>
<text x="58" y="379.00" text-anchor="end" fill="#93a4c3" font-family="Inter, Arial, sans-serif" font-size="12">0</text>
<line x1="70" x2="935" y1="312.00" y2="312.00" stroke="#27314e" stroke-width="1"/>
<text x="58" y="316.00" text-anchor="end" fill="#93a4c3" font-family="Inter, Arial, sans-serif" font-size="12">8</text>
<line x1="70" x2="935" y1="249.00" y2="249.00" stroke="#27314e" stroke-width="1"/>
<text x="58" y="253.00" text-anchor="end" fill="#93a4c3" font-family="Inter, Arial, sans-serif" font-size="12">17</text>
<line x1="70" x2="935" y1="186.00" y2="186.00" stroke="#27314e" stroke-width="1"/>
<text x="58" y="190.00" text-anchor="end" fill="#93a4c3" font-family="Inter, Arial, sans-serif" font-size="12">25</text>
<line x1="70" x2="935" y1="123.00" y2="123.00" stroke="#27314e" stroke-width="1"/>
<text x="58" y="127.00" text-anchor="end" fill="#93a4c3" font-family="Inter, Arial, sans-serif" font-size="12">33</text>
<line x1="70" x2="935" y1="60.00" y2="60.00" stroke="#27314e" stroke-width="1"/>
<text x="58" y="64.00" text-anchor="end" fill="#93a4c3" font-family="Inter, Arial, sans-serif" font-size="12">41</text>
<text x="70.00" y="412" text-anchor="middle" fill="#93a4c3" font-family="Inter, Arial, sans-serif" font-size="12">2025-10-30</text>
<text x="502.50" y="412" text-anchor="middle" fill="#93a4c3" font-family="Inter, Arial, sans-serif" font-size="12">2025-12-23</text>
<text x="935.00" y="412" text-anchor="middle" fill="#93a4c3" font-family="Inter, Arial, sans-serif" font-size="12">2026-02-17</text>
<path d="M 70.00 272.06 L 82.01 260.77 L 94.03 262.60 L 106.04 218.15 L 118.06 231.11 L 130.07 184.67 L 142.08 190.93 L 154.10 255.59 L 166.11 294.63 L 178.12 209.53 L 190.14 237.06 L 202.15 167.36 L 214.17 60.00 L 226.18 70.45 L 238.19 66.18 L 250.21 146.17 L 262.22 277.24 L 274.24 326.96 L 286.25 337.79 L 298.26 375.00 L 310.28 333.06 L 322.29 308.20 L 334.31 290.89 L 346.32 264.74 L 358.33 247.28 L 370.35 278.92 L 382.36 241.33 L 394.38 272.67 L 406.39 307.67 L 418.40 264.05 L 430.42 273.13 L 442.43 273.58 L 454.44 183.07 L 466.46 209.46 L 478.47 304.77 L 490.49 329.32 L 502.50 342.21 L 514.51 374.85 L 526.53 360.82 L 538.54 332.91 L 550.56 310.11 L 562.57 254.37 L 574.58 241.41 L 586.60 250.25 L 598.61 274.96 L 610.62 271.37 L 622.64 287.00 L 634.65 289.90 L 646.67 256.43 L 658.68 234.08 L 670.69 237.06 L 682.71 246.21 L 694.72 211.90 L 706.74 84.17 L 718.75 172.78 L 730.76 214.11 L 742.78 200.15 L 754.79 248.88 L 766.81 293.33 L 778.82 261.99 L 790.83 228.59 L 802.85 226.46 L 814.86 237.44 L 826.88 170.49 L 838.89 173.85 L 850.90 111.24 L 862.92 253.00 L 874.93 248.65 L 886.94 271.37 L 898.96 276.02 L 910.97 258.10 L 922.99 183.61 L 935.00 172.93" fill="none" stroke="#69a7ff" stroke-width="4" stroke-linecap="round" stroke-linejoin="round"/>
<circle cx="935.00" cy="172.93" r="6" fill="#69a7ff"/>
</svg>