<svg xmlns="http://www.w3.org/2000/svg" width="960" height="430" viewBox="0 0 960 430" role="img" aria-label="Composite score history">
<rect width="100%" height="100%" fill="#0b1020" rx="20"/>
<text x="70" y="32" fill="#f5f7fb" font-family="Inter, Arial, sans-serif" font-size="24" font-weight="700">Composite score history</text>
<text x="70" y="52" fill="#93a4c3" font-family="Inter, Arial, sans-serif" font-size="13">Trailing 88 sessions through 2026-02-17</text>
<line x1="70" x2="935" y1="375.00" y2="375.00" stroke="#27314e" stroke-width="1"/>
<text x="58" y="379.00" text-anchor="end" fill="#93a4c3" font-family="Inter, Arial, sans-serif" font-size="12">0</text>
<line x1="70" x2="935" y1="312.00" y2="312.00" stroke="#27314e" stroke-width="1"/>
<text x="58" y="316.00" text-anchor="end" fill="#93a4c3" font-family="Inter, Arial, sans-serif" font-size="12">8</text>
<line x1="70" x2="935" y1="249.00" y2="249.00" stroke="#27314e" stroke-width="1"/>
<text x="58" y="253.00" text-anchor="end" fill="#93a4c3" font-family="Inter, Arial, sans-serif" font-size="12">17</text>
<line x1="70" x2="935" y1="186.00" y2="186.00" stroke="#27314e" stroke-width="1"/>
<text x="58" y="190.00" text-anchor="end" fill="#93a4c3" font-family="Inter, Arial, sans-serif" font-size="12">25</text>
<line x1="70" x2="935" y1="123.00" y2="123.00" stroke="#27314e" stroke-width="1"/>
<text x="58" y="127.00" text-anchor="end" fill="#93a4c3" font-family="Inter, Arial, sans-serif" font-size="12">33</text>
<line x1="70" x2="935" y1="60.00" y2="60.00" stroke="#27314e" stroke-width="1"/>
<text x="58" y="64.00" text-anchor="end" fill="#93a4c3" font-family="Inter, Arial, sans-serif" font-size="12">41</text>
<text x="70.00" y="412" text-anchor="middle" fill="#93a4c3" font-family="Inter, Arial, sans-serif" font-size="12">2025-10-08</text>
<text x="507.47" y="412" text-anchor="middle" fill="#93a4c3" font-family="Inter, Arial, sans-serif" font-size="12">2025-12-12</text>
<text x="935.00" y="412" text-anchor="middle" fill="#93a4c3" font-family="Inter, Arial, sans-serif" font-size="12">2026-02-17</text>
<path d="M 70.00 275.95 L 79.94 256.66 L 89.89 100.57 L 99.83 167.75 L 109.77 183.99 L 119.71 109.03 L 129.66 196.19 L 139.60 336.57 L 149.54 309.88 L 159.48 285.33 L 169.43 232.33 L 179.37 267.94 L 189.31 285.48 L 199.25 299.36 L 209.20 266.80 L 219.14 256.12 L 229.08 236.53 L 239.02 192.98 L 248.97 135.80 L 258.91 183.68 L 268.85 184.67 L 278.79 190.93 L 288.74 255.59 L 298.68 294.63 L 308.62 209.53 L 318.56 237.06 L 328.51 167.36 L 338.45 60.00 L 348.39 70.45 L 358.33 66.18 L 368.28 146.17 L 378.22 277.24 L 388.16 326.96 L 398.10 337.79 L 408.05 375.00 L 417.99 333.06 L 427.93 308.20 L 437.87 290.89 L 447.82 264.74 L 457.76 247.28 L 467.70 278.92 L 477.64 241.33 L 487.59 272.67 L 497.53 307.67 L 507.47 264.05 L 517.41 273.13 L 527.36 273.58 L 537.30 183.07 L 547.24 209.46 L 557.18 304.77 L 567.13 329.32 L 577.07 342.21 L 587.01 374.85 L 596.95 360.82 L 606.90 332.91 L 616.84 310.11 L 626.78 254.37 L 636.72 241.41 L 646.67 250.25 L 656.61 274.96 L 666.55 271.37 L 676.49 287.00 L 686.44 289.90 L 696.38 256.43 L 706.32 234.08 L 716.26 237.06 L 726.21 246.21 L 736.15 211.90 L 746.09 84.17 L 756.03 172.78 L 765.98 214.11 L 775.92 200.15 L 785.86 248.88 L 795.80 293.33 L 805.75 261.99 L 815.69 228.59 L 825.63 226.46 L 835.57 237.44 L 845.52 170.49 L 855.46 173.85 L 865.40 111.24 L 875.34 253.00 L 885.29 248.65 L 895.23 271.37 L 905.17 276.02 L 915.11 258.10 L 925.06 183.61 L 935.00 172.93" fill="none" stroke="#69a7ff" stroke-width="4" stroke-linecap="round" stroke-linejoin="round"/>
<circle cx="935.00" cy="172.93" r="6" fill="#69a7ff"/>
</svg>