<svg xmlns="http://www.w3.org/2000/svg" width="960" height="430" viewBox="0 0 960 430" role="img" aria-label="Composite score history">
<rect width="100%" height="100%" fill="#0b1020" rx="20"/>
<text x="70" y="32" fill="#f5f7fb" font-family="Inter, Arial, sans-serif" font-size="24" font-weight="700">Composite score history</text>
<text x="70" y="52" fill="#93a4c3" font-family="Inter, Arial, sans-serif" font-size="13">Trailing 85 sessions through 2026-02-17</text>
<line x1="70" x2="935" y1="375.00" y2="375.00" stroke="#27314e" stroke-width="1"/>
<text x="58" y="379.00" text-anchor="end" fill="#93a4c3" font-family="Inter, Arial, sans-serif" font-size="12">0</text>
<line x1="70" x2="935" y1="312.00" y2="312.00" stroke="#27314e" stroke-width="1"/>
<text x="58" y="316.00" text-anchor="end" fill="#93a4c3" font-family="Inter, Arial, sans-serif" font-size="12">8</text>
<line x1="70" x2="935" y1="249.00" y2="249.00" stroke="#27314e" stroke-width="1"/>
<text x="58" y="253.00" text-anchor="end" fill="#93a4c3" font-family="Inter, Arial, sans-serif" font-size="12">17</text>
<line x1="70" x2="935" y1="186.00" y2="186.00" stroke="#27314e" stroke-width="1"/>
<text x="58" y="190.00" text-anchor="end" fill="#93a4c3" font-family="Inter, Arial, sans-serif" font-size="12">25</text>
<line x1="70" x2="935" y1="123.00" y2="123.00" stroke="#27314e" stroke-width="1"/>
<text x="58" y="127.00" text-anchor="end" fill="#93a4c3" font-family="Inter, Arial, sans-serif" font-size="12">33</text>
<line x1="70" x2="935" y1="60.00" y2="60.00" stroke="#27314e" stroke-width="1"/>
<text x="58" y="64.00" text-anchor="end" fill="#93a4c3" font-family="Inter, Arial, sans-serif" font-size="12">41</text>
<text x="70.00" y="412" text-anchor="middle" fill="#93a4c3" font-family="Inter, Arial, sans-serif" font-size="12">2025-10-14</text>
<text x="502.50" y="412" text-anchor="middle" fill="#93a4c3" font-family="Inter, Arial, sans-serif" font-size="12">2025-12-15</text>
<text x="935.00" y="412" text-anchor="middle" fill="#93a4c3" font-family="Inter, Arial, sans-serif" font-size="12">2026-02-17</text>
<path d="M 70.00 261.76 L 80.30 263.29 L 90.60 202.82 L 100.89 273.13 L 111.19 309.50 L 121.49 309.88 L 131.79 285.33 L 142.08 232.33 L 152.38 267.94 L 162.68 285.48 L 172.98 299.36 L 183.27 266.80 L 193.57 256.12 L 203.87 236.53 L 214.17 192.98 L 224.46 135.80 L 234.76 183.68 L 245.06 184.67 L 255.36 190.93 L 265.65 255.59 L 275.95 294.63 L 286.25 209.53 L 296.55 237.06 L 306.85 167.36 L 317.14 60.00 L 327.44 70.45 L 337.74 66.18 L 348.04 146.17 L 358.33 277.24 L 368.63 326.96 L 378.93 337.79 L 389.23 375.00 L 399.52 333.06 L 409.82 308.20 L 420.12 290.89 L 430.42 264.74 L 440.71 247.28 L 451.01 278.92 L 461.31 241.33 L 471.61 272.67 L 481.90 307.67 L 492.20 264.05 L 502.50 273.13 L 512.80 273.58 L 523.10 183.07 L 533.39 209.46 L 543.69 304.77 L 553.99 329.32 L 564.29 342.21 L 574.58 374.85 L 584.88 360.82 L 595.18 332.91 L 605.48 310.11 L 615.77 254.37 L 626.07 241.41 L 636.37 250.25 L 646.67 274.96 L 656.96 271.37 L 667.26 287.00 L 677.56 289.90 L 687.86 256.43 L 698.15 234.08 L 708.45 237.06 L 718.75 246.21 L 729.05 211.90 L 739.35 84.17 L 749.64 172.78 L 759.94 214.11 L 770.24 200.15 L 780.54 248.88 L 790.83 293.33 L 801.13 261.99 L 811.43 228.59 L 821.73 226.46 L 832.02 237.44 L 842.32 170.49 L 852.62 173.85 L 862.92 111.24 L 873.21 253.00 L 883.51 248.65 L 893.81 271.37 L 904.11 276.02 L 914.40 258.10 L 924.70 183.61 L 935.00 172.93" fill="none" stroke="#69a7ff" stroke-width="4" stroke-linecap="round" stroke-linejoin="round"/>
<circle cx="935.00" cy="172.93" r="6" fill="#69a7ff"/>
</svg>