<svg xmlns="http://www.w3.org/2000/svg" width="960" height="430" viewBox="0 0 960 430" role="img" aria-label="Composite score history">
<rect width="100%" height="100%" fill="#0b1020" rx="20"/>
<text x="70" y="32" fill="#f5f7fb" font-family="Inter, Arial, sans-serif" font-size="24" font-weight="700">Composite score history</text>
<text x="70" y="52" fill="#93a4c3" font-family="Inter, Arial, sans-serif" font-size="13">Trailing 72 sessions through 2026-02-17</text>
<line x1="70" x2="935" y1="375.00" y2="375.00" stroke="#27314e" stroke-width="1"/>
<text x="58" y="379.00" text-anchor="end" fill="#93a4c3" font-family="Inter, Arial, sans-serif" font-size="12">0</text>
<line x1="70" x2="935" y1="312.00" y2="312.00" stroke="#27314e" stroke-width="1"/>
<text x="58" y="316.00" text-anchor="end" fill="#93a4c3" font-family="Inter, Arial, sans-serif" font-size="12">8</text>
<line x1="70" x2="935" y1="249.00" y2="249.00" stroke="#27314e" stroke-width="1"/>
<text x="58" y="253.00" text-anchor="end" fill="#93a4c3" font-family="Inter, Arial, sans-serif" font-size="12">17</text>
<line x1="70" x2="935" y1="186.00" y2="186.00" stroke="#27314e" stroke-width="1"/>
<text x="58" y="190.00" text-anchor="end" fill="#93a4c3" font-family="Inter, Arial, sans-serif" font-size="12">25</text>
<line x1="70" x2="935" y1="123.00" y2="123.00" stroke="#27314e" stroke-width="1"/>
<text x="58" y="127.00" text-anchor="end" fill="#93a4c3" font-family="Inter, Arial, sans-serif" font-size="12">33</text>
<line x1="70" x2="935" y1="60.00" y2="60.00" stroke="#27314e" stroke-width="1"/>
<text x="58" y="64.00" text-anchor="end" fill="#93a4c3" font-family="Inter, Arial, sans-serif" font-size="12">41</text>
<text x="70.00" y="412" text-anchor="middle" fill="#93a4c3" font-family="Inter, Arial, sans-serif" font-size="12">2025-10-31</text>
<text x="508.59" y="412" text-anchor="middle" fill="#93a4c3" font-family="Inter, Arial, sans-serif" font-size="12">2025-12-24</text>
<text x="935.00" y="412" text-anchor="middle" fill="#93a4c3" font-family="Inter, Arial, sans-serif" font-size="12">2026-02-17</text>
<path d="M 70.00 267.18 L 82.18 267.10 L 94.37 212.05 L 106.55 225.77 L 118.73 178.65 L 130.92 190.93 L 143.10 255.59 L 155.28 294.63 L 167.46 209.53 L 179.65 237.06 L 191.83 167.36 L 204.01 60.00 L 216.20 70.45 L 228.38 66.18 L 240.56 146.17 L 252.75 277.24 L 264.93 326.96 L 277.11 337.79 L 289.30 375.00 L 301.48 333.06 L 313.66 308.20 L 325.85 290.89 L 338.03 264.74 L 350.21 247.28 L 362.39 278.92 L 374.58 241.33 L 386.76 272.67 L 398.94 307.67 L 411.13 264.05 L 423.31 273.13 L 435.49 273.58 L 447.68 183.07 L 459.86 209.46 L 472.04 304.77 L 484.23 329.32 L 496.41 342.21 L 508.59 374.85 L 520.77 360.82 L 532.96 332.91 L 545.14 310.11 L 557.32 254.37 L 569.51 241.41 L 581.69 250.25 L 593.87 274.96 L 606.06 271.37 L 618.24 287.00 L 630.42 289.90 L 642.61 256.43 L 654.79 234.08 L 666.97 237.06 L 679.15 246.21 L 691.34 211.90 L 703.52 84.17 L 715.70 172.78 L 727.89 214.11 L 740.07 200.15 L 752.25 248.88 L 764.44 293.33 L 776.62 261.99 L 788.80 228.59 L 800.99 226.46 L 813.17 237.44 L 825.35 170.49 L 837.54 173.85 L 849.72 111.24 L 861.90 253.00 L 874.08 248.65 L 886.27 271.37 L 898.45 276.02 L 910.63 258.10 L 922.82 183.61 L 935.00 172.93" fill="none" stroke="#69a7ff" stroke-width="4" stroke-linecap="round" stroke-linejoin="round"/>
<circle cx="935.00" cy="172.93" r="6" fill="#69a7ff"/>
</svg>