<svg xmlns="http://www.w3.org/2000/svg" width="960" height="430" viewBox="0 0 960 430" role="img" aria-label="Composite score history">
<rect width="100%" height="100%" fill="#0b1020" rx="20"/>
<text x="70" y="32" fill="#f5f7fb" font-family="Inter, Arial, sans-serif" font-size="24" font-weight="700">Composite score history</text>
<text x="70" y="52" fill="#93a4c3" font-family="Inter, Arial, sans-serif" font-size="13">Trailing 71 sessions through 2026-01-16</text>
<line x1="70" x2="935" y1="375.00" y2="375.00" stroke="#27314e" stroke-width="1"/>
<text x="58" y="379.00" text-anchor="end" fill="#93a4c3" font-family="Inter, Arial, sans-serif" font-size="12">0</text>
<line x1="70" x2="935" y1="312.00" y2="312.00" stroke="#27314e" stroke-width="1"/>
<text x="58" y="316.00" text-anchor="end" fill="#93a4c3" font-family="Inter, Arial, sans-serif" font-size="12">8</text>
<line x1="70" x2="935" y1="249.00" y2="249.00" stroke="#27314e" stroke-width="1"/>
<text x="58" y="253.00" text-anchor="end" fill="#93a4c3" font-family="Inter, Arial, sans-serif" font-size="12">17</text>
<line x1="70" x2="935" y1="186.00" y2="186.00" stroke="#27314e" stroke-width="1"/>
<text x="58" y="190.00" text-anchor="end" fill="#93a4c3" font-family="Inter, Arial, sans-serif" font-size="12">25</text>
<line x1="70" x2="935" y1="123.00" y2="123.00" stroke="#27314e" stroke-width="1"/>
<text x="58" y="127.00" text-anchor="end" fill="#93a4c3" font-family="Inter, Arial, sans-serif" font-size="12">33</text>
<line x1="70" x2="935" y1="60.00" y2="60.00" stroke="#27314e" stroke-width="1"/>
<text x="58" y="64.00" text-anchor="end" fill="#93a4c3" font-family="Inter, Arial, sans-serif" font-size="12">41</text>
<text x="70.00" y="412" text-anchor="middle" fill="#93a4c3" font-family="Inter, Arial, sans-serif" font-size="12">2025-10-03</text>
<text x="502.50" y="412" text-anchor="middle" fill="#93a4c3" font-family="Inter, Arial, sans-serif" font-size="12">2025-11-25</text>
<text x="935.00" y="412" text-anchor="middle" fill="#93a4c3" font-family="Inter, Arial, sans-serif" font-size="12">2026-01-16</text>
<path d="M 70.00 275.03 L 82.36 276.56 L 94.71 262.30 L 107.07 282.89 L 119.43 269.77 L 131.79 123.98 L 144.14 175.75 L 156.50 212.66 L 168.86 109.03 L 181.21 196.19 L 193.57 336.57 L 205.93 309.88 L 218.29 285.33 L 230.64 232.33 L 243.00 267.94 L 255.36 285.48 L 267.71 299.36 L 280.07 266.80 L 292.43 256.12 L 304.79 236.53 L 317.14 192.98 L 329.50 135.80 L 341.86 183.68 L 354.21 184.67 L 366.57 190.93 L 378.93 255.59 L 391.29 294.63 L 403.64 209.53 L 416.00 237.06 L 428.36 167.36 L 440.71 60.00 L 453.07 70.45 L 465.43 66.18 L 477.79 146.17 L 490.14 277.24 L 502.50 326.96 L 514.86 337.79 L 527.21 375.00 L 539.57 333.06 L 551.93 308.20 L 564.29 290.89 L 576.64 264.74 L 589.00 247.28 L 601.36 278.92 L 613.71 241.33 L 626.07 272.67 L 638.43 307.67 L 650.79 264.05 L 663.14 273.13 L 675.50 273.58 L 687.86 183.07 L 700.21 209.46 L 712.57 304.77 L 724.93 329.32 L 737.29 342.21 L 749.64 374.85 L 762.00 360.82 L 774.36 332.91 L 786.71 310.11 L 799.07 254.37 L 811.43 241.41 L 823.79 250.25 L 836.14 274.96 L 848.50 271.37 L 860.86 287.00 L 873.21 289.90 L 885.57 256.43 L 897.93 234.08 L 910.29 237.06 L 922.64 246.21 L 935.00 211.90" fill="none" stroke="#69a7ff" stroke-width="4" stroke-linecap="round" stroke-linejoin="round"/>
<circle cx="935.00" cy="211.90" r="6" fill="#69a7ff"/>
</svg>