<svg xmlns="http://www.w3.org/2000/svg" width="960" height="430" viewBox="0 0 960 430" role="img" aria-label="Composite score history">
<rect width="100%" height="100%" fill="#0b1020" rx="20"/>
<text x="70" y="32" fill="#f5f7fb" font-family="Inter, Arial, sans-serif" font-size="24" font-weight="700">Composite score history</text>
<text x="70" y="52" fill="#93a4c3" font-family="Inter, Arial, sans-serif" font-size="13">Trailing 80 sessions through 2026-01-16</text>
<line x1="70" x2="935" y1="375.00" y2="375.00" stroke="#27314e" stroke-width="1"/>
<text x="58" y="379.00" text-anchor="end" fill="#93a4c3" font-family="Inter, Arial, sans-serif" font-size="12">0</text>
<line x1="70" x2="935" y1="312.00" y2="312.00" stroke="#27314e" stroke-width="1"/>
<text x="58" y="316.00" text-anchor="end" fill="#93a4c3" font-family="Inter, Arial, sans-serif" font-size="12">8</text>
<line x1="70" x2="935" y1="249.00" y2="249.00" stroke="#27314e" stroke-width="1"/>
<text x="58" y="253.00" text-anchor="end" fill="#93a4c3" font-family="Inter, Arial, sans-serif" font-size="12">17</text>
<line x1="70" x2="935" y1="186.00" y2="186.00" stroke="#27314e" stroke-width="1"/>
<text x="58" y="190.00" text-anchor="end" fill="#93a4c3" font-family="Inter, Arial, sans-serif" font-size="12">25</text>
<line x1="70" x2="935" y1="123.00" y2="123.00" stroke="#27314e" stroke-width="1"/>
<text x="58" y="127.00" text-anchor="end" fill="#93a4c3" font-family="Inter, Arial, sans-serif" font-size="12">33</text>
<line x1="70" x2="935" y1="60.00" y2="60.00" stroke="#27314e" stroke-width="1"/>
<text x="58" y="64.00" text-anchor="end" fill="#93a4c3" font-family="Inter, Arial, sans-serif" font-size="12">41</text>
<text x="70.00" y="412" text-anchor="middle" fill="#93a4c3" font-family="Inter, Arial, sans-serif" font-size="12">2025-09-22</text>
<text x="507.97" y="412" text-anchor="middle" fill="#93a4c3" font-family="Inter, Arial, sans-serif" font-size="12">2025-11-19</text>
<text x="935.00" y="412" text-anchor="middle" fill="#93a4c3" font-family="Inter, Arial, sans-serif" font-size="12">2026-01-16</text>
<path d="M 70.00 272.14 L 80.95 248.27 L 91.90 241.41 L 102.85 202.52 L 113.80 241.25 L 124.75 247.43 L 135.70 259.32 L 146.65 297.76 L 157.59 309.80 L 168.54 286.01 L 179.49 296.54 L 190.44 271.60 L 201.39 278.85 L 212.34 256.96 L 223.29 123.98 L 234.24 175.75 L 245.19 212.66 L 256.14 109.03 L 267.09 196.19 L 278.04 336.57 L 288.99 309.88 L 299.94 285.33 L 310.89 232.33 L 321.84 267.94 L 332.78 285.48 L 343.73 299.36 L 354.68 266.80 L 365.63 256.12 L 376.58 236.53 L 387.53 192.98 L 398.48 135.80 L 409.43 183.68 L 420.38 184.67 L 431.33 190.93 L 442.28 255.59 L 453.23 294.63 L 464.18 209.53 L 475.13 237.06 L 486.08 167.36 L 497.03 60.00 L 507.97 70.45 L 518.92 66.18 L 529.87 146.17 L 540.82 277.24 L 551.77 326.96 L 562.72 337.79 L 573.67 375.00 L 584.62 333.06 L 595.57 308.20 L 606.52 290.89 L 617.47 264.74 L 628.42 247.28 L 639.37 278.92 L 650.32 241.33 L 661.27 272.67 L 672.22 307.67 L 683.16 264.05 L 694.11 273.13 L 705.06 273.58 L 716.01 183.07 L 726.96 209.46 L 737.91 304.77 L 748.86 329.32 L 759.81 342.21 L 770.76 374.85 L 781.71 360.82 L 792.66 332.91 L 803.61 310.11 L 814.56 254.37 L 825.51 241.41 L 836.46 250.25 L 847.41 274.96 L 858.35 271.37 L 869.30 287.00 L 880.25 289.90 L 891.20 256.43 L 902.15 234.08 L 913.10 237.06 L 924.05 246.21 L 935.00 211.90" fill="none" stroke="#69a7ff" stroke-width="4" stroke-linecap="round" stroke-linejoin="round"/>
<circle cx="935.00" cy="211.90" r="6" fill="#69a7ff"/>
</svg>