<svg xmlns="http://www.w3.org/2000/svg" width="960" height="430" viewBox="0 0 960 430" role="img" aria-label="Composite score history">
<rect width="100%" height="100%" fill="#0b1020" rx="20"/>
<text x="70" y="32" fill="#f5f7fb" font-family="Inter, Arial, sans-serif" font-size="24" font-weight="700">Composite score history</text>
<text x="70" y="52" fill="#93a4c3" font-family="Inter, Arial, sans-serif" font-size="13">Trailing 89 sessions through 2026-01-16</text>
<line x1="70" x2="935" y1="375.00" y2="375.00" stroke="#27314e" stroke-width="1"/>
<text x="58" y="379.00" text-anchor="end" fill="#93a4c3" font-family="Inter, Arial, sans-serif" font-size="12">0</text>
<line x1="70" x2="935" y1="312.00" y2="312.00" stroke="#27314e" stroke-width="1"/>
<text x="58" y="316.00" text-anchor="end" fill="#93a4c3" font-family="Inter, Arial, sans-serif" font-size="12">8</text>
<line x1="70" x2="935" y1="249.00" y2="249.00" stroke="#27314e" stroke-width="1"/>
<text x="58" y="253.00" text-anchor="end" fill="#93a4c3" font-family="Inter, Arial, sans-serif" font-size="12">17</text>
<line x1="70" x2="935" y1="186.00" y2="186.00" stroke="#27314e" stroke-width="1"/>
<text x="58" y="190.00" text-anchor="end" fill="#93a4c3" font-family="Inter, Arial, sans-serif" font-size="12">25</text>
<line x1="70" x2="935" y1="123.00" y2="123.00" stroke="#27314e" stroke-width="1"/>
<text x="58" y="127.00" text-anchor="end" fill="#93a4c3" font-family="Inter, Arial, sans-serif" font-size="12">33</text>
<line x1="70" x2="935" y1="60.00" y2="60.00" stroke="#27314e" stroke-width="1"/>
<text x="58" y="64.00" text-anchor="end" fill="#93a4c3" font-family="Inter, Arial, sans-serif" font-size="12">41</text>
<text x="70.00" y="412" text-anchor="middle" fill="#93a4c3" font-family="Inter, Arial, sans-serif" font-size="12">2025-09-09</text>
<text x="502.50" y="412" text-anchor="middle" fill="#93a4c3" font-family="Inter, Arial, sans-serif" font-size="12">2025-11-12</text>
<text x="935.00" y="412" text-anchor="middle" fill="#93a4c3" font-family="Inter, Arial, sans-serif" font-size="12">2026-01-16</text>
<path d="M 70.00 280.75 L 79.83 284.72 L 89.66 307.82 L 99.49 297.37 L 109.32 304.62 L 119.15 293.87 L 128.98 287.46 L 138.81 253.38 L 148.64 288.22 L 158.47 266.64 L 168.30 279.46 L 178.12 266.03 L 187.95 222.49 L 197.78 245.75 L 207.61 247.43 L 217.44 259.32 L 227.27 297.76 L 237.10 309.80 L 246.93 286.01 L 256.76 296.54 L 266.59 271.60 L 276.42 278.85 L 286.25 256.96 L 296.08 123.98 L 305.91 175.75 L 315.74 212.66 L 325.57 109.03 L 335.40 196.19 L 345.23 336.57 L 355.06 309.88 L 364.89 285.33 L 374.72 232.33 L 384.55 267.94 L 394.38 285.48 L 404.20 299.36 L 414.03 266.80 L 423.86 256.12 L 433.69 236.53 L 443.52 192.98 L 453.35 135.80 L 463.18 183.68 L 473.01 184.67 L 482.84 190.93 L 492.67 255.59 L 502.50 294.63 L 512.33 209.53 L 522.16 237.06 L 531.99 167.36 L 541.82 60.00 L 551.65 70.45 L 561.48 66.18 L 571.31 146.17 L 581.14 277.24 L 590.97 326.96 L 600.80 337.79 L 610.62 375.00 L 620.45 333.06 L 630.28 308.20 L 640.11 290.89 L 649.94 264.74 L 659.77 247.28 L 669.60 278.92 L 679.43 241.33 L 689.26 272.67 L 699.09 307.67 L 708.92 264.05 L 718.75 273.13 L 728.58 273.58 L 738.41 183.07 L 748.24 209.46 L 758.07 304.77 L 767.90 329.32 L 777.73 342.21 L 787.56 374.85 L 797.39 360.82 L 807.22 332.91 L 817.05 310.11 L 826.88 254.37 L 836.70 241.41 L 846.53 250.25 L 856.36 274.96 L 866.19 271.37 L 876.02 287.00 L 885.85 289.90 L 895.68 256.43 L 905.51 234.08 L 915.34 237.06 L 925.17 246.21 L 935.00 211.90" fill="none" stroke="#69a7ff" stroke-width="4" stroke-linecap="round" stroke-linejoin="round"/>
<circle cx="935.00" cy="211.90" r="6" fill="#69a7ff"/>
</svg>