<svg xmlns="http://www.w3.org/2000/svg" width="960" height="430" viewBox="0 0 960 430" role="img" aria-label="Composite score history">
<rect width="100%" height="100%" fill="#0b1020" rx="20"/>
<text x="70" y="32" fill="#f5f7fb" font-family="Inter, Arial, sans-serif" font-size="24" font-weight="700">Composite score history</text>
<text x="70" y="52" fill="#93a4c3" font-family="Inter, Arial, sans-serif" font-size="13">Trailing 72 sessions through 2026-01-16</text>
<line x1="70" x2="935" y1="375.00" y2="375.00" stroke="#27314e" stroke-width="1"/>
<text x="58" y="379.00" text-anchor="end" fill="#93a4c3" font-family="Inter, Arial, sans-serif" font-size="12">0</text>
<line x1="70" x2="935" y1="312.00" y2="312.00" stroke="#27314e" stroke-width="1"/>
<text x="58" y="316.00" text-anchor="end" fill="#93a4c3" font-family="Inter, Arial, sans-serif" font-size="12">8</text>
<line x1="70" x2="935" y1="249.00" y2="249.00" stroke="#27314e" stroke-width="1"/>
<text x="58" y="253.00" text-anchor="end" fill="#93a4c3" font-family="Inter, Arial, sans-serif" font-size="12">17</text>
<line x1="70" x2="935" y1="186.00" y2="186.00" stroke="#27314e" stroke-width="1"/>
<text x="58" y="190.00" text-anchor="end" fill="#93a4c3" font-family="Inter, Arial, sans-serif" font-size="12">25</text>
<line x1="70" x2="935" y1="123.00" y2="123.00" stroke="#27314e" stroke-width="1"/>
<text x="58" y="127.00" text-anchor="end" fill="#93a4c3" font-family="Inter, Arial, sans-serif" font-size="12">33</text>
<line x1="70" x2="935" y1="60.00" y2="60.00" stroke="#27314e" stroke-width="1"/>
<text x="58" y="64.00" text-anchor="end" fill="#93a4c3" font-family="Inter, Arial, sans-serif" font-size="12">41</text>
<text x="70.00" y="412" text-anchor="middle" fill="#93a4c3" font-family="Inter, Arial, sans-serif" font-size="12">2025-10-02</text>
<text x="508.59" y="412" text-anchor="middle" fill="#93a4c3" font-family="Inter, Arial, sans-serif" font-size="12">2025-11-25</text>
<text x="935.00" y="412" text-anchor="middle" fill="#93a4c3" font-family="Inter, Arial, sans-serif" font-size="12">2026-01-16</text>
<path d="M 70.00 277.85 L 82.18 262.07 L 94.37 263.67 L 106.55 252.46 L 118.73 270.08 L 130.92 256.96 L 143.10 123.98 L 155.28 175.75 L 167.46 212.66 L 179.65 109.03 L 191.83 196.19 L 204.01 336.57 L 216.20 309.88 L 228.38 285.33 L 240.56 232.33 L 252.75 267.94 L 264.93 285.48 L 277.11 299.36 L 289.30 266.80 L 301.48 256.12 L 313.66 236.53 L 325.85 192.98 L 338.03 135.80 L 350.21 183.68 L 362.39 184.67 L 374.58 190.93 L 386.76 255.59 L 398.94 294.63 L 411.13 209.53 L 423.31 237.06 L 435.49 167.36 L 447.68 60.00 L 459.86 70.45 L 472.04 66.18 L 484.23 146.17 L 496.41 277.24 L 508.59 326.96 L 520.77 337.79 L 532.96 375.00 L 545.14 333.06 L 557.32 308.20 L 569.51 290.89 L 581.69 264.74 L 593.87 247.28 L 606.06 278.92 L 618.24 241.33 L 630.42 272.67 L 642.61 307.67 L 654.79 264.05 L 666.97 273.13 L 679.15 273.58 L 691.34 183.07 L 703.52 209.46 L 715.70 304.77 L 727.89 329.32 L 740.07 342.21 L 752.25 374.85 L 764.44 360.82 L 776.62 332.91 L 788.80 310.11 L 800.99 254.37 L 813.17 241.41 L 825.35 250.25 L 837.54 274.96 L 849.72 271.37 L 861.90 287.00 L 874.08 289.90 L 886.27 256.43 L 898.45 234.08 L 910.63 237.06 L 922.82 246.21 L 935.00 211.90" fill="none" stroke="#69a7ff" stroke-width="4" stroke-linecap="round" stroke-linejoin="round"/>
<circle cx="935.00" cy="211.90" r="6" fill="#69a7ff"/>
</svg>