<svg xmlns="http://www.w3.org/2000/svg" width="960" height="430" viewBox="0 0 960 430" role="img" aria-label="Composite score history">
<rect width="100%" height="100%" fill="#0b1020" rx="20"/>
<text x="70" y="32" fill="#f5f7fb" font-family="Inter, Arial, sans-serif" font-size="24" font-weight="700">Composite score history</text>
<text x="70" y="52" fill="#93a4c3" font-family="Inter, Arial, sans-serif" font-size="13">Trailing 90 sessions through 2026-07-08</text>
<line x1="70" x2="935" y1="375.00" y2="375.00" stroke="#27314e" stroke-width="1"/>
<text x="58" y="379.00" text-anchor="end" fill="#93a4c3" font-family="Inter, Arial, sans-serif" font-size="12">6</text>
<line x1="70" x2="935" y1="312.00" y2="312.00" stroke="#27314e" stroke-width="1"/>
<text x="58" y="316.00" text-anchor="end" fill="#93a4c3" font-family="Inter, Arial, sans-serif" font-size="12">17</text>
<line x1="70" x2="935" y1="249.00" y2="249.00" stroke="#27314e" stroke-width="1"/>
<text x="58" y="253.00" text-anchor="end" fill="#93a4c3" font-family="Inter, Arial, sans-serif" font-size="12">27</text>
<line x1="70" x2="935" y1="186.00" y2="186.00" stroke="#27314e" stroke-width="1"/>
<text x="58" y="190.00" text-anchor="end" fill="#93a4c3" font-family="Inter, Arial, sans-serif" font-size="12">38</text>
<line x1="70" x2="935" y1="123.00" y2="123.00" stroke="#27314e" stroke-width="1"/>
<text x="58" y="127.00" text-anchor="end" fill="#93a4c3" font-family="Inter, Arial, sans-serif" font-size="12">49</text>
<line x1="70" x2="935" y1="60.00" y2="60.00" stroke="#27314e" stroke-width="1"/>
<text x="58" y="64.00" text-anchor="end" fill="#93a4c3" font-family="Inter, Arial, sans-serif" font-size="12">60</text>
<text x="70.00" y="412" text-anchor="middle" fill="#93a4c3" font-family="Inter, Arial, sans-serif" font-size="12">2026-02-27</text>
<text x="507.36" y="412" text-anchor="middle" fill="#93a4c3" font-family="Inter, Arial, sans-serif" font-size="12">2026-05-04</text>
<text x="935.00" y="412" text-anchor="middle" fill="#93a4c3" font-family="Inter, Arial, sans-serif" font-size="12">2026-07-08</text>
<path d="M 70.00 307.73 L 79.72 289.22 L 89.44 208.48 L 99.16 224.88 L 108.88 170.72 L 118.60 60.00 L 128.31 169.66 L 138.03 226.40 L 147.75 164.10 L 157.47 89.98 L 167.19 158.83 L 176.91 205.56 L 186.63 202.39 L 196.35 142.44 L 206.07 235.71 L 215.79 157.90 L 225.51 166.56 L 235.22 113.57 L 244.94 238.40 L 254.66 138.81 L 264.38 156.14 L 274.10 103.15 L 283.82 260.18 L 293.54 255.03 L 303.26 297.01 L 312.98 314.34 L 322.70 314.63 L 332.42 340.75 L 342.13 349.47 L 351.85 339.64 L 361.57 351.99 L 371.29 373.24 L 381.01 336.36 L 390.73 335.01 L 400.45 375.00 L 410.17 348.48 L 419.89 299.76 L 429.61 307.49 L 439.33 288.70 L 449.04 266.21 L 458.76 282.84 L 468.48 288.46 L 478.20 236.00 L 487.92 277.57 L 497.64 259.13 L 507.36 216.45 L 517.08 282.67 L 526.80 348.01 L 536.52 313.41 L 546.24 325.58 L 555.96 328.16 L 565.67 286.53 L 575.39 236.24 L 585.11 284.07 L 594.83 204.38 L 604.55 243.79 L 614.27 231.26 L 623.99 274.76 L 633.71 256.08 L 643.43 300.93 L 653.15 324.59 L 662.87 338.41 L 672.58 332.90 L 682.30 337.59 L 692.02 328.22 L 701.74 314.75 L 711.46 290.86 L 721.18 301.58 L 730.90 125.40 L 740.62 178.92 L 750.34 164.98 L 760.06 124.99 L 769.78 205.09 L 779.49 317.27 L 789.21 343.68 L 798.93 342.33 L 808.65 321.60 L 818.37 308.37 L 828.09 286.41 L 837.81 197.89 L 847.53 234.42 L 857.25 289.28 L 866.97 252.92 L 876.69 306.03 L 886.40 343.50 L 896.12 311.30 L 905.84 336.24 L 915.56 331.09 L 925.28 300.17 L 935.00 273.59" fill="none" stroke="#69a7ff" stroke-width="4" stroke-linecap="round" stroke-linejoin="round"/>
<circle cx="935.00" cy="273.59" r="6" fill="#69a7ff"/>
</svg>