<svg xmlns="http://www.w3.org/2000/svg" width="960" height="430" viewBox="0 0 960 430" role="img" aria-label="Composite score history">
<rect width="100%" height="100%" fill="#0b1020" rx="20"/>
<text x="70" y="32" fill="#f5f7fb" font-family="Inter, Arial, sans-serif" font-size="24" font-weight="700">Composite score history</text>
<text x="70" y="52" fill="#93a4c3" font-family="Inter, Arial, sans-serif" font-size="13">Trailing 54 sessions through 2025-12-11</text>
<line x1="70" x2="935" y1="375.00" y2="375.00" stroke="#27314e" stroke-width="1"/>
<text x="58" y="379.00" text-anchor="end" fill="#93a4c3" font-family="Inter, Arial, sans-serif" font-size="12">0</text>
<line x1="70" x2="935" y1="312.00" y2="312.00" stroke="#27314e" stroke-width="1"/>
<text x="58" y="316.00" text-anchor="end" fill="#93a4c3" font-family="Inter, Arial, sans-serif" font-size="12">8</text>
<line x1="70" x2="935" y1="249.00" y2="249.00" stroke="#27314e" stroke-width="1"/>
<text x="58" y="253.00" text-anchor="end" fill="#93a4c3" font-family="Inter, Arial, sans-serif" font-size="12">17</text>
<line x1="70" x2="935" y1="186.00" y2="186.00" stroke="#27314e" stroke-width="1"/>
<text x="58" y="190.00" text-anchor="end" fill="#93a4c3" font-family="Inter, Arial, sans-serif" font-size="12">25</text>
<line x1="70" x2="935" y1="123.00" y2="123.00" stroke="#27314e" stroke-width="1"/>
<text x="58" y="127.00" text-anchor="end" fill="#93a4c3" font-family="Inter, Arial, sans-serif" font-size="12">33</text>
<line x1="70" x2="935" y1="60.00" y2="60.00" stroke="#27314e" stroke-width="1"/>
<text x="58" y="64.00" text-anchor="end" fill="#93a4c3" font-family="Inter, Arial, sans-serif" font-size="12">41</text>
<text x="70.00" y="412" text-anchor="middle" fill="#93a4c3" font-family="Inter, Arial, sans-serif" font-size="12">2025-09-24</text>
<text x="510.66" y="412" text-anchor="middle" fill="#93a4c3" font-family="Inter, Arial, sans-serif" font-size="12">2025-11-03</text>
<text x="935.00" y="412" text-anchor="middle" fill="#93a4c3" font-family="Inter, Arial, sans-serif" font-size="12">2025-12-11</text>
<path d="M 70.00 273.74 L 86.32 222.49 L 102.64 259.17 L 118.96 260.54 L 135.28 276.25 L 151.60 297.76 L 167.92 309.80 L 184.25 286.01 L 200.57 296.54 L 216.89 271.60 L 233.21 278.85 L 249.53 256.96 L 265.85 123.98 L 282.17 175.75 L 298.49 212.66 L 314.81 109.03 L 331.13 196.19 L 347.45 336.57 L 363.77 309.88 L 380.09 285.33 L 396.42 232.33 L 412.74 267.94 L 429.06 285.48 L 445.38 299.36 L 461.70 266.80 L 478.02 256.12 L 494.34 236.53 L 510.66 192.98 L 526.98 135.80 L 543.30 183.68 L 559.62 184.67 L 575.94 190.93 L 592.26 255.59 L 608.58 294.63 L 624.91 209.53 L 641.23 237.06 L 657.55 167.36 L 673.87 60.00 L 690.19 70.45 L 706.51 66.18 L 722.83 146.17 L 739.15 277.24 L 755.47 326.96 L 771.79 337.79 L 788.11 375.00 L 804.43 333.06 L 820.75 308.20 L 837.08 290.89 L 853.40 264.74 L 869.72 247.28 L 886.04 278.92 L 902.36 241.33 L 918.68 272.67 L 935.00 307.67" fill="none" stroke="#69a7ff" stroke-width="4" stroke-linecap="round" stroke-linejoin="round"/>
<circle cx="935.00" cy="307.67" r="6" fill="#69a7ff"/>
</svg>