<svg xmlns="http://www.w3.org/2000/svg" width="960" height="430" viewBox="0 0 960 430" role="img" aria-label="Composite score history">
<rect width="100%" height="100%" fill="#0b1020" rx="20"/>
<text x="70" y="32" fill="#f5f7fb" font-family="Inter, Arial, sans-serif" font-size="24" font-weight="700">Composite score history</text>
<text x="70" y="52" fill="#93a4c3" font-family="Inter, Arial, sans-serif" font-size="13">Trailing 59 sessions through 2025-12-11</text>
<line x1="70" x2="935" y1="375.00" y2="375.00" stroke="#27314e" stroke-width="1"/>
<text x="58" y="379.00" text-anchor="end" fill="#93a4c3" font-family="Inter, Arial, sans-serif" font-size="12">0</text>
<line x1="70" x2="935" y1="312.00" y2="312.00" stroke="#27314e" stroke-width="1"/>
<text x="58" y="316.00" text-anchor="end" fill="#93a4c3" font-family="Inter, Arial, sans-serif" font-size="12">8</text>
<line x1="70" x2="935" y1="249.00" y2="249.00" stroke="#27314e" stroke-width="1"/>
<text x="58" y="253.00" text-anchor="end" fill="#93a4c3" font-family="Inter, Arial, sans-serif" font-size="12">17</text>
<line x1="70" x2="935" y1="186.00" y2="186.00" stroke="#27314e" stroke-width="1"/>
<text x="58" y="190.00" text-anchor="end" fill="#93a4c3" font-family="Inter, Arial, sans-serif" font-size="12">25</text>
<line x1="70" x2="935" y1="123.00" y2="123.00" stroke="#27314e" stroke-width="1"/>
<text x="58" y="127.00" text-anchor="end" fill="#93a4c3" font-family="Inter, Arial, sans-serif" font-size="12">33</text>
<line x1="70" x2="935" y1="60.00" y2="60.00" stroke="#27314e" stroke-width="1"/>
<text x="58" y="64.00" text-anchor="end" fill="#93a4c3" font-family="Inter, Arial, sans-serif" font-size="12">41</text>
<text x="70.00" y="412" text-anchor="middle" fill="#93a4c3" font-family="Inter, Arial, sans-serif" font-size="12">2025-09-17</text>
<text x="502.50" y="412" text-anchor="middle" fill="#93a4c3" font-family="Inter, Arial, sans-serif" font-size="12">2025-10-29</text>
<text x="935.00" y="412" text-anchor="middle" fill="#93a4c3" font-family="Inter, Arial, sans-serif" font-size="12">2025-12-11</text>
<path d="M 70.00 277.78 L 84.91 264.28 L 99.83 280.07 L 114.74 269.01 L 129.66 279.84 L 144.57 266.03 L 159.48 222.49 L 174.40 245.75 L 189.31 247.43 L 204.22 259.32 L 219.14 297.76 L 234.05 309.80 L 248.97 286.01 L 263.88 296.54 L 278.79 271.60 L 293.71 278.85 L 308.62 256.96 L 323.53 123.98 L 338.45 175.75 L 353.36 212.66 L 368.28 109.03 L 383.19 196.19 L 398.10 336.57 L 413.02 309.88 L 427.93 285.33 L 442.84 232.33 L 457.76 267.94 L 472.67 285.48 L 487.59 299.36 L 502.50 266.80 L 517.41 256.12 L 532.33 236.53 L 547.24 192.98 L 562.16 135.80 L 577.07 183.68 L 591.98 184.67 L 606.90 190.93 L 621.81 255.59 L 636.72 294.63 L 651.64 209.53 L 666.55 237.06 L 681.47 167.36 L 696.38 60.00 L 711.29 70.45 L 726.21 66.18 L 741.12 146.17 L 756.03 277.24 L 770.95 326.96 L 785.86 337.79 L 800.78 375.00 L 815.69 333.06 L 830.60 308.20 L 845.52 290.89 L 860.43 264.74 L 875.34 247.28 L 890.26 278.92 L 905.17 241.33 L 920.09 272.67 L 935.00 307.67" fill="none" stroke="#69a7ff" stroke-width="4" stroke-linecap="round" stroke-linejoin="round"/>
<circle cx="935.00" cy="307.67" r="6" fill="#69a7ff"/>
</svg>