<svg xmlns="http://www.w3.org/2000/svg" width="960" height="430" viewBox="0 0 960 430" role="img" aria-label="Composite score history">
<rect width="100%" height="100%" fill="#0b1020" rx="20"/>
<text x="70" y="32" fill="#f5f7fb" font-family="Inter, Arial, sans-serif" font-size="24" font-weight="700">Composite score history</text>
<text x="70" y="52" fill="#93a4c3" font-family="Inter, Arial, sans-serif" font-size="13">Trailing 63 sessions through 2025-12-11</text>
<line x1="70" x2="935" y1="375.00" y2="375.00" stroke="#27314e" stroke-width="1"/>
<text x="58" y="379.00" text-anchor="end" fill="#93a4c3" font-family="Inter, Arial, sans-serif" font-size="12">0</text>
<line x1="70" x2="935" y1="312.00" y2="312.00" stroke="#27314e" stroke-width="1"/>
<text x="58" y="316.00" text-anchor="end" fill="#93a4c3" font-family="Inter, Arial, sans-serif" font-size="12">8</text>
<line x1="70" x2="935" y1="249.00" y2="249.00" stroke="#27314e" stroke-width="1"/>
<text x="58" y="253.00" text-anchor="end" fill="#93a4c3" font-family="Inter, Arial, sans-serif" font-size="12">17</text>
<line x1="70" x2="935" y1="186.00" y2="186.00" stroke="#27314e" stroke-width="1"/>
<text x="58" y="190.00" text-anchor="end" fill="#93a4c3" font-family="Inter, Arial, sans-serif" font-size="12">25</text>
<line x1="70" x2="935" y1="123.00" y2="123.00" stroke="#27314e" stroke-width="1"/>
<text x="58" y="127.00" text-anchor="end" fill="#93a4c3" font-family="Inter, Arial, sans-serif" font-size="12">33</text>
<line x1="70" x2="935" y1="60.00" y2="60.00" stroke="#27314e" stroke-width="1"/>
<text x="58" y="64.00" text-anchor="end" fill="#93a4c3" font-family="Inter, Arial, sans-serif" font-size="12">41</text>
<text x="70.00" y="412" text-anchor="middle" fill="#93a4c3" font-family="Inter, Arial, sans-serif" font-size="12">2025-09-11</text>
<text x="502.50" y="412" text-anchor="middle" fill="#93a4c3" font-family="Inter, Arial, sans-serif" font-size="12">2025-10-27</text>
<text x="935.00" y="412" text-anchor="middle" fill="#93a4c3" font-family="Inter, Arial, sans-serif" font-size="12">2025-12-11</text>
<path d="M 70.00 285.94 L 83.95 264.28 L 97.90 274.19 L 111.85 265.73 L 125.81 266.64 L 139.76 253.38 L 153.71 288.22 L 167.66 266.64 L 181.61 279.46 L 195.56 266.03 L 209.52 222.49 L 223.47 245.75 L 237.42 247.43 L 251.37 259.32 L 265.32 297.76 L 279.27 309.80 L 293.23 286.01 L 307.18 296.54 L 321.13 271.60 L 335.08 278.85 L 349.03 256.96 L 362.98 123.98 L 376.94 175.75 L 390.89 212.66 L 404.84 109.03 L 418.79 196.19 L 432.74 336.57 L 446.69 309.88 L 460.65 285.33 L 474.60 232.33 L 488.55 267.94 L 502.50 285.48 L 516.45 299.36 L 530.40 266.80 L 544.35 256.12 L 558.31 236.53 L 572.26 192.98 L 586.21 135.80 L 600.16 183.68 L 614.11 184.67 L 628.06 190.93 L 642.02 255.59 L 655.97 294.63 L 669.92 209.53 L 683.87 237.06 L 697.82 167.36 L 711.77 60.00 L 725.73 70.45 L 739.68 66.18 L 753.63 146.17 L 767.58 277.24 L 781.53 326.96 L 795.48 337.79 L 809.44 375.00 L 823.39 333.06 L 837.34 308.20 L 851.29 290.89 L 865.24 264.74 L 879.19 247.28 L 893.15 278.92 L 907.10 241.33 L 921.05 272.67 L 935.00 307.67" fill="none" stroke="#69a7ff" stroke-width="4" stroke-linecap="round" stroke-linejoin="round"/>
<circle cx="935.00" cy="307.67" r="6" fill="#69a7ff"/>
</svg>