<svg xmlns="http://www.w3.org/2000/svg" width="960" height="430" viewBox="0 0 960 430" role="img" aria-label="Composite score history">
<rect width="100%" height="100%" fill="#0b1020" rx="20"/>
<text x="70" y="32" fill="#f5f7fb" font-family="Inter, Arial, sans-serif" font-size="24" font-weight="700">Composite score history</text>
<text x="70" y="52" fill="#93a4c3" font-family="Inter, Arial, sans-serif" font-size="13">Trailing 69 sessions through 2025-12-11</text>
<line x1="70" x2="935" y1="375.00" y2="375.00" stroke="#27314e" stroke-width="1"/>
<text x="58" y="379.00" text-anchor="end" fill="#93a4c3" font-family="Inter, Arial, sans-serif" font-size="12">0</text>
<line x1="70" x2="935" y1="312.00" y2="312.00" stroke="#27314e" stroke-width="1"/>
<text x="58" y="316.00" text-anchor="end" fill="#93a4c3" font-family="Inter, Arial, sans-serif" font-size="12">8</text>
<line x1="70" x2="935" y1="249.00" y2="249.00" stroke="#27314e" stroke-width="1"/>
<text x="58" y="253.00" text-anchor="end" fill="#93a4c3" font-family="Inter, Arial, sans-serif" font-size="12">17</text>
<line x1="70" x2="935" y1="186.00" y2="186.00" stroke="#27314e" stroke-width="1"/>
<text x="58" y="190.00" text-anchor="end" fill="#93a4c3" font-family="Inter, Arial, sans-serif" font-size="12">25</text>
<line x1="70" x2="935" y1="123.00" y2="123.00" stroke="#27314e" stroke-width="1"/>
<text x="58" y="127.00" text-anchor="end" fill="#93a4c3" font-family="Inter, Arial, sans-serif" font-size="12">33</text>
<line x1="70" x2="935" y1="60.00" y2="60.00" stroke="#27314e" stroke-width="1"/>
<text x="58" y="64.00" text-anchor="end" fill="#93a4c3" font-family="Inter, Arial, sans-serif" font-size="12">41</text>
<text x="70.00" y="412" text-anchor="middle" fill="#93a4c3" font-family="Inter, Arial, sans-serif" font-size="12">2025-09-03</text>
<text x="502.50" y="412" text-anchor="middle" fill="#93a4c3" font-family="Inter, Arial, sans-serif" font-size="12">2025-10-22</text>
<text x="935.00" y="412" text-anchor="middle" fill="#93a4c3" font-family="Inter, Arial, sans-serif" font-size="12">2025-12-11</text>
<path d="M 70.00 266.11 L 82.72 291.43 L 95.44 292.42 L 108.16 298.98 L 120.88 299.74 L 133.60 305.99 L 146.32 310.95 L 159.04 297.45 L 171.76 295.09 L 184.49 293.87 L 197.21 287.46 L 209.93 253.38 L 222.65 288.22 L 235.37 266.64 L 248.09 279.46 L 260.81 266.03 L 273.53 222.49 L 286.25 245.75 L 298.97 247.43 L 311.69 259.32 L 324.41 297.76 L 337.13 309.80 L 349.85 286.01 L 362.57 296.54 L 375.29 271.60 L 388.01 278.85 L 400.74 256.96 L 413.46 123.98 L 426.18 175.75 L 438.90 212.66 L 451.62 109.03 L 464.34 196.19 L 477.06 336.57 L 489.78 309.88 L 502.50 285.33 L 515.22 232.33 L 527.94 267.94 L 540.66 285.48 L 553.38 299.36 L 566.10 266.80 L 578.82 256.12 L 591.54 236.53 L 604.26 192.98 L 616.99 135.80 L 629.71 183.68 L 642.43 184.67 L 655.15 190.93 L 667.87 255.59 L 680.59 294.63 L 693.31 209.53 L 706.03 237.06 L 718.75 167.36 L 731.47 60.00 L 744.19 70.45 L 756.91 66.18 L 769.63 146.17 L 782.35 277.24 L 795.07 326.96 L 807.79 337.79 L 820.51 375.00 L 833.24 333.06 L 845.96 308.20 L 858.68 290.89 L 871.40 264.74 L 884.12 247.28 L 896.84 278.92 L 909.56 241.33 L 922.28 272.67 L 935.00 307.67" fill="none" stroke="#69a7ff" stroke-width="4" stroke-linecap="round" stroke-linejoin="round"/>
<circle cx="935.00" cy="307.67" r="6" fill="#69a7ff"/>
</svg>