<svg xmlns="http://www.w3.org/2000/svg" width="960" height="430" viewBox="0 0 960 430" role="img" aria-label="Composite score history">
<rect width="100%" height="100%" fill="#0b1020" rx="20"/>
<text x="70" y="32" fill="#f5f7fb" font-family="Inter, Arial, sans-serif" font-size="24" font-weight="700">Composite score history</text>
<text x="70" y="52" fill="#93a4c3" font-family="Inter, Arial, sans-serif" font-size="13">Trailing 83 sessions through 2025-12-11</text>
<line x1="70" x2="935" y1="375.00" y2="375.00" stroke="#27314e" stroke-width="1"/>
<text x="58" y="379.00" text-anchor="end" fill="#93a4c3" font-family="Inter, Arial, sans-serif" font-size="12">0</text>
<line x1="70" x2="935" y1="312.00" y2="312.00" stroke="#27314e" stroke-width="1"/>
<text x="58" y="316.00" text-anchor="end" fill="#93a4c3" font-family="Inter, Arial, sans-serif" font-size="12">8</text>
<line x1="70" x2="935" y1="249.00" y2="249.00" stroke="#27314e" stroke-width="1"/>
<text x="58" y="253.00" text-anchor="end" fill="#93a4c3" font-family="Inter, Arial, sans-serif" font-size="12">17</text>
<line x1="70" x2="935" y1="186.00" y2="186.00" stroke="#27314e" stroke-width="1"/>
<text x="58" y="190.00" text-anchor="end" fill="#93a4c3" font-family="Inter, Arial, sans-serif" font-size="12">25</text>
<line x1="70" x2="935" y1="123.00" y2="123.00" stroke="#27314e" stroke-width="1"/>
<text x="58" y="127.00" text-anchor="end" fill="#93a4c3" font-family="Inter, Arial, sans-serif" font-size="12">33</text>
<line x1="70" x2="935" y1="60.00" y2="60.00" stroke="#27314e" stroke-width="1"/>
<text x="58" y="64.00" text-anchor="end" fill="#93a4c3" font-family="Inter, Arial, sans-serif" font-size="12">41</text>
<text x="70.00" y="412" text-anchor="middle" fill="#93a4c3" font-family="Inter, Arial, sans-serif" font-size="12">2025-08-13</text>
<text x="502.50" y="412" text-anchor="middle" fill="#93a4c3" font-family="Inter, Arial, sans-serif" font-size="12">2025-10-10</text>
<text x="935.00" y="412" text-anchor="middle" fill="#93a4c3" font-family="Inter, Arial, sans-serif" font-size="12">2025-12-11</text>
<path d="M 70.00 278.46 L 80.55 244.76 L 91.10 232.33 L 101.65 226.15 L 112.20 206.86 L 122.74 198.55 L 133.29 168.13 L 143.84 254.83 L 154.39 233.17 L 164.94 245.90 L 175.49 258.71 L 186.04 293.71 L 196.59 259.71 L 207.13 225.47 L 217.68 243.31 L 228.23 278.39 L 238.78 265.27 L 249.33 295.39 L 259.88 309.58 L 270.43 305.99 L 280.98 310.95 L 291.52 297.45 L 302.07 295.09 L 312.62 293.87 L 323.17 287.46 L 333.72 253.38 L 344.27 288.22 L 354.82 266.64 L 365.37 279.46 L 375.91 266.03 L 386.46 222.49 L 397.01 245.75 L 407.56 247.43 L 418.11 259.32 L 428.66 297.76 L 439.21 309.80 L 449.76 286.01 L 460.30 296.54 L 470.85 271.60 L 481.40 278.85 L 491.95 256.96 L 502.50 123.98 L 513.05 175.75 L 523.60 212.66 L 534.15 109.03 L 544.70 196.19 L 555.24 336.57 L 565.79 309.88 L 576.34 285.33 L 586.89 232.33 L 597.44 267.94 L 607.99 285.48 L 618.54 299.36 L 629.09 266.80 L 639.63 256.12 L 650.18 236.53 L 660.73 192.98 L 671.28 135.80 L 681.83 183.68 L 692.38 184.67 L 702.93 190.93 L 713.48 255.59 L 724.02 294.63 L 734.57 209.53 L 745.12 237.06 L 755.67 167.36 L 766.22 60.00 L 776.77 70.45 L 787.32 66.18 L 797.87 146.17 L 808.41 277.24 L 818.96 326.96 L 829.51 337.79 L 840.06 375.00 L 850.61 333.06 L 861.16 308.20 L 871.71 290.89 L 882.26 264.74 L 892.80 247.28 L 903.35 278.92 L 913.90 241.33 L 924.45 272.67 L 935.00 307.67" fill="none" stroke="#69a7ff" stroke-width="4" stroke-linecap="round" stroke-linejoin="round"/>
<circle cx="935.00" cy="307.67" r="6" fill="#69a7ff"/>
</svg>