<svg xmlns="http://www.w3.org/2000/svg" width="960" height="430" viewBox="0 0 960 430" role="img" aria-label="Composite score history">
<rect width="100%" height="100%" fill="#0b1020" rx="20"/>
<text x="70" y="32" fill="#f5f7fb" font-family="Inter, Arial, sans-serif" font-size="24" font-weight="700">Composite score history</text>
<text x="70" y="52" fill="#93a4c3" font-family="Inter, Arial, sans-serif" font-size="13">Trailing 87 sessions through 2025-12-11</text>
<line x1="70" x2="935" y1="375.00" y2="375.00" stroke="#27314e" stroke-width="1"/>
<text x="58" y="379.00" text-anchor="end" fill="#93a4c3" font-family="Inter, Arial, sans-serif" font-size="12">0</text>
<line x1="70" x2="935" y1="312.00" y2="312.00" stroke="#27314e" stroke-width="1"/>
<text x="58" y="316.00" text-anchor="end" fill="#93a4c3" font-family="Inter, Arial, sans-serif" font-size="12">8</text>
<line x1="70" x2="935" y1="249.00" y2="249.00" stroke="#27314e" stroke-width="1"/>
<text x="58" y="253.00" text-anchor="end" fill="#93a4c3" font-family="Inter, Arial, sans-serif" font-size="12">17</text>
<line x1="70" x2="935" y1="186.00" y2="186.00" stroke="#27314e" stroke-width="1"/>
<text x="58" y="190.00" text-anchor="end" fill="#93a4c3" font-family="Inter, Arial, sans-serif" font-size="12">25</text>
<line x1="70" x2="935" y1="123.00" y2="123.00" stroke="#27314e" stroke-width="1"/>
<text x="58" y="127.00" text-anchor="end" fill="#93a4c3" font-family="Inter, Arial, sans-serif" font-size="12">33</text>
<line x1="70" x2="935" y1="60.00" y2="60.00" stroke="#27314e" stroke-width="1"/>
<text x="58" y="64.00" text-anchor="end" fill="#93a4c3" font-family="Inter, Arial, sans-serif" font-size="12">41</text>
<text x="70.00" y="412" text-anchor="middle" fill="#93a4c3" font-family="Inter, Arial, sans-serif" font-size="12">2025-08-07</text>
<text x="502.50" y="412" text-anchor="middle" fill="#93a4c3" font-family="Inter, Arial, sans-serif" font-size="12">2025-10-08</text>
<text x="935.00" y="412" text-anchor="middle" fill="#93a4c3" font-family="Inter, Arial, sans-serif" font-size="12">2025-12-11</text>
<path d="M 70.00 264.97 L 80.06 249.03 L 90.12 237.90 L 100.17 297.53 L 110.23 312.70 L 120.29 296.69 L 130.35 288.91 L 140.41 290.05 L 150.47 236.07 L 160.52 198.55 L 170.58 168.13 L 180.64 254.83 L 190.70 233.17 L 200.76 245.90 L 210.81 258.71 L 220.87 293.71 L 230.93 259.71 L 240.99 225.47 L 251.05 243.31 L 261.10 278.39 L 271.16 265.27 L 281.22 295.39 L 291.28 309.58 L 301.34 305.99 L 311.40 310.95 L 321.45 297.45 L 331.51 295.09 L 341.57 293.87 L 351.63 287.46 L 361.69 253.38 L 371.74 288.22 L 381.80 266.64 L 391.86 279.46 L 401.92 266.03 L 411.98 222.49 L 422.03 245.75 L 432.09 247.43 L 442.15 259.32 L 452.21 297.76 L 462.27 309.80 L 472.33 286.01 L 482.38 296.54 L 492.44 271.60 L 502.50 278.85 L 512.56 256.96 L 522.62 123.98 L 532.67 175.75 L 542.73 212.66 L 552.79 109.03 L 562.85 196.19 L 572.91 336.57 L 582.97 309.88 L 593.02 285.33 L 603.08 232.33 L 613.14 267.94 L 623.20 285.48 L 633.26 299.36 L 643.31 266.80 L 653.37 256.12 L 663.43 236.53 L 673.49 192.98 L 683.55 135.80 L 693.60 183.68 L 703.66 184.67 L 713.72 190.93 L 723.78 255.59 L 733.84 294.63 L 743.90 209.53 L 753.95 237.06 L 764.01 167.36 L 774.07 60.00 L 784.13 70.45 L 794.19 66.18 L 804.24 146.17 L 814.30 277.24 L 824.36 326.96 L 834.42 337.79 L 844.48 375.00 L 854.53 333.06 L 864.59 308.20 L 874.65 290.89 L 884.71 264.74 L 894.77 247.28 L 904.83 278.92 L 914.88 241.33 L 924.94 272.67 L 935.00 307.67" fill="none" stroke="#69a7ff" stroke-width="4" stroke-linecap="round" stroke-linejoin="round"/>
<circle cx="935.00" cy="307.67" r="6" fill="#69a7ff"/>
</svg>