<svg xmlns="http://www.w3.org/2000/svg" width="960" height="430" viewBox="0 0 960 430" role="img" aria-label="Composite score history">
<rect width="100%" height="100%" fill="#0b1020" rx="20"/>
<text x="70" y="32" fill="#f5f7fb" font-family="Inter, Arial, sans-serif" font-size="24" font-weight="700">Composite score history</text>
<text x="70" y="52" fill="#93a4c3" font-family="Inter, Arial, sans-serif" font-size="13">Trailing 46 sessions through 2025-12-11</text>
<line x1="70" x2="935" y1="375.00" y2="375.00" stroke="#27314e" stroke-width="1"/>
<text x="58" y="379.00" text-anchor="end" fill="#93a4c3" font-family="Inter, Arial, sans-serif" font-size="12">0</text>
<line x1="70" x2="935" y1="312.00" y2="312.00" stroke="#27314e" stroke-width="1"/>
<text x="58" y="316.00" text-anchor="end" fill="#93a4c3" font-family="Inter, Arial, sans-serif" font-size="12">8</text>
<line x1="70" x2="935" y1="249.00" y2="249.00" stroke="#27314e" stroke-width="1"/>
<text x="58" y="253.00" text-anchor="end" fill="#93a4c3" font-family="Inter, Arial, sans-serif" font-size="12">17</text>
<line x1="70" x2="935" y1="186.00" y2="186.00" stroke="#27314e" stroke-width="1"/>
<text x="58" y="190.00" text-anchor="end" fill="#93a4c3" font-family="Inter, Arial, sans-serif" font-size="12">25</text>
<line x1="70" x2="935" y1="123.00" y2="123.00" stroke="#27314e" stroke-width="1"/>
<text x="58" y="127.00" text-anchor="end" fill="#93a4c3" font-family="Inter, Arial, sans-serif" font-size="12">33</text>
<line x1="70" x2="935" y1="60.00" y2="60.00" stroke="#27314e" stroke-width="1"/>
<text x="58" y="64.00" text-anchor="end" fill="#93a4c3" font-family="Inter, Arial, sans-serif" font-size="12">41</text>
<text x="70.00" y="412" text-anchor="middle" fill="#93a4c3" font-family="Inter, Arial, sans-serif" font-size="12">2025-10-06</text>
<text x="512.11" y="412" text-anchor="middle" fill="#93a4c3" font-family="Inter, Arial, sans-serif" font-size="12">2025-11-07</text>
<text x="935.00" y="412" text-anchor="middle" fill="#93a4c3" font-family="Inter, Arial, sans-serif" font-size="12">2025-12-11</text>
<path d="M 70.00 275.72 L 89.22 246.44 L 108.44 275.95 L 127.67 267.03 L 146.89 108.42 L 166.11 175.75 L 185.33 212.66 L 204.56 109.03 L 223.78 196.19 L 243.00 336.57 L 262.22 309.88 L 281.44 285.33 L 300.67 232.33 L 319.89 267.94 L 339.11 285.48 L 358.33 299.36 L 377.56 266.80 L 396.78 256.12 L 416.00 236.53 L 435.22 192.98 L 454.44 135.80 L 473.67 183.68 L 492.89 184.67 L 512.11 190.93 L 531.33 255.59 L 550.56 294.63 L 569.78 209.53 L 589.00 237.06 L 608.22 167.36 L 627.44 60.00 L 646.67 70.45 L 665.89 66.18 L 685.11 146.17 L 704.33 277.24 L 723.56 326.96 L 742.78 337.79 L 762.00 375.00 L 781.22 333.06 L 800.44 308.20 L 819.67 290.89 L 838.89 264.74 L 858.11 247.28 L 877.33 278.92 L 896.56 241.33 L 915.78 272.67 L 935.00 307.67" fill="none" stroke="#69a7ff" stroke-width="4" stroke-linecap="round" stroke-linejoin="round"/>
<circle cx="935.00" cy="307.67" r="6" fill="#69a7ff"/>
</svg>