<svg xmlns="http://www.w3.org/2000/svg" width="960" height="430" viewBox="0 0 960 430" role="img" aria-label="Composite score history">
<rect width="100%" height="100%" fill="#0b1020" rx="20"/>
<text x="70" y="32" fill="#f5f7fb" font-family="Inter, Arial, sans-serif" font-size="24" font-weight="700">Composite score history</text>
<text x="70" y="52" fill="#93a4c3" font-family="Inter, Arial, sans-serif" font-size="13">Trailing 71 sessions through 2025-12-11</text>
<line x1="70" x2="935" y1="375.00" y2="375.00" stroke="#27314e" stroke-width="1"/>
<text x="58" y="379.00" text-anchor="end" fill="#93a4c3" font-family="Inter, Arial, sans-serif" font-size="12">0</text>
<line x1="70" x2="935" y1="312.00" y2="312.00" stroke="#27314e" stroke-width="1"/>
<text x="58" y="316.00" text-anchor="end" fill="#93a4c3" font-family="Inter, Arial, sans-serif" font-size="12">8</text>
<line x1="70" x2="935" y1="249.00" y2="249.00" stroke="#27314e" stroke-width="1"/>
<text x="58" y="253.00" text-anchor="end" fill="#93a4c3" font-family="Inter, Arial, sans-serif" font-size="12">17</text>
<line x1="70" x2="935" y1="186.00" y2="186.00" stroke="#27314e" stroke-width="1"/>
<text x="58" y="190.00" text-anchor="end" fill="#93a4c3" font-family="Inter, Arial, sans-serif" font-size="12">25</text>
<line x1="70" x2="935" y1="123.00" y2="123.00" stroke="#27314e" stroke-width="1"/>
<text x="58" y="127.00" text-anchor="end" fill="#93a4c3" font-family="Inter, Arial, sans-serif" font-size="12">33</text>
<line x1="70" x2="935" y1="60.00" y2="60.00" stroke="#27314e" stroke-width="1"/>
<text x="58" y="64.00" text-anchor="end" fill="#93a4c3" font-family="Inter, Arial, sans-serif" font-size="12">41</text>
<text x="70.00" y="412" text-anchor="middle" fill="#93a4c3" font-family="Inter, Arial, sans-serif" font-size="12">2025-08-29</text>
<text x="502.50" y="412" text-anchor="middle" fill="#93a4c3" font-family="Inter, Arial, sans-serif" font-size="12">2025-10-21</text>
<text x="935.00" y="412" text-anchor="middle" fill="#93a4c3" font-family="Inter, Arial, sans-serif" font-size="12">2025-12-11</text>
<path d="M 70.00 271.75 L 82.36 192.07 L 94.71 245.90 L 107.07 287.92 L 119.43 288.83 L 131.79 295.39 L 144.14 309.58 L 156.50 305.99 L 168.86 310.95 L 181.21 297.45 L 193.57 295.09 L 205.93 293.87 L 218.29 287.46 L 230.64 253.38 L 243.00 288.22 L 255.36 266.64 L 267.71 279.46 L 280.07 266.03 L 292.43 222.49 L 304.79 245.75 L 317.14 247.43 L 329.50 259.32 L 341.86 297.76 L 354.21 309.80 L 366.57 286.01 L 378.93 296.54 L 391.29 271.60 L 403.64 278.85 L 416.00 256.96 L 428.36 123.98 L 440.71 175.75 L 453.07 212.66 L 465.43 109.03 L 477.79 196.19 L 490.14 336.57 L 502.50 309.88 L 514.86 285.33 L 527.21 232.33 L 539.57 267.94 L 551.93 285.48 L 564.29 299.36 L 576.64 266.80 L 589.00 256.12 L 601.36 236.53 L 613.71 192.98 L 626.07 135.80 L 638.43 183.68 L 650.79 184.67 L 663.14 190.93 L 675.50 255.59 L 687.86 294.63 L 700.21 209.53 L 712.57 237.06 L 724.93 167.36 L 737.29 60.00 L 749.64 70.45 L 762.00 66.18 L 774.36 146.17 L 786.71 277.24 L 799.07 326.96 L 811.43 337.79 L 823.79 375.00 L 836.14 333.06 L 848.50 308.20 L 860.86 290.89 L 873.21 264.74 L 885.57 247.28 L 897.93 278.92 L 910.29 241.33 L 922.64 272.67 L 935.00 307.67" fill="none" stroke="#69a7ff" stroke-width="4" stroke-linecap="round" stroke-linejoin="round"/>
<circle cx="935.00" cy="307.67" r="6" fill="#69a7ff"/>
</svg>