<svg xmlns="http://www.w3.org/2000/svg" width="960" height="430" viewBox="0 0 960 430" role="img" aria-label="Composite score history">
<rect width="100%" height="100%" fill="#0b1020" rx="20"/>
<text x="70" y="32" fill="#f5f7fb" font-family="Inter, Arial, sans-serif" font-size="24" font-weight="700">Composite score history</text>
<text x="70" y="52" fill="#93a4c3" font-family="Inter, Arial, sans-serif" font-size="13">Trailing 47 sessions through 2025-09-18</text>
<line x1="70" x2="935" y1="375.00" y2="375.00" stroke="#27314e" stroke-width="1"/>
<text x="58" y="379.00" text-anchor="end" fill="#93a4c3" font-family="Inter, Arial, sans-serif" font-size="12">2</text>
<line x1="70" x2="935" y1="312.00" y2="312.00" stroke="#27314e" stroke-width="1"/>
<text x="58" y="316.00" text-anchor="end" fill="#93a4c3" font-family="Inter, Arial, sans-serif" font-size="12">6</text>
<line x1="70" x2="935" y1="249.00" y2="249.00" stroke="#27314e" stroke-width="1"/>
<text x="58" y="253.00" text-anchor="end" fill="#93a4c3" font-family="Inter, Arial, sans-serif" font-size="12">11</text>
<line x1="70" x2="935" y1="186.00" y2="186.00" stroke="#27314e" stroke-width="1"/>
<text x="58" y="190.00" text-anchor="end" fill="#93a4c3" font-family="Inter, Arial, sans-serif" font-size="12">15</text>
<line x1="70" x2="935" y1="123.00" y2="123.00" stroke="#27314e" stroke-width="1"/>
<text x="58" y="127.00" text-anchor="end" fill="#93a4c3" font-family="Inter, Arial, sans-serif" font-size="12">19</text>
<line x1="70" x2="935" y1="60.00" y2="60.00" stroke="#27314e" stroke-width="1"/>
<text x="58" y="64.00" text-anchor="end" fill="#93a4c3" font-family="Inter, Arial, sans-serif" font-size="12">23</text>
<text x="70.00" y="412" text-anchor="middle" fill="#93a4c3" font-family="Inter, Arial, sans-serif" font-size="12">2025-07-15</text>
<text x="502.50" y="412" text-anchor="middle" fill="#93a4c3" font-family="Inter, Arial, sans-serif" font-size="12">2025-08-15</text>
<text x="935.00" y="412" text-anchor="middle" fill="#93a4c3" font-family="Inter, Arial, sans-serif" font-size="12">2025-09-18</text>
<path d="M 70.00 344.85 L 88.80 328.81 L 107.61 261.68 L 126.41 318.56 L 145.22 334.46 L 164.02 354.80 L 182.83 367.57 L 201.63 367.28 L 220.43 327.92 L 239.24 282.33 L 258.04 297.48 L 276.85 201.39 L 295.65 261.24 L 314.46 60.00 L 333.26 238.96 L 352.07 229.90 L 370.87 312.92 L 389.67 353.91 L 408.48 117.48 L 427.28 160.84 L 446.09 337.57 L 464.89 340.40 L 483.70 306.83 L 502.50 370.69 L 521.30 357.03 L 540.11 269.41 L 558.91 161.88 L 577.72 123.27 L 596.52 269.11 L 615.33 232.87 L 634.13 171.83 L 652.93 187.72 L 671.74 285.30 L 690.54 344.11 L 709.35 286.63 L 728.15 312.03 L 746.96 362.08 L 765.76 335.94 L 784.57 370.40 L 803.37 371.29 L 822.17 367.72 L 840.98 375.00 L 859.78 300.15 L 878.59 281.58 L 897.39 338.02 L 916.20 321.24 L 935.00 220.10" fill="none" stroke="#69a7ff" stroke-width="4" stroke-linecap="round" stroke-linejoin="round"/>
<circle cx="935.00" cy="220.10" r="6" fill="#69a7ff"/>
<text x="927.00" y="208.10" text-anchor="end" fill="#f5f7fb" font-family="Inter, Arial, sans-serif" font-size="12" font-weight="600">12.49</text>
</svg>