<svg xmlns="http://www.w3.org/2000/svg" width="960" height="430" viewBox="0 0 960 430">
<rect width="100%" height="100%" fill="#0b1020" rx="20"/>
<text x="70" y="32" fill="#f5f7fb" font-size="24" font-family="Inter, Arial, sans-serif" font-weight="700">Composite score history</text>
<text x="70" y="52" fill="#93a4c3" font-size="13" font-family="Inter, Arial, sans-serif">Trailing 45 sessions through 2025-09-18</text>
<line x1="70" x2="935" y1="375.00" y2="375.00" stroke="#27314e" stroke-width="1"/>
<text x="58" y="379.00" text-anchor="end" fill="#93a4c3" font-size="12" font-family="Inter, Arial, sans-serif">8</text>
<line x1="70" x2="935" y1="312.00" y2="312.00" stroke="#27314e" stroke-width="1"/>
<text x="58" y="316.00" text-anchor="end" fill="#93a4c3" font-size="12" font-family="Inter, Arial, sans-serif">13</text>
<line x1="70" x2="935" y1="249.00" y2="249.00" stroke="#27314e" stroke-width="1"/>
<text x="58" y="253.00" text-anchor="end" fill="#93a4c3" font-size="12" font-family="Inter, Arial, sans-serif">18</text>
<line x1="70" x2="935" y1="186.00" y2="186.00" stroke="#27314e" stroke-width="1"/>
<text x="58" y="190.00" text-anchor="end" fill="#93a4c3" font-size="12" font-family="Inter, Arial, sans-serif">24</text>
<line x1="70" x2="935" y1="123.00" y2="123.00" stroke="#27314e" stroke-width="1"/>
<text x="58" y="127.00" text-anchor="end" fill="#93a4c3" font-size="12" font-family="Inter, Arial, sans-serif">29</text>
<line x1="70" x2="935" y1="60.00" y2="60.00" stroke="#27314e" stroke-width="1"/>
<text x="58" y="64.00" text-anchor="end" fill="#93a4c3" font-size="12" font-family="Inter, Arial, sans-serif">34</text>
<text x="70.00" y="412" text-anchor="middle" fill="#93a4c3" font-size="12" font-family="Inter, Arial, sans-serif">2025-07-17</text>
<text x="502.50" y="412" text-anchor="middle" fill="#93a4c3" font-size="12" font-family="Inter, Arial, sans-serif">2025-08-18</text>
<text x="935.00" y="412" text-anchor="middle" fill="#93a4c3" font-size="12" font-family="Inter, Arial, sans-serif">2025-09-18</text>
<path d="M 70.00 261.66 L 89.66 270.29 L 109.32 275.55 L 128.98 285.93 L 148.64 322.58 L 168.30 310.82 L 187.95 318.71 L 207.61 298.94 L 227.27 289.56 L 246.93 224.13 L 266.59 216.25 L 286.25 60.00 L 305.91 205.24 L 325.57 195.11 L 345.23 269.42 L 364.89 299.94 L 384.55 291.18 L 404.20 245.15 L 423.86 373.62 L 443.52 369.00 L 463.18 351.61 L 482.84 338.85 L 502.50 340.72 L 522.16 252.15 L 541.82 190.60 L 561.48 140.69 L 581.14 282.93 L 600.80 247.40 L 620.45 268.29 L 640.11 289.31 L 659.77 346.73 L 679.43 290.93 L 699.09 234.76 L 718.75 264.04 L 738.41 321.58 L 758.07 300.07 L 777.73 349.48 L 797.39 372.75 L 817.05 366.87 L 836.70 375.00 L 856.36 352.86 L 876.02 348.98 L 895.68 346.98 L 915.34 336.47 L 935.00 280.55" fill="none" stroke="#69a7ff" stroke-width="4" stroke-linecap="round" stroke-linejoin="round"/>
<circle cx="935.00" cy="280.55" r="6" fill="#69a7ff"/>
</svg>