<svg xmlns="http://www.w3.org/2000/svg" width="960" height="430" viewBox="0 0 960 430" role="img" aria-label="Composite score history">
<rect width="100%" height="100%" fill="#0b1020" rx="20"/>
<text x="70" y="32" fill="#f5f7fb" font-family="Inter, Arial, sans-serif" font-size="24" font-weight="700">Composite score history</text>
<text x="70" y="52" fill="#93a4c3" font-family="Inter, Arial, sans-serif" font-size="13">Trailing 45 sessions through 2025-09-18</text>
<line x1="70" x2="935" y1="375.00" y2="375.00" stroke="#27314e" stroke-width="1"/>
<text x="58" y="379.00" text-anchor="end" fill="#93a4c3" font-family="Inter, Arial, sans-serif" font-size="12">12</text>
<line x1="70" x2="935" y1="312.00" y2="312.00" stroke="#27314e" stroke-width="1"/>
<text x="58" y="316.00" text-anchor="end" fill="#93a4c3" font-family="Inter, Arial, sans-serif" font-size="12">16</text>
<line x1="70" x2="935" y1="249.00" y2="249.00" stroke="#27314e" stroke-width="1"/>
<text x="58" y="253.00" text-anchor="end" fill="#93a4c3" font-family="Inter, Arial, sans-serif" font-size="12">20</text>
<line x1="70" x2="935" y1="186.00" y2="186.00" stroke="#27314e" stroke-width="1"/>
<text x="58" y="190.00" text-anchor="end" fill="#93a4c3" font-family="Inter, Arial, sans-serif" font-size="12">25</text>
<line x1="70" x2="935" y1="123.00" y2="123.00" stroke="#27314e" stroke-width="1"/>
<text x="58" y="127.00" text-anchor="end" fill="#93a4c3" font-family="Inter, Arial, sans-serif" font-size="12">29</text>
<line x1="70" x2="935" y1="60.00" y2="60.00" stroke="#27314e" stroke-width="1"/>
<text x="58" y="64.00" text-anchor="end" fill="#93a4c3" font-family="Inter, Arial, sans-serif" font-size="12">34</text>
<text x="70.00" y="412" text-anchor="middle" fill="#93a4c3" font-family="Inter, Arial, sans-serif" font-size="12">2025-07-17</text>
<text x="502.50" y="412" text-anchor="middle" fill="#93a4c3" font-family="Inter, Arial, sans-serif" font-size="12">2025-08-18</text>
<text x="935.00" y="412" text-anchor="middle" fill="#93a4c3" font-family="Inter, Arial, sans-serif" font-size="12">2025-09-18</text>
<path d="M 70.00 291.83 L 89.66 301.75 L 109.32 303.05 L 128.98 312.69 L 148.64 326.79 L 168.30 310.68 L 187.95 304.92 L 207.61 286.64 L 227.27 288.95 L 246.93 246.35 L 266.59 239.59 L 286.25 60.00 L 305.91 226.93 L 325.57 215.27 L 345.23 300.75 L 364.89 335.43 L 384.55 238.58 L 404.20 248.08 L 423.86 336.87 L 443.52 346.51 L 463.18 322.33 L 482.84 346.65 L 502.50 340.03 L 522.16 280.89 L 541.82 210.09 L 561.48 152.67 L 581.14 306.79 L 600.80 275.42 L 620.45 268.80 L 640.11 275.42 L 659.77 315.28 L 679.43 325.50 L 699.09 260.89 L 718.75 294.56 L 738.41 349.39 L 758.07 336.00 L 777.73 373.42 L 797.39 365.21 L 817.05 366.08 L 836.70 375.00 L 856.36 339.74 L 876.02 325.79 L 895.68 338.02 L 915.34 340.18 L 935.00 289.23" fill="none" stroke="#69a7ff" stroke-width="4" stroke-linecap="round" stroke-linejoin="round"/>
<circle cx="935.00" cy="289.23" r="6" fill="#69a7ff"/>
<text x="927.00" y="277.23" text-anchor="end" fill="#f5f7fb" font-family="Inter, Arial, sans-serif" font-size="12" font-weight="600">17.64</text>
</svg>