<svg xmlns="http://www.w3.org/2000/svg" width="960" height="430" viewBox="0 0 960 430" role="img" aria-label="Composite score history">
<rect width="100%" height="100%" fill="#0b1020" rx="20"/>
<text x="70" y="32" fill="#f5f7fb" font-family="Inter, Arial, sans-serif" font-size="24" font-weight="700">Composite score history</text>
<text x="70" y="52" fill="#93a4c3" font-family="Inter, Arial, sans-serif" font-size="13">Trailing 90 sessions through 2025-12-22</text>
<line x1="70" x2="935" y1="375.00" y2="375.00" stroke="#27314e" stroke-width="1"/>
<text x="58" y="379.00" text-anchor="end" fill="#93a4c3" font-family="Inter, Arial, sans-serif" font-size="12">8</text>
<line x1="70" x2="935" y1="312.00" y2="312.00" stroke="#27314e" stroke-width="1"/>
<text x="58" y="316.00" text-anchor="end" fill="#93a4c3" font-family="Inter, Arial, sans-serif" font-size="12">15</text>
<line x1="70" x2="935" y1="249.00" y2="249.00" stroke="#27314e" stroke-width="1"/>
<text x="58" y="253.00" text-anchor="end" fill="#93a4c3" font-family="Inter, Arial, sans-serif" font-size="12">21</text>
<line x1="70" x2="935" y1="186.00" y2="186.00" stroke="#27314e" stroke-width="1"/>
<text x="58" y="190.00" text-anchor="end" fill="#93a4c3" font-family="Inter, Arial, sans-serif" font-size="12">28</text>
<line x1="70" x2="935" y1="123.00" y2="123.00" stroke="#27314e" stroke-width="1"/>
<text x="58" y="127.00" text-anchor="end" fill="#93a4c3" font-family="Inter, Arial, sans-serif" font-size="12">35</text>
<line x1="70" x2="935" y1="60.00" y2="60.00" stroke="#27314e" stroke-width="1"/>
<text x="58" y="64.00" text-anchor="end" fill="#93a4c3" font-family="Inter, Arial, sans-serif" font-size="12">41</text>
<text x="70.00" y="412" text-anchor="middle" fill="#93a4c3" font-family="Inter, Arial, sans-serif" font-size="12">2025-08-13</text>
<text x="507.36" y="412" text-anchor="middle" fill="#93a4c3" font-family="Inter, Arial, sans-serif" font-size="12">2025-10-17</text>
<text x="935.00" y="412" text-anchor="middle" fill="#93a4c3" font-family="Inter, Arial, sans-serif" font-size="12">2025-12-22</text>
<path d="M 70.00 323.61 L 79.72 307.60 L 89.44 323.71 L 99.16 319.32 L 108.88 280.14 L 118.60 233.23 L 128.31 195.19 L 138.03 297.30 L 147.75 276.51 L 157.47 272.13 L 167.19 276.51 L 176.91 302.92 L 186.63 309.69 L 196.35 266.89 L 206.07 289.19 L 215.79 325.52 L 225.51 316.65 L 235.22 341.44 L 244.94 336.01 L 254.66 336.58 L 264.38 342.49 L 274.10 319.13 L 283.82 309.88 L 293.54 317.99 L 303.26 319.42 L 312.98 285.67 L 322.70 316.37 L 332.42 290.15 L 342.13 316.37 L 351.85 304.07 L 361.57 263.17 L 371.29 292.25 L 381.01 294.34 L 390.73 297.87 L 400.45 331.05 L 410.17 332.38 L 419.89 316.75 L 429.61 327.43 L 439.33 315.22 L 449.04 318.46 L 458.76 299.21 L 468.48 139.99 L 478.20 204.63 L 487.92 250.87 L 497.64 121.30 L 507.36 230.28 L 517.08 339.34 L 526.80 339.72 L 536.52 331.62 L 546.24 236.19 L 555.96 274.42 L 565.67 292.44 L 575.39 304.16 L 585.11 250.49 L 594.83 275.56 L 604.55 263.74 L 614.27 226.27 L 623.99 154.77 L 633.71 214.64 L 643.43 215.88 L 653.15 223.70 L 662.87 304.54 L 672.58 325.42 L 682.30 246.96 L 692.02 276.51 L 701.74 194.24 L 711.46 60.00 L 721.18 73.06 L 730.90 67.72 L 740.62 167.73 L 750.34 319.89 L 760.06 340.30 L 769.78 346.11 L 779.49 350.97 L 789.21 325.71 L 798.93 326.19 L 808.65 319.23 L 818.37 300.44 L 828.09 286.72 L 837.81 321.90 L 847.53 282.81 L 857.25 313.03 L 866.97 354.41 L 876.69 315.13 L 886.40 326.47 L 896.12 327.04 L 905.84 213.78 L 915.56 246.86 L 925.28 363.65 L 935.00 375.00" fill="none" stroke="#69a7ff" stroke-width="4" stroke-linecap="round" stroke-linejoin="round"/>
<circle cx="935.00" cy="375.00" r="6" fill="#69a7ff"/>
<text x="927.00" y="363.00" text-anchor="end" fill="#f5f7fb" font-family="Inter, Arial, sans-serif" font-size="12" font-weight="600">8.27</text>
</svg>