<svg xmlns="http://www.w3.org/2000/svg" width="960" height="430" viewBox="0 0 960 430" role="img" aria-label="Composite score history">
<rect width="100%" height="100%" fill="#0b1020" rx="20"/>
<text x="70" y="32" fill="#f5f7fb" font-family="Inter, Arial, sans-serif" font-size="24" font-weight="700">Composite score history</text>
<text x="70" y="52" fill="#93a4c3" font-family="Inter, Arial, sans-serif" font-size="13">Trailing 67 sessions through 2025-12-22</text>
<line x1="70" x2="935" y1="375.00" y2="375.00" stroke="#27314e" stroke-width="1"/>
<text x="58" y="379.00" text-anchor="end" fill="#93a4c3" font-family="Inter, Arial, sans-serif" font-size="12">0</text>
<line x1="70" x2="935" y1="312.00" y2="312.00" stroke="#27314e" stroke-width="1"/>
<text x="58" y="316.00" text-anchor="end" fill="#93a4c3" font-family="Inter, Arial, sans-serif" font-size="12">8</text>
<line x1="70" x2="935" y1="249.00" y2="249.00" stroke="#27314e" stroke-width="1"/>
<text x="58" y="253.00" text-anchor="end" fill="#93a4c3" font-family="Inter, Arial, sans-serif" font-size="12">17</text>
<line x1="70" x2="935" y1="186.00" y2="186.00" stroke="#27314e" stroke-width="1"/>
<text x="58" y="190.00" text-anchor="end" fill="#93a4c3" font-family="Inter, Arial, sans-serif" font-size="12">25</text>
<line x1="70" x2="935" y1="123.00" y2="123.00" stroke="#27314e" stroke-width="1"/>
<text x="58" y="127.00" text-anchor="end" fill="#93a4c3" font-family="Inter, Arial, sans-serif" font-size="12">33</text>
<line x1="70" x2="935" y1="60.00" y2="60.00" stroke="#27314e" stroke-width="1"/>
<text x="58" y="64.00" text-anchor="end" fill="#93a4c3" font-family="Inter, Arial, sans-serif" font-size="12">41</text>
<text x="70.00" y="412" text-anchor="middle" fill="#93a4c3" font-family="Inter, Arial, sans-serif" font-size="12">2025-09-16</text>
<text x="502.50" y="412" text-anchor="middle" fill="#93a4c3" font-family="Inter, Arial, sans-serif" font-size="12">2025-11-03</text>
<text x="935.00" y="412" text-anchor="middle" fill="#93a4c3" font-family="Inter, Arial, sans-serif" font-size="12">2025-12-22</text>
<path d="M 70.00 275.72 L 83.11 267.25 L 96.21 255.59 L 109.32 271.37 L 122.42 266.72 L 135.53 279.46 L 148.64 266.03 L 161.74 222.49 L 174.85 245.75 L 187.95 247.43 L 201.06 259.32 L 214.17 297.76 L 227.27 309.80 L 240.38 286.01 L 253.48 296.54 L 266.59 271.60 L 279.70 278.85 L 292.80 256.96 L 305.91 123.98 L 319.02 175.75 L 332.12 212.66 L 345.23 109.03 L 358.33 196.19 L 371.44 336.57 L 384.55 309.88 L 397.65 285.33 L 410.76 232.33 L 423.86 267.94 L 436.97 285.48 L 450.08 299.36 L 463.18 266.80 L 476.29 256.12 L 489.39 236.53 L 502.50 192.98 L 515.61 135.80 L 528.71 183.68 L 541.82 184.67 L 554.92 190.93 L 568.03 255.59 L 581.14 294.63 L 594.24 209.53 L 607.35 237.06 L 620.45 167.36 L 633.56 60.00 L 646.67 70.45 L 659.77 66.18 L 672.88 146.17 L 685.98 277.24 L 699.09 326.96 L 712.20 337.79 L 725.30 375.00 L 738.41 333.06 L 751.52 308.20 L 764.62 290.89 L 777.73 264.74 L 790.83 247.28 L 803.94 278.92 L 817.05 241.33 L 830.15 272.67 L 843.26 307.67 L 856.36 264.05 L 869.47 273.13 L 882.58 273.58 L 895.68 183.07 L 908.79 209.46 L 921.89 304.77 L 935.00 329.32" fill="none" stroke="#69a7ff" stroke-width="4" stroke-linecap="round" stroke-linejoin="round"/>
<circle cx="935.00" cy="329.32" r="6" fill="#69a7ff"/>
</svg>