<svg xmlns="http://www.w3.org/2000/svg" width="960" height="430" viewBox="0 0 960 430" role="img" aria-label="Composite score history">
<rect width="100%" height="100%" fill="#0b1020" rx="20"/>
<text x="70" y="32" fill="#f5f7fb" font-family="Inter, Arial, sans-serif" font-size="24" font-weight="700">Composite score history</text>
<text x="70" y="52" fill="#93a4c3" font-family="Inter, Arial, sans-serif" font-size="13">Trailing 87 sessions through 2025-12-22</text>
<line x1="70" x2="935" y1="375.00" y2="375.00" stroke="#27314e" stroke-width="1"/>
<text x="58" y="379.00" text-anchor="end" fill="#93a4c3" font-family="Inter, Arial, sans-serif" font-size="12">0</text>
<line x1="70" x2="935" y1="312.00" y2="312.00" stroke="#27314e" stroke-width="1"/>
<text x="58" y="316.00" text-anchor="end" fill="#93a4c3" font-family="Inter, Arial, sans-serif" font-size="12">8</text>
<line x1="70" x2="935" y1="249.00" y2="249.00" stroke="#27314e" stroke-width="1"/>
<text x="58" y="253.00" text-anchor="end" fill="#93a4c3" font-family="Inter, Arial, sans-serif" font-size="12">17</text>
<line x1="70" x2="935" y1="186.00" y2="186.00" stroke="#27314e" stroke-width="1"/>
<text x="58" y="190.00" text-anchor="end" fill="#93a4c3" font-family="Inter, Arial, sans-serif" font-size="12">25</text>
<line x1="70" x2="935" y1="123.00" y2="123.00" stroke="#27314e" stroke-width="1"/>
<text x="58" y="127.00" text-anchor="end" fill="#93a4c3" font-family="Inter, Arial, sans-serif" font-size="12">33</text>
<line x1="70" x2="935" y1="60.00" y2="60.00" stroke="#27314e" stroke-width="1"/>
<text x="58" y="64.00" text-anchor="end" fill="#93a4c3" font-family="Inter, Arial, sans-serif" font-size="12">41</text>
<text x="70.00" y="412" text-anchor="middle" fill="#93a4c3" font-family="Inter, Arial, sans-serif" font-size="12">2025-08-18</text>
<text x="502.50" y="412" text-anchor="middle" fill="#93a4c3" font-family="Inter, Arial, sans-serif" font-size="12">2025-10-20</text>
<text x="935.00" y="412" text-anchor="middle" fill="#93a4c3" font-family="Inter, Arial, sans-serif" font-size="12">2025-12-22</text>
<path d="M 70.00 270.46 L 80.06 245.07 L 90.12 233.63 L 100.17 185.89 L 110.23 255.05 L 120.29 233.17 L 130.35 245.90 L 140.41 258.71 L 150.47 293.71 L 160.52 259.71 L 170.58 225.47 L 180.64 243.31 L 190.70 278.39 L 200.76 265.27 L 210.81 295.39 L 220.87 309.58 L 230.93 305.99 L 240.99 310.95 L 251.05 297.45 L 261.10 295.09 L 271.16 293.87 L 281.22 287.46 L 291.28 253.38 L 301.34 288.22 L 311.40 266.64 L 321.45 279.46 L 331.51 266.03 L 341.57 222.49 L 351.63 245.75 L 361.69 247.43 L 371.74 259.32 L 381.80 297.76 L 391.86 309.80 L 401.92 286.01 L 411.98 296.54 L 422.03 271.60 L 432.09 278.85 L 442.15 256.96 L 452.21 123.98 L 462.27 175.75 L 472.33 212.66 L 482.38 109.03 L 492.44 196.19 L 502.50 336.57 L 512.56 309.88 L 522.62 285.33 L 532.67 232.33 L 542.73 267.94 L 552.79 285.48 L 562.85 299.36 L 572.91 266.80 L 582.97 256.12 L 593.02 236.53 L 603.08 192.98 L 613.14 135.80 L 623.20 183.68 L 633.26 184.67 L 643.31 190.93 L 653.37 255.59 L 663.43 294.63 L 673.49 209.53 L 683.55 237.06 L 693.60 167.36 L 703.66 60.00 L 713.72 70.45 L 723.78 66.18 L 733.84 146.17 L 743.90 277.24 L 753.95 326.96 L 764.01 337.79 L 774.07 375.00 L 784.13 333.06 L 794.19 308.20 L 804.24 290.89 L 814.30 264.74 L 824.36 247.28 L 834.42 278.92 L 844.48 241.33 L 854.53 272.67 L 864.59 307.67 L 874.65 264.05 L 884.71 273.13 L 894.77 273.58 L 904.83 183.07 L 914.88 209.46 L 924.94 304.77 L 935.00 329.32" fill="none" stroke="#69a7ff" stroke-width="4" stroke-linecap="round" stroke-linejoin="round"/>
<circle cx="935.00" cy="329.32" r="6" fill="#69a7ff"/>
</svg>