<svg xmlns="http://www.w3.org/2000/svg" width="960" height="430" viewBox="0 0 960 430" role="img" aria-label="Composite score history">
<rect width="100%" height="100%" fill="#0b1020" rx="20"/>
<text x="70" y="32" fill="#f5f7fb" font-family="Inter, Arial, sans-serif" font-size="24" font-weight="700">Composite score history</text>
<text x="70" y="52" fill="#93a4c3" font-family="Inter, Arial, sans-serif" font-size="13">Trailing 43 sessions through 2025-12-22</text>
<line x1="70" x2="935" y1="375.00" y2="375.00" stroke="#27314e" stroke-width="1"/>
<text x="58" y="379.00" text-anchor="end" fill="#93a4c3" font-family="Inter, Arial, sans-serif" font-size="12">0</text>
<line x1="70" x2="935" y1="312.00" y2="312.00" stroke="#27314e" stroke-width="1"/>
<text x="58" y="316.00" text-anchor="end" fill="#93a4c3" font-family="Inter, Arial, sans-serif" font-size="12">8</text>
<line x1="70" x2="935" y1="249.00" y2="249.00" stroke="#27314e" stroke-width="1"/>
<text x="58" y="253.00" text-anchor="end" fill="#93a4c3" font-family="Inter, Arial, sans-serif" font-size="12">17</text>
<line x1="70" x2="935" y1="186.00" y2="186.00" stroke="#27314e" stroke-width="1"/>
<text x="58" y="190.00" text-anchor="end" fill="#93a4c3" font-family="Inter, Arial, sans-serif" font-size="12">25</text>
<line x1="70" x2="935" y1="123.00" y2="123.00" stroke="#27314e" stroke-width="1"/>
<text x="58" y="127.00" text-anchor="end" fill="#93a4c3" font-family="Inter, Arial, sans-serif" font-size="12">33</text>
<line x1="70" x2="935" y1="60.00" y2="60.00" stroke="#27314e" stroke-width="1"/>
<text x="58" y="64.00" text-anchor="end" fill="#93a4c3" font-family="Inter, Arial, sans-serif" font-size="12">41</text>
<text x="70.00" y="412" text-anchor="middle" fill="#93a4c3" font-family="Inter, Arial, sans-serif" font-size="12">2025-10-21</text>
<text x="502.50" y="412" text-anchor="middle" fill="#93a4c3" font-family="Inter, Arial, sans-serif" font-size="12">2025-11-20</text>
<text x="935.00" y="412" text-anchor="middle" fill="#93a4c3" font-family="Inter, Arial, sans-serif" font-size="12">2025-12-22</text>
<path d="M 70.00 283.73 L 90.60 244.07 L 111.19 217.77 L 131.79 248.19 L 152.38 290.05 L 172.98 299.36 L 193.57 266.80 L 214.17 256.12 L 234.76 236.53 L 255.36 192.98 L 275.95 135.80 L 296.55 183.68 L 317.14 184.67 L 337.74 190.93 L 358.33 255.59 L 378.93 294.63 L 399.52 209.53 L 420.12 237.06 L 440.71 167.36 L 461.31 60.00 L 481.90 70.45 L 502.50 66.18 L 523.10 146.17 L 543.69 277.24 L 564.29 326.96 L 584.88 337.79 L 605.48 375.00 L 626.07 333.06 L 646.67 308.20 L 667.26 290.89 L 687.86 264.74 L 708.45 247.28 L 729.05 278.92 L 749.64 241.33 L 770.24 272.67 L 790.83 307.67 L 811.43 264.05 L 832.02 273.13 L 852.62 273.58 L 873.21 183.07 L 893.81 209.46 L 914.40 304.77 L 935.00 329.32" fill="none" stroke="#69a7ff" stroke-width="4" stroke-linecap="round" stroke-linejoin="round"/>
<circle cx="935.00" cy="329.32" r="6" fill="#69a7ff"/>
</svg>