<svg xmlns="http://www.w3.org/2000/svg" width="960" height="430" viewBox="0 0 960 430" role="img" aria-label="Composite score history">
<rect width="100%" height="100%" fill="#0b1020" rx="20"/>
<text x="70" y="32" fill="#f5f7fb" font-family="Inter, Arial, sans-serif" font-size="24" font-weight="700">Composite score history</text>
<text x="70" y="52" fill="#93a4c3" font-family="Inter, Arial, sans-serif" font-size="13">Trailing 78 sessions through 2025-12-22</text>
<line x1="70" x2="935" y1="375.00" y2="375.00" stroke="#27314e" stroke-width="1"/>
<text x="58" y="379.00" text-anchor="end" fill="#93a4c3" font-family="Inter, Arial, sans-serif" font-size="12">0</text>
<line x1="70" x2="935" y1="312.00" y2="312.00" stroke="#27314e" stroke-width="1"/>
<text x="58" y="316.00" text-anchor="end" fill="#93a4c3" font-family="Inter, Arial, sans-serif" font-size="12">8</text>
<line x1="70" x2="935" y1="249.00" y2="249.00" stroke="#27314e" stroke-width="1"/>
<text x="58" y="253.00" text-anchor="end" fill="#93a4c3" font-family="Inter, Arial, sans-serif" font-size="12">17</text>
<line x1="70" x2="935" y1="186.00" y2="186.00" stroke="#27314e" stroke-width="1"/>
<text x="58" y="190.00" text-anchor="end" fill="#93a4c3" font-family="Inter, Arial, sans-serif" font-size="12">25</text>
<line x1="70" x2="935" y1="123.00" y2="123.00" stroke="#27314e" stroke-width="1"/>
<text x="58" y="127.00" text-anchor="end" fill="#93a4c3" font-family="Inter, Arial, sans-serif" font-size="12">33</text>
<line x1="70" x2="935" y1="60.00" y2="60.00" stroke="#27314e" stroke-width="1"/>
<text x="58" y="64.00" text-anchor="end" fill="#93a4c3" font-family="Inter, Arial, sans-serif" font-size="12">41</text>
<text x="70.00" y="412" text-anchor="middle" fill="#93a4c3" font-family="Inter, Arial, sans-serif" font-size="12">2025-08-29</text>
<text x="508.12" y="412" text-anchor="middle" fill="#93a4c3" font-family="Inter, Arial, sans-serif" font-size="12">2025-10-27</text>
<text x="935.00" y="412" text-anchor="middle" fill="#93a4c3" font-family="Inter, Arial, sans-serif" font-size="12">2025-12-22</text>
<path d="M 70.00 271.75 L 81.23 192.07 L 92.47 245.90 L 103.70 287.92 L 114.94 288.83 L 126.17 295.39 L 137.40 309.58 L 148.64 305.99 L 159.87 310.95 L 171.10 297.45 L 182.34 295.09 L 193.57 293.87 L 204.81 287.46 L 216.04 253.38 L 227.27 288.22 L 238.51 266.64 L 249.74 279.46 L 260.97 266.03 L 272.21 222.49 L 283.44 245.75 L 294.68 247.43 L 305.91 259.32 L 317.14 297.76 L 328.38 309.80 L 339.61 286.01 L 350.84 296.54 L 362.08 271.60 L 373.31 278.85 L 384.55 256.96 L 395.78 123.98 L 407.01 175.75 L 418.25 212.66 L 429.48 109.03 L 440.71 196.19 L 451.95 336.57 L 463.18 309.88 L 474.42 285.33 L 485.65 232.33 L 496.88 267.94 L 508.12 285.48 L 519.35 299.36 L 530.58 266.80 L 541.82 256.12 L 553.05 236.53 L 564.29 192.98 L 575.52 135.80 L 586.75 183.68 L 597.99 184.67 L 609.22 190.93 L 620.45 255.59 L 631.69 294.63 L 642.92 209.53 L 654.16 237.06 L 665.39 167.36 L 676.62 60.00 L 687.86 70.45 L 699.09 66.18 L 710.32 146.17 L 721.56 277.24 L 732.79 326.96 L 744.03 337.79 L 755.26 375.00 L 766.49 333.06 L 777.73 308.20 L 788.96 290.89 L 800.19 264.74 L 811.43 247.28 L 822.66 278.92 L 833.90 241.33 L 845.13 272.67 L 856.36 307.67 L 867.60 264.05 L 878.83 273.13 L 890.06 273.58 L 901.30 183.07 L 912.53 209.46 L 923.77 304.77 L 935.00 329.32" fill="none" stroke="#69a7ff" stroke-width="4" stroke-linecap="round" stroke-linejoin="round"/>
<circle cx="935.00" cy="329.32" r="6" fill="#69a7ff"/>
</svg>