<svg xmlns="http://www.w3.org/2000/svg" width="960" height="430" viewBox="0 0 960 430" role="img" aria-label="Composite score history">
<rect width="100%" height="100%" fill="#0b1020" rx="20"/>
<text x="70" y="32" fill="#f5f7fb" font-family="Inter, Arial, sans-serif" font-size="24" font-weight="700">Composite score history</text>
<text x="70" y="52" fill="#93a4c3" font-family="Inter, Arial, sans-serif" font-size="13">Trailing 82 sessions through 2025-12-22</text>
<line x1="70" x2="935" y1="375.00" y2="375.00" stroke="#27314e" stroke-width="1"/>
<text x="58" y="379.00" text-anchor="end" fill="#93a4c3" font-family="Inter, Arial, sans-serif" font-size="12">0</text>
<line x1="70" x2="935" y1="312.00" y2="312.00" stroke="#27314e" stroke-width="1"/>
<text x="58" y="316.00" text-anchor="end" fill="#93a4c3" font-family="Inter, Arial, sans-serif" font-size="12">8</text>
<line x1="70" x2="935" y1="249.00" y2="249.00" stroke="#27314e" stroke-width="1"/>
<text x="58" y="253.00" text-anchor="end" fill="#93a4c3" font-family="Inter, Arial, sans-serif" font-size="12">17</text>
<line x1="70" x2="935" y1="186.00" y2="186.00" stroke="#27314e" stroke-width="1"/>
<text x="58" y="190.00" text-anchor="end" fill="#93a4c3" font-family="Inter, Arial, sans-serif" font-size="12">25</text>
<line x1="70" x2="935" y1="123.00" y2="123.00" stroke="#27314e" stroke-width="1"/>
<text x="58" y="127.00" text-anchor="end" fill="#93a4c3" font-family="Inter, Arial, sans-serif" font-size="12">33</text>
<line x1="70" x2="935" y1="60.00" y2="60.00" stroke="#27314e" stroke-width="1"/>
<text x="58" y="64.00" text-anchor="end" fill="#93a4c3" font-family="Inter, Arial, sans-serif" font-size="12">41</text>
<text x="70.00" y="412" text-anchor="middle" fill="#93a4c3" font-family="Inter, Arial, sans-serif" font-size="12">2025-08-25</text>
<text x="507.84" y="412" text-anchor="middle" fill="#93a4c3" font-family="Inter, Arial, sans-serif" font-size="12">2025-10-23</text>
<text x="935.00" y="412" text-anchor="middle" fill="#93a4c3" font-family="Inter, Arial, sans-serif" font-size="12">2025-12-22</text>
<path d="M 70.00 265.65 L 80.68 275.64 L 91.36 279.53 L 102.04 291.88 L 112.72 273.89 L 123.40 225.47 L 134.07 243.31 L 144.75 278.39 L 155.43 265.27 L 166.11 295.39 L 176.79 309.58 L 187.47 305.99 L 198.15 310.95 L 208.83 297.45 L 219.51 295.09 L 230.19 293.87 L 240.86 287.46 L 251.54 253.38 L 262.22 288.22 L 272.90 266.64 L 283.58 279.46 L 294.26 266.03 L 304.94 222.49 L 315.62 245.75 L 326.30 247.43 L 336.98 259.32 L 347.65 297.76 L 358.33 309.80 L 369.01 286.01 L 379.69 296.54 L 390.37 271.60 L 401.05 278.85 L 411.73 256.96 L 422.41 123.98 L 433.09 175.75 L 443.77 212.66 L 454.44 109.03 L 465.12 196.19 L 475.80 336.57 L 486.48 309.88 L 497.16 285.33 L 507.84 232.33 L 518.52 267.94 L 529.20 285.48 L 539.88 299.36 L 550.56 266.80 L 561.23 256.12 L 571.91 236.53 L 582.59 192.98 L 593.27 135.80 L 603.95 183.68 L 614.63 184.67 L 625.31 190.93 L 635.99 255.59 L 646.67 294.63 L 657.35 209.53 L 668.02 237.06 L 678.70 167.36 L 689.38 60.00 L 700.06 70.45 L 710.74 66.18 L 721.42 146.17 L 732.10 277.24 L 742.78 326.96 L 753.46 337.79 L 764.14 375.00 L 774.81 333.06 L 785.49 308.20 L 796.17 290.89 L 806.85 264.74 L 817.53 247.28 L 828.21 278.92 L 838.89 241.33 L 849.57 272.67 L 860.25 307.67 L 870.93 264.05 L 881.60 273.13 L 892.28 273.58 L 902.96 183.07 L 913.64 209.46 L 924.32 304.77 L 935.00 329.32" fill="none" stroke="#69a7ff" stroke-width="4" stroke-linecap="round" stroke-linejoin="round"/>
<circle cx="935.00" cy="329.32" r="6" fill="#69a7ff"/>
</svg>