<svg xmlns="http://www.w3.org/2000/svg" width="960" height="430" viewBox="0 0 960 430" role="img" aria-label="Composite score history">
<rect width="100%" height="100%" fill="#0b1020" rx="20"/>
<text x="70" y="32" fill="#f5f7fb" font-family="Inter, Arial, sans-serif" font-size="24" font-weight="700">Composite score history</text>
<text x="70" y="52" fill="#93a4c3" font-family="Inter, Arial, sans-serif" font-size="13">Trailing 80 sessions through 2025-12-22</text>
<line x1="70" x2="935" y1="375.00" y2="375.00" stroke="#27314e" stroke-width="1"/>
<text x="58" y="379.00" text-anchor="end" fill="#93a4c3" font-family="Inter, Arial, sans-serif" font-size="12">0</text>
<line x1="70" x2="935" y1="312.00" y2="312.00" stroke="#27314e" stroke-width="1"/>
<text x="58" y="316.00" text-anchor="end" fill="#93a4c3" font-family="Inter, Arial, sans-serif" font-size="12">8</text>
<line x1="70" x2="935" y1="249.00" y2="249.00" stroke="#27314e" stroke-width="1"/>
<text x="58" y="253.00" text-anchor="end" fill="#93a4c3" font-family="Inter, Arial, sans-serif" font-size="12">17</text>
<line x1="70" x2="935" y1="186.00" y2="186.00" stroke="#27314e" stroke-width="1"/>
<text x="58" y="190.00" text-anchor="end" fill="#93a4c3" font-family="Inter, Arial, sans-serif" font-size="12">25</text>
<line x1="70" x2="935" y1="123.00" y2="123.00" stroke="#27314e" stroke-width="1"/>
<text x="58" y="127.00" text-anchor="end" fill="#93a4c3" font-family="Inter, Arial, sans-serif" font-size="12">33</text>
<line x1="70" x2="935" y1="60.00" y2="60.00" stroke="#27314e" stroke-width="1"/>
<text x="58" y="64.00" text-anchor="end" fill="#93a4c3" font-family="Inter, Arial, sans-serif" font-size="12">41</text>
<text x="70.00" y="412" text-anchor="middle" fill="#93a4c3" font-family="Inter, Arial, sans-serif" font-size="12">2025-08-27</text>
<text x="507.97" y="412" text-anchor="middle" fill="#93a4c3" font-family="Inter, Arial, sans-serif" font-size="12">2025-10-24</text>
<text x="935.00" y="412" text-anchor="middle" fill="#93a4c3" font-family="Inter, Arial, sans-serif" font-size="12">2025-12-22</text>
<path d="M 70.00 271.30 L 80.95 270.23 L 91.90 255.66 L 102.85 179.87 L 113.80 229.81 L 124.75 278.39 L 135.70 265.27 L 146.65 295.39 L 157.59 309.58 L 168.54 305.99 L 179.49 310.95 L 190.44 297.45 L 201.39 295.09 L 212.34 293.87 L 223.29 287.46 L 234.24 253.38 L 245.19 288.22 L 256.14 266.64 L 267.09 279.46 L 278.04 266.03 L 288.99 222.49 L 299.94 245.75 L 310.89 247.43 L 321.84 259.32 L 332.78 297.76 L 343.73 309.80 L 354.68 286.01 L 365.63 296.54 L 376.58 271.60 L 387.53 278.85 L 398.48 256.96 L 409.43 123.98 L 420.38 175.75 L 431.33 212.66 L 442.28 109.03 L 453.23 196.19 L 464.18 336.57 L 475.13 309.88 L 486.08 285.33 L 497.03 232.33 L 507.97 267.94 L 518.92 285.48 L 529.87 299.36 L 540.82 266.80 L 551.77 256.12 L 562.72 236.53 L 573.67 192.98 L 584.62 135.80 L 595.57 183.68 L 606.52 184.67 L 617.47 190.93 L 628.42 255.59 L 639.37 294.63 L 650.32 209.53 L 661.27 237.06 L 672.22 167.36 L 683.16 60.00 L 694.11 70.45 L 705.06 66.18 L 716.01 146.17 L 726.96 277.24 L 737.91 326.96 L 748.86 337.79 L 759.81 375.00 L 770.76 333.06 L 781.71 308.20 L 792.66 290.89 L 803.61 264.74 L 814.56 247.28 L 825.51 278.92 L 836.46 241.33 L 847.41 272.67 L 858.35 307.67 L 869.30 264.05 L 880.25 273.13 L 891.20 273.58 L 902.15 183.07 L 913.10 209.46 L 924.05 304.77 L 935.00 329.32" fill="none" stroke="#69a7ff" stroke-width="4" stroke-linecap="round" stroke-linejoin="round"/>
<circle cx="935.00" cy="329.32" r="6" fill="#69a7ff"/>
</svg>