<svg xmlns="http://www.w3.org/2000/svg" width="960" height="430" viewBox="0 0 960 430" role="img" aria-label="Composite score history">
<rect width="100%" height="100%" fill="#0b1020" rx="20"/>
<text x="70" y="32" fill="#f5f7fb" font-family="Inter, Arial, sans-serif" font-size="24" font-weight="700">Composite score history</text>
<text x="70" y="52" fill="#93a4c3" font-family="Inter, Arial, sans-serif" font-size="13">Trailing 77 sessions through 2025-12-22</text>
<line x1="70" x2="935" y1="375.00" y2="375.00" stroke="#27314e" stroke-width="1"/>
<text x="58" y="379.00" text-anchor="end" fill="#93a4c3" font-family="Inter, Arial, sans-serif" font-size="12">0</text>
<line x1="70" x2="935" y1="312.00" y2="312.00" stroke="#27314e" stroke-width="1"/>
<text x="58" y="316.00" text-anchor="end" fill="#93a4c3" font-family="Inter, Arial, sans-serif" font-size="12">8</text>
<line x1="70" x2="935" y1="249.00" y2="249.00" stroke="#27314e" stroke-width="1"/>
<text x="58" y="253.00" text-anchor="end" fill="#93a4c3" font-family="Inter, Arial, sans-serif" font-size="12">17</text>
<line x1="70" x2="935" y1="186.00" y2="186.00" stroke="#27314e" stroke-width="1"/>
<text x="58" y="190.00" text-anchor="end" fill="#93a4c3" font-family="Inter, Arial, sans-serif" font-size="12">25</text>
<line x1="70" x2="935" y1="123.00" y2="123.00" stroke="#27314e" stroke-width="1"/>
<text x="58" y="127.00" text-anchor="end" fill="#93a4c3" font-family="Inter, Arial, sans-serif" font-size="12">33</text>
<line x1="70" x2="935" y1="60.00" y2="60.00" stroke="#27314e" stroke-width="1"/>
<text x="58" y="64.00" text-anchor="end" fill="#93a4c3" font-family="Inter, Arial, sans-serif" font-size="12">41</text>
<text x="70.00" y="412" text-anchor="middle" fill="#93a4c3" font-family="Inter, Arial, sans-serif" font-size="12">2025-09-02</text>
<text x="502.50" y="412" text-anchor="middle" fill="#93a4c3" font-family="Inter, Arial, sans-serif" font-size="12">2025-10-27</text>
<text x="935.00" y="412" text-anchor="middle" fill="#93a4c3" font-family="Inter, Arial, sans-serif" font-size="12">2025-12-22</text>
<path d="M 70.00 256.58 L 81.38 275.87 L 92.76 301.26 L 104.14 302.18 L 115.53 308.81 L 126.91 309.58 L 138.29 305.99 L 149.67 310.95 L 161.05 297.45 L 172.43 295.09 L 183.82 293.87 L 195.20 287.46 L 206.58 253.38 L 217.96 288.22 L 229.34 266.64 L 240.72 279.46 L 252.11 266.03 L 263.49 222.49 L 274.87 245.75 L 286.25 247.43 L 297.63 259.32 L 309.01 297.76 L 320.39 309.80 L 331.78 286.01 L 343.16 296.54 L 354.54 271.60 L 365.92 278.85 L 377.30 256.96 L 388.68 123.98 L 400.07 175.75 L 411.45 212.66 L 422.83 109.03 L 434.21 196.19 L 445.59 336.57 L 456.97 309.88 L 468.36 285.33 L 479.74 232.33 L 491.12 267.94 L 502.50 285.48 L 513.88 299.36 L 525.26 266.80 L 536.64 256.12 L 548.03 236.53 L 559.41 192.98 L 570.79 135.80 L 582.17 183.68 L 593.55 184.67 L 604.93 190.93 L 616.32 255.59 L 627.70 294.63 L 639.08 209.53 L 650.46 237.06 L 661.84 167.36 L 673.22 60.00 L 684.61 70.45 L 695.99 66.18 L 707.37 146.17 L 718.75 277.24 L 730.13 326.96 L 741.51 337.79 L 752.89 375.00 L 764.28 333.06 L 775.66 308.20 L 787.04 290.89 L 798.42 264.74 L 809.80 247.28 L 821.18 278.92 L 832.57 241.33 L 843.95 272.67 L 855.33 307.67 L 866.71 264.05 L 878.09 273.13 L 889.47 273.58 L 900.86 183.07 L 912.24 209.46 L 923.62 304.77 L 935.00 329.32" fill="none" stroke="#69a7ff" stroke-width="4" stroke-linecap="round" stroke-linejoin="round"/>
<circle cx="935.00" cy="329.32" r="6" fill="#69a7ff"/>
</svg>