<svg xmlns="http://www.w3.org/2000/svg" width="960" height="430" viewBox="0 0 960 430" role="img" aria-label="Composite score history">
<rect width="100%" height="100%" fill="#0b1020" rx="20"/>
<text x="70" y="32" fill="#f5f7fb" font-family="Inter, Arial, sans-serif" font-size="24" font-weight="700">Composite score history</text>
<text x="70" y="52" fill="#93a4c3" font-family="Inter, Arial, sans-serif" font-size="13">Trailing 83 sessions through 2025-12-22</text>
<line x1="70" x2="935" y1="375.00" y2="375.00" stroke="#27314e" stroke-width="1"/>
<text x="58" y="379.00" text-anchor="end" fill="#93a4c3" font-family="Inter, Arial, sans-serif" font-size="12">0</text>
<line x1="70" x2="935" y1="312.00" y2="312.00" stroke="#27314e" stroke-width="1"/>
<text x="58" y="316.00" text-anchor="end" fill="#93a4c3" font-family="Inter, Arial, sans-serif" font-size="12">8</text>
<line x1="70" x2="935" y1="249.00" y2="249.00" stroke="#27314e" stroke-width="1"/>
<text x="58" y="253.00" text-anchor="end" fill="#93a4c3" font-family="Inter, Arial, sans-serif" font-size="12">17</text>
<line x1="70" x2="935" y1="186.00" y2="186.00" stroke="#27314e" stroke-width="1"/>
<text x="58" y="190.00" text-anchor="end" fill="#93a4c3" font-family="Inter, Arial, sans-serif" font-size="12">25</text>
<line x1="70" x2="935" y1="123.00" y2="123.00" stroke="#27314e" stroke-width="1"/>
<text x="58" y="127.00" text-anchor="end" fill="#93a4c3" font-family="Inter, Arial, sans-serif" font-size="12">33</text>
<line x1="70" x2="935" y1="60.00" y2="60.00" stroke="#27314e" stroke-width="1"/>
<text x="58" y="64.00" text-anchor="end" fill="#93a4c3" font-family="Inter, Arial, sans-serif" font-size="12">41</text>
<text x="70.00" y="412" text-anchor="middle" fill="#93a4c3" font-family="Inter, Arial, sans-serif" font-size="12">2025-08-22</text>
<text x="502.50" y="412" text-anchor="middle" fill="#93a4c3" font-family="Inter, Arial, sans-serif" font-size="12">2025-10-22</text>
<text x="935.00" y="412" text-anchor="middle" fill="#93a4c3" font-family="Inter, Arial, sans-serif" font-size="12">2025-12-22</text>
<path d="M 70.00 272.67 L 80.55 226.23 L 91.10 260.54 L 101.65 263.44 L 112.20 278.31 L 122.74 259.71 L 133.29 225.47 L 143.84 243.31 L 154.39 278.39 L 164.94 265.27 L 175.49 295.39 L 186.04 309.58 L 196.59 305.99 L 207.13 310.95 L 217.68 297.45 L 228.23 295.09 L 238.78 293.87 L 249.33 287.46 L 259.88 253.38 L 270.43 288.22 L 280.98 266.64 L 291.52 279.46 L 302.07 266.03 L 312.62 222.49 L 323.17 245.75 L 333.72 247.43 L 344.27 259.32 L 354.82 297.76 L 365.37 309.80 L 375.91 286.01 L 386.46 296.54 L 397.01 271.60 L 407.56 278.85 L 418.11 256.96 L 428.66 123.98 L 439.21 175.75 L 449.76 212.66 L 460.30 109.03 L 470.85 196.19 L 481.40 336.57 L 491.95 309.88 L 502.50 285.33 L 513.05 232.33 L 523.60 267.94 L 534.15 285.48 L 544.70 299.36 L 555.24 266.80 L 565.79 256.12 L 576.34 236.53 L 586.89 192.98 L 597.44 135.80 L 607.99 183.68 L 618.54 184.67 L 629.09 190.93 L 639.63 255.59 L 650.18 294.63 L 660.73 209.53 L 671.28 237.06 L 681.83 167.36 L 692.38 60.00 L 702.93 70.45 L 713.48 66.18 L 724.02 146.17 L 734.57 277.24 L 745.12 326.96 L 755.67 337.79 L 766.22 375.00 L 776.77 333.06 L 787.32 308.20 L 797.87 290.89 L 808.41 264.74 L 818.96 247.28 L 829.51 278.92 L 840.06 241.33 L 850.61 272.67 L 861.16 307.67 L 871.71 264.05 L 882.26 273.13 L 892.80 273.58 L 903.35 183.07 L 913.90 209.46 L 924.45 304.77 L 935.00 329.32" fill="none" stroke="#69a7ff" stroke-width="4" stroke-linecap="round" stroke-linejoin="round"/>
<circle cx="935.00" cy="329.32" r="6" fill="#69a7ff"/>
</svg>