<svg xmlns="http://www.w3.org/2000/svg" width="960" height="430" viewBox="0 0 960 430" role="img" aria-label="Latest component scores">
<rect width="100%" height="100%" fill="#0b1020" rx="20"/>
<text x="248" y="32" fill="#f5f7fb" font-family="Inter, Arial, sans-serif" font-size="24" font-weight="700">Latest component scores</text>
<text x="248" y="52" fill="#93a4c3" font-family="Inter, Arial, sans-serif" font-size="13">How each factor contributed on 2025-09-08</text>
<line x1="248.00" x2="248.00" y1="60" y2="390" stroke="#27314e" stroke-width="1"/>
<text x="248.00" y="418" text-anchor="middle" fill="#93a4c3" font-family="Inter, Arial, sans-serif" font-size="12">-100</text>
<line x1="419.75" x2="419.75" y1="60" y2="390" stroke="#27314e" stroke-width="1"/>
<text x="419.75" y="418" text-anchor="middle" fill="#93a4c3" font-family="Inter, Arial, sans-serif" font-size="12">-50</text>
<line x1="591.50" x2="591.50" y1="60" y2="390" stroke="#27314e" stroke-width="1"/>
<text x="591.50" y="418" text-anchor="middle" fill="#93a4c3" font-family="Inter, Arial, sans-serif" font-size="12">0</text>
<line x1="763.25" x2="763.25" y1="60" y2="390" stroke="#27314e" stroke-width="1"/>
<text x="763.25" y="418" text-anchor="middle" fill="#93a4c3" font-family="Inter, Arial, sans-serif" font-size="12">50</text>
<line x1="935.00" x2="935.00" y1="60" y2="390" stroke="#27314e" stroke-width="1"/>
<text x="935.00" y="418" text-anchor="middle" fill="#93a4c3" font-family="Inter, Arial, sans-serif" font-size="12">100</text>
<line x1="591.50" x2="591.50" y1="60" y2="390" stroke="#f5f7fb" stroke-width="1.5" opacity="0.7"/>
<text x="232" y="99.50" text-anchor="end" fill="#f5f7fb" font-family="Inter, Arial, sans-serif" font-size="14">Inflation expectations pressure</text>
<rect x="248" y="60.00" width="687.00" height="69.00" rx="10" fill="#121933" stroke="#223154"/>
<rect x="591.50" y="60.00" width="84.50" height="69.00" rx="10" fill="#ff6a6a" opacity="0.95"/>
<text x="684.00" y="99.50" text-anchor="start" fill="#f5f7fb" font-family="Inter, Arial, sans-serif" font-size="13" font-weight="600">24.60</text>
<text x="232" y="186.50" text-anchor="end" fill="#f5f7fb" font-family="Inter, Arial, sans-serif" font-size="14">2Y Treasury rate pressure</text>
<rect x="248" y="147.00" width="687.00" height="69.00" rx="10" fill="#121933" stroke="#223154"/>
<rect x="591.50" y="147.00" width="44.90" height="69.00" rx="10" fill="#ff6a6a" opacity="0.95"/>
<text x="644.40" y="186.50" text-anchor="start" fill="#f5f7fb" font-family="Inter, Arial, sans-serif" font-size="13" font-weight="600">13.07</text>
<text x="232" y="273.50" text-anchor="end" fill="#f5f7fb" font-family="Inter, Arial, sans-serif" font-size="14">VIX volatility pressure</text>
<rect x="248" y="234.00" width="687.00" height="69.00" rx="10" fill="#121933" stroke="#223154"/>
<rect x="591.50" y="234.00" width="32.53" height="69.00" rx="10" fill="#ff6a6a" opacity="0.95"/>
<text x="632.03" y="273.50" text-anchor="start" fill="#f5f7fb" font-family="Inter, Arial, sans-serif" font-size="13" font-weight="600">9.47</text>
<text x="232" y="360.50" text-anchor="end" fill="#f5f7fb" font-family="Inter, Arial, sans-serif" font-size="14">S&amp;P 500 equity signal</text>
<rect x="248" y="321.00" width="687.00" height="69.00" rx="10" fill="#121933" stroke="#223154"/>
<rect x="572.95" y="321.00" width="18.55" height="69.00" rx="10" fill="#3ad29f" opacity="0.95"/>
<text x="564.95" y="360.50" text-anchor="end" fill="#f5f7fb" font-family="Inter, Arial, sans-serif" font-size="13" font-weight="600">-5.40</text>
</svg>