<svg xmlns="http://www.w3.org/2000/svg" width="960" height="430" viewBox="0 0 960 430" role="img" aria-label="Composite score history">
<rect width="100%" height="100%" fill="#0b1020" rx="20"/>
<text x="70" y="32" fill="#f5f7fb" font-family="Inter, Arial, sans-serif" font-size="24" font-weight="700">Composite score history</text>
<text x="70" y="52" fill="#93a4c3" font-family="Inter, Arial, sans-serif" font-size="13">Trailing 83 sessions through 2025-11-20</text>
<line x1="70" x2="935" y1="375.00" y2="375.00" stroke="#27314e" stroke-width="1"/>
<text x="58" y="379.00" text-anchor="end" fill="#93a4c3" font-family="Inter, Arial, sans-serif" font-size="12">5</text>
<line x1="70" x2="935" y1="312.00" y2="312.00" stroke="#27314e" stroke-width="1"/>
<text x="58" y="316.00" text-anchor="end" fill="#93a4c3" font-family="Inter, Arial, sans-serif" font-size="12">12</text>
<line x1="70" x2="935" y1="249.00" y2="249.00" stroke="#27314e" stroke-width="1"/>
<text x="58" y="253.00" text-anchor="end" fill="#93a4c3" font-family="Inter, Arial, sans-serif" font-size="12">20</text>
<line x1="70" x2="935" y1="186.00" y2="186.00" stroke="#27314e" stroke-width="1"/>
<text x="58" y="190.00" text-anchor="end" fill="#93a4c3" font-family="Inter, Arial, sans-serif" font-size="12">27</text>
<line x1="70" x2="935" y1="123.00" y2="123.00" stroke="#27314e" stroke-width="1"/>
<text x="58" y="127.00" text-anchor="end" fill="#93a4c3" font-family="Inter, Arial, sans-serif" font-size="12">34</text>
<line x1="70" x2="935" y1="60.00" y2="60.00" stroke="#27314e" stroke-width="1"/>
<text x="58" y="64.00" text-anchor="end" fill="#93a4c3" font-family="Inter, Arial, sans-serif" font-size="12">41</text>
<text x="70.00" y="412" text-anchor="middle" fill="#93a4c3" font-family="Inter, Arial, sans-serif" font-size="12">2025-07-24</text>
<text x="502.50" y="412" text-anchor="middle" fill="#93a4c3" font-family="Inter, Arial, sans-serif" font-size="12">2025-09-22</text>
<text x="935.00" y="412" text-anchor="middle" fill="#93a4c3" font-family="Inter, Arial, sans-serif" font-size="12">2025-11-20</text>
<path d="M 70.00 278.51 L 80.55 294.14 L 91.10 293.88 L 101.65 277.90 L 112.20 267.31 L 122.74 235.61 L 133.29 127.13 L 143.84 227.97 L 154.39 220.93 L 164.94 272.52 L 175.49 293.71 L 186.04 287.63 L 196.59 255.67 L 207.13 344.86 L 217.68 341.65 L 228.23 329.58 L 238.78 320.72 L 249.33 322.02 L 259.88 260.53 L 270.43 217.80 L 280.98 183.15 L 291.52 281.90 L 302.07 257.23 L 312.62 271.74 L 323.17 286.33 L 333.72 326.19 L 344.27 287.46 L 354.82 248.46 L 365.37 268.78 L 375.91 308.73 L 386.46 293.80 L 397.01 328.10 L 407.56 344.26 L 418.11 340.17 L 428.66 345.82 L 439.21 330.45 L 449.76 327.75 L 460.30 326.36 L 470.85 319.07 L 481.40 280.25 L 491.95 319.94 L 502.50 295.36 L 513.05 309.95 L 523.60 294.67 L 534.15 245.07 L 544.70 271.56 L 555.24 273.47 L 565.79 287.02 L 576.34 330.79 L 586.89 344.52 L 597.44 317.42 L 607.99 329.40 L 618.54 301.00 L 629.09 309.26 L 639.63 284.33 L 650.18 132.87 L 660.73 191.84 L 671.28 233.87 L 681.83 115.84 L 692.38 215.11 L 702.93 375.00 L 713.48 344.60 L 724.02 316.64 L 734.57 256.28 L 745.12 296.84 L 755.67 316.81 L 766.22 332.62 L 776.77 295.53 L 787.32 283.37 L 797.87 261.05 L 808.41 211.46 L 818.96 146.33 L 829.51 200.87 L 840.06 202.00 L 850.61 209.12 L 861.16 282.77 L 871.71 327.23 L 882.26 230.31 L 892.80 261.66 L 903.35 182.28 L 913.90 60.00 L 924.45 71.90 L 935.00 67.03" fill="none" stroke="#69a7ff" stroke-width="4" stroke-linecap="round" stroke-linejoin="round"/>
<circle cx="935.00" cy="67.03" r="6" fill="#69a7ff"/>
</svg>