<svg xmlns="http://www.w3.org/2000/svg" width="960" height="430" viewBox="0 0 960 430" role="img" aria-label="Composite score history">
<rect width="100%" height="100%" fill="#0b1020" rx="20"/>
<text x="70" y="32" fill="#f5f7fb" font-family="Inter, Arial, sans-serif" font-size="24" font-weight="700">Composite score history</text>
<text x="70" y="52" fill="#93a4c3" font-family="Inter, Arial, sans-serif" font-size="13">Trailing 79 sessions through 2025-11-20</text>
<line x1="70" x2="935" y1="375.00" y2="375.00" stroke="#27314e" stroke-width="1"/>
<text x="58" y="379.00" text-anchor="end" fill="#93a4c3" font-family="Inter, Arial, sans-serif" font-size="12">5</text>
<line x1="70" x2="935" y1="312.00" y2="312.00" stroke="#27314e" stroke-width="1"/>
<text x="58" y="316.00" text-anchor="end" fill="#93a4c3" font-family="Inter, Arial, sans-serif" font-size="12">12</text>
<line x1="70" x2="935" y1="249.00" y2="249.00" stroke="#27314e" stroke-width="1"/>
<text x="58" y="253.00" text-anchor="end" fill="#93a4c3" font-family="Inter, Arial, sans-serif" font-size="12">20</text>
<line x1="70" x2="935" y1="186.00" y2="186.00" stroke="#27314e" stroke-width="1"/>
<text x="58" y="190.00" text-anchor="end" fill="#93a4c3" font-family="Inter, Arial, sans-serif" font-size="12">27</text>
<line x1="70" x2="935" y1="123.00" y2="123.00" stroke="#27314e" stroke-width="1"/>
<text x="58" y="127.00" text-anchor="end" fill="#93a4c3" font-family="Inter, Arial, sans-serif" font-size="12">34</text>
<line x1="70" x2="935" y1="60.00" y2="60.00" stroke="#27314e" stroke-width="1"/>
<text x="58" y="64.00" text-anchor="end" fill="#93a4c3" font-family="Inter, Arial, sans-serif" font-size="12">41</text>
<text x="70.00" y="412" text-anchor="middle" fill="#93a4c3" font-family="Inter, Arial, sans-serif" font-size="12">2025-07-30</text>
<text x="502.50" y="412" text-anchor="middle" fill="#93a4c3" font-family="Inter, Arial, sans-serif" font-size="12">2025-09-24</text>
<text x="935.00" y="412" text-anchor="middle" fill="#93a4c3" font-family="Inter, Arial, sans-serif" font-size="12">2025-11-20</text>
<path d="M 70.00 278.77 L 81.09 247.07 L 92.18 148.76 L 103.27 249.85 L 114.36 222.23 L 125.45 272.52 L 136.54 293.71 L 147.63 287.63 L 158.72 255.67 L 169.81 344.86 L 180.90 341.65 L 191.99 329.58 L 203.08 320.72 L 214.17 322.02 L 225.26 260.53 L 236.35 217.80 L 247.44 183.15 L 258.53 281.90 L 269.62 257.23 L 280.71 271.74 L 291.79 286.33 L 302.88 326.19 L 313.97 287.46 L 325.06 248.46 L 336.15 268.78 L 347.24 308.73 L 358.33 293.80 L 369.42 328.10 L 380.51 344.26 L 391.60 340.17 L 402.69 345.82 L 413.78 330.45 L 424.87 327.75 L 435.96 326.36 L 447.05 319.07 L 458.14 280.25 L 469.23 319.94 L 480.32 295.36 L 491.41 309.95 L 502.50 294.67 L 513.59 245.07 L 524.68 271.56 L 535.77 273.47 L 546.86 287.02 L 557.95 330.79 L 569.04 344.52 L 580.13 317.42 L 591.22 329.40 L 602.31 301.00 L 613.40 309.26 L 624.49 284.33 L 635.58 132.87 L 646.67 191.84 L 657.76 233.87 L 668.85 115.84 L 679.94 215.11 L 691.03 375.00 L 702.12 344.60 L 713.21 316.64 L 724.29 256.28 L 735.38 296.84 L 746.47 316.81 L 757.56 332.62 L 768.65 295.53 L 779.74 283.37 L 790.83 261.05 L 801.92 211.46 L 813.01 146.33 L 824.10 200.87 L 835.19 202.00 L 846.28 209.12 L 857.37 282.77 L 868.46 327.23 L 879.55 230.31 L 890.64 261.66 L 901.73 182.28 L 912.82 60.00 L 923.91 71.90 L 935.00 67.03" fill="none" stroke="#69a7ff" stroke-width="4" stroke-linecap="round" stroke-linejoin="round"/>
<circle cx="935.00" cy="67.03" r="6" fill="#69a7ff"/>
</svg>