<svg xmlns="http://www.w3.org/2000/svg" width="960" height="430" viewBox="0 0 960 430" role="img" aria-label="Composite score history">
<rect width="100%" height="100%" fill="#0b1020" rx="20"/>
<text x="70" y="32" fill="#f5f7fb" font-family="Inter, Arial, sans-serif" font-size="24" font-weight="700">Composite score history</text>
<text x="70" y="52" fill="#93a4c3" font-family="Inter, Arial, sans-serif" font-size="13">Trailing 70 sessions through 2025-11-20</text>
<line x1="70" x2="935" y1="375.00" y2="375.00" stroke="#27314e" stroke-width="1"/>
<text x="58" y="379.00" text-anchor="end" fill="#93a4c3" font-family="Inter, Arial, sans-serif" font-size="12">5</text>
<line x1="70" x2="935" y1="312.00" y2="312.00" stroke="#27314e" stroke-width="1"/>
<text x="58" y="316.00" text-anchor="end" fill="#93a4c3" font-family="Inter, Arial, sans-serif" font-size="12">12</text>
<line x1="70" x2="935" y1="249.00" y2="249.00" stroke="#27314e" stroke-width="1"/>
<text x="58" y="253.00" text-anchor="end" fill="#93a4c3" font-family="Inter, Arial, sans-serif" font-size="12">20</text>
<line x1="70" x2="935" y1="186.00" y2="186.00" stroke="#27314e" stroke-width="1"/>
<text x="58" y="190.00" text-anchor="end" fill="#93a4c3" font-family="Inter, Arial, sans-serif" font-size="12">27</text>
<line x1="70" x2="935" y1="123.00" y2="123.00" stroke="#27314e" stroke-width="1"/>
<text x="58" y="127.00" text-anchor="end" fill="#93a4c3" font-family="Inter, Arial, sans-serif" font-size="12">34</text>
<line x1="70" x2="935" y1="60.00" y2="60.00" stroke="#27314e" stroke-width="1"/>
<text x="58" y="64.00" text-anchor="end" fill="#93a4c3" font-family="Inter, Arial, sans-serif" font-size="12">41</text>
<text x="70.00" y="412" text-anchor="middle" fill="#93a4c3" font-family="Inter, Arial, sans-serif" font-size="12">2025-08-12</text>
<text x="508.77" y="412" text-anchor="middle" fill="#93a4c3" font-family="Inter, Arial, sans-serif" font-size="12">2025-10-01</text>
<text x="935.00" y="412" text-anchor="middle" fill="#93a4c3" font-family="Inter, Arial, sans-serif" font-size="12">2025-11-20</text>
<path d="M 70.00 303.00 L 82.54 315.77 L 95.07 301.09 L 107.61 288.24 L 120.14 281.38 L 132.68 260.53 L 145.22 217.80 L 157.75 183.15 L 170.29 281.90 L 182.83 257.23 L 195.36 271.74 L 207.90 286.33 L 220.43 326.19 L 232.97 287.46 L 245.51 248.46 L 258.04 268.78 L 270.58 308.73 L 283.12 293.80 L 295.65 328.10 L 308.19 344.26 L 320.72 340.17 L 333.26 345.82 L 345.80 330.45 L 358.33 327.75 L 370.87 326.36 L 383.41 319.07 L 395.94 280.25 L 408.48 319.94 L 421.01 295.36 L 433.55 309.95 L 446.09 294.67 L 458.62 245.07 L 471.16 271.56 L 483.70 273.47 L 496.23 287.02 L 508.77 330.79 L 521.30 344.52 L 533.84 317.42 L 546.38 329.40 L 558.91 301.00 L 571.45 309.26 L 583.99 284.33 L 596.52 132.87 L 609.06 191.84 L 621.59 233.87 L 634.13 115.84 L 646.67 215.11 L 659.20 375.00 L 671.74 344.60 L 684.28 316.64 L 696.81 256.28 L 709.35 296.84 L 721.88 316.81 L 734.42 332.62 L 746.96 295.53 L 759.49 283.37 L 772.03 261.05 L 784.57 211.46 L 797.10 146.33 L 809.64 200.87 L 822.17 202.00 L 834.71 209.12 L 847.25 282.77 L 859.78 327.23 L 872.32 230.31 L 884.86 261.66 L 897.39 182.28 L 909.93 60.00 L 922.46 71.90 L 935.00 67.03" fill="none" stroke="#69a7ff" stroke-width="4" stroke-linecap="round" stroke-linejoin="round"/>
<circle cx="935.00" cy="67.03" r="6" fill="#69a7ff"/>
</svg>