<svg xmlns="http://www.w3.org/2000/svg" width="960" height="430" viewBox="0 0 960 430" role="img" aria-label="Composite score history">
<rect width="100%" height="100%" fill="#0b1020" rx="20"/>
<text x="70" y="32" fill="#f5f7fb" font-family="Inter, Arial, sans-serif" font-size="24" font-weight="700">Composite score history</text>
<text x="70" y="52" fill="#93a4c3" font-family="Inter, Arial, sans-serif" font-size="13">Trailing 55 sessions through 2025-11-20</text>
<line x1="70" x2="935" y1="375.00" y2="375.00" stroke="#27314e" stroke-width="1"/>
<text x="58" y="379.00" text-anchor="end" fill="#93a4c3" font-family="Inter, Arial, sans-serif" font-size="12">5</text>
<line x1="70" x2="935" y1="312.00" y2="312.00" stroke="#27314e" stroke-width="1"/>
<text x="58" y="316.00" text-anchor="end" fill="#93a4c3" font-family="Inter, Arial, sans-serif" font-size="12">12</text>
<line x1="70" x2="935" y1="249.00" y2="249.00" stroke="#27314e" stroke-width="1"/>
<text x="58" y="253.00" text-anchor="end" fill="#93a4c3" font-family="Inter, Arial, sans-serif" font-size="12">20</text>
<line x1="70" x2="935" y1="186.00" y2="186.00" stroke="#27314e" stroke-width="1"/>
<text x="58" y="190.00" text-anchor="end" fill="#93a4c3" font-family="Inter, Arial, sans-serif" font-size="12">27</text>
<line x1="70" x2="935" y1="123.00" y2="123.00" stroke="#27314e" stroke-width="1"/>
<text x="58" y="127.00" text-anchor="end" fill="#93a4c3" font-family="Inter, Arial, sans-serif" font-size="12">34</text>
<line x1="70" x2="935" y1="60.00" y2="60.00" stroke="#27314e" stroke-width="1"/>
<text x="58" y="64.00" text-anchor="end" fill="#93a4c3" font-family="Inter, Arial, sans-serif" font-size="12">41</text>
<text x="70.00" y="412" text-anchor="middle" fill="#93a4c3" font-family="Inter, Arial, sans-serif" font-size="12">2025-09-03</text>
<text x="502.50" y="412" text-anchor="middle" fill="#93a4c3" font-family="Inter, Arial, sans-serif" font-size="12">2025-10-10</text>
<text x="935.00" y="412" text-anchor="middle" fill="#93a4c3" font-family="Inter, Arial, sans-serif" font-size="12">2025-11-20</text>
<path d="M 70.00 294.75 L 86.02 323.59 L 102.04 324.71 L 118.06 332.18 L 134.07 333.05 L 150.09 340.17 L 166.11 345.82 L 182.13 330.45 L 198.15 327.75 L 214.17 326.36 L 230.19 319.07 L 246.20 280.25 L 262.22 319.94 L 278.24 295.36 L 294.26 309.95 L 310.28 294.67 L 326.30 245.07 L 342.31 271.56 L 358.33 273.47 L 374.35 287.02 L 390.37 330.79 L 406.39 344.52 L 422.41 317.42 L 438.43 329.40 L 454.44 301.00 L 470.46 309.26 L 486.48 284.33 L 502.50 132.87 L 518.52 191.84 L 534.54 233.87 L 550.56 115.84 L 566.57 215.11 L 582.59 375.00 L 598.61 344.60 L 614.63 316.64 L 630.65 256.28 L 646.67 296.84 L 662.69 316.81 L 678.70 332.62 L 694.72 295.53 L 710.74 283.37 L 726.76 261.05 L 742.78 211.46 L 758.80 146.33 L 774.81 200.87 L 790.83 202.00 L 806.85 209.12 L 822.87 282.77 L 838.89 327.23 L 854.91 230.31 L 870.93 261.66 L 886.94 182.28 L 902.96 60.00 L 918.98 71.90 L 935.00 67.03" fill="none" stroke="#69a7ff" stroke-width="4" stroke-linecap="round" stroke-linejoin="round"/>
<circle cx="935.00" cy="67.03" r="6" fill="#69a7ff"/>
</svg>