<svg xmlns="http://www.w3.org/2000/svg" width="960" height="430" viewBox="0 0 960 430" role="img" aria-label="Composite score history">
<rect width="100%" height="100%" fill="#0b1020" rx="20"/>
<text x="70" y="32" fill="#f5f7fb" font-family="Inter, Arial, sans-serif" font-size="24" font-weight="700">Composite score history</text>
<text x="70" y="52" fill="#93a4c3" font-family="Inter, Arial, sans-serif" font-size="13">Trailing 67 sessions through 2025-11-20</text>
<line x1="70" x2="935" y1="375.00" y2="375.00" stroke="#27314e" stroke-width="1"/>
<text x="58" y="379.00" text-anchor="end" fill="#93a4c3" font-family="Inter, Arial, sans-serif" font-size="12">5</text>
<line x1="70" x2="935" y1="312.00" y2="312.00" stroke="#27314e" stroke-width="1"/>
<text x="58" y="316.00" text-anchor="end" fill="#93a4c3" font-family="Inter, Arial, sans-serif" font-size="12">12</text>
<line x1="70" x2="935" y1="249.00" y2="249.00" stroke="#27314e" stroke-width="1"/>
<text x="58" y="253.00" text-anchor="end" fill="#93a4c3" font-family="Inter, Arial, sans-serif" font-size="12">20</text>
<line x1="70" x2="935" y1="186.00" y2="186.00" stroke="#27314e" stroke-width="1"/>
<text x="58" y="190.00" text-anchor="end" fill="#93a4c3" font-family="Inter, Arial, sans-serif" font-size="12">27</text>
<line x1="70" x2="935" y1="123.00" y2="123.00" stroke="#27314e" stroke-width="1"/>
<text x="58" y="127.00" text-anchor="end" fill="#93a4c3" font-family="Inter, Arial, sans-serif" font-size="12">34</text>
<line x1="70" x2="935" y1="60.00" y2="60.00" stroke="#27314e" stroke-width="1"/>
<text x="58" y="64.00" text-anchor="end" fill="#93a4c3" font-family="Inter, Arial, sans-serif" font-size="12">41</text>
<text x="70.00" y="412" text-anchor="middle" fill="#93a4c3" font-family="Inter, Arial, sans-serif" font-size="12">2025-08-15</text>
<text x="502.50" y="412" text-anchor="middle" fill="#93a4c3" font-family="Inter, Arial, sans-serif" font-size="12">2025-10-02</text>
<text x="935.00" y="412" text-anchor="middle" fill="#93a4c3" font-family="Inter, Arial, sans-serif" font-size="12">2025-11-20</text>
<path d="M 70.00 300.22 L 83.11 292.32 L 96.21 271.13 L 109.32 258.19 L 122.42 196.87 L 135.53 281.90 L 148.64 257.23 L 161.74 271.74 L 174.85 286.33 L 187.95 326.19 L 201.06 287.46 L 214.17 248.46 L 227.27 268.78 L 240.38 308.73 L 253.48 293.80 L 266.59 328.10 L 279.70 344.26 L 292.80 340.17 L 305.91 345.82 L 319.02 330.45 L 332.12 327.75 L 345.23 326.36 L 358.33 319.07 L 371.44 280.25 L 384.55 319.94 L 397.65 295.36 L 410.76 309.95 L 423.86 294.67 L 436.97 245.07 L 450.08 271.56 L 463.18 273.47 L 476.29 287.02 L 489.39 330.79 L 502.50 344.52 L 515.61 317.42 L 528.71 329.40 L 541.82 301.00 L 554.92 309.26 L 568.03 284.33 L 581.14 132.87 L 594.24 191.84 L 607.35 233.87 L 620.45 115.84 L 633.56 215.11 L 646.67 375.00 L 659.77 344.60 L 672.88 316.64 L 685.98 256.28 L 699.09 296.84 L 712.20 316.81 L 725.30 332.62 L 738.41 295.53 L 751.52 283.37 L 764.62 261.05 L 777.73 211.46 L 790.83 146.33 L 803.94 200.87 L 817.05 202.00 L 830.15 209.12 L 843.26 282.77 L 856.36 327.23 L 869.47 230.31 L 882.58 261.66 L 895.68 182.28 L 908.79 60.00 L 921.89 71.90 L 935.00 67.03" fill="none" stroke="#69a7ff" stroke-width="4" stroke-linecap="round" stroke-linejoin="round"/>
<circle cx="935.00" cy="67.03" r="6" fill="#69a7ff"/>
</svg>