<svg xmlns="http://www.w3.org/2000/svg" width="960" height="430" viewBox="0 0 960 430" role="img" aria-label="Composite score history">
<rect width="100%" height="100%" fill="#0b1020" rx="20"/>
<text x="70" y="32" fill="#f5f7fb" font-family="Inter, Arial, sans-serif" font-size="24" font-weight="700">Composite score history</text>
<text x="70" y="52" fill="#93a4c3" font-family="Inter, Arial, sans-serif" font-size="13">Trailing 68 sessions through 2025-11-20</text>
<line x1="70" x2="935" y1="375.00" y2="375.00" stroke="#27314e" stroke-width="1"/>
<text x="58" y="379.00" text-anchor="end" fill="#93a4c3" font-family="Inter, Arial, sans-serif" font-size="12">5</text>
<line x1="70" x2="935" y1="312.00" y2="312.00" stroke="#27314e" stroke-width="1"/>
<text x="58" y="316.00" text-anchor="end" fill="#93a4c3" font-family="Inter, Arial, sans-serif" font-size="12">12</text>
<line x1="70" x2="935" y1="249.00" y2="249.00" stroke="#27314e" stroke-width="1"/>
<text x="58" y="253.00" text-anchor="end" fill="#93a4c3" font-family="Inter, Arial, sans-serif" font-size="12">20</text>
<line x1="70" x2="935" y1="186.00" y2="186.00" stroke="#27314e" stroke-width="1"/>
<text x="58" y="190.00" text-anchor="end" fill="#93a4c3" font-family="Inter, Arial, sans-serif" font-size="12">27</text>
<line x1="70" x2="935" y1="123.00" y2="123.00" stroke="#27314e" stroke-width="1"/>
<text x="58" y="127.00" text-anchor="end" fill="#93a4c3" font-family="Inter, Arial, sans-serif" font-size="12">34</text>
<line x1="70" x2="935" y1="60.00" y2="60.00" stroke="#27314e" stroke-width="1"/>
<text x="58" y="64.00" text-anchor="end" fill="#93a4c3" font-family="Inter, Arial, sans-serif" font-size="12">41</text>
<text x="70.00" y="412" text-anchor="middle" fill="#93a4c3" font-family="Inter, Arial, sans-serif" font-size="12">2025-08-14</text>
<text x="508.96" y="412" text-anchor="middle" fill="#93a4c3" font-family="Inter, Arial, sans-serif" font-size="12">2025-10-02</text>
<text x="935.00" y="412" text-anchor="middle" fill="#93a4c3" font-family="Inter, Arial, sans-serif" font-size="12">2025-11-20</text>
<path d="M 70.00 301.18 L 82.91 282.07 L 95.82 274.95 L 108.73 253.06 L 121.64 243.60 L 134.55 183.15 L 147.46 281.90 L 160.37 257.23 L 173.28 271.74 L 186.19 286.33 L 199.10 326.19 L 212.01 287.46 L 224.93 248.46 L 237.84 268.78 L 250.75 308.73 L 263.66 293.80 L 276.57 328.10 L 289.48 344.26 L 302.39 340.17 L 315.30 345.82 L 328.21 330.45 L 341.12 327.75 L 354.03 326.36 L 366.94 319.07 L 379.85 280.25 L 392.76 319.94 L 405.67 295.36 L 418.58 309.95 L 431.49 294.67 L 444.40 245.07 L 457.31 271.56 L 470.22 273.47 L 483.13 287.02 L 496.04 330.79 L 508.96 344.52 L 521.87 317.42 L 534.78 329.40 L 547.69 301.00 L 560.60 309.26 L 573.51 284.33 L 586.42 132.87 L 599.33 191.84 L 612.24 233.87 L 625.15 115.84 L 638.06 215.11 L 650.97 375.00 L 663.88 344.60 L 676.79 316.64 L 689.70 256.28 L 702.61 296.84 L 715.52 316.81 L 728.43 332.62 L 741.34 295.53 L 754.25 283.37 L 767.16 261.05 L 780.07 211.46 L 792.99 146.33 L 805.90 200.87 L 818.81 202.00 L 831.72 209.12 L 844.63 282.77 L 857.54 327.23 L 870.45 230.31 L 883.36 261.66 L 896.27 182.28 L 909.18 60.00 L 922.09 71.90 L 935.00 67.03" fill="none" stroke="#69a7ff" stroke-width="4" stroke-linecap="round" stroke-linejoin="round"/>
<circle cx="935.00" cy="67.03" r="6" fill="#69a7ff"/>
</svg>