<svg xmlns="http://www.w3.org/2000/svg" width="960" height="430" viewBox="0 0 960 430" role="img" aria-label="Composite score history">
<rect width="100%" height="100%" fill="#0b1020" rx="20"/>
<text x="70" y="32" fill="#f5f7fb" font-family="Inter, Arial, sans-serif" font-size="24" font-weight="700">Composite score history</text>
<text x="70" y="52" fill="#93a4c3" font-family="Inter, Arial, sans-serif" font-size="13">Trailing 77 sessions through 2025-11-20</text>
<line x1="70" x2="935" y1="375.00" y2="375.00" stroke="#27314e" stroke-width="1"/>
<text x="58" y="379.00" text-anchor="end" fill="#93a4c3" font-family="Inter, Arial, sans-serif" font-size="12">5</text>
<line x1="70" x2="935" y1="312.00" y2="312.00" stroke="#27314e" stroke-width="1"/>
<text x="58" y="316.00" text-anchor="end" fill="#93a4c3" font-family="Inter, Arial, sans-serif" font-size="12">12</text>
<line x1="70" x2="935" y1="249.00" y2="249.00" stroke="#27314e" stroke-width="1"/>
<text x="58" y="253.00" text-anchor="end" fill="#93a4c3" font-family="Inter, Arial, sans-serif" font-size="12">20</text>
<line x1="70" x2="935" y1="186.00" y2="186.00" stroke="#27314e" stroke-width="1"/>
<text x="58" y="190.00" text-anchor="end" fill="#93a4c3" font-family="Inter, Arial, sans-serif" font-size="12">27</text>
<line x1="70" x2="935" y1="123.00" y2="123.00" stroke="#27314e" stroke-width="1"/>
<text x="58" y="127.00" text-anchor="end" fill="#93a4c3" font-family="Inter, Arial, sans-serif" font-size="12">34</text>
<line x1="70" x2="935" y1="60.00" y2="60.00" stroke="#27314e" stroke-width="1"/>
<text x="58" y="64.00" text-anchor="end" fill="#93a4c3" font-family="Inter, Arial, sans-serif" font-size="12">41</text>
<text x="70.00" y="412" text-anchor="middle" fill="#93a4c3" font-family="Inter, Arial, sans-serif" font-size="12">2025-08-01</text>
<text x="502.50" y="412" text-anchor="middle" fill="#93a4c3" font-family="Inter, Arial, sans-serif" font-size="12">2025-09-25</text>
<text x="935.00" y="412" text-anchor="middle" fill="#93a4c3" font-family="Inter, Arial, sans-serif" font-size="12">2025-11-20</text>
<path d="M 70.00 273.91 L 81.38 307.87 L 92.76 282.85 L 104.14 323.76 L 115.53 305.52 L 126.91 287.63 L 138.29 255.67 L 149.67 344.86 L 161.05 341.65 L 172.43 329.58 L 183.82 320.72 L 195.20 322.02 L 206.58 260.53 L 217.96 217.80 L 229.34 183.15 L 240.72 281.90 L 252.11 257.23 L 263.49 271.74 L 274.87 286.33 L 286.25 326.19 L 297.63 287.46 L 309.01 248.46 L 320.39 268.78 L 331.78 308.73 L 343.16 293.80 L 354.54 328.10 L 365.92 344.26 L 377.30 340.17 L 388.68 345.82 L 400.07 330.45 L 411.45 327.75 L 422.83 326.36 L 434.21 319.07 L 445.59 280.25 L 456.97 319.94 L 468.36 295.36 L 479.74 309.95 L 491.12 294.67 L 502.50 245.07 L 513.88 271.56 L 525.26 273.47 L 536.64 287.02 L 548.03 330.79 L 559.41 344.52 L 570.79 317.42 L 582.17 329.40 L 593.55 301.00 L 604.93 309.26 L 616.32 284.33 L 627.70 132.87 L 639.08 191.84 L 650.46 233.87 L 661.84 115.84 L 673.22 215.11 L 684.61 375.00 L 695.99 344.60 L 707.37 316.64 L 718.75 256.28 L 730.13 296.84 L 741.51 316.81 L 752.89 332.62 L 764.28 295.53 L 775.66 283.37 L 787.04 261.05 L 798.42 211.46 L 809.80 146.33 L 821.18 200.87 L 832.57 202.00 L 843.95 209.12 L 855.33 282.77 L 866.71 327.23 L 878.09 230.31 L 889.47 261.66 L 900.86 182.28 L 912.24 60.00 L 923.62 71.90 L 935.00 67.03" fill="none" stroke="#69a7ff" stroke-width="4" stroke-linecap="round" stroke-linejoin="round"/>
<circle cx="935.00" cy="67.03" r="6" fill="#69a7ff"/>
</svg>