<svg xmlns="http://www.w3.org/2000/svg" width="960" height="430" viewBox="0 0 960 430" role="img" aria-label="Composite score history">
<rect width="100%" height="100%" fill="#0b1020" rx="20"/>
<text x="70" y="32" fill="#f5f7fb" font-family="Inter, Arial, sans-serif" font-size="24" font-weight="700">Composite score history</text>
<text x="70" y="52" fill="#93a4c3" font-family="Inter, Arial, sans-serif" font-size="13">Trailing 89 sessions through 2025-11-20</text>
<line x1="70" x2="935" y1="375.00" y2="375.00" stroke="#27314e" stroke-width="1"/>
<text x="58" y="379.00" text-anchor="end" fill="#93a4c3" font-family="Inter, Arial, sans-serif" font-size="12">12</text>
<line x1="70" x2="935" y1="312.00" y2="312.00" stroke="#27314e" stroke-width="1"/>
<text x="58" y="316.00" text-anchor="end" fill="#93a4c3" font-family="Inter, Arial, sans-serif" font-size="12">18</text>
<line x1="70" x2="935" y1="249.00" y2="249.00" stroke="#27314e" stroke-width="1"/>
<text x="58" y="253.00" text-anchor="end" fill="#93a4c3" font-family="Inter, Arial, sans-serif" font-size="12">24</text>
<line x1="70" x2="935" y1="186.00" y2="186.00" stroke="#27314e" stroke-width="1"/>
<text x="58" y="190.00" text-anchor="end" fill="#93a4c3" font-family="Inter, Arial, sans-serif" font-size="12">29</text>
<line x1="70" x2="935" y1="123.00" y2="123.00" stroke="#27314e" stroke-width="1"/>
<text x="58" y="127.00" text-anchor="end" fill="#93a4c3" font-family="Inter, Arial, sans-serif" font-size="12">35</text>
<line x1="70" x2="935" y1="60.00" y2="60.00" stroke="#27314e" stroke-width="1"/>
<text x="58" y="64.00" text-anchor="end" fill="#93a4c3" font-family="Inter, Arial, sans-serif" font-size="12">41</text>
<text x="70.00" y="412" text-anchor="middle" fill="#93a4c3" font-family="Inter, Arial, sans-serif" font-size="12">2025-07-16</text>
<text x="502.50" y="412" text-anchor="middle" fill="#93a4c3" font-family="Inter, Arial, sans-serif" font-size="12">2025-09-17</text>
<text x="935.00" y="412" text-anchor="middle" fill="#93a4c3" font-family="Inter, Arial, sans-serif" font-size="12">2025-11-20</text>
<path d="M 70.00 316.95 L 79.83 279.53 L 89.66 316.10 L 99.49 323.23 L 109.32 328.97 L 119.15 339.39 L 128.98 327.48 L 138.81 323.23 L 148.64 309.72 L 158.47 311.43 L 168.30 279.96 L 178.12 274.96 L 187.95 142.28 L 197.78 265.61 L 207.61 256.99 L 217.44 320.14 L 227.27 345.76 L 237.10 274.22 L 246.93 281.23 L 256.76 346.83 L 266.59 353.95 L 276.42 336.09 L 286.25 354.06 L 296.08 349.17 L 305.91 305.47 L 315.74 253.17 L 325.57 210.75 L 335.40 324.61 L 345.23 301.43 L 355.06 296.54 L 364.89 301.43 L 374.72 330.88 L 384.55 338.43 L 394.38 290.70 L 404.20 315.57 L 414.03 356.08 L 423.86 346.19 L 433.69 373.83 L 443.52 367.77 L 453.35 368.41 L 463.18 375.00 L 473.01 348.95 L 482.84 338.64 L 492.67 347.68 L 502.50 349.27 L 512.33 311.64 L 522.16 345.87 L 531.99 316.64 L 541.82 345.87 L 551.65 332.16 L 561.48 286.55 L 571.31 318.97 L 581.14 321.31 L 590.97 325.25 L 600.80 362.24 L 610.62 363.73 L 620.45 346.30 L 630.28 358.20 L 640.11 344.60 L 649.94 348.21 L 659.77 326.73 L 669.60 149.20 L 679.43 221.27 L 689.26 272.83 L 699.09 128.36 L 708.92 249.87 L 718.75 371.49 L 728.58 371.92 L 738.41 362.88 L 748.24 256.46 L 758.07 299.09 L 767.90 319.19 L 777.73 332.26 L 787.56 272.41 L 797.39 300.37 L 807.22 287.19 L 817.05 245.41 L 826.88 165.67 L 836.70 232.44 L 846.53 233.82 L 856.36 242.54 L 866.19 332.69 L 876.02 355.97 L 885.85 268.48 L 895.68 301.43 L 905.51 209.69 L 915.34 60.00 L 925.17 74.56 L 935.00 68.61" fill="none" stroke="#69a7ff" stroke-width="4" stroke-linecap="round" stroke-linejoin="round"/>
<circle cx="935.00" cy="68.61" r="6" fill="#69a7ff"/>
<text x="927.00" y="56.61" text-anchor="end" fill="#f5f7fb" font-family="Inter, Arial, sans-serif" font-size="12" font-weight="600">40.50</text>
</svg>