<svg xmlns="http://www.w3.org/2000/svg" width="960" height="430" viewBox="0 0 960 430" role="img" aria-label="Composite score history">
<rect width="100%" height="100%" fill="#0b1020" rx="20"/>
<text x="70" y="32" fill="#f5f7fb" font-family="Inter, Arial, sans-serif" font-size="24" font-weight="700">Composite score history</text>
<text x="70" y="52" fill="#93a4c3" font-family="Inter, Arial, sans-serif" font-size="13">Trailing 75 sessions through 2025-11-20</text>
<line x1="70" x2="935" y1="375.00" y2="375.00" stroke="#27314e" stroke-width="1"/>
<text x="58" y="379.00" text-anchor="end" fill="#93a4c3" font-family="Inter, Arial, sans-serif" font-size="12">5</text>
<line x1="70" x2="935" y1="312.00" y2="312.00" stroke="#27314e" stroke-width="1"/>
<text x="58" y="316.00" text-anchor="end" fill="#93a4c3" font-family="Inter, Arial, sans-serif" font-size="12">12</text>
<line x1="70" x2="935" y1="249.00" y2="249.00" stroke="#27314e" stroke-width="1"/>
<text x="58" y="253.00" text-anchor="end" fill="#93a4c3" font-family="Inter, Arial, sans-serif" font-size="12">20</text>
<line x1="70" x2="935" y1="186.00" y2="186.00" stroke="#27314e" stroke-width="1"/>
<text x="58" y="190.00" text-anchor="end" fill="#93a4c3" font-family="Inter, Arial, sans-serif" font-size="12">27</text>
<line x1="70" x2="935" y1="123.00" y2="123.00" stroke="#27314e" stroke-width="1"/>
<text x="58" y="127.00" text-anchor="end" fill="#93a4c3" font-family="Inter, Arial, sans-serif" font-size="12">34</text>
<line x1="70" x2="935" y1="60.00" y2="60.00" stroke="#27314e" stroke-width="1"/>
<text x="58" y="64.00" text-anchor="end" fill="#93a4c3" font-family="Inter, Arial, sans-serif" font-size="12">41</text>
<text x="70.00" y="412" text-anchor="middle" fill="#93a4c3" font-family="Inter, Arial, sans-serif" font-size="12">2025-08-05</text>
<text x="502.50" y="412" text-anchor="middle" fill="#93a4c3" font-family="Inter, Arial, sans-serif" font-size="12">2025-09-26</text>
<text x="935.00" y="412" text-anchor="middle" fill="#93a4c3" font-family="Inter, Arial, sans-serif" font-size="12">2025-11-20</text>
<path d="M 70.00 285.02 L 81.69 310.99 L 93.38 307.52 L 105.07 289.54 L 116.76 276.77 L 128.45 344.86 L 140.14 341.65 L 151.82 329.58 L 163.51 320.72 L 175.20 322.02 L 186.89 260.53 L 198.58 217.80 L 210.27 183.15 L 221.96 281.90 L 233.65 257.23 L 245.34 271.74 L 257.03 286.33 L 268.72 326.19 L 280.41 287.46 L 292.09 248.46 L 303.78 268.78 L 315.47 308.73 L 327.16 293.80 L 338.85 328.10 L 350.54 344.26 L 362.23 340.17 L 373.92 345.82 L 385.61 330.45 L 397.30 327.75 L 408.99 326.36 L 420.68 319.07 L 432.36 280.25 L 444.05 319.94 L 455.74 295.36 L 467.43 309.95 L 479.12 294.67 L 490.81 245.07 L 502.50 271.56 L 514.19 273.47 L 525.88 287.02 L 537.57 330.79 L 549.26 344.52 L 560.95 317.42 L 572.64 329.40 L 584.32 301.00 L 596.01 309.26 L 607.70 284.33 L 619.39 132.87 L 631.08 191.84 L 642.77 233.87 L 654.46 115.84 L 666.15 215.11 L 677.84 375.00 L 689.53 344.60 L 701.22 316.64 L 712.91 256.28 L 724.59 296.84 L 736.28 316.81 L 747.97 332.62 L 759.66 295.53 L 771.35 283.37 L 783.04 261.05 L 794.73 211.46 L 806.42 146.33 L 818.11 200.87 L 829.80 202.00 L 841.49 209.12 L 853.18 282.77 L 864.86 327.23 L 876.55 230.31 L 888.24 261.66 L 899.93 182.28 L 911.62 60.00 L 923.31 71.90 L 935.00 67.03" fill="none" stroke="#69a7ff" stroke-width="4" stroke-linecap="round" stroke-linejoin="round"/>
<circle cx="935.00" cy="67.03" r="6" fill="#69a7ff"/>
</svg>