<svg xmlns="http://www.w3.org/2000/svg" width="960" height="430" viewBox="0 0 960 430" role="img" aria-label="Composite score history">
<rect width="100%" height="100%" fill="#0b1020" rx="20"/>
<text x="70" y="32" fill="#f5f7fb" font-family="Inter, Arial, sans-serif" font-size="24" font-weight="700">Composite score history</text>
<text x="70" y="52" fill="#93a4c3" font-family="Inter, Arial, sans-serif" font-size="13">Trailing 72 sessions through 2025-11-20</text>
<line x1="70" x2="935" y1="375.00" y2="375.00" stroke="#27314e" stroke-width="1"/>
<text x="58" y="379.00" text-anchor="end" fill="#93a4c3" font-family="Inter, Arial, sans-serif" font-size="12">5</text>
<line x1="70" x2="935" y1="312.00" y2="312.00" stroke="#27314e" stroke-width="1"/>
<text x="58" y="316.00" text-anchor="end" fill="#93a4c3" font-family="Inter, Arial, sans-serif" font-size="12">12</text>
<line x1="70" x2="935" y1="249.00" y2="249.00" stroke="#27314e" stroke-width="1"/>
<text x="58" y="253.00" text-anchor="end" fill="#93a4c3" font-family="Inter, Arial, sans-serif" font-size="12">20</text>
<line x1="70" x2="935" y1="186.00" y2="186.00" stroke="#27314e" stroke-width="1"/>
<text x="58" y="190.00" text-anchor="end" fill="#93a4c3" font-family="Inter, Arial, sans-serif" font-size="12">27</text>
<line x1="70" x2="935" y1="123.00" y2="123.00" stroke="#27314e" stroke-width="1"/>
<text x="58" y="127.00" text-anchor="end" fill="#93a4c3" font-family="Inter, Arial, sans-serif" font-size="12">34</text>
<line x1="70" x2="935" y1="60.00" y2="60.00" stroke="#27314e" stroke-width="1"/>
<text x="58" y="64.00" text-anchor="end" fill="#93a4c3" font-family="Inter, Arial, sans-serif" font-size="12">41</text>
<text x="70.00" y="412" text-anchor="middle" fill="#93a4c3" font-family="Inter, Arial, sans-serif" font-size="12">2025-08-08</text>
<text x="508.59" y="412" text-anchor="middle" fill="#93a4c3" font-family="Inter, Arial, sans-serif" font-size="12">2025-09-30</text>
<text x="935.00" y="412" text-anchor="middle" fill="#93a4c3" font-family="Inter, Arial, sans-serif" font-size="12">2025-11-20</text>
<path d="M 70.00 293.97 L 82.18 266.96 L 94.37 322.20 L 106.55 335.05 L 118.73 328.10 L 130.92 320.72 L 143.10 322.02 L 155.28 260.53 L 167.46 217.80 L 179.65 183.15 L 191.83 281.90 L 204.01 257.23 L 216.20 271.74 L 228.38 286.33 L 240.56 326.19 L 252.75 287.46 L 264.93 248.46 L 277.11 268.78 L 289.30 308.73 L 301.48 293.80 L 313.66 328.10 L 325.85 344.26 L 338.03 340.17 L 350.21 345.82 L 362.39 330.45 L 374.58 327.75 L 386.76 326.36 L 398.94 319.07 L 411.13 280.25 L 423.31 319.94 L 435.49 295.36 L 447.68 309.95 L 459.86 294.67 L 472.04 245.07 L 484.23 271.56 L 496.41 273.47 L 508.59 287.02 L 520.77 330.79 L 532.96 344.52 L 545.14 317.42 L 557.32 329.40 L 569.51 301.00 L 581.69 309.26 L 593.87 284.33 L 606.06 132.87 L 618.24 191.84 L 630.42 233.87 L 642.61 115.84 L 654.79 215.11 L 666.97 375.00 L 679.15 344.60 L 691.34 316.64 L 703.52 256.28 L 715.70 296.84 L 727.89 316.81 L 740.07 332.62 L 752.25 295.53 L 764.44 283.37 L 776.62 261.05 L 788.80 211.46 L 800.99 146.33 L 813.17 200.87 L 825.35 202.00 L 837.54 209.12 L 849.72 282.77 L 861.90 327.23 L 874.08 230.31 L 886.27 261.66 L 898.45 182.28 L 910.63 60.00 L 922.82 71.90 L 935.00 67.03" fill="none" stroke="#69a7ff" stroke-width="4" stroke-linecap="round" stroke-linejoin="round"/>
<circle cx="935.00" cy="67.03" r="6" fill="#69a7ff"/>
</svg>