<svg xmlns="http://www.w3.org/2000/svg" width="960" height="430" viewBox="0 0 960 430" role="img" aria-label="Composite score history">
<rect width="100%" height="100%" fill="#0b1020" rx="20"/>
<text x="70" y="32" fill="#f5f7fb" font-family="Inter, Arial, sans-serif" font-size="24" font-weight="700">Composite score history</text>
<text x="70" y="52" fill="#93a4c3" font-family="Inter, Arial, sans-serif" font-size="13">Trailing 52 sessions through 2025-11-20</text>
<line x1="70" x2="935" y1="375.00" y2="375.00" stroke="#27314e" stroke-width="1"/>
<text x="58" y="379.00" text-anchor="end" fill="#93a4c3" font-family="Inter, Arial, sans-serif" font-size="12">5</text>
<line x1="70" x2="935" y1="312.00" y2="312.00" stroke="#27314e" stroke-width="1"/>
<text x="58" y="316.00" text-anchor="end" fill="#93a4c3" font-family="Inter, Arial, sans-serif" font-size="12">12</text>
<line x1="70" x2="935" y1="249.00" y2="249.00" stroke="#27314e" stroke-width="1"/>
<text x="58" y="253.00" text-anchor="end" fill="#93a4c3" font-family="Inter, Arial, sans-serif" font-size="12">20</text>
<line x1="70" x2="935" y1="186.00" y2="186.00" stroke="#27314e" stroke-width="1"/>
<text x="58" y="190.00" text-anchor="end" fill="#93a4c3" font-family="Inter, Arial, sans-serif" font-size="12">27</text>
<line x1="70" x2="935" y1="123.00" y2="123.00" stroke="#27314e" stroke-width="1"/>
<text x="58" y="127.00" text-anchor="end" fill="#93a4c3" font-family="Inter, Arial, sans-serif" font-size="12">34</text>
<line x1="70" x2="935" y1="60.00" y2="60.00" stroke="#27314e" stroke-width="1"/>
<text x="58" y="64.00" text-anchor="end" fill="#93a4c3" font-family="Inter, Arial, sans-serif" font-size="12">41</text>
<text x="70.00" y="412" text-anchor="middle" fill="#93a4c3" font-family="Inter, Arial, sans-serif" font-size="12">2025-09-08</text>
<text x="510.98" y="412" text-anchor="middle" fill="#93a4c3" font-family="Inter, Arial, sans-serif" font-size="12">2025-10-15</text>
<text x="935.00" y="412" text-anchor="middle" fill="#93a4c3" font-family="Inter, Arial, sans-serif" font-size="12">2025-11-20</text>
<path d="M 70.00 316.38 L 86.96 291.19 L 103.92 304.91 L 120.88 337.74 L 137.84 314.55 L 154.80 327.75 L 171.76 326.36 L 188.73 319.07 L 205.69 280.25 L 222.65 319.94 L 239.61 295.36 L 256.57 309.95 L 273.53 294.67 L 290.49 245.07 L 307.45 271.56 L 324.41 273.47 L 341.37 287.02 L 358.33 330.79 L 375.29 344.52 L 392.25 317.42 L 409.22 329.40 L 426.18 301.00 L 443.14 309.26 L 460.10 284.33 L 477.06 132.87 L 494.02 191.84 L 510.98 233.87 L 527.94 115.84 L 544.90 215.11 L 561.86 375.00 L 578.82 344.60 L 595.78 316.64 L 612.75 256.28 L 629.71 296.84 L 646.67 316.81 L 663.63 332.62 L 680.59 295.53 L 697.55 283.37 L 714.51 261.05 L 731.47 211.46 L 748.43 146.33 L 765.39 200.87 L 782.35 202.00 L 799.31 209.12 L 816.27 282.77 L 833.24 327.23 L 850.20 230.31 L 867.16 261.66 L 884.12 182.28 L 901.08 60.00 L 918.04 71.90 L 935.00 67.03" fill="none" stroke="#69a7ff" stroke-width="4" stroke-linecap="round" stroke-linejoin="round"/>
<circle cx="935.00" cy="67.03" r="6" fill="#69a7ff"/>
</svg>