<svg xmlns="http://www.w3.org/2000/svg" width="960" height="430" viewBox="0 0 960 430" role="img" aria-label="Composite score history">
<rect width="100%" height="100%" fill="#0b1020" rx="20"/>
<text x="70" y="32" fill="#f5f7fb" font-family="Inter, Arial, sans-serif" font-size="24" font-weight="700">Composite score history</text>
<text x="70" y="52" fill="#93a4c3" font-family="Inter, Arial, sans-serif" font-size="13">Trailing 45 sessions through 2025-10-01</text>
<line x1="70" x2="935" y1="375.00" y2="375.00" stroke="#27314e" stroke-width="1"/>
<text x="58" y="379.00" text-anchor="end" fill="#93a4c3" font-family="Inter, Arial, sans-serif" font-size="12">8</text>
<line x1="70" x2="935" y1="312.00" y2="312.00" stroke="#27314e" stroke-width="1"/>
<text x="58" y="316.00" text-anchor="end" fill="#93a4c3" font-family="Inter, Arial, sans-serif" font-size="12">13</text>
<line x1="70" x2="935" y1="249.00" y2="249.00" stroke="#27314e" stroke-width="1"/>
<text x="58" y="253.00" text-anchor="end" fill="#93a4c3" font-family="Inter, Arial, sans-serif" font-size="12">17</text>
<line x1="70" x2="935" y1="186.00" y2="186.00" stroke="#27314e" stroke-width="1"/>
<text x="58" y="190.00" text-anchor="end" fill="#93a4c3" font-family="Inter, Arial, sans-serif" font-size="12">22</text>
<line x1="70" x2="935" y1="123.00" y2="123.00" stroke="#27314e" stroke-width="1"/>
<text x="58" y="127.00" text-anchor="end" fill="#93a4c3" font-family="Inter, Arial, sans-serif" font-size="12">27</text>
<line x1="70" x2="935" y1="60.00" y2="60.00" stroke="#27314e" stroke-width="1"/>
<text x="58" y="64.00" text-anchor="end" fill="#93a4c3" font-family="Inter, Arial, sans-serif" font-size="12">31</text>
<text x="70.00" y="412" text-anchor="middle" fill="#93a4c3" font-family="Inter, Arial, sans-serif" font-size="12">2025-07-30</text>
<text x="502.50" y="412" text-anchor="middle" fill="#93a4c3" font-family="Inter, Arial, sans-serif" font-size="12">2025-08-29</text>
<text x="935.00" y="412" text-anchor="middle" fill="#93a4c3" font-family="Inter, Arial, sans-serif" font-size="12">2025-10-01</text>
<path d="M 70.00 267.83 L 89.66 217.15 L 109.32 60.00 L 128.98 221.60 L 148.64 177.45 L 168.30 257.83 L 187.95 291.70 L 207.61 281.99 L 227.27 230.90 L 246.93 373.47 L 266.59 368.34 L 286.25 349.04 L 305.91 334.88 L 325.57 336.96 L 345.23 238.67 L 364.89 170.37 L 384.55 114.98 L 404.20 272.82 L 423.86 233.40 L 443.52 256.58 L 463.18 279.90 L 482.84 343.62 L 502.50 281.71 L 522.16 219.37 L 541.82 251.86 L 561.48 315.72 L 581.14 291.84 L 600.80 346.68 L 620.45 372.50 L 640.11 365.98 L 659.77 375.00 L 679.43 350.43 L 699.09 346.12 L 718.75 343.90 L 738.41 332.24 L 758.07 270.19 L 777.73 333.63 L 797.39 294.34 L 817.05 317.66 L 836.70 293.23 L 856.36 213.96 L 876.02 256.30 L 895.68 259.36 L 915.34 281.01 L 935.00 350.98" fill="none" stroke="#69a7ff" stroke-width="4" stroke-linecap="round" stroke-linejoin="round"/>
<circle cx="935.00" cy="350.98" r="6" fill="#69a7ff"/>
</svg>