<svg xmlns="http://www.w3.org/2000/svg" width="960" height="430" viewBox="0 0 960 430" role="img" aria-label="Composite score history">
<rect width="100%" height="100%" fill="#0b1020" rx="20"/>
<text x="70" y="32" fill="#f5f7fb" font-family="Inter, Arial, sans-serif" font-size="24" font-weight="700">Composite score history</text>
<text x="70" y="52" fill="#93a4c3" font-family="Inter, Arial, sans-serif" font-size="13">Trailing 89 sessions through 2026-03-18</text>
<line x1="70" x2="935" y1="375.00" y2="375.00" stroke="#27314e" stroke-width="1"/>
<text x="58" y="379.00" text-anchor="end" fill="#93a4c3" font-family="Inter, Arial, sans-serif" font-size="12">0</text>
<line x1="70" x2="935" y1="312.00" y2="312.00" stroke="#27314e" stroke-width="1"/>
<text x="58" y="316.00" text-anchor="end" fill="#93a4c3" font-family="Inter, Arial, sans-serif" font-size="12">12</text>
<line x1="70" x2="935" y1="249.00" y2="249.00" stroke="#27314e" stroke-width="1"/>
<text x="58" y="253.00" text-anchor="end" fill="#93a4c3" font-family="Inter, Arial, sans-serif" font-size="12">24</text>
<line x1="70" x2="935" y1="186.00" y2="186.00" stroke="#27314e" stroke-width="1"/>
<text x="58" y="190.00" text-anchor="end" fill="#93a4c3" font-family="Inter, Arial, sans-serif" font-size="12">36</text>
<line x1="70" x2="935" y1="123.00" y2="123.00" stroke="#27314e" stroke-width="1"/>
<text x="58" y="127.00" text-anchor="end" fill="#93a4c3" font-family="Inter, Arial, sans-serif" font-size="12">48</text>
<line x1="70" x2="935" y1="60.00" y2="60.00" stroke="#27314e" stroke-width="1"/>
<text x="58" y="64.00" text-anchor="end" fill="#93a4c3" font-family="Inter, Arial, sans-serif" font-size="12">60</text>
<text x="70.00" y="412" text-anchor="middle" fill="#93a4c3" font-family="Inter, Arial, sans-serif" font-size="12">2025-11-06</text>
<text x="502.50" y="412" text-anchor="middle" fill="#93a4c3" font-family="Inter, Arial, sans-serif" font-size="12">2026-01-13</text>
<text x="935.00" y="412" text-anchor="middle" fill="#93a4c3" font-family="Inter, Arial, sans-serif" font-size="12">2026-03-18</text>
<path d="M 70.00 295.62 L 79.83 300.47 L 89.66 319.34 L 99.49 329.56 L 109.32 292.09 L 119.15 279.65 L 128.98 231.47 L 138.81 157.25 L 148.64 164.47 L 158.47 161.52 L 168.30 216.81 L 178.12 307.42 L 187.95 341.79 L 197.78 349.28 L 207.61 375.00 L 217.44 346.01 L 227.27 328.83 L 237.10 316.86 L 246.93 298.78 L 256.76 286.71 L 266.59 308.58 L 276.42 282.60 L 286.25 304.26 L 296.08 328.46 L 305.91 298.31 L 315.74 304.58 L 325.57 304.89 L 335.40 242.33 L 345.23 260.56 L 355.06 326.45 L 364.89 343.43 L 374.72 352.33 L 384.55 374.89 L 394.38 365.20 L 404.20 345.90 L 414.03 330.14 L 423.86 291.61 L 433.69 282.65 L 443.52 288.77 L 453.35 305.84 L 463.18 303.37 L 473.01 314.17 L 482.84 316.17 L 492.67 293.03 L 502.50 277.59 L 512.33 279.65 L 522.16 285.97 L 531.99 262.25 L 541.82 173.96 L 551.65 235.21 L 561.48 263.78 L 571.31 254.13 L 581.14 287.82 L 590.97 318.55 L 600.80 296.88 L 610.62 273.80 L 620.45 272.32 L 630.28 279.91 L 640.11 233.63 L 649.94 235.95 L 659.77 192.67 L 669.60 290.66 L 679.43 287.66 L 689.26 303.37 L 699.09 306.58 L 708.92 294.19 L 718.75 242.70 L 728.58 235.32 L 738.41 257.72 L 748.24 248.49 L 758.07 308.37 L 767.90 284.07 L 777.73 304.37 L 787.56 314.59 L 797.39 308.69 L 807.22 283.02 L 817.05 266.36 L 826.88 193.67 L 836.70 208.43 L 846.53 159.68 L 856.36 60.00 L 866.19 158.73 L 876.02 209.80 L 885.85 153.72 L 895.68 86.99 L 905.51 148.98 L 915.34 191.04 L 925.17 188.19 L 935.00 134.22" fill="none" stroke="#69a7ff" stroke-width="4" stroke-linecap="round" stroke-linejoin="round"/>
<circle cx="935.00" cy="134.22" r="6" fill="#69a7ff"/>
</svg>