<svg xmlns="http://www.w3.org/2000/svg" width="960" height="430" viewBox="0 0 960 430" role="img" aria-label="Composite score history">
<rect width="100%" height="100%" fill="#0b1020" rx="20"/>
<text x="70" y="32" fill="#f5f7fb" font-family="Inter, Arial, sans-serif" font-size="24" font-weight="700">Composite score history</text>
<text x="70" y="52" fill="#93a4c3" font-family="Inter, Arial, sans-serif" font-size="13">Trailing 78 sessions through 2025-12-29</text>
<line x1="70" x2="935" y1="375.00" y2="375.00" stroke="#27314e" stroke-width="1"/>
<text x="58" y="379.00" text-anchor="end" fill="#93a4c3" font-family="Inter, Arial, sans-serif" font-size="12">0</text>
<line x1="70" x2="935" y1="312.00" y2="312.00" stroke="#27314e" stroke-width="1"/>
<text x="58" y="316.00" text-anchor="end" fill="#93a4c3" font-family="Inter, Arial, sans-serif" font-size="12">8</text>
<line x1="70" x2="935" y1="249.00" y2="249.00" stroke="#27314e" stroke-width="1"/>
<text x="58" y="253.00" text-anchor="end" fill="#93a4c3" font-family="Inter, Arial, sans-serif" font-size="12">17</text>
<line x1="70" x2="935" y1="186.00" y2="186.00" stroke="#27314e" stroke-width="1"/>
<text x="58" y="190.00" text-anchor="end" fill="#93a4c3" font-family="Inter, Arial, sans-serif" font-size="12">25</text>
<line x1="70" x2="935" y1="123.00" y2="123.00" stroke="#27314e" stroke-width="1"/>
<text x="58" y="127.00" text-anchor="end" fill="#93a4c3" font-family="Inter, Arial, sans-serif" font-size="12">33</text>
<line x1="70" x2="935" y1="60.00" y2="60.00" stroke="#27314e" stroke-width="1"/>
<text x="58" y="64.00" text-anchor="end" fill="#93a4c3" font-family="Inter, Arial, sans-serif" font-size="12">41</text>
<text x="70.00" y="412" text-anchor="middle" fill="#93a4c3" font-family="Inter, Arial, sans-serif" font-size="12">2025-09-05</text>
<text x="508.12" y="412" text-anchor="middle" fill="#93a4c3" font-family="Inter, Arial, sans-serif" font-size="12">2025-10-31</text>
<text x="935.00" y="412" text-anchor="middle" fill="#93a4c3" font-family="Inter, Arial, sans-serif" font-size="12">2025-12-29</text>
<path d="M 70.00 282.58 L 81.23 289.14 L 92.47 276.94 L 103.70 285.71 L 114.94 314.07 L 126.17 297.45 L 137.40 295.09 L 148.64 293.87 L 159.87 287.46 L 171.10 253.38 L 182.34 288.22 L 193.57 266.64 L 204.81 279.46 L 216.04 266.03 L 227.27 222.49 L 238.51 245.75 L 249.74 247.43 L 260.97 259.32 L 272.21 297.76 L 283.44 309.80 L 294.68 286.01 L 305.91 296.54 L 317.14 271.60 L 328.38 278.85 L 339.61 256.96 L 350.84 123.98 L 362.08 175.75 L 373.31 212.66 L 384.55 109.03 L 395.78 196.19 L 407.01 336.57 L 418.25 309.88 L 429.48 285.33 L 440.71 232.33 L 451.95 267.94 L 463.18 285.48 L 474.42 299.36 L 485.65 266.80 L 496.88 256.12 L 508.12 236.53 L 519.35 192.98 L 530.58 135.80 L 541.82 183.68 L 553.05 184.67 L 564.29 190.93 L 575.52 255.59 L 586.75 294.63 L 597.99 209.53 L 609.22 237.06 L 620.45 167.36 L 631.69 60.00 L 642.92 70.45 L 654.16 66.18 L 665.39 146.17 L 676.62 277.24 L 687.86 326.96 L 699.09 337.79 L 710.32 375.00 L 721.56 333.06 L 732.79 308.20 L 744.03 290.89 L 755.26 264.74 L 766.49 247.28 L 777.73 278.92 L 788.96 241.33 L 800.19 272.67 L 811.43 307.67 L 822.66 264.05 L 833.90 273.13 L 845.13 273.58 L 856.36 183.07 L 867.60 209.46 L 878.83 304.77 L 890.06 329.32 L 901.30 342.21 L 912.53 374.85 L 923.77 360.82 L 935.00 332.91" fill="none" stroke="#69a7ff" stroke-width="4" stroke-linecap="round" stroke-linejoin="round"/>
<circle cx="935.00" cy="332.91" r="6" fill="#69a7ff"/>
</svg>