<svg xmlns="http://www.w3.org/2000/svg" width="960" height="430" viewBox="0 0 960 430" role="img" aria-label="Composite score history">
<rect width="100%" height="100%" fill="#0b1020" rx="20"/>
<text x="70" y="32" fill="#f5f7fb" font-family="Inter, Arial, sans-serif" font-size="24" font-weight="700">Composite score history</text>
<text x="70" y="52" fill="#93a4c3" font-family="Inter, Arial, sans-serif" font-size="13">Trailing 84 sessions through 2025-12-29</text>
<line x1="70" x2="935" y1="375.00" y2="375.00" stroke="#27314e" stroke-width="1"/>
<text x="58" y="379.00" text-anchor="end" fill="#93a4c3" font-family="Inter, Arial, sans-serif" font-size="12">0</text>
<line x1="70" x2="935" y1="312.00" y2="312.00" stroke="#27314e" stroke-width="1"/>
<text x="58" y="316.00" text-anchor="end" fill="#93a4c3" font-family="Inter, Arial, sans-serif" font-size="12">8</text>
<line x1="70" x2="935" y1="249.00" y2="249.00" stroke="#27314e" stroke-width="1"/>
<text x="58" y="253.00" text-anchor="end" fill="#93a4c3" font-family="Inter, Arial, sans-serif" font-size="12">17</text>
<line x1="70" x2="935" y1="186.00" y2="186.00" stroke="#27314e" stroke-width="1"/>
<text x="58" y="190.00" text-anchor="end" fill="#93a4c3" font-family="Inter, Arial, sans-serif" font-size="12">25</text>
<line x1="70" x2="935" y1="123.00" y2="123.00" stroke="#27314e" stroke-width="1"/>
<text x="58" y="127.00" text-anchor="end" fill="#93a4c3" font-family="Inter, Arial, sans-serif" font-size="12">33</text>
<line x1="70" x2="935" y1="60.00" y2="60.00" stroke="#27314e" stroke-width="1"/>
<text x="58" y="64.00" text-anchor="end" fill="#93a4c3" font-family="Inter, Arial, sans-serif" font-size="12">41</text>
<text x="70.00" y="412" text-anchor="middle" fill="#93a4c3" font-family="Inter, Arial, sans-serif" font-size="12">2025-08-27</text>
<text x="507.71" y="412" text-anchor="middle" fill="#93a4c3" font-family="Inter, Arial, sans-serif" font-size="12">2025-10-28</text>
<text x="935.00" y="412" text-anchor="middle" fill="#93a4c3" font-family="Inter, Arial, sans-serif" font-size="12">2025-12-29</text>
<path d="M 70.00 271.30 L 80.42 270.23 L 90.84 255.66 L 101.27 179.87 L 111.69 229.81 L 122.11 278.39 L 132.53 265.27 L 142.95 295.39 L 153.37 309.58 L 163.80 305.99 L 174.22 310.95 L 184.64 297.45 L 195.06 295.09 L 205.48 293.87 L 215.90 287.46 L 226.33 253.38 L 236.75 288.22 L 247.17 266.64 L 257.59 279.46 L 268.01 266.03 L 278.43 222.49 L 288.86 245.75 L 299.28 247.43 L 309.70 259.32 L 320.12 297.76 L 330.54 309.80 L 340.96 286.01 L 351.39 296.54 L 361.81 271.60 L 372.23 278.85 L 382.65 256.96 L 393.07 123.98 L 403.49 175.75 L 413.92 212.66 L 424.34 109.03 L 434.76 196.19 L 445.18 336.57 L 455.60 309.88 L 466.02 285.33 L 476.45 232.33 L 486.87 267.94 L 497.29 285.48 L 507.71 299.36 L 518.13 266.80 L 528.55 256.12 L 538.98 236.53 L 549.40 192.98 L 559.82 135.80 L 570.24 183.68 L 580.66 184.67 L 591.08 190.93 L 601.51 255.59 L 611.93 294.63 L 622.35 209.53 L 632.77 237.06 L 643.19 167.36 L 653.61 60.00 L 664.04 70.45 L 674.46 66.18 L 684.88 146.17 L 695.30 277.24 L 705.72 326.96 L 716.14 337.79 L 726.57 375.00 L 736.99 333.06 L 747.41 308.20 L 757.83 290.89 L 768.25 264.74 L 778.67 247.28 L 789.10 278.92 L 799.52 241.33 L 809.94 272.67 L 820.36 307.67 L 830.78 264.05 L 841.20 273.13 L 851.63 273.58 L 862.05 183.07 L 872.47 209.46 L 882.89 304.77 L 893.31 329.32 L 903.73 342.21 L 914.16 374.85 L 924.58 360.82 L 935.00 332.91" fill="none" stroke="#69a7ff" stroke-width="4" stroke-linecap="round" stroke-linejoin="round"/>
<circle cx="935.00" cy="332.91" r="6" fill="#69a7ff"/>
</svg>