<svg xmlns="http://www.w3.org/2000/svg" width="960" height="430" viewBox="0 0 960 430" role="img" aria-label="Composite score history">
<rect width="100%" height="100%" fill="#0b1020" rx="20"/>
<text x="70" y="32" fill="#f5f7fb" font-family="Inter, Arial, sans-serif" font-size="24" font-weight="700">Composite score history</text>
<text x="70" y="52" fill="#93a4c3" font-family="Inter, Arial, sans-serif" font-size="13">Trailing 89 sessions through 2025-12-29</text>
<line x1="70" x2="935" y1="375.00" y2="375.00" stroke="#27314e" stroke-width="1"/>
<text x="58" y="379.00" text-anchor="end" fill="#93a4c3" font-family="Inter, Arial, sans-serif" font-size="12">0</text>
<line x1="70" x2="935" y1="312.00" y2="312.00" stroke="#27314e" stroke-width="1"/>
<text x="58" y="316.00" text-anchor="end" fill="#93a4c3" font-family="Inter, Arial, sans-serif" font-size="12">8</text>
<line x1="70" x2="935" y1="249.00" y2="249.00" stroke="#27314e" stroke-width="1"/>
<text x="58" y="253.00" text-anchor="end" fill="#93a4c3" font-family="Inter, Arial, sans-serif" font-size="12">17</text>
<line x1="70" x2="935" y1="186.00" y2="186.00" stroke="#27314e" stroke-width="1"/>
<text x="58" y="190.00" text-anchor="end" fill="#93a4c3" font-family="Inter, Arial, sans-serif" font-size="12">25</text>
<line x1="70" x2="935" y1="123.00" y2="123.00" stroke="#27314e" stroke-width="1"/>
<text x="58" y="127.00" text-anchor="end" fill="#93a4c3" font-family="Inter, Arial, sans-serif" font-size="12">33</text>
<line x1="70" x2="935" y1="60.00" y2="60.00" stroke="#27314e" stroke-width="1"/>
<text x="58" y="64.00" text-anchor="end" fill="#93a4c3" font-family="Inter, Arial, sans-serif" font-size="12">41</text>
<text x="70.00" y="412" text-anchor="middle" fill="#93a4c3" font-family="Inter, Arial, sans-serif" font-size="12">2025-08-20</text>
<text x="502.50" y="412" text-anchor="middle" fill="#93a4c3" font-family="Inter, Arial, sans-serif" font-size="12">2025-10-23</text>
<text x="935.00" y="412" text-anchor="middle" fill="#93a4c3" font-family="Inter, Arial, sans-serif" font-size="12">2025-12-29</text>
<path d="M 70.00 270.23 L 79.83 205.57 L 89.66 263.37 L 99.49 244.30 L 109.32 254.37 L 119.15 258.71 L 128.98 293.71 L 138.81 259.71 L 148.64 225.47 L 158.47 243.31 L 168.30 278.39 L 178.12 265.27 L 187.95 295.39 L 197.78 309.58 L 207.61 305.99 L 217.44 310.95 L 227.27 297.45 L 237.10 295.09 L 246.93 293.87 L 256.76 287.46 L 266.59 253.38 L 276.42 288.22 L 286.25 266.64 L 296.08 279.46 L 305.91 266.03 L 315.74 222.49 L 325.57 245.75 L 335.40 247.43 L 345.23 259.32 L 355.06 297.76 L 364.89 309.80 L 374.72 286.01 L 384.55 296.54 L 394.38 271.60 L 404.20 278.85 L 414.03 256.96 L 423.86 123.98 L 433.69 175.75 L 443.52 212.66 L 453.35 109.03 L 463.18 196.19 L 473.01 336.57 L 482.84 309.88 L 492.67 285.33 L 502.50 232.33 L 512.33 267.94 L 522.16 285.48 L 531.99 299.36 L 541.82 266.80 L 551.65 256.12 L 561.48 236.53 L 571.31 192.98 L 581.14 135.80 L 590.97 183.68 L 600.80 184.67 L 610.62 190.93 L 620.45 255.59 L 630.28 294.63 L 640.11 209.53 L 649.94 237.06 L 659.77 167.36 L 669.60 60.00 L 679.43 70.45 L 689.26 66.18 L 699.09 146.17 L 708.92 277.24 L 718.75 326.96 L 728.58 337.79 L 738.41 375.00 L 748.24 333.06 L 758.07 308.20 L 767.90 290.89 L 777.73 264.74 L 787.56 247.28 L 797.39 278.92 L 807.22 241.33 L 817.05 272.67 L 826.88 307.67 L 836.70 264.05 L 846.53 273.13 L 856.36 273.58 L 866.19 183.07 L 876.02 209.46 L 885.85 304.77 L 895.68 329.32 L 905.51 342.21 L 915.34 374.85 L 925.17 360.82 L 935.00 332.91" fill="none" stroke="#69a7ff" stroke-width="4" stroke-linecap="round" stroke-linejoin="round"/>
<circle cx="935.00" cy="332.91" r="6" fill="#69a7ff"/>
</svg>