<svg xmlns="http://www.w3.org/2000/svg" width="960" height="430" viewBox="0 0 960 430" role="img" aria-label="Composite score history">
<rect width="100%" height="100%" fill="#0b1020" rx="20"/>
<text x="70" y="32" fill="#f5f7fb" font-family="Inter, Arial, sans-serif" font-size="24" font-weight="700">Composite score history</text>
<text x="70" y="52" fill="#93a4c3" font-family="Inter, Arial, sans-serif" font-size="13">Trailing 44 sessions through 2025-12-29</text>
<line x1="70" x2="935" y1="375.00" y2="375.00" stroke="#27314e" stroke-width="1"/>
<text x="58" y="379.00" text-anchor="end" fill="#93a4c3" font-family="Inter, Arial, sans-serif" font-size="12">0</text>
<line x1="70" x2="935" y1="312.00" y2="312.00" stroke="#27314e" stroke-width="1"/>
<text x="58" y="316.00" text-anchor="end" fill="#93a4c3" font-family="Inter, Arial, sans-serif" font-size="12">8</text>
<line x1="70" x2="935" y1="249.00" y2="249.00" stroke="#27314e" stroke-width="1"/>
<text x="58" y="253.00" text-anchor="end" fill="#93a4c3" font-family="Inter, Arial, sans-serif" font-size="12">17</text>
<line x1="70" x2="935" y1="186.00" y2="186.00" stroke="#27314e" stroke-width="1"/>
<text x="58" y="190.00" text-anchor="end" fill="#93a4c3" font-family="Inter, Arial, sans-serif" font-size="12">25</text>
<line x1="70" x2="935" y1="123.00" y2="123.00" stroke="#27314e" stroke-width="1"/>
<text x="58" y="127.00" text-anchor="end" fill="#93a4c3" font-family="Inter, Arial, sans-serif" font-size="12">33</text>
<line x1="70" x2="935" y1="60.00" y2="60.00" stroke="#27314e" stroke-width="1"/>
<text x="58" y="64.00" text-anchor="end" fill="#93a4c3" font-family="Inter, Arial, sans-serif" font-size="12">41</text>
<text x="70.00" y="412" text-anchor="middle" fill="#93a4c3" font-family="Inter, Arial, sans-serif" font-size="12">2025-10-24</text>
<text x="512.56" y="412" text-anchor="middle" fill="#93a4c3" font-family="Inter, Arial, sans-serif" font-size="12">2025-11-26</text>
<text x="935.00" y="412" text-anchor="middle" fill="#93a4c3" font-family="Inter, Arial, sans-serif" font-size="12">2025-12-29</text>
<path d="M 70.00 279.53 L 90.12 309.73 L 110.23 311.79 L 130.35 264.43 L 150.47 237.14 L 170.58 236.53 L 190.70 192.98 L 210.81 135.80 L 230.93 183.68 L 251.05 184.67 L 271.16 190.93 L 291.28 255.59 L 311.40 294.63 L 331.51 209.53 L 351.63 237.06 L 371.74 167.36 L 391.86 60.00 L 411.98 70.45 L 432.09 66.18 L 452.21 146.17 L 472.33 277.24 L 492.44 326.96 L 512.56 337.79 L 532.67 375.00 L 552.79 333.06 L 572.91 308.20 L 593.02 290.89 L 613.14 264.74 L 633.26 247.28 L 653.37 278.92 L 673.49 241.33 L 693.60 272.67 L 713.72 307.67 L 733.84 264.05 L 753.95 273.13 L 774.07 273.58 L 794.19 183.07 L 814.30 209.46 L 834.42 304.77 L 854.53 329.32 L 874.65 342.21 L 894.77 374.85 L 914.88 360.82 L 935.00 332.91" fill="none" stroke="#69a7ff" stroke-width="4" stroke-linecap="round" stroke-linejoin="round"/>
<circle cx="935.00" cy="332.91" r="6" fill="#69a7ff"/>
</svg>