<svg xmlns="http://www.w3.org/2000/svg" width="960" height="430" viewBox="0 0 960 430" role="img" aria-label="Composite score history">
<rect width="100%" height="100%" fill="#0b1020" rx="20"/>
<text x="70" y="32" fill="#f5f7fb" font-family="Inter, Arial, sans-serif" font-size="24" font-weight="700">Composite score history</text>
<text x="70" y="52" fill="#93a4c3" font-family="Inter, Arial, sans-serif" font-size="13">Trailing 47 sessions through 2025-12-29</text>
<line x1="70" x2="935" y1="375.00" y2="375.00" stroke="#27314e" stroke-width="1"/>
<text x="58" y="379.00" text-anchor="end" fill="#93a4c3" font-family="Inter, Arial, sans-serif" font-size="12">0</text>
<line x1="70" x2="935" y1="312.00" y2="312.00" stroke="#27314e" stroke-width="1"/>
<text x="58" y="316.00" text-anchor="end" fill="#93a4c3" font-family="Inter, Arial, sans-serif" font-size="12">8</text>
<line x1="70" x2="935" y1="249.00" y2="249.00" stroke="#27314e" stroke-width="1"/>
<text x="58" y="253.00" text-anchor="end" fill="#93a4c3" font-family="Inter, Arial, sans-serif" font-size="12">17</text>
<line x1="70" x2="935" y1="186.00" y2="186.00" stroke="#27314e" stroke-width="1"/>
<text x="58" y="190.00" text-anchor="end" fill="#93a4c3" font-family="Inter, Arial, sans-serif" font-size="12">25</text>
<line x1="70" x2="935" y1="123.00" y2="123.00" stroke="#27314e" stroke-width="1"/>
<text x="58" y="127.00" text-anchor="end" fill="#93a4c3" font-family="Inter, Arial, sans-serif" font-size="12">33</text>
<line x1="70" x2="935" y1="60.00" y2="60.00" stroke="#27314e" stroke-width="1"/>
<text x="58" y="64.00" text-anchor="end" fill="#93a4c3" font-family="Inter, Arial, sans-serif" font-size="12">41</text>
<text x="70.00" y="412" text-anchor="middle" fill="#93a4c3" font-family="Inter, Arial, sans-serif" font-size="12">2025-10-21</text>
<text x="502.50" y="412" text-anchor="middle" fill="#93a4c3" font-family="Inter, Arial, sans-serif" font-size="12">2025-11-24</text>
<text x="935.00" y="412" text-anchor="middle" fill="#93a4c3" font-family="Inter, Arial, sans-serif" font-size="12">2025-12-29</text>
<path d="M 70.00 283.73 L 88.80 244.07 L 107.61 217.77 L 126.41 248.19 L 145.22 290.05 L 164.02 299.36 L 182.83 266.80 L 201.63 256.12 L 220.43 236.53 L 239.24 192.98 L 258.04 135.80 L 276.85 183.68 L 295.65 184.67 L 314.46 190.93 L 333.26 255.59 L 352.07 294.63 L 370.87 209.53 L 389.67 237.06 L 408.48 167.36 L 427.28 60.00 L 446.09 70.45 L 464.89 66.18 L 483.70 146.17 L 502.50 277.24 L 521.30 326.96 L 540.11 337.79 L 558.91 375.00 L 577.72 333.06 L 596.52 308.20 L 615.33 290.89 L 634.13 264.74 L 652.93 247.28 L 671.74 278.92 L 690.54 241.33 L 709.35 272.67 L 728.15 307.67 L 746.96 264.05 L 765.76 273.13 L 784.57 273.58 L 803.37 183.07 L 822.17 209.46 L 840.98 304.77 L 859.78 329.32 L 878.59 342.21 L 897.39 374.85 L 916.20 360.82 L 935.00 332.91" fill="none" stroke="#69a7ff" stroke-width="4" stroke-linecap="round" stroke-linejoin="round"/>
<circle cx="935.00" cy="332.91" r="6" fill="#69a7ff"/>
</svg>