<svg xmlns="http://www.w3.org/2000/svg" width="960" height="430" viewBox="0 0 960 430" role="img" aria-label="Composite score history">
<rect width="100%" height="100%" fill="#0b1020" rx="20"/>
<text x="70" y="32" fill="#f5f7fb" font-family="Inter, Arial, sans-serif" font-size="24" font-weight="700">Composite score history</text>
<text x="70" y="52" fill="#93a4c3" font-family="Inter, Arial, sans-serif" font-size="13">Trailing 64 sessions through 2025-12-29</text>
<line x1="70" x2="935" y1="375.00" y2="375.00" stroke="#27314e" stroke-width="1"/>
<text x="58" y="379.00" text-anchor="end" fill="#93a4c3" font-family="Inter, Arial, sans-serif" font-size="12">0</text>
<line x1="70" x2="935" y1="312.00" y2="312.00" stroke="#27314e" stroke-width="1"/>
<text x="58" y="316.00" text-anchor="end" fill="#93a4c3" font-family="Inter, Arial, sans-serif" font-size="12">8</text>
<line x1="70" x2="935" y1="249.00" y2="249.00" stroke="#27314e" stroke-width="1"/>
<text x="58" y="253.00" text-anchor="end" fill="#93a4c3" font-family="Inter, Arial, sans-serif" font-size="12">17</text>
<line x1="70" x2="935" y1="186.00" y2="186.00" stroke="#27314e" stroke-width="1"/>
<text x="58" y="190.00" text-anchor="end" fill="#93a4c3" font-family="Inter, Arial, sans-serif" font-size="12">25</text>
<line x1="70" x2="935" y1="123.00" y2="123.00" stroke="#27314e" stroke-width="1"/>
<text x="58" y="127.00" text-anchor="end" fill="#93a4c3" font-family="Inter, Arial, sans-serif" font-size="12">33</text>
<line x1="70" x2="935" y1="60.00" y2="60.00" stroke="#27314e" stroke-width="1"/>
<text x="58" y="64.00" text-anchor="end" fill="#93a4c3" font-family="Inter, Arial, sans-serif" font-size="12">41</text>
<text x="70.00" y="412" text-anchor="middle" fill="#93a4c3" font-family="Inter, Arial, sans-serif" font-size="12">2025-09-25</text>
<text x="509.37" y="412" text-anchor="middle" fill="#93a4c3" font-family="Inter, Arial, sans-serif" font-size="12">2025-11-12</text>
<text x="935.00" y="412" text-anchor="middle" fill="#93a4c3" font-family="Inter, Arial, sans-serif" font-size="12">2025-12-29</text>
<path d="M 70.00 266.95 L 83.73 287.08 L 97.46 288.45 L 111.19 295.77 L 124.92 308.28 L 138.65 309.80 L 152.38 286.01 L 166.11 296.54 L 179.84 271.60 L 193.57 278.85 L 207.30 256.96 L 221.03 123.98 L 234.76 175.75 L 248.49 212.66 L 262.22 109.03 L 275.95 196.19 L 289.68 336.57 L 303.41 309.88 L 317.14 285.33 L 330.87 232.33 L 344.60 267.94 L 358.33 285.48 L 372.06 299.36 L 385.79 266.80 L 399.52 256.12 L 413.25 236.53 L 426.98 192.98 L 440.71 135.80 L 454.44 183.68 L 468.17 184.67 L 481.90 190.93 L 495.63 255.59 L 509.37 294.63 L 523.10 209.53 L 536.83 237.06 L 550.56 167.36 L 564.29 60.00 L 578.02 70.45 L 591.75 66.18 L 605.48 146.17 L 619.21 277.24 L 632.94 326.96 L 646.67 337.79 L 660.40 375.00 L 674.13 333.06 L 687.86 308.20 L 701.59 290.89 L 715.32 264.74 L 729.05 247.28 L 742.78 278.92 L 756.51 241.33 L 770.24 272.67 L 783.97 307.67 L 797.70 264.05 L 811.43 273.13 L 825.16 273.58 L 838.89 183.07 L 852.62 209.46 L 866.35 304.77 L 880.08 329.32 L 893.81 342.21 L 907.54 374.85 L 921.27 360.82 L 935.00 332.91" fill="none" stroke="#69a7ff" stroke-width="4" stroke-linecap="round" stroke-linejoin="round"/>
<circle cx="935.00" cy="332.91" r="6" fill="#69a7ff"/>
</svg>