<svg xmlns="http://www.w3.org/2000/svg" width="960" height="430" viewBox="0 0 960 430" role="img" aria-label="Composite score history">
<rect width="100%" height="100%" fill="#0b1020" rx="20"/>
<text x="70" y="32" fill="#f5f7fb" font-family="Inter, Arial, sans-serif" font-size="24" font-weight="700">Composite score history</text>
<text x="70" y="52" fill="#93a4c3" font-family="Inter, Arial, sans-serif" font-size="13">Trailing 90 sessions through 2026-07-20</text>
<line x1="70" x2="935" y1="375.00" y2="375.00" stroke="#27314e" stroke-width="1"/>
<text x="58" y="379.00" text-anchor="end" fill="#93a4c3" font-family="Inter, Arial, sans-serif" font-size="12">6</text>
<line x1="70" x2="935" y1="312.00" y2="312.00" stroke="#27314e" stroke-width="1"/>
<text x="58" y="316.00" text-anchor="end" fill="#93a4c3" font-family="Inter, Arial, sans-serif" font-size="12">16</text>
<line x1="70" x2="935" y1="249.00" y2="249.00" stroke="#27314e" stroke-width="1"/>
<text x="58" y="253.00" text-anchor="end" fill="#93a4c3" font-family="Inter, Arial, sans-serif" font-size="12">25</text>
<line x1="70" x2="935" y1="186.00" y2="186.00" stroke="#27314e" stroke-width="1"/>
<text x="58" y="190.00" text-anchor="end" fill="#93a4c3" font-family="Inter, Arial, sans-serif" font-size="12">35</text>
<line x1="70" x2="935" y1="123.00" y2="123.00" stroke="#27314e" stroke-width="1"/>
<text x="58" y="127.00" text-anchor="end" fill="#93a4c3" font-family="Inter, Arial, sans-serif" font-size="12">45</text>
<line x1="70" x2="935" y1="60.00" y2="60.00" stroke="#27314e" stroke-width="1"/>
<text x="58" y="64.00" text-anchor="end" fill="#93a4c3" font-family="Inter, Arial, sans-serif" font-size="12">55</text>
<text x="70.00" y="412" text-anchor="middle" fill="#93a4c3" font-family="Inter, Arial, sans-serif" font-size="12">2026-03-11</text>
<text x="507.36" y="412" text-anchor="middle" fill="#93a4c3" font-family="Inter, Arial, sans-serif" font-size="12">2026-05-14</text>
<text x="935.00" y="412" text-anchor="middle" fill="#93a4c3" font-family="Inter, Arial, sans-serif" font-size="12">2026-07-20</text>
<path d="M 70.00 141.92 L 79.72 60.00 L 89.44 136.10 L 99.16 187.73 L 108.88 184.24 L 118.60 117.98 L 128.31 221.06 L 138.03 135.06 L 147.75 144.64 L 157.47 86.08 L 167.19 224.04 L 176.91 113.97 L 186.63 133.12 L 196.35 74.56 L 206.07 248.11 L 215.79 242.41 L 225.51 288.81 L 235.22 307.96 L 244.94 308.29 L 254.66 337.15 L 264.38 346.79 L 274.10 335.92 L 283.82 349.57 L 293.54 373.06 L 303.26 332.29 L 312.98 330.80 L 322.70 375.00 L 332.42 345.69 L 342.13 291.85 L 351.85 300.39 L 361.57 279.62 L 371.29 254.77 L 381.01 273.15 L 390.73 279.36 L 400.45 221.38 L 410.17 267.33 L 419.89 246.94 L 429.61 199.77 L 439.33 272.96 L 449.04 345.17 L 458.76 306.93 L 468.48 320.39 L 478.20 323.23 L 487.92 277.23 L 497.64 221.64 L 507.36 274.51 L 517.08 186.44 L 526.80 229.99 L 536.52 216.14 L 546.24 264.22 L 555.96 243.58 L 565.67 293.14 L 575.39 319.29 L 585.11 334.56 L 594.83 328.47 L 604.55 333.65 L 614.27 323.30 L 623.99 308.42 L 633.71 282.01 L 643.43 293.86 L 653.15 99.15 L 662.87 158.29 L 672.58 142.89 L 682.30 98.70 L 692.02 187.22 L 701.74 311.20 L 711.46 340.38 L 721.18 338.89 L 730.90 315.99 L 740.62 301.36 L 750.34 277.10 L 760.06 179.26 L 769.78 219.64 L 779.49 280.27 L 789.21 240.08 L 798.93 298.77 L 808.65 340.19 L 818.37 304.60 L 828.09 332.16 L 837.81 326.47 L 847.53 292.30 L 857.25 262.93 L 866.97 324.01 L 876.69 308.16 L 886.40 238.01 L 896.12 319.67 L 905.84 341.87 L 915.56 307.32 L 925.28 230.18 L 935.00 261.37" fill="none" stroke="#69a7ff" stroke-width="4" stroke-linecap="round" stroke-linejoin="round"/>
<circle cx="935.00" cy="261.37" r="6" fill="#69a7ff"/>
</svg>