<svg xmlns="http://www.w3.org/2000/svg" width="960" height="430" viewBox="0 0 960 430" role="img" aria-label="Composite score history">
<rect width="100%" height="100%" fill="#0b1020" rx="20"/>
<text x="70" y="32" fill="#f5f7fb" font-family="Inter, Arial, sans-serif" font-size="24" font-weight="700">Composite score history</text>
<text x="70" y="52" fill="#93a4c3" font-family="Inter, Arial, sans-serif" font-size="13">Trailing 51 sessions through 2025-11-10</text>
<line x1="70" x2="935" y1="375.00" y2="375.00" stroke="#27314e" stroke-width="1"/>
<text x="58" y="379.00" text-anchor="end" fill="#93a4c3" font-family="Inter, Arial, sans-serif" font-size="12">5</text>
<line x1="70" x2="935" y1="312.00" y2="312.00" stroke="#27314e" stroke-width="1"/>
<text x="58" y="316.00" text-anchor="end" fill="#93a4c3" font-family="Inter, Arial, sans-serif" font-size="12">11</text>
<line x1="70" x2="935" y1="249.00" y2="249.00" stroke="#27314e" stroke-width="1"/>
<text x="58" y="253.00" text-anchor="end" fill="#93a4c3" font-family="Inter, Arial, sans-serif" font-size="12">17</text>
<line x1="70" x2="935" y1="186.00" y2="186.00" stroke="#27314e" stroke-width="1"/>
<text x="58" y="190.00" text-anchor="end" fill="#93a4c3" font-family="Inter, Arial, sans-serif" font-size="12">23</text>
<line x1="70" x2="935" y1="123.00" y2="123.00" stroke="#27314e" stroke-width="1"/>
<text x="58" y="127.00" text-anchor="end" fill="#93a4c3" font-family="Inter, Arial, sans-serif" font-size="12">29</text>
<line x1="70" x2="935" y1="60.00" y2="60.00" stroke="#27314e" stroke-width="1"/>
<text x="58" y="64.00" text-anchor="end" fill="#93a4c3" font-family="Inter, Arial, sans-serif" font-size="12">35</text>
<text x="70.00" y="412" text-anchor="middle" fill="#93a4c3" font-family="Inter, Arial, sans-serif" font-size="12">2025-08-28</text>
<text x="502.50" y="412" text-anchor="middle" fill="#93a4c3" font-family="Inter, Arial, sans-serif" font-size="12">2025-10-03</text>
<text x="935.00" y="412" text-anchor="middle" fill="#93a4c3" font-family="Inter, Arial, sans-serif" font-size="12">2025-11-10</text>
<path d="M 70.00 287.49 L 87.30 242.31 L 104.60 150.15 L 121.90 214.97 L 139.20 282.00 L 156.50 276.30 L 173.80 318.00 L 191.10 337.63 L 208.40 332.67 L 225.70 339.53 L 243.00 320.85 L 260.30 317.57 L 277.60 315.88 L 294.90 307.02 L 312.20 259.83 L 329.50 308.07 L 346.80 278.20 L 364.10 295.93 L 381.40 277.35 L 398.70 217.08 L 416.00 249.27 L 433.30 251.60 L 450.60 268.06 L 467.90 321.27 L 485.20 337.95 L 502.50 305.01 L 519.80 319.58 L 537.10 285.06 L 554.40 295.09 L 571.70 264.79 L 589.00 80.69 L 606.30 152.37 L 623.60 203.46 L 640.90 60.00 L 658.20 180.66 L 675.50 375.00 L 692.80 338.05 L 710.10 304.06 L 727.40 230.70 L 744.70 279.99 L 762.00 304.27 L 779.30 323.49 L 796.60 278.41 L 813.90 263.63 L 831.20 236.50 L 848.50 176.22 L 865.80 97.05 L 883.10 163.35 L 900.40 164.72 L 917.70 173.37 L 935.00 262.89" fill="none" stroke="#69a7ff" stroke-width="4" stroke-linecap="round" stroke-linejoin="round"/>
<circle cx="935.00" cy="262.89" r="6" fill="#69a7ff"/>
</svg>