<svg xmlns="http://www.w3.org/2000/svg" width="960" height="430" viewBox="0 0 960 430" role="img" aria-label="Composite score history">
<rect width="100%" height="100%" fill="#0b1020" rx="20"/>
<text x="70" y="32" fill="#f5f7fb" font-family="Inter, Arial, sans-serif" font-size="24" font-weight="700">Composite score history</text>
<text x="70" y="52" fill="#93a4c3" font-family="Inter, Arial, sans-serif" font-size="13">Trailing 81 sessions through 2025-11-10</text>
<line x1="70" x2="935" y1="375.00" y2="375.00" stroke="#27314e" stroke-width="1"/>
<text x="58" y="379.00" text-anchor="end" fill="#93a4c3" font-family="Inter, Arial, sans-serif" font-size="12">12</text>
<line x1="70" x2="935" y1="312.00" y2="312.00" stroke="#27314e" stroke-width="1"/>
<text x="58" y="316.00" text-anchor="end" fill="#93a4c3" font-family="Inter, Arial, sans-serif" font-size="12">16</text>
<line x1="70" x2="935" y1="249.00" y2="249.00" stroke="#27314e" stroke-width="1"/>
<text x="58" y="253.00" text-anchor="end" fill="#93a4c3" font-family="Inter, Arial, sans-serif" font-size="12">21</text>
<line x1="70" x2="935" y1="186.00" y2="186.00" stroke="#27314e" stroke-width="1"/>
<text x="58" y="190.00" text-anchor="end" fill="#93a4c3" font-family="Inter, Arial, sans-serif" font-size="12">26</text>
<line x1="70" x2="935" y1="123.00" y2="123.00" stroke="#27314e" stroke-width="1"/>
<text x="58" y="127.00" text-anchor="end" fill="#93a4c3" font-family="Inter, Arial, sans-serif" font-size="12">30</text>
<line x1="70" x2="935" y1="60.00" y2="60.00" stroke="#27314e" stroke-width="1"/>
<text x="58" y="64.00" text-anchor="end" fill="#93a4c3" font-family="Inter, Arial, sans-serif" font-size="12">35</text>
<text x="70.00" y="412" text-anchor="middle" fill="#93a4c3" font-family="Inter, Arial, sans-serif" font-size="12">2025-07-17</text>
<text x="502.50" y="412" text-anchor="middle" fill="#93a4c3" font-family="Inter, Arial, sans-serif" font-size="12">2025-09-12</text>
<text x="935.00" y="412" text-anchor="middle" fill="#93a4c3" font-family="Inter, Arial, sans-serif" font-size="12">2025-11-10</text>
<path d="M 70.00 296.52 L 80.81 305.89 L 91.62 307.11 L 102.44 316.21 L 113.25 329.52 L 124.06 314.31 L 134.88 308.88 L 145.69 291.63 L 156.50 293.81 L 167.31 253.62 L 178.12 247.23 L 188.94 77.79 L 199.75 235.29 L 210.56 224.29 L 221.38 304.94 L 232.19 337.66 L 243.00 246.28 L 253.81 255.25 L 264.62 339.02 L 275.44 348.12 L 286.25 325.31 L 297.06 348.25 L 307.88 342.01 L 318.69 286.20 L 329.50 219.40 L 340.31 165.23 L 351.12 310.64 L 361.94 281.04 L 372.75 274.80 L 383.56 281.04 L 394.38 318.65 L 405.19 328.29 L 416.00 267.33 L 426.81 299.10 L 437.62 350.83 L 448.44 338.20 L 459.25 373.51 L 470.06 365.77 L 480.88 366.58 L 491.69 375.00 L 502.50 341.73 L 513.31 328.56 L 524.12 340.11 L 534.94 342.14 L 545.75 294.08 L 556.56 337.80 L 567.38 300.46 L 578.19 337.80 L 589.00 320.28 L 599.81 262.03 L 610.62 303.45 L 621.44 306.43 L 632.25 311.46 L 643.06 358.71 L 653.88 360.61 L 664.69 338.34 L 675.50 353.55 L 686.31 336.17 L 697.12 340.78 L 707.94 313.36 L 718.75 86.61 L 729.56 178.67 L 740.38 244.52 L 751.19 60.00 L 762.00 215.19 L 772.81 370.52 L 783.62 371.06 L 794.44 359.52 L 805.25 223.61 L 816.06 278.06 L 826.88 303.72 L 837.69 320.42 L 848.50 243.98 L 859.31 279.69 L 870.12 262.85 L 880.94 209.49 L 891.75 107.66 L 902.56 192.92 L 913.38 194.69 L 924.19 205.82 L 935.00 320.96" fill="none" stroke="#69a7ff" stroke-width="4" stroke-linecap="round" stroke-linejoin="round"/>
<circle cx="935.00" cy="320.96" r="6" fill="#69a7ff"/>
<text x="927.00" y="308.96" text-anchor="end" fill="#f5f7fb" font-family="Inter, Arial, sans-serif" font-size="12" font-weight="600">15.66</text>
</svg>