<svg xmlns="http://www.w3.org/2000/svg" width="960" height="430" viewBox="0 0 960 430" role="img" aria-label="Composite score history">
<rect width="100%" height="100%" fill="#0b1020" rx="20"/>
<text x="70" y="32" fill="#f5f7fb" font-family="Inter, Arial, sans-serif" font-size="24" font-weight="700">Composite score history</text>
<text x="70" y="52" fill="#93a4c3" font-family="Inter, Arial, sans-serif" font-size="13">Trailing 47 sessions through 2025-11-10</text>
<line x1="70" x2="935" y1="375.00" y2="375.00" stroke="#27314e" stroke-width="1"/>
<text x="58" y="379.00" text-anchor="end" fill="#93a4c3" font-family="Inter, Arial, sans-serif" font-size="12">5</text>
<line x1="70" x2="935" y1="312.00" y2="312.00" stroke="#27314e" stroke-width="1"/>
<text x="58" y="316.00" text-anchor="end" fill="#93a4c3" font-family="Inter, Arial, sans-serif" font-size="12">11</text>
<line x1="70" x2="935" y1="249.00" y2="249.00" stroke="#27314e" stroke-width="1"/>
<text x="58" y="253.00" text-anchor="end" fill="#93a4c3" font-family="Inter, Arial, sans-serif" font-size="12">17</text>
<line x1="70" x2="935" y1="186.00" y2="186.00" stroke="#27314e" stroke-width="1"/>
<text x="58" y="190.00" text-anchor="end" fill="#93a4c3" font-family="Inter, Arial, sans-serif" font-size="12">23</text>
<line x1="70" x2="935" y1="123.00" y2="123.00" stroke="#27314e" stroke-width="1"/>
<text x="58" y="127.00" text-anchor="end" fill="#93a4c3" font-family="Inter, Arial, sans-serif" font-size="12">29</text>
<line x1="70" x2="935" y1="60.00" y2="60.00" stroke="#27314e" stroke-width="1"/>
<text x="58" y="64.00" text-anchor="end" fill="#93a4c3" font-family="Inter, Arial, sans-serif" font-size="12">35</text>
<text x="70.00" y="412" text-anchor="middle" fill="#93a4c3" font-family="Inter, Arial, sans-serif" font-size="12">2025-09-04</text>
<text x="502.50" y="412" text-anchor="middle" fill="#93a4c3" font-family="Inter, Arial, sans-serif" font-size="12">2025-10-07</text>
<text x="935.00" y="412" text-anchor="middle" fill="#93a4c3" font-family="Inter, Arial, sans-serif" font-size="12">2025-11-10</text>
<path d="M 70.00 290.55 L 88.80 283.58 L 107.61 298.15 L 126.41 301.95 L 145.22 310.08 L 164.02 339.53 L 182.83 320.85 L 201.63 317.57 L 220.43 315.88 L 239.24 307.02 L 258.04 259.83 L 276.85 308.07 L 295.65 278.20 L 314.46 295.93 L 333.26 277.35 L 352.07 217.08 L 370.87 249.27 L 389.67 251.60 L 408.48 268.06 L 427.28 321.27 L 446.09 337.95 L 464.89 305.01 L 483.70 319.58 L 502.50 285.06 L 521.30 295.09 L 540.11 264.79 L 558.91 80.69 L 577.72 152.37 L 596.52 203.46 L 615.33 60.00 L 634.13 180.66 L 652.93 375.00 L 671.74 338.05 L 690.54 304.06 L 709.35 230.70 L 728.15 279.99 L 746.96 304.27 L 765.76 323.49 L 784.57 278.41 L 803.37 263.63 L 822.17 236.50 L 840.98 176.22 L 859.78 97.05 L 878.59 163.35 L 897.39 164.72 L 916.20 173.37 L 935.00 262.89" fill="none" stroke="#69a7ff" stroke-width="4" stroke-linecap="round" stroke-linejoin="round"/>
<circle cx="935.00" cy="262.89" r="6" fill="#69a7ff"/>
</svg>