<svg xmlns="http://www.w3.org/2000/svg" width="960" height="430" viewBox="0 0 960 430" role="img" aria-label="Composite score history">
<rect width="100%" height="100%" fill="#0b1020" rx="20"/>
<text x="70" y="32" fill="#f5f7fb" font-family="Inter, Arial, sans-serif" font-size="24" font-weight="700">Composite score history</text>
<text x="70" y="52" fill="#93a4c3" font-family="Inter, Arial, sans-serif" font-size="13">Trailing 57 sessions through 2025-11-10</text>
<line x1="70" x2="935" y1="375.00" y2="375.00" stroke="#27314e" stroke-width="1"/>
<text x="58" y="379.00" text-anchor="end" fill="#93a4c3" font-family="Inter, Arial, sans-serif" font-size="12">5</text>
<line x1="70" x2="935" y1="312.00" y2="312.00" stroke="#27314e" stroke-width="1"/>
<text x="58" y="316.00" text-anchor="end" fill="#93a4c3" font-family="Inter, Arial, sans-serif" font-size="12">11</text>
<line x1="70" x2="935" y1="249.00" y2="249.00" stroke="#27314e" stroke-width="1"/>
<text x="58" y="253.00" text-anchor="end" fill="#93a4c3" font-family="Inter, Arial, sans-serif" font-size="12">17</text>
<line x1="70" x2="935" y1="186.00" y2="186.00" stroke="#27314e" stroke-width="1"/>
<text x="58" y="190.00" text-anchor="end" fill="#93a4c3" font-family="Inter, Arial, sans-serif" font-size="12">23</text>
<line x1="70" x2="935" y1="123.00" y2="123.00" stroke="#27314e" stroke-width="1"/>
<text x="58" y="127.00" text-anchor="end" fill="#93a4c3" font-family="Inter, Arial, sans-serif" font-size="12">29</text>
<line x1="70" x2="935" y1="60.00" y2="60.00" stroke="#27314e" stroke-width="1"/>
<text x="58" y="64.00" text-anchor="end" fill="#93a4c3" font-family="Inter, Arial, sans-serif" font-size="12">35</text>
<text x="70.00" y="412" text-anchor="middle" fill="#93a4c3" font-family="Inter, Arial, sans-serif" font-size="12">2025-08-20</text>
<text x="502.50" y="412" text-anchor="middle" fill="#93a4c3" font-family="Inter, Arial, sans-serif" font-size="12">2025-09-30</text>
<text x="935.00" y="412" text-anchor="middle" fill="#93a4c3" font-family="Inter, Arial, sans-serif" font-size="12">2025-11-10</text>
<path d="M 70.00 283.16 L 85.45 193.64 L 100.89 273.66 L 116.34 247.27 L 131.79 261.20 L 147.23 267.22 L 162.68 315.67 L 178.12 268.59 L 193.57 221.19 L 209.02 245.90 L 224.46 294.46 L 239.91 276.30 L 255.36 318.00 L 270.80 337.63 L 286.25 332.67 L 301.70 339.53 L 317.14 320.85 L 332.59 317.57 L 348.04 315.88 L 363.48 307.02 L 378.93 259.83 L 394.38 308.07 L 409.82 278.20 L 425.27 295.93 L 440.71 277.35 L 456.16 217.08 L 471.61 249.27 L 487.05 251.60 L 502.50 268.06 L 517.95 321.27 L 533.39 337.95 L 548.84 305.01 L 564.29 319.58 L 579.73 285.06 L 595.18 295.09 L 610.62 264.79 L 626.07 80.69 L 641.52 152.37 L 656.96 203.46 L 672.41 60.00 L 687.86 180.66 L 703.30 375.00 L 718.75 338.05 L 734.20 304.06 L 749.64 230.70 L 765.09 279.99 L 780.54 304.27 L 795.98 323.49 L 811.43 278.41 L 826.88 263.63 L 842.32 236.50 L 857.77 176.22 L 873.21 97.05 L 888.66 163.35 L 904.11 164.72 L 919.55 173.37 L 935.00 262.89" fill="none" stroke="#69a7ff" stroke-width="4" stroke-linecap="round" stroke-linejoin="round"/>
<circle cx="935.00" cy="262.89" r="6" fill="#69a7ff"/>
</svg>