<svg xmlns="http://www.w3.org/2000/svg" width="960" height="430" viewBox="0 0 960 430" role="img" aria-label="Composite score history">
<rect width="100%" height="100%" fill="#0b1020" rx="20"/>
<text x="70" y="32" fill="#f5f7fb" font-family="Inter, Arial, sans-serif" font-size="24" font-weight="700">Composite score history</text>
<text x="70" y="52" fill="#93a4c3" font-family="Inter, Arial, sans-serif" font-size="13">Trailing 71 sessions through 2025-11-10</text>
<line x1="70" x2="935" y1="375.00" y2="375.00" stroke="#27314e" stroke-width="1"/>
<text x="58" y="379.00" text-anchor="end" fill="#93a4c3" font-family="Inter, Arial, sans-serif" font-size="12">5</text>
<line x1="70" x2="935" y1="312.00" y2="312.00" stroke="#27314e" stroke-width="1"/>
<text x="58" y="316.00" text-anchor="end" fill="#93a4c3" font-family="Inter, Arial, sans-serif" font-size="12">11</text>
<line x1="70" x2="935" y1="249.00" y2="249.00" stroke="#27314e" stroke-width="1"/>
<text x="58" y="253.00" text-anchor="end" fill="#93a4c3" font-family="Inter, Arial, sans-serif" font-size="12">17</text>
<line x1="70" x2="935" y1="186.00" y2="186.00" stroke="#27314e" stroke-width="1"/>
<text x="58" y="190.00" text-anchor="end" fill="#93a4c3" font-family="Inter, Arial, sans-serif" font-size="12">23</text>
<line x1="70" x2="935" y1="123.00" y2="123.00" stroke="#27314e" stroke-width="1"/>
<text x="58" y="127.00" text-anchor="end" fill="#93a4c3" font-family="Inter, Arial, sans-serif" font-size="12">29</text>
<line x1="70" x2="935" y1="60.00" y2="60.00" stroke="#27314e" stroke-width="1"/>
<text x="58" y="64.00" text-anchor="end" fill="#93a4c3" font-family="Inter, Arial, sans-serif" font-size="12">35</text>
<text x="70.00" y="412" text-anchor="middle" fill="#93a4c3" font-family="Inter, Arial, sans-serif" font-size="12">2025-07-31</text>
<text x="502.50" y="412" text-anchor="middle" fill="#93a4c3" font-family="Inter, Arial, sans-serif" font-size="12">2025-09-19</text>
<text x="935.00" y="412" text-anchor="middle" fill="#93a4c3" font-family="Inter, Arial, sans-serif" font-size="12">2025-11-10</text>
<path d="M 70.00 251.28 L 82.36 131.57 L 94.71 254.55 L 107.07 220.98 L 119.43 279.89 L 131.79 276.19 L 144.14 268.80 L 156.50 229.96 L 168.86 338.37 L 181.21 334.46 L 193.57 319.79 L 205.93 309.02 L 218.29 310.61 L 230.64 235.87 L 243.00 183.93 L 255.36 141.81 L 267.71 261.84 L 280.07 231.86 L 292.43 249.49 L 304.79 267.22 L 317.14 315.67 L 329.50 268.59 L 341.86 221.19 L 354.21 245.90 L 366.57 294.46 L 378.93 276.30 L 391.29 318.00 L 403.64 337.63 L 416.00 332.67 L 428.36 339.53 L 440.71 320.85 L 453.07 317.57 L 465.43 315.88 L 477.79 307.02 L 490.14 259.83 L 502.50 308.07 L 514.86 278.20 L 527.21 295.93 L 539.57 277.35 L 551.93 217.08 L 564.29 249.27 L 576.64 251.60 L 589.00 268.06 L 601.36 321.27 L 613.71 337.95 L 626.07 305.01 L 638.43 319.58 L 650.79 285.06 L 663.14 295.09 L 675.50 264.79 L 687.86 80.69 L 700.21 152.37 L 712.57 203.46 L 724.93 60.00 L 737.29 180.66 L 749.64 375.00 L 762.00 338.05 L 774.36 304.06 L 786.71 230.70 L 799.07 279.99 L 811.43 304.27 L 823.79 323.49 L 836.14 278.41 L 848.50 263.63 L 860.86 236.50 L 873.21 176.22 L 885.57 97.05 L 897.93 163.35 L 910.29 164.72 L 922.64 173.37 L 935.00 262.89" fill="none" stroke="#69a7ff" stroke-width="4" stroke-linecap="round" stroke-linejoin="round"/>
<circle cx="935.00" cy="262.89" r="6" fill="#69a7ff"/>
</svg>