<svg xmlns="http://www.w3.org/2000/svg" width="960" height="430" viewBox="0 0 960 430" role="img" aria-label="Composite score history">
<rect width="100%" height="100%" fill="#0b1020" rx="20"/>
<text x="70" y="32" fill="#f5f7fb" font-family="Inter, Arial, sans-serif" font-size="24" font-weight="700">Composite score history</text>
<text x="70" y="52" fill="#93a4c3" font-family="Inter, Arial, sans-serif" font-size="13">Trailing 75 sessions through 2025-11-10</text>
<line x1="70" x2="935" y1="375.00" y2="375.00" stroke="#27314e" stroke-width="1"/>
<text x="58" y="379.00" text-anchor="end" fill="#93a4c3" font-family="Inter, Arial, sans-serif" font-size="12">5</text>
<line x1="70" x2="935" y1="312.00" y2="312.00" stroke="#27314e" stroke-width="1"/>
<text x="58" y="316.00" text-anchor="end" fill="#93a4c3" font-family="Inter, Arial, sans-serif" font-size="12">11</text>
<line x1="70" x2="935" y1="249.00" y2="249.00" stroke="#27314e" stroke-width="1"/>
<text x="58" y="253.00" text-anchor="end" fill="#93a4c3" font-family="Inter, Arial, sans-serif" font-size="12">17</text>
<line x1="70" x2="935" y1="186.00" y2="186.00" stroke="#27314e" stroke-width="1"/>
<text x="58" y="190.00" text-anchor="end" fill="#93a4c3" font-family="Inter, Arial, sans-serif" font-size="12">23</text>
<line x1="70" x2="935" y1="123.00" y2="123.00" stroke="#27314e" stroke-width="1"/>
<text x="58" y="127.00" text-anchor="end" fill="#93a4c3" font-family="Inter, Arial, sans-serif" font-size="12">29</text>
<line x1="70" x2="935" y1="60.00" y2="60.00" stroke="#27314e" stroke-width="1"/>
<text x="58" y="64.00" text-anchor="end" fill="#93a4c3" font-family="Inter, Arial, sans-serif" font-size="12">35</text>
<text x="70.00" y="412" text-anchor="middle" fill="#93a4c3" font-family="Inter, Arial, sans-serif" font-size="12">2025-07-25</text>
<text x="502.50" y="412" text-anchor="middle" fill="#93a4c3" font-family="Inter, Arial, sans-serif" font-size="12">2025-09-17</text>
<text x="935.00" y="412" text-anchor="middle" fill="#93a4c3" font-family="Inter, Arial, sans-serif" font-size="12">2025-11-10</text>
<path d="M 70.00 266.16 L 81.69 264.90 L 93.38 229.32 L 105.07 213.38 L 116.76 180.24 L 128.45 73.72 L 140.14 196.28 L 151.82 187.73 L 163.51 250.44 L 175.20 276.19 L 186.89 268.80 L 198.58 229.96 L 210.27 338.37 L 221.96 334.46 L 233.65 319.79 L 245.34 309.02 L 257.03 310.61 L 268.72 235.87 L 280.41 183.93 L 292.09 141.81 L 303.78 261.84 L 315.47 231.86 L 327.16 249.49 L 338.85 267.22 L 350.54 315.67 L 362.23 268.59 L 373.92 221.19 L 385.61 245.90 L 397.30 294.46 L 408.99 276.30 L 420.68 318.00 L 432.36 337.63 L 444.05 332.67 L 455.74 339.53 L 467.43 320.85 L 479.12 317.57 L 490.81 315.88 L 502.50 307.02 L 514.19 259.83 L 525.88 308.07 L 537.57 278.20 L 549.26 295.93 L 560.95 277.35 L 572.64 217.08 L 584.32 249.27 L 596.01 251.60 L 607.70 268.06 L 619.39 321.27 L 631.08 337.95 L 642.77 305.01 L 654.46 319.58 L 666.15 285.06 L 677.84 295.09 L 689.53 264.79 L 701.22 80.69 L 712.91 152.37 L 724.59 203.46 L 736.28 60.00 L 747.97 180.66 L 759.66 375.00 L 771.35 338.05 L 783.04 304.06 L 794.73 230.70 L 806.42 279.99 L 818.11 304.27 L 829.80 323.49 L 841.49 278.41 L 853.18 263.63 L 864.86 236.50 L 876.55 176.22 L 888.24 97.05 L 899.93 163.35 L 911.62 164.72 L 923.31 173.37 L 935.00 262.89" fill="none" stroke="#69a7ff" stroke-width="4" stroke-linecap="round" stroke-linejoin="round"/>
<circle cx="935.00" cy="262.89" r="6" fill="#69a7ff"/>
</svg>