<svg xmlns="http://www.w3.org/2000/svg" width="960" height="430" viewBox="0 0 960 430" role="img" aria-label="Composite score history">
<rect width="100%" height="100%" fill="#0b1020" rx="20"/>
<text x="70" y="32" fill="#f5f7fb" font-family="Inter, Arial, sans-serif" font-size="24" font-weight="700">Composite score history</text>
<text x="70" y="52" fill="#93a4c3" font-family="Inter, Arial, sans-serif" font-size="13">Trailing 62 sessions through 2026-01-21</text>
<line x1="70" x2="935" y1="375.00" y2="375.00" stroke="#27314e" stroke-width="1"/>
<text x="58" y="379.00" text-anchor="end" fill="#93a4c3" font-family="Inter, Arial, sans-serif" font-size="12">0</text>
<line x1="70" x2="935" y1="312.00" y2="312.00" stroke="#27314e" stroke-width="1"/>
<text x="58" y="316.00" text-anchor="end" fill="#93a4c3" font-family="Inter, Arial, sans-serif" font-size="12">8</text>
<line x1="70" x2="935" y1="249.00" y2="249.00" stroke="#27314e" stroke-width="1"/>
<text x="58" y="253.00" text-anchor="end" fill="#93a4c3" font-family="Inter, Arial, sans-serif" font-size="12">17</text>
<line x1="70" x2="935" y1="186.00" y2="186.00" stroke="#27314e" stroke-width="1"/>
<text x="58" y="190.00" text-anchor="end" fill="#93a4c3" font-family="Inter, Arial, sans-serif" font-size="12">25</text>
<line x1="70" x2="935" y1="123.00" y2="123.00" stroke="#27314e" stroke-width="1"/>
<text x="58" y="127.00" text-anchor="end" fill="#93a4c3" font-family="Inter, Arial, sans-serif" font-size="12">33</text>
<line x1="70" x2="935" y1="60.00" y2="60.00" stroke="#27314e" stroke-width="1"/>
<text x="58" y="64.00" text-anchor="end" fill="#93a4c3" font-family="Inter, Arial, sans-serif" font-size="12">41</text>
<text x="70.00" y="412" text-anchor="middle" fill="#93a4c3" font-family="Inter, Arial, sans-serif" font-size="12">2025-10-21</text>
<text x="509.59" y="412" text-anchor="middle" fill="#93a4c3" font-family="Inter, Arial, sans-serif" font-size="12">2025-12-05</text>
<text x="935.00" y="412" text-anchor="middle" fill="#93a4c3" font-family="Inter, Arial, sans-serif" font-size="12">2026-01-21</text>
<path d="M 70.00 283.73 L 84.18 244.07 L 98.36 217.77 L 112.54 248.19 L 126.72 290.05 L 140.90 299.36 L 155.08 266.80 L 169.26 256.12 L 183.44 236.53 L 197.62 192.98 L 211.80 135.80 L 225.98 183.68 L 240.16 184.67 L 254.34 190.93 L 268.52 255.59 L 282.70 294.63 L 296.89 209.53 L 311.07 237.06 L 325.25 167.36 L 339.43 60.00 L 353.61 70.45 L 367.79 66.18 L 381.97 146.17 L 396.15 277.24 L 410.33 326.96 L 424.51 337.79 L 438.69 375.00 L 452.87 333.06 L 467.05 308.20 L 481.23 290.89 L 495.41 264.74 L 509.59 247.28 L 523.77 278.92 L 537.95 241.33 L 552.13 272.67 L 566.31 307.67 L 580.49 264.05 L 594.67 273.13 L 608.85 273.58 L 623.03 183.07 L 637.21 209.46 L 651.39 304.77 L 665.57 329.32 L 679.75 342.21 L 693.93 374.85 L 708.11 360.82 L 722.30 332.91 L 736.48 310.11 L 750.66 254.37 L 764.84 241.41 L 779.02 250.25 L 793.20 274.96 L 807.38 271.37 L 821.56 287.00 L 835.74 289.90 L 849.92 256.43 L 864.10 234.08 L 878.28 237.06 L 892.46 246.21 L 906.64 211.90 L 920.82 84.17 L 935.00 172.78" fill="none" stroke="#69a7ff" stroke-width="4" stroke-linecap="round" stroke-linejoin="round"/>
<circle cx="935.00" cy="172.78" r="6" fill="#69a7ff"/>
</svg>