<svg xmlns="http://www.w3.org/2000/svg" width="960" height="430" viewBox="0 0 960 430" role="img" aria-label="Composite score history">
<rect width="100%" height="100%" fill="#0b1020" rx="20"/>
<text x="70" y="32" fill="#f5f7fb" font-family="Inter, Arial, sans-serif" font-size="24" font-weight="700">Composite score history</text>
<text x="70" y="52" fill="#93a4c3" font-family="Inter, Arial, sans-serif" font-size="13">Trailing 85 sessions through 2026-01-21</text>
<line x1="70" x2="935" y1="375.00" y2="375.00" stroke="#27314e" stroke-width="1"/>
<text x="58" y="379.00" text-anchor="end" fill="#93a4c3" font-family="Inter, Arial, sans-serif" font-size="12">0</text>
<line x1="70" x2="935" y1="312.00" y2="312.00" stroke="#27314e" stroke-width="1"/>
<text x="58" y="316.00" text-anchor="end" fill="#93a4c3" font-family="Inter, Arial, sans-serif" font-size="12">8</text>
<line x1="70" x2="935" y1="249.00" y2="249.00" stroke="#27314e" stroke-width="1"/>
<text x="58" y="253.00" text-anchor="end" fill="#93a4c3" font-family="Inter, Arial, sans-serif" font-size="12">17</text>
<line x1="70" x2="935" y1="186.00" y2="186.00" stroke="#27314e" stroke-width="1"/>
<text x="58" y="190.00" text-anchor="end" fill="#93a4c3" font-family="Inter, Arial, sans-serif" font-size="12">25</text>
<line x1="70" x2="935" y1="123.00" y2="123.00" stroke="#27314e" stroke-width="1"/>
<text x="58" y="127.00" text-anchor="end" fill="#93a4c3" font-family="Inter, Arial, sans-serif" font-size="12">33</text>
<line x1="70" x2="935" y1="60.00" y2="60.00" stroke="#27314e" stroke-width="1"/>
<text x="58" y="64.00" text-anchor="end" fill="#93a4c3" font-family="Inter, Arial, sans-serif" font-size="12">41</text>
<text x="70.00" y="412" text-anchor="middle" fill="#93a4c3" font-family="Inter, Arial, sans-serif" font-size="12">2025-09-17</text>
<text x="502.50" y="412" text-anchor="middle" fill="#93a4c3" font-family="Inter, Arial, sans-serif" font-size="12">2025-11-18</text>
<text x="935.00" y="412" text-anchor="middle" fill="#93a4c3" font-family="Inter, Arial, sans-serif" font-size="12">2026-01-21</text>
<path d="M 70.00 277.78 L 80.30 264.28 L 90.60 280.07 L 100.89 269.01 L 111.19 279.84 L 121.49 266.03 L 131.79 222.49 L 142.08 245.75 L 152.38 247.43 L 162.68 259.32 L 172.98 297.76 L 183.27 309.80 L 193.57 286.01 L 203.87 296.54 L 214.17 271.60 L 224.46 278.85 L 234.76 256.96 L 245.06 123.98 L 255.36 175.75 L 265.65 212.66 L 275.95 109.03 L 286.25 196.19 L 296.55 336.57 L 306.85 309.88 L 317.14 285.33 L 327.44 232.33 L 337.74 267.94 L 348.04 285.48 L 358.33 299.36 L 368.63 266.80 L 378.93 256.12 L 389.23 236.53 L 399.52 192.98 L 409.82 135.80 L 420.12 183.68 L 430.42 184.67 L 440.71 190.93 L 451.01 255.59 L 461.31 294.63 L 471.61 209.53 L 481.90 237.06 L 492.20 167.36 L 502.50 60.00 L 512.80 70.45 L 523.10 66.18 L 533.39 146.17 L 543.69 277.24 L 553.99 326.96 L 564.29 337.79 L 574.58 375.00 L 584.88 333.06 L 595.18 308.20 L 605.48 290.89 L 615.77 264.74 L 626.07 247.28 L 636.37 278.92 L 646.67 241.33 L 656.96 272.67 L 667.26 307.67 L 677.56 264.05 L 687.86 273.13 L 698.15 273.58 L 708.45 183.07 L 718.75 209.46 L 729.05 304.77 L 739.35 329.32 L 749.64 342.21 L 759.94 374.85 L 770.24 360.82 L 780.54 332.91 L 790.83 310.11 L 801.13 254.37 L 811.43 241.41 L 821.73 250.25 L 832.02 274.96 L 842.32 271.37 L 852.62 287.00 L 862.92 289.90 L 873.21 256.43 L 883.51 234.08 L 893.81 237.06 L 904.11 246.21 L 914.40 211.90 L 924.70 84.17 L 935.00 172.78" fill="none" stroke="#69a7ff" stroke-width="4" stroke-linecap="round" stroke-linejoin="round"/>
<circle cx="935.00" cy="172.78" r="6" fill="#69a7ff"/>
</svg>