<svg xmlns="http://www.w3.org/2000/svg" width="960" height="430" viewBox="0 0 960 430" role="img" aria-label="Composite score history">
<rect width="100%" height="100%" fill="#0b1020" rx="20"/>
<text x="70" y="32" fill="#f5f7fb" font-family="Inter, Arial, sans-serif" font-size="24" font-weight="700">Composite score history</text>
<text x="70" y="52" fill="#93a4c3" font-family="Inter, Arial, sans-serif" font-size="13">Trailing 87 sessions through 2026-01-21</text>
<line x1="70" x2="935" y1="375.00" y2="375.00" stroke="#27314e" stroke-width="1"/>
<text x="58" y="379.00" text-anchor="end" fill="#93a4c3" font-family="Inter, Arial, sans-serif" font-size="12">0</text>
<line x1="70" x2="935" y1="312.00" y2="312.00" stroke="#27314e" stroke-width="1"/>
<text x="58" y="316.00" text-anchor="end" fill="#93a4c3" font-family="Inter, Arial, sans-serif" font-size="12">8</text>
<line x1="70" x2="935" y1="249.00" y2="249.00" stroke="#27314e" stroke-width="1"/>
<text x="58" y="253.00" text-anchor="end" fill="#93a4c3" font-family="Inter, Arial, sans-serif" font-size="12">17</text>
<line x1="70" x2="935" y1="186.00" y2="186.00" stroke="#27314e" stroke-width="1"/>
<text x="58" y="190.00" text-anchor="end" fill="#93a4c3" font-family="Inter, Arial, sans-serif" font-size="12">25</text>
<line x1="70" x2="935" y1="123.00" y2="123.00" stroke="#27314e" stroke-width="1"/>
<text x="58" y="127.00" text-anchor="end" fill="#93a4c3" font-family="Inter, Arial, sans-serif" font-size="12">33</text>
<line x1="70" x2="935" y1="60.00" y2="60.00" stroke="#27314e" stroke-width="1"/>
<text x="58" y="64.00" text-anchor="end" fill="#93a4c3" font-family="Inter, Arial, sans-serif" font-size="12">41</text>
<text x="70.00" y="412" text-anchor="middle" fill="#93a4c3" font-family="Inter, Arial, sans-serif" font-size="12">2025-09-15</text>
<text x="502.50" y="412" text-anchor="middle" fill="#93a4c3" font-family="Inter, Arial, sans-serif" font-size="12">2025-11-17</text>
<text x="935.00" y="412" text-anchor="middle" fill="#93a4c3" font-family="Inter, Arial, sans-serif" font-size="12">2026-01-21</text>
<path d="M 70.00 279.23 L 80.06 262.22 L 90.12 261.38 L 100.17 258.41 L 110.23 274.19 L 120.29 266.64 L 130.35 279.46 L 140.41 266.03 L 150.47 222.49 L 160.52 245.75 L 170.58 247.43 L 180.64 259.32 L 190.70 297.76 L 200.76 309.80 L 210.81 286.01 L 220.87 296.54 L 230.93 271.60 L 240.99 278.85 L 251.05 256.96 L 261.10 123.98 L 271.16 175.75 L 281.22 212.66 L 291.28 109.03 L 301.34 196.19 L 311.40 336.57 L 321.45 309.88 L 331.51 285.33 L 341.57 232.33 L 351.63 267.94 L 361.69 285.48 L 371.74 299.36 L 381.80 266.80 L 391.86 256.12 L 401.92 236.53 L 411.98 192.98 L 422.03 135.80 L 432.09 183.68 L 442.15 184.67 L 452.21 190.93 L 462.27 255.59 L 472.33 294.63 L 482.38 209.53 L 492.44 237.06 L 502.50 167.36 L 512.56 60.00 L 522.62 70.45 L 532.67 66.18 L 542.73 146.17 L 552.79 277.24 L 562.85 326.96 L 572.91 337.79 L 582.97 375.00 L 593.02 333.06 L 603.08 308.20 L 613.14 290.89 L 623.20 264.74 L 633.26 247.28 L 643.31 278.92 L 653.37 241.33 L 663.43 272.67 L 673.49 307.67 L 683.55 264.05 L 693.60 273.13 L 703.66 273.58 L 713.72 183.07 L 723.78 209.46 L 733.84 304.77 L 743.90 329.32 L 753.95 342.21 L 764.01 374.85 L 774.07 360.82 L 784.13 332.91 L 794.19 310.11 L 804.24 254.37 L 814.30 241.41 L 824.36 250.25 L 834.42 274.96 L 844.48 271.37 L 854.53 287.00 L 864.59 289.90 L 874.65 256.43 L 884.71 234.08 L 894.77 237.06 L 904.83 246.21 L 914.88 211.90 L 924.94 84.17 L 935.00 172.78" fill="none" stroke="#69a7ff" stroke-width="4" stroke-linecap="round" stroke-linejoin="round"/>
<circle cx="935.00" cy="172.78" r="6" fill="#69a7ff"/>
</svg>