<svg xmlns="http://www.w3.org/2000/svg" width="960" height="430" viewBox="0 0 960 430" role="img" aria-label="Composite score history">
<rect width="100%" height="100%" fill="#0b1020" rx="20"/>
<text x="70" y="32" fill="#f5f7fb" font-family="Inter, Arial, sans-serif" font-size="24" font-weight="700">Composite score history</text>
<text x="70" y="52" fill="#93a4c3" font-family="Inter, Arial, sans-serif" font-size="13">Trailing 72 sessions through 2026-01-21</text>
<line x1="70" x2="935" y1="375.00" y2="375.00" stroke="#27314e" stroke-width="1"/>
<text x="58" y="379.00" text-anchor="end" fill="#93a4c3" font-family="Inter, Arial, sans-serif" font-size="12">0</text>
<line x1="70" x2="935" y1="312.00" y2="312.00" stroke="#27314e" stroke-width="1"/>
<text x="58" y="316.00" text-anchor="end" fill="#93a4c3" font-family="Inter, Arial, sans-serif" font-size="12">8</text>
<line x1="70" x2="935" y1="249.00" y2="249.00" stroke="#27314e" stroke-width="1"/>
<text x="58" y="253.00" text-anchor="end" fill="#93a4c3" font-family="Inter, Arial, sans-serif" font-size="12">17</text>
<line x1="70" x2="935" y1="186.00" y2="186.00" stroke="#27314e" stroke-width="1"/>
<text x="58" y="190.00" text-anchor="end" fill="#93a4c3" font-family="Inter, Arial, sans-serif" font-size="12">25</text>
<line x1="70" x2="935" y1="123.00" y2="123.00" stroke="#27314e" stroke-width="1"/>
<text x="58" y="127.00" text-anchor="end" fill="#93a4c3" font-family="Inter, Arial, sans-serif" font-size="12">33</text>
<line x1="70" x2="935" y1="60.00" y2="60.00" stroke="#27314e" stroke-width="1"/>
<text x="58" y="64.00" text-anchor="end" fill="#93a4c3" font-family="Inter, Arial, sans-serif" font-size="12">41</text>
<text x="70.00" y="412" text-anchor="middle" fill="#93a4c3" font-family="Inter, Arial, sans-serif" font-size="12">2025-10-06</text>
<text x="508.59" y="412" text-anchor="middle" fill="#93a4c3" font-family="Inter, Arial, sans-serif" font-size="12">2025-11-28</text>
<text x="935.00" y="412" text-anchor="middle" fill="#93a4c3" font-family="Inter, Arial, sans-serif" font-size="12">2026-01-21</text>
<path d="M 70.00 275.72 L 82.18 246.44 L 94.37 275.95 L 106.55 267.03 L 118.73 108.42 L 130.92 175.75 L 143.10 212.66 L 155.28 109.03 L 167.46 196.19 L 179.65 336.57 L 191.83 309.88 L 204.01 285.33 L 216.20 232.33 L 228.38 267.94 L 240.56 285.48 L 252.75 299.36 L 264.93 266.80 L 277.11 256.12 L 289.30 236.53 L 301.48 192.98 L 313.66 135.80 L 325.85 183.68 L 338.03 184.67 L 350.21 190.93 L 362.39 255.59 L 374.58 294.63 L 386.76 209.53 L 398.94 237.06 L 411.13 167.36 L 423.31 60.00 L 435.49 70.45 L 447.68 66.18 L 459.86 146.17 L 472.04 277.24 L 484.23 326.96 L 496.41 337.79 L 508.59 375.00 L 520.77 333.06 L 532.96 308.20 L 545.14 290.89 L 557.32 264.74 L 569.51 247.28 L 581.69 278.92 L 593.87 241.33 L 606.06 272.67 L 618.24 307.67 L 630.42 264.05 L 642.61 273.13 L 654.79 273.58 L 666.97 183.07 L 679.15 209.46 L 691.34 304.77 L 703.52 329.32 L 715.70 342.21 L 727.89 374.85 L 740.07 360.82 L 752.25 332.91 L 764.44 310.11 L 776.62 254.37 L 788.80 241.41 L 800.99 250.25 L 813.17 274.96 L 825.35 271.37 L 837.54 287.00 L 849.72 289.90 L 861.90 256.43 L 874.08 234.08 L 886.27 237.06 L 898.45 246.21 L 910.63 211.90 L 922.82 84.17 L 935.00 172.78" fill="none" stroke="#69a7ff" stroke-width="4" stroke-linecap="round" stroke-linejoin="round"/>
<circle cx="935.00" cy="172.78" r="6" fill="#69a7ff"/>
</svg>