<svg xmlns="http://www.w3.org/2000/svg" width="960" height="430" viewBox="0 0 960 430" role="img" aria-label="Composite score history">
<rect width="100%" height="100%" fill="#0b1020" rx="20"/>
<text x="70" y="32" fill="#f5f7fb" font-family="Inter, Arial, sans-serif" font-size="24" font-weight="700">Composite score history</text>
<text x="70" y="52" fill="#93a4c3" font-family="Inter, Arial, sans-serif" font-size="13">Trailing 65 sessions through 2026-01-21</text>
<line x1="70" x2="935" y1="375.00" y2="375.00" stroke="#27314e" stroke-width="1"/>
<text x="58" y="379.00" text-anchor="end" fill="#93a4c3" font-family="Inter, Arial, sans-serif" font-size="12">0</text>
<line x1="70" x2="935" y1="312.00" y2="312.00" stroke="#27314e" stroke-width="1"/>
<text x="58" y="316.00" text-anchor="end" fill="#93a4c3" font-family="Inter, Arial, sans-serif" font-size="12">8</text>
<line x1="70" x2="935" y1="249.00" y2="249.00" stroke="#27314e" stroke-width="1"/>
<text x="58" y="253.00" text-anchor="end" fill="#93a4c3" font-family="Inter, Arial, sans-serif" font-size="12">17</text>
<line x1="70" x2="935" y1="186.00" y2="186.00" stroke="#27314e" stroke-width="1"/>
<text x="58" y="190.00" text-anchor="end" fill="#93a4c3" font-family="Inter, Arial, sans-serif" font-size="12">25</text>
<line x1="70" x2="935" y1="123.00" y2="123.00" stroke="#27314e" stroke-width="1"/>
<text x="58" y="127.00" text-anchor="end" fill="#93a4c3" font-family="Inter, Arial, sans-serif" font-size="12">33</text>
<line x1="70" x2="935" y1="60.00" y2="60.00" stroke="#27314e" stroke-width="1"/>
<text x="58" y="64.00" text-anchor="end" fill="#93a4c3" font-family="Inter, Arial, sans-serif" font-size="12">41</text>
<text x="70.00" y="412" text-anchor="middle" fill="#93a4c3" font-family="Inter, Arial, sans-serif" font-size="12">2025-10-16</text>
<text x="502.50" y="412" text-anchor="middle" fill="#93a4c3" font-family="Inter, Arial, sans-serif" font-size="12">2025-12-03</text>
<text x="935.00" y="412" text-anchor="middle" fill="#93a4c3" font-family="Inter, Arial, sans-serif" font-size="12">2026-01-21</text>
<path d="M 70.00 243.77 L 83.52 262.30 L 97.03 298.67 L 110.55 298.29 L 124.06 273.81 L 137.58 232.33 L 151.09 267.94 L 164.61 285.48 L 178.12 299.36 L 191.64 266.80 L 205.16 256.12 L 218.67 236.53 L 232.19 192.98 L 245.70 135.80 L 259.22 183.68 L 272.73 184.67 L 286.25 190.93 L 299.77 255.59 L 313.28 294.63 L 326.80 209.53 L 340.31 237.06 L 353.83 167.36 L 367.34 60.00 L 380.86 70.45 L 394.38 66.18 L 407.89 146.17 L 421.41 277.24 L 434.92 326.96 L 448.44 337.79 L 461.95 375.00 L 475.47 333.06 L 488.98 308.20 L 502.50 290.89 L 516.02 264.74 L 529.53 247.28 L 543.05 278.92 L 556.56 241.33 L 570.08 272.67 L 583.59 307.67 L 597.11 264.05 L 610.62 273.13 L 624.14 273.58 L 637.66 183.07 L 651.17 209.46 L 664.69 304.77 L 678.20 329.32 L 691.72 342.21 L 705.23 374.85 L 718.75 360.82 L 732.27 332.91 L 745.78 310.11 L 759.30 254.37 L 772.81 241.41 L 786.33 250.25 L 799.84 274.96 L 813.36 271.37 L 826.88 287.00 L 840.39 289.90 L 853.91 256.43 L 867.42 234.08 L 880.94 237.06 L 894.45 246.21 L 907.97 211.90 L 921.48 84.17 L 935.00 172.78" fill="none" stroke="#69a7ff" stroke-width="4" stroke-linecap="round" stroke-linejoin="round"/>
<circle cx="935.00" cy="172.78" r="6" fill="#69a7ff"/>
</svg>