<svg xmlns="http://www.w3.org/2000/svg" width="960" height="430" viewBox="0 0 960 430" role="img" aria-label="Composite score history">
<rect width="100%" height="100%" fill="#0b1020" rx="20"/>
<text x="70" y="32" fill="#f5f7fb" font-family="Inter, Arial, sans-serif" font-size="24" font-weight="700">Composite score history</text>
<text x="70" y="52" fill="#93a4c3" font-family="Inter, Arial, sans-serif" font-size="13">Trailing 60 sessions through 2026-01-21</text>
<line x1="70" x2="935" y1="375.00" y2="375.00" stroke="#27314e" stroke-width="1"/>
<text x="58" y="379.00" text-anchor="end" fill="#93a4c3" font-family="Inter, Arial, sans-serif" font-size="12">0</text>
<line x1="70" x2="935" y1="312.00" y2="312.00" stroke="#27314e" stroke-width="1"/>
<text x="58" y="316.00" text-anchor="end" fill="#93a4c3" font-family="Inter, Arial, sans-serif" font-size="12">8</text>
<line x1="70" x2="935" y1="249.00" y2="249.00" stroke="#27314e" stroke-width="1"/>
<text x="58" y="253.00" text-anchor="end" fill="#93a4c3" font-family="Inter, Arial, sans-serif" font-size="12">17</text>
<line x1="70" x2="935" y1="186.00" y2="186.00" stroke="#27314e" stroke-width="1"/>
<text x="58" y="190.00" text-anchor="end" fill="#93a4c3" font-family="Inter, Arial, sans-serif" font-size="12">25</text>
<line x1="70" x2="935" y1="123.00" y2="123.00" stroke="#27314e" stroke-width="1"/>
<text x="58" y="127.00" text-anchor="end" fill="#93a4c3" font-family="Inter, Arial, sans-serif" font-size="12">33</text>
<line x1="70" x2="935" y1="60.00" y2="60.00" stroke="#27314e" stroke-width="1"/>
<text x="58" y="64.00" text-anchor="end" fill="#93a4c3" font-family="Inter, Arial, sans-serif" font-size="12">41</text>
<text x="70.00" y="412" text-anchor="middle" fill="#93a4c3" font-family="Inter, Arial, sans-serif" font-size="12">2025-10-23</text>
<text x="509.83" y="412" text-anchor="middle" fill="#93a4c3" font-family="Inter, Arial, sans-serif" font-size="12">2025-12-08</text>
<text x="935.00" y="412" text-anchor="middle" fill="#93a4c3" font-family="Inter, Arial, sans-serif" font-size="12">2026-01-21</text>
<path d="M 70.00 271.83 L 84.66 294.55 L 99.32 324.98 L 113.98 327.42 L 128.64 283.65 L 143.31 256.12 L 157.97 236.53 L 172.63 192.98 L 187.29 135.80 L 201.95 183.68 L 216.61 184.67 L 231.27 190.93 L 245.93 255.59 L 260.59 294.63 L 275.25 209.53 L 289.92 237.06 L 304.58 167.36 L 319.24 60.00 L 333.90 70.45 L 348.56 66.18 L 363.22 146.17 L 377.88 277.24 L 392.54 326.96 L 407.20 337.79 L 421.86 375.00 L 436.53 333.06 L 451.19 308.20 L 465.85 290.89 L 480.51 264.74 L 495.17 247.28 L 509.83 278.92 L 524.49 241.33 L 539.15 272.67 L 553.81 307.67 L 568.47 264.05 L 583.14 273.13 L 597.80 273.58 L 612.46 183.07 L 627.12 209.46 L 641.78 304.77 L 656.44 329.32 L 671.10 342.21 L 685.76 374.85 L 700.42 360.82 L 715.08 332.91 L 729.75 310.11 L 744.41 254.37 L 759.07 241.41 L 773.73 250.25 L 788.39 274.96 L 803.05 271.37 L 817.71 287.00 L 832.37 289.90 L 847.03 256.43 L 861.69 234.08 L 876.36 237.06 L 891.02 246.21 L 905.68 211.90 L 920.34 84.17 L 935.00 172.78" fill="none" stroke="#69a7ff" stroke-width="4" stroke-linecap="round" stroke-linejoin="round"/>
<circle cx="935.00" cy="172.78" r="6" fill="#69a7ff"/>
</svg>