<svg xmlns="http://www.w3.org/2000/svg" width="960" height="430" viewBox="0 0 960 430" role="img" aria-label="Composite score history">
<rect width="100%" height="100%" fill="#0b1020" rx="20"/>
<text x="70" y="32" fill="#f5f7fb" font-family="Inter, Arial, sans-serif" font-size="24" font-weight="700">Composite score history</text>
<text x="70" y="52" fill="#93a4c3" font-family="Inter, Arial, sans-serif" font-size="13">Trailing 73 sessions through 2026-01-21</text>
<line x1="70" x2="935" y1="375.00" y2="375.00" stroke="#27314e" stroke-width="1"/>
<text x="58" y="379.00" text-anchor="end" fill="#93a4c3" font-family="Inter, Arial, sans-serif" font-size="12">0</text>
<line x1="70" x2="935" y1="312.00" y2="312.00" stroke="#27314e" stroke-width="1"/>
<text x="58" y="316.00" text-anchor="end" fill="#93a4c3" font-family="Inter, Arial, sans-serif" font-size="12">8</text>
<line x1="70" x2="935" y1="249.00" y2="249.00" stroke="#27314e" stroke-width="1"/>
<text x="58" y="253.00" text-anchor="end" fill="#93a4c3" font-family="Inter, Arial, sans-serif" font-size="12">17</text>
<line x1="70" x2="935" y1="186.00" y2="186.00" stroke="#27314e" stroke-width="1"/>
<text x="58" y="190.00" text-anchor="end" fill="#93a4c3" font-family="Inter, Arial, sans-serif" font-size="12">25</text>
<line x1="70" x2="935" y1="123.00" y2="123.00" stroke="#27314e" stroke-width="1"/>
<text x="58" y="127.00" text-anchor="end" fill="#93a4c3" font-family="Inter, Arial, sans-serif" font-size="12">33</text>
<line x1="70" x2="935" y1="60.00" y2="60.00" stroke="#27314e" stroke-width="1"/>
<text x="58" y="64.00" text-anchor="end" fill="#93a4c3" font-family="Inter, Arial, sans-serif" font-size="12">41</text>
<text x="70.00" y="412" text-anchor="middle" fill="#93a4c3" font-family="Inter, Arial, sans-serif" font-size="12">2025-10-03</text>
<text x="502.50" y="412" text-anchor="middle" fill="#93a4c3" font-family="Inter, Arial, sans-serif" font-size="12">2025-11-26</text>
<text x="935.00" y="412" text-anchor="middle" fill="#93a4c3" font-family="Inter, Arial, sans-serif" font-size="12">2026-01-21</text>
<path d="M 70.00 275.03 L 82.01 276.56 L 94.03 262.30 L 106.04 282.89 L 118.06 269.77 L 130.07 123.98 L 142.08 175.75 L 154.10 212.66 L 166.11 109.03 L 178.12 196.19 L 190.14 336.57 L 202.15 309.88 L 214.17 285.33 L 226.18 232.33 L 238.19 267.94 L 250.21 285.48 L 262.22 299.36 L 274.24 266.80 L 286.25 256.12 L 298.26 236.53 L 310.28 192.98 L 322.29 135.80 L 334.31 183.68 L 346.32 184.67 L 358.33 190.93 L 370.35 255.59 L 382.36 294.63 L 394.38 209.53 L 406.39 237.06 L 418.40 167.36 L 430.42 60.00 L 442.43 70.45 L 454.44 66.18 L 466.46 146.17 L 478.47 277.24 L 490.49 326.96 L 502.50 337.79 L 514.51 375.00 L 526.53 333.06 L 538.54 308.20 L 550.56 290.89 L 562.57 264.74 L 574.58 247.28 L 586.60 278.92 L 598.61 241.33 L 610.62 272.67 L 622.64 307.67 L 634.65 264.05 L 646.67 273.13 L 658.68 273.58 L 670.69 183.07 L 682.71 209.46 L 694.72 304.77 L 706.74 329.32 L 718.75 342.21 L 730.76 374.85 L 742.78 360.82 L 754.79 332.91 L 766.81 310.11 L 778.82 254.37 L 790.83 241.41 L 802.85 250.25 L 814.86 274.96 L 826.88 271.37 L 838.89 287.00 L 850.90 289.90 L 862.92 256.43 L 874.93 234.08 L 886.94 237.06 L 898.96 246.21 L 910.97 211.90 L 922.99 84.17 L 935.00 172.78" fill="none" stroke="#69a7ff" stroke-width="4" stroke-linecap="round" stroke-linejoin="round"/>
<circle cx="935.00" cy="172.78" r="6" fill="#69a7ff"/>
</svg>