<svg xmlns="http://www.w3.org/2000/svg" width="960" height="430" viewBox="0 0 960 430" role="img" aria-label="Composite score history">
<rect width="100%" height="100%" fill="#0b1020" rx="20"/>
<text x="70" y="32" fill="#f5f7fb" font-family="Inter, Arial, sans-serif" font-size="24" font-weight="700">Composite score history</text>
<text x="70" y="52" fill="#93a4c3" font-family="Inter, Arial, sans-serif" font-size="13">Trailing 85 sessions through 2026-03-05</text>
<line x1="70" x2="935" y1="375.00" y2="375.00" stroke="#27314e" stroke-width="1"/>
<text x="58" y="379.00" text-anchor="end" fill="#93a4c3" font-family="Inter, Arial, sans-serif" font-size="12">0</text>
<line x1="70" x2="935" y1="312.00" y2="312.00" stroke="#27314e" stroke-width="1"/>
<text x="58" y="316.00" text-anchor="end" fill="#93a4c3" font-family="Inter, Arial, sans-serif" font-size="12">8</text>
<line x1="70" x2="935" y1="249.00" y2="249.00" stroke="#27314e" stroke-width="1"/>
<text x="58" y="253.00" text-anchor="end" fill="#93a4c3" font-family="Inter, Arial, sans-serif" font-size="12">17</text>
<line x1="70" x2="935" y1="186.00" y2="186.00" stroke="#27314e" stroke-width="1"/>
<text x="58" y="190.00" text-anchor="end" fill="#93a4c3" font-family="Inter, Arial, sans-serif" font-size="12">25</text>
<line x1="70" x2="935" y1="123.00" y2="123.00" stroke="#27314e" stroke-width="1"/>
<text x="58" y="127.00" text-anchor="end" fill="#93a4c3" font-family="Inter, Arial, sans-serif" font-size="12">33</text>
<line x1="70" x2="935" y1="60.00" y2="60.00" stroke="#27314e" stroke-width="1"/>
<text x="58" y="64.00" text-anchor="end" fill="#93a4c3" font-family="Inter, Arial, sans-serif" font-size="12">41</text>
<text x="70.00" y="412" text-anchor="middle" fill="#93a4c3" font-family="Inter, Arial, sans-serif" font-size="12">2025-10-30</text>
<text x="502.50" y="412" text-anchor="middle" fill="#93a4c3" font-family="Inter, Arial, sans-serif" font-size="12">2026-01-02</text>
<text x="935.00" y="412" text-anchor="middle" fill="#93a4c3" font-family="Inter, Arial, sans-serif" font-size="12">2026-03-05</text>
<path d="M 70.00 272.06 L 80.30 260.77 L 90.60 262.60 L 100.89 218.15 L 111.19 231.11 L 121.49 184.67 L 131.79 190.93 L 142.08 255.59 L 152.38 294.63 L 162.68 209.53 L 172.98 237.06 L 183.27 167.36 L 193.57 60.00 L 203.87 70.45 L 214.17 66.18 L 224.46 146.17 L 234.76 277.24 L 245.06 326.96 L 255.36 337.79 L 265.65 375.00 L 275.95 333.06 L 286.25 308.20 L 296.55 290.89 L 306.85 264.74 L 317.14 247.28 L 327.44 278.92 L 337.74 241.33 L 348.04 272.67 L 358.33 307.67 L 368.63 264.05 L 378.93 273.13 L 389.23 273.58 L 399.52 183.07 L 409.82 209.46 L 420.12 304.77 L 430.42 329.32 L 440.71 342.21 L 451.01 374.85 L 461.31 360.82 L 471.61 332.91 L 481.90 310.11 L 492.20 254.37 L 502.50 241.41 L 512.80 250.25 L 523.10 274.96 L 533.39 271.37 L 543.69 287.00 L 553.99 289.90 L 564.29 256.43 L 574.58 234.08 L 584.88 237.06 L 595.18 246.21 L 605.48 211.90 L 615.77 84.17 L 626.07 172.78 L 636.37 214.11 L 646.67 200.15 L 656.96 248.88 L 667.26 293.33 L 677.56 261.99 L 687.86 228.59 L 698.15 226.46 L 708.45 237.44 L 718.75 170.49 L 729.05 173.85 L 739.35 111.24 L 749.64 253.00 L 759.94 248.65 L 770.24 271.37 L 780.54 276.02 L 790.83 258.10 L 801.13 183.61 L 811.43 172.93 L 821.73 205.34 L 832.02 191.99 L 842.32 278.62 L 852.62 243.46 L 862.92 272.82 L 873.21 287.61 L 883.51 279.07 L 893.81 241.94 L 904.11 217.84 L 914.40 112.69 L 924.70 134.04 L 935.00 63.51" fill="none" stroke="#69a7ff" stroke-width="4" stroke-linecap="round" stroke-linejoin="round"/>
<circle cx="935.00" cy="63.51" r="6" fill="#69a7ff"/>
</svg>