<svg xmlns="http://www.w3.org/2000/svg" width="960" height="430" viewBox="0 0 960 430" role="img" aria-label="Composite score history">
<rect width="100%" height="100%" fill="#0b1020" rx="20"/>
<text x="70" y="32" fill="#f5f7fb" font-family="Inter, Arial, sans-serif" font-size="24" font-weight="700">Composite score history</text>
<text x="70" y="52" fill="#93a4c3" font-family="Inter, Arial, sans-serif" font-size="13">Trailing 90 sessions through 2026-03-05</text>
<line x1="70" x2="935" y1="375.00" y2="375.00" stroke="#27314e" stroke-width="1"/>
<text x="58" y="379.00" text-anchor="end" fill="#93a4c3" font-family="Inter, Arial, sans-serif" font-size="12">0</text>
<line x1="70" x2="935" y1="312.00" y2="312.00" stroke="#27314e" stroke-width="1"/>
<text x="58" y="316.00" text-anchor="end" fill="#93a4c3" font-family="Inter, Arial, sans-serif" font-size="12">8</text>
<line x1="70" x2="935" y1="249.00" y2="249.00" stroke="#27314e" stroke-width="1"/>
<text x="58" y="253.00" text-anchor="end" fill="#93a4c3" font-family="Inter, Arial, sans-serif" font-size="12">17</text>
<line x1="70" x2="935" y1="186.00" y2="186.00" stroke="#27314e" stroke-width="1"/>
<text x="58" y="190.00" text-anchor="end" fill="#93a4c3" font-family="Inter, Arial, sans-serif" font-size="12">25</text>
<line x1="70" x2="935" y1="123.00" y2="123.00" stroke="#27314e" stroke-width="1"/>
<text x="58" y="127.00" text-anchor="end" fill="#93a4c3" font-family="Inter, Arial, sans-serif" font-size="12">33</text>
<line x1="70" x2="935" y1="60.00" y2="60.00" stroke="#27314e" stroke-width="1"/>
<text x="58" y="64.00" text-anchor="end" fill="#93a4c3" font-family="Inter, Arial, sans-serif" font-size="12">41</text>
<text x="70.00" y="412" text-anchor="middle" fill="#93a4c3" font-family="Inter, Arial, sans-serif" font-size="12">2025-10-23</text>
<text x="507.36" y="412" text-anchor="middle" fill="#93a4c3" font-family="Inter, Arial, sans-serif" font-size="12">2025-12-30</text>
<text x="935.00" y="412" text-anchor="middle" fill="#93a4c3" font-family="Inter, Arial, sans-serif" font-size="12">2026-03-05</text>
<path d="M 70.00 232.33 L 79.72 267.94 L 89.44 285.48 L 99.16 299.36 L 108.88 266.80 L 118.60 256.12 L 128.31 236.53 L 138.03 192.98 L 147.75 135.80 L 157.47 183.68 L 167.19 184.67 L 176.91 190.93 L 186.63 255.59 L 196.35 294.63 L 206.07 209.53 L 215.79 237.06 L 225.51 167.36 L 235.22 60.00 L 244.94 70.45 L 254.66 66.18 L 264.38 146.17 L 274.10 277.24 L 283.82 326.96 L 293.54 337.79 L 303.26 375.00 L 312.98 333.06 L 322.70 308.20 L 332.42 290.89 L 342.13 264.74 L 351.85 247.28 L 361.57 278.92 L 371.29 241.33 L 381.01 272.67 L 390.73 307.67 L 400.45 264.05 L 410.17 273.13 L 419.89 273.58 L 429.61 183.07 L 439.33 209.46 L 449.04 304.77 L 458.76 329.32 L 468.48 342.21 L 478.20 374.85 L 487.92 360.82 L 497.64 332.91 L 507.36 310.11 L 517.08 254.37 L 526.80 241.41 L 536.52 250.25 L 546.24 274.96 L 555.96 271.37 L 565.67 287.00 L 575.39 289.90 L 585.11 256.43 L 594.83 234.08 L 604.55 237.06 L 614.27 246.21 L 623.99 211.90 L 633.71 84.17 L 643.43 172.78 L 653.15 214.11 L 662.87 200.15 L 672.58 248.88 L 682.30 293.33 L 692.02 261.99 L 701.74 228.59 L 711.46 226.46 L 721.18 237.44 L 730.90 170.49 L 740.62 173.85 L 750.34 111.24 L 760.06 253.00 L 769.78 248.65 L 779.49 271.37 L 789.21 276.02 L 798.93 258.10 L 808.65 183.61 L 818.37 172.93 L 828.09 205.34 L 837.81 191.99 L 847.53 278.62 L 857.25 243.46 L 866.97 272.82 L 876.69 287.61 L 886.40 279.07 L 896.12 241.94 L 905.84 217.84 L 915.56 112.69 L 925.28 134.04 L 935.00 63.51" fill="none" stroke="#69a7ff" stroke-width="4" stroke-linecap="round" stroke-linejoin="round"/>
<circle cx="935.00" cy="63.51" r="6" fill="#69a7ff"/>
</svg>