<svg xmlns="http://www.w3.org/2000/svg" width="960" height="430" viewBox="0 0 960 430" role="img" aria-label="Composite score history">
<rect width="100%" height="100%" fill="#0b1020" rx="20"/>
<text x="70" y="32" fill="#f5f7fb" font-family="Inter, Arial, sans-serif" font-size="24" font-weight="700">Composite score history</text>
<text x="70" y="52" fill="#93a4c3" font-family="Inter, Arial, sans-serif" font-size="13">Trailing 64 sessions through 2026-01-08</text>
<line x1="70" x2="935" y1="375.00" y2="375.00" stroke="#27314e" stroke-width="1"/>
<text x="58" y="379.00" text-anchor="end" fill="#93a4c3" font-family="Inter, Arial, sans-serif" font-size="12">0</text>
<line x1="70" x2="935" y1="312.00" y2="312.00" stroke="#27314e" stroke-width="1"/>
<text x="58" y="316.00" text-anchor="end" fill="#93a4c3" font-family="Inter, Arial, sans-serif" font-size="12">8</text>
<line x1="70" x2="935" y1="249.00" y2="249.00" stroke="#27314e" stroke-width="1"/>
<text x="58" y="253.00" text-anchor="end" fill="#93a4c3" font-family="Inter, Arial, sans-serif" font-size="12">17</text>
<line x1="70" x2="935" y1="186.00" y2="186.00" stroke="#27314e" stroke-width="1"/>
<text x="58" y="190.00" text-anchor="end" fill="#93a4c3" font-family="Inter, Arial, sans-serif" font-size="12">25</text>
<line x1="70" x2="935" y1="123.00" y2="123.00" stroke="#27314e" stroke-width="1"/>
<text x="58" y="127.00" text-anchor="end" fill="#93a4c3" font-family="Inter, Arial, sans-serif" font-size="12">33</text>
<line x1="70" x2="935" y1="60.00" y2="60.00" stroke="#27314e" stroke-width="1"/>
<text x="58" y="64.00" text-anchor="end" fill="#93a4c3" font-family="Inter, Arial, sans-serif" font-size="12">41</text>
<text x="70.00" y="412" text-anchor="middle" fill="#93a4c3" font-family="Inter, Arial, sans-serif" font-size="12">2025-10-06</text>
<text x="509.37" y="412" text-anchor="middle" fill="#93a4c3" font-family="Inter, Arial, sans-serif" font-size="12">2025-11-21</text>
<text x="935.00" y="412" text-anchor="middle" fill="#93a4c3" font-family="Inter, Arial, sans-serif" font-size="12">2026-01-08</text>
<path d="M 70.00 275.72 L 83.73 246.44 L 97.46 275.95 L 111.19 267.03 L 124.92 108.42 L 138.65 175.75 L 152.38 212.66 L 166.11 109.03 L 179.84 196.19 L 193.57 336.57 L 207.30 309.88 L 221.03 285.33 L 234.76 232.33 L 248.49 267.94 L 262.22 285.48 L 275.95 299.36 L 289.68 266.80 L 303.41 256.12 L 317.14 236.53 L 330.87 192.98 L 344.60 135.80 L 358.33 183.68 L 372.06 184.67 L 385.79 190.93 L 399.52 255.59 L 413.25 294.63 L 426.98 209.53 L 440.71 237.06 L 454.44 167.36 L 468.17 60.00 L 481.90 70.45 L 495.63 66.18 L 509.37 146.17 L 523.10 277.24 L 536.83 326.96 L 550.56 337.79 L 564.29 375.00 L 578.02 333.06 L 591.75 308.20 L 605.48 290.89 L 619.21 264.74 L 632.94 247.28 L 646.67 278.92 L 660.40 241.33 L 674.13 272.67 L 687.86 307.67 L 701.59 264.05 L 715.32 273.13 L 729.05 273.58 L 742.78 183.07 L 756.51 209.46 L 770.24 304.77 L 783.97 329.32 L 797.70 342.21 L 811.43 374.85 L 825.16 360.82 L 838.89 332.91 L 852.62 310.11 L 866.35 254.37 L 880.08 241.41 L 893.81 250.25 L 907.54 274.96 L 921.27 271.37 L 935.00 287.00" fill="none" stroke="#69a7ff" stroke-width="4" stroke-linecap="round" stroke-linejoin="round"/>
<circle cx="935.00" cy="287.00" r="6" fill="#69a7ff"/>
</svg>