<svg xmlns="http://www.w3.org/2000/svg" width="960" height="430" viewBox="0 0 960 430" role="img" aria-label="Composite score history">
<rect width="100%" height="100%" fill="#0b1020" rx="20"/>
<text x="70" y="32" fill="#f5f7fb" font-family="Inter, Arial, sans-serif" font-size="24" font-weight="700">Composite score history</text>
<text x="70" y="52" fill="#93a4c3" font-family="Inter, Arial, sans-serif" font-size="13">Trailing 79 sessions through 2026-01-08</text>
<line x1="70" x2="935" y1="375.00" y2="375.00" stroke="#27314e" stroke-width="1"/>
<text x="58" y="379.00" text-anchor="end" fill="#93a4c3" font-family="Inter, Arial, sans-serif" font-size="12">0</text>
<line x1="70" x2="935" y1="312.00" y2="312.00" stroke="#27314e" stroke-width="1"/>
<text x="58" y="316.00" text-anchor="end" fill="#93a4c3" font-family="Inter, Arial, sans-serif" font-size="12">8</text>
<line x1="70" x2="935" y1="249.00" y2="249.00" stroke="#27314e" stroke-width="1"/>
<text x="58" y="253.00" text-anchor="end" fill="#93a4c3" font-family="Inter, Arial, sans-serif" font-size="12">17</text>
<line x1="70" x2="935" y1="186.00" y2="186.00" stroke="#27314e" stroke-width="1"/>
<text x="58" y="190.00" text-anchor="end" fill="#93a4c3" font-family="Inter, Arial, sans-serif" font-size="12">25</text>
<line x1="70" x2="935" y1="123.00" y2="123.00" stroke="#27314e" stroke-width="1"/>
<text x="58" y="127.00" text-anchor="end" fill="#93a4c3" font-family="Inter, Arial, sans-serif" font-size="12">33</text>
<line x1="70" x2="935" y1="60.00" y2="60.00" stroke="#27314e" stroke-width="1"/>
<text x="58" y="64.00" text-anchor="end" fill="#93a4c3" font-family="Inter, Arial, sans-serif" font-size="12">41</text>
<text x="70.00" y="412" text-anchor="middle" fill="#93a4c3" font-family="Inter, Arial, sans-serif" font-size="12">2025-09-15</text>
<text x="502.50" y="412" text-anchor="middle" fill="#93a4c3" font-family="Inter, Arial, sans-serif" font-size="12">2025-11-10</text>
<text x="935.00" y="412" text-anchor="middle" fill="#93a4c3" font-family="Inter, Arial, sans-serif" font-size="12">2026-01-08</text>
<path d="M 70.00 279.23 L 81.09 262.22 L 92.18 261.38 L 103.27 258.41 L 114.36 274.19 L 125.45 266.64 L 136.54 279.46 L 147.63 266.03 L 158.72 222.49 L 169.81 245.75 L 180.90 247.43 L 191.99 259.32 L 203.08 297.76 L 214.17 309.80 L 225.26 286.01 L 236.35 296.54 L 247.44 271.60 L 258.53 278.85 L 269.62 256.96 L 280.71 123.98 L 291.79 175.75 L 302.88 212.66 L 313.97 109.03 L 325.06 196.19 L 336.15 336.57 L 347.24 309.88 L 358.33 285.33 L 369.42 232.33 L 380.51 267.94 L 391.60 285.48 L 402.69 299.36 L 413.78 266.80 L 424.87 256.12 L 435.96 236.53 L 447.05 192.98 L 458.14 135.80 L 469.23 183.68 L 480.32 184.67 L 491.41 190.93 L 502.50 255.59 L 513.59 294.63 L 524.68 209.53 L 535.77 237.06 L 546.86 167.36 L 557.95 60.00 L 569.04 70.45 L 580.13 66.18 L 591.22 146.17 L 602.31 277.24 L 613.40 326.96 L 624.49 337.79 L 635.58 375.00 L 646.67 333.06 L 657.76 308.20 L 668.85 290.89 L 679.94 264.74 L 691.03 247.28 L 702.12 278.92 L 713.21 241.33 L 724.29 272.67 L 735.38 307.67 L 746.47 264.05 L 757.56 273.13 L 768.65 273.58 L 779.74 183.07 L 790.83 209.46 L 801.92 304.77 L 813.01 329.32 L 824.10 342.21 L 835.19 374.85 L 846.28 360.82 L 857.37 332.91 L 868.46 310.11 L 879.55 254.37 L 890.64 241.41 L 901.73 250.25 L 912.82 274.96 L 923.91 271.37 L 935.00 287.00" fill="none" stroke="#69a7ff" stroke-width="4" stroke-linecap="round" stroke-linejoin="round"/>
<circle cx="935.00" cy="287.00" r="6" fill="#69a7ff"/>
</svg>