<svg xmlns="http://www.w3.org/2000/svg" width="960" height="430" viewBox="0 0 960 430" role="img" aria-label="Composite score history">
<rect width="100%" height="100%" fill="#0b1020" rx="20"/>
<text x="70" y="32" fill="#f5f7fb" font-family="Inter, Arial, sans-serif" font-size="24" font-weight="700">Composite score history</text>
<text x="70" y="52" fill="#93a4c3" font-family="Inter, Arial, sans-serif" font-size="13">Trailing 75 sessions through 2026-01-08</text>
<line x1="70" x2="935" y1="375.00" y2="375.00" stroke="#27314e" stroke-width="1"/>
<text x="58" y="379.00" text-anchor="end" fill="#93a4c3" font-family="Inter, Arial, sans-serif" font-size="12">0</text>
<line x1="70" x2="935" y1="312.00" y2="312.00" stroke="#27314e" stroke-width="1"/>
<text x="58" y="316.00" text-anchor="end" fill="#93a4c3" font-family="Inter, Arial, sans-serif" font-size="12">8</text>
<line x1="70" x2="935" y1="249.00" y2="249.00" stroke="#27314e" stroke-width="1"/>
<text x="58" y="253.00" text-anchor="end" fill="#93a4c3" font-family="Inter, Arial, sans-serif" font-size="12">17</text>
<line x1="70" x2="935" y1="186.00" y2="186.00" stroke="#27314e" stroke-width="1"/>
<text x="58" y="190.00" text-anchor="end" fill="#93a4c3" font-family="Inter, Arial, sans-serif" font-size="12">25</text>
<line x1="70" x2="935" y1="123.00" y2="123.00" stroke="#27314e" stroke-width="1"/>
<text x="58" y="127.00" text-anchor="end" fill="#93a4c3" font-family="Inter, Arial, sans-serif" font-size="12">33</text>
<line x1="70" x2="935" y1="60.00" y2="60.00" stroke="#27314e" stroke-width="1"/>
<text x="58" y="64.00" text-anchor="end" fill="#93a4c3" font-family="Inter, Arial, sans-serif" font-size="12">41</text>
<text x="70.00" y="412" text-anchor="middle" fill="#93a4c3" font-family="Inter, Arial, sans-serif" font-size="12">2025-09-19</text>
<text x="502.50" y="412" text-anchor="middle" fill="#93a4c3" font-family="Inter, Arial, sans-serif" font-size="12">2025-11-13</text>
<text x="935.00" y="412" text-anchor="middle" fill="#93a4c3" font-family="Inter, Arial, sans-serif" font-size="12">2026-01-08</text>
<path d="M 70.00 276.79 L 81.69 263.67 L 93.38 260.32 L 105.07 253.45 L 116.76 202.21 L 128.45 245.75 L 140.14 247.43 L 151.82 259.32 L 163.51 297.76 L 175.20 309.80 L 186.89 286.01 L 198.58 296.54 L 210.27 271.60 L 221.96 278.85 L 233.65 256.96 L 245.34 123.98 L 257.03 175.75 L 268.72 212.66 L 280.41 109.03 L 292.09 196.19 L 303.78 336.57 L 315.47 309.88 L 327.16 285.33 L 338.85 232.33 L 350.54 267.94 L 362.23 285.48 L 373.92 299.36 L 385.61 266.80 L 397.30 256.12 L 408.99 236.53 L 420.68 192.98 L 432.36 135.80 L 444.05 183.68 L 455.74 184.67 L 467.43 190.93 L 479.12 255.59 L 490.81 294.63 L 502.50 209.53 L 514.19 237.06 L 525.88 167.36 L 537.57 60.00 L 549.26 70.45 L 560.95 66.18 L 572.64 146.17 L 584.32 277.24 L 596.01 326.96 L 607.70 337.79 L 619.39 375.00 L 631.08 333.06 L 642.77 308.20 L 654.46 290.89 L 666.15 264.74 L 677.84 247.28 L 689.53 278.92 L 701.22 241.33 L 712.91 272.67 L 724.59 307.67 L 736.28 264.05 L 747.97 273.13 L 759.66 273.58 L 771.35 183.07 L 783.04 209.46 L 794.73 304.77 L 806.42 329.32 L 818.11 342.21 L 829.80 374.85 L 841.49 360.82 L 853.18 332.91 L 864.86 310.11 L 876.55 254.37 L 888.24 241.41 L 899.93 250.25 L 911.62 274.96 L 923.31 271.37 L 935.00 287.00" fill="none" stroke="#69a7ff" stroke-width="4" stroke-linecap="round" stroke-linejoin="round"/>
<circle cx="935.00" cy="287.00" r="6" fill="#69a7ff"/>
</svg>