<svg xmlns="http://www.w3.org/2000/svg" width="960" height="430" viewBox="0 0 960 430" role="img" aria-label="Composite score history">
<rect width="100%" height="100%" fill="#0b1020" rx="20"/>
<text x="70" y="32" fill="#f5f7fb" font-family="Inter, Arial, sans-serif" font-size="24" font-weight="700">Composite score history</text>
<text x="70" y="52" fill="#93a4c3" font-family="Inter, Arial, sans-serif" font-size="13">Trailing 66 sessions through 2026-01-08</text>
<line x1="70" x2="935" y1="375.00" y2="375.00" stroke="#27314e" stroke-width="1"/>
<text x="58" y="379.00" text-anchor="end" fill="#93a4c3" font-family="Inter, Arial, sans-serif" font-size="12">0</text>
<line x1="70" x2="935" y1="312.00" y2="312.00" stroke="#27314e" stroke-width="1"/>
<text x="58" y="316.00" text-anchor="end" fill="#93a4c3" font-family="Inter, Arial, sans-serif" font-size="12">8</text>
<line x1="70" x2="935" y1="249.00" y2="249.00" stroke="#27314e" stroke-width="1"/>
<text x="58" y="253.00" text-anchor="end" fill="#93a4c3" font-family="Inter, Arial, sans-serif" font-size="12">17</text>
<line x1="70" x2="935" y1="186.00" y2="186.00" stroke="#27314e" stroke-width="1"/>
<text x="58" y="190.00" text-anchor="end" fill="#93a4c3" font-family="Inter, Arial, sans-serif" font-size="12">25</text>
<line x1="70" x2="935" y1="123.00" y2="123.00" stroke="#27314e" stroke-width="1"/>
<text x="58" y="127.00" text-anchor="end" fill="#93a4c3" font-family="Inter, Arial, sans-serif" font-size="12">33</text>
<line x1="70" x2="935" y1="60.00" y2="60.00" stroke="#27314e" stroke-width="1"/>
<text x="58" y="64.00" text-anchor="end" fill="#93a4c3" font-family="Inter, Arial, sans-serif" font-size="12">41</text>
<text x="70.00" y="412" text-anchor="middle" fill="#93a4c3" font-family="Inter, Arial, sans-serif" font-size="12">2025-10-02</text>
<text x="509.15" y="412" text-anchor="middle" fill="#93a4c3" font-family="Inter, Arial, sans-serif" font-size="12">2025-11-20</text>
<text x="935.00" y="412" text-anchor="middle" fill="#93a4c3" font-family="Inter, Arial, sans-serif" font-size="12">2026-01-08</text>
<path d="M 70.00 277.85 L 83.31 262.07 L 96.62 263.67 L 109.92 252.46 L 123.23 270.08 L 136.54 256.96 L 149.85 123.98 L 163.15 175.75 L 176.46 212.66 L 189.77 109.03 L 203.08 196.19 L 216.38 336.57 L 229.69 309.88 L 243.00 285.33 L 256.31 232.33 L 269.62 267.94 L 282.92 285.48 L 296.23 299.36 L 309.54 266.80 L 322.85 256.12 L 336.15 236.53 L 349.46 192.98 L 362.77 135.80 L 376.08 183.68 L 389.38 184.67 L 402.69 190.93 L 416.00 255.59 L 429.31 294.63 L 442.62 209.53 L 455.92 237.06 L 469.23 167.36 L 482.54 60.00 L 495.85 70.45 L 509.15 66.18 L 522.46 146.17 L 535.77 277.24 L 549.08 326.96 L 562.38 337.79 L 575.69 375.00 L 589.00 333.06 L 602.31 308.20 L 615.62 290.89 L 628.92 264.74 L 642.23 247.28 L 655.54 278.92 L 668.85 241.33 L 682.15 272.67 L 695.46 307.67 L 708.77 264.05 L 722.08 273.13 L 735.38 273.58 L 748.69 183.07 L 762.00 209.46 L 775.31 304.77 L 788.62 329.32 L 801.92 342.21 L 815.23 374.85 L 828.54 360.82 L 841.85 332.91 L 855.15 310.11 L 868.46 254.37 L 881.77 241.41 L 895.08 250.25 L 908.38 274.96 L 921.69 271.37 L 935.00 287.00" fill="none" stroke="#69a7ff" stroke-width="4" stroke-linecap="round" stroke-linejoin="round"/>
<circle cx="935.00" cy="287.00" r="6" fill="#69a7ff"/>
</svg>