<svg xmlns="http://www.w3.org/2000/svg" width="960" height="430" viewBox="0 0 960 430" role="img" aria-label="Composite score history">
<rect width="100%" height="100%" fill="#0b1020" rx="20"/>
<text x="70" y="32" fill="#f5f7fb" font-family="Inter, Arial, sans-serif" font-size="24" font-weight="700">Composite score history</text>
<text x="70" y="52" fill="#93a4c3" font-family="Inter, Arial, sans-serif" font-size="13">Trailing 81 sessions through 2026-01-08</text>
<line x1="70" x2="935" y1="375.00" y2="375.00" stroke="#27314e" stroke-width="1"/>
<text x="58" y="379.00" text-anchor="end" fill="#93a4c3" font-family="Inter, Arial, sans-serif" font-size="12">0</text>
<line x1="70" x2="935" y1="312.00" y2="312.00" stroke="#27314e" stroke-width="1"/>
<text x="58" y="316.00" text-anchor="end" fill="#93a4c3" font-family="Inter, Arial, sans-serif" font-size="12">8</text>
<line x1="70" x2="935" y1="249.00" y2="249.00" stroke="#27314e" stroke-width="1"/>
<text x="58" y="253.00" text-anchor="end" fill="#93a4c3" font-family="Inter, Arial, sans-serif" font-size="12">17</text>
<line x1="70" x2="935" y1="186.00" y2="186.00" stroke="#27314e" stroke-width="1"/>
<text x="58" y="190.00" text-anchor="end" fill="#93a4c3" font-family="Inter, Arial, sans-serif" font-size="12">25</text>
<line x1="70" x2="935" y1="123.00" y2="123.00" stroke="#27314e" stroke-width="1"/>
<text x="58" y="127.00" text-anchor="end" fill="#93a4c3" font-family="Inter, Arial, sans-serif" font-size="12">33</text>
<line x1="70" x2="935" y1="60.00" y2="60.00" stroke="#27314e" stroke-width="1"/>
<text x="58" y="64.00" text-anchor="end" fill="#93a4c3" font-family="Inter, Arial, sans-serif" font-size="12">41</text>
<text x="70.00" y="412" text-anchor="middle" fill="#93a4c3" font-family="Inter, Arial, sans-serif" font-size="12">2025-09-11</text>
<text x="502.50" y="412" text-anchor="middle" fill="#93a4c3" font-family="Inter, Arial, sans-serif" font-size="12">2025-11-07</text>
<text x="935.00" y="412" text-anchor="middle" fill="#93a4c3" font-family="Inter, Arial, sans-serif" font-size="12">2026-01-08</text>
<path d="M 70.00 285.94 L 80.81 264.28 L 91.62 274.19 L 102.44 265.73 L 113.25 266.64 L 124.06 253.38 L 134.88 288.22 L 145.69 266.64 L 156.50 279.46 L 167.31 266.03 L 178.12 222.49 L 188.94 245.75 L 199.75 247.43 L 210.56 259.32 L 221.38 297.76 L 232.19 309.80 L 243.00 286.01 L 253.81 296.54 L 264.62 271.60 L 275.44 278.85 L 286.25 256.96 L 297.06 123.98 L 307.88 175.75 L 318.69 212.66 L 329.50 109.03 L 340.31 196.19 L 351.12 336.57 L 361.94 309.88 L 372.75 285.33 L 383.56 232.33 L 394.38 267.94 L 405.19 285.48 L 416.00 299.36 L 426.81 266.80 L 437.62 256.12 L 448.44 236.53 L 459.25 192.98 L 470.06 135.80 L 480.88 183.68 L 491.69 184.67 L 502.50 190.93 L 513.31 255.59 L 524.12 294.63 L 534.94 209.53 L 545.75 237.06 L 556.56 167.36 L 567.38 60.00 L 578.19 70.45 L 589.00 66.18 L 599.81 146.17 L 610.62 277.24 L 621.44 326.96 L 632.25 337.79 L 643.06 375.00 L 653.88 333.06 L 664.69 308.20 L 675.50 290.89 L 686.31 264.74 L 697.12 247.28 L 707.94 278.92 L 718.75 241.33 L 729.56 272.67 L 740.38 307.67 L 751.19 264.05 L 762.00 273.13 L 772.81 273.58 L 783.62 183.07 L 794.44 209.46 L 805.25 304.77 L 816.06 329.32 L 826.88 342.21 L 837.69 374.85 L 848.50 360.82 L 859.31 332.91 L 870.12 310.11 L 880.94 254.37 L 891.75 241.41 L 902.56 250.25 L 913.38 274.96 L 924.19 271.37 L 935.00 287.00" fill="none" stroke="#69a7ff" stroke-width="4" stroke-linecap="round" stroke-linejoin="round"/>
<circle cx="935.00" cy="287.00" r="6" fill="#69a7ff"/>
</svg>