<svg xmlns="http://www.w3.org/2000/svg" width="960" height="430" viewBox="0 0 960 430" role="img" aria-label="Composite score history">
<rect width="100%" height="100%" fill="#0b1020" rx="20"/>
<text x="70" y="32" fill="#f5f7fb" font-family="Inter, Arial, sans-serif" font-size="24" font-weight="700">Composite score history</text>
<text x="70" y="52" fill="#93a4c3" font-family="Inter, Arial, sans-serif" font-size="13">Trailing 52 sessions through 2025-10-24</text>
<line x1="70" x2="935" y1="375.00" y2="375.00" stroke="#27314e" stroke-width="1"/>
<text x="58" y="379.00" text-anchor="end" fill="#93a4c3" font-family="Inter, Arial, sans-serif" font-size="12">5</text>
<line x1="70" x2="935" y1="312.00" y2="312.00" stroke="#27314e" stroke-width="1"/>
<text x="58" y="316.00" text-anchor="end" fill="#93a4c3" font-family="Inter, Arial, sans-serif" font-size="12">11</text>
<line x1="70" x2="935" y1="249.00" y2="249.00" stroke="#27314e" stroke-width="1"/>
<text x="58" y="253.00" text-anchor="end" fill="#93a4c3" font-family="Inter, Arial, sans-serif" font-size="12">17</text>
<line x1="70" x2="935" y1="186.00" y2="186.00" stroke="#27314e" stroke-width="1"/>
<text x="58" y="190.00" text-anchor="end" fill="#93a4c3" font-family="Inter, Arial, sans-serif" font-size="12">23</text>
<line x1="70" x2="935" y1="123.00" y2="123.00" stroke="#27314e" stroke-width="1"/>
<text x="58" y="127.00" text-anchor="end" fill="#93a4c3" font-family="Inter, Arial, sans-serif" font-size="12">29</text>
<line x1="70" x2="935" y1="60.00" y2="60.00" stroke="#27314e" stroke-width="1"/>
<text x="58" y="64.00" text-anchor="end" fill="#93a4c3" font-family="Inter, Arial, sans-serif" font-size="12">35</text>
<text x="70.00" y="412" text-anchor="middle" fill="#93a4c3" font-family="Inter, Arial, sans-serif" font-size="12">2025-08-12</text>
<text x="510.98" y="412" text-anchor="middle" fill="#93a4c3" font-family="Inter, Arial, sans-serif" font-size="12">2025-09-18</text>
<text x="935.00" y="412" text-anchor="middle" fill="#93a4c3" font-family="Inter, Arial, sans-serif" font-size="12">2025-10-24</text>
<path d="M 70.00 287.49 L 86.96 303.01 L 103.92 285.17 L 120.88 269.54 L 137.84 261.20 L 154.80 235.87 L 171.76 183.93 L 188.73 141.81 L 205.69 261.84 L 222.65 231.86 L 239.61 249.49 L 256.57 267.22 L 273.53 315.67 L 290.49 268.59 L 307.45 221.19 L 324.41 245.90 L 341.37 294.46 L 358.33 276.30 L 375.29 318.00 L 392.25 337.63 L 409.22 332.67 L 426.18 339.53 L 443.14 320.85 L 460.10 317.57 L 477.06 315.88 L 494.02 307.02 L 510.98 259.83 L 527.94 308.07 L 544.90 278.20 L 561.86 295.93 L 578.82 277.35 L 595.78 217.08 L 612.75 249.27 L 629.71 251.60 L 646.67 268.06 L 663.63 321.27 L 680.59 337.95 L 697.55 305.01 L 714.51 319.58 L 731.47 285.06 L 748.43 295.09 L 765.39 264.79 L 782.35 80.69 L 799.31 152.37 L 816.27 203.46 L 833.24 60.00 L 850.20 180.66 L 867.16 375.00 L 884.12 338.05 L 901.08 304.06 L 918.04 230.70 L 935.00 279.99" fill="none" stroke="#69a7ff" stroke-width="4" stroke-linecap="round" stroke-linejoin="round"/>
<circle cx="935.00" cy="279.99" r="6" fill="#69a7ff"/>
</svg>