<svg xmlns="http://www.w3.org/2000/svg" width="960" height="430" viewBox="0 0 960 430" role="img" aria-label="Composite score history">
<rect width="100%" height="100%" fill="#0b1020" rx="20"/>
<text x="70" y="32" fill="#f5f7fb" font-family="Inter, Arial, sans-serif" font-size="24" font-weight="700">Composite score history</text>
<text x="70" y="52" fill="#93a4c3" font-family="Inter, Arial, sans-serif" font-size="13">Trailing 68 sessions through 2025-10-24</text>
<line x1="70" x2="935" y1="375.00" y2="375.00" stroke="#27314e" stroke-width="1"/>
<text x="58" y="379.00" text-anchor="end" fill="#93a4c3" font-family="Inter, Arial, sans-serif" font-size="12">5</text>
<line x1="70" x2="935" y1="312.00" y2="312.00" stroke="#27314e" stroke-width="1"/>
<text x="58" y="316.00" text-anchor="end" fill="#93a4c3" font-family="Inter, Arial, sans-serif" font-size="12">11</text>
<line x1="70" x2="935" y1="249.00" y2="249.00" stroke="#27314e" stroke-width="1"/>
<text x="58" y="253.00" text-anchor="end" fill="#93a4c3" font-family="Inter, Arial, sans-serif" font-size="12">17</text>
<line x1="70" x2="935" y1="186.00" y2="186.00" stroke="#27314e" stroke-width="1"/>
<text x="58" y="190.00" text-anchor="end" fill="#93a4c3" font-family="Inter, Arial, sans-serif" font-size="12">23</text>
<line x1="70" x2="935" y1="123.00" y2="123.00" stroke="#27314e" stroke-width="1"/>
<text x="58" y="127.00" text-anchor="end" fill="#93a4c3" font-family="Inter, Arial, sans-serif" font-size="12">29</text>
<line x1="70" x2="935" y1="60.00" y2="60.00" stroke="#27314e" stroke-width="1"/>
<text x="58" y="64.00" text-anchor="end" fill="#93a4c3" font-family="Inter, Arial, sans-serif" font-size="12">35</text>
<text x="70.00" y="412" text-anchor="middle" fill="#93a4c3" font-family="Inter, Arial, sans-serif" font-size="12">2025-07-21</text>
<text x="508.96" y="412" text-anchor="middle" fill="#93a4c3" font-family="Inter, Arial, sans-serif" font-size="12">2025-09-08</text>
<text x="935.00" y="412" text-anchor="middle" fill="#93a4c3" font-family="Inter, Arial, sans-serif" font-size="12">2025-10-24</text>
<path d="M 70.00 253.50 L 82.91 260.89 L 95.82 279.15 L 108.73 251.28 L 121.64 275.67 L 134.55 275.35 L 147.46 267.43 L 160.37 212.22 L 173.28 205.57 L 186.19 73.72 L 199.10 196.28 L 212.01 187.73 L 224.93 250.44 L 237.84 276.19 L 250.75 268.80 L 263.66 229.96 L 276.57 338.37 L 289.48 334.46 L 302.39 319.79 L 315.30 309.02 L 328.21 310.61 L 341.12 235.87 L 354.03 183.93 L 366.94 141.81 L 379.85 261.84 L 392.76 231.86 L 405.67 249.49 L 418.58 267.22 L 431.49 315.67 L 444.40 268.59 L 457.31 221.19 L 470.22 245.90 L 483.13 294.46 L 496.04 276.30 L 508.96 318.00 L 521.87 337.63 L 534.78 332.67 L 547.69 339.53 L 560.60 320.85 L 573.51 317.57 L 586.42 315.88 L 599.33 307.02 L 612.24 259.83 L 625.15 308.07 L 638.06 278.20 L 650.97 295.93 L 663.88 277.35 L 676.79 217.08 L 689.70 249.27 L 702.61 251.60 L 715.52 268.06 L 728.43 321.27 L 741.34 337.95 L 754.25 305.01 L 767.16 319.58 L 780.07 285.06 L 792.99 295.09 L 805.90 264.79 L 818.81 80.69 L 831.72 152.37 L 844.63 203.46 L 857.54 60.00 L 870.45 180.66 L 883.36 375.00 L 896.27 338.05 L 909.18 304.06 L 922.09 230.70 L 935.00 279.99" fill="none" stroke="#69a7ff" stroke-width="4" stroke-linecap="round" stroke-linejoin="round"/>
<circle cx="935.00" cy="279.99" r="6" fill="#69a7ff"/>
</svg>