<svg xmlns="http://www.w3.org/2000/svg" width="960" height="430" viewBox="0 0 960 430" role="img" aria-label="Composite score history">
<rect width="100%" height="100%" fill="#0b1020" rx="20"/>
<text x="70" y="32" fill="#f5f7fb" font-family="Inter, Arial, sans-serif" font-size="24" font-weight="700">Composite score history</text>
<text x="70" y="52" fill="#93a4c3" font-family="Inter, Arial, sans-serif" font-size="13">Trailing 59 sessions through 2025-10-24</text>
<line x1="70" x2="935" y1="375.00" y2="375.00" stroke="#27314e" stroke-width="1"/>
<text x="58" y="379.00" text-anchor="end" fill="#93a4c3" font-family="Inter, Arial, sans-serif" font-size="12">5</text>
<line x1="70" x2="935" y1="312.00" y2="312.00" stroke="#27314e" stroke-width="1"/>
<text x="58" y="316.00" text-anchor="end" fill="#93a4c3" font-family="Inter, Arial, sans-serif" font-size="12">11</text>
<line x1="70" x2="935" y1="249.00" y2="249.00" stroke="#27314e" stroke-width="1"/>
<text x="58" y="253.00" text-anchor="end" fill="#93a4c3" font-family="Inter, Arial, sans-serif" font-size="12">17</text>
<line x1="70" x2="935" y1="186.00" y2="186.00" stroke="#27314e" stroke-width="1"/>
<text x="58" y="190.00" text-anchor="end" fill="#93a4c3" font-family="Inter, Arial, sans-serif" font-size="12">23</text>
<line x1="70" x2="935" y1="123.00" y2="123.00" stroke="#27314e" stroke-width="1"/>
<text x="58" y="127.00" text-anchor="end" fill="#93a4c3" font-family="Inter, Arial, sans-serif" font-size="12">29</text>
<line x1="70" x2="935" y1="60.00" y2="60.00" stroke="#27314e" stroke-width="1"/>
<text x="58" y="64.00" text-anchor="end" fill="#93a4c3" font-family="Inter, Arial, sans-serif" font-size="12">35</text>
<text x="70.00" y="412" text-anchor="middle" fill="#93a4c3" font-family="Inter, Arial, sans-serif" font-size="12">2025-08-01</text>
<text x="502.50" y="412" text-anchor="middle" fill="#93a4c3" font-family="Inter, Arial, sans-serif" font-size="12">2025-09-12</text>
<text x="935.00" y="412" text-anchor="middle" fill="#93a4c3" font-family="Inter, Arial, sans-serif" font-size="12">2025-10-24</text>
<path d="M 70.00 252.12 L 84.91 293.40 L 99.83 263.00 L 114.74 312.72 L 129.66 290.55 L 144.57 268.80 L 159.48 229.96 L 174.40 338.37 L 189.31 334.46 L 204.22 319.79 L 219.14 309.02 L 234.05 310.61 L 248.97 235.87 L 263.88 183.93 L 278.79 141.81 L 293.71 261.84 L 308.62 231.86 L 323.53 249.49 L 338.45 267.22 L 353.36 315.67 L 368.28 268.59 L 383.19 221.19 L 398.10 245.90 L 413.02 294.46 L 427.93 276.30 L 442.84 318.00 L 457.76 337.63 L 472.67 332.67 L 487.59 339.53 L 502.50 320.85 L 517.41 317.57 L 532.33 315.88 L 547.24 307.02 L 562.16 259.83 L 577.07 308.07 L 591.98 278.20 L 606.90 295.93 L 621.81 277.35 L 636.72 217.08 L 651.64 249.27 L 666.55 251.60 L 681.47 268.06 L 696.38 321.27 L 711.29 337.95 L 726.21 305.01 L 741.12 319.58 L 756.03 285.06 L 770.95 295.09 L 785.86 264.79 L 800.78 80.69 L 815.69 152.37 L 830.60 203.46 L 845.52 60.00 L 860.43 180.66 L 875.34 375.00 L 890.26 338.05 L 905.17 304.06 L 920.09 230.70 L 935.00 279.99" fill="none" stroke="#69a7ff" stroke-width="4" stroke-linecap="round" stroke-linejoin="round"/>
<circle cx="935.00" cy="279.99" r="6" fill="#69a7ff"/>
</svg>