<svg xmlns="http://www.w3.org/2000/svg" width="960" height="430" viewBox="0 0 960 430" role="img" aria-label="Composite score history">
<rect width="100%" height="100%" fill="#0b1020" rx="20"/>
<text x="70" y="32" fill="#f5f7fb" font-family="Inter, Arial, sans-serif" font-size="24" font-weight="700">Composite score history</text>
<text x="70" y="52" fill="#93a4c3" font-family="Inter, Arial, sans-serif" font-size="13">Trailing 66 sessions through 2025-10-24</text>
<line x1="70" x2="935" y1="375.00" y2="375.00" stroke="#27314e" stroke-width="1"/>
<text x="58" y="379.00" text-anchor="end" fill="#93a4c3" font-family="Inter, Arial, sans-serif" font-size="12">5</text>
<line x1="70" x2="935" y1="312.00" y2="312.00" stroke="#27314e" stroke-width="1"/>
<text x="58" y="316.00" text-anchor="end" fill="#93a4c3" font-family="Inter, Arial, sans-serif" font-size="12">11</text>
<line x1="70" x2="935" y1="249.00" y2="249.00" stroke="#27314e" stroke-width="1"/>
<text x="58" y="253.00" text-anchor="end" fill="#93a4c3" font-family="Inter, Arial, sans-serif" font-size="12">17</text>
<line x1="70" x2="935" y1="186.00" y2="186.00" stroke="#27314e" stroke-width="1"/>
<text x="58" y="190.00" text-anchor="end" fill="#93a4c3" font-family="Inter, Arial, sans-serif" font-size="12">23</text>
<line x1="70" x2="935" y1="123.00" y2="123.00" stroke="#27314e" stroke-width="1"/>
<text x="58" y="127.00" text-anchor="end" fill="#93a4c3" font-family="Inter, Arial, sans-serif" font-size="12">29</text>
<line x1="70" x2="935" y1="60.00" y2="60.00" stroke="#27314e" stroke-width="1"/>
<text x="58" y="64.00" text-anchor="end" fill="#93a4c3" font-family="Inter, Arial, sans-serif" font-size="12">35</text>
<text x="70.00" y="412" text-anchor="middle" fill="#93a4c3" font-family="Inter, Arial, sans-serif" font-size="12">2025-07-23</text>
<text x="509.15" y="412" text-anchor="middle" fill="#93a4c3" font-family="Inter, Arial, sans-serif" font-size="12">2025-09-09</text>
<text x="935.00" y="412" text-anchor="middle" fill="#93a4c3" font-family="Inter, Arial, sans-serif" font-size="12">2025-10-24</text>
<path d="M 70.00 269.54 L 83.31 215.07 L 96.62 250.01 L 109.92 249.70 L 123.23 237.56 L 136.54 212.22 L 149.85 205.57 L 163.15 73.72 L 176.46 196.28 L 189.77 187.73 L 203.08 250.44 L 216.38 276.19 L 229.69 268.80 L 243.00 229.96 L 256.31 338.37 L 269.62 334.46 L 282.92 319.79 L 296.23 309.02 L 309.54 310.61 L 322.85 235.87 L 336.15 183.93 L 349.46 141.81 L 362.77 261.84 L 376.08 231.86 L 389.38 249.49 L 402.69 267.22 L 416.00 315.67 L 429.31 268.59 L 442.62 221.19 L 455.92 245.90 L 469.23 294.46 L 482.54 276.30 L 495.85 318.00 L 509.15 337.63 L 522.46 332.67 L 535.77 339.53 L 549.08 320.85 L 562.38 317.57 L 575.69 315.88 L 589.00 307.02 L 602.31 259.83 L 615.62 308.07 L 628.92 278.20 L 642.23 295.93 L 655.54 277.35 L 668.85 217.08 L 682.15 249.27 L 695.46 251.60 L 708.77 268.06 L 722.08 321.27 L 735.38 337.95 L 748.69 305.01 L 762.00 319.58 L 775.31 285.06 L 788.62 295.09 L 801.92 264.79 L 815.23 80.69 L 828.54 152.37 L 841.85 203.46 L 855.15 60.00 L 868.46 180.66 L 881.77 375.00 L 895.08 338.05 L 908.38 304.06 L 921.69 230.70 L 935.00 279.99" fill="none" stroke="#69a7ff" stroke-width="4" stroke-linecap="round" stroke-linejoin="round"/>
<circle cx="935.00" cy="279.99" r="6" fill="#69a7ff"/>
</svg>