<svg xmlns="http://www.w3.org/2000/svg" width="960" height="430" viewBox="0 0 960 430" role="img" aria-label="Composite score history">
<rect width="100%" height="100%" fill="#0b1020" rx="20"/>
<text x="70" y="32" fill="#f5f7fb" font-family="Inter, Arial, sans-serif" font-size="24" font-weight="700">Composite score history</text>
<text x="70" y="52" fill="#93a4c3" font-family="Inter, Arial, sans-serif" font-size="13">Trailing 70 sessions through 2025-10-24</text>
<line x1="70" x2="935" y1="375.00" y2="375.00" stroke="#27314e" stroke-width="1"/>
<text x="58" y="379.00" text-anchor="end" fill="#93a4c3" font-family="Inter, Arial, sans-serif" font-size="12">12</text>
<line x1="70" x2="935" y1="312.00" y2="312.00" stroke="#27314e" stroke-width="1"/>
<text x="58" y="316.00" text-anchor="end" fill="#93a4c3" font-family="Inter, Arial, sans-serif" font-size="12">16</text>
<line x1="70" x2="935" y1="249.00" y2="249.00" stroke="#27314e" stroke-width="1"/>
<text x="58" y="253.00" text-anchor="end" fill="#93a4c3" font-family="Inter, Arial, sans-serif" font-size="12">21</text>
<line x1="70" x2="935" y1="186.00" y2="186.00" stroke="#27314e" stroke-width="1"/>
<text x="58" y="190.00" text-anchor="end" fill="#93a4c3" font-family="Inter, Arial, sans-serif" font-size="12">26</text>
<line x1="70" x2="935" y1="123.00" y2="123.00" stroke="#27314e" stroke-width="1"/>
<text x="58" y="127.00" text-anchor="end" fill="#93a4c3" font-family="Inter, Arial, sans-serif" font-size="12">30</text>
<line x1="70" x2="935" y1="60.00" y2="60.00" stroke="#27314e" stroke-width="1"/>
<text x="58" y="64.00" text-anchor="end" fill="#93a4c3" font-family="Inter, Arial, sans-serif" font-size="12">35</text>
<text x="70.00" y="412" text-anchor="middle" fill="#93a4c3" font-family="Inter, Arial, sans-serif" font-size="12">2025-07-17</text>
<text x="508.77" y="412" text-anchor="middle" fill="#93a4c3" font-family="Inter, Arial, sans-serif" font-size="12">2025-09-05</text>
<text x="935.00" y="412" text-anchor="middle" fill="#93a4c3" font-family="Inter, Arial, sans-serif" font-size="12">2025-10-24</text>
<path d="M 70.00 296.52 L 82.54 305.89 L 95.07 307.11 L 107.61 316.21 L 120.14 329.52 L 132.68 314.31 L 145.22 308.88 L 157.75 291.63 L 170.29 293.81 L 182.83 253.62 L 195.36 247.23 L 207.90 77.79 L 220.43 235.29 L 232.97 224.29 L 245.51 304.94 L 258.04 337.66 L 270.58 246.28 L 283.12 255.25 L 295.65 339.02 L 308.19 348.12 L 320.72 325.31 L 333.26 348.25 L 345.80 342.01 L 358.33 286.20 L 370.87 219.40 L 383.41 165.23 L 395.94 310.64 L 408.48 281.04 L 421.01 274.80 L 433.55 281.04 L 446.09 318.65 L 458.62 328.29 L 471.16 267.33 L 483.70 299.10 L 496.23 350.83 L 508.77 338.20 L 521.30 373.51 L 533.84 365.77 L 546.38 366.58 L 558.91 375.00 L 571.45 341.73 L 583.99 328.56 L 596.52 340.11 L 609.06 342.14 L 621.59 294.08 L 634.13 337.80 L 646.67 300.46 L 659.20 337.80 L 671.74 320.28 L 684.28 262.03 L 696.81 303.45 L 709.35 306.43 L 721.88 311.46 L 734.42 358.71 L 746.96 360.61 L 759.49 338.34 L 772.03 353.55 L 784.57 336.17 L 797.10 340.78 L 809.64 313.36 L 822.17 86.61 L 834.71 178.67 L 847.25 244.52 L 859.78 60.00 L 872.32 215.19 L 884.86 370.52 L 897.39 371.06 L 909.93 359.52 L 922.46 223.61 L 935.00 278.06" fill="none" stroke="#69a7ff" stroke-width="4" stroke-linecap="round" stroke-linejoin="round"/>
<circle cx="935.00" cy="278.06" r="6" fill="#69a7ff"/>
<text x="927.00" y="266.06" text-anchor="end" fill="#f5f7fb" font-family="Inter, Arial, sans-serif" font-size="12" font-weight="600">18.82</text>
</svg>