<svg xmlns="http://www.w3.org/2000/svg" width="960" height="430" viewBox="0 0 960 430" role="img" aria-label="Composite score history">
<rect width="100%" height="100%" fill="#0b1020" rx="20"/>
<text x="70" y="32" fill="#f5f7fb" font-family="Inter, Arial, sans-serif" font-size="24" font-weight="700">Composite score history</text>
<text x="70" y="52" fill="#93a4c3" font-family="Inter, Arial, sans-serif" font-size="13">Trailing 53 sessions through 2025-10-24</text>
<line x1="70" x2="935" y1="375.00" y2="375.00" stroke="#27314e" stroke-width="1"/>
<text x="58" y="379.00" text-anchor="end" fill="#93a4c3" font-family="Inter, Arial, sans-serif" font-size="12">5</text>
<line x1="70" x2="935" y1="312.00" y2="312.00" stroke="#27314e" stroke-width="1"/>
<text x="58" y="316.00" text-anchor="end" fill="#93a4c3" font-family="Inter, Arial, sans-serif" font-size="12">11</text>
<line x1="70" x2="935" y1="249.00" y2="249.00" stroke="#27314e" stroke-width="1"/>
<text x="58" y="253.00" text-anchor="end" fill="#93a4c3" font-family="Inter, Arial, sans-serif" font-size="12">17</text>
<line x1="70" x2="935" y1="186.00" y2="186.00" stroke="#27314e" stroke-width="1"/>
<text x="58" y="190.00" text-anchor="end" fill="#93a4c3" font-family="Inter, Arial, sans-serif" font-size="12">23</text>
<line x1="70" x2="935" y1="123.00" y2="123.00" stroke="#27314e" stroke-width="1"/>
<text x="58" y="127.00" text-anchor="end" fill="#93a4c3" font-family="Inter, Arial, sans-serif" font-size="12">29</text>
<line x1="70" x2="935" y1="60.00" y2="60.00" stroke="#27314e" stroke-width="1"/>
<text x="58" y="64.00" text-anchor="end" fill="#93a4c3" font-family="Inter, Arial, sans-serif" font-size="12">35</text>
<text x="70.00" y="412" text-anchor="middle" fill="#93a4c3" font-family="Inter, Arial, sans-serif" font-size="12">2025-08-11</text>
<text x="502.50" y="412" text-anchor="middle" fill="#93a4c3" font-family="Inter, Arial, sans-serif" font-size="12">2025-09-17</text>
<text x="935.00" y="412" text-anchor="middle" fill="#93a4c3" font-family="Inter, Arial, sans-serif" font-size="12">2025-10-24</text>
<path d="M 70.00 267.75 L 86.63 317.47 L 103.27 333.09 L 119.90 324.75 L 136.54 315.78 L 153.17 310.61 L 169.81 235.87 L 186.44 183.93 L 203.08 141.81 L 219.71 261.84 L 236.35 231.86 L 252.98 249.49 L 269.62 267.22 L 286.25 315.67 L 302.88 268.59 L 319.52 221.19 L 336.15 245.90 L 352.79 294.46 L 369.42 276.30 L 386.06 318.00 L 402.69 337.63 L 419.33 332.67 L 435.96 339.53 L 452.60 320.85 L 469.23 317.57 L 485.87 315.88 L 502.50 307.02 L 519.13 259.83 L 535.77 308.07 L 552.40 278.20 L 569.04 295.93 L 585.67 277.35 L 602.31 217.08 L 618.94 249.27 L 635.58 251.60 L 652.21 268.06 L 668.85 321.27 L 685.48 337.95 L 702.12 305.01 L 718.75 319.58 L 735.38 285.06 L 752.02 295.09 L 768.65 264.79 L 785.29 80.69 L 801.92 152.37 L 818.56 203.46 L 835.19 60.00 L 851.83 180.66 L 868.46 375.00 L 885.10 338.05 L 901.73 304.06 L 918.37 230.70 L 935.00 279.99" fill="none" stroke="#69a7ff" stroke-width="4" stroke-linecap="round" stroke-linejoin="round"/>
<circle cx="935.00" cy="279.99" r="6" fill="#69a7ff"/>
</svg>