<svg xmlns="http://www.w3.org/2000/svg" width="960" height="430" viewBox="0 0 960 430" role="img" aria-label="Composite score history">
<rect width="100%" height="100%" fill="#0b1020" rx="20"/>
<text x="70" y="32" fill="#f5f7fb" font-family="Inter, Arial, sans-serif" font-size="24" font-weight="700">Composite score history</text>
<text x="70" y="52" fill="#93a4c3" font-family="Inter, Arial, sans-serif" font-size="13">Trailing 70 sessions through 2025-10-23</text>
<line x1="70" x2="935" y1="375.00" y2="375.00" stroke="#27314e" stroke-width="1"/>
<text x="58" y="379.00" text-anchor="end" fill="#93a4c3" font-family="Inter, Arial, sans-serif" font-size="12">12</text>
<line x1="70" x2="935" y1="312.00" y2="312.00" stroke="#27314e" stroke-width="1"/>
<text x="58" y="316.00" text-anchor="end" fill="#93a4c3" font-family="Inter, Arial, sans-serif" font-size="12">16</text>
<line x1="70" x2="935" y1="249.00" y2="249.00" stroke="#27314e" stroke-width="1"/>
<text x="58" y="253.00" text-anchor="end" fill="#93a4c3" font-family="Inter, Arial, sans-serif" font-size="12">21</text>
<line x1="70" x2="935" y1="186.00" y2="186.00" stroke="#27314e" stroke-width="1"/>
<text x="58" y="190.00" text-anchor="end" fill="#93a4c3" font-family="Inter, Arial, sans-serif" font-size="12">26</text>
<line x1="70" x2="935" y1="123.00" y2="123.00" stroke="#27314e" stroke-width="1"/>
<text x="58" y="127.00" text-anchor="end" fill="#93a4c3" font-family="Inter, Arial, sans-serif" font-size="12">30</text>
<line x1="70" x2="935" y1="60.00" y2="60.00" stroke="#27314e" stroke-width="1"/>
<text x="58" y="64.00" text-anchor="end" fill="#93a4c3" font-family="Inter, Arial, sans-serif" font-size="12">35</text>
<text x="70.00" y="412" text-anchor="middle" fill="#93a4c3" font-family="Inter, Arial, sans-serif" font-size="12">2025-07-16</text>
<text x="508.77" y="412" text-anchor="middle" fill="#93a4c3" font-family="Inter, Arial, sans-serif" font-size="12">2025-09-04</text>
<text x="935.00" y="412" text-anchor="middle" fill="#93a4c3" font-family="Inter, Arial, sans-serif" font-size="12">2025-10-23</text>
<path d="M 70.00 300.87 L 82.54 253.07 L 95.07 299.78 L 107.61 308.88 L 120.14 316.21 L 132.68 329.52 L 145.22 314.31 L 157.75 308.88 L 170.29 291.63 L 182.83 293.81 L 195.36 253.62 L 207.90 247.23 L 220.43 77.79 L 232.97 235.29 L 245.51 224.29 L 258.04 304.94 L 270.58 337.66 L 283.12 246.28 L 295.65 255.25 L 308.19 339.02 L 320.72 348.12 L 333.26 325.31 L 345.80 348.25 L 358.33 342.01 L 370.87 286.20 L 383.41 219.40 L 395.94 165.23 L 408.48 310.64 L 421.01 281.04 L 433.55 274.80 L 446.09 281.04 L 458.62 318.65 L 471.16 328.29 L 483.70 267.33 L 496.23 299.10 L 508.77 350.83 L 521.30 338.20 L 533.84 373.51 L 546.38 365.77 L 558.91 366.58 L 571.45 375.00 L 583.99 341.73 L 596.52 328.56 L 609.06 340.11 L 621.59 342.14 L 634.13 294.08 L 646.67 337.80 L 659.20 300.46 L 671.74 337.80 L 684.28 320.28 L 696.81 262.03 L 709.35 303.45 L 721.88 306.43 L 734.42 311.46 L 746.96 358.71 L 759.49 360.61 L 772.03 338.34 L 784.57 353.55 L 797.10 336.17 L 809.64 340.78 L 822.17 313.36 L 834.71 86.61 L 847.25 178.67 L 859.78 244.52 L 872.32 60.00 L 884.86 215.19 L 897.39 370.52 L 909.93 371.06 L 922.46 359.52 L 935.00 223.61" fill="none" stroke="#69a7ff" stroke-width="4" stroke-linecap="round" stroke-linejoin="round"/>
<circle cx="935.00" cy="223.61" r="6" fill="#69a7ff"/>
<text x="927.00" y="211.61" text-anchor="end" fill="#f5f7fb" font-family="Inter, Arial, sans-serif" font-size="12" font-weight="600">22.83</text>
</svg>