<svg xmlns="http://www.w3.org/2000/svg" width="960" height="430" viewBox="0 0 960 430" role="img" aria-label="Composite score history">
<rect width="100%" height="100%" fill="#0b1020" rx="20"/>
<text x="70" y="32" fill="#f5f7fb" font-family="Inter, Arial, sans-serif" font-size="24" font-weight="700">Composite score history</text>
<text x="70" y="52" fill="#93a4c3" font-family="Inter, Arial, sans-serif" font-size="13">Trailing 64 sessions through 2025-10-23</text>
<line x1="70" x2="935" y1="375.00" y2="375.00" stroke="#27314e" stroke-width="1"/>
<text x="58" y="379.00" text-anchor="end" fill="#93a4c3" font-family="Inter, Arial, sans-serif" font-size="12">5</text>
<line x1="70" x2="935" y1="312.00" y2="312.00" stroke="#27314e" stroke-width="1"/>
<text x="58" y="316.00" text-anchor="end" fill="#93a4c3" font-family="Inter, Arial, sans-serif" font-size="12">11</text>
<line x1="70" x2="935" y1="249.00" y2="249.00" stroke="#27314e" stroke-width="1"/>
<text x="58" y="253.00" text-anchor="end" fill="#93a4c3" font-family="Inter, Arial, sans-serif" font-size="12">17</text>
<line x1="70" x2="935" y1="186.00" y2="186.00" stroke="#27314e" stroke-width="1"/>
<text x="58" y="190.00" text-anchor="end" fill="#93a4c3" font-family="Inter, Arial, sans-serif" font-size="12">23</text>
<line x1="70" x2="935" y1="123.00" y2="123.00" stroke="#27314e" stroke-width="1"/>
<text x="58" y="127.00" text-anchor="end" fill="#93a4c3" font-family="Inter, Arial, sans-serif" font-size="12">29</text>
<line x1="70" x2="935" y1="60.00" y2="60.00" stroke="#27314e" stroke-width="1"/>
<text x="58" y="64.00" text-anchor="end" fill="#93a4c3" font-family="Inter, Arial, sans-serif" font-size="12">35</text>
<text x="70.00" y="412" text-anchor="middle" fill="#93a4c3" font-family="Inter, Arial, sans-serif" font-size="12">2025-07-24</text>
<text x="509.37" y="412" text-anchor="middle" fill="#93a4c3" font-family="Inter, Arial, sans-serif" font-size="12">2025-09-09</text>
<text x="935.00" y="412" text-anchor="middle" fill="#93a4c3" font-family="Inter, Arial, sans-serif" font-size="12">2025-10-23</text>
<path d="M 70.00 257.72 L 83.73 276.72 L 97.46 276.40 L 111.19 256.98 L 124.92 244.10 L 138.65 205.57 L 152.38 73.72 L 166.11 196.28 L 179.84 187.73 L 193.57 250.44 L 207.30 276.19 L 221.03 268.80 L 234.76 229.96 L 248.49 338.37 L 262.22 334.46 L 275.95 319.79 L 289.68 309.02 L 303.41 310.61 L 317.14 235.87 L 330.87 183.93 L 344.60 141.81 L 358.33 261.84 L 372.06 231.86 L 385.79 249.49 L 399.52 267.22 L 413.25 315.67 L 426.98 268.59 L 440.71 221.19 L 454.44 245.90 L 468.17 294.46 L 481.90 276.30 L 495.63 318.00 L 509.37 337.63 L 523.10 332.67 L 536.83 339.53 L 550.56 320.85 L 564.29 317.57 L 578.02 315.88 L 591.75 307.02 L 605.48 259.83 L 619.21 308.07 L 632.94 278.20 L 646.67 295.93 L 660.40 277.35 L 674.13 217.08 L 687.86 249.27 L 701.59 251.60 L 715.32 268.06 L 729.05 321.27 L 742.78 337.95 L 756.51 305.01 L 770.24 319.58 L 783.97 285.06 L 797.70 295.09 L 811.43 264.79 L 825.16 80.69 L 838.89 152.37 L 852.62 203.46 L 866.35 60.00 L 880.08 180.66 L 893.81 375.00 L 907.54 338.05 L 921.27 304.06 L 935.00 230.70" fill="none" stroke="#69a7ff" stroke-width="4" stroke-linecap="round" stroke-linejoin="round"/>
<circle cx="935.00" cy="230.70" r="6" fill="#69a7ff"/>
</svg>