<svg xmlns="http://www.w3.org/2000/svg" width="960" height="430" viewBox="0 0 960 430" role="img" aria-label="Composite score history">
<rect width="100%" height="100%" fill="#0b1020" rx="20"/>
<text x="70" y="32" fill="#f5f7fb" font-family="Inter, Arial, sans-serif" font-size="24" font-weight="700">Composite score history</text>
<text x="70" y="52" fill="#93a4c3" font-family="Inter, Arial, sans-serif" font-size="13">Trailing 43 sessions through 2025-10-23</text>
<line x1="70" x2="935" y1="375.00" y2="375.00" stroke="#27314e" stroke-width="1"/>
<text x="58" y="379.00" text-anchor="end" fill="#93a4c3" font-family="Inter, Arial, sans-serif" font-size="12">5</text>
<line x1="70" x2="935" y1="312.00" y2="312.00" stroke="#27314e" stroke-width="1"/>
<text x="58" y="316.00" text-anchor="end" fill="#93a4c3" font-family="Inter, Arial, sans-serif" font-size="12">11</text>
<line x1="70" x2="935" y1="249.00" y2="249.00" stroke="#27314e" stroke-width="1"/>
<text x="58" y="253.00" text-anchor="end" fill="#93a4c3" font-family="Inter, Arial, sans-serif" font-size="12">17</text>
<line x1="70" x2="935" y1="186.00" y2="186.00" stroke="#27314e" stroke-width="1"/>
<text x="58" y="190.00" text-anchor="end" fill="#93a4c3" font-family="Inter, Arial, sans-serif" font-size="12">23</text>
<line x1="70" x2="935" y1="123.00" y2="123.00" stroke="#27314e" stroke-width="1"/>
<text x="58" y="127.00" text-anchor="end" fill="#93a4c3" font-family="Inter, Arial, sans-serif" font-size="12">29</text>
<line x1="70" x2="935" y1="60.00" y2="60.00" stroke="#27314e" stroke-width="1"/>
<text x="58" y="64.00" text-anchor="end" fill="#93a4c3" font-family="Inter, Arial, sans-serif" font-size="12">35</text>
<text x="70.00" y="412" text-anchor="middle" fill="#93a4c3" font-family="Inter, Arial, sans-serif" font-size="12">2025-08-22</text>
<text x="502.50" y="412" text-anchor="middle" fill="#93a4c3" font-family="Inter, Arial, sans-serif" font-size="12">2025-09-23</text>
<text x="935.00" y="412" text-anchor="middle" fill="#93a4c3" font-family="Inter, Arial, sans-serif" font-size="12">2025-10-23</text>
<path d="M 70.00 286.54 L 90.60 222.25 L 111.19 269.75 L 131.79 273.77 L 152.38 294.35 L 172.98 268.59 L 193.57 221.19 L 214.17 245.90 L 234.76 294.46 L 255.36 276.30 L 275.95 318.00 L 296.55 337.63 L 317.14 332.67 L 337.74 339.53 L 358.33 320.85 L 378.93 317.57 L 399.52 315.88 L 420.12 307.02 L 440.71 259.83 L 461.31 308.07 L 481.90 278.20 L 502.50 295.93 L 523.10 277.35 L 543.69 217.08 L 564.29 249.27 L 584.88 251.60 L 605.48 268.06 L 626.07 321.27 L 646.67 337.95 L 667.26 305.01 L 687.86 319.58 L 708.45 285.06 L 729.05 295.09 L 749.64 264.79 L 770.24 80.69 L 790.83 152.37 L 811.43 203.46 L 832.02 60.00 L 852.62 180.66 L 873.21 375.00 L 893.81 338.05 L 914.40 304.06 L 935.00 230.70" fill="none" stroke="#69a7ff" stroke-width="4" stroke-linecap="round" stroke-linejoin="round"/>
<circle cx="935.00" cy="230.70" r="6" fill="#69a7ff"/>
</svg>