<svg xmlns="http://www.w3.org/2000/svg" width="960" height="430" viewBox="0 0 960 430" role="img" aria-label="Composite score history">
<rect width="100%" height="100%" fill="#0b1020" rx="20"/>
<text x="70" y="32" fill="#f5f7fb" font-family="Inter, Arial, sans-serif" font-size="24" font-weight="700">Composite score history</text>
<text x="70" y="52" fill="#93a4c3" font-family="Inter, Arial, sans-serif" font-size="13">Trailing 57 sessions through 2025-10-23</text>
<line x1="70" x2="935" y1="375.00" y2="375.00" stroke="#27314e" stroke-width="1"/>
<text x="58" y="379.00" text-anchor="end" fill="#93a4c3" font-family="Inter, Arial, sans-serif" font-size="12">5</text>
<line x1="70" x2="935" y1="312.00" y2="312.00" stroke="#27314e" stroke-width="1"/>
<text x="58" y="316.00" text-anchor="end" fill="#93a4c3" font-family="Inter, Arial, sans-serif" font-size="12">11</text>
<line x1="70" x2="935" y1="249.00" y2="249.00" stroke="#27314e" stroke-width="1"/>
<text x="58" y="253.00" text-anchor="end" fill="#93a4c3" font-family="Inter, Arial, sans-serif" font-size="12">17</text>
<line x1="70" x2="935" y1="186.00" y2="186.00" stroke="#27314e" stroke-width="1"/>
<text x="58" y="190.00" text-anchor="end" fill="#93a4c3" font-family="Inter, Arial, sans-serif" font-size="12">23</text>
<line x1="70" x2="935" y1="123.00" y2="123.00" stroke="#27314e" stroke-width="1"/>
<text x="58" y="127.00" text-anchor="end" fill="#93a4c3" font-family="Inter, Arial, sans-serif" font-size="12">29</text>
<line x1="70" x2="935" y1="60.00" y2="60.00" stroke="#27314e" stroke-width="1"/>
<text x="58" y="64.00" text-anchor="end" fill="#93a4c3" font-family="Inter, Arial, sans-serif" font-size="12">35</text>
<text x="70.00" y="412" text-anchor="middle" fill="#93a4c3" font-family="Inter, Arial, sans-serif" font-size="12">2025-08-04</text>
<text x="502.50" y="412" text-anchor="middle" fill="#93a4c3" font-family="Inter, Arial, sans-serif" font-size="12">2025-09-12</text>
<text x="935.00" y="412" text-anchor="middle" fill="#93a4c3" font-family="Inter, Arial, sans-serif" font-size="12">2025-10-23</text>
<path d="M 70.00 270.39 L 85.45 224.04 L 100.89 284.32 L 116.34 267.43 L 131.79 245.37 L 147.23 229.96 L 162.68 338.37 L 178.12 334.46 L 193.57 319.79 L 209.02 309.02 L 224.46 310.61 L 239.91 235.87 L 255.36 183.93 L 270.80 141.81 L 286.25 261.84 L 301.70 231.86 L 317.14 249.49 L 332.59 267.22 L 348.04 315.67 L 363.48 268.59 L 378.93 221.19 L 394.38 245.90 L 409.82 294.46 L 425.27 276.30 L 440.71 318.00 L 456.16 337.63 L 471.61 332.67 L 487.05 339.53 L 502.50 320.85 L 517.95 317.57 L 533.39 315.88 L 548.84 307.02 L 564.29 259.83 L 579.73 308.07 L 595.18 278.20 L 610.62 295.93 L 626.07 277.35 L 641.52 217.08 L 656.96 249.27 L 672.41 251.60 L 687.86 268.06 L 703.30 321.27 L 718.75 337.95 L 734.20 305.01 L 749.64 319.58 L 765.09 285.06 L 780.54 295.09 L 795.98 264.79 L 811.43 80.69 L 826.88 152.37 L 842.32 203.46 L 857.77 60.00 L 873.21 180.66 L 888.66 375.00 L 904.11 338.05 L 919.55 304.06 L 935.00 230.70" fill="none" stroke="#69a7ff" stroke-width="4" stroke-linecap="round" stroke-linejoin="round"/>
<circle cx="935.00" cy="230.70" r="6" fill="#69a7ff"/>
</svg>