<svg xmlns="http://www.w3.org/2000/svg" width="960" height="430" viewBox="0 0 960 430" role="img" aria-label="Composite score history">
<rect width="100%" height="100%" fill="#0b1020" rx="20"/>
<text x="70" y="32" fill="#f5f7fb" font-family="Inter, Arial, sans-serif" font-size="24" font-weight="700">Composite score history</text>
<text x="70" y="52" fill="#93a4c3" font-family="Inter, Arial, sans-serif" font-size="13">Trailing 66 sessions through 2025-10-23</text>
<line x1="70" x2="935" y1="375.00" y2="375.00" stroke="#27314e" stroke-width="1"/>
<text x="58" y="379.00" text-anchor="end" fill="#93a4c3" font-family="Inter, Arial, sans-serif" font-size="12">5</text>
<line x1="70" x2="935" y1="312.00" y2="312.00" stroke="#27314e" stroke-width="1"/>
<text x="58" y="316.00" text-anchor="end" fill="#93a4c3" font-family="Inter, Arial, sans-serif" font-size="12">11</text>
<line x1="70" x2="935" y1="249.00" y2="249.00" stroke="#27314e" stroke-width="1"/>
<text x="58" y="253.00" text-anchor="end" fill="#93a4c3" font-family="Inter, Arial, sans-serif" font-size="12">17</text>
<line x1="70" x2="935" y1="186.00" y2="186.00" stroke="#27314e" stroke-width="1"/>
<text x="58" y="190.00" text-anchor="end" fill="#93a4c3" font-family="Inter, Arial, sans-serif" font-size="12">23</text>
<line x1="70" x2="935" y1="123.00" y2="123.00" stroke="#27314e" stroke-width="1"/>
<text x="58" y="127.00" text-anchor="end" fill="#93a4c3" font-family="Inter, Arial, sans-serif" font-size="12">29</text>
<line x1="70" x2="935" y1="60.00" y2="60.00" stroke="#27314e" stroke-width="1"/>
<text x="58" y="64.00" text-anchor="end" fill="#93a4c3" font-family="Inter, Arial, sans-serif" font-size="12">35</text>
<text x="70.00" y="412" text-anchor="middle" fill="#93a4c3" font-family="Inter, Arial, sans-serif" font-size="12">2025-07-22</text>
<text x="509.15" y="412" text-anchor="middle" fill="#93a4c3" font-family="Inter, Arial, sans-serif" font-size="12">2025-09-08</text>
<text x="935.00" y="412" text-anchor="middle" fill="#93a4c3" font-family="Inter, Arial, sans-serif" font-size="12">2025-10-23</text>
<path d="M 70.00 259.20 L 83.31 269.01 L 96.62 230.59 L 109.92 265.43 L 123.23 265.11 L 136.54 267.43 L 149.85 212.22 L 163.15 205.57 L 176.46 73.72 L 189.77 196.28 L 203.08 187.73 L 216.38 250.44 L 229.69 276.19 L 243.00 268.80 L 256.31 229.96 L 269.62 338.37 L 282.92 334.46 L 296.23 319.79 L 309.54 309.02 L 322.85 310.61 L 336.15 235.87 L 349.46 183.93 L 362.77 141.81 L 376.08 261.84 L 389.38 231.86 L 402.69 249.49 L 416.00 267.22 L 429.31 315.67 L 442.62 268.59 L 455.92 221.19 L 469.23 245.90 L 482.54 294.46 L 495.85 276.30 L 509.15 318.00 L 522.46 337.63 L 535.77 332.67 L 549.08 339.53 L 562.38 320.85 L 575.69 317.57 L 589.00 315.88 L 602.31 307.02 L 615.62 259.83 L 628.92 308.07 L 642.23 278.20 L 655.54 295.93 L 668.85 277.35 L 682.15 217.08 L 695.46 249.27 L 708.77 251.60 L 722.08 268.06 L 735.38 321.27 L 748.69 337.95 L 762.00 305.01 L 775.31 319.58 L 788.62 285.06 L 801.92 295.09 L 815.23 264.79 L 828.54 80.69 L 841.85 152.37 L 855.15 203.46 L 868.46 60.00 L 881.77 180.66 L 895.08 375.00 L 908.38 338.05 L 921.69 304.06 L 935.00 230.70" fill="none" stroke="#69a7ff" stroke-width="4" stroke-linecap="round" stroke-linejoin="round"/>
<circle cx="935.00" cy="230.70" r="6" fill="#69a7ff"/>
</svg>