<svg xmlns="http://www.w3.org/2000/svg" width="960" height="430" viewBox="0 0 960 430" role="img" aria-label="Composite score history">
<rect width="100%" height="100%" fill="#0b1020" rx="20"/>
<text x="70" y="32" fill="#f5f7fb" font-family="Inter, Arial, sans-serif" font-size="24" font-weight="700">Composite score history</text>
<text x="70" y="52" fill="#93a4c3" font-family="Inter, Arial, sans-serif" font-size="13">Trailing 58 sessions through 2026-01-23</text>
<line x1="70" x2="935" y1="375.00" y2="375.00" stroke="#27314e" stroke-width="1"/>
<text x="58" y="379.00" text-anchor="end" fill="#93a4c3" font-family="Inter, Arial, sans-serif" font-size="12">0</text>
<line x1="70" x2="935" y1="312.00" y2="312.00" stroke="#27314e" stroke-width="1"/>
<text x="58" y="316.00" text-anchor="end" fill="#93a4c3" font-family="Inter, Arial, sans-serif" font-size="12">8</text>
<line x1="70" x2="935" y1="249.00" y2="249.00" stroke="#27314e" stroke-width="1"/>
<text x="58" y="253.00" text-anchor="end" fill="#93a4c3" font-family="Inter, Arial, sans-serif" font-size="12">17</text>
<line x1="70" x2="935" y1="186.00" y2="186.00" stroke="#27314e" stroke-width="1"/>
<text x="58" y="190.00" text-anchor="end" fill="#93a4c3" font-family="Inter, Arial, sans-serif" font-size="12">25</text>
<line x1="70" x2="935" y1="123.00" y2="123.00" stroke="#27314e" stroke-width="1"/>
<text x="58" y="127.00" text-anchor="end" fill="#93a4c3" font-family="Inter, Arial, sans-serif" font-size="12">33</text>
<line x1="70" x2="935" y1="60.00" y2="60.00" stroke="#27314e" stroke-width="1"/>
<text x="58" y="64.00" text-anchor="end" fill="#93a4c3" font-family="Inter, Arial, sans-serif" font-size="12">41</text>
<text x="70.00" y="412" text-anchor="middle" fill="#93a4c3" font-family="Inter, Arial, sans-serif" font-size="12">2025-10-29</text>
<text x="510.09" y="412" text-anchor="middle" fill="#93a4c3" font-family="Inter, Arial, sans-serif" font-size="12">2025-12-11</text>
<text x="935.00" y="412" text-anchor="middle" fill="#93a4c3" font-family="Inter, Arial, sans-serif" font-size="12">2026-01-23</text>
<path d="M 70.00 274.19 L 85.18 224.40 L 100.35 221.05 L 115.53 226.15 L 130.70 176.90 L 145.88 183.68 L 161.05 184.67 L 176.23 190.93 L 191.40 255.59 L 206.58 294.63 L 221.75 209.53 L 236.93 237.06 L 252.11 167.36 L 267.28 60.00 L 282.46 70.45 L 297.63 66.18 L 312.81 146.17 L 327.98 277.24 L 343.16 326.96 L 358.33 337.79 L 373.51 375.00 L 388.68 333.06 L 403.86 308.20 L 419.04 290.89 L 434.21 264.74 L 449.39 247.28 L 464.56 278.92 L 479.74 241.33 L 494.91 272.67 L 510.09 307.67 L 525.26 264.05 L 540.44 273.13 L 555.61 273.58 L 570.79 183.07 L 585.96 209.46 L 601.14 304.77 L 616.32 329.32 L 631.49 342.21 L 646.67 374.85 L 661.84 360.82 L 677.02 332.91 L 692.19 310.11 L 707.37 254.37 L 722.54 241.41 L 737.72 250.25 L 752.89 274.96 L 768.07 271.37 L 783.25 287.00 L 798.42 289.90 L 813.60 256.43 L 828.77 234.08 L 843.95 237.06 L 859.12 246.21 L 874.30 211.90 L 889.47 84.17 L 904.65 172.78 L 919.82 214.11 L 935.00 200.15" fill="none" stroke="#69a7ff" stroke-width="4" stroke-linecap="round" stroke-linejoin="round"/>
<circle cx="935.00" cy="200.15" r="6" fill="#69a7ff"/>
</svg>