<svg xmlns="http://www.w3.org/2000/svg" width="960" height="430" viewBox="0 0 960 430" role="img" aria-label="Composite score history">
<rect width="100%" height="100%" fill="#0b1020" rx="20"/>
<text x="70" y="32" fill="#f5f7fb" font-family="Inter, Arial, sans-serif" font-size="24" font-weight="700">Composite score history</text>
<text x="70" y="52" fill="#93a4c3" font-family="Inter, Arial, sans-serif" font-size="13">Trailing 77 sessions through 2026-01-23</text>
<line x1="70" x2="935" y1="375.00" y2="375.00" stroke="#27314e" stroke-width="1"/>
<text x="58" y="379.00" text-anchor="end" fill="#93a4c3" font-family="Inter, Arial, sans-serif" font-size="12">0</text>
<line x1="70" x2="935" y1="312.00" y2="312.00" stroke="#27314e" stroke-width="1"/>
<text x="58" y="316.00" text-anchor="end" fill="#93a4c3" font-family="Inter, Arial, sans-serif" font-size="12">8</text>
<line x1="70" x2="935" y1="249.00" y2="249.00" stroke="#27314e" stroke-width="1"/>
<text x="58" y="253.00" text-anchor="end" fill="#93a4c3" font-family="Inter, Arial, sans-serif" font-size="12">17</text>
<line x1="70" x2="935" y1="186.00" y2="186.00" stroke="#27314e" stroke-width="1"/>
<text x="58" y="190.00" text-anchor="end" fill="#93a4c3" font-family="Inter, Arial, sans-serif" font-size="12">25</text>
<line x1="70" x2="935" y1="123.00" y2="123.00" stroke="#27314e" stroke-width="1"/>
<text x="58" y="127.00" text-anchor="end" fill="#93a4c3" font-family="Inter, Arial, sans-serif" font-size="12">33</text>
<line x1="70" x2="935" y1="60.00" y2="60.00" stroke="#27314e" stroke-width="1"/>
<text x="58" y="64.00" text-anchor="end" fill="#93a4c3" font-family="Inter, Arial, sans-serif" font-size="12">41</text>
<text x="70.00" y="412" text-anchor="middle" fill="#93a4c3" font-family="Inter, Arial, sans-serif" font-size="12">2025-10-01</text>
<text x="502.50" y="412" text-anchor="middle" fill="#93a4c3" font-family="Inter, Arial, sans-serif" font-size="12">2025-11-26</text>
<text x="935.00" y="412" text-anchor="middle" fill="#93a4c3" font-family="Inter, Arial, sans-serif" font-size="12">2026-01-23</text>
<path d="M 70.00 277.55 L 81.38 276.63 L 92.76 264.66 L 104.14 268.09 L 115.53 259.10 L 126.91 278.85 L 138.29 256.96 L 149.67 123.98 L 161.05 175.75 L 172.43 212.66 L 183.82 109.03 L 195.20 196.19 L 206.58 336.57 L 217.96 309.88 L 229.34 285.33 L 240.72 232.33 L 252.11 267.94 L 263.49 285.48 L 274.87 299.36 L 286.25 266.80 L 297.63 256.12 L 309.01 236.53 L 320.39 192.98 L 331.78 135.80 L 343.16 183.68 L 354.54 184.67 L 365.92 190.93 L 377.30 255.59 L 388.68 294.63 L 400.07 209.53 L 411.45 237.06 L 422.83 167.36 L 434.21 60.00 L 445.59 70.45 L 456.97 66.18 L 468.36 146.17 L 479.74 277.24 L 491.12 326.96 L 502.50 337.79 L 513.88 375.00 L 525.26 333.06 L 536.64 308.20 L 548.03 290.89 L 559.41 264.74 L 570.79 247.28 L 582.17 278.92 L 593.55 241.33 L 604.93 272.67 L 616.32 307.67 L 627.70 264.05 L 639.08 273.13 L 650.46 273.58 L 661.84 183.07 L 673.22 209.46 L 684.61 304.77 L 695.99 329.32 L 707.37 342.21 L 718.75 374.85 L 730.13 360.82 L 741.51 332.91 L 752.89 310.11 L 764.28 254.37 L 775.66 241.41 L 787.04 250.25 L 798.42 274.96 L 809.80 271.37 L 821.18 287.00 L 832.57 289.90 L 843.95 256.43 L 855.33 234.08 L 866.71 237.06 L 878.09 246.21 L 889.47 211.90 L 900.86 84.17 L 912.24 172.78 L 923.62 214.11 L 935.00 200.15" fill="none" stroke="#69a7ff" stroke-width="4" stroke-linecap="round" stroke-linejoin="round"/>
<circle cx="935.00" cy="200.15" r="6" fill="#69a7ff"/>
</svg>