<svg xmlns="http://www.w3.org/2000/svg" width="960" height="430" viewBox="0 0 960 430" role="img" aria-label="Composite score history">
<rect width="100%" height="100%" fill="#0b1020" rx="20"/>
<text x="70" y="32" fill="#f5f7fb" font-family="Inter, Arial, sans-serif" font-size="24" font-weight="700">Composite score history</text>
<text x="70" y="52" fill="#93a4c3" font-family="Inter, Arial, sans-serif" font-size="13">Trailing 71 sessions through 2026-01-23</text>
<line x1="70" x2="935" y1="375.00" y2="375.00" stroke="#27314e" stroke-width="1"/>
<text x="58" y="379.00" text-anchor="end" fill="#93a4c3" font-family="Inter, Arial, sans-serif" font-size="12">0</text>
<line x1="70" x2="935" y1="312.00" y2="312.00" stroke="#27314e" stroke-width="1"/>
<text x="58" y="316.00" text-anchor="end" fill="#93a4c3" font-family="Inter, Arial, sans-serif" font-size="12">8</text>
<line x1="70" x2="935" y1="249.00" y2="249.00" stroke="#27314e" stroke-width="1"/>
<text x="58" y="253.00" text-anchor="end" fill="#93a4c3" font-family="Inter, Arial, sans-serif" font-size="12">17</text>
<line x1="70" x2="935" y1="186.00" y2="186.00" stroke="#27314e" stroke-width="1"/>
<text x="58" y="190.00" text-anchor="end" fill="#93a4c3" font-family="Inter, Arial, sans-serif" font-size="12">25</text>
<line x1="70" x2="935" y1="123.00" y2="123.00" stroke="#27314e" stroke-width="1"/>
<text x="58" y="127.00" text-anchor="end" fill="#93a4c3" font-family="Inter, Arial, sans-serif" font-size="12">33</text>
<line x1="70" x2="935" y1="60.00" y2="60.00" stroke="#27314e" stroke-width="1"/>
<text x="58" y="64.00" text-anchor="end" fill="#93a4c3" font-family="Inter, Arial, sans-serif" font-size="12">41</text>
<text x="70.00" y="412" text-anchor="middle" fill="#93a4c3" font-family="Inter, Arial, sans-serif" font-size="12">2025-10-09</text>
<text x="502.50" y="412" text-anchor="middle" fill="#93a4c3" font-family="Inter, Arial, sans-serif" font-size="12">2025-12-02</text>
<text x="935.00" y="412" text-anchor="middle" fill="#93a4c3" font-family="Inter, Arial, sans-serif" font-size="12">2026-01-23</text>
<path d="M 70.00 274.19 L 82.36 111.78 L 94.71 179.03 L 107.07 195.35 L 119.43 120.24 L 131.79 196.19 L 144.14 336.57 L 156.50 309.88 L 168.86 285.33 L 181.21 232.33 L 193.57 267.94 L 205.93 285.48 L 218.29 299.36 L 230.64 266.80 L 243.00 256.12 L 255.36 236.53 L 267.71 192.98 L 280.07 135.80 L 292.43 183.68 L 304.79 184.67 L 317.14 190.93 L 329.50 255.59 L 341.86 294.63 L 354.21 209.53 L 366.57 237.06 L 378.93 167.36 L 391.29 60.00 L 403.64 70.45 L 416.00 66.18 L 428.36 146.17 L 440.71 277.24 L 453.07 326.96 L 465.43 337.79 L 477.79 375.00 L 490.14 333.06 L 502.50 308.20 L 514.86 290.89 L 527.21 264.74 L 539.57 247.28 L 551.93 278.92 L 564.29 241.33 L 576.64 272.67 L 589.00 307.67 L 601.36 264.05 L 613.71 273.13 L 626.07 273.58 L 638.43 183.07 L 650.79 209.46 L 663.14 304.77 L 675.50 329.32 L 687.86 342.21 L 700.21 374.85 L 712.57 360.82 L 724.93 332.91 L 737.29 310.11 L 749.64 254.37 L 762.00 241.41 L 774.36 250.25 L 786.71 274.96 L 799.07 271.37 L 811.43 287.00 L 823.79 289.90 L 836.14 256.43 L 848.50 234.08 L 860.86 237.06 L 873.21 246.21 L 885.57 211.90 L 897.93 84.17 L 910.29 172.78 L 922.64 214.11 L 935.00 200.15" fill="none" stroke="#69a7ff" stroke-width="4" stroke-linecap="round" stroke-linejoin="round"/>
<circle cx="935.00" cy="200.15" r="6" fill="#69a7ff"/>
</svg>