<svg xmlns="http://www.w3.org/2000/svg" width="960" height="430" viewBox="0 0 960 430" role="img" aria-label="Composite score history">
<rect width="100%" height="100%" fill="#0b1020" rx="20"/>
<text x="70" y="32" fill="#f5f7fb" font-family="Inter, Arial, sans-serif" font-size="24" font-weight="700">Composite score history</text>
<text x="70" y="52" fill="#93a4c3" font-family="Inter, Arial, sans-serif" font-size="13">Trailing 89 sessions through 2026-01-23</text>
<line x1="70" x2="935" y1="375.00" y2="375.00" stroke="#27314e" stroke-width="1"/>
<text x="58" y="379.00" text-anchor="end" fill="#93a4c3" font-family="Inter, Arial, sans-serif" font-size="12">0</text>
<line x1="70" x2="935" y1="312.00" y2="312.00" stroke="#27314e" stroke-width="1"/>
<text x="58" y="316.00" text-anchor="end" fill="#93a4c3" font-family="Inter, Arial, sans-serif" font-size="12">8</text>
<line x1="70" x2="935" y1="249.00" y2="249.00" stroke="#27314e" stroke-width="1"/>
<text x="58" y="253.00" text-anchor="end" fill="#93a4c3" font-family="Inter, Arial, sans-serif" font-size="12">17</text>
<line x1="70" x2="935" y1="186.00" y2="186.00" stroke="#27314e" stroke-width="1"/>
<text x="58" y="190.00" text-anchor="end" fill="#93a4c3" font-family="Inter, Arial, sans-serif" font-size="12">25</text>
<line x1="70" x2="935" y1="123.00" y2="123.00" stroke="#27314e" stroke-width="1"/>
<text x="58" y="127.00" text-anchor="end" fill="#93a4c3" font-family="Inter, Arial, sans-serif" font-size="12">33</text>
<line x1="70" x2="935" y1="60.00" y2="60.00" stroke="#27314e" stroke-width="1"/>
<text x="58" y="64.00" text-anchor="end" fill="#93a4c3" font-family="Inter, Arial, sans-serif" font-size="12">41</text>
<text x="70.00" y="412" text-anchor="middle" fill="#93a4c3" font-family="Inter, Arial, sans-serif" font-size="12">2025-09-15</text>
<text x="502.50" y="412" text-anchor="middle" fill="#93a4c3" font-family="Inter, Arial, sans-serif" font-size="12">2025-11-18</text>
<text x="935.00" y="412" text-anchor="middle" fill="#93a4c3" font-family="Inter, Arial, sans-serif" font-size="12">2026-01-23</text>
<path d="M 70.00 279.23 L 79.83 262.22 L 89.66 261.38 L 99.49 258.41 L 109.32 274.19 L 119.15 266.64 L 128.98 279.46 L 138.81 266.03 L 148.64 222.49 L 158.47 245.75 L 168.30 247.43 L 178.12 259.32 L 187.95 297.76 L 197.78 309.80 L 207.61 286.01 L 217.44 296.54 L 227.27 271.60 L 237.10 278.85 L 246.93 256.96 L 256.76 123.98 L 266.59 175.75 L 276.42 212.66 L 286.25 109.03 L 296.08 196.19 L 305.91 336.57 L 315.74 309.88 L 325.57 285.33 L 335.40 232.33 L 345.23 267.94 L 355.06 285.48 L 364.89 299.36 L 374.72 266.80 L 384.55 256.12 L 394.38 236.53 L 404.20 192.98 L 414.03 135.80 L 423.86 183.68 L 433.69 184.67 L 443.52 190.93 L 453.35 255.59 L 463.18 294.63 L 473.01 209.53 L 482.84 237.06 L 492.67 167.36 L 502.50 60.00 L 512.33 70.45 L 522.16 66.18 L 531.99 146.17 L 541.82 277.24 L 551.65 326.96 L 561.48 337.79 L 571.31 375.00 L 581.14 333.06 L 590.97 308.20 L 600.80 290.89 L 610.62 264.74 L 620.45 247.28 L 630.28 278.92 L 640.11 241.33 L 649.94 272.67 L 659.77 307.67 L 669.60 264.05 L 679.43 273.13 L 689.26 273.58 L 699.09 183.07 L 708.92 209.46 L 718.75 304.77 L 728.58 329.32 L 738.41 342.21 L 748.24 374.85 L 758.07 360.82 L 767.90 332.91 L 777.73 310.11 L 787.56 254.37 L 797.39 241.41 L 807.22 250.25 L 817.05 274.96 L 826.88 271.37 L 836.70 287.00 L 846.53 289.90 L 856.36 256.43 L 866.19 234.08 L 876.02 237.06 L 885.85 246.21 L 895.68 211.90 L 905.51 84.17 L 915.34 172.78 L 925.17 214.11 L 935.00 200.15" fill="none" stroke="#69a7ff" stroke-width="4" stroke-linecap="round" stroke-linejoin="round"/>
<circle cx="935.00" cy="200.15" r="6" fill="#69a7ff"/>
</svg>