<svg xmlns="http://www.w3.org/2000/svg" width="960" height="430" viewBox="0 0 960 430" role="img" aria-label="Composite score history">
<rect width="100%" height="100%" fill="#0b1020" rx="20"/>
<text x="70" y="32" fill="#f5f7fb" font-family="Inter, Arial, sans-serif" font-size="24" font-weight="700">Composite score history</text>
<text x="70" y="52" fill="#93a4c3" font-family="Inter, Arial, sans-serif" font-size="13">Trailing 88 sessions through 2026-01-23</text>
<line x1="70" x2="935" y1="375.00" y2="375.00" stroke="#27314e" stroke-width="1"/>
<text x="58" y="379.00" text-anchor="end" fill="#93a4c3" font-family="Inter, Arial, sans-serif" font-size="12">0</text>
<line x1="70" x2="935" y1="312.00" y2="312.00" stroke="#27314e" stroke-width="1"/>
<text x="58" y="316.00" text-anchor="end" fill="#93a4c3" font-family="Inter, Arial, sans-serif" font-size="12">8</text>
<line x1="70" x2="935" y1="249.00" y2="249.00" stroke="#27314e" stroke-width="1"/>
<text x="58" y="253.00" text-anchor="end" fill="#93a4c3" font-family="Inter, Arial, sans-serif" font-size="12">17</text>
<line x1="70" x2="935" y1="186.00" y2="186.00" stroke="#27314e" stroke-width="1"/>
<text x="58" y="190.00" text-anchor="end" fill="#93a4c3" font-family="Inter, Arial, sans-serif" font-size="12">25</text>
<line x1="70" x2="935" y1="123.00" y2="123.00" stroke="#27314e" stroke-width="1"/>
<text x="58" y="127.00" text-anchor="end" fill="#93a4c3" font-family="Inter, Arial, sans-serif" font-size="12">33</text>
<line x1="70" x2="935" y1="60.00" y2="60.00" stroke="#27314e" stroke-width="1"/>
<text x="58" y="64.00" text-anchor="end" fill="#93a4c3" font-family="Inter, Arial, sans-serif" font-size="12">41</text>
<text x="70.00" y="412" text-anchor="middle" fill="#93a4c3" font-family="Inter, Arial, sans-serif" font-size="12">2025-09-16</text>
<text x="507.47" y="412" text-anchor="middle" fill="#93a4c3" font-family="Inter, Arial, sans-serif" font-size="12">2025-11-19</text>
<text x="935.00" y="412" text-anchor="middle" fill="#93a4c3" font-family="Inter, Arial, sans-serif" font-size="12">2026-01-23</text>
<path d="M 70.00 275.72 L 79.94 267.25 L 89.89 255.59 L 99.83 271.37 L 109.77 266.72 L 119.71 279.46 L 129.66 266.03 L 139.60 222.49 L 149.54 245.75 L 159.48 247.43 L 169.43 259.32 L 179.37 297.76 L 189.31 309.80 L 199.25 286.01 L 209.20 296.54 L 219.14 271.60 L 229.08 278.85 L 239.02 256.96 L 248.97 123.98 L 258.91 175.75 L 268.85 212.66 L 278.79 109.03 L 288.74 196.19 L 298.68 336.57 L 308.62 309.88 L 318.56 285.33 L 328.51 232.33 L 338.45 267.94 L 348.39 285.48 L 358.33 299.36 L 368.28 266.80 L 378.22 256.12 L 388.16 236.53 L 398.10 192.98 L 408.05 135.80 L 417.99 183.68 L 427.93 184.67 L 437.87 190.93 L 447.82 255.59 L 457.76 294.63 L 467.70 209.53 L 477.64 237.06 L 487.59 167.36 L 497.53 60.00 L 507.47 70.45 L 517.41 66.18 L 527.36 146.17 L 537.30 277.24 L 547.24 326.96 L 557.18 337.79 L 567.13 375.00 L 577.07 333.06 L 587.01 308.20 L 596.95 290.89 L 606.90 264.74 L 616.84 247.28 L 626.78 278.92 L 636.72 241.33 L 646.67 272.67 L 656.61 307.67 L 666.55 264.05 L 676.49 273.13 L 686.44 273.58 L 696.38 183.07 L 706.32 209.46 L 716.26 304.77 L 726.21 329.32 L 736.15 342.21 L 746.09 374.85 L 756.03 360.82 L 765.98 332.91 L 775.92 310.11 L 785.86 254.37 L 795.80 241.41 L 805.75 250.25 L 815.69 274.96 L 825.63 271.37 L 835.57 287.00 L 845.52 289.90 L 855.46 256.43 L 865.40 234.08 L 875.34 237.06 L 885.29 246.21 L 895.23 211.90 L 905.17 84.17 L 915.11 172.78 L 925.06 214.11 L 935.00 200.15" fill="none" stroke="#69a7ff" stroke-width="4" stroke-linecap="round" stroke-linejoin="round"/>
<circle cx="935.00" cy="200.15" r="6" fill="#69a7ff"/>
</svg>