<svg xmlns="http://www.w3.org/2000/svg" width="960" height="430" viewBox="0 0 960 430" role="img" aria-label="Composite score history">
<rect width="100%" height="100%" fill="#0b1020" rx="20"/>
<text x="70" y="32" fill="#f5f7fb" font-family="Inter, Arial, sans-serif" font-size="24" font-weight="700">Composite score history</text>
<text x="70" y="52" fill="#93a4c3" font-family="Inter, Arial, sans-serif" font-size="13">Trailing 84 sessions through 2026-01-23</text>
<line x1="70" x2="935" y1="375.00" y2="375.00" stroke="#27314e" stroke-width="1"/>
<text x="58" y="379.00" text-anchor="end" fill="#93a4c3" font-family="Inter, Arial, sans-serif" font-size="12">0</text>
<line x1="70" x2="935" y1="312.00" y2="312.00" stroke="#27314e" stroke-width="1"/>
<text x="58" y="316.00" text-anchor="end" fill="#93a4c3" font-family="Inter, Arial, sans-serif" font-size="12">8</text>
<line x1="70" x2="935" y1="249.00" y2="249.00" stroke="#27314e" stroke-width="1"/>
<text x="58" y="253.00" text-anchor="end" fill="#93a4c3" font-family="Inter, Arial, sans-serif" font-size="12">17</text>
<line x1="70" x2="935" y1="186.00" y2="186.00" stroke="#27314e" stroke-width="1"/>
<text x="58" y="190.00" text-anchor="end" fill="#93a4c3" font-family="Inter, Arial, sans-serif" font-size="12">25</text>
<line x1="70" x2="935" y1="123.00" y2="123.00" stroke="#27314e" stroke-width="1"/>
<text x="58" y="127.00" text-anchor="end" fill="#93a4c3" font-family="Inter, Arial, sans-serif" font-size="12">33</text>
<line x1="70" x2="935" y1="60.00" y2="60.00" stroke="#27314e" stroke-width="1"/>
<text x="58" y="64.00" text-anchor="end" fill="#93a4c3" font-family="Inter, Arial, sans-serif" font-size="12">41</text>
<text x="70.00" y="412" text-anchor="middle" fill="#93a4c3" font-family="Inter, Arial, sans-serif" font-size="12">2025-09-22</text>
<text x="507.71" y="412" text-anchor="middle" fill="#93a4c3" font-family="Inter, Arial, sans-serif" font-size="12">2025-11-21</text>
<text x="935.00" y="412" text-anchor="middle" fill="#93a4c3" font-family="Inter, Arial, sans-serif" font-size="12">2026-01-23</text>
<path d="M 70.00 272.14 L 80.42 248.27 L 90.84 241.41 L 101.27 202.52 L 111.69 241.25 L 122.11 247.43 L 132.53 259.32 L 142.95 297.76 L 153.37 309.80 L 163.80 286.01 L 174.22 296.54 L 184.64 271.60 L 195.06 278.85 L 205.48 256.96 L 215.90 123.98 L 226.33 175.75 L 236.75 212.66 L 247.17 109.03 L 257.59 196.19 L 268.01 336.57 L 278.43 309.88 L 288.86 285.33 L 299.28 232.33 L 309.70 267.94 L 320.12 285.48 L 330.54 299.36 L 340.96 266.80 L 351.39 256.12 L 361.81 236.53 L 372.23 192.98 L 382.65 135.80 L 393.07 183.68 L 403.49 184.67 L 413.92 190.93 L 424.34 255.59 L 434.76 294.63 L 445.18 209.53 L 455.60 237.06 L 466.02 167.36 L 476.45 60.00 L 486.87 70.45 L 497.29 66.18 L 507.71 146.17 L 518.13 277.24 L 528.55 326.96 L 538.98 337.79 L 549.40 375.00 L 559.82 333.06 L 570.24 308.20 L 580.66 290.89 L 591.08 264.74 L 601.51 247.28 L 611.93 278.92 L 622.35 241.33 L 632.77 272.67 L 643.19 307.67 L 653.61 264.05 L 664.04 273.13 L 674.46 273.58 L 684.88 183.07 L 695.30 209.46 L 705.72 304.77 L 716.14 329.32 L 726.57 342.21 L 736.99 374.85 L 747.41 360.82 L 757.83 332.91 L 768.25 310.11 L 778.67 254.37 L 789.10 241.41 L 799.52 250.25 L 809.94 274.96 L 820.36 271.37 L 830.78 287.00 L 841.20 289.90 L 851.63 256.43 L 862.05 234.08 L 872.47 237.06 L 882.89 246.21 L 893.31 211.90 L 903.73 84.17 L 914.16 172.78 L 924.58 214.11 L 935.00 200.15" fill="none" stroke="#69a7ff" stroke-width="4" stroke-linecap="round" stroke-linejoin="round"/>
<circle cx="935.00" cy="200.15" r="6" fill="#69a7ff"/>
</svg>