<svg xmlns="http://www.w3.org/2000/svg" width="960" height="430" viewBox="0 0 960 430" role="img" aria-label="Composite score history">
<rect width="100%" height="100%" fill="#0b1020" rx="20"/>
<text x="70" y="32" fill="#f5f7fb" font-family="Inter, Arial, sans-serif" font-size="24" font-weight="700">Composite score history</text>
<text x="70" y="52" fill="#93a4c3" font-family="Inter, Arial, sans-serif" font-size="13">Trailing 82 sessions through 2026-01-14</text>
<line x1="70" x2="935" y1="375.00" y2="375.00" stroke="#27314e" stroke-width="1"/>
<text x="58" y="379.00" text-anchor="end" fill="#93a4c3" font-family="Inter, Arial, sans-serif" font-size="12">0</text>
<line x1="70" x2="935" y1="312.00" y2="312.00" stroke="#27314e" stroke-width="1"/>
<text x="58" y="316.00" text-anchor="end" fill="#93a4c3" font-family="Inter, Arial, sans-serif" font-size="12">8</text>
<line x1="70" x2="935" y1="249.00" y2="249.00" stroke="#27314e" stroke-width="1"/>
<text x="58" y="253.00" text-anchor="end" fill="#93a4c3" font-family="Inter, Arial, sans-serif" font-size="12">17</text>
<line x1="70" x2="935" y1="186.00" y2="186.00" stroke="#27314e" stroke-width="1"/>
<text x="58" y="190.00" text-anchor="end" fill="#93a4c3" font-family="Inter, Arial, sans-serif" font-size="12">25</text>
<line x1="70" x2="935" y1="123.00" y2="123.00" stroke="#27314e" stroke-width="1"/>
<text x="58" y="127.00" text-anchor="end" fill="#93a4c3" font-family="Inter, Arial, sans-serif" font-size="12">33</text>
<line x1="70" x2="935" y1="60.00" y2="60.00" stroke="#27314e" stroke-width="1"/>
<text x="58" y="64.00" text-anchor="end" fill="#93a4c3" font-family="Inter, Arial, sans-serif" font-size="12">41</text>
<text x="70.00" y="412" text-anchor="middle" fill="#93a4c3" font-family="Inter, Arial, sans-serif" font-size="12">2025-09-16</text>
<text x="507.84" y="412" text-anchor="middle" fill="#93a4c3" font-family="Inter, Arial, sans-serif" font-size="12">2025-11-14</text>
<text x="935.00" y="412" text-anchor="middle" fill="#93a4c3" font-family="Inter, Arial, sans-serif" font-size="12">2026-01-14</text>
<path d="M 70.00 275.72 L 80.68 267.25 L 91.36 255.59 L 102.04 271.37 L 112.72 266.72 L 123.40 279.46 L 134.07 266.03 L 144.75 222.49 L 155.43 245.75 L 166.11 247.43 L 176.79 259.32 L 187.47 297.76 L 198.15 309.80 L 208.83 286.01 L 219.51 296.54 L 230.19 271.60 L 240.86 278.85 L 251.54 256.96 L 262.22 123.98 L 272.90 175.75 L 283.58 212.66 L 294.26 109.03 L 304.94 196.19 L 315.62 336.57 L 326.30 309.88 L 336.98 285.33 L 347.65 232.33 L 358.33 267.94 L 369.01 285.48 L 379.69 299.36 L 390.37 266.80 L 401.05 256.12 L 411.73 236.53 L 422.41 192.98 L 433.09 135.80 L 443.77 183.68 L 454.44 184.67 L 465.12 190.93 L 475.80 255.59 L 486.48 294.63 L 497.16 209.53 L 507.84 237.06 L 518.52 167.36 L 529.20 60.00 L 539.88 70.45 L 550.56 66.18 L 561.23 146.17 L 571.91 277.24 L 582.59 326.96 L 593.27 337.79 L 603.95 375.00 L 614.63 333.06 L 625.31 308.20 L 635.99 290.89 L 646.67 264.74 L 657.35 247.28 L 668.02 278.92 L 678.70 241.33 L 689.38 272.67 L 700.06 307.67 L 710.74 264.05 L 721.42 273.13 L 732.10 273.58 L 742.78 183.07 L 753.46 209.46 L 764.14 304.77 L 774.81 329.32 L 785.49 342.21 L 796.17 374.85 L 806.85 360.82 L 817.53 332.91 L 828.21 310.11 L 838.89 254.37 L 849.57 241.41 L 860.25 250.25 L 870.93 274.96 L 881.60 271.37 L 892.28 287.00 L 902.96 289.90 L 913.64 256.43 L 924.32 234.08 L 935.00 237.06" fill="none" stroke="#69a7ff" stroke-width="4" stroke-linecap="round" stroke-linejoin="round"/>
<circle cx="935.00" cy="237.06" r="6" fill="#69a7ff"/>
</svg>