<svg xmlns="http://www.w3.org/2000/svg" width="960" height="430" viewBox="0 0 960 430" role="img" aria-label="Composite score history">
<rect width="100%" height="100%" fill="#0b1020" rx="20"/>
<text x="70" y="32" fill="#f5f7fb" font-family="Inter, Arial, sans-serif" font-size="24" font-weight="700">Composite score history</text>
<text x="70" y="52" fill="#93a4c3" font-family="Inter, Arial, sans-serif" font-size="13">Trailing 59 sessions through 2026-01-14</text>
<line x1="70" x2="935" y1="375.00" y2="375.00" stroke="#27314e" stroke-width="1"/>
<text x="58" y="379.00" text-anchor="end" fill="#93a4c3" font-family="Inter, Arial, sans-serif" font-size="12">0</text>
<line x1="70" x2="935" y1="312.00" y2="312.00" stroke="#27314e" stroke-width="1"/>
<text x="58" y="316.00" text-anchor="end" fill="#93a4c3" font-family="Inter, Arial, sans-serif" font-size="12">8</text>
<line x1="70" x2="935" y1="249.00" y2="249.00" stroke="#27314e" stroke-width="1"/>
<text x="58" y="253.00" text-anchor="end" fill="#93a4c3" font-family="Inter, Arial, sans-serif" font-size="12">17</text>
<line x1="70" x2="935" y1="186.00" y2="186.00" stroke="#27314e" stroke-width="1"/>
<text x="58" y="190.00" text-anchor="end" fill="#93a4c3" font-family="Inter, Arial, sans-serif" font-size="12">25</text>
<line x1="70" x2="935" y1="123.00" y2="123.00" stroke="#27314e" stroke-width="1"/>
<text x="58" y="127.00" text-anchor="end" fill="#93a4c3" font-family="Inter, Arial, sans-serif" font-size="12">33</text>
<line x1="70" x2="935" y1="60.00" y2="60.00" stroke="#27314e" stroke-width="1"/>
<text x="58" y="64.00" text-anchor="end" fill="#93a4c3" font-family="Inter, Arial, sans-serif" font-size="12">41</text>
<text x="70.00" y="412" text-anchor="middle" fill="#93a4c3" font-family="Inter, Arial, sans-serif" font-size="12">2025-10-20</text>
<text x="502.50" y="412" text-anchor="middle" fill="#93a4c3" font-family="Inter, Arial, sans-serif" font-size="12">2025-12-02</text>
<text x="935.00" y="412" text-anchor="middle" fill="#93a4c3" font-family="Inter, Arial, sans-serif" font-size="12">2026-01-14</text>
<path d="M 70.00 283.42 L 84.91 276.18 L 99.83 239.12 L 114.74 213.27 L 129.66 243.62 L 144.57 285.48 L 159.48 299.36 L 174.40 266.80 L 189.31 256.12 L 204.22 236.53 L 219.14 192.98 L 234.05 135.80 L 248.97 183.68 L 263.88 184.67 L 278.79 190.93 L 293.71 255.59 L 308.62 294.63 L 323.53 209.53 L 338.45 237.06 L 353.36 167.36 L 368.28 60.00 L 383.19 70.45 L 398.10 66.18 L 413.02 146.17 L 427.93 277.24 L 442.84 326.96 L 457.76 337.79 L 472.67 375.00 L 487.59 333.06 L 502.50 308.20 L 517.41 290.89 L 532.33 264.74 L 547.24 247.28 L 562.16 278.92 L 577.07 241.33 L 591.98 272.67 L 606.90 307.67 L 621.81 264.05 L 636.72 273.13 L 651.64 273.58 L 666.55 183.07 L 681.47 209.46 L 696.38 304.77 L 711.29 329.32 L 726.21 342.21 L 741.12 374.85 L 756.03 360.82 L 770.95 332.91 L 785.86 310.11 L 800.78 254.37 L 815.69 241.41 L 830.60 250.25 L 845.52 274.96 L 860.43 271.37 L 875.34 287.00 L 890.26 289.90 L 905.17 256.43 L 920.09 234.08 L 935.00 237.06" fill="none" stroke="#69a7ff" stroke-width="4" stroke-linecap="round" stroke-linejoin="round"/>
<circle cx="935.00" cy="237.06" r="6" fill="#69a7ff"/>
</svg>