<svg xmlns="http://www.w3.org/2000/svg" width="960" height="430" viewBox="0 0 960 430" role="img" aria-label="Composite score history">
<rect width="100%" height="100%" fill="#0b1020" rx="20"/>
<text x="70" y="32" fill="#f5f7fb" font-family="Inter, Arial, sans-serif" font-size="24" font-weight="700">Composite score history</text>
<text x="70" y="52" fill="#93a4c3" font-family="Inter, Arial, sans-serif" font-size="13">Trailing 90 sessions through 2026-01-14</text>
<line x1="70" x2="935" y1="375.00" y2="375.00" stroke="#27314e" stroke-width="1"/>
<text x="58" y="379.00" text-anchor="end" fill="#93a4c3" font-family="Inter, Arial, sans-serif" font-size="12">1</text>
<line x1="70" x2="935" y1="312.00" y2="312.00" stroke="#27314e" stroke-width="1"/>
<text x="58" y="316.00" text-anchor="end" fill="#93a4c3" font-family="Inter, Arial, sans-serif" font-size="12">7</text>
<line x1="70" x2="935" y1="249.00" y2="249.00" stroke="#27314e" stroke-width="1"/>
<text x="58" y="253.00" text-anchor="end" fill="#93a4c3" font-family="Inter, Arial, sans-serif" font-size="12">13</text>
<line x1="70" x2="935" y1="186.00" y2="186.00" stroke="#27314e" stroke-width="1"/>
<text x="58" y="190.00" text-anchor="end" fill="#93a4c3" font-family="Inter, Arial, sans-serif" font-size="12">20</text>
<line x1="70" x2="935" y1="123.00" y2="123.00" stroke="#27314e" stroke-width="1"/>
<text x="58" y="127.00" text-anchor="end" fill="#93a4c3" font-family="Inter, Arial, sans-serif" font-size="12">26</text>
<line x1="70" x2="935" y1="60.00" y2="60.00" stroke="#27314e" stroke-width="1"/>
<text x="58" y="64.00" text-anchor="end" fill="#93a4c3" font-family="Inter, Arial, sans-serif" font-size="12">32</text>
<text x="70.00" y="412" text-anchor="middle" fill="#93a4c3" font-family="Inter, Arial, sans-serif" font-size="12">2025-09-04</text>
<text x="507.36" y="412" text-anchor="middle" fill="#93a4c3" font-family="Inter, Arial, sans-serif" font-size="12">2025-11-07</text>
<text x="935.00" y="412" text-anchor="middle" fill="#93a4c3" font-family="Inter, Arial, sans-serif" font-size="12">2026-01-14</text>
<path d="M 70.00 356.57 L 79.72 338.64 L 89.44 362.27 L 99.16 362.88 L 108.88 360.44 L 118.60 365.43 L 128.31 314.10 L 138.03 301.37 L 147.75 340.07 L 157.47 328.56 L 167.19 259.20 L 176.91 330.19 L 186.63 266.74 L 196.35 327.44 L 206.07 298.72 L 215.79 247.59 L 225.51 284.05 L 235.22 309.21 L 244.94 281.92 L 254.66 352.09 L 264.38 350.56 L 274.10 337.42 L 283.82 350.15 L 293.54 336.61 L 303.26 322.45 L 312.98 275.70 L 322.70 139.95 L 332.42 203.29 L 342.13 254.01 L 351.85 103.28 L 361.57 223.05 L 371.29 338.13 L 381.01 340.88 L 390.73 335.28 L 400.45 108.58 L 410.17 192.19 L 419.89 222.13 L 429.61 255.44 L 439.33 142.09 L 449.04 216.02 L 458.76 211.85 L 468.48 142.90 L 478.20 81.79 L 487.92 193.52 L 497.64 227.43 L 507.36 232.93 L 517.08 324.38 L 526.80 343.73 L 536.52 261.34 L 546.24 258.90 L 555.96 168.16 L 565.67 60.00 L 575.39 61.83 L 585.11 63.16 L 594.83 164.29 L 604.55 320.41 L 614.27 335.59 L 623.99 346.18 L 633.71 352.70 L 643.43 315.22 L 653.15 299.94 L 662.87 268.17 L 672.58 234.86 L 682.30 204.72 L 692.02 307.07 L 701.74 217.65 L 711.46 268.06 L 721.18 364.31 L 730.90 322.45 L 740.62 329.17 L 750.34 321.74 L 760.06 202.99 L 769.78 236.19 L 779.49 363.90 L 789.21 370.32 L 798.93 370.93 L 808.65 375.00 L 818.37 373.98 L 828.09 369.30 L 837.81 355.75 L 847.53 281.61 L 857.25 252.08 L 866.97 241.89 L 876.69 250.34 L 886.40 266.23 L 896.12 270.92 L 905.84 244.95 L 915.56 189.54 L 925.28 193.62 L 935.00 219.38" fill="none" stroke="#69a7ff" stroke-width="4" stroke-linecap="round" stroke-linejoin="round"/>
<circle cx="935.00" cy="219.38" r="6" fill="#69a7ff"/>
<text x="927.00" y="207.38" text-anchor="end" fill="#f5f7fb" font-family="Inter, Arial, sans-serif" font-size="12" font-weight="600">16.40</text>
</svg>