<svg xmlns="http://www.w3.org/2000/svg" width="960" height="430" viewBox="0 0 960 430" role="img" aria-label="Composite score history">
<rect width="100%" height="100%" fill="#0b1020" rx="20"/>
<text x="70" y="32" fill="#f5f7fb" font-family="Inter, Arial, sans-serif" font-size="24" font-weight="700">Composite score history</text>
<text x="70" y="52" fill="#93a4c3" font-family="Inter, Arial, sans-serif" font-size="13">Trailing 87 sessions through 2026-01-14</text>
<line x1="70" x2="935" y1="375.00" y2="375.00" stroke="#27314e" stroke-width="1"/>
<text x="58" y="379.00" text-anchor="end" fill="#93a4c3" font-family="Inter, Arial, sans-serif" font-size="12">0</text>
<line x1="70" x2="935" y1="312.00" y2="312.00" stroke="#27314e" stroke-width="1"/>
<text x="58" y="316.00" text-anchor="end" fill="#93a4c3" font-family="Inter, Arial, sans-serif" font-size="12">8</text>
<line x1="70" x2="935" y1="249.00" y2="249.00" stroke="#27314e" stroke-width="1"/>
<text x="58" y="253.00" text-anchor="end" fill="#93a4c3" font-family="Inter, Arial, sans-serif" font-size="12">17</text>
<line x1="70" x2="935" y1="186.00" y2="186.00" stroke="#27314e" stroke-width="1"/>
<text x="58" y="190.00" text-anchor="end" fill="#93a4c3" font-family="Inter, Arial, sans-serif" font-size="12">25</text>
<line x1="70" x2="935" y1="123.00" y2="123.00" stroke="#27314e" stroke-width="1"/>
<text x="58" y="127.00" text-anchor="end" fill="#93a4c3" font-family="Inter, Arial, sans-serif" font-size="12">33</text>
<line x1="70" x2="935" y1="60.00" y2="60.00" stroke="#27314e" stroke-width="1"/>
<text x="58" y="64.00" text-anchor="end" fill="#93a4c3" font-family="Inter, Arial, sans-serif" font-size="12">41</text>
<text x="70.00" y="412" text-anchor="middle" fill="#93a4c3" font-family="Inter, Arial, sans-serif" font-size="12">2025-09-09</text>
<text x="502.50" y="412" text-anchor="middle" fill="#93a4c3" font-family="Inter, Arial, sans-serif" font-size="12">2025-11-10</text>
<text x="935.00" y="412" text-anchor="middle" fill="#93a4c3" font-family="Inter, Arial, sans-serif" font-size="12">2026-01-14</text>
<path d="M 70.00 280.75 L 80.06 284.72 L 90.12 307.82 L 100.17 297.37 L 110.23 304.62 L 120.29 293.87 L 130.35 287.46 L 140.41 253.38 L 150.47 288.22 L 160.52 266.64 L 170.58 279.46 L 180.64 266.03 L 190.70 222.49 L 200.76 245.75 L 210.81 247.43 L 220.87 259.32 L 230.93 297.76 L 240.99 309.80 L 251.05 286.01 L 261.10 296.54 L 271.16 271.60 L 281.22 278.85 L 291.28 256.96 L 301.34 123.98 L 311.40 175.75 L 321.45 212.66 L 331.51 109.03 L 341.57 196.19 L 351.63 336.57 L 361.69 309.88 L 371.74 285.33 L 381.80 232.33 L 391.86 267.94 L 401.92 285.48 L 411.98 299.36 L 422.03 266.80 L 432.09 256.12 L 442.15 236.53 L 452.21 192.98 L 462.27 135.80 L 472.33 183.68 L 482.38 184.67 L 492.44 190.93 L 502.50 255.59 L 512.56 294.63 L 522.62 209.53 L 532.67 237.06 L 542.73 167.36 L 552.79 60.00 L 562.85 70.45 L 572.91 66.18 L 582.97 146.17 L 593.02 277.24 L 603.08 326.96 L 613.14 337.79 L 623.20 375.00 L 633.26 333.06 L 643.31 308.20 L 653.37 290.89 L 663.43 264.74 L 673.49 247.28 L 683.55 278.92 L 693.60 241.33 L 703.66 272.67 L 713.72 307.67 L 723.78 264.05 L 733.84 273.13 L 743.90 273.58 L 753.95 183.07 L 764.01 209.46 L 774.07 304.77 L 784.13 329.32 L 794.19 342.21 L 804.24 374.85 L 814.30 360.82 L 824.36 332.91 L 834.42 310.11 L 844.48 254.37 L 854.53 241.41 L 864.59 250.25 L 874.65 274.96 L 884.71 271.37 L 894.77 287.00 L 904.83 289.90 L 914.88 256.43 L 924.94 234.08 L 935.00 237.06" fill="none" stroke="#69a7ff" stroke-width="4" stroke-linecap="round" stroke-linejoin="round"/>
<circle cx="935.00" cy="237.06" r="6" fill="#69a7ff"/>
</svg>