<svg xmlns="http://www.w3.org/2000/svg" width="960" height="430" viewBox="0 0 960 430" role="img" aria-label="Composite score history">
<rect width="100%" height="100%" fill="#0b1020" rx="20"/>
<text x="70" y="32" fill="#f5f7fb" font-family="Inter, Arial, sans-serif" font-size="24" font-weight="700">Composite score history</text>
<text x="70" y="52" fill="#93a4c3" font-family="Inter, Arial, sans-serif" font-size="13">Trailing 51 sessions through 2026-01-14</text>
<line x1="70" x2="935" y1="375.00" y2="375.00" stroke="#27314e" stroke-width="1"/>
<text x="58" y="379.00" text-anchor="end" fill="#93a4c3" font-family="Inter, Arial, sans-serif" font-size="12">0</text>
<line x1="70" x2="935" y1="312.00" y2="312.00" stroke="#27314e" stroke-width="1"/>
<text x="58" y="316.00" text-anchor="end" fill="#93a4c3" font-family="Inter, Arial, sans-serif" font-size="12">8</text>
<line x1="70" x2="935" y1="249.00" y2="249.00" stroke="#27314e" stroke-width="1"/>
<text x="58" y="253.00" text-anchor="end" fill="#93a4c3" font-family="Inter, Arial, sans-serif" font-size="12">17</text>
<line x1="70" x2="935" y1="186.00" y2="186.00" stroke="#27314e" stroke-width="1"/>
<text x="58" y="190.00" text-anchor="end" fill="#93a4c3" font-family="Inter, Arial, sans-serif" font-size="12">25</text>
<line x1="70" x2="935" y1="123.00" y2="123.00" stroke="#27314e" stroke-width="1"/>
<text x="58" y="127.00" text-anchor="end" fill="#93a4c3" font-family="Inter, Arial, sans-serif" font-size="12">33</text>
<line x1="70" x2="935" y1="60.00" y2="60.00" stroke="#27314e" stroke-width="1"/>
<text x="58" y="64.00" text-anchor="end" fill="#93a4c3" font-family="Inter, Arial, sans-serif" font-size="12">41</text>
<text x="70.00" y="412" text-anchor="middle" fill="#93a4c3" font-family="Inter, Arial, sans-serif" font-size="12">2025-10-30</text>
<text x="502.50" y="412" text-anchor="middle" fill="#93a4c3" font-family="Inter, Arial, sans-serif" font-size="12">2025-12-08</text>
<text x="935.00" y="412" text-anchor="middle" fill="#93a4c3" font-family="Inter, Arial, sans-serif" font-size="12">2026-01-14</text>
<path d="M 70.00 272.06 L 87.30 260.77 L 104.60 262.60 L 121.90 218.15 L 139.20 231.11 L 156.50 184.67 L 173.80 190.93 L 191.10 255.59 L 208.40 294.63 L 225.70 209.53 L 243.00 237.06 L 260.30 167.36 L 277.60 60.00 L 294.90 70.45 L 312.20 66.18 L 329.50 146.17 L 346.80 277.24 L 364.10 326.96 L 381.40 337.79 L 398.70 375.00 L 416.00 333.06 L 433.30 308.20 L 450.60 290.89 L 467.90 264.74 L 485.20 247.28 L 502.50 278.92 L 519.80 241.33 L 537.10 272.67 L 554.40 307.67 L 571.70 264.05 L 589.00 273.13 L 606.30 273.58 L 623.60 183.07 L 640.90 209.46 L 658.20 304.77 L 675.50 329.32 L 692.80 342.21 L 710.10 374.85 L 727.40 360.82 L 744.70 332.91 L 762.00 310.11 L 779.30 254.37 L 796.60 241.41 L 813.90 250.25 L 831.20 274.96 L 848.50 271.37 L 865.80 287.00 L 883.10 289.90 L 900.40 256.43 L 917.70 234.08 L 935.00 237.06" fill="none" stroke="#69a7ff" stroke-width="4" stroke-linecap="round" stroke-linejoin="round"/>
<circle cx="935.00" cy="237.06" r="6" fill="#69a7ff"/>
</svg>