<svg xmlns="http://www.w3.org/2000/svg" width="960" height="430" viewBox="0 0 960 430" role="img" aria-label="Composite score history">
<rect width="100%" height="100%" fill="#0b1020" rx="20"/>
<text x="70" y="32" fill="#f5f7fb" font-family="Inter, Arial, sans-serif" font-size="24" font-weight="700">Composite score history</text>
<text x="70" y="52" fill="#93a4c3" font-family="Inter, Arial, sans-serif" font-size="13">Trailing 53 sessions through 2026-01-14</text>
<line x1="70" x2="935" y1="375.00" y2="375.00" stroke="#27314e" stroke-width="1"/>
<text x="58" y="379.00" text-anchor="end" fill="#93a4c3" font-family="Inter, Arial, sans-serif" font-size="12">0</text>
<line x1="70" x2="935" y1="312.00" y2="312.00" stroke="#27314e" stroke-width="1"/>
<text x="58" y="316.00" text-anchor="end" fill="#93a4c3" font-family="Inter, Arial, sans-serif" font-size="12">8</text>
<line x1="70" x2="935" y1="249.00" y2="249.00" stroke="#27314e" stroke-width="1"/>
<text x="58" y="253.00" text-anchor="end" fill="#93a4c3" font-family="Inter, Arial, sans-serif" font-size="12">17</text>
<line x1="70" x2="935" y1="186.00" y2="186.00" stroke="#27314e" stroke-width="1"/>
<text x="58" y="190.00" text-anchor="end" fill="#93a4c3" font-family="Inter, Arial, sans-serif" font-size="12">25</text>
<line x1="70" x2="935" y1="123.00" y2="123.00" stroke="#27314e" stroke-width="1"/>
<text x="58" y="127.00" text-anchor="end" fill="#93a4c3" font-family="Inter, Arial, sans-serif" font-size="12">33</text>
<line x1="70" x2="935" y1="60.00" y2="60.00" stroke="#27314e" stroke-width="1"/>
<text x="58" y="64.00" text-anchor="end" fill="#93a4c3" font-family="Inter, Arial, sans-serif" font-size="12">41</text>
<text x="70.00" y="412" text-anchor="middle" fill="#93a4c3" font-family="Inter, Arial, sans-serif" font-size="12">2025-10-28</text>
<text x="502.50" y="412" text-anchor="middle" fill="#93a4c3" font-family="Inter, Arial, sans-serif" font-size="12">2025-12-05</text>
<text x="935.00" y="412" text-anchor="middle" fill="#93a4c3" font-family="Inter, Arial, sans-serif" font-size="12">2026-01-14</text>
<path d="M 70.00 284.34 L 86.63 229.97 L 103.27 180.25 L 119.90 176.97 L 136.54 182.00 L 153.17 135.80 L 169.81 183.68 L 186.44 184.67 L 203.08 190.93 L 219.71 255.59 L 236.35 294.63 L 252.98 209.53 L 269.62 237.06 L 286.25 167.36 L 302.88 60.00 L 319.52 70.45 L 336.15 66.18 L 352.79 146.17 L 369.42 277.24 L 386.06 326.96 L 402.69 337.79 L 419.33 375.00 L 435.96 333.06 L 452.60 308.20 L 469.23 290.89 L 485.87 264.74 L 502.50 247.28 L 519.13 278.92 L 535.77 241.33 L 552.40 272.67 L 569.04 307.67 L 585.67 264.05 L 602.31 273.13 L 618.94 273.58 L 635.58 183.07 L 652.21 209.46 L 668.85 304.77 L 685.48 329.32 L 702.12 342.21 L 718.75 374.85 L 735.38 360.82 L 752.02 332.91 L 768.65 310.11 L 785.29 254.37 L 801.92 241.41 L 818.56 250.25 L 835.19 274.96 L 851.83 271.37 L 868.46 287.00 L 885.10 289.90 L 901.73 256.43 L 918.37 234.08 L 935.00 237.06" fill="none" stroke="#69a7ff" stroke-width="4" stroke-linecap="round" stroke-linejoin="round"/>
<circle cx="935.00" cy="237.06" r="6" fill="#69a7ff"/>
</svg>