<svg xmlns="http://www.w3.org/2000/svg" width="960" height="430" viewBox="0 0 960 430" role="img" aria-label="Composite score history">
<rect width="100%" height="100%" fill="#0b1020" rx="20"/>
<text x="70" y="32" fill="#f5f7fb" font-family="Inter, Arial, sans-serif" font-size="24" font-weight="700">Composite score history</text>
<text x="70" y="52" fill="#93a4c3" font-family="Inter, Arial, sans-serif" font-size="13">Trailing 78 sessions through 2026-01-14</text>
<line x1="70" x2="935" y1="375.00" y2="375.00" stroke="#27314e" stroke-width="1"/>
<text x="58" y="379.00" text-anchor="end" fill="#93a4c3" font-family="Inter, Arial, sans-serif" font-size="12">0</text>
<line x1="70" x2="935" y1="312.00" y2="312.00" stroke="#27314e" stroke-width="1"/>
<text x="58" y="316.00" text-anchor="end" fill="#93a4c3" font-family="Inter, Arial, sans-serif" font-size="12">8</text>
<line x1="70" x2="935" y1="249.00" y2="249.00" stroke="#27314e" stroke-width="1"/>
<text x="58" y="253.00" text-anchor="end" fill="#93a4c3" font-family="Inter, Arial, sans-serif" font-size="12">17</text>
<line x1="70" x2="935" y1="186.00" y2="186.00" stroke="#27314e" stroke-width="1"/>
<text x="58" y="190.00" text-anchor="end" fill="#93a4c3" font-family="Inter, Arial, sans-serif" font-size="12">25</text>
<line x1="70" x2="935" y1="123.00" y2="123.00" stroke="#27314e" stroke-width="1"/>
<text x="58" y="127.00" text-anchor="end" fill="#93a4c3" font-family="Inter, Arial, sans-serif" font-size="12">33</text>
<line x1="70" x2="935" y1="60.00" y2="60.00" stroke="#27314e" stroke-width="1"/>
<text x="58" y="64.00" text-anchor="end" fill="#93a4c3" font-family="Inter, Arial, sans-serif" font-size="12">41</text>
<text x="70.00" y="412" text-anchor="middle" fill="#93a4c3" font-family="Inter, Arial, sans-serif" font-size="12">2025-09-22</text>
<text x="508.12" y="412" text-anchor="middle" fill="#93a4c3" font-family="Inter, Arial, sans-serif" font-size="12">2025-11-18</text>
<text x="935.00" y="412" text-anchor="middle" fill="#93a4c3" font-family="Inter, Arial, sans-serif" font-size="12">2026-01-14</text>
<path d="M 70.00 272.14 L 81.23 248.27 L 92.47 241.41 L 103.70 202.52 L 114.94 241.25 L 126.17 247.43 L 137.40 259.32 L 148.64 297.76 L 159.87 309.80 L 171.10 286.01 L 182.34 296.54 L 193.57 271.60 L 204.81 278.85 L 216.04 256.96 L 227.27 123.98 L 238.51 175.75 L 249.74 212.66 L 260.97 109.03 L 272.21 196.19 L 283.44 336.57 L 294.68 309.88 L 305.91 285.33 L 317.14 232.33 L 328.38 267.94 L 339.61 285.48 L 350.84 299.36 L 362.08 266.80 L 373.31 256.12 L 384.55 236.53 L 395.78 192.98 L 407.01 135.80 L 418.25 183.68 L 429.48 184.67 L 440.71 190.93 L 451.95 255.59 L 463.18 294.63 L 474.42 209.53 L 485.65 237.06 L 496.88 167.36 L 508.12 60.00 L 519.35 70.45 L 530.58 66.18 L 541.82 146.17 L 553.05 277.24 L 564.29 326.96 L 575.52 337.79 L 586.75 375.00 L 597.99 333.06 L 609.22 308.20 L 620.45 290.89 L 631.69 264.74 L 642.92 247.28 L 654.16 278.92 L 665.39 241.33 L 676.62 272.67 L 687.86 307.67 L 699.09 264.05 L 710.32 273.13 L 721.56 273.58 L 732.79 183.07 L 744.03 209.46 L 755.26 304.77 L 766.49 329.32 L 777.73 342.21 L 788.96 374.85 L 800.19 360.82 L 811.43 332.91 L 822.66 310.11 L 833.90 254.37 L 845.13 241.41 L 856.36 250.25 L 867.60 274.96 L 878.83 271.37 L 890.06 287.00 L 901.30 289.90 L 912.53 256.43 L 923.77 234.08 L 935.00 237.06" fill="none" stroke="#69a7ff" stroke-width="4" stroke-linecap="round" stroke-linejoin="round"/>
<circle cx="935.00" cy="237.06" r="6" fill="#69a7ff"/>
</svg>