<svg xmlns="http://www.w3.org/2000/svg" width="960" height="430" viewBox="0 0 960 430" role="img" aria-label="Composite score history">
<rect width="100%" height="100%" fill="#0b1020" rx="20"/>
<text x="70" y="32" fill="#f5f7fb" font-family="Inter, Arial, sans-serif" font-size="24" font-weight="700">Composite score history</text>
<text x="70" y="52" fill="#93a4c3" font-family="Inter, Arial, sans-serif" font-size="13">Trailing 86 sessions through 2026-01-14</text>
<line x1="70" x2="935" y1="375.00" y2="375.00" stroke="#27314e" stroke-width="1"/>
<text x="58" y="379.00" text-anchor="end" fill="#93a4c3" font-family="Inter, Arial, sans-serif" font-size="12">0</text>
<line x1="70" x2="935" y1="312.00" y2="312.00" stroke="#27314e" stroke-width="1"/>
<text x="58" y="316.00" text-anchor="end" fill="#93a4c3" font-family="Inter, Arial, sans-serif" font-size="12">8</text>
<line x1="70" x2="935" y1="249.00" y2="249.00" stroke="#27314e" stroke-width="1"/>
<text x="58" y="253.00" text-anchor="end" fill="#93a4c3" font-family="Inter, Arial, sans-serif" font-size="12">17</text>
<line x1="70" x2="935" y1="186.00" y2="186.00" stroke="#27314e" stroke-width="1"/>
<text x="58" y="190.00" text-anchor="end" fill="#93a4c3" font-family="Inter, Arial, sans-serif" font-size="12">25</text>
<line x1="70" x2="935" y1="123.00" y2="123.00" stroke="#27314e" stroke-width="1"/>
<text x="58" y="127.00" text-anchor="end" fill="#93a4c3" font-family="Inter, Arial, sans-serif" font-size="12">33</text>
<line x1="70" x2="935" y1="60.00" y2="60.00" stroke="#27314e" stroke-width="1"/>
<text x="58" y="64.00" text-anchor="end" fill="#93a4c3" font-family="Inter, Arial, sans-serif" font-size="12">41</text>
<text x="70.00" y="412" text-anchor="middle" fill="#93a4c3" font-family="Inter, Arial, sans-serif" font-size="12">2025-09-10</text>
<text x="507.59" y="412" text-anchor="middle" fill="#93a4c3" font-family="Inter, Arial, sans-serif" font-size="12">2025-11-12</text>
<text x="935.00" y="412" text-anchor="middle" fill="#93a4c3" font-family="Inter, Arial, sans-serif" font-size="12">2026-01-14</text>
<path d="M 70.00 281.21 L 80.18 302.10 L 90.35 287.84 L 100.53 301.11 L 110.71 286.47 L 120.88 287.46 L 131.06 253.38 L 141.24 288.22 L 151.41 266.64 L 161.59 279.46 L 171.76 266.03 L 181.94 222.49 L 192.12 245.75 L 202.29 247.43 L 212.47 259.32 L 222.65 297.76 L 232.82 309.80 L 243.00 286.01 L 253.18 296.54 L 263.35 271.60 L 273.53 278.85 L 283.71 256.96 L 293.88 123.98 L 304.06 175.75 L 314.24 212.66 L 324.41 109.03 L 334.59 196.19 L 344.76 336.57 L 354.94 309.88 L 365.12 285.33 L 375.29 232.33 L 385.47 267.94 L 395.65 285.48 L 405.82 299.36 L 416.00 266.80 L 426.18 256.12 L 436.35 236.53 L 446.53 192.98 L 456.71 135.80 L 466.88 183.68 L 477.06 184.67 L 487.24 190.93 L 497.41 255.59 L 507.59 294.63 L 517.76 209.53 L 527.94 237.06 L 538.12 167.36 L 548.29 60.00 L 558.47 70.45 L 568.65 66.18 L 578.82 146.17 L 589.00 277.24 L 599.18 326.96 L 609.35 337.79 L 619.53 375.00 L 629.71 333.06 L 639.88 308.20 L 650.06 290.89 L 660.24 264.74 L 670.41 247.28 L 680.59 278.92 L 690.76 241.33 L 700.94 272.67 L 711.12 307.67 L 721.29 264.05 L 731.47 273.13 L 741.65 273.58 L 751.82 183.07 L 762.00 209.46 L 772.18 304.77 L 782.35 329.32 L 792.53 342.21 L 802.71 374.85 L 812.88 360.82 L 823.06 332.91 L 833.24 310.11 L 843.41 254.37 L 853.59 241.41 L 863.76 250.25 L 873.94 274.96 L 884.12 271.37 L 894.29 287.00 L 904.47 289.90 L 914.65 256.43 L 924.82 234.08 L 935.00 237.06" fill="none" stroke="#69a7ff" stroke-width="4" stroke-linecap="round" stroke-linejoin="round"/>
<circle cx="935.00" cy="237.06" r="6" fill="#69a7ff"/>
</svg>