<svg xmlns="http://www.w3.org/2000/svg" width="960" height="430" viewBox="0 0 960 430" role="img" aria-label="Composite score history">
<rect width="100%" height="100%" fill="#0b1020" rx="20"/>
<text x="70" y="32" fill="#f5f7fb" font-family="Inter, Arial, sans-serif" font-size="24" font-weight="700">Composite score history</text>
<text x="70" y="52" fill="#93a4c3" font-family="Inter, Arial, sans-serif" font-size="13">Trailing 82 sessions through 2026-01-06</text>
<line x1="70" x2="935" y1="375.00" y2="375.00" stroke="#27314e" stroke-width="1"/>
<text x="58" y="379.00" text-anchor="end" fill="#93a4c3" font-family="Inter, Arial, sans-serif" font-size="12">0</text>
<line x1="70" x2="935" y1="312.00" y2="312.00" stroke="#27314e" stroke-width="1"/>
<text x="58" y="316.00" text-anchor="end" fill="#93a4c3" font-family="Inter, Arial, sans-serif" font-size="12">8</text>
<line x1="70" x2="935" y1="249.00" y2="249.00" stroke="#27314e" stroke-width="1"/>
<text x="58" y="253.00" text-anchor="end" fill="#93a4c3" font-family="Inter, Arial, sans-serif" font-size="12">17</text>
<line x1="70" x2="935" y1="186.00" y2="186.00" stroke="#27314e" stroke-width="1"/>
<text x="58" y="190.00" text-anchor="end" fill="#93a4c3" font-family="Inter, Arial, sans-serif" font-size="12">25</text>
<line x1="70" x2="935" y1="123.00" y2="123.00" stroke="#27314e" stroke-width="1"/>
<text x="58" y="127.00" text-anchor="end" fill="#93a4c3" font-family="Inter, Arial, sans-serif" font-size="12">33</text>
<line x1="70" x2="935" y1="60.00" y2="60.00" stroke="#27314e" stroke-width="1"/>
<text x="58" y="64.00" text-anchor="end" fill="#93a4c3" font-family="Inter, Arial, sans-serif" font-size="12">41</text>
<text x="70.00" y="412" text-anchor="middle" fill="#93a4c3" font-family="Inter, Arial, sans-serif" font-size="12">2025-09-08</text>
<text x="507.84" y="412" text-anchor="middle" fill="#93a4c3" font-family="Inter, Arial, sans-serif" font-size="12">2025-11-05</text>
<text x="935.00" y="412" text-anchor="middle" fill="#93a4c3" font-family="Inter, Arial, sans-serif" font-size="12">2026-01-06</text>
<path d="M 70.00 285.10 L 80.68 262.98 L 91.36 275.03 L 102.04 303.86 L 112.72 283.50 L 123.40 295.09 L 134.07 293.87 L 144.75 287.46 L 155.43 253.38 L 166.11 288.22 L 176.79 266.64 L 187.47 279.46 L 198.15 266.03 L 208.83 222.49 L 219.51 245.75 L 230.19 247.43 L 240.86 259.32 L 251.54 297.76 L 262.22 309.80 L 272.90 286.01 L 283.58 296.54 L 294.26 271.60 L 304.94 278.85 L 315.62 256.96 L 326.30 123.98 L 336.98 175.75 L 347.65 212.66 L 358.33 109.03 L 369.01 196.19 L 379.69 336.57 L 390.37 309.88 L 401.05 285.33 L 411.73 232.33 L 422.41 267.94 L 433.09 285.48 L 443.77 299.36 L 454.44 266.80 L 465.12 256.12 L 475.80 236.53 L 486.48 192.98 L 497.16 135.80 L 507.84 183.68 L 518.52 184.67 L 529.20 190.93 L 539.88 255.59 L 550.56 294.63 L 561.23 209.53 L 571.91 237.06 L 582.59 167.36 L 593.27 60.00 L 603.95 70.45 L 614.63 66.18 L 625.31 146.17 L 635.99 277.24 L 646.67 326.96 L 657.35 337.79 L 668.02 375.00 L 678.70 333.06 L 689.38 308.20 L 700.06 290.89 L 710.74 264.74 L 721.42 247.28 L 732.10 278.92 L 742.78 241.33 L 753.46 272.67 L 764.14 307.67 L 774.81 264.05 L 785.49 273.13 L 796.17 273.58 L 806.85 183.07 L 817.53 209.46 L 828.21 304.77 L 838.89 329.32 L 849.57 342.21 L 860.25 374.85 L 870.93 360.82 L 881.60 332.91 L 892.28 310.11 L 902.96 254.37 L 913.64 241.41 L 924.32 250.25 L 935.00 274.96" fill="none" stroke="#69a7ff" stroke-width="4" stroke-linecap="round" stroke-linejoin="round"/>
<circle cx="935.00" cy="274.96" r="6" fill="#69a7ff"/>
</svg>