<svg xmlns="http://www.w3.org/2000/svg" width="960" height="430" viewBox="0 0 960 430" role="img" aria-label="Composite score history">
<rect width="100%" height="100%" fill="#0b1020" rx="20"/>
<text x="70" y="32" fill="#f5f7fb" font-family="Inter, Arial, sans-serif" font-size="24" font-weight="700">Composite score history</text>
<text x="70" y="52" fill="#93a4c3" font-family="Inter, Arial, sans-serif" font-size="13">Trailing 71 sessions through 2026-01-06</text>
<line x1="70" x2="935" y1="375.00" y2="375.00" stroke="#27314e" stroke-width="1"/>
<text x="58" y="379.00" text-anchor="end" fill="#93a4c3" font-family="Inter, Arial, sans-serif" font-size="12">0</text>
<line x1="70" x2="935" y1="312.00" y2="312.00" stroke="#27314e" stroke-width="1"/>
<text x="58" y="316.00" text-anchor="end" fill="#93a4c3" font-family="Inter, Arial, sans-serif" font-size="12">8</text>
<line x1="70" x2="935" y1="249.00" y2="249.00" stroke="#27314e" stroke-width="1"/>
<text x="58" y="253.00" text-anchor="end" fill="#93a4c3" font-family="Inter, Arial, sans-serif" font-size="12">17</text>
<line x1="70" x2="935" y1="186.00" y2="186.00" stroke="#27314e" stroke-width="1"/>
<text x="58" y="190.00" text-anchor="end" fill="#93a4c3" font-family="Inter, Arial, sans-serif" font-size="12">25</text>
<line x1="70" x2="935" y1="123.00" y2="123.00" stroke="#27314e" stroke-width="1"/>
<text x="58" y="127.00" text-anchor="end" fill="#93a4c3" font-family="Inter, Arial, sans-serif" font-size="12">33</text>
<line x1="70" x2="935" y1="60.00" y2="60.00" stroke="#27314e" stroke-width="1"/>
<text x="58" y="64.00" text-anchor="end" fill="#93a4c3" font-family="Inter, Arial, sans-serif" font-size="12">41</text>
<text x="70.00" y="412" text-anchor="middle" fill="#93a4c3" font-family="Inter, Arial, sans-serif" font-size="12">2025-09-23</text>
<text x="502.50" y="412" text-anchor="middle" fill="#93a4c3" font-family="Inter, Arial, sans-serif" font-size="12">2025-11-13</text>
<text x="935.00" y="412" text-anchor="middle" fill="#93a4c3" font-family="Inter, Arial, sans-serif" font-size="12">2026-01-06</text>
<path d="M 70.00 273.13 L 82.36 250.71 L 94.71 202.75 L 107.07 237.75 L 119.43 242.93 L 131.79 259.32 L 144.14 297.76 L 156.50 309.80 L 168.86 286.01 L 181.21 296.54 L 193.57 271.60 L 205.93 278.85 L 218.29 256.96 L 230.64 123.98 L 243.00 175.75 L 255.36 212.66 L 267.71 109.03 L 280.07 196.19 L 292.43 336.57 L 304.79 309.88 L 317.14 285.33 L 329.50 232.33 L 341.86 267.94 L 354.21 285.48 L 366.57 299.36 L 378.93 266.80 L 391.29 256.12 L 403.64 236.53 L 416.00 192.98 L 428.36 135.80 L 440.71 183.68 L 453.07 184.67 L 465.43 190.93 L 477.79 255.59 L 490.14 294.63 L 502.50 209.53 L 514.86 237.06 L 527.21 167.36 L 539.57 60.00 L 551.93 70.45 L 564.29 66.18 L 576.64 146.17 L 589.00 277.24 L 601.36 326.96 L 613.71 337.79 L 626.07 375.00 L 638.43 333.06 L 650.79 308.20 L 663.14 290.89 L 675.50 264.74 L 687.86 247.28 L 700.21 278.92 L 712.57 241.33 L 724.93 272.67 L 737.29 307.67 L 749.64 264.05 L 762.00 273.13 L 774.36 273.58 L 786.71 183.07 L 799.07 209.46 L 811.43 304.77 L 823.79 329.32 L 836.14 342.21 L 848.50 374.85 L 860.86 360.82 L 873.21 332.91 L 885.57 310.11 L 897.93 254.37 L 910.29 241.41 L 922.64 250.25 L 935.00 274.96" fill="none" stroke="#69a7ff" stroke-width="4" stroke-linecap="round" stroke-linejoin="round"/>
<circle cx="935.00" cy="274.96" r="6" fill="#69a7ff"/>
</svg>