<svg xmlns="http://www.w3.org/2000/svg" width="960" height="430" viewBox="0 0 960 430" role="img" aria-label="Composite score history">
<rect width="100%" height="100%" fill="#0b1020" rx="20"/>
<text x="70" y="32" fill="#f5f7fb" font-family="Inter, Arial, sans-serif" font-size="24" font-weight="700">Composite score history</text>
<text x="70" y="52" fill="#93a4c3" font-family="Inter, Arial, sans-serif" font-size="13">Trailing 69 sessions through 2026-01-06</text>
<line x1="70" x2="935" y1="375.00" y2="375.00" stroke="#27314e" stroke-width="1"/>
<text x="58" y="379.00" text-anchor="end" fill="#93a4c3" font-family="Inter, Arial, sans-serif" font-size="12">0</text>
<line x1="70" x2="935" y1="312.00" y2="312.00" stroke="#27314e" stroke-width="1"/>
<text x="58" y="316.00" text-anchor="end" fill="#93a4c3" font-family="Inter, Arial, sans-serif" font-size="12">8</text>
<line x1="70" x2="935" y1="249.00" y2="249.00" stroke="#27314e" stroke-width="1"/>
<text x="58" y="253.00" text-anchor="end" fill="#93a4c3" font-family="Inter, Arial, sans-serif" font-size="12">17</text>
<line x1="70" x2="935" y1="186.00" y2="186.00" stroke="#27314e" stroke-width="1"/>
<text x="58" y="190.00" text-anchor="end" fill="#93a4c3" font-family="Inter, Arial, sans-serif" font-size="12">25</text>
<line x1="70" x2="935" y1="123.00" y2="123.00" stroke="#27314e" stroke-width="1"/>
<text x="58" y="127.00" text-anchor="end" fill="#93a4c3" font-family="Inter, Arial, sans-serif" font-size="12">33</text>
<line x1="70" x2="935" y1="60.00" y2="60.00" stroke="#27314e" stroke-width="1"/>
<text x="58" y="64.00" text-anchor="end" fill="#93a4c3" font-family="Inter, Arial, sans-serif" font-size="12">41</text>
<text x="70.00" y="412" text-anchor="middle" fill="#93a4c3" font-family="Inter, Arial, sans-serif" font-size="12">2025-09-25</text>
<text x="502.50" y="412" text-anchor="middle" fill="#93a4c3" font-family="Inter, Arial, sans-serif" font-size="12">2025-11-14</text>
<text x="935.00" y="412" text-anchor="middle" fill="#93a4c3" font-family="Inter, Arial, sans-serif" font-size="12">2026-01-06</text>
<path d="M 70.00 266.95 L 82.72 287.08 L 95.44 288.45 L 108.16 295.77 L 120.88 308.28 L 133.60 309.80 L 146.32 286.01 L 159.04 296.54 L 171.76 271.60 L 184.49 278.85 L 197.21 256.96 L 209.93 123.98 L 222.65 175.75 L 235.37 212.66 L 248.09 109.03 L 260.81 196.19 L 273.53 336.57 L 286.25 309.88 L 298.97 285.33 L 311.69 232.33 L 324.41 267.94 L 337.13 285.48 L 349.85 299.36 L 362.57 266.80 L 375.29 256.12 L 388.01 236.53 L 400.74 192.98 L 413.46 135.80 L 426.18 183.68 L 438.90 184.67 L 451.62 190.93 L 464.34 255.59 L 477.06 294.63 L 489.78 209.53 L 502.50 237.06 L 515.22 167.36 L 527.94 60.00 L 540.66 70.45 L 553.38 66.18 L 566.10 146.17 L 578.82 277.24 L 591.54 326.96 L 604.26 337.79 L 616.99 375.00 L 629.71 333.06 L 642.43 308.20 L 655.15 290.89 L 667.87 264.74 L 680.59 247.28 L 693.31 278.92 L 706.03 241.33 L 718.75 272.67 L 731.47 307.67 L 744.19 264.05 L 756.91 273.13 L 769.63 273.58 L 782.35 183.07 L 795.07 209.46 L 807.79 304.77 L 820.51 329.32 L 833.24 342.21 L 845.96 374.85 L 858.68 360.82 L 871.40 332.91 L 884.12 310.11 L 896.84 254.37 L 909.56 241.41 L 922.28 250.25 L 935.00 274.96" fill="none" stroke="#69a7ff" stroke-width="4" stroke-linecap="round" stroke-linejoin="round"/>
<circle cx="935.00" cy="274.96" r="6" fill="#69a7ff"/>
</svg>