<svg xmlns="http://www.w3.org/2000/svg" width="960" height="430" viewBox="0 0 960 430" role="img" aria-label="Composite score history">
<rect width="100%" height="100%" fill="#0b1020" rx="20"/>
<text x="70" y="32" fill="#f5f7fb" font-family="Inter, Arial, sans-serif" font-size="24" font-weight="700">Composite score history</text>
<text x="70" y="52" fill="#93a4c3" font-family="Inter, Arial, sans-serif" font-size="13">Trailing 88 sessions through 2026-01-06</text>
<line x1="70" x2="935" y1="375.00" y2="375.00" stroke="#27314e" stroke-width="1"/>
<text x="58" y="379.00" text-anchor="end" fill="#93a4c3" font-family="Inter, Arial, sans-serif" font-size="12">0</text>
<line x1="70" x2="935" y1="312.00" y2="312.00" stroke="#27314e" stroke-width="1"/>
<text x="58" y="316.00" text-anchor="end" fill="#93a4c3" font-family="Inter, Arial, sans-serif" font-size="12">8</text>
<line x1="70" x2="935" y1="249.00" y2="249.00" stroke="#27314e" stroke-width="1"/>
<text x="58" y="253.00" text-anchor="end" fill="#93a4c3" font-family="Inter, Arial, sans-serif" font-size="12">17</text>
<line x1="70" x2="935" y1="186.00" y2="186.00" stroke="#27314e" stroke-width="1"/>
<text x="58" y="190.00" text-anchor="end" fill="#93a4c3" font-family="Inter, Arial, sans-serif" font-size="12">25</text>
<line x1="70" x2="935" y1="123.00" y2="123.00" stroke="#27314e" stroke-width="1"/>
<text x="58" y="127.00" text-anchor="end" fill="#93a4c3" font-family="Inter, Arial, sans-serif" font-size="12">33</text>
<line x1="70" x2="935" y1="60.00" y2="60.00" stroke="#27314e" stroke-width="1"/>
<text x="58" y="64.00" text-anchor="end" fill="#93a4c3" font-family="Inter, Arial, sans-serif" font-size="12">41</text>
<text x="70.00" y="412" text-anchor="middle" fill="#93a4c3" font-family="Inter, Arial, sans-serif" font-size="12">2025-08-28</text>
<text x="507.47" y="412" text-anchor="middle" fill="#93a4c3" font-family="Inter, Arial, sans-serif" font-size="12">2025-10-31</text>
<text x="935.00" y="412" text-anchor="middle" fill="#93a4c3" font-family="Inter, Arial, sans-serif" font-size="12">2026-01-06</text>
<path d="M 70.00 273.36 L 79.94 240.72 L 89.89 174.15 L 99.83 220.97 L 109.77 269.39 L 119.71 265.27 L 129.66 295.39 L 139.60 309.58 L 149.54 305.99 L 159.48 310.95 L 169.43 297.45 L 179.37 295.09 L 189.31 293.87 L 199.25 287.46 L 209.20 253.38 L 219.14 288.22 L 229.08 266.64 L 239.02 279.46 L 248.97 266.03 L 258.91 222.49 L 268.85 245.75 L 278.79 247.43 L 288.74 259.32 L 298.68 297.76 L 308.62 309.80 L 318.56 286.01 L 328.51 296.54 L 338.45 271.60 L 348.39 278.85 L 358.33 256.96 L 368.28 123.98 L 378.22 175.75 L 388.16 212.66 L 398.10 109.03 L 408.05 196.19 L 417.99 336.57 L 427.93 309.88 L 437.87 285.33 L 447.82 232.33 L 457.76 267.94 L 467.70 285.48 L 477.64 299.36 L 487.59 266.80 L 497.53 256.12 L 507.47 236.53 L 517.41 192.98 L 527.36 135.80 L 537.30 183.68 L 547.24 184.67 L 557.18 190.93 L 567.13 255.59 L 577.07 294.63 L 587.01 209.53 L 596.95 237.06 L 606.90 167.36 L 616.84 60.00 L 626.78 70.45 L 636.72 66.18 L 646.67 146.17 L 656.61 277.24 L 666.55 326.96 L 676.49 337.79 L 686.44 375.00 L 696.38 333.06 L 706.32 308.20 L 716.26 290.89 L 726.21 264.74 L 736.15 247.28 L 746.09 278.92 L 756.03 241.33 L 765.98 272.67 L 775.92 307.67 L 785.86 264.05 L 795.80 273.13 L 805.75 273.58 L 815.69 183.07 L 825.63 209.46 L 835.57 304.77 L 845.52 329.32 L 855.46 342.21 L 865.40 374.85 L 875.34 360.82 L 885.29 332.91 L 895.23 310.11 L 905.17 254.37 L 915.11 241.41 L 925.06 250.25 L 935.00 274.96" fill="none" stroke="#69a7ff" stroke-width="4" stroke-linecap="round" stroke-linejoin="round"/>
<circle cx="935.00" cy="274.96" r="6" fill="#69a7ff"/>
</svg>