<svg xmlns="http://www.w3.org/2000/svg" width="960" height="430" viewBox="0 0 960 430" role="img" aria-label="Composite score history">
<rect width="100%" height="100%" fill="#0b1020" rx="20"/>
<text x="70" y="32" fill="#f5f7fb" font-family="Inter, Arial, sans-serif" font-size="24" font-weight="700">Composite score history</text>
<text x="70" y="52" fill="#93a4c3" font-family="Inter, Arial, sans-serif" font-size="13">Trailing 80 sessions through 2026-01-06</text>
<line x1="70" x2="935" y1="375.00" y2="375.00" stroke="#27314e" stroke-width="1"/>
<text x="58" y="379.00" text-anchor="end" fill="#93a4c3" font-family="Inter, Arial, sans-serif" font-size="12">0</text>
<line x1="70" x2="935" y1="312.00" y2="312.00" stroke="#27314e" stroke-width="1"/>
<text x="58" y="316.00" text-anchor="end" fill="#93a4c3" font-family="Inter, Arial, sans-serif" font-size="12">8</text>
<line x1="70" x2="935" y1="249.00" y2="249.00" stroke="#27314e" stroke-width="1"/>
<text x="58" y="253.00" text-anchor="end" fill="#93a4c3" font-family="Inter, Arial, sans-serif" font-size="12">17</text>
<line x1="70" x2="935" y1="186.00" y2="186.00" stroke="#27314e" stroke-width="1"/>
<text x="58" y="190.00" text-anchor="end" fill="#93a4c3" font-family="Inter, Arial, sans-serif" font-size="12">25</text>
<line x1="70" x2="935" y1="123.00" y2="123.00" stroke="#27314e" stroke-width="1"/>
<text x="58" y="127.00" text-anchor="end" fill="#93a4c3" font-family="Inter, Arial, sans-serif" font-size="12">33</text>
<line x1="70" x2="935" y1="60.00" y2="60.00" stroke="#27314e" stroke-width="1"/>
<text x="58" y="64.00" text-anchor="end" fill="#93a4c3" font-family="Inter, Arial, sans-serif" font-size="12">41</text>
<text x="70.00" y="412" text-anchor="middle" fill="#93a4c3" font-family="Inter, Arial, sans-serif" font-size="12">2025-09-10</text>
<text x="507.97" y="412" text-anchor="middle" fill="#93a4c3" font-family="Inter, Arial, sans-serif" font-size="12">2025-11-06</text>
<text x="935.00" y="412" text-anchor="middle" fill="#93a4c3" font-family="Inter, Arial, sans-serif" font-size="12">2026-01-06</text>
<path d="M 70.00 281.21 L 80.95 302.10 L 91.90 287.84 L 102.85 301.11 L 113.80 286.47 L 124.75 287.46 L 135.70 253.38 L 146.65 288.22 L 157.59 266.64 L 168.54 279.46 L 179.49 266.03 L 190.44 222.49 L 201.39 245.75 L 212.34 247.43 L 223.29 259.32 L 234.24 297.76 L 245.19 309.80 L 256.14 286.01 L 267.09 296.54 L 278.04 271.60 L 288.99 278.85 L 299.94 256.96 L 310.89 123.98 L 321.84 175.75 L 332.78 212.66 L 343.73 109.03 L 354.68 196.19 L 365.63 336.57 L 376.58 309.88 L 387.53 285.33 L 398.48 232.33 L 409.43 267.94 L 420.38 285.48 L 431.33 299.36 L 442.28 266.80 L 453.23 256.12 L 464.18 236.53 L 475.13 192.98 L 486.08 135.80 L 497.03 183.68 L 507.97 184.67 L 518.92 190.93 L 529.87 255.59 L 540.82 294.63 L 551.77 209.53 L 562.72 237.06 L 573.67 167.36 L 584.62 60.00 L 595.57 70.45 L 606.52 66.18 L 617.47 146.17 L 628.42 277.24 L 639.37 326.96 L 650.32 337.79 L 661.27 375.00 L 672.22 333.06 L 683.16 308.20 L 694.11 290.89 L 705.06 264.74 L 716.01 247.28 L 726.96 278.92 L 737.91 241.33 L 748.86 272.67 L 759.81 307.67 L 770.76 264.05 L 781.71 273.13 L 792.66 273.58 L 803.61 183.07 L 814.56 209.46 L 825.51 304.77 L 836.46 329.32 L 847.41 342.21 L 858.35 374.85 L 869.30 360.82 L 880.25 332.91 L 891.20 310.11 L 902.15 254.37 L 913.10 241.41 L 924.05 250.25 L 935.00 274.96" fill="none" stroke="#69a7ff" stroke-width="4" stroke-linecap="round" stroke-linejoin="round"/>
<circle cx="935.00" cy="274.96" r="6" fill="#69a7ff"/>
</svg>