<svg xmlns="http://www.w3.org/2000/svg" width="960" height="430" viewBox="0 0 960 430" role="img" aria-label="Composite score history">
<rect width="100%" height="100%" fill="#0b1020" rx="20"/>
<text x="70" y="32" fill="#f5f7fb" font-family="Inter, Arial, sans-serif" font-size="24" font-weight="700">Composite score history</text>
<text x="70" y="52" fill="#93a4c3" font-family="Inter, Arial, sans-serif" font-size="13">Trailing 61 sessions through 2026-01-06</text>
<line x1="70" x2="935" y1="375.00" y2="375.00" stroke="#27314e" stroke-width="1"/>
<text x="58" y="379.00" text-anchor="end" fill="#93a4c3" font-family="Inter, Arial, sans-serif" font-size="12">0</text>
<line x1="70" x2="935" y1="312.00" y2="312.00" stroke="#27314e" stroke-width="1"/>
<text x="58" y="316.00" text-anchor="end" fill="#93a4c3" font-family="Inter, Arial, sans-serif" font-size="12">8</text>
<line x1="70" x2="935" y1="249.00" y2="249.00" stroke="#27314e" stroke-width="1"/>
<text x="58" y="253.00" text-anchor="end" fill="#93a4c3" font-family="Inter, Arial, sans-serif" font-size="12">17</text>
<line x1="70" x2="935" y1="186.00" y2="186.00" stroke="#27314e" stroke-width="1"/>
<text x="58" y="190.00" text-anchor="end" fill="#93a4c3" font-family="Inter, Arial, sans-serif" font-size="12">25</text>
<line x1="70" x2="935" y1="123.00" y2="123.00" stroke="#27314e" stroke-width="1"/>
<text x="58" y="127.00" text-anchor="end" fill="#93a4c3" font-family="Inter, Arial, sans-serif" font-size="12">33</text>
<line x1="70" x2="935" y1="60.00" y2="60.00" stroke="#27314e" stroke-width="1"/>
<text x="58" y="64.00" text-anchor="end" fill="#93a4c3" font-family="Inter, Arial, sans-serif" font-size="12">41</text>
<text x="70.00" y="412" text-anchor="middle" fill="#93a4c3" font-family="Inter, Arial, sans-serif" font-size="12">2025-10-07</text>
<text x="502.50" y="412" text-anchor="middle" fill="#93a4c3" font-family="Inter, Arial, sans-serif" font-size="12">2025-11-20</text>
<text x="935.00" y="412" text-anchor="middle" fill="#93a4c3" font-family="Inter, Arial, sans-serif" font-size="12">2026-01-06</text>
<path d="M 70.00 270.99 L 84.42 284.03 L 98.83 270.84 L 113.25 128.86 L 127.67 196.34 L 142.08 212.66 L 156.50 109.03 L 170.92 196.19 L 185.33 336.57 L 199.75 309.88 L 214.17 285.33 L 228.58 232.33 L 243.00 267.94 L 257.42 285.48 L 271.83 299.36 L 286.25 266.80 L 300.67 256.12 L 315.08 236.53 L 329.50 192.98 L 343.92 135.80 L 358.33 183.68 L 372.75 184.67 L 387.17 190.93 L 401.58 255.59 L 416.00 294.63 L 430.42 209.53 L 444.83 237.06 L 459.25 167.36 L 473.67 60.00 L 488.08 70.45 L 502.50 66.18 L 516.92 146.17 L 531.33 277.24 L 545.75 326.96 L 560.17 337.79 L 574.58 375.00 L 589.00 333.06 L 603.42 308.20 L 617.83 290.89 L 632.25 264.74 L 646.67 247.28 L 661.08 278.92 L 675.50 241.33 L 689.92 272.67 L 704.33 307.67 L 718.75 264.05 L 733.17 273.13 L 747.58 273.58 L 762.00 183.07 L 776.42 209.46 L 790.83 304.77 L 805.25 329.32 L 819.67 342.21 L 834.08 374.85 L 848.50 360.82 L 862.92 332.91 L 877.33 310.11 L 891.75 254.37 L 906.17 241.41 L 920.58 250.25 L 935.00 274.96" fill="none" stroke="#69a7ff" stroke-width="4" stroke-linecap="round" stroke-linejoin="round"/>
<circle cx="935.00" cy="274.96" r="6" fill="#69a7ff"/>
</svg>