<svg xmlns="http://www.w3.org/2000/svg" width="960" height="430" viewBox="0 0 960 430" role="img" aria-label="Composite score history">
<rect width="100%" height="100%" fill="#0b1020" rx="20"/>
<text x="70" y="32" fill="#f5f7fb" font-family="Inter, Arial, sans-serif" font-size="24" font-weight="700">Composite score history</text>
<text x="70" y="52" fill="#93a4c3" font-family="Inter, Arial, sans-serif" font-size="13">Trailing 46 sessions through 2025-09-26</text>
<line x1="70" x2="935" y1="375.00" y2="375.00" stroke="#27314e" stroke-width="1"/>
<text x="58" y="379.00" text-anchor="end" fill="#93a4c3" font-family="Inter, Arial, sans-serif" font-size="12">8</text>
<line x1="70" x2="935" y1="312.00" y2="312.00" stroke="#27314e" stroke-width="1"/>
<text x="58" y="316.00" text-anchor="end" fill="#93a4c3" font-family="Inter, Arial, sans-serif" font-size="12">13</text>
<line x1="70" x2="935" y1="249.00" y2="249.00" stroke="#27314e" stroke-width="1"/>
<text x="58" y="253.00" text-anchor="end" fill="#93a4c3" font-family="Inter, Arial, sans-serif" font-size="12">18</text>
<line x1="70" x2="935" y1="186.00" y2="186.00" stroke="#27314e" stroke-width="1"/>
<text x="58" y="190.00" text-anchor="end" fill="#93a4c3" font-family="Inter, Arial, sans-serif" font-size="12">24</text>
<line x1="70" x2="935" y1="123.00" y2="123.00" stroke="#27314e" stroke-width="1"/>
<text x="58" y="127.00" text-anchor="end" fill="#93a4c3" font-family="Inter, Arial, sans-serif" font-size="12">29</text>
<line x1="70" x2="935" y1="60.00" y2="60.00" stroke="#27314e" stroke-width="1"/>
<text x="58" y="64.00" text-anchor="end" fill="#93a4c3" font-family="Inter, Arial, sans-serif" font-size="12">34</text>
<text x="70.00" y="412" text-anchor="middle" fill="#93a4c3" font-family="Inter, Arial, sans-serif" font-size="12">2025-07-24</text>
<text x="512.11" y="412" text-anchor="middle" fill="#93a4c3" font-family="Inter, Arial, sans-serif" font-size="12">2025-08-26</text>
<text x="935.00" y="412" text-anchor="middle" fill="#93a4c3" font-family="Inter, Arial, sans-serif" font-size="12">2025-09-26</text>
<path d="M 70.00 278.05 L 89.22 300.57 L 108.44 300.19 L 127.67 277.17 L 146.89 261.91 L 166.11 216.25 L 185.33 60.00 L 204.56 205.24 L 223.78 195.11 L 243.00 269.42 L 262.22 299.94 L 281.44 291.18 L 300.67 245.15 L 319.89 373.62 L 339.11 369.00 L 358.33 351.61 L 377.56 338.85 L 396.78 340.72 L 416.00 252.15 L 435.22 190.60 L 454.44 140.69 L 473.67 282.93 L 492.89 247.40 L 512.11 268.29 L 531.33 289.31 L 550.56 346.73 L 569.78 290.93 L 589.00 234.76 L 608.22 264.04 L 627.44 321.58 L 646.67 300.07 L 665.89 349.48 L 685.11 372.75 L 704.33 366.87 L 723.56 375.00 L 742.78 352.86 L 762.00 348.98 L 781.22 346.98 L 800.44 336.47 L 819.67 280.55 L 838.89 337.72 L 858.11 302.32 L 877.33 323.33 L 896.56 301.32 L 915.78 229.88 L 935.00 268.04" fill="none" stroke="#69a7ff" stroke-width="4" stroke-linecap="round" stroke-linejoin="round"/>
<circle cx="935.00" cy="268.04" r="6" fill="#69a7ff"/>
</svg>