<svg xmlns="http://www.w3.org/2000/svg" width="960" height="430" viewBox="0 0 960 430" role="img" aria-label="Composite score history">
<rect width="100%" height="100%" fill="#0b1020" rx="20"/>
<text x="70" y="32" fill="#f5f7fb" font-family="Inter, Arial, sans-serif" font-size="24" font-weight="700">Composite score history</text>
<text x="70" y="52" fill="#93a4c3" font-family="Inter, Arial, sans-serif" font-size="13">Trailing 48 sessions through 2025-09-26</text>
<line x1="70" x2="935" y1="375.00" y2="375.00" stroke="#27314e" stroke-width="1"/>
<text x="58" y="379.00" text-anchor="end" fill="#93a4c3" font-family="Inter, Arial, sans-serif" font-size="12">8</text>
<line x1="70" x2="935" y1="312.00" y2="312.00" stroke="#27314e" stroke-width="1"/>
<text x="58" y="316.00" text-anchor="end" fill="#93a4c3" font-family="Inter, Arial, sans-serif" font-size="12">13</text>
<line x1="70" x2="935" y1="249.00" y2="249.00" stroke="#27314e" stroke-width="1"/>
<text x="58" y="253.00" text-anchor="end" fill="#93a4c3" font-family="Inter, Arial, sans-serif" font-size="12">18</text>
<line x1="70" x2="935" y1="186.00" y2="186.00" stroke="#27314e" stroke-width="1"/>
<text x="58" y="190.00" text-anchor="end" fill="#93a4c3" font-family="Inter, Arial, sans-serif" font-size="12">24</text>
<line x1="70" x2="935" y1="123.00" y2="123.00" stroke="#27314e" stroke-width="1"/>
<text x="58" y="127.00" text-anchor="end" fill="#93a4c3" font-family="Inter, Arial, sans-serif" font-size="12">29</text>
<line x1="70" x2="935" y1="60.00" y2="60.00" stroke="#27314e" stroke-width="1"/>
<text x="58" y="64.00" text-anchor="end" fill="#93a4c3" font-family="Inter, Arial, sans-serif" font-size="12">34</text>
<text x="70.00" y="412" text-anchor="middle" fill="#93a4c3" font-family="Inter, Arial, sans-serif" font-size="12">2025-07-22</text>
<text x="511.70" y="412" text-anchor="middle" fill="#93a4c3" font-family="Inter, Arial, sans-serif" font-size="12">2025-08-25</text>
<text x="935.00" y="412" text-anchor="middle" fill="#93a4c3" font-family="Inter, Arial, sans-serif" font-size="12">2025-09-26</text>
<path d="M 70.00 279.80 L 88.40 291.43 L 106.81 245.90 L 125.21 287.18 L 143.62 286.81 L 162.02 289.56 L 180.43 224.13 L 198.83 216.25 L 217.23 60.00 L 235.64 205.24 L 254.04 195.11 L 272.45 269.42 L 290.85 299.94 L 309.26 291.18 L 327.66 245.15 L 346.06 373.62 L 364.47 369.00 L 382.87 351.61 L 401.28 338.85 L 419.68 340.72 L 438.09 252.15 L 456.49 190.60 L 474.89 140.69 L 493.30 282.93 L 511.70 247.40 L 530.11 268.29 L 548.51 289.31 L 566.91 346.73 L 585.32 290.93 L 603.72 234.76 L 622.13 264.04 L 640.53 321.58 L 658.94 300.07 L 677.34 349.48 L 695.74 372.75 L 714.15 366.87 L 732.55 375.00 L 750.96 352.86 L 769.36 348.98 L 787.77 346.98 L 806.17 336.47 L 824.57 280.55 L 842.98 337.72 L 861.38 302.32 L 879.79 323.33 L 898.19 301.32 L 916.60 229.88 L 935.00 268.04" fill="none" stroke="#69a7ff" stroke-width="4" stroke-linecap="round" stroke-linejoin="round"/>
<circle cx="935.00" cy="268.04" r="6" fill="#69a7ff"/>
</svg>