<svg xmlns="http://www.w3.org/2000/svg" width="960" height="430" viewBox="0 0 960 430" role="img" aria-label="Composite score history">
<rect width="100%" height="100%" fill="#0b1020" rx="20"/>
<text x="70" y="32" fill="#f5f7fb" font-family="Inter, Arial, sans-serif" font-size="24" font-weight="700">Composite score history</text>
<text x="70" y="52" fill="#93a4c3" font-family="Inter, Arial, sans-serif" font-size="13">Trailing 73 sessions through 2025-12-23</text>
<line x1="70" x2="935" y1="375.00" y2="375.00" stroke="#27314e" stroke-width="1"/>
<text x="58" y="379.00" text-anchor="end" fill="#93a4c3" font-family="Inter, Arial, sans-serif" font-size="12">0</text>
<line x1="70" x2="935" y1="312.00" y2="312.00" stroke="#27314e" stroke-width="1"/>
<text x="58" y="316.00" text-anchor="end" fill="#93a4c3" font-family="Inter, Arial, sans-serif" font-size="12">8</text>
<line x1="70" x2="935" y1="249.00" y2="249.00" stroke="#27314e" stroke-width="1"/>
<text x="58" y="253.00" text-anchor="end" fill="#93a4c3" font-family="Inter, Arial, sans-serif" font-size="12">17</text>
<line x1="70" x2="935" y1="186.00" y2="186.00" stroke="#27314e" stroke-width="1"/>
<text x="58" y="190.00" text-anchor="end" fill="#93a4c3" font-family="Inter, Arial, sans-serif" font-size="12">25</text>
<line x1="70" x2="935" y1="123.00" y2="123.00" stroke="#27314e" stroke-width="1"/>
<text x="58" y="127.00" text-anchor="end" fill="#93a4c3" font-family="Inter, Arial, sans-serif" font-size="12">33</text>
<line x1="70" x2="935" y1="60.00" y2="60.00" stroke="#27314e" stroke-width="1"/>
<text x="58" y="64.00" text-anchor="end" fill="#93a4c3" font-family="Inter, Arial, sans-serif" font-size="12">41</text>
<text x="70.00" y="412" text-anchor="middle" fill="#93a4c3" font-family="Inter, Arial, sans-serif" font-size="12">2025-09-09</text>
<text x="502.50" y="412" text-anchor="middle" fill="#93a4c3" font-family="Inter, Arial, sans-serif" font-size="12">2025-10-30</text>
<text x="935.00" y="412" text-anchor="middle" fill="#93a4c3" font-family="Inter, Arial, sans-serif" font-size="12">2025-12-23</text>
<path d="M 70.00 280.75 L 82.01 284.72 L 94.03 307.82 L 106.04 297.37 L 118.06 304.62 L 130.07 293.87 L 142.08 287.46 L 154.10 253.38 L 166.11 288.22 L 178.12 266.64 L 190.14 279.46 L 202.15 266.03 L 214.17 222.49 L 226.18 245.75 L 238.19 247.43 L 250.21 259.32 L 262.22 297.76 L 274.24 309.80 L 286.25 286.01 L 298.26 296.54 L 310.28 271.60 L 322.29 278.85 L 334.31 256.96 L 346.32 123.98 L 358.33 175.75 L 370.35 212.66 L 382.36 109.03 L 394.38 196.19 L 406.39 336.57 L 418.40 309.88 L 430.42 285.33 L 442.43 232.33 L 454.44 267.94 L 466.46 285.48 L 478.47 299.36 L 490.49 266.80 L 502.50 256.12 L 514.51 236.53 L 526.53 192.98 L 538.54 135.80 L 550.56 183.68 L 562.57 184.67 L 574.58 190.93 L 586.60 255.59 L 598.61 294.63 L 610.62 209.53 L 622.64 237.06 L 634.65 167.36 L 646.67 60.00 L 658.68 70.45 L 670.69 66.18 L 682.71 146.17 L 694.72 277.24 L 706.74 326.96 L 718.75 337.79 L 730.76 375.00 L 742.78 333.06 L 754.79 308.20 L 766.81 290.89 L 778.82 264.74 L 790.83 247.28 L 802.85 278.92 L 814.86 241.33 L 826.88 272.67 L 838.89 307.67 L 850.90 264.05 L 862.92 273.13 L 874.93 273.58 L 886.94 183.07 L 898.96 209.46 L 910.97 304.77 L 922.99 329.32 L 935.00 342.21" fill="none" stroke="#69a7ff" stroke-width="4" stroke-linecap="round" stroke-linejoin="round"/>
<circle cx="935.00" cy="342.21" r="6" fill="#69a7ff"/>
</svg>