<svg xmlns="http://www.w3.org/2000/svg" width="960" height="430" viewBox="0 0 960 430" role="img" aria-label="Composite score history">
<rect width="100%" height="100%" fill="#0b1020" rx="20"/>
<text x="70" y="32" fill="#f5f7fb" font-family="Inter, Arial, sans-serif" font-size="24" font-weight="700">Composite score history</text>
<text x="70" y="52" fill="#93a4c3" font-family="Inter, Arial, sans-serif" font-size="13">Trailing 83 sessions through 2025-12-23</text>
<line x1="70" x2="935" y1="375.00" y2="375.00" stroke="#27314e" stroke-width="1"/>
<text x="58" y="379.00" text-anchor="end" fill="#93a4c3" font-family="Inter, Arial, sans-serif" font-size="12">0</text>
<line x1="70" x2="935" y1="312.00" y2="312.00" stroke="#27314e" stroke-width="1"/>
<text x="58" y="316.00" text-anchor="end" fill="#93a4c3" font-family="Inter, Arial, sans-serif" font-size="12">8</text>
<line x1="70" x2="935" y1="249.00" y2="249.00" stroke="#27314e" stroke-width="1"/>
<text x="58" y="253.00" text-anchor="end" fill="#93a4c3" font-family="Inter, Arial, sans-serif" font-size="12">17</text>
<line x1="70" x2="935" y1="186.00" y2="186.00" stroke="#27314e" stroke-width="1"/>
<text x="58" y="190.00" text-anchor="end" fill="#93a4c3" font-family="Inter, Arial, sans-serif" font-size="12">25</text>
<line x1="70" x2="935" y1="123.00" y2="123.00" stroke="#27314e" stroke-width="1"/>
<text x="58" y="127.00" text-anchor="end" fill="#93a4c3" font-family="Inter, Arial, sans-serif" font-size="12">33</text>
<line x1="70" x2="935" y1="60.00" y2="60.00" stroke="#27314e" stroke-width="1"/>
<text x="58" y="64.00" text-anchor="end" fill="#93a4c3" font-family="Inter, Arial, sans-serif" font-size="12">41</text>
<text x="70.00" y="412" text-anchor="middle" fill="#93a4c3" font-family="Inter, Arial, sans-serif" font-size="12">2025-08-25</text>
<text x="502.50" y="412" text-anchor="middle" fill="#93a4c3" font-family="Inter, Arial, sans-serif" font-size="12">2025-10-23</text>
<text x="935.00" y="412" text-anchor="middle" fill="#93a4c3" font-family="Inter, Arial, sans-serif" font-size="12">2025-12-23</text>
<path d="M 70.00 265.65 L 80.55 275.64 L 91.10 279.53 L 101.65 291.88 L 112.20 273.89 L 122.74 225.47 L 133.29 243.31 L 143.84 278.39 L 154.39 265.27 L 164.94 295.39 L 175.49 309.58 L 186.04 305.99 L 196.59 310.95 L 207.13 297.45 L 217.68 295.09 L 228.23 293.87 L 238.78 287.46 L 249.33 253.38 L 259.88 288.22 L 270.43 266.64 L 280.98 279.46 L 291.52 266.03 L 302.07 222.49 L 312.62 245.75 L 323.17 247.43 L 333.72 259.32 L 344.27 297.76 L 354.82 309.80 L 365.37 286.01 L 375.91 296.54 L 386.46 271.60 L 397.01 278.85 L 407.56 256.96 L 418.11 123.98 L 428.66 175.75 L 439.21 212.66 L 449.76 109.03 L 460.30 196.19 L 470.85 336.57 L 481.40 309.88 L 491.95 285.33 L 502.50 232.33 L 513.05 267.94 L 523.60 285.48 L 534.15 299.36 L 544.70 266.80 L 555.24 256.12 L 565.79 236.53 L 576.34 192.98 L 586.89 135.80 L 597.44 183.68 L 607.99 184.67 L 618.54 190.93 L 629.09 255.59 L 639.63 294.63 L 650.18 209.53 L 660.73 237.06 L 671.28 167.36 L 681.83 60.00 L 692.38 70.45 L 702.93 66.18 L 713.48 146.17 L 724.02 277.24 L 734.57 326.96 L 745.12 337.79 L 755.67 375.00 L 766.22 333.06 L 776.77 308.20 L 787.32 290.89 L 797.87 264.74 L 808.41 247.28 L 818.96 278.92 L 829.51 241.33 L 840.06 272.67 L 850.61 307.67 L 861.16 264.05 L 871.71 273.13 L 882.26 273.58 L 892.80 183.07 L 903.35 209.46 L 913.90 304.77 L 924.45 329.32 L 935.00 342.21" fill="none" stroke="#69a7ff" stroke-width="4" stroke-linecap="round" stroke-linejoin="round"/>
<circle cx="935.00" cy="342.21" r="6" fill="#69a7ff"/>
</svg>