<svg xmlns="http://www.w3.org/2000/svg" width="960" height="430" viewBox="0 0 960 430" role="img" aria-label="Composite score history">
<rect width="100%" height="100%" fill="#0b1020" rx="20"/>
<text x="70" y="32" fill="#f5f7fb" font-family="Inter, Arial, sans-serif" font-size="24" font-weight="700">Composite score history</text>
<text x="70" y="52" fill="#93a4c3" font-family="Inter, Arial, sans-serif" font-size="13">Trailing 65 sessions through 2025-12-23</text>
<line x1="70" x2="935" y1="375.00" y2="375.00" stroke="#27314e" stroke-width="1"/>
<text x="58" y="379.00" text-anchor="end" fill="#93a4c3" font-family="Inter, Arial, sans-serif" font-size="12">0</text>
<line x1="70" x2="935" y1="312.00" y2="312.00" stroke="#27314e" stroke-width="1"/>
<text x="58" y="316.00" text-anchor="end" fill="#93a4c3" font-family="Inter, Arial, sans-serif" font-size="12">8</text>
<line x1="70" x2="935" y1="249.00" y2="249.00" stroke="#27314e" stroke-width="1"/>
<text x="58" y="253.00" text-anchor="end" fill="#93a4c3" font-family="Inter, Arial, sans-serif" font-size="12">17</text>
<line x1="70" x2="935" y1="186.00" y2="186.00" stroke="#27314e" stroke-width="1"/>
<text x="58" y="190.00" text-anchor="end" fill="#93a4c3" font-family="Inter, Arial, sans-serif" font-size="12">25</text>
<line x1="70" x2="935" y1="123.00" y2="123.00" stroke="#27314e" stroke-width="1"/>
<text x="58" y="127.00" text-anchor="end" fill="#93a4c3" font-family="Inter, Arial, sans-serif" font-size="12">33</text>
<line x1="70" x2="935" y1="60.00" y2="60.00" stroke="#27314e" stroke-width="1"/>
<text x="58" y="64.00" text-anchor="end" fill="#93a4c3" font-family="Inter, Arial, sans-serif" font-size="12">41</text>
<text x="70.00" y="412" text-anchor="middle" fill="#93a4c3" font-family="Inter, Arial, sans-serif" font-size="12">2025-09-19</text>
<text x="502.50" y="412" text-anchor="middle" fill="#93a4c3" font-family="Inter, Arial, sans-serif" font-size="12">2025-11-05</text>
<text x="935.00" y="412" text-anchor="middle" fill="#93a4c3" font-family="Inter, Arial, sans-serif" font-size="12">2025-12-23</text>
<path d="M 70.00 276.79 L 83.52 263.67 L 97.03 260.32 L 110.55 253.45 L 124.06 202.21 L 137.58 245.75 L 151.09 247.43 L 164.61 259.32 L 178.12 297.76 L 191.64 309.80 L 205.16 286.01 L 218.67 296.54 L 232.19 271.60 L 245.70 278.85 L 259.22 256.96 L 272.73 123.98 L 286.25 175.75 L 299.77 212.66 L 313.28 109.03 L 326.80 196.19 L 340.31 336.57 L 353.83 309.88 L 367.34 285.33 L 380.86 232.33 L 394.38 267.94 L 407.89 285.48 L 421.41 299.36 L 434.92 266.80 L 448.44 256.12 L 461.95 236.53 L 475.47 192.98 L 488.98 135.80 L 502.50 183.68 L 516.02 184.67 L 529.53 190.93 L 543.05 255.59 L 556.56 294.63 L 570.08 209.53 L 583.59 237.06 L 597.11 167.36 L 610.62 60.00 L 624.14 70.45 L 637.66 66.18 L 651.17 146.17 L 664.69 277.24 L 678.20 326.96 L 691.72 337.79 L 705.23 375.00 L 718.75 333.06 L 732.27 308.20 L 745.78 290.89 L 759.30 264.74 L 772.81 247.28 L 786.33 278.92 L 799.84 241.33 L 813.36 272.67 L 826.88 307.67 L 840.39 264.05 L 853.91 273.13 L 867.42 273.58 L 880.94 183.07 L 894.45 209.46 L 907.97 304.77 L 921.48 329.32 L 935.00 342.21" fill="none" stroke="#69a7ff" stroke-width="4" stroke-linecap="round" stroke-linejoin="round"/>
<circle cx="935.00" cy="342.21" r="6" fill="#69a7ff"/>
</svg>