<svg xmlns="http://www.w3.org/2000/svg" width="960" height="430" viewBox="0 0 960 430" role="img" aria-label="Composite score history">
<rect width="100%" height="100%" fill="#0b1020" rx="20"/>
<text x="70" y="32" fill="#f5f7fb" font-family="Inter, Arial, sans-serif" font-size="24" font-weight="700">Composite score history</text>
<text x="70" y="52" fill="#93a4c3" font-family="Inter, Arial, sans-serif" font-size="13">Trailing 72 sessions through 2025-12-23</text>
<line x1="70" x2="935" y1="375.00" y2="375.00" stroke="#27314e" stroke-width="1"/>
<text x="58" y="379.00" text-anchor="end" fill="#93a4c3" font-family="Inter, Arial, sans-serif" font-size="12">0</text>
<line x1="70" x2="935" y1="312.00" y2="312.00" stroke="#27314e" stroke-width="1"/>
<text x="58" y="316.00" text-anchor="end" fill="#93a4c3" font-family="Inter, Arial, sans-serif" font-size="12">8</text>
<line x1="70" x2="935" y1="249.00" y2="249.00" stroke="#27314e" stroke-width="1"/>
<text x="58" y="253.00" text-anchor="end" fill="#93a4c3" font-family="Inter, Arial, sans-serif" font-size="12">17</text>
<line x1="70" x2="935" y1="186.00" y2="186.00" stroke="#27314e" stroke-width="1"/>
<text x="58" y="190.00" text-anchor="end" fill="#93a4c3" font-family="Inter, Arial, sans-serif" font-size="12">25</text>
<line x1="70" x2="935" y1="123.00" y2="123.00" stroke="#27314e" stroke-width="1"/>
<text x="58" y="127.00" text-anchor="end" fill="#93a4c3" font-family="Inter, Arial, sans-serif" font-size="12">33</text>
<line x1="70" x2="935" y1="60.00" y2="60.00" stroke="#27314e" stroke-width="1"/>
<text x="58" y="64.00" text-anchor="end" fill="#93a4c3" font-family="Inter, Arial, sans-serif" font-size="12">41</text>
<text x="70.00" y="412" text-anchor="middle" fill="#93a4c3" font-family="Inter, Arial, sans-serif" font-size="12">2025-09-10</text>
<text x="508.59" y="412" text-anchor="middle" fill="#93a4c3" font-family="Inter, Arial, sans-serif" font-size="12">2025-10-31</text>
<text x="935.00" y="412" text-anchor="middle" fill="#93a4c3" font-family="Inter, Arial, sans-serif" font-size="12">2025-12-23</text>
<path d="M 70.00 281.21 L 82.18 302.10 L 94.37 287.84 L 106.55 301.11 L 118.73 286.47 L 130.92 287.46 L 143.10 253.38 L 155.28 288.22 L 167.46 266.64 L 179.65 279.46 L 191.83 266.03 L 204.01 222.49 L 216.20 245.75 L 228.38 247.43 L 240.56 259.32 L 252.75 297.76 L 264.93 309.80 L 277.11 286.01 L 289.30 296.54 L 301.48 271.60 L 313.66 278.85 L 325.85 256.96 L 338.03 123.98 L 350.21 175.75 L 362.39 212.66 L 374.58 109.03 L 386.76 196.19 L 398.94 336.57 L 411.13 309.88 L 423.31 285.33 L 435.49 232.33 L 447.68 267.94 L 459.86 285.48 L 472.04 299.36 L 484.23 266.80 L 496.41 256.12 L 508.59 236.53 L 520.77 192.98 L 532.96 135.80 L 545.14 183.68 L 557.32 184.67 L 569.51 190.93 L 581.69 255.59 L 593.87 294.63 L 606.06 209.53 L 618.24 237.06 L 630.42 167.36 L 642.61 60.00 L 654.79 70.45 L 666.97 66.18 L 679.15 146.17 L 691.34 277.24 L 703.52 326.96 L 715.70 337.79 L 727.89 375.00 L 740.07 333.06 L 752.25 308.20 L 764.44 290.89 L 776.62 264.74 L 788.80 247.28 L 800.99 278.92 L 813.17 241.33 L 825.35 272.67 L 837.54 307.67 L 849.72 264.05 L 861.90 273.13 L 874.08 273.58 L 886.27 183.07 L 898.45 209.46 L 910.63 304.77 L 922.82 329.32 L 935.00 342.21" fill="none" stroke="#69a7ff" stroke-width="4" stroke-linecap="round" stroke-linejoin="round"/>
<circle cx="935.00" cy="342.21" r="6" fill="#69a7ff"/>
</svg>