<svg xmlns="http://www.w3.org/2000/svg" width="960" height="430" viewBox="0 0 960 430" role="img" aria-label="Composite score history">
<rect width="100%" height="100%" fill="#0b1020" rx="20"/>
<text x="70" y="32" fill="#f5f7fb" font-family="Inter, Arial, sans-serif" font-size="24" font-weight="700">Composite score history</text>
<text x="70" y="52" fill="#93a4c3" font-family="Inter, Arial, sans-serif" font-size="13">Trailing 90 sessions through 2025-12-23</text>
<line x1="70" x2="935" y1="375.00" y2="375.00" stroke="#27314e" stroke-width="1"/>
<text x="58" y="379.00" text-anchor="end" fill="#93a4c3" font-family="Inter, Arial, sans-serif" font-size="12">8</text>
<line x1="70" x2="935" y1="312.00" y2="312.00" stroke="#27314e" stroke-width="1"/>
<text x="58" y="316.00" text-anchor="end" fill="#93a4c3" font-family="Inter, Arial, sans-serif" font-size="12">15</text>
<line x1="70" x2="935" y1="249.00" y2="249.00" stroke="#27314e" stroke-width="1"/>
<text x="58" y="253.00" text-anchor="end" fill="#93a4c3" font-family="Inter, Arial, sans-serif" font-size="12">21</text>
<line x1="70" x2="935" y1="186.00" y2="186.00" stroke="#27314e" stroke-width="1"/>
<text x="58" y="190.00" text-anchor="end" fill="#93a4c3" font-family="Inter, Arial, sans-serif" font-size="12">28</text>
<line x1="70" x2="935" y1="123.00" y2="123.00" stroke="#27314e" stroke-width="1"/>
<text x="58" y="127.00" text-anchor="end" fill="#93a4c3" font-family="Inter, Arial, sans-serif" font-size="12">35</text>
<line x1="70" x2="935" y1="60.00" y2="60.00" stroke="#27314e" stroke-width="1"/>
<text x="58" y="64.00" text-anchor="end" fill="#93a4c3" font-family="Inter, Arial, sans-serif" font-size="12">41</text>
<text x="70.00" y="412" text-anchor="middle" fill="#93a4c3" font-family="Inter, Arial, sans-serif" font-size="12">2025-08-14</text>
<text x="507.36" y="412" text-anchor="middle" fill="#93a4c3" font-family="Inter, Arial, sans-serif" font-size="12">2025-10-20</text>
<text x="935.00" y="412" text-anchor="middle" fill="#93a4c3" font-family="Inter, Arial, sans-serif" font-size="12">2025-12-23</text>
<path d="M 70.00 307.60 L 79.72 323.71 L 89.44 319.32 L 99.16 280.14 L 108.88 233.23 L 118.60 195.19 L 128.31 297.30 L 138.03 276.51 L 147.75 272.13 L 157.47 276.51 L 167.19 302.92 L 176.91 309.69 L 186.63 266.89 L 196.35 289.19 L 206.07 325.52 L 215.79 316.65 L 225.51 341.44 L 235.22 336.01 L 244.94 336.58 L 254.66 342.49 L 264.38 319.13 L 274.10 309.88 L 283.82 317.99 L 293.54 319.42 L 303.26 285.67 L 312.98 316.37 L 322.70 290.15 L 332.42 316.37 L 342.13 304.07 L 351.85 263.17 L 361.57 292.25 L 371.29 294.34 L 381.01 297.87 L 390.73 331.05 L 400.45 332.38 L 410.17 316.75 L 419.89 327.43 L 429.61 315.22 L 439.33 318.46 L 449.04 299.21 L 458.76 139.99 L 468.48 204.63 L 478.20 250.87 L 487.92 121.30 L 497.64 230.28 L 507.36 339.34 L 517.08 339.72 L 526.80 331.62 L 536.52 236.19 L 546.24 274.42 L 555.96 292.44 L 565.67 304.16 L 575.39 250.49 L 585.11 275.56 L 594.83 263.74 L 604.55 226.27 L 614.27 154.77 L 623.99 214.64 L 633.71 215.88 L 643.43 223.70 L 653.15 304.54 L 662.87 325.42 L 672.58 246.96 L 682.30 276.51 L 692.02 194.24 L 701.74 60.00 L 711.46 73.06 L 721.18 67.72 L 730.90 167.73 L 740.62 319.89 L 750.34 340.30 L 760.06 346.11 L 769.78 350.97 L 779.49 325.71 L 789.21 326.19 L 798.93 319.23 L 808.65 300.44 L 818.37 286.72 L 828.09 321.90 L 837.81 282.81 L 847.53 313.03 L 857.25 354.41 L 866.97 315.13 L 876.69 326.47 L 886.40 327.04 L 896.12 213.78 L 905.84 246.86 L 915.56 363.65 L 925.28 375.00 L 935.00 374.52" fill="none" stroke="#69a7ff" stroke-width="4" stroke-linecap="round" stroke-linejoin="round"/>
<circle cx="935.00" cy="374.52" r="6" fill="#69a7ff"/>
<text x="927.00" y="362.52" text-anchor="end" fill="#f5f7fb" font-family="Inter, Arial, sans-serif" font-size="12" font-weight="600">8.32</text>
</svg>