<svg xmlns="http://www.w3.org/2000/svg" width="960" height="430" viewBox="0 0 960 430" role="img" aria-label="Composite score history">
<rect width="100%" height="100%" fill="#0b1020" rx="20"/>
<text x="70" y="32" fill="#f5f7fb" font-family="Inter, Arial, sans-serif" font-size="24" font-weight="700">Composite score history</text>
<text x="70" y="52" fill="#93a4c3" font-family="Inter, Arial, sans-serif" font-size="13">Trailing 77 sessions through 2025-12-23</text>
<line x1="70" x2="935" y1="375.00" y2="375.00" stroke="#27314e" stroke-width="1"/>
<text x="58" y="379.00" text-anchor="end" fill="#93a4c3" font-family="Inter, Arial, sans-serif" font-size="12">0</text>
<line x1="70" x2="935" y1="312.00" y2="312.00" stroke="#27314e" stroke-width="1"/>
<text x="58" y="316.00" text-anchor="end" fill="#93a4c3" font-family="Inter, Arial, sans-serif" font-size="12">8</text>
<line x1="70" x2="935" y1="249.00" y2="249.00" stroke="#27314e" stroke-width="1"/>
<text x="58" y="253.00" text-anchor="end" fill="#93a4c3" font-family="Inter, Arial, sans-serif" font-size="12">17</text>
<line x1="70" x2="935" y1="186.00" y2="186.00" stroke="#27314e" stroke-width="1"/>
<text x="58" y="190.00" text-anchor="end" fill="#93a4c3" font-family="Inter, Arial, sans-serif" font-size="12">25</text>
<line x1="70" x2="935" y1="123.00" y2="123.00" stroke="#27314e" stroke-width="1"/>
<text x="58" y="127.00" text-anchor="end" fill="#93a4c3" font-family="Inter, Arial, sans-serif" font-size="12">33</text>
<line x1="70" x2="935" y1="60.00" y2="60.00" stroke="#27314e" stroke-width="1"/>
<text x="58" y="64.00" text-anchor="end" fill="#93a4c3" font-family="Inter, Arial, sans-serif" font-size="12">41</text>
<text x="70.00" y="412" text-anchor="middle" fill="#93a4c3" font-family="Inter, Arial, sans-serif" font-size="12">2025-09-03</text>
<text x="502.50" y="412" text-anchor="middle" fill="#93a4c3" font-family="Inter, Arial, sans-serif" font-size="12">2025-10-28</text>
<text x="935.00" y="412" text-anchor="middle" fill="#93a4c3" font-family="Inter, Arial, sans-serif" font-size="12">2025-12-23</text>
<path d="M 70.00 266.11 L 81.38 291.43 L 92.76 292.42 L 104.14 298.98 L 115.53 299.74 L 126.91 305.99 L 138.29 310.95 L 149.67 297.45 L 161.05 295.09 L 172.43 293.87 L 183.82 287.46 L 195.20 253.38 L 206.58 288.22 L 217.96 266.64 L 229.34 279.46 L 240.72 266.03 L 252.11 222.49 L 263.49 245.75 L 274.87 247.43 L 286.25 259.32 L 297.63 297.76 L 309.01 309.80 L 320.39 286.01 L 331.78 296.54 L 343.16 271.60 L 354.54 278.85 L 365.92 256.96 L 377.30 123.98 L 388.68 175.75 L 400.07 212.66 L 411.45 109.03 L 422.83 196.19 L 434.21 336.57 L 445.59 309.88 L 456.97 285.33 L 468.36 232.33 L 479.74 267.94 L 491.12 285.48 L 502.50 299.36 L 513.88 266.80 L 525.26 256.12 L 536.64 236.53 L 548.03 192.98 L 559.41 135.80 L 570.79 183.68 L 582.17 184.67 L 593.55 190.93 L 604.93 255.59 L 616.32 294.63 L 627.70 209.53 L 639.08 237.06 L 650.46 167.36 L 661.84 60.00 L 673.22 70.45 L 684.61 66.18 L 695.99 146.17 L 707.37 277.24 L 718.75 326.96 L 730.13 337.79 L 741.51 375.00 L 752.89 333.06 L 764.28 308.20 L 775.66 290.89 L 787.04 264.74 L 798.42 247.28 L 809.80 278.92 L 821.18 241.33 L 832.57 272.67 L 843.95 307.67 L 855.33 264.05 L 866.71 273.13 L 878.09 273.58 L 889.47 183.07 L 900.86 209.46 L 912.24 304.77 L 923.62 329.32 L 935.00 342.21" fill="none" stroke="#69a7ff" stroke-width="4" stroke-linecap="round" stroke-linejoin="round"/>
<circle cx="935.00" cy="342.21" r="6" fill="#69a7ff"/>
</svg>