<svg xmlns="http://www.w3.org/2000/svg" width="960" height="430" viewBox="0 0 960 430" role="img" aria-label="Composite score history">
<rect width="100%" height="100%" fill="#0b1020" rx="20"/>
<text x="70" y="32" fill="#f5f7fb" font-family="Inter, Arial, sans-serif" font-size="24" font-weight="700">Composite score history</text>
<text x="70" y="52" fill="#93a4c3" font-family="Inter, Arial, sans-serif" font-size="13">Trailing 88 sessions through 2025-12-23</text>
<line x1="70" x2="935" y1="375.00" y2="375.00" stroke="#27314e" stroke-width="1"/>
<text x="58" y="379.00" text-anchor="end" fill="#93a4c3" font-family="Inter, Arial, sans-serif" font-size="12">0</text>
<line x1="70" x2="935" y1="312.00" y2="312.00" stroke="#27314e" stroke-width="1"/>
<text x="58" y="316.00" text-anchor="end" fill="#93a4c3" font-family="Inter, Arial, sans-serif" font-size="12">8</text>
<line x1="70" x2="935" y1="249.00" y2="249.00" stroke="#27314e" stroke-width="1"/>
<text x="58" y="253.00" text-anchor="end" fill="#93a4c3" font-family="Inter, Arial, sans-serif" font-size="12">17</text>
<line x1="70" x2="935" y1="186.00" y2="186.00" stroke="#27314e" stroke-width="1"/>
<text x="58" y="190.00" text-anchor="end" fill="#93a4c3" font-family="Inter, Arial, sans-serif" font-size="12">25</text>
<line x1="70" x2="935" y1="123.00" y2="123.00" stroke="#27314e" stroke-width="1"/>
<text x="58" y="127.00" text-anchor="end" fill="#93a4c3" font-family="Inter, Arial, sans-serif" font-size="12">33</text>
<line x1="70" x2="935" y1="60.00" y2="60.00" stroke="#27314e" stroke-width="1"/>
<text x="58" y="64.00" text-anchor="end" fill="#93a4c3" font-family="Inter, Arial, sans-serif" font-size="12">41</text>
<text x="70.00" y="412" text-anchor="middle" fill="#93a4c3" font-family="Inter, Arial, sans-serif" font-size="12">2025-08-18</text>
<text x="507.47" y="412" text-anchor="middle" fill="#93a4c3" font-family="Inter, Arial, sans-serif" font-size="12">2025-10-21</text>
<text x="935.00" y="412" text-anchor="middle" fill="#93a4c3" font-family="Inter, Arial, sans-serif" font-size="12">2025-12-23</text>
<path d="M 70.00 270.46 L 79.94 245.07 L 89.89 233.63 L 99.83 185.89 L 109.77 255.05 L 119.71 233.17 L 129.66 245.90 L 139.60 258.71 L 149.54 293.71 L 159.48 259.71 L 169.43 225.47 L 179.37 243.31 L 189.31 278.39 L 199.25 265.27 L 209.20 295.39 L 219.14 309.58 L 229.08 305.99 L 239.02 310.95 L 248.97 297.45 L 258.91 295.09 L 268.85 293.87 L 278.79 287.46 L 288.74 253.38 L 298.68 288.22 L 308.62 266.64 L 318.56 279.46 L 328.51 266.03 L 338.45 222.49 L 348.39 245.75 L 358.33 247.43 L 368.28 259.32 L 378.22 297.76 L 388.16 309.80 L 398.10 286.01 L 408.05 296.54 L 417.99 271.60 L 427.93 278.85 L 437.87 256.96 L 447.82 123.98 L 457.76 175.75 L 467.70 212.66 L 477.64 109.03 L 487.59 196.19 L 497.53 336.57 L 507.47 309.88 L 517.41 285.33 L 527.36 232.33 L 537.30 267.94 L 547.24 285.48 L 557.18 299.36 L 567.13 266.80 L 577.07 256.12 L 587.01 236.53 L 596.95 192.98 L 606.90 135.80 L 616.84 183.68 L 626.78 184.67 L 636.72 190.93 L 646.67 255.59 L 656.61 294.63 L 666.55 209.53 L 676.49 237.06 L 686.44 167.36 L 696.38 60.00 L 706.32 70.45 L 716.26 66.18 L 726.21 146.17 L 736.15 277.24 L 746.09 326.96 L 756.03 337.79 L 765.98 375.00 L 775.92 333.06 L 785.86 308.20 L 795.80 290.89 L 805.75 264.74 L 815.69 247.28 L 825.63 278.92 L 835.57 241.33 L 845.52 272.67 L 855.46 307.67 L 865.40 264.05 L 875.34 273.13 L 885.29 273.58 L 895.23 183.07 L 905.17 209.46 L 915.11 304.77 L 925.06 329.32 L 935.00 342.21" fill="none" stroke="#69a7ff" stroke-width="4" stroke-linecap="round" stroke-linejoin="round"/>
<circle cx="935.00" cy="342.21" r="6" fill="#69a7ff"/>
</svg>