<svg xmlns="http://www.w3.org/2000/svg" width="960" height="430" viewBox="0 0 960 430" role="img" aria-label="Composite score history">
<rect width="100%" height="100%" fill="#0b1020" rx="20"/>
<text x="70" y="32" fill="#f5f7fb" font-family="Inter, Arial, sans-serif" font-size="24" font-weight="700">Composite score history</text>
<text x="70" y="52" fill="#93a4c3" font-family="Inter, Arial, sans-serif" font-size="13">Trailing 81 sessions through 2026-01-12</text>
<line x1="70" x2="935" y1="375.00" y2="375.00" stroke="#27314e" stroke-width="1"/>
<text x="58" y="379.00" text-anchor="end" fill="#93a4c3" font-family="Inter, Arial, sans-serif" font-size="12">0</text>
<line x1="70" x2="935" y1="312.00" y2="312.00" stroke="#27314e" stroke-width="1"/>
<text x="58" y="316.00" text-anchor="end" fill="#93a4c3" font-family="Inter, Arial, sans-serif" font-size="12">8</text>
<line x1="70" x2="935" y1="249.00" y2="249.00" stroke="#27314e" stroke-width="1"/>
<text x="58" y="253.00" text-anchor="end" fill="#93a4c3" font-family="Inter, Arial, sans-serif" font-size="12">17</text>
<line x1="70" x2="935" y1="186.00" y2="186.00" stroke="#27314e" stroke-width="1"/>
<text x="58" y="190.00" text-anchor="end" fill="#93a4c3" font-family="Inter, Arial, sans-serif" font-size="12">25</text>
<line x1="70" x2="935" y1="123.00" y2="123.00" stroke="#27314e" stroke-width="1"/>
<text x="58" y="127.00" text-anchor="end" fill="#93a4c3" font-family="Inter, Arial, sans-serif" font-size="12">33</text>
<line x1="70" x2="935" y1="60.00" y2="60.00" stroke="#27314e" stroke-width="1"/>
<text x="58" y="64.00" text-anchor="end" fill="#93a4c3" font-family="Inter, Arial, sans-serif" font-size="12">41</text>
<text x="70.00" y="412" text-anchor="middle" fill="#93a4c3" font-family="Inter, Arial, sans-serif" font-size="12">2025-09-15</text>
<text x="502.50" y="412" text-anchor="middle" fill="#93a4c3" font-family="Inter, Arial, sans-serif" font-size="12">2025-11-12</text>
<text x="935.00" y="412" text-anchor="middle" fill="#93a4c3" font-family="Inter, Arial, sans-serif" font-size="12">2026-01-12</text>
<path d="M 70.00 279.23 L 80.81 262.22 L 91.62 261.38 L 102.44 258.41 L 113.25 274.19 L 124.06 266.64 L 134.88 279.46 L 145.69 266.03 L 156.50 222.49 L 167.31 245.75 L 178.12 247.43 L 188.94 259.32 L 199.75 297.76 L 210.56 309.80 L 221.38 286.01 L 232.19 296.54 L 243.00 271.60 L 253.81 278.85 L 264.62 256.96 L 275.44 123.98 L 286.25 175.75 L 297.06 212.66 L 307.88 109.03 L 318.69 196.19 L 329.50 336.57 L 340.31 309.88 L 351.12 285.33 L 361.94 232.33 L 372.75 267.94 L 383.56 285.48 L 394.38 299.36 L 405.19 266.80 L 416.00 256.12 L 426.81 236.53 L 437.62 192.98 L 448.44 135.80 L 459.25 183.68 L 470.06 184.67 L 480.88 190.93 L 491.69 255.59 L 502.50 294.63 L 513.31 209.53 L 524.12 237.06 L 534.94 167.36 L 545.75 60.00 L 556.56 70.45 L 567.38 66.18 L 578.19 146.17 L 589.00 277.24 L 599.81 326.96 L 610.62 337.79 L 621.44 375.00 L 632.25 333.06 L 643.06 308.20 L 653.88 290.89 L 664.69 264.74 L 675.50 247.28 L 686.31 278.92 L 697.12 241.33 L 707.94 272.67 L 718.75 307.67 L 729.56 264.05 L 740.38 273.13 L 751.19 273.58 L 762.00 183.07 L 772.81 209.46 L 783.62 304.77 L 794.44 329.32 L 805.25 342.21 L 816.06 374.85 L 826.88 360.82 L 837.69 332.91 L 848.50 310.11 L 859.31 254.37 L 870.12 241.41 L 880.94 250.25 L 891.75 274.96 L 902.56 271.37 L 913.38 287.00 L 924.19 289.90 L 935.00 256.43" fill="none" stroke="#69a7ff" stroke-width="4" stroke-linecap="round" stroke-linejoin="round"/>
<circle cx="935.00" cy="256.43" r="6" fill="#69a7ff"/>
</svg>