<svg xmlns="http://www.w3.org/2000/svg" width="960" height="430" viewBox="0 0 960 430" role="img" aria-label="Composite score history">
<rect width="100%" height="100%" fill="#0b1020" rx="20"/>
<text x="70" y="32" fill="#f5f7fb" font-family="Inter, Arial, sans-serif" font-size="24" font-weight="700">Composite score history</text>
<text x="70" y="52" fill="#93a4c3" font-family="Inter, Arial, sans-serif" font-size="13">Trailing 72 sessions through 2026-01-12</text>
<line x1="70" x2="935" y1="375.00" y2="375.00" stroke="#27314e" stroke-width="1"/>
<text x="58" y="379.00" text-anchor="end" fill="#93a4c3" font-family="Inter, Arial, sans-serif" font-size="12">0</text>
<line x1="70" x2="935" y1="312.00" y2="312.00" stroke="#27314e" stroke-width="1"/>
<text x="58" y="316.00" text-anchor="end" fill="#93a4c3" font-family="Inter, Arial, sans-serif" font-size="12">8</text>
<line x1="70" x2="935" y1="249.00" y2="249.00" stroke="#27314e" stroke-width="1"/>
<text x="58" y="253.00" text-anchor="end" fill="#93a4c3" font-family="Inter, Arial, sans-serif" font-size="12">17</text>
<line x1="70" x2="935" y1="186.00" y2="186.00" stroke="#27314e" stroke-width="1"/>
<text x="58" y="190.00" text-anchor="end" fill="#93a4c3" font-family="Inter, Arial, sans-serif" font-size="12">25</text>
<line x1="70" x2="935" y1="123.00" y2="123.00" stroke="#27314e" stroke-width="1"/>
<text x="58" y="127.00" text-anchor="end" fill="#93a4c3" font-family="Inter, Arial, sans-serif" font-size="12">33</text>
<line x1="70" x2="935" y1="60.00" y2="60.00" stroke="#27314e" stroke-width="1"/>
<text x="58" y="64.00" text-anchor="end" fill="#93a4c3" font-family="Inter, Arial, sans-serif" font-size="12">41</text>
<text x="70.00" y="412" text-anchor="middle" fill="#93a4c3" font-family="Inter, Arial, sans-serif" font-size="12">2025-09-26</text>
<text x="508.59" y="412" text-anchor="middle" fill="#93a4c3" font-family="Inter, Arial, sans-serif" font-size="12">2025-11-19</text>
<text x="935.00" y="412" text-anchor="middle" fill="#93a4c3" font-family="Inter, Arial, sans-serif" font-size="12">2026-01-12</text>
<path d="M 70.00 275.87 L 82.18 271.30 L 94.37 277.40 L 106.55 289.75 L 118.73 288.83 L 130.92 286.01 L 143.10 296.54 L 155.28 271.60 L 167.46 278.85 L 179.65 256.96 L 191.83 123.98 L 204.01 175.75 L 216.20 212.66 L 228.38 109.03 L 240.56 196.19 L 252.75 336.57 L 264.93 309.88 L 277.11 285.33 L 289.30 232.33 L 301.48 267.94 L 313.66 285.48 L 325.85 299.36 L 338.03 266.80 L 350.21 256.12 L 362.39 236.53 L 374.58 192.98 L 386.76 135.80 L 398.94 183.68 L 411.13 184.67 L 423.31 190.93 L 435.49 255.59 L 447.68 294.63 L 459.86 209.53 L 472.04 237.06 L 484.23 167.36 L 496.41 60.00 L 508.59 70.45 L 520.77 66.18 L 532.96 146.17 L 545.14 277.24 L 557.32 326.96 L 569.51 337.79 L 581.69 375.00 L 593.87 333.06 L 606.06 308.20 L 618.24 290.89 L 630.42 264.74 L 642.61 247.28 L 654.79 278.92 L 666.97 241.33 L 679.15 272.67 L 691.34 307.67 L 703.52 264.05 L 715.70 273.13 L 727.89 273.58 L 740.07 183.07 L 752.25 209.46 L 764.44 304.77 L 776.62 329.32 L 788.80 342.21 L 800.99 374.85 L 813.17 360.82 L 825.35 332.91 L 837.54 310.11 L 849.72 254.37 L 861.90 241.41 L 874.08 250.25 L 886.27 274.96 L 898.45 271.37 L 910.63 287.00 L 922.82 289.90 L 935.00 256.43" fill="none" stroke="#69a7ff" stroke-width="4" stroke-linecap="round" stroke-linejoin="round"/>
<circle cx="935.00" cy="256.43" r="6" fill="#69a7ff"/>
</svg>