<svg xmlns="http://www.w3.org/2000/svg" width="960" height="430" viewBox="0 0 960 430" role="img" aria-label="Composite score history">
<rect width="100%" height="100%" fill="#0b1020" rx="20"/>
<text x="70" y="32" fill="#f5f7fb" font-family="Inter, Arial, sans-serif" font-size="24" font-weight="700">Composite score history</text>
<text x="70" y="52" fill="#93a4c3" font-family="Inter, Arial, sans-serif" font-size="13">Trailing 60 sessions through 2026-01-12</text>
<line x1="70" x2="935" y1="375.00" y2="375.00" stroke="#27314e" stroke-width="1"/>
<text x="58" y="379.00" text-anchor="end" fill="#93a4c3" font-family="Inter, Arial, sans-serif" font-size="12">0</text>
<line x1="70" x2="935" y1="312.00" y2="312.00" stroke="#27314e" stroke-width="1"/>
<text x="58" y="316.00" text-anchor="end" fill="#93a4c3" font-family="Inter, Arial, sans-serif" font-size="12">8</text>
<line x1="70" x2="935" y1="249.00" y2="249.00" stroke="#27314e" stroke-width="1"/>
<text x="58" y="253.00" text-anchor="end" fill="#93a4c3" font-family="Inter, Arial, sans-serif" font-size="12">17</text>
<line x1="70" x2="935" y1="186.00" y2="186.00" stroke="#27314e" stroke-width="1"/>
<text x="58" y="190.00" text-anchor="end" fill="#93a4c3" font-family="Inter, Arial, sans-serif" font-size="12">25</text>
<line x1="70" x2="935" y1="123.00" y2="123.00" stroke="#27314e" stroke-width="1"/>
<text x="58" y="127.00" text-anchor="end" fill="#93a4c3" font-family="Inter, Arial, sans-serif" font-size="12">33</text>
<line x1="70" x2="935" y1="60.00" y2="60.00" stroke="#27314e" stroke-width="1"/>
<text x="58" y="64.00" text-anchor="end" fill="#93a4c3" font-family="Inter, Arial, sans-serif" font-size="12">41</text>
<text x="70.00" y="412" text-anchor="middle" fill="#93a4c3" font-family="Inter, Arial, sans-serif" font-size="12">2025-10-15</text>
<text x="509.83" y="412" text-anchor="middle" fill="#93a4c3" font-family="Inter, Arial, sans-serif" font-size="12">2025-11-28</text>
<text x="935.00" y="412" text-anchor="middle" fill="#93a4c3" font-family="Inter, Arial, sans-serif" font-size="12">2026-01-12</text>
<path d="M 70.00 261.69 L 84.66 186.43 L 99.32 262.45 L 113.98 301.72 L 128.64 302.10 L 143.31 285.33 L 157.97 232.33 L 172.63 267.94 L 187.29 285.48 L 201.95 299.36 L 216.61 266.80 L 231.27 256.12 L 245.93 236.53 L 260.59 192.98 L 275.25 135.80 L 289.92 183.68 L 304.58 184.67 L 319.24 190.93 L 333.90 255.59 L 348.56 294.63 L 363.22 209.53 L 377.88 237.06 L 392.54 167.36 L 407.20 60.00 L 421.86 70.45 L 436.53 66.18 L 451.19 146.17 L 465.85 277.24 L 480.51 326.96 L 495.17 337.79 L 509.83 375.00 L 524.49 333.06 L 539.15 308.20 L 553.81 290.89 L 568.47 264.74 L 583.14 247.28 L 597.80 278.92 L 612.46 241.33 L 627.12 272.67 L 641.78 307.67 L 656.44 264.05 L 671.10 273.13 L 685.76 273.58 L 700.42 183.07 L 715.08 209.46 L 729.75 304.77 L 744.41 329.32 L 759.07 342.21 L 773.73 374.85 L 788.39 360.82 L 803.05 332.91 L 817.71 310.11 L 832.37 254.37 L 847.03 241.41 L 861.69 250.25 L 876.36 274.96 L 891.02 271.37 L 905.68 287.00 L 920.34 289.90 L 935.00 256.43" fill="none" stroke="#69a7ff" stroke-width="4" stroke-linecap="round" stroke-linejoin="round"/>
<circle cx="935.00" cy="256.43" r="6" fill="#69a7ff"/>
</svg>