<svg xmlns="http://www.w3.org/2000/svg" width="960" height="430" viewBox="0 0 960 430" role="img" aria-label="Composite score history">
<rect width="100%" height="100%" fill="#0b1020" rx="20"/>
<text x="70" y="32" fill="#f5f7fb" font-family="Inter, Arial, sans-serif" font-size="24" font-weight="700">Composite score history</text>
<text x="70" y="52" fill="#93a4c3" font-family="Inter, Arial, sans-serif" font-size="13">Trailing 65 sessions through 2026-01-12</text>
<line x1="70" x2="935" y1="375.00" y2="375.00" stroke="#27314e" stroke-width="1"/>
<text x="58" y="379.00" text-anchor="end" fill="#93a4c3" font-family="Inter, Arial, sans-serif" font-size="12">0</text>
<line x1="70" x2="935" y1="312.00" y2="312.00" stroke="#27314e" stroke-width="1"/>
<text x="58" y="316.00" text-anchor="end" fill="#93a4c3" font-family="Inter, Arial, sans-serif" font-size="12">8</text>
<line x1="70" x2="935" y1="249.00" y2="249.00" stroke="#27314e" stroke-width="1"/>
<text x="58" y="253.00" text-anchor="end" fill="#93a4c3" font-family="Inter, Arial, sans-serif" font-size="12">17</text>
<line x1="70" x2="935" y1="186.00" y2="186.00" stroke="#27314e" stroke-width="1"/>
<text x="58" y="190.00" text-anchor="end" fill="#93a4c3" font-family="Inter, Arial, sans-serif" font-size="12">25</text>
<line x1="70" x2="935" y1="123.00" y2="123.00" stroke="#27314e" stroke-width="1"/>
<text x="58" y="127.00" text-anchor="end" fill="#93a4c3" font-family="Inter, Arial, sans-serif" font-size="12">33</text>
<line x1="70" x2="935" y1="60.00" y2="60.00" stroke="#27314e" stroke-width="1"/>
<text x="58" y="64.00" text-anchor="end" fill="#93a4c3" font-family="Inter, Arial, sans-serif" font-size="12">41</text>
<text x="70.00" y="412" text-anchor="middle" fill="#93a4c3" font-family="Inter, Arial, sans-serif" font-size="12">2025-10-07</text>
<text x="502.50" y="412" text-anchor="middle" fill="#93a4c3" font-family="Inter, Arial, sans-serif" font-size="12">2025-11-24</text>
<text x="935.00" y="412" text-anchor="middle" fill="#93a4c3" font-family="Inter, Arial, sans-serif" font-size="12">2026-01-12</text>
<path d="M 70.00 270.99 L 83.52 284.03 L 97.03 270.84 L 110.55 128.86 L 124.06 196.34 L 137.58 212.66 L 151.09 109.03 L 164.61 196.19 L 178.12 336.57 L 191.64 309.88 L 205.16 285.33 L 218.67 232.33 L 232.19 267.94 L 245.70 285.48 L 259.22 299.36 L 272.73 266.80 L 286.25 256.12 L 299.77 236.53 L 313.28 192.98 L 326.80 135.80 L 340.31 183.68 L 353.83 184.67 L 367.34 190.93 L 380.86 255.59 L 394.38 294.63 L 407.89 209.53 L 421.41 237.06 L 434.92 167.36 L 448.44 60.00 L 461.95 70.45 L 475.47 66.18 L 488.98 146.17 L 502.50 277.24 L 516.02 326.96 L 529.53 337.79 L 543.05 375.00 L 556.56 333.06 L 570.08 308.20 L 583.59 290.89 L 597.11 264.74 L 610.62 247.28 L 624.14 278.92 L 637.66 241.33 L 651.17 272.67 L 664.69 307.67 L 678.20 264.05 L 691.72 273.13 L 705.23 273.58 L 718.75 183.07 L 732.27 209.46 L 745.78 304.77 L 759.30 329.32 L 772.81 342.21 L 786.33 374.85 L 799.84 360.82 L 813.36 332.91 L 826.88 310.11 L 840.39 254.37 L 853.91 241.41 L 867.42 250.25 L 880.94 274.96 L 894.45 271.37 L 907.97 287.00 L 921.48 289.90 L 935.00 256.43" fill="none" stroke="#69a7ff" stroke-width="4" stroke-linecap="round" stroke-linejoin="round"/>
<circle cx="935.00" cy="256.43" r="6" fill="#69a7ff"/>
</svg>