<svg xmlns="http://www.w3.org/2000/svg" width="960" height="430" viewBox="0 0 960 430" role="img" aria-label="Composite score history">
<rect width="100%" height="100%" fill="#0b1020" rx="20"/>
<text x="70" y="32" fill="#f5f7fb" font-family="Inter, Arial, sans-serif" font-size="24" font-weight="700">Composite score history</text>
<text x="70" y="52" fill="#93a4c3" font-family="Inter, Arial, sans-serif" font-size="13">Trailing 62 sessions through 2026-01-12</text>
<line x1="70" x2="935" y1="375.00" y2="375.00" stroke="#27314e" stroke-width="1"/>
<text x="58" y="379.00" text-anchor="end" fill="#93a4c3" font-family="Inter, Arial, sans-serif" font-size="12">0</text>
<line x1="70" x2="935" y1="312.00" y2="312.00" stroke="#27314e" stroke-width="1"/>
<text x="58" y="316.00" text-anchor="end" fill="#93a4c3" font-family="Inter, Arial, sans-serif" font-size="12">8</text>
<line x1="70" x2="935" y1="249.00" y2="249.00" stroke="#27314e" stroke-width="1"/>
<text x="58" y="253.00" text-anchor="end" fill="#93a4c3" font-family="Inter, Arial, sans-serif" font-size="12">17</text>
<line x1="70" x2="935" y1="186.00" y2="186.00" stroke="#27314e" stroke-width="1"/>
<text x="58" y="190.00" text-anchor="end" fill="#93a4c3" font-family="Inter, Arial, sans-serif" font-size="12">25</text>
<line x1="70" x2="935" y1="123.00" y2="123.00" stroke="#27314e" stroke-width="1"/>
<text x="58" y="127.00" text-anchor="end" fill="#93a4c3" font-family="Inter, Arial, sans-serif" font-size="12">33</text>
<line x1="70" x2="935" y1="60.00" y2="60.00" stroke="#27314e" stroke-width="1"/>
<text x="58" y="64.00" text-anchor="end" fill="#93a4c3" font-family="Inter, Arial, sans-serif" font-size="12">41</text>
<text x="70.00" y="412" text-anchor="middle" fill="#93a4c3" font-family="Inter, Arial, sans-serif" font-size="12">2025-10-10</text>
<text x="509.59" y="412" text-anchor="middle" fill="#93a4c3" font-family="Inter, Arial, sans-serif" font-size="12">2025-11-26</text>
<text x="935.00" y="412" text-anchor="middle" fill="#93a4c3" font-family="Inter, Arial, sans-serif" font-size="12">2026-01-12</text>
<path d="M 70.00 252.46 L 84.18 288.45 L 98.36 296.15 L 112.54 239.96 L 126.72 299.97 L 140.90 336.57 L 155.08 309.88 L 169.26 285.33 L 183.44 232.33 L 197.62 267.94 L 211.80 285.48 L 225.98 299.36 L 240.16 266.80 L 254.34 256.12 L 268.52 236.53 L 282.70 192.98 L 296.89 135.80 L 311.07 183.68 L 325.25 184.67 L 339.43 190.93 L 353.61 255.59 L 367.79 294.63 L 381.97 209.53 L 396.15 237.06 L 410.33 167.36 L 424.51 60.00 L 438.69 70.45 L 452.87 66.18 L 467.05 146.17 L 481.23 277.24 L 495.41 326.96 L 509.59 337.79 L 523.77 375.00 L 537.95 333.06 L 552.13 308.20 L 566.31 290.89 L 580.49 264.74 L 594.67 247.28 L 608.85 278.92 L 623.03 241.33 L 637.21 272.67 L 651.39 307.67 L 665.57 264.05 L 679.75 273.13 L 693.93 273.58 L 708.11 183.07 L 722.30 209.46 L 736.48 304.77 L 750.66 329.32 L 764.84 342.21 L 779.02 374.85 L 793.20 360.82 L 807.38 332.91 L 821.56 310.11 L 835.74 254.37 L 849.92 241.41 L 864.10 250.25 L 878.28 274.96 L 892.46 271.37 L 906.64 287.00 L 920.82 289.90 L 935.00 256.43" fill="none" stroke="#69a7ff" stroke-width="4" stroke-linecap="round" stroke-linejoin="round"/>
<circle cx="935.00" cy="256.43" r="6" fill="#69a7ff"/>
</svg>