<svg xmlns="http://www.w3.org/2000/svg" width="960" height="430" viewBox="0 0 960 430" role="img" aria-label="Composite score history">
<rect width="100%" height="100%" fill="#0b1020" rx="20"/>
<text x="70" y="32" fill="#f5f7fb" font-family="Inter, Arial, sans-serif" font-size="24" font-weight="700">Composite score history</text>
<text x="70" y="52" fill="#93a4c3" font-family="Inter, Arial, sans-serif" font-size="13">Trailing 71 sessions through 2026-01-12</text>
<line x1="70" x2="935" y1="375.00" y2="375.00" stroke="#27314e" stroke-width="1"/>
<text x="58" y="379.00" text-anchor="end" fill="#93a4c3" font-family="Inter, Arial, sans-serif" font-size="12">0</text>
<line x1="70" x2="935" y1="312.00" y2="312.00" stroke="#27314e" stroke-width="1"/>
<text x="58" y="316.00" text-anchor="end" fill="#93a4c3" font-family="Inter, Arial, sans-serif" font-size="12">8</text>
<line x1="70" x2="935" y1="249.00" y2="249.00" stroke="#27314e" stroke-width="1"/>
<text x="58" y="253.00" text-anchor="end" fill="#93a4c3" font-family="Inter, Arial, sans-serif" font-size="12">17</text>
<line x1="70" x2="935" y1="186.00" y2="186.00" stroke="#27314e" stroke-width="1"/>
<text x="58" y="190.00" text-anchor="end" fill="#93a4c3" font-family="Inter, Arial, sans-serif" font-size="12">25</text>
<line x1="70" x2="935" y1="123.00" y2="123.00" stroke="#27314e" stroke-width="1"/>
<text x="58" y="127.00" text-anchor="end" fill="#93a4c3" font-family="Inter, Arial, sans-serif" font-size="12">33</text>
<line x1="70" x2="935" y1="60.00" y2="60.00" stroke="#27314e" stroke-width="1"/>
<text x="58" y="64.00" text-anchor="end" fill="#93a4c3" font-family="Inter, Arial, sans-serif" font-size="12">41</text>
<text x="70.00" y="412" text-anchor="middle" fill="#93a4c3" font-family="Inter, Arial, sans-serif" font-size="12">2025-09-29</text>
<text x="502.50" y="412" text-anchor="middle" fill="#93a4c3" font-family="Inter, Arial, sans-serif" font-size="12">2025-11-19</text>
<text x="935.00" y="412" text-anchor="middle" fill="#93a4c3" font-family="Inter, Arial, sans-serif" font-size="12">2026-01-12</text>
<path d="M 70.00 272.14 L 82.36 274.42 L 94.71 290.66 L 107.07 289.75 L 119.43 286.93 L 131.79 296.54 L 144.14 271.60 L 156.50 278.85 L 168.86 256.96 L 181.21 123.98 L 193.57 175.75 L 205.93 212.66 L 218.29 109.03 L 230.64 196.19 L 243.00 336.57 L 255.36 309.88 L 267.71 285.33 L 280.07 232.33 L 292.43 267.94 L 304.79 285.48 L 317.14 299.36 L 329.50 266.80 L 341.86 256.12 L 354.21 236.53 L 366.57 192.98 L 378.93 135.80 L 391.29 183.68 L 403.64 184.67 L 416.00 190.93 L 428.36 255.59 L 440.71 294.63 L 453.07 209.53 L 465.43 237.06 L 477.79 167.36 L 490.14 60.00 L 502.50 70.45 L 514.86 66.18 L 527.21 146.17 L 539.57 277.24 L 551.93 326.96 L 564.29 337.79 L 576.64 375.00 L 589.00 333.06 L 601.36 308.20 L 613.71 290.89 L 626.07 264.74 L 638.43 247.28 L 650.79 278.92 L 663.14 241.33 L 675.50 272.67 L 687.86 307.67 L 700.21 264.05 L 712.57 273.13 L 724.93 273.58 L 737.29 183.07 L 749.64 209.46 L 762.00 304.77 L 774.36 329.32 L 786.71 342.21 L 799.07 374.85 L 811.43 360.82 L 823.79 332.91 L 836.14 310.11 L 848.50 254.37 L 860.86 241.41 L 873.21 250.25 L 885.57 274.96 L 897.93 271.37 L 910.29 287.00 L 922.64 289.90 L 935.00 256.43" fill="none" stroke="#69a7ff" stroke-width="4" stroke-linecap="round" stroke-linejoin="round"/>
<circle cx="935.00" cy="256.43" r="6" fill="#69a7ff"/>
</svg>