<svg xmlns="http://www.w3.org/2000/svg" width="960" height="430" viewBox="0 0 960 430" role="img" aria-label="Composite score history">
<rect width="100%" height="100%" fill="#0b1020" rx="20"/>
<text x="70" y="32" fill="#f5f7fb" font-family="Inter, Arial, sans-serif" font-size="24" font-weight="700">Composite score history</text>
<text x="70" y="52" fill="#93a4c3" font-family="Inter, Arial, sans-serif" font-size="13">Trailing 85 sessions through 2026-01-12</text>
<line x1="70" x2="935" y1="375.00" y2="375.00" stroke="#27314e" stroke-width="1"/>
<text x="58" y="379.00" text-anchor="end" fill="#93a4c3" font-family="Inter, Arial, sans-serif" font-size="12">0</text>
<line x1="70" x2="935" y1="312.00" y2="312.00" stroke="#27314e" stroke-width="1"/>
<text x="58" y="316.00" text-anchor="end" fill="#93a4c3" font-family="Inter, Arial, sans-serif" font-size="12">8</text>
<line x1="70" x2="935" y1="249.00" y2="249.00" stroke="#27314e" stroke-width="1"/>
<text x="58" y="253.00" text-anchor="end" fill="#93a4c3" font-family="Inter, Arial, sans-serif" font-size="12">17</text>
<line x1="70" x2="935" y1="186.00" y2="186.00" stroke="#27314e" stroke-width="1"/>
<text x="58" y="190.00" text-anchor="end" fill="#93a4c3" font-family="Inter, Arial, sans-serif" font-size="12">25</text>
<line x1="70" x2="935" y1="123.00" y2="123.00" stroke="#27314e" stroke-width="1"/>
<text x="58" y="127.00" text-anchor="end" fill="#93a4c3" font-family="Inter, Arial, sans-serif" font-size="12">33</text>
<line x1="70" x2="935" y1="60.00" y2="60.00" stroke="#27314e" stroke-width="1"/>
<text x="58" y="64.00" text-anchor="end" fill="#93a4c3" font-family="Inter, Arial, sans-serif" font-size="12">41</text>
<text x="70.00" y="412" text-anchor="middle" fill="#93a4c3" font-family="Inter, Arial, sans-serif" font-size="12">2025-09-09</text>
<text x="502.50" y="412" text-anchor="middle" fill="#93a4c3" font-family="Inter, Arial, sans-serif" font-size="12">2025-11-07</text>
<text x="935.00" y="412" text-anchor="middle" fill="#93a4c3" font-family="Inter, Arial, sans-serif" font-size="12">2026-01-12</text>
<path d="M 70.00 280.75 L 80.30 284.72 L 90.60 307.82 L 100.89 297.37 L 111.19 304.62 L 121.49 293.87 L 131.79 287.46 L 142.08 253.38 L 152.38 288.22 L 162.68 266.64 L 172.98 279.46 L 183.27 266.03 L 193.57 222.49 L 203.87 245.75 L 214.17 247.43 L 224.46 259.32 L 234.76 297.76 L 245.06 309.80 L 255.36 286.01 L 265.65 296.54 L 275.95 271.60 L 286.25 278.85 L 296.55 256.96 L 306.85 123.98 L 317.14 175.75 L 327.44 212.66 L 337.74 109.03 L 348.04 196.19 L 358.33 336.57 L 368.63 309.88 L 378.93 285.33 L 389.23 232.33 L 399.52 267.94 L 409.82 285.48 L 420.12 299.36 L 430.42 266.80 L 440.71 256.12 L 451.01 236.53 L 461.31 192.98 L 471.61 135.80 L 481.90 183.68 L 492.20 184.67 L 502.50 190.93 L 512.80 255.59 L 523.10 294.63 L 533.39 209.53 L 543.69 237.06 L 553.99 167.36 L 564.29 60.00 L 574.58 70.45 L 584.88 66.18 L 595.18 146.17 L 605.48 277.24 L 615.77 326.96 L 626.07 337.79 L 636.37 375.00 L 646.67 333.06 L 656.96 308.20 L 667.26 290.89 L 677.56 264.74 L 687.86 247.28 L 698.15 278.92 L 708.45 241.33 L 718.75 272.67 L 729.05 307.67 L 739.35 264.05 L 749.64 273.13 L 759.94 273.58 L 770.24 183.07 L 780.54 209.46 L 790.83 304.77 L 801.13 329.32 L 811.43 342.21 L 821.73 374.85 L 832.02 360.82 L 842.32 332.91 L 852.62 310.11 L 862.92 254.37 L 873.21 241.41 L 883.51 250.25 L 893.81 274.96 L 904.11 271.37 L 914.40 287.00 L 924.70 289.90 L 935.00 256.43" fill="none" stroke="#69a7ff" stroke-width="4" stroke-linecap="round" stroke-linejoin="round"/>
<circle cx="935.00" cy="256.43" r="6" fill="#69a7ff"/>
</svg>