<svg xmlns="http://www.w3.org/2000/svg" width="960" height="430" viewBox="0 0 960 430" role="img" aria-label="Composite score history">
<rect width="100%" height="100%" fill="#0b1020" rx="20"/>
<text x="70" y="32" fill="#f5f7fb" font-family="Inter, Arial, sans-serif" font-size="24" font-weight="700">Composite score history</text>
<text x="70" y="52" fill="#93a4c3" font-family="Inter, Arial, sans-serif" font-size="13">Trailing 77 sessions through 2026-01-12</text>
<line x1="70" x2="935" y1="375.00" y2="375.00" stroke="#27314e" stroke-width="1"/>
<text x="58" y="379.00" text-anchor="end" fill="#93a4c3" font-family="Inter, Arial, sans-serif" font-size="12">0</text>
<line x1="70" x2="935" y1="312.00" y2="312.00" stroke="#27314e" stroke-width="1"/>
<text x="58" y="316.00" text-anchor="end" fill="#93a4c3" font-family="Inter, Arial, sans-serif" font-size="12">8</text>
<line x1="70" x2="935" y1="249.00" y2="249.00" stroke="#27314e" stroke-width="1"/>
<text x="58" y="253.00" text-anchor="end" fill="#93a4c3" font-family="Inter, Arial, sans-serif" font-size="12">17</text>
<line x1="70" x2="935" y1="186.00" y2="186.00" stroke="#27314e" stroke-width="1"/>
<text x="58" y="190.00" text-anchor="end" fill="#93a4c3" font-family="Inter, Arial, sans-serif" font-size="12">25</text>
<line x1="70" x2="935" y1="123.00" y2="123.00" stroke="#27314e" stroke-width="1"/>
<text x="58" y="127.00" text-anchor="end" fill="#93a4c3" font-family="Inter, Arial, sans-serif" font-size="12">33</text>
<line x1="70" x2="935" y1="60.00" y2="60.00" stroke="#27314e" stroke-width="1"/>
<text x="58" y="64.00" text-anchor="end" fill="#93a4c3" font-family="Inter, Arial, sans-serif" font-size="12">41</text>
<text x="70.00" y="412" text-anchor="middle" fill="#93a4c3" font-family="Inter, Arial, sans-serif" font-size="12">2025-09-19</text>
<text x="502.50" y="412" text-anchor="middle" fill="#93a4c3" font-family="Inter, Arial, sans-serif" font-size="12">2025-11-14</text>
<text x="935.00" y="412" text-anchor="middle" fill="#93a4c3" font-family="Inter, Arial, sans-serif" font-size="12">2026-01-12</text>
<path d="M 70.00 276.79 L 81.38 263.67 L 92.76 260.32 L 104.14 253.45 L 115.53 202.21 L 126.91 245.75 L 138.29 247.43 L 149.67 259.32 L 161.05 297.76 L 172.43 309.80 L 183.82 286.01 L 195.20 296.54 L 206.58 271.60 L 217.96 278.85 L 229.34 256.96 L 240.72 123.98 L 252.11 175.75 L 263.49 212.66 L 274.87 109.03 L 286.25 196.19 L 297.63 336.57 L 309.01 309.88 L 320.39 285.33 L 331.78 232.33 L 343.16 267.94 L 354.54 285.48 L 365.92 299.36 L 377.30 266.80 L 388.68 256.12 L 400.07 236.53 L 411.45 192.98 L 422.83 135.80 L 434.21 183.68 L 445.59 184.67 L 456.97 190.93 L 468.36 255.59 L 479.74 294.63 L 491.12 209.53 L 502.50 237.06 L 513.88 167.36 L 525.26 60.00 L 536.64 70.45 L 548.03 66.18 L 559.41 146.17 L 570.79 277.24 L 582.17 326.96 L 593.55 337.79 L 604.93 375.00 L 616.32 333.06 L 627.70 308.20 L 639.08 290.89 L 650.46 264.74 L 661.84 247.28 L 673.22 278.92 L 684.61 241.33 L 695.99 272.67 L 707.37 307.67 L 718.75 264.05 L 730.13 273.13 L 741.51 273.58 L 752.89 183.07 L 764.28 209.46 L 775.66 304.77 L 787.04 329.32 L 798.42 342.21 L 809.80 374.85 L 821.18 360.82 L 832.57 332.91 L 843.95 310.11 L 855.33 254.37 L 866.71 241.41 L 878.09 250.25 L 889.47 274.96 L 900.86 271.37 L 912.24 287.00 L 923.62 289.90 L 935.00 256.43" fill="none" stroke="#69a7ff" stroke-width="4" stroke-linecap="round" stroke-linejoin="round"/>
<circle cx="935.00" cy="256.43" r="6" fill="#69a7ff"/>
</svg>