<svg xmlns="http://www.w3.org/2000/svg" width="960" height="430" viewBox="0 0 960 430" role="img" aria-label="Composite score history">
<rect width="100%" height="100%" fill="#0b1020" rx="20"/>
<text x="70" y="32" fill="#f5f7fb" font-family="Inter, Arial, sans-serif" font-size="24" font-weight="700">Composite score history</text>
<text x="70" y="52" fill="#93a4c3" font-family="Inter, Arial, sans-serif" font-size="13">Trailing 73 sessions through 2025-10-31</text>
<line x1="70" x2="935" y1="375.00" y2="375.00" stroke="#27314e" stroke-width="1"/>
<text x="58" y="379.00" text-anchor="end" fill="#93a4c3" font-family="Inter, Arial, sans-serif" font-size="12">5</text>
<line x1="70" x2="935" y1="312.00" y2="312.00" stroke="#27314e" stroke-width="1"/>
<text x="58" y="316.00" text-anchor="end" fill="#93a4c3" font-family="Inter, Arial, sans-serif" font-size="12">11</text>
<line x1="70" x2="935" y1="249.00" y2="249.00" stroke="#27314e" stroke-width="1"/>
<text x="58" y="253.00" text-anchor="end" fill="#93a4c3" font-family="Inter, Arial, sans-serif" font-size="12">17</text>
<line x1="70" x2="935" y1="186.00" y2="186.00" stroke="#27314e" stroke-width="1"/>
<text x="58" y="190.00" text-anchor="end" fill="#93a4c3" font-family="Inter, Arial, sans-serif" font-size="12">23</text>
<line x1="70" x2="935" y1="123.00" y2="123.00" stroke="#27314e" stroke-width="1"/>
<text x="58" y="127.00" text-anchor="end" fill="#93a4c3" font-family="Inter, Arial, sans-serif" font-size="12">29</text>
<line x1="70" x2="935" y1="60.00" y2="60.00" stroke="#27314e" stroke-width="1"/>
<text x="58" y="64.00" text-anchor="end" fill="#93a4c3" font-family="Inter, Arial, sans-serif" font-size="12">35</text>
<text x="70.00" y="412" text-anchor="middle" fill="#93a4c3" font-family="Inter, Arial, sans-serif" font-size="12">2025-07-21</text>
<text x="502.50" y="412" text-anchor="middle" fill="#93a4c3" font-family="Inter, Arial, sans-serif" font-size="12">2025-09-10</text>
<text x="935.00" y="412" text-anchor="middle" fill="#93a4c3" font-family="Inter, Arial, sans-serif" font-size="12">2025-10-31</text>
<path d="M 70.00 253.50 L 82.01 260.89 L 94.03 279.15 L 106.04 251.28 L 118.06 275.67 L 130.07 275.35 L 142.08 267.43 L 154.10 212.22 L 166.11 205.57 L 178.12 73.72 L 190.14 196.28 L 202.15 187.73 L 214.17 250.44 L 226.18 276.19 L 238.19 268.80 L 250.21 229.96 L 262.22 338.37 L 274.24 334.46 L 286.25 319.79 L 298.26 309.02 L 310.28 310.61 L 322.29 235.87 L 334.31 183.93 L 346.32 141.81 L 358.33 261.84 L 370.35 231.86 L 382.36 249.49 L 394.38 267.22 L 406.39 315.67 L 418.40 268.59 L 430.42 221.19 L 442.43 245.90 L 454.44 294.46 L 466.46 276.30 L 478.47 318.00 L 490.49 337.63 L 502.50 332.67 L 514.51 339.53 L 526.53 320.85 L 538.54 317.57 L 550.56 315.88 L 562.57 307.02 L 574.58 259.83 L 586.60 308.07 L 598.61 278.20 L 610.62 295.93 L 622.64 277.35 L 634.65 217.08 L 646.67 249.27 L 658.68 251.60 L 670.69 268.06 L 682.71 321.27 L 694.72 337.95 L 706.74 305.01 L 718.75 319.58 L 730.76 285.06 L 742.78 295.09 L 754.79 264.79 L 766.81 80.69 L 778.82 152.37 L 790.83 203.46 L 802.85 60.00 L 814.86 180.66 L 826.88 375.00 L 838.89 338.05 L 850.90 304.06 L 862.92 230.70 L 874.93 279.99 L 886.94 304.27 L 898.96 323.49 L 910.97 278.41 L 922.99 263.63 L 935.00 236.50" fill="none" stroke="#69a7ff" stroke-width="4" stroke-linecap="round" stroke-linejoin="round"/>
<circle cx="935.00" cy="236.50" r="6" fill="#69a7ff"/>
</svg>