<svg xmlns="http://www.w3.org/2000/svg" width="960" height="430" viewBox="0 0 960 430" role="img" aria-label="Composite score history">
<rect width="100%" height="100%" fill="#0b1020" rx="20"/>
<text x="70" y="32" fill="#f5f7fb" font-family="Inter, Arial, sans-serif" font-size="24" font-weight="700">Composite score history</text>
<text x="70" y="52" fill="#93a4c3" font-family="Inter, Arial, sans-serif" font-size="13">Trailing 57 sessions through 2025-10-31</text>
<line x1="70" x2="935" y1="375.00" y2="375.00" stroke="#27314e" stroke-width="1"/>
<text x="58" y="379.00" text-anchor="end" fill="#93a4c3" font-family="Inter, Arial, sans-serif" font-size="12">5</text>
<line x1="70" x2="935" y1="312.00" y2="312.00" stroke="#27314e" stroke-width="1"/>
<text x="58" y="316.00" text-anchor="end" fill="#93a4c3" font-family="Inter, Arial, sans-serif" font-size="12">11</text>
<line x1="70" x2="935" y1="249.00" y2="249.00" stroke="#27314e" stroke-width="1"/>
<text x="58" y="253.00" text-anchor="end" fill="#93a4c3" font-family="Inter, Arial, sans-serif" font-size="12">17</text>
<line x1="70" x2="935" y1="186.00" y2="186.00" stroke="#27314e" stroke-width="1"/>
<text x="58" y="190.00" text-anchor="end" fill="#93a4c3" font-family="Inter, Arial, sans-serif" font-size="12">23</text>
<line x1="70" x2="935" y1="123.00" y2="123.00" stroke="#27314e" stroke-width="1"/>
<text x="58" y="127.00" text-anchor="end" fill="#93a4c3" font-family="Inter, Arial, sans-serif" font-size="12">29</text>
<line x1="70" x2="935" y1="60.00" y2="60.00" stroke="#27314e" stroke-width="1"/>
<text x="58" y="64.00" text-anchor="end" fill="#93a4c3" font-family="Inter, Arial, sans-serif" font-size="12">35</text>
<text x="70.00" y="412" text-anchor="middle" fill="#93a4c3" font-family="Inter, Arial, sans-serif" font-size="12">2025-08-12</text>
<text x="502.50" y="412" text-anchor="middle" fill="#93a4c3" font-family="Inter, Arial, sans-serif" font-size="12">2025-09-22</text>
<text x="935.00" y="412" text-anchor="middle" fill="#93a4c3" font-family="Inter, Arial, sans-serif" font-size="12">2025-10-31</text>
<path d="M 70.00 287.49 L 85.45 303.01 L 100.89 285.17 L 116.34 269.54 L 131.79 261.20 L 147.23 235.87 L 162.68 183.93 L 178.12 141.81 L 193.57 261.84 L 209.02 231.86 L 224.46 249.49 L 239.91 267.22 L 255.36 315.67 L 270.80 268.59 L 286.25 221.19 L 301.70 245.90 L 317.14 294.46 L 332.59 276.30 L 348.04 318.00 L 363.48 337.63 L 378.93 332.67 L 394.38 339.53 L 409.82 320.85 L 425.27 317.57 L 440.71 315.88 L 456.16 307.02 L 471.61 259.83 L 487.05 308.07 L 502.50 278.20 L 517.95 295.93 L 533.39 277.35 L 548.84 217.08 L 564.29 249.27 L 579.73 251.60 L 595.18 268.06 L 610.62 321.27 L 626.07 337.95 L 641.52 305.01 L 656.96 319.58 L 672.41 285.06 L 687.86 295.09 L 703.30 264.79 L 718.75 80.69 L 734.20 152.37 L 749.64 203.46 L 765.09 60.00 L 780.54 180.66 L 795.98 375.00 L 811.43 338.05 L 826.88 304.06 L 842.32 230.70 L 857.77 279.99 L 873.21 304.27 L 888.66 323.49 L 904.11 278.41 L 919.55 263.63 L 935.00 236.50" fill="none" stroke="#69a7ff" stroke-width="4" stroke-linecap="round" stroke-linejoin="round"/>
<circle cx="935.00" cy="236.50" r="6" fill="#69a7ff"/>
</svg>