<svg xmlns="http://www.w3.org/2000/svg" width="960" height="430" viewBox="0 0 960 430" role="img" aria-label="Composite score history">
<rect width="100%" height="100%" fill="#0b1020" rx="20"/>
<text x="70" y="32" fill="#f5f7fb" font-family="Inter, Arial, sans-serif" font-size="24" font-weight="700">Composite score history</text>
<text x="70" y="52" fill="#93a4c3" font-family="Inter, Arial, sans-serif" font-size="13">Trailing 44 sessions through 2025-10-31</text>
<line x1="70" x2="935" y1="375.00" y2="375.00" stroke="#27314e" stroke-width="1"/>
<text x="58" y="379.00" text-anchor="end" fill="#93a4c3" font-family="Inter, Arial, sans-serif" font-size="12">5</text>
<line x1="70" x2="935" y1="312.00" y2="312.00" stroke="#27314e" stroke-width="1"/>
<text x="58" y="316.00" text-anchor="end" fill="#93a4c3" font-family="Inter, Arial, sans-serif" font-size="12">11</text>
<line x1="70" x2="935" y1="249.00" y2="249.00" stroke="#27314e" stroke-width="1"/>
<text x="58" y="253.00" text-anchor="end" fill="#93a4c3" font-family="Inter, Arial, sans-serif" font-size="12">17</text>
<line x1="70" x2="935" y1="186.00" y2="186.00" stroke="#27314e" stroke-width="1"/>
<text x="58" y="190.00" text-anchor="end" fill="#93a4c3" font-family="Inter, Arial, sans-serif" font-size="12">23</text>
<line x1="70" x2="935" y1="123.00" y2="123.00" stroke="#27314e" stroke-width="1"/>
<text x="58" y="127.00" text-anchor="end" fill="#93a4c3" font-family="Inter, Arial, sans-serif" font-size="12">29</text>
<line x1="70" x2="935" y1="60.00" y2="60.00" stroke="#27314e" stroke-width="1"/>
<text x="58" y="64.00" text-anchor="end" fill="#93a4c3" font-family="Inter, Arial, sans-serif" font-size="12">35</text>
<text x="70.00" y="412" text-anchor="middle" fill="#93a4c3" font-family="Inter, Arial, sans-serif" font-size="12">2025-08-29</text>
<text x="512.56" y="412" text-anchor="middle" fill="#93a4c3" font-family="Inter, Arial, sans-serif" font-size="12">2025-10-01</text>
<text x="935.00" y="412" text-anchor="middle" fill="#93a4c3" font-family="Inter, Arial, sans-serif" font-size="12">2025-10-31</text>
<path d="M 70.00 285.27 L 90.12 174.96 L 110.23 249.49 L 130.35 307.65 L 150.47 308.92 L 170.58 318.00 L 190.70 337.63 L 210.81 332.67 L 230.93 339.53 L 251.05 320.85 L 271.16 317.57 L 291.28 315.88 L 311.40 307.02 L 331.51 259.83 L 351.63 308.07 L 371.74 278.20 L 391.86 295.93 L 411.98 277.35 L 432.09 217.08 L 452.21 249.27 L 472.33 251.60 L 492.44 268.06 L 512.56 321.27 L 532.67 337.95 L 552.79 305.01 L 572.91 319.58 L 593.02 285.06 L 613.14 295.09 L 633.26 264.79 L 653.37 80.69 L 673.49 152.37 L 693.60 203.46 L 713.72 60.00 L 733.84 180.66 L 753.95 375.00 L 774.07 338.05 L 794.19 304.06 L 814.30 230.70 L 834.42 279.99 L 854.53 304.27 L 874.65 323.49 L 894.77 278.41 L 914.88 263.63 L 935.00 236.50" fill="none" stroke="#69a7ff" stroke-width="4" stroke-linecap="round" stroke-linejoin="round"/>
<circle cx="935.00" cy="236.50" r="6" fill="#69a7ff"/>
</svg>