<svg xmlns="http://www.w3.org/2000/svg" width="960" height="430" viewBox="0 0 960 430" role="img" aria-label="Composite score history">
<rect width="100%" height="100%" fill="#0b1020" rx="20"/>
<text x="70" y="32" fill="#f5f7fb" font-family="Inter, Arial, sans-serif" font-size="24" font-weight="700">Composite score history</text>
<text x="70" y="52" fill="#93a4c3" font-family="Inter, Arial, sans-serif" font-size="13">Trailing 50 sessions through 2025-10-31</text>
<line x1="70" x2="935" y1="375.00" y2="375.00" stroke="#27314e" stroke-width="1"/>
<text x="58" y="379.00" text-anchor="end" fill="#93a4c3" font-family="Inter, Arial, sans-serif" font-size="12">5</text>
<line x1="70" x2="935" y1="312.00" y2="312.00" stroke="#27314e" stroke-width="1"/>
<text x="58" y="316.00" text-anchor="end" fill="#93a4c3" font-family="Inter, Arial, sans-serif" font-size="12">11</text>
<line x1="70" x2="935" y1="249.00" y2="249.00" stroke="#27314e" stroke-width="1"/>
<text x="58" y="253.00" text-anchor="end" fill="#93a4c3" font-family="Inter, Arial, sans-serif" font-size="12">17</text>
<line x1="70" x2="935" y1="186.00" y2="186.00" stroke="#27314e" stroke-width="1"/>
<text x="58" y="190.00" text-anchor="end" fill="#93a4c3" font-family="Inter, Arial, sans-serif" font-size="12">23</text>
<line x1="70" x2="935" y1="123.00" y2="123.00" stroke="#27314e" stroke-width="1"/>
<text x="58" y="127.00" text-anchor="end" fill="#93a4c3" font-family="Inter, Arial, sans-serif" font-size="12">29</text>
<line x1="70" x2="935" y1="60.00" y2="60.00" stroke="#27314e" stroke-width="1"/>
<text x="58" y="64.00" text-anchor="end" fill="#93a4c3" font-family="Inter, Arial, sans-serif" font-size="12">35</text>
<text x="70.00" y="412" text-anchor="middle" fill="#93a4c3" font-family="Inter, Arial, sans-serif" font-size="12">2025-08-21</text>
<text x="511.33" y="412" text-anchor="middle" fill="#93a4c3" font-family="Inter, Arial, sans-serif" font-size="12">2025-09-26</text>
<text x="935.00" y="412" text-anchor="middle" fill="#93a4c3" font-family="Inter, Arial, sans-serif" font-size="12">2025-10-31</text>
<path d="M 70.00 265.95 L 87.65 305.43 L 105.31 279.04 L 122.96 293.08 L 140.61 299.10 L 158.27 315.67 L 175.92 268.59 L 193.57 221.19 L 211.22 245.90 L 228.88 294.46 L 246.53 276.30 L 264.18 318.00 L 281.84 337.63 L 299.49 332.67 L 317.14 339.53 L 334.80 320.85 L 352.45 317.57 L 370.10 315.88 L 387.76 307.02 L 405.41 259.83 L 423.06 308.07 L 440.71 278.20 L 458.37 295.93 L 476.02 277.35 L 493.67 217.08 L 511.33 249.27 L 528.98 251.60 L 546.63 268.06 L 564.29 321.27 L 581.94 337.95 L 599.59 305.01 L 617.24 319.58 L 634.90 285.06 L 652.55 295.09 L 670.20 264.79 L 687.86 80.69 L 705.51 152.37 L 723.16 203.46 L 740.82 60.00 L 758.47 180.66 L 776.12 375.00 L 793.78 338.05 L 811.43 304.06 L 829.08 230.70 L 846.73 279.99 L 864.39 304.27 L 882.04 323.49 L 899.69 278.41 L 917.35 263.63 L 935.00 236.50" fill="none" stroke="#69a7ff" stroke-width="4" stroke-linecap="round" stroke-linejoin="round"/>
<circle cx="935.00" cy="236.50" r="6" fill="#69a7ff"/>
</svg>