<svg xmlns="http://www.w3.org/2000/svg" width="960" height="430" viewBox="0 0 960 430" role="img" aria-label="Composite score history">
<rect width="100%" height="100%" fill="#0b1020" rx="20"/>
<text x="70" y="32" fill="#f5f7fb" font-family="Inter, Arial, sans-serif" font-size="24" font-weight="700">Composite score history</text>
<text x="70" y="52" fill="#93a4c3" font-family="Inter, Arial, sans-serif" font-size="13">Trailing 64 sessions through 2025-10-31</text>
<line x1="70" x2="935" y1="375.00" y2="375.00" stroke="#27314e" stroke-width="1"/>
<text x="58" y="379.00" text-anchor="end" fill="#93a4c3" font-family="Inter, Arial, sans-serif" font-size="12">5</text>
<line x1="70" x2="935" y1="312.00" y2="312.00" stroke="#27314e" stroke-width="1"/>
<text x="58" y="316.00" text-anchor="end" fill="#93a4c3" font-family="Inter, Arial, sans-serif" font-size="12">11</text>
<line x1="70" x2="935" y1="249.00" y2="249.00" stroke="#27314e" stroke-width="1"/>
<text x="58" y="253.00" text-anchor="end" fill="#93a4c3" font-family="Inter, Arial, sans-serif" font-size="12">17</text>
<line x1="70" x2="935" y1="186.00" y2="186.00" stroke="#27314e" stroke-width="1"/>
<text x="58" y="190.00" text-anchor="end" fill="#93a4c3" font-family="Inter, Arial, sans-serif" font-size="12">23</text>
<line x1="70" x2="935" y1="123.00" y2="123.00" stroke="#27314e" stroke-width="1"/>
<text x="58" y="127.00" text-anchor="end" fill="#93a4c3" font-family="Inter, Arial, sans-serif" font-size="12">29</text>
<line x1="70" x2="935" y1="60.00" y2="60.00" stroke="#27314e" stroke-width="1"/>
<text x="58" y="64.00" text-anchor="end" fill="#93a4c3" font-family="Inter, Arial, sans-serif" font-size="12">35</text>
<text x="70.00" y="412" text-anchor="middle" fill="#93a4c3" font-family="Inter, Arial, sans-serif" font-size="12">2025-08-01</text>
<text x="509.37" y="412" text-anchor="middle" fill="#93a4c3" font-family="Inter, Arial, sans-serif" font-size="12">2025-09-17</text>
<text x="935.00" y="412" text-anchor="middle" fill="#93a4c3" font-family="Inter, Arial, sans-serif" font-size="12">2025-10-31</text>
<path d="M 70.00 252.12 L 83.73 293.40 L 97.46 263.00 L 111.19 312.72 L 124.92 290.55 L 138.65 268.80 L 152.38 229.96 L 166.11 338.37 L 179.84 334.46 L 193.57 319.79 L 207.30 309.02 L 221.03 310.61 L 234.76 235.87 L 248.49 183.93 L 262.22 141.81 L 275.95 261.84 L 289.68 231.86 L 303.41 249.49 L 317.14 267.22 L 330.87 315.67 L 344.60 268.59 L 358.33 221.19 L 372.06 245.90 L 385.79 294.46 L 399.52 276.30 L 413.25 318.00 L 426.98 337.63 L 440.71 332.67 L 454.44 339.53 L 468.17 320.85 L 481.90 317.57 L 495.63 315.88 L 509.37 307.02 L 523.10 259.83 L 536.83 308.07 L 550.56 278.20 L 564.29 295.93 L 578.02 277.35 L 591.75 217.08 L 605.48 249.27 L 619.21 251.60 L 632.94 268.06 L 646.67 321.27 L 660.40 337.95 L 674.13 305.01 L 687.86 319.58 L 701.59 285.06 L 715.32 295.09 L 729.05 264.79 L 742.78 80.69 L 756.51 152.37 L 770.24 203.46 L 783.97 60.00 L 797.70 180.66 L 811.43 375.00 L 825.16 338.05 L 838.89 304.06 L 852.62 230.70 L 866.35 279.99 L 880.08 304.27 L 893.81 323.49 L 907.54 278.41 L 921.27 263.63 L 935.00 236.50" fill="none" stroke="#69a7ff" stroke-width="4" stroke-linecap="round" stroke-linejoin="round"/>
<circle cx="935.00" cy="236.50" r="6" fill="#69a7ff"/>
</svg>