<svg xmlns="http://www.w3.org/2000/svg" width="960" height="430" viewBox="0 0 960 430" role="img" aria-label="Composite score history">
<rect width="100%" height="100%" fill="#0b1020" rx="20"/>
<text x="70" y="32" fill="#f5f7fb" font-family="Inter, Arial, sans-serif" font-size="24" font-weight="700">Composite score history</text>
<text x="70" y="52" fill="#93a4c3" font-family="Inter, Arial, sans-serif" font-size="13">Trailing 76 sessions through 2025-10-31</text>
<line x1="70" x2="935" y1="375.00" y2="375.00" stroke="#27314e" stroke-width="1"/>
<text x="58" y="379.00" text-anchor="end" fill="#93a4c3" font-family="Inter, Arial, sans-serif" font-size="12">12</text>
<line x1="70" x2="935" y1="312.00" y2="312.00" stroke="#27314e" stroke-width="1"/>
<text x="58" y="316.00" text-anchor="end" fill="#93a4c3" font-family="Inter, Arial, sans-serif" font-size="12">16</text>
<line x1="70" x2="935" y1="249.00" y2="249.00" stroke="#27314e" stroke-width="1"/>
<text x="58" y="253.00" text-anchor="end" fill="#93a4c3" font-family="Inter, Arial, sans-serif" font-size="12">21</text>
<line x1="70" x2="935" y1="186.00" y2="186.00" stroke="#27314e" stroke-width="1"/>
<text x="58" y="190.00" text-anchor="end" fill="#93a4c3" font-family="Inter, Arial, sans-serif" font-size="12">26</text>
<line x1="70" x2="935" y1="123.00" y2="123.00" stroke="#27314e" stroke-width="1"/>
<text x="58" y="127.00" text-anchor="end" fill="#93a4c3" font-family="Inter, Arial, sans-serif" font-size="12">30</text>
<line x1="70" x2="935" y1="60.00" y2="60.00" stroke="#27314e" stroke-width="1"/>
<text x="58" y="64.00" text-anchor="end" fill="#93a4c3" font-family="Inter, Arial, sans-serif" font-size="12">35</text>
<text x="70.00" y="412" text-anchor="middle" fill="#93a4c3" font-family="Inter, Arial, sans-serif" font-size="12">2025-07-16</text>
<text x="508.27" y="412" text-anchor="middle" fill="#93a4c3" font-family="Inter, Arial, sans-serif" font-size="12">2025-09-09</text>
<text x="935.00" y="412" text-anchor="middle" fill="#93a4c3" font-family="Inter, Arial, sans-serif" font-size="12">2025-10-31</text>
<path d="M 70.00 300.87 L 81.53 253.07 L 93.07 299.78 L 104.60 308.88 L 116.13 316.21 L 127.67 329.52 L 139.20 314.31 L 150.73 308.88 L 162.27 291.63 L 173.80 293.81 L 185.33 253.62 L 196.87 247.23 L 208.40 77.79 L 219.93 235.29 L 231.47 224.29 L 243.00 304.94 L 254.53 337.66 L 266.07 246.28 L 277.60 255.25 L 289.13 339.02 L 300.67 348.12 L 312.20 325.31 L 323.73 348.25 L 335.27 342.01 L 346.80 286.20 L 358.33 219.40 L 369.87 165.23 L 381.40 310.64 L 392.93 281.04 L 404.47 274.80 L 416.00 281.04 L 427.53 318.65 L 439.07 328.29 L 450.60 267.33 L 462.13 299.10 L 473.67 350.83 L 485.20 338.20 L 496.73 373.51 L 508.27 365.77 L 519.80 366.58 L 531.33 375.00 L 542.87 341.73 L 554.40 328.56 L 565.93 340.11 L 577.47 342.14 L 589.00 294.08 L 600.53 337.80 L 612.07 300.46 L 623.60 337.80 L 635.13 320.28 L 646.67 262.03 L 658.20 303.45 L 669.73 306.43 L 681.27 311.46 L 692.80 358.71 L 704.33 360.61 L 715.87 338.34 L 727.40 353.55 L 738.93 336.17 L 750.47 340.78 L 762.00 313.36 L 773.53 86.61 L 785.07 178.67 L 796.60 244.52 L 808.13 60.00 L 819.67 215.19 L 831.20 370.52 L 842.73 371.06 L 854.27 359.52 L 865.80 223.61 L 877.33 278.06 L 888.87 303.72 L 900.40 320.42 L 911.93 243.98 L 923.47 279.69 L 935.00 262.85" fill="none" stroke="#69a7ff" stroke-width="4" stroke-linecap="round" stroke-linejoin="round"/>
<circle cx="935.00" cy="262.85" r="6" fill="#69a7ff"/>
<text x="927.00" y="250.85" text-anchor="end" fill="#f5f7fb" font-family="Inter, Arial, sans-serif" font-size="12" font-weight="600">19.94</text>
</svg>