<svg xmlns="http://www.w3.org/2000/svg" width="960" height="430" viewBox="0 0 960 430" role="img" aria-label="Composite score history">
<rect width="100%" height="100%" fill="#0b1020" rx="20"/>
<text x="70" y="32" fill="#f5f7fb" font-family="Inter, Arial, sans-serif" font-size="24" font-weight="700">Composite score history</text>
<text x="70" y="52" fill="#93a4c3" font-family="Inter, Arial, sans-serif" font-size="13">Trailing 67 sessions through 2025-10-31</text>
<line x1="70" x2="935" y1="375.00" y2="375.00" stroke="#27314e" stroke-width="1"/>
<text x="58" y="379.00" text-anchor="end" fill="#93a4c3" font-family="Inter, Arial, sans-serif" font-size="12">5</text>
<line x1="70" x2="935" y1="312.00" y2="312.00" stroke="#27314e" stroke-width="1"/>
<text x="58" y="316.00" text-anchor="end" fill="#93a4c3" font-family="Inter, Arial, sans-serif" font-size="12">11</text>
<line x1="70" x2="935" y1="249.00" y2="249.00" stroke="#27314e" stroke-width="1"/>
<text x="58" y="253.00" text-anchor="end" fill="#93a4c3" font-family="Inter, Arial, sans-serif" font-size="12">17</text>
<line x1="70" x2="935" y1="186.00" y2="186.00" stroke="#27314e" stroke-width="1"/>
<text x="58" y="190.00" text-anchor="end" fill="#93a4c3" font-family="Inter, Arial, sans-serif" font-size="12">23</text>
<line x1="70" x2="935" y1="123.00" y2="123.00" stroke="#27314e" stroke-width="1"/>
<text x="58" y="127.00" text-anchor="end" fill="#93a4c3" font-family="Inter, Arial, sans-serif" font-size="12">29</text>
<line x1="70" x2="935" y1="60.00" y2="60.00" stroke="#27314e" stroke-width="1"/>
<text x="58" y="64.00" text-anchor="end" fill="#93a4c3" font-family="Inter, Arial, sans-serif" font-size="12">35</text>
<text x="70.00" y="412" text-anchor="middle" fill="#93a4c3" font-family="Inter, Arial, sans-serif" font-size="12">2025-07-29</text>
<text x="502.50" y="412" text-anchor="middle" fill="#93a4c3" font-family="Inter, Arial, sans-serif" font-size="12">2025-09-15</text>
<text x="935.00" y="412" text-anchor="middle" fill="#93a4c3" font-family="Inter, Arial, sans-serif" font-size="12">2025-10-31</text>
<path d="M 70.00 259.73 L 83.11 217.71 L 96.21 184.14 L 109.32 98.53 L 122.42 221.19 L 135.53 187.73 L 148.64 250.44 L 161.74 276.19 L 174.85 268.80 L 187.95 229.96 L 201.06 338.37 L 214.17 334.46 L 227.27 319.79 L 240.38 309.02 L 253.48 310.61 L 266.59 235.87 L 279.70 183.93 L 292.80 141.81 L 305.91 261.84 L 319.02 231.86 L 332.12 249.49 L 345.23 267.22 L 358.33 315.67 L 371.44 268.59 L 384.55 221.19 L 397.65 245.90 L 410.76 294.46 L 423.86 276.30 L 436.97 318.00 L 450.08 337.63 L 463.18 332.67 L 476.29 339.53 L 489.39 320.85 L 502.50 317.57 L 515.61 315.88 L 528.71 307.02 L 541.82 259.83 L 554.92 308.07 L 568.03 278.20 L 581.14 295.93 L 594.24 277.35 L 607.35 217.08 L 620.45 249.27 L 633.56 251.60 L 646.67 268.06 L 659.77 321.27 L 672.88 337.95 L 685.98 305.01 L 699.09 319.58 L 712.20 285.06 L 725.30 295.09 L 738.41 264.79 L 751.52 80.69 L 764.62 152.37 L 777.73 203.46 L 790.83 60.00 L 803.94 180.66 L 817.05 375.00 L 830.15 338.05 L 843.26 304.06 L 856.36 230.70 L 869.47 279.99 L 882.58 304.27 L 895.68 323.49 L 908.79 278.41 L 921.89 263.63 L 935.00 236.50" fill="none" stroke="#69a7ff" stroke-width="4" stroke-linecap="round" stroke-linejoin="round"/>
<circle cx="935.00" cy="236.50" r="6" fill="#69a7ff"/>
</svg>