<svg xmlns="http://www.w3.org/2000/svg" width="960" height="430" viewBox="0 0 960 430" role="img" aria-label="Composite score history">
<rect width="100%" height="100%" fill="#0b1020" rx="20"/>
<text x="70" y="32" fill="#f5f7fb" font-family="Inter, Arial, sans-serif" font-size="24" font-weight="700">Composite score history</text>
<text x="70" y="52" fill="#93a4c3" font-family="Inter, Arial, sans-serif" font-size="13">Trailing 61 sessions through 2025-10-31</text>
<line x1="70" x2="935" y1="375.00" y2="375.00" stroke="#27314e" stroke-width="1"/>
<text x="58" y="379.00" text-anchor="end" fill="#93a4c3" font-family="Inter, Arial, sans-serif" font-size="12">5</text>
<line x1="70" x2="935" y1="312.00" y2="312.00" stroke="#27314e" stroke-width="1"/>
<text x="58" y="316.00" text-anchor="end" fill="#93a4c3" font-family="Inter, Arial, sans-serif" font-size="12">11</text>
<line x1="70" x2="935" y1="249.00" y2="249.00" stroke="#27314e" stroke-width="1"/>
<text x="58" y="253.00" text-anchor="end" fill="#93a4c3" font-family="Inter, Arial, sans-serif" font-size="12">17</text>
<line x1="70" x2="935" y1="186.00" y2="186.00" stroke="#27314e" stroke-width="1"/>
<text x="58" y="190.00" text-anchor="end" fill="#93a4c3" font-family="Inter, Arial, sans-serif" font-size="12">23</text>
<line x1="70" x2="935" y1="123.00" y2="123.00" stroke="#27314e" stroke-width="1"/>
<text x="58" y="127.00" text-anchor="end" fill="#93a4c3" font-family="Inter, Arial, sans-serif" font-size="12">29</text>
<line x1="70" x2="935" y1="60.00" y2="60.00" stroke="#27314e" stroke-width="1"/>
<text x="58" y="64.00" text-anchor="end" fill="#93a4c3" font-family="Inter, Arial, sans-serif" font-size="12">35</text>
<text x="70.00" y="412" text-anchor="middle" fill="#93a4c3" font-family="Inter, Arial, sans-serif" font-size="12">2025-08-06</text>
<text x="502.50" y="412" text-anchor="middle" fill="#93a4c3" font-family="Inter, Arial, sans-serif" font-size="12">2025-09-18</text>
<text x="935.00" y="412" text-anchor="middle" fill="#93a4c3" font-family="Inter, Arial, sans-serif" font-size="12">2025-10-31</text>
<path d="M 70.00 277.99 L 84.42 253.81 L 98.83 233.76 L 113.25 218.34 L 127.67 300.89 L 142.08 334.46 L 156.50 319.79 L 170.92 309.02 L 185.33 310.61 L 199.75 235.87 L 214.17 183.93 L 228.58 141.81 L 243.00 261.84 L 257.42 231.86 L 271.83 249.49 L 286.25 267.22 L 300.67 315.67 L 315.08 268.59 L 329.50 221.19 L 343.92 245.90 L 358.33 294.46 L 372.75 276.30 L 387.17 318.00 L 401.58 337.63 L 416.00 332.67 L 430.42 339.53 L 444.83 320.85 L 459.25 317.57 L 473.67 315.88 L 488.08 307.02 L 502.50 259.83 L 516.92 308.07 L 531.33 278.20 L 545.75 295.93 L 560.17 277.35 L 574.58 217.08 L 589.00 249.27 L 603.42 251.60 L 617.83 268.06 L 632.25 321.27 L 646.67 337.95 L 661.08 305.01 L 675.50 319.58 L 689.92 285.06 L 704.33 295.09 L 718.75 264.79 L 733.17 80.69 L 747.58 152.37 L 762.00 203.46 L 776.42 60.00 L 790.83 180.66 L 805.25 375.00 L 819.67 338.05 L 834.08 304.06 L 848.50 230.70 L 862.92 279.99 L 877.33 304.27 L 891.75 323.49 L 906.17 278.41 L 920.58 263.63 L 935.00 236.50" fill="none" stroke="#69a7ff" stroke-width="4" stroke-linecap="round" stroke-linejoin="round"/>
<circle cx="935.00" cy="236.50" r="6" fill="#69a7ff"/>
</svg>