<svg xmlns="http://www.w3.org/2000/svg" width="960" height="430" viewBox="0 0 960 430" role="img" aria-label="Composite score history">
<rect width="100%" height="100%" fill="#0b1020" rx="20"/>
<text x="70" y="32" fill="#f5f7fb" font-family="Inter, Arial, sans-serif" font-size="24" font-weight="700">Composite score history</text>
<text x="70" y="52" fill="#93a4c3" font-family="Inter, Arial, sans-serif" font-size="13">Trailing 70 sessions through 2025-10-31</text>
<line x1="70" x2="935" y1="375.00" y2="375.00" stroke="#27314e" stroke-width="1"/>
<text x="58" y="379.00" text-anchor="end" fill="#93a4c3" font-family="Inter, Arial, sans-serif" font-size="12">5</text>
<line x1="70" x2="935" y1="312.00" y2="312.00" stroke="#27314e" stroke-width="1"/>
<text x="58" y="316.00" text-anchor="end" fill="#93a4c3" font-family="Inter, Arial, sans-serif" font-size="12">11</text>
<line x1="70" x2="935" y1="249.00" y2="249.00" stroke="#27314e" stroke-width="1"/>
<text x="58" y="253.00" text-anchor="end" fill="#93a4c3" font-family="Inter, Arial, sans-serif" font-size="12">17</text>
<line x1="70" x2="935" y1="186.00" y2="186.00" stroke="#27314e" stroke-width="1"/>
<text x="58" y="190.00" text-anchor="end" fill="#93a4c3" font-family="Inter, Arial, sans-serif" font-size="12">23</text>
<line x1="70" x2="935" y1="123.00" y2="123.00" stroke="#27314e" stroke-width="1"/>
<text x="58" y="127.00" text-anchor="end" fill="#93a4c3" font-family="Inter, Arial, sans-serif" font-size="12">29</text>
<line x1="70" x2="935" y1="60.00" y2="60.00" stroke="#27314e" stroke-width="1"/>
<text x="58" y="64.00" text-anchor="end" fill="#93a4c3" font-family="Inter, Arial, sans-serif" font-size="12">35</text>
<text x="70.00" y="412" text-anchor="middle" fill="#93a4c3" font-family="Inter, Arial, sans-serif" font-size="12">2025-07-24</text>
<text x="508.77" y="412" text-anchor="middle" fill="#93a4c3" font-family="Inter, Arial, sans-serif" font-size="12">2025-09-12</text>
<text x="935.00" y="412" text-anchor="middle" fill="#93a4c3" font-family="Inter, Arial, sans-serif" font-size="12">2025-10-31</text>
<path d="M 70.00 257.72 L 82.54 276.72 L 95.07 276.40 L 107.61 256.98 L 120.14 244.10 L 132.68 205.57 L 145.22 73.72 L 157.75 196.28 L 170.29 187.73 L 182.83 250.44 L 195.36 276.19 L 207.90 268.80 L 220.43 229.96 L 232.97 338.37 L 245.51 334.46 L 258.04 319.79 L 270.58 309.02 L 283.12 310.61 L 295.65 235.87 L 308.19 183.93 L 320.72 141.81 L 333.26 261.84 L 345.80 231.86 L 358.33 249.49 L 370.87 267.22 L 383.41 315.67 L 395.94 268.59 L 408.48 221.19 L 421.01 245.90 L 433.55 294.46 L 446.09 276.30 L 458.62 318.00 L 471.16 337.63 L 483.70 332.67 L 496.23 339.53 L 508.77 320.85 L 521.30 317.57 L 533.84 315.88 L 546.38 307.02 L 558.91 259.83 L 571.45 308.07 L 583.99 278.20 L 596.52 295.93 L 609.06 277.35 L 621.59 217.08 L 634.13 249.27 L 646.67 251.60 L 659.20 268.06 L 671.74 321.27 L 684.28 337.95 L 696.81 305.01 L 709.35 319.58 L 721.88 285.06 L 734.42 295.09 L 746.96 264.79 L 759.49 80.69 L 772.03 152.37 L 784.57 203.46 L 797.10 60.00 L 809.64 180.66 L 822.17 375.00 L 834.71 338.05 L 847.25 304.06 L 859.78 230.70 L 872.32 279.99 L 884.86 304.27 L 897.39 323.49 L 909.93 278.41 L 922.46 263.63 L 935.00 236.50" fill="none" stroke="#69a7ff" stroke-width="4" stroke-linecap="round" stroke-linejoin="round"/>
<circle cx="935.00" cy="236.50" r="6" fill="#69a7ff"/>
</svg>