<svg xmlns="http://www.w3.org/2000/svg" width="960" height="430" viewBox="0 0 960 430" role="img" aria-label="Composite score history">
<rect width="100%" height="100%" fill="#0b1020" rx="20"/>
<text x="70" y="32" fill="#f5f7fb" font-family="Inter, Arial, sans-serif" font-size="24" font-weight="700">Composite score history</text>
<text x="70" y="52" fill="#93a4c3" font-family="Inter, Arial, sans-serif" font-size="13">Trailing 72 sessions through 2025-10-31</text>
<line x1="70" x2="935" y1="375.00" y2="375.00" stroke="#27314e" stroke-width="1"/>
<text x="58" y="379.00" text-anchor="end" fill="#93a4c3" font-family="Inter, Arial, sans-serif" font-size="12">5</text>
<line x1="70" x2="935" y1="312.00" y2="312.00" stroke="#27314e" stroke-width="1"/>
<text x="58" y="316.00" text-anchor="end" fill="#93a4c3" font-family="Inter, Arial, sans-serif" font-size="12">11</text>
<line x1="70" x2="935" y1="249.00" y2="249.00" stroke="#27314e" stroke-width="1"/>
<text x="58" y="253.00" text-anchor="end" fill="#93a4c3" font-family="Inter, Arial, sans-serif" font-size="12">17</text>
<line x1="70" x2="935" y1="186.00" y2="186.00" stroke="#27314e" stroke-width="1"/>
<text x="58" y="190.00" text-anchor="end" fill="#93a4c3" font-family="Inter, Arial, sans-serif" font-size="12">23</text>
<line x1="70" x2="935" y1="123.00" y2="123.00" stroke="#27314e" stroke-width="1"/>
<text x="58" y="127.00" text-anchor="end" fill="#93a4c3" font-family="Inter, Arial, sans-serif" font-size="12">29</text>
<line x1="70" x2="935" y1="60.00" y2="60.00" stroke="#27314e" stroke-width="1"/>
<text x="58" y="64.00" text-anchor="end" fill="#93a4c3" font-family="Inter, Arial, sans-serif" font-size="12">35</text>
<text x="70.00" y="412" text-anchor="middle" fill="#93a4c3" font-family="Inter, Arial, sans-serif" font-size="12">2025-07-22</text>
<text x="508.59" y="412" text-anchor="middle" fill="#93a4c3" font-family="Inter, Arial, sans-serif" font-size="12">2025-09-11</text>
<text x="935.00" y="412" text-anchor="middle" fill="#93a4c3" font-family="Inter, Arial, sans-serif" font-size="12">2025-10-31</text>
<path d="M 70.00 259.20 L 82.18 269.01 L 94.37 230.59 L 106.55 265.43 L 118.73 265.11 L 130.92 267.43 L 143.10 212.22 L 155.28 205.57 L 167.46 73.72 L 179.65 196.28 L 191.83 187.73 L 204.01 250.44 L 216.20 276.19 L 228.38 268.80 L 240.56 229.96 L 252.75 338.37 L 264.93 334.46 L 277.11 319.79 L 289.30 309.02 L 301.48 310.61 L 313.66 235.87 L 325.85 183.93 L 338.03 141.81 L 350.21 261.84 L 362.39 231.86 L 374.58 249.49 L 386.76 267.22 L 398.94 315.67 L 411.13 268.59 L 423.31 221.19 L 435.49 245.90 L 447.68 294.46 L 459.86 276.30 L 472.04 318.00 L 484.23 337.63 L 496.41 332.67 L 508.59 339.53 L 520.77 320.85 L 532.96 317.57 L 545.14 315.88 L 557.32 307.02 L 569.51 259.83 L 581.69 308.07 L 593.87 278.20 L 606.06 295.93 L 618.24 277.35 L 630.42 217.08 L 642.61 249.27 L 654.79 251.60 L 666.97 268.06 L 679.15 321.27 L 691.34 337.95 L 703.52 305.01 L 715.70 319.58 L 727.89 285.06 L 740.07 295.09 L 752.25 264.79 L 764.44 80.69 L 776.62 152.37 L 788.80 203.46 L 800.99 60.00 L 813.17 180.66 L 825.35 375.00 L 837.54 338.05 L 849.72 304.06 L 861.90 230.70 L 874.08 279.99 L 886.27 304.27 L 898.45 323.49 L 910.63 278.41 L 922.82 263.63 L 935.00 236.50" fill="none" stroke="#69a7ff" stroke-width="4" stroke-linecap="round" stroke-linejoin="round"/>
<circle cx="935.00" cy="236.50" r="6" fill="#69a7ff"/>
</svg>