<svg xmlns="http://www.w3.org/2000/svg" width="960" height="430" viewBox="0 0 960 430" role="img" aria-label="Composite score history">
<rect width="100%" height="100%" fill="#0b1020" rx="20"/>
<text x="70" y="32" fill="#f5f7fb" font-family="Inter, Arial, sans-serif" font-size="24" font-weight="700">Composite score history</text>
<text x="70" y="52" fill="#93a4c3" font-family="Inter, Arial, sans-serif" font-size="13">Trailing 75 sessions through 2026-02-05</text>
<line x1="70" x2="935" y1="375.00" y2="375.00" stroke="#27314e" stroke-width="1"/>
<text x="58" y="379.00" text-anchor="end" fill="#93a4c3" font-family="Inter, Arial, sans-serif" font-size="12">0</text>
<line x1="70" x2="935" y1="312.00" y2="312.00" stroke="#27314e" stroke-width="1"/>
<text x="58" y="316.00" text-anchor="end" fill="#93a4c3" font-family="Inter, Arial, sans-serif" font-size="12">8</text>
<line x1="70" x2="935" y1="249.00" y2="249.00" stroke="#27314e" stroke-width="1"/>
<text x="58" y="253.00" text-anchor="end" fill="#93a4c3" font-family="Inter, Arial, sans-serif" font-size="12">17</text>
<line x1="70" x2="935" y1="186.00" y2="186.00" stroke="#27314e" stroke-width="1"/>
<text x="58" y="190.00" text-anchor="end" fill="#93a4c3" font-family="Inter, Arial, sans-serif" font-size="12">25</text>
<line x1="70" x2="935" y1="123.00" y2="123.00" stroke="#27314e" stroke-width="1"/>
<text x="58" y="127.00" text-anchor="end" fill="#93a4c3" font-family="Inter, Arial, sans-serif" font-size="12">33</text>
<line x1="70" x2="935" y1="60.00" y2="60.00" stroke="#27314e" stroke-width="1"/>
<text x="58" y="64.00" text-anchor="end" fill="#93a4c3" font-family="Inter, Arial, sans-serif" font-size="12">41</text>
<text x="70.00" y="412" text-anchor="middle" fill="#93a4c3" font-family="Inter, Arial, sans-serif" font-size="12">2025-10-17</text>
<text x="502.50" y="412" text-anchor="middle" fill="#93a4c3" font-family="Inter, Arial, sans-serif" font-size="12">2025-12-11</text>
<text x="935.00" y="412" text-anchor="middle" fill="#93a4c3" font-family="Inter, Arial, sans-serif" font-size="12">2026-02-05</text>
<path d="M 70.00 267.48 L 81.69 303.78 L 93.38 300.35 L 105.07 275.87 L 116.76 237.44 L 128.45 267.94 L 140.14 285.48 L 151.82 299.36 L 163.51 266.80 L 175.20 256.12 L 186.89 236.53 L 198.58 192.98 L 210.27 135.80 L 221.96 183.68 L 233.65 184.67 L 245.34 190.93 L 257.03 255.59 L 268.72 294.63 L 280.41 209.53 L 292.09 237.06 L 303.78 167.36 L 315.47 60.00 L 327.16 70.45 L 338.85 66.18 L 350.54 146.17 L 362.23 277.24 L 373.92 326.96 L 385.61 337.79 L 397.30 375.00 L 408.99 333.06 L 420.68 308.20 L 432.36 290.89 L 444.05 264.74 L 455.74 247.28 L 467.43 278.92 L 479.12 241.33 L 490.81 272.67 L 502.50 307.67 L 514.19 264.05 L 525.88 273.13 L 537.57 273.58 L 549.26 183.07 L 560.95 209.46 L 572.64 304.77 L 584.32 329.32 L 596.01 342.21 L 607.70 374.85 L 619.39 360.82 L 631.08 332.91 L 642.77 310.11 L 654.46 254.37 L 666.15 241.41 L 677.84 250.25 L 689.53 274.96 L 701.22 271.37 L 712.91 287.00 L 724.59 289.90 L 736.28 256.43 L 747.97 234.08 L 759.66 237.06 L 771.35 246.21 L 783.04 211.90 L 794.73 84.17 L 806.42 172.78 L 818.11 214.11 L 829.80 200.15 L 841.49 248.88 L 853.18 293.33 L 864.86 261.99 L 876.55 228.59 L 888.24 226.46 L 899.93 237.44 L 911.62 170.49 L 923.31 173.85 L 935.00 111.24" fill="none" stroke="#69a7ff" stroke-width="4" stroke-linecap="round" stroke-linejoin="round"/>
<circle cx="935.00" cy="111.24" r="6" fill="#69a7ff"/>
</svg>