<svg xmlns="http://www.w3.org/2000/svg" width="960" height="430" viewBox="0 0 960 430" role="img" aria-label="Composite score history">
<rect width="100%" height="100%" fill="#0b1020" rx="20"/>
<text x="70" y="32" fill="#f5f7fb" font-family="Inter, Arial, sans-serif" font-size="24" font-weight="700">Composite score history</text>
<text x="70" y="52" fill="#93a4c3" font-family="Inter, Arial, sans-serif" font-size="13">Trailing 85 sessions through 2026-02-05</text>
<line x1="70" x2="935" y1="375.00" y2="375.00" stroke="#27314e" stroke-width="1"/>
<text x="58" y="379.00" text-anchor="end" fill="#93a4c3" font-family="Inter, Arial, sans-serif" font-size="12">0</text>
<line x1="70" x2="935" y1="312.00" y2="312.00" stroke="#27314e" stroke-width="1"/>
<text x="58" y="316.00" text-anchor="end" fill="#93a4c3" font-family="Inter, Arial, sans-serif" font-size="12">8</text>
<line x1="70" x2="935" y1="249.00" y2="249.00" stroke="#27314e" stroke-width="1"/>
<text x="58" y="253.00" text-anchor="end" fill="#93a4c3" font-family="Inter, Arial, sans-serif" font-size="12">17</text>
<line x1="70" x2="935" y1="186.00" y2="186.00" stroke="#27314e" stroke-width="1"/>
<text x="58" y="190.00" text-anchor="end" fill="#93a4c3" font-family="Inter, Arial, sans-serif" font-size="12">25</text>
<line x1="70" x2="935" y1="123.00" y2="123.00" stroke="#27314e" stroke-width="1"/>
<text x="58" y="127.00" text-anchor="end" fill="#93a4c3" font-family="Inter, Arial, sans-serif" font-size="12">33</text>
<line x1="70" x2="935" y1="60.00" y2="60.00" stroke="#27314e" stroke-width="1"/>
<text x="58" y="64.00" text-anchor="end" fill="#93a4c3" font-family="Inter, Arial, sans-serif" font-size="12">41</text>
<text x="70.00" y="412" text-anchor="middle" fill="#93a4c3" font-family="Inter, Arial, sans-serif" font-size="12">2025-10-02</text>
<text x="502.50" y="412" text-anchor="middle" fill="#93a4c3" font-family="Inter, Arial, sans-serif" font-size="12">2025-12-04</text>
<text x="935.00" y="412" text-anchor="middle" fill="#93a4c3" font-family="Inter, Arial, sans-serif" font-size="12">2026-02-05</text>
<path d="M 70.00 277.85 L 80.30 262.07 L 90.60 263.67 L 100.89 252.46 L 111.19 270.08 L 121.49 256.96 L 131.79 123.98 L 142.08 175.75 L 152.38 212.66 L 162.68 109.03 L 172.98 196.19 L 183.27 336.57 L 193.57 309.88 L 203.87 285.33 L 214.17 232.33 L 224.46 267.94 L 234.76 285.48 L 245.06 299.36 L 255.36 266.80 L 265.65 256.12 L 275.95 236.53 L 286.25 192.98 L 296.55 135.80 L 306.85 183.68 L 317.14 184.67 L 327.44 190.93 L 337.74 255.59 L 348.04 294.63 L 358.33 209.53 L 368.63 237.06 L 378.93 167.36 L 389.23 60.00 L 399.52 70.45 L 409.82 66.18 L 420.12 146.17 L 430.42 277.24 L 440.71 326.96 L 451.01 337.79 L 461.31 375.00 L 471.61 333.06 L 481.90 308.20 L 492.20 290.89 L 502.50 264.74 L 512.80 247.28 L 523.10 278.92 L 533.39 241.33 L 543.69 272.67 L 553.99 307.67 L 564.29 264.05 L 574.58 273.13 L 584.88 273.58 L 595.18 183.07 L 605.48 209.46 L 615.77 304.77 L 626.07 329.32 L 636.37 342.21 L 646.67 374.85 L 656.96 360.82 L 667.26 332.91 L 677.56 310.11 L 687.86 254.37 L 698.15 241.41 L 708.45 250.25 L 718.75 274.96 L 729.05 271.37 L 739.35 287.00 L 749.64 289.90 L 759.94 256.43 L 770.24 234.08 L 780.54 237.06 L 790.83 246.21 L 801.13 211.90 L 811.43 84.17 L 821.73 172.78 L 832.02 214.11 L 842.32 200.15 L 852.62 248.88 L 862.92 293.33 L 873.21 261.99 L 883.51 228.59 L 893.81 226.46 L 904.11 237.44 L 914.40 170.49 L 924.70 173.85 L 935.00 111.24" fill="none" stroke="#69a7ff" stroke-width="4" stroke-linecap="round" stroke-linejoin="round"/>
<circle cx="935.00" cy="111.24" r="6" fill="#69a7ff"/>
</svg>