<svg xmlns="http://www.w3.org/2000/svg" width="960" height="430" viewBox="0 0 960 430" role="img" aria-label="Composite score history">
<rect width="100%" height="100%" fill="#0b1020" rx="20"/>
<text x="70" y="32" fill="#f5f7fb" font-family="Inter, Arial, sans-serif" font-size="24" font-weight="700">Composite score history</text>
<text x="70" y="52" fill="#93a4c3" font-family="Inter, Arial, sans-serif" font-size="13">Trailing 74 sessions through 2026-02-05</text>
<line x1="70" x2="935" y1="375.00" y2="375.00" stroke="#27314e" stroke-width="1"/>
<text x="58" y="379.00" text-anchor="end" fill="#93a4c3" font-family="Inter, Arial, sans-serif" font-size="12">0</text>
<line x1="70" x2="935" y1="312.00" y2="312.00" stroke="#27314e" stroke-width="1"/>
<text x="58" y="316.00" text-anchor="end" fill="#93a4c3" font-family="Inter, Arial, sans-serif" font-size="12">8</text>
<line x1="70" x2="935" y1="249.00" y2="249.00" stroke="#27314e" stroke-width="1"/>
<text x="58" y="253.00" text-anchor="end" fill="#93a4c3" font-family="Inter, Arial, sans-serif" font-size="12">17</text>
<line x1="70" x2="935" y1="186.00" y2="186.00" stroke="#27314e" stroke-width="1"/>
<text x="58" y="190.00" text-anchor="end" fill="#93a4c3" font-family="Inter, Arial, sans-serif" font-size="12">25</text>
<line x1="70" x2="935" y1="123.00" y2="123.00" stroke="#27314e" stroke-width="1"/>
<text x="58" y="127.00" text-anchor="end" fill="#93a4c3" font-family="Inter, Arial, sans-serif" font-size="12">33</text>
<line x1="70" x2="935" y1="60.00" y2="60.00" stroke="#27314e" stroke-width="1"/>
<text x="58" y="64.00" text-anchor="end" fill="#93a4c3" font-family="Inter, Arial, sans-serif" font-size="12">41</text>
<text x="70.00" y="412" text-anchor="middle" fill="#93a4c3" font-family="Inter, Arial, sans-serif" font-size="12">2025-10-20</text>
<text x="508.42" y="412" text-anchor="middle" fill="#93a4c3" font-family="Inter, Arial, sans-serif" font-size="12">2025-12-12</text>
<text x="935.00" y="412" text-anchor="middle" fill="#93a4c3" font-family="Inter, Arial, sans-serif" font-size="12">2026-02-05</text>
<path d="M 70.00 283.42 L 81.85 276.18 L 93.70 239.12 L 105.55 213.27 L 117.40 243.62 L 129.25 285.48 L 141.10 299.36 L 152.95 266.80 L 164.79 256.12 L 176.64 236.53 L 188.49 192.98 L 200.34 135.80 L 212.19 183.68 L 224.04 184.67 L 235.89 190.93 L 247.74 255.59 L 259.59 294.63 L 271.44 209.53 L 283.29 237.06 L 295.14 167.36 L 306.99 60.00 L 318.84 70.45 L 330.68 66.18 L 342.53 146.17 L 354.38 277.24 L 366.23 326.96 L 378.08 337.79 L 389.93 375.00 L 401.78 333.06 L 413.63 308.20 L 425.48 290.89 L 437.33 264.74 L 449.18 247.28 L 461.03 278.92 L 472.88 241.33 L 484.73 272.67 L 496.58 307.67 L 508.42 264.05 L 520.27 273.13 L 532.12 273.58 L 543.97 183.07 L 555.82 209.46 L 567.67 304.77 L 579.52 329.32 L 591.37 342.21 L 603.22 374.85 L 615.07 360.82 L 626.92 332.91 L 638.77 310.11 L 650.62 254.37 L 662.47 241.41 L 674.32 250.25 L 686.16 274.96 L 698.01 271.37 L 709.86 287.00 L 721.71 289.90 L 733.56 256.43 L 745.41 234.08 L 757.26 237.06 L 769.11 246.21 L 780.96 211.90 L 792.81 84.17 L 804.66 172.78 L 816.51 214.11 L 828.36 200.15 L 840.21 248.88 L 852.05 293.33 L 863.90 261.99 L 875.75 228.59 L 887.60 226.46 L 899.45 237.44 L 911.30 170.49 L 923.15 173.85 L 935.00 111.24" fill="none" stroke="#69a7ff" stroke-width="4" stroke-linecap="round" stroke-linejoin="round"/>
<circle cx="935.00" cy="111.24" r="6" fill="#69a7ff"/>
</svg>