<svg xmlns="http://www.w3.org/2000/svg" width="960" height="430" viewBox="0 0 960 430" role="img" aria-label="Composite score history">
<rect width="100%" height="100%" fill="#0b1020" rx="20"/>
<text x="70" y="32" fill="#f5f7fb" font-family="Inter, Arial, sans-serif" font-size="24" font-weight="700">Composite score history</text>
<text x="70" y="52" fill="#93a4c3" font-family="Inter, Arial, sans-serif" font-size="13">Trailing 90 sessions through 2026-07-16</text>
<line x1="70" x2="935" y1="375.00" y2="375.00" stroke="#27314e" stroke-width="1"/>
<text x="58" y="379.00" text-anchor="end" fill="#93a4c3" font-family="Inter, Arial, sans-serif" font-size="12">6</text>
<line x1="70" x2="935" y1="312.00" y2="312.00" stroke="#27314e" stroke-width="1"/>
<text x="58" y="316.00" text-anchor="end" fill="#93a4c3" font-family="Inter, Arial, sans-serif" font-size="12">16</text>
<line x1="70" x2="935" y1="249.00" y2="249.00" stroke="#27314e" stroke-width="1"/>
<text x="58" y="253.00" text-anchor="end" fill="#93a4c3" font-family="Inter, Arial, sans-serif" font-size="12">25</text>
<line x1="70" x2="935" y1="186.00" y2="186.00" stroke="#27314e" stroke-width="1"/>
<text x="58" y="190.00" text-anchor="end" fill="#93a4c3" font-family="Inter, Arial, sans-serif" font-size="12">35</text>
<line x1="70" x2="935" y1="123.00" y2="123.00" stroke="#27314e" stroke-width="1"/>
<text x="58" y="127.00" text-anchor="end" fill="#93a4c3" font-family="Inter, Arial, sans-serif" font-size="12">45</text>
<line x1="70" x2="935" y1="60.00" y2="60.00" stroke="#27314e" stroke-width="1"/>
<text x="58" y="64.00" text-anchor="end" fill="#93a4c3" font-family="Inter, Arial, sans-serif" font-size="12">55</text>
<text x="70.00" y="412" text-anchor="middle" fill="#93a4c3" font-family="Inter, Arial, sans-serif" font-size="12">2026-03-09</text>
<text x="507.36" y="412" text-anchor="middle" fill="#93a4c3" font-family="Inter, Arial, sans-serif" font-size="12">2026-05-12</text>
<text x="935.00" y="412" text-anchor="middle" fill="#93a4c3" font-family="Inter, Arial, sans-serif" font-size="12">2026-07-16</text>
<path d="M 70.00 148.07 L 79.72 210.77 L 89.44 141.92 L 99.16 60.00 L 108.88 136.10 L 118.60 187.73 L 128.31 184.24 L 138.03 117.98 L 147.75 221.06 L 157.47 135.06 L 167.19 144.64 L 176.91 86.08 L 186.63 224.04 L 196.35 113.97 L 206.07 133.12 L 215.79 74.56 L 225.51 248.11 L 235.22 242.41 L 244.94 288.81 L 254.66 307.96 L 264.38 308.29 L 274.10 337.15 L 283.82 346.79 L 293.54 335.92 L 303.26 349.57 L 312.98 373.06 L 322.70 332.29 L 332.42 330.80 L 342.13 375.00 L 351.85 345.69 L 361.57 291.85 L 371.29 300.39 L 381.01 279.62 L 390.73 254.77 L 400.45 273.15 L 410.17 279.36 L 419.89 221.38 L 429.61 267.33 L 439.33 246.94 L 449.04 199.77 L 458.76 272.96 L 468.48 345.17 L 478.20 306.93 L 487.92 320.39 L 497.64 323.23 L 507.36 277.23 L 517.08 221.64 L 526.80 274.51 L 536.52 186.44 L 546.24 229.99 L 555.96 216.14 L 565.67 264.22 L 575.39 243.58 L 585.11 293.14 L 594.83 319.29 L 604.55 334.56 L 614.27 328.47 L 623.99 333.65 L 633.71 323.30 L 643.43 308.42 L 653.15 282.01 L 662.87 293.86 L 672.58 99.15 L 682.30 158.29 L 692.02 142.89 L 701.74 98.70 L 711.46 187.22 L 721.18 311.20 L 730.90 340.38 L 740.62 338.89 L 750.34 315.99 L 760.06 301.36 L 769.78 277.10 L 779.49 179.26 L 789.21 219.64 L 798.93 280.27 L 808.65 240.08 L 818.37 298.77 L 828.09 340.19 L 837.81 304.60 L 847.53 332.16 L 857.25 326.47 L 866.97 292.30 L 876.69 262.93 L 886.40 324.01 L 896.12 308.16 L 905.84 238.01 L 915.56 319.67 L 925.28 341.87 L 935.00 307.32" fill="none" stroke="#69a7ff" stroke-width="4" stroke-linecap="round" stroke-linejoin="round"/>
<circle cx="935.00" cy="307.32" r="6" fill="#69a7ff"/>
</svg>