<svg xmlns="http://www.w3.org/2000/svg" width="960" height="430" viewBox="0 0 960 430" role="img" aria-label="Composite score history">
<rect width="100%" height="100%" fill="#0b1020" rx="20"/>
<text x="70" y="32" fill="#f5f7fb" font-family="Inter, Arial, sans-serif" font-size="24" font-weight="700">Composite score history</text>
<text x="70" y="52" fill="#93a4c3" font-family="Inter, Arial, sans-serif" font-size="13">Trailing 74 sessions through 2026-02-03</text>
<line x1="70" x2="935" y1="375.00" y2="375.00" stroke="#27314e" stroke-width="1"/>
<text x="58" y="379.00" text-anchor="end" fill="#93a4c3" font-family="Inter, Arial, sans-serif" font-size="12">0</text>
<line x1="70" x2="935" y1="312.00" y2="312.00" stroke="#27314e" stroke-width="1"/>
<text x="58" y="316.00" text-anchor="end" fill="#93a4c3" font-family="Inter, Arial, sans-serif" font-size="12">8</text>
<line x1="70" x2="935" y1="249.00" y2="249.00" stroke="#27314e" stroke-width="1"/>
<text x="58" y="253.00" text-anchor="end" fill="#93a4c3" font-family="Inter, Arial, sans-serif" font-size="12">17</text>
<line x1="70" x2="935" y1="186.00" y2="186.00" stroke="#27314e" stroke-width="1"/>
<text x="58" y="190.00" text-anchor="end" fill="#93a4c3" font-family="Inter, Arial, sans-serif" font-size="12">25</text>
<line x1="70" x2="935" y1="123.00" y2="123.00" stroke="#27314e" stroke-width="1"/>
<text x="58" y="127.00" text-anchor="end" fill="#93a4c3" font-family="Inter, Arial, sans-serif" font-size="12">33</text>
<line x1="70" x2="935" y1="60.00" y2="60.00" stroke="#27314e" stroke-width="1"/>
<text x="58" y="64.00" text-anchor="end" fill="#93a4c3" font-family="Inter, Arial, sans-serif" font-size="12">41</text>
<text x="70.00" y="412" text-anchor="middle" fill="#93a4c3" font-family="Inter, Arial, sans-serif" font-size="12">2025-10-16</text>
<text x="508.42" y="412" text-anchor="middle" fill="#93a4c3" font-family="Inter, Arial, sans-serif" font-size="12">2025-12-10</text>
<text x="935.00" y="412" text-anchor="middle" fill="#93a4c3" font-family="Inter, Arial, sans-serif" font-size="12">2026-02-03</text>
<path d="M 70.00 243.77 L 81.85 262.30 L 93.70 298.67 L 105.55 298.29 L 117.40 273.81 L 129.25 232.33 L 141.10 267.94 L 152.95 285.48 L 164.79 299.36 L 176.64 266.80 L 188.49 256.12 L 200.34 236.53 L 212.19 192.98 L 224.04 135.80 L 235.89 183.68 L 247.74 184.67 L 259.59 190.93 L 271.44 255.59 L 283.29 294.63 L 295.14 209.53 L 306.99 237.06 L 318.84 167.36 L 330.68 60.00 L 342.53 70.45 L 354.38 66.18 L 366.23 146.17 L 378.08 277.24 L 389.93 326.96 L 401.78 337.79 L 413.63 375.00 L 425.48 333.06 L 437.33 308.20 L 449.18 290.89 L 461.03 264.74 L 472.88 247.28 L 484.73 278.92 L 496.58 241.33 L 508.42 272.67 L 520.27 307.67 L 532.12 264.05 L 543.97 273.13 L 555.82 273.58 L 567.67 183.07 L 579.52 209.46 L 591.37 304.77 L 603.22 329.32 L 615.07 342.21 L 626.92 374.85 L 638.77 360.82 L 650.62 332.91 L 662.47 310.11 L 674.32 254.37 L 686.16 241.41 L 698.01 250.25 L 709.86 274.96 L 721.71 271.37 L 733.56 287.00 L 745.41 289.90 L 757.26 256.43 L 769.11 234.08 L 780.96 237.06 L 792.81 246.21 L 804.66 211.90 L 816.51 84.17 L 828.36 172.78 L 840.21 214.11 L 852.05 200.15 L 863.90 248.88 L 875.75 293.33 L 887.60 261.99 L 899.45 228.59 L 911.30 226.46 L 923.15 237.44 L 935.00 170.49" fill="none" stroke="#69a7ff" stroke-width="4" stroke-linecap="round" stroke-linejoin="round"/>
<circle cx="935.00" cy="170.49" r="6" fill="#69a7ff"/>
</svg>