<svg xmlns="http://www.w3.org/2000/svg" width="960" height="430" viewBox="0 0 960 430" role="img" aria-label="Composite score history">
<rect width="100%" height="100%" fill="#0b1020" rx="20"/>
<text x="70" y="32" fill="#f5f7fb" font-family="Inter, Arial, sans-serif" font-size="24" font-weight="700">Composite score history</text>
<text x="70" y="52" fill="#93a4c3" font-family="Inter, Arial, sans-serif" font-size="13">Trailing 78 sessions through 2026-02-03</text>
<line x1="70" x2="935" y1="375.00" y2="375.00" stroke="#27314e" stroke-width="1"/>
<text x="58" y="379.00" text-anchor="end" fill="#93a4c3" font-family="Inter, Arial, sans-serif" font-size="12">0</text>
<line x1="70" x2="935" y1="312.00" y2="312.00" stroke="#27314e" stroke-width="1"/>
<text x="58" y="316.00" text-anchor="end" fill="#93a4c3" font-family="Inter, Arial, sans-serif" font-size="12">8</text>
<line x1="70" x2="935" y1="249.00" y2="249.00" stroke="#27314e" stroke-width="1"/>
<text x="58" y="253.00" text-anchor="end" fill="#93a4c3" font-family="Inter, Arial, sans-serif" font-size="12">17</text>
<line x1="70" x2="935" y1="186.00" y2="186.00" stroke="#27314e" stroke-width="1"/>
<text x="58" y="190.00" text-anchor="end" fill="#93a4c3" font-family="Inter, Arial, sans-serif" font-size="12">25</text>
<line x1="70" x2="935" y1="123.00" y2="123.00" stroke="#27314e" stroke-width="1"/>
<text x="58" y="127.00" text-anchor="end" fill="#93a4c3" font-family="Inter, Arial, sans-serif" font-size="12">33</text>
<line x1="70" x2="935" y1="60.00" y2="60.00" stroke="#27314e" stroke-width="1"/>
<text x="58" y="64.00" text-anchor="end" fill="#93a4c3" font-family="Inter, Arial, sans-serif" font-size="12">41</text>
<text x="70.00" y="412" text-anchor="middle" fill="#93a4c3" font-family="Inter, Arial, sans-serif" font-size="12">2025-10-09</text>
<text x="508.12" y="412" text-anchor="middle" fill="#93a4c3" font-family="Inter, Arial, sans-serif" font-size="12">2025-12-08</text>
<text x="935.00" y="412" text-anchor="middle" fill="#93a4c3" font-family="Inter, Arial, sans-serif" font-size="12">2026-02-03</text>
<path d="M 70.00 274.19 L 81.23 111.78 L 92.47 179.03 L 103.70 195.35 L 114.94 120.24 L 126.17 196.19 L 137.40 336.57 L 148.64 309.88 L 159.87 285.33 L 171.10 232.33 L 182.34 267.94 L 193.57 285.48 L 204.81 299.36 L 216.04 266.80 L 227.27 256.12 L 238.51 236.53 L 249.74 192.98 L 260.97 135.80 L 272.21 183.68 L 283.44 184.67 L 294.68 190.93 L 305.91 255.59 L 317.14 294.63 L 328.38 209.53 L 339.61 237.06 L 350.84 167.36 L 362.08 60.00 L 373.31 70.45 L 384.55 66.18 L 395.78 146.17 L 407.01 277.24 L 418.25 326.96 L 429.48 337.79 L 440.71 375.00 L 451.95 333.06 L 463.18 308.20 L 474.42 290.89 L 485.65 264.74 L 496.88 247.28 L 508.12 278.92 L 519.35 241.33 L 530.58 272.67 L 541.82 307.67 L 553.05 264.05 L 564.29 273.13 L 575.52 273.58 L 586.75 183.07 L 597.99 209.46 L 609.22 304.77 L 620.45 329.32 L 631.69 342.21 L 642.92 374.85 L 654.16 360.82 L 665.39 332.91 L 676.62 310.11 L 687.86 254.37 L 699.09 241.41 L 710.32 250.25 L 721.56 274.96 L 732.79 271.37 L 744.03 287.00 L 755.26 289.90 L 766.49 256.43 L 777.73 234.08 L 788.96 237.06 L 800.19 246.21 L 811.43 211.90 L 822.66 84.17 L 833.90 172.78 L 845.13 214.11 L 856.36 200.15 L 867.60 248.88 L 878.83 293.33 L 890.06 261.99 L 901.30 228.59 L 912.53 226.46 L 923.77 237.44 L 935.00 170.49" fill="none" stroke="#69a7ff" stroke-width="4" stroke-linecap="round" stroke-linejoin="round"/>
<circle cx="935.00" cy="170.49" r="6" fill="#69a7ff"/>
</svg>