<svg xmlns="http://www.w3.org/2000/svg" width="960" height="430" viewBox="0 0 960 430" role="img" aria-label="Composite score history">
<rect width="100%" height="100%" fill="#0b1020" rx="20"/>
<text x="70" y="32" fill="#f5f7fb" font-family="Inter, Arial, sans-serif" font-size="24" font-weight="700">Composite score history</text>
<text x="70" y="52" fill="#93a4c3" font-family="Inter, Arial, sans-serif" font-size="13">Trailing 82 sessions through 2026-02-03</text>
<line x1="70" x2="935" y1="375.00" y2="375.00" stroke="#27314e" stroke-width="1"/>
<text x="58" y="379.00" text-anchor="end" fill="#93a4c3" font-family="Inter, Arial, sans-serif" font-size="12">0</text>
<line x1="70" x2="935" y1="312.00" y2="312.00" stroke="#27314e" stroke-width="1"/>
<text x="58" y="316.00" text-anchor="end" fill="#93a4c3" font-family="Inter, Arial, sans-serif" font-size="12">8</text>
<line x1="70" x2="935" y1="249.00" y2="249.00" stroke="#27314e" stroke-width="1"/>
<text x="58" y="253.00" text-anchor="end" fill="#93a4c3" font-family="Inter, Arial, sans-serif" font-size="12">17</text>
<line x1="70" x2="935" y1="186.00" y2="186.00" stroke="#27314e" stroke-width="1"/>
<text x="58" y="190.00" text-anchor="end" fill="#93a4c3" font-family="Inter, Arial, sans-serif" font-size="12">25</text>
<line x1="70" x2="935" y1="123.00" y2="123.00" stroke="#27314e" stroke-width="1"/>
<text x="58" y="127.00" text-anchor="end" fill="#93a4c3" font-family="Inter, Arial, sans-serif" font-size="12">33</text>
<line x1="70" x2="935" y1="60.00" y2="60.00" stroke="#27314e" stroke-width="1"/>
<text x="58" y="64.00" text-anchor="end" fill="#93a4c3" font-family="Inter, Arial, sans-serif" font-size="12">41</text>
<text x="70.00" y="412" text-anchor="middle" fill="#93a4c3" font-family="Inter, Arial, sans-serif" font-size="12">2025-10-03</text>
<text x="507.84" y="412" text-anchor="middle" fill="#93a4c3" font-family="Inter, Arial, sans-serif" font-size="12">2025-12-04</text>
<text x="935.00" y="412" text-anchor="middle" fill="#93a4c3" font-family="Inter, Arial, sans-serif" font-size="12">2026-02-03</text>
<path d="M 70.00 275.03 L 80.68 276.56 L 91.36 262.30 L 102.04 282.89 L 112.72 269.77 L 123.40 123.98 L 134.07 175.75 L 144.75 212.66 L 155.43 109.03 L 166.11 196.19 L 176.79 336.57 L 187.47 309.88 L 198.15 285.33 L 208.83 232.33 L 219.51 267.94 L 230.19 285.48 L 240.86 299.36 L 251.54 266.80 L 262.22 256.12 L 272.90 236.53 L 283.58 192.98 L 294.26 135.80 L 304.94 183.68 L 315.62 184.67 L 326.30 190.93 L 336.98 255.59 L 347.65 294.63 L 358.33 209.53 L 369.01 237.06 L 379.69 167.36 L 390.37 60.00 L 401.05 70.45 L 411.73 66.18 L 422.41 146.17 L 433.09 277.24 L 443.77 326.96 L 454.44 337.79 L 465.12 375.00 L 475.80 333.06 L 486.48 308.20 L 497.16 290.89 L 507.84 264.74 L 518.52 247.28 L 529.20 278.92 L 539.88 241.33 L 550.56 272.67 L 561.23 307.67 L 571.91 264.05 L 582.59 273.13 L 593.27 273.58 L 603.95 183.07 L 614.63 209.46 L 625.31 304.77 L 635.99 329.32 L 646.67 342.21 L 657.35 374.85 L 668.02 360.82 L 678.70 332.91 L 689.38 310.11 L 700.06 254.37 L 710.74 241.41 L 721.42 250.25 L 732.10 274.96 L 742.78 271.37 L 753.46 287.00 L 764.14 289.90 L 774.81 256.43 L 785.49 234.08 L 796.17 237.06 L 806.85 246.21 L 817.53 211.90 L 828.21 84.17 L 838.89 172.78 L 849.57 214.11 L 860.25 200.15 L 870.93 248.88 L 881.60 293.33 L 892.28 261.99 L 902.96 228.59 L 913.64 226.46 L 924.32 237.44 L 935.00 170.49" fill="none" stroke="#69a7ff" stroke-width="4" stroke-linecap="round" stroke-linejoin="round"/>
<circle cx="935.00" cy="170.49" r="6" fill="#69a7ff"/>
</svg>