<svg xmlns="http://www.w3.org/2000/svg" width="960" height="430" viewBox="0 0 960 430" role="img" aria-label="Composite score history">
<rect width="100%" height="100%" fill="#0b1020" rx="20"/>
<text x="70" y="32" fill="#f5f7fb" font-family="Inter, Arial, sans-serif" font-size="24" font-weight="700">Composite score history</text>
<text x="70" y="52" fill="#93a4c3" font-family="Inter, Arial, sans-serif" font-size="13">Trailing 87 sessions through 2026-02-03</text>
<line x1="70" x2="935" y1="375.00" y2="375.00" stroke="#27314e" stroke-width="1"/>
<text x="58" y="379.00" text-anchor="end" fill="#93a4c3" font-family="Inter, Arial, sans-serif" font-size="12">0</text>
<line x1="70" x2="935" y1="312.00" y2="312.00" stroke="#27314e" stroke-width="1"/>
<text x="58" y="316.00" text-anchor="end" fill="#93a4c3" font-family="Inter, Arial, sans-serif" font-size="12">8</text>
<line x1="70" x2="935" y1="249.00" y2="249.00" stroke="#27314e" stroke-width="1"/>
<text x="58" y="253.00" text-anchor="end" fill="#93a4c3" font-family="Inter, Arial, sans-serif" font-size="12">17</text>
<line x1="70" x2="935" y1="186.00" y2="186.00" stroke="#27314e" stroke-width="1"/>
<text x="58" y="190.00" text-anchor="end" fill="#93a4c3" font-family="Inter, Arial, sans-serif" font-size="12">25</text>
<line x1="70" x2="935" y1="123.00" y2="123.00" stroke="#27314e" stroke-width="1"/>
<text x="58" y="127.00" text-anchor="end" fill="#93a4c3" font-family="Inter, Arial, sans-serif" font-size="12">33</text>
<line x1="70" x2="935" y1="60.00" y2="60.00" stroke="#27314e" stroke-width="1"/>
<text x="58" y="64.00" text-anchor="end" fill="#93a4c3" font-family="Inter, Arial, sans-serif" font-size="12">41</text>
<text x="70.00" y="412" text-anchor="middle" fill="#93a4c3" font-family="Inter, Arial, sans-serif" font-size="12">2025-09-26</text>
<text x="502.50" y="412" text-anchor="middle" fill="#93a4c3" font-family="Inter, Arial, sans-serif" font-size="12">2025-12-01</text>
<text x="935.00" y="412" text-anchor="middle" fill="#93a4c3" font-family="Inter, Arial, sans-serif" font-size="12">2026-02-03</text>
<path d="M 70.00 275.87 L 80.06 271.30 L 90.12 277.40 L 100.17 289.75 L 110.23 288.83 L 120.29 286.01 L 130.35 296.54 L 140.41 271.60 L 150.47 278.85 L 160.52 256.96 L 170.58 123.98 L 180.64 175.75 L 190.70 212.66 L 200.76 109.03 L 210.81 196.19 L 220.87 336.57 L 230.93 309.88 L 240.99 285.33 L 251.05 232.33 L 261.10 267.94 L 271.16 285.48 L 281.22 299.36 L 291.28 266.80 L 301.34 256.12 L 311.40 236.53 L 321.45 192.98 L 331.51 135.80 L 341.57 183.68 L 351.63 184.67 L 361.69 190.93 L 371.74 255.59 L 381.80 294.63 L 391.86 209.53 L 401.92 237.06 L 411.98 167.36 L 422.03 60.00 L 432.09 70.45 L 442.15 66.18 L 452.21 146.17 L 462.27 277.24 L 472.33 326.96 L 482.38 337.79 L 492.44 375.00 L 502.50 333.06 L 512.56 308.20 L 522.62 290.89 L 532.67 264.74 L 542.73 247.28 L 552.79 278.92 L 562.85 241.33 L 572.91 272.67 L 582.97 307.67 L 593.02 264.05 L 603.08 273.13 L 613.14 273.58 L 623.20 183.07 L 633.26 209.46 L 643.31 304.77 L 653.37 329.32 L 663.43 342.21 L 673.49 374.85 L 683.55 360.82 L 693.60 332.91 L 703.66 310.11 L 713.72 254.37 L 723.78 241.41 L 733.84 250.25 L 743.90 274.96 L 753.95 271.37 L 764.01 287.00 L 774.07 289.90 L 784.13 256.43 L 794.19 234.08 L 804.24 237.06 L 814.30 246.21 L 824.36 211.90 L 834.42 84.17 L 844.48 172.78 L 854.53 214.11 L 864.59 200.15 L 874.65 248.88 L 884.71 293.33 L 894.77 261.99 L 904.83 228.59 L 914.88 226.46 L 924.94 237.44 L 935.00 170.49" fill="none" stroke="#69a7ff" stroke-width="4" stroke-linecap="round" stroke-linejoin="round"/>
<circle cx="935.00" cy="170.49" r="6" fill="#69a7ff"/>
</svg>