<svg xmlns="http://www.w3.org/2000/svg" width="960" height="430" viewBox="0 0 960 430" role="img" aria-label="Composite score history">
<rect width="100%" height="100%" fill="#0b1020" rx="20"/>
<text x="70" y="32" fill="#f5f7fb" font-family="Inter, Arial, sans-serif" font-size="24" font-weight="700">Composite score history</text>
<text x="70" y="52" fill="#93a4c3" font-family="Inter, Arial, sans-serif" font-size="13">Trailing 60 sessions through 2026-02-03</text>
<line x1="70" x2="935" y1="375.00" y2="375.00" stroke="#27314e" stroke-width="1"/>
<text x="58" y="379.00" text-anchor="end" fill="#93a4c3" font-family="Inter, Arial, sans-serif" font-size="12">0</text>
<line x1="70" x2="935" y1="312.00" y2="312.00" stroke="#27314e" stroke-width="1"/>
<text x="58" y="316.00" text-anchor="end" fill="#93a4c3" font-family="Inter, Arial, sans-serif" font-size="12">8</text>
<line x1="70" x2="935" y1="249.00" y2="249.00" stroke="#27314e" stroke-width="1"/>
<text x="58" y="253.00" text-anchor="end" fill="#93a4c3" font-family="Inter, Arial, sans-serif" font-size="12">17</text>
<line x1="70" x2="935" y1="186.00" y2="186.00" stroke="#27314e" stroke-width="1"/>
<text x="58" y="190.00" text-anchor="end" fill="#93a4c3" font-family="Inter, Arial, sans-serif" font-size="12">25</text>
<line x1="70" x2="935" y1="123.00" y2="123.00" stroke="#27314e" stroke-width="1"/>
<text x="58" y="127.00" text-anchor="end" fill="#93a4c3" font-family="Inter, Arial, sans-serif" font-size="12">33</text>
<line x1="70" x2="935" y1="60.00" y2="60.00" stroke="#27314e" stroke-width="1"/>
<text x="58" y="64.00" text-anchor="end" fill="#93a4c3" font-family="Inter, Arial, sans-serif" font-size="12">41</text>
<text x="70.00" y="412" text-anchor="middle" fill="#93a4c3" font-family="Inter, Arial, sans-serif" font-size="12">2025-11-05</text>
<text x="509.83" y="412" text-anchor="middle" fill="#93a4c3" font-family="Inter, Arial, sans-serif" font-size="12">2025-12-19</text>
<text x="935.00" y="412" text-anchor="middle" fill="#93a4c3" font-family="Inter, Arial, sans-serif" font-size="12">2026-02-03</text>
<path d="M 70.00 263.52 L 84.66 206.94 L 99.32 219.29 L 113.98 279.68 L 128.64 287.61 L 143.31 209.53 L 157.97 237.06 L 172.63 167.36 L 187.29 60.00 L 201.95 70.45 L 216.61 66.18 L 231.27 146.17 L 245.93 277.24 L 260.59 326.96 L 275.25 337.79 L 289.92 375.00 L 304.58 333.06 L 319.24 308.20 L 333.90 290.89 L 348.56 264.74 L 363.22 247.28 L 377.88 278.92 L 392.54 241.33 L 407.20 272.67 L 421.86 307.67 L 436.53 264.05 L 451.19 273.13 L 465.85 273.58 L 480.51 183.07 L 495.17 209.46 L 509.83 304.77 L 524.49 329.32 L 539.15 342.21 L 553.81 374.85 L 568.47 360.82 L 583.14 332.91 L 597.80 310.11 L 612.46 254.37 L 627.12 241.41 L 641.78 250.25 L 656.44 274.96 L 671.10 271.37 L 685.76 287.00 L 700.42 289.90 L 715.08 256.43 L 729.75 234.08 L 744.41 237.06 L 759.07 246.21 L 773.73 211.90 L 788.39 84.17 L 803.05 172.78 L 817.71 214.11 L 832.37 200.15 L 847.03 248.88 L 861.69 293.33 L 876.36 261.99 L 891.02 228.59 L 905.68 226.46 L 920.34 237.44 L 935.00 170.49" fill="none" stroke="#69a7ff" stroke-width="4" stroke-linecap="round" stroke-linejoin="round"/>
<circle cx="935.00" cy="170.49" r="6" fill="#69a7ff"/>
</svg>