<svg xmlns="http://www.w3.org/2000/svg" width="960" height="430" viewBox="0 0 960 430" role="img" aria-label="Composite score history">
<rect width="100%" height="100%" fill="#0b1020" rx="20"/>
<text x="70" y="32" fill="#f5f7fb" font-family="Inter, Arial, sans-serif" font-size="24" font-weight="700">Composite score history</text>
<text x="70" y="52" fill="#93a4c3" font-family="Inter, Arial, sans-serif" font-size="13">Trailing 69 sessions through 2026-01-22</text>
<line x1="70" x2="935" y1="375.00" y2="375.00" stroke="#27314e" stroke-width="1"/>
<text x="58" y="379.00" text-anchor="end" fill="#93a4c3" font-family="Inter, Arial, sans-serif" font-size="12">0</text>
<line x1="70" x2="935" y1="312.00" y2="312.00" stroke="#27314e" stroke-width="1"/>
<text x="58" y="316.00" text-anchor="end" fill="#93a4c3" font-family="Inter, Arial, sans-serif" font-size="12">8</text>
<line x1="70" x2="935" y1="249.00" y2="249.00" stroke="#27314e" stroke-width="1"/>
<text x="58" y="253.00" text-anchor="end" fill="#93a4c3" font-family="Inter, Arial, sans-serif" font-size="12">17</text>
<line x1="70" x2="935" y1="186.00" y2="186.00" stroke="#27314e" stroke-width="1"/>
<text x="58" y="190.00" text-anchor="end" fill="#93a4c3" font-family="Inter, Arial, sans-serif" font-size="12">25</text>
<line x1="70" x2="935" y1="123.00" y2="123.00" stroke="#27314e" stroke-width="1"/>
<text x="58" y="127.00" text-anchor="end" fill="#93a4c3" font-family="Inter, Arial, sans-serif" font-size="12">33</text>
<line x1="70" x2="935" y1="60.00" y2="60.00" stroke="#27314e" stroke-width="1"/>
<text x="58" y="64.00" text-anchor="end" fill="#93a4c3" font-family="Inter, Arial, sans-serif" font-size="12">41</text>
<text x="70.00" y="412" text-anchor="middle" fill="#93a4c3" font-family="Inter, Arial, sans-serif" font-size="12">2025-10-10</text>
<text x="502.50" y="412" text-anchor="middle" fill="#93a4c3" font-family="Inter, Arial, sans-serif" font-size="12">2025-12-02</text>
<text x="935.00" y="412" text-anchor="middle" fill="#93a4c3" font-family="Inter, Arial, sans-serif" font-size="12">2026-01-22</text>
<path d="M 70.00 252.46 L 82.72 288.45 L 95.44 296.15 L 108.16 239.96 L 120.88 299.97 L 133.60 336.57 L 146.32 309.88 L 159.04 285.33 L 171.76 232.33 L 184.49 267.94 L 197.21 285.48 L 209.93 299.36 L 222.65 266.80 L 235.37 256.12 L 248.09 236.53 L 260.81 192.98 L 273.53 135.80 L 286.25 183.68 L 298.97 184.67 L 311.69 190.93 L 324.41 255.59 L 337.13 294.63 L 349.85 209.53 L 362.57 237.06 L 375.29 167.36 L 388.01 60.00 L 400.74 70.45 L 413.46 66.18 L 426.18 146.17 L 438.90 277.24 L 451.62 326.96 L 464.34 337.79 L 477.06 375.00 L 489.78 333.06 L 502.50 308.20 L 515.22 290.89 L 527.94 264.74 L 540.66 247.28 L 553.38 278.92 L 566.10 241.33 L 578.82 272.67 L 591.54 307.67 L 604.26 264.05 L 616.99 273.13 L 629.71 273.58 L 642.43 183.07 L 655.15 209.46 L 667.87 304.77 L 680.59 329.32 L 693.31 342.21 L 706.03 374.85 L 718.75 360.82 L 731.47 332.91 L 744.19 310.11 L 756.91 254.37 L 769.63 241.41 L 782.35 250.25 L 795.07 274.96 L 807.79 271.37 L 820.51 287.00 L 833.24 289.90 L 845.96 256.43 L 858.68 234.08 L 871.40 237.06 L 884.12 246.21 L 896.84 211.90 L 909.56 84.17 L 922.28 172.78 L 935.00 214.11" fill="none" stroke="#69a7ff" stroke-width="4" stroke-linecap="round" stroke-linejoin="round"/>
<circle cx="935.00" cy="214.11" r="6" fill="#69a7ff"/>
</svg>