<svg xmlns="http://www.w3.org/2000/svg" width="960" height="430" viewBox="0 0 960 430" role="img" aria-label="Composite score history">
<rect width="100%" height="100%" fill="#0b1020" rx="20"/>
<text x="70" y="32" fill="#f5f7fb" font-family="Inter, Arial, sans-serif" font-size="24" font-weight="700">Composite score history</text>
<text x="70" y="52" fill="#93a4c3" font-family="Inter, Arial, sans-serif" font-size="13">Trailing 76 sessions through 2026-01-22</text>
<line x1="70" x2="935" y1="375.00" y2="375.00" stroke="#27314e" stroke-width="1"/>
<text x="58" y="379.00" text-anchor="end" fill="#93a4c3" font-family="Inter, Arial, sans-serif" font-size="12">0</text>
<line x1="70" x2="935" y1="312.00" y2="312.00" stroke="#27314e" stroke-width="1"/>
<text x="58" y="316.00" text-anchor="end" fill="#93a4c3" font-family="Inter, Arial, sans-serif" font-size="12">8</text>
<line x1="70" x2="935" y1="249.00" y2="249.00" stroke="#27314e" stroke-width="1"/>
<text x="58" y="253.00" text-anchor="end" fill="#93a4c3" font-family="Inter, Arial, sans-serif" font-size="12">17</text>
<line x1="70" x2="935" y1="186.00" y2="186.00" stroke="#27314e" stroke-width="1"/>
<text x="58" y="190.00" text-anchor="end" fill="#93a4c3" font-family="Inter, Arial, sans-serif" font-size="12">25</text>
<line x1="70" x2="935" y1="123.00" y2="123.00" stroke="#27314e" stroke-width="1"/>
<text x="58" y="127.00" text-anchor="end" fill="#93a4c3" font-family="Inter, Arial, sans-serif" font-size="12">33</text>
<line x1="70" x2="935" y1="60.00" y2="60.00" stroke="#27314e" stroke-width="1"/>
<text x="58" y="64.00" text-anchor="end" fill="#93a4c3" font-family="Inter, Arial, sans-serif" font-size="12">41</text>
<text x="70.00" y="412" text-anchor="middle" fill="#93a4c3" font-family="Inter, Arial, sans-serif" font-size="12">2025-10-01</text>
<text x="508.27" y="412" text-anchor="middle" fill="#93a4c3" font-family="Inter, Arial, sans-serif" font-size="12">2025-11-26</text>
<text x="935.00" y="412" text-anchor="middle" fill="#93a4c3" font-family="Inter, Arial, sans-serif" font-size="12">2026-01-22</text>
<path d="M 70.00 277.55 L 81.53 276.63 L 93.07 264.66 L 104.60 268.09 L 116.13 259.10 L 127.67 278.85 L 139.20 256.96 L 150.73 123.98 L 162.27 175.75 L 173.80 212.66 L 185.33 109.03 L 196.87 196.19 L 208.40 336.57 L 219.93 309.88 L 231.47 285.33 L 243.00 232.33 L 254.53 267.94 L 266.07 285.48 L 277.60 299.36 L 289.13 266.80 L 300.67 256.12 L 312.20 236.53 L 323.73 192.98 L 335.27 135.80 L 346.80 183.68 L 358.33 184.67 L 369.87 190.93 L 381.40 255.59 L 392.93 294.63 L 404.47 209.53 L 416.00 237.06 L 427.53 167.36 L 439.07 60.00 L 450.60 70.45 L 462.13 66.18 L 473.67 146.17 L 485.20 277.24 L 496.73 326.96 L 508.27 337.79 L 519.80 375.00 L 531.33 333.06 L 542.87 308.20 L 554.40 290.89 L 565.93 264.74 L 577.47 247.28 L 589.00 278.92 L 600.53 241.33 L 612.07 272.67 L 623.60 307.67 L 635.13 264.05 L 646.67 273.13 L 658.20 273.58 L 669.73 183.07 L 681.27 209.46 L 692.80 304.77 L 704.33 329.32 L 715.87 342.21 L 727.40 374.85 L 738.93 360.82 L 750.47 332.91 L 762.00 310.11 L 773.53 254.37 L 785.07 241.41 L 796.60 250.25 L 808.13 274.96 L 819.67 271.37 L 831.20 287.00 L 842.73 289.90 L 854.27 256.43 L 865.80 234.08 L 877.33 237.06 L 888.87 246.21 L 900.40 211.90 L 911.93 84.17 L 923.47 172.78 L 935.00 214.11" fill="none" stroke="#69a7ff" stroke-width="4" stroke-linecap="round" stroke-linejoin="round"/>
<circle cx="935.00" cy="214.11" r="6" fill="#69a7ff"/>
</svg>