<svg xmlns="http://www.w3.org/2000/svg" width="960" height="430" viewBox="0 0 960 430" role="img" aria-label="Composite score history">
<rect width="100%" height="100%" fill="#0b1020" rx="20"/>
<text x="70" y="32" fill="#f5f7fb" font-family="Inter, Arial, sans-serif" font-size="24" font-weight="700">Composite score history</text>
<text x="70" y="52" fill="#93a4c3" font-family="Inter, Arial, sans-serif" font-size="13">Trailing 57 sessions through 2026-01-22</text>
<line x1="70" x2="935" y1="375.00" y2="375.00" stroke="#27314e" stroke-width="1"/>
<text x="58" y="379.00" text-anchor="end" fill="#93a4c3" font-family="Inter, Arial, sans-serif" font-size="12">0</text>
<line x1="70" x2="935" y1="312.00" y2="312.00" stroke="#27314e" stroke-width="1"/>
<text x="58" y="316.00" text-anchor="end" fill="#93a4c3" font-family="Inter, Arial, sans-serif" font-size="12">8</text>
<line x1="70" x2="935" y1="249.00" y2="249.00" stroke="#27314e" stroke-width="1"/>
<text x="58" y="253.00" text-anchor="end" fill="#93a4c3" font-family="Inter, Arial, sans-serif" font-size="12">17</text>
<line x1="70" x2="935" y1="186.00" y2="186.00" stroke="#27314e" stroke-width="1"/>
<text x="58" y="190.00" text-anchor="end" fill="#93a4c3" font-family="Inter, Arial, sans-serif" font-size="12">25</text>
<line x1="70" x2="935" y1="123.00" y2="123.00" stroke="#27314e" stroke-width="1"/>
<text x="58" y="127.00" text-anchor="end" fill="#93a4c3" font-family="Inter, Arial, sans-serif" font-size="12">33</text>
<line x1="70" x2="935" y1="60.00" y2="60.00" stroke="#27314e" stroke-width="1"/>
<text x="58" y="64.00" text-anchor="end" fill="#93a4c3" font-family="Inter, Arial, sans-serif" font-size="12">41</text>
<text x="70.00" y="412" text-anchor="middle" fill="#93a4c3" font-family="Inter, Arial, sans-serif" font-size="12">2025-10-29</text>
<text x="502.50" y="412" text-anchor="middle" fill="#93a4c3" font-family="Inter, Arial, sans-serif" font-size="12">2025-12-10</text>
<text x="935.00" y="412" text-anchor="middle" fill="#93a4c3" font-family="Inter, Arial, sans-serif" font-size="12">2026-01-22</text>
<path d="M 70.00 274.19 L 85.45 224.40 L 100.89 221.05 L 116.34 226.15 L 131.79 176.90 L 147.23 183.68 L 162.68 184.67 L 178.12 190.93 L 193.57 255.59 L 209.02 294.63 L 224.46 209.53 L 239.91 237.06 L 255.36 167.36 L 270.80 60.00 L 286.25 70.45 L 301.70 66.18 L 317.14 146.17 L 332.59 277.24 L 348.04 326.96 L 363.48 337.79 L 378.93 375.00 L 394.38 333.06 L 409.82 308.20 L 425.27 290.89 L 440.71 264.74 L 456.16 247.28 L 471.61 278.92 L 487.05 241.33 L 502.50 272.67 L 517.95 307.67 L 533.39 264.05 L 548.84 273.13 L 564.29 273.58 L 579.73 183.07 L 595.18 209.46 L 610.62 304.77 L 626.07 329.32 L 641.52 342.21 L 656.96 374.85 L 672.41 360.82 L 687.86 332.91 L 703.30 310.11 L 718.75 254.37 L 734.20 241.41 L 749.64 250.25 L 765.09 274.96 L 780.54 271.37 L 795.98 287.00 L 811.43 289.90 L 826.88 256.43 L 842.32 234.08 L 857.77 237.06 L 873.21 246.21 L 888.66 211.90 L 904.11 84.17 L 919.55 172.78 L 935.00 214.11" fill="none" stroke="#69a7ff" stroke-width="4" stroke-linecap="round" stroke-linejoin="round"/>
<circle cx="935.00" cy="214.11" r="6" fill="#69a7ff"/>
</svg>