<svg xmlns="http://www.w3.org/2000/svg" width="960" height="430" viewBox="0 0 960 430" role="img" aria-label="Composite score history">
<rect width="100%" height="100%" fill="#0b1020" rx="20"/>
<text x="70" y="32" fill="#f5f7fb" font-family="Inter, Arial, sans-serif" font-size="24" font-weight="700">Composite score history</text>
<text x="70" y="52" fill="#93a4c3" font-family="Inter, Arial, sans-serif" font-size="13">Trailing 88 sessions through 2026-01-22</text>
<line x1="70" x2="935" y1="375.00" y2="375.00" stroke="#27314e" stroke-width="1"/>
<text x="58" y="379.00" text-anchor="end" fill="#93a4c3" font-family="Inter, Arial, sans-serif" font-size="12">0</text>
<line x1="70" x2="935" y1="312.00" y2="312.00" stroke="#27314e" stroke-width="1"/>
<text x="58" y="316.00" text-anchor="end" fill="#93a4c3" font-family="Inter, Arial, sans-serif" font-size="12">8</text>
<line x1="70" x2="935" y1="249.00" y2="249.00" stroke="#27314e" stroke-width="1"/>
<text x="58" y="253.00" text-anchor="end" fill="#93a4c3" font-family="Inter, Arial, sans-serif" font-size="12">17</text>
<line x1="70" x2="935" y1="186.00" y2="186.00" stroke="#27314e" stroke-width="1"/>
<text x="58" y="190.00" text-anchor="end" fill="#93a4c3" font-family="Inter, Arial, sans-serif" font-size="12">25</text>
<line x1="70" x2="935" y1="123.00" y2="123.00" stroke="#27314e" stroke-width="1"/>
<text x="58" y="127.00" text-anchor="end" fill="#93a4c3" font-family="Inter, Arial, sans-serif" font-size="12">33</text>
<line x1="70" x2="935" y1="60.00" y2="60.00" stroke="#27314e" stroke-width="1"/>
<text x="58" y="64.00" text-anchor="end" fill="#93a4c3" font-family="Inter, Arial, sans-serif" font-size="12">41</text>
<text x="70.00" y="412" text-anchor="middle" fill="#93a4c3" font-family="Inter, Arial, sans-serif" font-size="12">2025-09-15</text>
<text x="507.47" y="412" text-anchor="middle" fill="#93a4c3" font-family="Inter, Arial, sans-serif" font-size="12">2025-11-18</text>
<text x="935.00" y="412" text-anchor="middle" fill="#93a4c3" font-family="Inter, Arial, sans-serif" font-size="12">2026-01-22</text>
<path d="M 70.00 279.23 L 79.94 262.22 L 89.89 261.38 L 99.83 258.41 L 109.77 274.19 L 119.71 266.64 L 129.66 279.46 L 139.60 266.03 L 149.54 222.49 L 159.48 245.75 L 169.43 247.43 L 179.37 259.32 L 189.31 297.76 L 199.25 309.80 L 209.20 286.01 L 219.14 296.54 L 229.08 271.60 L 239.02 278.85 L 248.97 256.96 L 258.91 123.98 L 268.85 175.75 L 278.79 212.66 L 288.74 109.03 L 298.68 196.19 L 308.62 336.57 L 318.56 309.88 L 328.51 285.33 L 338.45 232.33 L 348.39 267.94 L 358.33 285.48 L 368.28 299.36 L 378.22 266.80 L 388.16 256.12 L 398.10 236.53 L 408.05 192.98 L 417.99 135.80 L 427.93 183.68 L 437.87 184.67 L 447.82 190.93 L 457.76 255.59 L 467.70 294.63 L 477.64 209.53 L 487.59 237.06 L 497.53 167.36 L 507.47 60.00 L 517.41 70.45 L 527.36 66.18 L 537.30 146.17 L 547.24 277.24 L 557.18 326.96 L 567.13 337.79 L 577.07 375.00 L 587.01 333.06 L 596.95 308.20 L 606.90 290.89 L 616.84 264.74 L 626.78 247.28 L 636.72 278.92 L 646.67 241.33 L 656.61 272.67 L 666.55 307.67 L 676.49 264.05 L 686.44 273.13 L 696.38 273.58 L 706.32 183.07 L 716.26 209.46 L 726.21 304.77 L 736.15 329.32 L 746.09 342.21 L 756.03 374.85 L 765.98 360.82 L 775.92 332.91 L 785.86 310.11 L 795.80 254.37 L 805.75 241.41 L 815.69 250.25 L 825.63 274.96 L 835.57 271.37 L 845.52 287.00 L 855.46 289.90 L 865.40 256.43 L 875.34 234.08 L 885.29 237.06 L 895.23 246.21 L 905.17 211.90 L 915.11 84.17 L 925.06 172.78 L 935.00 214.11" fill="none" stroke="#69a7ff" stroke-width="4" stroke-linecap="round" stroke-linejoin="round"/>
<circle cx="935.00" cy="214.11" r="6" fill="#69a7ff"/>
</svg>