<svg xmlns="http://www.w3.org/2000/svg" width="960" height="430" viewBox="0 0 960 430" role="img" aria-label="Composite score history">
<rect width="100%" height="100%" fill="#0b1020" rx="20"/>
<text x="70" y="32" fill="#f5f7fb" font-family="Inter, Arial, sans-serif" font-size="24" font-weight="700">Composite score history</text>
<text x="70" y="52" fill="#93a4c3" font-family="Inter, Arial, sans-serif" font-size="13">Trailing 90 sessions through 2026-01-22</text>
<line x1="70" x2="935" y1="375.00" y2="375.00" stroke="#27314e" stroke-width="1"/>
<text x="58" y="379.00" text-anchor="end" fill="#93a4c3" font-family="Inter, Arial, sans-serif" font-size="12">1</text>
<line x1="70" x2="935" y1="312.00" y2="312.00" stroke="#27314e" stroke-width="1"/>
<text x="58" y="316.00" text-anchor="end" fill="#93a4c3" font-family="Inter, Arial, sans-serif" font-size="12">8</text>
<line x1="70" x2="935" y1="249.00" y2="249.00" stroke="#27314e" stroke-width="1"/>
<text x="58" y="253.00" text-anchor="end" fill="#93a4c3" font-family="Inter, Arial, sans-serif" font-size="12">15</text>
<line x1="70" x2="935" y1="186.00" y2="186.00" stroke="#27314e" stroke-width="1"/>
<text x="58" y="190.00" text-anchor="end" fill="#93a4c3" font-family="Inter, Arial, sans-serif" font-size="12">21</text>
<line x1="70" x2="935" y1="123.00" y2="123.00" stroke="#27314e" stroke-width="1"/>
<text x="58" y="127.00" text-anchor="end" fill="#93a4c3" font-family="Inter, Arial, sans-serif" font-size="12">28</text>
<line x1="70" x2="935" y1="60.00" y2="60.00" stroke="#27314e" stroke-width="1"/>
<text x="58" y="64.00" text-anchor="end" fill="#93a4c3" font-family="Inter, Arial, sans-serif" font-size="12">35</text>
<text x="70.00" y="412" text-anchor="middle" fill="#93a4c3" font-family="Inter, Arial, sans-serif" font-size="12">2025-09-11</text>
<text x="507.36" y="412" text-anchor="middle" fill="#93a4c3" font-family="Inter, Arial, sans-serif" font-size="12">2025-11-17</text>
<text x="935.00" y="412" text-anchor="middle" fill="#93a4c3" font-family="Inter, Arial, sans-serif" font-size="12">2026-01-22</text>
<path d="M 70.00 366.19 L 79.72 318.97 L 89.44 307.26 L 99.16 342.86 L 108.88 332.28 L 118.60 268.47 L 128.31 333.77 L 138.03 275.40 L 147.75 331.24 L 157.47 304.82 L 167.19 257.79 L 176.91 291.33 L 186.63 314.47 L 196.35 289.36 L 206.07 353.92 L 215.79 352.51 L 225.51 340.43 L 235.22 352.14 L 244.94 339.68 L 254.66 326.65 L 264.38 283.65 L 274.10 158.75 L 283.82 217.03 L 293.54 263.69 L 303.26 125.02 L 312.98 235.21 L 322.70 341.08 L 332.42 343.61 L 342.13 338.46 L 351.85 129.90 L 361.57 206.82 L 371.29 234.36 L 381.01 265.00 L 390.73 160.72 L 400.45 228.74 L 410.17 224.90 L 419.89 161.47 L 429.61 105.25 L 439.33 208.04 L 449.04 239.24 L 458.76 244.30 L 468.48 328.43 L 478.20 346.24 L 487.92 270.44 L 497.64 268.19 L 507.36 184.71 L 517.08 85.20 L 526.80 86.89 L 536.52 88.11 L 546.24 181.15 L 555.96 324.78 L 565.67 338.74 L 575.39 348.48 L 585.11 354.48 L 594.83 320.00 L 604.55 305.95 L 614.27 276.71 L 623.99 246.08 L 633.71 218.34 L 643.43 312.51 L 653.15 230.24 L 662.87 276.62 L 672.58 365.16 L 682.30 326.65 L 692.02 332.84 L 701.74 326.00 L 711.46 216.75 L 721.18 247.29 L 730.90 364.79 L 740.62 370.69 L 750.34 371.25 L 760.06 375.00 L 769.78 374.06 L 779.49 369.75 L 789.21 357.29 L 798.93 289.08 L 808.65 261.91 L 818.37 252.54 L 828.09 260.32 L 837.81 274.93 L 847.53 279.24 L 857.25 255.35 L 866.97 204.38 L 876.69 208.13 L 886.40 231.84 L 896.12 230.52 L 905.84 199.42 L 915.56 60.00 L 925.28 159.03 L 935.00 186.58" fill="none" stroke="#69a7ff" stroke-width="4" stroke-linecap="round" stroke-linejoin="round"/>
<circle cx="935.00" cy="186.58" r="6" fill="#69a7ff"/>
<text x="927.00" y="174.58" text-anchor="end" fill="#f5f7fb" font-family="Inter, Arial, sans-serif" font-size="12" font-weight="600">21.23</text>
</svg>