<svg xmlns="http://www.w3.org/2000/svg" width="960" height="430" viewBox="0 0 960 430" role="img" aria-label="Composite score history">
<rect width="100%" height="100%" fill="#0b1020" rx="20"/>
<text x="70" y="32" fill="#f5f7fb" font-family="Inter, Arial, sans-serif" font-size="24" font-weight="700">Composite score history</text>
<text x="70" y="52" fill="#93a4c3" font-family="Inter, Arial, sans-serif" font-size="13">Trailing 89 sessions through 2025-11-26</text>
<line x1="70" x2="935" y1="375.00" y2="375.00" stroke="#27314e" stroke-width="1"/>
<text x="58" y="379.00" text-anchor="end" fill="#93a4c3" font-family="Inter, Arial, sans-serif" font-size="12">5</text>
<line x1="70" x2="935" y1="312.00" y2="312.00" stroke="#27314e" stroke-width="1"/>
<text x="58" y="316.00" text-anchor="end" fill="#93a4c3" font-family="Inter, Arial, sans-serif" font-size="12">12</text>
<line x1="70" x2="935" y1="249.00" y2="249.00" stroke="#27314e" stroke-width="1"/>
<text x="58" y="253.00" text-anchor="end" fill="#93a4c3" font-family="Inter, Arial, sans-serif" font-size="12">19</text>
<line x1="70" x2="935" y1="186.00" y2="186.00" stroke="#27314e" stroke-width="1"/>
<text x="58" y="190.00" text-anchor="end" fill="#93a4c3" font-family="Inter, Arial, sans-serif" font-size="12">27</text>
<line x1="70" x2="935" y1="123.00" y2="123.00" stroke="#27314e" stroke-width="1"/>
<text x="58" y="127.00" text-anchor="end" fill="#93a4c3" font-family="Inter, Arial, sans-serif" font-size="12">34</text>
<line x1="70" x2="935" y1="60.00" y2="60.00" stroke="#27314e" stroke-width="1"/>
<text x="58" y="64.00" text-anchor="end" fill="#93a4c3" font-family="Inter, Arial, sans-serif" font-size="12">41</text>
<text x="70.00" y="412" text-anchor="middle" fill="#93a4c3" font-family="Inter, Arial, sans-serif" font-size="12">2025-07-22</text>
<text x="502.50" y="412" text-anchor="middle" fill="#93a4c3" font-family="Inter, Arial, sans-serif" font-size="12">2025-09-23</text>
<text x="935.00" y="412" text-anchor="middle" fill="#93a4c3" font-family="Inter, Arial, sans-serif" font-size="12">2025-11-26</text>
<path d="M 70.00 278.76 L 79.83 286.80 L 89.66 255.33 L 99.49 283.86 L 109.32 283.60 L 119.15 285.51 L 128.98 240.28 L 138.81 234.84 L 148.64 126.84 L 158.47 227.23 L 168.30 220.22 L 178.12 271.59 L 187.95 292.68 L 197.78 286.63 L 207.61 254.81 L 217.44 343.61 L 227.27 340.41 L 237.10 328.39 L 246.93 319.57 L 256.76 320.87 L 266.59 259.65 L 276.42 217.11 L 286.25 182.61 L 296.08 280.92 L 305.91 256.37 L 315.74 270.81 L 325.57 285.33 L 335.40 325.02 L 345.23 286.46 L 355.06 247.63 L 364.89 267.87 L 374.72 307.64 L 384.55 292.77 L 394.38 326.92 L 404.20 343.01 L 414.03 338.94 L 423.86 344.56 L 433.69 329.26 L 443.52 326.58 L 453.35 325.19 L 463.18 317.93 L 473.01 279.28 L 482.84 318.80 L 492.67 294.33 L 502.50 308.85 L 512.33 293.63 L 522.16 244.26 L 531.99 270.63 L 541.82 272.54 L 551.65 286.03 L 561.48 329.60 L 571.31 343.27 L 581.14 316.29 L 590.97 328.22 L 600.80 299.95 L 610.62 308.16 L 620.45 283.34 L 630.28 132.55 L 640.11 191.26 L 649.94 233.11 L 659.77 115.60 L 669.60 214.43 L 679.43 373.62 L 689.26 343.35 L 699.09 315.51 L 708.92 255.42 L 718.75 295.80 L 728.58 315.68 L 738.41 331.42 L 748.24 294.50 L 758.07 282.39 L 767.90 260.17 L 777.73 210.80 L 787.56 145.95 L 797.39 200.25 L 807.22 201.37 L 817.05 208.46 L 826.88 281.79 L 836.70 326.06 L 846.53 229.56 L 856.36 260.78 L 866.19 181.75 L 876.02 60.00 L 885.85 71.85 L 895.68 67.00 L 905.51 157.71 L 915.34 306.35 L 925.17 362.72 L 935.00 375.00" fill="none" stroke="#69a7ff" stroke-width="4" stroke-linecap="round" stroke-linejoin="round"/>
<circle cx="935.00" cy="375.00" r="6" fill="#69a7ff"/>
</svg>