<svg xmlns="http://www.w3.org/2000/svg" width="960" height="430" viewBox="0 0 960 430" role="img" aria-label="Composite score history">
<rect width="100%" height="100%" fill="#0b1020" rx="20"/>
<text x="70" y="32" fill="#f5f7fb" font-family="Inter, Arial, sans-serif" font-size="24" font-weight="700">Composite score history</text>
<text x="70" y="52" fill="#93a4c3" font-family="Inter, Arial, sans-serif" font-size="13">Trailing 61 sessions through 2025-11-26</text>
<line x1="70" x2="935" y1="375.00" y2="375.00" stroke="#27314e" stroke-width="1"/>
<text x="58" y="379.00" text-anchor="end" fill="#93a4c3" font-family="Inter, Arial, sans-serif" font-size="12">5</text>
<line x1="70" x2="935" y1="312.00" y2="312.00" stroke="#27314e" stroke-width="1"/>
<text x="58" y="316.00" text-anchor="end" fill="#93a4c3" font-family="Inter, Arial, sans-serif" font-size="12">12</text>
<line x1="70" x2="935" y1="249.00" y2="249.00" stroke="#27314e" stroke-width="1"/>
<text x="58" y="253.00" text-anchor="end" fill="#93a4c3" font-family="Inter, Arial, sans-serif" font-size="12">19</text>
<line x1="70" x2="935" y1="186.00" y2="186.00" stroke="#27314e" stroke-width="1"/>
<text x="58" y="190.00" text-anchor="end" fill="#93a4c3" font-family="Inter, Arial, sans-serif" font-size="12">27</text>
<line x1="70" x2="935" y1="123.00" y2="123.00" stroke="#27314e" stroke-width="1"/>
<text x="58" y="127.00" text-anchor="end" fill="#93a4c3" font-family="Inter, Arial, sans-serif" font-size="12">34</text>
<line x1="70" x2="935" y1="60.00" y2="60.00" stroke="#27314e" stroke-width="1"/>
<text x="58" y="64.00" text-anchor="end" fill="#93a4c3" font-family="Inter, Arial, sans-serif" font-size="12">41</text>
<text x="70.00" y="412" text-anchor="middle" fill="#93a4c3" font-family="Inter, Arial, sans-serif" font-size="12">2025-08-29</text>
<text x="502.50" y="412" text-anchor="middle" fill="#93a4c3" font-family="Inter, Arial, sans-serif" font-size="12">2025-10-14</text>
<text x="935.00" y="412" text-anchor="middle" fill="#93a4c3" font-family="Inter, Arial, sans-serif" font-size="12">2025-11-26</text>
<path d="M 70.00 300.12 L 84.42 209.76 L 98.83 270.81 L 113.25 318.45 L 127.67 319.49 L 142.08 326.92 L 156.50 343.01 L 170.92 338.94 L 185.33 344.56 L 199.75 329.26 L 214.17 326.58 L 228.58 325.19 L 243.00 317.93 L 257.42 279.28 L 271.83 318.80 L 286.25 294.33 L 300.67 308.85 L 315.08 293.63 L 329.50 244.26 L 343.92 270.63 L 358.33 272.54 L 372.75 286.03 L 387.17 329.60 L 401.58 343.27 L 416.00 316.29 L 430.42 328.22 L 444.83 299.95 L 459.25 308.16 L 473.67 283.34 L 488.08 132.55 L 502.50 191.26 L 516.92 233.11 L 531.33 115.60 L 545.75 214.43 L 560.17 373.62 L 574.58 343.35 L 589.00 315.51 L 603.42 255.42 L 617.83 295.80 L 632.25 315.68 L 646.67 331.42 L 661.08 294.50 L 675.50 282.39 L 689.92 260.17 L 704.33 210.80 L 718.75 145.95 L 733.17 200.25 L 747.58 201.37 L 762.00 208.46 L 776.42 281.79 L 790.83 326.06 L 805.25 229.56 L 819.67 260.78 L 834.08 181.75 L 848.50 60.00 L 862.92 71.85 L 877.33 67.00 L 891.75 157.71 L 906.17 306.35 L 920.58 362.72 L 935.00 375.00" fill="none" stroke="#69a7ff" stroke-width="4" stroke-linecap="round" stroke-linejoin="round"/>
<circle cx="935.00" cy="375.00" r="6" fill="#69a7ff"/>
</svg>