<svg xmlns="http://www.w3.org/2000/svg" width="960" height="430" viewBox="0 0 960 430" role="img" aria-label="Composite score history">
<rect width="100%" height="100%" fill="#0b1020" rx="20"/>
<text x="70" y="32" fill="#f5f7fb" font-family="Inter, Arial, sans-serif" font-size="24" font-weight="700">Composite score history</text>
<text x="70" y="52" fill="#93a4c3" font-family="Inter, Arial, sans-serif" font-size="13">Trailing 72 sessions through 2025-11-26</text>
<line x1="70" x2="935" y1="375.00" y2="375.00" stroke="#27314e" stroke-width="1"/>
<text x="58" y="379.00" text-anchor="end" fill="#93a4c3" font-family="Inter, Arial, sans-serif" font-size="12">5</text>
<line x1="70" x2="935" y1="312.00" y2="312.00" stroke="#27314e" stroke-width="1"/>
<text x="58" y="316.00" text-anchor="end" fill="#93a4c3" font-family="Inter, Arial, sans-serif" font-size="12">12</text>
<line x1="70" x2="935" y1="249.00" y2="249.00" stroke="#27314e" stroke-width="1"/>
<text x="58" y="253.00" text-anchor="end" fill="#93a4c3" font-family="Inter, Arial, sans-serif" font-size="12">19</text>
<line x1="70" x2="935" y1="186.00" y2="186.00" stroke="#27314e" stroke-width="1"/>
<text x="58" y="190.00" text-anchor="end" fill="#93a4c3" font-family="Inter, Arial, sans-serif" font-size="12">27</text>
<line x1="70" x2="935" y1="123.00" y2="123.00" stroke="#27314e" stroke-width="1"/>
<text x="58" y="127.00" text-anchor="end" fill="#93a4c3" font-family="Inter, Arial, sans-serif" font-size="12">34</text>
<line x1="70" x2="935" y1="60.00" y2="60.00" stroke="#27314e" stroke-width="1"/>
<text x="58" y="64.00" text-anchor="end" fill="#93a4c3" font-family="Inter, Arial, sans-serif" font-size="12">41</text>
<text x="70.00" y="412" text-anchor="middle" fill="#93a4c3" font-family="Inter, Arial, sans-serif" font-size="12">2025-08-14</text>
<text x="508.59" y="412" text-anchor="middle" fill="#93a4c3" font-family="Inter, Arial, sans-serif" font-size="12">2025-10-06</text>
<text x="935.00" y="412" text-anchor="middle" fill="#93a4c3" font-family="Inter, Arial, sans-serif" font-size="12">2025-11-26</text>
<path d="M 70.00 300.12 L 82.18 281.10 L 94.37 274.01 L 106.55 252.22 L 118.73 242.79 L 130.92 182.61 L 143.10 280.92 L 155.28 256.37 L 167.46 270.81 L 179.65 285.33 L 191.83 325.02 L 204.01 286.46 L 216.20 247.63 L 228.38 267.87 L 240.56 307.64 L 252.75 292.77 L 264.93 326.92 L 277.11 343.01 L 289.30 338.94 L 301.48 344.56 L 313.66 329.26 L 325.85 326.58 L 338.03 325.19 L 350.21 317.93 L 362.39 279.28 L 374.58 318.80 L 386.76 294.33 L 398.94 308.85 L 411.13 293.63 L 423.31 244.26 L 435.49 270.63 L 447.68 272.54 L 459.86 286.03 L 472.04 329.60 L 484.23 343.27 L 496.41 316.29 L 508.59 328.22 L 520.77 299.95 L 532.96 308.16 L 545.14 283.34 L 557.32 132.55 L 569.51 191.26 L 581.69 233.11 L 593.87 115.60 L 606.06 214.43 L 618.24 373.62 L 630.42 343.35 L 642.61 315.51 L 654.79 255.42 L 666.97 295.80 L 679.15 315.68 L 691.34 331.42 L 703.52 294.50 L 715.70 282.39 L 727.89 260.17 L 740.07 210.80 L 752.25 145.95 L 764.44 200.25 L 776.62 201.37 L 788.80 208.46 L 800.99 281.79 L 813.17 326.06 L 825.35 229.56 L 837.54 260.78 L 849.72 181.75 L 861.90 60.00 L 874.08 71.85 L 886.27 67.00 L 898.45 157.71 L 910.63 306.35 L 922.82 362.72 L 935.00 375.00" fill="none" stroke="#69a7ff" stroke-width="4" stroke-linecap="round" stroke-linejoin="round"/>
<circle cx="935.00" cy="375.00" r="6" fill="#69a7ff"/>
</svg>