<svg xmlns="http://www.w3.org/2000/svg" width="960" height="430" viewBox="0 0 960 430" role="img" aria-label="Composite score history">
<rect width="100%" height="100%" fill="#0b1020" rx="20"/>
<text x="70" y="32" fill="#f5f7fb" font-family="Inter, Arial, sans-serif" font-size="24" font-weight="700">Composite score history</text>
<text x="70" y="52" fill="#93a4c3" font-family="Inter, Arial, sans-serif" font-size="13">Trailing 82 sessions through 2025-11-26</text>
<line x1="70" x2="935" y1="375.00" y2="375.00" stroke="#27314e" stroke-width="1"/>
<text x="58" y="379.00" text-anchor="end" fill="#93a4c3" font-family="Inter, Arial, sans-serif" font-size="12">5</text>
<line x1="70" x2="935" y1="312.00" y2="312.00" stroke="#27314e" stroke-width="1"/>
<text x="58" y="316.00" text-anchor="end" fill="#93a4c3" font-family="Inter, Arial, sans-serif" font-size="12">12</text>
<line x1="70" x2="935" y1="249.00" y2="249.00" stroke="#27314e" stroke-width="1"/>
<text x="58" y="253.00" text-anchor="end" fill="#93a4c3" font-family="Inter, Arial, sans-serif" font-size="12">19</text>
<line x1="70" x2="935" y1="186.00" y2="186.00" stroke="#27314e" stroke-width="1"/>
<text x="58" y="190.00" text-anchor="end" fill="#93a4c3" font-family="Inter, Arial, sans-serif" font-size="12">27</text>
<line x1="70" x2="935" y1="123.00" y2="123.00" stroke="#27314e" stroke-width="1"/>
<text x="58" y="127.00" text-anchor="end" fill="#93a4c3" font-family="Inter, Arial, sans-serif" font-size="12">34</text>
<line x1="70" x2="935" y1="60.00" y2="60.00" stroke="#27314e" stroke-width="1"/>
<text x="58" y="64.00" text-anchor="end" fill="#93a4c3" font-family="Inter, Arial, sans-serif" font-size="12">41</text>
<text x="70.00" y="412" text-anchor="middle" fill="#93a4c3" font-family="Inter, Arial, sans-serif" font-size="12">2025-07-31</text>
<text x="507.84" y="412" text-anchor="middle" fill="#93a4c3" font-family="Inter, Arial, sans-serif" font-size="12">2025-09-29</text>
<text x="935.00" y="412" text-anchor="middle" fill="#93a4c3" font-family="Inter, Arial, sans-serif" font-size="12">2025-11-26</text>
<path d="M 70.00 272.28 L 80.68 174.22 L 91.36 274.96 L 102.04 247.46 L 112.72 295.71 L 123.40 292.68 L 134.07 286.63 L 144.75 254.81 L 155.43 343.61 L 166.11 340.41 L 176.79 328.39 L 187.47 319.57 L 198.15 320.87 L 208.83 259.65 L 219.51 217.11 L 230.19 182.61 L 240.86 280.92 L 251.54 256.37 L 262.22 270.81 L 272.90 285.33 L 283.58 325.02 L 294.26 286.46 L 304.94 247.63 L 315.62 267.87 L 326.30 307.64 L 336.98 292.77 L 347.65 326.92 L 358.33 343.01 L 369.01 338.94 L 379.69 344.56 L 390.37 329.26 L 401.05 326.58 L 411.73 325.19 L 422.41 317.93 L 433.09 279.28 L 443.77 318.80 L 454.44 294.33 L 465.12 308.85 L 475.80 293.63 L 486.48 244.26 L 497.16 270.63 L 507.84 272.54 L 518.52 286.03 L 529.20 329.60 L 539.88 343.27 L 550.56 316.29 L 561.23 328.22 L 571.91 299.95 L 582.59 308.16 L 593.27 283.34 L 603.95 132.55 L 614.63 191.26 L 625.31 233.11 L 635.99 115.60 L 646.67 214.43 L 657.35 373.62 L 668.02 343.35 L 678.70 315.51 L 689.38 255.42 L 700.06 295.80 L 710.74 315.68 L 721.42 331.42 L 732.10 294.50 L 742.78 282.39 L 753.46 260.17 L 764.14 210.80 L 774.81 145.95 L 785.49 200.25 L 796.17 201.37 L 806.85 208.46 L 817.53 281.79 L 828.21 326.06 L 838.89 229.56 L 849.57 260.78 L 860.25 181.75 L 870.93 60.00 L 881.60 71.85 L 892.28 67.00 L 902.96 157.71 L 913.64 306.35 L 924.32 362.72 L 935.00 375.00" fill="none" stroke="#69a7ff" stroke-width="4" stroke-linecap="round" stroke-linejoin="round"/>
<circle cx="935.00" cy="375.00" r="6" fill="#69a7ff"/>
</svg>