<svg xmlns="http://www.w3.org/2000/svg" width="960" height="430" viewBox="0 0 960 430" role="img" aria-label="Composite score history">
<rect width="100%" height="100%" fill="#0b1020" rx="20"/>
<text x="70" y="32" fill="#f5f7fb" font-family="Inter, Arial, sans-serif" font-size="24" font-weight="700">Composite score history</text>
<text x="70" y="52" fill="#93a4c3" font-family="Inter, Arial, sans-serif" font-size="13">Trailing 88 sessions through 2025-11-26</text>
<line x1="70" x2="935" y1="375.00" y2="375.00" stroke="#27314e" stroke-width="1"/>
<text x="58" y="379.00" text-anchor="end" fill="#93a4c3" font-family="Inter, Arial, sans-serif" font-size="12">5</text>
<line x1="70" x2="935" y1="312.00" y2="312.00" stroke="#27314e" stroke-width="1"/>
<text x="58" y="316.00" text-anchor="end" fill="#93a4c3" font-family="Inter, Arial, sans-serif" font-size="12">12</text>
<line x1="70" x2="935" y1="249.00" y2="249.00" stroke="#27314e" stroke-width="1"/>
<text x="58" y="253.00" text-anchor="end" fill="#93a4c3" font-family="Inter, Arial, sans-serif" font-size="12">19</text>
<line x1="70" x2="935" y1="186.00" y2="186.00" stroke="#27314e" stroke-width="1"/>
<text x="58" y="190.00" text-anchor="end" fill="#93a4c3" font-family="Inter, Arial, sans-serif" font-size="12">27</text>
<line x1="70" x2="935" y1="123.00" y2="123.00" stroke="#27314e" stroke-width="1"/>
<text x="58" y="127.00" text-anchor="end" fill="#93a4c3" font-family="Inter, Arial, sans-serif" font-size="12">34</text>
<line x1="70" x2="935" y1="60.00" y2="60.00" stroke="#27314e" stroke-width="1"/>
<text x="58" y="64.00" text-anchor="end" fill="#93a4c3" font-family="Inter, Arial, sans-serif" font-size="12">41</text>
<text x="70.00" y="412" text-anchor="middle" fill="#93a4c3" font-family="Inter, Arial, sans-serif" font-size="12">2025-07-23</text>
<text x="507.47" y="412" text-anchor="middle" fill="#93a4c3" font-family="Inter, Arial, sans-serif" font-size="12">2025-09-24</text>
<text x="935.00" y="412" text-anchor="middle" fill="#93a4c3" font-family="Inter, Arial, sans-serif" font-size="12">2025-11-26</text>
<path d="M 70.00 287.24 L 79.94 242.62 L 89.89 271.24 L 99.83 270.98 L 109.77 261.04 L 119.71 240.28 L 129.66 234.84 L 139.60 126.84 L 149.54 227.23 L 159.48 220.22 L 169.43 271.59 L 179.37 292.68 L 189.31 286.63 L 199.25 254.81 L 209.20 343.61 L 219.14 340.41 L 229.08 328.39 L 239.02 319.57 L 248.97 320.87 L 258.91 259.65 L 268.85 217.11 L 278.79 182.61 L 288.74 280.92 L 298.68 256.37 L 308.62 270.81 L 318.56 285.33 L 328.51 325.02 L 338.45 286.46 L 348.39 247.63 L 358.33 267.87 L 368.28 307.64 L 378.22 292.77 L 388.16 326.92 L 398.10 343.01 L 408.05 338.94 L 417.99 344.56 L 427.93 329.26 L 437.87 326.58 L 447.82 325.19 L 457.76 317.93 L 467.70 279.28 L 477.64 318.80 L 487.59 294.33 L 497.53 308.85 L 507.47 293.63 L 517.41 244.26 L 527.36 270.63 L 537.30 272.54 L 547.24 286.03 L 557.18 329.60 L 567.13 343.27 L 577.07 316.29 L 587.01 328.22 L 596.95 299.95 L 606.90 308.16 L 616.84 283.34 L 626.78 132.55 L 636.72 191.26 L 646.67 233.11 L 656.61 115.60 L 666.55 214.43 L 676.49 373.62 L 686.44 343.35 L 696.38 315.51 L 706.32 255.42 L 716.26 295.80 L 726.21 315.68 L 736.15 331.42 L 746.09 294.50 L 756.03 282.39 L 765.98 260.17 L 775.92 210.80 L 785.86 145.95 L 795.80 200.25 L 805.75 201.37 L 815.69 208.46 L 825.63 281.79 L 835.57 326.06 L 845.52 229.56 L 855.46 260.78 L 865.40 181.75 L 875.34 60.00 L 885.29 71.85 L 895.23 67.00 L 905.17 157.71 L 915.11 306.35 L 925.06 362.72 L 935.00 375.00" fill="none" stroke="#69a7ff" stroke-width="4" stroke-linecap="round" stroke-linejoin="round"/>
<circle cx="935.00" cy="375.00" r="6" fill="#69a7ff"/>
</svg>