<svg xmlns="http://www.w3.org/2000/svg" width="960" height="430" viewBox="0 0 960 430" role="img" aria-label="Composite score history">
<rect width="100%" height="100%" fill="#0b1020" rx="20"/>
<text x="70" y="32" fill="#f5f7fb" font-family="Inter, Arial, sans-serif" font-size="24" font-weight="700">Composite score history</text>
<text x="70" y="52" fill="#93a4c3" font-family="Inter, Arial, sans-serif" font-size="13">Trailing 70 sessions through 2025-11-26</text>
<line x1="70" x2="935" y1="375.00" y2="375.00" stroke="#27314e" stroke-width="1"/>
<text x="58" y="379.00" text-anchor="end" fill="#93a4c3" font-family="Inter, Arial, sans-serif" font-size="12">5</text>
<line x1="70" x2="935" y1="312.00" y2="312.00" stroke="#27314e" stroke-width="1"/>
<text x="58" y="316.00" text-anchor="end" fill="#93a4c3" font-family="Inter, Arial, sans-serif" font-size="12">12</text>
<line x1="70" x2="935" y1="249.00" y2="249.00" stroke="#27314e" stroke-width="1"/>
<text x="58" y="253.00" text-anchor="end" fill="#93a4c3" font-family="Inter, Arial, sans-serif" font-size="12">19</text>
<line x1="70" x2="935" y1="186.00" y2="186.00" stroke="#27314e" stroke-width="1"/>
<text x="58" y="190.00" text-anchor="end" fill="#93a4c3" font-family="Inter, Arial, sans-serif" font-size="12">27</text>
<line x1="70" x2="935" y1="123.00" y2="123.00" stroke="#27314e" stroke-width="1"/>
<text x="58" y="127.00" text-anchor="end" fill="#93a4c3" font-family="Inter, Arial, sans-serif" font-size="12">34</text>
<line x1="70" x2="935" y1="60.00" y2="60.00" stroke="#27314e" stroke-width="1"/>
<text x="58" y="64.00" text-anchor="end" fill="#93a4c3" font-family="Inter, Arial, sans-serif" font-size="12">41</text>
<text x="70.00" y="412" text-anchor="middle" fill="#93a4c3" font-family="Inter, Arial, sans-serif" font-size="12">2025-08-18</text>
<text x="508.77" y="412" text-anchor="middle" fill="#93a4c3" font-family="Inter, Arial, sans-serif" font-size="12">2025-10-07</text>
<text x="935.00" y="412" text-anchor="middle" fill="#93a4c3" font-family="Inter, Arial, sans-serif" font-size="12">2025-11-26</text>
<path d="M 70.00 298.65 L 82.54 269.86 L 95.07 256.89 L 107.61 202.76 L 120.14 281.18 L 132.68 256.37 L 145.22 270.81 L 157.75 285.33 L 170.29 325.02 L 182.83 286.46 L 195.36 247.63 L 207.90 267.87 L 220.43 307.64 L 232.97 292.77 L 245.51 326.92 L 258.04 343.01 L 270.58 338.94 L 283.12 344.56 L 295.65 329.26 L 308.19 326.58 L 320.72 325.19 L 333.26 317.93 L 345.80 279.28 L 358.33 318.80 L 370.87 294.33 L 383.41 308.85 L 395.94 293.63 L 408.48 244.26 L 421.01 270.63 L 433.55 272.54 L 446.09 286.03 L 458.62 329.60 L 471.16 343.27 L 483.70 316.29 L 496.23 328.22 L 508.77 299.95 L 521.30 308.16 L 533.84 283.34 L 546.38 132.55 L 558.91 191.26 L 571.45 233.11 L 583.99 115.60 L 596.52 214.43 L 609.06 373.62 L 621.59 343.35 L 634.13 315.51 L 646.67 255.42 L 659.20 295.80 L 671.74 315.68 L 684.28 331.42 L 696.81 294.50 L 709.35 282.39 L 721.88 260.17 L 734.42 210.80 L 746.96 145.95 L 759.49 200.25 L 772.03 201.37 L 784.57 208.46 L 797.10 281.79 L 809.64 326.06 L 822.17 229.56 L 834.71 260.78 L 847.25 181.75 L 859.78 60.00 L 872.32 71.85 L 884.86 67.00 L 897.39 157.71 L 909.93 306.35 L 922.46 362.72 L 935.00 375.00" fill="none" stroke="#69a7ff" stroke-width="4" stroke-linecap="round" stroke-linejoin="round"/>
<circle cx="935.00" cy="375.00" r="6" fill="#69a7ff"/>
</svg>