<svg xmlns="http://www.w3.org/2000/svg" width="960" height="430" viewBox="0 0 960 430" role="img" aria-label="Composite score history">
<rect width="100%" height="100%" fill="#0b1020" rx="20"/>
<text x="70" y="32" fill="#f5f7fb" font-family="Inter, Arial, sans-serif" font-size="24" font-weight="700">Composite score history</text>
<text x="70" y="52" fill="#93a4c3" font-family="Inter, Arial, sans-serif" font-size="13">Trailing 62 sessions through 2025-11-26</text>
<line x1="70" x2="935" y1="375.00" y2="375.00" stroke="#27314e" stroke-width="1"/>
<text x="58" y="379.00" text-anchor="end" fill="#93a4c3" font-family="Inter, Arial, sans-serif" font-size="12">5</text>
<line x1="70" x2="935" y1="312.00" y2="312.00" stroke="#27314e" stroke-width="1"/>
<text x="58" y="316.00" text-anchor="end" fill="#93a4c3" font-family="Inter, Arial, sans-serif" font-size="12">12</text>
<line x1="70" x2="935" y1="249.00" y2="249.00" stroke="#27314e" stroke-width="1"/>
<text x="58" y="253.00" text-anchor="end" fill="#93a4c3" font-family="Inter, Arial, sans-serif" font-size="12">19</text>
<line x1="70" x2="935" y1="186.00" y2="186.00" stroke="#27314e" stroke-width="1"/>
<text x="58" y="190.00" text-anchor="end" fill="#93a4c3" font-family="Inter, Arial, sans-serif" font-size="12">27</text>
<line x1="70" x2="935" y1="123.00" y2="123.00" stroke="#27314e" stroke-width="1"/>
<text x="58" y="127.00" text-anchor="end" fill="#93a4c3" font-family="Inter, Arial, sans-serif" font-size="12">34</text>
<line x1="70" x2="935" y1="60.00" y2="60.00" stroke="#27314e" stroke-width="1"/>
<text x="58" y="64.00" text-anchor="end" fill="#93a4c3" font-family="Inter, Arial, sans-serif" font-size="12">41</text>
<text x="70.00" y="412" text-anchor="middle" fill="#93a4c3" font-family="Inter, Arial, sans-serif" font-size="12">2025-08-28</text>
<text x="509.59" y="412" text-anchor="middle" fill="#93a4c3" font-family="Inter, Arial, sans-serif" font-size="12">2025-10-14</text>
<text x="935.00" y="412" text-anchor="middle" fill="#93a4c3" font-family="Inter, Arial, sans-serif" font-size="12">2025-11-26</text>
<path d="M 70.00 301.94 L 84.18 264.93 L 98.36 189.44 L 112.54 242.53 L 126.72 297.44 L 140.90 292.77 L 155.08 326.92 L 169.26 343.01 L 183.44 338.94 L 197.62 344.56 L 211.80 329.26 L 225.98 326.58 L 240.16 325.19 L 254.34 317.93 L 268.52 279.28 L 282.70 318.80 L 296.89 294.33 L 311.07 308.85 L 325.25 293.63 L 339.43 244.26 L 353.61 270.63 L 367.79 272.54 L 381.97 286.03 L 396.15 329.60 L 410.33 343.27 L 424.51 316.29 L 438.69 328.22 L 452.87 299.95 L 467.05 308.16 L 481.23 283.34 L 495.41 132.55 L 509.59 191.26 L 523.77 233.11 L 537.95 115.60 L 552.13 214.43 L 566.31 373.62 L 580.49 343.35 L 594.67 315.51 L 608.85 255.42 L 623.03 295.80 L 637.21 315.68 L 651.39 331.42 L 665.57 294.50 L 679.75 282.39 L 693.93 260.17 L 708.11 210.80 L 722.30 145.95 L 736.48 200.25 L 750.66 201.37 L 764.84 208.46 L 779.02 281.79 L 793.20 326.06 L 807.38 229.56 L 821.56 260.78 L 835.74 181.75 L 849.92 60.00 L 864.10 71.85 L 878.28 67.00 L 892.46 157.71 L 906.64 306.35 L 920.82 362.72 L 935.00 375.00" fill="none" stroke="#69a7ff" stroke-width="4" stroke-linecap="round" stroke-linejoin="round"/>
<circle cx="935.00" cy="375.00" r="6" fill="#69a7ff"/>
</svg>