<svg xmlns="http://www.w3.org/2000/svg" width="960" height="430" viewBox="0 0 960 430" role="img" aria-label="Composite score history">
<rect width="100%" height="100%" fill="#0b1020" rx="20"/>
<text x="70" y="32" fill="#f5f7fb" font-family="Inter, Arial, sans-serif" font-size="24" font-weight="700">Composite score history</text>
<text x="70" y="52" fill="#93a4c3" font-family="Inter, Arial, sans-serif" font-size="13">Trailing 74 sessions through 2025-11-26</text>
<line x1="70" x2="935" y1="375.00" y2="375.00" stroke="#27314e" stroke-width="1"/>
<text x="58" y="379.00" text-anchor="end" fill="#93a4c3" font-family="Inter, Arial, sans-serif" font-size="12">5</text>
<line x1="70" x2="935" y1="312.00" y2="312.00" stroke="#27314e" stroke-width="1"/>
<text x="58" y="316.00" text-anchor="end" fill="#93a4c3" font-family="Inter, Arial, sans-serif" font-size="12">12</text>
<line x1="70" x2="935" y1="249.00" y2="249.00" stroke="#27314e" stroke-width="1"/>
<text x="58" y="253.00" text-anchor="end" fill="#93a4c3" font-family="Inter, Arial, sans-serif" font-size="12">19</text>
<line x1="70" x2="935" y1="186.00" y2="186.00" stroke="#27314e" stroke-width="1"/>
<text x="58" y="190.00" text-anchor="end" fill="#93a4c3" font-family="Inter, Arial, sans-serif" font-size="12">27</text>
<line x1="70" x2="935" y1="123.00" y2="123.00" stroke="#27314e" stroke-width="1"/>
<text x="58" y="127.00" text-anchor="end" fill="#93a4c3" font-family="Inter, Arial, sans-serif" font-size="12">34</text>
<line x1="70" x2="935" y1="60.00" y2="60.00" stroke="#27314e" stroke-width="1"/>
<text x="58" y="64.00" text-anchor="end" fill="#93a4c3" font-family="Inter, Arial, sans-serif" font-size="12">41</text>
<text x="70.00" y="412" text-anchor="middle" fill="#93a4c3" font-family="Inter, Arial, sans-serif" font-size="12">2025-08-12</text>
<text x="508.42" y="412" text-anchor="middle" fill="#93a4c3" font-family="Inter, Arial, sans-serif" font-size="12">2025-10-03</text>
<text x="935.00" y="412" text-anchor="middle" fill="#93a4c3" font-family="Inter, Arial, sans-serif" font-size="12">2025-11-26</text>
<path d="M 70.00 301.94 L 81.85 314.65 L 93.70 300.03 L 105.55 287.24 L 117.40 280.40 L 129.25 259.65 L 141.10 217.11 L 152.95 182.61 L 164.79 280.92 L 176.64 256.37 L 188.49 270.81 L 200.34 285.33 L 212.19 325.02 L 224.04 286.46 L 235.89 247.63 L 247.74 267.87 L 259.59 307.64 L 271.44 292.77 L 283.29 326.92 L 295.14 343.01 L 306.99 338.94 L 318.84 344.56 L 330.68 329.26 L 342.53 326.58 L 354.38 325.19 L 366.23 317.93 L 378.08 279.28 L 389.93 318.80 L 401.78 294.33 L 413.63 308.85 L 425.48 293.63 L 437.33 244.26 L 449.18 270.63 L 461.03 272.54 L 472.88 286.03 L 484.73 329.60 L 496.58 343.27 L 508.42 316.29 L 520.27 328.22 L 532.12 299.95 L 543.97 308.16 L 555.82 283.34 L 567.67 132.55 L 579.52 191.26 L 591.37 233.11 L 603.22 115.60 L 615.07 214.43 L 626.92 373.62 L 638.77 343.35 L 650.62 315.51 L 662.47 255.42 L 674.32 295.80 L 686.16 315.68 L 698.01 331.42 L 709.86 294.50 L 721.71 282.39 L 733.56 260.17 L 745.41 210.80 L 757.26 145.95 L 769.11 200.25 L 780.96 201.37 L 792.81 208.46 L 804.66 281.79 L 816.51 326.06 L 828.36 229.56 L 840.21 260.78 L 852.05 181.75 L 863.90 60.00 L 875.75 71.85 L 887.60 67.00 L 899.45 157.71 L 911.30 306.35 L 923.15 362.72 L 935.00 375.00" fill="none" stroke="#69a7ff" stroke-width="4" stroke-linecap="round" stroke-linejoin="round"/>
<circle cx="935.00" cy="375.00" r="6" fill="#69a7ff"/>
</svg>