<svg xmlns="http://www.w3.org/2000/svg" width="960" height="430" viewBox="0 0 960 430">
<rect width="100%" height="100%" fill="#0b1020" rx="20"/>
<text x="70" y="32" fill="#f5f7fb" font-size="24" font-family="Inter, Arial, sans-serif" font-weight="700">Composite score history</text>
<text x="70" y="52" fill="#93a4c3" font-size="13" font-family="Inter, Arial, sans-serif">Trailing 16 sessions through 2025-08-07</text>
<line x1="70" x2="935" y1="375.00" y2="375.00" stroke="#27314e" stroke-width="1"/>
<text x="58" y="379.00" text-anchor="end" fill="#93a4c3" font-size="12" font-family="Inter, Arial, sans-serif">13</text>
<line x1="70" x2="935" y1="312.00" y2="312.00" stroke="#27314e" stroke-width="1"/>
<text x="58" y="316.00" text-anchor="end" fill="#93a4c3" font-size="12" font-family="Inter, Arial, sans-serif">17</text>
<line x1="70" x2="935" y1="249.00" y2="249.00" stroke="#27314e" stroke-width="1"/>
<text x="58" y="253.00" text-anchor="end" fill="#93a4c3" font-size="12" font-family="Inter, Arial, sans-serif">21</text>
<line x1="70" x2="935" y1="186.00" y2="186.00" stroke="#27314e" stroke-width="1"/>
<text x="58" y="190.00" text-anchor="end" fill="#93a4c3" font-size="12" font-family="Inter, Arial, sans-serif">25</text>
<line x1="70" x2="935" y1="123.00" y2="123.00" stroke="#27314e" stroke-width="1"/>
<text x="58" y="127.00" text-anchor="end" fill="#93a4c3" font-size="12" font-family="Inter, Arial, sans-serif">29</text>
<line x1="70" x2="935" y1="60.00" y2="60.00" stroke="#27314e" stroke-width="1"/>
<text x="58" y="64.00" text-anchor="end" fill="#93a4c3" font-size="12" font-family="Inter, Arial, sans-serif">34</text>
<text x="70.00" y="412" text-anchor="middle" fill="#93a4c3" font-size="12" font-family="Inter, Arial, sans-serif">2025-07-17</text>
<text x="531.33" y="412" text-anchor="middle" fill="#93a4c3" font-size="12" font-family="Inter, Arial, sans-serif">2025-07-29</text>
<text x="935.00" y="412" text-anchor="middle" fill="#93a4c3" font-size="12" font-family="Inter, Arial, sans-serif">2025-08-07</text>
<path d="M 70.00 301.92 L 127.67 312.27 L 185.33 318.57 L 243.00 331.03 L 300.67 375.00 L 358.33 360.89 L 416.00 370.35 L 473.67 346.64 L 531.33 335.38 L 589.00 256.89 L 646.67 247.44 L 704.33 60.00 L 762.00 234.23 L 819.67 222.08 L 877.33 311.22 L 935.00 347.84" fill="none" stroke="#69a7ff" stroke-width="4" stroke-linecap="round" stroke-linejoin="round"/>
<circle cx="935.00" cy="347.84" r="6" fill="#69a7ff"/>
</svg>