<svg xmlns="http://www.w3.org/2000/svg" width="960" height="430" viewBox="0 0 960 430" role="img" aria-label="Composite score history">
<rect width="100%" height="100%" fill="#0b1020" rx="20"/>
<text x="70" y="32" fill="#f5f7fb" font-family="Inter, Arial, sans-serif" font-size="24" font-weight="700">Composite score history</text>
<text x="70" y="52" fill="#93a4c3" font-family="Inter, Arial, sans-serif" font-size="13">Trailing 78 sessions through 2025-11-13</text>
<line x1="70" x2="935" y1="375.00" y2="375.00" stroke="#27314e" stroke-width="1"/>
<text x="58" y="379.00" text-anchor="end" fill="#93a4c3" font-family="Inter, Arial, sans-serif" font-size="12">5</text>
<line x1="70" x2="935" y1="312.00" y2="312.00" stroke="#27314e" stroke-width="1"/>
<text x="58" y="316.00" text-anchor="end" fill="#93a4c3" font-family="Inter, Arial, sans-serif" font-size="12">11</text>
<line x1="70" x2="935" y1="249.00" y2="249.00" stroke="#27314e" stroke-width="1"/>
<text x="58" y="253.00" text-anchor="end" fill="#93a4c3" font-family="Inter, Arial, sans-serif" font-size="12">17</text>
<line x1="70" x2="935" y1="186.00" y2="186.00" stroke="#27314e" stroke-width="1"/>
<text x="58" y="190.00" text-anchor="end" fill="#93a4c3" font-family="Inter, Arial, sans-serif" font-size="12">23</text>
<line x1="70" x2="935" y1="123.00" y2="123.00" stroke="#27314e" stroke-width="1"/>
<text x="58" y="127.00" text-anchor="end" fill="#93a4c3" font-family="Inter, Arial, sans-serif" font-size="12">29</text>
<line x1="70" x2="935" y1="60.00" y2="60.00" stroke="#27314e" stroke-width="1"/>
<text x="58" y="64.00" text-anchor="end" fill="#93a4c3" font-family="Inter, Arial, sans-serif" font-size="12">35</text>
<text x="70.00" y="412" text-anchor="middle" fill="#93a4c3" font-family="Inter, Arial, sans-serif" font-size="12">2025-07-24</text>
<text x="508.12" y="412" text-anchor="middle" fill="#93a4c3" font-family="Inter, Arial, sans-serif" font-size="12">2025-09-18</text>
<text x="935.00" y="412" text-anchor="middle" fill="#93a4c3" font-family="Inter, Arial, sans-serif" font-size="12">2025-11-13</text>
<path d="M 70.00 257.72 L 81.23 276.72 L 92.47 276.40 L 103.70 256.98 L 114.94 244.10 L 126.17 205.57 L 137.40 73.72 L 148.64 196.28 L 159.87 187.73 L 171.10 250.44 L 182.34 276.19 L 193.57 268.80 L 204.81 229.96 L 216.04 338.37 L 227.27 334.46 L 238.51 319.79 L 249.74 309.02 L 260.97 310.61 L 272.21 235.87 L 283.44 183.93 L 294.68 141.81 L 305.91 261.84 L 317.14 231.86 L 328.38 249.49 L 339.61 267.22 L 350.84 315.67 L 362.08 268.59 L 373.31 221.19 L 384.55 245.90 L 395.78 294.46 L 407.01 276.30 L 418.25 318.00 L 429.48 337.63 L 440.71 332.67 L 451.95 339.53 L 463.18 320.85 L 474.42 317.57 L 485.65 315.88 L 496.88 307.02 L 508.12 259.83 L 519.35 308.07 L 530.58 278.20 L 541.82 295.93 L 553.05 277.35 L 564.29 217.08 L 575.52 249.27 L 586.75 251.60 L 597.99 268.06 L 609.22 321.27 L 620.45 337.95 L 631.69 305.01 L 642.92 319.58 L 654.16 285.06 L 665.39 295.09 L 676.62 264.79 L 687.86 80.69 L 699.09 152.37 L 710.32 203.46 L 721.56 60.00 L 732.79 180.66 L 744.03 375.00 L 755.26 338.05 L 766.49 304.06 L 777.73 230.70 L 788.96 279.99 L 800.19 304.27 L 811.43 323.49 L 822.66 278.41 L 833.90 263.63 L 845.13 236.50 L 856.36 176.22 L 867.60 97.05 L 878.83 163.35 L 890.06 164.72 L 901.30 173.37 L 912.53 262.89 L 923.77 316.94 L 935.00 199.13" fill="none" stroke="#69a7ff" stroke-width="4" stroke-linecap="round" stroke-linejoin="round"/>
<circle cx="935.00" cy="199.13" r="6" fill="#69a7ff"/>
</svg>