<svg xmlns="http://www.w3.org/2000/svg" width="960" height="430" viewBox="0 0 960 430" role="img" aria-label="Composite score history">
<rect width="100%" height="100%" fill="#0b1020" rx="20"/>
<text x="70" y="32" fill="#f5f7fb" font-family="Inter, Arial, sans-serif" font-size="24" font-weight="700">Composite score history</text>
<text x="70" y="52" fill="#93a4c3" font-family="Inter, Arial, sans-serif" font-size="13">Trailing 84 sessions through 2025-11-13</text>
<line x1="70" x2="935" y1="375.00" y2="375.00" stroke="#27314e" stroke-width="1"/>
<text x="58" y="379.00" text-anchor="end" fill="#93a4c3" font-family="Inter, Arial, sans-serif" font-size="12">12</text>
<line x1="70" x2="935" y1="312.00" y2="312.00" stroke="#27314e" stroke-width="1"/>
<text x="58" y="316.00" text-anchor="end" fill="#93a4c3" font-family="Inter, Arial, sans-serif" font-size="12">16</text>
<line x1="70" x2="935" y1="249.00" y2="249.00" stroke="#27314e" stroke-width="1"/>
<text x="58" y="253.00" text-anchor="end" fill="#93a4c3" font-family="Inter, Arial, sans-serif" font-size="12">21</text>
<line x1="70" x2="935" y1="186.00" y2="186.00" stroke="#27314e" stroke-width="1"/>
<text x="58" y="190.00" text-anchor="end" fill="#93a4c3" font-family="Inter, Arial, sans-serif" font-size="12">26</text>
<line x1="70" x2="935" y1="123.00" y2="123.00" stroke="#27314e" stroke-width="1"/>
<text x="58" y="127.00" text-anchor="end" fill="#93a4c3" font-family="Inter, Arial, sans-serif" font-size="12">30</text>
<line x1="70" x2="935" y1="60.00" y2="60.00" stroke="#27314e" stroke-width="1"/>
<text x="58" y="64.00" text-anchor="end" fill="#93a4c3" font-family="Inter, Arial, sans-serif" font-size="12">35</text>
<text x="70.00" y="412" text-anchor="middle" fill="#93a4c3" font-family="Inter, Arial, sans-serif" font-size="12">2025-07-16</text>
<text x="507.71" y="412" text-anchor="middle" fill="#93a4c3" font-family="Inter, Arial, sans-serif" font-size="12">2025-09-15</text>
<text x="935.00" y="412" text-anchor="middle" fill="#93a4c3" font-family="Inter, Arial, sans-serif" font-size="12">2025-11-13</text>
<path d="M 70.00 300.87 L 80.42 253.07 L 90.84 299.78 L 101.27 308.88 L 111.69 316.21 L 122.11 329.52 L 132.53 314.31 L 142.95 308.88 L 153.37 291.63 L 163.80 293.81 L 174.22 253.62 L 184.64 247.23 L 195.06 77.79 L 205.48 235.29 L 215.90 224.29 L 226.33 304.94 L 236.75 337.66 L 247.17 246.28 L 257.59 255.25 L 268.01 339.02 L 278.43 348.12 L 288.86 325.31 L 299.28 348.25 L 309.70 342.01 L 320.12 286.20 L 330.54 219.40 L 340.96 165.23 L 351.39 310.64 L 361.81 281.04 L 372.23 274.80 L 382.65 281.04 L 393.07 318.65 L 403.49 328.29 L 413.92 267.33 L 424.34 299.10 L 434.76 350.83 L 445.18 338.20 L 455.60 373.51 L 466.02 365.77 L 476.45 366.58 L 486.87 375.00 L 497.29 341.73 L 507.71 328.56 L 518.13 340.11 L 528.55 342.14 L 538.98 294.08 L 549.40 337.80 L 559.82 300.46 L 570.24 337.80 L 580.66 320.28 L 591.08 262.03 L 601.51 303.45 L 611.93 306.43 L 622.35 311.46 L 632.77 358.71 L 643.19 360.61 L 653.61 338.34 L 664.04 353.55 L 674.46 336.17 L 684.88 340.78 L 695.30 313.36 L 705.72 86.61 L 716.14 178.67 L 726.57 244.52 L 736.99 60.00 L 747.41 215.19 L 757.83 370.52 L 768.25 371.06 L 778.67 359.52 L 789.10 223.61 L 799.52 278.06 L 809.94 303.72 L 820.36 320.42 L 830.78 243.98 L 841.20 279.69 L 851.63 262.85 L 862.05 209.49 L 872.47 107.66 L 882.89 192.92 L 893.31 194.69 L 903.73 205.82 L 914.16 320.96 L 924.58 350.70 L 935.00 238.95" fill="none" stroke="#69a7ff" stroke-width="4" stroke-linecap="round" stroke-linejoin="round"/>
<circle cx="935.00" cy="238.95" r="6" fill="#69a7ff"/>
<text x="927.00" y="226.95" text-anchor="end" fill="#f5f7fb" font-family="Inter, Arial, sans-serif" font-size="12" font-weight="600">21.70</text>
</svg>