<svg xmlns="http://www.w3.org/2000/svg" width="960" height="430" viewBox="0 0 960 430" role="img" aria-label="Composite score history">
<rect width="100%" height="100%" fill="#0b1020" rx="20"/>
<text x="70" y="32" fill="#f5f7fb" font-family="Inter, Arial, sans-serif" font-size="24" font-weight="700">Composite score history</text>
<text x="70" y="52" fill="#93a4c3" font-family="Inter, Arial, sans-serif" font-size="13">Trailing 85 sessions through 2025-11-13</text>
<line x1="70" x2="935" y1="375.00" y2="375.00" stroke="#27314e" stroke-width="1"/>
<text x="58" y="379.00" text-anchor="end" fill="#93a4c3" font-family="Inter, Arial, sans-serif" font-size="12">2</text>
<line x1="70" x2="935" y1="312.00" y2="312.00" stroke="#27314e" stroke-width="1"/>
<text x="58" y="316.00" text-anchor="end" fill="#93a4c3" font-family="Inter, Arial, sans-serif" font-size="12">8</text>
<line x1="70" x2="935" y1="249.00" y2="249.00" stroke="#27314e" stroke-width="1"/>
<text x="58" y="253.00" text-anchor="end" fill="#93a4c3" font-family="Inter, Arial, sans-serif" font-size="12">13</text>
<line x1="70" x2="935" y1="186.00" y2="186.00" stroke="#27314e" stroke-width="1"/>
<text x="58" y="190.00" text-anchor="end" fill="#93a4c3" font-family="Inter, Arial, sans-serif" font-size="12">19</text>
<line x1="70" x2="935" y1="123.00" y2="123.00" stroke="#27314e" stroke-width="1"/>
<text x="58" y="127.00" text-anchor="end" fill="#93a4c3" font-family="Inter, Arial, sans-serif" font-size="12">24</text>
<line x1="70" x2="935" y1="60.00" y2="60.00" stroke="#27314e" stroke-width="1"/>
<text x="58" y="64.00" text-anchor="end" fill="#93a4c3" font-family="Inter, Arial, sans-serif" font-size="12">30</text>
<text x="70.00" y="412" text-anchor="middle" fill="#93a4c3" font-family="Inter, Arial, sans-serif" font-size="12">2025-07-15</text>
<text x="502.50" y="412" text-anchor="middle" fill="#93a4c3" font-family="Inter, Arial, sans-serif" font-size="12">2025-09-12</text>
<text x="935.00" y="412" text-anchor="middle" fill="#93a4c3" font-family="Inter, Arial, sans-serif" font-size="12">2025-11-13</text>
<path d="M 70.00 352.04 L 80.30 339.82 L 90.60 288.70 L 100.89 332.02 L 111.19 344.12 L 121.49 359.62 L 131.79 369.34 L 142.08 369.12 L 152.38 339.15 L 162.68 304.42 L 172.98 315.96 L 183.27 242.78 L 193.57 288.36 L 203.87 135.10 L 214.17 271.39 L 224.46 264.50 L 234.76 327.72 L 245.06 358.94 L 255.36 178.87 L 265.65 211.90 L 275.95 346.50 L 286.25 348.65 L 296.55 323.08 L 306.85 371.72 L 317.14 361.31 L 327.44 294.58 L 337.74 212.69 L 348.04 183.29 L 358.33 294.36 L 368.63 266.76 L 378.93 220.27 L 389.23 232.37 L 399.52 306.68 L 409.82 351.47 L 420.12 307.70 L 430.42 327.04 L 440.71 365.16 L 451.01 345.25 L 461.31 371.49 L 471.61 372.17 L 481.90 369.46 L 492.20 375.00 L 502.50 317.99 L 512.80 303.86 L 523.10 346.84 L 533.39 334.06 L 543.69 257.03 L 553.99 335.87 L 564.29 265.40 L 574.58 332.81 L 584.88 300.92 L 595.18 244.14 L 605.48 284.63 L 615.77 312.57 L 626.07 282.25 L 636.37 360.18 L 646.67 358.49 L 656.96 343.90 L 667.26 358.03 L 677.56 342.99 L 687.86 327.27 L 698.15 275.35 L 708.45 124.58 L 718.75 194.94 L 729.05 251.26 L 739.35 83.87 L 749.64 216.88 L 759.94 344.69 L 770.24 347.74 L 780.54 341.52 L 790.83 89.75 L 801.13 182.61 L 811.43 215.86 L 821.73 252.85 L 832.02 126.96 L 842.32 209.07 L 852.62 204.44 L 862.92 127.86 L 873.21 60.00 L 883.51 184.08 L 893.81 221.74 L 904.11 227.85 L 914.40 329.42 L 924.70 350.91 L 935.00 259.41" fill="none" stroke="#69a7ff" stroke-width="4" stroke-linecap="round" stroke-linejoin="round"/>
<circle cx="935.00" cy="259.41" r="6" fill="#69a7ff"/>
<text x="927.00" y="247.41" text-anchor="end" fill="#f5f7fb" font-family="Inter, Arial, sans-serif" font-size="12" font-weight="600">12.28</text>
</svg>