<svg xmlns="http://www.w3.org/2000/svg" width="960" height="430" viewBox="0 0 960 430" role="img" aria-label="Composite score history">
<rect width="100%" height="100%" fill="#0b1020" rx="20"/>
<text x="70" y="32" fill="#f5f7fb" font-family="Inter, Arial, sans-serif" font-size="24" font-weight="700">Composite score history</text>
<text x="70" y="52" fill="#93a4c3" font-family="Inter, Arial, sans-serif" font-size="13">Trailing 83 sessions through 2025-11-13</text>
<line x1="70" x2="935" y1="375.00" y2="375.00" stroke="#27314e" stroke-width="1"/>
<text x="58" y="379.00" text-anchor="end" fill="#93a4c3" font-family="Inter, Arial, sans-serif" font-size="12">12</text>
<line x1="70" x2="935" y1="312.00" y2="312.00" stroke="#27314e" stroke-width="1"/>
<text x="58" y="316.00" text-anchor="end" fill="#93a4c3" font-family="Inter, Arial, sans-serif" font-size="12">16</text>
<line x1="70" x2="935" y1="249.00" y2="249.00" stroke="#27314e" stroke-width="1"/>
<text x="58" y="253.00" text-anchor="end" fill="#93a4c3" font-family="Inter, Arial, sans-serif" font-size="12">21</text>
<line x1="70" x2="935" y1="186.00" y2="186.00" stroke="#27314e" stroke-width="1"/>
<text x="58" y="190.00" text-anchor="end" fill="#93a4c3" font-family="Inter, Arial, sans-serif" font-size="12">26</text>
<line x1="70" x2="935" y1="123.00" y2="123.00" stroke="#27314e" stroke-width="1"/>
<text x="58" y="127.00" text-anchor="end" fill="#93a4c3" font-family="Inter, Arial, sans-serif" font-size="12">30</text>
<line x1="70" x2="935" y1="60.00" y2="60.00" stroke="#27314e" stroke-width="1"/>
<text x="58" y="64.00" text-anchor="end" fill="#93a4c3" font-family="Inter, Arial, sans-serif" font-size="12">35</text>
<text x="70.00" y="412" text-anchor="middle" fill="#93a4c3" font-family="Inter, Arial, sans-serif" font-size="12">2025-07-17</text>
<text x="502.50" y="412" text-anchor="middle" fill="#93a4c3" font-family="Inter, Arial, sans-serif" font-size="12">2025-09-15</text>
<text x="935.00" y="412" text-anchor="middle" fill="#93a4c3" font-family="Inter, Arial, sans-serif" font-size="12">2025-11-13</text>
<path d="M 70.00 296.52 L 80.55 305.89 L 91.10 307.11 L 101.65 316.21 L 112.20 329.52 L 122.74 314.31 L 133.29 308.88 L 143.84 291.63 L 154.39 293.81 L 164.94 253.62 L 175.49 247.23 L 186.04 77.79 L 196.59 235.29 L 207.13 224.29 L 217.68 304.94 L 228.23 337.66 L 238.78 246.28 L 249.33 255.25 L 259.88 339.02 L 270.43 348.12 L 280.98 325.31 L 291.52 348.25 L 302.07 342.01 L 312.62 286.20 L 323.17 219.40 L 333.72 165.23 L 344.27 310.64 L 354.82 281.04 L 365.37 274.80 L 375.91 281.04 L 386.46 318.65 L 397.01 328.29 L 407.56 267.33 L 418.11 299.10 L 428.66 350.83 L 439.21 338.20 L 449.76 373.51 L 460.30 365.77 L 470.85 366.58 L 481.40 375.00 L 491.95 341.73 L 502.50 328.56 L 513.05 340.11 L 523.60 342.14 L 534.15 294.08 L 544.70 337.80 L 555.24 300.46 L 565.79 337.80 L 576.34 320.28 L 586.89 262.03 L 597.44 303.45 L 607.99 306.43 L 618.54 311.46 L 629.09 358.71 L 639.63 360.61 L 650.18 338.34 L 660.73 353.55 L 671.28 336.17 L 681.83 340.78 L 692.38 313.36 L 702.93 86.61 L 713.48 178.67 L 724.02 244.52 L 734.57 60.00 L 745.12 215.19 L 755.67 370.52 L 766.22 371.06 L 776.77 359.52 L 787.32 223.61 L 797.87 278.06 L 808.41 303.72 L 818.96 320.42 L 829.51 243.98 L 840.06 279.69 L 850.61 262.85 L 861.16 209.49 L 871.71 107.66 L 882.26 192.92 L 892.80 194.69 L 903.35 205.82 L 913.90 320.96 L 924.45 350.70 L 935.00 238.95" fill="none" stroke="#69a7ff" stroke-width="4" stroke-linecap="round" stroke-linejoin="round"/>
<circle cx="935.00" cy="238.95" r="6" fill="#69a7ff"/>
<text x="927.00" y="226.95" text-anchor="end" fill="#f5f7fb" font-family="Inter, Arial, sans-serif" font-size="12" font-weight="600">21.70</text>
</svg>