<svg xmlns="http://www.w3.org/2000/svg" width="960" height="430" viewBox="0 0 960 430" role="img" aria-label="Composite score history">
<rect width="100%" height="100%" fill="#0b1020" rx="20"/>
<text x="70" y="32" fill="#f5f7fb" font-family="Inter, Arial, sans-serif" font-size="24" font-weight="700">Composite score history</text>
<text x="70" y="52" fill="#93a4c3" font-family="Inter, Arial, sans-serif" font-size="13">Trailing 63 sessions through 2025-11-13</text>
<line x1="70" x2="935" y1="375.00" y2="375.00" stroke="#27314e" stroke-width="1"/>
<text x="58" y="379.00" text-anchor="end" fill="#93a4c3" font-family="Inter, Arial, sans-serif" font-size="12">5</text>
<line x1="70" x2="935" y1="312.00" y2="312.00" stroke="#27314e" stroke-width="1"/>
<text x="58" y="316.00" text-anchor="end" fill="#93a4c3" font-family="Inter, Arial, sans-serif" font-size="12">11</text>
<line x1="70" x2="935" y1="249.00" y2="249.00" stroke="#27314e" stroke-width="1"/>
<text x="58" y="253.00" text-anchor="end" fill="#93a4c3" font-family="Inter, Arial, sans-serif" font-size="12">17</text>
<line x1="70" x2="935" y1="186.00" y2="186.00" stroke="#27314e" stroke-width="1"/>
<text x="58" y="190.00" text-anchor="end" fill="#93a4c3" font-family="Inter, Arial, sans-serif" font-size="12">23</text>
<line x1="70" x2="935" y1="123.00" y2="123.00" stroke="#27314e" stroke-width="1"/>
<text x="58" y="127.00" text-anchor="end" fill="#93a4c3" font-family="Inter, Arial, sans-serif" font-size="12">29</text>
<line x1="70" x2="935" y1="60.00" y2="60.00" stroke="#27314e" stroke-width="1"/>
<text x="58" y="64.00" text-anchor="end" fill="#93a4c3" font-family="Inter, Arial, sans-serif" font-size="12">35</text>
<text x="70.00" y="412" text-anchor="middle" fill="#93a4c3" font-family="Inter, Arial, sans-serif" font-size="12">2025-08-14</text>
<text x="502.50" y="412" text-anchor="middle" fill="#93a4c3" font-family="Inter, Arial, sans-serif" font-size="12">2025-09-29</text>
<text x="935.00" y="412" text-anchor="middle" fill="#93a4c3" font-family="Inter, Arial, sans-serif" font-size="12">2025-11-13</text>
<path d="M 70.00 285.27 L 83.95 262.05 L 97.90 253.39 L 111.85 226.79 L 125.81 215.28 L 139.76 141.81 L 153.71 261.84 L 167.66 231.86 L 181.61 249.49 L 195.56 267.22 L 209.52 315.67 L 223.47 268.59 L 237.42 221.19 L 251.37 245.90 L 265.32 294.46 L 279.27 276.30 L 293.23 318.00 L 307.18 337.63 L 321.13 332.67 L 335.08 339.53 L 349.03 320.85 L 362.98 317.57 L 376.94 315.88 L 390.89 307.02 L 404.84 259.83 L 418.79 308.07 L 432.74 278.20 L 446.69 295.93 L 460.65 277.35 L 474.60 217.08 L 488.55 249.27 L 502.50 251.60 L 516.45 268.06 L 530.40 321.27 L 544.35 337.95 L 558.31 305.01 L 572.26 319.58 L 586.21 285.06 L 600.16 295.09 L 614.11 264.79 L 628.06 80.69 L 642.02 152.37 L 655.97 203.46 L 669.92 60.00 L 683.87 180.66 L 697.82 375.00 L 711.77 338.05 L 725.73 304.06 L 739.68 230.70 L 753.63 279.99 L 767.58 304.27 L 781.53 323.49 L 795.48 278.41 L 809.44 263.63 L 823.39 236.50 L 837.34 176.22 L 851.29 97.05 L 865.24 163.35 L 879.19 164.72 L 893.15 173.37 L 907.10 262.89 L 921.05 316.94 L 935.00 199.13" fill="none" stroke="#69a7ff" stroke-width="4" stroke-linecap="round" stroke-linejoin="round"/>
<circle cx="935.00" cy="199.13" r="6" fill="#69a7ff"/>
</svg>