<svg xmlns="http://www.w3.org/2000/svg" width="960" height="430" viewBox="0 0 960 430" role="img" aria-label="Composite score history">
<rect width="100%" height="100%" fill="#0b1020" rx="20"/>
<text x="70" y="32" fill="#f5f7fb" font-family="Inter, Arial, sans-serif" font-size="24" font-weight="700">Composite score history</text>
<text x="70" y="52" fill="#93a4c3" font-family="Inter, Arial, sans-serif" font-size="13">Trailing 85 sessions through 2025-11-13</text>
<line x1="70" x2="935" y1="375.00" y2="375.00" stroke="#27314e" stroke-width="1"/>
<text x="58" y="379.00" text-anchor="end" fill="#93a4c3" font-family="Inter, Arial, sans-serif" font-size="12">12</text>
<line x1="70" x2="935" y1="312.00" y2="312.00" stroke="#27314e" stroke-width="1"/>
<text x="58" y="316.00" text-anchor="end" fill="#93a4c3" font-family="Inter, Arial, sans-serif" font-size="12">16</text>
<line x1="70" x2="935" y1="249.00" y2="249.00" stroke="#27314e" stroke-width="1"/>
<text x="58" y="253.00" text-anchor="end" fill="#93a4c3" font-family="Inter, Arial, sans-serif" font-size="12">21</text>
<line x1="70" x2="935" y1="186.00" y2="186.00" stroke="#27314e" stroke-width="1"/>
<text x="58" y="190.00" text-anchor="end" fill="#93a4c3" font-family="Inter, Arial, sans-serif" font-size="12">26</text>
<line x1="70" x2="935" y1="123.00" y2="123.00" stroke="#27314e" stroke-width="1"/>
<text x="58" y="127.00" text-anchor="end" fill="#93a4c3" font-family="Inter, Arial, sans-serif" font-size="12">30</text>
<line x1="70" x2="935" y1="60.00" y2="60.00" stroke="#27314e" stroke-width="1"/>
<text x="58" y="64.00" text-anchor="end" fill="#93a4c3" font-family="Inter, Arial, sans-serif" font-size="12">35</text>
<text x="70.00" y="412" text-anchor="middle" fill="#93a4c3" font-family="Inter, Arial, sans-serif" font-size="12">2025-07-15</text>
<text x="502.50" y="412" text-anchor="middle" fill="#93a4c3" font-family="Inter, Arial, sans-serif" font-size="12">2025-09-12</text>
<text x="935.00" y="412" text-anchor="middle" fill="#93a4c3" font-family="Inter, Arial, sans-serif" font-size="12">2025-11-13</text>
<path d="M 70.00 294.35 L 80.30 294.08 L 90.60 262.58 L 100.89 292.99 L 111.19 302.09 L 121.49 316.21 L 131.79 329.52 L 142.08 314.31 L 152.38 308.88 L 162.68 291.63 L 172.98 293.81 L 183.27 253.62 L 193.57 247.23 L 203.87 77.79 L 214.17 235.29 L 224.46 224.29 L 234.76 304.94 L 245.06 337.66 L 255.36 246.28 L 265.65 255.25 L 275.95 339.02 L 286.25 348.12 L 296.55 325.31 L 306.85 348.25 L 317.14 342.01 L 327.44 286.20 L 337.74 219.40 L 348.04 165.23 L 358.33 310.64 L 368.63 281.04 L 378.93 274.80 L 389.23 281.04 L 399.52 318.65 L 409.82 328.29 L 420.12 267.33 L 430.42 299.10 L 440.71 350.83 L 451.01 338.20 L 461.31 373.51 L 471.61 365.77 L 481.90 366.58 L 492.20 375.00 L 502.50 341.73 L 512.80 328.56 L 523.10 340.11 L 533.39 342.14 L 543.69 294.08 L 553.99 337.80 L 564.29 300.46 L 574.58 337.80 L 584.88 320.28 L 595.18 262.03 L 605.48 303.45 L 615.77 306.43 L 626.07 311.46 L 636.37 358.71 L 646.67 360.61 L 656.96 338.34 L 667.26 353.55 L 677.56 336.17 L 687.86 340.78 L 698.15 313.36 L 708.45 86.61 L 718.75 178.67 L 729.05 244.52 L 739.35 60.00 L 749.64 215.19 L 759.94 370.52 L 770.24 371.06 L 780.54 359.52 L 790.83 223.61 L 801.13 278.06 L 811.43 303.72 L 821.73 320.42 L 832.02 243.98 L 842.32 279.69 L 852.62 262.85 L 862.92 209.49 L 873.21 107.66 L 883.51 192.92 L 893.81 194.69 L 904.11 205.82 L 914.40 320.96 L 924.70 350.70 L 935.00 238.95" fill="none" stroke="#69a7ff" stroke-width="4" stroke-linecap="round" stroke-linejoin="round"/>
<circle cx="935.00" cy="238.95" r="6" fill="#69a7ff"/>
<text x="927.00" y="226.95" text-anchor="end" fill="#f5f7fb" font-family="Inter, Arial, sans-serif" font-size="12" font-weight="600">21.70</text>
</svg>