<svg xmlns="http://www.w3.org/2000/svg" width="960" height="430" viewBox="0 0 960 430" role="img" aria-label="Composite score history">
<rect width="100%" height="100%" fill="#0b1020" rx="20"/>
<text x="70" y="32" fill="#f5f7fb" font-family="Inter, Arial, sans-serif" font-size="24" font-weight="700">Composite score history</text>
<text x="70" y="52" fill="#93a4c3" font-family="Inter, Arial, sans-serif" font-size="13">Trailing 69 sessions through 2025-11-13</text>
<line x1="70" x2="935" y1="375.00" y2="375.00" stroke="#27314e" stroke-width="1"/>
<text x="58" y="379.00" text-anchor="end" fill="#93a4c3" font-family="Inter, Arial, sans-serif" font-size="12">5</text>
<line x1="70" x2="935" y1="312.00" y2="312.00" stroke="#27314e" stroke-width="1"/>
<text x="58" y="316.00" text-anchor="end" fill="#93a4c3" font-family="Inter, Arial, sans-serif" font-size="12">11</text>
<line x1="70" x2="935" y1="249.00" y2="249.00" stroke="#27314e" stroke-width="1"/>
<text x="58" y="253.00" text-anchor="end" fill="#93a4c3" font-family="Inter, Arial, sans-serif" font-size="12">17</text>
<line x1="70" x2="935" y1="186.00" y2="186.00" stroke="#27314e" stroke-width="1"/>
<text x="58" y="190.00" text-anchor="end" fill="#93a4c3" font-family="Inter, Arial, sans-serif" font-size="12">23</text>
<line x1="70" x2="935" y1="123.00" y2="123.00" stroke="#27314e" stroke-width="1"/>
<text x="58" y="127.00" text-anchor="end" fill="#93a4c3" font-family="Inter, Arial, sans-serif" font-size="12">29</text>
<line x1="70" x2="935" y1="60.00" y2="60.00" stroke="#27314e" stroke-width="1"/>
<text x="58" y="64.00" text-anchor="end" fill="#93a4c3" font-family="Inter, Arial, sans-serif" font-size="12">35</text>
<text x="70.00" y="412" text-anchor="middle" fill="#93a4c3" font-family="Inter, Arial, sans-serif" font-size="12">2025-08-06</text>
<text x="502.50" y="412" text-anchor="middle" fill="#93a4c3" font-family="Inter, Arial, sans-serif" font-size="12">2025-09-24</text>
<text x="935.00" y="412" text-anchor="middle" fill="#93a4c3" font-family="Inter, Arial, sans-serif" font-size="12">2025-11-13</text>
<path d="M 70.00 277.99 L 82.72 253.81 L 95.44 233.76 L 108.16 218.34 L 120.88 300.89 L 133.60 334.46 L 146.32 319.79 L 159.04 309.02 L 171.76 310.61 L 184.49 235.87 L 197.21 183.93 L 209.93 141.81 L 222.65 261.84 L 235.37 231.86 L 248.09 249.49 L 260.81 267.22 L 273.53 315.67 L 286.25 268.59 L 298.97 221.19 L 311.69 245.90 L 324.41 294.46 L 337.13 276.30 L 349.85 318.00 L 362.57 337.63 L 375.29 332.67 L 388.01 339.53 L 400.74 320.85 L 413.46 317.57 L 426.18 315.88 L 438.90 307.02 L 451.62 259.83 L 464.34 308.07 L 477.06 278.20 L 489.78 295.93 L 502.50 277.35 L 515.22 217.08 L 527.94 249.27 L 540.66 251.60 L 553.38 268.06 L 566.10 321.27 L 578.82 337.95 L 591.54 305.01 L 604.26 319.58 L 616.99 285.06 L 629.71 295.09 L 642.43 264.79 L 655.15 80.69 L 667.87 152.37 L 680.59 203.46 L 693.31 60.00 L 706.03 180.66 L 718.75 375.00 L 731.47 338.05 L 744.19 304.06 L 756.91 230.70 L 769.63 279.99 L 782.35 304.27 L 795.07 323.49 L 807.79 278.41 L 820.51 263.63 L 833.24 236.50 L 845.96 176.22 L 858.68 97.05 L 871.40 163.35 L 884.12 164.72 L 896.84 173.37 L 909.56 262.89 L 922.28 316.94 L 935.00 199.13" fill="none" stroke="#69a7ff" stroke-width="4" stroke-linecap="round" stroke-linejoin="round"/>
<circle cx="935.00" cy="199.13" r="6" fill="#69a7ff"/>
</svg>