<svg xmlns="http://www.w3.org/2000/svg" width="960" height="430" viewBox="0 0 960 430" role="img" aria-label="Composite score history">
<rect width="100%" height="100%" fill="#0b1020" rx="20"/>
<text x="70" y="32" fill="#f5f7fb" font-family="Inter, Arial, sans-serif" font-size="24" font-weight="700">Composite score history</text>
<text x="70" y="52" fill="#93a4c3" font-family="Inter, Arial, sans-serif" font-size="13">Trailing 82 sessions through 2025-11-13</text>
<line x1="70" x2="935" y1="375.00" y2="375.00" stroke="#27314e" stroke-width="1"/>
<text x="58" y="379.00" text-anchor="end" fill="#93a4c3" font-family="Inter, Arial, sans-serif" font-size="12">5</text>
<line x1="70" x2="935" y1="312.00" y2="312.00" stroke="#27314e" stroke-width="1"/>
<text x="58" y="316.00" text-anchor="end" fill="#93a4c3" font-family="Inter, Arial, sans-serif" font-size="12">11</text>
<line x1="70" x2="935" y1="249.00" y2="249.00" stroke="#27314e" stroke-width="1"/>
<text x="58" y="253.00" text-anchor="end" fill="#93a4c3" font-family="Inter, Arial, sans-serif" font-size="12">17</text>
<line x1="70" x2="935" y1="186.00" y2="186.00" stroke="#27314e" stroke-width="1"/>
<text x="58" y="190.00" text-anchor="end" fill="#93a4c3" font-family="Inter, Arial, sans-serif" font-size="12">23</text>
<line x1="70" x2="935" y1="123.00" y2="123.00" stroke="#27314e" stroke-width="1"/>
<text x="58" y="127.00" text-anchor="end" fill="#93a4c3" font-family="Inter, Arial, sans-serif" font-size="12">29</text>
<line x1="70" x2="935" y1="60.00" y2="60.00" stroke="#27314e" stroke-width="1"/>
<text x="58" y="64.00" text-anchor="end" fill="#93a4c3" font-family="Inter, Arial, sans-serif" font-size="12">35</text>
<text x="70.00" y="412" text-anchor="middle" fill="#93a4c3" font-family="Inter, Arial, sans-serif" font-size="12">2025-07-18</text>
<text x="507.84" y="412" text-anchor="middle" fill="#93a4c3" font-family="Inter, Arial, sans-serif" font-size="12">2025-09-16</text>
<text x="935.00" y="412" text-anchor="middle" fill="#93a4c3" font-family="Inter, Arial, sans-serif" font-size="12">2025-11-13</text>
<path d="M 70.00 251.70 L 80.68 254.76 L 91.36 263.74 L 102.04 295.51 L 112.72 272.92 L 123.40 292.03 L 134.07 275.35 L 144.75 267.43 L 155.43 212.22 L 166.11 205.57 L 176.79 73.72 L 187.47 196.28 L 198.15 187.73 L 208.83 250.44 L 219.51 276.19 L 230.19 268.80 L 240.86 229.96 L 251.54 338.37 L 262.22 334.46 L 272.90 319.79 L 283.58 309.02 L 294.26 310.61 L 304.94 235.87 L 315.62 183.93 L 326.30 141.81 L 336.98 261.84 L 347.65 231.86 L 358.33 249.49 L 369.01 267.22 L 379.69 315.67 L 390.37 268.59 L 401.05 221.19 L 411.73 245.90 L 422.41 294.46 L 433.09 276.30 L 443.77 318.00 L 454.44 337.63 L 465.12 332.67 L 475.80 339.53 L 486.48 320.85 L 497.16 317.57 L 507.84 315.88 L 518.52 307.02 L 529.20 259.83 L 539.88 308.07 L 550.56 278.20 L 561.23 295.93 L 571.91 277.35 L 582.59 217.08 L 593.27 249.27 L 603.95 251.60 L 614.63 268.06 L 625.31 321.27 L 635.99 337.95 L 646.67 305.01 L 657.35 319.58 L 668.02 285.06 L 678.70 295.09 L 689.38 264.79 L 700.06 80.69 L 710.74 152.37 L 721.42 203.46 L 732.10 60.00 L 742.78 180.66 L 753.46 375.00 L 764.14 338.05 L 774.81 304.06 L 785.49 230.70 L 796.17 279.99 L 806.85 304.27 L 817.53 323.49 L 828.21 278.41 L 838.89 263.63 L 849.57 236.50 L 860.25 176.22 L 870.93 97.05 L 881.60 163.35 L 892.28 164.72 L 902.96 173.37 L 913.64 262.89 L 924.32 316.94 L 935.00 199.13" fill="none" stroke="#69a7ff" stroke-width="4" stroke-linecap="round" stroke-linejoin="round"/>
<circle cx="935.00" cy="199.13" r="6" fill="#69a7ff"/>
</svg>