<svg xmlns="http://www.w3.org/2000/svg" width="960" height="430" viewBox="0 0 960 430">
<rect width="100%" height="100%" fill="#0b1020" rx="20"/>
<text x="70" y="32" fill="#f5f7fb" font-size="24" font-family="Inter, Arial, sans-serif" font-weight="700">Composite score history</text>
<text x="70" y="52" fill="#93a4c3" font-size="13" font-family="Inter, Arial, sans-serif">Trailing 83 sessions through 2025-11-13</text>
<line x1="70" x2="935" y1="375.00" y2="375.00" stroke="#27314e" stroke-width="1"/>
<text x="58" y="379.00" text-anchor="end" fill="#93a4c3" font-size="12" font-family="Inter, Arial, sans-serif">5</text>
<line x1="70" x2="935" y1="312.00" y2="312.00" stroke="#27314e" stroke-width="1"/>
<text x="58" y="316.00" text-anchor="end" fill="#93a4c3" font-size="12" font-family="Inter, Arial, sans-serif">11</text>
<line x1="70" x2="935" y1="249.00" y2="249.00" stroke="#27314e" stroke-width="1"/>
<text x="58" y="253.00" text-anchor="end" fill="#93a4c3" font-size="12" font-family="Inter, Arial, sans-serif">17</text>
<line x1="70" x2="935" y1="186.00" y2="186.00" stroke="#27314e" stroke-width="1"/>
<text x="58" y="190.00" text-anchor="end" fill="#93a4c3" font-size="12" font-family="Inter, Arial, sans-serif">23</text>
<line x1="70" x2="935" y1="123.00" y2="123.00" stroke="#27314e" stroke-width="1"/>
<text x="58" y="127.00" text-anchor="end" fill="#93a4c3" font-size="12" font-family="Inter, Arial, sans-serif">29</text>
<line x1="70" x2="935" y1="60.00" y2="60.00" stroke="#27314e" stroke-width="1"/>
<text x="58" y="64.00" text-anchor="end" fill="#93a4c3" font-size="12" font-family="Inter, Arial, sans-serif">35</text>
<text x="70.00" y="412" text-anchor="middle" fill="#93a4c3" font-size="12" font-family="Inter, Arial, sans-serif">2025-07-17</text>
<text x="502.50" y="412" text-anchor="middle" fill="#93a4c3" font-size="12" font-family="Inter, Arial, sans-serif">2025-09-15</text>
<text x="935.00" y="412" text-anchor="middle" fill="#93a4c3" font-size="12" font-family="Inter, Arial, sans-serif">2025-11-13</text>
<path d="M 70.00 243.89 L 80.55 251.17 L 91.10 255.61 L 101.65 264.37 L 112.20 295.30 L 122.74 285.38 L 133.29 292.03 L 143.84 275.35 L 154.39 267.43 L 164.94 212.22 L 175.49 205.57 L 186.04 73.72 L 196.59 196.28 L 207.13 187.73 L 217.68 250.44 L 228.23 276.19 L 238.78 268.80 L 249.33 229.96 L 259.88 338.37 L 270.43 334.46 L 280.98 319.79 L 291.52 309.02 L 302.07 310.61 L 312.62 235.87 L 323.17 183.93 L 333.72 141.81 L 344.27 261.84 L 354.82 231.86 L 365.37 249.49 L 375.91 267.22 L 386.46 315.67 L 397.01 268.59 L 407.56 221.19 L 418.11 245.90 L 428.66 294.46 L 439.21 276.30 L 449.76 318.00 L 460.30 337.63 L 470.85 332.67 L 481.40 339.53 L 491.95 320.85 L 502.50 317.57 L 513.05 315.88 L 523.60 307.02 L 534.15 259.83 L 544.70 308.07 L 555.24 278.20 L 565.79 295.93 L 576.34 277.35 L 586.89 217.08 L 597.44 249.27 L 607.99 251.60 L 618.54 268.06 L 629.09 321.27 L 639.63 337.95 L 650.18 305.01 L 660.73 319.58 L 671.28 285.06 L 681.83 295.09 L 692.38 264.79 L 702.93 80.69 L 713.48 152.37 L 724.02 203.46 L 734.57 60.00 L 745.12 180.66 L 755.67 375.00 L 766.22 338.05 L 776.77 304.06 L 787.32 230.70 L 797.87 279.99 L 808.41 304.27 L 818.96 323.49 L 829.51 278.41 L 840.06 263.63 L 850.61 236.50 L 861.16 176.22 L 871.71 97.05 L 882.26 163.35 L 892.80 164.72 L 903.35 173.37 L 913.90 262.89 L 924.45 316.94 L 935.00 199.13" fill="none" stroke="#69a7ff" stroke-width="4" stroke-linecap="round" stroke-linejoin="round"/>
<circle cx="935.00" cy="199.13" r="6" fill="#69a7ff"/>
</svg>