<svg xmlns="http://www.w3.org/2000/svg" width="960" height="430" viewBox="0 0 960 430" role="img" aria-label="Composite score history">
<rect width="100%" height="100%" fill="#0b1020" rx="20"/>
<text x="70" y="32" fill="#f5f7fb" font-family="Inter, Arial, sans-serif" font-size="24" font-weight="700">Composite score history</text>
<text x="70" y="52" fill="#93a4c3" font-family="Inter, Arial, sans-serif" font-size="13">Trailing 64 sessions through 2025-10-27</text>
<line x1="70" x2="935" y1="375.00" y2="375.00" stroke="#27314e" stroke-width="1"/>
<text x="58" y="379.00" text-anchor="end" fill="#93a4c3" font-family="Inter, Arial, sans-serif" font-size="12">5</text>
<line x1="70" x2="935" y1="312.00" y2="312.00" stroke="#27314e" stroke-width="1"/>
<text x="58" y="316.00" text-anchor="end" fill="#93a4c3" font-family="Inter, Arial, sans-serif" font-size="12">11</text>
<line x1="70" x2="935" y1="249.00" y2="249.00" stroke="#27314e" stroke-width="1"/>
<text x="58" y="253.00" text-anchor="end" fill="#93a4c3" font-family="Inter, Arial, sans-serif" font-size="12">17</text>
<line x1="70" x2="935" y1="186.00" y2="186.00" stroke="#27314e" stroke-width="1"/>
<text x="58" y="190.00" text-anchor="end" fill="#93a4c3" font-family="Inter, Arial, sans-serif" font-size="12">23</text>
<line x1="70" x2="935" y1="123.00" y2="123.00" stroke="#27314e" stroke-width="1"/>
<text x="58" y="127.00" text-anchor="end" fill="#93a4c3" font-family="Inter, Arial, sans-serif" font-size="12">29</text>
<line x1="70" x2="935" y1="60.00" y2="60.00" stroke="#27314e" stroke-width="1"/>
<text x="58" y="64.00" text-anchor="end" fill="#93a4c3" font-family="Inter, Arial, sans-serif" font-size="12">35</text>
<text x="70.00" y="412" text-anchor="middle" fill="#93a4c3" font-family="Inter, Arial, sans-serif" font-size="12">2025-07-28</text>
<text x="509.37" y="412" text-anchor="middle" fill="#93a4c3" font-family="Inter, Arial, sans-serif" font-size="12">2025-09-11</text>
<text x="935.00" y="412" text-anchor="middle" fill="#93a4c3" font-family="Inter, Arial, sans-serif" font-size="12">2025-10-27</text>
<path d="M 70.00 265.43 L 83.73 229.43 L 97.46 213.49 L 111.19 180.24 L 124.92 73.83 L 138.65 196.28 L 152.38 187.73 L 166.11 250.44 L 179.84 276.19 L 193.57 268.80 L 207.30 229.96 L 221.03 338.37 L 234.76 334.46 L 248.49 319.79 L 262.22 309.02 L 275.95 310.61 L 289.68 235.87 L 303.41 183.93 L 317.14 141.81 L 330.87 261.84 L 344.60 231.86 L 358.33 249.49 L 372.06 267.22 L 385.79 315.67 L 399.52 268.59 L 413.25 221.19 L 426.98 245.90 L 440.71 294.46 L 454.44 276.30 L 468.17 318.00 L 481.90 337.63 L 495.63 332.67 L 509.37 339.53 L 523.10 320.85 L 536.83 317.57 L 550.56 315.88 L 564.29 307.02 L 578.02 259.83 L 591.75 308.07 L 605.48 278.20 L 619.21 295.93 L 632.94 277.35 L 646.67 217.08 L 660.40 249.27 L 674.13 251.60 L 687.86 268.06 L 701.59 321.27 L 715.32 337.95 L 729.05 305.01 L 742.78 319.58 L 756.51 285.06 L 770.24 295.09 L 783.97 264.79 L 797.70 80.69 L 811.43 152.37 L 825.16 203.46 L 838.89 60.00 L 852.62 180.66 L 866.35 375.00 L 880.08 338.05 L 893.81 304.06 L 907.54 230.70 L 921.27 279.99 L 935.00 304.27" fill="none" stroke="#69a7ff" stroke-width="4" stroke-linecap="round" stroke-linejoin="round"/>
<circle cx="935.00" cy="304.27" r="6" fill="#69a7ff"/>
</svg>