<svg xmlns="http://www.w3.org/2000/svg" width="960" height="430" viewBox="0 0 960 430" role="img" aria-label="Composite score history">
<rect width="100%" height="100%" fill="#0b1020" rx="20"/>
<text x="70" y="32" fill="#f5f7fb" font-family="Inter, Arial, sans-serif" font-size="24" font-weight="700">Composite score history</text>
<text x="70" y="52" fill="#93a4c3" font-family="Inter, Arial, sans-serif" font-size="13">Trailing 45 sessions through 2025-10-27</text>
<line x1="70" x2="935" y1="375.00" y2="375.00" stroke="#27314e" stroke-width="1"/>
<text x="58" y="379.00" text-anchor="end" fill="#93a4c3" font-family="Inter, Arial, sans-serif" font-size="12">5</text>
<line x1="70" x2="935" y1="312.00" y2="312.00" stroke="#27314e" stroke-width="1"/>
<text x="58" y="316.00" text-anchor="end" fill="#93a4c3" font-family="Inter, Arial, sans-serif" font-size="12">11</text>
<line x1="70" x2="935" y1="249.00" y2="249.00" stroke="#27314e" stroke-width="1"/>
<text x="58" y="253.00" text-anchor="end" fill="#93a4c3" font-family="Inter, Arial, sans-serif" font-size="12">17</text>
<line x1="70" x2="935" y1="186.00" y2="186.00" stroke="#27314e" stroke-width="1"/>
<text x="58" y="190.00" text-anchor="end" fill="#93a4c3" font-family="Inter, Arial, sans-serif" font-size="12">23</text>
<line x1="70" x2="935" y1="123.00" y2="123.00" stroke="#27314e" stroke-width="1"/>
<text x="58" y="127.00" text-anchor="end" fill="#93a4c3" font-family="Inter, Arial, sans-serif" font-size="12">29</text>
<line x1="70" x2="935" y1="60.00" y2="60.00" stroke="#27314e" stroke-width="1"/>
<text x="58" y="64.00" text-anchor="end" fill="#93a4c3" font-family="Inter, Arial, sans-serif" font-size="12">35</text>
<text x="70.00" y="412" text-anchor="middle" fill="#93a4c3" font-family="Inter, Arial, sans-serif" font-size="12">2025-08-22</text>
<text x="502.50" y="412" text-anchor="middle" fill="#93a4c3" font-family="Inter, Arial, sans-serif" font-size="12">2025-09-24</text>
<text x="935.00" y="412" text-anchor="middle" fill="#93a4c3" font-family="Inter, Arial, sans-serif" font-size="12">2025-10-27</text>
<path d="M 70.00 286.54 L 89.66 222.25 L 109.32 269.75 L 128.98 273.77 L 148.64 294.35 L 168.30 268.59 L 187.95 221.19 L 207.61 245.90 L 227.27 294.46 L 246.93 276.30 L 266.59 318.00 L 286.25 337.63 L 305.91 332.67 L 325.57 339.53 L 345.23 320.85 L 364.89 317.57 L 384.55 315.88 L 404.20 307.02 L 423.86 259.83 L 443.52 308.07 L 463.18 278.20 L 482.84 295.93 L 502.50 277.35 L 522.16 217.08 L 541.82 249.27 L 561.48 251.60 L 581.14 268.06 L 600.80 321.27 L 620.45 337.95 L 640.11 305.01 L 659.77 319.58 L 679.43 285.06 L 699.09 295.09 L 718.75 264.79 L 738.41 80.69 L 758.07 152.37 L 777.73 203.46 L 797.39 60.00 L 817.05 180.66 L 836.70 375.00 L 856.36 338.05 L 876.02 304.06 L 895.68 230.70 L 915.34 279.99 L 935.00 304.27" fill="none" stroke="#69a7ff" stroke-width="4" stroke-linecap="round" stroke-linejoin="round"/>
<circle cx="935.00" cy="304.27" r="6" fill="#69a7ff"/>
</svg>