<svg xmlns="http://www.w3.org/2000/svg" width="960" height="430" viewBox="0 0 960 430" role="img" aria-label="Composite score history">
<rect width="100%" height="100%" fill="#0b1020" rx="20"/>
<text x="70" y="32" fill="#f5f7fb" font-family="Inter, Arial, sans-serif" font-size="24" font-weight="700">Composite score history</text>
<text x="70" y="52" fill="#93a4c3" font-family="Inter, Arial, sans-serif" font-size="13">Trailing 57 sessions through 2025-10-27</text>
<line x1="70" x2="935" y1="375.00" y2="375.00" stroke="#27314e" stroke-width="1"/>
<text x="58" y="379.00" text-anchor="end" fill="#93a4c3" font-family="Inter, Arial, sans-serif" font-size="12">5</text>
<line x1="70" x2="935" y1="312.00" y2="312.00" stroke="#27314e" stroke-width="1"/>
<text x="58" y="316.00" text-anchor="end" fill="#93a4c3" font-family="Inter, Arial, sans-serif" font-size="12">11</text>
<line x1="70" x2="935" y1="249.00" y2="249.00" stroke="#27314e" stroke-width="1"/>
<text x="58" y="253.00" text-anchor="end" fill="#93a4c3" font-family="Inter, Arial, sans-serif" font-size="12">17</text>
<line x1="70" x2="935" y1="186.00" y2="186.00" stroke="#27314e" stroke-width="1"/>
<text x="58" y="190.00" text-anchor="end" fill="#93a4c3" font-family="Inter, Arial, sans-serif" font-size="12">23</text>
<line x1="70" x2="935" y1="123.00" y2="123.00" stroke="#27314e" stroke-width="1"/>
<text x="58" y="127.00" text-anchor="end" fill="#93a4c3" font-family="Inter, Arial, sans-serif" font-size="12">29</text>
<line x1="70" x2="935" y1="60.00" y2="60.00" stroke="#27314e" stroke-width="1"/>
<text x="58" y="64.00" text-anchor="end" fill="#93a4c3" font-family="Inter, Arial, sans-serif" font-size="12">35</text>
<text x="70.00" y="412" text-anchor="middle" fill="#93a4c3" font-family="Inter, Arial, sans-serif" font-size="12">2025-08-06</text>
<text x="502.50" y="412" text-anchor="middle" fill="#93a4c3" font-family="Inter, Arial, sans-serif" font-size="12">2025-09-16</text>
<text x="935.00" y="412" text-anchor="middle" fill="#93a4c3" font-family="Inter, Arial, sans-serif" font-size="12">2025-10-27</text>
<path d="M 70.00 277.99 L 85.45 253.81 L 100.89 233.76 L 116.34 218.34 L 131.79 300.89 L 147.23 334.46 L 162.68 319.79 L 178.12 309.02 L 193.57 310.61 L 209.02 235.87 L 224.46 183.93 L 239.91 141.81 L 255.36 261.84 L 270.80 231.86 L 286.25 249.49 L 301.70 267.22 L 317.14 315.67 L 332.59 268.59 L 348.04 221.19 L 363.48 245.90 L 378.93 294.46 L 394.38 276.30 L 409.82 318.00 L 425.27 337.63 L 440.71 332.67 L 456.16 339.53 L 471.61 320.85 L 487.05 317.57 L 502.50 315.88 L 517.95 307.02 L 533.39 259.83 L 548.84 308.07 L 564.29 278.20 L 579.73 295.93 L 595.18 277.35 L 610.62 217.08 L 626.07 249.27 L 641.52 251.60 L 656.96 268.06 L 672.41 321.27 L 687.86 337.95 L 703.30 305.01 L 718.75 319.58 L 734.20 285.06 L 749.64 295.09 L 765.09 264.79 L 780.54 80.69 L 795.98 152.37 L 811.43 203.46 L 826.88 60.00 L 842.32 180.66 L 857.77 375.00 L 873.21 338.05 L 888.66 304.06 L 904.11 230.70 L 919.55 279.99 L 935.00 304.27" fill="none" stroke="#69a7ff" stroke-width="4" stroke-linecap="round" stroke-linejoin="round"/>
<circle cx="935.00" cy="304.27" r="6" fill="#69a7ff"/>
</svg>