<svg xmlns="http://www.w3.org/2000/svg" width="960" height="430" viewBox="0 0 960 430" role="img" aria-label="Composite score history">
<rect width="100%" height="100%" fill="#0b1020" rx="20"/>
<text x="70" y="32" fill="#f5f7fb" font-family="Inter, Arial, sans-serif" font-size="24" font-weight="700">Composite score history</text>
<text x="70" y="52" fill="#93a4c3" font-family="Inter, Arial, sans-serif" font-size="13">Trailing 56 sessions through 2025-10-27</text>
<line x1="70" x2="935" y1="375.00" y2="375.00" stroke="#27314e" stroke-width="1"/>
<text x="58" y="379.00" text-anchor="end" fill="#93a4c3" font-family="Inter, Arial, sans-serif" font-size="12">5</text>
<line x1="70" x2="935" y1="312.00" y2="312.00" stroke="#27314e" stroke-width="1"/>
<text x="58" y="316.00" text-anchor="end" fill="#93a4c3" font-family="Inter, Arial, sans-serif" font-size="12">11</text>
<line x1="70" x2="935" y1="249.00" y2="249.00" stroke="#27314e" stroke-width="1"/>
<text x="58" y="253.00" text-anchor="end" fill="#93a4c3" font-family="Inter, Arial, sans-serif" font-size="12">17</text>
<line x1="70" x2="935" y1="186.00" y2="186.00" stroke="#27314e" stroke-width="1"/>
<text x="58" y="190.00" text-anchor="end" fill="#93a4c3" font-family="Inter, Arial, sans-serif" font-size="12">23</text>
<line x1="70" x2="935" y1="123.00" y2="123.00" stroke="#27314e" stroke-width="1"/>
<text x="58" y="127.00" text-anchor="end" fill="#93a4c3" font-family="Inter, Arial, sans-serif" font-size="12">29</text>
<line x1="70" x2="935" y1="60.00" y2="60.00" stroke="#27314e" stroke-width="1"/>
<text x="58" y="64.00" text-anchor="end" fill="#93a4c3" font-family="Inter, Arial, sans-serif" font-size="12">35</text>
<text x="70.00" y="412" text-anchor="middle" fill="#93a4c3" font-family="Inter, Arial, sans-serif" font-size="12">2025-08-07</text>
<text x="510.36" y="412" text-anchor="middle" fill="#93a4c3" font-family="Inter, Arial, sans-serif" font-size="12">2025-09-17</text>
<text x="935.00" y="412" text-anchor="middle" fill="#93a4c3" font-family="Inter, Arial, sans-serif" font-size="12">2025-10-27</text>
<path d="M 70.00 275.88 L 85.73 253.81 L 101.45 238.40 L 117.18 320.95 L 132.91 341.96 L 148.64 319.79 L 164.36 309.02 L 180.09 310.61 L 195.82 235.87 L 211.55 183.93 L 227.27 141.81 L 243.00 261.84 L 258.73 231.86 L 274.45 249.49 L 290.18 267.22 L 305.91 315.67 L 321.64 268.59 L 337.36 221.19 L 353.09 245.90 L 368.82 294.46 L 384.55 276.30 L 400.27 318.00 L 416.00 337.63 L 431.73 332.67 L 447.45 339.53 L 463.18 320.85 L 478.91 317.57 L 494.64 315.88 L 510.36 307.02 L 526.09 259.83 L 541.82 308.07 L 557.55 278.20 L 573.27 295.93 L 589.00 277.35 L 604.73 217.08 L 620.45 249.27 L 636.18 251.60 L 651.91 268.06 L 667.64 321.27 L 683.36 337.95 L 699.09 305.01 L 714.82 319.58 L 730.55 285.06 L 746.27 295.09 L 762.00 264.79 L 777.73 80.69 L 793.45 152.37 L 809.18 203.46 L 824.91 60.00 L 840.64 180.66 L 856.36 375.00 L 872.09 338.05 L 887.82 304.06 L 903.55 230.70 L 919.27 279.99 L 935.00 304.27" fill="none" stroke="#69a7ff" stroke-width="4" stroke-linecap="round" stroke-linejoin="round"/>
<circle cx="935.00" cy="304.27" r="6" fill="#69a7ff"/>
</svg>