<svg xmlns="http://www.w3.org/2000/svg" width="960" height="430" viewBox="0 0 960 430" role="img" aria-label="Composite score history">
<rect width="100%" height="100%" fill="#0b1020" rx="20"/>
<text x="70" y="32" fill="#f5f7fb" font-family="Inter, Arial, sans-serif" font-size="24" font-weight="700">Composite score history</text>
<text x="70" y="52" fill="#93a4c3" font-family="Inter, Arial, sans-serif" font-size="13">Trailing 70 sessions through 2025-10-27</text>
<line x1="70" x2="935" y1="375.00" y2="375.00" stroke="#27314e" stroke-width="1"/>
<text x="58" y="379.00" text-anchor="end" fill="#93a4c3" font-family="Inter, Arial, sans-serif" font-size="12">5</text>
<line x1="70" x2="935" y1="312.00" y2="312.00" stroke="#27314e" stroke-width="1"/>
<text x="58" y="316.00" text-anchor="end" fill="#93a4c3" font-family="Inter, Arial, sans-serif" font-size="12">11</text>
<line x1="70" x2="935" y1="249.00" y2="249.00" stroke="#27314e" stroke-width="1"/>
<text x="58" y="253.00" text-anchor="end" fill="#93a4c3" font-family="Inter, Arial, sans-serif" font-size="12">17</text>
<line x1="70" x2="935" y1="186.00" y2="186.00" stroke="#27314e" stroke-width="1"/>
<text x="58" y="190.00" text-anchor="end" fill="#93a4c3" font-family="Inter, Arial, sans-serif" font-size="12">23</text>
<line x1="70" x2="935" y1="123.00" y2="123.00" stroke="#27314e" stroke-width="1"/>
<text x="58" y="127.00" text-anchor="end" fill="#93a4c3" font-family="Inter, Arial, sans-serif" font-size="12">29</text>
<line x1="70" x2="935" y1="60.00" y2="60.00" stroke="#27314e" stroke-width="1"/>
<text x="58" y="64.00" text-anchor="end" fill="#93a4c3" font-family="Inter, Arial, sans-serif" font-size="12">35</text>
<text x="70.00" y="412" text-anchor="middle" fill="#93a4c3" font-family="Inter, Arial, sans-serif" font-size="12">2025-07-18</text>
<text x="508.77" y="412" text-anchor="middle" fill="#93a4c3" font-family="Inter, Arial, sans-serif" font-size="12">2025-09-08</text>
<text x="935.00" y="412" text-anchor="middle" fill="#93a4c3" font-family="Inter, Arial, sans-serif" font-size="12">2025-10-27</text>
<path d="M 70.00 251.70 L 82.54 254.76 L 95.07 263.74 L 107.61 295.51 L 120.14 272.92 L 132.68 292.03 L 145.22 275.35 L 157.75 267.43 L 170.29 212.22 L 182.83 205.57 L 195.36 73.72 L 207.90 196.28 L 220.43 187.73 L 232.97 250.44 L 245.51 276.19 L 258.04 268.80 L 270.58 229.96 L 283.12 338.37 L 295.65 334.46 L 308.19 319.79 L 320.72 309.02 L 333.26 310.61 L 345.80 235.87 L 358.33 183.93 L 370.87 141.81 L 383.41 261.84 L 395.94 231.86 L 408.48 249.49 L 421.01 267.22 L 433.55 315.67 L 446.09 268.59 L 458.62 221.19 L 471.16 245.90 L 483.70 294.46 L 496.23 276.30 L 508.77 318.00 L 521.30 337.63 L 533.84 332.67 L 546.38 339.53 L 558.91 320.85 L 571.45 317.57 L 583.99 315.88 L 596.52 307.02 L 609.06 259.83 L 621.59 308.07 L 634.13 278.20 L 646.67 295.93 L 659.20 277.35 L 671.74 217.08 L 684.28 249.27 L 696.81 251.60 L 709.35 268.06 L 721.88 321.27 L 734.42 337.95 L 746.96 305.01 L 759.49 319.58 L 772.03 285.06 L 784.57 295.09 L 797.10 264.79 L 809.64 80.69 L 822.17 152.37 L 834.71 203.46 L 847.25 60.00 L 859.78 180.66 L 872.32 375.00 L 884.86 338.05 L 897.39 304.06 L 909.93 230.70 L 922.46 279.99 L 935.00 304.27" fill="none" stroke="#69a7ff" stroke-width="4" stroke-linecap="round" stroke-linejoin="round"/>
<circle cx="935.00" cy="304.27" r="6" fill="#69a7ff"/>
</svg>