<svg xmlns="http://www.w3.org/2000/svg" width="960" height="430" viewBox="0 0 960 430" role="img" aria-label="Composite score history">
<rect width="100%" height="100%" fill="#0b1020" rx="20"/>
<text x="70" y="32" fill="#f5f7fb" font-family="Inter, Arial, sans-serif" font-size="24" font-weight="700">Composite score history</text>
<text x="70" y="52" fill="#93a4c3" font-family="Inter, Arial, sans-serif" font-size="13">Trailing 52 sessions through 2025-10-27</text>
<line x1="70" x2="935" y1="375.00" y2="375.00" stroke="#27314e" stroke-width="1"/>
<text x="58" y="379.00" text-anchor="end" fill="#93a4c3" font-family="Inter, Arial, sans-serif" font-size="12">5</text>
<line x1="70" x2="935" y1="312.00" y2="312.00" stroke="#27314e" stroke-width="1"/>
<text x="58" y="316.00" text-anchor="end" fill="#93a4c3" font-family="Inter, Arial, sans-serif" font-size="12">11</text>
<line x1="70" x2="935" y1="249.00" y2="249.00" stroke="#27314e" stroke-width="1"/>
<text x="58" y="253.00" text-anchor="end" fill="#93a4c3" font-family="Inter, Arial, sans-serif" font-size="12">17</text>
<line x1="70" x2="935" y1="186.00" y2="186.00" stroke="#27314e" stroke-width="1"/>
<text x="58" y="190.00" text-anchor="end" fill="#93a4c3" font-family="Inter, Arial, sans-serif" font-size="12">23</text>
<line x1="70" x2="935" y1="123.00" y2="123.00" stroke="#27314e" stroke-width="1"/>
<text x="58" y="127.00" text-anchor="end" fill="#93a4c3" font-family="Inter, Arial, sans-serif" font-size="12">29</text>
<line x1="70" x2="935" y1="60.00" y2="60.00" stroke="#27314e" stroke-width="1"/>
<text x="58" y="64.00" text-anchor="end" fill="#93a4c3" font-family="Inter, Arial, sans-serif" font-size="12">35</text>
<text x="70.00" y="412" text-anchor="middle" fill="#93a4c3" font-family="Inter, Arial, sans-serif" font-size="12">2025-08-13</text>
<text x="510.98" y="412" text-anchor="middle" fill="#93a4c3" font-family="Inter, Arial, sans-serif" font-size="12">2025-09-19</text>
<text x="935.00" y="412" text-anchor="middle" fill="#93a4c3" font-family="Inter, Arial, sans-serif" font-size="12">2025-10-27</text>
<path d="M 70.00 294.56 L 86.96 247.90 L 103.92 230.70 L 120.88 222.14 L 137.84 195.44 L 154.80 183.93 L 171.76 141.81 L 188.73 261.84 L 205.69 231.86 L 222.65 249.49 L 239.61 267.22 L 256.57 315.67 L 273.53 268.59 L 290.49 221.19 L 307.45 245.90 L 324.41 294.46 L 341.37 276.30 L 358.33 318.00 L 375.29 337.63 L 392.25 332.67 L 409.22 339.53 L 426.18 320.85 L 443.14 317.57 L 460.10 315.88 L 477.06 307.02 L 494.02 259.83 L 510.98 308.07 L 527.94 278.20 L 544.90 295.93 L 561.86 277.35 L 578.82 217.08 L 595.78 249.27 L 612.75 251.60 L 629.71 268.06 L 646.67 321.27 L 663.63 337.95 L 680.59 305.01 L 697.55 319.58 L 714.51 285.06 L 731.47 295.09 L 748.43 264.79 L 765.39 80.69 L 782.35 152.37 L 799.31 203.46 L 816.27 60.00 L 833.24 180.66 L 850.20 375.00 L 867.16 338.05 L 884.12 304.06 L 901.08 230.70 L 918.04 279.99 L 935.00 304.27" fill="none" stroke="#69a7ff" stroke-width="4" stroke-linecap="round" stroke-linejoin="round"/>
<circle cx="935.00" cy="304.27" r="6" fill="#69a7ff"/>
</svg>