<svg xmlns="http://www.w3.org/2000/svg" width="960" height="430" viewBox="0 0 960 430" role="img" aria-label="Composite score history">
<rect width="100%" height="100%" fill="#0b1020" rx="20"/>
<text x="70" y="32" fill="#f5f7fb" font-family="Inter, Arial, sans-serif" font-size="24" font-weight="700">Composite score history</text>
<text x="70" y="52" fill="#93a4c3" font-family="Inter, Arial, sans-serif" font-size="13">Trailing 73 sessions through 2025-10-27</text>
<line x1="70" x2="935" y1="375.00" y2="375.00" stroke="#27314e" stroke-width="1"/>
<text x="58" y="379.00" text-anchor="end" fill="#93a4c3" font-family="Inter, Arial, sans-serif" font-size="12">2</text>
<line x1="70" x2="935" y1="312.00" y2="312.00" stroke="#27314e" stroke-width="1"/>
<text x="58" y="316.00" text-anchor="end" fill="#93a4c3" font-family="Inter, Arial, sans-serif" font-size="12">7</text>
<line x1="70" x2="935" y1="249.00" y2="249.00" stroke="#27314e" stroke-width="1"/>
<text x="58" y="253.00" text-anchor="end" fill="#93a4c3" font-family="Inter, Arial, sans-serif" font-size="12">12</text>
<line x1="70" x2="935" y1="186.00" y2="186.00" stroke="#27314e" stroke-width="1"/>
<text x="58" y="190.00" text-anchor="end" fill="#93a4c3" font-family="Inter, Arial, sans-serif" font-size="12">18</text>
<line x1="70" x2="935" y1="123.00" y2="123.00" stroke="#27314e" stroke-width="1"/>
<text x="58" y="127.00" text-anchor="end" fill="#93a4c3" font-family="Inter, Arial, sans-serif" font-size="12">23</text>
<line x1="70" x2="935" y1="60.00" y2="60.00" stroke="#27314e" stroke-width="1"/>
<text x="58" y="64.00" text-anchor="end" fill="#93a4c3" font-family="Inter, Arial, sans-serif" font-size="12">28</text>
<text x="70.00" y="412" text-anchor="middle" fill="#93a4c3" font-family="Inter, Arial, sans-serif" font-size="12">2025-07-15</text>
<text x="502.50" y="412" text-anchor="middle" fill="#93a4c3" font-family="Inter, Arial, sans-serif" font-size="12">2025-09-04</text>
<text x="935.00" y="412" text-anchor="middle" fill="#93a4c3" font-family="Inter, Arial, sans-serif" font-size="12">2025-10-27</text>
<path d="M 70.00 350.16 L 82.01 336.94 L 94.03 281.63 L 106.04 328.50 L 118.06 341.59 L 130.07 358.36 L 142.08 368.88 L 154.10 368.64 L 166.11 336.21 L 178.12 298.64 L 190.14 311.12 L 202.15 231.94 L 214.17 281.26 L 226.18 115.44 L 238.19 262.90 L 250.21 255.44 L 262.22 323.85 L 274.24 357.62 L 286.25 162.80 L 298.26 198.53 L 310.28 344.16 L 322.29 346.49 L 334.31 318.83 L 346.32 371.45 L 358.33 360.19 L 370.35 287.99 L 382.36 199.39 L 394.38 167.57 L 406.39 287.74 L 418.40 257.88 L 430.42 207.59 L 442.43 220.68 L 454.44 301.08 L 466.46 349.55 L 478.47 302.19 L 490.49 323.11 L 502.50 364.35 L 514.51 342.81 L 526.53 371.21 L 538.54 371.94 L 550.56 369.00 L 562.57 375.00 L 574.58 313.32 L 586.60 298.02 L 598.61 344.53 L 610.62 330.70 L 622.64 247.36 L 634.65 332.66 L 646.67 256.42 L 658.68 329.35 L 670.69 294.84 L 682.71 233.41 L 694.72 277.22 L 706.74 307.45 L 718.75 274.65 L 730.76 358.97 L 742.78 357.13 L 754.79 341.35 L 766.81 356.64 L 778.82 340.37 L 790.83 323.36 L 802.85 267.19 L 814.86 104.06 L 826.88 180.17 L 838.89 241.12 L 850.90 60.00 L 862.92 203.92 L 874.93 342.20 L 886.94 345.51 L 898.96 338.78 L 910.97 66.36 L 922.99 166.84 L 935.00 202.81" fill="none" stroke="#69a7ff" stroke-width="4" stroke-linecap="round" stroke-linejoin="round"/>
<circle cx="935.00" cy="202.81" r="6" fill="#69a7ff"/>
<text x="927.00" y="190.81" text-anchor="end" fill="#f5f7fb" font-family="Inter, Arial, sans-serif" font-size="12" font-weight="600">16.13</text>
</svg>