<svg xmlns="http://www.w3.org/2000/svg" width="960" height="430" viewBox="0 0 960 430" role="img" aria-label="Composite score history">
<rect width="100%" height="100%" fill="#0b1020" rx="20"/>
<text x="70" y="32" fill="#f5f7fb" font-family="Inter, Arial, sans-serif" font-size="24" font-weight="700">Composite score history</text>
<text x="70" y="52" fill="#93a4c3" font-family="Inter, Arial, sans-serif" font-size="13">Trailing 69 sessions through 2025-10-27</text>
<line x1="70" x2="935" y1="375.00" y2="375.00" stroke="#27314e" stroke-width="1"/>
<text x="58" y="379.00" text-anchor="end" fill="#93a4c3" font-family="Inter, Arial, sans-serif" font-size="12">5</text>
<line x1="70" x2="935" y1="312.00" y2="312.00" stroke="#27314e" stroke-width="1"/>
<text x="58" y="316.00" text-anchor="end" fill="#93a4c3" font-family="Inter, Arial, sans-serif" font-size="12">11</text>
<line x1="70" x2="935" y1="249.00" y2="249.00" stroke="#27314e" stroke-width="1"/>
<text x="58" y="253.00" text-anchor="end" fill="#93a4c3" font-family="Inter, Arial, sans-serif" font-size="12">17</text>
<line x1="70" x2="935" y1="186.00" y2="186.00" stroke="#27314e" stroke-width="1"/>
<text x="58" y="190.00" text-anchor="end" fill="#93a4c3" font-family="Inter, Arial, sans-serif" font-size="12">23</text>
<line x1="70" x2="935" y1="123.00" y2="123.00" stroke="#27314e" stroke-width="1"/>
<text x="58" y="127.00" text-anchor="end" fill="#93a4c3" font-family="Inter, Arial, sans-serif" font-size="12">29</text>
<line x1="70" x2="935" y1="60.00" y2="60.00" stroke="#27314e" stroke-width="1"/>
<text x="58" y="64.00" text-anchor="end" fill="#93a4c3" font-family="Inter, Arial, sans-serif" font-size="12">35</text>
<text x="70.00" y="412" text-anchor="middle" fill="#93a4c3" font-family="Inter, Arial, sans-serif" font-size="12">2025-07-21</text>
<text x="502.50" y="412" text-anchor="middle" fill="#93a4c3" font-family="Inter, Arial, sans-serif" font-size="12">2025-09-08</text>
<text x="935.00" y="412" text-anchor="middle" fill="#93a4c3" font-family="Inter, Arial, sans-serif" font-size="12">2025-10-27</text>
<path d="M 70.00 253.50 L 82.72 260.89 L 95.44 279.15 L 108.16 251.28 L 120.88 275.67 L 133.60 275.35 L 146.32 267.43 L 159.04 212.22 L 171.76 205.57 L 184.49 73.72 L 197.21 196.28 L 209.93 187.73 L 222.65 250.44 L 235.37 276.19 L 248.09 268.80 L 260.81 229.96 L 273.53 338.37 L 286.25 334.46 L 298.97 319.79 L 311.69 309.02 L 324.41 310.61 L 337.13 235.87 L 349.85 183.93 L 362.57 141.81 L 375.29 261.84 L 388.01 231.86 L 400.74 249.49 L 413.46 267.22 L 426.18 315.67 L 438.90 268.59 L 451.62 221.19 L 464.34 245.90 L 477.06 294.46 L 489.78 276.30 L 502.50 318.00 L 515.22 337.63 L 527.94 332.67 L 540.66 339.53 L 553.38 320.85 L 566.10 317.57 L 578.82 315.88 L 591.54 307.02 L 604.26 259.83 L 616.99 308.07 L 629.71 278.20 L 642.43 295.93 L 655.15 277.35 L 667.87 217.08 L 680.59 249.27 L 693.31 251.60 L 706.03 268.06 L 718.75 321.27 L 731.47 337.95 L 744.19 305.01 L 756.91 319.58 L 769.63 285.06 L 782.35 295.09 L 795.07 264.79 L 807.79 80.69 L 820.51 152.37 L 833.24 203.46 L 845.96 60.00 L 858.68 180.66 L 871.40 375.00 L 884.12 338.05 L 896.84 304.06 L 909.56 230.70 L 922.28 279.99 L 935.00 304.27" fill="none" stroke="#69a7ff" stroke-width="4" stroke-linecap="round" stroke-linejoin="round"/>
<circle cx="935.00" cy="304.27" r="6" fill="#69a7ff"/>
</svg>