<svg xmlns="http://www.w3.org/2000/svg" width="960" height="430" viewBox="0 0 960 430" role="img" aria-label="Composite score history">
<rect width="100%" height="100%" fill="#0b1020" rx="20"/>
<text x="70" y="32" fill="#f5f7fb" font-family="Inter, Arial, sans-serif" font-size="24" font-weight="700">Composite score history</text>
<text x="70" y="52" fill="#93a4c3" font-family="Inter, Arial, sans-serif" font-size="13">Trailing 87 sessions through 2025-12-03</text>
<line x1="70" x2="935" y1="375.00" y2="375.00" stroke="#27314e" stroke-width="1"/>
<text x="58" y="379.00" text-anchor="end" fill="#93a4c3" font-family="Inter, Arial, sans-serif" font-size="12">0</text>
<line x1="70" x2="935" y1="312.00" y2="312.00" stroke="#27314e" stroke-width="1"/>
<text x="58" y="316.00" text-anchor="end" fill="#93a4c3" font-family="Inter, Arial, sans-serif" font-size="12">8</text>
<line x1="70" x2="935" y1="249.00" y2="249.00" stroke="#27314e" stroke-width="1"/>
<text x="58" y="253.00" text-anchor="end" fill="#93a4c3" font-family="Inter, Arial, sans-serif" font-size="12">17</text>
<line x1="70" x2="935" y1="186.00" y2="186.00" stroke="#27314e" stroke-width="1"/>
<text x="58" y="190.00" text-anchor="end" fill="#93a4c3" font-family="Inter, Arial, sans-serif" font-size="12">25</text>
<line x1="70" x2="935" y1="123.00" y2="123.00" stroke="#27314e" stroke-width="1"/>
<text x="58" y="127.00" text-anchor="end" fill="#93a4c3" font-family="Inter, Arial, sans-serif" font-size="12">33</text>
<line x1="70" x2="935" y1="60.00" y2="60.00" stroke="#27314e" stroke-width="1"/>
<text x="58" y="64.00" text-anchor="end" fill="#93a4c3" font-family="Inter, Arial, sans-serif" font-size="12">41</text>
<text x="70.00" y="412" text-anchor="middle" fill="#93a4c3" font-family="Inter, Arial, sans-serif" font-size="12">2025-07-30</text>
<text x="502.50" y="412" text-anchor="middle" fill="#93a4c3" font-family="Inter, Arial, sans-serif" font-size="12">2025-09-30</text>
<text x="935.00" y="412" text-anchor="middle" fill="#93a4c3" font-family="Inter, Arial, sans-serif" font-size="12">2025-12-03</text>
<path d="M 70.00 252.08 L 80.06 224.25 L 90.12 137.93 L 100.17 226.69 L 110.23 202.44 L 120.29 246.59 L 130.35 265.20 L 140.41 259.86 L 150.47 231.80 L 160.52 310.11 L 170.58 307.29 L 180.64 296.69 L 190.70 288.91 L 200.76 290.05 L 210.81 236.07 L 220.87 198.55 L 230.93 168.13 L 240.99 254.83 L 251.05 233.17 L 261.10 245.90 L 271.16 258.71 L 281.22 293.71 L 291.28 259.71 L 301.34 225.47 L 311.40 243.31 L 321.45 278.39 L 331.51 265.27 L 341.57 295.39 L 351.63 309.58 L 361.69 305.99 L 371.74 310.95 L 381.80 297.45 L 391.86 295.09 L 401.92 293.87 L 411.98 287.46 L 422.03 253.38 L 432.09 288.22 L 442.15 266.64 L 452.21 279.46 L 462.27 266.03 L 472.33 222.49 L 482.38 245.75 L 492.44 247.43 L 502.50 259.32 L 512.56 297.76 L 522.62 309.80 L 532.67 286.01 L 542.73 296.54 L 552.79 271.60 L 562.85 278.85 L 572.91 256.96 L 582.97 123.98 L 593.02 175.75 L 603.08 212.66 L 613.14 109.03 L 623.20 196.19 L 633.26 336.57 L 643.31 309.88 L 653.37 285.33 L 663.43 232.33 L 673.49 267.94 L 683.55 285.48 L 693.60 299.36 L 703.66 266.80 L 713.72 256.12 L 723.78 236.53 L 733.84 192.98 L 743.90 135.80 L 753.95 183.68 L 764.01 184.67 L 774.07 190.93 L 784.13 255.59 L 794.19 294.63 L 804.24 209.53 L 814.30 237.06 L 824.36 167.36 L 834.42 60.00 L 844.48 70.45 L 854.53 66.18 L 864.59 146.17 L 874.65 277.24 L 884.71 326.96 L 894.77 337.79 L 904.83 375.00 L 914.88 333.06 L 924.94 308.20 L 935.00 290.89" fill="none" stroke="#69a7ff" stroke-width="4" stroke-linecap="round" stroke-linejoin="round"/>
<circle cx="935.00" cy="290.89" r="6" fill="#69a7ff"/>
</svg>