<svg xmlns="http://www.w3.org/2000/svg" width="960" height="430" viewBox="0 0 960 430" role="img" aria-label="Composite score history">
<rect width="100%" height="100%" fill="#0b1020" rx="20"/>
<text x="70" y="32" fill="#f5f7fb" font-family="Inter, Arial, sans-serif" font-size="24" font-weight="700">Composite score history</text>
<text x="70" y="52" fill="#93a4c3" font-family="Inter, Arial, sans-serif" font-size="13">Trailing 55 sessions through 2025-12-03</text>
<line x1="70" x2="935" y1="375.00" y2="375.00" stroke="#27314e" stroke-width="1"/>
<text x="58" y="379.00" text-anchor="end" fill="#93a4c3" font-family="Inter, Arial, sans-serif" font-size="12">0</text>
<line x1="70" x2="935" y1="312.00" y2="312.00" stroke="#27314e" stroke-width="1"/>
<text x="58" y="316.00" text-anchor="end" fill="#93a4c3" font-family="Inter, Arial, sans-serif" font-size="12">8</text>
<line x1="70" x2="935" y1="249.00" y2="249.00" stroke="#27314e" stroke-width="1"/>
<text x="58" y="253.00" text-anchor="end" fill="#93a4c3" font-family="Inter, Arial, sans-serif" font-size="12">17</text>
<line x1="70" x2="935" y1="186.00" y2="186.00" stroke="#27314e" stroke-width="1"/>
<text x="58" y="190.00" text-anchor="end" fill="#93a4c3" font-family="Inter, Arial, sans-serif" font-size="12">25</text>
<line x1="70" x2="935" y1="123.00" y2="123.00" stroke="#27314e" stroke-width="1"/>
<text x="58" y="127.00" text-anchor="end" fill="#93a4c3" font-family="Inter, Arial, sans-serif" font-size="12">33</text>
<line x1="70" x2="935" y1="60.00" y2="60.00" stroke="#27314e" stroke-width="1"/>
<text x="58" y="64.00" text-anchor="end" fill="#93a4c3" font-family="Inter, Arial, sans-serif" font-size="12">41</text>
<text x="70.00" y="412" text-anchor="middle" fill="#93a4c3" font-family="Inter, Arial, sans-serif" font-size="12">2025-09-15</text>
<text x="502.50" y="412" text-anchor="middle" fill="#93a4c3" font-family="Inter, Arial, sans-serif" font-size="12">2025-10-23</text>
<text x="935.00" y="412" text-anchor="middle" fill="#93a4c3" font-family="Inter, Arial, sans-serif" font-size="12">2025-12-03</text>
<path d="M 70.00 279.23 L 86.02 262.22 L 102.04 261.38 L 118.06 258.41 L 134.07 274.19 L 150.09 266.64 L 166.11 279.46 L 182.13 266.03 L 198.15 222.49 L 214.17 245.75 L 230.19 247.43 L 246.20 259.32 L 262.22 297.76 L 278.24 309.80 L 294.26 286.01 L 310.28 296.54 L 326.30 271.60 L 342.31 278.85 L 358.33 256.96 L 374.35 123.98 L 390.37 175.75 L 406.39 212.66 L 422.41 109.03 L 438.43 196.19 L 454.44 336.57 L 470.46 309.88 L 486.48 285.33 L 502.50 232.33 L 518.52 267.94 L 534.54 285.48 L 550.56 299.36 L 566.57 266.80 L 582.59 256.12 L 598.61 236.53 L 614.63 192.98 L 630.65 135.80 L 646.67 183.68 L 662.69 184.67 L 678.70 190.93 L 694.72 255.59 L 710.74 294.63 L 726.76 209.53 L 742.78 237.06 L 758.80 167.36 L 774.81 60.00 L 790.83 70.45 L 806.85 66.18 L 822.87 146.17 L 838.89 277.24 L 854.91 326.96 L 870.93 337.79 L 886.94 375.00 L 902.96 333.06 L 918.98 308.20 L 935.00 290.89" fill="none" stroke="#69a7ff" stroke-width="4" stroke-linecap="round" stroke-linejoin="round"/>
<circle cx="935.00" cy="290.89" r="6" fill="#69a7ff"/>
</svg>