<svg xmlns="http://www.w3.org/2000/svg" width="960" height="430" viewBox="0 0 960 430" role="img" aria-label="Composite score history">
<rect width="100%" height="100%" fill="#0b1020" rx="20"/>
<text x="70" y="32" fill="#f5f7fb" font-family="Inter, Arial, sans-serif" font-size="24" font-weight="700">Composite score history</text>
<text x="70" y="52" fill="#93a4c3" font-family="Inter, Arial, sans-serif" font-size="13">Trailing 70 sessions through 2025-12-03</text>
<line x1="70" x2="935" y1="375.00" y2="375.00" stroke="#27314e" stroke-width="1"/>
<text x="58" y="379.00" text-anchor="end" fill="#93a4c3" font-family="Inter, Arial, sans-serif" font-size="12">0</text>
<line x1="70" x2="935" y1="312.00" y2="312.00" stroke="#27314e" stroke-width="1"/>
<text x="58" y="316.00" text-anchor="end" fill="#93a4c3" font-family="Inter, Arial, sans-serif" font-size="12">8</text>
<line x1="70" x2="935" y1="249.00" y2="249.00" stroke="#27314e" stroke-width="1"/>
<text x="58" y="253.00" text-anchor="end" fill="#93a4c3" font-family="Inter, Arial, sans-serif" font-size="12">17</text>
<line x1="70" x2="935" y1="186.00" y2="186.00" stroke="#27314e" stroke-width="1"/>
<text x="58" y="190.00" text-anchor="end" fill="#93a4c3" font-family="Inter, Arial, sans-serif" font-size="12">25</text>
<line x1="70" x2="935" y1="123.00" y2="123.00" stroke="#27314e" stroke-width="1"/>
<text x="58" y="127.00" text-anchor="end" fill="#93a4c3" font-family="Inter, Arial, sans-serif" font-size="12">33</text>
<line x1="70" x2="935" y1="60.00" y2="60.00" stroke="#27314e" stroke-width="1"/>
<text x="58" y="64.00" text-anchor="end" fill="#93a4c3" font-family="Inter, Arial, sans-serif" font-size="12">41</text>
<text x="70.00" y="412" text-anchor="middle" fill="#93a4c3" font-family="Inter, Arial, sans-serif" font-size="12">2025-08-22</text>
<text x="508.77" y="412" text-anchor="middle" fill="#93a4c3" font-family="Inter, Arial, sans-serif" font-size="12">2025-10-14</text>
<text x="935.00" y="412" text-anchor="middle" fill="#93a4c3" font-family="Inter, Arial, sans-serif" font-size="12">2025-12-03</text>
<path d="M 70.00 272.67 L 82.54 226.23 L 95.07 260.54 L 107.61 263.44 L 120.14 278.31 L 132.68 259.71 L 145.22 225.47 L 157.75 243.31 L 170.29 278.39 L 182.83 265.27 L 195.36 295.39 L 207.90 309.58 L 220.43 305.99 L 232.97 310.95 L 245.51 297.45 L 258.04 295.09 L 270.58 293.87 L 283.12 287.46 L 295.65 253.38 L 308.19 288.22 L 320.72 266.64 L 333.26 279.46 L 345.80 266.03 L 358.33 222.49 L 370.87 245.75 L 383.41 247.43 L 395.94 259.32 L 408.48 297.76 L 421.01 309.80 L 433.55 286.01 L 446.09 296.54 L 458.62 271.60 L 471.16 278.85 L 483.70 256.96 L 496.23 123.98 L 508.77 175.75 L 521.30 212.66 L 533.84 109.03 L 546.38 196.19 L 558.91 336.57 L 571.45 309.88 L 583.99 285.33 L 596.52 232.33 L 609.06 267.94 L 621.59 285.48 L 634.13 299.36 L 646.67 266.80 L 659.20 256.12 L 671.74 236.53 L 684.28 192.98 L 696.81 135.80 L 709.35 183.68 L 721.88 184.67 L 734.42 190.93 L 746.96 255.59 L 759.49 294.63 L 772.03 209.53 L 784.57 237.06 L 797.10 167.36 L 809.64 60.00 L 822.17 70.45 L 834.71 66.18 L 847.25 146.17 L 859.78 277.24 L 872.32 326.96 L 884.86 337.79 L 897.39 375.00 L 909.93 333.06 L 922.46 308.20 L 935.00 290.89" fill="none" stroke="#69a7ff" stroke-width="4" stroke-linecap="round" stroke-linejoin="round"/>
<circle cx="935.00" cy="290.89" r="6" fill="#69a7ff"/>
</svg>