<svg xmlns="http://www.w3.org/2000/svg" width="960" height="430" viewBox="0 0 960 430" role="img" aria-label="Composite score history">
<rect width="100%" height="100%" fill="#0b1020" rx="20"/>
<text x="70" y="32" fill="#f5f7fb" font-family="Inter, Arial, sans-serif" font-size="24" font-weight="700">Composite score history</text>
<text x="70" y="52" fill="#93a4c3" font-family="Inter, Arial, sans-serif" font-size="13">Trailing 78 sessions through 2025-12-03</text>
<line x1="70" x2="935" y1="375.00" y2="375.00" stroke="#27314e" stroke-width="1"/>
<text x="58" y="379.00" text-anchor="end" fill="#93a4c3" font-family="Inter, Arial, sans-serif" font-size="12">0</text>
<line x1="70" x2="935" y1="312.00" y2="312.00" stroke="#27314e" stroke-width="1"/>
<text x="58" y="316.00" text-anchor="end" fill="#93a4c3" font-family="Inter, Arial, sans-serif" font-size="12">8</text>
<line x1="70" x2="935" y1="249.00" y2="249.00" stroke="#27314e" stroke-width="1"/>
<text x="58" y="253.00" text-anchor="end" fill="#93a4c3" font-family="Inter, Arial, sans-serif" font-size="12">17</text>
<line x1="70" x2="935" y1="186.00" y2="186.00" stroke="#27314e" stroke-width="1"/>
<text x="58" y="190.00" text-anchor="end" fill="#93a4c3" font-family="Inter, Arial, sans-serif" font-size="12">25</text>
<line x1="70" x2="935" y1="123.00" y2="123.00" stroke="#27314e" stroke-width="1"/>
<text x="58" y="127.00" text-anchor="end" fill="#93a4c3" font-family="Inter, Arial, sans-serif" font-size="12">33</text>
<line x1="70" x2="935" y1="60.00" y2="60.00" stroke="#27314e" stroke-width="1"/>
<text x="58" y="64.00" text-anchor="end" fill="#93a4c3" font-family="Inter, Arial, sans-serif" font-size="12">41</text>
<text x="70.00" y="412" text-anchor="middle" fill="#93a4c3" font-family="Inter, Arial, sans-serif" font-size="12">2025-08-12</text>
<text x="508.12" y="412" text-anchor="middle" fill="#93a4c3" font-family="Inter, Arial, sans-serif" font-size="12">2025-10-07</text>
<text x="935.00" y="412" text-anchor="middle" fill="#93a4c3" font-family="Inter, Arial, sans-serif" font-size="12">2025-12-03</text>
<path d="M 70.00 273.36 L 81.23 284.56 L 92.47 271.68 L 103.70 260.39 L 114.94 254.37 L 126.17 236.07 L 137.40 198.55 L 148.64 168.13 L 159.87 254.83 L 171.10 233.17 L 182.34 245.90 L 193.57 258.71 L 204.81 293.71 L 216.04 259.71 L 227.27 225.47 L 238.51 243.31 L 249.74 278.39 L 260.97 265.27 L 272.21 295.39 L 283.44 309.58 L 294.68 305.99 L 305.91 310.95 L 317.14 297.45 L 328.38 295.09 L 339.61 293.87 L 350.84 287.46 L 362.08 253.38 L 373.31 288.22 L 384.55 266.64 L 395.78 279.46 L 407.01 266.03 L 418.25 222.49 L 429.48 245.75 L 440.71 247.43 L 451.95 259.32 L 463.18 297.76 L 474.42 309.80 L 485.65 286.01 L 496.88 296.54 L 508.12 271.60 L 519.35 278.85 L 530.58 256.96 L 541.82 123.98 L 553.05 175.75 L 564.29 212.66 L 575.52 109.03 L 586.75 196.19 L 597.99 336.57 L 609.22 309.88 L 620.45 285.33 L 631.69 232.33 L 642.92 267.94 L 654.16 285.48 L 665.39 299.36 L 676.62 266.80 L 687.86 256.12 L 699.09 236.53 L 710.32 192.98 L 721.56 135.80 L 732.79 183.68 L 744.03 184.67 L 755.26 190.93 L 766.49 255.59 L 777.73 294.63 L 788.96 209.53 L 800.19 237.06 L 811.43 167.36 L 822.66 60.00 L 833.90 70.45 L 845.13 66.18 L 856.36 146.17 L 867.60 277.24 L 878.83 326.96 L 890.06 337.79 L 901.30 375.00 L 912.53 333.06 L 923.77 308.20 L 935.00 290.89" fill="none" stroke="#69a7ff" stroke-width="4" stroke-linecap="round" stroke-linejoin="round"/>
<circle cx="935.00" cy="290.89" r="6" fill="#69a7ff"/>
</svg>