<svg xmlns="http://www.w3.org/2000/svg" width="960" height="430" viewBox="0 0 960 430" role="img" aria-label="Composite score history">
<rect width="100%" height="100%" fill="#0b1020" rx="20"/>
<text x="70" y="32" fill="#f5f7fb" font-family="Inter, Arial, sans-serif" font-size="24" font-weight="700">Composite score history</text>
<text x="70" y="52" fill="#93a4c3" font-family="Inter, Arial, sans-serif" font-size="13">Trailing 67 sessions through 2025-12-03</text>
<line x1="70" x2="935" y1="375.00" y2="375.00" stroke="#27314e" stroke-width="1"/>
<text x="58" y="379.00" text-anchor="end" fill="#93a4c3" font-family="Inter, Arial, sans-serif" font-size="12">0</text>
<line x1="70" x2="935" y1="312.00" y2="312.00" stroke="#27314e" stroke-width="1"/>
<text x="58" y="316.00" text-anchor="end" fill="#93a4c3" font-family="Inter, Arial, sans-serif" font-size="12">8</text>
<line x1="70" x2="935" y1="249.00" y2="249.00" stroke="#27314e" stroke-width="1"/>
<text x="58" y="253.00" text-anchor="end" fill="#93a4c3" font-family="Inter, Arial, sans-serif" font-size="12">17</text>
<line x1="70" x2="935" y1="186.00" y2="186.00" stroke="#27314e" stroke-width="1"/>
<text x="58" y="190.00" text-anchor="end" fill="#93a4c3" font-family="Inter, Arial, sans-serif" font-size="12">25</text>
<line x1="70" x2="935" y1="123.00" y2="123.00" stroke="#27314e" stroke-width="1"/>
<text x="58" y="127.00" text-anchor="end" fill="#93a4c3" font-family="Inter, Arial, sans-serif" font-size="12">33</text>
<line x1="70" x2="935" y1="60.00" y2="60.00" stroke="#27314e" stroke-width="1"/>
<text x="58" y="64.00" text-anchor="end" fill="#93a4c3" font-family="Inter, Arial, sans-serif" font-size="12">41</text>
<text x="70.00" y="412" text-anchor="middle" fill="#93a4c3" font-family="Inter, Arial, sans-serif" font-size="12">2025-08-27</text>
<text x="502.50" y="412" text-anchor="middle" fill="#93a4c3" font-family="Inter, Arial, sans-serif" font-size="12">2025-10-15</text>
<text x="935.00" y="412" text-anchor="middle" fill="#93a4c3" font-family="Inter, Arial, sans-serif" font-size="12">2025-12-03</text>
<path d="M 70.00 271.30 L 83.11 270.23 L 96.21 255.66 L 109.32 179.87 L 122.42 229.81 L 135.53 278.39 L 148.64 265.27 L 161.74 295.39 L 174.85 309.58 L 187.95 305.99 L 201.06 310.95 L 214.17 297.45 L 227.27 295.09 L 240.38 293.87 L 253.48 287.46 L 266.59 253.38 L 279.70 288.22 L 292.80 266.64 L 305.91 279.46 L 319.02 266.03 L 332.12 222.49 L 345.23 245.75 L 358.33 247.43 L 371.44 259.32 L 384.55 297.76 L 397.65 309.80 L 410.76 286.01 L 423.86 296.54 L 436.97 271.60 L 450.08 278.85 L 463.18 256.96 L 476.29 123.98 L 489.39 175.75 L 502.50 212.66 L 515.61 109.03 L 528.71 196.19 L 541.82 336.57 L 554.92 309.88 L 568.03 285.33 L 581.14 232.33 L 594.24 267.94 L 607.35 285.48 L 620.45 299.36 L 633.56 266.80 L 646.67 256.12 L 659.77 236.53 L 672.88 192.98 L 685.98 135.80 L 699.09 183.68 L 712.20 184.67 L 725.30 190.93 L 738.41 255.59 L 751.52 294.63 L 764.62 209.53 L 777.73 237.06 L 790.83 167.36 L 803.94 60.00 L 817.05 70.45 L 830.15 66.18 L 843.26 146.17 L 856.36 277.24 L 869.47 326.96 L 882.58 337.79 L 895.68 375.00 L 908.79 333.06 L 921.89 308.20 L 935.00 290.89" fill="none" stroke="#69a7ff" stroke-width="4" stroke-linecap="round" stroke-linejoin="round"/>
<circle cx="935.00" cy="290.89" r="6" fill="#69a7ff"/>
</svg>