<svg xmlns="http://www.w3.org/2000/svg" width="960" height="430" viewBox="0 0 960 430" role="img" aria-label="Composite score history">
<rect width="100%" height="100%" fill="#0b1020" rx="20"/>
<text x="70" y="32" fill="#f5f7fb" font-family="Inter, Arial, sans-serif" font-size="24" font-weight="700">Composite score history</text>
<text x="70" y="52" fill="#93a4c3" font-family="Inter, Arial, sans-serif" font-size="13">Trailing 72 sessions through 2025-12-03</text>
<line x1="70" x2="935" y1="375.00" y2="375.00" stroke="#27314e" stroke-width="1"/>
<text x="58" y="379.00" text-anchor="end" fill="#93a4c3" font-family="Inter, Arial, sans-serif" font-size="12">0</text>
<line x1="70" x2="935" y1="312.00" y2="312.00" stroke="#27314e" stroke-width="1"/>
<text x="58" y="316.00" text-anchor="end" fill="#93a4c3" font-family="Inter, Arial, sans-serif" font-size="12">8</text>
<line x1="70" x2="935" y1="249.00" y2="249.00" stroke="#27314e" stroke-width="1"/>
<text x="58" y="253.00" text-anchor="end" fill="#93a4c3" font-family="Inter, Arial, sans-serif" font-size="12">17</text>
<line x1="70" x2="935" y1="186.00" y2="186.00" stroke="#27314e" stroke-width="1"/>
<text x="58" y="190.00" text-anchor="end" fill="#93a4c3" font-family="Inter, Arial, sans-serif" font-size="12">25</text>
<line x1="70" x2="935" y1="123.00" y2="123.00" stroke="#27314e" stroke-width="1"/>
<text x="58" y="127.00" text-anchor="end" fill="#93a4c3" font-family="Inter, Arial, sans-serif" font-size="12">33</text>
<line x1="70" x2="935" y1="60.00" y2="60.00" stroke="#27314e" stroke-width="1"/>
<text x="58" y="64.00" text-anchor="end" fill="#93a4c3" font-family="Inter, Arial, sans-serif" font-size="12">41</text>
<text x="70.00" y="412" text-anchor="middle" fill="#93a4c3" font-family="Inter, Arial, sans-serif" font-size="12">2025-08-20</text>
<text x="508.59" y="412" text-anchor="middle" fill="#93a4c3" font-family="Inter, Arial, sans-serif" font-size="12">2025-10-10</text>
<text x="935.00" y="412" text-anchor="middle" fill="#93a4c3" font-family="Inter, Arial, sans-serif" font-size="12">2025-12-03</text>
<path d="M 70.00 270.23 L 82.18 205.57 L 94.37 263.37 L 106.55 244.30 L 118.73 254.37 L 130.92 258.71 L 143.10 293.71 L 155.28 259.71 L 167.46 225.47 L 179.65 243.31 L 191.83 278.39 L 204.01 265.27 L 216.20 295.39 L 228.38 309.58 L 240.56 305.99 L 252.75 310.95 L 264.93 297.45 L 277.11 295.09 L 289.30 293.87 L 301.48 287.46 L 313.66 253.38 L 325.85 288.22 L 338.03 266.64 L 350.21 279.46 L 362.39 266.03 L 374.58 222.49 L 386.76 245.75 L 398.94 247.43 L 411.13 259.32 L 423.31 297.76 L 435.49 309.80 L 447.68 286.01 L 459.86 296.54 L 472.04 271.60 L 484.23 278.85 L 496.41 256.96 L 508.59 123.98 L 520.77 175.75 L 532.96 212.66 L 545.14 109.03 L 557.32 196.19 L 569.51 336.57 L 581.69 309.88 L 593.87 285.33 L 606.06 232.33 L 618.24 267.94 L 630.42 285.48 L 642.61 299.36 L 654.79 266.80 L 666.97 256.12 L 679.15 236.53 L 691.34 192.98 L 703.52 135.80 L 715.70 183.68 L 727.89 184.67 L 740.07 190.93 L 752.25 255.59 L 764.44 294.63 L 776.62 209.53 L 788.80 237.06 L 800.99 167.36 L 813.17 60.00 L 825.35 70.45 L 837.54 66.18 L 849.72 146.17 L 861.90 277.24 L 874.08 326.96 L 886.27 337.79 L 898.45 375.00 L 910.63 333.06 L 922.82 308.20 L 935.00 290.89" fill="none" stroke="#69a7ff" stroke-width="4" stroke-linecap="round" stroke-linejoin="round"/>
<circle cx="935.00" cy="290.89" r="6" fill="#69a7ff"/>
</svg>