<svg xmlns="http://www.w3.org/2000/svg" width="960" height="430" viewBox="0 0 960 430" role="img" aria-label="Composite score history">
<rect width="100%" height="100%" fill="#0b1020" rx="20"/>
<text x="70" y="32" fill="#f5f7fb" font-family="Inter, Arial, sans-serif" font-size="24" font-weight="700">Composite score history</text>
<text x="70" y="52" fill="#93a4c3" font-family="Inter, Arial, sans-serif" font-size="13">Trailing 77 sessions through 2025-12-03</text>
<line x1="70" x2="935" y1="375.00" y2="375.00" stroke="#27314e" stroke-width="1"/>
<text x="58" y="379.00" text-anchor="end" fill="#93a4c3" font-family="Inter, Arial, sans-serif" font-size="12">0</text>
<line x1="70" x2="935" y1="312.00" y2="312.00" stroke="#27314e" stroke-width="1"/>
<text x="58" y="316.00" text-anchor="end" fill="#93a4c3" font-family="Inter, Arial, sans-serif" font-size="12">8</text>
<line x1="70" x2="935" y1="249.00" y2="249.00" stroke="#27314e" stroke-width="1"/>
<text x="58" y="253.00" text-anchor="end" fill="#93a4c3" font-family="Inter, Arial, sans-serif" font-size="12">17</text>
<line x1="70" x2="935" y1="186.00" y2="186.00" stroke="#27314e" stroke-width="1"/>
<text x="58" y="190.00" text-anchor="end" fill="#93a4c3" font-family="Inter, Arial, sans-serif" font-size="12">25</text>
<line x1="70" x2="935" y1="123.00" y2="123.00" stroke="#27314e" stroke-width="1"/>
<text x="58" y="127.00" text-anchor="end" fill="#93a4c3" font-family="Inter, Arial, sans-serif" font-size="12">33</text>
<line x1="70" x2="935" y1="60.00" y2="60.00" stroke="#27314e" stroke-width="1"/>
<text x="58" y="64.00" text-anchor="end" fill="#93a4c3" font-family="Inter, Arial, sans-serif" font-size="12">41</text>
<text x="70.00" y="412" text-anchor="middle" fill="#93a4c3" font-family="Inter, Arial, sans-serif" font-size="12">2025-08-13</text>
<text x="502.50" y="412" text-anchor="middle" fill="#93a4c3" font-family="Inter, Arial, sans-serif" font-size="12">2025-10-07</text>
<text x="935.00" y="412" text-anchor="middle" fill="#93a4c3" font-family="Inter, Arial, sans-serif" font-size="12">2025-12-03</text>
<path d="M 70.00 278.46 L 81.38 244.76 L 92.76 232.33 L 104.14 226.15 L 115.53 206.86 L 126.91 198.55 L 138.29 168.13 L 149.67 254.83 L 161.05 233.17 L 172.43 245.90 L 183.82 258.71 L 195.20 293.71 L 206.58 259.71 L 217.96 225.47 L 229.34 243.31 L 240.72 278.39 L 252.11 265.27 L 263.49 295.39 L 274.87 309.58 L 286.25 305.99 L 297.63 310.95 L 309.01 297.45 L 320.39 295.09 L 331.78 293.87 L 343.16 287.46 L 354.54 253.38 L 365.92 288.22 L 377.30 266.64 L 388.68 279.46 L 400.07 266.03 L 411.45 222.49 L 422.83 245.75 L 434.21 247.43 L 445.59 259.32 L 456.97 297.76 L 468.36 309.80 L 479.74 286.01 L 491.12 296.54 L 502.50 271.60 L 513.88 278.85 L 525.26 256.96 L 536.64 123.98 L 548.03 175.75 L 559.41 212.66 L 570.79 109.03 L 582.17 196.19 L 593.55 336.57 L 604.93 309.88 L 616.32 285.33 L 627.70 232.33 L 639.08 267.94 L 650.46 285.48 L 661.84 299.36 L 673.22 266.80 L 684.61 256.12 L 695.99 236.53 L 707.37 192.98 L 718.75 135.80 L 730.13 183.68 L 741.51 184.67 L 752.89 190.93 L 764.28 255.59 L 775.66 294.63 L 787.04 209.53 L 798.42 237.06 L 809.80 167.36 L 821.18 60.00 L 832.57 70.45 L 843.95 66.18 L 855.33 146.17 L 866.71 277.24 L 878.09 326.96 L 889.47 337.79 L 900.86 375.00 L 912.24 333.06 L 923.62 308.20 L 935.00 290.89" fill="none" stroke="#69a7ff" stroke-width="4" stroke-linecap="round" stroke-linejoin="round"/>
<circle cx="935.00" cy="290.89" r="6" fill="#69a7ff"/>
</svg>