<svg xmlns="http://www.w3.org/2000/svg" width="960" height="430" viewBox="0 0 960 430" role="img" aria-label="Composite score history">
<rect width="100%" height="100%" fill="#0b1020" rx="20"/>
<text x="70" y="32" fill="#f5f7fb" font-family="Inter, Arial, sans-serif" font-size="24" font-weight="700">Composite score history</text>
<text x="70" y="52" fill="#93a4c3" font-family="Inter, Arial, sans-serif" font-size="13">Trailing 90 sessions through 2026-04-13</text>
<line x1="70" x2="935" y1="375.00" y2="375.00" stroke="#27314e" stroke-width="1"/>
<text x="58" y="379.00" text-anchor="end" fill="#93a4c3" font-family="Inter, Arial, sans-serif" font-size="12">0</text>
<line x1="70" x2="935" y1="312.00" y2="312.00" stroke="#27314e" stroke-width="1"/>
<text x="58" y="316.00" text-anchor="end" fill="#93a4c3" font-family="Inter, Arial, sans-serif" font-size="12">12</text>
<line x1="70" x2="935" y1="249.00" y2="249.00" stroke="#27314e" stroke-width="1"/>
<text x="58" y="253.00" text-anchor="end" fill="#93a4c3" font-family="Inter, Arial, sans-serif" font-size="12">24</text>
<line x1="70" x2="935" y1="186.00" y2="186.00" stroke="#27314e" stroke-width="1"/>
<text x="58" y="190.00" text-anchor="end" fill="#93a4c3" font-family="Inter, Arial, sans-serif" font-size="12">36</text>
<line x1="70" x2="935" y1="123.00" y2="123.00" stroke="#27314e" stroke-width="1"/>
<text x="58" y="127.00" text-anchor="end" fill="#93a4c3" font-family="Inter, Arial, sans-serif" font-size="12">48</text>
<line x1="70" x2="935" y1="60.00" y2="60.00" stroke="#27314e" stroke-width="1"/>
<text x="58" y="64.00" text-anchor="end" fill="#93a4c3" font-family="Inter, Arial, sans-serif" font-size="12">60</text>
<text x="70.00" y="412" text-anchor="middle" fill="#93a4c3" font-family="Inter, Arial, sans-serif" font-size="12">2025-12-02</text>
<text x="507.36" y="412" text-anchor="middle" fill="#93a4c3" font-family="Inter, Arial, sans-serif" font-size="12">2026-02-06</text>
<text x="935.00" y="412" text-anchor="middle" fill="#93a4c3" font-family="Inter, Arial, sans-serif" font-size="12">2026-04-13</text>
<path d="M 70.00 328.92 L 79.72 316.95 L 89.44 298.86 L 99.16 286.79 L 108.88 308.67 L 118.60 282.67 L 128.31 304.34 L 138.03 328.55 L 147.75 298.39 L 157.47 304.66 L 167.19 304.98 L 176.91 242.39 L 186.63 260.63 L 196.35 326.54 L 206.07 343.52 L 215.79 352.43 L 225.51 375.00 L 235.22 365.30 L 244.94 346.00 L 254.66 330.23 L 264.38 291.69 L 274.10 282.73 L 283.82 288.84 L 293.54 305.93 L 303.26 303.45 L 312.98 314.26 L 322.70 316.26 L 332.42 293.11 L 342.13 277.66 L 351.85 279.72 L 361.57 286.05 L 371.29 262.32 L 381.01 174.00 L 390.73 235.27 L 400.45 263.85 L 410.17 254.20 L 419.89 287.89 L 429.61 318.63 L 439.33 296.96 L 449.04 273.87 L 458.76 272.39 L 468.48 279.98 L 478.20 233.69 L 487.92 236.01 L 497.64 192.72 L 507.36 290.74 L 517.08 287.73 L 526.80 303.45 L 536.52 306.66 L 546.24 294.27 L 555.96 242.76 L 565.67 235.37 L 575.39 257.78 L 585.11 248.56 L 594.83 308.46 L 604.55 284.15 L 614.27 304.45 L 623.99 314.68 L 633.71 308.77 L 643.43 283.09 L 653.15 266.43 L 662.87 193.72 L 672.58 208.48 L 682.30 159.71 L 692.02 60.00 L 701.74 158.76 L 711.46 209.85 L 721.18 153.75 L 730.90 87.00 L 740.62 149.01 L 750.34 191.08 L 760.06 188.24 L 769.78 134.24 L 779.49 218.24 L 789.21 148.16 L 798.93 155.97 L 808.65 108.25 L 818.37 220.66 L 828.09 130.97 L 837.81 146.58 L 847.53 98.86 L 857.25 240.28 L 866.97 235.64 L 876.69 273.44 L 886.40 289.05 L 896.12 289.32 L 905.84 312.83 L 915.56 320.69 L 925.28 311.83 L 935.00 322.96" fill="none" stroke="#69a7ff" stroke-width="4" stroke-linecap="round" stroke-linejoin="round"/>
<circle cx="935.00" cy="322.96" r="6" fill="#69a7ff"/>
</svg>