<svg xmlns="http://www.w3.org/2000/svg" width="960" height="430" viewBox="0 0 960 430" role="img" aria-label="Composite score history">
<rect width="100%" height="100%" fill="#0b1020" rx="20"/>
<text x="70" y="32" fill="#f5f7fb" font-family="Inter, Arial, sans-serif" font-size="24" font-weight="700">Composite score history</text>
<text x="70" y="52" fill="#93a4c3" font-family="Inter, Arial, sans-serif" font-size="13">Trailing 88 sessions through 2026-03-11</text>
<line x1="70" x2="935" y1="375.00" y2="375.00" stroke="#27314e" stroke-width="1"/>
<text x="58" y="379.00" text-anchor="end" fill="#93a4c3" font-family="Inter, Arial, sans-serif" font-size="12">0</text>
<line x1="70" x2="935" y1="312.00" y2="312.00" stroke="#27314e" stroke-width="1"/>
<text x="58" y="316.00" text-anchor="end" fill="#93a4c3" font-family="Inter, Arial, sans-serif" font-size="12">12</text>
<line x1="70" x2="935" y1="249.00" y2="249.00" stroke="#27314e" stroke-width="1"/>
<text x="58" y="253.00" text-anchor="end" fill="#93a4c3" font-family="Inter, Arial, sans-serif" font-size="12">24</text>
<line x1="70" x2="935" y1="186.00" y2="186.00" stroke="#27314e" stroke-width="1"/>
<text x="58" y="190.00" text-anchor="end" fill="#93a4c3" font-family="Inter, Arial, sans-serif" font-size="12">36</text>
<line x1="70" x2="935" y1="123.00" y2="123.00" stroke="#27314e" stroke-width="1"/>
<text x="58" y="127.00" text-anchor="end" fill="#93a4c3" font-family="Inter, Arial, sans-serif" font-size="12">48</text>
<line x1="70" x2="935" y1="60.00" y2="60.00" stroke="#27314e" stroke-width="1"/>
<text x="58" y="64.00" text-anchor="end" fill="#93a4c3" font-family="Inter, Arial, sans-serif" font-size="12">60</text>
<text x="70.00" y="412" text-anchor="middle" fill="#93a4c3" font-family="Inter, Arial, sans-serif" font-size="12">2025-10-31</text>
<text x="507.47" y="412" text-anchor="middle" fill="#93a4c3" font-family="Inter, Arial, sans-serif" font-size="12">2026-01-07</text>
<text x="935.00" y="412" text-anchor="middle" fill="#93a4c3" font-family="Inter, Arial, sans-serif" font-size="12">2026-03-11</text>
<path d="M 70.00 300.47 L 79.94 300.41 L 89.89 262.36 L 99.83 271.84 L 109.77 239.27 L 119.71 247.76 L 129.66 292.45 L 139.60 319.44 L 149.54 260.62 L 159.48 279.65 L 169.43 231.47 L 179.37 157.25 L 189.31 164.47 L 199.25 161.52 L 209.20 216.81 L 219.14 307.42 L 229.08 341.79 L 239.02 349.28 L 248.97 375.00 L 258.91 346.01 L 268.85 328.83 L 278.79 316.86 L 288.74 298.78 L 298.68 286.71 L 308.62 308.58 L 318.56 282.60 L 328.51 304.26 L 338.45 328.46 L 348.39 298.31 L 358.33 304.58 L 368.28 304.89 L 378.22 242.33 L 388.16 260.56 L 398.10 326.45 L 408.05 343.43 L 417.99 352.33 L 427.93 374.89 L 437.87 365.20 L 447.82 345.90 L 457.76 330.14 L 467.70 291.61 L 477.64 282.65 L 487.59 288.77 L 497.53 305.84 L 507.47 303.37 L 517.41 314.17 L 527.36 316.17 L 537.30 293.03 L 547.24 277.59 L 557.18 279.65 L 567.13 285.97 L 577.07 262.25 L 587.01 173.96 L 596.95 235.21 L 606.90 263.78 L 616.84 254.13 L 626.78 287.82 L 636.72 318.55 L 646.67 296.88 L 656.61 273.80 L 666.55 272.32 L 676.49 279.91 L 686.44 233.63 L 696.38 235.95 L 706.32 192.67 L 716.26 290.66 L 726.21 287.66 L 736.15 303.37 L 746.09 306.58 L 756.03 294.19 L 765.98 242.70 L 775.92 235.32 L 785.86 257.72 L 795.80 248.49 L 805.75 308.37 L 815.69 284.07 L 825.63 304.37 L 835.57 314.59 L 845.52 308.69 L 855.46 283.02 L 865.40 266.36 L 875.34 193.67 L 885.29 208.43 L 895.23 159.68 L 905.17 60.00 L 915.11 158.73 L 925.06 209.80 L 935.00 153.72" fill="none" stroke="#69a7ff" stroke-width="4" stroke-linecap="round" stroke-linejoin="round"/>
<circle cx="935.00" cy="153.72" r="6" fill="#69a7ff"/>
</svg>