<svg xmlns="http://www.w3.org/2000/svg" width="960" height="430" viewBox="0 0 960 430" role="img" aria-label="Composite score history">
<rect width="100%" height="100%" fill="#0b1020" rx="20"/>
<text x="70" y="32" fill="#f5f7fb" font-family="Inter, Arial, sans-serif" font-size="24" font-weight="700">Composite score history</text>
<text x="70" y="52" fill="#93a4c3" font-family="Inter, Arial, sans-serif" font-size="13">Trailing 90 sessions through 2026-06-25</text>
<line x1="70" x2="935" y1="375.00" y2="375.00" stroke="#27314e" stroke-width="1"/>
<text x="58" y="379.00" text-anchor="end" fill="#93a4c3" font-family="Inter, Arial, sans-serif" font-size="12">6</text>
<line x1="70" x2="935" y1="312.00" y2="312.00" stroke="#27314e" stroke-width="1"/>
<text x="58" y="316.00" text-anchor="end" fill="#93a4c3" font-family="Inter, Arial, sans-serif" font-size="12">17</text>
<line x1="70" x2="935" y1="249.00" y2="249.00" stroke="#27314e" stroke-width="1"/>
<text x="58" y="253.00" text-anchor="end" fill="#93a4c3" font-family="Inter, Arial, sans-serif" font-size="12">27</text>
<line x1="70" x2="935" y1="186.00" y2="186.00" stroke="#27314e" stroke-width="1"/>
<text x="58" y="190.00" text-anchor="end" fill="#93a4c3" font-family="Inter, Arial, sans-serif" font-size="12">38</text>
<line x1="70" x2="935" y1="123.00" y2="123.00" stroke="#27314e" stroke-width="1"/>
<text x="58" y="127.00" text-anchor="end" fill="#93a4c3" font-family="Inter, Arial, sans-serif" font-size="12">49</text>
<line x1="70" x2="935" y1="60.00" y2="60.00" stroke="#27314e" stroke-width="1"/>
<text x="58" y="64.00" text-anchor="end" fill="#93a4c3" font-family="Inter, Arial, sans-serif" font-size="12">60</text>
<text x="70.00" y="412" text-anchor="middle" fill="#93a4c3" font-family="Inter, Arial, sans-serif" font-size="12">2026-02-17</text>
<text x="507.36" y="412" text-anchor="middle" fill="#93a4c3" font-family="Inter, Arial, sans-serif" font-size="12">2026-04-22</text>
<text x="935.00" y="412" text-anchor="middle" fill="#93a4c3" font-family="Inter, Arial, sans-serif" font-size="12">2026-06-25</text>
<path d="M 70.00 254.74 L 79.72 279.62 L 89.44 269.38 L 99.16 335.89 L 108.88 308.90 L 118.60 331.44 L 128.31 342.80 L 138.03 336.24 L 147.75 307.73 L 157.47 289.22 L 167.19 208.48 L 176.91 224.88 L 186.63 170.72 L 196.35 60.00 L 206.07 169.66 L 215.79 226.40 L 225.51 164.10 L 235.22 89.98 L 244.94 158.83 L 254.66 205.56 L 264.38 202.39 L 274.10 142.44 L 283.82 235.71 L 293.54 157.90 L 303.26 166.56 L 312.98 113.57 L 322.70 238.40 L 332.42 138.81 L 342.13 156.14 L 351.85 103.15 L 361.57 260.18 L 371.29 255.03 L 381.01 297.01 L 390.73 314.34 L 400.45 314.63 L 410.17 340.75 L 419.89 349.47 L 429.61 339.64 L 439.33 351.99 L 449.04 373.24 L 458.76 336.36 L 468.48 335.01 L 478.20 375.00 L 487.92 348.48 L 497.64 299.76 L 507.36 307.49 L 517.08 288.70 L 526.80 266.21 L 536.52 282.84 L 546.24 288.46 L 555.96 236.00 L 565.67 277.57 L 575.39 259.13 L 585.11 216.45 L 594.83 282.67 L 604.55 348.01 L 614.27 313.41 L 623.99 325.58 L 633.71 328.16 L 643.43 286.53 L 653.15 236.24 L 662.87 284.07 L 672.58 204.38 L 682.30 243.79 L 692.02 231.26 L 701.74 274.76 L 711.46 256.08 L 721.18 300.93 L 730.90 324.59 L 740.62 338.41 L 750.34 332.90 L 760.06 337.59 L 769.78 328.22 L 779.49 314.75 L 789.21 290.86 L 798.93 301.58 L 808.65 125.40 L 818.37 178.92 L 828.09 164.98 L 837.81 124.99 L 847.53 205.09 L 857.25 317.27 L 866.97 343.68 L 876.69 342.33 L 886.40 321.60 L 896.12 308.37 L 905.84 286.41 L 915.56 197.89 L 925.28 234.42 L 935.00 289.28" fill="none" stroke="#69a7ff" stroke-width="4" stroke-linecap="round" stroke-linejoin="round"/>
<circle cx="935.00" cy="289.28" r="6" fill="#69a7ff"/>
</svg>