<svg xmlns="http://www.w3.org/2000/svg" width="960" height="430" viewBox="0 0 960 430" role="img" aria-label="Composite score history">
<rect width="100%" height="100%" fill="#0b1020" rx="20"/>
<text x="70" y="32" fill="#f5f7fb" font-family="Inter, Arial, sans-serif" font-size="24" font-weight="700">Composite score history</text>
<text x="70" y="52" fill="#93a4c3" font-family="Inter, Arial, sans-serif" font-size="13">Trailing 75 sessions through 2026-01-28</text>
<line x1="70" x2="935" y1="375.00" y2="375.00" stroke="#27314e" stroke-width="1"/>
<text x="58" y="379.00" text-anchor="end" fill="#93a4c3" font-family="Inter, Arial, sans-serif" font-size="12">0</text>
<line x1="70" x2="935" y1="312.00" y2="312.00" stroke="#27314e" stroke-width="1"/>
<text x="58" y="316.00" text-anchor="end" fill="#93a4c3" font-family="Inter, Arial, sans-serif" font-size="12">8</text>
<line x1="70" x2="935" y1="249.00" y2="249.00" stroke="#27314e" stroke-width="1"/>
<text x="58" y="253.00" text-anchor="end" fill="#93a4c3" font-family="Inter, Arial, sans-serif" font-size="12">17</text>
<line x1="70" x2="935" y1="186.00" y2="186.00" stroke="#27314e" stroke-width="1"/>
<text x="58" y="190.00" text-anchor="end" fill="#93a4c3" font-family="Inter, Arial, sans-serif" font-size="12">25</text>
<line x1="70" x2="935" y1="123.00" y2="123.00" stroke="#27314e" stroke-width="1"/>
<text x="58" y="127.00" text-anchor="end" fill="#93a4c3" font-family="Inter, Arial, sans-serif" font-size="12">33</text>
<line x1="70" x2="935" y1="60.00" y2="60.00" stroke="#27314e" stroke-width="1"/>
<text x="58" y="64.00" text-anchor="end" fill="#93a4c3" font-family="Inter, Arial, sans-serif" font-size="12">41</text>
<text x="70.00" y="412" text-anchor="middle" fill="#93a4c3" font-family="Inter, Arial, sans-serif" font-size="12">2025-10-08</text>
<text x="502.50" y="412" text-anchor="middle" fill="#93a4c3" font-family="Inter, Arial, sans-serif" font-size="12">2025-12-03</text>
<text x="935.00" y="412" text-anchor="middle" fill="#93a4c3" font-family="Inter, Arial, sans-serif" font-size="12">2026-01-28</text>
<path d="M 70.00 275.95 L 81.69 256.66 L 93.38 100.57 L 105.07 167.75 L 116.76 183.99 L 128.45 109.03 L 140.14 196.19 L 151.82 336.57 L 163.51 309.88 L 175.20 285.33 L 186.89 232.33 L 198.58 267.94 L 210.27 285.48 L 221.96 299.36 L 233.65 266.80 L 245.34 256.12 L 257.03 236.53 L 268.72 192.98 L 280.41 135.80 L 292.09 183.68 L 303.78 184.67 L 315.47 190.93 L 327.16 255.59 L 338.85 294.63 L 350.54 209.53 L 362.23 237.06 L 373.92 167.36 L 385.61 60.00 L 397.30 70.45 L 408.99 66.18 L 420.68 146.17 L 432.36 277.24 L 444.05 326.96 L 455.74 337.79 L 467.43 375.00 L 479.12 333.06 L 490.81 308.20 L 502.50 290.89 L 514.19 264.74 L 525.88 247.28 L 537.57 278.92 L 549.26 241.33 L 560.95 272.67 L 572.64 307.67 L 584.32 264.05 L 596.01 273.13 L 607.70 273.58 L 619.39 183.07 L 631.08 209.46 L 642.77 304.77 L 654.46 329.32 L 666.15 342.21 L 677.84 374.85 L 689.53 360.82 L 701.22 332.91 L 712.91 310.11 L 724.59 254.37 L 736.28 241.41 L 747.97 250.25 L 759.66 274.96 L 771.35 271.37 L 783.04 287.00 L 794.73 289.90 L 806.42 256.43 L 818.11 234.08 L 829.80 237.06 L 841.49 246.21 L 853.18 211.90 L 864.86 84.17 L 876.55 172.78 L 888.24 214.11 L 899.93 200.15 L 911.62 248.88 L 923.31 293.33 L 935.00 261.99" fill="none" stroke="#69a7ff" stroke-width="4" stroke-linecap="round" stroke-linejoin="round"/>
<circle cx="935.00" cy="261.99" r="6" fill="#69a7ff"/>
</svg>