<svg xmlns="http://www.w3.org/2000/svg" width="960" height="430" viewBox="0 0 960 430" role="img" aria-label="Composite score history">
<rect width="100%" height="100%" fill="#0b1020" rx="20"/>
<text x="70" y="32" fill="#f5f7fb" font-family="Inter, Arial, sans-serif" font-size="24" font-weight="700">Composite score history</text>
<text x="70" y="52" fill="#93a4c3" font-family="Inter, Arial, sans-serif" font-size="13">Trailing 89 sessions through 2026-01-28</text>
<line x1="70" x2="935" y1="375.00" y2="375.00" stroke="#27314e" stroke-width="1"/>
<text x="58" y="379.00" text-anchor="end" fill="#93a4c3" font-family="Inter, Arial, sans-serif" font-size="12">0</text>
<line x1="70" x2="935" y1="312.00" y2="312.00" stroke="#27314e" stroke-width="1"/>
<text x="58" y="316.00" text-anchor="end" fill="#93a4c3" font-family="Inter, Arial, sans-serif" font-size="12">8</text>
<line x1="70" x2="935" y1="249.00" y2="249.00" stroke="#27314e" stroke-width="1"/>
<text x="58" y="253.00" text-anchor="end" fill="#93a4c3" font-family="Inter, Arial, sans-serif" font-size="12">17</text>
<line x1="70" x2="935" y1="186.00" y2="186.00" stroke="#27314e" stroke-width="1"/>
<text x="58" y="190.00" text-anchor="end" fill="#93a4c3" font-family="Inter, Arial, sans-serif" font-size="12">25</text>
<line x1="70" x2="935" y1="123.00" y2="123.00" stroke="#27314e" stroke-width="1"/>
<text x="58" y="127.00" text-anchor="end" fill="#93a4c3" font-family="Inter, Arial, sans-serif" font-size="12">33</text>
<line x1="70" x2="935" y1="60.00" y2="60.00" stroke="#27314e" stroke-width="1"/>
<text x="58" y="64.00" text-anchor="end" fill="#93a4c3" font-family="Inter, Arial, sans-serif" font-size="12">41</text>
<text x="70.00" y="412" text-anchor="middle" fill="#93a4c3" font-family="Inter, Arial, sans-serif" font-size="12">2025-09-18</text>
<text x="502.50" y="412" text-anchor="middle" fill="#93a4c3" font-family="Inter, Arial, sans-serif" font-size="12">2025-11-21</text>
<text x="935.00" y="412" text-anchor="middle" fill="#93a4c3" font-family="Inter, Arial, sans-serif" font-size="12">2026-01-28</text>
<path d="M 70.00 274.27 L 79.83 286.17 L 89.66 274.88 L 99.49 273.58 L 109.32 272.06 L 119.15 222.49 L 128.98 245.75 L 138.81 247.43 L 148.64 259.32 L 158.47 297.76 L 168.30 309.80 L 178.12 286.01 L 187.95 296.54 L 197.78 271.60 L 207.61 278.85 L 217.44 256.96 L 227.27 123.98 L 237.10 175.75 L 246.93 212.66 L 256.76 109.03 L 266.59 196.19 L 276.42 336.57 L 286.25 309.88 L 296.08 285.33 L 305.91 232.33 L 315.74 267.94 L 325.57 285.48 L 335.40 299.36 L 345.23 266.80 L 355.06 256.12 L 364.89 236.53 L 374.72 192.98 L 384.55 135.80 L 394.38 183.68 L 404.20 184.67 L 414.03 190.93 L 423.86 255.59 L 433.69 294.63 L 443.52 209.53 L 453.35 237.06 L 463.18 167.36 L 473.01 60.00 L 482.84 70.45 L 492.67 66.18 L 502.50 146.17 L 512.33 277.24 L 522.16 326.96 L 531.99 337.79 L 541.82 375.00 L 551.65 333.06 L 561.48 308.20 L 571.31 290.89 L 581.14 264.74 L 590.97 247.28 L 600.80 278.92 L 610.62 241.33 L 620.45 272.67 L 630.28 307.67 L 640.11 264.05 L 649.94 273.13 L 659.77 273.58 L 669.60 183.07 L 679.43 209.46 L 689.26 304.77 L 699.09 329.32 L 708.92 342.21 L 718.75 374.85 L 728.58 360.82 L 738.41 332.91 L 748.24 310.11 L 758.07 254.37 L 767.90 241.41 L 777.73 250.25 L 787.56 274.96 L 797.39 271.37 L 807.22 287.00 L 817.05 289.90 L 826.88 256.43 L 836.70 234.08 L 846.53 237.06 L 856.36 246.21 L 866.19 211.90 L 876.02 84.17 L 885.85 172.78 L 895.68 214.11 L 905.51 200.15 L 915.34 248.88 L 925.17 293.33 L 935.00 261.99" fill="none" stroke="#69a7ff" stroke-width="4" stroke-linecap="round" stroke-linejoin="round"/>
<circle cx="935.00" cy="261.99" r="6" fill="#69a7ff"/>
</svg>