<svg xmlns="http://www.w3.org/2000/svg" width="960" height="430" viewBox="0 0 960 430" role="img" aria-label="Composite score history">
<rect width="100%" height="100%" fill="#0b1020" rx="20"/>
<text x="70" y="32" fill="#f5f7fb" font-family="Inter, Arial, sans-serif" font-size="24" font-weight="700">Composite score history</text>
<text x="70" y="52" fill="#93a4c3" font-family="Inter, Arial, sans-serif" font-size="13">Trailing 57 sessions through 2026-01-28</text>
<line x1="70" x2="935" y1="375.00" y2="375.00" stroke="#27314e" stroke-width="1"/>
<text x="58" y="379.00" text-anchor="end" fill="#93a4c3" font-family="Inter, Arial, sans-serif" font-size="12">0</text>
<line x1="70" x2="935" y1="312.00" y2="312.00" stroke="#27314e" stroke-width="1"/>
<text x="58" y="316.00" text-anchor="end" fill="#93a4c3" font-family="Inter, Arial, sans-serif" font-size="12">8</text>
<line x1="70" x2="935" y1="249.00" y2="249.00" stroke="#27314e" stroke-width="1"/>
<text x="58" y="253.00" text-anchor="end" fill="#93a4c3" font-family="Inter, Arial, sans-serif" font-size="12">17</text>
<line x1="70" x2="935" y1="186.00" y2="186.00" stroke="#27314e" stroke-width="1"/>
<text x="58" y="190.00" text-anchor="end" fill="#93a4c3" font-family="Inter, Arial, sans-serif" font-size="12">25</text>
<line x1="70" x2="935" y1="123.00" y2="123.00" stroke="#27314e" stroke-width="1"/>
<text x="58" y="127.00" text-anchor="end" fill="#93a4c3" font-family="Inter, Arial, sans-serif" font-size="12">33</text>
<line x1="70" x2="935" y1="60.00" y2="60.00" stroke="#27314e" stroke-width="1"/>
<text x="58" y="64.00" text-anchor="end" fill="#93a4c3" font-family="Inter, Arial, sans-serif" font-size="12">41</text>
<text x="70.00" y="412" text-anchor="middle" fill="#93a4c3" font-family="Inter, Arial, sans-serif" font-size="12">2025-11-04</text>
<text x="502.50" y="412" text-anchor="middle" fill="#93a4c3" font-family="Inter, Arial, sans-serif" font-size="12">2025-12-16</text>
<text x="935.00" y="412" text-anchor="middle" fill="#93a4c3" font-family="Inter, Arial, sans-serif" font-size="12">2026-01-28</text>
<path d="M 70.00 261.46 L 85.45 251.39 L 100.89 227.76 L 116.34 240.11 L 131.79 286.70 L 147.23 294.63 L 162.68 209.53 L 178.12 237.06 L 193.57 167.36 L 209.02 60.00 L 224.46 70.45 L 239.91 66.18 L 255.36 146.17 L 270.80 277.24 L 286.25 326.96 L 301.70 337.79 L 317.14 375.00 L 332.59 333.06 L 348.04 308.20 L 363.48 290.89 L 378.93 264.74 L 394.38 247.28 L 409.82 278.92 L 425.27 241.33 L 440.71 272.67 L 456.16 307.67 L 471.61 264.05 L 487.05 273.13 L 502.50 273.58 L 517.95 183.07 L 533.39 209.46 L 548.84 304.77 L 564.29 329.32 L 579.73 342.21 L 595.18 374.85 L 610.62 360.82 L 626.07 332.91 L 641.52 310.11 L 656.96 254.37 L 672.41 241.41 L 687.86 250.25 L 703.30 274.96 L 718.75 271.37 L 734.20 287.00 L 749.64 289.90 L 765.09 256.43 L 780.54 234.08 L 795.98 237.06 L 811.43 246.21 L 826.88 211.90 L 842.32 84.17 L 857.77 172.78 L 873.21 214.11 L 888.66 200.15 L 904.11 248.88 L 919.55 293.33 L 935.00 261.99" fill="none" stroke="#69a7ff" stroke-width="4" stroke-linecap="round" stroke-linejoin="round"/>
<circle cx="935.00" cy="261.99" r="6" fill="#69a7ff"/>
</svg>