<svg xmlns="http://www.w3.org/2000/svg" width="960" height="430" viewBox="0 0 960 430" role="img" aria-label="Composite score history">
<rect width="100%" height="100%" fill="#0b1020" rx="20"/>
<text x="70" y="32" fill="#f5f7fb" font-family="Inter, Arial, sans-serif" font-size="24" font-weight="700">Composite score history</text>
<text x="70" y="52" fill="#93a4c3" font-family="Inter, Arial, sans-serif" font-size="13">Trailing 70 sessions through 2026-01-28</text>
<line x1="70" x2="935" y1="375.00" y2="375.00" stroke="#27314e" stroke-width="1"/>
<text x="58" y="379.00" text-anchor="end" fill="#93a4c3" font-family="Inter, Arial, sans-serif" font-size="12">0</text>
<line x1="70" x2="935" y1="312.00" y2="312.00" stroke="#27314e" stroke-width="1"/>
<text x="58" y="316.00" text-anchor="end" fill="#93a4c3" font-family="Inter, Arial, sans-serif" font-size="12">8</text>
<line x1="70" x2="935" y1="249.00" y2="249.00" stroke="#27314e" stroke-width="1"/>
<text x="58" y="253.00" text-anchor="end" fill="#93a4c3" font-family="Inter, Arial, sans-serif" font-size="12">17</text>
<line x1="70" x2="935" y1="186.00" y2="186.00" stroke="#27314e" stroke-width="1"/>
<text x="58" y="190.00" text-anchor="end" fill="#93a4c3" font-family="Inter, Arial, sans-serif" font-size="12">25</text>
<line x1="70" x2="935" y1="123.00" y2="123.00" stroke="#27314e" stroke-width="1"/>
<text x="58" y="127.00" text-anchor="end" fill="#93a4c3" font-family="Inter, Arial, sans-serif" font-size="12">33</text>
<line x1="70" x2="935" y1="60.00" y2="60.00" stroke="#27314e" stroke-width="1"/>
<text x="58" y="64.00" text-anchor="end" fill="#93a4c3" font-family="Inter, Arial, sans-serif" font-size="12">41</text>
<text x="70.00" y="412" text-anchor="middle" fill="#93a4c3" font-family="Inter, Arial, sans-serif" font-size="12">2025-10-16</text>
<text x="508.77" y="412" text-anchor="middle" fill="#93a4c3" font-family="Inter, Arial, sans-serif" font-size="12">2025-12-08</text>
<text x="935.00" y="412" text-anchor="middle" fill="#93a4c3" font-family="Inter, Arial, sans-serif" font-size="12">2026-01-28</text>
<path d="M 70.00 243.77 L 82.54 262.30 L 95.07 298.67 L 107.61 298.29 L 120.14 273.81 L 132.68 232.33 L 145.22 267.94 L 157.75 285.48 L 170.29 299.36 L 182.83 266.80 L 195.36 256.12 L 207.90 236.53 L 220.43 192.98 L 232.97 135.80 L 245.51 183.68 L 258.04 184.67 L 270.58 190.93 L 283.12 255.59 L 295.65 294.63 L 308.19 209.53 L 320.72 237.06 L 333.26 167.36 L 345.80 60.00 L 358.33 70.45 L 370.87 66.18 L 383.41 146.17 L 395.94 277.24 L 408.48 326.96 L 421.01 337.79 L 433.55 375.00 L 446.09 333.06 L 458.62 308.20 L 471.16 290.89 L 483.70 264.74 L 496.23 247.28 L 508.77 278.92 L 521.30 241.33 L 533.84 272.67 L 546.38 307.67 L 558.91 264.05 L 571.45 273.13 L 583.99 273.58 L 596.52 183.07 L 609.06 209.46 L 621.59 304.77 L 634.13 329.32 L 646.67 342.21 L 659.20 374.85 L 671.74 360.82 L 684.28 332.91 L 696.81 310.11 L 709.35 254.37 L 721.88 241.41 L 734.42 250.25 L 746.96 274.96 L 759.49 271.37 L 772.03 287.00 L 784.57 289.90 L 797.10 256.43 L 809.64 234.08 L 822.17 237.06 L 834.71 246.21 L 847.25 211.90 L 859.78 84.17 L 872.32 172.78 L 884.86 214.11 L 897.39 200.15 L 909.93 248.88 L 922.46 293.33 L 935.00 261.99" fill="none" stroke="#69a7ff" stroke-width="4" stroke-linecap="round" stroke-linejoin="round"/>
<circle cx="935.00" cy="261.99" r="6" fill="#69a7ff"/>
</svg>