<svg xmlns="http://www.w3.org/2000/svg" width="960" height="430" viewBox="0 0 960 430" role="img" aria-label="Composite score history">
<rect width="100%" height="100%" fill="#0b1020" rx="20"/>
<text x="70" y="32" fill="#f5f7fb" font-family="Inter, Arial, sans-serif" font-size="24" font-weight="700">Composite score history</text>
<text x="70" y="52" fill="#93a4c3" font-family="Inter, Arial, sans-serif" font-size="13">Trailing 79 sessions through 2026-01-28</text>
<line x1="70" x2="935" y1="375.00" y2="375.00" stroke="#27314e" stroke-width="1"/>
<text x="58" y="379.00" text-anchor="end" fill="#93a4c3" font-family="Inter, Arial, sans-serif" font-size="12">0</text>
<line x1="70" x2="935" y1="312.00" y2="312.00" stroke="#27314e" stroke-width="1"/>
<text x="58" y="316.00" text-anchor="end" fill="#93a4c3" font-family="Inter, Arial, sans-serif" font-size="12">8</text>
<line x1="70" x2="935" y1="249.00" y2="249.00" stroke="#27314e" stroke-width="1"/>
<text x="58" y="253.00" text-anchor="end" fill="#93a4c3" font-family="Inter, Arial, sans-serif" font-size="12">17</text>
<line x1="70" x2="935" y1="186.00" y2="186.00" stroke="#27314e" stroke-width="1"/>
<text x="58" y="190.00" text-anchor="end" fill="#93a4c3" font-family="Inter, Arial, sans-serif" font-size="12">25</text>
<line x1="70" x2="935" y1="123.00" y2="123.00" stroke="#27314e" stroke-width="1"/>
<text x="58" y="127.00" text-anchor="end" fill="#93a4c3" font-family="Inter, Arial, sans-serif" font-size="12">33</text>
<line x1="70" x2="935" y1="60.00" y2="60.00" stroke="#27314e" stroke-width="1"/>
<text x="58" y="64.00" text-anchor="end" fill="#93a4c3" font-family="Inter, Arial, sans-serif" font-size="12">41</text>
<text x="70.00" y="412" text-anchor="middle" fill="#93a4c3" font-family="Inter, Arial, sans-serif" font-size="12">2025-10-02</text>
<text x="502.50" y="412" text-anchor="middle" fill="#93a4c3" font-family="Inter, Arial, sans-serif" font-size="12">2025-12-01</text>
<text x="935.00" y="412" text-anchor="middle" fill="#93a4c3" font-family="Inter, Arial, sans-serif" font-size="12">2026-01-28</text>
<path d="M 70.00 277.85 L 81.09 262.07 L 92.18 263.67 L 103.27 252.46 L 114.36 270.08 L 125.45 256.96 L 136.54 123.98 L 147.63 175.75 L 158.72 212.66 L 169.81 109.03 L 180.90 196.19 L 191.99 336.57 L 203.08 309.88 L 214.17 285.33 L 225.26 232.33 L 236.35 267.94 L 247.44 285.48 L 258.53 299.36 L 269.62 266.80 L 280.71 256.12 L 291.79 236.53 L 302.88 192.98 L 313.97 135.80 L 325.06 183.68 L 336.15 184.67 L 347.24 190.93 L 358.33 255.59 L 369.42 294.63 L 380.51 209.53 L 391.60 237.06 L 402.69 167.36 L 413.78 60.00 L 424.87 70.45 L 435.96 66.18 L 447.05 146.17 L 458.14 277.24 L 469.23 326.96 L 480.32 337.79 L 491.41 375.00 L 502.50 333.06 L 513.59 308.20 L 524.68 290.89 L 535.77 264.74 L 546.86 247.28 L 557.95 278.92 L 569.04 241.33 L 580.13 272.67 L 591.22 307.67 L 602.31 264.05 L 613.40 273.13 L 624.49 273.58 L 635.58 183.07 L 646.67 209.46 L 657.76 304.77 L 668.85 329.32 L 679.94 342.21 L 691.03 374.85 L 702.12 360.82 L 713.21 332.91 L 724.29 310.11 L 735.38 254.37 L 746.47 241.41 L 757.56 250.25 L 768.65 274.96 L 779.74 271.37 L 790.83 287.00 L 801.92 289.90 L 813.01 256.43 L 824.10 234.08 L 835.19 237.06 L 846.28 246.21 L 857.37 211.90 L 868.46 84.17 L 879.55 172.78 L 890.64 214.11 L 901.73 200.15 L 912.82 248.88 L 923.91 293.33 L 935.00 261.99" fill="none" stroke="#69a7ff" stroke-width="4" stroke-linecap="round" stroke-linejoin="round"/>
<circle cx="935.00" cy="261.99" r="6" fill="#69a7ff"/>
</svg>