<svg xmlns="http://www.w3.org/2000/svg" width="960" height="430" viewBox="0 0 960 430" role="img" aria-label="Composite score history">
<rect width="100%" height="100%" fill="#0b1020" rx="20"/>
<text x="70" y="32" fill="#f5f7fb" font-family="Inter, Arial, sans-serif" font-size="24" font-weight="700">Composite score history</text>
<text x="70" y="52" fill="#93a4c3" font-family="Inter, Arial, sans-serif" font-size="13">Trailing 90 sessions through 2026-01-28</text>
<line x1="70" x2="935" y1="375.00" y2="375.00" stroke="#27314e" stroke-width="1"/>
<text x="58" y="379.00" text-anchor="end" fill="#93a4c3" font-family="Inter, Arial, sans-serif" font-size="12">0</text>
<line x1="70" x2="935" y1="312.00" y2="312.00" stroke="#27314e" stroke-width="1"/>
<text x="58" y="316.00" text-anchor="end" fill="#93a4c3" font-family="Inter, Arial, sans-serif" font-size="12">8</text>
<line x1="70" x2="935" y1="249.00" y2="249.00" stroke="#27314e" stroke-width="1"/>
<text x="58" y="253.00" text-anchor="end" fill="#93a4c3" font-family="Inter, Arial, sans-serif" font-size="12">17</text>
<line x1="70" x2="935" y1="186.00" y2="186.00" stroke="#27314e" stroke-width="1"/>
<text x="58" y="190.00" text-anchor="end" fill="#93a4c3" font-family="Inter, Arial, sans-serif" font-size="12">25</text>
<line x1="70" x2="935" y1="123.00" y2="123.00" stroke="#27314e" stroke-width="1"/>
<text x="58" y="127.00" text-anchor="end" fill="#93a4c3" font-family="Inter, Arial, sans-serif" font-size="12">33</text>
<line x1="70" x2="935" y1="60.00" y2="60.00" stroke="#27314e" stroke-width="1"/>
<text x="58" y="64.00" text-anchor="end" fill="#93a4c3" font-family="Inter, Arial, sans-serif" font-size="12">41</text>
<text x="70.00" y="412" text-anchor="middle" fill="#93a4c3" font-family="Inter, Arial, sans-serif" font-size="12">2025-09-17</text>
<text x="507.36" y="412" text-anchor="middle" fill="#93a4c3" font-family="Inter, Arial, sans-serif" font-size="12">2025-11-21</text>
<text x="935.00" y="412" text-anchor="middle" fill="#93a4c3" font-family="Inter, Arial, sans-serif" font-size="12">2026-01-28</text>
<path d="M 70.00 271.75 L 79.72 270.61 L 89.44 288.22 L 99.16 266.64 L 108.88 279.46 L 118.60 266.03 L 128.31 222.49 L 138.03 245.75 L 147.75 247.43 L 157.47 259.32 L 167.19 297.76 L 176.91 309.80 L 186.63 286.01 L 196.35 296.54 L 206.07 271.60 L 215.79 278.85 L 225.51 256.96 L 235.22 123.98 L 244.94 175.75 L 254.66 212.66 L 264.38 109.03 L 274.10 196.19 L 283.82 336.57 L 293.54 309.88 L 303.26 285.33 L 312.98 232.33 L 322.70 267.94 L 332.42 285.48 L 342.13 299.36 L 351.85 266.80 L 361.57 256.12 L 371.29 236.53 L 381.01 192.98 L 390.73 135.80 L 400.45 183.68 L 410.17 184.67 L 419.89 190.93 L 429.61 255.59 L 439.33 294.63 L 449.04 209.53 L 458.76 237.06 L 468.48 167.36 L 478.20 60.00 L 487.92 70.45 L 497.64 66.18 L 507.36 146.17 L 517.08 277.24 L 526.80 326.96 L 536.52 337.79 L 546.24 375.00 L 555.96 333.06 L 565.67 308.20 L 575.39 290.89 L 585.11 264.74 L 594.83 247.28 L 604.55 278.92 L 614.27 241.33 L 623.99 272.67 L 633.71 307.67 L 643.43 264.05 L 653.15 273.13 L 662.87 273.58 L 672.58 183.07 L 682.30 209.46 L 692.02 304.77 L 701.74 329.32 L 711.46 342.21 L 721.18 374.85 L 730.90 360.82 L 740.62 332.91 L 750.34 310.11 L 760.06 254.37 L 769.78 241.41 L 779.49 250.25 L 789.21 274.96 L 798.93 271.37 L 808.65 287.00 L 818.37 289.90 L 828.09 256.43 L 837.81 234.08 L 847.53 237.06 L 857.25 246.21 L 866.97 211.90 L 876.69 84.17 L 886.40 172.78 L 896.12 214.11 L 905.84 200.15 L 915.56 248.88 L 925.28 293.33 L 935.00 261.99" fill="none" stroke="#69a7ff" stroke-width="4" stroke-linecap="round" stroke-linejoin="round"/>
<circle cx="935.00" cy="261.99" r="6" fill="#69a7ff"/>
</svg>