<svg xmlns="http://www.w3.org/2000/svg" width="960" height="430" viewBox="0 0 960 430" role="img" aria-label="Composite score history">
<rect width="100%" height="100%" fill="#0b1020" rx="20"/>
<text x="70" y="32" fill="#f5f7fb" font-family="Inter, Arial, sans-serif" font-size="24" font-weight="700">Composite score history</text>
<text x="70" y="52" fill="#93a4c3" font-family="Inter, Arial, sans-serif" font-size="13">Trailing 90 sessions through 2026-06-30</text>
<line x1="70" x2="935" y1="375.00" y2="375.00" stroke="#27314e" stroke-width="1"/>
<text x="58" y="379.00" text-anchor="end" fill="#93a4c3" font-family="Inter, Arial, sans-serif" font-size="12">6</text>
<line x1="70" x2="935" y1="312.00" y2="312.00" stroke="#27314e" stroke-width="1"/>
<text x="58" y="316.00" text-anchor="end" fill="#93a4c3" font-family="Inter, Arial, sans-serif" font-size="12">17</text>
<line x1="70" x2="935" y1="249.00" y2="249.00" stroke="#27314e" stroke-width="1"/>
<text x="58" y="253.00" text-anchor="end" fill="#93a4c3" font-family="Inter, Arial, sans-serif" font-size="12">27</text>
<line x1="70" x2="935" y1="186.00" y2="186.00" stroke="#27314e" stroke-width="1"/>
<text x="58" y="190.00" text-anchor="end" fill="#93a4c3" font-family="Inter, Arial, sans-serif" font-size="12">38</text>
<line x1="70" x2="935" y1="123.00" y2="123.00" stroke="#27314e" stroke-width="1"/>
<text x="58" y="127.00" text-anchor="end" fill="#93a4c3" font-family="Inter, Arial, sans-serif" font-size="12">49</text>
<line x1="70" x2="935" y1="60.00" y2="60.00" stroke="#27314e" stroke-width="1"/>
<text x="58" y="64.00" text-anchor="end" fill="#93a4c3" font-family="Inter, Arial, sans-serif" font-size="12">60</text>
<text x="70.00" y="412" text-anchor="middle" fill="#93a4c3" font-family="Inter, Arial, sans-serif" font-size="12">2026-02-20</text>
<text x="507.36" y="412" text-anchor="middle" fill="#93a4c3" font-family="Inter, Arial, sans-serif" font-size="12">2026-04-27</text>
<text x="935.00" y="412" text-anchor="middle" fill="#93a4c3" font-family="Inter, Arial, sans-serif" font-size="12">2026-06-30</text>
<path d="M 70.00 335.89 L 79.72 308.90 L 89.44 331.44 L 99.16 342.80 L 108.88 336.24 L 118.60 307.73 L 128.31 289.22 L 138.03 208.48 L 147.75 224.88 L 157.47 170.72 L 167.19 60.00 L 176.91 169.66 L 186.63 226.40 L 196.35 164.10 L 206.07 89.98 L 215.79 158.83 L 225.51 205.56 L 235.22 202.39 L 244.94 142.44 L 254.66 235.71 L 264.38 157.90 L 274.10 166.56 L 283.82 113.57 L 293.54 238.40 L 303.26 138.81 L 312.98 156.14 L 322.70 103.15 L 332.42 260.18 L 342.13 255.03 L 351.85 297.01 L 361.57 314.34 L 371.29 314.63 L 381.01 340.75 L 390.73 349.47 L 400.45 339.64 L 410.17 351.99 L 419.89 373.24 L 429.61 336.36 L 439.33 335.01 L 449.04 375.00 L 458.76 348.48 L 468.48 299.76 L 478.20 307.49 L 487.92 288.70 L 497.64 266.21 L 507.36 282.84 L 517.08 288.46 L 526.80 236.00 L 536.52 277.57 L 546.24 259.13 L 555.96 216.45 L 565.67 282.67 L 575.39 348.01 L 585.11 313.41 L 594.83 325.58 L 604.55 328.16 L 614.27 286.53 L 623.99 236.24 L 633.71 284.07 L 643.43 204.38 L 653.15 243.79 L 662.87 231.26 L 672.58 274.76 L 682.30 256.08 L 692.02 300.93 L 701.74 324.59 L 711.46 338.41 L 721.18 332.90 L 730.90 337.59 L 740.62 328.22 L 750.34 314.75 L 760.06 290.86 L 769.78 301.58 L 779.49 125.40 L 789.21 178.92 L 798.93 164.98 L 808.65 124.99 L 818.37 205.09 L 828.09 317.27 L 837.81 343.68 L 847.53 342.33 L 857.25 321.60 L 866.97 308.37 L 876.69 286.41 L 886.40 197.89 L 896.12 234.42 L 905.84 289.28 L 915.56 252.92 L 925.28 306.03 L 935.00 343.50" fill="none" stroke="#69a7ff" stroke-width="4" stroke-linecap="round" stroke-linejoin="round"/>
<circle cx="935.00" cy="343.50" r="6" fill="#69a7ff"/>
</svg>