<svg xmlns="http://www.w3.org/2000/svg" width="960" height="430" viewBox="0 0 960 430" role="img" aria-label="Composite score history">
<rect width="100%" height="100%" fill="#0b1020" rx="20"/>
<text x="70" y="32" fill="#f5f7fb" font-family="Inter, Arial, sans-serif" font-size="24" font-weight="700">Composite score history</text>
<text x="70" y="52" fill="#93a4c3" font-family="Inter, Arial, sans-serif" font-size="13">Trailing 58 sessions through 2025-10-06</text>
<line x1="70" x2="935" y1="375.00" y2="375.00" stroke="#27314e" stroke-width="1"/>
<text x="58" y="379.00" text-anchor="end" fill="#93a4c3" font-family="Inter, Arial, sans-serif" font-size="12">12</text>
<line x1="70" x2="935" y1="312.00" y2="312.00" stroke="#27314e" stroke-width="1"/>
<text x="58" y="316.00" text-anchor="end" fill="#93a4c3" font-family="Inter, Arial, sans-serif" font-size="12">16</text>
<line x1="70" x2="935" y1="249.00" y2="249.00" stroke="#27314e" stroke-width="1"/>
<text x="58" y="253.00" text-anchor="end" fill="#93a4c3" font-family="Inter, Arial, sans-serif" font-size="12">20</text>
<line x1="70" x2="935" y1="186.00" y2="186.00" stroke="#27314e" stroke-width="1"/>
<text x="58" y="190.00" text-anchor="end" fill="#93a4c3" font-family="Inter, Arial, sans-serif" font-size="12">25</text>
<line x1="70" x2="935" y1="123.00" y2="123.00" stroke="#27314e" stroke-width="1"/>
<text x="58" y="127.00" text-anchor="end" fill="#93a4c3" font-family="Inter, Arial, sans-serif" font-size="12">29</text>
<line x1="70" x2="935" y1="60.00" y2="60.00" stroke="#27314e" stroke-width="1"/>
<text x="58" y="64.00" text-anchor="end" fill="#93a4c3" font-family="Inter, Arial, sans-serif" font-size="12">34</text>
<text x="70.00" y="412" text-anchor="middle" fill="#93a4c3" font-family="Inter, Arial, sans-serif" font-size="12">2025-07-16</text>
<text x="510.09" y="412" text-anchor="middle" fill="#93a4c3" font-family="Inter, Arial, sans-serif" font-size="12">2025-08-26</text>
<text x="935.00" y="412" text-anchor="middle" fill="#93a4c3" font-family="Inter, Arial, sans-serif" font-size="12">2025-10-06</text>
<path d="M 70.00 296.43 L 85.18 245.78 L 100.35 295.28 L 115.53 304.92 L 130.70 312.69 L 145.88 326.79 L 161.05 310.68 L 176.23 304.92 L 191.40 286.64 L 206.58 288.95 L 221.75 246.35 L 236.93 239.59 L 252.11 60.00 L 267.28 226.93 L 282.46 215.27 L 297.63 300.75 L 312.81 335.43 L 327.98 238.58 L 343.16 248.08 L 358.33 336.87 L 373.51 346.51 L 388.68 322.33 L 403.86 346.65 L 419.04 340.03 L 434.21 280.89 L 449.39 210.09 L 464.56 152.67 L 479.74 306.79 L 494.91 275.42 L 510.09 268.80 L 525.26 275.42 L 540.44 315.28 L 555.61 325.50 L 570.79 260.89 L 585.96 294.56 L 601.14 349.39 L 616.32 336.00 L 631.49 373.42 L 646.67 365.21 L 661.84 366.08 L 677.02 375.00 L 692.19 339.74 L 707.37 325.79 L 722.54 338.02 L 737.72 340.18 L 752.89 289.23 L 768.07 335.57 L 783.25 296.00 L 798.42 335.57 L 813.60 317.01 L 828.77 255.27 L 843.95 299.16 L 859.12 302.33 L 874.30 307.65 L 889.47 357.73 L 904.65 359.75 L 919.82 336.15 L 935.00 352.26" fill="none" stroke="#69a7ff" stroke-width="4" stroke-linecap="round" stroke-linejoin="round"/>
<circle cx="935.00" cy="352.26" r="6" fill="#69a7ff"/>
<text x="927.00" y="340.26" text-anchor="end" fill="#f5f7fb" font-family="Inter, Arial, sans-serif" font-size="12" font-weight="600">13.26</text>
</svg>