<svg xmlns="http://www.w3.org/2000/svg" width="960" height="430" viewBox="0 0 960 430" role="img" aria-label="Composite score history">
<rect width="100%" height="100%" fill="#0b1020" rx="20"/>
<text x="70" y="32" fill="#f5f7fb" font-family="Inter, Arial, sans-serif" font-size="24" font-weight="700">Composite score history</text>
<text x="70" y="52" fill="#93a4c3" font-family="Inter, Arial, sans-serif" font-size="13">Trailing 59 sessions through 2025-10-06</text>
<line x1="70" x2="935" y1="375.00" y2="375.00" stroke="#27314e" stroke-width="1"/>
<text x="58" y="379.00" text-anchor="end" fill="#93a4c3" font-family="Inter, Arial, sans-serif" font-size="12">12</text>
<line x1="70" x2="935" y1="312.00" y2="312.00" stroke="#27314e" stroke-width="1"/>
<text x="58" y="316.00" text-anchor="end" fill="#93a4c3" font-family="Inter, Arial, sans-serif" font-size="12">16</text>
<line x1="70" x2="935" y1="249.00" y2="249.00" stroke="#27314e" stroke-width="1"/>
<text x="58" y="253.00" text-anchor="end" fill="#93a4c3" font-family="Inter, Arial, sans-serif" font-size="12">20</text>
<line x1="70" x2="935" y1="186.00" y2="186.00" stroke="#27314e" stroke-width="1"/>
<text x="58" y="190.00" text-anchor="end" fill="#93a4c3" font-family="Inter, Arial, sans-serif" font-size="12">25</text>
<line x1="70" x2="935" y1="123.00" y2="123.00" stroke="#27314e" stroke-width="1"/>
<text x="58" y="127.00" text-anchor="end" fill="#93a4c3" font-family="Inter, Arial, sans-serif" font-size="12">29</text>
<line x1="70" x2="935" y1="60.00" y2="60.00" stroke="#27314e" stroke-width="1"/>
<text x="58" y="64.00" text-anchor="end" fill="#93a4c3" font-family="Inter, Arial, sans-serif" font-size="12">34</text>
<text x="70.00" y="412" text-anchor="middle" fill="#93a4c3" font-family="Inter, Arial, sans-serif" font-size="12">2025-07-15</text>
<text x="502.50" y="412" text-anchor="middle" fill="#93a4c3" font-family="Inter, Arial, sans-serif" font-size="12">2025-08-25</text>
<text x="935.00" y="412" text-anchor="middle" fill="#93a4c3" font-family="Inter, Arial, sans-serif" font-size="12">2025-10-06</text>
<path d="M 70.00 289.52 L 84.91 289.23 L 99.83 255.85 L 114.74 288.08 L 129.66 297.72 L 144.57 312.69 L 159.48 326.79 L 174.40 310.68 L 189.31 304.92 L 204.22 286.64 L 219.14 288.95 L 234.05 246.35 L 248.97 239.59 L 263.88 60.00 L 278.79 226.93 L 293.71 215.27 L 308.62 300.75 L 323.53 335.43 L 338.45 238.58 L 353.36 248.08 L 368.28 336.87 L 383.19 346.51 L 398.10 322.33 L 413.02 346.65 L 427.93 340.03 L 442.84 280.89 L 457.76 210.09 L 472.67 152.67 L 487.59 306.79 L 502.50 275.42 L 517.41 268.80 L 532.33 275.42 L 547.24 315.28 L 562.16 325.50 L 577.07 260.89 L 591.98 294.56 L 606.90 349.39 L 621.81 336.00 L 636.72 373.42 L 651.64 365.21 L 666.55 366.08 L 681.47 375.00 L 696.38 339.74 L 711.29 325.79 L 726.21 338.02 L 741.12 340.18 L 756.03 289.23 L 770.95 335.57 L 785.86 296.00 L 800.78 335.57 L 815.69 317.01 L 830.60 255.27 L 845.52 299.16 L 860.43 302.33 L 875.34 307.65 L 890.26 357.73 L 905.17 359.75 L 920.09 336.15 L 935.00 352.26" fill="none" stroke="#69a7ff" stroke-width="4" stroke-linecap="round" stroke-linejoin="round"/>
<circle cx="935.00" cy="352.26" r="6" fill="#69a7ff"/>
<text x="927.00" y="340.26" text-anchor="end" fill="#f5f7fb" font-family="Inter, Arial, sans-serif" font-size="12" font-weight="600">13.26</text>
</svg>