<svg xmlns="http://www.w3.org/2000/svg" width="960" height="430" viewBox="0 0 960 430" role="img" aria-label="Composite score history">
<rect width="100%" height="100%" fill="#0b1020" rx="20"/>
<text x="70" y="32" fill="#f5f7fb" font-family="Inter, Arial, sans-serif" font-size="24" font-weight="700">Composite score history</text>
<text x="70" y="52" fill="#93a4c3" font-family="Inter, Arial, sans-serif" font-size="13">Trailing 59 sessions through 2025-10-06</text>
<line x1="70" x2="935" y1="375.00" y2="375.00" stroke="#27314e" stroke-width="1"/>
<text x="58" y="379.00" text-anchor="end" fill="#93a4c3" font-family="Inter, Arial, sans-serif" font-size="12">2</text>
<line x1="70" x2="935" y1="312.00" y2="312.00" stroke="#27314e" stroke-width="1"/>
<text x="58" y="316.00" text-anchor="end" fill="#93a4c3" font-family="Inter, Arial, sans-serif" font-size="12">6</text>
<line x1="70" x2="935" y1="249.00" y2="249.00" stroke="#27314e" stroke-width="1"/>
<text x="58" y="253.00" text-anchor="end" fill="#93a4c3" font-family="Inter, Arial, sans-serif" font-size="12">11</text>
<line x1="70" x2="935" y1="186.00" y2="186.00" stroke="#27314e" stroke-width="1"/>
<text x="58" y="190.00" text-anchor="end" fill="#93a4c3" font-family="Inter, Arial, sans-serif" font-size="12">15</text>
<line x1="70" x2="935" y1="123.00" y2="123.00" stroke="#27314e" stroke-width="1"/>
<text x="58" y="127.00" text-anchor="end" fill="#93a4c3" font-family="Inter, Arial, sans-serif" font-size="12">19</text>
<line x1="70" x2="935" y1="60.00" y2="60.00" stroke="#27314e" stroke-width="1"/>
<text x="58" y="64.00" text-anchor="end" fill="#93a4c3" font-family="Inter, Arial, sans-serif" font-size="12">23</text>
<text x="70.00" y="412" text-anchor="middle" fill="#93a4c3" font-family="Inter, Arial, sans-serif" font-size="12">2025-07-15</text>
<text x="502.50" y="412" text-anchor="middle" fill="#93a4c3" font-family="Inter, Arial, sans-serif" font-size="12">2025-08-25</text>
<text x="935.00" y="412" text-anchor="middle" fill="#93a4c3" font-family="Inter, Arial, sans-serif" font-size="12">2025-10-06</text>
<path d="M 70.00 344.85 L 84.91 328.81 L 99.83 261.68 L 114.74 318.56 L 129.66 334.46 L 144.57 354.80 L 159.48 367.57 L 174.40 367.28 L 189.31 327.92 L 204.22 282.33 L 219.14 297.48 L 234.05 201.39 L 248.97 261.24 L 263.88 60.00 L 278.79 238.96 L 293.71 229.90 L 308.62 312.92 L 323.53 353.91 L 338.45 117.48 L 353.36 160.84 L 368.28 337.57 L 383.19 340.40 L 398.10 306.83 L 413.02 370.69 L 427.93 357.03 L 442.84 269.41 L 457.76 161.88 L 472.67 123.27 L 487.59 269.11 L 502.50 232.87 L 517.41 171.83 L 532.33 187.72 L 547.24 285.30 L 562.16 344.11 L 577.07 286.63 L 591.98 312.03 L 606.90 362.08 L 621.81 335.94 L 636.72 370.40 L 651.64 371.29 L 666.55 367.72 L 681.47 375.00 L 696.38 300.15 L 711.29 281.58 L 726.21 338.02 L 741.12 321.24 L 756.03 220.10 L 770.95 323.61 L 785.86 231.09 L 800.78 319.60 L 815.69 277.72 L 830.60 203.17 L 845.52 256.34 L 860.43 293.02 L 875.34 253.22 L 890.26 355.54 L 905.17 353.32 L 920.09 334.16 L 935.00 352.72" fill="none" stroke="#69a7ff" stroke-width="4" stroke-linecap="round" stroke-linejoin="round"/>
<circle cx="935.00" cy="352.72" r="6" fill="#69a7ff"/>
<text x="927.00" y="340.72" text-anchor="end" fill="#f5f7fb" font-family="Inter, Arial, sans-serif" font-size="12" font-weight="600">3.56</text>
</svg>