<svg xmlns="http://www.w3.org/2000/svg" width="960" height="430" viewBox="0 0 960 430" role="img" aria-label="Composite score history">
<rect width="100%" height="100%" fill="#0b1020" rx="20"/>
<text x="70" y="32" fill="#f5f7fb" font-family="Inter, Arial, sans-serif" font-size="24" font-weight="700">Composite score history</text>
<text x="70" y="52" fill="#93a4c3" font-family="Inter, Arial, sans-serif" font-size="13">Trailing 56 sessions through 2025-10-06</text>
<line x1="70" x2="935" y1="375.00" y2="375.00" stroke="#27314e" stroke-width="1"/>
<text x="58" y="379.00" text-anchor="end" fill="#93a4c3" font-family="Inter, Arial, sans-serif" font-size="12">8</text>
<line x1="70" x2="935" y1="312.00" y2="312.00" stroke="#27314e" stroke-width="1"/>
<text x="58" y="316.00" text-anchor="end" fill="#93a4c3" font-family="Inter, Arial, sans-serif" font-size="12">13</text>
<line x1="70" x2="935" y1="249.00" y2="249.00" stroke="#27314e" stroke-width="1"/>
<text x="58" y="253.00" text-anchor="end" fill="#93a4c3" font-family="Inter, Arial, sans-serif" font-size="12">18</text>
<line x1="70" x2="935" y1="186.00" y2="186.00" stroke="#27314e" stroke-width="1"/>
<text x="58" y="190.00" text-anchor="end" fill="#93a4c3" font-family="Inter, Arial, sans-serif" font-size="12">24</text>
<line x1="70" x2="935" y1="123.00" y2="123.00" stroke="#27314e" stroke-width="1"/>
<text x="58" y="127.00" text-anchor="end" fill="#93a4c3" font-family="Inter, Arial, sans-serif" font-size="12">29</text>
<line x1="70" x2="935" y1="60.00" y2="60.00" stroke="#27314e" stroke-width="1"/>
<text x="58" y="64.00" text-anchor="end" fill="#93a4c3" font-family="Inter, Arial, sans-serif" font-size="12">34</text>
<text x="70.00" y="412" text-anchor="middle" fill="#93a4c3" font-family="Inter, Arial, sans-serif" font-size="12">2025-07-18</text>
<text x="510.36" y="412" text-anchor="middle" fill="#93a4c3" font-family="Inter, Arial, sans-serif" font-size="12">2025-08-27</text>
<text x="935.00" y="412" text-anchor="middle" fill="#93a4c3" font-family="Inter, Arial, sans-serif" font-size="12">2025-10-06</text>
<path d="M 70.00 270.92 L 85.73 274.55 L 101.45 285.18 L 117.18 322.83 L 132.91 296.06 L 148.64 318.71 L 164.36 298.94 L 180.09 289.56 L 195.82 224.13 L 211.55 216.25 L 227.27 60.00 L 243.00 205.24 L 258.73 195.11 L 274.45 269.42 L 290.18 299.94 L 305.91 291.18 L 321.64 245.15 L 337.36 373.62 L 353.09 369.00 L 368.82 351.61 L 384.55 338.85 L 400.27 340.72 L 416.00 252.15 L 431.73 190.60 L 447.45 140.69 L 463.18 282.93 L 478.91 247.40 L 494.64 268.29 L 510.36 289.31 L 526.09 346.73 L 541.82 290.93 L 557.55 234.76 L 573.27 264.04 L 589.00 321.58 L 604.73 300.07 L 620.45 349.48 L 636.18 372.75 L 651.91 366.87 L 667.64 375.00 L 683.36 352.86 L 699.09 348.98 L 714.82 346.98 L 730.55 336.47 L 746.27 280.55 L 762.00 337.72 L 777.73 302.32 L 793.45 323.33 L 809.18 301.32 L 824.91 229.88 L 840.64 268.04 L 856.36 270.79 L 872.09 290.31 L 887.82 353.36 L 903.55 373.12 L 919.27 334.09 L 935.00 351.36" fill="none" stroke="#69a7ff" stroke-width="4" stroke-linecap="round" stroke-linejoin="round"/>
<circle cx="935.00" cy="351.36" r="6" fill="#69a7ff"/>
</svg>