<svg xmlns="http://www.w3.org/2000/svg" width="960" height="430" viewBox="0 0 960 430" role="img" aria-label="Composite score history">
<rect width="100%" height="100%" fill="#0b1020" rx="20"/>
<text x="70" y="32" fill="#f5f7fb" font-family="Inter, Arial, sans-serif" font-size="24" font-weight="700">Composite score history</text>
<text x="70" y="52" fill="#93a4c3" font-family="Inter, Arial, sans-serif" font-size="13">Trailing 58 sessions through 2026-01-27</text>
<line x1="70" x2="935" y1="375.00" y2="375.00" stroke="#27314e" stroke-width="1"/>
<text x="58" y="379.00" text-anchor="end" fill="#93a4c3" font-family="Inter, Arial, sans-serif" font-size="12">0</text>
<line x1="70" x2="935" y1="312.00" y2="312.00" stroke="#27314e" stroke-width="1"/>
<text x="58" y="316.00" text-anchor="end" fill="#93a4c3" font-family="Inter, Arial, sans-serif" font-size="12">8</text>
<line x1="70" x2="935" y1="249.00" y2="249.00" stroke="#27314e" stroke-width="1"/>
<text x="58" y="253.00" text-anchor="end" fill="#93a4c3" font-family="Inter, Arial, sans-serif" font-size="12">17</text>
<line x1="70" x2="935" y1="186.00" y2="186.00" stroke="#27314e" stroke-width="1"/>
<text x="58" y="190.00" text-anchor="end" fill="#93a4c3" font-family="Inter, Arial, sans-serif" font-size="12">25</text>
<line x1="70" x2="935" y1="123.00" y2="123.00" stroke="#27314e" stroke-width="1"/>
<text x="58" y="127.00" text-anchor="end" fill="#93a4c3" font-family="Inter, Arial, sans-serif" font-size="12">33</text>
<line x1="70" x2="935" y1="60.00" y2="60.00" stroke="#27314e" stroke-width="1"/>
<text x="58" y="64.00" text-anchor="end" fill="#93a4c3" font-family="Inter, Arial, sans-serif" font-size="12">41</text>
<text x="70.00" y="412" text-anchor="middle" fill="#93a4c3" font-family="Inter, Arial, sans-serif" font-size="12">2025-10-31</text>
<text x="510.09" y="412" text-anchor="middle" fill="#93a4c3" font-family="Inter, Arial, sans-serif" font-size="12">2025-12-15</text>
<text x="935.00" y="412" text-anchor="middle" fill="#93a4c3" font-family="Inter, Arial, sans-serif" font-size="12">2026-01-27</text>
<path d="M 70.00 267.18 L 85.18 267.10 L 100.35 212.05 L 115.53 225.77 L 130.70 178.65 L 145.88 190.93 L 161.05 255.59 L 176.23 294.63 L 191.40 209.53 L 206.58 237.06 L 221.75 167.36 L 236.93 60.00 L 252.11 70.45 L 267.28 66.18 L 282.46 146.17 L 297.63 277.24 L 312.81 326.96 L 327.98 337.79 L 343.16 375.00 L 358.33 333.06 L 373.51 308.20 L 388.68 290.89 L 403.86 264.74 L 419.04 247.28 L 434.21 278.92 L 449.39 241.33 L 464.56 272.67 L 479.74 307.67 L 494.91 264.05 L 510.09 273.13 L 525.26 273.58 L 540.44 183.07 L 555.61 209.46 L 570.79 304.77 L 585.96 329.32 L 601.14 342.21 L 616.32 374.85 L 631.49 360.82 L 646.67 332.91 L 661.84 310.11 L 677.02 254.37 L 692.19 241.41 L 707.37 250.25 L 722.54 274.96 L 737.72 271.37 L 752.89 287.00 L 768.07 289.90 L 783.25 256.43 L 798.42 234.08 L 813.60 237.06 L 828.77 246.21 L 843.95 211.90 L 859.12 84.17 L 874.30 172.78 L 889.47 214.11 L 904.65 200.15 L 919.82 248.88 L 935.00 293.33" fill="none" stroke="#69a7ff" stroke-width="4" stroke-linecap="round" stroke-linejoin="round"/>
<circle cx="935.00" cy="293.33" r="6" fill="#69a7ff"/>
</svg>