<svg xmlns="http://www.w3.org/2000/svg" width="960" height="430" viewBox="0 0 960 430" role="img" aria-label="Composite score history">
<rect width="100%" height="100%" fill="#0b1020" rx="20"/>
<text x="70" y="32" fill="#f5f7fb" font-family="Inter, Arial, sans-serif" font-size="24" font-weight="700">Composite score history</text>
<text x="70" y="52" fill="#93a4c3" font-family="Inter, Arial, sans-serif" font-size="13">Trailing 74 sessions through 2026-01-27</text>
<line x1="70" x2="935" y1="375.00" y2="375.00" stroke="#27314e" stroke-width="1"/>
<text x="58" y="379.00" text-anchor="end" fill="#93a4c3" font-family="Inter, Arial, sans-serif" font-size="12">0</text>
<line x1="70" x2="935" y1="312.00" y2="312.00" stroke="#27314e" stroke-width="1"/>
<text x="58" y="316.00" text-anchor="end" fill="#93a4c3" font-family="Inter, Arial, sans-serif" font-size="12">8</text>
<line x1="70" x2="935" y1="249.00" y2="249.00" stroke="#27314e" stroke-width="1"/>
<text x="58" y="253.00" text-anchor="end" fill="#93a4c3" font-family="Inter, Arial, sans-serif" font-size="12">17</text>
<line x1="70" x2="935" y1="186.00" y2="186.00" stroke="#27314e" stroke-width="1"/>
<text x="58" y="190.00" text-anchor="end" fill="#93a4c3" font-family="Inter, Arial, sans-serif" font-size="12">25</text>
<line x1="70" x2="935" y1="123.00" y2="123.00" stroke="#27314e" stroke-width="1"/>
<text x="58" y="127.00" text-anchor="end" fill="#93a4c3" font-family="Inter, Arial, sans-serif" font-size="12">33</text>
<line x1="70" x2="935" y1="60.00" y2="60.00" stroke="#27314e" stroke-width="1"/>
<text x="58" y="64.00" text-anchor="end" fill="#93a4c3" font-family="Inter, Arial, sans-serif" font-size="12">41</text>
<text x="70.00" y="412" text-anchor="middle" fill="#93a4c3" font-family="Inter, Arial, sans-serif" font-size="12">2025-10-08</text>
<text x="508.42" y="412" text-anchor="middle" fill="#93a4c3" font-family="Inter, Arial, sans-serif" font-size="12">2025-12-03</text>
<text x="935.00" y="412" text-anchor="middle" fill="#93a4c3" font-family="Inter, Arial, sans-serif" font-size="12">2026-01-27</text>
<path d="M 70.00 275.95 L 81.85 256.66 L 93.70 100.57 L 105.55 167.75 L 117.40 183.99 L 129.25 109.03 L 141.10 196.19 L 152.95 336.57 L 164.79 309.88 L 176.64 285.33 L 188.49 232.33 L 200.34 267.94 L 212.19 285.48 L 224.04 299.36 L 235.89 266.80 L 247.74 256.12 L 259.59 236.53 L 271.44 192.98 L 283.29 135.80 L 295.14 183.68 L 306.99 184.67 L 318.84 190.93 L 330.68 255.59 L 342.53 294.63 L 354.38 209.53 L 366.23 237.06 L 378.08 167.36 L 389.93 60.00 L 401.78 70.45 L 413.63 66.18 L 425.48 146.17 L 437.33 277.24 L 449.18 326.96 L 461.03 337.79 L 472.88 375.00 L 484.73 333.06 L 496.58 308.20 L 508.42 290.89 L 520.27 264.74 L 532.12 247.28 L 543.97 278.92 L 555.82 241.33 L 567.67 272.67 L 579.52 307.67 L 591.37 264.05 L 603.22 273.13 L 615.07 273.58 L 626.92 183.07 L 638.77 209.46 L 650.62 304.77 L 662.47 329.32 L 674.32 342.21 L 686.16 374.85 L 698.01 360.82 L 709.86 332.91 L 721.71 310.11 L 733.56 254.37 L 745.41 241.41 L 757.26 250.25 L 769.11 274.96 L 780.96 271.37 L 792.81 287.00 L 804.66 289.90 L 816.51 256.43 L 828.36 234.08 L 840.21 237.06 L 852.05 246.21 L 863.90 211.90 L 875.75 84.17 L 887.60 172.78 L 899.45 214.11 L 911.30 200.15 L 923.15 248.88 L 935.00 293.33" fill="none" stroke="#69a7ff" stroke-width="4" stroke-linecap="round" stroke-linejoin="round"/>
<circle cx="935.00" cy="293.33" r="6" fill="#69a7ff"/>
</svg>