<svg xmlns="http://www.w3.org/2000/svg" width="960" height="430" viewBox="0 0 960 430" role="img" aria-label="Composite score history">
<rect width="100%" height="100%" fill="#0b1020" rx="20"/>
<text x="70" y="32" fill="#f5f7fb" font-family="Inter, Arial, sans-serif" font-size="24" font-weight="700">Composite score history</text>
<text x="70" y="52" fill="#93a4c3" font-family="Inter, Arial, sans-serif" font-size="13">Trailing 87 sessions through 2026-01-27</text>
<line x1="70" x2="935" y1="375.00" y2="375.00" stroke="#27314e" stroke-width="1"/>
<text x="58" y="379.00" text-anchor="end" fill="#93a4c3" font-family="Inter, Arial, sans-serif" font-size="12">0</text>
<line x1="70" x2="935" y1="312.00" y2="312.00" stroke="#27314e" stroke-width="1"/>
<text x="58" y="316.00" text-anchor="end" fill="#93a4c3" font-family="Inter, Arial, sans-serif" font-size="12">8</text>
<line x1="70" x2="935" y1="249.00" y2="249.00" stroke="#27314e" stroke-width="1"/>
<text x="58" y="253.00" text-anchor="end" fill="#93a4c3" font-family="Inter, Arial, sans-serif" font-size="12">17</text>
<line x1="70" x2="935" y1="186.00" y2="186.00" stroke="#27314e" stroke-width="1"/>
<text x="58" y="190.00" text-anchor="end" fill="#93a4c3" font-family="Inter, Arial, sans-serif" font-size="12">25</text>
<line x1="70" x2="935" y1="123.00" y2="123.00" stroke="#27314e" stroke-width="1"/>
<text x="58" y="127.00" text-anchor="end" fill="#93a4c3" font-family="Inter, Arial, sans-serif" font-size="12">33</text>
<line x1="70" x2="935" y1="60.00" y2="60.00" stroke="#27314e" stroke-width="1"/>
<text x="58" y="64.00" text-anchor="end" fill="#93a4c3" font-family="Inter, Arial, sans-serif" font-size="12">41</text>
<text x="70.00" y="412" text-anchor="middle" fill="#93a4c3" font-family="Inter, Arial, sans-serif" font-size="12">2025-09-19</text>
<text x="502.50" y="412" text-anchor="middle" fill="#93a4c3" font-family="Inter, Arial, sans-serif" font-size="12">2025-11-21</text>
<text x="935.00" y="412" text-anchor="middle" fill="#93a4c3" font-family="Inter, Arial, sans-serif" font-size="12">2026-01-27</text>
<path d="M 70.00 276.79 L 80.06 263.67 L 90.12 260.32 L 100.17 253.45 L 110.23 202.21 L 120.29 245.75 L 130.35 247.43 L 140.41 259.32 L 150.47 297.76 L 160.52 309.80 L 170.58 286.01 L 180.64 296.54 L 190.70 271.60 L 200.76 278.85 L 210.81 256.96 L 220.87 123.98 L 230.93 175.75 L 240.99 212.66 L 251.05 109.03 L 261.10 196.19 L 271.16 336.57 L 281.22 309.88 L 291.28 285.33 L 301.34 232.33 L 311.40 267.94 L 321.45 285.48 L 331.51 299.36 L 341.57 266.80 L 351.63 256.12 L 361.69 236.53 L 371.74 192.98 L 381.80 135.80 L 391.86 183.68 L 401.92 184.67 L 411.98 190.93 L 422.03 255.59 L 432.09 294.63 L 442.15 209.53 L 452.21 237.06 L 462.27 167.36 L 472.33 60.00 L 482.38 70.45 L 492.44 66.18 L 502.50 146.17 L 512.56 277.24 L 522.62 326.96 L 532.67 337.79 L 542.73 375.00 L 552.79 333.06 L 562.85 308.20 L 572.91 290.89 L 582.97 264.74 L 593.02 247.28 L 603.08 278.92 L 613.14 241.33 L 623.20 272.67 L 633.26 307.67 L 643.31 264.05 L 653.37 273.13 L 663.43 273.58 L 673.49 183.07 L 683.55 209.46 L 693.60 304.77 L 703.66 329.32 L 713.72 342.21 L 723.78 374.85 L 733.84 360.82 L 743.90 332.91 L 753.95 310.11 L 764.01 254.37 L 774.07 241.41 L 784.13 250.25 L 794.19 274.96 L 804.24 271.37 L 814.30 287.00 L 824.36 289.90 L 834.42 256.43 L 844.48 234.08 L 854.53 237.06 L 864.59 246.21 L 874.65 211.90 L 884.71 84.17 L 894.77 172.78 L 904.83 214.11 L 914.88 200.15 L 924.94 248.88 L 935.00 293.33" fill="none" stroke="#69a7ff" stroke-width="4" stroke-linecap="round" stroke-linejoin="round"/>
<circle cx="935.00" cy="293.33" r="6" fill="#69a7ff"/>
</svg>