<svg xmlns="http://www.w3.org/2000/svg" width="960" height="430" viewBox="0 0 960 430" role="img" aria-label="Composite score history">
<rect width="100%" height="100%" fill="#0b1020" rx="20"/>
<text x="70" y="32" fill="#f5f7fb" font-family="Inter, Arial, sans-serif" font-size="24" font-weight="700">Composite score history</text>
<text x="70" y="52" fill="#93a4c3" font-family="Inter, Arial, sans-serif" font-size="13">Trailing 70 sessions through 2026-01-27</text>
<line x1="70" x2="935" y1="375.00" y2="375.00" stroke="#27314e" stroke-width="1"/>
<text x="58" y="379.00" text-anchor="end" fill="#93a4c3" font-family="Inter, Arial, sans-serif" font-size="12">0</text>
<line x1="70" x2="935" y1="312.00" y2="312.00" stroke="#27314e" stroke-width="1"/>
<text x="58" y="316.00" text-anchor="end" fill="#93a4c3" font-family="Inter, Arial, sans-serif" font-size="12">8</text>
<line x1="70" x2="935" y1="249.00" y2="249.00" stroke="#27314e" stroke-width="1"/>
<text x="58" y="253.00" text-anchor="end" fill="#93a4c3" font-family="Inter, Arial, sans-serif" font-size="12">17</text>
<line x1="70" x2="935" y1="186.00" y2="186.00" stroke="#27314e" stroke-width="1"/>
<text x="58" y="190.00" text-anchor="end" fill="#93a4c3" font-family="Inter, Arial, sans-serif" font-size="12">25</text>
<line x1="70" x2="935" y1="123.00" y2="123.00" stroke="#27314e" stroke-width="1"/>
<text x="58" y="127.00" text-anchor="end" fill="#93a4c3" font-family="Inter, Arial, sans-serif" font-size="12">33</text>
<line x1="70" x2="935" y1="60.00" y2="60.00" stroke="#27314e" stroke-width="1"/>
<text x="58" y="64.00" text-anchor="end" fill="#93a4c3" font-family="Inter, Arial, sans-serif" font-size="12">41</text>
<text x="70.00" y="412" text-anchor="middle" fill="#93a4c3" font-family="Inter, Arial, sans-serif" font-size="12">2025-10-15</text>
<text x="508.77" y="412" text-anchor="middle" fill="#93a4c3" font-family="Inter, Arial, sans-serif" font-size="12">2025-12-05</text>
<text x="935.00" y="412" text-anchor="middle" fill="#93a4c3" font-family="Inter, Arial, sans-serif" font-size="12">2026-01-27</text>
<path d="M 70.00 261.69 L 82.54 186.43 L 95.07 262.45 L 107.61 301.72 L 120.14 302.10 L 132.68 285.33 L 145.22 232.33 L 157.75 267.94 L 170.29 285.48 L 182.83 299.36 L 195.36 266.80 L 207.90 256.12 L 220.43 236.53 L 232.97 192.98 L 245.51 135.80 L 258.04 183.68 L 270.58 184.67 L 283.12 190.93 L 295.65 255.59 L 308.19 294.63 L 320.72 209.53 L 333.26 237.06 L 345.80 167.36 L 358.33 60.00 L 370.87 70.45 L 383.41 66.18 L 395.94 146.17 L 408.48 277.24 L 421.01 326.96 L 433.55 337.79 L 446.09 375.00 L 458.62 333.06 L 471.16 308.20 L 483.70 290.89 L 496.23 264.74 L 508.77 247.28 L 521.30 278.92 L 533.84 241.33 L 546.38 272.67 L 558.91 307.67 L 571.45 264.05 L 583.99 273.13 L 596.52 273.58 L 609.06 183.07 L 621.59 209.46 L 634.13 304.77 L 646.67 329.32 L 659.20 342.21 L 671.74 374.85 L 684.28 360.82 L 696.81 332.91 L 709.35 310.11 L 721.88 254.37 L 734.42 241.41 L 746.96 250.25 L 759.49 274.96 L 772.03 271.37 L 784.57 287.00 L 797.10 289.90 L 809.64 256.43 L 822.17 234.08 L 834.71 237.06 L 847.25 246.21 L 859.78 211.90 L 872.32 84.17 L 884.86 172.78 L 897.39 214.11 L 909.93 200.15 L 922.46 248.88 L 935.00 293.33" fill="none" stroke="#69a7ff" stroke-width="4" stroke-linecap="round" stroke-linejoin="round"/>
<circle cx="935.00" cy="293.33" r="6" fill="#69a7ff"/>
</svg>