<svg xmlns="http://www.w3.org/2000/svg" width="960" height="430" viewBox="0 0 960 430" role="img" aria-label="Composite score history">
<rect width="100%" height="100%" fill="#0b1020" rx="20"/>
<text x="70" y="32" fill="#f5f7fb" font-family="Inter, Arial, sans-serif" font-size="24" font-weight="700">Composite score history</text>
<text x="70" y="52" fill="#93a4c3" font-family="Inter, Arial, sans-serif" font-size="13">Trailing 66 sessions through 2026-01-27</text>
<line x1="70" x2="935" y1="375.00" y2="375.00" stroke="#27314e" stroke-width="1"/>
<text x="58" y="379.00" text-anchor="end" fill="#93a4c3" font-family="Inter, Arial, sans-serif" font-size="12">0</text>
<line x1="70" x2="935" y1="312.00" y2="312.00" stroke="#27314e" stroke-width="1"/>
<text x="58" y="316.00" text-anchor="end" fill="#93a4c3" font-family="Inter, Arial, sans-serif" font-size="12">8</text>
<line x1="70" x2="935" y1="249.00" y2="249.00" stroke="#27314e" stroke-width="1"/>
<text x="58" y="253.00" text-anchor="end" fill="#93a4c3" font-family="Inter, Arial, sans-serif" font-size="12">17</text>
<line x1="70" x2="935" y1="186.00" y2="186.00" stroke="#27314e" stroke-width="1"/>
<text x="58" y="190.00" text-anchor="end" fill="#93a4c3" font-family="Inter, Arial, sans-serif" font-size="12">25</text>
<line x1="70" x2="935" y1="123.00" y2="123.00" stroke="#27314e" stroke-width="1"/>
<text x="58" y="127.00" text-anchor="end" fill="#93a4c3" font-family="Inter, Arial, sans-serif" font-size="12">33</text>
<line x1="70" x2="935" y1="60.00" y2="60.00" stroke="#27314e" stroke-width="1"/>
<text x="58" y="64.00" text-anchor="end" fill="#93a4c3" font-family="Inter, Arial, sans-serif" font-size="12">41</text>
<text x="70.00" y="412" text-anchor="middle" fill="#93a4c3" font-family="Inter, Arial, sans-serif" font-size="12">2025-10-21</text>
<text x="509.15" y="412" text-anchor="middle" fill="#93a4c3" font-family="Inter, Arial, sans-serif" font-size="12">2025-12-09</text>
<text x="935.00" y="412" text-anchor="middle" fill="#93a4c3" font-family="Inter, Arial, sans-serif" font-size="12">2026-01-27</text>
<path d="M 70.00 283.73 L 83.31 244.07 L 96.62 217.77 L 109.92 248.19 L 123.23 290.05 L 136.54 299.36 L 149.85 266.80 L 163.15 256.12 L 176.46 236.53 L 189.77 192.98 L 203.08 135.80 L 216.38 183.68 L 229.69 184.67 L 243.00 190.93 L 256.31 255.59 L 269.62 294.63 L 282.92 209.53 L 296.23 237.06 L 309.54 167.36 L 322.85 60.00 L 336.15 70.45 L 349.46 66.18 L 362.77 146.17 L 376.08 277.24 L 389.38 326.96 L 402.69 337.79 L 416.00 375.00 L 429.31 333.06 L 442.62 308.20 L 455.92 290.89 L 469.23 264.74 L 482.54 247.28 L 495.85 278.92 L 509.15 241.33 L 522.46 272.67 L 535.77 307.67 L 549.08 264.05 L 562.38 273.13 L 575.69 273.58 L 589.00 183.07 L 602.31 209.46 L 615.62 304.77 L 628.92 329.32 L 642.23 342.21 L 655.54 374.85 L 668.85 360.82 L 682.15 332.91 L 695.46 310.11 L 708.77 254.37 L 722.08 241.41 L 735.38 250.25 L 748.69 274.96 L 762.00 271.37 L 775.31 287.00 L 788.62 289.90 L 801.92 256.43 L 815.23 234.08 L 828.54 237.06 L 841.85 246.21 L 855.15 211.90 L 868.46 84.17 L 881.77 172.78 L 895.08 214.11 L 908.38 200.15 L 921.69 248.88 L 935.00 293.33" fill="none" stroke="#69a7ff" stroke-width="4" stroke-linecap="round" stroke-linejoin="round"/>
<circle cx="935.00" cy="293.33" r="6" fill="#69a7ff"/>
</svg>