<svg xmlns="http://www.w3.org/2000/svg" width="960" height="430" viewBox="0 0 960 430" role="img" aria-label="Composite score history">
<rect width="100%" height="100%" fill="#0b1020" rx="20"/>
<text x="70" y="32" fill="#f5f7fb" font-family="Inter, Arial, sans-serif" font-size="24" font-weight="700">Composite score history</text>
<text x="70" y="52" fill="#93a4c3" font-family="Inter, Arial, sans-serif" font-size="13">Trailing 64 sessions through 2026-01-27</text>
<line x1="70" x2="935" y1="375.00" y2="375.00" stroke="#27314e" stroke-width="1"/>
<text x="58" y="379.00" text-anchor="end" fill="#93a4c3" font-family="Inter, Arial, sans-serif" font-size="12">0</text>
<line x1="70" x2="935" y1="312.00" y2="312.00" stroke="#27314e" stroke-width="1"/>
<text x="58" y="316.00" text-anchor="end" fill="#93a4c3" font-family="Inter, Arial, sans-serif" font-size="12">8</text>
<line x1="70" x2="935" y1="249.00" y2="249.00" stroke="#27314e" stroke-width="1"/>
<text x="58" y="253.00" text-anchor="end" fill="#93a4c3" font-family="Inter, Arial, sans-serif" font-size="12">17</text>
<line x1="70" x2="935" y1="186.00" y2="186.00" stroke="#27314e" stroke-width="1"/>
<text x="58" y="190.00" text-anchor="end" fill="#93a4c3" font-family="Inter, Arial, sans-serif" font-size="12">25</text>
<line x1="70" x2="935" y1="123.00" y2="123.00" stroke="#27314e" stroke-width="1"/>
<text x="58" y="127.00" text-anchor="end" fill="#93a4c3" font-family="Inter, Arial, sans-serif" font-size="12">33</text>
<line x1="70" x2="935" y1="60.00" y2="60.00" stroke="#27314e" stroke-width="1"/>
<text x="58" y="64.00" text-anchor="end" fill="#93a4c3" font-family="Inter, Arial, sans-serif" font-size="12">41</text>
<text x="70.00" y="412" text-anchor="middle" fill="#93a4c3" font-family="Inter, Arial, sans-serif" font-size="12">2025-10-23</text>
<text x="509.37" y="412" text-anchor="middle" fill="#93a4c3" font-family="Inter, Arial, sans-serif" font-size="12">2025-12-10</text>
<text x="935.00" y="412" text-anchor="middle" fill="#93a4c3" font-family="Inter, Arial, sans-serif" font-size="12">2026-01-27</text>
<path d="M 70.00 271.83 L 83.73 294.55 L 97.46 324.98 L 111.19 327.42 L 124.92 283.65 L 138.65 256.12 L 152.38 236.53 L 166.11 192.98 L 179.84 135.80 L 193.57 183.68 L 207.30 184.67 L 221.03 190.93 L 234.76 255.59 L 248.49 294.63 L 262.22 209.53 L 275.95 237.06 L 289.68 167.36 L 303.41 60.00 L 317.14 70.45 L 330.87 66.18 L 344.60 146.17 L 358.33 277.24 L 372.06 326.96 L 385.79 337.79 L 399.52 375.00 L 413.25 333.06 L 426.98 308.20 L 440.71 290.89 L 454.44 264.74 L 468.17 247.28 L 481.90 278.92 L 495.63 241.33 L 509.37 272.67 L 523.10 307.67 L 536.83 264.05 L 550.56 273.13 L 564.29 273.58 L 578.02 183.07 L 591.75 209.46 L 605.48 304.77 L 619.21 329.32 L 632.94 342.21 L 646.67 374.85 L 660.40 360.82 L 674.13 332.91 L 687.86 310.11 L 701.59 254.37 L 715.32 241.41 L 729.05 250.25 L 742.78 274.96 L 756.51 271.37 L 770.24 287.00 L 783.97 289.90 L 797.70 256.43 L 811.43 234.08 L 825.16 237.06 L 838.89 246.21 L 852.62 211.90 L 866.35 84.17 L 880.08 172.78 L 893.81 214.11 L 907.54 200.15 L 921.27 248.88 L 935.00 293.33" fill="none" stroke="#69a7ff" stroke-width="4" stroke-linecap="round" stroke-linejoin="round"/>
<circle cx="935.00" cy="293.33" r="6" fill="#69a7ff"/>
</svg>