<svg xmlns="http://www.w3.org/2000/svg" width="960" height="430" viewBox="0 0 960 430" role="img" aria-label="Composite score history">
<rect width="100%" height="100%" fill="#0b1020" rx="20"/>
<text x="70" y="32" fill="#f5f7fb" font-family="Inter, Arial, sans-serif" font-size="24" font-weight="700">Composite score history</text>
<text x="70" y="52" fill="#93a4c3" font-family="Inter, Arial, sans-serif" font-size="13">Trailing 85 sessions through 2026-01-27</text>
<line x1="70" x2="935" y1="375.00" y2="375.00" stroke="#27314e" stroke-width="1"/>
<text x="58" y="379.00" text-anchor="end" fill="#93a4c3" font-family="Inter, Arial, sans-serif" font-size="12">0</text>
<line x1="70" x2="935" y1="312.00" y2="312.00" stroke="#27314e" stroke-width="1"/>
<text x="58" y="316.00" text-anchor="end" fill="#93a4c3" font-family="Inter, Arial, sans-serif" font-size="12">8</text>
<line x1="70" x2="935" y1="249.00" y2="249.00" stroke="#27314e" stroke-width="1"/>
<text x="58" y="253.00" text-anchor="end" fill="#93a4c3" font-family="Inter, Arial, sans-serif" font-size="12">17</text>
<line x1="70" x2="935" y1="186.00" y2="186.00" stroke="#27314e" stroke-width="1"/>
<text x="58" y="190.00" text-anchor="end" fill="#93a4c3" font-family="Inter, Arial, sans-serif" font-size="12">25</text>
<line x1="70" x2="935" y1="123.00" y2="123.00" stroke="#27314e" stroke-width="1"/>
<text x="58" y="127.00" text-anchor="end" fill="#93a4c3" font-family="Inter, Arial, sans-serif" font-size="12">33</text>
<line x1="70" x2="935" y1="60.00" y2="60.00" stroke="#27314e" stroke-width="1"/>
<text x="58" y="64.00" text-anchor="end" fill="#93a4c3" font-family="Inter, Arial, sans-serif" font-size="12">41</text>
<text x="70.00" y="412" text-anchor="middle" fill="#93a4c3" font-family="Inter, Arial, sans-serif" font-size="12">2025-09-23</text>
<text x="502.50" y="412" text-anchor="middle" fill="#93a4c3" font-family="Inter, Arial, sans-serif" font-size="12">2025-11-24</text>
<text x="935.00" y="412" text-anchor="middle" fill="#93a4c3" font-family="Inter, Arial, sans-serif" font-size="12">2026-01-27</text>
<path d="M 70.00 273.13 L 80.30 250.71 L 90.60 202.75 L 100.89 237.75 L 111.19 242.93 L 121.49 259.32 L 131.79 297.76 L 142.08 309.80 L 152.38 286.01 L 162.68 296.54 L 172.98 271.60 L 183.27 278.85 L 193.57 256.96 L 203.87 123.98 L 214.17 175.75 L 224.46 212.66 L 234.76 109.03 L 245.06 196.19 L 255.36 336.57 L 265.65 309.88 L 275.95 285.33 L 286.25 232.33 L 296.55 267.94 L 306.85 285.48 L 317.14 299.36 L 327.44 266.80 L 337.74 256.12 L 348.04 236.53 L 358.33 192.98 L 368.63 135.80 L 378.93 183.68 L 389.23 184.67 L 399.52 190.93 L 409.82 255.59 L 420.12 294.63 L 430.42 209.53 L 440.71 237.06 L 451.01 167.36 L 461.31 60.00 L 471.61 70.45 L 481.90 66.18 L 492.20 146.17 L 502.50 277.24 L 512.80 326.96 L 523.10 337.79 L 533.39 375.00 L 543.69 333.06 L 553.99 308.20 L 564.29 290.89 L 574.58 264.74 L 584.88 247.28 L 595.18 278.92 L 605.48 241.33 L 615.77 272.67 L 626.07 307.67 L 636.37 264.05 L 646.67 273.13 L 656.96 273.58 L 667.26 183.07 L 677.56 209.46 L 687.86 304.77 L 698.15 329.32 L 708.45 342.21 L 718.75 374.85 L 729.05 360.82 L 739.35 332.91 L 749.64 310.11 L 759.94 254.37 L 770.24 241.41 L 780.54 250.25 L 790.83 274.96 L 801.13 271.37 L 811.43 287.00 L 821.73 289.90 L 832.02 256.43 L 842.32 234.08 L 852.62 237.06 L 862.92 246.21 L 873.21 211.90 L 883.51 84.17 L 893.81 172.78 L 904.11 214.11 L 914.40 200.15 L 924.70 248.88 L 935.00 293.33" fill="none" stroke="#69a7ff" stroke-width="4" stroke-linecap="round" stroke-linejoin="round"/>
<circle cx="935.00" cy="293.33" r="6" fill="#69a7ff"/>
</svg>