<svg xmlns="http://www.w3.org/2000/svg" width="960" height="430" viewBox="0 0 960 430" role="img" aria-label="Composite score history">
<rect width="100%" height="100%" fill="#0b1020" rx="20"/>
<text x="70" y="32" fill="#f5f7fb" font-family="Inter, Arial, sans-serif" font-size="24" font-weight="700">Composite score history</text>
<text x="70" y="52" fill="#93a4c3" font-family="Inter, Arial, sans-serif" font-size="13">Trailing 72 sessions through 2026-01-27</text>
<line x1="70" x2="935" y1="375.00" y2="375.00" stroke="#27314e" stroke-width="1"/>
<text x="58" y="379.00" text-anchor="end" fill="#93a4c3" font-family="Inter, Arial, sans-serif" font-size="12">0</text>
<line x1="70" x2="935" y1="312.00" y2="312.00" stroke="#27314e" stroke-width="1"/>
<text x="58" y="316.00" text-anchor="end" fill="#93a4c3" font-family="Inter, Arial, sans-serif" font-size="12">8</text>
<line x1="70" x2="935" y1="249.00" y2="249.00" stroke="#27314e" stroke-width="1"/>
<text x="58" y="253.00" text-anchor="end" fill="#93a4c3" font-family="Inter, Arial, sans-serif" font-size="12">17</text>
<line x1="70" x2="935" y1="186.00" y2="186.00" stroke="#27314e" stroke-width="1"/>
<text x="58" y="190.00" text-anchor="end" fill="#93a4c3" font-family="Inter, Arial, sans-serif" font-size="12">25</text>
<line x1="70" x2="935" y1="123.00" y2="123.00" stroke="#27314e" stroke-width="1"/>
<text x="58" y="127.00" text-anchor="end" fill="#93a4c3" font-family="Inter, Arial, sans-serif" font-size="12">33</text>
<line x1="70" x2="935" y1="60.00" y2="60.00" stroke="#27314e" stroke-width="1"/>
<text x="58" y="64.00" text-anchor="end" fill="#93a4c3" font-family="Inter, Arial, sans-serif" font-size="12">41</text>
<text x="70.00" y="412" text-anchor="middle" fill="#93a4c3" font-family="Inter, Arial, sans-serif" font-size="12">2025-10-10</text>
<text x="508.59" y="412" text-anchor="middle" fill="#93a4c3" font-family="Inter, Arial, sans-serif" font-size="12">2025-12-04</text>
<text x="935.00" y="412" text-anchor="middle" fill="#93a4c3" font-family="Inter, Arial, sans-serif" font-size="12">2026-01-27</text>
<path d="M 70.00 252.46 L 82.18 288.45 L 94.37 296.15 L 106.55 239.96 L 118.73 299.97 L 130.92 336.57 L 143.10 309.88 L 155.28 285.33 L 167.46 232.33 L 179.65 267.94 L 191.83 285.48 L 204.01 299.36 L 216.20 266.80 L 228.38 256.12 L 240.56 236.53 L 252.75 192.98 L 264.93 135.80 L 277.11 183.68 L 289.30 184.67 L 301.48 190.93 L 313.66 255.59 L 325.85 294.63 L 338.03 209.53 L 350.21 237.06 L 362.39 167.36 L 374.58 60.00 L 386.76 70.45 L 398.94 66.18 L 411.13 146.17 L 423.31 277.24 L 435.49 326.96 L 447.68 337.79 L 459.86 375.00 L 472.04 333.06 L 484.23 308.20 L 496.41 290.89 L 508.59 264.74 L 520.77 247.28 L 532.96 278.92 L 545.14 241.33 L 557.32 272.67 L 569.51 307.67 L 581.69 264.05 L 593.87 273.13 L 606.06 273.58 L 618.24 183.07 L 630.42 209.46 L 642.61 304.77 L 654.79 329.32 L 666.97 342.21 L 679.15 374.85 L 691.34 360.82 L 703.52 332.91 L 715.70 310.11 L 727.89 254.37 L 740.07 241.41 L 752.25 250.25 L 764.44 274.96 L 776.62 271.37 L 788.80 287.00 L 800.99 289.90 L 813.17 256.43 L 825.35 234.08 L 837.54 237.06 L 849.72 246.21 L 861.90 211.90 L 874.08 84.17 L 886.27 172.78 L 898.45 214.11 L 910.63 200.15 L 922.82 248.88 L 935.00 293.33" fill="none" stroke="#69a7ff" stroke-width="4" stroke-linecap="round" stroke-linejoin="round"/>
<circle cx="935.00" cy="293.33" r="6" fill="#69a7ff"/>
</svg>