<svg xmlns="http://www.w3.org/2000/svg" width="960" height="430" viewBox="0 0 960 430" role="img" aria-label="Composite score history">
<rect width="100%" height="100%" fill="#0b1020" rx="20"/>
<text x="70" y="32" fill="#f5f7fb" font-family="Inter, Arial, sans-serif" font-size="24" font-weight="700">Composite score history</text>
<text x="70" y="52" fill="#93a4c3" font-family="Inter, Arial, sans-serif" font-size="13">Trailing 76 sessions through 2026-01-27</text>
<line x1="70" x2="935" y1="375.00" y2="375.00" stroke="#27314e" stroke-width="1"/>
<text x="58" y="379.00" text-anchor="end" fill="#93a4c3" font-family="Inter, Arial, sans-serif" font-size="12">0</text>
<line x1="70" x2="935" y1="312.00" y2="312.00" stroke="#27314e" stroke-width="1"/>
<text x="58" y="316.00" text-anchor="end" fill="#93a4c3" font-family="Inter, Arial, sans-serif" font-size="12">8</text>
<line x1="70" x2="935" y1="249.00" y2="249.00" stroke="#27314e" stroke-width="1"/>
<text x="58" y="253.00" text-anchor="end" fill="#93a4c3" font-family="Inter, Arial, sans-serif" font-size="12">17</text>
<line x1="70" x2="935" y1="186.00" y2="186.00" stroke="#27314e" stroke-width="1"/>
<text x="58" y="190.00" text-anchor="end" fill="#93a4c3" font-family="Inter, Arial, sans-serif" font-size="12">25</text>
<line x1="70" x2="935" y1="123.00" y2="123.00" stroke="#27314e" stroke-width="1"/>
<text x="58" y="127.00" text-anchor="end" fill="#93a4c3" font-family="Inter, Arial, sans-serif" font-size="12">33</text>
<line x1="70" x2="935" y1="60.00" y2="60.00" stroke="#27314e" stroke-width="1"/>
<text x="58" y="64.00" text-anchor="end" fill="#93a4c3" font-family="Inter, Arial, sans-serif" font-size="12">41</text>
<text x="70.00" y="412" text-anchor="middle" fill="#93a4c3" font-family="Inter, Arial, sans-serif" font-size="12">2025-10-06</text>
<text x="508.27" y="412" text-anchor="middle" fill="#93a4c3" font-family="Inter, Arial, sans-serif" font-size="12">2025-12-02</text>
<text x="935.00" y="412" text-anchor="middle" fill="#93a4c3" font-family="Inter, Arial, sans-serif" font-size="12">2026-01-27</text>
<path d="M 70.00 275.72 L 81.53 246.44 L 93.07 275.95 L 104.60 267.03 L 116.13 108.42 L 127.67 175.75 L 139.20 212.66 L 150.73 109.03 L 162.27 196.19 L 173.80 336.57 L 185.33 309.88 L 196.87 285.33 L 208.40 232.33 L 219.93 267.94 L 231.47 285.48 L 243.00 299.36 L 254.53 266.80 L 266.07 256.12 L 277.60 236.53 L 289.13 192.98 L 300.67 135.80 L 312.20 183.68 L 323.73 184.67 L 335.27 190.93 L 346.80 255.59 L 358.33 294.63 L 369.87 209.53 L 381.40 237.06 L 392.93 167.36 L 404.47 60.00 L 416.00 70.45 L 427.53 66.18 L 439.07 146.17 L 450.60 277.24 L 462.13 326.96 L 473.67 337.79 L 485.20 375.00 L 496.73 333.06 L 508.27 308.20 L 519.80 290.89 L 531.33 264.74 L 542.87 247.28 L 554.40 278.92 L 565.93 241.33 L 577.47 272.67 L 589.00 307.67 L 600.53 264.05 L 612.07 273.13 L 623.60 273.58 L 635.13 183.07 L 646.67 209.46 L 658.20 304.77 L 669.73 329.32 L 681.27 342.21 L 692.80 374.85 L 704.33 360.82 L 715.87 332.91 L 727.40 310.11 L 738.93 254.37 L 750.47 241.41 L 762.00 250.25 L 773.53 274.96 L 785.07 271.37 L 796.60 287.00 L 808.13 289.90 L 819.67 256.43 L 831.20 234.08 L 842.73 237.06 L 854.27 246.21 L 865.80 211.90 L 877.33 84.17 L 888.87 172.78 L 900.40 214.11 L 911.93 200.15 L 923.47 248.88 L 935.00 293.33" fill="none" stroke="#69a7ff" stroke-width="4" stroke-linecap="round" stroke-linejoin="round"/>
<circle cx="935.00" cy="293.33" r="6" fill="#69a7ff"/>
</svg>