<svg xmlns="http://www.w3.org/2000/svg" width="960" height="430" viewBox="0 0 960 430" role="img" aria-label="Composite score history">
<rect width="100%" height="100%" fill="#0b1020" rx="20"/>
<text x="70" y="32" fill="#f5f7fb" font-family="Inter, Arial, sans-serif" font-size="24" font-weight="700">Composite score history</text>
<text x="70" y="52" fill="#93a4c3" font-family="Inter, Arial, sans-serif" font-size="13">Trailing 57 sessions through 2026-01-27</text>
<line x1="70" x2="935" y1="375.00" y2="375.00" stroke="#27314e" stroke-width="1"/>
<text x="58" y="379.00" text-anchor="end" fill="#93a4c3" font-family="Inter, Arial, sans-serif" font-size="12">0</text>
<line x1="70" x2="935" y1="312.00" y2="312.00" stroke="#27314e" stroke-width="1"/>
<text x="58" y="316.00" text-anchor="end" fill="#93a4c3" font-family="Inter, Arial, sans-serif" font-size="12">8</text>
<line x1="70" x2="935" y1="249.00" y2="249.00" stroke="#27314e" stroke-width="1"/>
<text x="58" y="253.00" text-anchor="end" fill="#93a4c3" font-family="Inter, Arial, sans-serif" font-size="12">17</text>
<line x1="70" x2="935" y1="186.00" y2="186.00" stroke="#27314e" stroke-width="1"/>
<text x="58" y="190.00" text-anchor="end" fill="#93a4c3" font-family="Inter, Arial, sans-serif" font-size="12">25</text>
<line x1="70" x2="935" y1="123.00" y2="123.00" stroke="#27314e" stroke-width="1"/>
<text x="58" y="127.00" text-anchor="end" fill="#93a4c3" font-family="Inter, Arial, sans-serif" font-size="12">33</text>
<line x1="70" x2="935" y1="60.00" y2="60.00" stroke="#27314e" stroke-width="1"/>
<text x="58" y="64.00" text-anchor="end" fill="#93a4c3" font-family="Inter, Arial, sans-serif" font-size="12">41</text>
<text x="70.00" y="412" text-anchor="middle" fill="#93a4c3" font-family="Inter, Arial, sans-serif" font-size="12">2025-11-03</text>
<text x="502.50" y="412" text-anchor="middle" fill="#93a4c3" font-family="Inter, Arial, sans-serif" font-size="12">2025-12-15</text>
<text x="935.00" y="412" text-anchor="middle" fill="#93a4c3" font-family="Inter, Arial, sans-serif" font-size="12">2026-01-27</text>
<path d="M 70.00 267.64 L 85.45 203.58 L 100.89 217.39 L 116.34 170.26 L 131.79 182.61 L 147.23 255.59 L 162.68 294.63 L 178.12 209.53 L 193.57 237.06 L 209.02 167.36 L 224.46 60.00 L 239.91 70.45 L 255.36 66.18 L 270.80 146.17 L 286.25 277.24 L 301.70 326.96 L 317.14 337.79 L 332.59 375.00 L 348.04 333.06 L 363.48 308.20 L 378.93 290.89 L 394.38 264.74 L 409.82 247.28 L 425.27 278.92 L 440.71 241.33 L 456.16 272.67 L 471.61 307.67 L 487.05 264.05 L 502.50 273.13 L 517.95 273.58 L 533.39 183.07 L 548.84 209.46 L 564.29 304.77 L 579.73 329.32 L 595.18 342.21 L 610.62 374.85 L 626.07 360.82 L 641.52 332.91 L 656.96 310.11 L 672.41 254.37 L 687.86 241.41 L 703.30 250.25 L 718.75 274.96 L 734.20 271.37 L 749.64 287.00 L 765.09 289.90 L 780.54 256.43 L 795.98 234.08 L 811.43 237.06 L 826.88 246.21 L 842.32 211.90 L 857.77 84.17 L 873.21 172.78 L 888.66 214.11 L 904.11 200.15 L 919.55 248.88 L 935.00 293.33" fill="none" stroke="#69a7ff" stroke-width="4" stroke-linecap="round" stroke-linejoin="round"/>
<circle cx="935.00" cy="293.33" r="6" fill="#69a7ff"/>
</svg>