<svg xmlns="http://www.w3.org/2000/svg" width="960" height="430" viewBox="0 0 960 430" role="img" aria-label="Composite score history">
<rect width="100%" height="100%" fill="#0b1020" rx="20"/>
<text x="70" y="32" fill="#f5f7fb" font-family="Inter, Arial, sans-serif" font-size="24" font-weight="700">Composite score history</text>
<text x="70" y="52" fill="#93a4c3" font-family="Inter, Arial, sans-serif" font-size="13">Trailing 82 sessions through 2026-01-27</text>
<line x1="70" x2="935" y1="375.00" y2="375.00" stroke="#27314e" stroke-width="1"/>
<text x="58" y="379.00" text-anchor="end" fill="#93a4c3" font-family="Inter, Arial, sans-serif" font-size="12">0</text>
<line x1="70" x2="935" y1="312.00" y2="312.00" stroke="#27314e" stroke-width="1"/>
<text x="58" y="316.00" text-anchor="end" fill="#93a4c3" font-family="Inter, Arial, sans-serif" font-size="12">8</text>
<line x1="70" x2="935" y1="249.00" y2="249.00" stroke="#27314e" stroke-width="1"/>
<text x="58" y="253.00" text-anchor="end" fill="#93a4c3" font-family="Inter, Arial, sans-serif" font-size="12">17</text>
<line x1="70" x2="935" y1="186.00" y2="186.00" stroke="#27314e" stroke-width="1"/>
<text x="58" y="190.00" text-anchor="end" fill="#93a4c3" font-family="Inter, Arial, sans-serif" font-size="12">25</text>
<line x1="70" x2="935" y1="123.00" y2="123.00" stroke="#27314e" stroke-width="1"/>
<text x="58" y="127.00" text-anchor="end" fill="#93a4c3" font-family="Inter, Arial, sans-serif" font-size="12">33</text>
<line x1="70" x2="935" y1="60.00" y2="60.00" stroke="#27314e" stroke-width="1"/>
<text x="58" y="64.00" text-anchor="end" fill="#93a4c3" font-family="Inter, Arial, sans-serif" font-size="12">41</text>
<text x="70.00" y="412" text-anchor="middle" fill="#93a4c3" font-family="Inter, Arial, sans-serif" font-size="12">2025-09-26</text>
<text x="507.84" y="412" text-anchor="middle" fill="#93a4c3" font-family="Inter, Arial, sans-serif" font-size="12">2025-11-26</text>
<text x="935.00" y="412" text-anchor="middle" fill="#93a4c3" font-family="Inter, Arial, sans-serif" font-size="12">2026-01-27</text>
<path d="M 70.00 275.87 L 80.68 271.30 L 91.36 277.40 L 102.04 289.75 L 112.72 288.83 L 123.40 286.01 L 134.07 296.54 L 144.75 271.60 L 155.43 278.85 L 166.11 256.96 L 176.79 123.98 L 187.47 175.75 L 198.15 212.66 L 208.83 109.03 L 219.51 196.19 L 230.19 336.57 L 240.86 309.88 L 251.54 285.33 L 262.22 232.33 L 272.90 267.94 L 283.58 285.48 L 294.26 299.36 L 304.94 266.80 L 315.62 256.12 L 326.30 236.53 L 336.98 192.98 L 347.65 135.80 L 358.33 183.68 L 369.01 184.67 L 379.69 190.93 L 390.37 255.59 L 401.05 294.63 L 411.73 209.53 L 422.41 237.06 L 433.09 167.36 L 443.77 60.00 L 454.44 70.45 L 465.12 66.18 L 475.80 146.17 L 486.48 277.24 L 497.16 326.96 L 507.84 337.79 L 518.52 375.00 L 529.20 333.06 L 539.88 308.20 L 550.56 290.89 L 561.23 264.74 L 571.91 247.28 L 582.59 278.92 L 593.27 241.33 L 603.95 272.67 L 614.63 307.67 L 625.31 264.05 L 635.99 273.13 L 646.67 273.58 L 657.35 183.07 L 668.02 209.46 L 678.70 304.77 L 689.38 329.32 L 700.06 342.21 L 710.74 374.85 L 721.42 360.82 L 732.10 332.91 L 742.78 310.11 L 753.46 254.37 L 764.14 241.41 L 774.81 250.25 L 785.49 274.96 L 796.17 271.37 L 806.85 287.00 L 817.53 289.90 L 828.21 256.43 L 838.89 234.08 L 849.57 237.06 L 860.25 246.21 L 870.93 211.90 L 881.60 84.17 L 892.28 172.78 L 902.96 214.11 L 913.64 200.15 L 924.32 248.88 L 935.00 293.33" fill="none" stroke="#69a7ff" stroke-width="4" stroke-linecap="round" stroke-linejoin="round"/>
<circle cx="935.00" cy="293.33" r="6" fill="#69a7ff"/>
</svg>