<svg xmlns="http://www.w3.org/2000/svg" width="960" height="430" viewBox="0 0 960 430" role="img" aria-label="Composite score history">
<rect width="100%" height="100%" fill="#0b1020" rx="20"/>
<text x="70" y="32" fill="#f5f7fb" font-family="Inter, Arial, sans-serif" font-size="24" font-weight="700">Composite score history</text>
<text x="70" y="52" fill="#93a4c3" font-family="Inter, Arial, sans-serif" font-size="13">Trailing 84 sessions through 2026-01-27</text>
<line x1="70" x2="935" y1="375.00" y2="375.00" stroke="#27314e" stroke-width="1"/>
<text x="58" y="379.00" text-anchor="end" fill="#93a4c3" font-family="Inter, Arial, sans-serif" font-size="12">0</text>
<line x1="70" x2="935" y1="312.00" y2="312.00" stroke="#27314e" stroke-width="1"/>
<text x="58" y="316.00" text-anchor="end" fill="#93a4c3" font-family="Inter, Arial, sans-serif" font-size="12">8</text>
<line x1="70" x2="935" y1="249.00" y2="249.00" stroke="#27314e" stroke-width="1"/>
<text x="58" y="253.00" text-anchor="end" fill="#93a4c3" font-family="Inter, Arial, sans-serif" font-size="12">17</text>
<line x1="70" x2="935" y1="186.00" y2="186.00" stroke="#27314e" stroke-width="1"/>
<text x="58" y="190.00" text-anchor="end" fill="#93a4c3" font-family="Inter, Arial, sans-serif" font-size="12">25</text>
<line x1="70" x2="935" y1="123.00" y2="123.00" stroke="#27314e" stroke-width="1"/>
<text x="58" y="127.00" text-anchor="end" fill="#93a4c3" font-family="Inter, Arial, sans-serif" font-size="12">33</text>
<line x1="70" x2="935" y1="60.00" y2="60.00" stroke="#27314e" stroke-width="1"/>
<text x="58" y="64.00" text-anchor="end" fill="#93a4c3" font-family="Inter, Arial, sans-serif" font-size="12">41</text>
<text x="70.00" y="412" text-anchor="middle" fill="#93a4c3" font-family="Inter, Arial, sans-serif" font-size="12">2025-09-24</text>
<text x="507.71" y="412" text-anchor="middle" fill="#93a4c3" font-family="Inter, Arial, sans-serif" font-size="12">2025-11-25</text>
<text x="935.00" y="412" text-anchor="middle" fill="#93a4c3" font-family="Inter, Arial, sans-serif" font-size="12">2026-01-27</text>
<path d="M 70.00 273.74 L 80.42 222.49 L 90.84 259.17 L 101.27 260.54 L 111.69 276.25 L 122.11 297.76 L 132.53 309.80 L 142.95 286.01 L 153.37 296.54 L 163.80 271.60 L 174.22 278.85 L 184.64 256.96 L 195.06 123.98 L 205.48 175.75 L 215.90 212.66 L 226.33 109.03 L 236.75 196.19 L 247.17 336.57 L 257.59 309.88 L 268.01 285.33 L 278.43 232.33 L 288.86 267.94 L 299.28 285.48 L 309.70 299.36 L 320.12 266.80 L 330.54 256.12 L 340.96 236.53 L 351.39 192.98 L 361.81 135.80 L 372.23 183.68 L 382.65 184.67 L 393.07 190.93 L 403.49 255.59 L 413.92 294.63 L 424.34 209.53 L 434.76 237.06 L 445.18 167.36 L 455.60 60.00 L 466.02 70.45 L 476.45 66.18 L 486.87 146.17 L 497.29 277.24 L 507.71 326.96 L 518.13 337.79 L 528.55 375.00 L 538.98 333.06 L 549.40 308.20 L 559.82 290.89 L 570.24 264.74 L 580.66 247.28 L 591.08 278.92 L 601.51 241.33 L 611.93 272.67 L 622.35 307.67 L 632.77 264.05 L 643.19 273.13 L 653.61 273.58 L 664.04 183.07 L 674.46 209.46 L 684.88 304.77 L 695.30 329.32 L 705.72 342.21 L 716.14 374.85 L 726.57 360.82 L 736.99 332.91 L 747.41 310.11 L 757.83 254.37 L 768.25 241.41 L 778.67 250.25 L 789.10 274.96 L 799.52 271.37 L 809.94 287.00 L 820.36 289.90 L 830.78 256.43 L 841.20 234.08 L 851.63 237.06 L 862.05 246.21 L 872.47 211.90 L 882.89 84.17 L 893.31 172.78 L 903.73 214.11 L 914.16 200.15 L 924.58 248.88 L 935.00 293.33" fill="none" stroke="#69a7ff" stroke-width="4" stroke-linecap="round" stroke-linejoin="round"/>
<circle cx="935.00" cy="293.33" r="6" fill="#69a7ff"/>
</svg>