<svg xmlns="http://www.w3.org/2000/svg" width="960" height="430" viewBox="0 0 960 430" role="img" aria-label="Composite score history">
<rect width="100%" height="100%" fill="#0b1020" rx="20"/>
<text x="70" y="32" fill="#f5f7fb" font-family="Inter, Arial, sans-serif" font-size="24" font-weight="700">Composite score history</text>
<text x="70" y="52" fill="#93a4c3" font-family="Inter, Arial, sans-serif" font-size="13">Trailing 81 sessions through 2025-11-19</text>
<line x1="70" x2="935" y1="375.00" y2="375.00" stroke="#27314e" stroke-width="1"/>
<text x="58" y="379.00" text-anchor="end" fill="#93a4c3" font-family="Inter, Arial, sans-serif" font-size="12">5</text>
<line x1="70" x2="935" y1="312.00" y2="312.00" stroke="#27314e" stroke-width="1"/>
<text x="58" y="316.00" text-anchor="end" fill="#93a4c3" font-family="Inter, Arial, sans-serif" font-size="12">12</text>
<line x1="70" x2="935" y1="249.00" y2="249.00" stroke="#27314e" stroke-width="1"/>
<text x="58" y="253.00" text-anchor="end" fill="#93a4c3" font-family="Inter, Arial, sans-serif" font-size="12">20</text>
<line x1="70" x2="935" y1="186.00" y2="186.00" stroke="#27314e" stroke-width="1"/>
<text x="58" y="190.00" text-anchor="end" fill="#93a4c3" font-family="Inter, Arial, sans-serif" font-size="12">27</text>
<line x1="70" x2="935" y1="123.00" y2="123.00" stroke="#27314e" stroke-width="1"/>
<text x="58" y="127.00" text-anchor="end" fill="#93a4c3" font-family="Inter, Arial, sans-serif" font-size="12">34</text>
<line x1="70" x2="935" y1="60.00" y2="60.00" stroke="#27314e" stroke-width="1"/>
<text x="58" y="64.00" text-anchor="end" fill="#93a4c3" font-family="Inter, Arial, sans-serif" font-size="12">41</text>
<text x="70.00" y="412" text-anchor="middle" fill="#93a4c3" font-family="Inter, Arial, sans-serif" font-size="12">2025-07-25</text>
<text x="502.50" y="412" text-anchor="middle" fill="#93a4c3" font-family="Inter, Arial, sans-serif" font-size="12">2025-09-22</text>
<text x="935.00" y="412" text-anchor="middle" fill="#93a4c3" font-family="Inter, Arial, sans-serif" font-size="12">2025-11-19</text>
<path d="M 70.00 285.46 L 80.81 284.42 L 91.62 255.15 L 102.44 242.03 L 113.25 214.76 L 124.06 127.13 L 134.88 227.97 L 145.69 220.93 L 156.50 272.52 L 167.31 293.71 L 178.12 287.63 L 188.94 255.67 L 199.75 344.86 L 210.56 341.65 L 221.38 329.58 L 232.19 320.72 L 243.00 322.02 L 253.81 260.53 L 264.62 217.80 L 275.44 183.15 L 286.25 281.90 L 297.06 257.23 L 307.88 271.74 L 318.69 286.33 L 329.50 326.19 L 340.31 287.46 L 351.12 248.46 L 361.94 268.78 L 372.75 308.73 L 383.56 293.80 L 394.38 328.10 L 405.19 344.26 L 416.00 340.17 L 426.81 345.82 L 437.62 330.45 L 448.44 327.75 L 459.25 326.36 L 470.06 319.07 L 480.88 280.25 L 491.69 319.94 L 502.50 295.36 L 513.31 309.95 L 524.12 294.67 L 534.94 245.07 L 545.75 271.56 L 556.56 273.47 L 567.38 287.02 L 578.19 330.79 L 589.00 344.52 L 599.81 317.42 L 610.62 329.40 L 621.44 301.00 L 632.25 309.26 L 643.06 284.33 L 653.88 132.87 L 664.69 191.84 L 675.50 233.87 L 686.31 115.84 L 697.12 215.11 L 707.94 375.00 L 718.75 344.60 L 729.56 316.64 L 740.38 256.28 L 751.19 296.84 L 762.00 316.81 L 772.81 332.62 L 783.62 295.53 L 794.44 283.37 L 805.25 261.05 L 816.06 211.46 L 826.88 146.33 L 837.69 200.87 L 848.50 202.00 L 859.31 209.12 L 870.12 282.77 L 880.94 327.23 L 891.75 230.31 L 902.56 261.66 L 913.38 182.28 L 924.19 60.00 L 935.00 71.90" fill="none" stroke="#69a7ff" stroke-width="4" stroke-linecap="round" stroke-linejoin="round"/>
<circle cx="935.00" cy="71.90" r="6" fill="#69a7ff"/>
</svg>