<svg xmlns="http://www.w3.org/2000/svg" width="960" height="430" viewBox="0 0 960 430" role="img" aria-label="Composite score history">
<rect width="100%" height="100%" fill="#0b1020" rx="20"/>
<text x="70" y="32" fill="#f5f7fb" font-family="Inter, Arial, sans-serif" font-size="24" font-weight="700">Composite score history</text>
<text x="70" y="52" fill="#93a4c3" font-family="Inter, Arial, sans-serif" font-size="13">Trailing 86 sessions through 2025-11-19</text>
<line x1="70" x2="935" y1="375.00" y2="375.00" stroke="#27314e" stroke-width="1"/>
<text x="58" y="379.00" text-anchor="end" fill="#93a4c3" font-family="Inter, Arial, sans-serif" font-size="12">5</text>
<line x1="70" x2="935" y1="312.00" y2="312.00" stroke="#27314e" stroke-width="1"/>
<text x="58" y="316.00" text-anchor="end" fill="#93a4c3" font-family="Inter, Arial, sans-serif" font-size="12">12</text>
<line x1="70" x2="935" y1="249.00" y2="249.00" stroke="#27314e" stroke-width="1"/>
<text x="58" y="253.00" text-anchor="end" fill="#93a4c3" font-family="Inter, Arial, sans-serif" font-size="12">20</text>
<line x1="70" x2="935" y1="186.00" y2="186.00" stroke="#27314e" stroke-width="1"/>
<text x="58" y="190.00" text-anchor="end" fill="#93a4c3" font-family="Inter, Arial, sans-serif" font-size="12">27</text>
<line x1="70" x2="935" y1="123.00" y2="123.00" stroke="#27314e" stroke-width="1"/>
<text x="58" y="127.00" text-anchor="end" fill="#93a4c3" font-family="Inter, Arial, sans-serif" font-size="12">34</text>
<line x1="70" x2="935" y1="60.00" y2="60.00" stroke="#27314e" stroke-width="1"/>
<text x="58" y="64.00" text-anchor="end" fill="#93a4c3" font-family="Inter, Arial, sans-serif" font-size="12">41</text>
<text x="70.00" y="412" text-anchor="middle" fill="#93a4c3" font-family="Inter, Arial, sans-serif" font-size="12">2025-07-18</text>
<text x="507.59" y="412" text-anchor="middle" fill="#93a4c3" font-family="Inter, Arial, sans-serif" font-size="12">2025-09-18</text>
<text x="935.00" y="412" text-anchor="middle" fill="#93a4c3" font-family="Inter, Arial, sans-serif" font-size="12">2025-11-19</text>
<path d="M 70.00 273.56 L 80.18 276.08 L 90.35 283.46 L 100.53 309.60 L 110.71 291.02 L 120.88 306.74 L 131.06 293.01 L 141.24 286.50 L 151.41 241.08 L 161.59 235.61 L 171.76 127.13 L 181.94 227.97 L 192.12 220.93 L 202.29 272.52 L 212.47 293.71 L 222.65 287.63 L 232.82 255.67 L 243.00 344.86 L 253.18 341.65 L 263.35 329.58 L 273.53 320.72 L 283.71 322.02 L 293.88 260.53 L 304.06 217.80 L 314.24 183.15 L 324.41 281.90 L 334.59 257.23 L 344.76 271.74 L 354.94 286.33 L 365.12 326.19 L 375.29 287.46 L 385.47 248.46 L 395.65 268.78 L 405.82 308.73 L 416.00 293.80 L 426.18 328.10 L 436.35 344.26 L 446.53 340.17 L 456.71 345.82 L 466.88 330.45 L 477.06 327.75 L 487.24 326.36 L 497.41 319.07 L 507.59 280.25 L 517.76 319.94 L 527.94 295.36 L 538.12 309.95 L 548.29 294.67 L 558.47 245.07 L 568.65 271.56 L 578.82 273.47 L 589.00 287.02 L 599.18 330.79 L 609.35 344.52 L 619.53 317.42 L 629.71 329.40 L 639.88 301.00 L 650.06 309.26 L 660.24 284.33 L 670.41 132.87 L 680.59 191.84 L 690.76 233.87 L 700.94 115.84 L 711.12 215.11 L 721.29 375.00 L 731.47 344.60 L 741.65 316.64 L 751.82 256.28 L 762.00 296.84 L 772.18 316.81 L 782.35 332.62 L 792.53 295.53 L 802.71 283.37 L 812.88 261.05 L 823.06 211.46 L 833.24 146.33 L 843.41 200.87 L 853.59 202.00 L 863.76 209.12 L 873.94 282.77 L 884.12 327.23 L 894.29 230.31 L 904.47 261.66 L 914.65 182.28 L 924.82 60.00 L 935.00 71.90" fill="none" stroke="#69a7ff" stroke-width="4" stroke-linecap="round" stroke-linejoin="round"/>
<circle cx="935.00" cy="71.90" r="6" fill="#69a7ff"/>
</svg>