<svg xmlns="http://www.w3.org/2000/svg" width="960" height="430" viewBox="0 0 960 430" role="img" aria-label="Composite score history">
<rect width="100%" height="100%" fill="#0b1020" rx="20"/>
<text x="70" y="32" fill="#f5f7fb" font-family="Inter, Arial, sans-serif" font-size="24" font-weight="700">Composite score history</text>
<text x="70" y="52" fill="#93a4c3" font-family="Inter, Arial, sans-serif" font-size="13">Trailing 65 sessions through 2025-11-19</text>
<line x1="70" x2="935" y1="375.00" y2="375.00" stroke="#27314e" stroke-width="1"/>
<text x="58" y="379.00" text-anchor="end" fill="#93a4c3" font-family="Inter, Arial, sans-serif" font-size="12">5</text>
<line x1="70" x2="935" y1="312.00" y2="312.00" stroke="#27314e" stroke-width="1"/>
<text x="58" y="316.00" text-anchor="end" fill="#93a4c3" font-family="Inter, Arial, sans-serif" font-size="12">12</text>
<line x1="70" x2="935" y1="249.00" y2="249.00" stroke="#27314e" stroke-width="1"/>
<text x="58" y="253.00" text-anchor="end" fill="#93a4c3" font-family="Inter, Arial, sans-serif" font-size="12">20</text>
<line x1="70" x2="935" y1="186.00" y2="186.00" stroke="#27314e" stroke-width="1"/>
<text x="58" y="190.00" text-anchor="end" fill="#93a4c3" font-family="Inter, Arial, sans-serif" font-size="12">27</text>
<line x1="70" x2="935" y1="123.00" y2="123.00" stroke="#27314e" stroke-width="1"/>
<text x="58" y="127.00" text-anchor="end" fill="#93a4c3" font-family="Inter, Arial, sans-serif" font-size="12">34</text>
<line x1="70" x2="935" y1="60.00" y2="60.00" stroke="#27314e" stroke-width="1"/>
<text x="58" y="64.00" text-anchor="end" fill="#93a4c3" font-family="Inter, Arial, sans-serif" font-size="12">41</text>
<text x="70.00" y="412" text-anchor="middle" fill="#93a4c3" font-family="Inter, Arial, sans-serif" font-size="12">2025-08-18</text>
<text x="502.50" y="412" text-anchor="middle" fill="#93a4c3" font-family="Inter, Arial, sans-serif" font-size="12">2025-10-02</text>
<text x="935.00" y="412" text-anchor="middle" fill="#93a4c3" font-family="Inter, Arial, sans-serif" font-size="12">2025-11-19</text>
<path d="M 70.00 299.70 L 83.52 270.78 L 97.03 257.75 L 110.55 203.39 L 124.06 282.16 L 137.58 257.23 L 151.09 271.74 L 164.61 286.33 L 178.12 326.19 L 191.64 287.46 L 205.16 248.46 L 218.67 268.78 L 232.19 308.73 L 245.70 293.80 L 259.22 328.10 L 272.73 344.26 L 286.25 340.17 L 299.77 345.82 L 313.28 330.45 L 326.80 327.75 L 340.31 326.36 L 353.83 319.07 L 367.34 280.25 L 380.86 319.94 L 394.38 295.36 L 407.89 309.95 L 421.41 294.67 L 434.92 245.07 L 448.44 271.56 L 461.95 273.47 L 475.47 287.02 L 488.98 330.79 L 502.50 344.52 L 516.02 317.42 L 529.53 329.40 L 543.05 301.00 L 556.56 309.26 L 570.08 284.33 L 583.59 132.87 L 597.11 191.84 L 610.62 233.87 L 624.14 115.84 L 637.66 215.11 L 651.17 375.00 L 664.69 344.60 L 678.20 316.64 L 691.72 256.28 L 705.23 296.84 L 718.75 316.81 L 732.27 332.62 L 745.78 295.53 L 759.30 283.37 L 772.81 261.05 L 786.33 211.46 L 799.84 146.33 L 813.36 200.87 L 826.88 202.00 L 840.39 209.12 L 853.91 282.77 L 867.42 327.23 L 880.94 230.31 L 894.45 261.66 L 907.97 182.28 L 921.48 60.00 L 935.00 71.90" fill="none" stroke="#69a7ff" stroke-width="4" stroke-linecap="round" stroke-linejoin="round"/>
<circle cx="935.00" cy="71.90" r="6" fill="#69a7ff"/>
</svg>