<svg xmlns="http://www.w3.org/2000/svg" width="960" height="430" viewBox="0 0 960 430" role="img" aria-label="Composite score history">
<rect width="100%" height="100%" fill="#0b1020" rx="20"/>
<text x="70" y="32" fill="#f5f7fb" font-family="Inter, Arial, sans-serif" font-size="24" font-weight="700">Composite score history</text>
<text x="70" y="52" fill="#93a4c3" font-family="Inter, Arial, sans-serif" font-size="13">Trailing 80 sessions through 2025-11-19</text>
<line x1="70" x2="935" y1="375.00" y2="375.00" stroke="#27314e" stroke-width="1"/>
<text x="58" y="379.00" text-anchor="end" fill="#93a4c3" font-family="Inter, Arial, sans-serif" font-size="12">5</text>
<line x1="70" x2="935" y1="312.00" y2="312.00" stroke="#27314e" stroke-width="1"/>
<text x="58" y="316.00" text-anchor="end" fill="#93a4c3" font-family="Inter, Arial, sans-serif" font-size="12">12</text>
<line x1="70" x2="935" y1="249.00" y2="249.00" stroke="#27314e" stroke-width="1"/>
<text x="58" y="253.00" text-anchor="end" fill="#93a4c3" font-family="Inter, Arial, sans-serif" font-size="12">20</text>
<line x1="70" x2="935" y1="186.00" y2="186.00" stroke="#27314e" stroke-width="1"/>
<text x="58" y="190.00" text-anchor="end" fill="#93a4c3" font-family="Inter, Arial, sans-serif" font-size="12">27</text>
<line x1="70" x2="935" y1="123.00" y2="123.00" stroke="#27314e" stroke-width="1"/>
<text x="58" y="127.00" text-anchor="end" fill="#93a4c3" font-family="Inter, Arial, sans-serif" font-size="12">34</text>
<line x1="70" x2="935" y1="60.00" y2="60.00" stroke="#27314e" stroke-width="1"/>
<text x="58" y="64.00" text-anchor="end" fill="#93a4c3" font-family="Inter, Arial, sans-serif" font-size="12">41</text>
<text x="70.00" y="412" text-anchor="middle" fill="#93a4c3" font-family="Inter, Arial, sans-serif" font-size="12">2025-07-28</text>
<text x="507.97" y="412" text-anchor="middle" fill="#93a4c3" font-family="Inter, Arial, sans-serif" font-size="12">2025-09-23</text>
<text x="935.00" y="412" text-anchor="middle" fill="#93a4c3" font-family="Inter, Arial, sans-serif" font-size="12">2025-11-19</text>
<path d="M 70.00 284.85 L 80.95 255.24 L 91.90 242.12 L 102.85 214.76 L 113.80 127.22 L 124.75 227.97 L 135.70 220.93 L 146.65 272.52 L 157.59 293.71 L 168.54 287.63 L 179.49 255.67 L 190.44 344.86 L 201.39 341.65 L 212.34 329.58 L 223.29 320.72 L 234.24 322.02 L 245.19 260.53 L 256.14 217.80 L 267.09 183.15 L 278.04 281.90 L 288.99 257.23 L 299.94 271.74 L 310.89 286.33 L 321.84 326.19 L 332.78 287.46 L 343.73 248.46 L 354.68 268.78 L 365.63 308.73 L 376.58 293.80 L 387.53 328.10 L 398.48 344.26 L 409.43 340.17 L 420.38 345.82 L 431.33 330.45 L 442.28 327.75 L 453.23 326.36 L 464.18 319.07 L 475.13 280.25 L 486.08 319.94 L 497.03 295.36 L 507.97 309.95 L 518.92 294.67 L 529.87 245.07 L 540.82 271.56 L 551.77 273.47 L 562.72 287.02 L 573.67 330.79 L 584.62 344.52 L 595.57 317.42 L 606.52 329.40 L 617.47 301.00 L 628.42 309.26 L 639.37 284.33 L 650.32 132.87 L 661.27 191.84 L 672.22 233.87 L 683.16 115.84 L 694.11 215.11 L 705.06 375.00 L 716.01 344.60 L 726.96 316.64 L 737.91 256.28 L 748.86 296.84 L 759.81 316.81 L 770.76 332.62 L 781.71 295.53 L 792.66 283.37 L 803.61 261.05 L 814.56 211.46 L 825.51 146.33 L 836.46 200.87 L 847.41 202.00 L 858.35 209.12 L 869.30 282.77 L 880.25 327.23 L 891.20 230.31 L 902.15 261.66 L 913.10 182.28 L 924.05 60.00 L 935.00 71.90" fill="none" stroke="#69a7ff" stroke-width="4" stroke-linecap="round" stroke-linejoin="round"/>
<circle cx="935.00" cy="71.90" r="6" fill="#69a7ff"/>
</svg>