<svg xmlns="http://www.w3.org/2000/svg" width="960" height="430" viewBox="0 0 960 430" role="img" aria-label="Composite score history">
<rect width="100%" height="100%" fill="#0b1020" rx="20"/>
<text x="70" y="32" fill="#f5f7fb" font-family="Inter, Arial, sans-serif" font-size="24" font-weight="700">Composite score history</text>
<text x="70" y="52" fill="#93a4c3" font-family="Inter, Arial, sans-serif" font-size="13">Trailing 60 sessions through 2025-11-19</text>
<line x1="70" x2="935" y1="375.00" y2="375.00" stroke="#27314e" stroke-width="1"/>
<text x="58" y="379.00" text-anchor="end" fill="#93a4c3" font-family="Inter, Arial, sans-serif" font-size="12">5</text>
<line x1="70" x2="935" y1="312.00" y2="312.00" stroke="#27314e" stroke-width="1"/>
<text x="58" y="316.00" text-anchor="end" fill="#93a4c3" font-family="Inter, Arial, sans-serif" font-size="12">12</text>
<line x1="70" x2="935" y1="249.00" y2="249.00" stroke="#27314e" stroke-width="1"/>
<text x="58" y="253.00" text-anchor="end" fill="#93a4c3" font-family="Inter, Arial, sans-serif" font-size="12">20</text>
<line x1="70" x2="935" y1="186.00" y2="186.00" stroke="#27314e" stroke-width="1"/>
<text x="58" y="190.00" text-anchor="end" fill="#93a4c3" font-family="Inter, Arial, sans-serif" font-size="12">27</text>
<line x1="70" x2="935" y1="123.00" y2="123.00" stroke="#27314e" stroke-width="1"/>
<text x="58" y="127.00" text-anchor="end" fill="#93a4c3" font-family="Inter, Arial, sans-serif" font-size="12">34</text>
<line x1="70" x2="935" y1="60.00" y2="60.00" stroke="#27314e" stroke-width="1"/>
<text x="58" y="64.00" text-anchor="end" fill="#93a4c3" font-family="Inter, Arial, sans-serif" font-size="12">41</text>
<text x="70.00" y="412" text-anchor="middle" fill="#93a4c3" font-family="Inter, Arial, sans-serif" font-size="12">2025-08-25</text>
<text x="509.83" y="412" text-anchor="middle" fill="#93a4c3" font-family="Inter, Arial, sans-serif" font-size="12">2025-10-07</text>
<text x="935.00" y="412" text-anchor="middle" fill="#93a4c3" font-family="Inter, Arial, sans-serif" font-size="12">2025-11-19</text>
<path d="M 70.00 294.23 L 84.66 305.61 L 99.32 310.04 L 113.98 324.11 L 128.64 303.61 L 143.31 248.46 L 157.97 268.78 L 172.63 308.73 L 187.29 293.80 L 201.95 328.10 L 216.61 344.26 L 231.27 340.17 L 245.93 345.82 L 260.59 330.45 L 275.25 327.75 L 289.92 326.36 L 304.58 319.07 L 319.24 280.25 L 333.90 319.94 L 348.56 295.36 L 363.22 309.95 L 377.88 294.67 L 392.54 245.07 L 407.20 271.56 L 421.86 273.47 L 436.53 287.02 L 451.19 330.79 L 465.85 344.52 L 480.51 317.42 L 495.17 329.40 L 509.83 301.00 L 524.49 309.26 L 539.15 284.33 L 553.81 132.87 L 568.47 191.84 L 583.14 233.87 L 597.80 115.84 L 612.46 215.11 L 627.12 375.00 L 641.78 344.60 L 656.44 316.64 L 671.10 256.28 L 685.76 296.84 L 700.42 316.81 L 715.08 332.62 L 729.75 295.53 L 744.41 283.37 L 759.07 261.05 L 773.73 211.46 L 788.39 146.33 L 803.05 200.87 L 817.71 202.00 L 832.37 209.12 L 847.03 282.77 L 861.69 327.23 L 876.36 230.31 L 891.02 261.66 L 905.68 182.28 L 920.34 60.00 L 935.00 71.90" fill="none" stroke="#69a7ff" stroke-width="4" stroke-linecap="round" stroke-linejoin="round"/>
<circle cx="935.00" cy="71.90" r="6" fill="#69a7ff"/>
</svg>