<svg xmlns="http://www.w3.org/2000/svg" width="960" height="430" viewBox="0 0 960 430" role="img" aria-label="Composite score history">
<rect width="100%" height="100%" fill="#0b1020" rx="20"/>
<text x="70" y="32" fill="#f5f7fb" font-family="Inter, Arial, sans-serif" font-size="24" font-weight="700">Composite score history</text>
<text x="70" y="52" fill="#93a4c3" font-family="Inter, Arial, sans-serif" font-size="13">Trailing 69 sessions through 2025-11-19</text>
<line x1="70" x2="935" y1="375.00" y2="375.00" stroke="#27314e" stroke-width="1"/>
<text x="58" y="379.00" text-anchor="end" fill="#93a4c3" font-family="Inter, Arial, sans-serif" font-size="12">5</text>
<line x1="70" x2="935" y1="312.00" y2="312.00" stroke="#27314e" stroke-width="1"/>
<text x="58" y="316.00" text-anchor="end" fill="#93a4c3" font-family="Inter, Arial, sans-serif" font-size="12">12</text>
<line x1="70" x2="935" y1="249.00" y2="249.00" stroke="#27314e" stroke-width="1"/>
<text x="58" y="253.00" text-anchor="end" fill="#93a4c3" font-family="Inter, Arial, sans-serif" font-size="12">20</text>
<line x1="70" x2="935" y1="186.00" y2="186.00" stroke="#27314e" stroke-width="1"/>
<text x="58" y="190.00" text-anchor="end" fill="#93a4c3" font-family="Inter, Arial, sans-serif" font-size="12">27</text>
<line x1="70" x2="935" y1="123.00" y2="123.00" stroke="#27314e" stroke-width="1"/>
<text x="58" y="127.00" text-anchor="end" fill="#93a4c3" font-family="Inter, Arial, sans-serif" font-size="12">34</text>
<line x1="70" x2="935" y1="60.00" y2="60.00" stroke="#27314e" stroke-width="1"/>
<text x="58" y="64.00" text-anchor="end" fill="#93a4c3" font-family="Inter, Arial, sans-serif" font-size="12">41</text>
<text x="70.00" y="412" text-anchor="middle" fill="#93a4c3" font-family="Inter, Arial, sans-serif" font-size="12">2025-08-12</text>
<text x="502.50" y="412" text-anchor="middle" fill="#93a4c3" font-family="Inter, Arial, sans-serif" font-size="12">2025-09-30</text>
<text x="935.00" y="412" text-anchor="middle" fill="#93a4c3" font-family="Inter, Arial, sans-serif" font-size="12">2025-11-19</text>
<path d="M 70.00 303.00 L 82.72 315.77 L 95.44 301.09 L 108.16 288.24 L 120.88 281.38 L 133.60 260.53 L 146.32 217.80 L 159.04 183.15 L 171.76 281.90 L 184.49 257.23 L 197.21 271.74 L 209.93 286.33 L 222.65 326.19 L 235.37 287.46 L 248.09 248.46 L 260.81 268.78 L 273.53 308.73 L 286.25 293.80 L 298.97 328.10 L 311.69 344.26 L 324.41 340.17 L 337.13 345.82 L 349.85 330.45 L 362.57 327.75 L 375.29 326.36 L 388.01 319.07 L 400.74 280.25 L 413.46 319.94 L 426.18 295.36 L 438.90 309.95 L 451.62 294.67 L 464.34 245.07 L 477.06 271.56 L 489.78 273.47 L 502.50 287.02 L 515.22 330.79 L 527.94 344.52 L 540.66 317.42 L 553.38 329.40 L 566.10 301.00 L 578.82 309.26 L 591.54 284.33 L 604.26 132.87 L 616.99 191.84 L 629.71 233.87 L 642.43 115.84 L 655.15 215.11 L 667.87 375.00 L 680.59 344.60 L 693.31 316.64 L 706.03 256.28 L 718.75 296.84 L 731.47 316.81 L 744.19 332.62 L 756.91 295.53 L 769.63 283.37 L 782.35 261.05 L 795.07 211.46 L 807.79 146.33 L 820.51 200.87 L 833.24 202.00 L 845.96 209.12 L 858.68 282.77 L 871.40 327.23 L 884.12 230.31 L 896.84 261.66 L 909.56 182.28 L 922.28 60.00 L 935.00 71.90" fill="none" stroke="#69a7ff" stroke-width="4" stroke-linecap="round" stroke-linejoin="round"/>
<circle cx="935.00" cy="71.90" r="6" fill="#69a7ff"/>
</svg>