<svg xmlns="http://www.w3.org/2000/svg" width="960" height="430" viewBox="0 0 960 430" role="img" aria-label="Composite score history">
<rect width="100%" height="100%" fill="#0b1020" rx="20"/>
<text x="70" y="32" fill="#f5f7fb" font-family="Inter, Arial, sans-serif" font-size="24" font-weight="700">Composite score history</text>
<text x="70" y="52" fill="#93a4c3" font-family="Inter, Arial, sans-serif" font-size="13">Trailing 89 sessions through 2025-11-19</text>
<line x1="70" x2="935" y1="375.00" y2="375.00" stroke="#27314e" stroke-width="1"/>
<text x="58" y="379.00" text-anchor="end" fill="#93a4c3" font-family="Inter, Arial, sans-serif" font-size="12">2</text>
<line x1="70" x2="935" y1="312.00" y2="312.00" stroke="#27314e" stroke-width="1"/>
<text x="58" y="316.00" text-anchor="end" fill="#93a4c3" font-family="Inter, Arial, sans-serif" font-size="12">8</text>
<line x1="70" x2="935" y1="249.00" y2="249.00" stroke="#27314e" stroke-width="1"/>
<text x="58" y="253.00" text-anchor="end" fill="#93a4c3" font-family="Inter, Arial, sans-serif" font-size="12">14</text>
<line x1="70" x2="935" y1="186.00" y2="186.00" stroke="#27314e" stroke-width="1"/>
<text x="58" y="190.00" text-anchor="end" fill="#93a4c3" font-family="Inter, Arial, sans-serif" font-size="12">20</text>
<line x1="70" x2="935" y1="123.00" y2="123.00" stroke="#27314e" stroke-width="1"/>
<text x="58" y="127.00" text-anchor="end" fill="#93a4c3" font-family="Inter, Arial, sans-serif" font-size="12">26</text>
<line x1="70" x2="935" y1="60.00" y2="60.00" stroke="#27314e" stroke-width="1"/>
<text x="58" y="64.00" text-anchor="end" fill="#93a4c3" font-family="Inter, Arial, sans-serif" font-size="12">32</text>
<text x="70.00" y="412" text-anchor="middle" fill="#93a4c3" font-family="Inter, Arial, sans-serif" font-size="12">2025-07-15</text>
<text x="502.50" y="412" text-anchor="middle" fill="#93a4c3" font-family="Inter, Arial, sans-serif" font-size="12">2025-09-16</text>
<text x="935.00" y="412" text-anchor="middle" fill="#93a4c3" font-family="Inter, Arial, sans-serif" font-size="12">2025-11-19</text>
<path d="M 70.00 353.68 L 79.83 342.33 L 89.66 294.86 L 99.49 335.09 L 109.32 346.33 L 119.15 360.72 L 128.98 369.75 L 138.81 369.54 L 148.64 341.70 L 158.47 309.46 L 168.30 320.17 L 178.12 252.21 L 187.95 294.54 L 197.78 152.22 L 207.61 278.79 L 217.44 272.38 L 227.27 331.10 L 237.10 360.09 L 246.93 192.87 L 256.76 223.54 L 266.59 348.53 L 276.42 350.53 L 286.25 326.79 L 296.08 371.95 L 305.91 362.29 L 315.74 300.32 L 325.57 224.27 L 335.40 196.97 L 345.23 300.11 L 355.06 274.48 L 364.89 231.31 L 374.72 242.55 L 384.55 311.56 L 394.38 353.15 L 404.20 312.50 L 414.03 330.47 L 423.86 365.86 L 433.69 347.38 L 443.52 371.74 L 453.35 372.37 L 463.18 369.85 L 473.01 375.00 L 482.84 322.06 L 492.67 308.93 L 502.50 348.85 L 512.33 336.98 L 522.16 265.45 L 531.99 338.66 L 541.82 273.22 L 551.65 335.82 L 561.48 306.20 L 571.31 253.47 L 581.14 291.08 L 590.97 317.02 L 600.80 288.87 L 610.62 361.24 L 620.45 359.66 L 630.28 346.12 L 640.11 359.24 L 649.94 345.28 L 659.77 330.68 L 669.60 282.46 L 679.43 142.45 L 689.26 207.78 L 699.09 260.09 L 708.92 104.64 L 718.75 228.16 L 728.58 346.85 L 738.41 349.69 L 748.24 343.91 L 758.07 110.10 L 767.90 196.34 L 777.73 227.22 L 787.56 261.56 L 797.39 144.66 L 807.22 220.91 L 817.05 216.61 L 826.88 145.50 L 836.70 82.48 L 846.53 197.70 L 856.36 232.68 L 866.19 238.35 L 876.02 332.67 L 885.85 352.63 L 895.68 267.65 L 905.51 265.13 L 915.34 171.55 L 925.17 60.00 L 935.00 61.89" fill="none" stroke="#69a7ff" stroke-width="4" stroke-linecap="round" stroke-linejoin="round"/>
<circle cx="935.00" cy="61.89" r="6" fill="#69a7ff"/>
<text x="927.00" y="49.89" text-anchor="end" fill="#f5f7fb" font-family="Inter, Arial, sans-serif" font-size="12" font-weight="600">31.87</text>
</svg>