<svg xmlns="http://www.w3.org/2000/svg" width="960" height="430" viewBox="0 0 960 430" role="img" aria-label="Composite score history">
<rect width="100%" height="100%" fill="#0b1020" rx="20"/>
<text x="70" y="32" fill="#f5f7fb" font-family="Inter, Arial, sans-serif" font-size="24" font-weight="700">Composite score history</text>
<text x="70" y="52" fill="#93a4c3" font-family="Inter, Arial, sans-serif" font-size="13">Trailing 88 sessions through 2025-11-19</text>
<line x1="70" x2="935" y1="375.00" y2="375.00" stroke="#27314e" stroke-width="1"/>
<text x="58" y="379.00" text-anchor="end" fill="#93a4c3" font-family="Inter, Arial, sans-serif" font-size="12">12</text>
<line x1="70" x2="935" y1="312.00" y2="312.00" stroke="#27314e" stroke-width="1"/>
<text x="58" y="316.00" text-anchor="end" fill="#93a4c3" font-family="Inter, Arial, sans-serif" font-size="12">18</text>
<line x1="70" x2="935" y1="249.00" y2="249.00" stroke="#27314e" stroke-width="1"/>
<text x="58" y="253.00" text-anchor="end" fill="#93a4c3" font-family="Inter, Arial, sans-serif" font-size="12">24</text>
<line x1="70" x2="935" y1="186.00" y2="186.00" stroke="#27314e" stroke-width="1"/>
<text x="58" y="190.00" text-anchor="end" fill="#93a4c3" font-family="Inter, Arial, sans-serif" font-size="12">29</text>
<line x1="70" x2="935" y1="123.00" y2="123.00" stroke="#27314e" stroke-width="1"/>
<text x="58" y="127.00" text-anchor="end" fill="#93a4c3" font-family="Inter, Arial, sans-serif" font-size="12">35</text>
<line x1="70" x2="935" y1="60.00" y2="60.00" stroke="#27314e" stroke-width="1"/>
<text x="58" y="64.00" text-anchor="end" fill="#93a4c3" font-family="Inter, Arial, sans-serif" font-size="12">41</text>
<text x="70.00" y="412" text-anchor="middle" fill="#93a4c3" font-family="Inter, Arial, sans-serif" font-size="12">2025-07-16</text>
<text x="507.47" y="412" text-anchor="middle" fill="#93a4c3" font-family="Inter, Arial, sans-serif" font-size="12">2025-09-17</text>
<text x="935.00" y="412" text-anchor="middle" fill="#93a4c3" font-family="Inter, Arial, sans-serif" font-size="12">2025-11-19</text>
<path d="M 70.00 316.95 L 79.94 279.53 L 89.89 316.10 L 99.83 323.23 L 109.77 328.97 L 119.71 339.39 L 129.66 327.48 L 139.60 323.23 L 149.54 309.72 L 159.48 311.43 L 169.43 279.96 L 179.37 274.96 L 189.31 142.28 L 199.25 265.61 L 209.20 256.99 L 219.14 320.14 L 229.08 345.76 L 239.02 274.22 L 248.97 281.23 L 258.91 346.83 L 268.85 353.95 L 278.79 336.09 L 288.74 354.06 L 298.68 349.17 L 308.62 305.47 L 318.56 253.17 L 328.51 210.75 L 338.45 324.61 L 348.39 301.43 L 358.33 296.54 L 368.28 301.43 L 378.22 330.88 L 388.16 338.43 L 398.10 290.70 L 408.05 315.57 L 417.99 356.08 L 427.93 346.19 L 437.87 373.83 L 447.82 367.77 L 457.76 368.41 L 467.70 375.00 L 477.64 348.95 L 487.59 338.64 L 497.53 347.68 L 507.47 349.27 L 517.41 311.64 L 527.36 345.87 L 537.30 316.64 L 547.24 345.87 L 557.18 332.16 L 567.13 286.55 L 577.07 318.97 L 587.01 321.31 L 596.95 325.25 L 606.90 362.24 L 616.84 363.73 L 626.78 346.30 L 636.72 358.20 L 646.67 344.60 L 656.61 348.21 L 666.55 326.73 L 676.49 149.20 L 686.44 221.27 L 696.38 272.83 L 706.32 128.36 L 716.26 249.87 L 726.21 371.49 L 736.15 371.92 L 746.09 362.88 L 756.03 256.46 L 765.98 299.09 L 775.92 319.19 L 785.86 332.26 L 795.80 272.41 L 805.75 300.37 L 815.69 287.19 L 825.63 245.41 L 835.57 165.67 L 845.52 232.44 L 855.46 233.82 L 865.40 242.54 L 875.34 332.69 L 885.29 355.97 L 895.23 268.48 L 905.17 301.43 L 915.11 209.69 L 925.06 60.00 L 935.00 74.56" fill="none" stroke="#69a7ff" stroke-width="4" stroke-linecap="round" stroke-linejoin="round"/>
<circle cx="935.00" cy="74.56" r="6" fill="#69a7ff"/>
<text x="927.00" y="62.56" text-anchor="end" fill="#f5f7fb" font-family="Inter, Arial, sans-serif" font-size="12" font-weight="600">39.94</text>
</svg>