<svg xmlns="http://www.w3.org/2000/svg" width="960" height="430" viewBox="0 0 960 430" role="img" aria-label="Composite score history">
<rect width="100%" height="100%" fill="#0b1020" rx="20"/>
<text x="70" y="32" fill="#f5f7fb" font-family="Inter, Arial, sans-serif" font-size="24" font-weight="700">Composite score history</text>
<text x="70" y="52" fill="#93a4c3" font-family="Inter, Arial, sans-serif" font-size="13">Trailing 83 sessions through 2025-11-19</text>
<line x1="70" x2="935" y1="375.00" y2="375.00" stroke="#27314e" stroke-width="1"/>
<text x="58" y="379.00" text-anchor="end" fill="#93a4c3" font-family="Inter, Arial, sans-serif" font-size="12">5</text>
<line x1="70" x2="935" y1="312.00" y2="312.00" stroke="#27314e" stroke-width="1"/>
<text x="58" y="316.00" text-anchor="end" fill="#93a4c3" font-family="Inter, Arial, sans-serif" font-size="12">12</text>
<line x1="70" x2="935" y1="249.00" y2="249.00" stroke="#27314e" stroke-width="1"/>
<text x="58" y="253.00" text-anchor="end" fill="#93a4c3" font-family="Inter, Arial, sans-serif" font-size="12">20</text>
<line x1="70" x2="935" y1="186.00" y2="186.00" stroke="#27314e" stroke-width="1"/>
<text x="58" y="190.00" text-anchor="end" fill="#93a4c3" font-family="Inter, Arial, sans-serif" font-size="12">27</text>
<line x1="70" x2="935" y1="123.00" y2="123.00" stroke="#27314e" stroke-width="1"/>
<text x="58" y="127.00" text-anchor="end" fill="#93a4c3" font-family="Inter, Arial, sans-serif" font-size="12">34</text>
<line x1="70" x2="935" y1="60.00" y2="60.00" stroke="#27314e" stroke-width="1"/>
<text x="58" y="64.00" text-anchor="end" fill="#93a4c3" font-family="Inter, Arial, sans-serif" font-size="12">41</text>
<text x="70.00" y="412" text-anchor="middle" fill="#93a4c3" font-family="Inter, Arial, sans-serif" font-size="12">2025-07-23</text>
<text x="502.50" y="412" text-anchor="middle" fill="#93a4c3" font-family="Inter, Arial, sans-serif" font-size="12">2025-09-19</text>
<text x="935.00" y="412" text-anchor="middle" fill="#93a4c3" font-family="Inter, Arial, sans-serif" font-size="12">2025-11-19</text>
<path d="M 70.00 288.24 L 80.55 243.42 L 91.10 272.17 L 101.65 271.91 L 112.20 261.92 L 122.74 241.08 L 133.29 235.61 L 143.84 127.13 L 154.39 227.97 L 164.94 220.93 L 175.49 272.52 L 186.04 293.71 L 196.59 287.63 L 207.13 255.67 L 217.68 344.86 L 228.23 341.65 L 238.78 329.58 L 249.33 320.72 L 259.88 322.02 L 270.43 260.53 L 280.98 217.80 L 291.52 183.15 L 302.07 281.90 L 312.62 257.23 L 323.17 271.74 L 333.72 286.33 L 344.27 326.19 L 354.82 287.46 L 365.37 248.46 L 375.91 268.78 L 386.46 308.73 L 397.01 293.80 L 407.56 328.10 L 418.11 344.26 L 428.66 340.17 L 439.21 345.82 L 449.76 330.45 L 460.30 327.75 L 470.85 326.36 L 481.40 319.07 L 491.95 280.25 L 502.50 319.94 L 513.05 295.36 L 523.60 309.95 L 534.15 294.67 L 544.70 245.07 L 555.24 271.56 L 565.79 273.47 L 576.34 287.02 L 586.89 330.79 L 597.44 344.52 L 607.99 317.42 L 618.54 329.40 L 629.09 301.00 L 639.63 309.26 L 650.18 284.33 L 660.73 132.87 L 671.28 191.84 L 681.83 233.87 L 692.38 115.84 L 702.93 215.11 L 713.48 375.00 L 724.02 344.60 L 734.57 316.64 L 745.12 256.28 L 755.67 296.84 L 766.22 316.81 L 776.77 332.62 L 787.32 295.53 L 797.87 283.37 L 808.41 261.05 L 818.96 211.46 L 829.51 146.33 L 840.06 200.87 L 850.61 202.00 L 861.16 209.12 L 871.71 282.77 L 882.26 327.23 L 892.80 230.31 L 903.35 261.66 L 913.90 182.28 L 924.45 60.00 L 935.00 71.90" fill="none" stroke="#69a7ff" stroke-width="4" stroke-linecap="round" stroke-linejoin="round"/>
<circle cx="935.00" cy="71.90" r="6" fill="#69a7ff"/>
</svg>