<svg xmlns="http://www.w3.org/2000/svg" width="960" height="430" viewBox="0 0 960 430" role="img" aria-label="Composite score history">
<rect width="100%" height="100%" fill="#0b1020" rx="20"/>
<text x="70" y="32" fill="#f5f7fb" font-family="Inter, Arial, sans-serif" font-size="24" font-weight="700">Composite score history</text>
<text x="70" y="52" fill="#93a4c3" font-family="Inter, Arial, sans-serif" font-size="13">Trailing 82 sessions through 2025-11-19</text>
<line x1="70" x2="935" y1="375.00" y2="375.00" stroke="#27314e" stroke-width="1"/>
<text x="58" y="379.00" text-anchor="end" fill="#93a4c3" font-family="Inter, Arial, sans-serif" font-size="12">5</text>
<line x1="70" x2="935" y1="312.00" y2="312.00" stroke="#27314e" stroke-width="1"/>
<text x="58" y="316.00" text-anchor="end" fill="#93a4c3" font-family="Inter, Arial, sans-serif" font-size="12">12</text>
<line x1="70" x2="935" y1="249.00" y2="249.00" stroke="#27314e" stroke-width="1"/>
<text x="58" y="253.00" text-anchor="end" fill="#93a4c3" font-family="Inter, Arial, sans-serif" font-size="12">20</text>
<line x1="70" x2="935" y1="186.00" y2="186.00" stroke="#27314e" stroke-width="1"/>
<text x="58" y="190.00" text-anchor="end" fill="#93a4c3" font-family="Inter, Arial, sans-serif" font-size="12">27</text>
<line x1="70" x2="935" y1="123.00" y2="123.00" stroke="#27314e" stroke-width="1"/>
<text x="58" y="127.00" text-anchor="end" fill="#93a4c3" font-family="Inter, Arial, sans-serif" font-size="12">34</text>
<line x1="70" x2="935" y1="60.00" y2="60.00" stroke="#27314e" stroke-width="1"/>
<text x="58" y="64.00" text-anchor="end" fill="#93a4c3" font-family="Inter, Arial, sans-serif" font-size="12">41</text>
<text x="70.00" y="412" text-anchor="middle" fill="#93a4c3" font-family="Inter, Arial, sans-serif" font-size="12">2025-07-24</text>
<text x="507.84" y="412" text-anchor="middle" fill="#93a4c3" font-family="Inter, Arial, sans-serif" font-size="12">2025-09-22</text>
<text x="935.00" y="412" text-anchor="middle" fill="#93a4c3" font-family="Inter, Arial, sans-serif" font-size="12">2025-11-19</text>
<path d="M 70.00 278.51 L 80.68 294.14 L 91.36 293.88 L 102.04 277.90 L 112.72 267.31 L 123.40 235.61 L 134.07 127.13 L 144.75 227.97 L 155.43 220.93 L 166.11 272.52 L 176.79 293.71 L 187.47 287.63 L 198.15 255.67 L 208.83 344.86 L 219.51 341.65 L 230.19 329.58 L 240.86 320.72 L 251.54 322.02 L 262.22 260.53 L 272.90 217.80 L 283.58 183.15 L 294.26 281.90 L 304.94 257.23 L 315.62 271.74 L 326.30 286.33 L 336.98 326.19 L 347.65 287.46 L 358.33 248.46 L 369.01 268.78 L 379.69 308.73 L 390.37 293.80 L 401.05 328.10 L 411.73 344.26 L 422.41 340.17 L 433.09 345.82 L 443.77 330.45 L 454.44 327.75 L 465.12 326.36 L 475.80 319.07 L 486.48 280.25 L 497.16 319.94 L 507.84 295.36 L 518.52 309.95 L 529.20 294.67 L 539.88 245.07 L 550.56 271.56 L 561.23 273.47 L 571.91 287.02 L 582.59 330.79 L 593.27 344.52 L 603.95 317.42 L 614.63 329.40 L 625.31 301.00 L 635.99 309.26 L 646.67 284.33 L 657.35 132.87 L 668.02 191.84 L 678.70 233.87 L 689.38 115.84 L 700.06 215.11 L 710.74 375.00 L 721.42 344.60 L 732.10 316.64 L 742.78 256.28 L 753.46 296.84 L 764.14 316.81 L 774.81 332.62 L 785.49 295.53 L 796.17 283.37 L 806.85 261.05 L 817.53 211.46 L 828.21 146.33 L 838.89 200.87 L 849.57 202.00 L 860.25 209.12 L 870.93 282.77 L 881.60 327.23 L 892.28 230.31 L 902.96 261.66 L 913.64 182.28 L 924.32 60.00 L 935.00 71.90" fill="none" stroke="#69a7ff" stroke-width="4" stroke-linecap="round" stroke-linejoin="round"/>
<circle cx="935.00" cy="71.90" r="6" fill="#69a7ff"/>
</svg>