<svg xmlns="http://www.w3.org/2000/svg" width="960" height="430" viewBox="0 0 960 430" role="img" aria-label="Composite score history">
<rect width="100%" height="100%" fill="#0b1020" rx="20"/>
<text x="70" y="32" fill="#f5f7fb" font-family="Inter, Arial, sans-serif" font-size="24" font-weight="700">Composite score history</text>
<text x="70" y="52" fill="#93a4c3" font-family="Inter, Arial, sans-serif" font-size="13">Trailing 74 sessions through 2025-11-19</text>
<line x1="70" x2="935" y1="375.00" y2="375.00" stroke="#27314e" stroke-width="1"/>
<text x="58" y="379.00" text-anchor="end" fill="#93a4c3" font-family="Inter, Arial, sans-serif" font-size="12">5</text>
<line x1="70" x2="935" y1="312.00" y2="312.00" stroke="#27314e" stroke-width="1"/>
<text x="58" y="316.00" text-anchor="end" fill="#93a4c3" font-family="Inter, Arial, sans-serif" font-size="12">12</text>
<line x1="70" x2="935" y1="249.00" y2="249.00" stroke="#27314e" stroke-width="1"/>
<text x="58" y="253.00" text-anchor="end" fill="#93a4c3" font-family="Inter, Arial, sans-serif" font-size="12">20</text>
<line x1="70" x2="935" y1="186.00" y2="186.00" stroke="#27314e" stroke-width="1"/>
<text x="58" y="190.00" text-anchor="end" fill="#93a4c3" font-family="Inter, Arial, sans-serif" font-size="12">27</text>
<line x1="70" x2="935" y1="123.00" y2="123.00" stroke="#27314e" stroke-width="1"/>
<text x="58" y="127.00" text-anchor="end" fill="#93a4c3" font-family="Inter, Arial, sans-serif" font-size="12">34</text>
<line x1="70" x2="935" y1="60.00" y2="60.00" stroke="#27314e" stroke-width="1"/>
<text x="58" y="64.00" text-anchor="end" fill="#93a4c3" font-family="Inter, Arial, sans-serif" font-size="12">41</text>
<text x="70.00" y="412" text-anchor="middle" fill="#93a4c3" font-family="Inter, Arial, sans-serif" font-size="12">2025-08-05</text>
<text x="508.42" y="412" text-anchor="middle" fill="#93a4c3" font-family="Inter, Arial, sans-serif" font-size="12">2025-09-26</text>
<text x="935.00" y="412" text-anchor="middle" fill="#93a4c3" font-family="Inter, Arial, sans-serif" font-size="12">2025-11-19</text>
<path d="M 70.00 285.02 L 81.85 310.99 L 93.70 307.52 L 105.55 289.54 L 117.40 276.77 L 129.25 344.86 L 141.10 341.65 L 152.95 329.58 L 164.79 320.72 L 176.64 322.02 L 188.49 260.53 L 200.34 217.80 L 212.19 183.15 L 224.04 281.90 L 235.89 257.23 L 247.74 271.74 L 259.59 286.33 L 271.44 326.19 L 283.29 287.46 L 295.14 248.46 L 306.99 268.78 L 318.84 308.73 L 330.68 293.80 L 342.53 328.10 L 354.38 344.26 L 366.23 340.17 L 378.08 345.82 L 389.93 330.45 L 401.78 327.75 L 413.63 326.36 L 425.48 319.07 L 437.33 280.25 L 449.18 319.94 L 461.03 295.36 L 472.88 309.95 L 484.73 294.67 L 496.58 245.07 L 508.42 271.56 L 520.27 273.47 L 532.12 287.02 L 543.97 330.79 L 555.82 344.52 L 567.67 317.42 L 579.52 329.40 L 591.37 301.00 L 603.22 309.26 L 615.07 284.33 L 626.92 132.87 L 638.77 191.84 L 650.62 233.87 L 662.47 115.84 L 674.32 215.11 L 686.16 375.00 L 698.01 344.60 L 709.86 316.64 L 721.71 256.28 L 733.56 296.84 L 745.41 316.81 L 757.26 332.62 L 769.11 295.53 L 780.96 283.37 L 792.81 261.05 L 804.66 211.46 L 816.51 146.33 L 828.36 200.87 L 840.21 202.00 L 852.05 209.12 L 863.90 282.77 L 875.75 327.23 L 887.60 230.31 L 899.45 261.66 L 911.30 182.28 L 923.15 60.00 L 935.00 71.90" fill="none" stroke="#69a7ff" stroke-width="4" stroke-linecap="round" stroke-linejoin="round"/>
<circle cx="935.00" cy="71.90" r="6" fill="#69a7ff"/>
</svg>