<svg xmlns="http://www.w3.org/2000/svg" width="960" height="430" viewBox="0 0 960 430" role="img" aria-label="Composite score history">
<rect width="100%" height="100%" fill="#0b1020" rx="20"/>
<text x="70" y="32" fill="#f5f7fb" font-family="Inter, Arial, sans-serif" font-size="24" font-weight="700">Composite score history</text>
<text x="70" y="52" fill="#93a4c3" font-family="Inter, Arial, sans-serif" font-size="13">Trailing 49 sessions through 2025-11-19</text>
<line x1="70" x2="935" y1="375.00" y2="375.00" stroke="#27314e" stroke-width="1"/>
<text x="58" y="379.00" text-anchor="end" fill="#93a4c3" font-family="Inter, Arial, sans-serif" font-size="12">5</text>
<line x1="70" x2="935" y1="312.00" y2="312.00" stroke="#27314e" stroke-width="1"/>
<text x="58" y="316.00" text-anchor="end" fill="#93a4c3" font-family="Inter, Arial, sans-serif" font-size="12">12</text>
<line x1="70" x2="935" y1="249.00" y2="249.00" stroke="#27314e" stroke-width="1"/>
<text x="58" y="253.00" text-anchor="end" fill="#93a4c3" font-family="Inter, Arial, sans-serif" font-size="12">20</text>
<line x1="70" x2="935" y1="186.00" y2="186.00" stroke="#27314e" stroke-width="1"/>
<text x="58" y="190.00" text-anchor="end" fill="#93a4c3" font-family="Inter, Arial, sans-serif" font-size="12">27</text>
<line x1="70" x2="935" y1="123.00" y2="123.00" stroke="#27314e" stroke-width="1"/>
<text x="58" y="127.00" text-anchor="end" fill="#93a4c3" font-family="Inter, Arial, sans-serif" font-size="12">34</text>
<line x1="70" x2="935" y1="60.00" y2="60.00" stroke="#27314e" stroke-width="1"/>
<text x="58" y="64.00" text-anchor="end" fill="#93a4c3" font-family="Inter, Arial, sans-serif" font-size="12">41</text>
<text x="70.00" y="412" text-anchor="middle" fill="#93a4c3" font-family="Inter, Arial, sans-serif" font-size="12">2025-09-10</text>
<text x="502.50" y="412" text-anchor="middle" fill="#93a4c3" font-family="Inter, Arial, sans-serif" font-size="12">2025-10-15</text>
<text x="935.00" y="412" text-anchor="middle" fill="#93a4c3" font-family="Inter, Arial, sans-serif" font-size="12">2025-11-19</text>
<path d="M 70.00 311.95 L 88.02 335.74 L 106.04 319.50 L 124.06 334.62 L 142.08 317.94 L 160.10 319.07 L 178.12 280.25 L 196.15 319.94 L 214.17 295.36 L 232.19 309.95 L 250.21 294.67 L 268.23 245.07 L 286.25 271.56 L 304.27 273.47 L 322.29 287.02 L 340.31 330.79 L 358.33 344.52 L 376.35 317.42 L 394.38 329.40 L 412.40 301.00 L 430.42 309.26 L 448.44 284.33 L 466.46 132.87 L 484.48 191.84 L 502.50 233.87 L 520.52 115.84 L 538.54 215.11 L 556.56 375.00 L 574.58 344.60 L 592.60 316.64 L 610.62 256.28 L 628.65 296.84 L 646.67 316.81 L 664.69 332.62 L 682.71 295.53 L 700.73 283.37 L 718.75 261.05 L 736.77 211.46 L 754.79 146.33 L 772.81 200.87 L 790.83 202.00 L 808.85 209.12 L 826.88 282.77 L 844.90 327.23 L 862.92 230.31 L 880.94 261.66 L 898.96 182.28 L 916.98 60.00 L 935.00 71.90" fill="none" stroke="#69a7ff" stroke-width="4" stroke-linecap="round" stroke-linejoin="round"/>
<circle cx="935.00" cy="71.90" r="6" fill="#69a7ff"/>
</svg>