<svg xmlns="http://www.w3.org/2000/svg" width="960" height="430" viewBox="0 0 960 430" role="img" aria-label="Composite score history">
<rect width="100%" height="100%" fill="#0b1020" rx="20"/>
<text x="70" y="32" fill="#f5f7fb" font-family="Inter, Arial, sans-serif" font-size="24" font-weight="700">Composite score history</text>
<text x="70" y="52" fill="#93a4c3" font-family="Inter, Arial, sans-serif" font-size="13">Trailing 63 sessions through 2025-11-19</text>
<line x1="70" x2="935" y1="375.00" y2="375.00" stroke="#27314e" stroke-width="1"/>
<text x="58" y="379.00" text-anchor="end" fill="#93a4c3" font-family="Inter, Arial, sans-serif" font-size="12">5</text>
<line x1="70" x2="935" y1="312.00" y2="312.00" stroke="#27314e" stroke-width="1"/>
<text x="58" y="316.00" text-anchor="end" fill="#93a4c3" font-family="Inter, Arial, sans-serif" font-size="12">12</text>
<line x1="70" x2="935" y1="249.00" y2="249.00" stroke="#27314e" stroke-width="1"/>
<text x="58" y="253.00" text-anchor="end" fill="#93a4c3" font-family="Inter, Arial, sans-serif" font-size="12">20</text>
<line x1="70" x2="935" y1="186.00" y2="186.00" stroke="#27314e" stroke-width="1"/>
<text x="58" y="190.00" text-anchor="end" fill="#93a4c3" font-family="Inter, Arial, sans-serif" font-size="12">27</text>
<line x1="70" x2="935" y1="123.00" y2="123.00" stroke="#27314e" stroke-width="1"/>
<text x="58" y="127.00" text-anchor="end" fill="#93a4c3" font-family="Inter, Arial, sans-serif" font-size="12">34</text>
<line x1="70" x2="935" y1="60.00" y2="60.00" stroke="#27314e" stroke-width="1"/>
<text x="58" y="64.00" text-anchor="end" fill="#93a4c3" font-family="Inter, Arial, sans-serif" font-size="12">41</text>
<text x="70.00" y="412" text-anchor="middle" fill="#93a4c3" font-family="Inter, Arial, sans-serif" font-size="12">2025-08-20</text>
<text x="502.50" y="412" text-anchor="middle" fill="#93a4c3" font-family="Inter, Arial, sans-serif" font-size="12">2025-10-03</text>
<text x="935.00" y="412" text-anchor="middle" fill="#93a4c3" font-family="Inter, Arial, sans-serif" font-size="12">2025-11-19</text>
<path d="M 70.00 299.44 L 83.95 225.79 L 97.90 291.63 L 111.85 269.91 L 125.81 281.38 L 139.76 286.33 L 153.71 326.19 L 167.66 287.46 L 181.61 248.46 L 195.56 268.78 L 209.52 308.73 L 223.47 293.80 L 237.42 328.10 L 251.37 344.26 L 265.32 340.17 L 279.27 345.82 L 293.23 330.45 L 307.18 327.75 L 321.13 326.36 L 335.08 319.07 L 349.03 280.25 L 362.98 319.94 L 376.94 295.36 L 390.89 309.95 L 404.84 294.67 L 418.79 245.07 L 432.74 271.56 L 446.69 273.47 L 460.65 287.02 L 474.60 330.79 L 488.55 344.52 L 502.50 317.42 L 516.45 329.40 L 530.40 301.00 L 544.35 309.26 L 558.31 284.33 L 572.26 132.87 L 586.21 191.84 L 600.16 233.87 L 614.11 115.84 L 628.06 215.11 L 642.02 375.00 L 655.97 344.60 L 669.92 316.64 L 683.87 256.28 L 697.82 296.84 L 711.77 316.81 L 725.73 332.62 L 739.68 295.53 L 753.63 283.37 L 767.58 261.05 L 781.53 211.46 L 795.48 146.33 L 809.44 200.87 L 823.39 202.00 L 837.34 209.12 L 851.29 282.77 L 865.24 327.23 L 879.19 230.31 L 893.15 261.66 L 907.10 182.28 L 921.05 60.00 L 935.00 71.90" fill="none" stroke="#69a7ff" stroke-width="4" stroke-linecap="round" stroke-linejoin="round"/>
<circle cx="935.00" cy="71.90" r="6" fill="#69a7ff"/>
</svg>