<svg xmlns="http://www.w3.org/2000/svg" width="960" height="430" viewBox="0 0 960 430" role="img" aria-label="Composite score history">
<rect width="100%" height="100%" fill="#0b1020" rx="20"/>
<text x="70" y="32" fill="#f5f7fb" font-family="Inter, Arial, sans-serif" font-size="24" font-weight="700">Composite score history</text>
<text x="70" y="52" fill="#93a4c3" font-family="Inter, Arial, sans-serif" font-size="13">Trailing 79 sessions through 2025-11-19</text>
<line x1="70" x2="935" y1="375.00" y2="375.00" stroke="#27314e" stroke-width="1"/>
<text x="58" y="379.00" text-anchor="end" fill="#93a4c3" font-family="Inter, Arial, sans-serif" font-size="12">5</text>
<line x1="70" x2="935" y1="312.00" y2="312.00" stroke="#27314e" stroke-width="1"/>
<text x="58" y="316.00" text-anchor="end" fill="#93a4c3" font-family="Inter, Arial, sans-serif" font-size="12">12</text>
<line x1="70" x2="935" y1="249.00" y2="249.00" stroke="#27314e" stroke-width="1"/>
<text x="58" y="253.00" text-anchor="end" fill="#93a4c3" font-family="Inter, Arial, sans-serif" font-size="12">20</text>
<line x1="70" x2="935" y1="186.00" y2="186.00" stroke="#27314e" stroke-width="1"/>
<text x="58" y="190.00" text-anchor="end" fill="#93a4c3" font-family="Inter, Arial, sans-serif" font-size="12">27</text>
<line x1="70" x2="935" y1="123.00" y2="123.00" stroke="#27314e" stroke-width="1"/>
<text x="58" y="127.00" text-anchor="end" fill="#93a4c3" font-family="Inter, Arial, sans-serif" font-size="12">34</text>
<line x1="70" x2="935" y1="60.00" y2="60.00" stroke="#27314e" stroke-width="1"/>
<text x="58" y="64.00" text-anchor="end" fill="#93a4c3" font-family="Inter, Arial, sans-serif" font-size="12">41</text>
<text x="70.00" y="412" text-anchor="middle" fill="#93a4c3" font-family="Inter, Arial, sans-serif" font-size="12">2025-07-29</text>
<text x="502.50" y="412" text-anchor="middle" fill="#93a4c3" font-family="Inter, Arial, sans-serif" font-size="12">2025-09-23</text>
<text x="935.00" y="412" text-anchor="middle" fill="#93a4c3" font-family="Inter, Arial, sans-serif" font-size="12">2025-11-19</text>
<path d="M 70.00 280.16 L 81.09 245.60 L 92.18 217.98 L 103.27 147.54 L 114.36 248.46 L 125.45 220.93 L 136.54 272.52 L 147.63 293.71 L 158.72 287.63 L 169.81 255.67 L 180.90 344.86 L 191.99 341.65 L 203.08 329.58 L 214.17 320.72 L 225.26 322.02 L 236.35 260.53 L 247.44 217.80 L 258.53 183.15 L 269.62 281.90 L 280.71 257.23 L 291.79 271.74 L 302.88 286.33 L 313.97 326.19 L 325.06 287.46 L 336.15 248.46 L 347.24 268.78 L 358.33 308.73 L 369.42 293.80 L 380.51 328.10 L 391.60 344.26 L 402.69 340.17 L 413.78 345.82 L 424.87 330.45 L 435.96 327.75 L 447.05 326.36 L 458.14 319.07 L 469.23 280.25 L 480.32 319.94 L 491.41 295.36 L 502.50 309.95 L 513.59 294.67 L 524.68 245.07 L 535.77 271.56 L 546.86 273.47 L 557.95 287.02 L 569.04 330.79 L 580.13 344.52 L 591.22 317.42 L 602.31 329.40 L 613.40 301.00 L 624.49 309.26 L 635.58 284.33 L 646.67 132.87 L 657.76 191.84 L 668.85 233.87 L 679.94 115.84 L 691.03 215.11 L 702.12 375.00 L 713.21 344.60 L 724.29 316.64 L 735.38 256.28 L 746.47 296.84 L 757.56 316.81 L 768.65 332.62 L 779.74 295.53 L 790.83 283.37 L 801.92 261.05 L 813.01 211.46 L 824.10 146.33 L 835.19 200.87 L 846.28 202.00 L 857.37 209.12 L 868.46 282.77 L 879.55 327.23 L 890.64 230.31 L 901.73 261.66 L 912.82 182.28 L 923.91 60.00 L 935.00 71.90" fill="none" stroke="#69a7ff" stroke-width="4" stroke-linecap="round" stroke-linejoin="round"/>
<circle cx="935.00" cy="71.90" r="6" fill="#69a7ff"/>
</svg>