<svg xmlns="http://www.w3.org/2000/svg" width="960" height="430" viewBox="0 0 960 430" role="img" aria-label="Composite score history">
<rect width="100%" height="100%" fill="#0b1020" rx="20"/>
<text x="70" y="32" fill="#f5f7fb" font-family="Inter, Arial, sans-serif" font-size="24" font-weight="700">Composite score history</text>
<text x="70" y="52" fill="#93a4c3" font-family="Inter, Arial, sans-serif" font-size="13">Trailing 67 sessions through 2026-02-12</text>
<line x1="70" x2="935" y1="375.00" y2="375.00" stroke="#27314e" stroke-width="1"/>
<text x="58" y="379.00" text-anchor="end" fill="#93a4c3" font-family="Inter, Arial, sans-serif" font-size="12">0</text>
<line x1="70" x2="935" y1="312.00" y2="312.00" stroke="#27314e" stroke-width="1"/>
<text x="58" y="316.00" text-anchor="end" fill="#93a4c3" font-family="Inter, Arial, sans-serif" font-size="12">8</text>
<line x1="70" x2="935" y1="249.00" y2="249.00" stroke="#27314e" stroke-width="1"/>
<text x="58" y="253.00" text-anchor="end" fill="#93a4c3" font-family="Inter, Arial, sans-serif" font-size="12">17</text>
<line x1="70" x2="935" y1="186.00" y2="186.00" stroke="#27314e" stroke-width="1"/>
<text x="58" y="190.00" text-anchor="end" fill="#93a4c3" font-family="Inter, Arial, sans-serif" font-size="12">25</text>
<line x1="70" x2="935" y1="123.00" y2="123.00" stroke="#27314e" stroke-width="1"/>
<text x="58" y="127.00" text-anchor="end" fill="#93a4c3" font-family="Inter, Arial, sans-serif" font-size="12">33</text>
<line x1="70" x2="935" y1="60.00" y2="60.00" stroke="#27314e" stroke-width="1"/>
<text x="58" y="64.00" text-anchor="end" fill="#93a4c3" font-family="Inter, Arial, sans-serif" font-size="12">41</text>
<text x="70.00" y="412" text-anchor="middle" fill="#93a4c3" font-family="Inter, Arial, sans-serif" font-size="12">2025-11-05</text>
<text x="502.50" y="412" text-anchor="middle" fill="#93a4c3" font-family="Inter, Arial, sans-serif" font-size="12">2025-12-24</text>
<text x="935.00" y="412" text-anchor="middle" fill="#93a4c3" font-family="Inter, Arial, sans-serif" font-size="12">2026-02-12</text>
<path d="M 70.00 263.52 L 83.11 206.94 L 96.21 219.29 L 109.32 279.68 L 122.42 287.61 L 135.53 209.53 L 148.64 237.06 L 161.74 167.36 L 174.85 60.00 L 187.95 70.45 L 201.06 66.18 L 214.17 146.17 L 227.27 277.24 L 240.38 326.96 L 253.48 337.79 L 266.59 375.00 L 279.70 333.06 L 292.80 308.20 L 305.91 290.89 L 319.02 264.74 L 332.12 247.28 L 345.23 278.92 L 358.33 241.33 L 371.44 272.67 L 384.55 307.67 L 397.65 264.05 L 410.76 273.13 L 423.86 273.58 L 436.97 183.07 L 450.08 209.46 L 463.18 304.77 L 476.29 329.32 L 489.39 342.21 L 502.50 374.85 L 515.61 360.82 L 528.71 332.91 L 541.82 310.11 L 554.92 254.37 L 568.03 241.41 L 581.14 250.25 L 594.24 274.96 L 607.35 271.37 L 620.45 287.00 L 633.56 289.90 L 646.67 256.43 L 659.77 234.08 L 672.88 237.06 L 685.98 246.21 L 699.09 211.90 L 712.20 84.17 L 725.30 172.78 L 738.41 214.11 L 751.52 200.15 L 764.62 248.88 L 777.73 293.33 L 790.83 261.99 L 803.94 228.59 L 817.05 226.46 L 830.15 237.44 L 843.26 170.49 L 856.36 173.85 L 869.47 111.24 L 882.58 253.00 L 895.68 248.65 L 908.79 271.37 L 921.89 276.02 L 935.00 258.10" fill="none" stroke="#69a7ff" stroke-width="4" stroke-linecap="round" stroke-linejoin="round"/>
<circle cx="935.00" cy="258.10" r="6" fill="#69a7ff"/>
</svg>