<svg xmlns="http://www.w3.org/2000/svg" width="960" height="430" viewBox="0 0 960 430" role="img" aria-label="Composite score history">
<rect width="100%" height="100%" fill="#0b1020" rx="20"/>
<text x="70" y="32" fill="#f5f7fb" font-family="Inter, Arial, sans-serif" font-size="24" font-weight="700">Composite score history</text>
<text x="70" y="52" fill="#93a4c3" font-family="Inter, Arial, sans-serif" font-size="13">Trailing 87 sessions through 2026-02-12</text>
<line x1="70" x2="935" y1="375.00" y2="375.00" stroke="#27314e" stroke-width="1"/>
<text x="58" y="379.00" text-anchor="end" fill="#93a4c3" font-family="Inter, Arial, sans-serif" font-size="12">0</text>
<line x1="70" x2="935" y1="312.00" y2="312.00" stroke="#27314e" stroke-width="1"/>
<text x="58" y="316.00" text-anchor="end" fill="#93a4c3" font-family="Inter, Arial, sans-serif" font-size="12">8</text>
<line x1="70" x2="935" y1="249.00" y2="249.00" stroke="#27314e" stroke-width="1"/>
<text x="58" y="253.00" text-anchor="end" fill="#93a4c3" font-family="Inter, Arial, sans-serif" font-size="12">17</text>
<line x1="70" x2="935" y1="186.00" y2="186.00" stroke="#27314e" stroke-width="1"/>
<text x="58" y="190.00" text-anchor="end" fill="#93a4c3" font-family="Inter, Arial, sans-serif" font-size="12">25</text>
<line x1="70" x2="935" y1="123.00" y2="123.00" stroke="#27314e" stroke-width="1"/>
<text x="58" y="127.00" text-anchor="end" fill="#93a4c3" font-family="Inter, Arial, sans-serif" font-size="12">33</text>
<line x1="70" x2="935" y1="60.00" y2="60.00" stroke="#27314e" stroke-width="1"/>
<text x="58" y="64.00" text-anchor="end" fill="#93a4c3" font-family="Inter, Arial, sans-serif" font-size="12">41</text>
<text x="70.00" y="412" text-anchor="middle" fill="#93a4c3" font-family="Inter, Arial, sans-serif" font-size="12">2025-10-07</text>
<text x="502.50" y="412" text-anchor="middle" fill="#93a4c3" font-family="Inter, Arial, sans-serif" font-size="12">2025-12-10</text>
<text x="935.00" y="412" text-anchor="middle" fill="#93a4c3" font-family="Inter, Arial, sans-serif" font-size="12">2026-02-12</text>
<path d="M 70.00 270.99 L 80.06 284.03 L 90.12 270.84 L 100.17 128.86 L 110.23 196.34 L 120.29 212.66 L 130.35 109.03 L 140.41 196.19 L 150.47 336.57 L 160.52 309.88 L 170.58 285.33 L 180.64 232.33 L 190.70 267.94 L 200.76 285.48 L 210.81 299.36 L 220.87 266.80 L 230.93 256.12 L 240.99 236.53 L 251.05 192.98 L 261.10 135.80 L 271.16 183.68 L 281.22 184.67 L 291.28 190.93 L 301.34 255.59 L 311.40 294.63 L 321.45 209.53 L 331.51 237.06 L 341.57 167.36 L 351.63 60.00 L 361.69 70.45 L 371.74 66.18 L 381.80 146.17 L 391.86 277.24 L 401.92 326.96 L 411.98 337.79 L 422.03 375.00 L 432.09 333.06 L 442.15 308.20 L 452.21 290.89 L 462.27 264.74 L 472.33 247.28 L 482.38 278.92 L 492.44 241.33 L 502.50 272.67 L 512.56 307.67 L 522.62 264.05 L 532.67 273.13 L 542.73 273.58 L 552.79 183.07 L 562.85 209.46 L 572.91 304.77 L 582.97 329.32 L 593.02 342.21 L 603.08 374.85 L 613.14 360.82 L 623.20 332.91 L 633.26 310.11 L 643.31 254.37 L 653.37 241.41 L 663.43 250.25 L 673.49 274.96 L 683.55 271.37 L 693.60 287.00 L 703.66 289.90 L 713.72 256.43 L 723.78 234.08 L 733.84 237.06 L 743.90 246.21 L 753.95 211.90 L 764.01 84.17 L 774.07 172.78 L 784.13 214.11 L 794.19 200.15 L 804.24 248.88 L 814.30 293.33 L 824.36 261.99 L 834.42 228.59 L 844.48 226.46 L 854.53 237.44 L 864.59 170.49 L 874.65 173.85 L 884.71 111.24 L 894.77 253.00 L 904.83 248.65 L 914.88 271.37 L 924.94 276.02 L 935.00 258.10" fill="none" stroke="#69a7ff" stroke-width="4" stroke-linecap="round" stroke-linejoin="round"/>
<circle cx="935.00" cy="258.10" r="6" fill="#69a7ff"/>
</svg>