<svg xmlns="http://www.w3.org/2000/svg" width="960" height="430" viewBox="0 0 960 430" role="img" aria-label="Composite score history">
<rect width="100%" height="100%" fill="#0b1020" rx="20"/>
<text x="70" y="32" fill="#f5f7fb" font-family="Inter, Arial, sans-serif" font-size="24" font-weight="700">Composite score history</text>
<text x="70" y="52" fill="#93a4c3" font-family="Inter, Arial, sans-serif" font-size="13">Trailing 73 sessions through 2026-02-12</text>
<line x1="70" x2="935" y1="375.00" y2="375.00" stroke="#27314e" stroke-width="1"/>
<text x="58" y="379.00" text-anchor="end" fill="#93a4c3" font-family="Inter, Arial, sans-serif" font-size="12">0</text>
<line x1="70" x2="935" y1="312.00" y2="312.00" stroke="#27314e" stroke-width="1"/>
<text x="58" y="316.00" text-anchor="end" fill="#93a4c3" font-family="Inter, Arial, sans-serif" font-size="12">8</text>
<line x1="70" x2="935" y1="249.00" y2="249.00" stroke="#27314e" stroke-width="1"/>
<text x="58" y="253.00" text-anchor="end" fill="#93a4c3" font-family="Inter, Arial, sans-serif" font-size="12">17</text>
<line x1="70" x2="935" y1="186.00" y2="186.00" stroke="#27314e" stroke-width="1"/>
<text x="58" y="190.00" text-anchor="end" fill="#93a4c3" font-family="Inter, Arial, sans-serif" font-size="12">25</text>
<line x1="70" x2="935" y1="123.00" y2="123.00" stroke="#27314e" stroke-width="1"/>
<text x="58" y="127.00" text-anchor="end" fill="#93a4c3" font-family="Inter, Arial, sans-serif" font-size="12">33</text>
<line x1="70" x2="935" y1="60.00" y2="60.00" stroke="#27314e" stroke-width="1"/>
<text x="58" y="64.00" text-anchor="end" fill="#93a4c3" font-family="Inter, Arial, sans-serif" font-size="12">41</text>
<text x="70.00" y="412" text-anchor="middle" fill="#93a4c3" font-family="Inter, Arial, sans-serif" font-size="12">2025-10-28</text>
<text x="502.50" y="412" text-anchor="middle" fill="#93a4c3" font-family="Inter, Arial, sans-serif" font-size="12">2025-12-19</text>
<text x="935.00" y="412" text-anchor="middle" fill="#93a4c3" font-family="Inter, Arial, sans-serif" font-size="12">2026-02-12</text>
<path d="M 70.00 284.34 L 82.01 229.97 L 94.03 180.25 L 106.04 176.97 L 118.06 182.00 L 130.07 135.80 L 142.08 183.68 L 154.10 184.67 L 166.11 190.93 L 178.12 255.59 L 190.14 294.63 L 202.15 209.53 L 214.17 237.06 L 226.18 167.36 L 238.19 60.00 L 250.21 70.45 L 262.22 66.18 L 274.24 146.17 L 286.25 277.24 L 298.26 326.96 L 310.28 337.79 L 322.29 375.00 L 334.31 333.06 L 346.32 308.20 L 358.33 290.89 L 370.35 264.74 L 382.36 247.28 L 394.38 278.92 L 406.39 241.33 L 418.40 272.67 L 430.42 307.67 L 442.43 264.05 L 454.44 273.13 L 466.46 273.58 L 478.47 183.07 L 490.49 209.46 L 502.50 304.77 L 514.51 329.32 L 526.53 342.21 L 538.54 374.85 L 550.56 360.82 L 562.57 332.91 L 574.58 310.11 L 586.60 254.37 L 598.61 241.41 L 610.62 250.25 L 622.64 274.96 L 634.65 271.37 L 646.67 287.00 L 658.68 289.90 L 670.69 256.43 L 682.71 234.08 L 694.72 237.06 L 706.74 246.21 L 718.75 211.90 L 730.76 84.17 L 742.78 172.78 L 754.79 214.11 L 766.81 200.15 L 778.82 248.88 L 790.83 293.33 L 802.85 261.99 L 814.86 228.59 L 826.88 226.46 L 838.89 237.44 L 850.90 170.49 L 862.92 173.85 L 874.93 111.24 L 886.94 253.00 L 898.96 248.65 L 910.97 271.37 L 922.99 276.02 L 935.00 258.10" fill="none" stroke="#69a7ff" stroke-width="4" stroke-linecap="round" stroke-linejoin="round"/>
<circle cx="935.00" cy="258.10" r="6" fill="#69a7ff"/>
</svg>