<svg xmlns="http://www.w3.org/2000/svg" width="960" height="430" viewBox="0 0 960 430" role="img" aria-label="Composite score history">
<rect width="100%" height="100%" fill="#0b1020" rx="20"/>
<text x="70" y="32" fill="#f5f7fb" font-family="Inter, Arial, sans-serif" font-size="24" font-weight="700">Composite score history</text>
<text x="70" y="52" fill="#93a4c3" font-family="Inter, Arial, sans-serif" font-size="13">Trailing 76 sessions through 2026-02-12</text>
<line x1="70" x2="935" y1="375.00" y2="375.00" stroke="#27314e" stroke-width="1"/>
<text x="58" y="379.00" text-anchor="end" fill="#93a4c3" font-family="Inter, Arial, sans-serif" font-size="12">0</text>
<line x1="70" x2="935" y1="312.00" y2="312.00" stroke="#27314e" stroke-width="1"/>
<text x="58" y="316.00" text-anchor="end" fill="#93a4c3" font-family="Inter, Arial, sans-serif" font-size="12">8</text>
<line x1="70" x2="935" y1="249.00" y2="249.00" stroke="#27314e" stroke-width="1"/>
<text x="58" y="253.00" text-anchor="end" fill="#93a4c3" font-family="Inter, Arial, sans-serif" font-size="12">17</text>
<line x1="70" x2="935" y1="186.00" y2="186.00" stroke="#27314e" stroke-width="1"/>
<text x="58" y="190.00" text-anchor="end" fill="#93a4c3" font-family="Inter, Arial, sans-serif" font-size="12">25</text>
<line x1="70" x2="935" y1="123.00" y2="123.00" stroke="#27314e" stroke-width="1"/>
<text x="58" y="127.00" text-anchor="end" fill="#93a4c3" font-family="Inter, Arial, sans-serif" font-size="12">33</text>
<line x1="70" x2="935" y1="60.00" y2="60.00" stroke="#27314e" stroke-width="1"/>
<text x="58" y="64.00" text-anchor="end" fill="#93a4c3" font-family="Inter, Arial, sans-serif" font-size="12">41</text>
<text x="70.00" y="412" text-anchor="middle" fill="#93a4c3" font-family="Inter, Arial, sans-serif" font-size="12">2025-10-23</text>
<text x="508.27" y="412" text-anchor="middle" fill="#93a4c3" font-family="Inter, Arial, sans-serif" font-size="12">2025-12-18</text>
<text x="935.00" y="412" text-anchor="middle" fill="#93a4c3" font-family="Inter, Arial, sans-serif" font-size="12">2026-02-12</text>
<path d="M 70.00 271.83 L 81.53 294.55 L 93.07 324.98 L 104.60 327.42 L 116.13 283.65 L 127.67 256.12 L 139.20 236.53 L 150.73 192.98 L 162.27 135.80 L 173.80 183.68 L 185.33 184.67 L 196.87 190.93 L 208.40 255.59 L 219.93 294.63 L 231.47 209.53 L 243.00 237.06 L 254.53 167.36 L 266.07 60.00 L 277.60 70.45 L 289.13 66.18 L 300.67 146.17 L 312.20 277.24 L 323.73 326.96 L 335.27 337.79 L 346.80 375.00 L 358.33 333.06 L 369.87 308.20 L 381.40 290.89 L 392.93 264.74 L 404.47 247.28 L 416.00 278.92 L 427.53 241.33 L 439.07 272.67 L 450.60 307.67 L 462.13 264.05 L 473.67 273.13 L 485.20 273.58 L 496.73 183.07 L 508.27 209.46 L 519.80 304.77 L 531.33 329.32 L 542.87 342.21 L 554.40 374.85 L 565.93 360.82 L 577.47 332.91 L 589.00 310.11 L 600.53 254.37 L 612.07 241.41 L 623.60 250.25 L 635.13 274.96 L 646.67 271.37 L 658.20 287.00 L 669.73 289.90 L 681.27 256.43 L 692.80 234.08 L 704.33 237.06 L 715.87 246.21 L 727.40 211.90 L 738.93 84.17 L 750.47 172.78 L 762.00 214.11 L 773.53 200.15 L 785.07 248.88 L 796.60 293.33 L 808.13 261.99 L 819.67 228.59 L 831.20 226.46 L 842.73 237.44 L 854.27 170.49 L 865.80 173.85 L 877.33 111.24 L 888.87 253.00 L 900.40 248.65 L 911.93 271.37 L 923.47 276.02 L 935.00 258.10" fill="none" stroke="#69a7ff" stroke-width="4" stroke-linecap="round" stroke-linejoin="round"/>
<circle cx="935.00" cy="258.10" r="6" fill="#69a7ff"/>
</svg>