<svg xmlns="http://www.w3.org/2000/svg" width="960" height="430" viewBox="0 0 960 430" role="img" aria-label="Composite score history">
<rect width="100%" height="100%" fill="#0b1020" rx="20"/>
<text x="70" y="32" fill="#f5f7fb" font-family="Inter, Arial, sans-serif" font-size="24" font-weight="700">Composite score history</text>
<text x="70" y="52" fill="#93a4c3" font-family="Inter, Arial, sans-serif" font-size="13">Trailing 77 sessions through 2026-02-12</text>
<line x1="70" x2="935" y1="375.00" y2="375.00" stroke="#27314e" stroke-width="1"/>
<text x="58" y="379.00" text-anchor="end" fill="#93a4c3" font-family="Inter, Arial, sans-serif" font-size="12">0</text>
<line x1="70" x2="935" y1="312.00" y2="312.00" stroke="#27314e" stroke-width="1"/>
<text x="58" y="316.00" text-anchor="end" fill="#93a4c3" font-family="Inter, Arial, sans-serif" font-size="12">8</text>
<line x1="70" x2="935" y1="249.00" y2="249.00" stroke="#27314e" stroke-width="1"/>
<text x="58" y="253.00" text-anchor="end" fill="#93a4c3" font-family="Inter, Arial, sans-serif" font-size="12">17</text>
<line x1="70" x2="935" y1="186.00" y2="186.00" stroke="#27314e" stroke-width="1"/>
<text x="58" y="190.00" text-anchor="end" fill="#93a4c3" font-family="Inter, Arial, sans-serif" font-size="12">25</text>
<line x1="70" x2="935" y1="123.00" y2="123.00" stroke="#27314e" stroke-width="1"/>
<text x="58" y="127.00" text-anchor="end" fill="#93a4c3" font-family="Inter, Arial, sans-serif" font-size="12">33</text>
<line x1="70" x2="935" y1="60.00" y2="60.00" stroke="#27314e" stroke-width="1"/>
<text x="58" y="64.00" text-anchor="end" fill="#93a4c3" font-family="Inter, Arial, sans-serif" font-size="12">41</text>
<text x="70.00" y="412" text-anchor="middle" fill="#93a4c3" font-family="Inter, Arial, sans-serif" font-size="12">2025-10-22</text>
<text x="502.50" y="412" text-anchor="middle" fill="#93a4c3" font-family="Inter, Arial, sans-serif" font-size="12">2025-12-17</text>
<text x="935.00" y="412" text-anchor="middle" fill="#93a4c3" font-family="Inter, Arial, sans-serif" font-size="12">2026-02-12</text>
<path d="M 70.00 277.24 L 81.38 235.61 L 92.76 266.11 L 104.14 308.13 L 115.53 317.43 L 126.91 266.80 L 138.29 256.12 L 149.67 236.53 L 161.05 192.98 L 172.43 135.80 L 183.82 183.68 L 195.20 184.67 L 206.58 190.93 L 217.96 255.59 L 229.34 294.63 L 240.72 209.53 L 252.11 237.06 L 263.49 167.36 L 274.87 60.00 L 286.25 70.45 L 297.63 66.18 L 309.01 146.17 L 320.39 277.24 L 331.78 326.96 L 343.16 337.79 L 354.54 375.00 L 365.92 333.06 L 377.30 308.20 L 388.68 290.89 L 400.07 264.74 L 411.45 247.28 L 422.83 278.92 L 434.21 241.33 L 445.59 272.67 L 456.97 307.67 L 468.36 264.05 L 479.74 273.13 L 491.12 273.58 L 502.50 183.07 L 513.88 209.46 L 525.26 304.77 L 536.64 329.32 L 548.03 342.21 L 559.41 374.85 L 570.79 360.82 L 582.17 332.91 L 593.55 310.11 L 604.93 254.37 L 616.32 241.41 L 627.70 250.25 L 639.08 274.96 L 650.46 271.37 L 661.84 287.00 L 673.22 289.90 L 684.61 256.43 L 695.99 234.08 L 707.37 237.06 L 718.75 246.21 L 730.13 211.90 L 741.51 84.17 L 752.89 172.78 L 764.28 214.11 L 775.66 200.15 L 787.04 248.88 L 798.42 293.33 L 809.80 261.99 L 821.18 228.59 L 832.57 226.46 L 843.95 237.44 L 855.33 170.49 L 866.71 173.85 L 878.09 111.24 L 889.47 253.00 L 900.86 248.65 L 912.24 271.37 L 923.62 276.02 L 935.00 258.10" fill="none" stroke="#69a7ff" stroke-width="4" stroke-linecap="round" stroke-linejoin="round"/>
<circle cx="935.00" cy="258.10" r="6" fill="#69a7ff"/>
</svg>