<svg xmlns="http://www.w3.org/2000/svg" width="960" height="430" viewBox="0 0 960 430" role="img" aria-label="Composite score history">
<rect width="100%" height="100%" fill="#0b1020" rx="20"/>
<text x="70" y="32" fill="#f5f7fb" font-family="Inter, Arial, sans-serif" font-size="24" font-weight="700">Composite score history</text>
<text x="70" y="52" fill="#93a4c3" font-family="Inter, Arial, sans-serif" font-size="13">Trailing 60 sessions through 2025-11-24</text>
<line x1="70" x2="935" y1="375.00" y2="375.00" stroke="#27314e" stroke-width="1"/>
<text x="58" y="379.00" text-anchor="end" fill="#93a4c3" font-family="Inter, Arial, sans-serif" font-size="12">5</text>
<line x1="70" x2="935" y1="312.00" y2="312.00" stroke="#27314e" stroke-width="1"/>
<text x="58" y="316.00" text-anchor="end" fill="#93a4c3" font-family="Inter, Arial, sans-serif" font-size="12">12</text>
<line x1="70" x2="935" y1="249.00" y2="249.00" stroke="#27314e" stroke-width="1"/>
<text x="58" y="253.00" text-anchor="end" fill="#93a4c3" font-family="Inter, Arial, sans-serif" font-size="12">20</text>
<line x1="70" x2="935" y1="186.00" y2="186.00" stroke="#27314e" stroke-width="1"/>
<text x="58" y="190.00" text-anchor="end" fill="#93a4c3" font-family="Inter, Arial, sans-serif" font-size="12">27</text>
<line x1="70" x2="935" y1="123.00" y2="123.00" stroke="#27314e" stroke-width="1"/>
<text x="58" y="127.00" text-anchor="end" fill="#93a4c3" font-family="Inter, Arial, sans-serif" font-size="12">34</text>
<line x1="70" x2="935" y1="60.00" y2="60.00" stroke="#27314e" stroke-width="1"/>
<text x="58" y="64.00" text-anchor="end" fill="#93a4c3" font-family="Inter, Arial, sans-serif" font-size="12">41</text>
<text x="70.00" y="412" text-anchor="middle" fill="#93a4c3" font-family="Inter, Arial, sans-serif" font-size="12">2025-08-28</text>
<text x="509.83" y="412" text-anchor="middle" fill="#93a4c3" font-family="Inter, Arial, sans-serif" font-size="12">2025-10-10</text>
<text x="935.00" y="412" text-anchor="middle" fill="#93a4c3" font-family="Inter, Arial, sans-serif" font-size="12">2025-11-24</text>
<path d="M 70.00 303.00 L 84.66 265.83 L 99.32 190.01 L 113.98 243.34 L 128.64 298.49 L 143.31 293.80 L 157.97 328.10 L 172.63 344.26 L 187.29 340.17 L 201.95 345.82 L 216.61 330.45 L 231.27 327.75 L 245.93 326.36 L 260.59 319.07 L 275.25 280.25 L 289.92 319.94 L 304.58 295.36 L 319.24 309.95 L 333.90 294.67 L 348.56 245.07 L 363.22 271.56 L 377.88 273.47 L 392.54 287.02 L 407.20 330.79 L 421.86 344.52 L 436.53 317.42 L 451.19 329.40 L 465.85 301.00 L 480.51 309.26 L 495.17 284.33 L 509.83 132.87 L 524.49 191.84 L 539.15 233.87 L 553.81 115.84 L 568.47 215.11 L 583.14 375.00 L 597.80 344.60 L 612.46 316.64 L 627.12 256.28 L 641.78 296.84 L 656.44 316.81 L 671.10 332.62 L 685.76 295.53 L 700.42 283.37 L 715.08 261.05 L 729.75 211.46 L 744.41 146.33 L 759.07 200.87 L 773.73 202.00 L 788.39 209.12 L 803.05 282.77 L 817.71 327.23 L 832.37 230.31 L 847.03 261.66 L 861.69 182.28 L 876.36 60.00 L 891.02 71.90 L 905.68 67.03 L 920.34 158.14 L 935.00 307.43" fill="none" stroke="#69a7ff" stroke-width="4" stroke-linecap="round" stroke-linejoin="round"/>
<circle cx="935.00" cy="307.43" r="6" fill="#69a7ff"/>
</svg>