<svg xmlns="http://www.w3.org/2000/svg" width="960" height="430" viewBox="0 0 960 430" role="img" aria-label="Composite score history">
<rect width="100%" height="100%" fill="#0b1020" rx="20"/>
<text x="70" y="32" fill="#f5f7fb" font-family="Inter, Arial, sans-serif" font-size="24" font-weight="700">Composite score history</text>
<text x="70" y="52" fill="#93a4c3" font-family="Inter, Arial, sans-serif" font-size="13">Trailing 65 sessions through 2025-11-24</text>
<line x1="70" x2="935" y1="375.00" y2="375.00" stroke="#27314e" stroke-width="1"/>
<text x="58" y="379.00" text-anchor="end" fill="#93a4c3" font-family="Inter, Arial, sans-serif" font-size="12">5</text>
<line x1="70" x2="935" y1="312.00" y2="312.00" stroke="#27314e" stroke-width="1"/>
<text x="58" y="316.00" text-anchor="end" fill="#93a4c3" font-family="Inter, Arial, sans-serif" font-size="12">12</text>
<line x1="70" x2="935" y1="249.00" y2="249.00" stroke="#27314e" stroke-width="1"/>
<text x="58" y="253.00" text-anchor="end" fill="#93a4c3" font-family="Inter, Arial, sans-serif" font-size="12">20</text>
<line x1="70" x2="935" y1="186.00" y2="186.00" stroke="#27314e" stroke-width="1"/>
<text x="58" y="190.00" text-anchor="end" fill="#93a4c3" font-family="Inter, Arial, sans-serif" font-size="12">27</text>
<line x1="70" x2="935" y1="123.00" y2="123.00" stroke="#27314e" stroke-width="1"/>
<text x="58" y="127.00" text-anchor="end" fill="#93a4c3" font-family="Inter, Arial, sans-serif" font-size="12">34</text>
<line x1="70" x2="935" y1="60.00" y2="60.00" stroke="#27314e" stroke-width="1"/>
<text x="58" y="64.00" text-anchor="end" fill="#93a4c3" font-family="Inter, Arial, sans-serif" font-size="12">41</text>
<text x="70.00" y="412" text-anchor="middle" fill="#93a4c3" font-family="Inter, Arial, sans-serif" font-size="12">2025-08-21</text>
<text x="502.50" y="412" text-anchor="middle" fill="#93a4c3" font-family="Inter, Arial, sans-serif" font-size="12">2025-10-07</text>
<text x="935.00" y="412" text-anchor="middle" fill="#93a4c3" font-family="Inter, Arial, sans-serif" font-size="12">2025-11-24</text>
<path d="M 70.00 285.29 L 83.52 317.77 L 97.03 296.05 L 110.55 307.61 L 124.06 312.56 L 137.58 326.19 L 151.09 287.46 L 164.61 248.46 L 178.12 268.78 L 191.64 308.73 L 205.16 293.80 L 218.67 328.10 L 232.19 344.26 L 245.70 340.17 L 259.22 345.82 L 272.73 330.45 L 286.25 327.75 L 299.77 326.36 L 313.28 319.07 L 326.80 280.25 L 340.31 319.94 L 353.83 295.36 L 367.34 309.95 L 380.86 294.67 L 394.38 245.07 L 407.89 271.56 L 421.41 273.47 L 434.92 287.02 L 448.44 330.79 L 461.95 344.52 L 475.47 317.42 L 488.98 329.40 L 502.50 301.00 L 516.02 309.26 L 529.53 284.33 L 543.05 132.87 L 556.56 191.84 L 570.08 233.87 L 583.59 115.84 L 597.11 215.11 L 610.62 375.00 L 624.14 344.60 L 637.66 316.64 L 651.17 256.28 L 664.69 296.84 L 678.20 316.81 L 691.72 332.62 L 705.23 295.53 L 718.75 283.37 L 732.27 261.05 L 745.78 211.46 L 759.30 146.33 L 772.81 200.87 L 786.33 202.00 L 799.84 209.12 L 813.36 282.77 L 826.88 327.23 L 840.39 230.31 L 853.91 261.66 L 867.42 182.28 L 880.94 60.00 L 894.45 71.90 L 907.97 67.03 L 921.48 158.14 L 935.00 307.43" fill="none" stroke="#69a7ff" stroke-width="4" stroke-linecap="round" stroke-linejoin="round"/>
<circle cx="935.00" cy="307.43" r="6" fill="#69a7ff"/>
</svg>