<svg xmlns="http://www.w3.org/2000/svg" width="960" height="430" viewBox="0 0 960 430" role="img" aria-label="Composite score history">
<rect width="100%" height="100%" fill="#0b1020" rx="20"/>
<text x="70" y="32" fill="#f5f7fb" font-family="Inter, Arial, sans-serif" font-size="24" font-weight="700">Composite score history</text>
<text x="70" y="52" fill="#93a4c3" font-family="Inter, Arial, sans-serif" font-size="13">Trailing 68 sessions through 2025-11-24</text>
<line x1="70" x2="935" y1="375.00" y2="375.00" stroke="#27314e" stroke-width="1"/>
<text x="58" y="379.00" text-anchor="end" fill="#93a4c3" font-family="Inter, Arial, sans-serif" font-size="12">5</text>
<line x1="70" x2="935" y1="312.00" y2="312.00" stroke="#27314e" stroke-width="1"/>
<text x="58" y="316.00" text-anchor="end" fill="#93a4c3" font-family="Inter, Arial, sans-serif" font-size="12">12</text>
<line x1="70" x2="935" y1="249.00" y2="249.00" stroke="#27314e" stroke-width="1"/>
<text x="58" y="253.00" text-anchor="end" fill="#93a4c3" font-family="Inter, Arial, sans-serif" font-size="12">20</text>
<line x1="70" x2="935" y1="186.00" y2="186.00" stroke="#27314e" stroke-width="1"/>
<text x="58" y="190.00" text-anchor="end" fill="#93a4c3" font-family="Inter, Arial, sans-serif" font-size="12">27</text>
<line x1="70" x2="935" y1="123.00" y2="123.00" stroke="#27314e" stroke-width="1"/>
<text x="58" y="127.00" text-anchor="end" fill="#93a4c3" font-family="Inter, Arial, sans-serif" font-size="12">34</text>
<line x1="70" x2="935" y1="60.00" y2="60.00" stroke="#27314e" stroke-width="1"/>
<text x="58" y="64.00" text-anchor="end" fill="#93a4c3" font-family="Inter, Arial, sans-serif" font-size="12">41</text>
<text x="70.00" y="412" text-anchor="middle" fill="#93a4c3" font-family="Inter, Arial, sans-serif" font-size="12">2025-08-18</text>
<text x="508.96" y="412" text-anchor="middle" fill="#93a4c3" font-family="Inter, Arial, sans-serif" font-size="12">2025-10-06</text>
<text x="935.00" y="412" text-anchor="middle" fill="#93a4c3" font-family="Inter, Arial, sans-serif" font-size="12">2025-11-24</text>
<path d="M 70.00 299.70 L 82.91 270.78 L 95.82 257.75 L 108.73 203.39 L 121.64 282.16 L 134.55 257.23 L 147.46 271.74 L 160.37 286.33 L 173.28 326.19 L 186.19 287.46 L 199.10 248.46 L 212.01 268.78 L 224.93 308.73 L 237.84 293.80 L 250.75 328.10 L 263.66 344.26 L 276.57 340.17 L 289.48 345.82 L 302.39 330.45 L 315.30 327.75 L 328.21 326.36 L 341.12 319.07 L 354.03 280.25 L 366.94 319.94 L 379.85 295.36 L 392.76 309.95 L 405.67 294.67 L 418.58 245.07 L 431.49 271.56 L 444.40 273.47 L 457.31 287.02 L 470.22 330.79 L 483.13 344.52 L 496.04 317.42 L 508.96 329.40 L 521.87 301.00 L 534.78 309.26 L 547.69 284.33 L 560.60 132.87 L 573.51 191.84 L 586.42 233.87 L 599.33 115.84 L 612.24 215.11 L 625.15 375.00 L 638.06 344.60 L 650.97 316.64 L 663.88 256.28 L 676.79 296.84 L 689.70 316.81 L 702.61 332.62 L 715.52 295.53 L 728.43 283.37 L 741.34 261.05 L 754.25 211.46 L 767.16 146.33 L 780.07 200.87 L 792.99 202.00 L 805.90 209.12 L 818.81 282.77 L 831.72 327.23 L 844.63 230.31 L 857.54 261.66 L 870.45 182.28 L 883.36 60.00 L 896.27 71.90 L 909.18 67.03 L 922.09 158.14 L 935.00 307.43" fill="none" stroke="#69a7ff" stroke-width="4" stroke-linecap="round" stroke-linejoin="round"/>
<circle cx="935.00" cy="307.43" r="6" fill="#69a7ff"/>
</svg>