<svg xmlns="http://www.w3.org/2000/svg" width="960" height="430" viewBox="0 0 960 430" role="img" aria-label="Composite score history">
<rect width="100%" height="100%" fill="#0b1020" rx="20"/>
<text x="70" y="32" fill="#f5f7fb" font-family="Inter, Arial, sans-serif" font-size="24" font-weight="700">Composite score history</text>
<text x="70" y="52" fill="#93a4c3" font-family="Inter, Arial, sans-serif" font-size="13">Trailing 61 sessions through 2025-11-24</text>
<line x1="70" x2="935" y1="375.00" y2="375.00" stroke="#27314e" stroke-width="1"/>
<text x="58" y="379.00" text-anchor="end" fill="#93a4c3" font-family="Inter, Arial, sans-serif" font-size="12">5</text>
<line x1="70" x2="935" y1="312.00" y2="312.00" stroke="#27314e" stroke-width="1"/>
<text x="58" y="316.00" text-anchor="end" fill="#93a4c3" font-family="Inter, Arial, sans-serif" font-size="12">12</text>
<line x1="70" x2="935" y1="249.00" y2="249.00" stroke="#27314e" stroke-width="1"/>
<text x="58" y="253.00" text-anchor="end" fill="#93a4c3" font-family="Inter, Arial, sans-serif" font-size="12">20</text>
<line x1="70" x2="935" y1="186.00" y2="186.00" stroke="#27314e" stroke-width="1"/>
<text x="58" y="190.00" text-anchor="end" fill="#93a4c3" font-family="Inter, Arial, sans-serif" font-size="12">27</text>
<line x1="70" x2="935" y1="123.00" y2="123.00" stroke="#27314e" stroke-width="1"/>
<text x="58" y="127.00" text-anchor="end" fill="#93a4c3" font-family="Inter, Arial, sans-serif" font-size="12">34</text>
<line x1="70" x2="935" y1="60.00" y2="60.00" stroke="#27314e" stroke-width="1"/>
<text x="58" y="64.00" text-anchor="end" fill="#93a4c3" font-family="Inter, Arial, sans-serif" font-size="12">41</text>
<text x="70.00" y="412" text-anchor="middle" fill="#93a4c3" font-family="Inter, Arial, sans-serif" font-size="12">2025-08-27</text>
<text x="502.50" y="412" text-anchor="middle" fill="#93a4c3" font-family="Inter, Arial, sans-serif" font-size="12">2025-10-09</text>
<text x="935.00" y="412" text-anchor="middle" fill="#93a4c3" font-family="Inter, Arial, sans-serif" font-size="12">2025-11-24</text>
<path d="M 70.00 300.66 L 84.42 299.44 L 98.83 282.85 L 113.25 196.53 L 127.67 253.41 L 142.08 308.73 L 156.50 293.80 L 170.92 328.10 L 185.33 344.26 L 199.75 340.17 L 214.17 345.82 L 228.58 330.45 L 243.00 327.75 L 257.42 326.36 L 271.83 319.07 L 286.25 280.25 L 300.67 319.94 L 315.08 295.36 L 329.50 309.95 L 343.92 294.67 L 358.33 245.07 L 372.75 271.56 L 387.17 273.47 L 401.58 287.02 L 416.00 330.79 L 430.42 344.52 L 444.83 317.42 L 459.25 329.40 L 473.67 301.00 L 488.08 309.26 L 502.50 284.33 L 516.92 132.87 L 531.33 191.84 L 545.75 233.87 L 560.17 115.84 L 574.58 215.11 L 589.00 375.00 L 603.42 344.60 L 617.83 316.64 L 632.25 256.28 L 646.67 296.84 L 661.08 316.81 L 675.50 332.62 L 689.92 295.53 L 704.33 283.37 L 718.75 261.05 L 733.17 211.46 L 747.58 146.33 L 762.00 200.87 L 776.42 202.00 L 790.83 209.12 L 805.25 282.77 L 819.67 327.23 L 834.08 230.31 L 848.50 261.66 L 862.92 182.28 L 877.33 60.00 L 891.75 71.90 L 906.17 67.03 L 920.58 158.14 L 935.00 307.43" fill="none" stroke="#69a7ff" stroke-width="4" stroke-linecap="round" stroke-linejoin="round"/>
<circle cx="935.00" cy="307.43" r="6" fill="#69a7ff"/>
</svg>