<svg xmlns="http://www.w3.org/2000/svg" width="960" height="430" viewBox="0 0 960 430" role="img" aria-label="Composite score history">
<rect width="100%" height="100%" fill="#0b1020" rx="20"/>
<text x="70" y="32" fill="#f5f7fb" font-family="Inter, Arial, sans-serif" font-size="24" font-weight="700">Composite score history</text>
<text x="70" y="52" fill="#93a4c3" font-family="Inter, Arial, sans-serif" font-size="13">Trailing 72 sessions through 2025-11-24</text>
<line x1="70" x2="935" y1="375.00" y2="375.00" stroke="#27314e" stroke-width="1"/>
<text x="58" y="379.00" text-anchor="end" fill="#93a4c3" font-family="Inter, Arial, sans-serif" font-size="12">5</text>
<line x1="70" x2="935" y1="312.00" y2="312.00" stroke="#27314e" stroke-width="1"/>
<text x="58" y="316.00" text-anchor="end" fill="#93a4c3" font-family="Inter, Arial, sans-serif" font-size="12">12</text>
<line x1="70" x2="935" y1="249.00" y2="249.00" stroke="#27314e" stroke-width="1"/>
<text x="58" y="253.00" text-anchor="end" fill="#93a4c3" font-family="Inter, Arial, sans-serif" font-size="12">20</text>
<line x1="70" x2="935" y1="186.00" y2="186.00" stroke="#27314e" stroke-width="1"/>
<text x="58" y="190.00" text-anchor="end" fill="#93a4c3" font-family="Inter, Arial, sans-serif" font-size="12">27</text>
<line x1="70" x2="935" y1="123.00" y2="123.00" stroke="#27314e" stroke-width="1"/>
<text x="58" y="127.00" text-anchor="end" fill="#93a4c3" font-family="Inter, Arial, sans-serif" font-size="12">34</text>
<line x1="70" x2="935" y1="60.00" y2="60.00" stroke="#27314e" stroke-width="1"/>
<text x="58" y="64.00" text-anchor="end" fill="#93a4c3" font-family="Inter, Arial, sans-serif" font-size="12">41</text>
<text x="70.00" y="412" text-anchor="middle" fill="#93a4c3" font-family="Inter, Arial, sans-serif" font-size="12">2025-08-12</text>
<text x="508.59" y="412" text-anchor="middle" fill="#93a4c3" font-family="Inter, Arial, sans-serif" font-size="12">2025-10-02</text>
<text x="935.00" y="412" text-anchor="middle" fill="#93a4c3" font-family="Inter, Arial, sans-serif" font-size="12">2025-11-24</text>
<path d="M 70.00 303.00 L 82.18 315.77 L 94.37 301.09 L 106.55 288.24 L 118.73 281.38 L 130.92 260.53 L 143.10 217.80 L 155.28 183.15 L 167.46 281.90 L 179.65 257.23 L 191.83 271.74 L 204.01 286.33 L 216.20 326.19 L 228.38 287.46 L 240.56 248.46 L 252.75 268.78 L 264.93 308.73 L 277.11 293.80 L 289.30 328.10 L 301.48 344.26 L 313.66 340.17 L 325.85 345.82 L 338.03 330.45 L 350.21 327.75 L 362.39 326.36 L 374.58 319.07 L 386.76 280.25 L 398.94 319.94 L 411.13 295.36 L 423.31 309.95 L 435.49 294.67 L 447.68 245.07 L 459.86 271.56 L 472.04 273.47 L 484.23 287.02 L 496.41 330.79 L 508.59 344.52 L 520.77 317.42 L 532.96 329.40 L 545.14 301.00 L 557.32 309.26 L 569.51 284.33 L 581.69 132.87 L 593.87 191.84 L 606.06 233.87 L 618.24 115.84 L 630.42 215.11 L 642.61 375.00 L 654.79 344.60 L 666.97 316.64 L 679.15 256.28 L 691.34 296.84 L 703.52 316.81 L 715.70 332.62 L 727.89 295.53 L 740.07 283.37 L 752.25 261.05 L 764.44 211.46 L 776.62 146.33 L 788.80 200.87 L 800.99 202.00 L 813.17 209.12 L 825.35 282.77 L 837.54 327.23 L 849.72 230.31 L 861.90 261.66 L 874.08 182.28 L 886.27 60.00 L 898.45 71.90 L 910.63 67.03 L 922.82 158.14 L 935.00 307.43" fill="none" stroke="#69a7ff" stroke-width="4" stroke-linecap="round" stroke-linejoin="round"/>
<circle cx="935.00" cy="307.43" r="6" fill="#69a7ff"/>
</svg>