<svg xmlns="http://www.w3.org/2000/svg" width="960" height="430" viewBox="0 0 960 430" role="img" aria-label="Composite score history">
<rect width="100%" height="100%" fill="#0b1020" rx="20"/>
<text x="70" y="32" fill="#f5f7fb" font-family="Inter, Arial, sans-serif" font-size="24" font-weight="700">Composite score history</text>
<text x="70" y="52" fill="#93a4c3" font-family="Inter, Arial, sans-serif" font-size="13">Trailing 80 sessions through 2025-11-24</text>
<line x1="70" x2="935" y1="375.00" y2="375.00" stroke="#27314e" stroke-width="1"/>
<text x="58" y="379.00" text-anchor="end" fill="#93a4c3" font-family="Inter, Arial, sans-serif" font-size="12">5</text>
<line x1="70" x2="935" y1="312.00" y2="312.00" stroke="#27314e" stroke-width="1"/>
<text x="58" y="316.00" text-anchor="end" fill="#93a4c3" font-family="Inter, Arial, sans-serif" font-size="12">12</text>
<line x1="70" x2="935" y1="249.00" y2="249.00" stroke="#27314e" stroke-width="1"/>
<text x="58" y="253.00" text-anchor="end" fill="#93a4c3" font-family="Inter, Arial, sans-serif" font-size="12">20</text>
<line x1="70" x2="935" y1="186.00" y2="186.00" stroke="#27314e" stroke-width="1"/>
<text x="58" y="190.00" text-anchor="end" fill="#93a4c3" font-family="Inter, Arial, sans-serif" font-size="12">27</text>
<line x1="70" x2="935" y1="123.00" y2="123.00" stroke="#27314e" stroke-width="1"/>
<text x="58" y="127.00" text-anchor="end" fill="#93a4c3" font-family="Inter, Arial, sans-serif" font-size="12">34</text>
<line x1="70" x2="935" y1="60.00" y2="60.00" stroke="#27314e" stroke-width="1"/>
<text x="58" y="64.00" text-anchor="end" fill="#93a4c3" font-family="Inter, Arial, sans-serif" font-size="12">41</text>
<text x="70.00" y="412" text-anchor="middle" fill="#93a4c3" font-family="Inter, Arial, sans-serif" font-size="12">2025-07-31</text>
<text x="507.97" y="412" text-anchor="middle" fill="#93a4c3" font-family="Inter, Arial, sans-serif" font-size="12">2025-09-26</text>
<text x="935.00" y="412" text-anchor="middle" fill="#93a4c3" font-family="Inter, Arial, sans-serif" font-size="12">2025-11-24</text>
<path d="M 70.00 273.21 L 80.95 174.73 L 91.90 275.91 L 102.85 248.29 L 113.80 296.75 L 124.75 293.71 L 135.70 287.63 L 146.65 255.67 L 157.59 344.86 L 168.54 341.65 L 179.49 329.58 L 190.44 320.72 L 201.39 322.02 L 212.34 260.53 L 223.29 217.80 L 234.24 183.15 L 245.19 281.90 L 256.14 257.23 L 267.09 271.74 L 278.04 286.33 L 288.99 326.19 L 299.94 287.46 L 310.89 248.46 L 321.84 268.78 L 332.78 308.73 L 343.73 293.80 L 354.68 328.10 L 365.63 344.26 L 376.58 340.17 L 387.53 345.82 L 398.48 330.45 L 409.43 327.75 L 420.38 326.36 L 431.33 319.07 L 442.28 280.25 L 453.23 319.94 L 464.18 295.36 L 475.13 309.95 L 486.08 294.67 L 497.03 245.07 L 507.97 271.56 L 518.92 273.47 L 529.87 287.02 L 540.82 330.79 L 551.77 344.52 L 562.72 317.42 L 573.67 329.40 L 584.62 301.00 L 595.57 309.26 L 606.52 284.33 L 617.47 132.87 L 628.42 191.84 L 639.37 233.87 L 650.32 115.84 L 661.27 215.11 L 672.22 375.00 L 683.16 344.60 L 694.11 316.64 L 705.06 256.28 L 716.01 296.84 L 726.96 316.81 L 737.91 332.62 L 748.86 295.53 L 759.81 283.37 L 770.76 261.05 L 781.71 211.46 L 792.66 146.33 L 803.61 200.87 L 814.56 202.00 L 825.51 209.12 L 836.46 282.77 L 847.41 327.23 L 858.35 230.31 L 869.30 261.66 L 880.25 182.28 L 891.20 60.00 L 902.15 71.90 L 913.10 67.03 L 924.05 158.14 L 935.00 307.43" fill="none" stroke="#69a7ff" stroke-width="4" stroke-linecap="round" stroke-linejoin="round"/>
<circle cx="935.00" cy="307.43" r="6" fill="#69a7ff"/>
</svg>