<svg xmlns="http://www.w3.org/2000/svg" width="960" height="430" viewBox="0 0 960 430" role="img" aria-label="Composite score history">
<rect width="100%" height="100%" fill="#0b1020" rx="20"/>
<text x="70" y="32" fill="#f5f7fb" font-family="Inter, Arial, sans-serif" font-size="24" font-weight="700">Composite score history</text>
<text x="70" y="52" fill="#93a4c3" font-family="Inter, Arial, sans-serif" font-size="13">Trailing 86 sessions through 2025-11-24</text>
<line x1="70" x2="935" y1="375.00" y2="375.00" stroke="#27314e" stroke-width="1"/>
<text x="58" y="379.00" text-anchor="end" fill="#93a4c3" font-family="Inter, Arial, sans-serif" font-size="12">5</text>
<line x1="70" x2="935" y1="312.00" y2="312.00" stroke="#27314e" stroke-width="1"/>
<text x="58" y="316.00" text-anchor="end" fill="#93a4c3" font-family="Inter, Arial, sans-serif" font-size="12">12</text>
<line x1="70" x2="935" y1="249.00" y2="249.00" stroke="#27314e" stroke-width="1"/>
<text x="58" y="253.00" text-anchor="end" fill="#93a4c3" font-family="Inter, Arial, sans-serif" font-size="12">20</text>
<line x1="70" x2="935" y1="186.00" y2="186.00" stroke="#27314e" stroke-width="1"/>
<text x="58" y="190.00" text-anchor="end" fill="#93a4c3" font-family="Inter, Arial, sans-serif" font-size="12">27</text>
<line x1="70" x2="935" y1="123.00" y2="123.00" stroke="#27314e" stroke-width="1"/>
<text x="58" y="127.00" text-anchor="end" fill="#93a4c3" font-family="Inter, Arial, sans-serif" font-size="12">34</text>
<line x1="70" x2="935" y1="60.00" y2="60.00" stroke="#27314e" stroke-width="1"/>
<text x="58" y="64.00" text-anchor="end" fill="#93a4c3" font-family="Inter, Arial, sans-serif" font-size="12">41</text>
<text x="70.00" y="412" text-anchor="middle" fill="#93a4c3" font-family="Inter, Arial, sans-serif" font-size="12">2025-07-23</text>
<text x="507.59" y="412" text-anchor="middle" fill="#93a4c3" font-family="Inter, Arial, sans-serif" font-size="12">2025-09-23</text>
<text x="935.00" y="412" text-anchor="middle" fill="#93a4c3" font-family="Inter, Arial, sans-serif" font-size="12">2025-11-24</text>
<path d="M 70.00 288.24 L 80.18 243.42 L 90.35 272.17 L 100.53 271.91 L 110.71 261.92 L 120.88 241.08 L 131.06 235.61 L 141.24 127.13 L 151.41 227.97 L 161.59 220.93 L 171.76 272.52 L 181.94 293.71 L 192.12 287.63 L 202.29 255.67 L 212.47 344.86 L 222.65 341.65 L 232.82 329.58 L 243.00 320.72 L 253.18 322.02 L 263.35 260.53 L 273.53 217.80 L 283.71 183.15 L 293.88 281.90 L 304.06 257.23 L 314.24 271.74 L 324.41 286.33 L 334.59 326.19 L 344.76 287.46 L 354.94 248.46 L 365.12 268.78 L 375.29 308.73 L 385.47 293.80 L 395.65 328.10 L 405.82 344.26 L 416.00 340.17 L 426.18 345.82 L 436.35 330.45 L 446.53 327.75 L 456.71 326.36 L 466.88 319.07 L 477.06 280.25 L 487.24 319.94 L 497.41 295.36 L 507.59 309.95 L 517.76 294.67 L 527.94 245.07 L 538.12 271.56 L 548.29 273.47 L 558.47 287.02 L 568.65 330.79 L 578.82 344.52 L 589.00 317.42 L 599.18 329.40 L 609.35 301.00 L 619.53 309.26 L 629.71 284.33 L 639.88 132.87 L 650.06 191.84 L 660.24 233.87 L 670.41 115.84 L 680.59 215.11 L 690.76 375.00 L 700.94 344.60 L 711.12 316.64 L 721.29 256.28 L 731.47 296.84 L 741.65 316.81 L 751.82 332.62 L 762.00 295.53 L 772.18 283.37 L 782.35 261.05 L 792.53 211.46 L 802.71 146.33 L 812.88 200.87 L 823.06 202.00 L 833.24 209.12 L 843.41 282.77 L 853.59 327.23 L 863.76 230.31 L 873.94 261.66 L 884.12 182.28 L 894.29 60.00 L 904.47 71.90 L 914.65 67.03 L 924.82 158.14 L 935.00 307.43" fill="none" stroke="#69a7ff" stroke-width="4" stroke-linecap="round" stroke-linejoin="round"/>
<circle cx="935.00" cy="307.43" r="6" fill="#69a7ff"/>
</svg>