<svg xmlns="http://www.w3.org/2000/svg" width="960" height="430" viewBox="0 0 960 430" role="img" aria-label="Composite score history">
<rect width="100%" height="100%" fill="#0b1020" rx="20"/>
<text x="70" y="32" fill="#f5f7fb" font-family="Inter, Arial, sans-serif" font-size="24" font-weight="700">Composite score history</text>
<text x="70" y="52" fill="#93a4c3" font-family="Inter, Arial, sans-serif" font-size="13">Trailing 46 sessions through 2025-11-24</text>
<line x1="70" x2="935" y1="375.00" y2="375.00" stroke="#27314e" stroke-width="1"/>
<text x="58" y="379.00" text-anchor="end" fill="#93a4c3" font-family="Inter, Arial, sans-serif" font-size="12">5</text>
<line x1="70" x2="935" y1="312.00" y2="312.00" stroke="#27314e" stroke-width="1"/>
<text x="58" y="316.00" text-anchor="end" fill="#93a4c3" font-family="Inter, Arial, sans-serif" font-size="12">12</text>
<line x1="70" x2="935" y1="249.00" y2="249.00" stroke="#27314e" stroke-width="1"/>
<text x="58" y="253.00" text-anchor="end" fill="#93a4c3" font-family="Inter, Arial, sans-serif" font-size="12">20</text>
<line x1="70" x2="935" y1="186.00" y2="186.00" stroke="#27314e" stroke-width="1"/>
<text x="58" y="190.00" text-anchor="end" fill="#93a4c3" font-family="Inter, Arial, sans-serif" font-size="12">27</text>
<line x1="70" x2="935" y1="123.00" y2="123.00" stroke="#27314e" stroke-width="1"/>
<text x="58" y="127.00" text-anchor="end" fill="#93a4c3" font-family="Inter, Arial, sans-serif" font-size="12">34</text>
<line x1="70" x2="935" y1="60.00" y2="60.00" stroke="#27314e" stroke-width="1"/>
<text x="58" y="64.00" text-anchor="end" fill="#93a4c3" font-family="Inter, Arial, sans-serif" font-size="12">41</text>
<text x="70.00" y="412" text-anchor="middle" fill="#93a4c3" font-family="Inter, Arial, sans-serif" font-size="12">2025-09-18</text>
<text x="512.11" y="412" text-anchor="middle" fill="#93a4c3" font-family="Inter, Arial, sans-serif" font-size="12">2025-10-22</text>
<text x="935.00" y="412" text-anchor="middle" fill="#93a4c3" font-family="Inter, Arial, sans-serif" font-size="12">2025-11-24</text>
<path d="M 70.00 304.04 L 89.22 317.59 L 108.44 304.74 L 127.67 303.26 L 146.89 301.53 L 166.11 245.07 L 185.33 271.56 L 204.56 273.47 L 223.78 287.02 L 243.00 330.79 L 262.22 344.52 L 281.44 317.42 L 300.67 329.40 L 319.89 301.00 L 339.11 309.26 L 358.33 284.33 L 377.56 132.87 L 396.78 191.84 L 416.00 233.87 L 435.22 115.84 L 454.44 215.11 L 473.67 375.00 L 492.89 344.60 L 512.11 316.64 L 531.33 256.28 L 550.56 296.84 L 569.78 316.81 L 589.00 332.62 L 608.22 295.53 L 627.44 283.37 L 646.67 261.05 L 665.89 211.46 L 685.11 146.33 L 704.33 200.87 L 723.56 202.00 L 742.78 209.12 L 762.00 282.77 L 781.22 327.23 L 800.44 230.31 L 819.67 261.66 L 838.89 182.28 L 858.11 60.00 L 877.33 71.90 L 896.56 67.03 L 915.78 158.14 L 935.00 307.43" fill="none" stroke="#69a7ff" stroke-width="4" stroke-linecap="round" stroke-linejoin="round"/>
<circle cx="935.00" cy="307.43" r="6" fill="#69a7ff"/>
</svg>