<svg xmlns="http://www.w3.org/2000/svg" width="960" height="430" viewBox="0 0 960 430" role="img" aria-label="Composite score history">
<rect width="100%" height="100%" fill="#0b1020" rx="20"/>
<text x="70" y="32" fill="#f5f7fb" font-family="Inter, Arial, sans-serif" font-size="24" font-weight="700">Composite score history</text>
<text x="70" y="52" fill="#93a4c3" font-family="Inter, Arial, sans-serif" font-size="13">Trailing 74 sessions through 2025-12-24</text>
<line x1="70" x2="935" y1="375.00" y2="375.00" stroke="#27314e" stroke-width="1"/>
<text x="58" y="379.00" text-anchor="end" fill="#93a4c3" font-family="Inter, Arial, sans-serif" font-size="12">0</text>
<line x1="70" x2="935" y1="312.00" y2="312.00" stroke="#27314e" stroke-width="1"/>
<text x="58" y="316.00" text-anchor="end" fill="#93a4c3" font-family="Inter, Arial, sans-serif" font-size="12">8</text>
<line x1="70" x2="935" y1="249.00" y2="249.00" stroke="#27314e" stroke-width="1"/>
<text x="58" y="253.00" text-anchor="end" fill="#93a4c3" font-family="Inter, Arial, sans-serif" font-size="12">17</text>
<line x1="70" x2="935" y1="186.00" y2="186.00" stroke="#27314e" stroke-width="1"/>
<text x="58" y="190.00" text-anchor="end" fill="#93a4c3" font-family="Inter, Arial, sans-serif" font-size="12">25</text>
<line x1="70" x2="935" y1="123.00" y2="123.00" stroke="#27314e" stroke-width="1"/>
<text x="58" y="127.00" text-anchor="end" fill="#93a4c3" font-family="Inter, Arial, sans-serif" font-size="12">33</text>
<line x1="70" x2="935" y1="60.00" y2="60.00" stroke="#27314e" stroke-width="1"/>
<text x="58" y="64.00" text-anchor="end" fill="#93a4c3" font-family="Inter, Arial, sans-serif" font-size="12">41</text>
<text x="70.00" y="412" text-anchor="middle" fill="#93a4c3" font-family="Inter, Arial, sans-serif" font-size="12">2025-09-09</text>
<text x="508.42" y="412" text-anchor="middle" fill="#93a4c3" font-family="Inter, Arial, sans-serif" font-size="12">2025-10-31</text>
<text x="935.00" y="412" text-anchor="middle" fill="#93a4c3" font-family="Inter, Arial, sans-serif" font-size="12">2025-12-24</text>
<path d="M 70.00 280.75 L 81.85 284.72 L 93.70 307.82 L 105.55 297.37 L 117.40 304.62 L 129.25 293.87 L 141.10 287.46 L 152.95 253.38 L 164.79 288.22 L 176.64 266.64 L 188.49 279.46 L 200.34 266.03 L 212.19 222.49 L 224.04 245.75 L 235.89 247.43 L 247.74 259.32 L 259.59 297.76 L 271.44 309.80 L 283.29 286.01 L 295.14 296.54 L 306.99 271.60 L 318.84 278.85 L 330.68 256.96 L 342.53 123.98 L 354.38 175.75 L 366.23 212.66 L 378.08 109.03 L 389.93 196.19 L 401.78 336.57 L 413.63 309.88 L 425.48 285.33 L 437.33 232.33 L 449.18 267.94 L 461.03 285.48 L 472.88 299.36 L 484.73 266.80 L 496.58 256.12 L 508.42 236.53 L 520.27 192.98 L 532.12 135.80 L 543.97 183.68 L 555.82 184.67 L 567.67 190.93 L 579.52 255.59 L 591.37 294.63 L 603.22 209.53 L 615.07 237.06 L 626.92 167.36 L 638.77 60.00 L 650.62 70.45 L 662.47 66.18 L 674.32 146.17 L 686.16 277.24 L 698.01 326.96 L 709.86 337.79 L 721.71 375.00 L 733.56 333.06 L 745.41 308.20 L 757.26 290.89 L 769.11 264.74 L 780.96 247.28 L 792.81 278.92 L 804.66 241.33 L 816.51 272.67 L 828.36 307.67 L 840.21 264.05 L 852.05 273.13 L 863.90 273.58 L 875.75 183.07 L 887.60 209.46 L 899.45 304.77 L 911.30 329.32 L 923.15 342.21 L 935.00 374.85" fill="none" stroke="#69a7ff" stroke-width="4" stroke-linecap="round" stroke-linejoin="round"/>
<circle cx="935.00" cy="374.85" r="6" fill="#69a7ff"/>
</svg>