<svg xmlns="http://www.w3.org/2000/svg" width="960" height="430" viewBox="0 0 960 430" role="img" aria-label="Composite score history">
<rect width="100%" height="100%" fill="#0b1020" rx="20"/>
<text x="70" y="32" fill="#f5f7fb" font-family="Inter, Arial, sans-serif" font-size="24" font-weight="700">Composite score history</text>
<text x="70" y="52" fill="#93a4c3" font-family="Inter, Arial, sans-serif" font-size="13">Trailing 65 sessions through 2025-12-24</text>
<line x1="70" x2="935" y1="375.00" y2="375.00" stroke="#27314e" stroke-width="1"/>
<text x="58" y="379.00" text-anchor="end" fill="#93a4c3" font-family="Inter, Arial, sans-serif" font-size="12">0</text>
<line x1="70" x2="935" y1="312.00" y2="312.00" stroke="#27314e" stroke-width="1"/>
<text x="58" y="316.00" text-anchor="end" fill="#93a4c3" font-family="Inter, Arial, sans-serif" font-size="12">8</text>
<line x1="70" x2="935" y1="249.00" y2="249.00" stroke="#27314e" stroke-width="1"/>
<text x="58" y="253.00" text-anchor="end" fill="#93a4c3" font-family="Inter, Arial, sans-serif" font-size="12">17</text>
<line x1="70" x2="935" y1="186.00" y2="186.00" stroke="#27314e" stroke-width="1"/>
<text x="58" y="190.00" text-anchor="end" fill="#93a4c3" font-family="Inter, Arial, sans-serif" font-size="12">25</text>
<line x1="70" x2="935" y1="123.00" y2="123.00" stroke="#27314e" stroke-width="1"/>
<text x="58" y="127.00" text-anchor="end" fill="#93a4c3" font-family="Inter, Arial, sans-serif" font-size="12">33</text>
<line x1="70" x2="935" y1="60.00" y2="60.00" stroke="#27314e" stroke-width="1"/>
<text x="58" y="64.00" text-anchor="end" fill="#93a4c3" font-family="Inter, Arial, sans-serif" font-size="12">41</text>
<text x="70.00" y="412" text-anchor="middle" fill="#93a4c3" font-family="Inter, Arial, sans-serif" font-size="12">2025-09-22</text>
<text x="502.50" y="412" text-anchor="middle" fill="#93a4c3" font-family="Inter, Arial, sans-serif" font-size="12">2025-11-06</text>
<text x="935.00" y="412" text-anchor="middle" fill="#93a4c3" font-family="Inter, Arial, sans-serif" font-size="12">2025-12-24</text>
<path d="M 70.00 272.14 L 83.52 248.27 L 97.03 241.41 L 110.55 202.52 L 124.06 241.25 L 137.58 247.43 L 151.09 259.32 L 164.61 297.76 L 178.12 309.80 L 191.64 286.01 L 205.16 296.54 L 218.67 271.60 L 232.19 278.85 L 245.70 256.96 L 259.22 123.98 L 272.73 175.75 L 286.25 212.66 L 299.77 109.03 L 313.28 196.19 L 326.80 336.57 L 340.31 309.88 L 353.83 285.33 L 367.34 232.33 L 380.86 267.94 L 394.38 285.48 L 407.89 299.36 L 421.41 266.80 L 434.92 256.12 L 448.44 236.53 L 461.95 192.98 L 475.47 135.80 L 488.98 183.68 L 502.50 184.67 L 516.02 190.93 L 529.53 255.59 L 543.05 294.63 L 556.56 209.53 L 570.08 237.06 L 583.59 167.36 L 597.11 60.00 L 610.62 70.45 L 624.14 66.18 L 637.66 146.17 L 651.17 277.24 L 664.69 326.96 L 678.20 337.79 L 691.72 375.00 L 705.23 333.06 L 718.75 308.20 L 732.27 290.89 L 745.78 264.74 L 759.30 247.28 L 772.81 278.92 L 786.33 241.33 L 799.84 272.67 L 813.36 307.67 L 826.88 264.05 L 840.39 273.13 L 853.91 273.58 L 867.42 183.07 L 880.94 209.46 L 894.45 304.77 L 907.97 329.32 L 921.48 342.21 L 935.00 374.85" fill="none" stroke="#69a7ff" stroke-width="4" stroke-linecap="round" stroke-linejoin="round"/>
<circle cx="935.00" cy="374.85" r="6" fill="#69a7ff"/>
</svg>