<svg xmlns="http://www.w3.org/2000/svg" width="960" height="430" viewBox="0 0 960 430" role="img" aria-label="Composite score history">
<rect width="100%" height="100%" fill="#0b1020" rx="20"/>
<text x="70" y="32" fill="#f5f7fb" font-family="Inter, Arial, sans-serif" font-size="24" font-weight="700">Composite score history</text>
<text x="70" y="52" fill="#93a4c3" font-family="Inter, Arial, sans-serif" font-size="13">Trailing 80 sessions through 2025-12-24</text>
<line x1="70" x2="935" y1="375.00" y2="375.00" stroke="#27314e" stroke-width="1"/>
<text x="58" y="379.00" text-anchor="end" fill="#93a4c3" font-family="Inter, Arial, sans-serif" font-size="12">0</text>
<line x1="70" x2="935" y1="312.00" y2="312.00" stroke="#27314e" stroke-width="1"/>
<text x="58" y="316.00" text-anchor="end" fill="#93a4c3" font-family="Inter, Arial, sans-serif" font-size="12">8</text>
<line x1="70" x2="935" y1="249.00" y2="249.00" stroke="#27314e" stroke-width="1"/>
<text x="58" y="253.00" text-anchor="end" fill="#93a4c3" font-family="Inter, Arial, sans-serif" font-size="12">17</text>
<line x1="70" x2="935" y1="186.00" y2="186.00" stroke="#27314e" stroke-width="1"/>
<text x="58" y="190.00" text-anchor="end" fill="#93a4c3" font-family="Inter, Arial, sans-serif" font-size="12">25</text>
<line x1="70" x2="935" y1="123.00" y2="123.00" stroke="#27314e" stroke-width="1"/>
<text x="58" y="127.00" text-anchor="end" fill="#93a4c3" font-family="Inter, Arial, sans-serif" font-size="12">33</text>
<line x1="70" x2="935" y1="60.00" y2="60.00" stroke="#27314e" stroke-width="1"/>
<text x="58" y="64.00" text-anchor="end" fill="#93a4c3" font-family="Inter, Arial, sans-serif" font-size="12">41</text>
<text x="70.00" y="412" text-anchor="middle" fill="#93a4c3" font-family="Inter, Arial, sans-serif" font-size="12">2025-08-29</text>
<text x="507.97" y="412" text-anchor="middle" fill="#93a4c3" font-family="Inter, Arial, sans-serif" font-size="12">2025-10-28</text>
<text x="935.00" y="412" text-anchor="middle" fill="#93a4c3" font-family="Inter, Arial, sans-serif" font-size="12">2025-12-24</text>
<path d="M 70.00 271.75 L 80.95 192.07 L 91.90 245.90 L 102.85 287.92 L 113.80 288.83 L 124.75 295.39 L 135.70 309.58 L 146.65 305.99 L 157.59 310.95 L 168.54 297.45 L 179.49 295.09 L 190.44 293.87 L 201.39 287.46 L 212.34 253.38 L 223.29 288.22 L 234.24 266.64 L 245.19 279.46 L 256.14 266.03 L 267.09 222.49 L 278.04 245.75 L 288.99 247.43 L 299.94 259.32 L 310.89 297.76 L 321.84 309.80 L 332.78 286.01 L 343.73 296.54 L 354.68 271.60 L 365.63 278.85 L 376.58 256.96 L 387.53 123.98 L 398.48 175.75 L 409.43 212.66 L 420.38 109.03 L 431.33 196.19 L 442.28 336.57 L 453.23 309.88 L 464.18 285.33 L 475.13 232.33 L 486.08 267.94 L 497.03 285.48 L 507.97 299.36 L 518.92 266.80 L 529.87 256.12 L 540.82 236.53 L 551.77 192.98 L 562.72 135.80 L 573.67 183.68 L 584.62 184.67 L 595.57 190.93 L 606.52 255.59 L 617.47 294.63 L 628.42 209.53 L 639.37 237.06 L 650.32 167.36 L 661.27 60.00 L 672.22 70.45 L 683.16 66.18 L 694.11 146.17 L 705.06 277.24 L 716.01 326.96 L 726.96 337.79 L 737.91 375.00 L 748.86 333.06 L 759.81 308.20 L 770.76 290.89 L 781.71 264.74 L 792.66 247.28 L 803.61 278.92 L 814.56 241.33 L 825.51 272.67 L 836.46 307.67 L 847.41 264.05 L 858.35 273.13 L 869.30 273.58 L 880.25 183.07 L 891.20 209.46 L 902.15 304.77 L 913.10 329.32 L 924.05 342.21 L 935.00 374.85" fill="none" stroke="#69a7ff" stroke-width="4" stroke-linecap="round" stroke-linejoin="round"/>
<circle cx="935.00" cy="374.85" r="6" fill="#69a7ff"/>
</svg>