<svg xmlns="http://www.w3.org/2000/svg" width="960" height="430" viewBox="0 0 960 430" role="img" aria-label="Composite score history">
<rect width="100%" height="100%" fill="#0b1020" rx="20"/>
<text x="70" y="32" fill="#f5f7fb" font-family="Inter, Arial, sans-serif" font-size="24" font-weight="700">Composite score history</text>
<text x="70" y="52" fill="#93a4c3" font-family="Inter, Arial, sans-serif" font-size="13">Trailing 50 sessions through 2025-12-24</text>
<line x1="70" x2="935" y1="375.00" y2="375.00" stroke="#27314e" stroke-width="1"/>
<text x="58" y="379.00" text-anchor="end" fill="#93a4c3" font-family="Inter, Arial, sans-serif" font-size="12">0</text>
<line x1="70" x2="935" y1="312.00" y2="312.00" stroke="#27314e" stroke-width="1"/>
<text x="58" y="316.00" text-anchor="end" fill="#93a4c3" font-family="Inter, Arial, sans-serif" font-size="12">8</text>
<line x1="70" x2="935" y1="249.00" y2="249.00" stroke="#27314e" stroke-width="1"/>
<text x="58" y="253.00" text-anchor="end" fill="#93a4c3" font-family="Inter, Arial, sans-serif" font-size="12">17</text>
<line x1="70" x2="935" y1="186.00" y2="186.00" stroke="#27314e" stroke-width="1"/>
<text x="58" y="190.00" text-anchor="end" fill="#93a4c3" font-family="Inter, Arial, sans-serif" font-size="12">25</text>
<line x1="70" x2="935" y1="123.00" y2="123.00" stroke="#27314e" stroke-width="1"/>
<text x="58" y="127.00" text-anchor="end" fill="#93a4c3" font-family="Inter, Arial, sans-serif" font-size="12">33</text>
<line x1="70" x2="935" y1="60.00" y2="60.00" stroke="#27314e" stroke-width="1"/>
<text x="58" y="64.00" text-anchor="end" fill="#93a4c3" font-family="Inter, Arial, sans-serif" font-size="12">41</text>
<text x="70.00" y="412" text-anchor="middle" fill="#93a4c3" font-family="Inter, Arial, sans-serif" font-size="12">2025-10-14</text>
<text x="511.33" y="412" text-anchor="middle" fill="#93a4c3" font-family="Inter, Arial, sans-serif" font-size="12">2025-11-19</text>
<text x="935.00" y="412" text-anchor="middle" fill="#93a4c3" font-family="Inter, Arial, sans-serif" font-size="12">2025-12-24</text>
<path d="M 70.00 261.76 L 87.65 263.29 L 105.31 202.82 L 122.96 273.13 L 140.61 309.50 L 158.27 309.88 L 175.92 285.33 L 193.57 232.33 L 211.22 267.94 L 228.88 285.48 L 246.53 299.36 L 264.18 266.80 L 281.84 256.12 L 299.49 236.53 L 317.14 192.98 L 334.80 135.80 L 352.45 183.68 L 370.10 184.67 L 387.76 190.93 L 405.41 255.59 L 423.06 294.63 L 440.71 209.53 L 458.37 237.06 L 476.02 167.36 L 493.67 60.00 L 511.33 70.45 L 528.98 66.18 L 546.63 146.17 L 564.29 277.24 L 581.94 326.96 L 599.59 337.79 L 617.24 375.00 L 634.90 333.06 L 652.55 308.20 L 670.20 290.89 L 687.86 264.74 L 705.51 247.28 L 723.16 278.92 L 740.82 241.33 L 758.47 272.67 L 776.12 307.67 L 793.78 264.05 L 811.43 273.13 L 829.08 273.58 L 846.73 183.07 L 864.39 209.46 L 882.04 304.77 L 899.69 329.32 L 917.35 342.21 L 935.00 374.85" fill="none" stroke="#69a7ff" stroke-width="4" stroke-linecap="round" stroke-linejoin="round"/>
<circle cx="935.00" cy="374.85" r="6" fill="#69a7ff"/>
</svg>