<svg xmlns="http://www.w3.org/2000/svg" width="960" height="430" viewBox="0 0 960 430" role="img" aria-label="Composite score history">
<rect width="100%" height="100%" fill="#0b1020" rx="20"/>
<text x="70" y="32" fill="#f5f7fb" font-family="Inter, Arial, sans-serif" font-size="24" font-weight="700">Composite score history</text>
<text x="70" y="52" fill="#93a4c3" font-family="Inter, Arial, sans-serif" font-size="13">Trailing 57 sessions through 2025-12-24</text>
<line x1="70" x2="935" y1="375.00" y2="375.00" stroke="#27314e" stroke-width="1"/>
<text x="58" y="379.00" text-anchor="end" fill="#93a4c3" font-family="Inter, Arial, sans-serif" font-size="12">0</text>
<line x1="70" x2="935" y1="312.00" y2="312.00" stroke="#27314e" stroke-width="1"/>
<text x="58" y="316.00" text-anchor="end" fill="#93a4c3" font-family="Inter, Arial, sans-serif" font-size="12">8</text>
<line x1="70" x2="935" y1="249.00" y2="249.00" stroke="#27314e" stroke-width="1"/>
<text x="58" y="253.00" text-anchor="end" fill="#93a4c3" font-family="Inter, Arial, sans-serif" font-size="12">17</text>
<line x1="70" x2="935" y1="186.00" y2="186.00" stroke="#27314e" stroke-width="1"/>
<text x="58" y="190.00" text-anchor="end" fill="#93a4c3" font-family="Inter, Arial, sans-serif" font-size="12">25</text>
<line x1="70" x2="935" y1="123.00" y2="123.00" stroke="#27314e" stroke-width="1"/>
<text x="58" y="127.00" text-anchor="end" fill="#93a4c3" font-family="Inter, Arial, sans-serif" font-size="12">33</text>
<line x1="70" x2="935" y1="60.00" y2="60.00" stroke="#27314e" stroke-width="1"/>
<text x="58" y="64.00" text-anchor="end" fill="#93a4c3" font-family="Inter, Arial, sans-serif" font-size="12">41</text>
<text x="70.00" y="412" text-anchor="middle" fill="#93a4c3" font-family="Inter, Arial, sans-serif" font-size="12">2025-10-02</text>
<text x="502.50" y="412" text-anchor="middle" fill="#93a4c3" font-family="Inter, Arial, sans-serif" font-size="12">2025-11-13</text>
<text x="935.00" y="412" text-anchor="middle" fill="#93a4c3" font-family="Inter, Arial, sans-serif" font-size="12">2025-12-24</text>
<path d="M 70.00 277.85 L 85.45 262.07 L 100.89 263.67 L 116.34 252.46 L 131.79 270.08 L 147.23 256.96 L 162.68 123.98 L 178.12 175.75 L 193.57 212.66 L 209.02 109.03 L 224.46 196.19 L 239.91 336.57 L 255.36 309.88 L 270.80 285.33 L 286.25 232.33 L 301.70 267.94 L 317.14 285.48 L 332.59 299.36 L 348.04 266.80 L 363.48 256.12 L 378.93 236.53 L 394.38 192.98 L 409.82 135.80 L 425.27 183.68 L 440.71 184.67 L 456.16 190.93 L 471.61 255.59 L 487.05 294.63 L 502.50 209.53 L 517.95 237.06 L 533.39 167.36 L 548.84 60.00 L 564.29 70.45 L 579.73 66.18 L 595.18 146.17 L 610.62 277.24 L 626.07 326.96 L 641.52 337.79 L 656.96 375.00 L 672.41 333.06 L 687.86 308.20 L 703.30 290.89 L 718.75 264.74 L 734.20 247.28 L 749.64 278.92 L 765.09 241.33 L 780.54 272.67 L 795.98 307.67 L 811.43 264.05 L 826.88 273.13 L 842.32 273.58 L 857.77 183.07 L 873.21 209.46 L 888.66 304.77 L 904.11 329.32 L 919.55 342.21 L 935.00 374.85" fill="none" stroke="#69a7ff" stroke-width="4" stroke-linecap="round" stroke-linejoin="round"/>
<circle cx="935.00" cy="374.85" r="6" fill="#69a7ff"/>
</svg>