<svg xmlns="http://www.w3.org/2000/svg" width="960" height="430" viewBox="0 0 960 430" role="img" aria-label="Composite score history">
<rect width="100%" height="100%" fill="#0b1020" rx="20"/>
<text x="70" y="32" fill="#f5f7fb" font-family="Inter, Arial, sans-serif" font-size="24" font-weight="700">Composite score history</text>
<text x="70" y="52" fill="#93a4c3" font-family="Inter, Arial, sans-serif" font-size="13">Trailing 84 sessions through 2025-12-24</text>
<line x1="70" x2="935" y1="375.00" y2="375.00" stroke="#27314e" stroke-width="1"/>
<text x="58" y="379.00" text-anchor="end" fill="#93a4c3" font-family="Inter, Arial, sans-serif" font-size="12">0</text>
<line x1="70" x2="935" y1="312.00" y2="312.00" stroke="#27314e" stroke-width="1"/>
<text x="58" y="316.00" text-anchor="end" fill="#93a4c3" font-family="Inter, Arial, sans-serif" font-size="12">8</text>
<line x1="70" x2="935" y1="249.00" y2="249.00" stroke="#27314e" stroke-width="1"/>
<text x="58" y="253.00" text-anchor="end" fill="#93a4c3" font-family="Inter, Arial, sans-serif" font-size="12">17</text>
<line x1="70" x2="935" y1="186.00" y2="186.00" stroke="#27314e" stroke-width="1"/>
<text x="58" y="190.00" text-anchor="end" fill="#93a4c3" font-family="Inter, Arial, sans-serif" font-size="12">25</text>
<line x1="70" x2="935" y1="123.00" y2="123.00" stroke="#27314e" stroke-width="1"/>
<text x="58" y="127.00" text-anchor="end" fill="#93a4c3" font-family="Inter, Arial, sans-serif" font-size="12">33</text>
<line x1="70" x2="935" y1="60.00" y2="60.00" stroke="#27314e" stroke-width="1"/>
<text x="58" y="64.00" text-anchor="end" fill="#93a4c3" font-family="Inter, Arial, sans-serif" font-size="12">41</text>
<text x="70.00" y="412" text-anchor="middle" fill="#93a4c3" font-family="Inter, Arial, sans-serif" font-size="12">2025-08-25</text>
<text x="507.71" y="412" text-anchor="middle" fill="#93a4c3" font-family="Inter, Arial, sans-serif" font-size="12">2025-10-24</text>
<text x="935.00" y="412" text-anchor="middle" fill="#93a4c3" font-family="Inter, Arial, sans-serif" font-size="12">2025-12-24</text>
<path d="M 70.00 265.65 L 80.42 275.64 L 90.84 279.53 L 101.27 291.88 L 111.69 273.89 L 122.11 225.47 L 132.53 243.31 L 142.95 278.39 L 153.37 265.27 L 163.80 295.39 L 174.22 309.58 L 184.64 305.99 L 195.06 310.95 L 205.48 297.45 L 215.90 295.09 L 226.33 293.87 L 236.75 287.46 L 247.17 253.38 L 257.59 288.22 L 268.01 266.64 L 278.43 279.46 L 288.86 266.03 L 299.28 222.49 L 309.70 245.75 L 320.12 247.43 L 330.54 259.32 L 340.96 297.76 L 351.39 309.80 L 361.81 286.01 L 372.23 296.54 L 382.65 271.60 L 393.07 278.85 L 403.49 256.96 L 413.92 123.98 L 424.34 175.75 L 434.76 212.66 L 445.18 109.03 L 455.60 196.19 L 466.02 336.57 L 476.45 309.88 L 486.87 285.33 L 497.29 232.33 L 507.71 267.94 L 518.13 285.48 L 528.55 299.36 L 538.98 266.80 L 549.40 256.12 L 559.82 236.53 L 570.24 192.98 L 580.66 135.80 L 591.08 183.68 L 601.51 184.67 L 611.93 190.93 L 622.35 255.59 L 632.77 294.63 L 643.19 209.53 L 653.61 237.06 L 664.04 167.36 L 674.46 60.00 L 684.88 70.45 L 695.30 66.18 L 705.72 146.17 L 716.14 277.24 L 726.57 326.96 L 736.99 337.79 L 747.41 375.00 L 757.83 333.06 L 768.25 308.20 L 778.67 290.89 L 789.10 264.74 L 799.52 247.28 L 809.94 278.92 L 820.36 241.33 L 830.78 272.67 L 841.20 307.67 L 851.63 264.05 L 862.05 273.13 L 872.47 273.58 L 882.89 183.07 L 893.31 209.46 L 903.73 304.77 L 914.16 329.32 L 924.58 342.21 L 935.00 374.85" fill="none" stroke="#69a7ff" stroke-width="4" stroke-linecap="round" stroke-linejoin="round"/>
<circle cx="935.00" cy="374.85" r="6" fill="#69a7ff"/>
</svg>