<svg xmlns="http://www.w3.org/2000/svg" width="960" height="430" viewBox="0 0 960 430" role="img" aria-label="Composite score history">
<rect width="100%" height="100%" fill="#0b1020" rx="20"/>
<text x="70" y="32" fill="#f5f7fb" font-family="Inter, Arial, sans-serif" font-size="24" font-weight="700">Composite score history</text>
<text x="70" y="52" fill="#93a4c3" font-family="Inter, Arial, sans-serif" font-size="13">Trailing 61 sessions through 2025-12-24</text>
<line x1="70" x2="935" y1="375.00" y2="375.00" stroke="#27314e" stroke-width="1"/>
<text x="58" y="379.00" text-anchor="end" fill="#93a4c3" font-family="Inter, Arial, sans-serif" font-size="12">0</text>
<line x1="70" x2="935" y1="312.00" y2="312.00" stroke="#27314e" stroke-width="1"/>
<text x="58" y="316.00" text-anchor="end" fill="#93a4c3" font-family="Inter, Arial, sans-serif" font-size="12">8</text>
<line x1="70" x2="935" y1="249.00" y2="249.00" stroke="#27314e" stroke-width="1"/>
<text x="58" y="253.00" text-anchor="end" fill="#93a4c3" font-family="Inter, Arial, sans-serif" font-size="12">17</text>
<line x1="70" x2="935" y1="186.00" y2="186.00" stroke="#27314e" stroke-width="1"/>
<text x="58" y="190.00" text-anchor="end" fill="#93a4c3" font-family="Inter, Arial, sans-serif" font-size="12">25</text>
<line x1="70" x2="935" y1="123.00" y2="123.00" stroke="#27314e" stroke-width="1"/>
<text x="58" y="127.00" text-anchor="end" fill="#93a4c3" font-family="Inter, Arial, sans-serif" font-size="12">33</text>
<line x1="70" x2="935" y1="60.00" y2="60.00" stroke="#27314e" stroke-width="1"/>
<text x="58" y="64.00" text-anchor="end" fill="#93a4c3" font-family="Inter, Arial, sans-serif" font-size="12">41</text>
<text x="70.00" y="412" text-anchor="middle" fill="#93a4c3" font-family="Inter, Arial, sans-serif" font-size="12">2025-09-26</text>
<text x="502.50" y="412" text-anchor="middle" fill="#93a4c3" font-family="Inter, Arial, sans-serif" font-size="12">2025-11-10</text>
<text x="935.00" y="412" text-anchor="middle" fill="#93a4c3" font-family="Inter, Arial, sans-serif" font-size="12">2025-12-24</text>
<path d="M 70.00 275.87 L 84.42 271.30 L 98.83 277.40 L 113.25 289.75 L 127.67 288.83 L 142.08 286.01 L 156.50 296.54 L 170.92 271.60 L 185.33 278.85 L 199.75 256.96 L 214.17 123.98 L 228.58 175.75 L 243.00 212.66 L 257.42 109.03 L 271.83 196.19 L 286.25 336.57 L 300.67 309.88 L 315.08 285.33 L 329.50 232.33 L 343.92 267.94 L 358.33 285.48 L 372.75 299.36 L 387.17 266.80 L 401.58 256.12 L 416.00 236.53 L 430.42 192.98 L 444.83 135.80 L 459.25 183.68 L 473.67 184.67 L 488.08 190.93 L 502.50 255.59 L 516.92 294.63 L 531.33 209.53 L 545.75 237.06 L 560.17 167.36 L 574.58 60.00 L 589.00 70.45 L 603.42 66.18 L 617.83 146.17 L 632.25 277.24 L 646.67 326.96 L 661.08 337.79 L 675.50 375.00 L 689.92 333.06 L 704.33 308.20 L 718.75 290.89 L 733.17 264.74 L 747.58 247.28 L 762.00 278.92 L 776.42 241.33 L 790.83 272.67 L 805.25 307.67 L 819.67 264.05 L 834.08 273.13 L 848.50 273.58 L 862.92 183.07 L 877.33 209.46 L 891.75 304.77 L 906.17 329.32 L 920.58 342.21 L 935.00 374.85" fill="none" stroke="#69a7ff" stroke-width="4" stroke-linecap="round" stroke-linejoin="round"/>
<circle cx="935.00" cy="374.85" r="6" fill="#69a7ff"/>
</svg>