<svg xmlns="http://www.w3.org/2000/svg" width="960" height="430" viewBox="0 0 960 430" role="img" aria-label="Composite score history">
<rect width="100%" height="100%" fill="#0b1020" rx="20"/>
<text x="70" y="32" fill="#f5f7fb" font-family="Inter, Arial, sans-serif" font-size="24" font-weight="700">Composite score history</text>
<text x="70" y="52" fill="#93a4c3" font-family="Inter, Arial, sans-serif" font-size="13">Trailing 77 sessions through 2025-12-24</text>
<line x1="70" x2="935" y1="375.00" y2="375.00" stroke="#27314e" stroke-width="1"/>
<text x="58" y="379.00" text-anchor="end" fill="#93a4c3" font-family="Inter, Arial, sans-serif" font-size="12">0</text>
<line x1="70" x2="935" y1="312.00" y2="312.00" stroke="#27314e" stroke-width="1"/>
<text x="58" y="316.00" text-anchor="end" fill="#93a4c3" font-family="Inter, Arial, sans-serif" font-size="12">8</text>
<line x1="70" x2="935" y1="249.00" y2="249.00" stroke="#27314e" stroke-width="1"/>
<text x="58" y="253.00" text-anchor="end" fill="#93a4c3" font-family="Inter, Arial, sans-serif" font-size="12">17</text>
<line x1="70" x2="935" y1="186.00" y2="186.00" stroke="#27314e" stroke-width="1"/>
<text x="58" y="190.00" text-anchor="end" fill="#93a4c3" font-family="Inter, Arial, sans-serif" font-size="12">25</text>
<line x1="70" x2="935" y1="123.00" y2="123.00" stroke="#27314e" stroke-width="1"/>
<text x="58" y="127.00" text-anchor="end" fill="#93a4c3" font-family="Inter, Arial, sans-serif" font-size="12">33</text>
<line x1="70" x2="935" y1="60.00" y2="60.00" stroke="#27314e" stroke-width="1"/>
<text x="58" y="64.00" text-anchor="end" fill="#93a4c3" font-family="Inter, Arial, sans-serif" font-size="12">41</text>
<text x="70.00" y="412" text-anchor="middle" fill="#93a4c3" font-family="Inter, Arial, sans-serif" font-size="12">2025-09-04</text>
<text x="502.50" y="412" text-anchor="middle" fill="#93a4c3" font-family="Inter, Arial, sans-serif" font-size="12">2025-10-29</text>
<text x="935.00" y="412" text-anchor="middle" fill="#93a4c3" font-family="Inter, Arial, sans-serif" font-size="12">2025-12-24</text>
<path d="M 70.00 275.57 L 81.38 270.53 L 92.76 281.06 L 104.14 283.80 L 115.53 289.67 L 126.91 310.95 L 138.29 297.45 L 149.67 295.09 L 161.05 293.87 L 172.43 287.46 L 183.82 253.38 L 195.20 288.22 L 206.58 266.64 L 217.96 279.46 L 229.34 266.03 L 240.72 222.49 L 252.11 245.75 L 263.49 247.43 L 274.87 259.32 L 286.25 297.76 L 297.63 309.80 L 309.01 286.01 L 320.39 296.54 L 331.78 271.60 L 343.16 278.85 L 354.54 256.96 L 365.92 123.98 L 377.30 175.75 L 388.68 212.66 L 400.07 109.03 L 411.45 196.19 L 422.83 336.57 L 434.21 309.88 L 445.59 285.33 L 456.97 232.33 L 468.36 267.94 L 479.74 285.48 L 491.12 299.36 L 502.50 266.80 L 513.88 256.12 L 525.26 236.53 L 536.64 192.98 L 548.03 135.80 L 559.41 183.68 L 570.79 184.67 L 582.17 190.93 L 593.55 255.59 L 604.93 294.63 L 616.32 209.53 L 627.70 237.06 L 639.08 167.36 L 650.46 60.00 L 661.84 70.45 L 673.22 66.18 L 684.61 146.17 L 695.99 277.24 L 707.37 326.96 L 718.75 337.79 L 730.13 375.00 L 741.51 333.06 L 752.89 308.20 L 764.28 290.89 L 775.66 264.74 L 787.04 247.28 L 798.42 278.92 L 809.80 241.33 L 821.18 272.67 L 832.57 307.67 L 843.95 264.05 L 855.33 273.13 L 866.71 273.58 L 878.09 183.07 L 889.47 209.46 L 900.86 304.77 L 912.24 329.32 L 923.62 342.21 L 935.00 374.85" fill="none" stroke="#69a7ff" stroke-width="4" stroke-linecap="round" stroke-linejoin="round"/>
<circle cx="935.00" cy="374.85" r="6" fill="#69a7ff"/>
</svg>