<svg xmlns="http://www.w3.org/2000/svg" width="960" height="430" viewBox="0 0 960 430" role="img" aria-label="Composite score history">
<rect width="100%" height="100%" fill="#0b1020" rx="20"/>
<text x="70" y="32" fill="#f5f7fb" font-family="Inter, Arial, sans-serif" font-size="24" font-weight="700">Composite score history</text>
<text x="70" y="52" fill="#93a4c3" font-family="Inter, Arial, sans-serif" font-size="13">Trailing 88 sessions through 2025-12-24</text>
<line x1="70" x2="935" y1="375.00" y2="375.00" stroke="#27314e" stroke-width="1"/>
<text x="58" y="379.00" text-anchor="end" fill="#93a4c3" font-family="Inter, Arial, sans-serif" font-size="12">0</text>
<line x1="70" x2="935" y1="312.00" y2="312.00" stroke="#27314e" stroke-width="1"/>
<text x="58" y="316.00" text-anchor="end" fill="#93a4c3" font-family="Inter, Arial, sans-serif" font-size="12">8</text>
<line x1="70" x2="935" y1="249.00" y2="249.00" stroke="#27314e" stroke-width="1"/>
<text x="58" y="253.00" text-anchor="end" fill="#93a4c3" font-family="Inter, Arial, sans-serif" font-size="12">17</text>
<line x1="70" x2="935" y1="186.00" y2="186.00" stroke="#27314e" stroke-width="1"/>
<text x="58" y="190.00" text-anchor="end" fill="#93a4c3" font-family="Inter, Arial, sans-serif" font-size="12">25</text>
<line x1="70" x2="935" y1="123.00" y2="123.00" stroke="#27314e" stroke-width="1"/>
<text x="58" y="127.00" text-anchor="end" fill="#93a4c3" font-family="Inter, Arial, sans-serif" font-size="12">33</text>
<line x1="70" x2="935" y1="60.00" y2="60.00" stroke="#27314e" stroke-width="1"/>
<text x="58" y="64.00" text-anchor="end" fill="#93a4c3" font-family="Inter, Arial, sans-serif" font-size="12">41</text>
<text x="70.00" y="412" text-anchor="middle" fill="#93a4c3" font-family="Inter, Arial, sans-serif" font-size="12">2025-08-19</text>
<text x="507.47" y="412" text-anchor="middle" fill="#93a4c3" font-family="Inter, Arial, sans-serif" font-size="12">2025-10-22</text>
<text x="935.00" y="412" text-anchor="middle" fill="#93a4c3" font-family="Inter, Arial, sans-serif" font-size="12">2025-12-24</text>
<path d="M 70.00 271.53 L 79.94 256.27 L 89.89 194.74 L 99.83 254.83 L 109.77 235.84 L 119.71 245.90 L 129.66 258.71 L 139.60 293.71 L 149.54 259.71 L 159.48 225.47 L 169.43 243.31 L 179.37 278.39 L 189.31 265.27 L 199.25 295.39 L 209.20 309.58 L 219.14 305.99 L 229.08 310.95 L 239.02 297.45 L 248.97 295.09 L 258.91 293.87 L 268.85 287.46 L 278.79 253.38 L 288.74 288.22 L 298.68 266.64 L 308.62 279.46 L 318.56 266.03 L 328.51 222.49 L 338.45 245.75 L 348.39 247.43 L 358.33 259.32 L 368.28 297.76 L 378.22 309.80 L 388.16 286.01 L 398.10 296.54 L 408.05 271.60 L 417.99 278.85 L 427.93 256.96 L 437.87 123.98 L 447.82 175.75 L 457.76 212.66 L 467.70 109.03 L 477.64 196.19 L 487.59 336.57 L 497.53 309.88 L 507.47 285.33 L 517.41 232.33 L 527.36 267.94 L 537.30 285.48 L 547.24 299.36 L 557.18 266.80 L 567.13 256.12 L 577.07 236.53 L 587.01 192.98 L 596.95 135.80 L 606.90 183.68 L 616.84 184.67 L 626.78 190.93 L 636.72 255.59 L 646.67 294.63 L 656.61 209.53 L 666.55 237.06 L 676.49 167.36 L 686.44 60.00 L 696.38 70.45 L 706.32 66.18 L 716.26 146.17 L 726.21 277.24 L 736.15 326.96 L 746.09 337.79 L 756.03 375.00 L 765.98 333.06 L 775.92 308.20 L 785.86 290.89 L 795.80 264.74 L 805.75 247.28 L 815.69 278.92 L 825.63 241.33 L 835.57 272.67 L 845.52 307.67 L 855.46 264.05 L 865.40 273.13 L 875.34 273.58 L 885.29 183.07 L 895.23 209.46 L 905.17 304.77 L 915.11 329.32 L 925.06 342.21 L 935.00 374.85" fill="none" stroke="#69a7ff" stroke-width="4" stroke-linecap="round" stroke-linejoin="round"/>
<circle cx="935.00" cy="374.85" r="6" fill="#69a7ff"/>
</svg>