<svg xmlns="http://www.w3.org/2000/svg" width="960" height="430" viewBox="0 0 960 430" role="img" aria-label="Composite score history">
<rect width="100%" height="100%" fill="#0b1020" rx="20"/>
<text x="70" y="32" fill="#f5f7fb" font-family="Inter, Arial, sans-serif" font-size="24" font-weight="700">Composite score history</text>
<text x="70" y="52" fill="#93a4c3" font-family="Inter, Arial, sans-serif" font-size="13">Trailing 70 sessions through 2025-12-24</text>
<line x1="70" x2="935" y1="375.00" y2="375.00" stroke="#27314e" stroke-width="1"/>
<text x="58" y="379.00" text-anchor="end" fill="#93a4c3" font-family="Inter, Arial, sans-serif" font-size="12">0</text>
<line x1="70" x2="935" y1="312.00" y2="312.00" stroke="#27314e" stroke-width="1"/>
<text x="58" y="316.00" text-anchor="end" fill="#93a4c3" font-family="Inter, Arial, sans-serif" font-size="12">8</text>
<line x1="70" x2="935" y1="249.00" y2="249.00" stroke="#27314e" stroke-width="1"/>
<text x="58" y="253.00" text-anchor="end" fill="#93a4c3" font-family="Inter, Arial, sans-serif" font-size="12">17</text>
<line x1="70" x2="935" y1="186.00" y2="186.00" stroke="#27314e" stroke-width="1"/>
<text x="58" y="190.00" text-anchor="end" fill="#93a4c3" font-family="Inter, Arial, sans-serif" font-size="12">25</text>
<line x1="70" x2="935" y1="123.00" y2="123.00" stroke="#27314e" stroke-width="1"/>
<text x="58" y="127.00" text-anchor="end" fill="#93a4c3" font-family="Inter, Arial, sans-serif" font-size="12">33</text>
<line x1="70" x2="935" y1="60.00" y2="60.00" stroke="#27314e" stroke-width="1"/>
<text x="58" y="64.00" text-anchor="end" fill="#93a4c3" font-family="Inter, Arial, sans-serif" font-size="12">41</text>
<text x="70.00" y="412" text-anchor="middle" fill="#93a4c3" font-family="Inter, Arial, sans-serif" font-size="12">2025-09-15</text>
<text x="508.77" y="412" text-anchor="middle" fill="#93a4c3" font-family="Inter, Arial, sans-serif" font-size="12">2025-11-04</text>
<text x="935.00" y="412" text-anchor="middle" fill="#93a4c3" font-family="Inter, Arial, sans-serif" font-size="12">2025-12-24</text>
<path d="M 70.00 279.23 L 82.54 262.22 L 95.07 261.38 L 107.61 258.41 L 120.14 274.19 L 132.68 266.64 L 145.22 279.46 L 157.75 266.03 L 170.29 222.49 L 182.83 245.75 L 195.36 247.43 L 207.90 259.32 L 220.43 297.76 L 232.97 309.80 L 245.51 286.01 L 258.04 296.54 L 270.58 271.60 L 283.12 278.85 L 295.65 256.96 L 308.19 123.98 L 320.72 175.75 L 333.26 212.66 L 345.80 109.03 L 358.33 196.19 L 370.87 336.57 L 383.41 309.88 L 395.94 285.33 L 408.48 232.33 L 421.01 267.94 L 433.55 285.48 L 446.09 299.36 L 458.62 266.80 L 471.16 256.12 L 483.70 236.53 L 496.23 192.98 L 508.77 135.80 L 521.30 183.68 L 533.84 184.67 L 546.38 190.93 L 558.91 255.59 L 571.45 294.63 L 583.99 209.53 L 596.52 237.06 L 609.06 167.36 L 621.59 60.00 L 634.13 70.45 L 646.67 66.18 L 659.20 146.17 L 671.74 277.24 L 684.28 326.96 L 696.81 337.79 L 709.35 375.00 L 721.88 333.06 L 734.42 308.20 L 746.96 290.89 L 759.49 264.74 L 772.03 247.28 L 784.57 278.92 L 797.10 241.33 L 809.64 272.67 L 822.17 307.67 L 834.71 264.05 L 847.25 273.13 L 859.78 273.58 L 872.32 183.07 L 884.86 209.46 L 897.39 304.77 L 909.93 329.32 L 922.46 342.21 L 935.00 374.85" fill="none" stroke="#69a7ff" stroke-width="4" stroke-linecap="round" stroke-linejoin="round"/>
<circle cx="935.00" cy="374.85" r="6" fill="#69a7ff"/>
</svg>