<svg xmlns="http://www.w3.org/2000/svg" width="960" height="430" viewBox="0 0 960 430" role="img" aria-label="Composite score history">
<rect width="100%" height="100%" fill="#0b1020" rx="20"/>
<text x="70" y="32" fill="#f5f7fb" font-family="Inter, Arial, sans-serif" font-size="24" font-weight="700">Composite score history</text>
<text x="70" y="52" fill="#93a4c3" font-family="Inter, Arial, sans-serif" font-size="13">Trailing 67 sessions through 2025-10-29</text>
<line x1="70" x2="935" y1="375.00" y2="375.00" stroke="#27314e" stroke-width="1"/>
<text x="58" y="379.00" text-anchor="end" fill="#93a4c3" font-family="Inter, Arial, sans-serif" font-size="12">5</text>
<line x1="70" x2="935" y1="312.00" y2="312.00" stroke="#27314e" stroke-width="1"/>
<text x="58" y="316.00" text-anchor="end" fill="#93a4c3" font-family="Inter, Arial, sans-serif" font-size="12">11</text>
<line x1="70" x2="935" y1="249.00" y2="249.00" stroke="#27314e" stroke-width="1"/>
<text x="58" y="253.00" text-anchor="end" fill="#93a4c3" font-family="Inter, Arial, sans-serif" font-size="12">17</text>
<line x1="70" x2="935" y1="186.00" y2="186.00" stroke="#27314e" stroke-width="1"/>
<text x="58" y="190.00" text-anchor="end" fill="#93a4c3" font-family="Inter, Arial, sans-serif" font-size="12">23</text>
<line x1="70" x2="935" y1="123.00" y2="123.00" stroke="#27314e" stroke-width="1"/>
<text x="58" y="127.00" text-anchor="end" fill="#93a4c3" font-family="Inter, Arial, sans-serif" font-size="12">29</text>
<line x1="70" x2="935" y1="60.00" y2="60.00" stroke="#27314e" stroke-width="1"/>
<text x="58" y="64.00" text-anchor="end" fill="#93a4c3" font-family="Inter, Arial, sans-serif" font-size="12">35</text>
<text x="70.00" y="412" text-anchor="middle" fill="#93a4c3" font-family="Inter, Arial, sans-serif" font-size="12">2025-07-25</text>
<text x="502.50" y="412" text-anchor="middle" fill="#93a4c3" font-family="Inter, Arial, sans-serif" font-size="12">2025-09-11</text>
<text x="935.00" y="412" text-anchor="middle" fill="#93a4c3" font-family="Inter, Arial, sans-serif" font-size="12">2025-10-29</text>
<path d="M 70.00 266.16 L 83.11 264.90 L 96.21 229.32 L 109.32 213.38 L 122.42 180.24 L 135.53 73.72 L 148.64 196.28 L 161.74 187.73 L 174.85 250.44 L 187.95 276.19 L 201.06 268.80 L 214.17 229.96 L 227.27 338.37 L 240.38 334.46 L 253.48 319.79 L 266.59 309.02 L 279.70 310.61 L 292.80 235.87 L 305.91 183.93 L 319.02 141.81 L 332.12 261.84 L 345.23 231.86 L 358.33 249.49 L 371.44 267.22 L 384.55 315.67 L 397.65 268.59 L 410.76 221.19 L 423.86 245.90 L 436.97 294.46 L 450.08 276.30 L 463.18 318.00 L 476.29 337.63 L 489.39 332.67 L 502.50 339.53 L 515.61 320.85 L 528.71 317.57 L 541.82 315.88 L 554.92 307.02 L 568.03 259.83 L 581.14 308.07 L 594.24 278.20 L 607.35 295.93 L 620.45 277.35 L 633.56 217.08 L 646.67 249.27 L 659.77 251.60 L 672.88 268.06 L 685.98 321.27 L 699.09 337.95 L 712.20 305.01 L 725.30 319.58 L 738.41 285.06 L 751.52 295.09 L 764.62 264.79 L 777.73 80.69 L 790.83 152.37 L 803.94 203.46 L 817.05 60.00 L 830.15 180.66 L 843.26 375.00 L 856.36 338.05 L 869.47 304.06 L 882.58 230.70 L 895.68 279.99 L 908.79 304.27 L 921.89 323.49 L 935.00 278.41" fill="none" stroke="#69a7ff" stroke-width="4" stroke-linecap="round" stroke-linejoin="round"/>
<circle cx="935.00" cy="278.41" r="6" fill="#69a7ff"/>
</svg>