<svg xmlns="http://www.w3.org/2000/svg" width="960" height="430" viewBox="0 0 960 430" role="img" aria-label="Composite score history">
<rect width="100%" height="100%" fill="#0b1020" rx="20"/>
<text x="70" y="32" fill="#f5f7fb" font-family="Inter, Arial, sans-serif" font-size="24" font-weight="700">Composite score history</text>
<text x="70" y="52" fill="#93a4c3" font-family="Inter, Arial, sans-serif" font-size="13">Trailing 75 sessions through 2025-10-29</text>
<line x1="70" x2="935" y1="375.00" y2="375.00" stroke="#27314e" stroke-width="1"/>
<text x="58" y="379.00" text-anchor="end" fill="#93a4c3" font-family="Inter, Arial, sans-serif" font-size="12">12</text>
<line x1="70" x2="935" y1="312.00" y2="312.00" stroke="#27314e" stroke-width="1"/>
<text x="58" y="316.00" text-anchor="end" fill="#93a4c3" font-family="Inter, Arial, sans-serif" font-size="12">16</text>
<line x1="70" x2="935" y1="249.00" y2="249.00" stroke="#27314e" stroke-width="1"/>
<text x="58" y="253.00" text-anchor="end" fill="#93a4c3" font-family="Inter, Arial, sans-serif" font-size="12">21</text>
<line x1="70" x2="935" y1="186.00" y2="186.00" stroke="#27314e" stroke-width="1"/>
<text x="58" y="190.00" text-anchor="end" fill="#93a4c3" font-family="Inter, Arial, sans-serif" font-size="12">26</text>
<line x1="70" x2="935" y1="123.00" y2="123.00" stroke="#27314e" stroke-width="1"/>
<text x="58" y="127.00" text-anchor="end" fill="#93a4c3" font-family="Inter, Arial, sans-serif" font-size="12">30</text>
<line x1="70" x2="935" y1="60.00" y2="60.00" stroke="#27314e" stroke-width="1"/>
<text x="58" y="64.00" text-anchor="end" fill="#93a4c3" font-family="Inter, Arial, sans-serif" font-size="12">35</text>
<text x="70.00" y="412" text-anchor="middle" fill="#93a4c3" font-family="Inter, Arial, sans-serif" font-size="12">2025-07-15</text>
<text x="502.50" y="412" text-anchor="middle" fill="#93a4c3" font-family="Inter, Arial, sans-serif" font-size="12">2025-09-05</text>
<text x="935.00" y="412" text-anchor="middle" fill="#93a4c3" font-family="Inter, Arial, sans-serif" font-size="12">2025-10-29</text>
<path d="M 70.00 294.35 L 81.69 294.08 L 93.38 262.58 L 105.07 292.99 L 116.76 302.09 L 128.45 316.21 L 140.14 329.52 L 151.82 314.31 L 163.51 308.88 L 175.20 291.63 L 186.89 293.81 L 198.58 253.62 L 210.27 247.23 L 221.96 77.79 L 233.65 235.29 L 245.34 224.29 L 257.03 304.94 L 268.72 337.66 L 280.41 246.28 L 292.09 255.25 L 303.78 339.02 L 315.47 348.12 L 327.16 325.31 L 338.85 348.25 L 350.54 342.01 L 362.23 286.20 L 373.92 219.40 L 385.61 165.23 L 397.30 310.64 L 408.99 281.04 L 420.68 274.80 L 432.36 281.04 L 444.05 318.65 L 455.74 328.29 L 467.43 267.33 L 479.12 299.10 L 490.81 350.83 L 502.50 338.20 L 514.19 373.51 L 525.88 365.77 L 537.57 366.58 L 549.26 375.00 L 560.95 341.73 L 572.64 328.56 L 584.32 340.11 L 596.01 342.14 L 607.70 294.08 L 619.39 337.80 L 631.08 300.46 L 642.77 337.80 L 654.46 320.28 L 666.15 262.03 L 677.84 303.45 L 689.53 306.43 L 701.22 311.46 L 712.91 358.71 L 724.59 360.61 L 736.28 338.34 L 747.97 353.55 L 759.66 336.17 L 771.35 340.78 L 783.04 313.36 L 794.73 86.61 L 806.42 178.67 L 818.11 244.52 L 829.80 60.00 L 841.49 215.19 L 853.18 370.52 L 864.86 371.06 L 876.55 359.52 L 888.24 223.61 L 899.93 278.06 L 911.62 303.72 L 923.31 320.42 L 935.00 243.98" fill="none" stroke="#69a7ff" stroke-width="4" stroke-linecap="round" stroke-linejoin="round"/>
<circle cx="935.00" cy="243.98" r="6" fill="#69a7ff"/>
<text x="927.00" y="231.98" text-anchor="end" fill="#f5f7fb" font-family="Inter, Arial, sans-serif" font-size="12" font-weight="600">21.33</text>
</svg>