<svg xmlns="http://www.w3.org/2000/svg" width="960" height="430" viewBox="0 0 960 430" role="img" aria-label="Composite score history">
<rect width="100%" height="100%" fill="#0b1020" rx="20"/>
<text x="70" y="32" fill="#f5f7fb" font-family="Inter, Arial, sans-serif" font-size="24" font-weight="700">Composite score history</text>
<text x="70" y="52" fill="#93a4c3" font-family="Inter, Arial, sans-serif" font-size="13">Trailing 55 sessions through 2025-10-29</text>
<line x1="70" x2="935" y1="375.00" y2="375.00" stroke="#27314e" stroke-width="1"/>
<text x="58" y="379.00" text-anchor="end" fill="#93a4c3" font-family="Inter, Arial, sans-serif" font-size="12">5</text>
<line x1="70" x2="935" y1="312.00" y2="312.00" stroke="#27314e" stroke-width="1"/>
<text x="58" y="316.00" text-anchor="end" fill="#93a4c3" font-family="Inter, Arial, sans-serif" font-size="12">11</text>
<line x1="70" x2="935" y1="249.00" y2="249.00" stroke="#27314e" stroke-width="1"/>
<text x="58" y="253.00" text-anchor="end" fill="#93a4c3" font-family="Inter, Arial, sans-serif" font-size="12">17</text>
<line x1="70" x2="935" y1="186.00" y2="186.00" stroke="#27314e" stroke-width="1"/>
<text x="58" y="190.00" text-anchor="end" fill="#93a4c3" font-family="Inter, Arial, sans-serif" font-size="12">23</text>
<line x1="70" x2="935" y1="123.00" y2="123.00" stroke="#27314e" stroke-width="1"/>
<text x="58" y="127.00" text-anchor="end" fill="#93a4c3" font-family="Inter, Arial, sans-serif" font-size="12">29</text>
<line x1="70" x2="935" y1="60.00" y2="60.00" stroke="#27314e" stroke-width="1"/>
<text x="58" y="64.00" text-anchor="end" fill="#93a4c3" font-family="Inter, Arial, sans-serif" font-size="12">35</text>
<text x="70.00" y="412" text-anchor="middle" fill="#93a4c3" font-family="Inter, Arial, sans-serif" font-size="12">2025-08-12</text>
<text x="502.50" y="412" text-anchor="middle" fill="#93a4c3" font-family="Inter, Arial, sans-serif" font-size="12">2025-09-19</text>
<text x="935.00" y="412" text-anchor="middle" fill="#93a4c3" font-family="Inter, Arial, sans-serif" font-size="12">2025-10-29</text>
<path d="M 70.00 287.49 L 86.02 303.01 L 102.04 285.17 L 118.06 269.54 L 134.07 261.20 L 150.09 235.87 L 166.11 183.93 L 182.13 141.81 L 198.15 261.84 L 214.17 231.86 L 230.19 249.49 L 246.20 267.22 L 262.22 315.67 L 278.24 268.59 L 294.26 221.19 L 310.28 245.90 L 326.30 294.46 L 342.31 276.30 L 358.33 318.00 L 374.35 337.63 L 390.37 332.67 L 406.39 339.53 L 422.41 320.85 L 438.43 317.57 L 454.44 315.88 L 470.46 307.02 L 486.48 259.83 L 502.50 308.07 L 518.52 278.20 L 534.54 295.93 L 550.56 277.35 L 566.57 217.08 L 582.59 249.27 L 598.61 251.60 L 614.63 268.06 L 630.65 321.27 L 646.67 337.95 L 662.69 305.01 L 678.70 319.58 L 694.72 285.06 L 710.74 295.09 L 726.76 264.79 L 742.78 80.69 L 758.80 152.37 L 774.81 203.46 L 790.83 60.00 L 806.85 180.66 L 822.87 375.00 L 838.89 338.05 L 854.91 304.06 L 870.93 230.70 L 886.94 279.99 L 902.96 304.27 L 918.98 323.49 L 935.00 278.41" fill="none" stroke="#69a7ff" stroke-width="4" stroke-linecap="round" stroke-linejoin="round"/>
<circle cx="935.00" cy="278.41" r="6" fill="#69a7ff"/>
</svg>