<svg xmlns="http://www.w3.org/2000/svg" width="960" height="430" viewBox="0 0 960 430" role="img" aria-label="Composite score history">
<rect width="100%" height="100%" fill="#0b1020" rx="20"/>
<text x="70" y="32" fill="#f5f7fb" font-family="Inter, Arial, sans-serif" font-size="24" font-weight="700">Composite score history</text>
<text x="70" y="52" fill="#93a4c3" font-family="Inter, Arial, sans-serif" font-size="13">Trailing 74 sessions through 2025-10-29</text>
<line x1="70" x2="935" y1="375.00" y2="375.00" stroke="#27314e" stroke-width="1"/>
<text x="58" y="379.00" text-anchor="end" fill="#93a4c3" font-family="Inter, Arial, sans-serif" font-size="12">12</text>
<line x1="70" x2="935" y1="312.00" y2="312.00" stroke="#27314e" stroke-width="1"/>
<text x="58" y="316.00" text-anchor="end" fill="#93a4c3" font-family="Inter, Arial, sans-serif" font-size="12">16</text>
<line x1="70" x2="935" y1="249.00" y2="249.00" stroke="#27314e" stroke-width="1"/>
<text x="58" y="253.00" text-anchor="end" fill="#93a4c3" font-family="Inter, Arial, sans-serif" font-size="12">21</text>
<line x1="70" x2="935" y1="186.00" y2="186.00" stroke="#27314e" stroke-width="1"/>
<text x="58" y="190.00" text-anchor="end" fill="#93a4c3" font-family="Inter, Arial, sans-serif" font-size="12">26</text>
<line x1="70" x2="935" y1="123.00" y2="123.00" stroke="#27314e" stroke-width="1"/>
<text x="58" y="127.00" text-anchor="end" fill="#93a4c3" font-family="Inter, Arial, sans-serif" font-size="12">30</text>
<line x1="70" x2="935" y1="60.00" y2="60.00" stroke="#27314e" stroke-width="1"/>
<text x="58" y="64.00" text-anchor="end" fill="#93a4c3" font-family="Inter, Arial, sans-serif" font-size="12">35</text>
<text x="70.00" y="412" text-anchor="middle" fill="#93a4c3" font-family="Inter, Arial, sans-serif" font-size="12">2025-07-16</text>
<text x="508.42" y="412" text-anchor="middle" fill="#93a4c3" font-family="Inter, Arial, sans-serif" font-size="12">2025-09-08</text>
<text x="935.00" y="412" text-anchor="middle" fill="#93a4c3" font-family="Inter, Arial, sans-serif" font-size="12">2025-10-29</text>
<path d="M 70.00 300.87 L 81.85 253.07 L 93.70 299.78 L 105.55 308.88 L 117.40 316.21 L 129.25 329.52 L 141.10 314.31 L 152.95 308.88 L 164.79 291.63 L 176.64 293.81 L 188.49 253.62 L 200.34 247.23 L 212.19 77.79 L 224.04 235.29 L 235.89 224.29 L 247.74 304.94 L 259.59 337.66 L 271.44 246.28 L 283.29 255.25 L 295.14 339.02 L 306.99 348.12 L 318.84 325.31 L 330.68 348.25 L 342.53 342.01 L 354.38 286.20 L 366.23 219.40 L 378.08 165.23 L 389.93 310.64 L 401.78 281.04 L 413.63 274.80 L 425.48 281.04 L 437.33 318.65 L 449.18 328.29 L 461.03 267.33 L 472.88 299.10 L 484.73 350.83 L 496.58 338.20 L 508.42 373.51 L 520.27 365.77 L 532.12 366.58 L 543.97 375.00 L 555.82 341.73 L 567.67 328.56 L 579.52 340.11 L 591.37 342.14 L 603.22 294.08 L 615.07 337.80 L 626.92 300.46 L 638.77 337.80 L 650.62 320.28 L 662.47 262.03 L 674.32 303.45 L 686.16 306.43 L 698.01 311.46 L 709.86 358.71 L 721.71 360.61 L 733.56 338.34 L 745.41 353.55 L 757.26 336.17 L 769.11 340.78 L 780.96 313.36 L 792.81 86.61 L 804.66 178.67 L 816.51 244.52 L 828.36 60.00 L 840.21 215.19 L 852.05 370.52 L 863.90 371.06 L 875.75 359.52 L 887.60 223.61 L 899.45 278.06 L 911.30 303.72 L 923.15 320.42 L 935.00 243.98" fill="none" stroke="#69a7ff" stroke-width="4" stroke-linecap="round" stroke-linejoin="round"/>
<circle cx="935.00" cy="243.98" r="6" fill="#69a7ff"/>
<text x="927.00" y="231.98" text-anchor="end" fill="#f5f7fb" font-family="Inter, Arial, sans-serif" font-size="12" font-weight="600">21.33</text>
</svg>