<svg xmlns="http://www.w3.org/2000/svg" width="960" height="430" viewBox="0 0 960 430" role="img" aria-label="Composite score history">
<rect width="100%" height="100%" fill="#0b1020" rx="20"/>
<text x="70" y="32" fill="#f5f7fb" font-family="Inter, Arial, sans-serif" font-size="24" font-weight="700">Composite score history</text>
<text x="70" y="52" fill="#93a4c3" font-family="Inter, Arial, sans-serif" font-size="13">Trailing 84 sessions through 2026-03-09</text>
<line x1="70" x2="935" y1="375.00" y2="375.00" stroke="#27314e" stroke-width="1"/>
<text x="58" y="379.00" text-anchor="end" fill="#93a4c3" font-family="Inter, Arial, sans-serif" font-size="12">0</text>
<line x1="70" x2="935" y1="312.00" y2="312.00" stroke="#27314e" stroke-width="1"/>
<text x="58" y="316.00" text-anchor="end" fill="#93a4c3" font-family="Inter, Arial, sans-serif" font-size="12">12</text>
<line x1="70" x2="935" y1="249.00" y2="249.00" stroke="#27314e" stroke-width="1"/>
<text x="58" y="253.00" text-anchor="end" fill="#93a4c3" font-family="Inter, Arial, sans-serif" font-size="12">24</text>
<line x1="70" x2="935" y1="186.00" y2="186.00" stroke="#27314e" stroke-width="1"/>
<text x="58" y="190.00" text-anchor="end" fill="#93a4c3" font-family="Inter, Arial, sans-serif" font-size="12">36</text>
<line x1="70" x2="935" y1="123.00" y2="123.00" stroke="#27314e" stroke-width="1"/>
<text x="58" y="127.00" text-anchor="end" fill="#93a4c3" font-family="Inter, Arial, sans-serif" font-size="12">48</text>
<line x1="70" x2="935" y1="60.00" y2="60.00" stroke="#27314e" stroke-width="1"/>
<text x="58" y="64.00" text-anchor="end" fill="#93a4c3" font-family="Inter, Arial, sans-serif" font-size="12">60</text>
<text x="70.00" y="412" text-anchor="middle" fill="#93a4c3" font-family="Inter, Arial, sans-serif" font-size="12">2025-11-04</text>
<text x="507.71" y="412" text-anchor="middle" fill="#93a4c3" font-family="Inter, Arial, sans-serif" font-size="12">2026-01-07</text>
<text x="935.00" y="412" text-anchor="middle" fill="#93a4c3" font-family="Inter, Arial, sans-serif" font-size="12">2026-03-09</text>
<path d="M 70.00 296.51 L 80.42 289.56 L 90.84 273.22 L 101.27 281.75 L 111.69 313.96 L 122.11 319.44 L 132.53 260.62 L 142.95 279.65 L 153.37 231.47 L 163.80 157.25 L 174.22 164.47 L 184.64 161.52 L 195.06 216.81 L 205.48 307.42 L 215.90 341.79 L 226.33 349.28 L 236.75 375.00 L 247.17 346.01 L 257.59 328.83 L 268.01 316.86 L 278.43 298.78 L 288.86 286.71 L 299.28 308.58 L 309.70 282.60 L 320.12 304.26 L 330.54 328.46 L 340.96 298.31 L 351.39 304.58 L 361.81 304.89 L 372.23 242.33 L 382.65 260.56 L 393.07 326.45 L 403.49 343.43 L 413.92 352.33 L 424.34 374.89 L 434.76 365.20 L 445.18 345.90 L 455.60 330.14 L 466.02 291.61 L 476.45 282.65 L 486.87 288.77 L 497.29 305.84 L 507.71 303.37 L 518.13 314.17 L 528.55 316.17 L 538.98 293.03 L 549.40 277.59 L 559.82 279.65 L 570.24 285.97 L 580.66 262.25 L 591.08 173.96 L 601.51 235.21 L 611.93 263.78 L 622.35 254.13 L 632.77 287.82 L 643.19 318.55 L 653.61 296.88 L 664.04 273.80 L 674.46 272.32 L 684.88 279.91 L 695.30 233.63 L 705.72 235.95 L 716.14 192.67 L 726.57 290.66 L 736.99 287.66 L 747.41 303.37 L 757.83 306.58 L 768.25 294.19 L 778.67 242.70 L 789.10 235.32 L 799.52 257.72 L 809.94 248.49 L 820.36 308.37 L 830.78 284.07 L 841.20 304.37 L 851.63 314.59 L 862.05 308.69 L 872.47 283.02 L 882.89 266.36 L 893.31 193.67 L 903.73 208.43 L 914.16 159.68 L 924.58 60.00 L 935.00 158.73" fill="none" stroke="#69a7ff" stroke-width="4" stroke-linecap="round" stroke-linejoin="round"/>
<circle cx="935.00" cy="158.73" r="6" fill="#69a7ff"/>
</svg>