<svg xmlns="http://www.w3.org/2000/svg" width="960" height="430" viewBox="0 0 960 430" role="img" aria-label="Composite score history">
<rect width="100%" height="100%" fill="#0b1020" rx="20"/>
<text x="70" y="32" fill="#f5f7fb" font-family="Inter, Arial, sans-serif" font-size="24" font-weight="700">Composite score history</text>
<text x="70" y="52" fill="#93a4c3" font-family="Inter, Arial, sans-serif" font-size="13">Trailing 90 sessions through 2026-03-09</text>
<line x1="70" x2="935" y1="375.00" y2="375.00" stroke="#27314e" stroke-width="1"/>
<text x="58" y="379.00" text-anchor="end" fill="#93a4c3" font-family="Inter, Arial, sans-serif" font-size="12">1</text>
<line x1="70" x2="935" y1="312.00" y2="312.00" stroke="#27314e" stroke-width="1"/>
<text x="58" y="316.00" text-anchor="end" fill="#93a4c3" font-family="Inter, Arial, sans-serif" font-size="12">15</text>
<line x1="70" x2="935" y1="249.00" y2="249.00" stroke="#27314e" stroke-width="1"/>
<text x="58" y="253.00" text-anchor="end" fill="#93a4c3" font-family="Inter, Arial, sans-serif" font-size="12">29</text>
<line x1="70" x2="935" y1="186.00" y2="186.00" stroke="#27314e" stroke-width="1"/>
<text x="58" y="190.00" text-anchor="end" fill="#93a4c3" font-family="Inter, Arial, sans-serif" font-size="12">43</text>
<line x1="70" x2="935" y1="123.00" y2="123.00" stroke="#27314e" stroke-width="1"/>
<text x="58" y="127.00" text-anchor="end" fill="#93a4c3" font-family="Inter, Arial, sans-serif" font-size="12">57</text>
<line x1="70" x2="935" y1="60.00" y2="60.00" stroke="#27314e" stroke-width="1"/>
<text x="58" y="64.00" text-anchor="end" fill="#93a4c3" font-family="Inter, Arial, sans-serif" font-size="12">70</text>
<text x="70.00" y="412" text-anchor="middle" fill="#93a4c3" font-family="Inter, Arial, sans-serif" font-size="12">2025-10-27</text>
<text x="507.36" y="412" text-anchor="middle" fill="#93a4c3" font-family="Inter, Arial, sans-serif" font-size="12">2026-01-02</text>
<text x="935.00" y="412" text-anchor="middle" fill="#93a4c3" font-family="Inter, Arial, sans-serif" font-size="12">2026-03-09</text>
<path d="M 70.00 306.78 L 79.72 321.64 L 89.44 271.06 L 99.16 304.06 L 108.88 302.19 L 118.60 271.42 L 128.31 244.16 L 138.03 294.01 L 147.75 309.15 L 157.47 311.60 L 167.19 352.41 L 176.91 361.05 L 186.63 324.28 L 196.35 323.19 L 206.07 282.70 L 215.79 234.43 L 225.51 235.25 L 235.22 235.84 L 244.94 280.97 L 254.66 350.64 L 264.38 357.41 L 274.10 362.14 L 283.82 365.05 L 293.54 348.32 L 303.26 341.50 L 312.98 327.33 L 322.70 312.46 L 332.42 299.01 L 342.13 344.69 L 351.85 304.78 L 361.57 327.28 L 371.29 370.23 L 381.01 351.55 L 390.73 354.55 L 400.45 351.23 L 410.17 298.24 L 419.89 313.05 L 429.61 370.05 L 439.33 372.91 L 449.04 373.18 L 458.76 375.00 L 468.48 374.55 L 478.20 372.45 L 487.92 366.41 L 497.64 333.32 L 507.36 320.14 L 517.08 315.60 L 526.80 319.37 L 536.52 326.46 L 546.24 328.55 L 555.96 316.96 L 565.67 292.24 L 575.39 294.06 L 585.11 305.56 L 594.83 304.92 L 604.55 289.83 L 614.27 222.20 L 623.99 270.24 L 633.71 283.60 L 643.43 280.42 L 653.15 330.42 L 662.87 325.28 L 672.58 319.60 L 682.30 301.10 L 692.02 315.74 L 701.74 319.96 L 711.46 280.24 L 721.18 306.10 L 730.90 269.83 L 740.62 356.59 L 750.34 353.41 L 760.06 360.05 L 769.78 360.55 L 779.49 349.59 L 789.21 306.74 L 798.93 299.24 L 808.65 317.05 L 818.37 314.60 L 828.09 351.05 L 837.81 333.55 L 847.53 348.28 L 857.25 359.59 L 866.97 357.18 L 876.69 339.55 L 886.40 293.33 L 896.12 228.29 L 905.84 246.02 L 915.56 178.30 L 925.28 60.00 L 935.00 190.12" fill="none" stroke="#69a7ff" stroke-width="4" stroke-linecap="round" stroke-linejoin="round"/>
<circle cx="935.00" cy="190.12" r="6" fill="#69a7ff"/>
<text x="927.00" y="178.12" text-anchor="end" fill="#f5f7fb" font-family="Inter, Arial, sans-serif" font-size="12" font-weight="600">41.80</text>
</svg>