<svg xmlns="http://www.w3.org/2000/svg" width="960" height="430" viewBox="0 0 960 430" role="img" aria-label="Composite score history">
<rect width="100%" height="100%" fill="#0b1020" rx="20"/>
<text x="70" y="32" fill="#f5f7fb" font-family="Inter, Arial, sans-serif" font-size="24" font-weight="700">Composite score history</text>
<text x="70" y="52" fill="#93a4c3" font-family="Inter, Arial, sans-serif" font-size="13">Trailing 82 sessions through 2026-03-09</text>
<line x1="70" x2="935" y1="375.00" y2="375.00" stroke="#27314e" stroke-width="1"/>
<text x="58" y="379.00" text-anchor="end" fill="#93a4c3" font-family="Inter, Arial, sans-serif" font-size="12">0</text>
<line x1="70" x2="935" y1="312.00" y2="312.00" stroke="#27314e" stroke-width="1"/>
<text x="58" y="316.00" text-anchor="end" fill="#93a4c3" font-family="Inter, Arial, sans-serif" font-size="12">12</text>
<line x1="70" x2="935" y1="249.00" y2="249.00" stroke="#27314e" stroke-width="1"/>
<text x="58" y="253.00" text-anchor="end" fill="#93a4c3" font-family="Inter, Arial, sans-serif" font-size="12">24</text>
<line x1="70" x2="935" y1="186.00" y2="186.00" stroke="#27314e" stroke-width="1"/>
<text x="58" y="190.00" text-anchor="end" fill="#93a4c3" font-family="Inter, Arial, sans-serif" font-size="12">36</text>
<line x1="70" x2="935" y1="123.00" y2="123.00" stroke="#27314e" stroke-width="1"/>
<text x="58" y="127.00" text-anchor="end" fill="#93a4c3" font-family="Inter, Arial, sans-serif" font-size="12">48</text>
<line x1="70" x2="935" y1="60.00" y2="60.00" stroke="#27314e" stroke-width="1"/>
<text x="58" y="64.00" text-anchor="end" fill="#93a4c3" font-family="Inter, Arial, sans-serif" font-size="12">60</text>
<text x="70.00" y="412" text-anchor="middle" fill="#93a4c3" font-family="Inter, Arial, sans-serif" font-size="12">2025-11-06</text>
<text x="507.84" y="412" text-anchor="middle" fill="#93a4c3" font-family="Inter, Arial, sans-serif" font-size="12">2026-01-08</text>
<text x="935.00" y="412" text-anchor="middle" fill="#93a4c3" font-family="Inter, Arial, sans-serif" font-size="12">2026-03-09</text>
<path d="M 70.00 295.62 L 80.68 300.47 L 91.36 319.34 L 102.04 329.56 L 112.72 292.09 L 123.40 279.65 L 134.07 231.47 L 144.75 157.25 L 155.43 164.47 L 166.11 161.52 L 176.79 216.81 L 187.47 307.42 L 198.15 341.79 L 208.83 349.28 L 219.51 375.00 L 230.19 346.01 L 240.86 328.83 L 251.54 316.86 L 262.22 298.78 L 272.90 286.71 L 283.58 308.58 L 294.26 282.60 L 304.94 304.26 L 315.62 328.46 L 326.30 298.31 L 336.98 304.58 L 347.65 304.89 L 358.33 242.33 L 369.01 260.56 L 379.69 326.45 L 390.37 343.43 L 401.05 352.33 L 411.73 374.89 L 422.41 365.20 L 433.09 345.90 L 443.77 330.14 L 454.44 291.61 L 465.12 282.65 L 475.80 288.77 L 486.48 305.84 L 497.16 303.37 L 507.84 314.17 L 518.52 316.17 L 529.20 293.03 L 539.88 277.59 L 550.56 279.65 L 561.23 285.97 L 571.91 262.25 L 582.59 173.96 L 593.27 235.21 L 603.95 263.78 L 614.63 254.13 L 625.31 287.82 L 635.99 318.55 L 646.67 296.88 L 657.35 273.80 L 668.02 272.32 L 678.70 279.91 L 689.38 233.63 L 700.06 235.95 L 710.74 192.67 L 721.42 290.66 L 732.10 287.66 L 742.78 303.37 L 753.46 306.58 L 764.14 294.19 L 774.81 242.70 L 785.49 235.32 L 796.17 257.72 L 806.85 248.49 L 817.53 308.37 L 828.21 284.07 L 838.89 304.37 L 849.57 314.59 L 860.25 308.69 L 870.93 283.02 L 881.60 266.36 L 892.28 193.67 L 902.96 208.43 L 913.64 159.68 L 924.32 60.00 L 935.00 158.73" fill="none" stroke="#69a7ff" stroke-width="4" stroke-linecap="round" stroke-linejoin="round"/>
<circle cx="935.00" cy="158.73" r="6" fill="#69a7ff"/>
</svg>