<svg xmlns="http://www.w3.org/2000/svg" width="960" height="430" viewBox="0 0 960 430" role="img" aria-label="Composite score history">
<rect width="100%" height="100%" fill="#0b1020" rx="20"/>
<text x="70" y="32" fill="#f5f7fb" font-family="Inter, Arial, sans-serif" font-size="24" font-weight="700">Composite score history</text>
<text x="70" y="52" fill="#93a4c3" font-family="Inter, Arial, sans-serif" font-size="13">Trailing 70 sessions through 2025-11-14</text>
<line x1="70" x2="935" y1="375.00" y2="375.00" stroke="#27314e" stroke-width="1"/>
<text x="58" y="379.00" text-anchor="end" fill="#93a4c3" font-family="Inter, Arial, sans-serif" font-size="12">5</text>
<line x1="70" x2="935" y1="312.00" y2="312.00" stroke="#27314e" stroke-width="1"/>
<text x="58" y="316.00" text-anchor="end" fill="#93a4c3" font-family="Inter, Arial, sans-serif" font-size="12">11</text>
<line x1="70" x2="935" y1="249.00" y2="249.00" stroke="#27314e" stroke-width="1"/>
<text x="58" y="253.00" text-anchor="end" fill="#93a4c3" font-family="Inter, Arial, sans-serif" font-size="12">17</text>
<line x1="70" x2="935" y1="186.00" y2="186.00" stroke="#27314e" stroke-width="1"/>
<text x="58" y="190.00" text-anchor="end" fill="#93a4c3" font-family="Inter, Arial, sans-serif" font-size="12">23</text>
<line x1="70" x2="935" y1="123.00" y2="123.00" stroke="#27314e" stroke-width="1"/>
<text x="58" y="127.00" text-anchor="end" fill="#93a4c3" font-family="Inter, Arial, sans-serif" font-size="12">29</text>
<line x1="70" x2="935" y1="60.00" y2="60.00" stroke="#27314e" stroke-width="1"/>
<text x="58" y="64.00" text-anchor="end" fill="#93a4c3" font-family="Inter, Arial, sans-serif" font-size="12">35</text>
<text x="70.00" y="412" text-anchor="middle" fill="#93a4c3" font-family="Inter, Arial, sans-serif" font-size="12">2025-08-06</text>
<text x="508.77" y="412" text-anchor="middle" fill="#93a4c3" font-family="Inter, Arial, sans-serif" font-size="12">2025-09-25</text>
<text x="935.00" y="412" text-anchor="middle" fill="#93a4c3" font-family="Inter, Arial, sans-serif" font-size="12">2025-11-14</text>
<path d="M 70.00 277.99 L 82.54 253.81 L 95.07 233.76 L 107.61 218.34 L 120.14 300.89 L 132.68 334.46 L 145.22 319.79 L 157.75 309.02 L 170.29 310.61 L 182.83 235.87 L 195.36 183.93 L 207.90 141.81 L 220.43 261.84 L 232.97 231.86 L 245.51 249.49 L 258.04 267.22 L 270.58 315.67 L 283.12 268.59 L 295.65 221.19 L 308.19 245.90 L 320.72 294.46 L 333.26 276.30 L 345.80 318.00 L 358.33 337.63 L 370.87 332.67 L 383.41 339.53 L 395.94 320.85 L 408.48 317.57 L 421.01 315.88 L 433.55 307.02 L 446.09 259.83 L 458.62 308.07 L 471.16 278.20 L 483.70 295.93 L 496.23 277.35 L 508.77 217.08 L 521.30 249.27 L 533.84 251.60 L 546.38 268.06 L 558.91 321.27 L 571.45 337.95 L 583.99 305.01 L 596.52 319.58 L 609.06 285.06 L 621.59 295.09 L 634.13 264.79 L 646.67 80.69 L 659.20 152.37 L 671.74 203.46 L 684.28 60.00 L 696.81 180.66 L 709.35 375.00 L 721.88 338.05 L 734.42 304.06 L 746.96 230.70 L 759.49 279.99 L 772.03 304.27 L 784.57 323.49 L 797.10 278.41 L 809.64 263.63 L 822.17 236.50 L 834.71 176.22 L 847.25 97.05 L 859.78 163.35 L 872.32 164.72 L 884.86 173.37 L 897.39 262.89 L 909.93 316.94 L 922.46 199.13 L 935.00 237.24" fill="none" stroke="#69a7ff" stroke-width="4" stroke-linecap="round" stroke-linejoin="round"/>
<circle cx="935.00" cy="237.24" r="6" fill="#69a7ff"/>
</svg>