<svg xmlns="http://www.w3.org/2000/svg" width="960" height="430" viewBox="0 0 960 430" role="img" aria-label="Composite score history">
<rect width="100%" height="100%" fill="#0b1020" rx="20"/>
<text x="70" y="32" fill="#f5f7fb" font-family="Inter, Arial, sans-serif" font-size="24" font-weight="700">Composite score history</text>
<text x="70" y="52" fill="#93a4c3" font-family="Inter, Arial, sans-serif" font-size="13">Trailing 84 sessions through 2025-11-14</text>
<line x1="70" x2="935" y1="375.00" y2="375.00" stroke="#27314e" stroke-width="1"/>
<text x="58" y="379.00" text-anchor="end" fill="#93a4c3" font-family="Inter, Arial, sans-serif" font-size="12">12</text>
<line x1="70" x2="935" y1="312.00" y2="312.00" stroke="#27314e" stroke-width="1"/>
<text x="58" y="316.00" text-anchor="end" fill="#93a4c3" font-family="Inter, Arial, sans-serif" font-size="12">16</text>
<line x1="70" x2="935" y1="249.00" y2="249.00" stroke="#27314e" stroke-width="1"/>
<text x="58" y="253.00" text-anchor="end" fill="#93a4c3" font-family="Inter, Arial, sans-serif" font-size="12">21</text>
<line x1="70" x2="935" y1="186.00" y2="186.00" stroke="#27314e" stroke-width="1"/>
<text x="58" y="190.00" text-anchor="end" fill="#93a4c3" font-family="Inter, Arial, sans-serif" font-size="12">26</text>
<line x1="70" x2="935" y1="123.00" y2="123.00" stroke="#27314e" stroke-width="1"/>
<text x="58" y="127.00" text-anchor="end" fill="#93a4c3" font-family="Inter, Arial, sans-serif" font-size="12">30</text>
<line x1="70" x2="935" y1="60.00" y2="60.00" stroke="#27314e" stroke-width="1"/>
<text x="58" y="64.00" text-anchor="end" fill="#93a4c3" font-family="Inter, Arial, sans-serif" font-size="12">35</text>
<text x="70.00" y="412" text-anchor="middle" fill="#93a4c3" font-family="Inter, Arial, sans-serif" font-size="12">2025-07-17</text>
<text x="507.71" y="412" text-anchor="middle" fill="#93a4c3" font-family="Inter, Arial, sans-serif" font-size="12">2025-09-16</text>
<text x="935.00" y="412" text-anchor="middle" fill="#93a4c3" font-family="Inter, Arial, sans-serif" font-size="12">2025-11-14</text>
<path d="M 70.00 296.52 L 80.42 305.89 L 90.84 307.11 L 101.27 316.21 L 111.69 329.52 L 122.11 314.31 L 132.53 308.88 L 142.95 291.63 L 153.37 293.81 L 163.80 253.62 L 174.22 247.23 L 184.64 77.79 L 195.06 235.29 L 205.48 224.29 L 215.90 304.94 L 226.33 337.66 L 236.75 246.28 L 247.17 255.25 L 257.59 339.02 L 268.01 348.12 L 278.43 325.31 L 288.86 348.25 L 299.28 342.01 L 309.70 286.20 L 320.12 219.40 L 330.54 165.23 L 340.96 310.64 L 351.39 281.04 L 361.81 274.80 L 372.23 281.04 L 382.65 318.65 L 393.07 328.29 L 403.49 267.33 L 413.92 299.10 L 424.34 350.83 L 434.76 338.20 L 445.18 373.51 L 455.60 365.77 L 466.02 366.58 L 476.45 375.00 L 486.87 341.73 L 497.29 328.56 L 507.71 340.11 L 518.13 342.14 L 528.55 294.08 L 538.98 337.80 L 549.40 300.46 L 559.82 337.80 L 570.24 320.28 L 580.66 262.03 L 591.08 303.45 L 601.51 306.43 L 611.93 311.46 L 622.35 358.71 L 632.77 360.61 L 643.19 338.34 L 653.61 353.55 L 664.04 336.17 L 674.46 340.78 L 684.88 313.36 L 695.30 86.61 L 705.72 178.67 L 716.14 244.52 L 726.57 60.00 L 736.99 215.19 L 747.41 370.52 L 757.83 371.06 L 768.25 359.52 L 778.67 223.61 L 789.10 278.06 L 799.52 303.72 L 809.94 320.42 L 820.36 243.98 L 830.78 279.69 L 841.20 262.85 L 851.63 209.49 L 862.05 107.66 L 872.47 192.92 L 882.89 194.69 L 893.31 205.82 L 903.73 320.96 L 914.16 350.70 L 924.58 238.95 L 935.00 281.04" fill="none" stroke="#69a7ff" stroke-width="4" stroke-linecap="round" stroke-linejoin="round"/>
<circle cx="935.00" cy="281.04" r="6" fill="#69a7ff"/>
<text x="927.00" y="269.04" text-anchor="end" fill="#f5f7fb" font-family="Inter, Arial, sans-serif" font-size="12" font-weight="600">18.60</text>
</svg>