<svg xmlns="http://www.w3.org/2000/svg" width="960" height="430" viewBox="0 0 960 430" role="img" aria-label="Composite score history">
<rect width="100%" height="100%" fill="#0b1020" rx="20"/>
<text x="70" y="32" fill="#f5f7fb" font-family="Inter, Arial, sans-serif" font-size="24" font-weight="700">Composite score history</text>
<text x="70" y="52" fill="#93a4c3" font-family="Inter, Arial, sans-serif" font-size="13">Trailing 86 sessions through 2025-11-14</text>
<line x1="70" x2="935" y1="375.00" y2="375.00" stroke="#27314e" stroke-width="1"/>
<text x="58" y="379.00" text-anchor="end" fill="#93a4c3" font-family="Inter, Arial, sans-serif" font-size="12">12</text>
<line x1="70" x2="935" y1="312.00" y2="312.00" stroke="#27314e" stroke-width="1"/>
<text x="58" y="316.00" text-anchor="end" fill="#93a4c3" font-family="Inter, Arial, sans-serif" font-size="12">16</text>
<line x1="70" x2="935" y1="249.00" y2="249.00" stroke="#27314e" stroke-width="1"/>
<text x="58" y="253.00" text-anchor="end" fill="#93a4c3" font-family="Inter, Arial, sans-serif" font-size="12">21</text>
<line x1="70" x2="935" y1="186.00" y2="186.00" stroke="#27314e" stroke-width="1"/>
<text x="58" y="190.00" text-anchor="end" fill="#93a4c3" font-family="Inter, Arial, sans-serif" font-size="12">26</text>
<line x1="70" x2="935" y1="123.00" y2="123.00" stroke="#27314e" stroke-width="1"/>
<text x="58" y="127.00" text-anchor="end" fill="#93a4c3" font-family="Inter, Arial, sans-serif" font-size="12">30</text>
<line x1="70" x2="935" y1="60.00" y2="60.00" stroke="#27314e" stroke-width="1"/>
<text x="58" y="64.00" text-anchor="end" fill="#93a4c3" font-family="Inter, Arial, sans-serif" font-size="12">35</text>
<text x="70.00" y="412" text-anchor="middle" fill="#93a4c3" font-family="Inter, Arial, sans-serif" font-size="12">2025-07-15</text>
<text x="507.59" y="412" text-anchor="middle" fill="#93a4c3" font-family="Inter, Arial, sans-serif" font-size="12">2025-09-15</text>
<text x="935.00" y="412" text-anchor="middle" fill="#93a4c3" font-family="Inter, Arial, sans-serif" font-size="12">2025-11-14</text>
<path d="M 70.00 294.35 L 80.18 294.08 L 90.35 262.58 L 100.53 292.99 L 110.71 302.09 L 120.88 316.21 L 131.06 329.52 L 141.24 314.31 L 151.41 308.88 L 161.59 291.63 L 171.76 293.81 L 181.94 253.62 L 192.12 247.23 L 202.29 77.79 L 212.47 235.29 L 222.65 224.29 L 232.82 304.94 L 243.00 337.66 L 253.18 246.28 L 263.35 255.25 L 273.53 339.02 L 283.71 348.12 L 293.88 325.31 L 304.06 348.25 L 314.24 342.01 L 324.41 286.20 L 334.59 219.40 L 344.76 165.23 L 354.94 310.64 L 365.12 281.04 L 375.29 274.80 L 385.47 281.04 L 395.65 318.65 L 405.82 328.29 L 416.00 267.33 L 426.18 299.10 L 436.35 350.83 L 446.53 338.20 L 456.71 373.51 L 466.88 365.77 L 477.06 366.58 L 487.24 375.00 L 497.41 341.73 L 507.59 328.56 L 517.76 340.11 L 527.94 342.14 L 538.12 294.08 L 548.29 337.80 L 558.47 300.46 L 568.65 337.80 L 578.82 320.28 L 589.00 262.03 L 599.18 303.45 L 609.35 306.43 L 619.53 311.46 L 629.71 358.71 L 639.88 360.61 L 650.06 338.34 L 660.24 353.55 L 670.41 336.17 L 680.59 340.78 L 690.76 313.36 L 700.94 86.61 L 711.12 178.67 L 721.29 244.52 L 731.47 60.00 L 741.65 215.19 L 751.82 370.52 L 762.00 371.06 L 772.18 359.52 L 782.35 223.61 L 792.53 278.06 L 802.71 303.72 L 812.88 320.42 L 823.06 243.98 L 833.24 279.69 L 843.41 262.85 L 853.59 209.49 L 863.76 107.66 L 873.94 192.92 L 884.12 194.69 L 894.29 205.82 L 904.47 320.96 L 914.65 350.70 L 924.82 238.95 L 935.00 281.04" fill="none" stroke="#69a7ff" stroke-width="4" stroke-linecap="round" stroke-linejoin="round"/>
<circle cx="935.00" cy="281.04" r="6" fill="#69a7ff"/>
<text x="927.00" y="269.04" text-anchor="end" fill="#f5f7fb" font-family="Inter, Arial, sans-serif" font-size="12" font-weight="600">18.60</text>
</svg>