<svg xmlns="http://www.w3.org/2000/svg" width="960" height="430" viewBox="0 0 960 430" role="img" aria-label="Composite score history">
<rect width="100%" height="100%" fill="#0b1020" rx="20"/>
<text x="70" y="32" fill="#f5f7fb" font-family="Inter, Arial, sans-serif" font-size="24" font-weight="700">Composite score history</text>
<text x="70" y="52" fill="#93a4c3" font-family="Inter, Arial, sans-serif" font-size="13">Trailing 55 sessions through 2025-11-14</text>
<line x1="70" x2="935" y1="375.00" y2="375.00" stroke="#27314e" stroke-width="1"/>
<text x="58" y="379.00" text-anchor="end" fill="#93a4c3" font-family="Inter, Arial, sans-serif" font-size="12">5</text>
<line x1="70" x2="935" y1="312.00" y2="312.00" stroke="#27314e" stroke-width="1"/>
<text x="58" y="316.00" text-anchor="end" fill="#93a4c3" font-family="Inter, Arial, sans-serif" font-size="12">11</text>
<line x1="70" x2="935" y1="249.00" y2="249.00" stroke="#27314e" stroke-width="1"/>
<text x="58" y="253.00" text-anchor="end" fill="#93a4c3" font-family="Inter, Arial, sans-serif" font-size="12">17</text>
<line x1="70" x2="935" y1="186.00" y2="186.00" stroke="#27314e" stroke-width="1"/>
<text x="58" y="190.00" text-anchor="end" fill="#93a4c3" font-family="Inter, Arial, sans-serif" font-size="12">23</text>
<line x1="70" x2="935" y1="123.00" y2="123.00" stroke="#27314e" stroke-width="1"/>
<text x="58" y="127.00" text-anchor="end" fill="#93a4c3" font-family="Inter, Arial, sans-serif" font-size="12">29</text>
<line x1="70" x2="935" y1="60.00" y2="60.00" stroke="#27314e" stroke-width="1"/>
<text x="58" y="64.00" text-anchor="end" fill="#93a4c3" font-family="Inter, Arial, sans-serif" font-size="12">35</text>
<text x="70.00" y="412" text-anchor="middle" fill="#93a4c3" font-family="Inter, Arial, sans-serif" font-size="12">2025-08-27</text>
<text x="502.50" y="412" text-anchor="middle" fill="#93a4c3" font-family="Inter, Arial, sans-serif" font-size="12">2025-10-06</text>
<text x="935.00" y="412" text-anchor="middle" fill="#93a4c3" font-family="Inter, Arial, sans-serif" font-size="12">2025-11-14</text>
<path d="M 70.00 284.64 L 86.02 283.16 L 102.04 263.00 L 118.06 158.07 L 134.07 227.21 L 150.09 294.46 L 166.11 276.30 L 182.13 318.00 L 198.15 337.63 L 214.17 332.67 L 230.19 339.53 L 246.20 320.85 L 262.22 317.57 L 278.24 315.88 L 294.26 307.02 L 310.28 259.83 L 326.30 308.07 L 342.31 278.20 L 358.33 295.93 L 374.35 277.35 L 390.37 217.08 L 406.39 249.27 L 422.41 251.60 L 438.43 268.06 L 454.44 321.27 L 470.46 337.95 L 486.48 305.01 L 502.50 319.58 L 518.52 285.06 L 534.54 295.09 L 550.56 264.79 L 566.57 80.69 L 582.59 152.37 L 598.61 203.46 L 614.63 60.00 L 630.65 180.66 L 646.67 375.00 L 662.69 338.05 L 678.70 304.06 L 694.72 230.70 L 710.74 279.99 L 726.76 304.27 L 742.78 323.49 L 758.80 278.41 L 774.81 263.63 L 790.83 236.50 L 806.85 176.22 L 822.87 97.05 L 838.89 163.35 L 854.91 164.72 L 870.93 173.37 L 886.94 262.89 L 902.96 316.94 L 918.98 199.13 L 935.00 237.24" fill="none" stroke="#69a7ff" stroke-width="4" stroke-linecap="round" stroke-linejoin="round"/>
<circle cx="935.00" cy="237.24" r="6" fill="#69a7ff"/>
</svg>