<svg xmlns="http://www.w3.org/2000/svg" width="960" height="430" viewBox="0 0 960 430" role="img" aria-label="Composite score history">
<rect width="100%" height="100%" fill="#0b1020" rx="20"/>
<text x="70" y="32" fill="#f5f7fb" font-family="Inter, Arial, sans-serif" font-size="24" font-weight="700">Composite score history</text>
<text x="70" y="52" fill="#93a4c3" font-family="Inter, Arial, sans-serif" font-size="13">Trailing 74 sessions through 2025-11-14</text>
<line x1="70" x2="935" y1="375.00" y2="375.00" stroke="#27314e" stroke-width="1"/>
<text x="58" y="379.00" text-anchor="end" fill="#93a4c3" font-family="Inter, Arial, sans-serif" font-size="12">5</text>
<line x1="70" x2="935" y1="312.00" y2="312.00" stroke="#27314e" stroke-width="1"/>
<text x="58" y="316.00" text-anchor="end" fill="#93a4c3" font-family="Inter, Arial, sans-serif" font-size="12">11</text>
<line x1="70" x2="935" y1="249.00" y2="249.00" stroke="#27314e" stroke-width="1"/>
<text x="58" y="253.00" text-anchor="end" fill="#93a4c3" font-family="Inter, Arial, sans-serif" font-size="12">17</text>
<line x1="70" x2="935" y1="186.00" y2="186.00" stroke="#27314e" stroke-width="1"/>
<text x="58" y="190.00" text-anchor="end" fill="#93a4c3" font-family="Inter, Arial, sans-serif" font-size="12">23</text>
<line x1="70" x2="935" y1="123.00" y2="123.00" stroke="#27314e" stroke-width="1"/>
<text x="58" y="127.00" text-anchor="end" fill="#93a4c3" font-family="Inter, Arial, sans-serif" font-size="12">29</text>
<line x1="70" x2="935" y1="60.00" y2="60.00" stroke="#27314e" stroke-width="1"/>
<text x="58" y="64.00" text-anchor="end" fill="#93a4c3" font-family="Inter, Arial, sans-serif" font-size="12">35</text>
<text x="70.00" y="412" text-anchor="middle" fill="#93a4c3" font-family="Inter, Arial, sans-serif" font-size="12">2025-07-31</text>
<text x="508.42" y="412" text-anchor="middle" fill="#93a4c3" font-family="Inter, Arial, sans-serif" font-size="12">2025-09-23</text>
<text x="935.00" y="412" text-anchor="middle" fill="#93a4c3" font-family="Inter, Arial, sans-serif" font-size="12">2025-11-14</text>
<path d="M 70.00 251.28 L 81.85 131.57 L 93.70 254.55 L 105.55 220.98 L 117.40 279.89 L 129.25 276.19 L 141.10 268.80 L 152.95 229.96 L 164.79 338.37 L 176.64 334.46 L 188.49 319.79 L 200.34 309.02 L 212.19 310.61 L 224.04 235.87 L 235.89 183.93 L 247.74 141.81 L 259.59 261.84 L 271.44 231.86 L 283.29 249.49 L 295.14 267.22 L 306.99 315.67 L 318.84 268.59 L 330.68 221.19 L 342.53 245.90 L 354.38 294.46 L 366.23 276.30 L 378.08 318.00 L 389.93 337.63 L 401.78 332.67 L 413.63 339.53 L 425.48 320.85 L 437.33 317.57 L 449.18 315.88 L 461.03 307.02 L 472.88 259.83 L 484.73 308.07 L 496.58 278.20 L 508.42 295.93 L 520.27 277.35 L 532.12 217.08 L 543.97 249.27 L 555.82 251.60 L 567.67 268.06 L 579.52 321.27 L 591.37 337.95 L 603.22 305.01 L 615.07 319.58 L 626.92 285.06 L 638.77 295.09 L 650.62 264.79 L 662.47 80.69 L 674.32 152.37 L 686.16 203.46 L 698.01 60.00 L 709.86 180.66 L 721.71 375.00 L 733.56 338.05 L 745.41 304.06 L 757.26 230.70 L 769.11 279.99 L 780.96 304.27 L 792.81 323.49 L 804.66 278.41 L 816.51 263.63 L 828.36 236.50 L 840.21 176.22 L 852.05 97.05 L 863.90 163.35 L 875.75 164.72 L 887.60 173.37 L 899.45 262.89 L 911.30 316.94 L 923.15 199.13 L 935.00 237.24" fill="none" stroke="#69a7ff" stroke-width="4" stroke-linecap="round" stroke-linejoin="round"/>
<circle cx="935.00" cy="237.24" r="6" fill="#69a7ff"/>
</svg>