<svg xmlns="http://www.w3.org/2000/svg" width="960" height="430" viewBox="0 0 960 430" role="img" aria-label="Composite score history">
<rect width="100%" height="100%" fill="#0b1020" rx="20"/>
<text x="70" y="32" fill="#f5f7fb" font-family="Inter, Arial, sans-serif" font-size="24" font-weight="700">Composite score history</text>
<text x="70" y="52" fill="#93a4c3" font-family="Inter, Arial, sans-serif" font-size="13">Trailing 84 sessions through 2025-11-14</text>
<line x1="70" x2="935" y1="375.00" y2="375.00" stroke="#27314e" stroke-width="1"/>
<text x="58" y="379.00" text-anchor="end" fill="#93a4c3" font-family="Inter, Arial, sans-serif" font-size="12">5</text>
<line x1="70" x2="935" y1="312.00" y2="312.00" stroke="#27314e" stroke-width="1"/>
<text x="58" y="316.00" text-anchor="end" fill="#93a4c3" font-family="Inter, Arial, sans-serif" font-size="12">11</text>
<line x1="70" x2="935" y1="249.00" y2="249.00" stroke="#27314e" stroke-width="1"/>
<text x="58" y="253.00" text-anchor="end" fill="#93a4c3" font-family="Inter, Arial, sans-serif" font-size="12">17</text>
<line x1="70" x2="935" y1="186.00" y2="186.00" stroke="#27314e" stroke-width="1"/>
<text x="58" y="190.00" text-anchor="end" fill="#93a4c3" font-family="Inter, Arial, sans-serif" font-size="12">23</text>
<line x1="70" x2="935" y1="123.00" y2="123.00" stroke="#27314e" stroke-width="1"/>
<text x="58" y="127.00" text-anchor="end" fill="#93a4c3" font-family="Inter, Arial, sans-serif" font-size="12">29</text>
<line x1="70" x2="935" y1="60.00" y2="60.00" stroke="#27314e" stroke-width="1"/>
<text x="58" y="64.00" text-anchor="end" fill="#93a4c3" font-family="Inter, Arial, sans-serif" font-size="12">35</text>
<text x="70.00" y="412" text-anchor="middle" fill="#93a4c3" font-family="Inter, Arial, sans-serif" font-size="12">2025-07-17</text>
<text x="507.71" y="412" text-anchor="middle" fill="#93a4c3" font-family="Inter, Arial, sans-serif" font-size="12">2025-09-16</text>
<text x="935.00" y="412" text-anchor="middle" fill="#93a4c3" font-family="Inter, Arial, sans-serif" font-size="12">2025-11-14</text>
<path d="M 70.00 243.89 L 80.42 251.17 L 90.84 255.61 L 101.27 264.37 L 111.69 295.30 L 122.11 285.38 L 132.53 292.03 L 142.95 275.35 L 153.37 267.43 L 163.80 212.22 L 174.22 205.57 L 184.64 73.72 L 195.06 196.28 L 205.48 187.73 L 215.90 250.44 L 226.33 276.19 L 236.75 268.80 L 247.17 229.96 L 257.59 338.37 L 268.01 334.46 L 278.43 319.79 L 288.86 309.02 L 299.28 310.61 L 309.70 235.87 L 320.12 183.93 L 330.54 141.81 L 340.96 261.84 L 351.39 231.86 L 361.81 249.49 L 372.23 267.22 L 382.65 315.67 L 393.07 268.59 L 403.49 221.19 L 413.92 245.90 L 424.34 294.46 L 434.76 276.30 L 445.18 318.00 L 455.60 337.63 L 466.02 332.67 L 476.45 339.53 L 486.87 320.85 L 497.29 317.57 L 507.71 315.88 L 518.13 307.02 L 528.55 259.83 L 538.98 308.07 L 549.40 278.20 L 559.82 295.93 L 570.24 277.35 L 580.66 217.08 L 591.08 249.27 L 601.51 251.60 L 611.93 268.06 L 622.35 321.27 L 632.77 337.95 L 643.19 305.01 L 653.61 319.58 L 664.04 285.06 L 674.46 295.09 L 684.88 264.79 L 695.30 80.69 L 705.72 152.37 L 716.14 203.46 L 726.57 60.00 L 736.99 180.66 L 747.41 375.00 L 757.83 338.05 L 768.25 304.06 L 778.67 230.70 L 789.10 279.99 L 799.52 304.27 L 809.94 323.49 L 820.36 278.41 L 830.78 263.63 L 841.20 236.50 L 851.63 176.22 L 862.05 97.05 L 872.47 163.35 L 882.89 164.72 L 893.31 173.37 L 903.73 262.89 L 914.16 316.94 L 924.58 199.13 L 935.00 237.24" fill="none" stroke="#69a7ff" stroke-width="4" stroke-linecap="round" stroke-linejoin="round"/>
<circle cx="935.00" cy="237.24" r="6" fill="#69a7ff"/>
</svg>