<svg xmlns="http://www.w3.org/2000/svg" width="960" height="430" viewBox="0 0 960 430" role="img" aria-label="Composite score history">
<rect width="100%" height="100%" fill="#0b1020" rx="20"/>
<text x="70" y="32" fill="#f5f7fb" font-family="Inter, Arial, sans-serif" font-size="24" font-weight="700">Composite score history</text>
<text x="70" y="52" fill="#93a4c3" font-family="Inter, Arial, sans-serif" font-size="13">Trailing 62 sessions through 2025-11-14</text>
<line x1="70" x2="935" y1="375.00" y2="375.00" stroke="#27314e" stroke-width="1"/>
<text x="58" y="379.00" text-anchor="end" fill="#93a4c3" font-family="Inter, Arial, sans-serif" font-size="12">5</text>
<line x1="70" x2="935" y1="312.00" y2="312.00" stroke="#27314e" stroke-width="1"/>
<text x="58" y="316.00" text-anchor="end" fill="#93a4c3" font-family="Inter, Arial, sans-serif" font-size="12">11</text>
<line x1="70" x2="935" y1="249.00" y2="249.00" stroke="#27314e" stroke-width="1"/>
<text x="58" y="253.00" text-anchor="end" fill="#93a4c3" font-family="Inter, Arial, sans-serif" font-size="12">17</text>
<line x1="70" x2="935" y1="186.00" y2="186.00" stroke="#27314e" stroke-width="1"/>
<text x="58" y="190.00" text-anchor="end" fill="#93a4c3" font-family="Inter, Arial, sans-serif" font-size="12">23</text>
<line x1="70" x2="935" y1="123.00" y2="123.00" stroke="#27314e" stroke-width="1"/>
<text x="58" y="127.00" text-anchor="end" fill="#93a4c3" font-family="Inter, Arial, sans-serif" font-size="12">29</text>
<line x1="70" x2="935" y1="60.00" y2="60.00" stroke="#27314e" stroke-width="1"/>
<text x="58" y="64.00" text-anchor="end" fill="#93a4c3" font-family="Inter, Arial, sans-serif" font-size="12">35</text>
<text x="70.00" y="412" text-anchor="middle" fill="#93a4c3" font-family="Inter, Arial, sans-serif" font-size="12">2025-08-18</text>
<text x="509.59" y="412" text-anchor="middle" fill="#93a4c3" font-family="Inter, Arial, sans-serif" font-size="12">2025-10-01</text>
<text x="935.00" y="412" text-anchor="middle" fill="#93a4c3" font-family="Inter, Arial, sans-serif" font-size="12">2025-11-14</text>
<path d="M 70.00 283.48 L 84.18 248.32 L 98.36 232.49 L 112.54 166.41 L 126.72 262.15 L 140.90 231.86 L 155.08 249.49 L 169.26 267.22 L 183.44 315.67 L 197.62 268.59 L 211.80 221.19 L 225.98 245.90 L 240.16 294.46 L 254.34 276.30 L 268.52 318.00 L 282.70 337.63 L 296.89 332.67 L 311.07 339.53 L 325.25 320.85 L 339.43 317.57 L 353.61 315.88 L 367.79 307.02 L 381.97 259.83 L 396.15 308.07 L 410.33 278.20 L 424.51 295.93 L 438.69 277.35 L 452.87 217.08 L 467.05 249.27 L 481.23 251.60 L 495.41 268.06 L 509.59 321.27 L 523.77 337.95 L 537.95 305.01 L 552.13 319.58 L 566.31 285.06 L 580.49 295.09 L 594.67 264.79 L 608.85 80.69 L 623.03 152.37 L 637.21 203.46 L 651.39 60.00 L 665.57 180.66 L 679.75 375.00 L 693.93 338.05 L 708.11 304.06 L 722.30 230.70 L 736.48 279.99 L 750.66 304.27 L 764.84 323.49 L 779.02 278.41 L 793.20 263.63 L 807.38 236.50 L 821.56 176.22 L 835.74 97.05 L 849.92 163.35 L 864.10 164.72 L 878.28 173.37 L 892.46 262.89 L 906.64 316.94 L 920.82 199.13 L 935.00 237.24" fill="none" stroke="#69a7ff" stroke-width="4" stroke-linecap="round" stroke-linejoin="round"/>
<circle cx="935.00" cy="237.24" r="6" fill="#69a7ff"/>
</svg>