<svg xmlns="http://www.w3.org/2000/svg" width="960" height="430" viewBox="0 0 960 430" role="img" aria-label="Composite score history">
<rect width="100%" height="100%" fill="#0b1020" rx="20"/>
<text x="70" y="32" fill="#f5f7fb" font-family="Inter, Arial, sans-serif" font-size="24" font-weight="700">Composite score history</text>
<text x="70" y="52" fill="#93a4c3" font-family="Inter, Arial, sans-serif" font-size="13">Trailing 81 sessions through 2025-11-14</text>
<line x1="70" x2="935" y1="375.00" y2="375.00" stroke="#27314e" stroke-width="1"/>
<text x="58" y="379.00" text-anchor="end" fill="#93a4c3" font-family="Inter, Arial, sans-serif" font-size="12">5</text>
<line x1="70" x2="935" y1="312.00" y2="312.00" stroke="#27314e" stroke-width="1"/>
<text x="58" y="316.00" text-anchor="end" fill="#93a4c3" font-family="Inter, Arial, sans-serif" font-size="12">11</text>
<line x1="70" x2="935" y1="249.00" y2="249.00" stroke="#27314e" stroke-width="1"/>
<text x="58" y="253.00" text-anchor="end" fill="#93a4c3" font-family="Inter, Arial, sans-serif" font-size="12">17</text>
<line x1="70" x2="935" y1="186.00" y2="186.00" stroke="#27314e" stroke-width="1"/>
<text x="58" y="190.00" text-anchor="end" fill="#93a4c3" font-family="Inter, Arial, sans-serif" font-size="12">23</text>
<line x1="70" x2="935" y1="123.00" y2="123.00" stroke="#27314e" stroke-width="1"/>
<text x="58" y="127.00" text-anchor="end" fill="#93a4c3" font-family="Inter, Arial, sans-serif" font-size="12">29</text>
<line x1="70" x2="935" y1="60.00" y2="60.00" stroke="#27314e" stroke-width="1"/>
<text x="58" y="64.00" text-anchor="end" fill="#93a4c3" font-family="Inter, Arial, sans-serif" font-size="12">35</text>
<text x="70.00" y="412" text-anchor="middle" fill="#93a4c3" font-family="Inter, Arial, sans-serif" font-size="12">2025-07-22</text>
<text x="502.50" y="412" text-anchor="middle" fill="#93a4c3" font-family="Inter, Arial, sans-serif" font-size="12">2025-09-17</text>
<text x="935.00" y="412" text-anchor="middle" fill="#93a4c3" font-family="Inter, Arial, sans-serif" font-size="12">2025-11-14</text>
<path d="M 70.00 259.20 L 80.81 269.01 L 91.62 230.59 L 102.44 265.43 L 113.25 265.11 L 124.06 267.43 L 134.88 212.22 L 145.69 205.57 L 156.50 73.72 L 167.31 196.28 L 178.12 187.73 L 188.94 250.44 L 199.75 276.19 L 210.56 268.80 L 221.38 229.96 L 232.19 338.37 L 243.00 334.46 L 253.81 319.79 L 264.62 309.02 L 275.44 310.61 L 286.25 235.87 L 297.06 183.93 L 307.88 141.81 L 318.69 261.84 L 329.50 231.86 L 340.31 249.49 L 351.12 267.22 L 361.94 315.67 L 372.75 268.59 L 383.56 221.19 L 394.38 245.90 L 405.19 294.46 L 416.00 276.30 L 426.81 318.00 L 437.62 337.63 L 448.44 332.67 L 459.25 339.53 L 470.06 320.85 L 480.88 317.57 L 491.69 315.88 L 502.50 307.02 L 513.31 259.83 L 524.12 308.07 L 534.94 278.20 L 545.75 295.93 L 556.56 277.35 L 567.38 217.08 L 578.19 249.27 L 589.00 251.60 L 599.81 268.06 L 610.62 321.27 L 621.44 337.95 L 632.25 305.01 L 643.06 319.58 L 653.88 285.06 L 664.69 295.09 L 675.50 264.79 L 686.31 80.69 L 697.12 152.37 L 707.94 203.46 L 718.75 60.00 L 729.56 180.66 L 740.38 375.00 L 751.19 338.05 L 762.00 304.06 L 772.81 230.70 L 783.62 279.99 L 794.44 304.27 L 805.25 323.49 L 816.06 278.41 L 826.88 263.63 L 837.69 236.50 L 848.50 176.22 L 859.31 97.05 L 870.12 163.35 L 880.94 164.72 L 891.75 173.37 L 902.56 262.89 L 913.38 316.94 L 924.19 199.13 L 935.00 237.24" fill="none" stroke="#69a7ff" stroke-width="4" stroke-linecap="round" stroke-linejoin="round"/>
<circle cx="935.00" cy="237.24" r="6" fill="#69a7ff"/>
</svg>