<svg xmlns="http://www.w3.org/2000/svg" width="960" height="430" viewBox="0 0 960 430" role="img" aria-label="Composite score history">
<rect width="100%" height="100%" fill="#0b1020" rx="20"/>
<text x="70" y="32" fill="#f5f7fb" font-family="Inter, Arial, sans-serif" font-size="24" font-weight="700">Composite score history</text>
<text x="70" y="52" fill="#93a4c3" font-family="Inter, Arial, sans-serif" font-size="13">Trailing 75 sessions through 2025-11-14</text>
<line x1="70" x2="935" y1="375.00" y2="375.00" stroke="#27314e" stroke-width="1"/>
<text x="58" y="379.00" text-anchor="end" fill="#93a4c3" font-family="Inter, Arial, sans-serif" font-size="12">5</text>
<line x1="70" x2="935" y1="312.00" y2="312.00" stroke="#27314e" stroke-width="1"/>
<text x="58" y="316.00" text-anchor="end" fill="#93a4c3" font-family="Inter, Arial, sans-serif" font-size="12">11</text>
<line x1="70" x2="935" y1="249.00" y2="249.00" stroke="#27314e" stroke-width="1"/>
<text x="58" y="253.00" text-anchor="end" fill="#93a4c3" font-family="Inter, Arial, sans-serif" font-size="12">17</text>
<line x1="70" x2="935" y1="186.00" y2="186.00" stroke="#27314e" stroke-width="1"/>
<text x="58" y="190.00" text-anchor="end" fill="#93a4c3" font-family="Inter, Arial, sans-serif" font-size="12">23</text>
<line x1="70" x2="935" y1="123.00" y2="123.00" stroke="#27314e" stroke-width="1"/>
<text x="58" y="127.00" text-anchor="end" fill="#93a4c3" font-family="Inter, Arial, sans-serif" font-size="12">29</text>
<line x1="70" x2="935" y1="60.00" y2="60.00" stroke="#27314e" stroke-width="1"/>
<text x="58" y="64.00" text-anchor="end" fill="#93a4c3" font-family="Inter, Arial, sans-serif" font-size="12">35</text>
<text x="70.00" y="412" text-anchor="middle" fill="#93a4c3" font-family="Inter, Arial, sans-serif" font-size="12">2025-07-30</text>
<text x="502.50" y="412" text-anchor="middle" fill="#93a4c3" font-family="Inter, Arial, sans-serif" font-size="12">2025-09-22</text>
<text x="935.00" y="412" text-anchor="middle" fill="#93a4c3" font-family="Inter, Arial, sans-serif" font-size="12">2025-11-14</text>
<path d="M 70.00 258.04 L 81.69 219.51 L 93.38 100.01 L 105.07 222.88 L 116.76 189.31 L 128.45 250.44 L 140.14 276.19 L 151.82 268.80 L 163.51 229.96 L 175.20 338.37 L 186.89 334.46 L 198.58 319.79 L 210.27 309.02 L 221.96 310.61 L 233.65 235.87 L 245.34 183.93 L 257.03 141.81 L 268.72 261.84 L 280.41 231.86 L 292.09 249.49 L 303.78 267.22 L 315.47 315.67 L 327.16 268.59 L 338.85 221.19 L 350.54 245.90 L 362.23 294.46 L 373.92 276.30 L 385.61 318.00 L 397.30 337.63 L 408.99 332.67 L 420.68 339.53 L 432.36 320.85 L 444.05 317.57 L 455.74 315.88 L 467.43 307.02 L 479.12 259.83 L 490.81 308.07 L 502.50 278.20 L 514.19 295.93 L 525.88 277.35 L 537.57 217.08 L 549.26 249.27 L 560.95 251.60 L 572.64 268.06 L 584.32 321.27 L 596.01 337.95 L 607.70 305.01 L 619.39 319.58 L 631.08 285.06 L 642.77 295.09 L 654.46 264.79 L 666.15 80.69 L 677.84 152.37 L 689.53 203.46 L 701.22 60.00 L 712.91 180.66 L 724.59 375.00 L 736.28 338.05 L 747.97 304.06 L 759.66 230.70 L 771.35 279.99 L 783.04 304.27 L 794.73 323.49 L 806.42 278.41 L 818.11 263.63 L 829.80 236.50 L 841.49 176.22 L 853.18 97.05 L 864.86 163.35 L 876.55 164.72 L 888.24 173.37 L 899.93 262.89 L 911.62 316.94 L 923.31 199.13 L 935.00 237.24" fill="none" stroke="#69a7ff" stroke-width="4" stroke-linecap="round" stroke-linejoin="round"/>
<circle cx="935.00" cy="237.24" r="6" fill="#69a7ff"/>
</svg>