<svg xmlns="http://www.w3.org/2000/svg" width="960" height="430" viewBox="0 0 960 430" role="img" aria-label="Composite score history">
<rect width="100%" height="100%" fill="#0b1020" rx="20"/>
<text x="70" y="32" fill="#f5f7fb" font-family="Inter, Arial, sans-serif" font-size="24" font-weight="700">Composite score history</text>
<text x="70" y="52" fill="#93a4c3" font-family="Inter, Arial, sans-serif" font-size="13">Trailing 47 sessions through 2025-11-04</text>
<line x1="70" x2="935" y1="375.00" y2="375.00" stroke="#27314e" stroke-width="1"/>
<text x="58" y="379.00" text-anchor="end" fill="#93a4c3" font-family="Inter, Arial, sans-serif" font-size="12">5</text>
<line x1="70" x2="935" y1="312.00" y2="312.00" stroke="#27314e" stroke-width="1"/>
<text x="58" y="316.00" text-anchor="end" fill="#93a4c3" font-family="Inter, Arial, sans-serif" font-size="12">11</text>
<line x1="70" x2="935" y1="249.00" y2="249.00" stroke="#27314e" stroke-width="1"/>
<text x="58" y="253.00" text-anchor="end" fill="#93a4c3" font-family="Inter, Arial, sans-serif" font-size="12">17</text>
<line x1="70" x2="935" y1="186.00" y2="186.00" stroke="#27314e" stroke-width="1"/>
<text x="58" y="190.00" text-anchor="end" fill="#93a4c3" font-family="Inter, Arial, sans-serif" font-size="12">23</text>
<line x1="70" x2="935" y1="123.00" y2="123.00" stroke="#27314e" stroke-width="1"/>
<text x="58" y="127.00" text-anchor="end" fill="#93a4c3" font-family="Inter, Arial, sans-serif" font-size="12">29</text>
<line x1="70" x2="935" y1="60.00" y2="60.00" stroke="#27314e" stroke-width="1"/>
<text x="58" y="64.00" text-anchor="end" fill="#93a4c3" font-family="Inter, Arial, sans-serif" font-size="12">35</text>
<text x="70.00" y="412" text-anchor="middle" fill="#93a4c3" font-family="Inter, Arial, sans-serif" font-size="12">2025-08-28</text>
<text x="502.50" y="412" text-anchor="middle" fill="#93a4c3" font-family="Inter, Arial, sans-serif" font-size="12">2025-10-01</text>
<text x="935.00" y="412" text-anchor="middle" fill="#93a4c3" font-family="Inter, Arial, sans-serif" font-size="12">2025-11-04</text>
<path d="M 70.00 287.49 L 88.80 242.31 L 107.61 150.15 L 126.41 214.97 L 145.22 282.00 L 164.02 276.30 L 182.83 318.00 L 201.63 337.63 L 220.43 332.67 L 239.24 339.53 L 258.04 320.85 L 276.85 317.57 L 295.65 315.88 L 314.46 307.02 L 333.26 259.83 L 352.07 308.07 L 370.87 278.20 L 389.67 295.93 L 408.48 277.35 L 427.28 217.08 L 446.09 249.27 L 464.89 251.60 L 483.70 268.06 L 502.50 321.27 L 521.30 337.95 L 540.11 305.01 L 558.91 319.58 L 577.72 285.06 L 596.52 295.09 L 615.33 264.79 L 634.13 80.69 L 652.93 152.37 L 671.74 203.46 L 690.54 60.00 L 709.35 180.66 L 728.15 375.00 L 746.96 338.05 L 765.76 304.06 L 784.57 230.70 L 803.37 279.99 L 822.17 304.27 L 840.98 323.49 L 859.78 278.41 L 878.59 263.63 L 897.39 236.50 L 916.20 176.22 L 935.00 97.05" fill="none" stroke="#69a7ff" stroke-width="4" stroke-linecap="round" stroke-linejoin="round"/>
<circle cx="935.00" cy="97.05" r="6" fill="#69a7ff"/>
</svg>