<svg xmlns="http://www.w3.org/2000/svg" width="960" height="430" viewBox="0 0 960 430" role="img" aria-label="Composite score history">
<rect width="100%" height="100%" fill="#0b1020" rx="20"/>
<text x="70" y="32" fill="#f5f7fb" font-family="Inter, Arial, sans-serif" font-size="24" font-weight="700">Composite score history</text>
<text x="70" y="52" fill="#93a4c3" font-family="Inter, Arial, sans-serif" font-size="13">Trailing 79 sessions through 2025-11-04</text>
<line x1="70" x2="935" y1="375.00" y2="375.00" stroke="#27314e" stroke-width="1"/>
<text x="58" y="379.00" text-anchor="end" fill="#93a4c3" font-family="Inter, Arial, sans-serif" font-size="12">2</text>
<line x1="70" x2="935" y1="312.00" y2="312.00" stroke="#27314e" stroke-width="1"/>
<text x="58" y="316.00" text-anchor="end" fill="#93a4c3" font-family="Inter, Arial, sans-serif" font-size="12">8</text>
<line x1="70" x2="935" y1="249.00" y2="249.00" stroke="#27314e" stroke-width="1"/>
<text x="58" y="253.00" text-anchor="end" fill="#93a4c3" font-family="Inter, Arial, sans-serif" font-size="12">13</text>
<line x1="70" x2="935" y1="186.00" y2="186.00" stroke="#27314e" stroke-width="1"/>
<text x="58" y="190.00" text-anchor="end" fill="#93a4c3" font-family="Inter, Arial, sans-serif" font-size="12">19</text>
<line x1="70" x2="935" y1="123.00" y2="123.00" stroke="#27314e" stroke-width="1"/>
<text x="58" y="127.00" text-anchor="end" fill="#93a4c3" font-family="Inter, Arial, sans-serif" font-size="12">24</text>
<line x1="70" x2="935" y1="60.00" y2="60.00" stroke="#27314e" stroke-width="1"/>
<text x="58" y="64.00" text-anchor="end" fill="#93a4c3" font-family="Inter, Arial, sans-serif" font-size="12">30</text>
<text x="70.00" y="412" text-anchor="middle" fill="#93a4c3" font-family="Inter, Arial, sans-serif" font-size="12">2025-07-15</text>
<text x="502.50" y="412" text-anchor="middle" fill="#93a4c3" font-family="Inter, Arial, sans-serif" font-size="12">2025-09-09</text>
<text x="935.00" y="412" text-anchor="middle" fill="#93a4c3" font-family="Inter, Arial, sans-serif" font-size="12">2025-11-04</text>
<path d="M 70.00 352.04 L 81.09 339.82 L 92.18 288.70 L 103.27 332.02 L 114.36 344.12 L 125.45 359.62 L 136.54 369.34 L 147.63 369.12 L 158.72 339.15 L 169.81 304.42 L 180.90 315.96 L 191.99 242.78 L 203.08 288.36 L 214.17 135.10 L 225.26 271.39 L 236.35 264.50 L 247.44 327.72 L 258.53 358.94 L 269.62 178.87 L 280.71 211.90 L 291.79 346.50 L 302.88 348.65 L 313.97 323.08 L 325.06 371.72 L 336.15 361.31 L 347.24 294.58 L 358.33 212.69 L 369.42 183.29 L 380.51 294.36 L 391.60 266.76 L 402.69 220.27 L 413.78 232.37 L 424.87 306.68 L 435.96 351.47 L 447.05 307.70 L 458.14 327.04 L 469.23 365.16 L 480.32 345.25 L 491.41 371.49 L 502.50 372.17 L 513.59 369.46 L 524.68 375.00 L 535.77 317.99 L 546.86 303.86 L 557.95 346.84 L 569.04 334.06 L 580.13 257.03 L 591.22 335.87 L 602.31 265.40 L 613.40 332.81 L 624.49 300.92 L 635.58 244.14 L 646.67 284.63 L 657.76 312.57 L 668.85 282.25 L 679.94 360.18 L 691.03 358.49 L 702.12 343.90 L 713.21 358.03 L 724.29 342.99 L 735.38 327.27 L 746.47 275.35 L 757.56 124.58 L 768.65 194.94 L 779.74 251.26 L 790.83 83.87 L 801.92 216.88 L 813.01 344.69 L 824.10 347.74 L 835.19 341.52 L 846.28 89.75 L 857.37 182.61 L 868.46 215.86 L 879.55 252.85 L 890.64 126.96 L 901.73 209.07 L 912.82 204.44 L 923.91 127.86 L 935.00 60.00" fill="none" stroke="#69a7ff" stroke-width="4" stroke-linecap="round" stroke-linejoin="round"/>
<circle cx="935.00" cy="60.00" r="6" fill="#69a7ff"/>
<text x="927.00" y="48.00" text-anchor="end" fill="#f5f7fb" font-family="Inter, Arial, sans-serif" font-size="12" font-weight="600">29.91</text>
</svg>