<svg xmlns="http://www.w3.org/2000/svg" width="960" height="430" viewBox="0 0 960 430" role="img" aria-label="Composite score history">
<rect width="100%" height="100%" fill="#0b1020" rx="20"/>
<text x="70" y="32" fill="#f5f7fb" font-family="Inter, Arial, sans-serif" font-size="24" font-weight="700">Composite score history</text>
<text x="70" y="52" fill="#93a4c3" font-family="Inter, Arial, sans-serif" font-size="13">Trailing 76 sessions through 2025-11-04</text>
<line x1="70" x2="935" y1="375.00" y2="375.00" stroke="#27314e" stroke-width="1"/>
<text x="58" y="379.00" text-anchor="end" fill="#93a4c3" font-family="Inter, Arial, sans-serif" font-size="12">5</text>
<line x1="70" x2="935" y1="312.00" y2="312.00" stroke="#27314e" stroke-width="1"/>
<text x="58" y="316.00" text-anchor="end" fill="#93a4c3" font-family="Inter, Arial, sans-serif" font-size="12">11</text>
<line x1="70" x2="935" y1="249.00" y2="249.00" stroke="#27314e" stroke-width="1"/>
<text x="58" y="253.00" text-anchor="end" fill="#93a4c3" font-family="Inter, Arial, sans-serif" font-size="12">17</text>
<line x1="70" x2="935" y1="186.00" y2="186.00" stroke="#27314e" stroke-width="1"/>
<text x="58" y="190.00" text-anchor="end" fill="#93a4c3" font-family="Inter, Arial, sans-serif" font-size="12">23</text>
<line x1="70" x2="935" y1="123.00" y2="123.00" stroke="#27314e" stroke-width="1"/>
<text x="58" y="127.00" text-anchor="end" fill="#93a4c3" font-family="Inter, Arial, sans-serif" font-size="12">29</text>
<line x1="70" x2="935" y1="60.00" y2="60.00" stroke="#27314e" stroke-width="1"/>
<text x="58" y="64.00" text-anchor="end" fill="#93a4c3" font-family="Inter, Arial, sans-serif" font-size="12">35</text>
<text x="70.00" y="412" text-anchor="middle" fill="#93a4c3" font-family="Inter, Arial, sans-serif" font-size="12">2025-07-18</text>
<text x="508.27" y="412" text-anchor="middle" fill="#93a4c3" font-family="Inter, Arial, sans-serif" font-size="12">2025-09-11</text>
<text x="935.00" y="412" text-anchor="middle" fill="#93a4c3" font-family="Inter, Arial, sans-serif" font-size="12">2025-11-04</text>
<path d="M 70.00 251.70 L 81.53 254.76 L 93.07 263.74 L 104.60 295.51 L 116.13 272.92 L 127.67 292.03 L 139.20 275.35 L 150.73 267.43 L 162.27 212.22 L 173.80 205.57 L 185.33 73.72 L 196.87 196.28 L 208.40 187.73 L 219.93 250.44 L 231.47 276.19 L 243.00 268.80 L 254.53 229.96 L 266.07 338.37 L 277.60 334.46 L 289.13 319.79 L 300.67 309.02 L 312.20 310.61 L 323.73 235.87 L 335.27 183.93 L 346.80 141.81 L 358.33 261.84 L 369.87 231.86 L 381.40 249.49 L 392.93 267.22 L 404.47 315.67 L 416.00 268.59 L 427.53 221.19 L 439.07 245.90 L 450.60 294.46 L 462.13 276.30 L 473.67 318.00 L 485.20 337.63 L 496.73 332.67 L 508.27 339.53 L 519.80 320.85 L 531.33 317.57 L 542.87 315.88 L 554.40 307.02 L 565.93 259.83 L 577.47 308.07 L 589.00 278.20 L 600.53 295.93 L 612.07 277.35 L 623.60 217.08 L 635.13 249.27 L 646.67 251.60 L 658.20 268.06 L 669.73 321.27 L 681.27 337.95 L 692.80 305.01 L 704.33 319.58 L 715.87 285.06 L 727.40 295.09 L 738.93 264.79 L 750.47 80.69 L 762.00 152.37 L 773.53 203.46 L 785.07 60.00 L 796.60 180.66 L 808.13 375.00 L 819.67 338.05 L 831.20 304.06 L 842.73 230.70 L 854.27 279.99 L 865.80 304.27 L 877.33 323.49 L 888.87 278.41 L 900.40 263.63 L 911.93 236.50 L 923.47 176.22 L 935.00 97.05" fill="none" stroke="#69a7ff" stroke-width="4" stroke-linecap="round" stroke-linejoin="round"/>
<circle cx="935.00" cy="97.05" r="6" fill="#69a7ff"/>
</svg>