<svg xmlns="http://www.w3.org/2000/svg" width="960" height="430" viewBox="0 0 960 430" role="img" aria-label="Composite score history">
<rect width="100%" height="100%" fill="#0b1020" rx="20"/>
<text x="70" y="32" fill="#f5f7fb" font-family="Inter, Arial, sans-serif" font-size="24" font-weight="700">Composite score history</text>
<text x="70" y="52" fill="#93a4c3" font-family="Inter, Arial, sans-serif" font-size="13">Trailing 64 sessions through 2025-11-04</text>
<line x1="70" x2="935" y1="375.00" y2="375.00" stroke="#27314e" stroke-width="1"/>
<text x="58" y="379.00" text-anchor="end" fill="#93a4c3" font-family="Inter, Arial, sans-serif" font-size="12">5</text>
<line x1="70" x2="935" y1="312.00" y2="312.00" stroke="#27314e" stroke-width="1"/>
<text x="58" y="316.00" text-anchor="end" fill="#93a4c3" font-family="Inter, Arial, sans-serif" font-size="12">11</text>
<line x1="70" x2="935" y1="249.00" y2="249.00" stroke="#27314e" stroke-width="1"/>
<text x="58" y="253.00" text-anchor="end" fill="#93a4c3" font-family="Inter, Arial, sans-serif" font-size="12">17</text>
<line x1="70" x2="935" y1="186.00" y2="186.00" stroke="#27314e" stroke-width="1"/>
<text x="58" y="190.00" text-anchor="end" fill="#93a4c3" font-family="Inter, Arial, sans-serif" font-size="12">23</text>
<line x1="70" x2="935" y1="123.00" y2="123.00" stroke="#27314e" stroke-width="1"/>
<text x="58" y="127.00" text-anchor="end" fill="#93a4c3" font-family="Inter, Arial, sans-serif" font-size="12">29</text>
<line x1="70" x2="935" y1="60.00" y2="60.00" stroke="#27314e" stroke-width="1"/>
<text x="58" y="64.00" text-anchor="end" fill="#93a4c3" font-family="Inter, Arial, sans-serif" font-size="12">35</text>
<text x="70.00" y="412" text-anchor="middle" fill="#93a4c3" font-family="Inter, Arial, sans-serif" font-size="12">2025-08-05</text>
<text x="509.37" y="412" text-anchor="middle" fill="#93a4c3" font-family="Inter, Arial, sans-serif" font-size="12">2025-09-19</text>
<text x="935.00" y="412" text-anchor="middle" fill="#93a4c3" font-family="Inter, Arial, sans-serif" font-size="12">2025-11-04</text>
<path d="M 70.00 265.64 L 83.73 297.20 L 97.46 292.98 L 111.19 271.13 L 124.92 255.61 L 138.65 338.37 L 152.38 334.46 L 166.11 319.79 L 179.84 309.02 L 193.57 310.61 L 207.30 235.87 L 221.03 183.93 L 234.76 141.81 L 248.49 261.84 L 262.22 231.86 L 275.95 249.49 L 289.68 267.22 L 303.41 315.67 L 317.14 268.59 L 330.87 221.19 L 344.60 245.90 L 358.33 294.46 L 372.06 276.30 L 385.79 318.00 L 399.52 337.63 L 413.25 332.67 L 426.98 339.53 L 440.71 320.85 L 454.44 317.57 L 468.17 315.88 L 481.90 307.02 L 495.63 259.83 L 509.37 308.07 L 523.10 278.20 L 536.83 295.93 L 550.56 277.35 L 564.29 217.08 L 578.02 249.27 L 591.75 251.60 L 605.48 268.06 L 619.21 321.27 L 632.94 337.95 L 646.67 305.01 L 660.40 319.58 L 674.13 285.06 L 687.86 295.09 L 701.59 264.79 L 715.32 80.69 L 729.05 152.37 L 742.78 203.46 L 756.51 60.00 L 770.24 180.66 L 783.97 375.00 L 797.70 338.05 L 811.43 304.06 L 825.16 230.70 L 838.89 279.99 L 852.62 304.27 L 866.35 323.49 L 880.08 278.41 L 893.81 263.63 L 907.54 236.50 L 921.27 176.22 L 935.00 97.05" fill="none" stroke="#69a7ff" stroke-width="4" stroke-linecap="round" stroke-linejoin="round"/>
<circle cx="935.00" cy="97.05" r="6" fill="#69a7ff"/>
</svg>