<svg xmlns="http://www.w3.org/2000/svg" width="960" height="430" viewBox="0 0 960 430" role="img" aria-label="Composite score history">
<rect width="100%" height="100%" fill="#0b1020" rx="20"/>
<text x="70" y="32" fill="#f5f7fb" font-family="Inter, Arial, sans-serif" font-size="24" font-weight="700">Composite score history</text>
<text x="70" y="52" fill="#93a4c3" font-family="Inter, Arial, sans-serif" font-size="13">Trailing 89 sessions through 2025-12-15</text>
<line x1="70" x2="935" y1="375.00" y2="375.00" stroke="#27314e" stroke-width="1"/>
<text x="58" y="379.00" text-anchor="end" fill="#93a4c3" font-family="Inter, Arial, sans-serif" font-size="12">0</text>
<line x1="70" x2="935" y1="312.00" y2="312.00" stroke="#27314e" stroke-width="1"/>
<text x="58" y="316.00" text-anchor="end" fill="#93a4c3" font-family="Inter, Arial, sans-serif" font-size="12">8</text>
<line x1="70" x2="935" y1="249.00" y2="249.00" stroke="#27314e" stroke-width="1"/>
<text x="58" y="253.00" text-anchor="end" fill="#93a4c3" font-family="Inter, Arial, sans-serif" font-size="12">17</text>
<line x1="70" x2="935" y1="186.00" y2="186.00" stroke="#27314e" stroke-width="1"/>
<text x="58" y="190.00" text-anchor="end" fill="#93a4c3" font-family="Inter, Arial, sans-serif" font-size="12">25</text>
<line x1="70" x2="935" y1="123.00" y2="123.00" stroke="#27314e" stroke-width="1"/>
<text x="58" y="127.00" text-anchor="end" fill="#93a4c3" font-family="Inter, Arial, sans-serif" font-size="12">33</text>
<line x1="70" x2="935" y1="60.00" y2="60.00" stroke="#27314e" stroke-width="1"/>
<text x="58" y="64.00" text-anchor="end" fill="#93a4c3" font-family="Inter, Arial, sans-serif" font-size="12">41</text>
<text x="70.00" y="412" text-anchor="middle" fill="#93a4c3" font-family="Inter, Arial, sans-serif" font-size="12">2025-08-07</text>
<text x="502.50" y="412" text-anchor="middle" fill="#93a4c3" font-family="Inter, Arial, sans-serif" font-size="12">2025-10-09</text>
<text x="935.00" y="412" text-anchor="middle" fill="#93a4c3" font-family="Inter, Arial, sans-serif" font-size="12">2025-12-15</text>
<path d="M 70.00 264.97 L 79.83 249.03 L 89.66 237.90 L 99.49 297.53 L 109.32 312.70 L 119.15 296.69 L 128.98 288.91 L 138.81 290.05 L 148.64 236.07 L 158.47 198.55 L 168.30 168.13 L 178.12 254.83 L 187.95 233.17 L 197.78 245.90 L 207.61 258.71 L 217.44 293.71 L 227.27 259.71 L 237.10 225.47 L 246.93 243.31 L 256.76 278.39 L 266.59 265.27 L 276.42 295.39 L 286.25 309.58 L 296.08 305.99 L 305.91 310.95 L 315.74 297.45 L 325.57 295.09 L 335.40 293.87 L 345.23 287.46 L 355.06 253.38 L 364.89 288.22 L 374.72 266.64 L 384.55 279.46 L 394.38 266.03 L 404.20 222.49 L 414.03 245.75 L 423.86 247.43 L 433.69 259.32 L 443.52 297.76 L 453.35 309.80 L 463.18 286.01 L 473.01 296.54 L 482.84 271.60 L 492.67 278.85 L 502.50 256.96 L 512.33 123.98 L 522.16 175.75 L 531.99 212.66 L 541.82 109.03 L 551.65 196.19 L 561.48 336.57 L 571.31 309.88 L 581.14 285.33 L 590.97 232.33 L 600.80 267.94 L 610.62 285.48 L 620.45 299.36 L 630.28 266.80 L 640.11 256.12 L 649.94 236.53 L 659.77 192.98 L 669.60 135.80 L 679.43 183.68 L 689.26 184.67 L 699.09 190.93 L 708.92 255.59 L 718.75 294.63 L 728.58 209.53 L 738.41 237.06 L 748.24 167.36 L 758.07 60.00 L 767.90 70.45 L 777.73 66.18 L 787.56 146.17 L 797.39 277.24 L 807.22 326.96 L 817.05 337.79 L 826.88 375.00 L 836.70 333.06 L 846.53 308.20 L 856.36 290.89 L 866.19 264.74 L 876.02 247.28 L 885.85 278.92 L 895.68 241.33 L 905.51 272.67 L 915.34 307.67 L 925.17 264.05 L 935.00 273.13" fill="none" stroke="#69a7ff" stroke-width="4" stroke-linecap="round" stroke-linejoin="round"/>
<circle cx="935.00" cy="273.13" r="6" fill="#69a7ff"/>
</svg>