<svg xmlns="http://www.w3.org/2000/svg" width="960" height="430" viewBox="0 0 960 430" role="img" aria-label="Composite score history">
<rect width="100%" height="100%" fill="#0b1020" rx="20"/>
<text x="70" y="32" fill="#f5f7fb" font-family="Inter, Arial, sans-serif" font-size="24" font-weight="700">Composite score history</text>
<text x="70" y="52" fill="#93a4c3" font-family="Inter, Arial, sans-serif" font-size="13">Trailing 70 sessions through 2025-12-15</text>
<line x1="70" x2="935" y1="375.00" y2="375.00" stroke="#27314e" stroke-width="1"/>
<text x="58" y="379.00" text-anchor="end" fill="#93a4c3" font-family="Inter, Arial, sans-serif" font-size="12">0</text>
<line x1="70" x2="935" y1="312.00" y2="312.00" stroke="#27314e" stroke-width="1"/>
<text x="58" y="316.00" text-anchor="end" fill="#93a4c3" font-family="Inter, Arial, sans-serif" font-size="12">8</text>
<line x1="70" x2="935" y1="249.00" y2="249.00" stroke="#27314e" stroke-width="1"/>
<text x="58" y="253.00" text-anchor="end" fill="#93a4c3" font-family="Inter, Arial, sans-serif" font-size="12">17</text>
<line x1="70" x2="935" y1="186.00" y2="186.00" stroke="#27314e" stroke-width="1"/>
<text x="58" y="190.00" text-anchor="end" fill="#93a4c3" font-family="Inter, Arial, sans-serif" font-size="12">25</text>
<line x1="70" x2="935" y1="123.00" y2="123.00" stroke="#27314e" stroke-width="1"/>
<text x="58" y="127.00" text-anchor="end" fill="#93a4c3" font-family="Inter, Arial, sans-serif" font-size="12">33</text>
<line x1="70" x2="935" y1="60.00" y2="60.00" stroke="#27314e" stroke-width="1"/>
<text x="58" y="64.00" text-anchor="end" fill="#93a4c3" font-family="Inter, Arial, sans-serif" font-size="12">41</text>
<text x="70.00" y="412" text-anchor="middle" fill="#93a4c3" font-family="Inter, Arial, sans-serif" font-size="12">2025-09-04</text>
<text x="508.77" y="412" text-anchor="middle" fill="#93a4c3" font-family="Inter, Arial, sans-serif" font-size="12">2025-10-24</text>
<text x="935.00" y="412" text-anchor="middle" fill="#93a4c3" font-family="Inter, Arial, sans-serif" font-size="12">2025-12-15</text>
<path d="M 70.00 275.57 L 82.54 270.53 L 95.07 281.06 L 107.61 283.80 L 120.14 289.67 L 132.68 310.95 L 145.22 297.45 L 157.75 295.09 L 170.29 293.87 L 182.83 287.46 L 195.36 253.38 L 207.90 288.22 L 220.43 266.64 L 232.97 279.46 L 245.51 266.03 L 258.04 222.49 L 270.58 245.75 L 283.12 247.43 L 295.65 259.32 L 308.19 297.76 L 320.72 309.80 L 333.26 286.01 L 345.80 296.54 L 358.33 271.60 L 370.87 278.85 L 383.41 256.96 L 395.94 123.98 L 408.48 175.75 L 421.01 212.66 L 433.55 109.03 L 446.09 196.19 L 458.62 336.57 L 471.16 309.88 L 483.70 285.33 L 496.23 232.33 L 508.77 267.94 L 521.30 285.48 L 533.84 299.36 L 546.38 266.80 L 558.91 256.12 L 571.45 236.53 L 583.99 192.98 L 596.52 135.80 L 609.06 183.68 L 621.59 184.67 L 634.13 190.93 L 646.67 255.59 L 659.20 294.63 L 671.74 209.53 L 684.28 237.06 L 696.81 167.36 L 709.35 60.00 L 721.88 70.45 L 734.42 66.18 L 746.96 146.17 L 759.49 277.24 L 772.03 326.96 L 784.57 337.79 L 797.10 375.00 L 809.64 333.06 L 822.17 308.20 L 834.71 290.89 L 847.25 264.74 L 859.78 247.28 L 872.32 278.92 L 884.86 241.33 L 897.39 272.67 L 909.93 307.67 L 922.46 264.05 L 935.00 273.13" fill="none" stroke="#69a7ff" stroke-width="4" stroke-linecap="round" stroke-linejoin="round"/>
<circle cx="935.00" cy="273.13" r="6" fill="#69a7ff"/>
</svg>