<svg xmlns="http://www.w3.org/2000/svg" width="960" height="430" viewBox="0 0 960 430" role="img" aria-label="Composite score history">
<rect width="100%" height="100%" fill="#0b1020" rx="20"/>
<text x="70" y="32" fill="#f5f7fb" font-family="Inter, Arial, sans-serif" font-size="24" font-weight="700">Composite score history</text>
<text x="70" y="52" fill="#93a4c3" font-family="Inter, Arial, sans-serif" font-size="13">Trailing 90 sessions through 2025-12-15</text>
<line x1="70" x2="935" y1="375.00" y2="375.00" stroke="#27314e" stroke-width="1"/>
<text x="58" y="379.00" text-anchor="end" fill="#93a4c3" font-family="Inter, Arial, sans-serif" font-size="12">0</text>
<line x1="70" x2="935" y1="312.00" y2="312.00" stroke="#27314e" stroke-width="1"/>
<text x="58" y="316.00" text-anchor="end" fill="#93a4c3" font-family="Inter, Arial, sans-serif" font-size="12">8</text>
<line x1="70" x2="935" y1="249.00" y2="249.00" stroke="#27314e" stroke-width="1"/>
<text x="58" y="253.00" text-anchor="end" fill="#93a4c3" font-family="Inter, Arial, sans-serif" font-size="12">17</text>
<line x1="70" x2="935" y1="186.00" y2="186.00" stroke="#27314e" stroke-width="1"/>
<text x="58" y="190.00" text-anchor="end" fill="#93a4c3" font-family="Inter, Arial, sans-serif" font-size="12">25</text>
<line x1="70" x2="935" y1="123.00" y2="123.00" stroke="#27314e" stroke-width="1"/>
<text x="58" y="127.00" text-anchor="end" fill="#93a4c3" font-family="Inter, Arial, sans-serif" font-size="12">33</text>
<line x1="70" x2="935" y1="60.00" y2="60.00" stroke="#27314e" stroke-width="1"/>
<text x="58" y="64.00" text-anchor="end" fill="#93a4c3" font-family="Inter, Arial, sans-serif" font-size="12">41</text>
<text x="70.00" y="412" text-anchor="middle" fill="#93a4c3" font-family="Inter, Arial, sans-serif" font-size="12">2025-08-06</text>
<text x="507.36" y="412" text-anchor="middle" fill="#93a4c3" font-family="Inter, Arial, sans-serif" font-size="12">2025-10-09</text>
<text x="935.00" y="412" text-anchor="middle" fill="#93a4c3" font-family="Inter, Arial, sans-serif" font-size="12">2025-12-15</text>
<path d="M 70.00 291.58 L 79.72 275.57 L 89.44 259.86 L 99.16 231.80 L 108.88 310.11 L 118.60 307.29 L 128.31 296.69 L 138.03 288.91 L 147.75 290.05 L 157.47 236.07 L 167.19 198.55 L 176.91 168.13 L 186.63 254.83 L 196.35 233.17 L 206.07 245.90 L 215.79 258.71 L 225.51 293.71 L 235.22 259.71 L 244.94 225.47 L 254.66 243.31 L 264.38 278.39 L 274.10 265.27 L 283.82 295.39 L 293.54 309.58 L 303.26 305.99 L 312.98 310.95 L 322.70 297.45 L 332.42 295.09 L 342.13 293.87 L 351.85 287.46 L 361.57 253.38 L 371.29 288.22 L 381.01 266.64 L 390.73 279.46 L 400.45 266.03 L 410.17 222.49 L 419.89 245.75 L 429.61 247.43 L 439.33 259.32 L 449.04 297.76 L 458.76 309.80 L 468.48 286.01 L 478.20 296.54 L 487.92 271.60 L 497.64 278.85 L 507.36 256.96 L 517.08 123.98 L 526.80 175.75 L 536.52 212.66 L 546.24 109.03 L 555.96 196.19 L 565.67 336.57 L 575.39 309.88 L 585.11 285.33 L 594.83 232.33 L 604.55 267.94 L 614.27 285.48 L 623.99 299.36 L 633.71 266.80 L 643.43 256.12 L 653.15 236.53 L 662.87 192.98 L 672.58 135.80 L 682.30 183.68 L 692.02 184.67 L 701.74 190.93 L 711.46 255.59 L 721.18 294.63 L 730.90 209.53 L 740.62 237.06 L 750.34 167.36 L 760.06 60.00 L 769.78 70.45 L 779.49 66.18 L 789.21 146.17 L 798.93 277.24 L 808.65 326.96 L 818.37 337.79 L 828.09 375.00 L 837.81 333.06 L 847.53 308.20 L 857.25 290.89 L 866.97 264.74 L 876.69 247.28 L 886.40 278.92 L 896.12 241.33 L 905.84 272.67 L 915.56 307.67 L 925.28 264.05 L 935.00 273.13" fill="none" stroke="#69a7ff" stroke-width="4" stroke-linecap="round" stroke-linejoin="round"/>
<circle cx="935.00" cy="273.13" r="6" fill="#69a7ff"/>
</svg>