<svg xmlns="http://www.w3.org/2000/svg" width="960" height="430" viewBox="0 0 960 430" role="img" aria-label="Composite score history">
<rect width="100%" height="100%" fill="#0b1020" rx="20"/>
<text x="70" y="32" fill="#f5f7fb" font-family="Inter, Arial, sans-serif" font-size="24" font-weight="700">Composite score history</text>
<text x="70" y="52" fill="#93a4c3" font-family="Inter, Arial, sans-serif" font-size="13">Trailing 81 sessions through 2025-12-15</text>
<line x1="70" x2="935" y1="375.00" y2="375.00" stroke="#27314e" stroke-width="1"/>
<text x="58" y="379.00" text-anchor="end" fill="#93a4c3" font-family="Inter, Arial, sans-serif" font-size="12">0</text>
<line x1="70" x2="935" y1="312.00" y2="312.00" stroke="#27314e" stroke-width="1"/>
<text x="58" y="316.00" text-anchor="end" fill="#93a4c3" font-family="Inter, Arial, sans-serif" font-size="12">8</text>
<line x1="70" x2="935" y1="249.00" y2="249.00" stroke="#27314e" stroke-width="1"/>
<text x="58" y="253.00" text-anchor="end" fill="#93a4c3" font-family="Inter, Arial, sans-serif" font-size="12">17</text>
<line x1="70" x2="935" y1="186.00" y2="186.00" stroke="#27314e" stroke-width="1"/>
<text x="58" y="190.00" text-anchor="end" fill="#93a4c3" font-family="Inter, Arial, sans-serif" font-size="12">25</text>
<line x1="70" x2="935" y1="123.00" y2="123.00" stroke="#27314e" stroke-width="1"/>
<text x="58" y="127.00" text-anchor="end" fill="#93a4c3" font-family="Inter, Arial, sans-serif" font-size="12">33</text>
<line x1="70" x2="935" y1="60.00" y2="60.00" stroke="#27314e" stroke-width="1"/>
<text x="58" y="64.00" text-anchor="end" fill="#93a4c3" font-family="Inter, Arial, sans-serif" font-size="12">41</text>
<text x="70.00" y="412" text-anchor="middle" fill="#93a4c3" font-family="Inter, Arial, sans-serif" font-size="12">2025-08-19</text>
<text x="502.50" y="412" text-anchor="middle" fill="#93a4c3" font-family="Inter, Arial, sans-serif" font-size="12">2025-10-16</text>
<text x="935.00" y="412" text-anchor="middle" fill="#93a4c3" font-family="Inter, Arial, sans-serif" font-size="12">2025-12-15</text>
<path d="M 70.00 271.53 L 80.81 256.27 L 91.62 194.74 L 102.44 254.83 L 113.25 235.84 L 124.06 245.90 L 134.88 258.71 L 145.69 293.71 L 156.50 259.71 L 167.31 225.47 L 178.12 243.31 L 188.94 278.39 L 199.75 265.27 L 210.56 295.39 L 221.38 309.58 L 232.19 305.99 L 243.00 310.95 L 253.81 297.45 L 264.62 295.09 L 275.44 293.87 L 286.25 287.46 L 297.06 253.38 L 307.88 288.22 L 318.69 266.64 L 329.50 279.46 L 340.31 266.03 L 351.12 222.49 L 361.94 245.75 L 372.75 247.43 L 383.56 259.32 L 394.38 297.76 L 405.19 309.80 L 416.00 286.01 L 426.81 296.54 L 437.62 271.60 L 448.44 278.85 L 459.25 256.96 L 470.06 123.98 L 480.88 175.75 L 491.69 212.66 L 502.50 109.03 L 513.31 196.19 L 524.12 336.57 L 534.94 309.88 L 545.75 285.33 L 556.56 232.33 L 567.38 267.94 L 578.19 285.48 L 589.00 299.36 L 599.81 266.80 L 610.62 256.12 L 621.44 236.53 L 632.25 192.98 L 643.06 135.80 L 653.88 183.68 L 664.69 184.67 L 675.50 190.93 L 686.31 255.59 L 697.12 294.63 L 707.94 209.53 L 718.75 237.06 L 729.56 167.36 L 740.38 60.00 L 751.19 70.45 L 762.00 66.18 L 772.81 146.17 L 783.62 277.24 L 794.44 326.96 L 805.25 337.79 L 816.06 375.00 L 826.88 333.06 L 837.69 308.20 L 848.50 290.89 L 859.31 264.74 L 870.12 247.28 L 880.94 278.92 L 891.75 241.33 L 902.56 272.67 L 913.38 307.67 L 924.19 264.05 L 935.00 273.13" fill="none" stroke="#69a7ff" stroke-width="4" stroke-linecap="round" stroke-linejoin="round"/>
<circle cx="935.00" cy="273.13" r="6" fill="#69a7ff"/>
</svg>