<svg xmlns="http://www.w3.org/2000/svg" width="960" height="430" viewBox="0 0 960 430" role="img" aria-label="Composite score history">
<rect width="100%" height="100%" fill="#0b1020" rx="20"/>
<text x="70" y="32" fill="#f5f7fb" font-family="Inter, Arial, sans-serif" font-size="24" font-weight="700">Composite score history</text>
<text x="70" y="52" fill="#93a4c3" font-family="Inter, Arial, sans-serif" font-size="13">Trailing 81 sessions through 2026-03-03</text>
<line x1="70" x2="935" y1="375.00" y2="375.00" stroke="#27314e" stroke-width="1"/>
<text x="58" y="379.00" text-anchor="end" fill="#93a4c3" font-family="Inter, Arial, sans-serif" font-size="12">0</text>
<line x1="70" x2="935" y1="312.00" y2="312.00" stroke="#27314e" stroke-width="1"/>
<text x="58" y="316.00" text-anchor="end" fill="#93a4c3" font-family="Inter, Arial, sans-serif" font-size="12">8</text>
<line x1="70" x2="935" y1="249.00" y2="249.00" stroke="#27314e" stroke-width="1"/>
<text x="58" y="253.00" text-anchor="end" fill="#93a4c3" font-family="Inter, Arial, sans-serif" font-size="12">17</text>
<line x1="70" x2="935" y1="186.00" y2="186.00" stroke="#27314e" stroke-width="1"/>
<text x="58" y="190.00" text-anchor="end" fill="#93a4c3" font-family="Inter, Arial, sans-serif" font-size="12">25</text>
<line x1="70" x2="935" y1="123.00" y2="123.00" stroke="#27314e" stroke-width="1"/>
<text x="58" y="127.00" text-anchor="end" fill="#93a4c3" font-family="Inter, Arial, sans-serif" font-size="12">33</text>
<line x1="70" x2="935" y1="60.00" y2="60.00" stroke="#27314e" stroke-width="1"/>
<text x="58" y="64.00" text-anchor="end" fill="#93a4c3" font-family="Inter, Arial, sans-serif" font-size="12">41</text>
<text x="70.00" y="412" text-anchor="middle" fill="#93a4c3" font-family="Inter, Arial, sans-serif" font-size="12">2025-11-03</text>
<text x="502.50" y="412" text-anchor="middle" fill="#93a4c3" font-family="Inter, Arial, sans-serif" font-size="12">2026-01-02</text>
<text x="935.00" y="412" text-anchor="middle" fill="#93a4c3" font-family="Inter, Arial, sans-serif" font-size="12">2026-03-03</text>
<path d="M 70.00 267.64 L 80.81 203.58 L 91.62 217.39 L 102.44 170.26 L 113.25 182.61 L 124.06 255.59 L 134.88 294.63 L 145.69 209.53 L 156.50 237.06 L 167.31 167.36 L 178.12 60.00 L 188.94 70.45 L 199.75 66.18 L 210.56 146.17 L 221.38 277.24 L 232.19 326.96 L 243.00 337.79 L 253.81 375.00 L 264.62 333.06 L 275.44 308.20 L 286.25 290.89 L 297.06 264.74 L 307.88 247.28 L 318.69 278.92 L 329.50 241.33 L 340.31 272.67 L 351.12 307.67 L 361.94 264.05 L 372.75 273.13 L 383.56 273.58 L 394.38 183.07 L 405.19 209.46 L 416.00 304.77 L 426.81 329.32 L 437.62 342.21 L 448.44 374.85 L 459.25 360.82 L 470.06 332.91 L 480.88 310.11 L 491.69 254.37 L 502.50 241.41 L 513.31 250.25 L 524.12 274.96 L 534.94 271.37 L 545.75 287.00 L 556.56 289.90 L 567.38 256.43 L 578.19 234.08 L 589.00 237.06 L 599.81 246.21 L 610.62 211.90 L 621.44 84.17 L 632.25 172.78 L 643.06 214.11 L 653.88 200.15 L 664.69 248.88 L 675.50 293.33 L 686.31 261.99 L 697.12 228.59 L 707.94 226.46 L 718.75 237.44 L 729.56 170.49 L 740.38 173.85 L 751.19 111.24 L 762.00 253.00 L 772.81 248.65 L 783.62 271.37 L 794.44 276.02 L 805.25 258.10 L 816.06 183.61 L 826.88 172.93 L 837.69 205.34 L 848.50 191.99 L 859.31 278.62 L 870.12 243.46 L 880.94 272.82 L 891.75 287.61 L 902.56 279.07 L 913.38 241.94 L 924.19 217.84 L 935.00 112.69" fill="none" stroke="#69a7ff" stroke-width="4" stroke-linecap="round" stroke-linejoin="round"/>
<circle cx="935.00" cy="112.69" r="6" fill="#69a7ff"/>
</svg>