<svg xmlns="http://www.w3.org/2000/svg" width="960" height="430" viewBox="0 0 960 430" role="img" aria-label="Composite score history">
<rect width="100%" height="100%" fill="#0b1020" rx="20"/>
<text x="70" y="32" fill="#f5f7fb" font-family="Inter, Arial, sans-serif" font-size="24" font-weight="700">Composite score history</text>
<text x="70" y="52" fill="#93a4c3" font-family="Inter, Arial, sans-serif" font-size="13">Trailing 85 sessions through 2026-03-03</text>
<line x1="70" x2="935" y1="375.00" y2="375.00" stroke="#27314e" stroke-width="1"/>
<text x="58" y="379.00" text-anchor="end" fill="#93a4c3" font-family="Inter, Arial, sans-serif" font-size="12">0</text>
<line x1="70" x2="935" y1="312.00" y2="312.00" stroke="#27314e" stroke-width="1"/>
<text x="58" y="316.00" text-anchor="end" fill="#93a4c3" font-family="Inter, Arial, sans-serif" font-size="12">8</text>
<line x1="70" x2="935" y1="249.00" y2="249.00" stroke="#27314e" stroke-width="1"/>
<text x="58" y="253.00" text-anchor="end" fill="#93a4c3" font-family="Inter, Arial, sans-serif" font-size="12">17</text>
<line x1="70" x2="935" y1="186.00" y2="186.00" stroke="#27314e" stroke-width="1"/>
<text x="58" y="190.00" text-anchor="end" fill="#93a4c3" font-family="Inter, Arial, sans-serif" font-size="12">25</text>
<line x1="70" x2="935" y1="123.00" y2="123.00" stroke="#27314e" stroke-width="1"/>
<text x="58" y="127.00" text-anchor="end" fill="#93a4c3" font-family="Inter, Arial, sans-serif" font-size="12">33</text>
<line x1="70" x2="935" y1="60.00" y2="60.00" stroke="#27314e" stroke-width="1"/>
<text x="58" y="64.00" text-anchor="end" fill="#93a4c3" font-family="Inter, Arial, sans-serif" font-size="12">41</text>
<text x="70.00" y="412" text-anchor="middle" fill="#93a4c3" font-family="Inter, Arial, sans-serif" font-size="12">2025-10-28</text>
<text x="502.50" y="412" text-anchor="middle" fill="#93a4c3" font-family="Inter, Arial, sans-serif" font-size="12">2025-12-30</text>
<text x="935.00" y="412" text-anchor="middle" fill="#93a4c3" font-family="Inter, Arial, sans-serif" font-size="12">2026-03-03</text>
<path d="M 70.00 284.34 L 80.30 229.97 L 90.60 180.25 L 100.89 176.97 L 111.19 182.00 L 121.49 135.80 L 131.79 183.68 L 142.08 184.67 L 152.38 190.93 L 162.68 255.59 L 172.98 294.63 L 183.27 209.53 L 193.57 237.06 L 203.87 167.36 L 214.17 60.00 L 224.46 70.45 L 234.76 66.18 L 245.06 146.17 L 255.36 277.24 L 265.65 326.96 L 275.95 337.79 L 286.25 375.00 L 296.55 333.06 L 306.85 308.20 L 317.14 290.89 L 327.44 264.74 L 337.74 247.28 L 348.04 278.92 L 358.33 241.33 L 368.63 272.67 L 378.93 307.67 L 389.23 264.05 L 399.52 273.13 L 409.82 273.58 L 420.12 183.07 L 430.42 209.46 L 440.71 304.77 L 451.01 329.32 L 461.31 342.21 L 471.61 374.85 L 481.90 360.82 L 492.20 332.91 L 502.50 310.11 L 512.80 254.37 L 523.10 241.41 L 533.39 250.25 L 543.69 274.96 L 553.99 271.37 L 564.29 287.00 L 574.58 289.90 L 584.88 256.43 L 595.18 234.08 L 605.48 237.06 L 615.77 246.21 L 626.07 211.90 L 636.37 84.17 L 646.67 172.78 L 656.96 214.11 L 667.26 200.15 L 677.56 248.88 L 687.86 293.33 L 698.15 261.99 L 708.45 228.59 L 718.75 226.46 L 729.05 237.44 L 739.35 170.49 L 749.64 173.85 L 759.94 111.24 L 770.24 253.00 L 780.54 248.65 L 790.83 271.37 L 801.13 276.02 L 811.43 258.10 L 821.73 183.61 L 832.02 172.93 L 842.32 205.34 L 852.62 191.99 L 862.92 278.62 L 873.21 243.46 L 883.51 272.82 L 893.81 287.61 L 904.11 279.07 L 914.40 241.94 L 924.70 217.84 L 935.00 112.69" fill="none" stroke="#69a7ff" stroke-width="4" stroke-linecap="round" stroke-linejoin="round"/>
<circle cx="935.00" cy="112.69" r="6" fill="#69a7ff"/>
</svg>