<svg xmlns="http://www.w3.org/2000/svg" width="960" height="430" viewBox="0 0 960 430" role="img" aria-label="Composite score history">
<rect width="100%" height="100%" fill="#0b1020" rx="20"/>
<text x="70" y="32" fill="#f5f7fb" font-family="Inter, Arial, sans-serif" font-size="24" font-weight="700">Composite score history</text>
<text x="70" y="52" fill="#93a4c3" font-family="Inter, Arial, sans-serif" font-size="13">Trailing 84 sessions through 2026-03-03</text>
<line x1="70" x2="935" y1="375.00" y2="375.00" stroke="#27314e" stroke-width="1"/>
<text x="58" y="379.00" text-anchor="end" fill="#93a4c3" font-family="Inter, Arial, sans-serif" font-size="12">0</text>
<line x1="70" x2="935" y1="312.00" y2="312.00" stroke="#27314e" stroke-width="1"/>
<text x="58" y="316.00" text-anchor="end" fill="#93a4c3" font-family="Inter, Arial, sans-serif" font-size="12">8</text>
<line x1="70" x2="935" y1="249.00" y2="249.00" stroke="#27314e" stroke-width="1"/>
<text x="58" y="253.00" text-anchor="end" fill="#93a4c3" font-family="Inter, Arial, sans-serif" font-size="12">17</text>
<line x1="70" x2="935" y1="186.00" y2="186.00" stroke="#27314e" stroke-width="1"/>
<text x="58" y="190.00" text-anchor="end" fill="#93a4c3" font-family="Inter, Arial, sans-serif" font-size="12">25</text>
<line x1="70" x2="935" y1="123.00" y2="123.00" stroke="#27314e" stroke-width="1"/>
<text x="58" y="127.00" text-anchor="end" fill="#93a4c3" font-family="Inter, Arial, sans-serif" font-size="12">33</text>
<line x1="70" x2="935" y1="60.00" y2="60.00" stroke="#27314e" stroke-width="1"/>
<text x="58" y="64.00" text-anchor="end" fill="#93a4c3" font-family="Inter, Arial, sans-serif" font-size="12">41</text>
<text x="70.00" y="412" text-anchor="middle" fill="#93a4c3" font-family="Inter, Arial, sans-serif" font-size="12">2025-10-29</text>
<text x="507.71" y="412" text-anchor="middle" fill="#93a4c3" font-family="Inter, Arial, sans-serif" font-size="12">2025-12-31</text>
<text x="935.00" y="412" text-anchor="middle" fill="#93a4c3" font-family="Inter, Arial, sans-serif" font-size="12">2026-03-03</text>
<path d="M 70.00 274.19 L 80.42 224.40 L 90.84 221.05 L 101.27 226.15 L 111.69 176.90 L 122.11 183.68 L 132.53 184.67 L 142.95 190.93 L 153.37 255.59 L 163.80 294.63 L 174.22 209.53 L 184.64 237.06 L 195.06 167.36 L 205.48 60.00 L 215.90 70.45 L 226.33 66.18 L 236.75 146.17 L 247.17 277.24 L 257.59 326.96 L 268.01 337.79 L 278.43 375.00 L 288.86 333.06 L 299.28 308.20 L 309.70 290.89 L 320.12 264.74 L 330.54 247.28 L 340.96 278.92 L 351.39 241.33 L 361.81 272.67 L 372.23 307.67 L 382.65 264.05 L 393.07 273.13 L 403.49 273.58 L 413.92 183.07 L 424.34 209.46 L 434.76 304.77 L 445.18 329.32 L 455.60 342.21 L 466.02 374.85 L 476.45 360.82 L 486.87 332.91 L 497.29 310.11 L 507.71 254.37 L 518.13 241.41 L 528.55 250.25 L 538.98 274.96 L 549.40 271.37 L 559.82 287.00 L 570.24 289.90 L 580.66 256.43 L 591.08 234.08 L 601.51 237.06 L 611.93 246.21 L 622.35 211.90 L 632.77 84.17 L 643.19 172.78 L 653.61 214.11 L 664.04 200.15 L 674.46 248.88 L 684.88 293.33 L 695.30 261.99 L 705.72 228.59 L 716.14 226.46 L 726.57 237.44 L 736.99 170.49 L 747.41 173.85 L 757.83 111.24 L 768.25 253.00 L 778.67 248.65 L 789.10 271.37 L 799.52 276.02 L 809.94 258.10 L 820.36 183.61 L 830.78 172.93 L 841.20 205.34 L 851.63 191.99 L 862.05 278.62 L 872.47 243.46 L 882.89 272.82 L 893.31 287.61 L 903.73 279.07 L 914.16 241.94 L 924.58 217.84 L 935.00 112.69" fill="none" stroke="#69a7ff" stroke-width="4" stroke-linecap="round" stroke-linejoin="round"/>
<circle cx="935.00" cy="112.69" r="6" fill="#69a7ff"/>
</svg>