<svg xmlns="http://www.w3.org/2000/svg" width="960" height="430" viewBox="0 0 960 430" role="img" aria-label="Composite score history">
<rect width="100%" height="100%" fill="#0b1020" rx="20"/>
<text x="70" y="32" fill="#f5f7fb" font-family="Inter, Arial, sans-serif" font-size="24" font-weight="700">Composite score history</text>
<text x="70" y="52" fill="#93a4c3" font-family="Inter, Arial, sans-serif" font-size="13">Trailing 78 sessions through 2026-03-03</text>
<line x1="70" x2="935" y1="375.00" y2="375.00" stroke="#27314e" stroke-width="1"/>
<text x="58" y="379.00" text-anchor="end" fill="#93a4c3" font-family="Inter, Arial, sans-serif" font-size="12">0</text>
<line x1="70" x2="935" y1="312.00" y2="312.00" stroke="#27314e" stroke-width="1"/>
<text x="58" y="316.00" text-anchor="end" fill="#93a4c3" font-family="Inter, Arial, sans-serif" font-size="12">8</text>
<line x1="70" x2="935" y1="249.00" y2="249.00" stroke="#27314e" stroke-width="1"/>
<text x="58" y="253.00" text-anchor="end" fill="#93a4c3" font-family="Inter, Arial, sans-serif" font-size="12">17</text>
<line x1="70" x2="935" y1="186.00" y2="186.00" stroke="#27314e" stroke-width="1"/>
<text x="58" y="190.00" text-anchor="end" fill="#93a4c3" font-family="Inter, Arial, sans-serif" font-size="12">25</text>
<line x1="70" x2="935" y1="123.00" y2="123.00" stroke="#27314e" stroke-width="1"/>
<text x="58" y="127.00" text-anchor="end" fill="#93a4c3" font-family="Inter, Arial, sans-serif" font-size="12">33</text>
<line x1="70" x2="935" y1="60.00" y2="60.00" stroke="#27314e" stroke-width="1"/>
<text x="58" y="64.00" text-anchor="end" fill="#93a4c3" font-family="Inter, Arial, sans-serif" font-size="12">41</text>
<text x="70.00" y="412" text-anchor="middle" fill="#93a4c3" font-family="Inter, Arial, sans-serif" font-size="12">2025-11-06</text>
<text x="508.12" y="412" text-anchor="middle" fill="#93a4c3" font-family="Inter, Arial, sans-serif" font-size="12">2026-01-06</text>
<text x="935.00" y="412" text-anchor="middle" fill="#93a4c3" font-family="Inter, Arial, sans-serif" font-size="12">2026-03-03</text>
<path d="M 70.00 260.16 L 81.23 267.18 L 92.47 294.48 L 103.70 309.27 L 114.94 255.05 L 126.17 237.06 L 137.40 167.36 L 148.64 60.00 L 159.87 70.45 L 171.10 66.18 L 182.34 146.17 L 193.57 277.24 L 204.81 326.96 L 216.04 337.79 L 227.27 375.00 L 238.51 333.06 L 249.74 308.20 L 260.97 290.89 L 272.21 264.74 L 283.44 247.28 L 294.68 278.92 L 305.91 241.33 L 317.14 272.67 L 328.38 307.67 L 339.61 264.05 L 350.84 273.13 L 362.08 273.58 L 373.31 183.07 L 384.55 209.46 L 395.78 304.77 L 407.01 329.32 L 418.25 342.21 L 429.48 374.85 L 440.71 360.82 L 451.95 332.91 L 463.18 310.11 L 474.42 254.37 L 485.65 241.41 L 496.88 250.25 L 508.12 274.96 L 519.35 271.37 L 530.58 287.00 L 541.82 289.90 L 553.05 256.43 L 564.29 234.08 L 575.52 237.06 L 586.75 246.21 L 597.99 211.90 L 609.22 84.17 L 620.45 172.78 L 631.69 214.11 L 642.92 200.15 L 654.16 248.88 L 665.39 293.33 L 676.62 261.99 L 687.86 228.59 L 699.09 226.46 L 710.32 237.44 L 721.56 170.49 L 732.79 173.85 L 744.03 111.24 L 755.26 253.00 L 766.49 248.65 L 777.73 271.37 L 788.96 276.02 L 800.19 258.10 L 811.43 183.61 L 822.66 172.93 L 833.90 205.34 L 845.13 191.99 L 856.36 278.62 L 867.60 243.46 L 878.83 272.82 L 890.06 287.61 L 901.30 279.07 L 912.53 241.94 L 923.77 217.84 L 935.00 112.69" fill="none" stroke="#69a7ff" stroke-width="4" stroke-linecap="round" stroke-linejoin="round"/>
<circle cx="935.00" cy="112.69" r="6" fill="#69a7ff"/>
</svg>