<svg xmlns="http://www.w3.org/2000/svg" width="960" height="430" viewBox="0 0 960 430" role="img" aria-label="Composite score history">
<rect width="100%" height="100%" fill="#0b1020" rx="20"/>
<text x="70" y="32" fill="#f5f7fb" font-family="Inter, Arial, sans-serif" font-size="24" font-weight="700">Composite score history</text>
<text x="70" y="52" fill="#93a4c3" font-family="Inter, Arial, sans-serif" font-size="13">Trailing 61 sessions through 2025-12-19</text>
<line x1="70" x2="935" y1="375.00" y2="375.00" stroke="#27314e" stroke-width="1"/>
<text x="58" y="379.00" text-anchor="end" fill="#93a4c3" font-family="Inter, Arial, sans-serif" font-size="12">0</text>
<line x1="70" x2="935" y1="312.00" y2="312.00" stroke="#27314e" stroke-width="1"/>
<text x="58" y="316.00" text-anchor="end" fill="#93a4c3" font-family="Inter, Arial, sans-serif" font-size="12">8</text>
<line x1="70" x2="935" y1="249.00" y2="249.00" stroke="#27314e" stroke-width="1"/>
<text x="58" y="253.00" text-anchor="end" fill="#93a4c3" font-family="Inter, Arial, sans-serif" font-size="12">17</text>
<line x1="70" x2="935" y1="186.00" y2="186.00" stroke="#27314e" stroke-width="1"/>
<text x="58" y="190.00" text-anchor="end" fill="#93a4c3" font-family="Inter, Arial, sans-serif" font-size="12">25</text>
<line x1="70" x2="935" y1="123.00" y2="123.00" stroke="#27314e" stroke-width="1"/>
<text x="58" y="127.00" text-anchor="end" fill="#93a4c3" font-family="Inter, Arial, sans-serif" font-size="12">33</text>
<line x1="70" x2="935" y1="60.00" y2="60.00" stroke="#27314e" stroke-width="1"/>
<text x="58" y="64.00" text-anchor="end" fill="#93a4c3" font-family="Inter, Arial, sans-serif" font-size="12">41</text>
<text x="70.00" y="412" text-anchor="middle" fill="#93a4c3" font-family="Inter, Arial, sans-serif" font-size="12">2025-09-23</text>
<text x="502.50" y="412" text-anchor="middle" fill="#93a4c3" font-family="Inter, Arial, sans-serif" font-size="12">2025-11-05</text>
<text x="935.00" y="412" text-anchor="middle" fill="#93a4c3" font-family="Inter, Arial, sans-serif" font-size="12">2025-12-19</text>
<path d="M 70.00 273.13 L 84.42 250.71 L 98.83 202.75 L 113.25 237.75 L 127.67 242.93 L 142.08 259.32 L 156.50 297.76 L 170.92 309.80 L 185.33 286.01 L 199.75 296.54 L 214.17 271.60 L 228.58 278.85 L 243.00 256.96 L 257.42 123.98 L 271.83 175.75 L 286.25 212.66 L 300.67 109.03 L 315.08 196.19 L 329.50 336.57 L 343.92 309.88 L 358.33 285.33 L 372.75 232.33 L 387.17 267.94 L 401.58 285.48 L 416.00 299.36 L 430.42 266.80 L 444.83 256.12 L 459.25 236.53 L 473.67 192.98 L 488.08 135.80 L 502.50 183.68 L 516.92 184.67 L 531.33 190.93 L 545.75 255.59 L 560.17 294.63 L 574.58 209.53 L 589.00 237.06 L 603.42 167.36 L 617.83 60.00 L 632.25 70.45 L 646.67 66.18 L 661.08 146.17 L 675.50 277.24 L 689.92 326.96 L 704.33 337.79 L 718.75 375.00 L 733.17 333.06 L 747.58 308.20 L 762.00 290.89 L 776.42 264.74 L 790.83 247.28 L 805.25 278.92 L 819.67 241.33 L 834.08 272.67 L 848.50 307.67 L 862.92 264.05 L 877.33 273.13 L 891.75 273.58 L 906.17 183.07 L 920.58 209.46 L 935.00 304.77" fill="none" stroke="#69a7ff" stroke-width="4" stroke-linecap="round" stroke-linejoin="round"/>
<circle cx="935.00" cy="304.77" r="6" fill="#69a7ff"/>
</svg>