<svg xmlns="http://www.w3.org/2000/svg" width="960" height="430" viewBox="0 0 960 430" role="img" aria-label="Composite score history">
<rect width="100%" height="100%" fill="#0b1020" rx="20"/>
<text x="70" y="32" fill="#f5f7fb" font-family="Inter, Arial, sans-serif" font-size="24" font-weight="700">Composite score history</text>
<text x="70" y="52" fill="#93a4c3" font-family="Inter, Arial, sans-serif" font-size="13">Trailing 70 sessions through 2025-12-19</text>
<line x1="70" x2="935" y1="375.00" y2="375.00" stroke="#27314e" stroke-width="1"/>
<text x="58" y="379.00" text-anchor="end" fill="#93a4c3" font-family="Inter, Arial, sans-serif" font-size="12">0</text>
<line x1="70" x2="935" y1="312.00" y2="312.00" stroke="#27314e" stroke-width="1"/>
<text x="58" y="316.00" text-anchor="end" fill="#93a4c3" font-family="Inter, Arial, sans-serif" font-size="12">8</text>
<line x1="70" x2="935" y1="249.00" y2="249.00" stroke="#27314e" stroke-width="1"/>
<text x="58" y="253.00" text-anchor="end" fill="#93a4c3" font-family="Inter, Arial, sans-serif" font-size="12">17</text>
<line x1="70" x2="935" y1="186.00" y2="186.00" stroke="#27314e" stroke-width="1"/>
<text x="58" y="190.00" text-anchor="end" fill="#93a4c3" font-family="Inter, Arial, sans-serif" font-size="12">25</text>
<line x1="70" x2="935" y1="123.00" y2="123.00" stroke="#27314e" stroke-width="1"/>
<text x="58" y="127.00" text-anchor="end" fill="#93a4c3" font-family="Inter, Arial, sans-serif" font-size="12">33</text>
<line x1="70" x2="935" y1="60.00" y2="60.00" stroke="#27314e" stroke-width="1"/>
<text x="58" y="64.00" text-anchor="end" fill="#93a4c3" font-family="Inter, Arial, sans-serif" font-size="12">41</text>
<text x="70.00" y="412" text-anchor="middle" fill="#93a4c3" font-family="Inter, Arial, sans-serif" font-size="12">2025-09-10</text>
<text x="508.77" y="412" text-anchor="middle" fill="#93a4c3" font-family="Inter, Arial, sans-serif" font-size="12">2025-10-30</text>
<text x="935.00" y="412" text-anchor="middle" fill="#93a4c3" font-family="Inter, Arial, sans-serif" font-size="12">2025-12-19</text>
<path d="M 70.00 281.21 L 82.54 302.10 L 95.07 287.84 L 107.61 301.11 L 120.14 286.47 L 132.68 287.46 L 145.22 253.38 L 157.75 288.22 L 170.29 266.64 L 182.83 279.46 L 195.36 266.03 L 207.90 222.49 L 220.43 245.75 L 232.97 247.43 L 245.51 259.32 L 258.04 297.76 L 270.58 309.80 L 283.12 286.01 L 295.65 296.54 L 308.19 271.60 L 320.72 278.85 L 333.26 256.96 L 345.80 123.98 L 358.33 175.75 L 370.87 212.66 L 383.41 109.03 L 395.94 196.19 L 408.48 336.57 L 421.01 309.88 L 433.55 285.33 L 446.09 232.33 L 458.62 267.94 L 471.16 285.48 L 483.70 299.36 L 496.23 266.80 L 508.77 256.12 L 521.30 236.53 L 533.84 192.98 L 546.38 135.80 L 558.91 183.68 L 571.45 184.67 L 583.99 190.93 L 596.52 255.59 L 609.06 294.63 L 621.59 209.53 L 634.13 237.06 L 646.67 167.36 L 659.20 60.00 L 671.74 70.45 L 684.28 66.18 L 696.81 146.17 L 709.35 277.24 L 721.88 326.96 L 734.42 337.79 L 746.96 375.00 L 759.49 333.06 L 772.03 308.20 L 784.57 290.89 L 797.10 264.74 L 809.64 247.28 L 822.17 278.92 L 834.71 241.33 L 847.25 272.67 L 859.78 307.67 L 872.32 264.05 L 884.86 273.13 L 897.39 273.58 L 909.93 183.07 L 922.46 209.46 L 935.00 304.77" fill="none" stroke="#69a7ff" stroke-width="4" stroke-linecap="round" stroke-linejoin="round"/>
<circle cx="935.00" cy="304.77" r="6" fill="#69a7ff"/>
</svg>