<svg xmlns="http://www.w3.org/2000/svg" width="960" height="430" viewBox="0 0 960 430" role="img" aria-label="Composite score history">
<rect width="100%" height="100%" fill="#0b1020" rx="20"/>
<text x="70" y="32" fill="#f5f7fb" font-family="Inter, Arial, sans-serif" font-size="24" font-weight="700">Composite score history</text>
<text x="70" y="52" fill="#93a4c3" font-family="Inter, Arial, sans-serif" font-size="13">Trailing 87 sessions through 2025-12-19</text>
<line x1="70" x2="935" y1="375.00" y2="375.00" stroke="#27314e" stroke-width="1"/>
<text x="58" y="379.00" text-anchor="end" fill="#93a4c3" font-family="Inter, Arial, sans-serif" font-size="12">0</text>
<line x1="70" x2="935" y1="312.00" y2="312.00" stroke="#27314e" stroke-width="1"/>
<text x="58" y="316.00" text-anchor="end" fill="#93a4c3" font-family="Inter, Arial, sans-serif" font-size="12">8</text>
<line x1="70" x2="935" y1="249.00" y2="249.00" stroke="#27314e" stroke-width="1"/>
<text x="58" y="253.00" text-anchor="end" fill="#93a4c3" font-family="Inter, Arial, sans-serif" font-size="12">17</text>
<line x1="70" x2="935" y1="186.00" y2="186.00" stroke="#27314e" stroke-width="1"/>
<text x="58" y="190.00" text-anchor="end" fill="#93a4c3" font-family="Inter, Arial, sans-serif" font-size="12">25</text>
<line x1="70" x2="935" y1="123.00" y2="123.00" stroke="#27314e" stroke-width="1"/>
<text x="58" y="127.00" text-anchor="end" fill="#93a4c3" font-family="Inter, Arial, sans-serif" font-size="12">33</text>
<line x1="70" x2="935" y1="60.00" y2="60.00" stroke="#27314e" stroke-width="1"/>
<text x="58" y="64.00" text-anchor="end" fill="#93a4c3" font-family="Inter, Arial, sans-serif" font-size="12">41</text>
<text x="70.00" y="412" text-anchor="middle" fill="#93a4c3" font-family="Inter, Arial, sans-serif" font-size="12">2025-08-15</text>
<text x="502.50" y="412" text-anchor="middle" fill="#93a4c3" font-family="Inter, Arial, sans-serif" font-size="12">2025-10-17</text>
<text x="935.00" y="412" text-anchor="middle" fill="#93a4c3" font-family="Inter, Arial, sans-serif" font-size="12">2025-12-19</text>
<path d="M 70.00 270.92 L 80.06 263.98 L 90.12 245.37 L 100.17 234.01 L 110.23 180.17 L 120.29 254.83 L 130.35 233.17 L 140.41 245.90 L 150.47 258.71 L 160.52 293.71 L 170.58 259.71 L 180.64 225.47 L 190.70 243.31 L 200.76 278.39 L 210.81 265.27 L 220.87 295.39 L 230.93 309.58 L 240.99 305.99 L 251.05 310.95 L 261.10 297.45 L 271.16 295.09 L 281.22 293.87 L 291.28 287.46 L 301.34 253.38 L 311.40 288.22 L 321.45 266.64 L 331.51 279.46 L 341.57 266.03 L 351.63 222.49 L 361.69 245.75 L 371.74 247.43 L 381.80 259.32 L 391.86 297.76 L 401.92 309.80 L 411.98 286.01 L 422.03 296.54 L 432.09 271.60 L 442.15 278.85 L 452.21 256.96 L 462.27 123.98 L 472.33 175.75 L 482.38 212.66 L 492.44 109.03 L 502.50 196.19 L 512.56 336.57 L 522.62 309.88 L 532.67 285.33 L 542.73 232.33 L 552.79 267.94 L 562.85 285.48 L 572.91 299.36 L 582.97 266.80 L 593.02 256.12 L 603.08 236.53 L 613.14 192.98 L 623.20 135.80 L 633.26 183.68 L 643.31 184.67 L 653.37 190.93 L 663.43 255.59 L 673.49 294.63 L 683.55 209.53 L 693.60 237.06 L 703.66 167.36 L 713.72 60.00 L 723.78 70.45 L 733.84 66.18 L 743.90 146.17 L 753.95 277.24 L 764.01 326.96 L 774.07 337.79 L 784.13 375.00 L 794.19 333.06 L 804.24 308.20 L 814.30 290.89 L 824.36 264.74 L 834.42 247.28 L 844.48 278.92 L 854.53 241.33 L 864.59 272.67 L 874.65 307.67 L 884.71 264.05 L 894.77 273.13 L 904.83 273.58 L 914.88 183.07 L 924.94 209.46 L 935.00 304.77" fill="none" stroke="#69a7ff" stroke-width="4" stroke-linecap="round" stroke-linejoin="round"/>
<circle cx="935.00" cy="304.77" r="6" fill="#69a7ff"/>
</svg>