<svg xmlns="http://www.w3.org/2000/svg" width="960" height="430" viewBox="0 0 960 430" role="img" aria-label="Composite score history">
<rect width="100%" height="100%" fill="#0b1020" rx="20"/>
<text x="70" y="32" fill="#f5f7fb" font-family="Inter, Arial, sans-serif" font-size="24" font-weight="700">Composite score history</text>
<text x="70" y="52" fill="#93a4c3" font-family="Inter, Arial, sans-serif" font-size="13">Trailing 55 sessions through 2025-12-19</text>
<line x1="70" x2="935" y1="375.00" y2="375.00" stroke="#27314e" stroke-width="1"/>
<text x="58" y="379.00" text-anchor="end" fill="#93a4c3" font-family="Inter, Arial, sans-serif" font-size="12">0</text>
<line x1="70" x2="935" y1="312.00" y2="312.00" stroke="#27314e" stroke-width="1"/>
<text x="58" y="316.00" text-anchor="end" fill="#93a4c3" font-family="Inter, Arial, sans-serif" font-size="12">8</text>
<line x1="70" x2="935" y1="249.00" y2="249.00" stroke="#27314e" stroke-width="1"/>
<text x="58" y="253.00" text-anchor="end" fill="#93a4c3" font-family="Inter, Arial, sans-serif" font-size="12">17</text>
<line x1="70" x2="935" y1="186.00" y2="186.00" stroke="#27314e" stroke-width="1"/>
<text x="58" y="190.00" text-anchor="end" fill="#93a4c3" font-family="Inter, Arial, sans-serif" font-size="12">25</text>
<line x1="70" x2="935" y1="123.00" y2="123.00" stroke="#27314e" stroke-width="1"/>
<text x="58" y="127.00" text-anchor="end" fill="#93a4c3" font-family="Inter, Arial, sans-serif" font-size="12">33</text>
<line x1="70" x2="935" y1="60.00" y2="60.00" stroke="#27314e" stroke-width="1"/>
<text x="58" y="64.00" text-anchor="end" fill="#93a4c3" font-family="Inter, Arial, sans-serif" font-size="12">41</text>
<text x="70.00" y="412" text-anchor="middle" fill="#93a4c3" font-family="Inter, Arial, sans-serif" font-size="12">2025-10-01</text>
<text x="502.50" y="412" text-anchor="middle" fill="#93a4c3" font-family="Inter, Arial, sans-serif" font-size="12">2025-11-10</text>
<text x="935.00" y="412" text-anchor="middle" fill="#93a4c3" font-family="Inter, Arial, sans-serif" font-size="12">2025-12-19</text>
<path d="M 70.00 277.55 L 86.02 276.63 L 102.04 264.66 L 118.06 268.09 L 134.07 259.10 L 150.09 278.85 L 166.11 256.96 L 182.13 123.98 L 198.15 175.75 L 214.17 212.66 L 230.19 109.03 L 246.20 196.19 L 262.22 336.57 L 278.24 309.88 L 294.26 285.33 L 310.28 232.33 L 326.30 267.94 L 342.31 285.48 L 358.33 299.36 L 374.35 266.80 L 390.37 256.12 L 406.39 236.53 L 422.41 192.98 L 438.43 135.80 L 454.44 183.68 L 470.46 184.67 L 486.48 190.93 L 502.50 255.59 L 518.52 294.63 L 534.54 209.53 L 550.56 237.06 L 566.57 167.36 L 582.59 60.00 L 598.61 70.45 L 614.63 66.18 L 630.65 146.17 L 646.67 277.24 L 662.69 326.96 L 678.70 337.79 L 694.72 375.00 L 710.74 333.06 L 726.76 308.20 L 742.78 290.89 L 758.80 264.74 L 774.81 247.28 L 790.83 278.92 L 806.85 241.33 L 822.87 272.67 L 838.89 307.67 L 854.91 264.05 L 870.93 273.13 L 886.94 273.58 L 902.96 183.07 L 918.98 209.46 L 935.00 304.77" fill="none" stroke="#69a7ff" stroke-width="4" stroke-linecap="round" stroke-linejoin="round"/>
<circle cx="935.00" cy="304.77" r="6" fill="#69a7ff"/>
</svg>