<svg xmlns="http://www.w3.org/2000/svg" width="960" height="430" viewBox="0 0 960 430" role="img" aria-label="Composite score history">
<rect width="100%" height="100%" fill="#0b1020" rx="20"/>
<text x="70" y="32" fill="#f5f7fb" font-family="Inter, Arial, sans-serif" font-size="24" font-weight="700">Composite score history</text>
<text x="70" y="52" fill="#93a4c3" font-family="Inter, Arial, sans-serif" font-size="13">Trailing 90 sessions through 2025-12-19</text>
<line x1="70" x2="935" y1="375.00" y2="375.00" stroke="#27314e" stroke-width="1"/>
<text x="58" y="379.00" text-anchor="end" fill="#93a4c3" font-family="Inter, Arial, sans-serif" font-size="12">9</text>
<line x1="70" x2="935" y1="312.00" y2="312.00" stroke="#27314e" stroke-width="1"/>
<text x="58" y="316.00" text-anchor="end" fill="#93a4c3" font-family="Inter, Arial, sans-serif" font-size="12">16</text>
<line x1="70" x2="935" y1="249.00" y2="249.00" stroke="#27314e" stroke-width="1"/>
<text x="58" y="253.00" text-anchor="end" fill="#93a4c3" font-family="Inter, Arial, sans-serif" font-size="12">22</text>
<line x1="70" x2="935" y1="186.00" y2="186.00" stroke="#27314e" stroke-width="1"/>
<text x="58" y="190.00" text-anchor="end" fill="#93a4c3" font-family="Inter, Arial, sans-serif" font-size="12">29</text>
<line x1="70" x2="935" y1="123.00" y2="123.00" stroke="#27314e" stroke-width="1"/>
<text x="58" y="127.00" text-anchor="end" fill="#93a4c3" font-family="Inter, Arial, sans-serif" font-size="12">35</text>
<line x1="70" x2="935" y1="60.00" y2="60.00" stroke="#27314e" stroke-width="1"/>
<text x="58" y="64.00" text-anchor="end" fill="#93a4c3" font-family="Inter, Arial, sans-serif" font-size="12">41</text>
<text x="70.00" y="412" text-anchor="middle" fill="#93a4c3" font-family="Inter, Arial, sans-serif" font-size="12">2025-08-12</text>
<text x="507.36" y="412" text-anchor="middle" fill="#93a4c3" font-family="Inter, Arial, sans-serif" font-size="12">2025-10-16</text>
<text x="935.00" y="412" text-anchor="middle" fill="#93a4c3" font-family="Inter, Arial, sans-serif" font-size="12">2025-12-19</text>
<path d="M 70.00 326.84 L 79.72 333.46 L 89.44 316.85 L 99.16 333.56 L 108.88 329.01 L 118.60 288.36 L 128.31 239.70 L 138.03 200.24 L 147.75 306.16 L 157.47 284.60 L 167.19 280.05 L 176.91 284.60 L 186.63 312.00 L 196.35 319.02 L 206.07 274.62 L 215.79 297.76 L 225.51 335.44 L 235.22 326.24 L 244.94 351.96 L 254.66 346.32 L 264.38 346.91 L 274.10 353.04 L 283.82 328.81 L 293.54 319.22 L 303.26 327.63 L 312.98 329.11 L 322.70 294.10 L 332.42 325.95 L 342.13 298.75 L 351.85 325.95 L 361.57 313.19 L 371.29 270.76 L 381.01 300.92 L 390.73 303.10 L 400.45 306.76 L 410.17 341.18 L 419.89 342.56 L 429.61 326.34 L 439.33 337.42 L 449.04 324.76 L 458.76 328.12 L 468.48 308.14 L 478.20 142.98 L 487.92 210.03 L 497.64 258.00 L 507.36 123.59 L 517.08 236.64 L 526.80 349.78 L 536.52 350.18 L 546.24 341.77 L 555.96 242.77 L 565.67 282.43 L 575.39 301.12 L 585.11 313.29 L 594.83 257.60 L 604.55 283.62 L 614.27 271.35 L 623.99 232.48 L 633.71 158.31 L 643.43 220.42 L 653.15 221.70 L 662.87 229.81 L 672.58 313.68 L 682.30 335.34 L 692.02 253.95 L 701.74 284.60 L 711.46 199.25 L 721.18 60.00 L 730.90 73.55 L 740.62 68.01 L 750.34 171.76 L 760.06 329.60 L 769.78 350.77 L 779.49 356.80 L 789.21 361.85 L 798.93 335.64 L 808.65 336.13 L 818.37 328.91 L 828.09 309.43 L 837.81 295.19 L 847.53 331.68 L 857.25 291.13 L 866.97 322.48 L 876.69 365.41 L 886.40 324.66 L 896.12 336.43 L 905.84 337.02 L 915.56 219.53 L 925.28 253.85 L 935.00 375.00" fill="none" stroke="#69a7ff" stroke-width="4" stroke-linecap="round" stroke-linejoin="round"/>
<circle cx="935.00" cy="375.00" r="6" fill="#69a7ff"/>
<text x="927.00" y="363.00" text-anchor="end" fill="#f5f7fb" font-family="Inter, Arial, sans-serif" font-size="12" font-weight="600">9.46</text>
</svg>