<svg xmlns="http://www.w3.org/2000/svg" width="960" height="430" viewBox="0 0 960 430" role="img" aria-label="Composite score history">
<rect width="100%" height="100%" fill="#0b1020" rx="20"/>
<text x="70" y="32" fill="#f5f7fb" font-family="Inter, Arial, sans-serif" font-size="24" font-weight="700">Composite score history</text>
<text x="70" y="52" fill="#93a4c3" font-family="Inter, Arial, sans-serif" font-size="13">Trailing 90 sessions through 2025-12-19</text>
<line x1="70" x2="935" y1="375.00" y2="375.00" stroke="#27314e" stroke-width="1"/>
<text x="58" y="379.00" text-anchor="end" fill="#93a4c3" font-family="Inter, Arial, sans-serif" font-size="12">0</text>
<line x1="70" x2="935" y1="312.00" y2="312.00" stroke="#27314e" stroke-width="1"/>
<text x="58" y="316.00" text-anchor="end" fill="#93a4c3" font-family="Inter, Arial, sans-serif" font-size="12">8</text>
<line x1="70" x2="935" y1="249.00" y2="249.00" stroke="#27314e" stroke-width="1"/>
<text x="58" y="253.00" text-anchor="end" fill="#93a4c3" font-family="Inter, Arial, sans-serif" font-size="12">17</text>
<line x1="70" x2="935" y1="186.00" y2="186.00" stroke="#27314e" stroke-width="1"/>
<text x="58" y="190.00" text-anchor="end" fill="#93a4c3" font-family="Inter, Arial, sans-serif" font-size="12">25</text>
<line x1="70" x2="935" y1="123.00" y2="123.00" stroke="#27314e" stroke-width="1"/>
<text x="58" y="127.00" text-anchor="end" fill="#93a4c3" font-family="Inter, Arial, sans-serif" font-size="12">33</text>
<line x1="70" x2="935" y1="60.00" y2="60.00" stroke="#27314e" stroke-width="1"/>
<text x="58" y="64.00" text-anchor="end" fill="#93a4c3" font-family="Inter, Arial, sans-serif" font-size="12">41</text>
<text x="70.00" y="412" text-anchor="middle" fill="#93a4c3" font-family="Inter, Arial, sans-serif" font-size="12">2025-08-12</text>
<text x="507.36" y="412" text-anchor="middle" fill="#93a4c3" font-family="Inter, Arial, sans-serif" font-size="12">2025-10-16</text>
<text x="935.00" y="412" text-anchor="middle" fill="#93a4c3" font-family="Inter, Arial, sans-serif" font-size="12">2025-12-19</text>
<path d="M 70.00 283.04 L 79.72 307.29 L 89.44 296.69 L 99.16 288.91 L 108.88 290.05 L 118.60 236.07 L 128.31 198.55 L 138.03 168.13 L 147.75 254.83 L 157.47 233.17 L 167.19 245.90 L 176.91 258.71 L 186.63 293.71 L 196.35 259.71 L 206.07 225.47 L 215.79 243.31 L 225.51 278.39 L 235.22 265.27 L 244.94 295.39 L 254.66 309.58 L 264.38 305.99 L 274.10 310.95 L 283.82 297.45 L 293.54 295.09 L 303.26 293.87 L 312.98 287.46 L 322.70 253.38 L 332.42 288.22 L 342.13 266.64 L 351.85 279.46 L 361.57 266.03 L 371.29 222.49 L 381.01 245.75 L 390.73 247.43 L 400.45 259.32 L 410.17 297.76 L 419.89 309.80 L 429.61 286.01 L 439.33 296.54 L 449.04 271.60 L 458.76 278.85 L 468.48 256.96 L 478.20 123.98 L 487.92 175.75 L 497.64 212.66 L 507.36 109.03 L 517.08 196.19 L 526.80 336.57 L 536.52 309.88 L 546.24 285.33 L 555.96 232.33 L 565.67 267.94 L 575.39 285.48 L 585.11 299.36 L 594.83 266.80 L 604.55 256.12 L 614.27 236.53 L 623.99 192.98 L 633.71 135.80 L 643.43 183.68 L 653.15 184.67 L 662.87 190.93 L 672.58 255.59 L 682.30 294.63 L 692.02 209.53 L 701.74 237.06 L 711.46 167.36 L 721.18 60.00 L 730.90 70.45 L 740.62 66.18 L 750.34 146.17 L 760.06 277.24 L 769.78 326.96 L 779.49 337.79 L 789.21 375.00 L 798.93 333.06 L 808.65 308.20 L 818.37 290.89 L 828.09 264.74 L 837.81 247.28 L 847.53 278.92 L 857.25 241.33 L 866.97 272.67 L 876.69 307.67 L 886.40 264.05 L 896.12 273.13 L 905.84 273.58 L 915.56 183.07 L 925.28 209.46 L 935.00 304.77" fill="none" stroke="#69a7ff" stroke-width="4" stroke-linecap="round" stroke-linejoin="round"/>
<circle cx="935.00" cy="304.77" r="6" fill="#69a7ff"/>
</svg>