<svg xmlns="http://www.w3.org/2000/svg" width="960" height="430" viewBox="0 0 960 430" role="img" aria-label="Composite score history">
<rect width="100%" height="100%" fill="#0b1020" rx="20"/>
<text x="70" y="32" fill="#f5f7fb" font-family="Inter, Arial, sans-serif" font-size="24" font-weight="700">Composite score history</text>
<text x="70" y="52" fill="#93a4c3" font-family="Inter, Arial, sans-serif" font-size="13">Trailing 79 sessions through 2026-03-02</text>
<line x1="70" x2="935" y1="375.00" y2="375.00" stroke="#27314e" stroke-width="1"/>
<text x="58" y="379.00" text-anchor="end" fill="#93a4c3" font-family="Inter, Arial, sans-serif" font-size="12">0</text>
<line x1="70" x2="935" y1="312.00" y2="312.00" stroke="#27314e" stroke-width="1"/>
<text x="58" y="316.00" text-anchor="end" fill="#93a4c3" font-family="Inter, Arial, sans-serif" font-size="12">8</text>
<line x1="70" x2="935" y1="249.00" y2="249.00" stroke="#27314e" stroke-width="1"/>
<text x="58" y="253.00" text-anchor="end" fill="#93a4c3" font-family="Inter, Arial, sans-serif" font-size="12">17</text>
<line x1="70" x2="935" y1="186.00" y2="186.00" stroke="#27314e" stroke-width="1"/>
<text x="58" y="190.00" text-anchor="end" fill="#93a4c3" font-family="Inter, Arial, sans-serif" font-size="12">25</text>
<line x1="70" x2="935" y1="123.00" y2="123.00" stroke="#27314e" stroke-width="1"/>
<text x="58" y="127.00" text-anchor="end" fill="#93a4c3" font-family="Inter, Arial, sans-serif" font-size="12">33</text>
<line x1="70" x2="935" y1="60.00" y2="60.00" stroke="#27314e" stroke-width="1"/>
<text x="58" y="64.00" text-anchor="end" fill="#93a4c3" font-family="Inter, Arial, sans-serif" font-size="12">41</text>
<text x="70.00" y="412" text-anchor="middle" fill="#93a4c3" font-family="Inter, Arial, sans-serif" font-size="12">2025-11-04</text>
<text x="502.50" y="412" text-anchor="middle" fill="#93a4c3" font-family="Inter, Arial, sans-serif" font-size="12">2026-01-02</text>
<text x="935.00" y="412" text-anchor="middle" fill="#93a4c3" font-family="Inter, Arial, sans-serif" font-size="12">2026-03-02</text>
<path d="M 70.00 261.46 L 81.09 251.39 L 92.18 227.76 L 103.27 240.11 L 114.36 286.70 L 125.45 294.63 L 136.54 209.53 L 147.63 237.06 L 158.72 167.36 L 169.81 60.00 L 180.90 70.45 L 191.99 66.18 L 203.08 146.17 L 214.17 277.24 L 225.26 326.96 L 236.35 337.79 L 247.44 375.00 L 258.53 333.06 L 269.62 308.20 L 280.71 290.89 L 291.79 264.74 L 302.88 247.28 L 313.97 278.92 L 325.06 241.33 L 336.15 272.67 L 347.24 307.67 L 358.33 264.05 L 369.42 273.13 L 380.51 273.58 L 391.60 183.07 L 402.69 209.46 L 413.78 304.77 L 424.87 329.32 L 435.96 342.21 L 447.05 374.85 L 458.14 360.82 L 469.23 332.91 L 480.32 310.11 L 491.41 254.37 L 502.50 241.41 L 513.59 250.25 L 524.68 274.96 L 535.77 271.37 L 546.86 287.00 L 557.95 289.90 L 569.04 256.43 L 580.13 234.08 L 591.22 237.06 L 602.31 246.21 L 613.40 211.90 L 624.49 84.17 L 635.58 172.78 L 646.67 214.11 L 657.76 200.15 L 668.85 248.88 L 679.94 293.33 L 691.03 261.99 L 702.12 228.59 L 713.21 226.46 L 724.29 237.44 L 735.38 170.49 L 746.47 173.85 L 757.56 111.24 L 768.65 253.00 L 779.74 248.65 L 790.83 271.37 L 801.92 276.02 L 813.01 258.10 L 824.10 183.61 L 835.19 172.93 L 846.28 205.34 L 857.37 191.99 L 868.46 278.62 L 879.55 243.46 L 890.64 272.82 L 901.73 287.61 L 912.82 279.07 L 923.91 241.94 L 935.00 217.84" fill="none" stroke="#69a7ff" stroke-width="4" stroke-linecap="round" stroke-linejoin="round"/>
<circle cx="935.00" cy="217.84" r="6" fill="#69a7ff"/>
</svg>