<svg xmlns="http://www.w3.org/2000/svg" width="960" height="430" viewBox="0 0 960 430" role="img" aria-label="Composite score history">
<rect width="100%" height="100%" fill="#0b1020" rx="20"/>
<text x="70" y="32" fill="#f5f7fb" font-family="Inter, Arial, sans-serif" font-size="24" font-weight="700">Composite score history</text>
<text x="70" y="52" fill="#93a4c3" font-family="Inter, Arial, sans-serif" font-size="13">Trailing 88 sessions through 2026-03-02</text>
<line x1="70" x2="935" y1="375.00" y2="375.00" stroke="#27314e" stroke-width="1"/>
<text x="58" y="379.00" text-anchor="end" fill="#93a4c3" font-family="Inter, Arial, sans-serif" font-size="12">0</text>
<line x1="70" x2="935" y1="312.00" y2="312.00" stroke="#27314e" stroke-width="1"/>
<text x="58" y="316.00" text-anchor="end" fill="#93a4c3" font-family="Inter, Arial, sans-serif" font-size="12">8</text>
<line x1="70" x2="935" y1="249.00" y2="249.00" stroke="#27314e" stroke-width="1"/>
<text x="58" y="253.00" text-anchor="end" fill="#93a4c3" font-family="Inter, Arial, sans-serif" font-size="12">17</text>
<line x1="70" x2="935" y1="186.00" y2="186.00" stroke="#27314e" stroke-width="1"/>
<text x="58" y="190.00" text-anchor="end" fill="#93a4c3" font-family="Inter, Arial, sans-serif" font-size="12">25</text>
<line x1="70" x2="935" y1="123.00" y2="123.00" stroke="#27314e" stroke-width="1"/>
<text x="58" y="127.00" text-anchor="end" fill="#93a4c3" font-family="Inter, Arial, sans-serif" font-size="12">33</text>
<line x1="70" x2="935" y1="60.00" y2="60.00" stroke="#27314e" stroke-width="1"/>
<text x="58" y="64.00" text-anchor="end" fill="#93a4c3" font-family="Inter, Arial, sans-serif" font-size="12">41</text>
<text x="70.00" y="412" text-anchor="middle" fill="#93a4c3" font-family="Inter, Arial, sans-serif" font-size="12">2025-10-22</text>
<text x="507.47" y="412" text-anchor="middle" fill="#93a4c3" font-family="Inter, Arial, sans-serif" font-size="12">2025-12-26</text>
<text x="935.00" y="412" text-anchor="middle" fill="#93a4c3" font-family="Inter, Arial, sans-serif" font-size="12">2026-03-02</text>
<path d="M 70.00 277.24 L 79.94 235.61 L 89.89 266.11 L 99.83 308.13 L 109.77 317.43 L 119.71 266.80 L 129.66 256.12 L 139.60 236.53 L 149.54 192.98 L 159.48 135.80 L 169.43 183.68 L 179.37 184.67 L 189.31 190.93 L 199.25 255.59 L 209.20 294.63 L 219.14 209.53 L 229.08 237.06 L 239.02 167.36 L 248.97 60.00 L 258.91 70.45 L 268.85 66.18 L 278.79 146.17 L 288.74 277.24 L 298.68 326.96 L 308.62 337.79 L 318.56 375.00 L 328.51 333.06 L 338.45 308.20 L 348.39 290.89 L 358.33 264.74 L 368.28 247.28 L 378.22 278.92 L 388.16 241.33 L 398.10 272.67 L 408.05 307.67 L 417.99 264.05 L 427.93 273.13 L 437.87 273.58 L 447.82 183.07 L 457.76 209.46 L 467.70 304.77 L 477.64 329.32 L 487.59 342.21 L 497.53 374.85 L 507.47 360.82 L 517.41 332.91 L 527.36 310.11 L 537.30 254.37 L 547.24 241.41 L 557.18 250.25 L 567.13 274.96 L 577.07 271.37 L 587.01 287.00 L 596.95 289.90 L 606.90 256.43 L 616.84 234.08 L 626.78 237.06 L 636.72 246.21 L 646.67 211.90 L 656.61 84.17 L 666.55 172.78 L 676.49 214.11 L 686.44 200.15 L 696.38 248.88 L 706.32 293.33 L 716.26 261.99 L 726.21 228.59 L 736.15 226.46 L 746.09 237.44 L 756.03 170.49 L 765.98 173.85 L 775.92 111.24 L 785.86 253.00 L 795.80 248.65 L 805.75 271.37 L 815.69 276.02 L 825.63 258.10 L 835.57 183.61 L 845.52 172.93 L 855.46 205.34 L 865.40 191.99 L 875.34 278.62 L 885.29 243.46 L 895.23 272.82 L 905.17 287.61 L 915.11 279.07 L 925.06 241.94 L 935.00 217.84" fill="none" stroke="#69a7ff" stroke-width="4" stroke-linecap="round" stroke-linejoin="round"/>
<circle cx="935.00" cy="217.84" r="6" fill="#69a7ff"/>
</svg>