<svg xmlns="http://www.w3.org/2000/svg" width="960" height="430" viewBox="0 0 960 430" role="img" aria-label="Composite score history">
<rect width="100%" height="100%" fill="#0b1020" rx="20"/>
<text x="70" y="32" fill="#f5f7fb" font-family="Inter, Arial, sans-serif" font-size="24" font-weight="700">Composite score history</text>
<text x="70" y="52" fill="#93a4c3" font-family="Inter, Arial, sans-serif" font-size="13">Trailing 63 sessions through 2025-10-10</text>
<line x1="70" x2="935" y1="375.00" y2="375.00" stroke="#27314e" stroke-width="1"/>
<text x="58" y="379.00" text-anchor="end" fill="#93a4c3" font-family="Inter, Arial, sans-serif" font-size="12">2</text>
<line x1="70" x2="935" y1="312.00" y2="312.00" stroke="#27314e" stroke-width="1"/>
<text x="58" y="316.00" text-anchor="end" fill="#93a4c3" font-family="Inter, Arial, sans-serif" font-size="12">6</text>
<line x1="70" x2="935" y1="249.00" y2="249.00" stroke="#27314e" stroke-width="1"/>
<text x="58" y="253.00" text-anchor="end" fill="#93a4c3" font-family="Inter, Arial, sans-serif" font-size="12">11</text>
<line x1="70" x2="935" y1="186.00" y2="186.00" stroke="#27314e" stroke-width="1"/>
<text x="58" y="190.00" text-anchor="end" fill="#93a4c3" font-family="Inter, Arial, sans-serif" font-size="12">15</text>
<line x1="70" x2="935" y1="123.00" y2="123.00" stroke="#27314e" stroke-width="1"/>
<text x="58" y="127.00" text-anchor="end" fill="#93a4c3" font-family="Inter, Arial, sans-serif" font-size="12">20</text>
<line x1="70" x2="935" y1="60.00" y2="60.00" stroke="#27314e" stroke-width="1"/>
<text x="58" y="64.00" text-anchor="end" fill="#93a4c3" font-family="Inter, Arial, sans-serif" font-size="12">24</text>
<text x="70.00" y="412" text-anchor="middle" fill="#93a4c3" font-family="Inter, Arial, sans-serif" font-size="12">2025-07-15</text>
<text x="502.50" y="412" text-anchor="middle" fill="#93a4c3" font-family="Inter, Arial, sans-serif" font-size="12">2025-08-27</text>
<text x="935.00" y="412" text-anchor="middle" fill="#93a4c3" font-family="Inter, Arial, sans-serif" font-size="12">2025-10-10</text>
<path d="M 70.00 346.12 L 83.95 330.75 L 97.90 266.44 L 111.85 320.93 L 125.81 336.16 L 139.76 355.65 L 153.71 367.89 L 167.66 367.60 L 181.61 329.90 L 195.56 286.22 L 209.52 300.73 L 223.47 208.68 L 237.42 266.02 L 251.37 73.23 L 265.32 244.67 L 279.27 236.00 L 293.23 315.53 L 307.18 354.80 L 321.13 128.29 L 335.08 169.84 L 349.03 339.15 L 362.98 341.85 L 376.94 309.70 L 390.89 370.87 L 404.84 357.78 L 418.79 273.84 L 432.74 170.83 L 446.69 133.84 L 460.65 273.56 L 474.60 238.84 L 488.55 180.37 L 502.50 195.59 L 516.45 289.07 L 530.40 345.41 L 544.35 290.35 L 558.31 314.67 L 572.26 362.62 L 586.21 337.58 L 600.16 370.59 L 614.11 371.44 L 628.06 368.03 L 642.02 375.00 L 655.97 303.29 L 669.92 285.51 L 683.87 339.57 L 697.82 323.50 L 711.77 226.61 L 725.73 325.77 L 739.68 237.13 L 753.63 321.93 L 767.58 281.81 L 781.53 210.39 L 795.48 261.32 L 809.44 296.46 L 823.39 258.33 L 837.34 356.36 L 851.29 354.23 L 865.24 335.87 L 879.19 353.66 L 893.15 334.74 L 907.10 314.96 L 921.05 249.65 L 935.00 60.00" fill="none" stroke="#69a7ff" stroke-width="4" stroke-linecap="round" stroke-linejoin="round"/>
<circle cx="935.00" cy="60.00" r="6" fill="#69a7ff"/>
<text x="927.00" y="48.00" text-anchor="end" fill="#f5f7fb" font-family="Inter, Arial, sans-serif" font-size="12" font-weight="600">24.20</text>
</svg>