<svg xmlns="http://www.w3.org/2000/svg" width="960" height="430" viewBox="0 0 960 430" role="img" aria-label="Composite score history">
<rect width="100%" height="100%" fill="#0b1020" rx="20"/>
<text x="70" y="32" fill="#f5f7fb" font-family="Inter, Arial, sans-serif" font-size="24" font-weight="700">Composite score history</text>
<text x="70" y="52" fill="#93a4c3" font-family="Inter, Arial, sans-serif" font-size="13">Trailing 51 sessions through 2025-10-10</text>
<line x1="70" x2="935" y1="375.00" y2="375.00" stroke="#27314e" stroke-width="1"/>
<text x="58" y="379.00" text-anchor="end" fill="#93a4c3" font-family="Inter, Arial, sans-serif" font-size="12">8</text>
<line x1="70" x2="935" y1="312.00" y2="312.00" stroke="#27314e" stroke-width="1"/>
<text x="58" y="316.00" text-anchor="end" fill="#93a4c3" font-family="Inter, Arial, sans-serif" font-size="12">13</text>
<line x1="70" x2="935" y1="249.00" y2="249.00" stroke="#27314e" stroke-width="1"/>
<text x="58" y="253.00" text-anchor="end" fill="#93a4c3" font-family="Inter, Arial, sans-serif" font-size="12">18</text>
<line x1="70" x2="935" y1="186.00" y2="186.00" stroke="#27314e" stroke-width="1"/>
<text x="58" y="190.00" text-anchor="end" fill="#93a4c3" font-family="Inter, Arial, sans-serif" font-size="12">23</text>
<line x1="70" x2="935" y1="123.00" y2="123.00" stroke="#27314e" stroke-width="1"/>
<text x="58" y="127.00" text-anchor="end" fill="#93a4c3" font-family="Inter, Arial, sans-serif" font-size="12">28</text>
<line x1="70" x2="935" y1="60.00" y2="60.00" stroke="#27314e" stroke-width="1"/>
<text x="58" y="64.00" text-anchor="end" fill="#93a4c3" font-family="Inter, Arial, sans-serif" font-size="12">33</text>
<text x="70.00" y="412" text-anchor="middle" fill="#93a4c3" font-family="Inter, Arial, sans-serif" font-size="12">2025-07-31</text>
<text x="502.50" y="412" text-anchor="middle" fill="#93a4c3" font-family="Inter, Arial, sans-serif" font-size="12">2025-09-05</text>
<text x="935.00" y="412" text-anchor="middle" fill="#93a4c3" font-family="Inter, Arial, sans-serif" font-size="12">2025-10-10</text>
<path d="M 70.00 267.60 L 87.30 121.92 L 104.60 271.58 L 121.90 230.73 L 139.20 302.42 L 156.50 297.92 L 173.80 288.93 L 191.10 241.65 L 208.40 373.59 L 225.70 368.83 L 243.00 350.98 L 260.30 337.87 L 277.60 339.80 L 294.90 248.85 L 312.20 185.64 L 329.50 134.38 L 346.80 280.45 L 364.10 243.96 L 381.40 265.42 L 398.70 287.00 L 416.00 345.97 L 433.30 288.67 L 450.60 230.99 L 467.90 261.05 L 485.20 320.14 L 502.50 298.05 L 519.80 348.79 L 537.10 372.69 L 554.40 366.65 L 571.70 375.00 L 589.00 352.26 L 606.30 348.28 L 623.60 346.22 L 640.90 335.43 L 658.20 278.01 L 675.50 336.72 L 692.80 300.36 L 710.10 321.94 L 727.40 299.33 L 744.70 225.98 L 762.00 265.16 L 779.30 267.99 L 796.60 288.03 L 813.90 352.78 L 831.20 373.07 L 848.50 332.99 L 865.80 350.72 L 883.10 308.71 L 900.40 320.92 L 917.70 284.05 L 935.00 60.00" fill="none" stroke="#69a7ff" stroke-width="4" stroke-linecap="round" stroke-linejoin="round"/>
<circle cx="935.00" cy="60.00" r="6" fill="#69a7ff"/>
</svg>