<svg xmlns="http://www.w3.org/2000/svg" width="960" height="430" viewBox="0 0 960 430" role="img" aria-label="Composite score history">
<rect width="100%" height="100%" fill="#0b1020" rx="20"/>
<text x="70" y="32" fill="#f5f7fb" font-family="Inter, Arial, sans-serif" font-size="24" font-weight="700">Composite score history</text>
<text x="70" y="52" fill="#93a4c3" font-family="Inter, Arial, sans-serif" font-size="13">Trailing 54 sessions through 2025-10-10</text>
<line x1="70" x2="935" y1="375.00" y2="375.00" stroke="#27314e" stroke-width="1"/>
<text x="58" y="379.00" text-anchor="end" fill="#93a4c3" font-family="Inter, Arial, sans-serif" font-size="12">8</text>
<line x1="70" x2="935" y1="312.00" y2="312.00" stroke="#27314e" stroke-width="1"/>
<text x="58" y="316.00" text-anchor="end" fill="#93a4c3" font-family="Inter, Arial, sans-serif" font-size="12">13</text>
<line x1="70" x2="935" y1="249.00" y2="249.00" stroke="#27314e" stroke-width="1"/>
<text x="58" y="253.00" text-anchor="end" fill="#93a4c3" font-family="Inter, Arial, sans-serif" font-size="12">18</text>
<line x1="70" x2="935" y1="186.00" y2="186.00" stroke="#27314e" stroke-width="1"/>
<text x="58" y="190.00" text-anchor="end" fill="#93a4c3" font-family="Inter, Arial, sans-serif" font-size="12">24</text>
<line x1="70" x2="935" y1="123.00" y2="123.00" stroke="#27314e" stroke-width="1"/>
<text x="58" y="127.00" text-anchor="end" fill="#93a4c3" font-family="Inter, Arial, sans-serif" font-size="12">29</text>
<line x1="70" x2="935" y1="60.00" y2="60.00" stroke="#27314e" stroke-width="1"/>
<text x="58" y="64.00" text-anchor="end" fill="#93a4c3" font-family="Inter, Arial, sans-serif" font-size="12">34</text>
<text x="70.00" y="412" text-anchor="middle" fill="#93a4c3" font-family="Inter, Arial, sans-serif" font-size="12">2025-07-28</text>
<text x="510.66" y="412" text-anchor="middle" fill="#93a4c3" font-family="Inter, Arial, sans-serif" font-size="12">2025-09-04</text>
<text x="935.00" y="412" text-anchor="middle" fill="#93a4c3" font-family="Inter, Arial, sans-serif" font-size="12">2025-10-10</text>
<path d="M 70.00 287.15 L 86.32 244.47 L 102.64 225.57 L 118.96 186.15 L 135.28 60.00 L 151.60 205.17 L 167.92 195.04 L 184.25 269.37 L 200.57 299.91 L 216.89 291.15 L 233.21 245.10 L 249.53 373.62 L 265.85 368.99 L 282.17 351.60 L 298.49 338.83 L 314.81 340.71 L 331.13 252.10 L 347.45 190.53 L 363.77 140.60 L 380.09 282.89 L 396.42 247.35 L 412.74 268.25 L 429.06 289.27 L 445.38 346.72 L 461.70 290.90 L 478.02 234.71 L 494.34 263.99 L 510.66 321.56 L 526.98 300.04 L 543.30 349.47 L 559.62 372.75 L 575.94 366.87 L 592.26 375.00 L 608.58 352.85 L 624.91 348.97 L 641.23 346.97 L 657.55 336.45 L 673.87 280.51 L 690.19 337.71 L 706.51 302.29 L 722.83 323.31 L 739.15 301.29 L 755.47 229.83 L 771.79 268.00 L 788.11 270.75 L 804.43 290.27 L 820.75 353.35 L 837.08 373.12 L 853.40 334.08 L 869.72 351.35 L 886.04 310.42 L 902.36 322.31 L 918.68 286.39 L 935.00 68.13" fill="none" stroke="#69a7ff" stroke-width="4" stroke-linecap="round" stroke-linejoin="round"/>
<circle cx="935.00" cy="68.13" r="6" fill="#69a7ff"/>
</svg>