<svg xmlns="http://www.w3.org/2000/svg" width="960" height="430" viewBox="0 0 960 430" role="img" aria-label="Composite score history">
<rect width="100%" height="100%" fill="#0b1020" rx="20"/>
<text x="70" y="32" fill="#f5f7fb" font-family="Inter, Arial, sans-serif" font-size="24" font-weight="700">Composite score history</text>
<text x="70" y="52" fill="#93a4c3" font-family="Inter, Arial, sans-serif" font-size="13">Trailing 53 sessions through 2025-10-10</text>
<line x1="70" x2="935" y1="375.00" y2="375.00" stroke="#27314e" stroke-width="1"/>
<text x="58" y="379.00" text-anchor="end" fill="#93a4c3" font-family="Inter, Arial, sans-serif" font-size="12">8</text>
<line x1="70" x2="935" y1="312.00" y2="312.00" stroke="#27314e" stroke-width="1"/>
<text x="58" y="316.00" text-anchor="end" fill="#93a4c3" font-family="Inter, Arial, sans-serif" font-size="12">13</text>
<line x1="70" x2="935" y1="249.00" y2="249.00" stroke="#27314e" stroke-width="1"/>
<text x="58" y="253.00" text-anchor="end" fill="#93a4c3" font-family="Inter, Arial, sans-serif" font-size="12">18</text>
<line x1="70" x2="935" y1="186.00" y2="186.00" stroke="#27314e" stroke-width="1"/>
<text x="58" y="190.00" text-anchor="end" fill="#93a4c3" font-family="Inter, Arial, sans-serif" font-size="12">23</text>
<line x1="70" x2="935" y1="123.00" y2="123.00" stroke="#27314e" stroke-width="1"/>
<text x="58" y="127.00" text-anchor="end" fill="#93a4c3" font-family="Inter, Arial, sans-serif" font-size="12">28</text>
<line x1="70" x2="935" y1="60.00" y2="60.00" stroke="#27314e" stroke-width="1"/>
<text x="58" y="64.00" text-anchor="end" fill="#93a4c3" font-family="Inter, Arial, sans-serif" font-size="12">33</text>
<text x="70.00" y="412" text-anchor="middle" fill="#93a4c3" font-family="Inter, Arial, sans-serif" font-size="12">2025-07-29</text>
<text x="502.50" y="412" text-anchor="middle" fill="#93a4c3" font-family="Inter, Arial, sans-serif" font-size="12">2025-09-04</text>
<text x="935.00" y="412" text-anchor="middle" fill="#93a4c3" font-family="Inter, Arial, sans-serif" font-size="12">2025-10-10</text>
<path d="M 70.00 277.88 L 86.63 226.75 L 103.27 185.90 L 119.90 81.71 L 136.54 230.99 L 153.17 190.27 L 169.81 266.57 L 186.44 297.92 L 203.08 288.93 L 219.71 241.65 L 236.35 373.59 L 252.98 368.83 L 269.62 350.98 L 286.25 337.87 L 302.88 339.80 L 319.52 248.85 L 336.15 185.64 L 352.79 134.38 L 369.42 280.45 L 386.06 243.96 L 402.69 265.42 L 419.33 287.00 L 435.96 345.97 L 452.60 288.67 L 469.23 230.99 L 485.87 261.05 L 502.50 320.14 L 519.13 298.05 L 535.77 348.79 L 552.40 372.69 L 569.04 366.65 L 585.67 375.00 L 602.31 352.26 L 618.94 348.28 L 635.58 346.22 L 652.21 335.43 L 668.85 278.01 L 685.48 336.72 L 702.12 300.36 L 718.75 321.94 L 735.38 299.33 L 752.02 225.98 L 768.65 265.16 L 785.29 267.99 L 801.92 288.03 L 818.56 352.78 L 835.19 373.07 L 851.83 332.99 L 868.46 350.72 L 885.10 308.71 L 901.73 320.92 L 918.37 284.05 L 935.00 60.00" fill="none" stroke="#69a7ff" stroke-width="4" stroke-linecap="round" stroke-linejoin="round"/>
<circle cx="935.00" cy="60.00" r="6" fill="#69a7ff"/>
</svg>