<svg xmlns="http://www.w3.org/2000/svg" width="960" height="430" viewBox="0 0 960 430" role="img" aria-label="Composite score history">
<rect width="100%" height="100%" fill="#0b1020" rx="20"/>
<text x="70" y="32" fill="#f5f7fb" font-family="Inter, Arial, sans-serif" font-size="24" font-weight="700">Composite score history</text>
<text x="70" y="52" fill="#93a4c3" font-family="Inter, Arial, sans-serif" font-size="13">Trailing 49 sessions through 2025-10-02</text>
<line x1="70" x2="935" y1="375.00" y2="375.00" stroke="#27314e" stroke-width="1"/>
<text x="58" y="379.00" text-anchor="end" fill="#93a4c3" font-family="Inter, Arial, sans-serif" font-size="12">8</text>
<line x1="70" x2="935" y1="312.00" y2="312.00" stroke="#27314e" stroke-width="1"/>
<text x="58" y="316.00" text-anchor="end" fill="#93a4c3" font-family="Inter, Arial, sans-serif" font-size="12">13</text>
<line x1="70" x2="935" y1="249.00" y2="249.00" stroke="#27314e" stroke-width="1"/>
<text x="58" y="253.00" text-anchor="end" fill="#93a4c3" font-family="Inter, Arial, sans-serif" font-size="12">18</text>
<line x1="70" x2="935" y1="186.00" y2="186.00" stroke="#27314e" stroke-width="1"/>
<text x="58" y="190.00" text-anchor="end" fill="#93a4c3" font-family="Inter, Arial, sans-serif" font-size="12">24</text>
<line x1="70" x2="935" y1="123.00" y2="123.00" stroke="#27314e" stroke-width="1"/>
<text x="58" y="127.00" text-anchor="end" fill="#93a4c3" font-family="Inter, Arial, sans-serif" font-size="12">29</text>
<line x1="70" x2="935" y1="60.00" y2="60.00" stroke="#27314e" stroke-width="1"/>
<text x="58" y="64.00" text-anchor="end" fill="#93a4c3" font-family="Inter, Arial, sans-serif" font-size="12">34</text>
<text x="70.00" y="412" text-anchor="middle" fill="#93a4c3" font-family="Inter, Arial, sans-serif" font-size="12">2025-07-25</text>
<text x="502.50" y="412" text-anchor="middle" fill="#93a4c3" font-family="Inter, Arial, sans-serif" font-size="12">2025-08-28</text>
<text x="935.00" y="412" text-anchor="middle" fill="#93a4c3" font-family="Inter, Arial, sans-serif" font-size="12">2025-10-02</text>
<path d="M 70.00 288.06 L 88.02 286.55 L 106.04 244.40 L 124.06 225.51 L 142.08 186.23 L 160.10 60.00 L 178.12 205.24 L 196.15 195.11 L 214.17 269.42 L 232.19 299.94 L 250.21 291.18 L 268.23 245.15 L 286.25 373.62 L 304.27 369.00 L 322.29 351.61 L 340.31 338.85 L 358.33 340.72 L 376.35 252.15 L 394.38 190.60 L 412.40 140.69 L 430.42 282.93 L 448.44 247.40 L 466.46 268.29 L 484.48 289.31 L 502.50 346.73 L 520.52 290.93 L 538.54 234.76 L 556.56 264.04 L 574.58 321.58 L 592.60 300.07 L 610.62 349.48 L 628.65 372.75 L 646.67 366.87 L 664.69 375.00 L 682.71 352.86 L 700.73 348.98 L 718.75 346.98 L 736.77 336.47 L 754.79 280.55 L 772.81 337.72 L 790.83 302.32 L 808.85 323.33 L 826.88 301.32 L 844.90 229.88 L 862.92 268.04 L 880.94 270.79 L 898.96 290.31 L 916.98 353.36 L 935.00 373.12" fill="none" stroke="#69a7ff" stroke-width="4" stroke-linecap="round" stroke-linejoin="round"/>
<circle cx="935.00" cy="373.12" r="6" fill="#69a7ff"/>
</svg>