<svg xmlns="http://www.w3.org/2000/svg" width="960" height="430" viewBox="0 0 960 430" role="img" aria-label="Composite score history">
<rect width="100%" height="100%" fill="#0b1020" rx="20"/>
<text x="70" y="32" fill="#f5f7fb" font-family="Inter, Arial, sans-serif" font-size="24" font-weight="700">Composite score history</text>
<text x="70" y="52" fill="#93a4c3" font-family="Inter, Arial, sans-serif" font-size="13">Trailing 57 sessions through 2025-10-02</text>
<line x1="70" x2="935" y1="375.00" y2="375.00" stroke="#27314e" stroke-width="1"/>
<text x="58" y="379.00" text-anchor="end" fill="#93a4c3" font-family="Inter, Arial, sans-serif" font-size="12">2</text>
<line x1="70" x2="935" y1="312.00" y2="312.00" stroke="#27314e" stroke-width="1"/>
<text x="58" y="316.00" text-anchor="end" fill="#93a4c3" font-family="Inter, Arial, sans-serif" font-size="12">6</text>
<line x1="70" x2="935" y1="249.00" y2="249.00" stroke="#27314e" stroke-width="1"/>
<text x="58" y="253.00" text-anchor="end" fill="#93a4c3" font-family="Inter, Arial, sans-serif" font-size="12">11</text>
<line x1="70" x2="935" y1="186.00" y2="186.00" stroke="#27314e" stroke-width="1"/>
<text x="58" y="190.00" text-anchor="end" fill="#93a4c3" font-family="Inter, Arial, sans-serif" font-size="12">15</text>
<line x1="70" x2="935" y1="123.00" y2="123.00" stroke="#27314e" stroke-width="1"/>
<text x="58" y="127.00" text-anchor="end" fill="#93a4c3" font-family="Inter, Arial, sans-serif" font-size="12">19</text>
<line x1="70" x2="935" y1="60.00" y2="60.00" stroke="#27314e" stroke-width="1"/>
<text x="58" y="64.00" text-anchor="end" fill="#93a4c3" font-family="Inter, Arial, sans-serif" font-size="12">23</text>
<text x="70.00" y="412" text-anchor="middle" fill="#93a4c3" font-family="Inter, Arial, sans-serif" font-size="12">2025-07-15</text>
<text x="502.50" y="412" text-anchor="middle" fill="#93a4c3" font-family="Inter, Arial, sans-serif" font-size="12">2025-08-22</text>
<text x="935.00" y="412" text-anchor="middle" fill="#93a4c3" font-family="Inter, Arial, sans-serif" font-size="12">2025-10-02</text>
<path d="M 70.00 344.85 L 85.45 328.81 L 100.89 261.68 L 116.34 318.56 L 131.79 334.46 L 147.23 354.80 L 162.68 367.57 L 178.12 367.28 L 193.57 327.92 L 209.02 282.33 L 224.46 297.48 L 239.91 201.39 L 255.36 261.24 L 270.80 60.00 L 286.25 238.96 L 301.70 229.90 L 317.14 312.92 L 332.59 353.91 L 348.04 117.48 L 363.48 160.84 L 378.93 337.57 L 394.38 340.40 L 409.82 306.83 L 425.27 370.69 L 440.71 357.03 L 456.16 269.41 L 471.61 161.88 L 487.05 123.27 L 502.50 269.11 L 517.95 232.87 L 533.39 171.83 L 548.84 187.72 L 564.29 285.30 L 579.73 344.11 L 595.18 286.63 L 610.62 312.03 L 626.07 362.08 L 641.52 335.94 L 656.96 370.40 L 672.41 371.29 L 687.86 367.72 L 703.30 375.00 L 718.75 300.15 L 734.20 281.58 L 749.64 338.02 L 765.09 321.24 L 780.54 220.10 L 795.98 323.61 L 811.43 231.09 L 826.88 319.60 L 842.32 277.72 L 857.77 203.17 L 873.21 256.34 L 888.66 293.02 L 904.11 253.22 L 919.55 355.54 L 935.00 353.32" fill="none" stroke="#69a7ff" stroke-width="4" stroke-linecap="round" stroke-linejoin="round"/>
<circle cx="935.00" cy="353.32" r="6" fill="#69a7ff"/>
<text x="927.00" y="341.32" text-anchor="end" fill="#f5f7fb" font-family="Inter, Arial, sans-serif" font-size="12" font-weight="600">3.52</text>
</svg>