<svg xmlns="http://www.w3.org/2000/svg" width="960" height="430" viewBox="0 0 960 430" role="img" aria-label="Composite score history">
<rect width="100%" height="100%" fill="#0b1020" rx="20"/>
<text x="70" y="32" fill="#f5f7fb" font-family="Inter, Arial, sans-serif" font-size="24" font-weight="700">Composite score history</text>
<text x="70" y="52" fill="#93a4c3" font-family="Inter, Arial, sans-serif" font-size="13">Trailing 42 sessions through 2025-10-02</text>
<line x1="70" x2="935" y1="375.00" y2="375.00" stroke="#27314e" stroke-width="1"/>
<text x="58" y="379.00" text-anchor="end" fill="#93a4c3" font-family="Inter, Arial, sans-serif" font-size="12">8</text>
<line x1="70" x2="935" y1="312.00" y2="312.00" stroke="#27314e" stroke-width="1"/>
<text x="58" y="316.00" text-anchor="end" fill="#93a4c3" font-family="Inter, Arial, sans-serif" font-size="12">12</text>
<line x1="70" x2="935" y1="249.00" y2="249.00" stroke="#27314e" stroke-width="1"/>
<text x="58" y="253.00" text-anchor="end" fill="#93a4c3" font-family="Inter, Arial, sans-serif" font-size="12">16</text>
<line x1="70" x2="935" y1="186.00" y2="186.00" stroke="#27314e" stroke-width="1"/>
<text x="58" y="190.00" text-anchor="end" fill="#93a4c3" font-family="Inter, Arial, sans-serif" font-size="12">20</text>
<line x1="70" x2="935" y1="123.00" y2="123.00" stroke="#27314e" stroke-width="1"/>
<text x="58" y="127.00" text-anchor="end" fill="#93a4c3" font-family="Inter, Arial, sans-serif" font-size="12">23</text>
<line x1="70" x2="935" y1="60.00" y2="60.00" stroke="#27314e" stroke-width="1"/>
<text x="58" y="64.00" text-anchor="end" fill="#93a4c3" font-family="Inter, Arial, sans-serif" font-size="12">27</text>
<text x="70.00" y="412" text-anchor="middle" fill="#93a4c3" font-family="Inter, Arial, sans-serif" font-size="12">2025-08-05</text>
<text x="513.05" y="412" text-anchor="middle" fill="#93a4c3" font-family="Inter, Arial, sans-serif" font-size="12">2025-09-04</text>
<text x="935.00" y="412" text-anchor="middle" fill="#93a4c3" font-family="Inter, Arial, sans-serif" font-size="12">2025-10-02</text>
<path d="M 70.00 257.27 L 91.10 307.56 L 112.20 300.83 L 133.29 266.02 L 154.39 241.30 L 175.49 373.15 L 196.59 366.93 L 217.68 343.55 L 238.78 326.40 L 259.88 328.92 L 280.98 209.85 L 302.07 127.10 L 323.17 60.00 L 344.27 251.22 L 365.37 203.46 L 386.46 231.54 L 407.56 259.80 L 428.66 336.99 L 449.76 261.98 L 470.85 186.47 L 491.95 225.82 L 513.05 303.19 L 534.15 274.26 L 555.24 340.69 L 576.34 371.97 L 597.44 364.07 L 618.54 375.00 L 639.63 345.23 L 660.73 340.02 L 681.83 337.33 L 702.93 323.20 L 724.02 248.02 L 745.12 324.88 L 766.22 277.29 L 787.32 305.54 L 808.41 275.94 L 829.51 179.91 L 850.61 231.21 L 871.71 234.91 L 892.80 261.14 L 913.90 345.90 L 935.00 372.48" fill="none" stroke="#69a7ff" stroke-width="4" stroke-linecap="round" stroke-linejoin="round"/>
<circle cx="935.00" cy="372.48" r="6" fill="#69a7ff"/>
</svg>