<svg xmlns="http://www.w3.org/2000/svg" width="960" height="430" viewBox="0 0 960 430" role="img" aria-label="Composite score history">
<rect width="100%" height="100%" fill="#0b1020" rx="20"/>
<text x="70" y="32" fill="#f5f7fb" font-family="Inter, Arial, sans-serif" font-size="24" font-weight="700">Composite score history</text>
<text x="70" y="52" fill="#93a4c3" font-family="Inter, Arial, sans-serif" font-size="13">Trailing 55 sessions through 2025-10-02</text>
<line x1="70" x2="935" y1="375.00" y2="375.00" stroke="#27314e" stroke-width="1"/>
<text x="58" y="379.00" text-anchor="end" fill="#93a4c3" font-family="Inter, Arial, sans-serif" font-size="12">12</text>
<line x1="70" x2="935" y1="312.00" y2="312.00" stroke="#27314e" stroke-width="1"/>
<text x="58" y="316.00" text-anchor="end" fill="#93a4c3" font-family="Inter, Arial, sans-serif" font-size="12">16</text>
<line x1="70" x2="935" y1="249.00" y2="249.00" stroke="#27314e" stroke-width="1"/>
<text x="58" y="253.00" text-anchor="end" fill="#93a4c3" font-family="Inter, Arial, sans-serif" font-size="12">20</text>
<line x1="70" x2="935" y1="186.00" y2="186.00" stroke="#27314e" stroke-width="1"/>
<text x="58" y="190.00" text-anchor="end" fill="#93a4c3" font-family="Inter, Arial, sans-serif" font-size="12">25</text>
<line x1="70" x2="935" y1="123.00" y2="123.00" stroke="#27314e" stroke-width="1"/>
<text x="58" y="127.00" text-anchor="end" fill="#93a4c3" font-family="Inter, Arial, sans-serif" font-size="12">29</text>
<line x1="70" x2="935" y1="60.00" y2="60.00" stroke="#27314e" stroke-width="1"/>
<text x="58" y="64.00" text-anchor="end" fill="#93a4c3" font-family="Inter, Arial, sans-serif" font-size="12">34</text>
<text x="70.00" y="412" text-anchor="middle" fill="#93a4c3" font-family="Inter, Arial, sans-serif" font-size="12">2025-07-17</text>
<text x="502.50" y="412" text-anchor="middle" fill="#93a4c3" font-family="Inter, Arial, sans-serif" font-size="12">2025-08-25</text>
<text x="935.00" y="412" text-anchor="middle" fill="#93a4c3" font-family="Inter, Arial, sans-serif" font-size="12">2025-10-02</text>
<path d="M 70.00 291.83 L 86.02 301.75 L 102.04 303.05 L 118.06 312.69 L 134.07 326.79 L 150.09 310.68 L 166.11 304.92 L 182.13 286.64 L 198.15 288.95 L 214.17 246.35 L 230.19 239.59 L 246.20 60.00 L 262.22 226.93 L 278.24 215.27 L 294.26 300.75 L 310.28 335.43 L 326.30 238.58 L 342.31 248.08 L 358.33 336.87 L 374.35 346.51 L 390.37 322.33 L 406.39 346.65 L 422.41 340.03 L 438.43 280.89 L 454.44 210.09 L 470.46 152.67 L 486.48 306.79 L 502.50 275.42 L 518.52 268.80 L 534.54 275.42 L 550.56 315.28 L 566.57 325.50 L 582.59 260.89 L 598.61 294.56 L 614.63 349.39 L 630.65 336.00 L 646.67 373.42 L 662.69 365.21 L 678.70 366.08 L 694.72 375.00 L 710.74 339.74 L 726.76 325.79 L 742.78 338.02 L 758.80 340.18 L 774.81 289.23 L 790.83 335.57 L 806.85 296.00 L 822.87 335.57 L 838.89 317.01 L 854.91 255.27 L 870.93 299.16 L 886.94 302.33 L 902.96 307.65 L 918.98 357.73 L 935.00 359.75" fill="none" stroke="#69a7ff" stroke-width="4" stroke-linecap="round" stroke-linejoin="round"/>
<circle cx="935.00" cy="359.75" r="6" fill="#69a7ff"/>
<text x="927.00" y="347.75" text-anchor="end" fill="#f5f7fb" font-family="Inter, Arial, sans-serif" font-size="12" font-weight="600">12.74</text>
</svg>