<svg xmlns="http://www.w3.org/2000/svg" width="960" height="430" viewBox="0 0 960 430" role="img" aria-label="Composite score history">
<rect width="100%" height="100%" fill="#0b1020" rx="20"/>
<text x="70" y="32" fill="#f5f7fb" font-family="Inter, Arial, sans-serif" font-size="24" font-weight="700">Composite score history</text>
<text x="70" y="52" fill="#93a4c3" font-family="Inter, Arial, sans-serif" font-size="13">Trailing 63 sessions through 2025-11-06</text>
<line x1="70" x2="935" y1="375.00" y2="375.00" stroke="#27314e" stroke-width="1"/>
<text x="58" y="379.00" text-anchor="end" fill="#93a4c3" font-family="Inter, Arial, sans-serif" font-size="12">5</text>
<line x1="70" x2="935" y1="312.00" y2="312.00" stroke="#27314e" stroke-width="1"/>
<text x="58" y="316.00" text-anchor="end" fill="#93a4c3" font-family="Inter, Arial, sans-serif" font-size="12">11</text>
<line x1="70" x2="935" y1="249.00" y2="249.00" stroke="#27314e" stroke-width="1"/>
<text x="58" y="253.00" text-anchor="end" fill="#93a4c3" font-family="Inter, Arial, sans-serif" font-size="12">17</text>
<line x1="70" x2="935" y1="186.00" y2="186.00" stroke="#27314e" stroke-width="1"/>
<text x="58" y="190.00" text-anchor="end" fill="#93a4c3" font-family="Inter, Arial, sans-serif" font-size="12">23</text>
<line x1="70" x2="935" y1="123.00" y2="123.00" stroke="#27314e" stroke-width="1"/>
<text x="58" y="127.00" text-anchor="end" fill="#93a4c3" font-family="Inter, Arial, sans-serif" font-size="12">29</text>
<line x1="70" x2="935" y1="60.00" y2="60.00" stroke="#27314e" stroke-width="1"/>
<text x="58" y="64.00" text-anchor="end" fill="#93a4c3" font-family="Inter, Arial, sans-serif" font-size="12">35</text>
<text x="70.00" y="412" text-anchor="middle" fill="#93a4c3" font-family="Inter, Arial, sans-serif" font-size="12">2025-08-08</text>
<text x="502.50" y="412" text-anchor="middle" fill="#93a4c3" font-family="Inter, Arial, sans-serif" font-size="12">2025-09-23</text>
<text x="935.00" y="412" text-anchor="middle" fill="#93a4c3" font-family="Inter, Arial, sans-serif" font-size="12">2025-11-06</text>
<path d="M 70.00 276.51 L 83.95 243.68 L 97.90 310.82 L 111.85 326.44 L 125.81 318.00 L 139.76 309.02 L 153.71 310.61 L 167.66 235.87 L 181.61 183.93 L 195.56 141.81 L 209.52 261.84 L 223.47 231.86 L 237.42 249.49 L 251.37 267.22 L 265.32 315.67 L 279.27 268.59 L 293.23 221.19 L 307.18 245.90 L 321.13 294.46 L 335.08 276.30 L 349.03 318.00 L 362.98 337.63 L 376.94 332.67 L 390.89 339.53 L 404.84 320.85 L 418.79 317.57 L 432.74 315.88 L 446.69 307.02 L 460.65 259.83 L 474.60 308.07 L 488.55 278.20 L 502.50 295.93 L 516.45 277.35 L 530.40 217.08 L 544.35 249.27 L 558.31 251.60 L 572.26 268.06 L 586.21 321.27 L 600.16 337.95 L 614.11 305.01 L 628.06 319.58 L 642.02 285.06 L 655.97 295.09 L 669.92 264.79 L 683.87 80.69 L 697.82 152.37 L 711.77 203.46 L 725.73 60.00 L 739.68 180.66 L 753.63 375.00 L 767.58 338.05 L 781.53 304.06 L 795.48 230.70 L 809.44 279.99 L 823.39 304.27 L 837.34 323.49 L 851.29 278.41 L 865.24 263.63 L 879.19 236.50 L 893.15 176.22 L 907.10 97.05 L 921.05 163.35 L 935.00 164.72" fill="none" stroke="#69a7ff" stroke-width="4" stroke-linecap="round" stroke-linejoin="round"/>
<circle cx="935.00" cy="164.72" r="6" fill="#69a7ff"/>
</svg>