<svg xmlns="http://www.w3.org/2000/svg" width="960" height="430" viewBox="0 0 960 430" role="img" aria-label="Composite score history">
<rect width="100%" height="100%" fill="#0b1020" rx="20"/>
<text x="70" y="32" fill="#f5f7fb" font-family="Inter, Arial, sans-serif" font-size="24" font-weight="700">Composite score history</text>
<text x="70" y="52" fill="#93a4c3" font-family="Inter, Arial, sans-serif" font-size="13">Trailing 75 sessions through 2025-11-06</text>
<line x1="70" x2="935" y1="375.00" y2="375.00" stroke="#27314e" stroke-width="1"/>
<text x="58" y="379.00" text-anchor="end" fill="#93a4c3" font-family="Inter, Arial, sans-serif" font-size="12">5</text>
<line x1="70" x2="935" y1="312.00" y2="312.00" stroke="#27314e" stroke-width="1"/>
<text x="58" y="316.00" text-anchor="end" fill="#93a4c3" font-family="Inter, Arial, sans-serif" font-size="12">11</text>
<line x1="70" x2="935" y1="249.00" y2="249.00" stroke="#27314e" stroke-width="1"/>
<text x="58" y="253.00" text-anchor="end" fill="#93a4c3" font-family="Inter, Arial, sans-serif" font-size="12">17</text>
<line x1="70" x2="935" y1="186.00" y2="186.00" stroke="#27314e" stroke-width="1"/>
<text x="58" y="190.00" text-anchor="end" fill="#93a4c3" font-family="Inter, Arial, sans-serif" font-size="12">23</text>
<line x1="70" x2="935" y1="123.00" y2="123.00" stroke="#27314e" stroke-width="1"/>
<text x="58" y="127.00" text-anchor="end" fill="#93a4c3" font-family="Inter, Arial, sans-serif" font-size="12">29</text>
<line x1="70" x2="935" y1="60.00" y2="60.00" stroke="#27314e" stroke-width="1"/>
<text x="58" y="64.00" text-anchor="end" fill="#93a4c3" font-family="Inter, Arial, sans-serif" font-size="12">35</text>
<text x="70.00" y="412" text-anchor="middle" fill="#93a4c3" font-family="Inter, Arial, sans-serif" font-size="12">2025-07-23</text>
<text x="502.50" y="412" text-anchor="middle" fill="#93a4c3" font-family="Inter, Arial, sans-serif" font-size="12">2025-09-15</text>
<text x="935.00" y="412" text-anchor="middle" fill="#93a4c3" font-family="Inter, Arial, sans-serif" font-size="12">2025-11-06</text>
<path d="M 70.00 269.54 L 81.69 215.07 L 93.38 250.01 L 105.07 249.70 L 116.76 237.56 L 128.45 212.22 L 140.14 205.57 L 151.82 73.72 L 163.51 196.28 L 175.20 187.73 L 186.89 250.44 L 198.58 276.19 L 210.27 268.80 L 221.96 229.96 L 233.65 338.37 L 245.34 334.46 L 257.03 319.79 L 268.72 309.02 L 280.41 310.61 L 292.09 235.87 L 303.78 183.93 L 315.47 141.81 L 327.16 261.84 L 338.85 231.86 L 350.54 249.49 L 362.23 267.22 L 373.92 315.67 L 385.61 268.59 L 397.30 221.19 L 408.99 245.90 L 420.68 294.46 L 432.36 276.30 L 444.05 318.00 L 455.74 337.63 L 467.43 332.67 L 479.12 339.53 L 490.81 320.85 L 502.50 317.57 L 514.19 315.88 L 525.88 307.02 L 537.57 259.83 L 549.26 308.07 L 560.95 278.20 L 572.64 295.93 L 584.32 277.35 L 596.01 217.08 L 607.70 249.27 L 619.39 251.60 L 631.08 268.06 L 642.77 321.27 L 654.46 337.95 L 666.15 305.01 L 677.84 319.58 L 689.53 285.06 L 701.22 295.09 L 712.91 264.79 L 724.59 80.69 L 736.28 152.37 L 747.97 203.46 L 759.66 60.00 L 771.35 180.66 L 783.04 375.00 L 794.73 338.05 L 806.42 304.06 L 818.11 230.70 L 829.80 279.99 L 841.49 304.27 L 853.18 323.49 L 864.86 278.41 L 876.55 263.63 L 888.24 236.50 L 899.93 176.22 L 911.62 97.05 L 923.31 163.35 L 935.00 164.72" fill="none" stroke="#69a7ff" stroke-width="4" stroke-linecap="round" stroke-linejoin="round"/>
<circle cx="935.00" cy="164.72" r="6" fill="#69a7ff"/>
</svg>