<svg xmlns="http://www.w3.org/2000/svg" width="960" height="430" viewBox="0 0 960 430" role="img" aria-label="Composite score history">
<rect width="100%" height="100%" fill="#0b1020" rx="20"/>
<text x="70" y="32" fill="#f5f7fb" font-family="Inter, Arial, sans-serif" font-size="24" font-weight="700">Composite score history</text>
<text x="70" y="52" fill="#93a4c3" font-family="Inter, Arial, sans-serif" font-size="13">Trailing 81 sessions through 2025-11-06</text>
<line x1="70" x2="935" y1="375.00" y2="375.00" stroke="#27314e" stroke-width="1"/>
<text x="58" y="379.00" text-anchor="end" fill="#93a4c3" font-family="Inter, Arial, sans-serif" font-size="12">2</text>
<line x1="70" x2="935" y1="312.00" y2="312.00" stroke="#27314e" stroke-width="1"/>
<text x="58" y="316.00" text-anchor="end" fill="#93a4c3" font-family="Inter, Arial, sans-serif" font-size="12">8</text>
<line x1="70" x2="935" y1="249.00" y2="249.00" stroke="#27314e" stroke-width="1"/>
<text x="58" y="253.00" text-anchor="end" fill="#93a4c3" font-family="Inter, Arial, sans-serif" font-size="12">13</text>
<line x1="70" x2="935" y1="186.00" y2="186.00" stroke="#27314e" stroke-width="1"/>
<text x="58" y="190.00" text-anchor="end" fill="#93a4c3" font-family="Inter, Arial, sans-serif" font-size="12">19</text>
<line x1="70" x2="935" y1="123.00" y2="123.00" stroke="#27314e" stroke-width="1"/>
<text x="58" y="127.00" text-anchor="end" fill="#93a4c3" font-family="Inter, Arial, sans-serif" font-size="12">24</text>
<line x1="70" x2="935" y1="60.00" y2="60.00" stroke="#27314e" stroke-width="1"/>
<text x="58" y="64.00" text-anchor="end" fill="#93a4c3" font-family="Inter, Arial, sans-serif" font-size="12">30</text>
<text x="70.00" y="412" text-anchor="middle" fill="#93a4c3" font-family="Inter, Arial, sans-serif" font-size="12">2025-07-15</text>
<text x="502.50" y="412" text-anchor="middle" fill="#93a4c3" font-family="Inter, Arial, sans-serif" font-size="12">2025-09-10</text>
<text x="935.00" y="412" text-anchor="middle" fill="#93a4c3" font-family="Inter, Arial, sans-serif" font-size="12">2025-11-06</text>
<path d="M 70.00 352.04 L 80.81 339.82 L 91.62 288.70 L 102.44 332.02 L 113.25 344.12 L 124.06 359.62 L 134.88 369.34 L 145.69 369.12 L 156.50 339.15 L 167.31 304.42 L 178.12 315.96 L 188.94 242.78 L 199.75 288.36 L 210.56 135.10 L 221.38 271.39 L 232.19 264.50 L 243.00 327.72 L 253.81 358.94 L 264.62 178.87 L 275.44 211.90 L 286.25 346.50 L 297.06 348.65 L 307.88 323.08 L 318.69 371.72 L 329.50 361.31 L 340.31 294.58 L 351.12 212.69 L 361.94 183.29 L 372.75 294.36 L 383.56 266.76 L 394.38 220.27 L 405.19 232.37 L 416.00 306.68 L 426.81 351.47 L 437.62 307.70 L 448.44 327.04 L 459.25 365.16 L 470.06 345.25 L 480.88 371.49 L 491.69 372.17 L 502.50 369.46 L 513.31 375.00 L 524.12 317.99 L 534.94 303.86 L 545.75 346.84 L 556.56 334.06 L 567.38 257.03 L 578.19 335.87 L 589.00 265.40 L 599.81 332.81 L 610.62 300.92 L 621.44 244.14 L 632.25 284.63 L 643.06 312.57 L 653.88 282.25 L 664.69 360.18 L 675.50 358.49 L 686.31 343.90 L 697.12 358.03 L 707.94 342.99 L 718.75 327.27 L 729.56 275.35 L 740.38 124.58 L 751.19 194.94 L 762.00 251.26 L 772.81 83.87 L 783.62 216.88 L 794.44 344.69 L 805.25 347.74 L 816.06 341.52 L 826.88 89.75 L 837.69 182.61 L 848.50 215.86 L 859.31 252.85 L 870.12 126.96 L 880.94 209.07 L 891.75 204.44 L 902.56 127.86 L 913.38 60.00 L 924.19 184.08 L 935.00 221.74" fill="none" stroke="#69a7ff" stroke-width="4" stroke-linecap="round" stroke-linejoin="round"/>
<circle cx="935.00" cy="221.74" r="6" fill="#69a7ff"/>
<text x="927.00" y="209.74" text-anchor="end" fill="#f5f7fb" font-family="Inter, Arial, sans-serif" font-size="12" font-weight="600">15.61</text>
</svg>