<svg xmlns="http://www.w3.org/2000/svg" width="960" height="430" viewBox="0 0 960 430" role="img" aria-label="Composite score history">
<rect width="100%" height="100%" fill="#0b1020" rx="20"/>
<text x="70" y="32" fill="#f5f7fb" font-family="Inter, Arial, sans-serif" font-size="24" font-weight="700">Composite score history</text>
<text x="70" y="52" fill="#93a4c3" font-family="Inter, Arial, sans-serif" font-size="13">Trailing 71 sessions through 2025-11-06</text>
<line x1="70" x2="935" y1="375.00" y2="375.00" stroke="#27314e" stroke-width="1"/>
<text x="58" y="379.00" text-anchor="end" fill="#93a4c3" font-family="Inter, Arial, sans-serif" font-size="12">5</text>
<line x1="70" x2="935" y1="312.00" y2="312.00" stroke="#27314e" stroke-width="1"/>
<text x="58" y="316.00" text-anchor="end" fill="#93a4c3" font-family="Inter, Arial, sans-serif" font-size="12">11</text>
<line x1="70" x2="935" y1="249.00" y2="249.00" stroke="#27314e" stroke-width="1"/>
<text x="58" y="253.00" text-anchor="end" fill="#93a4c3" font-family="Inter, Arial, sans-serif" font-size="12">17</text>
<line x1="70" x2="935" y1="186.00" y2="186.00" stroke="#27314e" stroke-width="1"/>
<text x="58" y="190.00" text-anchor="end" fill="#93a4c3" font-family="Inter, Arial, sans-serif" font-size="12">23</text>
<line x1="70" x2="935" y1="123.00" y2="123.00" stroke="#27314e" stroke-width="1"/>
<text x="58" y="127.00" text-anchor="end" fill="#93a4c3" font-family="Inter, Arial, sans-serif" font-size="12">29</text>
<line x1="70" x2="935" y1="60.00" y2="60.00" stroke="#27314e" stroke-width="1"/>
<text x="58" y="64.00" text-anchor="end" fill="#93a4c3" font-family="Inter, Arial, sans-serif" font-size="12">35</text>
<text x="70.00" y="412" text-anchor="middle" fill="#93a4c3" font-family="Inter, Arial, sans-serif" font-size="12">2025-07-29</text>
<text x="502.50" y="412" text-anchor="middle" fill="#93a4c3" font-family="Inter, Arial, sans-serif" font-size="12">2025-09-17</text>
<text x="935.00" y="412" text-anchor="middle" fill="#93a4c3" font-family="Inter, Arial, sans-serif" font-size="12">2025-11-06</text>
<path d="M 70.00 259.73 L 82.36 217.71 L 94.71 184.14 L 107.07 98.53 L 119.43 221.19 L 131.79 187.73 L 144.14 250.44 L 156.50 276.19 L 168.86 268.80 L 181.21 229.96 L 193.57 338.37 L 205.93 334.46 L 218.29 319.79 L 230.64 309.02 L 243.00 310.61 L 255.36 235.87 L 267.71 183.93 L 280.07 141.81 L 292.43 261.84 L 304.79 231.86 L 317.14 249.49 L 329.50 267.22 L 341.86 315.67 L 354.21 268.59 L 366.57 221.19 L 378.93 245.90 L 391.29 294.46 L 403.64 276.30 L 416.00 318.00 L 428.36 337.63 L 440.71 332.67 L 453.07 339.53 L 465.43 320.85 L 477.79 317.57 L 490.14 315.88 L 502.50 307.02 L 514.86 259.83 L 527.21 308.07 L 539.57 278.20 L 551.93 295.93 L 564.29 277.35 L 576.64 217.08 L 589.00 249.27 L 601.36 251.60 L 613.71 268.06 L 626.07 321.27 L 638.43 337.95 L 650.79 305.01 L 663.14 319.58 L 675.50 285.06 L 687.86 295.09 L 700.21 264.79 L 712.57 80.69 L 724.93 152.37 L 737.29 203.46 L 749.64 60.00 L 762.00 180.66 L 774.36 375.00 L 786.71 338.05 L 799.07 304.06 L 811.43 230.70 L 823.79 279.99 L 836.14 304.27 L 848.50 323.49 L 860.86 278.41 L 873.21 263.63 L 885.57 236.50 L 897.93 176.22 L 910.29 97.05 L 922.64 163.35 L 935.00 164.72" fill="none" stroke="#69a7ff" stroke-width="4" stroke-linecap="round" stroke-linejoin="round"/>
<circle cx="935.00" cy="164.72" r="6" fill="#69a7ff"/>
</svg>