<svg xmlns="http://www.w3.org/2000/svg" width="960" height="430" viewBox="0 0 960 430" role="img" aria-label="Composite score history">
<rect width="100%" height="100%" fill="#0b1020" rx="20"/>
<text x="70" y="32" fill="#f5f7fb" font-family="Inter, Arial, sans-serif" font-size="24" font-weight="700">Composite score history</text>
<text x="70" y="52" fill="#93a4c3" font-family="Inter, Arial, sans-serif" font-size="13">Trailing 65 sessions through 2025-11-06</text>
<line x1="70" x2="935" y1="375.00" y2="375.00" stroke="#27314e" stroke-width="1"/>
<text x="58" y="379.00" text-anchor="end" fill="#93a4c3" font-family="Inter, Arial, sans-serif" font-size="12">5</text>
<line x1="70" x2="935" y1="312.00" y2="312.00" stroke="#27314e" stroke-width="1"/>
<text x="58" y="316.00" text-anchor="end" fill="#93a4c3" font-family="Inter, Arial, sans-serif" font-size="12">11</text>
<line x1="70" x2="935" y1="249.00" y2="249.00" stroke="#27314e" stroke-width="1"/>
<text x="58" y="253.00" text-anchor="end" fill="#93a4c3" font-family="Inter, Arial, sans-serif" font-size="12">17</text>
<line x1="70" x2="935" y1="186.00" y2="186.00" stroke="#27314e" stroke-width="1"/>
<text x="58" y="190.00" text-anchor="end" fill="#93a4c3" font-family="Inter, Arial, sans-serif" font-size="12">23</text>
<line x1="70" x2="935" y1="123.00" y2="123.00" stroke="#27314e" stroke-width="1"/>
<text x="58" y="127.00" text-anchor="end" fill="#93a4c3" font-family="Inter, Arial, sans-serif" font-size="12">29</text>
<line x1="70" x2="935" y1="60.00" y2="60.00" stroke="#27314e" stroke-width="1"/>
<text x="58" y="64.00" text-anchor="end" fill="#93a4c3" font-family="Inter, Arial, sans-serif" font-size="12">35</text>
<text x="70.00" y="412" text-anchor="middle" fill="#93a4c3" font-family="Inter, Arial, sans-serif" font-size="12">2025-08-06</text>
<text x="502.50" y="412" text-anchor="middle" fill="#93a4c3" font-family="Inter, Arial, sans-serif" font-size="12">2025-09-22</text>
<text x="935.00" y="412" text-anchor="middle" fill="#93a4c3" font-family="Inter, Arial, sans-serif" font-size="12">2025-11-06</text>
<path d="M 70.00 277.99 L 83.52 253.81 L 97.03 233.76 L 110.55 218.34 L 124.06 300.89 L 137.58 334.46 L 151.09 319.79 L 164.61 309.02 L 178.12 310.61 L 191.64 235.87 L 205.16 183.93 L 218.67 141.81 L 232.19 261.84 L 245.70 231.86 L 259.22 249.49 L 272.73 267.22 L 286.25 315.67 L 299.77 268.59 L 313.28 221.19 L 326.80 245.90 L 340.31 294.46 L 353.83 276.30 L 367.34 318.00 L 380.86 337.63 L 394.38 332.67 L 407.89 339.53 L 421.41 320.85 L 434.92 317.57 L 448.44 315.88 L 461.95 307.02 L 475.47 259.83 L 488.98 308.07 L 502.50 278.20 L 516.02 295.93 L 529.53 277.35 L 543.05 217.08 L 556.56 249.27 L 570.08 251.60 L 583.59 268.06 L 597.11 321.27 L 610.62 337.95 L 624.14 305.01 L 637.66 319.58 L 651.17 285.06 L 664.69 295.09 L 678.20 264.79 L 691.72 80.69 L 705.23 152.37 L 718.75 203.46 L 732.27 60.00 L 745.78 180.66 L 759.30 375.00 L 772.81 338.05 L 786.33 304.06 L 799.84 230.70 L 813.36 279.99 L 826.88 304.27 L 840.39 323.49 L 853.91 278.41 L 867.42 263.63 L 880.94 236.50 L 894.45 176.22 L 907.97 97.05 L 921.48 163.35 L 935.00 164.72" fill="none" stroke="#69a7ff" stroke-width="4" stroke-linecap="round" stroke-linejoin="round"/>
<circle cx="935.00" cy="164.72" r="6" fill="#69a7ff"/>
</svg>