<svg xmlns="http://www.w3.org/2000/svg" width="960" height="430" viewBox="0 0 960 430" role="img" aria-label="Composite score history">
<rect width="100%" height="100%" fill="#0b1020" rx="20"/>
<text x="70" y="32" fill="#f5f7fb" font-family="Inter, Arial, sans-serif" font-size="24" font-weight="700">Composite score history</text>
<text x="70" y="52" fill="#93a4c3" font-family="Inter, Arial, sans-serif" font-size="13">Trailing 44 sessions through 2025-11-06</text>
<line x1="70" x2="935" y1="375.00" y2="375.00" stroke="#27314e" stroke-width="1"/>
<text x="58" y="379.00" text-anchor="end" fill="#93a4c3" font-family="Inter, Arial, sans-serif" font-size="12">5</text>
<line x1="70" x2="935" y1="312.00" y2="312.00" stroke="#27314e" stroke-width="1"/>
<text x="58" y="316.00" text-anchor="end" fill="#93a4c3" font-family="Inter, Arial, sans-serif" font-size="12">11</text>
<line x1="70" x2="935" y1="249.00" y2="249.00" stroke="#27314e" stroke-width="1"/>
<text x="58" y="253.00" text-anchor="end" fill="#93a4c3" font-family="Inter, Arial, sans-serif" font-size="12">17</text>
<line x1="70" x2="935" y1="186.00" y2="186.00" stroke="#27314e" stroke-width="1"/>
<text x="58" y="190.00" text-anchor="end" fill="#93a4c3" font-family="Inter, Arial, sans-serif" font-size="12">23</text>
<line x1="70" x2="935" y1="123.00" y2="123.00" stroke="#27314e" stroke-width="1"/>
<text x="58" y="127.00" text-anchor="end" fill="#93a4c3" font-family="Inter, Arial, sans-serif" font-size="12">29</text>
<line x1="70" x2="935" y1="60.00" y2="60.00" stroke="#27314e" stroke-width="1"/>
<text x="58" y="64.00" text-anchor="end" fill="#93a4c3" font-family="Inter, Arial, sans-serif" font-size="12">35</text>
<text x="70.00" y="412" text-anchor="middle" fill="#93a4c3" font-family="Inter, Arial, sans-serif" font-size="12">2025-09-05</text>
<text x="512.56" y="412" text-anchor="middle" fill="#93a4c3" font-family="Inter, Arial, sans-serif" font-size="12">2025-10-07</text>
<text x="935.00" y="412" text-anchor="middle" fill="#93a4c3" font-family="Inter, Arial, sans-serif" font-size="12">2025-11-06</text>
<path d="M 70.00 300.26 L 90.12 309.34 L 110.23 292.45 L 130.35 304.59 L 150.47 343.86 L 170.58 320.85 L 190.70 317.57 L 210.81 315.88 L 230.93 307.02 L 251.05 259.83 L 271.16 308.07 L 291.28 278.20 L 311.40 295.93 L 331.51 277.35 L 351.63 217.08 L 371.74 249.27 L 391.86 251.60 L 411.98 268.06 L 432.09 321.27 L 452.21 337.95 L 472.33 305.01 L 492.44 319.58 L 512.56 285.06 L 532.67 295.09 L 552.79 264.79 L 572.91 80.69 L 593.02 152.37 L 613.14 203.46 L 633.26 60.00 L 653.37 180.66 L 673.49 375.00 L 693.60 338.05 L 713.72 304.06 L 733.84 230.70 L 753.95 279.99 L 774.07 304.27 L 794.19 323.49 L 814.30 278.41 L 834.42 263.63 L 854.53 236.50 L 874.65 176.22 L 894.77 97.05 L 914.88 163.35 L 935.00 164.72" fill="none" stroke="#69a7ff" stroke-width="4" stroke-linecap="round" stroke-linejoin="round"/>
<circle cx="935.00" cy="164.72" r="6" fill="#69a7ff"/>
</svg>