<svg xmlns="http://www.w3.org/2000/svg" width="960" height="430" viewBox="0 0 960 430" role="img" aria-label="Composite score history">
<rect width="100%" height="100%" fill="#0b1020" rx="20"/>
<text x="70" y="32" fill="#f5f7fb" font-family="Inter, Arial, sans-serif" font-size="24" font-weight="700">Composite score history</text>
<text x="70" y="52" fill="#93a4c3" font-family="Inter, Arial, sans-serif" font-size="13">Trailing 62 sessions through 2025-11-06</text>
<line x1="70" x2="935" y1="375.00" y2="375.00" stroke="#27314e" stroke-width="1"/>
<text x="58" y="379.00" text-anchor="end" fill="#93a4c3" font-family="Inter, Arial, sans-serif" font-size="12">5</text>
<line x1="70" x2="935" y1="312.00" y2="312.00" stroke="#27314e" stroke-width="1"/>
<text x="58" y="316.00" text-anchor="end" fill="#93a4c3" font-family="Inter, Arial, sans-serif" font-size="12">11</text>
<line x1="70" x2="935" y1="249.00" y2="249.00" stroke="#27314e" stroke-width="1"/>
<text x="58" y="253.00" text-anchor="end" fill="#93a4c3" font-family="Inter, Arial, sans-serif" font-size="12">17</text>
<line x1="70" x2="935" y1="186.00" y2="186.00" stroke="#27314e" stroke-width="1"/>
<text x="58" y="190.00" text-anchor="end" fill="#93a4c3" font-family="Inter, Arial, sans-serif" font-size="12">23</text>
<line x1="70" x2="935" y1="123.00" y2="123.00" stroke="#27314e" stroke-width="1"/>
<text x="58" y="127.00" text-anchor="end" fill="#93a4c3" font-family="Inter, Arial, sans-serif" font-size="12">29</text>
<line x1="70" x2="935" y1="60.00" y2="60.00" stroke="#27314e" stroke-width="1"/>
<text x="58" y="64.00" text-anchor="end" fill="#93a4c3" font-family="Inter, Arial, sans-serif" font-size="12">35</text>
<text x="70.00" y="412" text-anchor="middle" fill="#93a4c3" font-family="Inter, Arial, sans-serif" font-size="12">2025-08-11</text>
<text x="509.59" y="412" text-anchor="middle" fill="#93a4c3" font-family="Inter, Arial, sans-serif" font-size="12">2025-09-24</text>
<text x="935.00" y="412" text-anchor="middle" fill="#93a4c3" font-family="Inter, Arial, sans-serif" font-size="12">2025-11-06</text>
<path d="M 70.00 267.75 L 84.18 317.47 L 98.36 333.09 L 112.54 324.75 L 126.72 315.78 L 140.90 310.61 L 155.08 235.87 L 169.26 183.93 L 183.44 141.81 L 197.62 261.84 L 211.80 231.86 L 225.98 249.49 L 240.16 267.22 L 254.34 315.67 L 268.52 268.59 L 282.70 221.19 L 296.89 245.90 L 311.07 294.46 L 325.25 276.30 L 339.43 318.00 L 353.61 337.63 L 367.79 332.67 L 381.97 339.53 L 396.15 320.85 L 410.33 317.57 L 424.51 315.88 L 438.69 307.02 L 452.87 259.83 L 467.05 308.07 L 481.23 278.20 L 495.41 295.93 L 509.59 277.35 L 523.77 217.08 L 537.95 249.27 L 552.13 251.60 L 566.31 268.06 L 580.49 321.27 L 594.67 337.95 L 608.85 305.01 L 623.03 319.58 L 637.21 285.06 L 651.39 295.09 L 665.57 264.79 L 679.75 80.69 L 693.93 152.37 L 708.11 203.46 L 722.30 60.00 L 736.48 180.66 L 750.66 375.00 L 764.84 338.05 L 779.02 304.06 L 793.20 230.70 L 807.38 279.99 L 821.56 304.27 L 835.74 323.49 L 849.92 278.41 L 864.10 263.63 L 878.28 236.50 L 892.46 176.22 L 906.64 97.05 L 920.82 163.35 L 935.00 164.72" fill="none" stroke="#69a7ff" stroke-width="4" stroke-linecap="round" stroke-linejoin="round"/>
<circle cx="935.00" cy="164.72" r="6" fill="#69a7ff"/>
</svg>