<svg xmlns="http://www.w3.org/2000/svg" width="960" height="430" viewBox="0 0 960 430" role="img" aria-label="Composite score history">
<rect width="100%" height="100%" fill="#0b1020" rx="20"/>
<text x="70" y="32" fill="#f5f7fb" font-family="Inter, Arial, sans-serif" font-size="24" font-weight="700">Composite score history</text>
<text x="70" y="52" fill="#93a4c3" font-family="Inter, Arial, sans-serif" font-size="13">Trailing 70 sessions through 2025-11-06</text>
<line x1="70" x2="935" y1="375.00" y2="375.00" stroke="#27314e" stroke-width="1"/>
<text x="58" y="379.00" text-anchor="end" fill="#93a4c3" font-family="Inter, Arial, sans-serif" font-size="12">5</text>
<line x1="70" x2="935" y1="312.00" y2="312.00" stroke="#27314e" stroke-width="1"/>
<text x="58" y="316.00" text-anchor="end" fill="#93a4c3" font-family="Inter, Arial, sans-serif" font-size="12">11</text>
<line x1="70" x2="935" y1="249.00" y2="249.00" stroke="#27314e" stroke-width="1"/>
<text x="58" y="253.00" text-anchor="end" fill="#93a4c3" font-family="Inter, Arial, sans-serif" font-size="12">17</text>
<line x1="70" x2="935" y1="186.00" y2="186.00" stroke="#27314e" stroke-width="1"/>
<text x="58" y="190.00" text-anchor="end" fill="#93a4c3" font-family="Inter, Arial, sans-serif" font-size="12">23</text>
<line x1="70" x2="935" y1="123.00" y2="123.00" stroke="#27314e" stroke-width="1"/>
<text x="58" y="127.00" text-anchor="end" fill="#93a4c3" font-family="Inter, Arial, sans-serif" font-size="12">29</text>
<line x1="70" x2="935" y1="60.00" y2="60.00" stroke="#27314e" stroke-width="1"/>
<text x="58" y="64.00" text-anchor="end" fill="#93a4c3" font-family="Inter, Arial, sans-serif" font-size="12">35</text>
<text x="70.00" y="412" text-anchor="middle" fill="#93a4c3" font-family="Inter, Arial, sans-serif" font-size="12">2025-07-30</text>
<text x="508.77" y="412" text-anchor="middle" fill="#93a4c3" font-family="Inter, Arial, sans-serif" font-size="12">2025-09-18</text>
<text x="935.00" y="412" text-anchor="middle" fill="#93a4c3" font-family="Inter, Arial, sans-serif" font-size="12">2025-11-06</text>
<path d="M 70.00 258.04 L 82.54 219.51 L 95.07 100.01 L 107.61 222.88 L 120.14 189.31 L 132.68 250.44 L 145.22 276.19 L 157.75 268.80 L 170.29 229.96 L 182.83 338.37 L 195.36 334.46 L 207.90 319.79 L 220.43 309.02 L 232.97 310.61 L 245.51 235.87 L 258.04 183.93 L 270.58 141.81 L 283.12 261.84 L 295.65 231.86 L 308.19 249.49 L 320.72 267.22 L 333.26 315.67 L 345.80 268.59 L 358.33 221.19 L 370.87 245.90 L 383.41 294.46 L 395.94 276.30 L 408.48 318.00 L 421.01 337.63 L 433.55 332.67 L 446.09 339.53 L 458.62 320.85 L 471.16 317.57 L 483.70 315.88 L 496.23 307.02 L 508.77 259.83 L 521.30 308.07 L 533.84 278.20 L 546.38 295.93 L 558.91 277.35 L 571.45 217.08 L 583.99 249.27 L 596.52 251.60 L 609.06 268.06 L 621.59 321.27 L 634.13 337.95 L 646.67 305.01 L 659.20 319.58 L 671.74 285.06 L 684.28 295.09 L 696.81 264.79 L 709.35 80.69 L 721.88 152.37 L 734.42 203.46 L 746.96 60.00 L 759.49 180.66 L 772.03 375.00 L 784.57 338.05 L 797.10 304.06 L 809.64 230.70 L 822.17 279.99 L 834.71 304.27 L 847.25 323.49 L 859.78 278.41 L 872.32 263.63 L 884.86 236.50 L 897.39 176.22 L 909.93 97.05 L 922.46 163.35 L 935.00 164.72" fill="none" stroke="#69a7ff" stroke-width="4" stroke-linecap="round" stroke-linejoin="round"/>
<circle cx="935.00" cy="164.72" r="6" fill="#69a7ff"/>
</svg>