<svg xmlns="http://www.w3.org/2000/svg" width="960" height="430" viewBox="0 0 960 430" role="img" aria-label="Composite score history">
<rect width="100%" height="100%" fill="#0b1020" rx="20"/>
<text x="70" y="32" fill="#f5f7fb" font-family="Inter, Arial, sans-serif" font-size="24" font-weight="700">Composite score history</text>
<text x="70" y="52" fill="#93a4c3" font-family="Inter, Arial, sans-serif" font-size="13">Trailing 58 sessions through 2025-11-06</text>
<line x1="70" x2="935" y1="375.00" y2="375.00" stroke="#27314e" stroke-width="1"/>
<text x="58" y="379.00" text-anchor="end" fill="#93a4c3" font-family="Inter, Arial, sans-serif" font-size="12">5</text>
<line x1="70" x2="935" y1="312.00" y2="312.00" stroke="#27314e" stroke-width="1"/>
<text x="58" y="316.00" text-anchor="end" fill="#93a4c3" font-family="Inter, Arial, sans-serif" font-size="12">11</text>
<line x1="70" x2="935" y1="249.00" y2="249.00" stroke="#27314e" stroke-width="1"/>
<text x="58" y="253.00" text-anchor="end" fill="#93a4c3" font-family="Inter, Arial, sans-serif" font-size="12">17</text>
<line x1="70" x2="935" y1="186.00" y2="186.00" stroke="#27314e" stroke-width="1"/>
<text x="58" y="190.00" text-anchor="end" fill="#93a4c3" font-family="Inter, Arial, sans-serif" font-size="12">23</text>
<line x1="70" x2="935" y1="123.00" y2="123.00" stroke="#27314e" stroke-width="1"/>
<text x="58" y="127.00" text-anchor="end" fill="#93a4c3" font-family="Inter, Arial, sans-serif" font-size="12">29</text>
<line x1="70" x2="935" y1="60.00" y2="60.00" stroke="#27314e" stroke-width="1"/>
<text x="58" y="64.00" text-anchor="end" fill="#93a4c3" font-family="Inter, Arial, sans-serif" font-size="12">35</text>
<text x="70.00" y="412" text-anchor="middle" fill="#93a4c3" font-family="Inter, Arial, sans-serif" font-size="12">2025-08-15</text>
<text x="510.09" y="412" text-anchor="middle" fill="#93a4c3" font-family="Inter, Arial, sans-serif" font-size="12">2025-09-26</text>
<text x="935.00" y="412" text-anchor="middle" fill="#93a4c3" font-family="Inter, Arial, sans-serif" font-size="12">2025-11-06</text>
<path d="M 70.00 284.11 L 85.18 274.50 L 100.35 248.75 L 115.53 233.02 L 130.70 158.49 L 145.88 261.84 L 161.05 231.86 L 176.23 249.49 L 191.40 267.22 L 206.58 315.67 L 221.75 268.59 L 236.93 221.19 L 252.11 245.90 L 267.28 294.46 L 282.46 276.30 L 297.63 318.00 L 312.81 337.63 L 327.98 332.67 L 343.16 339.53 L 358.33 320.85 L 373.51 317.57 L 388.68 315.88 L 403.86 307.02 L 419.04 259.83 L 434.21 308.07 L 449.39 278.20 L 464.56 295.93 L 479.74 277.35 L 494.91 217.08 L 510.09 249.27 L 525.26 251.60 L 540.44 268.06 L 555.61 321.27 L 570.79 337.95 L 585.96 305.01 L 601.14 319.58 L 616.32 285.06 L 631.49 295.09 L 646.67 264.79 L 661.84 80.69 L 677.02 152.37 L 692.19 203.46 L 707.37 60.00 L 722.54 180.66 L 737.72 375.00 L 752.89 338.05 L 768.07 304.06 L 783.25 230.70 L 798.42 279.99 L 813.60 304.27 L 828.77 323.49 L 843.95 278.41 L 859.12 263.63 L 874.30 236.50 L 889.47 176.22 L 904.65 97.05 L 919.82 163.35 L 935.00 164.72" fill="none" stroke="#69a7ff" stroke-width="4" stroke-linecap="round" stroke-linejoin="round"/>
<circle cx="935.00" cy="164.72" r="6" fill="#69a7ff"/>
</svg>