<svg xmlns="http://www.w3.org/2000/svg" width="960" height="430" viewBox="0 0 960 430" role="img" aria-label="Composite score history">
<rect width="100%" height="100%" fill="#0b1020" rx="20"/>
<text x="70" y="32" fill="#f5f7fb" font-family="Inter, Arial, sans-serif" font-size="24" font-weight="700">Composite score history</text>
<text x="70" y="52" fill="#93a4c3" font-family="Inter, Arial, sans-serif" font-size="13">Trailing 78 sessions through 2025-12-08</text>
<line x1="70" x2="935" y1="375.00" y2="375.00" stroke="#27314e" stroke-width="1"/>
<text x="58" y="379.00" text-anchor="end" fill="#93a4c3" font-family="Inter, Arial, sans-serif" font-size="12">0</text>
<line x1="70" x2="935" y1="312.00" y2="312.00" stroke="#27314e" stroke-width="1"/>
<text x="58" y="316.00" text-anchor="end" fill="#93a4c3" font-family="Inter, Arial, sans-serif" font-size="12">8</text>
<line x1="70" x2="935" y1="249.00" y2="249.00" stroke="#27314e" stroke-width="1"/>
<text x="58" y="253.00" text-anchor="end" fill="#93a4c3" font-family="Inter, Arial, sans-serif" font-size="12">17</text>
<line x1="70" x2="935" y1="186.00" y2="186.00" stroke="#27314e" stroke-width="1"/>
<text x="58" y="190.00" text-anchor="end" fill="#93a4c3" font-family="Inter, Arial, sans-serif" font-size="12">25</text>
<line x1="70" x2="935" y1="123.00" y2="123.00" stroke="#27314e" stroke-width="1"/>
<text x="58" y="127.00" text-anchor="end" fill="#93a4c3" font-family="Inter, Arial, sans-serif" font-size="12">33</text>
<line x1="70" x2="935" y1="60.00" y2="60.00" stroke="#27314e" stroke-width="1"/>
<text x="58" y="64.00" text-anchor="end" fill="#93a4c3" font-family="Inter, Arial, sans-serif" font-size="12">41</text>
<text x="70.00" y="412" text-anchor="middle" fill="#93a4c3" font-family="Inter, Arial, sans-serif" font-size="12">2025-08-15</text>
<text x="508.12" y="412" text-anchor="middle" fill="#93a4c3" font-family="Inter, Arial, sans-serif" font-size="12">2025-10-10</text>
<text x="935.00" y="412" text-anchor="middle" fill="#93a4c3" font-family="Inter, Arial, sans-serif" font-size="12">2025-12-08</text>
<path d="M 70.00 270.92 L 81.23 263.98 L 92.47 245.37 L 103.70 234.01 L 114.94 180.17 L 126.17 254.83 L 137.40 233.17 L 148.64 245.90 L 159.87 258.71 L 171.10 293.71 L 182.34 259.71 L 193.57 225.47 L 204.81 243.31 L 216.04 278.39 L 227.27 265.27 L 238.51 295.39 L 249.74 309.58 L 260.97 305.99 L 272.21 310.95 L 283.44 297.45 L 294.68 295.09 L 305.91 293.87 L 317.14 287.46 L 328.38 253.38 L 339.61 288.22 L 350.84 266.64 L 362.08 279.46 L 373.31 266.03 L 384.55 222.49 L 395.78 245.75 L 407.01 247.43 L 418.25 259.32 L 429.48 297.76 L 440.71 309.80 L 451.95 286.01 L 463.18 296.54 L 474.42 271.60 L 485.65 278.85 L 496.88 256.96 L 508.12 123.98 L 519.35 175.75 L 530.58 212.66 L 541.82 109.03 L 553.05 196.19 L 564.29 336.57 L 575.52 309.88 L 586.75 285.33 L 597.99 232.33 L 609.22 267.94 L 620.45 285.48 L 631.69 299.36 L 642.92 266.80 L 654.16 256.12 L 665.39 236.53 L 676.62 192.98 L 687.86 135.80 L 699.09 183.68 L 710.32 184.67 L 721.56 190.93 L 732.79 255.59 L 744.03 294.63 L 755.26 209.53 L 766.49 237.06 L 777.73 167.36 L 788.96 60.00 L 800.19 70.45 L 811.43 66.18 L 822.66 146.17 L 833.90 277.24 L 845.13 326.96 L 856.36 337.79 L 867.60 375.00 L 878.83 333.06 L 890.06 308.20 L 901.30 290.89 L 912.53 264.74 L 923.77 247.28 L 935.00 278.92" fill="none" stroke="#69a7ff" stroke-width="4" stroke-linecap="round" stroke-linejoin="round"/>
<circle cx="935.00" cy="278.92" r="6" fill="#69a7ff"/>
</svg>