<svg xmlns="http://www.w3.org/2000/svg" width="960" height="430" viewBox="0 0 960 430" role="img" aria-label="Composite score history">
<rect width="100%" height="100%" fill="#0b1020" rx="20"/>
<text x="70" y="32" fill="#f5f7fb" font-family="Inter, Arial, sans-serif" font-size="24" font-weight="700">Composite score history</text>
<text x="70" y="52" fill="#93a4c3" font-family="Inter, Arial, sans-serif" font-size="13">Trailing 69 sessions through 2025-12-08</text>
<line x1="70" x2="935" y1="375.00" y2="375.00" stroke="#27314e" stroke-width="1"/>
<text x="58" y="379.00" text-anchor="end" fill="#93a4c3" font-family="Inter, Arial, sans-serif" font-size="12">0</text>
<line x1="70" x2="935" y1="312.00" y2="312.00" stroke="#27314e" stroke-width="1"/>
<text x="58" y="316.00" text-anchor="end" fill="#93a4c3" font-family="Inter, Arial, sans-serif" font-size="12">8</text>
<line x1="70" x2="935" y1="249.00" y2="249.00" stroke="#27314e" stroke-width="1"/>
<text x="58" y="253.00" text-anchor="end" fill="#93a4c3" font-family="Inter, Arial, sans-serif" font-size="12">17</text>
<line x1="70" x2="935" y1="186.00" y2="186.00" stroke="#27314e" stroke-width="1"/>
<text x="58" y="190.00" text-anchor="end" fill="#93a4c3" font-family="Inter, Arial, sans-serif" font-size="12">25</text>
<line x1="70" x2="935" y1="123.00" y2="123.00" stroke="#27314e" stroke-width="1"/>
<text x="58" y="127.00" text-anchor="end" fill="#93a4c3" font-family="Inter, Arial, sans-serif" font-size="12">33</text>
<line x1="70" x2="935" y1="60.00" y2="60.00" stroke="#27314e" stroke-width="1"/>
<text x="58" y="64.00" text-anchor="end" fill="#93a4c3" font-family="Inter, Arial, sans-serif" font-size="12">41</text>
<text x="70.00" y="412" text-anchor="middle" fill="#93a4c3" font-family="Inter, Arial, sans-serif" font-size="12">2025-08-28</text>
<text x="502.50" y="412" text-anchor="middle" fill="#93a4c3" font-family="Inter, Arial, sans-serif" font-size="12">2025-10-17</text>
<text x="935.00" y="412" text-anchor="middle" fill="#93a4c3" font-family="Inter, Arial, sans-serif" font-size="12">2025-12-08</text>
<path d="M 70.00 273.36 L 82.72 240.72 L 95.44 174.15 L 108.16 220.97 L 120.88 269.39 L 133.60 265.27 L 146.32 295.39 L 159.04 309.58 L 171.76 305.99 L 184.49 310.95 L 197.21 297.45 L 209.93 295.09 L 222.65 293.87 L 235.37 287.46 L 248.09 253.38 L 260.81 288.22 L 273.53 266.64 L 286.25 279.46 L 298.97 266.03 L 311.69 222.49 L 324.41 245.75 L 337.13 247.43 L 349.85 259.32 L 362.57 297.76 L 375.29 309.80 L 388.01 286.01 L 400.74 296.54 L 413.46 271.60 L 426.18 278.85 L 438.90 256.96 L 451.62 123.98 L 464.34 175.75 L 477.06 212.66 L 489.78 109.03 L 502.50 196.19 L 515.22 336.57 L 527.94 309.88 L 540.66 285.33 L 553.38 232.33 L 566.10 267.94 L 578.82 285.48 L 591.54 299.36 L 604.26 266.80 L 616.99 256.12 L 629.71 236.53 L 642.43 192.98 L 655.15 135.80 L 667.87 183.68 L 680.59 184.67 L 693.31 190.93 L 706.03 255.59 L 718.75 294.63 L 731.47 209.53 L 744.19 237.06 L 756.91 167.36 L 769.63 60.00 L 782.35 70.45 L 795.07 66.18 L 807.79 146.17 L 820.51 277.24 L 833.24 326.96 L 845.96 337.79 L 858.68 375.00 L 871.40 333.06 L 884.12 308.20 L 896.84 290.89 L 909.56 264.74 L 922.28 247.28 L 935.00 278.92" fill="none" stroke="#69a7ff" stroke-width="4" stroke-linecap="round" stroke-linejoin="round"/>
<circle cx="935.00" cy="278.92" r="6" fill="#69a7ff"/>
</svg>