<svg xmlns="http://www.w3.org/2000/svg" width="960" height="430" viewBox="0 0 960 430" role="img" aria-label="Composite score history">
<rect width="100%" height="100%" fill="#0b1020" rx="20"/>
<text x="70" y="32" fill="#f5f7fb" font-family="Inter, Arial, sans-serif" font-size="24" font-weight="700">Composite score history</text>
<text x="70" y="52" fill="#93a4c3" font-family="Inter, Arial, sans-serif" font-size="13">Trailing 63 sessions through 2025-12-08</text>
<line x1="70" x2="935" y1="375.00" y2="375.00" stroke="#27314e" stroke-width="1"/>
<text x="58" y="379.00" text-anchor="end" fill="#93a4c3" font-family="Inter, Arial, sans-serif" font-size="12">0</text>
<line x1="70" x2="935" y1="312.00" y2="312.00" stroke="#27314e" stroke-width="1"/>
<text x="58" y="316.00" text-anchor="end" fill="#93a4c3" font-family="Inter, Arial, sans-serif" font-size="12">8</text>
<line x1="70" x2="935" y1="249.00" y2="249.00" stroke="#27314e" stroke-width="1"/>
<text x="58" y="253.00" text-anchor="end" fill="#93a4c3" font-family="Inter, Arial, sans-serif" font-size="12">17</text>
<line x1="70" x2="935" y1="186.00" y2="186.00" stroke="#27314e" stroke-width="1"/>
<text x="58" y="190.00" text-anchor="end" fill="#93a4c3" font-family="Inter, Arial, sans-serif" font-size="12">25</text>
<line x1="70" x2="935" y1="123.00" y2="123.00" stroke="#27314e" stroke-width="1"/>
<text x="58" y="127.00" text-anchor="end" fill="#93a4c3" font-family="Inter, Arial, sans-serif" font-size="12">33</text>
<line x1="70" x2="935" y1="60.00" y2="60.00" stroke="#27314e" stroke-width="1"/>
<text x="58" y="64.00" text-anchor="end" fill="#93a4c3" font-family="Inter, Arial, sans-serif" font-size="12">41</text>
<text x="70.00" y="412" text-anchor="middle" fill="#93a4c3" font-family="Inter, Arial, sans-serif" font-size="12">2025-09-08</text>
<text x="502.50" y="412" text-anchor="middle" fill="#93a4c3" font-family="Inter, Arial, sans-serif" font-size="12">2025-10-22</text>
<text x="935.00" y="412" text-anchor="middle" fill="#93a4c3" font-family="Inter, Arial, sans-serif" font-size="12">2025-12-08</text>
<path d="M 70.00 285.10 L 83.95 262.98 L 97.90 275.03 L 111.85 303.86 L 125.81 283.50 L 139.76 295.09 L 153.71 293.87 L 167.66 287.46 L 181.61 253.38 L 195.56 288.22 L 209.52 266.64 L 223.47 279.46 L 237.42 266.03 L 251.37 222.49 L 265.32 245.75 L 279.27 247.43 L 293.23 259.32 L 307.18 297.76 L 321.13 309.80 L 335.08 286.01 L 349.03 296.54 L 362.98 271.60 L 376.94 278.85 L 390.89 256.96 L 404.84 123.98 L 418.79 175.75 L 432.74 212.66 L 446.69 109.03 L 460.65 196.19 L 474.60 336.57 L 488.55 309.88 L 502.50 285.33 L 516.45 232.33 L 530.40 267.94 L 544.35 285.48 L 558.31 299.36 L 572.26 266.80 L 586.21 256.12 L 600.16 236.53 L 614.11 192.98 L 628.06 135.80 L 642.02 183.68 L 655.97 184.67 L 669.92 190.93 L 683.87 255.59 L 697.82 294.63 L 711.77 209.53 L 725.73 237.06 L 739.68 167.36 L 753.63 60.00 L 767.58 70.45 L 781.53 66.18 L 795.48 146.17 L 809.44 277.24 L 823.39 326.96 L 837.34 337.79 L 851.29 375.00 L 865.24 333.06 L 879.19 308.20 L 893.15 290.89 L 907.10 264.74 L 921.05 247.28 L 935.00 278.92" fill="none" stroke="#69a7ff" stroke-width="4" stroke-linecap="round" stroke-linejoin="round"/>
<circle cx="935.00" cy="278.92" r="6" fill="#69a7ff"/>
</svg>