<svg xmlns="http://www.w3.org/2000/svg" width="960" height="430" viewBox="0 0 960 430" role="img" aria-label="Composite score history">
<rect width="100%" height="100%" fill="#0b1020" rx="20"/>
<text x="70" y="32" fill="#f5f7fb" font-family="Inter, Arial, sans-serif" font-size="24" font-weight="700">Composite score history</text>
<text x="70" y="52" fill="#93a4c3" font-family="Inter, Arial, sans-serif" font-size="13">Trailing 72 sessions through 2025-12-08</text>
<line x1="70" x2="935" y1="375.00" y2="375.00" stroke="#27314e" stroke-width="1"/>
<text x="58" y="379.00" text-anchor="end" fill="#93a4c3" font-family="Inter, Arial, sans-serif" font-size="12">0</text>
<line x1="70" x2="935" y1="312.00" y2="312.00" stroke="#27314e" stroke-width="1"/>
<text x="58" y="316.00" text-anchor="end" fill="#93a4c3" font-family="Inter, Arial, sans-serif" font-size="12">8</text>
<line x1="70" x2="935" y1="249.00" y2="249.00" stroke="#27314e" stroke-width="1"/>
<text x="58" y="253.00" text-anchor="end" fill="#93a4c3" font-family="Inter, Arial, sans-serif" font-size="12">17</text>
<line x1="70" x2="935" y1="186.00" y2="186.00" stroke="#27314e" stroke-width="1"/>
<text x="58" y="190.00" text-anchor="end" fill="#93a4c3" font-family="Inter, Arial, sans-serif" font-size="12">25</text>
<line x1="70" x2="935" y1="123.00" y2="123.00" stroke="#27314e" stroke-width="1"/>
<text x="58" y="127.00" text-anchor="end" fill="#93a4c3" font-family="Inter, Arial, sans-serif" font-size="12">33</text>
<line x1="70" x2="935" y1="60.00" y2="60.00" stroke="#27314e" stroke-width="1"/>
<text x="58" y="64.00" text-anchor="end" fill="#93a4c3" font-family="Inter, Arial, sans-serif" font-size="12">41</text>
<text x="70.00" y="412" text-anchor="middle" fill="#93a4c3" font-family="Inter, Arial, sans-serif" font-size="12">2025-08-25</text>
<text x="508.59" y="412" text-anchor="middle" fill="#93a4c3" font-family="Inter, Arial, sans-serif" font-size="12">2025-10-16</text>
<text x="935.00" y="412" text-anchor="middle" fill="#93a4c3" font-family="Inter, Arial, sans-serif" font-size="12">2025-12-08</text>
<path d="M 70.00 265.65 L 82.18 275.64 L 94.37 279.53 L 106.55 291.88 L 118.73 273.89 L 130.92 225.47 L 143.10 243.31 L 155.28 278.39 L 167.46 265.27 L 179.65 295.39 L 191.83 309.58 L 204.01 305.99 L 216.20 310.95 L 228.38 297.45 L 240.56 295.09 L 252.75 293.87 L 264.93 287.46 L 277.11 253.38 L 289.30 288.22 L 301.48 266.64 L 313.66 279.46 L 325.85 266.03 L 338.03 222.49 L 350.21 245.75 L 362.39 247.43 L 374.58 259.32 L 386.76 297.76 L 398.94 309.80 L 411.13 286.01 L 423.31 296.54 L 435.49 271.60 L 447.68 278.85 L 459.86 256.96 L 472.04 123.98 L 484.23 175.75 L 496.41 212.66 L 508.59 109.03 L 520.77 196.19 L 532.96 336.57 L 545.14 309.88 L 557.32 285.33 L 569.51 232.33 L 581.69 267.94 L 593.87 285.48 L 606.06 299.36 L 618.24 266.80 L 630.42 256.12 L 642.61 236.53 L 654.79 192.98 L 666.97 135.80 L 679.15 183.68 L 691.34 184.67 L 703.52 190.93 L 715.70 255.59 L 727.89 294.63 L 740.07 209.53 L 752.25 237.06 L 764.44 167.36 L 776.62 60.00 L 788.80 70.45 L 800.99 66.18 L 813.17 146.17 L 825.35 277.24 L 837.54 326.96 L 849.72 337.79 L 861.90 375.00 L 874.08 333.06 L 886.27 308.20 L 898.45 290.89 L 910.63 264.74 L 922.82 247.28 L 935.00 278.92" fill="none" stroke="#69a7ff" stroke-width="4" stroke-linecap="round" stroke-linejoin="round"/>
<circle cx="935.00" cy="278.92" r="6" fill="#69a7ff"/>
</svg>