<svg xmlns="http://www.w3.org/2000/svg" width="960" height="430" viewBox="0 0 960 430" role="img" aria-label="Composite score history">
<rect width="100%" height="100%" fill="#0b1020" rx="20"/>
<text x="70" y="32" fill="#f5f7fb" font-family="Inter, Arial, sans-serif" font-size="24" font-weight="700">Composite score history</text>
<text x="70" y="52" fill="#93a4c3" font-family="Inter, Arial, sans-serif" font-size="13">Trailing 70 sessions through 2025-12-08</text>
<line x1="70" x2="935" y1="375.00" y2="375.00" stroke="#27314e" stroke-width="1"/>
<text x="58" y="379.00" text-anchor="end" fill="#93a4c3" font-family="Inter, Arial, sans-serif" font-size="12">0</text>
<line x1="70" x2="935" y1="312.00" y2="312.00" stroke="#27314e" stroke-width="1"/>
<text x="58" y="316.00" text-anchor="end" fill="#93a4c3" font-family="Inter, Arial, sans-serif" font-size="12">8</text>
<line x1="70" x2="935" y1="249.00" y2="249.00" stroke="#27314e" stroke-width="1"/>
<text x="58" y="253.00" text-anchor="end" fill="#93a4c3" font-family="Inter, Arial, sans-serif" font-size="12">17</text>
<line x1="70" x2="935" y1="186.00" y2="186.00" stroke="#27314e" stroke-width="1"/>
<text x="58" y="190.00" text-anchor="end" fill="#93a4c3" font-family="Inter, Arial, sans-serif" font-size="12">25</text>
<line x1="70" x2="935" y1="123.00" y2="123.00" stroke="#27314e" stroke-width="1"/>
<text x="58" y="127.00" text-anchor="end" fill="#93a4c3" font-family="Inter, Arial, sans-serif" font-size="12">33</text>
<line x1="70" x2="935" y1="60.00" y2="60.00" stroke="#27314e" stroke-width="1"/>
<text x="58" y="64.00" text-anchor="end" fill="#93a4c3" font-family="Inter, Arial, sans-serif" font-size="12">41</text>
<text x="70.00" y="412" text-anchor="middle" fill="#93a4c3" font-family="Inter, Arial, sans-serif" font-size="12">2025-08-27</text>
<text x="508.77" y="412" text-anchor="middle" fill="#93a4c3" font-family="Inter, Arial, sans-serif" font-size="12">2025-10-17</text>
<text x="935.00" y="412" text-anchor="middle" fill="#93a4c3" font-family="Inter, Arial, sans-serif" font-size="12">2025-12-08</text>
<path d="M 70.00 271.30 L 82.54 270.23 L 95.07 255.66 L 107.61 179.87 L 120.14 229.81 L 132.68 278.39 L 145.22 265.27 L 157.75 295.39 L 170.29 309.58 L 182.83 305.99 L 195.36 310.95 L 207.90 297.45 L 220.43 295.09 L 232.97 293.87 L 245.51 287.46 L 258.04 253.38 L 270.58 288.22 L 283.12 266.64 L 295.65 279.46 L 308.19 266.03 L 320.72 222.49 L 333.26 245.75 L 345.80 247.43 L 358.33 259.32 L 370.87 297.76 L 383.41 309.80 L 395.94 286.01 L 408.48 296.54 L 421.01 271.60 L 433.55 278.85 L 446.09 256.96 L 458.62 123.98 L 471.16 175.75 L 483.70 212.66 L 496.23 109.03 L 508.77 196.19 L 521.30 336.57 L 533.84 309.88 L 546.38 285.33 L 558.91 232.33 L 571.45 267.94 L 583.99 285.48 L 596.52 299.36 L 609.06 266.80 L 621.59 256.12 L 634.13 236.53 L 646.67 192.98 L 659.20 135.80 L 671.74 183.68 L 684.28 184.67 L 696.81 190.93 L 709.35 255.59 L 721.88 294.63 L 734.42 209.53 L 746.96 237.06 L 759.49 167.36 L 772.03 60.00 L 784.57 70.45 L 797.10 66.18 L 809.64 146.17 L 822.17 277.24 L 834.71 326.96 L 847.25 337.79 L 859.78 375.00 L 872.32 333.06 L 884.86 308.20 L 897.39 290.89 L 909.93 264.74 L 922.46 247.28 L 935.00 278.92" fill="none" stroke="#69a7ff" stroke-width="4" stroke-linecap="round" stroke-linejoin="round"/>
<circle cx="935.00" cy="278.92" r="6" fill="#69a7ff"/>
</svg>