<svg xmlns="http://www.w3.org/2000/svg" width="960" height="430" viewBox="0 0 960 430" role="img" aria-label="Composite score history">
<rect width="100%" height="100%" fill="#0b1020" rx="20"/>
<text x="70" y="32" fill="#f5f7fb" font-family="Inter, Arial, sans-serif" font-size="24" font-weight="700">Composite score history</text>
<text x="70" y="52" fill="#93a4c3" font-family="Inter, Arial, sans-serif" font-size="13">Trailing 80 sessions through 2025-12-08</text>
<line x1="70" x2="935" y1="375.00" y2="375.00" stroke="#27314e" stroke-width="1"/>
<text x="58" y="379.00" text-anchor="end" fill="#93a4c3" font-family="Inter, Arial, sans-serif" font-size="12">0</text>
<line x1="70" x2="935" y1="312.00" y2="312.00" stroke="#27314e" stroke-width="1"/>
<text x="58" y="316.00" text-anchor="end" fill="#93a4c3" font-family="Inter, Arial, sans-serif" font-size="12">8</text>
<line x1="70" x2="935" y1="249.00" y2="249.00" stroke="#27314e" stroke-width="1"/>
<text x="58" y="253.00" text-anchor="end" fill="#93a4c3" font-family="Inter, Arial, sans-serif" font-size="12">17</text>
<line x1="70" x2="935" y1="186.00" y2="186.00" stroke="#27314e" stroke-width="1"/>
<text x="58" y="190.00" text-anchor="end" fill="#93a4c3" font-family="Inter, Arial, sans-serif" font-size="12">25</text>
<line x1="70" x2="935" y1="123.00" y2="123.00" stroke="#27314e" stroke-width="1"/>
<text x="58" y="127.00" text-anchor="end" fill="#93a4c3" font-family="Inter, Arial, sans-serif" font-size="12">33</text>
<line x1="70" x2="935" y1="60.00" y2="60.00" stroke="#27314e" stroke-width="1"/>
<text x="58" y="64.00" text-anchor="end" fill="#93a4c3" font-family="Inter, Arial, sans-serif" font-size="12">41</text>
<text x="70.00" y="412" text-anchor="middle" fill="#93a4c3" font-family="Inter, Arial, sans-serif" font-size="12">2025-08-13</text>
<text x="507.97" y="412" text-anchor="middle" fill="#93a4c3" font-family="Inter, Arial, sans-serif" font-size="12">2025-10-09</text>
<text x="935.00" y="412" text-anchor="middle" fill="#93a4c3" font-family="Inter, Arial, sans-serif" font-size="12">2025-12-08</text>
<path d="M 70.00 278.46 L 80.95 244.76 L 91.90 232.33 L 102.85 226.15 L 113.80 206.86 L 124.75 198.55 L 135.70 168.13 L 146.65 254.83 L 157.59 233.17 L 168.54 245.90 L 179.49 258.71 L 190.44 293.71 L 201.39 259.71 L 212.34 225.47 L 223.29 243.31 L 234.24 278.39 L 245.19 265.27 L 256.14 295.39 L 267.09 309.58 L 278.04 305.99 L 288.99 310.95 L 299.94 297.45 L 310.89 295.09 L 321.84 293.87 L 332.78 287.46 L 343.73 253.38 L 354.68 288.22 L 365.63 266.64 L 376.58 279.46 L 387.53 266.03 L 398.48 222.49 L 409.43 245.75 L 420.38 247.43 L 431.33 259.32 L 442.28 297.76 L 453.23 309.80 L 464.18 286.01 L 475.13 296.54 L 486.08 271.60 L 497.03 278.85 L 507.97 256.96 L 518.92 123.98 L 529.87 175.75 L 540.82 212.66 L 551.77 109.03 L 562.72 196.19 L 573.67 336.57 L 584.62 309.88 L 595.57 285.33 L 606.52 232.33 L 617.47 267.94 L 628.42 285.48 L 639.37 299.36 L 650.32 266.80 L 661.27 256.12 L 672.22 236.53 L 683.16 192.98 L 694.11 135.80 L 705.06 183.68 L 716.01 184.67 L 726.96 190.93 L 737.91 255.59 L 748.86 294.63 L 759.81 209.53 L 770.76 237.06 L 781.71 167.36 L 792.66 60.00 L 803.61 70.45 L 814.56 66.18 L 825.51 146.17 L 836.46 277.24 L 847.41 326.96 L 858.35 337.79 L 869.30 375.00 L 880.25 333.06 L 891.20 308.20 L 902.15 290.89 L 913.10 264.74 L 924.05 247.28 L 935.00 278.92" fill="none" stroke="#69a7ff" stroke-width="4" stroke-linecap="round" stroke-linejoin="round"/>
<circle cx="935.00" cy="278.92" r="6" fill="#69a7ff"/>
</svg>