<svg xmlns="http://www.w3.org/2000/svg" width="960" height="430" viewBox="0 0 960 430" role="img" aria-label="Composite score history">
<rect width="100%" height="100%" fill="#0b1020" rx="20"/>
<text x="70" y="32" fill="#f5f7fb" font-family="Inter, Arial, sans-serif" font-size="24" font-weight="700">Composite score history</text>
<text x="70" y="52" fill="#93a4c3" font-family="Inter, Arial, sans-serif" font-size="13">Trailing 73 sessions through 2025-12-08</text>
<line x1="70" x2="935" y1="375.00" y2="375.00" stroke="#27314e" stroke-width="1"/>
<text x="58" y="379.00" text-anchor="end" fill="#93a4c3" font-family="Inter, Arial, sans-serif" font-size="12">0</text>
<line x1="70" x2="935" y1="312.00" y2="312.00" stroke="#27314e" stroke-width="1"/>
<text x="58" y="316.00" text-anchor="end" fill="#93a4c3" font-family="Inter, Arial, sans-serif" font-size="12">8</text>
<line x1="70" x2="935" y1="249.00" y2="249.00" stroke="#27314e" stroke-width="1"/>
<text x="58" y="253.00" text-anchor="end" fill="#93a4c3" font-family="Inter, Arial, sans-serif" font-size="12">17</text>
<line x1="70" x2="935" y1="186.00" y2="186.00" stroke="#27314e" stroke-width="1"/>
<text x="58" y="190.00" text-anchor="end" fill="#93a4c3" font-family="Inter, Arial, sans-serif" font-size="12">25</text>
<line x1="70" x2="935" y1="123.00" y2="123.00" stroke="#27314e" stroke-width="1"/>
<text x="58" y="127.00" text-anchor="end" fill="#93a4c3" font-family="Inter, Arial, sans-serif" font-size="12">33</text>
<line x1="70" x2="935" y1="60.00" y2="60.00" stroke="#27314e" stroke-width="1"/>
<text x="58" y="64.00" text-anchor="end" fill="#93a4c3" font-family="Inter, Arial, sans-serif" font-size="12">41</text>
<text x="70.00" y="412" text-anchor="middle" fill="#93a4c3" font-family="Inter, Arial, sans-serif" font-size="12">2025-08-22</text>
<text x="502.50" y="412" text-anchor="middle" fill="#93a4c3" font-family="Inter, Arial, sans-serif" font-size="12">2025-10-15</text>
<text x="935.00" y="412" text-anchor="middle" fill="#93a4c3" font-family="Inter, Arial, sans-serif" font-size="12">2025-12-08</text>
<path d="M 70.00 272.67 L 82.01 226.23 L 94.03 260.54 L 106.04 263.44 L 118.06 278.31 L 130.07 259.71 L 142.08 225.47 L 154.10 243.31 L 166.11 278.39 L 178.12 265.27 L 190.14 295.39 L 202.15 309.58 L 214.17 305.99 L 226.18 310.95 L 238.19 297.45 L 250.21 295.09 L 262.22 293.87 L 274.24 287.46 L 286.25 253.38 L 298.26 288.22 L 310.28 266.64 L 322.29 279.46 L 334.31 266.03 L 346.32 222.49 L 358.33 245.75 L 370.35 247.43 L 382.36 259.32 L 394.38 297.76 L 406.39 309.80 L 418.40 286.01 L 430.42 296.54 L 442.43 271.60 L 454.44 278.85 L 466.46 256.96 L 478.47 123.98 L 490.49 175.75 L 502.50 212.66 L 514.51 109.03 L 526.53 196.19 L 538.54 336.57 L 550.56 309.88 L 562.57 285.33 L 574.58 232.33 L 586.60 267.94 L 598.61 285.48 L 610.62 299.36 L 622.64 266.80 L 634.65 256.12 L 646.67 236.53 L 658.68 192.98 L 670.69 135.80 L 682.71 183.68 L 694.72 184.67 L 706.74 190.93 L 718.75 255.59 L 730.76 294.63 L 742.78 209.53 L 754.79 237.06 L 766.81 167.36 L 778.82 60.00 L 790.83 70.45 L 802.85 66.18 L 814.86 146.17 L 826.88 277.24 L 838.89 326.96 L 850.90 337.79 L 862.92 375.00 L 874.93 333.06 L 886.94 308.20 L 898.96 290.89 L 910.97 264.74 L 922.99 247.28 L 935.00 278.92" fill="none" stroke="#69a7ff" stroke-width="4" stroke-linecap="round" stroke-linejoin="round"/>
<circle cx="935.00" cy="278.92" r="6" fill="#69a7ff"/>
</svg>