<svg xmlns="http://www.w3.org/2000/svg" width="960" height="430" viewBox="0 0 960 430" role="img" aria-label="Composite score history">
<rect width="100%" height="100%" fill="#0b1020" rx="20"/>
<text x="70" y="32" fill="#f5f7fb" font-family="Inter, Arial, sans-serif" font-size="24" font-weight="700">Composite score history</text>
<text x="70" y="52" fill="#93a4c3" font-family="Inter, Arial, sans-serif" font-size="13">Trailing 61 sessions through 2025-12-08</text>
<line x1="70" x2="935" y1="375.00" y2="375.00" stroke="#27314e" stroke-width="1"/>
<text x="58" y="379.00" text-anchor="end" fill="#93a4c3" font-family="Inter, Arial, sans-serif" font-size="12">0</text>
<line x1="70" x2="935" y1="312.00" y2="312.00" stroke="#27314e" stroke-width="1"/>
<text x="58" y="316.00" text-anchor="end" fill="#93a4c3" font-family="Inter, Arial, sans-serif" font-size="12">8</text>
<line x1="70" x2="935" y1="249.00" y2="249.00" stroke="#27314e" stroke-width="1"/>
<text x="58" y="253.00" text-anchor="end" fill="#93a4c3" font-family="Inter, Arial, sans-serif" font-size="12">17</text>
<line x1="70" x2="935" y1="186.00" y2="186.00" stroke="#27314e" stroke-width="1"/>
<text x="58" y="190.00" text-anchor="end" fill="#93a4c3" font-family="Inter, Arial, sans-serif" font-size="12">25</text>
<line x1="70" x2="935" y1="123.00" y2="123.00" stroke="#27314e" stroke-width="1"/>
<text x="58" y="127.00" text-anchor="end" fill="#93a4c3" font-family="Inter, Arial, sans-serif" font-size="12">33</text>
<line x1="70" x2="935" y1="60.00" y2="60.00" stroke="#27314e" stroke-width="1"/>
<text x="58" y="64.00" text-anchor="end" fill="#93a4c3" font-family="Inter, Arial, sans-serif" font-size="12">41</text>
<text x="70.00" y="412" text-anchor="middle" fill="#93a4c3" font-family="Inter, Arial, sans-serif" font-size="12">2025-09-10</text>
<text x="502.50" y="412" text-anchor="middle" fill="#93a4c3" font-family="Inter, Arial, sans-serif" font-size="12">2025-10-23</text>
<text x="935.00" y="412" text-anchor="middle" fill="#93a4c3" font-family="Inter, Arial, sans-serif" font-size="12">2025-12-08</text>
<path d="M 70.00 281.21 L 84.42 302.10 L 98.83 287.84 L 113.25 301.11 L 127.67 286.47 L 142.08 287.46 L 156.50 253.38 L 170.92 288.22 L 185.33 266.64 L 199.75 279.46 L 214.17 266.03 L 228.58 222.49 L 243.00 245.75 L 257.42 247.43 L 271.83 259.32 L 286.25 297.76 L 300.67 309.80 L 315.08 286.01 L 329.50 296.54 L 343.92 271.60 L 358.33 278.85 L 372.75 256.96 L 387.17 123.98 L 401.58 175.75 L 416.00 212.66 L 430.42 109.03 L 444.83 196.19 L 459.25 336.57 L 473.67 309.88 L 488.08 285.33 L 502.50 232.33 L 516.92 267.94 L 531.33 285.48 L 545.75 299.36 L 560.17 266.80 L 574.58 256.12 L 589.00 236.53 L 603.42 192.98 L 617.83 135.80 L 632.25 183.68 L 646.67 184.67 L 661.08 190.93 L 675.50 255.59 L 689.92 294.63 L 704.33 209.53 L 718.75 237.06 L 733.17 167.36 L 747.58 60.00 L 762.00 70.45 L 776.42 66.18 L 790.83 146.17 L 805.25 277.24 L 819.67 326.96 L 834.08 337.79 L 848.50 375.00 L 862.92 333.06 L 877.33 308.20 L 891.75 290.89 L 906.17 264.74 L 920.58 247.28 L 935.00 278.92" fill="none" stroke="#69a7ff" stroke-width="4" stroke-linecap="round" stroke-linejoin="round"/>
<circle cx="935.00" cy="278.92" r="6" fill="#69a7ff"/>
</svg>