<svg xmlns="http://www.w3.org/2000/svg" width="960" height="430" viewBox="0 0 960 430" role="img" aria-label="Composite score history">
<rect width="100%" height="100%" fill="#0b1020" rx="20"/>
<text x="70" y="32" fill="#f5f7fb" font-family="Inter, Arial, sans-serif" font-size="24" font-weight="700">Composite score history</text>
<text x="70" y="52" fill="#93a4c3" font-family="Inter, Arial, sans-serif" font-size="13">Trailing 79 sessions through 2025-12-08</text>
<line x1="70" x2="935" y1="375.00" y2="375.00" stroke="#27314e" stroke-width="1"/>
<text x="58" y="379.00" text-anchor="end" fill="#93a4c3" font-family="Inter, Arial, sans-serif" font-size="12">0</text>
<line x1="70" x2="935" y1="312.00" y2="312.00" stroke="#27314e" stroke-width="1"/>
<text x="58" y="316.00" text-anchor="end" fill="#93a4c3" font-family="Inter, Arial, sans-serif" font-size="12">8</text>
<line x1="70" x2="935" y1="249.00" y2="249.00" stroke="#27314e" stroke-width="1"/>
<text x="58" y="253.00" text-anchor="end" fill="#93a4c3" font-family="Inter, Arial, sans-serif" font-size="12">17</text>
<line x1="70" x2="935" y1="186.00" y2="186.00" stroke="#27314e" stroke-width="1"/>
<text x="58" y="190.00" text-anchor="end" fill="#93a4c3" font-family="Inter, Arial, sans-serif" font-size="12">25</text>
<line x1="70" x2="935" y1="123.00" y2="123.00" stroke="#27314e" stroke-width="1"/>
<text x="58" y="127.00" text-anchor="end" fill="#93a4c3" font-family="Inter, Arial, sans-serif" font-size="12">33</text>
<line x1="70" x2="935" y1="60.00" y2="60.00" stroke="#27314e" stroke-width="1"/>
<text x="58" y="64.00" text-anchor="end" fill="#93a4c3" font-family="Inter, Arial, sans-serif" font-size="12">41</text>
<text x="70.00" y="412" text-anchor="middle" fill="#93a4c3" font-family="Inter, Arial, sans-serif" font-size="12">2025-08-14</text>
<text x="502.50" y="412" text-anchor="middle" fill="#93a4c3" font-family="Inter, Arial, sans-serif" font-size="12">2025-10-09</text>
<text x="935.00" y="412" text-anchor="middle" fill="#93a4c3" font-family="Inter, Arial, sans-serif" font-size="12">2025-12-08</text>
<path d="M 70.00 271.75 L 81.09 254.98 L 92.18 248.73 L 103.27 229.51 L 114.36 221.20 L 125.45 168.13 L 136.54 254.83 L 147.63 233.17 L 158.72 245.90 L 169.81 258.71 L 180.90 293.71 L 191.99 259.71 L 203.08 225.47 L 214.17 243.31 L 225.26 278.39 L 236.35 265.27 L 247.44 295.39 L 258.53 309.58 L 269.62 305.99 L 280.71 310.95 L 291.79 297.45 L 302.88 295.09 L 313.97 293.87 L 325.06 287.46 L 336.15 253.38 L 347.24 288.22 L 358.33 266.64 L 369.42 279.46 L 380.51 266.03 L 391.60 222.49 L 402.69 245.75 L 413.78 247.43 L 424.87 259.32 L 435.96 297.76 L 447.05 309.80 L 458.14 286.01 L 469.23 296.54 L 480.32 271.60 L 491.41 278.85 L 502.50 256.96 L 513.59 123.98 L 524.68 175.75 L 535.77 212.66 L 546.86 109.03 L 557.95 196.19 L 569.04 336.57 L 580.13 309.88 L 591.22 285.33 L 602.31 232.33 L 613.40 267.94 L 624.49 285.48 L 635.58 299.36 L 646.67 266.80 L 657.76 256.12 L 668.85 236.53 L 679.94 192.98 L 691.03 135.80 L 702.12 183.68 L 713.21 184.67 L 724.29 190.93 L 735.38 255.59 L 746.47 294.63 L 757.56 209.53 L 768.65 237.06 L 779.74 167.36 L 790.83 60.00 L 801.92 70.45 L 813.01 66.18 L 824.10 146.17 L 835.19 277.24 L 846.28 326.96 L 857.37 337.79 L 868.46 375.00 L 879.55 333.06 L 890.64 308.20 L 901.73 290.89 L 912.82 264.74 L 923.91 247.28 L 935.00 278.92" fill="none" stroke="#69a7ff" stroke-width="4" stroke-linecap="round" stroke-linejoin="round"/>
<circle cx="935.00" cy="278.92" r="6" fill="#69a7ff"/>
</svg>