<svg xmlns="http://www.w3.org/2000/svg" width="960" height="430" viewBox="0 0 960 430" role="img" aria-label="Composite score history">
<rect width="100%" height="100%" fill="#0b1020" rx="20"/>
<text x="70" y="32" fill="#f5f7fb" font-family="Inter, Arial, sans-serif" font-size="24" font-weight="700">Composite score history</text>
<text x="70" y="52" fill="#93a4c3" font-family="Inter, Arial, sans-serif" font-size="13">Trailing 90 sessions through 2025-12-08</text>
<line x1="70" x2="935" y1="375.00" y2="375.00" stroke="#27314e" stroke-width="1"/>
<text x="58" y="379.00" text-anchor="end" fill="#93a4c3" font-family="Inter, Arial, sans-serif" font-size="12">0</text>
<line x1="70" x2="935" y1="312.00" y2="312.00" stroke="#27314e" stroke-width="1"/>
<text x="58" y="316.00" text-anchor="end" fill="#93a4c3" font-family="Inter, Arial, sans-serif" font-size="12">8</text>
<line x1="70" x2="935" y1="249.00" y2="249.00" stroke="#27314e" stroke-width="1"/>
<text x="58" y="253.00" text-anchor="end" fill="#93a4c3" font-family="Inter, Arial, sans-serif" font-size="12">17</text>
<line x1="70" x2="935" y1="186.00" y2="186.00" stroke="#27314e" stroke-width="1"/>
<text x="58" y="190.00" text-anchor="end" fill="#93a4c3" font-family="Inter, Arial, sans-serif" font-size="12">25</text>
<line x1="70" x2="935" y1="123.00" y2="123.00" stroke="#27314e" stroke-width="1"/>
<text x="58" y="127.00" text-anchor="end" fill="#93a4c3" font-family="Inter, Arial, sans-serif" font-size="12">33</text>
<line x1="70" x2="935" y1="60.00" y2="60.00" stroke="#27314e" stroke-width="1"/>
<text x="58" y="64.00" text-anchor="end" fill="#93a4c3" font-family="Inter, Arial, sans-serif" font-size="12">41</text>
<text x="70.00" y="412" text-anchor="middle" fill="#93a4c3" font-family="Inter, Arial, sans-serif" font-size="12">2025-07-30</text>
<text x="507.36" y="412" text-anchor="middle" fill="#93a4c3" font-family="Inter, Arial, sans-serif" font-size="12">2025-10-02</text>
<text x="935.00" y="412" text-anchor="middle" fill="#93a4c3" font-family="Inter, Arial, sans-serif" font-size="12">2025-12-08</text>
<path d="M 70.00 242.02 L 79.72 214.18 L 89.44 118.94 L 99.16 207.47 L 108.88 201.30 L 118.60 246.59 L 128.31 265.20 L 138.03 259.86 L 147.75 231.80 L 157.47 310.11 L 167.19 307.29 L 176.91 296.69 L 186.63 288.91 L 196.35 290.05 L 206.07 236.07 L 215.79 198.55 L 225.51 168.13 L 235.22 254.83 L 244.94 233.17 L 254.66 245.90 L 264.38 258.71 L 274.10 293.71 L 283.82 259.71 L 293.54 225.47 L 303.26 243.31 L 312.98 278.39 L 322.70 265.27 L 332.42 295.39 L 342.13 309.58 L 351.85 305.99 L 361.57 310.95 L 371.29 297.45 L 381.01 295.09 L 390.73 293.87 L 400.45 287.46 L 410.17 253.38 L 419.89 288.22 L 429.61 266.64 L 439.33 279.46 L 449.04 266.03 L 458.76 222.49 L 468.48 245.75 L 478.20 247.43 L 487.92 259.32 L 497.64 297.76 L 507.36 309.80 L 517.08 286.01 L 526.80 296.54 L 536.52 271.60 L 546.24 278.85 L 555.96 256.96 L 565.67 123.98 L 575.39 175.75 L 585.11 212.66 L 594.83 109.03 L 604.55 196.19 L 614.27 336.57 L 623.99 309.88 L 633.71 285.33 L 643.43 232.33 L 653.15 267.94 L 662.87 285.48 L 672.58 299.36 L 682.30 266.80 L 692.02 256.12 L 701.74 236.53 L 711.46 192.98 L 721.18 135.80 L 730.90 183.68 L 740.62 184.67 L 750.34 190.93 L 760.06 255.59 L 769.78 294.63 L 779.49 209.53 L 789.21 237.06 L 798.93 167.36 L 808.65 60.00 L 818.37 70.45 L 828.09 66.18 L 837.81 146.17 L 847.53 277.24 L 857.25 326.96 L 866.97 337.79 L 876.69 375.00 L 886.40 333.06 L 896.12 308.20 L 905.84 290.89 L 915.56 264.74 L 925.28 247.28 L 935.00 278.92" fill="none" stroke="#69a7ff" stroke-width="4" stroke-linecap="round" stroke-linejoin="round"/>
<circle cx="935.00" cy="278.92" r="6" fill="#69a7ff"/>
</svg>