<svg xmlns="http://www.w3.org/2000/svg" width="960" height="430" viewBox="0 0 960 430" role="img" aria-label="Composite score history">
<rect width="100%" height="100%" fill="#0b1020" rx="20"/>
<text x="70" y="32" fill="#f5f7fb" font-family="Inter, Arial, sans-serif" font-size="24" font-weight="700">Composite score history</text>
<text x="70" y="52" fill="#93a4c3" font-family="Inter, Arial, sans-serif" font-size="13">Trailing 84 sessions through 2025-12-08</text>
<line x1="70" x2="935" y1="375.00" y2="375.00" stroke="#27314e" stroke-width="1"/>
<text x="58" y="379.00" text-anchor="end" fill="#93a4c3" font-family="Inter, Arial, sans-serif" font-size="12">0</text>
<line x1="70" x2="935" y1="312.00" y2="312.00" stroke="#27314e" stroke-width="1"/>
<text x="58" y="316.00" text-anchor="end" fill="#93a4c3" font-family="Inter, Arial, sans-serif" font-size="12">8</text>
<line x1="70" x2="935" y1="249.00" y2="249.00" stroke="#27314e" stroke-width="1"/>
<text x="58" y="253.00" text-anchor="end" fill="#93a4c3" font-family="Inter, Arial, sans-serif" font-size="12">17</text>
<line x1="70" x2="935" y1="186.00" y2="186.00" stroke="#27314e" stroke-width="1"/>
<text x="58" y="190.00" text-anchor="end" fill="#93a4c3" font-family="Inter, Arial, sans-serif" font-size="12">25</text>
<line x1="70" x2="935" y1="123.00" y2="123.00" stroke="#27314e" stroke-width="1"/>
<text x="58" y="127.00" text-anchor="end" fill="#93a4c3" font-family="Inter, Arial, sans-serif" font-size="12">33</text>
<line x1="70" x2="935" y1="60.00" y2="60.00" stroke="#27314e" stroke-width="1"/>
<text x="58" y="64.00" text-anchor="end" fill="#93a4c3" font-family="Inter, Arial, sans-serif" font-size="12">41</text>
<text x="70.00" y="412" text-anchor="middle" fill="#93a4c3" font-family="Inter, Arial, sans-serif" font-size="12">2025-08-07</text>
<text x="507.71" y="412" text-anchor="middle" fill="#93a4c3" font-family="Inter, Arial, sans-serif" font-size="12">2025-10-07</text>
<text x="935.00" y="412" text-anchor="middle" fill="#93a4c3" font-family="Inter, Arial, sans-serif" font-size="12">2025-12-08</text>
<path d="M 70.00 264.97 L 80.42 249.03 L 90.84 237.90 L 101.27 297.53 L 111.69 312.70 L 122.11 296.69 L 132.53 288.91 L 142.95 290.05 L 153.37 236.07 L 163.80 198.55 L 174.22 168.13 L 184.64 254.83 L 195.06 233.17 L 205.48 245.90 L 215.90 258.71 L 226.33 293.71 L 236.75 259.71 L 247.17 225.47 L 257.59 243.31 L 268.01 278.39 L 278.43 265.27 L 288.86 295.39 L 299.28 309.58 L 309.70 305.99 L 320.12 310.95 L 330.54 297.45 L 340.96 295.09 L 351.39 293.87 L 361.81 287.46 L 372.23 253.38 L 382.65 288.22 L 393.07 266.64 L 403.49 279.46 L 413.92 266.03 L 424.34 222.49 L 434.76 245.75 L 445.18 247.43 L 455.60 259.32 L 466.02 297.76 L 476.45 309.80 L 486.87 286.01 L 497.29 296.54 L 507.71 271.60 L 518.13 278.85 L 528.55 256.96 L 538.98 123.98 L 549.40 175.75 L 559.82 212.66 L 570.24 109.03 L 580.66 196.19 L 591.08 336.57 L 601.51 309.88 L 611.93 285.33 L 622.35 232.33 L 632.77 267.94 L 643.19 285.48 L 653.61 299.36 L 664.04 266.80 L 674.46 256.12 L 684.88 236.53 L 695.30 192.98 L 705.72 135.80 L 716.14 183.68 L 726.57 184.67 L 736.99 190.93 L 747.41 255.59 L 757.83 294.63 L 768.25 209.53 L 778.67 237.06 L 789.10 167.36 L 799.52 60.00 L 809.94 70.45 L 820.36 66.18 L 830.78 146.17 L 841.20 277.24 L 851.63 326.96 L 862.05 337.79 L 872.47 375.00 L 882.89 333.06 L 893.31 308.20 L 903.73 290.89 L 914.16 264.74 L 924.58 247.28 L 935.00 278.92" fill="none" stroke="#69a7ff" stroke-width="4" stroke-linecap="round" stroke-linejoin="round"/>
<circle cx="935.00" cy="278.92" r="6" fill="#69a7ff"/>
</svg>