<svg xmlns="http://www.w3.org/2000/svg" width="960" height="430" viewBox="0 0 960 430" role="img" aria-label="Composite score history">
<rect width="100%" height="100%" fill="#0b1020" rx="20"/>
<text x="70" y="32" fill="#f5f7fb" font-family="Inter, Arial, sans-serif" font-size="24" font-weight="700">Composite score history</text>
<text x="70" y="52" fill="#93a4c3" font-family="Inter, Arial, sans-serif" font-size="13">Trailing 52 sessions through 2025-11-05</text>
<line x1="70" x2="935" y1="375.00" y2="375.00" stroke="#27314e" stroke-width="1"/>
<text x="58" y="379.00" text-anchor="end" fill="#93a4c3" font-family="Inter, Arial, sans-serif" font-size="12">5</text>
<line x1="70" x2="935" y1="312.00" y2="312.00" stroke="#27314e" stroke-width="1"/>
<text x="58" y="316.00" text-anchor="end" fill="#93a4c3" font-family="Inter, Arial, sans-serif" font-size="12">11</text>
<line x1="70" x2="935" y1="249.00" y2="249.00" stroke="#27314e" stroke-width="1"/>
<text x="58" y="253.00" text-anchor="end" fill="#93a4c3" font-family="Inter, Arial, sans-serif" font-size="12">17</text>
<line x1="70" x2="935" y1="186.00" y2="186.00" stroke="#27314e" stroke-width="1"/>
<text x="58" y="190.00" text-anchor="end" fill="#93a4c3" font-family="Inter, Arial, sans-serif" font-size="12">23</text>
<line x1="70" x2="935" y1="123.00" y2="123.00" stroke="#27314e" stroke-width="1"/>
<text x="58" y="127.00" text-anchor="end" fill="#93a4c3" font-family="Inter, Arial, sans-serif" font-size="12">29</text>
<line x1="70" x2="935" y1="60.00" y2="60.00" stroke="#27314e" stroke-width="1"/>
<text x="58" y="64.00" text-anchor="end" fill="#93a4c3" font-family="Inter, Arial, sans-serif" font-size="12">35</text>
<text x="70.00" y="412" text-anchor="middle" fill="#93a4c3" font-family="Inter, Arial, sans-serif" font-size="12">2025-08-22</text>
<text x="510.98" y="412" text-anchor="middle" fill="#93a4c3" font-family="Inter, Arial, sans-serif" font-size="12">2025-09-30</text>
<text x="935.00" y="412" text-anchor="middle" fill="#93a4c3" font-family="Inter, Arial, sans-serif" font-size="12">2025-11-05</text>
<path d="M 70.00 286.54 L 86.96 222.25 L 103.92 269.75 L 120.88 273.77 L 137.84 294.35 L 154.80 268.59 L 171.76 221.19 L 188.73 245.90 L 205.69 294.46 L 222.65 276.30 L 239.61 318.00 L 256.57 337.63 L 273.53 332.67 L 290.49 339.53 L 307.45 320.85 L 324.41 317.57 L 341.37 315.88 L 358.33 307.02 L 375.29 259.83 L 392.25 308.07 L 409.22 278.20 L 426.18 295.93 L 443.14 277.35 L 460.10 217.08 L 477.06 249.27 L 494.02 251.60 L 510.98 268.06 L 527.94 321.27 L 544.90 337.95 L 561.86 305.01 L 578.82 319.58 L 595.78 285.06 L 612.75 295.09 L 629.71 264.79 L 646.67 80.69 L 663.63 152.37 L 680.59 203.46 L 697.55 60.00 L 714.51 180.66 L 731.47 375.00 L 748.43 338.05 L 765.39 304.06 L 782.35 230.70 L 799.31 279.99 L 816.27 304.27 L 833.24 323.49 L 850.20 278.41 L 867.16 263.63 L 884.12 236.50 L 901.08 176.22 L 918.04 97.05 L 935.00 163.35" fill="none" stroke="#69a7ff" stroke-width="4" stroke-linecap="round" stroke-linejoin="round"/>
<circle cx="935.00" cy="163.35" r="6" fill="#69a7ff"/>
</svg>