<svg xmlns="http://www.w3.org/2000/svg" width="960" height="430" viewBox="0 0 960 430" role="img" aria-label="Composite score history">
<rect width="100%" height="100%" fill="#0b1020" rx="20"/>
<text x="70" y="32" fill="#f5f7fb" font-family="Inter, Arial, sans-serif" font-size="24" font-weight="700">Composite score history</text>
<text x="70" y="52" fill="#93a4c3" font-family="Inter, Arial, sans-serif" font-size="13">Trailing 72 sessions through 2025-11-05</text>
<line x1="70" x2="935" y1="375.00" y2="375.00" stroke="#27314e" stroke-width="1"/>
<text x="58" y="379.00" text-anchor="end" fill="#93a4c3" font-family="Inter, Arial, sans-serif" font-size="12">5</text>
<line x1="70" x2="935" y1="312.00" y2="312.00" stroke="#27314e" stroke-width="1"/>
<text x="58" y="316.00" text-anchor="end" fill="#93a4c3" font-family="Inter, Arial, sans-serif" font-size="12">11</text>
<line x1="70" x2="935" y1="249.00" y2="249.00" stroke="#27314e" stroke-width="1"/>
<text x="58" y="253.00" text-anchor="end" fill="#93a4c3" font-family="Inter, Arial, sans-serif" font-size="12">17</text>
<line x1="70" x2="935" y1="186.00" y2="186.00" stroke="#27314e" stroke-width="1"/>
<text x="58" y="190.00" text-anchor="end" fill="#93a4c3" font-family="Inter, Arial, sans-serif" font-size="12">23</text>
<line x1="70" x2="935" y1="123.00" y2="123.00" stroke="#27314e" stroke-width="1"/>
<text x="58" y="127.00" text-anchor="end" fill="#93a4c3" font-family="Inter, Arial, sans-serif" font-size="12">29</text>
<line x1="70" x2="935" y1="60.00" y2="60.00" stroke="#27314e" stroke-width="1"/>
<text x="58" y="64.00" text-anchor="end" fill="#93a4c3" font-family="Inter, Arial, sans-serif" font-size="12">35</text>
<text x="70.00" y="412" text-anchor="middle" fill="#93a4c3" font-family="Inter, Arial, sans-serif" font-size="12">2025-07-25</text>
<text x="508.59" y="412" text-anchor="middle" fill="#93a4c3" font-family="Inter, Arial, sans-serif" font-size="12">2025-09-16</text>
<text x="935.00" y="412" text-anchor="middle" fill="#93a4c3" font-family="Inter, Arial, sans-serif" font-size="12">2025-11-05</text>
<path d="M 70.00 266.16 L 82.18 264.90 L 94.37 229.32 L 106.55 213.38 L 118.73 180.24 L 130.92 73.72 L 143.10 196.28 L 155.28 187.73 L 167.46 250.44 L 179.65 276.19 L 191.83 268.80 L 204.01 229.96 L 216.20 338.37 L 228.38 334.46 L 240.56 319.79 L 252.75 309.02 L 264.93 310.61 L 277.11 235.87 L 289.30 183.93 L 301.48 141.81 L 313.66 261.84 L 325.85 231.86 L 338.03 249.49 L 350.21 267.22 L 362.39 315.67 L 374.58 268.59 L 386.76 221.19 L 398.94 245.90 L 411.13 294.46 L 423.31 276.30 L 435.49 318.00 L 447.68 337.63 L 459.86 332.67 L 472.04 339.53 L 484.23 320.85 L 496.41 317.57 L 508.59 315.88 L 520.77 307.02 L 532.96 259.83 L 545.14 308.07 L 557.32 278.20 L 569.51 295.93 L 581.69 277.35 L 593.87 217.08 L 606.06 249.27 L 618.24 251.60 L 630.42 268.06 L 642.61 321.27 L 654.79 337.95 L 666.97 305.01 L 679.15 319.58 L 691.34 285.06 L 703.52 295.09 L 715.70 264.79 L 727.89 80.69 L 740.07 152.37 L 752.25 203.46 L 764.44 60.00 L 776.62 180.66 L 788.80 375.00 L 800.99 338.05 L 813.17 304.06 L 825.35 230.70 L 837.54 279.99 L 849.72 304.27 L 861.90 323.49 L 874.08 278.41 L 886.27 263.63 L 898.45 236.50 L 910.63 176.22 L 922.82 97.05 L 935.00 163.35" fill="none" stroke="#69a7ff" stroke-width="4" stroke-linecap="round" stroke-linejoin="round"/>
<circle cx="935.00" cy="163.35" r="6" fill="#69a7ff"/>
</svg>