<svg xmlns="http://www.w3.org/2000/svg" width="960" height="430" viewBox="0 0 960 430" role="img" aria-label="Composite score history">
<rect width="100%" height="100%" fill="#0b1020" rx="20"/>
<text x="70" y="32" fill="#f5f7fb" font-family="Inter, Arial, sans-serif" font-size="24" font-weight="700">Composite score history</text>
<text x="70" y="52" fill="#93a4c3" font-family="Inter, Arial, sans-serif" font-size="13">Trailing 76 sessions through 2025-11-05</text>
<line x1="70" x2="935" y1="375.00" y2="375.00" stroke="#27314e" stroke-width="1"/>
<text x="58" y="379.00" text-anchor="end" fill="#93a4c3" font-family="Inter, Arial, sans-serif" font-size="12">5</text>
<line x1="70" x2="935" y1="312.00" y2="312.00" stroke="#27314e" stroke-width="1"/>
<text x="58" y="316.00" text-anchor="end" fill="#93a4c3" font-family="Inter, Arial, sans-serif" font-size="12">11</text>
<line x1="70" x2="935" y1="249.00" y2="249.00" stroke="#27314e" stroke-width="1"/>
<text x="58" y="253.00" text-anchor="end" fill="#93a4c3" font-family="Inter, Arial, sans-serif" font-size="12">17</text>
<line x1="70" x2="935" y1="186.00" y2="186.00" stroke="#27314e" stroke-width="1"/>
<text x="58" y="190.00" text-anchor="end" fill="#93a4c3" font-family="Inter, Arial, sans-serif" font-size="12">23</text>
<line x1="70" x2="935" y1="123.00" y2="123.00" stroke="#27314e" stroke-width="1"/>
<text x="58" y="127.00" text-anchor="end" fill="#93a4c3" font-family="Inter, Arial, sans-serif" font-size="12">29</text>
<line x1="70" x2="935" y1="60.00" y2="60.00" stroke="#27314e" stroke-width="1"/>
<text x="58" y="64.00" text-anchor="end" fill="#93a4c3" font-family="Inter, Arial, sans-serif" font-size="12">35</text>
<text x="70.00" y="412" text-anchor="middle" fill="#93a4c3" font-family="Inter, Arial, sans-serif" font-size="12">2025-07-21</text>
<text x="508.27" y="412" text-anchor="middle" fill="#93a4c3" font-family="Inter, Arial, sans-serif" font-size="12">2025-09-12</text>
<text x="935.00" y="412" text-anchor="middle" fill="#93a4c3" font-family="Inter, Arial, sans-serif" font-size="12">2025-11-05</text>
<path d="M 70.00 253.50 L 81.53 260.89 L 93.07 279.15 L 104.60 251.28 L 116.13 275.67 L 127.67 275.35 L 139.20 267.43 L 150.73 212.22 L 162.27 205.57 L 173.80 73.72 L 185.33 196.28 L 196.87 187.73 L 208.40 250.44 L 219.93 276.19 L 231.47 268.80 L 243.00 229.96 L 254.53 338.37 L 266.07 334.46 L 277.60 319.79 L 289.13 309.02 L 300.67 310.61 L 312.20 235.87 L 323.73 183.93 L 335.27 141.81 L 346.80 261.84 L 358.33 231.86 L 369.87 249.49 L 381.40 267.22 L 392.93 315.67 L 404.47 268.59 L 416.00 221.19 L 427.53 245.90 L 439.07 294.46 L 450.60 276.30 L 462.13 318.00 L 473.67 337.63 L 485.20 332.67 L 496.73 339.53 L 508.27 320.85 L 519.80 317.57 L 531.33 315.88 L 542.87 307.02 L 554.40 259.83 L 565.93 308.07 L 577.47 278.20 L 589.00 295.93 L 600.53 277.35 L 612.07 217.08 L 623.60 249.27 L 635.13 251.60 L 646.67 268.06 L 658.20 321.27 L 669.73 337.95 L 681.27 305.01 L 692.80 319.58 L 704.33 285.06 L 715.87 295.09 L 727.40 264.79 L 738.93 80.69 L 750.47 152.37 L 762.00 203.46 L 773.53 60.00 L 785.07 180.66 L 796.60 375.00 L 808.13 338.05 L 819.67 304.06 L 831.20 230.70 L 842.73 279.99 L 854.27 304.27 L 865.80 323.49 L 877.33 278.41 L 888.87 263.63 L 900.40 236.50 L 911.93 176.22 L 923.47 97.05 L 935.00 163.35" fill="none" stroke="#69a7ff" stroke-width="4" stroke-linecap="round" stroke-linejoin="round"/>
<circle cx="935.00" cy="163.35" r="6" fill="#69a7ff"/>
</svg>