<svg xmlns="http://www.w3.org/2000/svg" width="960" height="430" viewBox="0 0 960 430" role="img" aria-label="Composite score history">
<rect width="100%" height="100%" fill="#0b1020" rx="20"/>
<text x="70" y="32" fill="#f5f7fb" font-family="Inter, Arial, sans-serif" font-size="24" font-weight="700">Composite score history</text>
<text x="70" y="52" fill="#93a4c3" font-family="Inter, Arial, sans-serif" font-size="13">Trailing 74 sessions through 2025-11-05</text>
<line x1="70" x2="935" y1="375.00" y2="375.00" stroke="#27314e" stroke-width="1"/>
<text x="58" y="379.00" text-anchor="end" fill="#93a4c3" font-family="Inter, Arial, sans-serif" font-size="12">5</text>
<line x1="70" x2="935" y1="312.00" y2="312.00" stroke="#27314e" stroke-width="1"/>
<text x="58" y="316.00" text-anchor="end" fill="#93a4c3" font-family="Inter, Arial, sans-serif" font-size="12">11</text>
<line x1="70" x2="935" y1="249.00" y2="249.00" stroke="#27314e" stroke-width="1"/>
<text x="58" y="253.00" text-anchor="end" fill="#93a4c3" font-family="Inter, Arial, sans-serif" font-size="12">17</text>
<line x1="70" x2="935" y1="186.00" y2="186.00" stroke="#27314e" stroke-width="1"/>
<text x="58" y="190.00" text-anchor="end" fill="#93a4c3" font-family="Inter, Arial, sans-serif" font-size="12">23</text>
<line x1="70" x2="935" y1="123.00" y2="123.00" stroke="#27314e" stroke-width="1"/>
<text x="58" y="127.00" text-anchor="end" fill="#93a4c3" font-family="Inter, Arial, sans-serif" font-size="12">29</text>
<line x1="70" x2="935" y1="60.00" y2="60.00" stroke="#27314e" stroke-width="1"/>
<text x="58" y="64.00" text-anchor="end" fill="#93a4c3" font-family="Inter, Arial, sans-serif" font-size="12">35</text>
<text x="70.00" y="412" text-anchor="middle" fill="#93a4c3" font-family="Inter, Arial, sans-serif" font-size="12">2025-07-23</text>
<text x="508.42" y="412" text-anchor="middle" fill="#93a4c3" font-family="Inter, Arial, sans-serif" font-size="12">2025-09-15</text>
<text x="935.00" y="412" text-anchor="middle" fill="#93a4c3" font-family="Inter, Arial, sans-serif" font-size="12">2025-11-05</text>
<path d="M 70.00 269.54 L 81.85 215.07 L 93.70 250.01 L 105.55 249.70 L 117.40 237.56 L 129.25 212.22 L 141.10 205.57 L 152.95 73.72 L 164.79 196.28 L 176.64 187.73 L 188.49 250.44 L 200.34 276.19 L 212.19 268.80 L 224.04 229.96 L 235.89 338.37 L 247.74 334.46 L 259.59 319.79 L 271.44 309.02 L 283.29 310.61 L 295.14 235.87 L 306.99 183.93 L 318.84 141.81 L 330.68 261.84 L 342.53 231.86 L 354.38 249.49 L 366.23 267.22 L 378.08 315.67 L 389.93 268.59 L 401.78 221.19 L 413.63 245.90 L 425.48 294.46 L 437.33 276.30 L 449.18 318.00 L 461.03 337.63 L 472.88 332.67 L 484.73 339.53 L 496.58 320.85 L 508.42 317.57 L 520.27 315.88 L 532.12 307.02 L 543.97 259.83 L 555.82 308.07 L 567.67 278.20 L 579.52 295.93 L 591.37 277.35 L 603.22 217.08 L 615.07 249.27 L 626.92 251.60 L 638.77 268.06 L 650.62 321.27 L 662.47 337.95 L 674.32 305.01 L 686.16 319.58 L 698.01 285.06 L 709.86 295.09 L 721.71 264.79 L 733.56 80.69 L 745.41 152.37 L 757.26 203.46 L 769.11 60.00 L 780.96 180.66 L 792.81 375.00 L 804.66 338.05 L 816.51 304.06 L 828.36 230.70 L 840.21 279.99 L 852.05 304.27 L 863.90 323.49 L 875.75 278.41 L 887.60 263.63 L 899.45 236.50 L 911.30 176.22 L 923.15 97.05 L 935.00 163.35" fill="none" stroke="#69a7ff" stroke-width="4" stroke-linecap="round" stroke-linejoin="round"/>
<circle cx="935.00" cy="163.35" r="6" fill="#69a7ff"/>
</svg>