<svg xmlns="http://www.w3.org/2000/svg" width="960" height="430" viewBox="0 0 960 430" role="img" aria-label="Composite score history">
<rect width="100%" height="100%" fill="#0b1020" rx="20"/>
<text x="70" y="32" fill="#f5f7fb" font-family="Inter, Arial, sans-serif" font-size="24" font-weight="700">Composite score history</text>
<text x="70" y="52" fill="#93a4c3" font-family="Inter, Arial, sans-serif" font-size="13">Trailing 69 sessions through 2025-11-05</text>
<line x1="70" x2="935" y1="375.00" y2="375.00" stroke="#27314e" stroke-width="1"/>
<text x="58" y="379.00" text-anchor="end" fill="#93a4c3" font-family="Inter, Arial, sans-serif" font-size="12">5</text>
<line x1="70" x2="935" y1="312.00" y2="312.00" stroke="#27314e" stroke-width="1"/>
<text x="58" y="316.00" text-anchor="end" fill="#93a4c3" font-family="Inter, Arial, sans-serif" font-size="12">11</text>
<line x1="70" x2="935" y1="249.00" y2="249.00" stroke="#27314e" stroke-width="1"/>
<text x="58" y="253.00" text-anchor="end" fill="#93a4c3" font-family="Inter, Arial, sans-serif" font-size="12">17</text>
<line x1="70" x2="935" y1="186.00" y2="186.00" stroke="#27314e" stroke-width="1"/>
<text x="58" y="190.00" text-anchor="end" fill="#93a4c3" font-family="Inter, Arial, sans-serif" font-size="12">23</text>
<line x1="70" x2="935" y1="123.00" y2="123.00" stroke="#27314e" stroke-width="1"/>
<text x="58" y="127.00" text-anchor="end" fill="#93a4c3" font-family="Inter, Arial, sans-serif" font-size="12">29</text>
<line x1="70" x2="935" y1="60.00" y2="60.00" stroke="#27314e" stroke-width="1"/>
<text x="58" y="64.00" text-anchor="end" fill="#93a4c3" font-family="Inter, Arial, sans-serif" font-size="12">35</text>
<text x="70.00" y="412" text-anchor="middle" fill="#93a4c3" font-family="Inter, Arial, sans-serif" font-size="12">2025-07-30</text>
<text x="502.50" y="412" text-anchor="middle" fill="#93a4c3" font-family="Inter, Arial, sans-serif" font-size="12">2025-09-17</text>
<text x="935.00" y="412" text-anchor="middle" fill="#93a4c3" font-family="Inter, Arial, sans-serif" font-size="12">2025-11-05</text>
<path d="M 70.00 258.04 L 82.72 219.51 L 95.44 100.01 L 108.16 222.88 L 120.88 189.31 L 133.60 250.44 L 146.32 276.19 L 159.04 268.80 L 171.76 229.96 L 184.49 338.37 L 197.21 334.46 L 209.93 319.79 L 222.65 309.02 L 235.37 310.61 L 248.09 235.87 L 260.81 183.93 L 273.53 141.81 L 286.25 261.84 L 298.97 231.86 L 311.69 249.49 L 324.41 267.22 L 337.13 315.67 L 349.85 268.59 L 362.57 221.19 L 375.29 245.90 L 388.01 294.46 L 400.74 276.30 L 413.46 318.00 L 426.18 337.63 L 438.90 332.67 L 451.62 339.53 L 464.34 320.85 L 477.06 317.57 L 489.78 315.88 L 502.50 307.02 L 515.22 259.83 L 527.94 308.07 L 540.66 278.20 L 553.38 295.93 L 566.10 277.35 L 578.82 217.08 L 591.54 249.27 L 604.26 251.60 L 616.99 268.06 L 629.71 321.27 L 642.43 337.95 L 655.15 305.01 L 667.87 319.58 L 680.59 285.06 L 693.31 295.09 L 706.03 264.79 L 718.75 80.69 L 731.47 152.37 L 744.19 203.46 L 756.91 60.00 L 769.63 180.66 L 782.35 375.00 L 795.07 338.05 L 807.79 304.06 L 820.51 230.70 L 833.24 279.99 L 845.96 304.27 L 858.68 323.49 L 871.40 278.41 L 884.12 263.63 L 896.84 236.50 L 909.56 176.22 L 922.28 97.05 L 935.00 163.35" fill="none" stroke="#69a7ff" stroke-width="4" stroke-linecap="round" stroke-linejoin="round"/>
<circle cx="935.00" cy="163.35" r="6" fill="#69a7ff"/>
</svg>