<svg xmlns="http://www.w3.org/2000/svg" width="960" height="430" viewBox="0 0 960 430" role="img" aria-label="Composite score history">
<rect width="100%" height="100%" fill="#0b1020" rx="20"/>
<text x="70" y="32" fill="#f5f7fb" font-family="Inter, Arial, sans-serif" font-size="24" font-weight="700">Composite score history</text>
<text x="70" y="52" fill="#93a4c3" font-family="Inter, Arial, sans-serif" font-size="13">Trailing 80 sessions through 2025-11-05</text>
<line x1="70" x2="935" y1="375.00" y2="375.00" stroke="#27314e" stroke-width="1"/>
<text x="58" y="379.00" text-anchor="end" fill="#93a4c3" font-family="Inter, Arial, sans-serif" font-size="12">12</text>
<line x1="70" x2="935" y1="312.00" y2="312.00" stroke="#27314e" stroke-width="1"/>
<text x="58" y="316.00" text-anchor="end" fill="#93a4c3" font-family="Inter, Arial, sans-serif" font-size="12">16</text>
<line x1="70" x2="935" y1="249.00" y2="249.00" stroke="#27314e" stroke-width="1"/>
<text x="58" y="253.00" text-anchor="end" fill="#93a4c3" font-family="Inter, Arial, sans-serif" font-size="12">21</text>
<line x1="70" x2="935" y1="186.00" y2="186.00" stroke="#27314e" stroke-width="1"/>
<text x="58" y="190.00" text-anchor="end" fill="#93a4c3" font-family="Inter, Arial, sans-serif" font-size="12">26</text>
<line x1="70" x2="935" y1="123.00" y2="123.00" stroke="#27314e" stroke-width="1"/>
<text x="58" y="127.00" text-anchor="end" fill="#93a4c3" font-family="Inter, Arial, sans-serif" font-size="12">30</text>
<line x1="70" x2="935" y1="60.00" y2="60.00" stroke="#27314e" stroke-width="1"/>
<text x="58" y="64.00" text-anchor="end" fill="#93a4c3" font-family="Inter, Arial, sans-serif" font-size="12">35</text>
<text x="70.00" y="412" text-anchor="middle" fill="#93a4c3" font-family="Inter, Arial, sans-serif" font-size="12">2025-07-15</text>
<text x="507.97" y="412" text-anchor="middle" fill="#93a4c3" font-family="Inter, Arial, sans-serif" font-size="12">2025-09-10</text>
<text x="935.00" y="412" text-anchor="middle" fill="#93a4c3" font-family="Inter, Arial, sans-serif" font-size="12">2025-11-05</text>
<path d="M 70.00 294.35 L 80.95 294.08 L 91.90 262.58 L 102.85 292.99 L 113.80 302.09 L 124.75 316.21 L 135.70 329.52 L 146.65 314.31 L 157.59 308.88 L 168.54 291.63 L 179.49 293.81 L 190.44 253.62 L 201.39 247.23 L 212.34 77.79 L 223.29 235.29 L 234.24 224.29 L 245.19 304.94 L 256.14 337.66 L 267.09 246.28 L 278.04 255.25 L 288.99 339.02 L 299.94 348.12 L 310.89 325.31 L 321.84 348.25 L 332.78 342.01 L 343.73 286.20 L 354.68 219.40 L 365.63 165.23 L 376.58 310.64 L 387.53 281.04 L 398.48 274.80 L 409.43 281.04 L 420.38 318.65 L 431.33 328.29 L 442.28 267.33 L 453.23 299.10 L 464.18 350.83 L 475.13 338.20 L 486.08 373.51 L 497.03 365.77 L 507.97 366.58 L 518.92 375.00 L 529.87 341.73 L 540.82 328.56 L 551.77 340.11 L 562.72 342.14 L 573.67 294.08 L 584.62 337.80 L 595.57 300.46 L 606.52 337.80 L 617.47 320.28 L 628.42 262.03 L 639.37 303.45 L 650.32 306.43 L 661.27 311.46 L 672.22 358.71 L 683.16 360.61 L 694.11 338.34 L 705.06 353.55 L 716.01 336.17 L 726.96 340.78 L 737.91 313.36 L 748.86 86.61 L 759.81 178.67 L 770.76 244.52 L 781.71 60.00 L 792.66 215.19 L 803.61 370.52 L 814.56 371.06 L 825.51 359.52 L 836.46 223.61 L 847.41 278.06 L 858.35 303.72 L 869.30 320.42 L 880.25 243.98 L 891.20 279.69 L 902.15 262.85 L 913.10 209.49 L 924.05 107.66 L 935.00 192.92" fill="none" stroke="#69a7ff" stroke-width="4" stroke-linecap="round" stroke-linejoin="round"/>
<circle cx="935.00" cy="192.92" r="6" fill="#69a7ff"/>
<text x="927.00" y="180.92" text-anchor="end" fill="#f5f7fb" font-family="Inter, Arial, sans-serif" font-size="12" font-weight="600">25.09</text>
</svg>