<svg xmlns="http://www.w3.org/2000/svg" width="960" height="430" viewBox="0 0 960 430" role="img" aria-label="Composite score history">
<rect width="100%" height="100%" fill="#0b1020" rx="20"/>
<text x="70" y="32" fill="#f5f7fb" font-family="Inter, Arial, sans-serif" font-size="24" font-weight="700">Composite score history</text>
<text x="70" y="52" fill="#93a4c3" font-family="Inter, Arial, sans-serif" font-size="13">Trailing 77 sessions through 2025-11-05</text>
<line x1="70" x2="935" y1="375.00" y2="375.00" stroke="#27314e" stroke-width="1"/>
<text x="58" y="379.00" text-anchor="end" fill="#93a4c3" font-family="Inter, Arial, sans-serif" font-size="12">5</text>
<line x1="70" x2="935" y1="312.00" y2="312.00" stroke="#27314e" stroke-width="1"/>
<text x="58" y="316.00" text-anchor="end" fill="#93a4c3" font-family="Inter, Arial, sans-serif" font-size="12">11</text>
<line x1="70" x2="935" y1="249.00" y2="249.00" stroke="#27314e" stroke-width="1"/>
<text x="58" y="253.00" text-anchor="end" fill="#93a4c3" font-family="Inter, Arial, sans-serif" font-size="12">17</text>
<line x1="70" x2="935" y1="186.00" y2="186.00" stroke="#27314e" stroke-width="1"/>
<text x="58" y="190.00" text-anchor="end" fill="#93a4c3" font-family="Inter, Arial, sans-serif" font-size="12">23</text>
<line x1="70" x2="935" y1="123.00" y2="123.00" stroke="#27314e" stroke-width="1"/>
<text x="58" y="127.00" text-anchor="end" fill="#93a4c3" font-family="Inter, Arial, sans-serif" font-size="12">29</text>
<line x1="70" x2="935" y1="60.00" y2="60.00" stroke="#27314e" stroke-width="1"/>
<text x="58" y="64.00" text-anchor="end" fill="#93a4c3" font-family="Inter, Arial, sans-serif" font-size="12">35</text>
<text x="70.00" y="412" text-anchor="middle" fill="#93a4c3" font-family="Inter, Arial, sans-serif" font-size="12">2025-07-18</text>
<text x="502.50" y="412" text-anchor="middle" fill="#93a4c3" font-family="Inter, Arial, sans-serif" font-size="12">2025-09-11</text>
<text x="935.00" y="412" text-anchor="middle" fill="#93a4c3" font-family="Inter, Arial, sans-serif" font-size="12">2025-11-05</text>
<path d="M 70.00 251.70 L 81.38 254.76 L 92.76 263.74 L 104.14 295.51 L 115.53 272.92 L 126.91 292.03 L 138.29 275.35 L 149.67 267.43 L 161.05 212.22 L 172.43 205.57 L 183.82 73.72 L 195.20 196.28 L 206.58 187.73 L 217.96 250.44 L 229.34 276.19 L 240.72 268.80 L 252.11 229.96 L 263.49 338.37 L 274.87 334.46 L 286.25 319.79 L 297.63 309.02 L 309.01 310.61 L 320.39 235.87 L 331.78 183.93 L 343.16 141.81 L 354.54 261.84 L 365.92 231.86 L 377.30 249.49 L 388.68 267.22 L 400.07 315.67 L 411.45 268.59 L 422.83 221.19 L 434.21 245.90 L 445.59 294.46 L 456.97 276.30 L 468.36 318.00 L 479.74 337.63 L 491.12 332.67 L 502.50 339.53 L 513.88 320.85 L 525.26 317.57 L 536.64 315.88 L 548.03 307.02 L 559.41 259.83 L 570.79 308.07 L 582.17 278.20 L 593.55 295.93 L 604.93 277.35 L 616.32 217.08 L 627.70 249.27 L 639.08 251.60 L 650.46 268.06 L 661.84 321.27 L 673.22 337.95 L 684.61 305.01 L 695.99 319.58 L 707.37 285.06 L 718.75 295.09 L 730.13 264.79 L 741.51 80.69 L 752.89 152.37 L 764.28 203.46 L 775.66 60.00 L 787.04 180.66 L 798.42 375.00 L 809.80 338.05 L 821.18 304.06 L 832.57 230.70 L 843.95 279.99 L 855.33 304.27 L 866.71 323.49 L 878.09 278.41 L 889.47 263.63 L 900.86 236.50 L 912.24 176.22 L 923.62 97.05 L 935.00 163.35" fill="none" stroke="#69a7ff" stroke-width="4" stroke-linecap="round" stroke-linejoin="round"/>
<circle cx="935.00" cy="163.35" r="6" fill="#69a7ff"/>
</svg>