<svg xmlns="http://www.w3.org/2000/svg" width="960" height="430" viewBox="0 0 960 430">
<rect width="100%" height="100%" fill="#0b1020" rx="20"/>
<text x="70" y="32" fill="#f5f7fb" font-size="24" font-family="Inter, Arial, sans-serif" font-weight="700">Composite score history</text>
<text x="70" y="52" fill="#93a4c3" font-size="13" font-family="Inter, Arial, sans-serif">Trailing 30 sessions through 2025-08-27</text>
<line x1="70" x2="935" y1="375.00" y2="375.00" stroke="#27314e" stroke-width="1"/>
<text x="58" y="379.00" text-anchor="end" fill="#93a4c3" font-size="12" font-family="Inter, Arial, sans-serif">9</text>
<line x1="70" x2="935" y1="312.00" y2="312.00" stroke="#27314e" stroke-width="1"/>
<text x="58" y="316.00" text-anchor="end" fill="#93a4c3" font-size="12" font-family="Inter, Arial, sans-serif">14</text>
<line x1="70" x2="935" y1="249.00" y2="249.00" stroke="#27314e" stroke-width="1"/>
<text x="58" y="253.00" text-anchor="end" fill="#93a4c3" font-size="12" font-family="Inter, Arial, sans-serif">19</text>
<line x1="70" x2="935" y1="186.00" y2="186.00" stroke="#27314e" stroke-width="1"/>
<text x="58" y="190.00" text-anchor="end" fill="#93a4c3" font-size="12" font-family="Inter, Arial, sans-serif">24</text>
<line x1="70" x2="935" y1="123.00" y2="123.00" stroke="#27314e" stroke-width="1"/>
<text x="58" y="127.00" text-anchor="end" fill="#93a4c3" font-size="12" font-family="Inter, Arial, sans-serif">29</text>
<line x1="70" x2="935" y1="60.00" y2="60.00" stroke="#27314e" stroke-width="1"/>
<text x="58" y="64.00" text-anchor="end" fill="#93a4c3" font-size="12" font-family="Inter, Arial, sans-serif">34</text>
<text x="70.00" y="412" text-anchor="middle" fill="#93a4c3" font-size="12" font-family="Inter, Arial, sans-serif">2025-07-17</text>
<text x="517.41" y="412" text-anchor="middle" fill="#93a4c3" font-size="12" font-family="Inter, Arial, sans-serif">2025-08-07</text>
<text x="935.00" y="412" text-anchor="middle" fill="#93a4c3" font-size="12" font-family="Inter, Arial, sans-serif">2025-08-27</text>
<path d="M 70.00 262.54 L 99.83 271.21 L 129.66 276.49 L 159.48 286.92 L 189.31 323.74 L 219.14 311.92 L 248.97 319.84 L 278.79 299.99 L 308.62 290.56 L 338.45 224.85 L 368.28 216.93 L 398.10 60.00 L 427.93 205.88 L 457.76 195.70 L 487.59 270.34 L 517.41 300.99 L 547.24 292.20 L 577.07 245.96 L 606.90 375.00 L 636.72 370.35 L 666.55 352.89 L 696.38 340.07 L 726.21 341.95 L 756.03 253.00 L 785.86 191.18 L 815.69 141.04 L 845.52 283.91 L 875.34 248.22 L 905.17 269.20 L 935.00 290.31" fill="none" stroke="#69a7ff" stroke-width="4" stroke-linecap="round" stroke-linejoin="round"/>
<circle cx="935.00" cy="290.31" r="6" fill="#69a7ff"/>
</svg>