<svg xmlns="http://www.w3.org/2000/svg" width="960" height="430" viewBox="0 0 960 430" role="img" aria-label="Composite score history">
<rect width="100%" height="100%" fill="#0b1020" rx="20"/>
<text x="70" y="32" fill="#f5f7fb" font-family="Inter, Arial, sans-serif" font-size="24" font-weight="700">Composite score history</text>
<text x="70" y="52" fill="#93a4c3" font-family="Inter, Arial, sans-serif" font-size="13">Trailing 69 sessions through 2026-02-02</text>
<line x1="70" x2="935" y1="375.00" y2="375.00" stroke="#27314e" stroke-width="1"/>
<text x="58" y="379.00" text-anchor="end" fill="#93a4c3" font-family="Inter, Arial, sans-serif" font-size="12">0</text>
<line x1="70" x2="935" y1="312.00" y2="312.00" stroke="#27314e" stroke-width="1"/>
<text x="58" y="316.00" text-anchor="end" fill="#93a4c3" font-family="Inter, Arial, sans-serif" font-size="12">8</text>
<line x1="70" x2="935" y1="249.00" y2="249.00" stroke="#27314e" stroke-width="1"/>
<text x="58" y="253.00" text-anchor="end" fill="#93a4c3" font-family="Inter, Arial, sans-serif" font-size="12">17</text>
<line x1="70" x2="935" y1="186.00" y2="186.00" stroke="#27314e" stroke-width="1"/>
<text x="58" y="190.00" text-anchor="end" fill="#93a4c3" font-family="Inter, Arial, sans-serif" font-size="12">25</text>
<line x1="70" x2="935" y1="123.00" y2="123.00" stroke="#27314e" stroke-width="1"/>
<text x="58" y="127.00" text-anchor="end" fill="#93a4c3" font-family="Inter, Arial, sans-serif" font-size="12">33</text>
<line x1="70" x2="935" y1="60.00" y2="60.00" stroke="#27314e" stroke-width="1"/>
<text x="58" y="64.00" text-anchor="end" fill="#93a4c3" font-family="Inter, Arial, sans-serif" font-size="12">41</text>
<text x="70.00" y="412" text-anchor="middle" fill="#93a4c3" font-family="Inter, Arial, sans-serif" font-size="12">2025-10-22</text>
<text x="502.50" y="412" text-anchor="middle" fill="#93a4c3" font-family="Inter, Arial, sans-serif" font-size="12">2025-12-11</text>
<text x="935.00" y="412" text-anchor="middle" fill="#93a4c3" font-family="Inter, Arial, sans-serif" font-size="12">2026-02-02</text>
<path d="M 70.00 277.24 L 82.72 235.61 L 95.44 266.11 L 108.16 308.13 L 120.88 317.43 L 133.60 266.80 L 146.32 256.12 L 159.04 236.53 L 171.76 192.98 L 184.49 135.80 L 197.21 183.68 L 209.93 184.67 L 222.65 190.93 L 235.37 255.59 L 248.09 294.63 L 260.81 209.53 L 273.53 237.06 L 286.25 167.36 L 298.97 60.00 L 311.69 70.45 L 324.41 66.18 L 337.13 146.17 L 349.85 277.24 L 362.57 326.96 L 375.29 337.79 L 388.01 375.00 L 400.74 333.06 L 413.46 308.20 L 426.18 290.89 L 438.90 264.74 L 451.62 247.28 L 464.34 278.92 L 477.06 241.33 L 489.78 272.67 L 502.50 307.67 L 515.22 264.05 L 527.94 273.13 L 540.66 273.58 L 553.38 183.07 L 566.10 209.46 L 578.82 304.77 L 591.54 329.32 L 604.26 342.21 L 616.99 374.85 L 629.71 360.82 L 642.43 332.91 L 655.15 310.11 L 667.87 254.37 L 680.59 241.41 L 693.31 250.25 L 706.03 274.96 L 718.75 271.37 L 731.47 287.00 L 744.19 289.90 L 756.91 256.43 L 769.63 234.08 L 782.35 237.06 L 795.07 246.21 L 807.79 211.90 L 820.51 84.17 L 833.24 172.78 L 845.96 214.11 L 858.68 200.15 L 871.40 248.88 L 884.12 293.33 L 896.84 261.99 L 909.56 228.59 L 922.28 226.46 L 935.00 237.44" fill="none" stroke="#69a7ff" stroke-width="4" stroke-linecap="round" stroke-linejoin="round"/>
<circle cx="935.00" cy="237.44" r="6" fill="#69a7ff"/>
</svg>