<svg xmlns="http://www.w3.org/2000/svg" width="960" height="430" viewBox="0 0 960 430" role="img" aria-label="Composite score history">
<rect width="100%" height="100%" fill="#0b1020" rx="20"/>
<text x="70" y="32" fill="#f5f7fb" font-family="Inter, Arial, sans-serif" font-size="24" font-weight="700">Composite score history</text>
<text x="70" y="52" fill="#93a4c3" font-family="Inter, Arial, sans-serif" font-size="13">Trailing 85 sessions through 2026-02-02</text>
<line x1="70" x2="935" y1="375.00" y2="375.00" stroke="#27314e" stroke-width="1"/>
<text x="58" y="379.00" text-anchor="end" fill="#93a4c3" font-family="Inter, Arial, sans-serif" font-size="12">0</text>
<line x1="70" x2="935" y1="312.00" y2="312.00" stroke="#27314e" stroke-width="1"/>
<text x="58" y="316.00" text-anchor="end" fill="#93a4c3" font-family="Inter, Arial, sans-serif" font-size="12">8</text>
<line x1="70" x2="935" y1="249.00" y2="249.00" stroke="#27314e" stroke-width="1"/>
<text x="58" y="253.00" text-anchor="end" fill="#93a4c3" font-family="Inter, Arial, sans-serif" font-size="12">17</text>
<line x1="70" x2="935" y1="186.00" y2="186.00" stroke="#27314e" stroke-width="1"/>
<text x="58" y="190.00" text-anchor="end" fill="#93a4c3" font-family="Inter, Arial, sans-serif" font-size="12">25</text>
<line x1="70" x2="935" y1="123.00" y2="123.00" stroke="#27314e" stroke-width="1"/>
<text x="58" y="127.00" text-anchor="end" fill="#93a4c3" font-family="Inter, Arial, sans-serif" font-size="12">33</text>
<line x1="70" x2="935" y1="60.00" y2="60.00" stroke="#27314e" stroke-width="1"/>
<text x="58" y="64.00" text-anchor="end" fill="#93a4c3" font-family="Inter, Arial, sans-serif" font-size="12">41</text>
<text x="70.00" y="412" text-anchor="middle" fill="#93a4c3" font-family="Inter, Arial, sans-serif" font-size="12">2025-09-29</text>
<text x="502.50" y="412" text-anchor="middle" fill="#93a4c3" font-family="Inter, Arial, sans-serif" font-size="12">2025-12-01</text>
<text x="935.00" y="412" text-anchor="middle" fill="#93a4c3" font-family="Inter, Arial, sans-serif" font-size="12">2026-02-02</text>
<path d="M 70.00 272.14 L 80.30 274.42 L 90.60 290.66 L 100.89 289.75 L 111.19 286.93 L 121.49 296.54 L 131.79 271.60 L 142.08 278.85 L 152.38 256.96 L 162.68 123.98 L 172.98 175.75 L 183.27 212.66 L 193.57 109.03 L 203.87 196.19 L 214.17 336.57 L 224.46 309.88 L 234.76 285.33 L 245.06 232.33 L 255.36 267.94 L 265.65 285.48 L 275.95 299.36 L 286.25 266.80 L 296.55 256.12 L 306.85 236.53 L 317.14 192.98 L 327.44 135.80 L 337.74 183.68 L 348.04 184.67 L 358.33 190.93 L 368.63 255.59 L 378.93 294.63 L 389.23 209.53 L 399.52 237.06 L 409.82 167.36 L 420.12 60.00 L 430.42 70.45 L 440.71 66.18 L 451.01 146.17 L 461.31 277.24 L 471.61 326.96 L 481.90 337.79 L 492.20 375.00 L 502.50 333.06 L 512.80 308.20 L 523.10 290.89 L 533.39 264.74 L 543.69 247.28 L 553.99 278.92 L 564.29 241.33 L 574.58 272.67 L 584.88 307.67 L 595.18 264.05 L 605.48 273.13 L 615.77 273.58 L 626.07 183.07 L 636.37 209.46 L 646.67 304.77 L 656.96 329.32 L 667.26 342.21 L 677.56 374.85 L 687.86 360.82 L 698.15 332.91 L 708.45 310.11 L 718.75 254.37 L 729.05 241.41 L 739.35 250.25 L 749.64 274.96 L 759.94 271.37 L 770.24 287.00 L 780.54 289.90 L 790.83 256.43 L 801.13 234.08 L 811.43 237.06 L 821.73 246.21 L 832.02 211.90 L 842.32 84.17 L 852.62 172.78 L 862.92 214.11 L 873.21 200.15 L 883.51 248.88 L 893.81 293.33 L 904.11 261.99 L 914.40 228.59 L 924.70 226.46 L 935.00 237.44" fill="none" stroke="#69a7ff" stroke-width="4" stroke-linecap="round" stroke-linejoin="round"/>
<circle cx="935.00" cy="237.44" r="6" fill="#69a7ff"/>
</svg>