<svg xmlns="http://www.w3.org/2000/svg" width="960" height="430" viewBox="0 0 960 430" role="img" aria-label="Composite score history">
<rect width="100%" height="100%" fill="#0b1020" rx="20"/>
<text x="70" y="32" fill="#f5f7fb" font-family="Inter, Arial, sans-serif" font-size="24" font-weight="700">Composite score history</text>
<text x="70" y="52" fill="#93a4c3" font-family="Inter, Arial, sans-serif" font-size="13">Trailing 77 sessions through 2026-02-02</text>
<line x1="70" x2="935" y1="375.00" y2="375.00" stroke="#27314e" stroke-width="1"/>
<text x="58" y="379.00" text-anchor="end" fill="#93a4c3" font-family="Inter, Arial, sans-serif" font-size="12">0</text>
<line x1="70" x2="935" y1="312.00" y2="312.00" stroke="#27314e" stroke-width="1"/>
<text x="58" y="316.00" text-anchor="end" fill="#93a4c3" font-family="Inter, Arial, sans-serif" font-size="12">8</text>
<line x1="70" x2="935" y1="249.00" y2="249.00" stroke="#27314e" stroke-width="1"/>
<text x="58" y="253.00" text-anchor="end" fill="#93a4c3" font-family="Inter, Arial, sans-serif" font-size="12">17</text>
<line x1="70" x2="935" y1="186.00" y2="186.00" stroke="#27314e" stroke-width="1"/>
<text x="58" y="190.00" text-anchor="end" fill="#93a4c3" font-family="Inter, Arial, sans-serif" font-size="12">25</text>
<line x1="70" x2="935" y1="123.00" y2="123.00" stroke="#27314e" stroke-width="1"/>
<text x="58" y="127.00" text-anchor="end" fill="#93a4c3" font-family="Inter, Arial, sans-serif" font-size="12">33</text>
<line x1="70" x2="935" y1="60.00" y2="60.00" stroke="#27314e" stroke-width="1"/>
<text x="58" y="64.00" text-anchor="end" fill="#93a4c3" font-family="Inter, Arial, sans-serif" font-size="12">41</text>
<text x="70.00" y="412" text-anchor="middle" fill="#93a4c3" font-family="Inter, Arial, sans-serif" font-size="12">2025-10-09</text>
<text x="502.50" y="412" text-anchor="middle" fill="#93a4c3" font-family="Inter, Arial, sans-serif" font-size="12">2025-12-05</text>
<text x="935.00" y="412" text-anchor="middle" fill="#93a4c3" font-family="Inter, Arial, sans-serif" font-size="12">2026-02-02</text>
<path d="M 70.00 274.19 L 81.38 111.78 L 92.76 179.03 L 104.14 195.35 L 115.53 120.24 L 126.91 196.19 L 138.29 336.57 L 149.67 309.88 L 161.05 285.33 L 172.43 232.33 L 183.82 267.94 L 195.20 285.48 L 206.58 299.36 L 217.96 266.80 L 229.34 256.12 L 240.72 236.53 L 252.11 192.98 L 263.49 135.80 L 274.87 183.68 L 286.25 184.67 L 297.63 190.93 L 309.01 255.59 L 320.39 294.63 L 331.78 209.53 L 343.16 237.06 L 354.54 167.36 L 365.92 60.00 L 377.30 70.45 L 388.68 66.18 L 400.07 146.17 L 411.45 277.24 L 422.83 326.96 L 434.21 337.79 L 445.59 375.00 L 456.97 333.06 L 468.36 308.20 L 479.74 290.89 L 491.12 264.74 L 502.50 247.28 L 513.88 278.92 L 525.26 241.33 L 536.64 272.67 L 548.03 307.67 L 559.41 264.05 L 570.79 273.13 L 582.17 273.58 L 593.55 183.07 L 604.93 209.46 L 616.32 304.77 L 627.70 329.32 L 639.08 342.21 L 650.46 374.85 L 661.84 360.82 L 673.22 332.91 L 684.61 310.11 L 695.99 254.37 L 707.37 241.41 L 718.75 250.25 L 730.13 274.96 L 741.51 271.37 L 752.89 287.00 L 764.28 289.90 L 775.66 256.43 L 787.04 234.08 L 798.42 237.06 L 809.80 246.21 L 821.18 211.90 L 832.57 84.17 L 843.95 172.78 L 855.33 214.11 L 866.71 200.15 L 878.09 248.88 L 889.47 293.33 L 900.86 261.99 L 912.24 228.59 L 923.62 226.46 L 935.00 237.44" fill="none" stroke="#69a7ff" stroke-width="4" stroke-linecap="round" stroke-linejoin="round"/>
<circle cx="935.00" cy="237.44" r="6" fill="#69a7ff"/>
</svg>