<svg xmlns="http://www.w3.org/2000/svg" width="960" height="430" viewBox="0 0 960 430" role="img" aria-label="Composite score history">
<rect width="100%" height="100%" fill="#0b1020" rx="20"/>
<text x="70" y="32" fill="#f5f7fb" font-family="Inter, Arial, sans-serif" font-size="24" font-weight="700">Composite score history</text>
<text x="70" y="52" fill="#93a4c3" font-family="Inter, Arial, sans-serif" font-size="13">Trailing 58 sessions through 2026-02-02</text>
<line x1="70" x2="935" y1="375.00" y2="375.00" stroke="#27314e" stroke-width="1"/>
<text x="58" y="379.00" text-anchor="end" fill="#93a4c3" font-family="Inter, Arial, sans-serif" font-size="12">0</text>
<line x1="70" x2="935" y1="312.00" y2="312.00" stroke="#27314e" stroke-width="1"/>
<text x="58" y="316.00" text-anchor="end" fill="#93a4c3" font-family="Inter, Arial, sans-serif" font-size="12">8</text>
<line x1="70" x2="935" y1="249.00" y2="249.00" stroke="#27314e" stroke-width="1"/>
<text x="58" y="253.00" text-anchor="end" fill="#93a4c3" font-family="Inter, Arial, sans-serif" font-size="12">17</text>
<line x1="70" x2="935" y1="186.00" y2="186.00" stroke="#27314e" stroke-width="1"/>
<text x="58" y="190.00" text-anchor="end" fill="#93a4c3" font-family="Inter, Arial, sans-serif" font-size="12">25</text>
<line x1="70" x2="935" y1="123.00" y2="123.00" stroke="#27314e" stroke-width="1"/>
<text x="58" y="127.00" text-anchor="end" fill="#93a4c3" font-family="Inter, Arial, sans-serif" font-size="12">33</text>
<line x1="70" x2="935" y1="60.00" y2="60.00" stroke="#27314e" stroke-width="1"/>
<text x="58" y="64.00" text-anchor="end" fill="#93a4c3" font-family="Inter, Arial, sans-serif" font-size="12">41</text>
<text x="70.00" y="412" text-anchor="middle" fill="#93a4c3" font-family="Inter, Arial, sans-serif" font-size="12">2025-11-06</text>
<text x="510.09" y="412" text-anchor="middle" fill="#93a4c3" font-family="Inter, Arial, sans-serif" font-size="12">2025-12-19</text>
<text x="935.00" y="412" text-anchor="middle" fill="#93a4c3" font-family="Inter, Arial, sans-serif" font-size="12">2026-02-02</text>
<path d="M 70.00 260.16 L 85.18 267.18 L 100.35 294.48 L 115.53 309.27 L 130.70 255.05 L 145.88 237.06 L 161.05 167.36 L 176.23 60.00 L 191.40 70.45 L 206.58 66.18 L 221.75 146.17 L 236.93 277.24 L 252.11 326.96 L 267.28 337.79 L 282.46 375.00 L 297.63 333.06 L 312.81 308.20 L 327.98 290.89 L 343.16 264.74 L 358.33 247.28 L 373.51 278.92 L 388.68 241.33 L 403.86 272.67 L 419.04 307.67 L 434.21 264.05 L 449.39 273.13 L 464.56 273.58 L 479.74 183.07 L 494.91 209.46 L 510.09 304.77 L 525.26 329.32 L 540.44 342.21 L 555.61 374.85 L 570.79 360.82 L 585.96 332.91 L 601.14 310.11 L 616.32 254.37 L 631.49 241.41 L 646.67 250.25 L 661.84 274.96 L 677.02 271.37 L 692.19 287.00 L 707.37 289.90 L 722.54 256.43 L 737.72 234.08 L 752.89 237.06 L 768.07 246.21 L 783.25 211.90 L 798.42 84.17 L 813.60 172.78 L 828.77 214.11 L 843.95 200.15 L 859.12 248.88 L 874.30 293.33 L 889.47 261.99 L 904.65 228.59 L 919.82 226.46 L 935.00 237.44" fill="none" stroke="#69a7ff" stroke-width="4" stroke-linecap="round" stroke-linejoin="round"/>
<circle cx="935.00" cy="237.44" r="6" fill="#69a7ff"/>
</svg>