<svg xmlns="http://www.w3.org/2000/svg" width="960" height="430" viewBox="0 0 960 430" role="img" aria-label="Composite score history">
<rect width="100%" height="100%" fill="#0b1020" rx="20"/>
<text x="70" y="32" fill="#f5f7fb" font-family="Inter, Arial, sans-serif" font-size="24" font-weight="700">Composite score history</text>
<text x="70" y="52" fill="#93a4c3" font-family="Inter, Arial, sans-serif" font-size="13">Trailing 78 sessions through 2026-02-02</text>
<line x1="70" x2="935" y1="375.00" y2="375.00" stroke="#27314e" stroke-width="1"/>
<text x="58" y="379.00" text-anchor="end" fill="#93a4c3" font-family="Inter, Arial, sans-serif" font-size="12">0</text>
<line x1="70" x2="935" y1="312.00" y2="312.00" stroke="#27314e" stroke-width="1"/>
<text x="58" y="316.00" text-anchor="end" fill="#93a4c3" font-family="Inter, Arial, sans-serif" font-size="12">8</text>
<line x1="70" x2="935" y1="249.00" y2="249.00" stroke="#27314e" stroke-width="1"/>
<text x="58" y="253.00" text-anchor="end" fill="#93a4c3" font-family="Inter, Arial, sans-serif" font-size="12">17</text>
<line x1="70" x2="935" y1="186.00" y2="186.00" stroke="#27314e" stroke-width="1"/>
<text x="58" y="190.00" text-anchor="end" fill="#93a4c3" font-family="Inter, Arial, sans-serif" font-size="12">25</text>
<line x1="70" x2="935" y1="123.00" y2="123.00" stroke="#27314e" stroke-width="1"/>
<text x="58" y="127.00" text-anchor="end" fill="#93a4c3" font-family="Inter, Arial, sans-serif" font-size="12">33</text>
<line x1="70" x2="935" y1="60.00" y2="60.00" stroke="#27314e" stroke-width="1"/>
<text x="58" y="64.00" text-anchor="end" fill="#93a4c3" font-family="Inter, Arial, sans-serif" font-size="12">41</text>
<text x="70.00" y="412" text-anchor="middle" fill="#93a4c3" font-family="Inter, Arial, sans-serif" font-size="12">2025-10-08</text>
<text x="508.12" y="412" text-anchor="middle" fill="#93a4c3" font-family="Inter, Arial, sans-serif" font-size="12">2025-12-05</text>
<text x="935.00" y="412" text-anchor="middle" fill="#93a4c3" font-family="Inter, Arial, sans-serif" font-size="12">2026-02-02</text>
<path d="M 70.00 275.95 L 81.23 256.66 L 92.47 100.57 L 103.70 167.75 L 114.94 183.99 L 126.17 109.03 L 137.40 196.19 L 148.64 336.57 L 159.87 309.88 L 171.10 285.33 L 182.34 232.33 L 193.57 267.94 L 204.81 285.48 L 216.04 299.36 L 227.27 266.80 L 238.51 256.12 L 249.74 236.53 L 260.97 192.98 L 272.21 135.80 L 283.44 183.68 L 294.68 184.67 L 305.91 190.93 L 317.14 255.59 L 328.38 294.63 L 339.61 209.53 L 350.84 237.06 L 362.08 167.36 L 373.31 60.00 L 384.55 70.45 L 395.78 66.18 L 407.01 146.17 L 418.25 277.24 L 429.48 326.96 L 440.71 337.79 L 451.95 375.00 L 463.18 333.06 L 474.42 308.20 L 485.65 290.89 L 496.88 264.74 L 508.12 247.28 L 519.35 278.92 L 530.58 241.33 L 541.82 272.67 L 553.05 307.67 L 564.29 264.05 L 575.52 273.13 L 586.75 273.58 L 597.99 183.07 L 609.22 209.46 L 620.45 304.77 L 631.69 329.32 L 642.92 342.21 L 654.16 374.85 L 665.39 360.82 L 676.62 332.91 L 687.86 310.11 L 699.09 254.37 L 710.32 241.41 L 721.56 250.25 L 732.79 274.96 L 744.03 271.37 L 755.26 287.00 L 766.49 289.90 L 777.73 256.43 L 788.96 234.08 L 800.19 237.06 L 811.43 246.21 L 822.66 211.90 L 833.90 84.17 L 845.13 172.78 L 856.36 214.11 L 867.60 200.15 L 878.83 248.88 L 890.06 293.33 L 901.30 261.99 L 912.53 228.59 L 923.77 226.46 L 935.00 237.44" fill="none" stroke="#69a7ff" stroke-width="4" stroke-linecap="round" stroke-linejoin="round"/>
<circle cx="935.00" cy="237.44" r="6" fill="#69a7ff"/>
</svg>