<svg xmlns="http://www.w3.org/2000/svg" width="960" height="430" viewBox="0 0 960 430" role="img" aria-label="Composite score history">
<rect width="100%" height="100%" fill="#0b1020" rx="20"/>
<text x="70" y="32" fill="#f5f7fb" font-family="Inter, Arial, sans-serif" font-size="24" font-weight="700">Composite score history</text>
<text x="70" y="52" fill="#93a4c3" font-family="Inter, Arial, sans-serif" font-size="13">Trailing 63 sessions through 2026-02-02</text>
<line x1="70" x2="935" y1="375.00" y2="375.00" stroke="#27314e" stroke-width="1"/>
<text x="58" y="379.00" text-anchor="end" fill="#93a4c3" font-family="Inter, Arial, sans-serif" font-size="12">0</text>
<line x1="70" x2="935" y1="312.00" y2="312.00" stroke="#27314e" stroke-width="1"/>
<text x="58" y="316.00" text-anchor="end" fill="#93a4c3" font-family="Inter, Arial, sans-serif" font-size="12">8</text>
<line x1="70" x2="935" y1="249.00" y2="249.00" stroke="#27314e" stroke-width="1"/>
<text x="58" y="253.00" text-anchor="end" fill="#93a4c3" font-family="Inter, Arial, sans-serif" font-size="12">17</text>
<line x1="70" x2="935" y1="186.00" y2="186.00" stroke="#27314e" stroke-width="1"/>
<text x="58" y="190.00" text-anchor="end" fill="#93a4c3" font-family="Inter, Arial, sans-serif" font-size="12">25</text>
<line x1="70" x2="935" y1="123.00" y2="123.00" stroke="#27314e" stroke-width="1"/>
<text x="58" y="127.00" text-anchor="end" fill="#93a4c3" font-family="Inter, Arial, sans-serif" font-size="12">33</text>
<line x1="70" x2="935" y1="60.00" y2="60.00" stroke="#27314e" stroke-width="1"/>
<text x="58" y="64.00" text-anchor="end" fill="#93a4c3" font-family="Inter, Arial, sans-serif" font-size="12">41</text>
<text x="70.00" y="412" text-anchor="middle" fill="#93a4c3" font-family="Inter, Arial, sans-serif" font-size="12">2025-10-30</text>
<text x="502.50" y="412" text-anchor="middle" fill="#93a4c3" font-family="Inter, Arial, sans-serif" font-size="12">2025-12-16</text>
<text x="935.00" y="412" text-anchor="middle" fill="#93a4c3" font-family="Inter, Arial, sans-serif" font-size="12">2026-02-02</text>
<path d="M 70.00 272.06 L 83.95 260.77 L 97.90 262.60 L 111.85 218.15 L 125.81 231.11 L 139.76 184.67 L 153.71 190.93 L 167.66 255.59 L 181.61 294.63 L 195.56 209.53 L 209.52 237.06 L 223.47 167.36 L 237.42 60.00 L 251.37 70.45 L 265.32 66.18 L 279.27 146.17 L 293.23 277.24 L 307.18 326.96 L 321.13 337.79 L 335.08 375.00 L 349.03 333.06 L 362.98 308.20 L 376.94 290.89 L 390.89 264.74 L 404.84 247.28 L 418.79 278.92 L 432.74 241.33 L 446.69 272.67 L 460.65 307.67 L 474.60 264.05 L 488.55 273.13 L 502.50 273.58 L 516.45 183.07 L 530.40 209.46 L 544.35 304.77 L 558.31 329.32 L 572.26 342.21 L 586.21 374.85 L 600.16 360.82 L 614.11 332.91 L 628.06 310.11 L 642.02 254.37 L 655.97 241.41 L 669.92 250.25 L 683.87 274.96 L 697.82 271.37 L 711.77 287.00 L 725.73 289.90 L 739.68 256.43 L 753.63 234.08 L 767.58 237.06 L 781.53 246.21 L 795.48 211.90 L 809.44 84.17 L 823.39 172.78 L 837.34 214.11 L 851.29 200.15 L 865.24 248.88 L 879.19 293.33 L 893.15 261.99 L 907.10 228.59 L 921.05 226.46 L 935.00 237.44" fill="none" stroke="#69a7ff" stroke-width="4" stroke-linecap="round" stroke-linejoin="round"/>
<circle cx="935.00" cy="237.44" r="6" fill="#69a7ff"/>
</svg>