<svg xmlns="http://www.w3.org/2000/svg" width="960" height="430" viewBox="0 0 960 430" role="img" aria-label="Composite score history">
<rect width="100%" height="100%" fill="#0b1020" rx="20"/>
<text x="70" y="32" fill="#f5f7fb" font-family="Inter, Arial, sans-serif" font-size="24" font-weight="700">Composite score history</text>
<text x="70" y="52" fill="#93a4c3" font-family="Inter, Arial, sans-serif" font-size="13">Trailing 65 sessions through 2026-02-02</text>
<line x1="70" x2="935" y1="375.00" y2="375.00" stroke="#27314e" stroke-width="1"/>
<text x="58" y="379.00" text-anchor="end" fill="#93a4c3" font-family="Inter, Arial, sans-serif" font-size="12">0</text>
<line x1="70" x2="935" y1="312.00" y2="312.00" stroke="#27314e" stroke-width="1"/>
<text x="58" y="316.00" text-anchor="end" fill="#93a4c3" font-family="Inter, Arial, sans-serif" font-size="12">8</text>
<line x1="70" x2="935" y1="249.00" y2="249.00" stroke="#27314e" stroke-width="1"/>
<text x="58" y="253.00" text-anchor="end" fill="#93a4c3" font-family="Inter, Arial, sans-serif" font-size="12">17</text>
<line x1="70" x2="935" y1="186.00" y2="186.00" stroke="#27314e" stroke-width="1"/>
<text x="58" y="190.00" text-anchor="end" fill="#93a4c3" font-family="Inter, Arial, sans-serif" font-size="12">25</text>
<line x1="70" x2="935" y1="123.00" y2="123.00" stroke="#27314e" stroke-width="1"/>
<text x="58" y="127.00" text-anchor="end" fill="#93a4c3" font-family="Inter, Arial, sans-serif" font-size="12">33</text>
<line x1="70" x2="935" y1="60.00" y2="60.00" stroke="#27314e" stroke-width="1"/>
<text x="58" y="64.00" text-anchor="end" fill="#93a4c3" font-family="Inter, Arial, sans-serif" font-size="12">41</text>
<text x="70.00" y="412" text-anchor="middle" fill="#93a4c3" font-family="Inter, Arial, sans-serif" font-size="12">2025-10-28</text>
<text x="502.50" y="412" text-anchor="middle" fill="#93a4c3" font-family="Inter, Arial, sans-serif" font-size="12">2025-12-15</text>
<text x="935.00" y="412" text-anchor="middle" fill="#93a4c3" font-family="Inter, Arial, sans-serif" font-size="12">2026-02-02</text>
<path d="M 70.00 284.34 L 83.52 229.97 L 97.03 180.25 L 110.55 176.97 L 124.06 182.00 L 137.58 135.80 L 151.09 183.68 L 164.61 184.67 L 178.12 190.93 L 191.64 255.59 L 205.16 294.63 L 218.67 209.53 L 232.19 237.06 L 245.70 167.36 L 259.22 60.00 L 272.73 70.45 L 286.25 66.18 L 299.77 146.17 L 313.28 277.24 L 326.80 326.96 L 340.31 337.79 L 353.83 375.00 L 367.34 333.06 L 380.86 308.20 L 394.38 290.89 L 407.89 264.74 L 421.41 247.28 L 434.92 278.92 L 448.44 241.33 L 461.95 272.67 L 475.47 307.67 L 488.98 264.05 L 502.50 273.13 L 516.02 273.58 L 529.53 183.07 L 543.05 209.46 L 556.56 304.77 L 570.08 329.32 L 583.59 342.21 L 597.11 374.85 L 610.62 360.82 L 624.14 332.91 L 637.66 310.11 L 651.17 254.37 L 664.69 241.41 L 678.20 250.25 L 691.72 274.96 L 705.23 271.37 L 718.75 287.00 L 732.27 289.90 L 745.78 256.43 L 759.30 234.08 L 772.81 237.06 L 786.33 246.21 L 799.84 211.90 L 813.36 84.17 L 826.88 172.78 L 840.39 214.11 L 853.91 200.15 L 867.42 248.88 L 880.94 293.33 L 894.45 261.99 L 907.97 228.59 L 921.48 226.46 L 935.00 237.44" fill="none" stroke="#69a7ff" stroke-width="4" stroke-linecap="round" stroke-linejoin="round"/>
<circle cx="935.00" cy="237.44" r="6" fill="#69a7ff"/>
</svg>