<svg xmlns="http://www.w3.org/2000/svg" width="960" height="430" viewBox="0 0 960 430" role="img" aria-label="Composite score history">
<rect width="100%" height="100%" fill="#0b1020" rx="20"/>
<text x="70" y="32" fill="#f5f7fb" font-family="Inter, Arial, sans-serif" font-size="24" font-weight="700">Composite score history</text>
<text x="70" y="52" fill="#93a4c3" font-family="Inter, Arial, sans-serif" font-size="13">Trailing 57 sessions through 2025-10-22</text>
<line x1="70" x2="935" y1="375.00" y2="375.00" stroke="#27314e" stroke-width="1"/>
<text x="58" y="379.00" text-anchor="end" fill="#93a4c3" font-family="Inter, Arial, sans-serif" font-size="12">5</text>
<line x1="70" x2="935" y1="312.00" y2="312.00" stroke="#27314e" stroke-width="1"/>
<text x="58" y="316.00" text-anchor="end" fill="#93a4c3" font-family="Inter, Arial, sans-serif" font-size="12">11</text>
<line x1="70" x2="935" y1="249.00" y2="249.00" stroke="#27314e" stroke-width="1"/>
<text x="58" y="253.00" text-anchor="end" fill="#93a4c3" font-family="Inter, Arial, sans-serif" font-size="12">17</text>
<line x1="70" x2="935" y1="186.00" y2="186.00" stroke="#27314e" stroke-width="1"/>
<text x="58" y="190.00" text-anchor="end" fill="#93a4c3" font-family="Inter, Arial, sans-serif" font-size="12">23</text>
<line x1="70" x2="935" y1="123.00" y2="123.00" stroke="#27314e" stroke-width="1"/>
<text x="58" y="127.00" text-anchor="end" fill="#93a4c3" font-family="Inter, Arial, sans-serif" font-size="12">29</text>
<line x1="70" x2="935" y1="60.00" y2="60.00" stroke="#27314e" stroke-width="1"/>
<text x="58" y="64.00" text-anchor="end" fill="#93a4c3" font-family="Inter, Arial, sans-serif" font-size="12">35</text>
<text x="70.00" y="412" text-anchor="middle" fill="#93a4c3" font-family="Inter, Arial, sans-serif" font-size="12">2025-08-01</text>
<text x="502.50" y="412" text-anchor="middle" fill="#93a4c3" font-family="Inter, Arial, sans-serif" font-size="12">2025-09-11</text>
<text x="935.00" y="412" text-anchor="middle" fill="#93a4c3" font-family="Inter, Arial, sans-serif" font-size="12">2025-10-22</text>
<path d="M 70.00 252.12 L 85.45 293.40 L 100.89 263.00 L 116.34 312.72 L 131.79 290.55 L 147.23 268.80 L 162.68 229.96 L 178.12 338.37 L 193.57 334.46 L 209.02 319.79 L 224.46 309.02 L 239.91 310.61 L 255.36 235.87 L 270.80 183.93 L 286.25 141.81 L 301.70 261.84 L 317.14 231.86 L 332.59 249.49 L 348.04 267.22 L 363.48 315.67 L 378.93 268.59 L 394.38 221.19 L 409.82 245.90 L 425.27 294.46 L 440.71 276.30 L 456.16 318.00 L 471.61 337.63 L 487.05 332.67 L 502.50 339.53 L 517.95 320.85 L 533.39 317.57 L 548.84 315.88 L 564.29 307.02 L 579.73 259.83 L 595.18 308.07 L 610.62 278.20 L 626.07 295.93 L 641.52 277.35 L 656.96 217.08 L 672.41 249.27 L 687.86 251.60 L 703.30 268.06 L 718.75 321.27 L 734.20 337.95 L 749.64 305.01 L 765.09 319.58 L 780.54 285.06 L 795.98 295.09 L 811.43 264.79 L 826.88 80.69 L 842.32 152.37 L 857.77 203.46 L 873.21 60.00 L 888.66 180.66 L 904.11 375.00 L 919.55 338.05 L 935.00 304.06" fill="none" stroke="#69a7ff" stroke-width="4" stroke-linecap="round" stroke-linejoin="round"/>
<circle cx="935.00" cy="304.06" r="6" fill="#69a7ff"/>
</svg>