<svg xmlns="http://www.w3.org/2000/svg" width="960" height="430" viewBox="0 0 960 430" role="img" aria-label="Composite score history">
<rect width="100%" height="100%" fill="#0b1020" rx="20"/>
<text x="70" y="32" fill="#f5f7fb" font-family="Inter, Arial, sans-serif" font-size="24" font-weight="700">Composite score history</text>
<text x="70" y="52" fill="#93a4c3" font-family="Inter, Arial, sans-serif" font-size="13">Trailing 70 sessions through 2025-10-22</text>
<line x1="70" x2="935" y1="375.00" y2="375.00" stroke="#27314e" stroke-width="1"/>
<text x="58" y="379.00" text-anchor="end" fill="#93a4c3" font-family="Inter, Arial, sans-serif" font-size="12">2</text>
<line x1="70" x2="935" y1="312.00" y2="312.00" stroke="#27314e" stroke-width="1"/>
<text x="58" y="316.00" text-anchor="end" fill="#93a4c3" font-family="Inter, Arial, sans-serif" font-size="12">7</text>
<line x1="70" x2="935" y1="249.00" y2="249.00" stroke="#27314e" stroke-width="1"/>
<text x="58" y="253.00" text-anchor="end" fill="#93a4c3" font-family="Inter, Arial, sans-serif" font-size="12">12</text>
<line x1="70" x2="935" y1="186.00" y2="186.00" stroke="#27314e" stroke-width="1"/>
<text x="58" y="190.00" text-anchor="end" fill="#93a4c3" font-family="Inter, Arial, sans-serif" font-size="12">18</text>
<line x1="70" x2="935" y1="123.00" y2="123.00" stroke="#27314e" stroke-width="1"/>
<text x="58" y="127.00" text-anchor="end" fill="#93a4c3" font-family="Inter, Arial, sans-serif" font-size="12">23</text>
<line x1="70" x2="935" y1="60.00" y2="60.00" stroke="#27314e" stroke-width="1"/>
<text x="58" y="64.00" text-anchor="end" fill="#93a4c3" font-family="Inter, Arial, sans-serif" font-size="12">28</text>
<text x="70.00" y="412" text-anchor="middle" fill="#93a4c3" font-family="Inter, Arial, sans-serif" font-size="12">2025-07-15</text>
<text x="508.77" y="412" text-anchor="middle" fill="#93a4c3" font-family="Inter, Arial, sans-serif" font-size="12">2025-09-03</text>
<text x="935.00" y="412" text-anchor="middle" fill="#93a4c3" font-family="Inter, Arial, sans-serif" font-size="12">2025-10-22</text>
<path d="M 70.00 350.16 L 82.54 336.94 L 95.07 281.63 L 107.61 328.50 L 120.14 341.59 L 132.68 358.36 L 145.22 368.88 L 157.75 368.64 L 170.29 336.21 L 182.83 298.64 L 195.36 311.12 L 207.90 231.94 L 220.43 281.26 L 232.97 115.44 L 245.51 262.90 L 258.04 255.44 L 270.58 323.85 L 283.12 357.62 L 295.65 162.80 L 308.19 198.53 L 320.72 344.16 L 333.26 346.49 L 345.80 318.83 L 358.33 371.45 L 370.87 360.19 L 383.41 287.99 L 395.94 199.39 L 408.48 167.57 L 421.01 287.74 L 433.55 257.88 L 446.09 207.59 L 458.62 220.68 L 471.16 301.08 L 483.70 349.55 L 496.23 302.19 L 508.77 323.11 L 521.30 364.35 L 533.84 342.81 L 546.38 371.21 L 558.91 371.94 L 571.45 369.00 L 583.99 375.00 L 596.52 313.32 L 609.06 298.02 L 621.59 344.53 L 634.13 330.70 L 646.67 247.36 L 659.20 332.66 L 671.74 256.42 L 684.28 329.35 L 696.81 294.84 L 709.35 233.41 L 721.88 277.22 L 734.42 307.45 L 746.96 274.65 L 759.49 358.97 L 772.03 357.13 L 784.57 341.35 L 797.10 356.64 L 809.64 340.37 L 822.17 323.36 L 834.71 267.19 L 847.25 104.06 L 859.78 180.17 L 872.32 241.12 L 884.86 60.00 L 897.39 203.92 L 909.93 342.20 L 922.46 345.51 L 935.00 338.78" fill="none" stroke="#69a7ff" stroke-width="4" stroke-linecap="round" stroke-linejoin="round"/>
<circle cx="935.00" cy="338.78" r="6" fill="#69a7ff"/>
<text x="927.00" y="326.78" text-anchor="end" fill="#f5f7fb" font-family="Inter, Arial, sans-serif" font-size="12" font-weight="600">5.02</text>
</svg>