<svg xmlns="http://www.w3.org/2000/svg" width="960" height="430" viewBox="0 0 960 430" role="img" aria-label="Composite score history">
<rect width="100%" height="100%" fill="#0b1020" rx="20"/>
<text x="70" y="32" fill="#f5f7fb" font-family="Inter, Arial, sans-serif" font-size="24" font-weight="700">Composite score history</text>
<text x="70" y="52" fill="#93a4c3" font-family="Inter, Arial, sans-serif" font-size="13">Trailing 78 sessions through 2026-01-13</text>
<line x1="70" x2="935" y1="375.00" y2="375.00" stroke="#27314e" stroke-width="1"/>
<text x="58" y="379.00" text-anchor="end" fill="#93a4c3" font-family="Inter, Arial, sans-serif" font-size="12">0</text>
<line x1="70" x2="935" y1="312.00" y2="312.00" stroke="#27314e" stroke-width="1"/>
<text x="58" y="316.00" text-anchor="end" fill="#93a4c3" font-family="Inter, Arial, sans-serif" font-size="12">8</text>
<line x1="70" x2="935" y1="249.00" y2="249.00" stroke="#27314e" stroke-width="1"/>
<text x="58" y="253.00" text-anchor="end" fill="#93a4c3" font-family="Inter, Arial, sans-serif" font-size="12">17</text>
<line x1="70" x2="935" y1="186.00" y2="186.00" stroke="#27314e" stroke-width="1"/>
<text x="58" y="190.00" text-anchor="end" fill="#93a4c3" font-family="Inter, Arial, sans-serif" font-size="12">25</text>
<line x1="70" x2="935" y1="123.00" y2="123.00" stroke="#27314e" stroke-width="1"/>
<text x="58" y="127.00" text-anchor="end" fill="#93a4c3" font-family="Inter, Arial, sans-serif" font-size="12">33</text>
<line x1="70" x2="935" y1="60.00" y2="60.00" stroke="#27314e" stroke-width="1"/>
<text x="58" y="64.00" text-anchor="end" fill="#93a4c3" font-family="Inter, Arial, sans-serif" font-size="12">41</text>
<text x="70.00" y="412" text-anchor="middle" fill="#93a4c3" font-family="Inter, Arial, sans-serif" font-size="12">2025-09-19</text>
<text x="508.12" y="412" text-anchor="middle" fill="#93a4c3" font-family="Inter, Arial, sans-serif" font-size="12">2025-11-17</text>
<text x="935.00" y="412" text-anchor="middle" fill="#93a4c3" font-family="Inter, Arial, sans-serif" font-size="12">2026-01-13</text>
<path d="M 70.00 276.79 L 81.23 263.67 L 92.47 260.32 L 103.70 253.45 L 114.94 202.21 L 126.17 245.75 L 137.40 247.43 L 148.64 259.32 L 159.87 297.76 L 171.10 309.80 L 182.34 286.01 L 193.57 296.54 L 204.81 271.60 L 216.04 278.85 L 227.27 256.96 L 238.51 123.98 L 249.74 175.75 L 260.97 212.66 L 272.21 109.03 L 283.44 196.19 L 294.68 336.57 L 305.91 309.88 L 317.14 285.33 L 328.38 232.33 L 339.61 267.94 L 350.84 285.48 L 362.08 299.36 L 373.31 266.80 L 384.55 256.12 L 395.78 236.53 L 407.01 192.98 L 418.25 135.80 L 429.48 183.68 L 440.71 184.67 L 451.95 190.93 L 463.18 255.59 L 474.42 294.63 L 485.65 209.53 L 496.88 237.06 L 508.12 167.36 L 519.35 60.00 L 530.58 70.45 L 541.82 66.18 L 553.05 146.17 L 564.29 277.24 L 575.52 326.96 L 586.75 337.79 L 597.99 375.00 L 609.22 333.06 L 620.45 308.20 L 631.69 290.89 L 642.92 264.74 L 654.16 247.28 L 665.39 278.92 L 676.62 241.33 L 687.86 272.67 L 699.09 307.67 L 710.32 264.05 L 721.56 273.13 L 732.79 273.58 L 744.03 183.07 L 755.26 209.46 L 766.49 304.77 L 777.73 329.32 L 788.96 342.21 L 800.19 374.85 L 811.43 360.82 L 822.66 332.91 L 833.90 310.11 L 845.13 254.37 L 856.36 241.41 L 867.60 250.25 L 878.83 274.96 L 890.06 271.37 L 901.30 287.00 L 912.53 289.90 L 923.77 256.43 L 935.00 234.08" fill="none" stroke="#69a7ff" stroke-width="4" stroke-linecap="round" stroke-linejoin="round"/>
<circle cx="935.00" cy="234.08" r="6" fill="#69a7ff"/>
</svg>