<svg xmlns="http://www.w3.org/2000/svg" width="960" height="430" viewBox="0 0 960 430" role="img" aria-label="Composite score history">
<rect width="100%" height="100%" fill="#0b1020" rx="20"/>
<text x="70" y="32" fill="#f5f7fb" font-family="Inter, Arial, sans-serif" font-size="24" font-weight="700">Composite score history</text>
<text x="70" y="52" fill="#93a4c3" font-family="Inter, Arial, sans-serif" font-size="13">Trailing 86 sessions through 2026-01-13</text>
<line x1="70" x2="935" y1="375.00" y2="375.00" stroke="#27314e" stroke-width="1"/>
<text x="58" y="379.00" text-anchor="end" fill="#93a4c3" font-family="Inter, Arial, sans-serif" font-size="12">0</text>
<line x1="70" x2="935" y1="312.00" y2="312.00" stroke="#27314e" stroke-width="1"/>
<text x="58" y="316.00" text-anchor="end" fill="#93a4c3" font-family="Inter, Arial, sans-serif" font-size="12">8</text>
<line x1="70" x2="935" y1="249.00" y2="249.00" stroke="#27314e" stroke-width="1"/>
<text x="58" y="253.00" text-anchor="end" fill="#93a4c3" font-family="Inter, Arial, sans-serif" font-size="12">17</text>
<line x1="70" x2="935" y1="186.00" y2="186.00" stroke="#27314e" stroke-width="1"/>
<text x="58" y="190.00" text-anchor="end" fill="#93a4c3" font-family="Inter, Arial, sans-serif" font-size="12">25</text>
<line x1="70" x2="935" y1="123.00" y2="123.00" stroke="#27314e" stroke-width="1"/>
<text x="58" y="127.00" text-anchor="end" fill="#93a4c3" font-family="Inter, Arial, sans-serif" font-size="12">33</text>
<line x1="70" x2="935" y1="60.00" y2="60.00" stroke="#27314e" stroke-width="1"/>
<text x="58" y="64.00" text-anchor="end" fill="#93a4c3" font-family="Inter, Arial, sans-serif" font-size="12">41</text>
<text x="70.00" y="412" text-anchor="middle" fill="#93a4c3" font-family="Inter, Arial, sans-serif" font-size="12">2025-09-09</text>
<text x="507.59" y="412" text-anchor="middle" fill="#93a4c3" font-family="Inter, Arial, sans-serif" font-size="12">2025-11-10</text>
<text x="935.00" y="412" text-anchor="middle" fill="#93a4c3" font-family="Inter, Arial, sans-serif" font-size="12">2026-01-13</text>
<path d="M 70.00 280.75 L 80.18 284.72 L 90.35 307.82 L 100.53 297.37 L 110.71 304.62 L 120.88 293.87 L 131.06 287.46 L 141.24 253.38 L 151.41 288.22 L 161.59 266.64 L 171.76 279.46 L 181.94 266.03 L 192.12 222.49 L 202.29 245.75 L 212.47 247.43 L 222.65 259.32 L 232.82 297.76 L 243.00 309.80 L 253.18 286.01 L 263.35 296.54 L 273.53 271.60 L 283.71 278.85 L 293.88 256.96 L 304.06 123.98 L 314.24 175.75 L 324.41 212.66 L 334.59 109.03 L 344.76 196.19 L 354.94 336.57 L 365.12 309.88 L 375.29 285.33 L 385.47 232.33 L 395.65 267.94 L 405.82 285.48 L 416.00 299.36 L 426.18 266.80 L 436.35 256.12 L 446.53 236.53 L 456.71 192.98 L 466.88 135.80 L 477.06 183.68 L 487.24 184.67 L 497.41 190.93 L 507.59 255.59 L 517.76 294.63 L 527.94 209.53 L 538.12 237.06 L 548.29 167.36 L 558.47 60.00 L 568.65 70.45 L 578.82 66.18 L 589.00 146.17 L 599.18 277.24 L 609.35 326.96 L 619.53 337.79 L 629.71 375.00 L 639.88 333.06 L 650.06 308.20 L 660.24 290.89 L 670.41 264.74 L 680.59 247.28 L 690.76 278.92 L 700.94 241.33 L 711.12 272.67 L 721.29 307.67 L 731.47 264.05 L 741.65 273.13 L 751.82 273.58 L 762.00 183.07 L 772.18 209.46 L 782.35 304.77 L 792.53 329.32 L 802.71 342.21 L 812.88 374.85 L 823.06 360.82 L 833.24 332.91 L 843.41 310.11 L 853.59 254.37 L 863.76 241.41 L 873.94 250.25 L 884.12 274.96 L 894.29 271.37 L 904.47 287.00 L 914.65 289.90 L 924.82 256.43 L 935.00 234.08" fill="none" stroke="#69a7ff" stroke-width="4" stroke-linecap="round" stroke-linejoin="round"/>
<circle cx="935.00" cy="234.08" r="6" fill="#69a7ff"/>
</svg>